<svg width="24" height="24" viewBox="0 0 24 24" fill="none" xmlns="http://www.w3.org/2000/svg">
<path fill-rule="evenodd" clip-rule="evenodd" d="M6.61132 5.00586C6.86822 5.02489 7.11659 5.11042 7.33202 5.25391C7.57827 5.41804 7.7708 5.6517 7.88476 5.9248L11.9228 15.6152C12.1351 16.1249 11.8944 16.7104 11.3848 16.9229C10.875 17.1353 10.2896 16.8936 10.0771 16.3838L9.08397 14H3.91698L2.92284 16.3848C2.7102 16.8942 2.12483 17.1352 1.61522 16.9229C1.10565 16.7104 0.86489 16.1249 1.07714 15.6152L5.1162 5.9248L5.1621 5.82422C5.2786 5.59431 5.45343 5.39754 5.66894 5.25391L5.76269 5.19629C5.98723 5.06945 6.24183 5.00195 6.50097 5.00195L6.61132 5.00586ZM4.74999 12H8.24999L6.49999 7.80078L4.74999 12Z" fill="#E4F2F2"/>
<path d="M18 6C18.5523 6.00001 19 6.44772 19 7V13.5859L21.293 11.293C21.6835 10.9025 22.3165 10.9024 22.707 11.293C23.0975 11.6835 23.0975 12.3165 22.707 12.707L18.707 16.707C18.6592 16.7548 18.6064 16.7976 18.5498 16.835C18.5121 16.8599 18.4727 16.8811 18.4326 16.9004C18.3871 16.9223 18.34 16.9412 18.291 16.9561C18.2717 16.9619 18.252 16.966 18.2324 16.9707C18.2201 16.9736 18.2078 16.977 18.1953 16.9795C18.1853 16.9815 18.1751 16.9827 18.165 16.9844C18.1112 16.9933 18.0563 17 18 17L17.8975 16.9951C17.876 16.9929 17.855 16.9879 17.834 16.9844C17.8236 16.9826 17.8131 16.9816 17.8027 16.9795C17.7912 16.9772 17.7799 16.9744 17.7685 16.9717C17.748 16.9668 17.7273 16.9623 17.707 16.9561C17.6584 16.9412 17.6116 16.9222 17.5664 16.9004C17.5266 16.8812 17.4877 16.8597 17.4502 16.835C17.3935 16.7976 17.3408 16.7548 17.293 16.707L13.293 12.707C12.9024 12.3165 12.9024 11.6835 13.293 11.293C13.6835 10.9025 14.3165 10.9024 14.707 11.293L17 13.5859V7C17 6.44772 17.4477 6 18 6Z" fill="#E4F2F2"/>
</svg>
