<svg width="24" height="24" viewBox="0 0 24 24" fill="none" xmlns="http://www.w3.org/2000/svg">
<path fill-rule="evenodd" clip-rule="evenodd" d="M6.61132 5.00586C6.86822 5.02489 7.11659 5.11042 7.33202 5.25391C7.57827 5.41804 7.7708 5.6517 7.88476 5.9248L11.9228 15.6152C12.1351 16.1249 11.8944 16.7104 11.3848 16.9229C10.875 17.1353 10.2896 16.8936 10.0771 16.3838L9.08397 14H3.91698L2.92284 16.3848C2.7102 16.8942 2.12483 17.1352 1.61522 16.9229C1.10565 16.7104 0.86489 16.1249 1.07714 15.6152L5.1162 5.9248L5.1621 5.82422C5.2786 5.59431 5.45343 5.39754 5.66894 5.25391L5.76269 5.19629C5.98723 5.06945 6.24183 5.00195 6.50097 5.00195L6.61132 5.00586ZM4.74999 12H8.24999L6.49999 7.80078L4.74999 12Z" fill="#E4F2F2"/>
<path d="M18.0205 6.00098C18.0381 6.00133 18.0557 6.00165 18.0732 6.00293C18.0909 6.00421 18.1085 6.00562 18.126 6.00781C18.1377 6.0093 18.1494 6.01177 18.1611 6.01367C18.1799 6.01671 18.1984 6.02035 18.2168 6.02441C18.2279 6.02687 18.239 6.02939 18.25 6.03223C18.3173 6.04956 18.3814 6.07429 18.4424 6.10449C18.4746 6.12042 18.5064 6.13761 18.5371 6.15723C18.5449 6.16219 18.5529 6.16671 18.5605 6.17188C18.6122 6.2069 18.6613 6.24722 18.707 6.29297L22.707 10.293C23.0975 10.6835 23.0975 11.3165 22.707 11.707C22.3165 12.0976 21.6835 12.0975 21.293 11.707L19 9.41406V16C19 16.5523 18.5523 17 18 17C17.4477 17 17 16.5523 17 16V9.41406L14.707 11.707C14.3165 12.0976 13.6835 12.0975 13.293 11.707C12.9024 11.3165 12.9024 10.6835 13.293 10.293L17.293 6.29297C17.3548 6.23117 17.4248 6.17778 17.501 6.13379C17.5154 6.12546 17.5302 6.1179 17.5449 6.11035C17.6072 6.0784 17.6731 6.05257 17.7422 6.03418C17.7588 6.02976 17.7752 6.02503 17.792 6.02148C17.8029 6.01916 17.8141 6.01758 17.8252 6.01562C17.8427 6.01252 17.8603 6.00998 17.8779 6.00781C17.8957 6.00565 17.9136 6.00415 17.9316 6.00293C17.9476 6.00184 17.9635 6.00131 17.9795 6.00098C17.9863 6.00084 17.9931 6 18 6C18.0068 6 18.0137 6.00084 18.0205 6.00098Z" fill="#E4F2F2"/>
</svg>
