<svg width="24" height="24" viewBox="0 0 24 24" fill="none" xmlns="http://www.w3.org/2000/svg">
<path fill-rule="evenodd" clip-rule="evenodd" d="M6.61132 5.00586C6.86822 5.02489 7.11659 5.11042 7.33202 5.25391C7.57827 5.41804 7.7708 5.6517 7.88476 5.9248L11.9228 15.6152C12.1351 16.1249 11.8944 16.7104 11.3848 16.9229C10.875 17.1353 10.2896 16.8936 10.0771 16.3838L9.08397 14H3.91698L2.92284 16.3848C2.7102 16.8942 2.12483 17.1352 1.61522 16.9229C1.10565 16.7104 0.86489 16.1249 1.07714 15.6152L5.1162 5.9248L5.1621 5.82422C5.2786 5.59431 5.45343 5.39754 5.66894 5.25391L5.76269 5.19629C5.98723 5.06945 6.24183 5.00195 6.50097 5.00195L6.61132 5.00586ZM4.74999 12H8.24999L6.49999 7.80078L4.74999 12Z" fill="#E4F2F2"/>
<path fill-rule="evenodd" clip-rule="evenodd" d="M18.5 6.98535C18.9201 6.98535 19.3297 7.11661 19.6719 7.36035C20.0139 7.604 20.2719 7.94789 20.4092 8.34473L22.9453 15.6729C23.1259 16.1948 22.849 16.7647 22.3271 16.9453C21.8052 17.1259 21.2353 16.849 21.0547 16.3271L20.5957 15H16.4043L15.9453 16.3271C15.7647 16.849 15.1947 17.1259 14.6728 16.9453C14.1509 16.7647 13.8741 16.1948 14.0547 15.6729L16.5908 8.34473C16.7281 7.94789 16.9861 7.604 17.3281 7.36035C17.6703 7.11661 18.0799 6.98535 18.5 6.98535ZM18.4883 8.98926L18.4814 8.99902L17.0967 13H19.9033L18.5185 8.99902C18.5172 8.99517 18.515 8.99166 18.5117 8.98926C18.5083 8.98685 18.5041 8.98535 18.5 8.98535C18.4958 8.98535 18.4917 8.98684 18.4883 8.98926Z" fill="#E4F2F2"/>
</svg>
