<svg width="24" height="24" viewBox="0 0 24 24" fill="none" xmlns="http://www.w3.org/2000/svg">
<path d="M3.28322 14.208C3.44467 13.6799 4.0041 13.3825 4.53225 13.5439C5.06025 13.7054 5.35753 14.264 5.19631 14.792C4.97058 15.5304 4.96354 16.3191 5.1758 17.0615C5.38809 17.8038 5.81074 18.4691 6.3926 18.9766C6.97445 19.4839 7.69089 19.8116 8.4551 19.9209C9.21941 20.0302 9.99939 19.9168 10.7002 19.5928C11.2014 19.361 11.7955 19.579 12.0274 20.0801C12.2591 20.5812 12.041 21.1753 11.5401 21.4072C10.4887 21.8933 9.31848 22.0653 8.17189 21.9014C7.02539 21.7374 5.95102 21.2446 5.07814 20.4834C4.20532 19.7222 3.57138 18.7248 3.25295 17.6113C2.9346 16.4978 2.94476 15.3156 3.28322 14.208Z" fill="#E4F2F2"/>
<path d="M7.41799 4.18652C7.72577 3.96615 8.13789 3.9364 8.47853 4.12207L13.9785 7.12207C14.2255 7.25681 14.4049 7.48937 14.4717 7.7627C14.5383 8.03608 14.4863 8.32523 14.3291 8.55859L12.5391 11.2109C12.6702 11.3077 12.7985 11.409 12.9219 11.5166C13.0711 11.6467 13.2128 11.7844 13.3477 11.9277L18.836 11.0137C19.1504 10.9614 19.4713 11.0624 19.6992 11.2852C19.927 11.508 20.0353 11.8262 19.9903 12.1416L18.9903 19.1416C18.9121 19.6882 18.4051 20.0683 17.8584 19.9902C17.3118 19.9121 16.9317 19.4051 17.0098 18.8584L17.8164 13.21L14.5274 13.7578C14.6118 13.9633 14.6856 14.1737 14.7471 14.3887C15.0655 15.5022 15.0544 16.6844 14.7158 17.792C14.5544 18.3201 13.9959 18.6174 13.4678 18.4561C12.9397 18.2945 12.6423 17.7351 12.8037 17.207C13.0293 16.4688 13.0364 15.6807 12.8242 14.9385C12.6119 14.1962 12.1893 13.5309 11.6074 13.0234C11.0256 12.5161 10.3091 12.1875 9.54494 12.0781C8.78068 11.9689 8.0006 12.0833 7.29982 12.4072C6.79853 12.639 6.20446 12.4202 5.97268 11.9189C5.74126 11.4178 5.95891 10.8235 6.45998 10.5918C7.51126 10.1057 8.68159 9.93469 9.82814 10.0986C10.1383 10.143 10.4432 10.2115 10.7403 10.3027L12.0567 8.35156L8.17775 6.23535L5.70705 8.70703C5.31653 9.09755 4.68351 9.09753 4.29299 8.70703C3.90246 8.31651 3.90246 7.68349 4.29299 7.29297L7.29299 4.29297L7.41799 4.18652Z" fill="#E4F2F2"/>
<path d="M16 2C17.1046 2.00002 18 2.89545 18 4C18 5.10455 17.1046 5.99998 16 6C14.8954 6 14 5.10457 14 4C14 2.89543 14.8954 2 16 2Z" fill="#E4F2F2"/>
</svg>
