<svg width="24" height="24" viewBox="0 0 24 24" fill="none" xmlns="http://www.w3.org/2000/svg">
<path d="M14.293 10.293C14.6835 9.90243 15.3165 9.90243 15.707 10.293C16.0975 10.6835 16.0975 11.3165 15.707 11.707L11.707 15.707C11.3165 16.0975 10.6835 16.0975 10.293 15.707L8.29295 13.707C7.90243 13.3165 7.90243 12.6835 8.29295 12.293C8.68348 11.9024 9.31649 11.9024 9.70702 12.293L11 13.5859L14.293 10.293Z" fill="#E4F2F2"/>
<path fill-rule="evenodd" clip-rule="evenodd" d="M12 3.99999C16.9705 4.00003 21 8.02945 21 13C21 15.1306 20.257 17.0864 19.0195 18.6279L20.7021 20.2881C21.0951 20.6761 21.0989 21.3091 20.7109 21.7021C20.3229 22.095 19.6898 22.0998 19.2969 21.7119L17.6035 20.039C16.0657 21.2648 14.1194 22 12 22C9.88958 22 7.95072 21.2711 6.416 20.0547L4.6953 21.7197C4.2983 22.1032 3.66503 22.092 3.28124 21.6953C2.89756 21.2983 2.9079 20.6651 3.30467 20.2812L4.99413 18.6484C3.7473 17.104 3 15.1395 2.99999 13C2.99999 8.02942 7.02942 3.99999 12 3.99999ZM12 5.99999C8.13399 5.99999 4.99999 9.13399 4.99999 13C5.00003 16.8659 8.13402 20 12 20C13.9163 20 15.651 19.228 16.915 17.9805C16.9191 17.9761 16.9235 17.972 16.9277 17.9678C16.9369 17.9584 16.9466 17.9493 16.956 17.9404C18.2182 16.6743 19 14.929 19 13C19 9.13402 15.8659 6.00003 12 5.99999Z" fill="#E4F2F2"/>
<path d="M4.29295 2.29295C4.68348 1.90243 5.31649 1.90243 5.70702 2.29295C6.09747 2.68348 6.09752 3.31652 5.70702 3.70702L2.70702 6.70702C2.31652 7.09752 1.68348 7.09747 1.29295 6.70702C0.90243 6.31649 0.90243 5.68348 1.29295 5.29295L4.29295 2.29295Z" fill="#E4F2F2"/>
<path d="M18.293 2.29295C18.6835 1.90243 19.3165 1.90243 19.707 2.29295L22.707 5.29295C23.0975 5.68348 23.0975 6.31652 22.707 6.70702C22.3165 7.09752 21.6835 7.09747 21.293 6.70702L18.293 3.70702C17.9024 3.31649 17.9024 2.68348 18.293 2.29295Z" fill="#E4F2F2"/>
</svg>
