<svg width="24" height="24" viewBox="0 0 24 24" fill="none" xmlns="http://www.w3.org/2000/svg">
<path fill-rule="evenodd" clip-rule="evenodd" d="M1.29297 1.29295C1.68349 0.90243 2.31651 0.90243 2.70703 1.29295L7.56543 6.15135C7.57104 6.15679 7.57653 6.16236 7.58203 6.16795L18.8311 17.417C18.8367 17.4225 18.8422 17.428 18.8477 17.4336L22.707 21.293C23.0975 21.6835 23.0975 22.3165 22.707 22.707C22.3165 23.0975 21.6835 23.0975 21.293 22.707L18.1523 19.5664C17.5116 20.1764 16.7851 20.6927 15.9912 21.0918C14.8694 21.6557 13.6418 21.9789 12.3877 22.04C11.1336 22.1012 9.88038 21.8993 8.70899 21.4473C7.8388 21.1114 7.02831 20.6421 6.30469 20.0596L4.71777 21.6963C4.33325 22.0926 3.70012 22.1022 3.30371 21.7178C2.90728 21.3332 2.8977 20.7001 3.28223 20.3037L4.89649 18.6387C4.33463 17.9293 3.87996 17.1388 3.55274 16.291C3.10068 15.1196 2.89883 13.8664 2.95996 12.6123C3.02113 11.3582 3.34435 10.1306 3.9082 9.00877C4.30732 8.21484 4.82177 7.48657 5.43164 6.84569L4 5.41405L2.70703 6.70702C2.31653 7.09752 1.6835 7.09747 1.29297 6.70702C0.902445 6.31649 0.902445 5.68348 1.29297 5.29295L2.58594 3.99999L1.29297 2.70702C0.902445 2.31649 0.902445 1.68348 1.29297 1.29295ZM6.84668 8.26073C6.38723 8.75023 5.99827 9.30369 5.69531 9.90624C5.2567 10.7788 5.00559 11.7345 4.95801 12.7099C4.9105 13.6853 5.06734 14.6602 5.41895 15.5713C5.76018 16.4553 6.27821 17.2596 6.93945 17.9375C6.94483 17.9425 6.95076 17.947 6.95606 17.9521C6.9744 17.9699 6.99112 17.989 7.00781 18.0078C7.69672 18.6944 8.52126 19.2308 9.42871 19.581C10.3398 19.9327 11.3146 20.0895 12.29 20.042C13.2654 19.9944 14.2203 19.7432 15.0928 19.3047C15.6955 19.0017 16.2485 18.6118 16.7383 18.1523L6.84668 8.26073Z" fill="#E4F2F2"/>
<path d="M10.5938 4.11229C11.996 3.89086 13.4312 4.00437 14.7813 4.44334C16.1311 4.88235 17.3586 5.63395 18.3623 6.63768C19.366 7.64144 20.1177 8.86881 20.5566 10.2187C20.9956 11.5688 21.1091 13.004 20.8877 14.4062C20.8014 14.9515 20.2895 15.3233 19.7441 15.2373C19.1986 15.1511 18.826 14.6393 18.9121 14.0937C19.0843 13.0032 18.9967 11.8869 18.6553 10.8369C18.3138 9.78699 17.7279 8.83242 16.9473 8.05174C16.1666 7.27123 15.2119 6.68609 14.1621 6.34471C13.1123 6.00344 11.9966 5.91573 10.9063 6.08788C10.3607 6.17403 9.84887 5.80134 9.7627 5.25585C9.67657 4.71042 10.0484 4.19857 10.5938 4.11229Z" fill="#E4F2F2"/>
<path d="M18.293 2.29295C18.6835 1.90243 19.3165 1.90243 19.707 2.29295L22.707 5.29295C23.0975 5.68349 23.0975 6.31652 22.707 6.70702C22.3165 7.09752 21.6835 7.09747 21.293 6.70702L18.293 3.70702C17.9024 3.31649 17.9024 2.68348 18.293 2.29295Z" fill="#E4F2F2"/>
</svg>
