<svg width="24" height="24" viewBox="0 0 24 24" fill="none" xmlns="http://www.w3.org/2000/svg">
<path d="M12 8.99999C12.5523 9.00003 13 9.44773 13 9.99999V12H15C15.5523 12 16 12.4477 16 13C16 13.5522 15.5522 13.9999 15 14H13V16C13 16.5522 12.5522 16.9999 12 17C11.4477 17 11 16.5522 11 16V14H9C8.44774 14 8.00004 13.5522 8 13C8 12.4477 8.44772 12 9 12H11V9.99999C11 9.4477 11.4477 8.99999 12 8.99999Z" fill="#E4F2F2"/>
<path fill-rule="evenodd" clip-rule="evenodd" d="M12 3.99999C16.9705 4.00003 21 8.02945 21 13C21 15.1306 20.2571 17.0864 19.0195 18.6279L20.7021 20.2881C21.0952 20.6761 21.0989 21.3091 20.7109 21.7021C20.3229 22.095 19.6898 22.0998 19.2969 21.7119L17.6035 20.039C16.0657 21.2648 14.1194 22 12 22C9.8896 22 7.95073 21.2711 6.41602 20.0547L4.69531 21.7197C4.29831 22.1032 3.66505 22.092 3.28125 21.6953C2.89758 21.2983 2.90791 20.6651 3.30469 20.2812L4.99414 18.6484C3.74732 17.104 3.00002 15.1395 3 13C3 8.02942 7.02944 3.99999 12 3.99999ZM12 5.99999C8.13401 5.99999 5 9.13399 5 13C5.00004 16.8659 8.13403 20 12 20C13.9163 20 15.651 19.228 16.915 17.9805C16.9192 17.9761 16.9235 17.972 16.9277 17.9678C16.9369 17.9584 16.9466 17.9493 16.9561 17.9404C18.2182 16.6743 19 14.929 19 13C19 9.13402 15.866 6.00003 12 5.99999Z" fill="#E4F2F2"/>
<path d="M4.29297 2.29295C4.68349 1.90243 5.31651 1.90243 5.70703 2.29295C6.09748 2.68348 6.09753 3.31652 5.70703 3.70702L2.70703 6.70702C2.31653 7.09752 1.6835 7.09747 1.29297 6.70702C0.902445 6.31649 0.902445 5.68348 1.29297 5.29295L4.29297 2.29295Z" fill="#E4F2F2"/>
<path d="M18.293 2.29295C18.6835 1.90243 19.3165 1.90243 19.707 2.29295L22.707 5.29295C23.0975 5.68348 23.0975 6.31652 22.707 6.70702C22.3165 7.09752 21.6835 7.09747 21.293 6.70702L18.293 3.70702C17.9024 3.31649 17.9024 2.68348 18.293 2.29295Z" fill="#E4F2F2"/>
</svg>
