<svg width="24" height="24" viewBox="0 0 24 24" fill="none" xmlns="http://www.w3.org/2000/svg">
<path fill-rule="evenodd" clip-rule="evenodd" d="M11.2969 6.01465C11.9835 6.08291 12.6289 6.38671 13.1211 6.87891C13.6837 7.44151 14 8.20435 14 9C14 10.1033 13.5054 10.8622 12.8008 11.3672C12.4035 11.6519 11.93 11.8543 11.4932 12.0176C11.5815 12.1308 11.6732 12.2449 11.7686 12.3594C12.452 13.1795 13.2951 13.9986 14.2471 14.7236C14.7427 14.1866 15 13.559 15 13C15 12.4477 15.4477 12 16 12C16.5523 12 17 12.4477 17 13C17 14.0394 16.6111 15.0206 15.9395 15.835C16.107 15.9284 16.2758 16.0197 16.4473 16.1055C16.9412 16.3525 17.1415 16.9533 16.8945 17.4473C16.6475 17.9412 16.0467 18.1415 15.5527 17.8945C15.1193 17.6778 14.6981 17.4389 14.29 17.1836C13.3548 17.6965 12.2304 18 11 18C8.74771 18 7 16.2523 7 14C7 12.8395 7.43561 11.9958 8.13379 11.4023C8.26812 11.2882 8.41047 11.1859 8.55664 11.0928C8.22502 10.3925 8 9.66855 8 9C8 8.20435 8.3163 7.44151 8.87891 6.87891C9.44152 6.3163 10.2044 6 11 6L11.2969 6.01465ZM9.42871 12.9258C9.18939 13.1292 9 13.4105 9 14C9 15.1477 9.85228 16 11 16C11.5175 16 11.9872 15.9313 12.4082 15.8135C11.5844 15.1238 10.8498 14.3826 10.2314 13.6406C10.0014 13.3645 9.78684 13.0852 9.58691 12.8076C9.53063 12.8457 9.47753 12.8843 9.42871 12.9258ZM11 8C10.7348 8 10.4805 8.10543 10.293 8.29297C10.1054 8.48051 10 8.73478 10 9C10 9.26705 10.1056 9.704 10.3896 10.29C10.9548 10.0918 11.349 9.9484 11.6367 9.74219C11.8695 9.57532 12 9.39658 12 9L11.9951 8.90137C11.9724 8.67237 11.8712 8.45711 11.707 8.29297C11.5429 8.12883 11.3276 8.02757 11.0986 8.00488L11 8Z" fill="#E4F2F2"/>
<path fill-rule="evenodd" clip-rule="evenodd" d="M19 2C20.6569 2 22 3.34315 22 5V19C22 20.6569 20.6569 22 19 22H5C3.34315 22 2 20.6569 2 19V5C2 3.34315 3.34315 2 5 2H19ZM5 4C4.44772 4 4 4.44772 4 5V19C4 19.5523 4.44772 20 5 20H19C19.5523 20 20 19.5523 20 19V5C20 4.44772 19.5523 4 19 4H5Z" fill="#E4F2F2"/>
</svg>
