<svg width="24" height="24" viewBox="0 0 24 24" fill="none" xmlns="http://www.w3.org/2000/svg">
<path d="M11.9995 14.9995C12.5517 14.9995 12.9993 15.4474 12.9995 15.9995V21.9995C12.9995 22.5518 12.5518 22.9995 11.9995 22.9995C11.4474 22.9994 10.9995 22.5517 10.9995 21.9995V15.9995C10.9997 15.4475 11.4475 14.9997 11.9995 14.9995Z" fill="#E4F2F2"/>
<path d="M21.105 1.55226C21.3519 1.0585 21.9529 0.858317 22.4468 1.105C22.9407 1.35196 23.1409 1.95284 22.894 2.44679L17.894 12.4468C17.647 12.9408 17.0462 13.141 16.5522 12.8941C16.0585 12.647 15.858 12.0461 16.105 11.5523L17.8813 7.99953H15.1177L12.894 12.4468C12.647 12.9408 12.0462 13.141 11.5522 12.8941C11.0585 12.647 10.858 12.0461 11.105 11.5523L12.8813 7.99953H10.1177L7.89403 12.4468C7.64705 12.9408 7.04622 13.141 6.55224 12.8941C6.05853 12.647 5.85805 12.0461 6.10497 11.5523L7.88134 7.99953H5.11767L2.89403 12.4468C2.64705 12.9408 2.04622 13.141 1.55224 12.8941C1.05853 12.647 0.858045 12.0461 1.10497 11.5523L6.10497 1.55226C6.35194 1.0585 6.9529 0.858317 7.44677 1.105C7.94071 1.35196 8.14093 1.95284 7.89403 2.44679L6.11767 5.99953H8.88134L11.105 1.55226C11.3519 1.0585 11.9529 0.858317 12.4468 1.105C12.9407 1.35196 13.1409 1.95284 12.894 2.44679L11.1177 5.99953H13.8813L16.105 1.55226C16.3519 1.0585 16.9529 0.858317 17.4468 1.105C17.9407 1.35196 18.1409 1.95284 17.894 2.44679L16.1177 5.99953H18.8813L21.105 1.55226Z" fill="#E4F2F2"/>
</svg>
