<svg width="24" height="24" viewBox="0 0 24 24" fill="none" xmlns="http://www.w3.org/2000/svg">
<path fill-rule="evenodd" clip-rule="evenodd" d="M13 1C13.5523 1 14 1.44772 14 2C14 2.55228 13.5523 3 13 3V4.67578C13.6057 4.38819 14.2525 4.18734 14.9219 4.08301C16.257 3.87494 17.6239 4.05874 18.8574 4.61035C20.0909 5.16198 21.139 6.05855 21.874 7.19238C22.6083 8.32514 22.9992 9.64623 23 10.9961L22.9971 11.3633C22.926 15.1596 21.5067 18.8117 18.9863 21.6621L18.9824 21.666C18.3856 22.3337 17.582 22.7818 16.7002 22.9385C15.9283 23.0756 15.1356 22.9827 14.4199 22.6748L14.1182 22.5303C13.4663 22.1825 12.7388 22 12 22C11.3536 22 10.7158 22.1395 10.1299 22.4072L9.88183 22.5303C9.09141 22.9517 8.18172 23.0951 7.2998 22.9385C6.41804 22.7818 5.61442 22.3337 5.01757 21.666L5.01171 21.6602C2.42014 18.714 0.993266 14.9219 0.999993 10.998C1.0004 9.64751 1.39135 8.32568 2.12597 7.19238C2.86101 6.05855 3.90905 5.16198 5.14257 4.61035C6.3761 4.05873 7.74298 3.87494 9.07812 4.08301C9.74745 4.18733 10.3943 4.38819 11 4.67578V3C11 2.46957 11.2109 1.96101 11.5859 1.58594C11.961 1.21087 12.4696 1.00001 13 1ZM18.041 6.43555C17.1601 6.04166 16.1839 5.91105 15.2305 6.05957C14.2791 6.20784 13.3904 6.62774 12.6719 7.26855C12.6257 7.3105 12.5749 7.34708 12.5215 7.37988C12.512 7.38571 12.5028 7.39198 12.4932 7.39746C12.4752 7.40767 12.4571 7.41765 12.4385 7.42676C12.4318 7.43002 12.4247 7.43244 12.418 7.43555C12.398 7.44476 12.3781 7.45401 12.3574 7.46191C12.3449 7.4667 12.332 7.47034 12.3193 7.47461C12.3029 7.48016 12.2864 7.48553 12.2695 7.49023C12.2614 7.49249 12.2532 7.49405 12.2451 7.49609C12.2238 7.50149 12.2025 7.50772 12.1807 7.51172C12.0609 7.5336 11.938 7.53372 11.8184 7.51172C11.7999 7.50832 11.7818 7.50342 11.7637 7.49902C11.7512 7.49601 11.7389 7.49275 11.7266 7.48926C11.7147 7.4859 11.703 7.4823 11.6914 7.47852C11.6748 7.47313 11.658 7.46819 11.6416 7.46191C11.621 7.45399 11.601 7.44477 11.581 7.43555C11.5743 7.43244 11.5672 7.43003 11.5605 7.42676C11.5419 7.41763 11.5238 7.40768 11.5059 7.39746C11.4962 7.39198 11.487 7.38571 11.4775 7.37988C11.4241 7.34705 11.3733 7.31051 11.3271 7.26855C10.6087 6.62802 9.72064 6.2078 8.76952 6.05957C7.81605 5.91106 6.8399 6.04165 5.95898 6.43555C5.07792 6.82956 4.32971 7.47043 3.80468 8.28027C3.27967 9.09015 3.00004 10.0348 2.99999 11V11.002C2.9942 14.4359 4.24214 17.7536 6.50878 20.333L6.62499 20.4531C6.90794 20.7209 7.26443 20.9012 7.65038 20.9697C8.09113 21.0479 8.54539 20.9762 8.94042 20.7656L9.29882 20.5889C10.1453 20.2021 11.0663 20 12 20C13.0672 20 14.118 20.2633 15.0596 20.7656L15.21 20.8379C15.5678 20.9918 15.9646 21.0383 16.3506 20.9697C16.7914 20.8913 17.1928 20.6668 17.4912 20.333C19.7655 17.759 21.0145 14.4388 21 11.0039V11C20.9999 10.0348 20.7203 9.09015 20.1953 8.28027C19.6703 7.47044 18.9221 6.82955 18.041 6.43555Z" fill="#E4F2F2"/>
</svg>
