<svg width="24" height="24" viewBox="0 0 24 24" fill="none" xmlns="http://www.w3.org/2000/svg">
<path fill-rule="evenodd" clip-rule="evenodd" d="M14 1C14.5523 1 15 1.44772 15 2C15 2.55228 14.5523 3 14 3C13.7348 3 13.4805 3.10543 13.293 3.29297C13.1054 3.48051 13 3.73478 13 4V4.6748C13.2257 4.56719 13.4574 4.47157 13.6943 4.38867C14.5665 4.08356 15.4907 3.95453 16.4131 4.00879C17.3354 4.06305 18.238 4.2989 19.0684 4.7041C19.8987 5.10934 20.6407 5.67543 21.251 6.36914C21.5255 6.68117 21.5783 7.13082 21.3838 7.49805C21.1891 7.86526 20.7873 8.0744 20.375 8.02246C19.8281 7.95344 19.2724 8.0358 18.7695 8.26172C18.2666 8.48775 17.836 8.84879 17.5244 9.30371C17.2129 9.75861 17.0319 10.2902 17.0029 10.8408C16.974 11.3914 17.0973 11.9397 17.3594 12.4248C17.5877 12.8474 17.4839 13.3726 17.1113 13.6758C16.6687 14.0357 16.3375 14.5144 16.1572 15.0557C15.977 15.597 15.9552 16.179 16.0937 16.7324C16.2324 17.2857 16.5255 17.7882 16.9395 18.1807C17.3534 18.5731 17.8707 18.8393 18.4307 18.9482C18.7799 19.0161 19.0674 19.2647 19.1846 19.6006C19.3017 19.9364 19.2311 20.3097 19 20.5801C18.4303 21.2464 17.8097 21.8355 17.1602 22.2646C16.517 22.6895 15.78 23 15 23C13.9494 23 13.3701 22.6152 12.9453 22.332C12.6201 22.1152 12.4494 22 12 22C11.5506 22 11.3799 22.1152 11.0547 22.332C10.6299 22.6152 10.0506 23 9 23C8.22 23 7.48304 22.6895 6.83984 22.2646C6.19028 21.8355 5.56966 21.2464 5 20.5801C4.76858 20.3094 4.69872 19.9357 4.81641 19.5996C4.93415 19.2635 5.22162 19.0155 5.57129 18.9482C6.13305 18.8405 6.65283 18.5738 7.06836 18.1807C7.48369 17.7877 7.77826 17.2842 7.91699 16.7295C8.05571 16.1746 8.03319 15.5912 7.85156 15.0488C7.66991 14.5065 7.33654 14.0274 6.8916 13.668C6.51779 13.366 6.41153 12.8405 6.63867 12.417C6.89868 11.9322 7.02018 11.3853 6.99023 10.8359C6.96028 10.2865 6.78001 9.75549 6.46875 9.30176C6.1575 8.84819 5.72726 8.48934 5.22558 8.26367C4.72386 8.03799 4.16994 7.95441 3.62402 8.02246C3.21208 8.07384 2.81068 7.86481 2.61621 7.49805C2.42206 7.13145 2.47464 6.68311 2.74805 6.37109C3.35755 5.67588 4.09915 5.10839 4.92969 4.70215C5.76033 4.2959 6.66384 4.0582 7.58691 4.00391C8.50981 3.94965 9.43425 4.07977 10.3066 4.38574C10.5432 4.46872 10.7747 4.5642 11 4.67188V4C11 3.20435 11.3163 2.44151 11.8789 1.87891C12.4415 1.3163 13.2043 1 14 1ZM7.7041 6.00098C7.11141 6.03585 6.53059 6.17697 5.98828 6.41602C6.00728 6.42428 6.02699 6.43095 6.0459 6.43945C6.88223 6.81567 7.59939 7.41468 8.11816 8.1709C8.63681 8.92697 8.9373 9.81107 8.9873 10.7266C9.023 11.3812 8.92654 12.0332 8.71191 12.6475C9.17306 13.1569 9.52805 13.7572 9.74805 14.4141C10.0506 15.3178 10.0885 16.2893 9.85742 17.2139C9.6262 18.1387 9.13492 18.9786 8.44238 19.6338C8.1699 19.8915 7.86959 20.1147 7.5498 20.3037C7.68345 20.4127 7.814 20.5109 7.94238 20.5957C8.39668 20.8958 8.75 21 9 21C9.44941 21 9.62012 20.8848 9.94531 20.668C10.3701 20.3848 10.9494 20 12 20C13.0506 20 13.6299 20.3848 14.0547 20.668C14.3799 20.8848 14.5506 21 15 21C15.25 21 15.6033 20.8958 16.0576 20.5957C16.1867 20.5104 16.3178 20.4114 16.4521 20.3018C16.1336 20.1127 15.8349 19.8891 15.5635 19.6318C14.8734 18.9776 14.3843 18.1402 14.1533 17.2178C13.9224 16.2954 13.9594 15.326 14.2598 14.4238C14.4777 13.7694 14.8287 13.171 15.2861 12.6621C15.0689 12.0468 14.9714 11.393 15.0059 10.7363C15.0541 9.81863 15.3548 8.93106 15.874 8.17285C16.3932 7.41485 17.1112 6.81415 17.9492 6.4375C17.9666 6.42967 17.9845 6.42266 18.002 6.41504C17.4624 6.17903 16.8849 6.03957 16.2959 6.00488C15.6374 5.96615 14.9771 6.05856 14.3545 6.27637C13.7346 6.49327 13.1631 6.83056 12.6738 7.26855C12.6269 7.31136 12.5759 7.34946 12.5215 7.38281C12.5179 7.38503 12.5144 7.38748 12.5107 7.38965C12.4873 7.40364 12.4632 7.41664 12.4385 7.42871C12.4318 7.43197 12.4247 7.43439 12.418 7.4375C12.398 7.44671 12.3781 7.45596 12.3574 7.46387C12.3413 7.47002 12.3249 7.47518 12.3086 7.48047C12.2967 7.48435 12.2846 7.48778 12.2725 7.49121C12.2643 7.49351 12.2562 7.49596 12.248 7.49805C12.1986 7.5107 12.1478 7.52044 12.0957 7.52539C12.0655 7.52827 12.0352 7.52916 12.0049 7.5293L12 7.53027L11.999 7.5293C11.9938 7.52929 11.9886 7.52938 11.9834 7.5293C11.7285 7.52514 11.4967 7.42644 11.3223 7.26562C10.834 6.82753 10.2636 6.48962 9.64453 6.27246C9.02216 6.05423 8.36248 5.96225 7.7041 6.00098Z" fill="#E4F2F2"/>
</svg>
