<svg width="24" height="24" viewBox="0 0 24 24" fill="none" xmlns="http://www.w3.org/2000/svg">
<path fill-rule="evenodd" clip-rule="evenodd" d="M10.4404 2.95412C10.8821 2.82097 11.357 2.84512 11.7832 3.0215C12.2094 3.19799 12.562 3.51654 12.7803 3.92287C12.9785 4.29207 13.0537 4.7135 13 5.12697V8.00001H15C15.5301 8.00013 16.0391 8.2103 16.4141 8.58497C16.7891 8.95998 16.9999 9.46969 17 10V14C16.9999 14.5303 16.789 15.0391 16.4141 15.4141C16.0391 15.789 15.5302 15.9999 15 16H13V18.8711C13.0541 19.285 12.9787 19.7066 12.7803 20.0762C12.562 20.4827 12.2095 20.801 11.7832 20.9776C11.3569 21.154 10.8822 21.1781 10.4404 21.0449C10.0377 20.9233 9.68507 20.6773 9.43066 20.3447L2.64648 13.5606C2.44176 13.3557 2.2788 13.1123 2.16797 12.8447C2.05717 12.5771 2 12.2897 2 12C2.00006 11.7103 2.05711 11.4229 2.16797 11.1553C2.27887 10.8877 2.44165 10.6443 2.64648 10.4395L9.43066 3.65431C9.68511 3.32182 10.0377 3.07568 10.4404 2.95412ZM11.0176 4.86915C10.9817 4.92241 10.9409 4.97218 10.8955 5.01759L4.06055 11.8535C4.04138 11.8727 4.02601 11.8959 4.01562 11.9209C4.00529 11.9459 4.00006 11.973 4 12C4 12.0269 4.00541 12.0542 4.01562 12.0791C4.02595 12.104 4.04153 12.1274 4.06055 12.1465L10.8955 18.9815C10.9408 19.0267 10.9818 19.0768 11.0176 19.1299C11.0054 19.067 11 19.0025 11 18.9385V16C11.0001 15.4697 11.21 14.96 11.585 14.585C11.9599 14.21 12.4698 14.0001 13 14H15V10H13C12.4697 9.99989 11.9599 9.78904 11.585 9.41408C11.2103 9.03913 11.0001 8.5301 11 8.00001V5.06056C11 4.99644 11.0053 4.93209 11.0176 4.86915Z" fill="#E4F2F2"/>
<path d="M20 8.00001C20.5523 8.00001 21 8.44773 21 9.00001V15C21 15.5523 20.5523 16 20 16C19.4477 16 19 15.5523 19 15V9.00001C19 8.44773 19.4477 8.00001 20 8.00001Z" fill="#E4F2F2"/>
</svg>
