<svg width="24" height="24" viewBox="0 0 24 24" fill="none" xmlns="http://www.w3.org/2000/svg">
<path d="M12 19C13.1046 19 14 19.8955 14 21C14 22.1045 13.1046 23 12 23C10.8955 23 10 22.1046 10 21C10 19.8954 10.8955 19 12 19Z" fill="#E4F2F2"/>
<path d="M12.0206 1.00098C12.0381 1.00133 12.0557 1.00165 12.0733 1.00293C12.091 1.00421 12.1086 1.00562 12.126 1.00781C12.1378 1.0093 12.1494 1.01177 12.1612 1.01367C12.1799 1.01671 12.1985 1.02034 12.2168 1.02441C12.2279 1.02687 12.239 1.02939 12.25 1.03223C12.3173 1.04956 12.3814 1.07429 12.4424 1.10449C12.5377 1.15158 12.6277 1.21362 12.7071 1.29297L19.7071 8.29297C20.0976 8.68348 20.0976 9.31652 19.7071 9.70703C19.3166 10.0975 18.6835 10.0975 18.293 9.70703L13 4.41406V16C13 16.5523 12.5523 17 12 17C11.4478 17 11 16.5523 11 16V4.41406L5.70708 9.70703C5.31657 10.0975 4.68354 10.0975 4.29302 9.70703C3.90249 9.31651 3.90249 8.68349 4.29302 8.29297L11.293 1.29297C11.3502 1.2358 11.4148 1.18656 11.4844 1.14453C11.5044 1.13248 11.5244 1.12088 11.545 1.11035C11.6073 1.07841 11.6732 1.05256 11.7422 1.03418C11.7588 1.02977 11.7753 1.02503 11.792 1.02148C11.803 1.01917 11.8141 1.01758 11.8252 1.01562C11.8428 1.01252 11.8603 1.00998 11.878 1.00781C11.8957 1.00565 11.9136 1.00415 11.9317 1.00293C11.9476 1.00184 11.9636 1.00131 11.9795 1.00098C11.9863 1.00084 11.9932 1 12 1C12.0069 1 12.0137 1.00084 12.0206 1.00098Z" fill="#E4F2F2"/>
</svg>
