<svg width="24" height="24" viewBox="0 0 24 24" fill="none" xmlns="http://www.w3.org/2000/svg">
<path fill-rule="evenodd" clip-rule="evenodd" d="M12 2C12.2897 2 12.5771 2.05717 12.8447 2.16797C13.1123 2.2788 13.3557 2.44176 13.5605 2.64648L20.3447 9.43066C20.6772 9.68507 20.9233 10.0377 21.0449 10.4404C21.1781 10.8822 21.154 11.3569 20.9775 11.7832C20.801 12.2095 20.4827 12.562 20.0762 12.7803C19.7068 12.9785 19.2856 13.0539 18.8721 13H16V19C15.9999 19.5302 15.789 20.0391 15.4141 20.4141C15.0391 20.789 14.5303 20.9999 14 21H10C9.46968 20.9999 8.95996 20.7891 8.58496 20.4141C8.21028 20.0391 8.00012 19.5301 8 19V13H5.12793C4.71415 13.054 4.29234 12.9787 3.92285 12.7803C3.51652 12.562 3.19798 12.2094 3.02148 11.7832C2.84511 11.357 2.82096 10.8821 2.9541 10.4404C3.07566 10.0377 3.3218 9.68511 3.6543 9.43066L10.4395 2.64648C10.6443 2.44165 10.8877 2.27887 11.1553 2.16797C11.4229 2.05711 11.7103 2.00006 12 2ZM12 4C11.973 4.00006 11.9459 4.00529 11.9209 4.01562C11.8959 4.02601 11.8727 4.04138 11.8535 4.06055L5.01758 10.8955C4.97217 10.9409 4.92239 10.9817 4.86914 11.0176C4.93207 11.0053 4.99643 11 5.06055 11H8C8.53009 11.0001 9.03912 11.2103 9.41406 11.585C9.78903 11.9599 9.99988 12.4697 10 13V19H14V13C14.0001 12.4698 14.21 11.9599 14.585 11.585C14.96 11.21 15.4697 11.0001 16 11H18.9385L19.0352 11.0039C19.0668 11.007 19.0987 11.0115 19.1299 11.0176C19.0768 10.9818 19.0267 10.9408 18.9814 10.8955L12.1465 4.06055C12.1273 4.04153 12.104 4.02595 12.0791 4.01562C12.0542 4.00541 12.0269 4 12 4Z" fill="#E4F2F2"/>
</svg>
