<svg width="24" height="24" viewBox="0 0 24 24" fill="none" xmlns="http://www.w3.org/2000/svg">
<path d="M12.0205 4.00098C12.0381 4.00133 12.0557 4.00165 12.0732 4.00293C12.0909 4.00421 12.1085 4.00562 12.126 4.00781C12.1377 4.0093 12.1494 4.01177 12.1611 4.01367C12.1799 4.01671 12.1984 4.02034 12.2168 4.02441C12.2279 4.02687 12.239 4.02939 12.25 4.03223C12.3173 4.04956 12.3814 4.07429 12.4424 4.10449C12.5377 4.15158 12.6277 4.21362 12.707 4.29297L19.707 11.293C20.0975 11.6835 20.0975 12.3165 19.707 12.707C19.3165 13.0975 18.6835 13.0975 18.293 12.707L13 7.41406V19C13 19.5523 12.5522 20 12 20C11.4477 20 11 19.5523 11 19V7.41406L5.70702 12.707C5.3165 13.0975 4.68348 13.0975 4.29295 12.707C3.90243 12.3165 3.90243 11.6835 4.29295 11.293L11.293 4.29297C11.3501 4.2358 11.4148 4.18656 11.4844 4.14453C11.5043 4.13248 11.5243 4.12088 11.5449 4.11035C11.6072 4.07841 11.6731 4.05256 11.7422 4.03418C11.7587 4.02977 11.7752 4.02503 11.792 4.02148C11.8029 4.01917 11.8141 4.01758 11.8252 4.01562C11.8427 4.01252 11.8603 4.00998 11.8779 4.00781C11.8957 4.00565 11.9136 4.00415 11.9316 4.00293C11.9476 4.00184 11.9635 4.00131 11.9795 4.00098C11.9863 4.00084 11.9932 4 12 4C12.0068 4 12.0137 4.00084 12.0205 4.00098Z" fill="#E4F2F2"/>
</svg>
