<svg width="24" height="24" viewBox="0 0 24 24" fill="none" xmlns="http://www.w3.org/2000/svg">
<path d="M6.99999 3C7.55224 3.00004 7.99999 3.44774 7.99999 4V17.5859L10.293 15.293C10.6835 14.9025 11.3165 14.9025 11.707 15.293C12.0975 15.6835 12.0975 16.3165 11.707 16.707L7.70702 20.707C7.66049 20.7536 7.60863 20.7944 7.5537 20.8311C7.51457 20.8572 7.47427 20.8804 7.4326 20.9004C7.38711 20.9223 7.34 20.9412 7.291 20.9561C7.27426 20.9611 7.25716 20.9646 7.24022 20.9688C7.22462 20.9726 7.20923 20.9774 7.19335 20.9805C7.18625 20.9819 7.17898 20.9822 7.17186 20.9834C7.11592 20.9931 7.0587 21 6.99999 21L6.89745 20.9951C6.87597 20.9929 6.85503 20.9879 6.83397 20.9844C6.82357 20.9826 6.81307 20.9816 6.80272 20.9795C6.79122 20.9772 6.7799 20.9744 6.76854 20.9717C6.74797 20.9668 6.7273 20.9623 6.70702 20.9561C6.65836 20.9412 6.61158 20.9222 6.56639 20.9004C6.5266 20.8812 6.48767 20.8597 6.45018 20.835C6.39352 20.7976 6.34077 20.7548 6.29295 20.707L2.29295 16.707C1.90243 16.3165 1.90243 15.6835 2.29295 15.293C2.68348 14.9025 3.3165 14.9025 3.70702 15.293L5.99999 17.5859V4C5.99999 3.44772 6.4477 3 6.99999 3Z" fill="#E4F2F2"/>
<path d="M17.0205 3.00098C17.0381 3.00133 17.0557 3.00165 17.0732 3.00293C17.0909 3.00421 17.1085 3.00562 17.126 3.00781C17.1377 3.0093 17.1494 3.01177 17.1611 3.01367C17.1799 3.01671 17.1984 3.02034 17.2168 3.02441C17.2279 3.02687 17.239 3.02939 17.25 3.03223C17.3173 3.04956 17.3814 3.07429 17.4424 3.10449C17.5377 3.15158 17.6277 3.21362 17.707 3.29297L21.707 7.29297C22.0975 7.68348 22.0975 8.31652 21.707 8.70703C21.3165 9.09754 20.6835 9.09752 20.293 8.70703L18 6.41406V20C18 20.5523 17.5522 21 17 21C16.4477 21 16 20.5523 16 20V6.41406L13.707 8.70703C13.3165 9.09754 12.6835 9.09752 12.293 8.70703C11.9024 8.31651 11.9024 7.68349 12.293 7.29297L16.293 3.29297C16.3501 3.2358 16.4148 3.18656 16.4844 3.14453C16.5043 3.13248 16.5243 3.12088 16.5449 3.11035C16.6072 3.07841 16.6731 3.05256 16.7422 3.03418C16.7587 3.02977 16.7752 3.02503 16.792 3.02148C16.8029 3.01917 16.8141 3.01758 16.8252 3.01562C16.8427 3.01252 16.8603 3.00998 16.8779 3.00781C16.8957 3.00565 16.9136 3.00415 16.9316 3.00293C16.9476 3.00184 16.9635 3.00131 16.9795 3.00098C16.9863 3.00084 16.9932 3 17 3C17.0068 3 17.0137 3.00084 17.0205 3.00098Z" fill="#E4F2F2"/>
</svg>
