<svg width="24" height="24" viewBox="0 0 24 24" fill="none" xmlns="http://www.w3.org/2000/svg">
<path d="M7.02049 3.00098C7.03808 3.00133 7.05567 3.00165 7.07323 3.00293C7.09093 3.00421 7.10853 3.00562 7.12596 3.00781C7.13774 3.0093 7.14939 3.01177 7.16112 3.01367C7.17987 3.01671 7.19839 3.02034 7.21678 3.02441C7.22788 3.02687 7.23896 3.02939 7.24999 3.03223C7.31726 3.04956 7.38136 3.07429 7.44237 3.10449C7.53766 3.15158 7.62767 3.21362 7.70702 3.29297L11.707 7.29297C12.0975 7.68348 12.0975 8.31652 11.707 8.70703C11.3165 9.09754 10.6835 9.09752 10.293 8.70703L7.99999 6.41406V20C7.99999 20.5523 7.55224 21 6.99999 21C6.4477 21 5.99999 20.5523 5.99999 20V6.41406L3.70702 8.70703C3.3165 9.09754 2.68348 9.09752 2.29295 8.70703C1.90243 8.31651 1.90243 7.68349 2.29295 7.29297L6.29295 3.29297C6.35012 3.2358 6.41476 3.18656 6.48436 3.14453C6.50431 3.13248 6.52434 3.12088 6.54491 3.11035C6.60725 3.07841 6.6731 3.05256 6.74217 3.03418C6.75875 3.02977 6.77524 3.02503 6.79198 3.02148C6.80295 3.01917 6.81408 3.01758 6.82518 3.01562C6.8427 3.01252 6.86029 3.00998 6.87792 3.00781C6.89568 3.00565 6.91358 3.00415 6.93163 3.00293C6.94757 3.00184 6.96351 3.00131 6.97948 3.00098C6.98628 3.00084 6.99315 3 6.99999 3C7.00684 3 7.01367 3.00084 7.02049 3.00098Z" fill="#E4F2F2"/>
<path d="M20.1435 13.0107C20.4732 13.0585 20.7613 13.2687 20.9053 13.5762C21.0697 13.9275 21.0169 14.3426 20.7685 14.6406L17.1357 19H20C20.5522 19 21 19.4477 21 20C21 20.5523 20.5522 21 20 21H15C14.612 21 14.2593 20.7752 14.0947 20.4238C13.9302 20.0725 13.9831 19.6574 14.2314 19.3594L17.8642 15H15C14.4477 15 14 14.5523 14 14C14 13.4477 14.4477 13 15 13H20L20.1435 13.0107Z" fill="#E4F2F2"/>
<path fill-rule="evenodd" clip-rule="evenodd" d="M17.5 3C18.4282 3.00002 19.3182 3.36903 19.9746 4.02539C20.6309 4.68176 21 5.57176 21 6.5V10C21 10.5523 20.5522 11 20 11C19.4477 11 19 10.5523 19 10V9H16V10C16 10.5523 15.5522 11 15 11C14.4477 11 14 10.5523 14 10V6.5C14 5.57174 14.369 4.68177 15.0254 4.02539C15.6818 3.36904 16.5717 3 17.5 3ZM17.5 5C17.1022 5 16.7207 5.15817 16.4394 5.43945C16.1581 5.72076 16 6.10218 16 6.5V7H19V6.5C19 6.10219 18.8418 5.72075 18.5605 5.43945C18.2792 5.15817 17.8978 5.00002 17.5 5Z" fill="#E4F2F2"/>
</svg>
