<svg width="24" height="24" viewBox="0 0 24 24" fill="none" xmlns="http://www.w3.org/2000/svg">
<path fill-rule="evenodd" clip-rule="evenodd" d="M14 3C14.5302 3.00009 15.0391 3.21104 15.4141 3.58594C15.789 3.96099 16 4.46964 16 5V11H18.8721C19.2856 10.9461 19.7068 11.0215 20.0762 11.2197C20.4825 11.4379 20.8009 11.7898 20.9775 12.2158C21.1541 12.6421 21.1781 13.1168 21.0449 13.5586C20.9234 13.9618 20.6767 14.3138 20.3438 14.5684L13.5606 21.3545C13.3557 21.5592 13.1123 21.7222 12.8447 21.833C12.5771 21.9438 12.2897 22.001 12 22.001C11.7103 22.0009 11.4229 21.9439 11.1553 21.833C10.8877 21.7221 10.6443 21.5593 10.4395 21.3545L3.65039 14.5645C3.31961 14.3101 3.07418 13.9591 2.95313 13.5576C2.82003 13.1159 2.84401 12.6411 3.02051 12.2148C3.19704 11.7889 3.51568 11.437 3.92188 11.2188C4.29138 11.0204 4.71318 10.945 5.12696 10.999H8V5C8 4.46964 8.21096 3.961 8.58594 3.58594C8.96093 3.21104 9.46976 3.00008 10 3H14ZM10 10.999C10 11.5294 9.78904 12.038 9.41407 12.4131C9.03908 12.788 8.53025 12.9989 8 12.999H5.05957C4.99543 12.999 4.93113 12.9928 4.86817 12.9805C4.92136 13.0163 4.97123 13.0572 5.01661 13.1025L11.8535 19.9395C11.8726 19.9586 11.896 19.974 11.9209 19.9844C11.9459 19.9947 11.973 20.0009 12 20.001C12.0271 20.001 12.0541 19.9947 12.0791 19.9844C12.1042 19.974 12.1273 19.9586 12.1465 19.9395L18.9814 13.1035C19.0268 13.0582 19.0767 13.0173 19.1299 12.9814C19.067 12.9937 19.0026 13 18.9385 13H16C15.4698 12.9999 14.9609 12.789 14.5859 12.4141C14.211 12.039 14 11.5304 14 11V5H10V10.999Z" fill="#E4F2F2"/>
</svg>
