<svg width="24" height="24" viewBox="0 0 24 24" fill="none" xmlns="http://www.w3.org/2000/svg">
<path d="M7.02055 3.00098C7.03814 3.00133 7.05573 3.00165 7.07329 3.00293C7.09099 3.00421 7.10859 3.00562 7.12602 3.00781C7.1378 3.0093 7.14945 3.01177 7.16118 3.01367C7.17993 3.01671 7.19845 3.02034 7.21684 3.02441C7.22794 3.02687 7.23902 3.02939 7.25005 3.03223C7.31732 3.04956 7.38142 3.07429 7.44243 3.10449C7.53772 3.15158 7.62773 3.21362 7.70708 3.29297L11.7071 7.29297C12.0976 7.68348 12.0976 8.31652 11.7071 8.70703C11.3166 9.09754 10.6835 9.09752 10.293 8.70703L8.00005 6.41406V20C8.00005 20.5523 7.5523 21 7.00005 21C6.44776 21 6.00005 20.5523 6.00005 20V6.41406L3.70708 8.70703C3.31657 9.09754 2.68354 9.09752 2.29302 8.70703C1.90249 8.31651 1.90249 7.68349 2.29302 7.29297L6.29302 3.29297C6.35019 3.2358 6.41483 3.18656 6.48442 3.14453C6.50437 3.13248 6.52441 3.12088 6.54497 3.11035C6.60731 3.07841 6.67316 3.05256 6.74223 3.03418C6.75881 3.02977 6.7753 3.02503 6.79204 3.02148C6.80301 3.01917 6.81414 3.01758 6.82524 3.01562C6.84276 3.01252 6.86035 3.00998 6.87798 3.00781C6.89574 3.00565 6.91364 3.00415 6.93169 3.00293C6.94763 3.00184 6.96357 3.00131 6.97954 3.00098C6.98634 3.00084 6.99321 3 7.00005 3C7.0069 3 7.01373 3.00084 7.02055 3.00098Z" fill="#E4F2F2"/>
<path d="M17 3C17.5523 3.00004 18 3.44774 18 4V17.5859L20.293 15.293C20.6835 14.9025 21.3166 14.9025 21.7071 15.293C22.0976 15.6835 22.0976 16.3165 21.7071 16.707L17.7071 20.707C17.6605 20.7536 17.6087 20.7944 17.5538 20.8311C17.5146 20.8572 17.4743 20.8804 17.4327 20.9004C17.3872 20.9223 17.3401 20.9412 17.2911 20.9561C17.2743 20.9611 17.2572 20.9646 17.2403 20.9688C17.2247 20.9726 17.2093 20.9774 17.1934 20.9805C17.1863 20.9819 17.179 20.9822 17.1719 20.9834C17.116 20.9931 17.0588 21 17 21L16.8975 20.9951C16.876 20.9929 16.8551 20.9879 16.834 20.9844C16.8236 20.9826 16.8131 20.9816 16.8028 20.9795C16.7913 20.9772 16.78 20.9744 16.7686 20.9717C16.748 20.9668 16.7274 20.9623 16.7071 20.9561C16.6584 20.9412 16.6116 20.9222 16.5665 20.9004C16.5267 20.8812 16.4877 20.8597 16.4502 20.835C16.3936 20.7976 16.3408 20.7548 16.293 20.707L12.293 16.707C11.9025 16.3165 11.9025 15.6835 12.293 15.293C12.6835 14.9025 13.3166 14.9025 13.7071 15.293L16 17.5859V4C16 3.44772 16.4478 3 17 3Z" fill="#E4F2F2"/>
</svg>
