<svg width="24" height="24" viewBox="0 0 24 24" fill="none" xmlns="http://www.w3.org/2000/svg">
<path d="M12 19C13.1045 19 14 19.8955 14 21C14 22.1045 13.1045 23 12 23C10.8954 23 9.99999 22.1046 9.99999 21C9.99999 19.8954 10.8954 19 12 19Z" fill="#E4F2F2"/>
<path d="M12 1C12.5522 1.00004 13 1.44774 13 2V13.5859L18.293 8.29297C18.6835 7.90248 19.3165 7.90246 19.707 8.29297C20.0975 8.68348 20.0975 9.31652 19.707 9.70703L12.707 16.707C12.6605 16.7536 12.6086 16.7944 12.5537 16.8311C12.5146 16.8572 12.4743 16.8804 12.4326 16.9004C12.3871 16.9223 12.34 16.9412 12.291 16.9561C12.2743 16.9611 12.2572 16.9646 12.2402 16.9688C12.2246 16.9726 12.2092 16.9774 12.1933 16.9805C12.1862 16.9819 12.179 16.9822 12.1719 16.9834C12.1159 16.9931 12.0587 17 12 17C11.9433 17 11.888 16.9934 11.834 16.9844C11.8236 16.9826 11.8131 16.9816 11.8027 16.9795C11.7912 16.9772 11.7799 16.9744 11.7685 16.9717C11.748 16.9668 11.7273 16.9623 11.707 16.9561C11.6584 16.9412 11.6116 16.9222 11.5664 16.9004C11.5266 16.8812 11.4877 16.8597 11.4502 16.835C11.3935 16.7976 11.3408 16.7548 11.293 16.707L4.29295 9.70703C3.90243 9.31651 3.90243 8.68349 4.29295 8.29297C4.68348 7.90248 5.3165 7.90246 5.70702 8.29297L11 13.5859V2C11 1.44772 11.4477 1 12 1Z" fill="#E4F2F2"/>
</svg>
