<svg width="24" height="24" viewBox="0 0 24 24" fill="none" xmlns="http://www.w3.org/2000/svg">
<path d="M19 20C19.5523 20 20 20.4477 20 21C20 21.5523 19.5523 22 19 22H5C4.44772 22 4 21.5523 4 21C4 20.4477 4.44772 20 5 20H19Z" fill="#E4F2F2"/>
<path d="M12 2C12.5523 2 13 2.44772 13 3V14.5859L17.293 10.293C17.6835 9.90244 18.3165 9.90244 18.707 10.293C19.0976 10.6835 19.0976 11.3165 18.707 11.707L12.707 17.707C12.6592 17.7548 12.6065 17.7976 12.5498 17.835C12.5121 17.8599 12.4727 17.8811 12.4326 17.9004C12.3874 17.9222 12.3407 17.9412 12.292 17.9561C12.2717 17.9622 12.251 17.9668 12.2305 17.9717C12.2191 17.9744 12.2078 17.9772 12.1963 17.9795C12.1859 17.9816 12.1754 17.9826 12.165 17.9844C12.1112 17.9933 12.0563 18 12 18C11.9433 18 11.8881 17.9934 11.834 17.9844C11.8236 17.9826 11.8131 17.9816 11.8027 17.9795C11.7912 17.9772 11.7799 17.9744 11.7686 17.9717C11.748 17.9668 11.7273 17.9623 11.707 17.9561C11.6584 17.9412 11.6116 17.9222 11.5664 17.9004C11.5266 17.8812 11.4877 17.8597 11.4502 17.835C11.3935 17.7976 11.3408 17.7548 11.293 17.707L5.29297 11.707C4.90244 11.3165 4.90244 10.6835 5.29297 10.293C5.68349 9.90244 6.31651 9.90244 6.70703 10.293L11 14.5859V3C11 2.44772 11.4477 2 12 2Z" fill="#E4F2F2"/>
</svg>
