<svg width="24" height="24" viewBox="0 0 24 24" fill="none" xmlns="http://www.w3.org/2000/svg">
<path d="M15.293 12.293C15.6835 11.9024 16.3165 11.9024 16.707 12.293L20.707 16.293C20.7548 16.3408 20.7976 16.3935 20.835 16.4502C20.8597 16.4877 20.8812 16.5266 20.9004 16.5664C20.9222 16.6116 20.9412 16.6584 20.9561 16.707C20.9623 16.7273 20.9668 16.748 20.9717 16.7685C20.9893 16.8429 21 16.9202 21 17C21 17.083 20.9878 17.1631 20.9688 17.2402C20.9646 17.2572 20.9611 17.2743 20.9561 17.291C20.9412 17.34 20.9223 17.3871 20.9004 17.4326C20.8804 17.4743 20.8572 17.5146 20.8311 17.5537C20.8185 17.5725 20.8048 17.5905 20.791 17.6084C20.7649 17.6422 20.738 17.676 20.707 17.707L16.707 21.707C16.3165 22.0975 15.6835 22.0975 15.293 21.707C14.9025 21.3165 14.9025 20.6835 15.293 20.293L17.5859 18H4C3.44774 18 3.00004 17.5522 3 17C3 16.4477 3.44772 16 4 16H17.5859L15.293 13.707C14.9025 13.3165 14.9025 12.6835 15.293 12.293Z" fill="#E4F2F2"/>
<path d="M7.29297 2.29295C7.68349 1.90243 8.31651 1.90243 8.70703 2.29295C9.09752 2.68348 9.09754 3.3165 8.70703 3.70702L6.41406 5.99999H20C20.5523 5.99999 21 6.4477 21 6.99999C21 7.55224 20.5523 7.99999 20 7.99999H6.41406L8.70703 10.293C9.09752 10.6835 9.09754 11.3165 8.70703 11.707C8.31652 12.0975 7.68348 12.0975 7.29297 11.707L3.29297 7.70702C3.26183 7.67588 3.23418 7.64236 3.20801 7.60838C3.19423 7.59048 3.18053 7.57254 3.16797 7.5537C3.14195 7.51471 3.11956 7.47411 3.09961 7.4326C3.07767 7.38703 3.05788 7.3401 3.04297 7.291C3.0379 7.27428 3.03445 7.25714 3.03027 7.24022C3.01125 7.16318 3.00001 7.0829 3 6.99999C3 6.92031 3.00974 6.84283 3.02734 6.76854C3.03221 6.74799 3.03678 6.72729 3.04297 6.70702C3.05787 6.65827 3.07777 6.61166 3.09961 6.56639C3.11877 6.5266 3.1403 6.48767 3.16504 6.45018C3.20242 6.39352 3.24516 6.34077 3.29297 6.29295L7.29297 2.29295Z" fill="#E4F2F2"/>
</svg>
