<svg width="24" height="24" viewBox="0 0 24 24" fill="none" xmlns="http://www.w3.org/2000/svg">
<path d="M12 6C12.5523 6 13 6.44772 13 7V18.5859L17.293 14.293C17.6835 13.9024 18.3165 13.9024 18.707 14.293C19.0976 14.6835 19.0976 15.3165 18.707 15.707L12.707 21.707C12.6592 21.7548 12.6065 21.7976 12.5498 21.835C12.5121 21.8599 12.4727 21.8811 12.4326 21.9004C12.3874 21.9222 12.3407 21.9412 12.292 21.9561C12.2717 21.9622 12.251 21.9668 12.2305 21.9717C12.2191 21.9744 12.2078 21.9772 12.1963 21.9795C12.1859 21.9816 12.1754 21.9826 12.165 21.9844C12.1112 21.9933 12.0563 22 12 22C11.9433 22 11.8881 21.9934 11.834 21.9844C11.8236 21.9826 11.8131 21.9816 11.8027 21.9795C11.7912 21.9772 11.7799 21.9744 11.7686 21.9717C11.748 21.9668 11.7273 21.9623 11.707 21.9561C11.6584 21.9412 11.6116 21.9222 11.5664 21.9004C11.5266 21.8812 11.4877 21.8597 11.4502 21.835C11.3935 21.7976 11.3408 21.7548 11.293 21.707L5.29297 15.707C4.90244 15.3165 4.90244 14.6835 5.29297 14.293C5.68349 13.9024 6.31651 13.9024 6.70703 14.293L11 18.5859V7C11 6.44772 11.4477 6 12 6Z" fill="#E4F2F2"/>
<path d="M19 2C19.5523 2 20 2.44772 20 3C20 3.55228 19.5523 4 19 4H5C4.44772 4 4 3.55228 4 3C4 2.44772 4.44772 2 5 2H19Z" fill="#E4F2F2"/>
</svg>
