<svg width="24" height="24" viewBox="0 0 24 24" fill="none" xmlns="http://www.w3.org/2000/svg">
<path d="M11.293 4.29295C11.6835 3.90243 12.3165 3.90243 12.707 4.29295L19.707 11.293C19.7548 11.3408 19.7976 11.3935 19.835 11.4502C19.8597 11.4877 19.8812 11.5266 19.9004 11.5664C19.9222 11.6116 19.9412 11.6584 19.9561 11.707C19.9623 11.7273 19.9668 11.748 19.9717 11.7685C19.9893 11.8429 20 11.9202 20 12C20 12.083 19.9878 12.1631 19.9688 12.2402C19.9646 12.2572 19.9611 12.2743 19.9561 12.291C19.9412 12.34 19.9223 12.3871 19.9004 12.4326C19.8804 12.4743 19.8572 12.5146 19.8311 12.5537C19.8185 12.5725 19.8048 12.5905 19.791 12.6084C19.7649 12.6422 19.738 12.676 19.707 12.707L12.707 19.707C12.3165 20.0975 11.6835 20.0975 11.293 19.707C10.9025 19.3165 10.9025 18.6835 11.293 18.293L16.5859 13H5C4.44774 13 4.00004 12.5522 4 12C4 11.4477 4.44772 11 5 11H16.5859L11.293 5.70702C10.9025 5.3165 10.9025 4.68348 11.293 4.29295Z" fill="#E4F2F2"/>
</svg>
