<svg width="24" height="24" viewBox="0 0 24 24" fill="none" xmlns="http://www.w3.org/2000/svg">
<path fill-rule="evenodd" clip-rule="evenodd" d="M12.2158 3.02151C12.6421 2.84502 13.1169 2.82104 13.5586 2.95413C13.9601 3.07517 14.3111 3.32062 14.5654 3.6514L21.3545 10.4395C21.5593 10.6443 21.7221 10.8877 21.833 11.1553C21.9439 11.4229 22.0009 11.7104 22.001 12C22.001 12.2897 21.9438 12.5771 21.833 12.8448C21.7222 13.1123 21.5592 13.3557 21.3545 13.5606L14.5684 20.3438C14.3138 20.6767 13.9618 20.9234 13.5586 21.045C13.1168 21.1781 12.6421 21.1541 12.2158 20.9776C11.7898 20.801 11.4379 20.4825 11.2197 20.0762C11.0214 19.7066 10.9459 19.285 11 18.8711V16H5C4.46965 16 3.96099 15.7891 3.58594 15.4141C3.21105 15.0391 3.00009 14.5303 3 14V10C3.00008 9.46971 3.21094 8.95999 3.58594 8.58499C3.96096 8.21021 4.46979 8.00003 5 8.00003H11V5.12698C10.9463 4.71352 11.0215 4.29209 11.2197 3.92288C11.438 3.51669 11.7898 3.19804 12.2158 3.02151ZM12.9814 4.86917C12.9937 4.93213 13 4.99643 13 5.06058V8.00003C12.9999 8.53026 12.789 9.03912 12.4141 9.41409C12.039 9.78905 11.5304 10 11 10H5V14H11C11.5302 14 12.039 14.2102 12.4141 14.585C12.7891 14.96 12.9999 15.4697 13 16V18.9385C13 19.0026 12.9937 19.067 12.9814 19.1299C13.0173 19.0768 13.0582 19.0268 13.1035 18.9815L19.9395 12.1465C19.9586 12.1273 19.974 12.1042 19.9844 12.0791C19.9947 12.0541 20.001 12.0271 20.001 12C20.0009 11.973 19.9947 11.9459 19.9844 11.9209C19.974 11.896 19.9586 11.8727 19.9395 11.8535L13.1035 5.01761C13.0582 4.97224 13.0173 4.92236 12.9814 4.86917Z" fill="#E4F2F2"/>
</svg>
