<svg width="24" height="24" viewBox="0 0 24 24" fill="none" xmlns="http://www.w3.org/2000/svg">
<path d="M7.29297 12.293C7.68349 11.9024 8.31651 11.9024 8.70703 12.293C9.09752 12.6835 9.09754 13.3165 8.70703 13.707L6.41406 16H20C20.5523 16 21 16.4477 21 17C21 17.5522 20.5523 18 20 18H6.41406L8.70703 20.293C9.09752 20.6835 9.09754 21.3165 8.70703 21.707C8.31652 22.0975 7.68348 22.0975 7.29297 21.707L3.29297 17.707C3.26183 17.6759 3.23418 17.6424 3.20801 17.6084C3.19423 17.5905 3.18053 17.5725 3.16797 17.5537C3.14195 17.5147 3.11956 17.4741 3.09961 17.4326C3.07767 17.387 3.05788 17.3401 3.04297 17.291C3.0379 17.2743 3.03445 17.2571 3.03027 17.2402C3.01125 17.1632 3.00001 17.0829 3 17C3 16.9203 3.00974 16.8428 3.02734 16.7685C3.03221 16.748 3.03678 16.7273 3.04297 16.707C3.05787 16.6583 3.07777 16.6117 3.09961 16.5664C3.11877 16.5266 3.1403 16.4877 3.16504 16.4502C3.20242 16.3935 3.24516 16.3408 3.29297 16.293L7.29297 12.293Z" fill="#E4F2F2"/>
<path d="M15.293 2.29295C15.6835 1.90243 16.3165 1.90243 16.707 2.29295L20.707 6.29295C20.7548 6.34077 20.7976 6.39352 20.835 6.45018C20.8597 6.48767 20.8812 6.5266 20.9004 6.56639C20.9222 6.61158 20.9412 6.65836 20.9561 6.70702C20.9623 6.7273 20.9668 6.74797 20.9717 6.76854C20.9893 6.8429 21 6.92023 21 6.99999C21 7.08298 20.9878 7.16311 20.9688 7.24022C20.9646 7.25716 20.9611 7.27426 20.9561 7.291C20.9412 7.34 20.9223 7.38711 20.9004 7.4326C20.8804 7.47427 20.8572 7.51457 20.8311 7.5537C20.8185 7.57254 20.8048 7.59047 20.791 7.60838C20.7649 7.64219 20.738 7.67603 20.707 7.70702L16.707 11.707C16.3165 12.0975 15.6835 12.0975 15.293 11.707C14.9025 11.3165 14.9025 10.6835 15.293 10.293L17.5859 7.99999H4C3.44774 7.99999 3.00004 7.55224 3 6.99999C3 6.4477 3.44772 5.99999 4 5.99999H17.5859L15.293 3.70702C14.9025 3.3165 14.9025 2.68348 15.293 2.29295Z" fill="#E4F2F2"/>
</svg>
