<svg width="24" height="24" viewBox="0 0 24 24" fill="none" xmlns="http://www.w3.org/2000/svg">
<path d="M6.99999 3C7.55224 3.00004 7.99999 3.44774 7.99999 4V17.5859L10.293 15.293C10.6835 14.9025 11.3165 14.9025 11.707 15.293C12.0975 15.6835 12.0975 16.3165 11.707 16.707L7.70702 20.707C7.66049 20.7536 7.60863 20.7944 7.5537 20.8311C7.51457 20.8572 7.47427 20.8804 7.4326 20.9004C7.38711 20.9223 7.34 20.9412 7.291 20.9561C7.27426 20.9611 7.25716 20.9646 7.24022 20.9688C7.22462 20.9726 7.20923 20.9774 7.19335 20.9805C7.18625 20.9819 7.17898 20.9822 7.17186 20.9834C7.11592 20.9931 7.0587 21 6.99999 21L6.89745 20.9951C6.87597 20.9929 6.85503 20.9879 6.83397 20.9844C6.82357 20.9826 6.81307 20.9816 6.80272 20.9795C6.79122 20.9772 6.7799 20.9744 6.76854 20.9717C6.74797 20.9668 6.7273 20.9623 6.70702 20.9561C6.65836 20.9412 6.61158 20.9222 6.56639 20.9004C6.5266 20.8812 6.48767 20.8597 6.45018 20.835C6.39352 20.7976 6.34077 20.7548 6.29295 20.707L2.29295 16.707C1.90243 16.3165 1.90243 15.6835 2.29295 15.293C2.68348 14.9025 3.3165 14.9025 3.70702 15.293L5.99999 17.5859V4C5.99999 3.44772 6.4477 3 6.99999 3Z" fill="#E4F2F2"/>
<path fill-rule="evenodd" clip-rule="evenodd" d="M17.5 13C18.4282 13 19.3182 13.369 19.9746 14.0254C20.6309 14.6818 21 15.5718 21 16.5V20C21 20.5523 20.5522 21 20 21C19.4477 21 19 20.5523 19 20V19H16V20C16 20.5523 15.5522 21 15 21C14.4477 21 14 20.5523 14 20V16.5C14 15.5717 14.369 14.6818 15.0254 14.0254C15.6818 13.369 16.5717 13 17.5 13ZM17.5 15C17.1022 15 16.7207 15.1582 16.4394 15.4395C16.1581 15.7208 16 16.1022 16 16.5V17H19V16.5C19 16.1022 18.8418 15.7208 18.5605 15.4395C18.2792 15.1582 17.8978 15 17.5 15Z" fill="#E4F2F2"/>
<path d="M20.1435 3.01074C20.4732 3.05854 20.7613 3.26875 20.9053 3.57617C21.0697 3.9275 21.0169 4.34259 20.7685 4.64062L17.1357 9H20C20.5522 9.00004 21 9.44774 21 10C21 10.5523 20.5522 11 20 11H15C14.612 11 14.2593 10.7752 14.0947 10.4238C13.9302 10.0725 13.9831 9.65742 14.2314 9.35938L17.8642 5H15C14.4477 5 14 4.55228 14 4C14 3.44772 14.4477 3 15 3H20L20.1435 3.01074Z" fill="#E4F2F2"/>
</svg>
