<svg width="24" height="24" viewBox="0 0 24 24" fill="none" xmlns="http://www.w3.org/2000/svg">
<path d="M7 3C7.55225 3.00004 8 3.44774 8 4V17.5859L10.293 15.293C10.6835 14.9025 11.3165 14.9025 11.707 15.293C12.0975 15.6835 12.0975 16.3165 11.707 16.707L7.70703 20.707C7.6605 20.7536 7.60864 20.7944 7.55371 20.8311C7.51458 20.8572 7.47428 20.8804 7.43262 20.9004C7.38713 20.9223 7.34002 20.9412 7.29102 20.9561C7.27428 20.9611 7.25717 20.9646 7.24024 20.9688C7.22463 20.9726 7.20924 20.9774 7.19336 20.9805C7.18626 20.9819 7.17899 20.9822 7.17188 20.9834C7.11594 20.9931 7.05872 21 7 21L6.89746 20.9951C6.87598 20.9929 6.85504 20.9879 6.83399 20.9844C6.82358 20.9826 6.81309 20.9816 6.80274 20.9795C6.79123 20.9772 6.77991 20.9744 6.76856 20.9717C6.74799 20.9668 6.72732 20.9623 6.70703 20.9561C6.65838 20.9412 6.61159 20.9222 6.56641 20.9004C6.52661 20.8812 6.48768 20.8597 6.4502 20.835C6.39354 20.7976 6.34078 20.7548 6.29297 20.707L2.29297 16.707C1.90245 16.3165 1.90245 15.6835 2.29297 15.293C2.6835 14.9025 3.31652 14.9025 3.70703 15.293L6 17.5859V4C6 3.44772 6.44772 3 7 3Z" fill="#E4F2F2"/>
<path d="M20.1436 13.0107C20.4733 13.0585 20.7613 13.2687 20.9053 13.5762C21.0697 13.9275 21.0169 14.3426 20.7686 14.6406L17.1357 19H20C20.5522 19 21 19.4477 21 20C21 20.5523 20.5522 21 20 21H15C14.612 21 14.2593 20.7752 14.0947 20.4238C13.9302 20.0725 13.9831 19.6574 14.2314 19.3594L17.8643 15H15C14.4477 15 14 14.5523 14 14C14 13.4477 14.4477 13 15 13H20L20.1436 13.0107Z" fill="#E4F2F2"/>
<path fill-rule="evenodd" clip-rule="evenodd" d="M17.5 3C18.4282 3.00002 19.3183 3.36903 19.9746 4.02539C20.631 4.68176 21 5.57176 21 6.5V10C21 10.5523 20.5522 11 20 11C19.4477 11 19 10.5523 19 10V9H16V10C16 10.5523 15.5523 11 15 11C14.4477 11 14 10.5523 14 10V6.5C14 5.57174 14.369 4.68177 15.0254 4.02539C15.6818 3.36904 16.5718 3 17.5 3ZM17.5 5C17.1022 5 16.7208 5.15817 16.4395 5.43945C16.1581 5.72076 16 6.10218 16 6.5V7H19V6.5C19 6.10219 18.8418 5.72075 18.5605 5.43945C18.2793 5.15817 17.8978 5.00002 17.5 5Z" fill="#E4F2F2"/>
</svg>
