<svg width="24" height="24" viewBox="0 0 24 24" fill="none" xmlns="http://www.w3.org/2000/svg">
<path d="M15 11C15.5523 11 16 11.4477 16 12V15.5859L17.293 14.293C17.6835 13.9024 18.3165 13.9024 18.707 14.293C19.0976 14.6835 19.0976 15.3165 18.707 15.707L15.707 18.707C15.6592 18.7548 15.6065 18.7976 15.5498 18.835C15.5121 18.8599 15.4727 18.8811 15.4326 18.9004C15.3874 18.9222 15.3407 18.9412 15.292 18.9561C15.2717 18.9622 15.251 18.9668 15.2305 18.9717C15.2191 18.9744 15.2078 18.9772 15.1963 18.9795C15.1859 18.9816 15.1754 18.9826 15.165 18.9844C15.1112 18.9933 15.0563 19 15 19C14.9433 19 14.8881 18.9934 14.834 18.9844C14.8236 18.9826 14.8131 18.9816 14.8027 18.9795C14.7912 18.9772 14.7799 18.9744 14.7686 18.9717C14.748 18.9668 14.7273 18.9623 14.707 18.9561C14.6584 18.9412 14.6116 18.9222 14.5664 18.9004C14.5266 18.8812 14.4877 18.8597 14.4502 18.835C14.3935 18.7976 14.3408 18.7548 14.293 18.707L11.293 15.707C10.9024 15.3165 10.9024 14.6835 11.293 14.293C11.6835 13.9024 12.3165 13.9024 12.707 14.293L14 15.5859V12C14 11.4477 14.4477 11 15 11Z" fill="#E4F2F2"/>
<path d="M9.02051 5.00098C9.0381 5.00133 9.05569 5.00165 9.07324 5.00293C9.09094 5.00421 9.10854 5.00562 9.12598 5.00781C9.13776 5.0093 9.1494 5.01177 9.16113 5.01367C9.1802 5.01676 9.19908 5.02026 9.21777 5.02441C9.22694 5.02645 9.236 5.02895 9.24512 5.03125C9.31414 5.04866 9.37991 5.07357 9.44238 5.10449C9.47462 5.12042 9.50639 5.13761 9.53711 5.15723C9.54488 5.16219 9.55293 5.16671 9.56055 5.17188C9.61217 5.2069 9.66128 5.24722 9.70703 5.29297L12.707 8.29297C13.0976 8.68349 13.0976 9.31651 12.707 9.70703C12.3165 10.0976 11.6835 10.0976 11.293 9.70703L10 8.41406V12C10 12.5523 9.55229 13 9 13C8.44772 13 8 12.5523 8 12V8.41406L6.70703 9.70703C6.31651 10.0976 5.68349 10.0976 5.29297 9.70703C4.90244 9.31651 4.90244 8.68349 5.29297 8.29297L8.29297 5.29297C8.35477 5.23117 8.42479 5.17778 8.50098 5.13379C8.5154 5.12546 8.53018 5.1179 8.54492 5.11035C8.60726 5.0784 8.67312 5.05257 8.74219 5.03418C8.75876 5.02976 8.77526 5.02503 8.79199 5.02148C8.80296 5.01916 8.8141 5.01758 8.8252 5.01562C8.84271 5.01252 8.8603 5.00998 8.87793 5.00781C8.8957 5.00565 8.9136 5.00415 8.93164 5.00293C8.94758 5.00184 8.96353 5.00131 8.97949 5.00098C8.98632 5.00084 8.99314 5 9 5C9.00686 5 9.01368 5.00084 9.02051 5.00098Z" fill="#E4F2F2"/>
<path fill-rule="evenodd" clip-rule="evenodd" d="M20 1C21.6569 1 23 2.34315 23 4V20C23 21.6569 21.6569 23 20 23H4C2.34315 23 1 21.6569 1 20V4C1 2.34315 2.34315 1 4 1H20ZM4 3C3.44772 3 3 3.44772 3 4V20C3 20.5523 3.44772 21 4 21H20C20.5523 21 21 20.5523 21 20V4C21 3.44772 20.5523 3 20 3H4Z" fill="#E4F2F2"/>
</svg>
