<svg width="24" height="24" viewBox="0 0 24 24" fill="none" xmlns="http://www.w3.org/2000/svg">
<path d="M17 6C17.5523 6 18 6.44772 18 7V17C18 17.0563 17.9933 17.1112 17.9844 17.165C17.9772 17.2078 17.9688 17.2503 17.9561 17.292C17.9412 17.3407 17.9222 17.3874 17.9004 17.4326C17.8936 17.4468 17.8864 17.4607 17.8789 17.4746C17.8002 17.6201 17.6873 17.7442 17.5498 17.835C17.5121 17.8599 17.4727 17.8811 17.4326 17.9004C17.3874 17.9222 17.3407 17.9412 17.292 17.9561C17.2717 17.9622 17.251 17.9668 17.2305 17.9717C17.2191 17.9744 17.2078 17.9772 17.1963 17.9795C17.1859 17.9816 17.1754 17.9826 17.165 17.9844C17.1112 17.9933 17.0563 18 17 18H7C6.44772 18 6 17.5523 6 17C6 16.4477 6.44772 16 7 16H14.5859L6.29297 7.70703C5.90244 7.31651 5.90244 6.68349 6.29297 6.29297C6.68349 5.90244 7.31651 5.90244 7.70703 6.29297L16 14.5859V7C16 6.44772 16.4477 6 17 6Z" fill="#E4F2F2"/>
</svg>
