<svg width="24" height="24" viewBox="0 0 24 24" fill="none" xmlns="http://www.w3.org/2000/svg">
<path d="M6.99999 3C7.55224 3.00004 7.99999 3.44774 7.99999 4V17.5859L10.293 15.293C10.6835 14.9025 11.3165 14.9025 11.707 15.293C12.0975 15.6835 12.0975 16.3165 11.707 16.707L7.70702 20.707C7.66049 20.7536 7.60863 20.7944 7.5537 20.8311C7.51457 20.8572 7.47427 20.8804 7.4326 20.9004C7.38711 20.9223 7.34 20.9412 7.291 20.9561C7.27426 20.9611 7.25716 20.9646 7.24022 20.9688C7.22462 20.9726 7.20923 20.9774 7.19335 20.9805C7.18625 20.9819 7.17898 20.9822 7.17186 20.9834C7.11592 20.9931 7.0587 21 6.99999 21L6.89745 20.9951C6.87597 20.9929 6.85503 20.9879 6.83397 20.9844C6.82357 20.9826 6.81307 20.9816 6.80272 20.9795C6.79122 20.9772 6.7799 20.9744 6.76854 20.9717C6.74797 20.9668 6.7273 20.9623 6.70702 20.9561C6.65836 20.9412 6.61158 20.9222 6.56639 20.9004C6.5266 20.8812 6.48767 20.8597 6.45018 20.835C6.39352 20.7976 6.34077 20.7548 6.29295 20.707L2.29295 16.707C1.90243 16.3165 1.90243 15.6835 2.29295 15.293C2.68348 14.9025 3.3165 14.9025 3.70702 15.293L5.99999 17.5859V4C5.99999 3.44772 6.4477 3 6.99999 3Z" fill="#E4F2F2"/>
<path d="M15 11C15.5522 11 16 11.4477 16 12C16 12.5523 15.5522 13 15 13H11C10.4477 13 9.99999 12.5523 9.99999 12C9.99999 11.4477 10.4477 11 11 11H15Z" fill="#E4F2F2"/>
<path d="M18 7C18.5522 7.00004 19 7.44774 19 8C19 8.55226 18.5522 8.99996 18 9H11C10.4477 9 9.99999 8.55228 9.99999 8C9.99999 7.44772 10.4477 7 11 7H18Z" fill="#E4F2F2"/>
<path d="M21 3C21.5522 3.00004 22 3.44774 22 4C22 4.55226 21.5522 4.99996 21 5H11C10.4477 5 9.99999 4.55228 9.99999 4C9.99999 3.44772 10.4477 3 11 3H21Z" fill="#E4F2F2"/>
</svg>
