<svg width="24" height="24" viewBox="0 0 24 24" fill="none" xmlns="http://www.w3.org/2000/svg">
<path d="M7 3C7.55225 3.00004 8 3.44774 8 4V17.5859L10.293 15.293C10.6835 14.9025 11.3165 14.9025 11.707 15.293C12.0975 15.6835 12.0975 16.3165 11.707 16.707L7.70703 20.707C7.6605 20.7536 7.60864 20.7944 7.55371 20.8311C7.51458 20.8572 7.47428 20.8804 7.43262 20.9004C7.38713 20.9223 7.34002 20.9412 7.29102 20.9561C7.27428 20.9611 7.25717 20.9646 7.24024 20.9688C7.22463 20.9726 7.20924 20.9774 7.19336 20.9805C7.18626 20.9819 7.17899 20.9822 7.17188 20.9834C7.11594 20.9931 7.05872 21 7 21L6.89746 20.9951C6.87598 20.9929 6.85504 20.9879 6.83399 20.9844C6.82358 20.9826 6.81309 20.9816 6.80274 20.9795C6.79123 20.9772 6.77991 20.9744 6.76856 20.9717C6.74799 20.9668 6.72732 20.9623 6.70703 20.9561C6.65838 20.9412 6.61159 20.9222 6.56641 20.9004C6.52661 20.8812 6.48768 20.8597 6.4502 20.835C6.39354 20.7976 6.34078 20.7548 6.29297 20.707L2.29297 16.707C1.90245 16.3165 1.90245 15.6835 2.29297 15.293C2.6835 14.9025 3.31652 14.9025 3.70703 15.293L6 17.5859V4C6 3.44772 6.44772 3 7 3Z" fill="#E4F2F2"/>
<path d="M17.1025 13.0049C17.6066 13.0562 18 13.4823 18 14V19H19C19.5522 19 20 19.4477 20 20C20 20.5523 19.5522 21 19 21H15C14.4477 21 14 20.5523 14 20C14 19.4477 14.4477 19 15 19H16V15H15C14.4477 15 14 14.5523 14 14C14 13.4477 14.4477 13 15 13H17L17.1025 13.0049Z" fill="#E4F2F2"/>
<path fill-rule="evenodd" clip-rule="evenodd" d="M17 3C18.6568 3.00004 20 4.34317 20 6V8C20 9.65683 18.6568 11 17 11C15.3431 11 14 9.65685 14 8V6C14 4.34315 15.3431 3 17 3ZM17 5C16.4477 5 16 5.44772 16 6V8C16 8.55228 16.4477 9 17 9C17.5523 8.99996 18 8.55226 18 8V6C18 5.44774 17.5523 5.00004 17 5Z" fill="#E4F2F2"/>
</svg>
