<svg width="24" height="24" viewBox="0 0 24 24" fill="none" xmlns="http://www.w3.org/2000/svg">
<path d="M12 4C12.5523 4.00004 13 4.44774 13 5V16.5859L18.293 11.293C18.6835 10.9025 19.3165 10.9025 19.707 11.293C20.0975 11.6835 20.0975 12.3165 19.707 12.707L12.707 19.707C12.6605 19.7536 12.6086 19.7944 12.5537 19.8311C12.5146 19.8572 12.4743 19.8804 12.4326 19.9004C12.3871 19.9223 12.34 19.9412 12.291 19.9561C12.2743 19.9611 12.2572 19.9646 12.2402 19.9688C12.2246 19.9726 12.2092 19.9774 12.1934 19.9805C12.1863 19.9819 12.179 19.9822 12.1719 19.9834C12.1159 19.9931 12.0587 20 12 20C11.9434 20 11.8881 19.9934 11.834 19.9844C11.8236 19.9826 11.8131 19.9816 11.8027 19.9795C11.7912 19.9772 11.7799 19.9744 11.7686 19.9717C11.748 19.9668 11.7273 19.9623 11.707 19.9561C11.6584 19.9412 11.6116 19.9222 11.5664 19.9004C11.5266 19.8812 11.4877 19.8597 11.4502 19.835C11.3935 19.7976 11.3408 19.7548 11.293 19.707L4.29297 12.707C3.90245 12.3165 3.90245 11.6835 4.29297 11.293C4.6835 10.9025 5.31652 10.9025 5.70703 11.293L11 16.5859V5C11 4.44772 11.4477 4 12 4Z" fill="#E4F2F2"/>
</svg>
