<svg width="24" height="24" viewBox="0 0 24 24" fill="none" xmlns="http://www.w3.org/2000/svg">
<path d="M7 3C7.55225 3.00004 8 3.44774 8 4V17.5859L10.293 15.293C10.6835 14.9025 11.3165 14.9025 11.707 15.293C12.0975 15.6835 12.0975 16.3165 11.707 16.707L7.70703 20.707C7.6605 20.7536 7.60864 20.7944 7.55371 20.8311C7.51458 20.8572 7.47428 20.8804 7.43262 20.9004C7.38713 20.9223 7.34002 20.9412 7.29102 20.9561C7.27428 20.9611 7.25717 20.9646 7.24024 20.9688C7.22463 20.9726 7.20924 20.9774 7.19336 20.9805C7.18626 20.9819 7.17899 20.9822 7.17188 20.9834C7.11594 20.9931 7.05872 21 7 21L6.89746 20.9951C6.87598 20.9929 6.85504 20.9879 6.83399 20.9844C6.82358 20.9826 6.81309 20.9816 6.80274 20.9795C6.79123 20.9772 6.77991 20.9744 6.76856 20.9717C6.74799 20.9668 6.72732 20.9623 6.70703 20.9561C6.65838 20.9412 6.61159 20.9222 6.56641 20.9004C6.52661 20.8812 6.48768 20.8597 6.4502 20.835C6.39354 20.7976 6.34078 20.7548 6.29297 20.707L2.29297 16.707C1.90245 16.3165 1.90245 15.6835 2.29297 15.293C2.6835 14.9025 3.31652 14.9025 3.70703 15.293L6 17.5859V4C6 3.44772 6.44772 3 7 3Z" fill="#E4F2F2"/>
<path fill-rule="evenodd" clip-rule="evenodd" d="M17 13C18.6568 13 20 14.3432 20 16V18C20 19.6568 18.6568 21 17 21C15.3431 21 14 19.6569 14 18V16C14 14.3431 15.3431 13 17 13ZM17 15C16.4477 15 16 15.4477 16 16V18C16 18.5523 16.4477 19 17 19C17.5523 19 18 18.5523 18 18V16C18 15.4477 17.5523 15 17 15Z" fill="#E4F2F2"/>
<path d="M17.1025 3.00488C17.6066 3.05625 18 3.48235 18 4V9H19C19.5522 9.00004 20 9.44774 20 10C20 10.5523 19.5522 11 19 11H15C14.4477 11 14 10.5523 14 10C14 9.44772 14.4477 9 15 9H16V5H15C14.4477 5 14 4.55228 14 4C14 3.44772 14.4477 3 15 3H17L17.1025 3.00488Z" fill="#E4F2F2"/>
</svg>
