<svg width="24" height="24" viewBox="0 0 24 24" fill="none" xmlns="http://www.w3.org/2000/svg">
<path d="M11.293 4.29295C11.6835 3.90243 12.3165 3.90243 12.707 4.29295C13.0975 4.68348 13.0975 5.3165 12.707 5.70702L7.41406 11H19C19.5523 11 20 11.4477 20 12C20 12.5522 19.5523 13 19 13H7.41406L12.707 18.293C13.0975 18.6835 13.0975 19.3165 12.707 19.707C12.3165 20.0975 11.6835 20.0975 11.293 19.707L4.29297 12.707C4.26183 12.6759 4.23418 12.6424 4.20801 12.6084C4.19423 12.5905 4.18053 12.5725 4.16797 12.5537C4.14195 12.5147 4.11956 12.4741 4.09961 12.4326C4.07767 12.387 4.05788 12.3401 4.04297 12.291C4.0379 12.2743 4.03445 12.2571 4.03027 12.2402C4.01125 12.1632 4.00001 12.0829 4 12C4 11.9203 4.00974 11.8428 4.02734 11.7685C4.03221 11.748 4.03678 11.7273 4.04297 11.707C4.05787 11.6583 4.07777 11.6117 4.09961 11.5664C4.11877 11.5266 4.1403 11.4877 4.16504 11.4502C4.20242 11.3935 4.24516 11.3408 4.29297 11.293L11.293 4.29295Z" fill="#E4F2F2"/>
</svg>
