<svg width="24" height="24" viewBox="0 0 24 24" fill="none" xmlns="http://www.w3.org/2000/svg">
<path d="M7.02049 3.00098C7.03808 3.00133 7.05567 3.00165 7.07323 3.00293C7.09093 3.00421 7.10853 3.00562 7.12596 3.00781C7.13774 3.0093 7.14939 3.01177 7.16112 3.01367C7.17987 3.01671 7.19839 3.02034 7.21678 3.02441C7.22788 3.02687 7.23896 3.02939 7.24999 3.03223C7.31726 3.04956 7.38136 3.07429 7.44237 3.10449C7.53766 3.15158 7.62767 3.21362 7.70702 3.29297L11.707 7.29297C12.0975 7.68348 12.0975 8.31652 11.707 8.70703C11.3165 9.09754 10.6835 9.09752 10.293 8.70703L7.99999 6.41406V20C7.99999 20.5523 7.55224 21 6.99999 21C6.4477 21 5.99999 20.5523 5.99999 20V6.41406L3.70702 8.70703C3.3165 9.09754 2.68348 9.09752 2.29295 8.70703C1.90243 8.31651 1.90243 7.68349 2.29295 7.29297L6.29295 3.29297C6.35012 3.2358 6.41476 3.18656 6.48436 3.14453C6.50431 3.13248 6.52434 3.12088 6.54491 3.11035C6.60725 3.07841 6.6731 3.05256 6.74217 3.03418C6.75875 3.02977 6.77524 3.02503 6.79198 3.02148C6.80295 3.01917 6.81408 3.01758 6.82518 3.01562C6.8427 3.01252 6.86029 3.00998 6.87792 3.00781C6.89568 3.00565 6.91358 3.00415 6.93163 3.00293C6.94757 3.00184 6.96351 3.00131 6.97948 3.00098C6.98628 3.00084 6.99315 3 6.99999 3C7.00684 3 7.01367 3.00084 7.02049 3.00098Z" fill="#E4F2F2"/>
<path fill-rule="evenodd" clip-rule="evenodd" d="M17 13C18.6568 13 20 14.3432 20 16V18C20 19.6568 18.6568 21 17 21C15.3431 21 14 19.6569 14 18V16C14 14.3431 15.3431 13 17 13ZM17 15C16.4477 15 16 15.4477 16 16V18C16 18.5523 16.4477 19 17 19C17.5522 19 18 18.5523 18 18V16C18 15.4477 17.5522 15 17 15Z" fill="#E4F2F2"/>
<path d="M17.1025 3.00488C17.6066 3.05625 18 3.48235 18 4V9H19C19.5522 9.00004 20 9.44774 20 10C20 10.5523 19.5522 11 19 11H15C14.4477 11 14 10.5523 14 10C14 9.44772 14.4477 9 15 9H16V5H15C14.4477 5 14 4.55228 14 4C14 3.44772 14.4477 3 15 3H17L17.1025 3.00488Z" fill="#E4F2F2"/>
</svg>
