<svg width="24" height="24" viewBox="0 0 24 24" fill="none" xmlns="http://www.w3.org/2000/svg">
<path d="M12 5C12.5523 5 13 5.44772 13 6V10.2666L16.6953 8.13379C17.1735 7.85769 17.7853 8.02192 18.0615 8.5C18.3377 8.97829 18.1736 9.59006 17.6953 9.86621L13.999 11.999L17.6953 14.1338C18.1736 14.4099 18.3377 15.0217 18.0615 15.5C17.7853 15.9781 17.1735 16.1423 16.6953 15.8662L13 13.7324V18C13 18.5523 12.5523 19 12 19C11.4478 18.9999 11 18.5522 11 18V13.7314L7.30372 15.8662C6.82549 16.142 6.21357 15.9781 5.93751 15.5C5.66165 15.0219 5.82578 14.41 6.30372 14.1338L9.99903 11.999L6.30372 9.86621C5.82578 9.59002 5.66165 8.97814 5.93751 8.5C6.21357 8.02185 6.82549 7.85799 7.30372 8.13379L11 10.2676V6C11 5.44777 11.4478 5.00009 12 5Z" fill="#E4F2F2"/>
</svg>
