<svg width="24" height="24" viewBox="0 0 24 24" fill="none" xmlns="http://www.w3.org/2000/svg">
<path fill-rule="evenodd" clip-rule="evenodd" d="M10.1592 1.1543C12.7207 0.719502 15.3533 1.20581 17.5908 2.52637C19.8087 3.83541 21.495 5.88123 22.3594 8.30567L22.4112 8.43946C22.6453 9.11036 22.4835 9.77657 22.0801 10.2559C21.7773 10.6154 21.3563 10.8543 20.9014 10.9512C21.27 13.9305 20.0734 16.9523 17.7158 18.9258C17.7298 18.9457 17.7454 18.9646 17.7578 18.9854C18.3856 20.0321 17.9111 21.2188 17.0147 21.7568C16.9928 21.77 16.9701 21.7825 16.9473 21.7939C15.5202 22.5075 13.9788 22.9425 12.3311 22.9941L12 23C11.9953 23 11.9901 22.9991 11.9854 22.999C11.1972 22.9877 10.4458 22.6666 9.8926 22.1055L1.8926 14.1064L1.89358 14.1055C1.33306 13.5523 1.01125 12.8014 1.00003 12.0137C0.999967 12.0092 1.00003 12.0045 1.00003 12C0.999935 9.40178 1.91933 6.88643 3.59573 4.90137C5.27216 2.91638 7.59765 1.58913 10.1592 1.1543ZM16.5742 4.24805C14.7437 3.1678 12.5897 2.77034 10.4942 3.12598C8.39832 3.48176 6.49568 4.56826 5.12405 6.19239C3.75555 7.81289 3.0033 9.86462 3.00003 11.9854L3.00589 12.084C3.02801 12.2788 3.10751 12.463 3.23342 12.6133L3.29983 12.6855L3.30764 12.6924L11.3067 20.6924L11.3145 20.6992C11.4983 20.8868 11.7483 20.9944 12.0108 20.999C13.4147 20.9973 14.741 20.6503 16 20.0293C16.0019 20.0279 16.0032 20.0258 16.0049 20.0244L10.1592 14.3643C9.45512 13.8153 9.00009 12.962 9.00003 12C9.00003 10.3432 10.3432 9.00002 12 9H20.4405C20.4553 8.99997 20.4693 8.99768 20.4824 8.99512C19.7771 7.00363 18.3943 5.32232 16.5742 4.24805ZM14.8262 11C14.9369 11.313 15 11.6491 15 12C15 13.1691 14.3295 14.1789 13.3535 14.6738L16.2852 17.5127C18.2837 15.9283 19.262 13.417 18.8907 11H14.8262ZM12 11C11.4478 11 11 11.4477 11 12C11.0001 12.2275 11.0771 12.4365 11.2051 12.6045C11.2364 12.6283 11.267 12.6536 11.2959 12.6816L11.46 12.8408C11.6158 12.9411 11.801 13 12 13C12.5522 13 12.9999 12.5522 13 12C13 11.4477 12.5523 11 12 11Z" fill="#E4F2F2"/>
</svg>
