<svg width="24" height="24" viewBox="0 0 24 24" fill="none" xmlns="http://www.w3.org/2000/svg">
<path fill-rule="evenodd" clip-rule="evenodd" d="M9.74316 5.41699C11.1475 4.93869 12.6677 4.91872 14.084 5.36035C15.5004 5.80216 16.7405 6.68301 17.624 7.875C18.5074 9.06701 18.9893 10.5095 19 11.9932V12C19 12.7956 18.6837 13.5585 18.1211 14.1211C17.5585 14.6837 16.7956 15 16 15C15.259 15 14.5489 14.7227 14 14.2305C13.4689 14.707 12.7697 15 12 15C10.3431 15 9 13.6569 9 12C9 10.3431 10.3431 9 12 9C13.6546 9 14.9963 10.3395 15 11.9932C15 11.9954 15 11.9977 15 12C15 12.2651 15.1055 12.5195 15.293 12.707C15.4805 12.8944 15.7349 13 16 13C16.2652 13 16.5195 12.8945 16.707 12.707C16.8929 12.5211 16.9982 12.2695 17 12.0068L16.9941 11.8086C16.9477 10.8192 16.6082 9.86362 16.0166 9.06543C15.3856 8.21432 14.5007 7.58508 13.4893 7.26953C12.4775 6.95399 11.3909 6.96789 10.3877 7.30957C9.38455 7.65129 8.51598 8.30343 7.90723 9.1709C7.29847 10.0384 6.98116 11.0771 7.00098 12.1367C7.02085 13.1963 7.37682 14.2223 8.01758 15.0664C8.65839 15.9105 9.55115 16.5291 10.5664 16.833C11.5817 17.1369 12.6678 17.11 13.667 16.7568C14.1874 16.5732 14.7581 16.846 14.9424 17.3662C15.1265 17.8869 14.8537 18.4585 14.333 18.6426C12.9342 19.137 11.4145 19.1744 9.99316 18.749C8.57176 18.3236 7.32196 17.4571 6.4248 16.2754C5.52773 15.0936 5.02876 13.6572 5.00098 12.1738C4.97327 10.6905 5.41831 9.2369 6.27051 8.02246C7.12279 6.80796 8.3387 5.89538 9.74316 5.41699ZM12 11C11.4477 11 11 11.4477 11 12C11 12.5523 11.4477 13 12 13C12.5523 13 13 12.5523 13 12C13 11.4477 12.5523 11 12 11Z" fill="#E4F2F2"/>
<path fill-rule="evenodd" clip-rule="evenodd" d="M12 1C18.0751 1 23 5.92487 23 12C23 18.0751 18.0751 23 12 23C5.92487 23 1 18.0751 1 12C1 5.92487 5.92487 1 12 1ZM12 3C7.02944 3 3 7.02944 3 12C3 16.9706 7.02944 21 12 21C16.9706 21 21 16.9706 21 12C21 7.02944 16.9706 3 12 3Z" fill="#E4F2F2"/>
</svg>
