<svg width="24" height="24" viewBox="0 0 24 24" fill="none" xmlns="http://www.w3.org/2000/svg">
<path fill-rule="evenodd" clip-rule="evenodd" d="M7.3379 2.03711C9.58225 0.986979 12.1158 0.724652 14.5274 1.29395C16.939 1.86329 19.0882 3.2308 20.626 5.17383C22.1636 7.1168 23 9.52224 23 12V13C23 14.0608 22.5782 15.078 21.8281 15.8281C21.078 16.5782 20.0608 16.9999 19 17C17.9392 17 16.922 16.5782 16.1719 15.8281C16.0127 15.669 15.8689 15.4974 15.7402 15.3164C14.8243 16.3487 13.4886 16.9999 12 17C9.23859 17 7.00001 14.7614 7.00001 12C7.00009 9.23864 9.23864 7 12 7C13.1254 7.00004 14.1635 7.37253 14.999 8C14.9991 7.44779 15.4478 7.00001 16 7C16.5522 7.00011 16.9999 7.44785 17 8V13C17 13.5304 17.2109 14.039 17.5859 14.4141C17.961 14.7891 18.4696 15 19 15C19.5304 14.9999 20.039 14.7891 20.4141 14.4141C20.789 14.039 21 13.5304 21 13V12C21 9.97277 20.3156 8.00473 19.0576 6.41504C17.7995 4.82529 16.0405 3.70704 14.0674 3.24121C12.0944 2.77551 10.0217 2.98949 8.18556 3.84863C6.3495 4.70782 4.8569 6.16155 3.95021 7.97461C3.04353 9.78797 2.77609 11.8552 3.19044 13.8398C3.60489 15.8243 4.67696 17.6112 6.23341 18.9102C7.78992 20.2091 9.74 20.9444 11.7666 20.9971C13.7931 21.0496 15.7786 20.4165 17.4004 19.2002C17.8422 18.8691 18.4685 18.9587 18.7998 19.4004C19.131 19.8421 19.0412 20.4684 18.5996 20.7998C16.6173 22.2865 14.1909 23.0604 11.7139 22.9961C9.23699 22.9316 6.85449 22.0328 4.95216 20.4453C3.0497 18.8576 1.7389 16.6737 1.23243 14.248C0.72608 11.8226 1.05316 9.29724 2.16115 7.08106C3.26931 4.86484 5.09364 3.08731 7.3379 2.03711ZM12 9C10.3432 9 9.00009 10.3432 9.00001 12C9.00001 13.6569 10.3432 15 12 15C13.6568 14.9999 15 13.6568 15 12C14.9999 10.3433 13.6567 9.0001 12 9Z" fill="#E4F2F2"/>
</svg>
