<svg width="24" height="24" viewBox="0 0 24 24" fill="none" xmlns="http://www.w3.org/2000/svg">
<path d="M12 9.99998C13.1045 10 14 10.8954 14 12C14 13.1045 13.1045 13.9999 12 14C10.8955 14 10 13.1045 10 12C10 10.8954 10.8954 9.99998 12 9.99998Z" fill="#E4F2F2"/>
<path fill-rule="evenodd" clip-rule="evenodd" d="M5.84668 2.0078C6.8741 1.97568 8.00767 2.21804 9.16309 2.65526C10.0771 3.00117 11.0323 3.48076 11.999 4.07713C12.9665 3.48031 13.9233 3.00134 14.8379 2.65526C15.9934 2.21803 17.1268 1.97556 18.1543 2.0078C19.1891 2.04037 20.1744 2.35641 20.9092 3.09471C21.6454 3.82927 21.9607 4.8132 21.9932 5.84666C22.0253 6.87407 21.7829 8.00767 21.3457 9.16307C20.9997 10.0775 20.5186 11.0327 19.9219 12C20.5186 12.9674 20.9996 13.9234 21.3457 14.8379C21.7828 15.9933 22.0254 17.1269 21.9932 18.1543C21.9607 19.1874 21.644 20.1699 20.9082 20.9043L20.9092 20.9053C20.1744 21.6437 19.1891 21.9606 18.1543 21.9931C17.1269 22.0254 15.9933 21.7828 14.8379 21.3457C13.9234 20.9996 12.9674 20.5186 12 19.9219C11.0327 20.5185 10.0775 20.9996 9.16309 21.3457C8.00769 21.7829 6.87409 22.0253 5.84668 21.9931C4.81321 21.9607 3.82928 21.6444 3.09473 20.9082C2.35642 20.1734 2.04038 19.189 2.00781 18.1543C1.97558 17.1268 2.21804 15.9934 2.65527 14.8379C3.00127 13.9235 3.48053 12.9673 4.07715 12C3.48066 11.0329 3.00125 10.0772 2.65527 9.16307C2.21805 8.00766 1.9757 6.87408 2.00781 5.84666C2.0403 4.81179 2.35639 3.82666 3.09473 3.09178C3.82929 2.35555 4.81318 2.04024 5.84668 2.0078ZM5.33008 13.8193C5.0035 14.415 4.73414 14.9942 4.52539 15.5459C4.14789 16.5437 3.98535 17.4074 4.00684 18.0918C4.02552 18.684 4.17792 19.0974 4.4043 19.3789L4.50586 19.4912L4.50879 19.4951C4.78891 19.7763 5.23235 19.9729 5.90918 19.9941C6.59359 20.0155 7.45741 19.8531 8.45508 19.4756C9.00655 19.2669 9.58427 18.9954 10.1797 18.6689C9.30332 18.0008 8.43364 17.2443 7.59473 16.4092L7.5918 16.4062C6.75608 15.5668 5.99852 14.6963 5.33008 13.8193ZM18.6689 13.8193C18.0006 14.6961 17.2447 15.567 16.4092 16.4062L16.4062 16.4092C15.5668 17.2449 14.6953 18.0005 13.8184 18.6689C14.4144 18.9959 14.9939 19.2667 15.5459 19.4756C16.5435 19.853 17.4075 20.0156 18.0918 19.9941C18.7685 19.9728 19.2112 19.7764 19.4912 19.4951L19.4951 19.4912C19.7764 19.2112 19.9728 18.7685 19.9941 18.0918C20.0156 17.4074 19.853 16.5435 19.4756 15.5459C19.2668 14.9941 18.9956 14.4151 18.6689 13.8193ZM11.999 6.47459C11.0004 7.1823 9.98734 8.03163 9.00586 9.00877C8.02973 9.98955 7.1817 11.0021 6.47461 12C7.1817 12.9979 8.02969 14.0114 9.00586 14.9922L9.41895 15.3935C10.2701 16.2032 11.1409 16.9155 12 17.5244C12.9987 16.8167 14.0136 15.9694 14.9951 14.9922C15.9711 14.0115 16.8174 12.9977 17.5244 12C16.8175 11.0024 15.9709 9.98924 14.9951 9.00877L14.582 8.60741C13.7303 7.7972 12.8586 7.08377 11.999 6.47459ZM5.90918 4.00682C5.23199 4.02808 4.78888 4.22437 4.50879 4.50584L4.50586 4.50877C4.22439 4.78887 4.02809 5.23198 4.00684 5.90916C3.98545 6.5936 4.14787 7.45735 4.52539 8.45506C4.73402 9.00632 5.00382 9.58453 5.33008 10.1797C5.99839 9.30298 6.75628 8.43392 7.5918 7.59471L7.59473 7.59178C8.43414 6.75607 9.30376 5.99849 10.1807 5.33006C9.58528 5.00357 9.00657 4.7341 8.45508 4.52538C7.45737 4.14785 6.59362 3.98543 5.90918 4.00682ZM18.0918 4.00682C17.4074 3.98533 16.5437 4.14788 15.5459 4.52538C14.9942 4.73413 14.415 5.00349 13.8193 5.33006C14.5429 5.88168 15.2621 6.49432 15.9629 7.16112L16.4062 7.59178L16.4092 7.59471C17.2444 8.43362 18.0008 9.3033 18.6689 10.1797C18.9954 9.58426 19.2669 9.00653 19.4756 8.45506C19.8531 7.4574 20.0155 6.59358 19.9941 5.90916C19.9729 5.23234 19.7763 4.78889 19.4951 4.50877L19.4912 4.50584C19.2112 4.22451 18.7686 4.02818 18.0918 4.00682Z" fill="#E4F2F2"/>
</svg>
