<svg width="24" height="24" viewBox="0 0 24 24" fill="none" xmlns="http://www.w3.org/2000/svg">
<path fill-rule="evenodd" clip-rule="evenodd" d="M10 9.5C12.4852 9.5 14.4999 11.5148 14.5 14C14.5 16.4853 12.4853 18.5 10 18.5C7.51474 18.5 5.5 16.4853 5.5 14C5.5001 11.5148 7.5148 9.50001 10 9.5ZM10 11.5C8.61937 11.5 7.5001 12.6194 7.5 14C7.5 15.3807 8.61931 16.5 10 16.5C11.3807 16.5 12.5 15.3807 12.5 14C12.4999 12.6194 11.3807 11.5 10 11.5Z" fill="#E4F2F2"/>
<path fill-rule="evenodd" clip-rule="evenodd" d="M15.7148 1.14453C16.8889 0.874182 18.1179 0.967223 19.2383 1.41015C20.3586 1.85313 21.3185 2.6259 21.9902 3.62597C22.6597 4.62291 23.0114 5.79936 23 7L22.9922 7.3164C22.9078 8.88764 22.1991 10.3154 21.1074 11.4072C21.0919 11.4228 21.0751 11.4377 21.0586 11.4521C20.2201 12.1858 19.8966 12.469 19.6357 12.9365C19.3591 13.4326 19.1327 14.1851 18.7793 15.9014L18.7783 15.9072C18.442 17.4963 17.6814 18.9652 16.5781 20.1572C15.4748 21.3492 14.0691 22.2207 12.5107 22.6787C10.9522 23.1366 9.29851 23.1645 7.72559 22.7588C6.15262 22.353 4.71878 21.5287 3.57618 20.374C2.43357 19.2192 1.62446 17.7764 1.23536 16.1992C0.84635 14.6221 0.891814 12.9686 1.36622 11.415C1.8407 9.86157 2.72699 8.46471 3.93067 7.37402C5.1261 6.29101 6.59093 5.5496 8.1709 5.22656L9.292 4.95215C10.2509 4.70495 10.7591 4.52788 11.1318 4.32324C11.4819 4.13093 11.7291 3.9087 12.1631 3.45508L12.6709 2.91601C13.4836 2.03229 14.5447 1.41409 15.7148 1.14453ZM18.5029 3.26953C17.7592 2.97553 16.9434 2.91434 16.1641 3.09375C15.3848 3.27325 14.6779 3.68571 14.1377 4.27539L14.1299 4.28418C13.419 5.04251 12.9012 5.63278 12.0938 6.07617C11.3158 6.50324 10.3019 6.7792 8.62891 7.17285C8.61838 7.17532 8.6073 7.17851 8.59668 7.18066C7.35813 7.42916 6.2096 8.00828 5.27344 8.85644C4.33726 9.70475 3.64737 10.7908 3.27832 11.999C2.90934 13.2074 2.87516 14.494 3.17774 15.7207C3.48042 16.9472 4.10949 18.0688 4.99805 18.9668C5.88676 19.865 7.00212 20.5057 8.22559 20.8213C9.44893 21.1368 10.7351 21.1159 11.9473 20.7598C13.1592 20.4036 14.2523 19.7258 15.1104 18.7988C15.9684 17.8717 16.5607 16.7291 16.8223 15.4932C17.1683 13.8129 17.4418 12.7659 17.8897 11.9629C18.3475 11.1421 18.9636 10.6268 19.7109 9.97363C20.5346 9.14138 21 8.09583 21 7V6.98828C21.0091 6.18879 20.7758 5.405 20.3301 4.74121C19.8842 4.07729 19.2467 3.5636 18.5029 3.26953Z" fill="#E4F2F2"/>
</svg>
