<svg width="24" height="24" viewBox="0 0 24 24" fill="none" xmlns="http://www.w3.org/2000/svg">
<path fill-rule="evenodd" clip-rule="evenodd" d="M8.46484 2.68407C10.9151 1.8494 13.7503 3.08331 14.7285 5.52782C14.8753 5.89126 14.9492 6.28038 14.9463 6.67235C14.9433 7.06559 14.8622 7.45469 14.709 7.81688C14.5558 8.17901 14.3328 8.50768 14.0527 8.78368C13.7726 9.05966 13.4406 9.27843 13.0762 9.42626C12.7116 9.57404 12.3211 9.64891 11.9277 9.64598C11.5343 9.64301 11.1446 9.56199 10.7822 9.40868C10.0506 9.09899 9.47134 8.51115 9.17285 7.77489C8.96593 7.26325 9.21305 6.68052 9.72461 6.47313C10.2362 6.2659 10.8188 6.51246 11.0264 7.02391C11.1256 7.26862 11.3184 7.46388 11.5615 7.56688C11.682 7.61784 11.8116 7.64498 11.9424 7.64598C12.0732 7.64697 12.203 7.62188 12.3242 7.57274C12.4454 7.52359 12.5562 7.45064 12.6494 7.35887C12.7423 7.26719 12.8163 7.15782 12.8672 7.03758C12.9181 6.9172 12.9453 6.78742 12.9463 6.65672C12.9472 6.52614 12.9221 6.39591 12.873 6.27489L12.8711 6.27098C12.2805 4.79525 10.4699 4.02929 8.97168 4.6284L8.9707 4.62743C6.3995 5.69582 4.71246 7.9144 4.17773 10.4087C4.10904 10.7293 3.88752 10.9963 3.58496 11.1225C3.41198 11.1946 3.2632 11.3163 3.15918 11.4722C3.05522 11.6281 3.00009 11.8121 3 11.9995C3 12.1869 3.05527 12.3709 3.15918 12.5268C3.23716 12.6438 3.34056 12.741 3.45996 12.813L3.58496 12.8765L3.69434 12.9302C3.94048 13.0701 4.11759 13.3098 4.17773 13.5903C4.48564 15.0325 5.18249 16.3494 6.1748 17.4097C6.34443 16.8927 6.63343 16.4168 7.02539 16.0249C7.60302 15.4474 8.36169 15.092 9.16797 15.0151C9.57572 13.8424 10.6884 12.9995 12 12.9995C13.3126 12.9995 14.425 13.844 14.832 15.0181C15.6382 15.095 16.397 15.4474 16.9746 16.0249C17.385 16.4353 17.6829 16.9376 17.8486 17.4829C18.8869 16.399 19.5968 15.0207 19.9248 13.5776L19.9561 13.4692C20.0429 13.2213 20.2248 13.0158 20.4639 12.8999C20.6329 12.818 20.7752 12.6899 20.875 12.5307C20.9748 12.3716 21.0273 12.1874 21.0273 11.9995C21.0273 11.8118 20.9747 11.6273 20.875 11.4682C20.7753 11.3095 20.6326 11.1819 20.4639 11.1001C20.2029 10.9736 20.0089 10.7395 19.9336 10.4595C19.4612 8.70213 18.4575 7.13327 17.0596 5.96825C16.6356 5.61464 16.5782 4.98323 16.9316 4.55907C17.2851 4.1353 17.9157 4.07813 18.3398 4.43114C19.9492 5.77225 21.1325 7.55002 21.751 9.5454C22.077 9.7743 22.356 10.0665 22.5693 10.4067C22.8686 10.8841 23.0273 11.4361 23.0273 11.9995C23.0273 12.5631 22.8686 13.1157 22.5693 13.5932C22.3602 13.9268 22.0874 14.2131 21.7695 14.4399C21.1866 16.5923 19.8996 18.6408 17.9609 20.02C17.8503 20.7556 17.507 21.4416 16.9746 21.9741C16.3182 22.6305 15.4283 22.9995 14.5 22.9995H9.5C8.57174 22.9995 7.68177 22.6305 7.02539 21.9741C6.47772 21.4263 6.13029 20.7161 6.03027 19.9565C4.2122 18.5962 2.90689 16.6593 2.33008 14.4624C2.00119 14.246 1.71556 13.9669 1.49512 13.6362C1.17219 13.1517 1 12.5818 1 11.9995C1.00009 11.4172 1.17214 10.8472 1.49512 10.3628C1.71583 10.0318 2.0017 9.75205 2.33105 9.53563C3.09725 6.61904 5.15399 4.04365 8.21777 2.77587L8.22852 2.77098L8.46484 2.68407ZM14.8135 17.0337C14.3919 18.1806 13.2931 18.9995 12 18.9995C10.7068 18.9995 9.607 18.1808 9.18555 17.0337C8.90521 17.0938 8.64537 17.2331 8.43945 17.439C8.15825 17.7202 8.00012 18.1018 8 18.4995V19.4995L8.00781 19.6479C8.04194 19.9911 8.19349 20.314 8.43945 20.56C8.72076 20.8414 9.10218 20.9995 9.5 20.9995H14.5C14.8978 20.9995 15.2792 20.8414 15.5605 20.56C15.8417 20.2788 16 19.8972 16 19.4995V18.4995C15.9999 18.1018 15.8417 17.7202 15.5605 17.439C15.3544 17.2329 15.0942 17.0937 14.8135 17.0337ZM12 14.9995C11.4479 14.9995 11.0002 15.4474 11 15.9995C11 16.5518 11.4477 16.9995 12 16.9995C12.5523 16.9995 13 16.5518 13 15.9995C12.9998 15.4474 12.5521 14.9995 12 14.9995Z" fill="#E4F2F2"/>
<path d="M8.00977 10.9995C8.5619 10.9995 9.00953 11.4474 9.00977 11.9995C9.00977 12.5518 8.56205 12.9995 8.00977 12.9995H8C7.44772 12.9995 7 12.5518 7 11.9995C7.00024 11.4474 7.44786 10.9995 8 10.9995H8.00977Z" fill="#E4F2F2"/>
<path d="M16.0098 10.9995C16.5619 10.9995 17.0095 11.4474 17.0098 11.9995C17.0098 12.5518 16.5621 12.9995 16.0098 12.9995H16C15.4477 12.9995 15 12.5518 15 11.9995C15.0002 11.4474 15.4479 10.9995 16 10.9995H16.0098Z" fill="#E4F2F2"/>
</svg>
