<svg width="24" height="24" viewBox="0 0 24 24" fill="none" xmlns="http://www.w3.org/2000/svg">
<path fill-rule="evenodd" clip-rule="evenodd" d="M15.7988 1.0205C16.1281 0.952914 16.4693 1.05528 16.707 1.29296L22.707 7.29296C22.9898 7.57574 23.0771 7.99975 22.9287 8.37109C22.3821 9.73748 21.7341 10.6365 20.9883 11.2646C20.2555 11.8817 19.4857 12.1829 18.8711 12.4287C18.2361 12.6827 17.7553 12.882 17.3008 13.2646C16.8593 13.6364 16.382 14.238 15.9287 15.3711C15.3821 16.7375 14.7341 17.6365 13.9883 18.2646C13.2555 18.8817 12.4857 19.1829 11.8711 19.4287C11.2361 19.6827 10.7553 19.882 10.3008 20.2646C9.85932 20.6364 9.38197 21.238 8.92871 22.3711C8.80386 22.6831 8.53036 22.9119 8.20117 22.9795C7.87192 23.047 7.53063 22.9447 7.29296 22.707L1.29296 16.707C1.01022 16.4243 0.922956 16.0002 1.07128 15.6289C1.61784 14.2625 2.26592 13.3635 3.01171 12.7353C3.74445 12.1183 4.51433 11.8171 5.1289 11.5713C5.76394 11.3173 6.2447 11.118 6.69921 10.7353C7.14068 10.3636 7.618 9.76196 8.07128 8.6289C8.61784 7.2625 9.26593 6.36352 10.0117 5.73534C10.7444 5.11831 11.5143 4.81711 12.1289 4.57128C12.7639 4.31726 13.2447 4.11796 13.6992 3.73534C14.1407 3.36358 14.618 2.76196 15.0713 1.6289C15.1961 1.31687 15.4696 1.08814 15.7988 1.0205ZM19.2842 6.69823C18.8917 7.36161 18.4598 7.86747 17.9883 8.26464C17.2555 8.88166 16.4857 9.18288 15.8711 9.4287C15.2361 9.68272 14.7553 9.882 14.3008 10.2646C13.8593 10.6364 13.382 11.238 12.9287 12.3711C12.3821 13.7375 11.7341 14.6365 10.9883 15.2646C10.2555 15.8817 9.48565 16.1829 8.87109 16.4287C8.23606 16.6827 7.7553 16.882 7.30078 17.2646C6.94368 17.5654 6.56468 18.0172 6.19238 18.7783L7.71582 20.3018C8.10823 19.6384 8.54012 19.1326 9.01171 18.7353C9.74445 18.1183 10.5143 17.8171 11.1289 17.5713C11.7639 17.3173 12.2447 17.118 12.6992 16.7353C13.1407 16.3636 13.618 15.762 14.0713 14.6289C14.6178 13.2625 15.2659 12.3635 16.0117 11.7353C16.7444 11.1183 17.5143 10.8171 18.1289 10.5713C18.7639 10.3173 19.2447 10.118 19.6992 9.73534C20.0564 9.43459 20.4344 8.98191 20.8066 8.2207L19.2842 6.69823ZM16.2832 3.69726C15.8907 4.36079 15.46 4.86737 14.9883 5.26464C14.2555 5.88166 13.4857 6.18288 12.8711 6.4287C12.2361 6.68272 11.7553 6.882 11.3008 7.26464C10.8593 7.63642 10.382 8.23804 9.92871 9.37109C9.38214 10.7375 8.73409 11.6365 7.98828 12.2646C7.25553 12.8817 6.48565 13.1829 5.87109 13.4287C5.23606 13.6827 4.7553 13.882 4.30078 14.2646C3.9437 14.5654 3.56458 15.0174 3.19238 15.7783L4.71484 17.3008C5.10724 16.6375 5.54022 16.1325 6.01171 15.7353C6.74445 15.1183 7.51433 14.8171 8.1289 14.5713C8.76394 14.3173 9.2447 14.118 9.69921 13.7353C10.1407 13.3636 10.618 12.762 11.0713 11.6289C11.6178 10.2625 12.2659 9.36352 13.0117 8.73534C13.7444 8.11831 14.5143 7.81711 15.1289 7.57128C15.7639 7.31726 16.2447 7.11796 16.6992 6.73534C17.0564 6.43458 17.4343 5.98201 17.8066 5.2207L16.2832 3.69726Z" fill="#E4F2F2"/>
</svg>
