<svg width="24" height="24" viewBox="0 0 24 24" fill="none" xmlns="http://www.w3.org/2000/svg">
<path fill-rule="evenodd" clip-rule="evenodd" d="M12 2C14.6268 2 16.5459 4.27839 16.9287 7H18C18.9391 7 19.7775 7.60017 19.9795 8.59961L21.9795 18.4004C21.9929 18.466 22 18.5327 22 18.5996V19C22 19.7957 21.6837 20.5585 21.1211 21.1211C20.5585 21.6837 19.7957 22 19 22H5C4.20435 22 3.44151 21.6837 2.87891 21.1211C2.3163 20.5585 2 19.7957 2 19V18.5996C2.00003 18.5327 2.00714 18.466 2.02051 18.4004L4.02051 8.59961C4.22246 7.60017 5.06086 7 6 7H7.07129C7.45406 4.27839 9.37325 2 12 2ZM4 18.6992V19C4 19.2652 4.10543 19.5195 4.29297 19.707C4.48051 19.8946 4.73478 20 5 20H19C19.2652 20 19.5195 19.8946 19.707 19.707C19.8946 19.5195 20 19.2652 20 19V18.6992L18.3955 10.8398C18.0499 11.6186 17.5642 12.3361 16.9502 12.9502C15.8755 14.0249 14.4868 14.7123 13 14.9268V16C13 16.5523 12.5523 17 12 17C11.4477 17 11 16.5523 11 16V14.9268C9.51317 14.7123 8.1245 14.0249 7.0498 12.9502C6.43545 12.3358 5.94916 11.6181 5.60352 10.8389L4 18.6992ZM7.10156 9C7.29632 9.95328 7.7665 10.8368 8.46484 11.5352C9.16319 12.2335 10.0467 12.7037 11 12.8984V12C11 11.4477 11.4477 11 12 11C12.5523 11 13 11.4477 13 12V12.8984C13.9533 12.7037 14.8368 12.2335 15.5352 11.5352C16.2335 10.8368 16.7037 9.95328 16.8984 9H7.10156ZM12 4C10.7523 4 9.44235 5.12975 9.0918 7H14.9082C14.5576 5.12975 13.2477 4 12 4Z" fill="#E4F2F2"/>
</svg>
