<svg width="24" height="24" viewBox="0 0 24 24" fill="none" xmlns="http://www.w3.org/2000/svg">
<path fill-rule="evenodd" clip-rule="evenodd" d="M12.248 1.00586C13.4838 1.06719 14.6561 1.58579 15.5352 2.46484C16.2335 3.16319 16.7037 4.04672 16.8984 5H17C17.5523 5 18 5.44772 18 6C18 6.55228 17.5523 7 17 7V21C17.5523 21 18 21.4477 18 22C18 22.5523 17.5523 23 17 23H7C6.44772 23 6 22.5523 6 22C6 21.4477 6.44772 21 7 21V7C6.44772 7 6 6.55228 6 6C6 5.44772 6.44772 5 7 5H7.10156C7.29632 4.04672 7.7665 3.16319 8.46484 2.46484C9.40253 1.52716 10.6739 1 12 1L12.248 1.00586ZM9.23633 21H15V18.1182L9.23633 21ZM9 16.6182V18.8818L15 15.8818V13.6182L9 16.6182ZM9 12.1182V14.3818L15 11.3818V9.11816L9 12.1182ZM9 9.88184L14.7637 7H9V9.88184ZM12 3C11.2044 3 10.4415 3.3163 9.87891 3.87891C9.55985 4.19796 9.32364 4.58269 9.17578 5H14.8242C14.6764 4.58269 14.4401 4.19796 14.1211 3.87891C13.6289 3.38671 12.9835 3.08291 12.2969 3.01465L12 3Z" fill="#E4F2F2"/>
</svg>
