<svg width="24" height="24" viewBox="0 0 24 24" fill="none" xmlns="http://www.w3.org/2000/svg">
<path fill-rule="evenodd" clip-rule="evenodd" d="M21 7C21.2853 7.00004 21.5574 7.12187 21.7471 7.33496C21.9367 7.54797 22.026 7.83198 21.9932 8.11523C21.7092 10.554 20.5325 12.8033 18.6895 14.4346C17.9261 15.1101 17.07 15.6595 16.1543 16.0723L18.8945 21.5527C19.1411 22.0465 18.9407 22.6465 18.4473 22.8936C17.9534 23.1405 17.3526 22.941 17.1055 22.4473L16.3818 21H9.8252C9.41303 22.1645 8.30569 22.9999 7 23C5.34315 23 4 21.6569 4 20C4 18.3431 5.34315 17 7 17C7.12465 17 7.24751 17.0077 7.36817 17.0225L7.84473 16.0703C6.92954 15.6576 6.07348 15.1098 5.31055 14.4346C3.46749 12.8033 2.2908 10.554 2.00684 8.11523C1.97397 7.83195 2.0633 7.54798 2.25293 7.33496C2.44268 7.12188 2.71468 7 3 7H21ZM7 19C6.44772 19 6 19.4477 6 20C6 20.5523 6.44772 21 7 21C7.55222 20.9999 8 20.5522 8 20C8 19.4478 7.55222 19.0001 7 19ZM14.2383 16.7129C13.657 16.8448 13.0626 16.9277 12.4609 16.9551L12 16.9658C11.2408 16.9658 10.4896 16.8796 9.75977 16.7139L9.15723 17.9189C9.4519 18.2244 9.68065 18.5916 9.8252 19H15.3818L14.2383 16.7129ZM4.20606 9C4.60662 10.5121 5.44671 11.8841 6.63574 12.9365C8.11174 14.2429 10.0208 14.9658 12 14.9658C13.9792 14.9658 15.8883 14.2429 17.3643 12.9365C18.5533 11.8841 19.3934 10.512 19.7939 9H4.20606Z" fill="#E4F2F2"/>
<path d="M8 1C8.55222 1.00008 9 1.44777 9 2C9 2.645 8.65534 3.08957 8.32813 3.3623C8.03384 3.60754 7.66895 3.78369 7.44727 3.89453C7.20504 4.01564 7.07118 4.08762 6.98731 4.14844C6.9155 4.63015 6.50169 4.99993 6 5C5.44772 5 5 4.55228 5 4C5 3.35494 5.34464 2.91043 5.67188 2.6377C5.9662 2.39245 6.33108 2.21629 6.55274 2.10547C6.79436 1.98465 6.92782 1.91229 7.01172 1.85156C7.08349 1.36974 7.4982 1 8 1Z" fill="#E4F2F2"/>
<path d="M14 1C14.5522 1.00008 15 1.44777 15 2C15 2.645 14.6553 3.08957 14.3281 3.3623C14.0338 3.60754 13.669 3.78369 13.4473 3.89453C13.205 4.01564 13.0712 4.08762 12.9873 4.14844C12.9155 4.63015 12.5017 4.99993 12 5C11.4477 5 11 4.55228 11 4C11 3.35494 11.3446 2.91043 11.6719 2.6377C11.9662 2.39245 12.3311 2.21629 12.5527 2.10547C12.7944 1.98465 12.9278 1.91229 13.0117 1.85156C13.0835 1.36974 13.4982 1 14 1Z" fill="#E4F2F2"/>
<path d="M20 1C20.5522 1.00008 21 1.44777 21 2C21 2.645 20.6553 3.08957 20.3281 3.3623C20.0338 3.60754 19.669 3.78369 19.4473 3.89453C19.205 4.01564 19.0712 4.08762 18.9873 4.14844C18.9155 4.63015 18.5017 4.99993 18 5C17.4477 5 17 4.55228 17 4C17 3.35494 17.3446 2.91043 17.6719 2.6377C17.9662 2.39245 18.3311 2.21629 18.5527 2.10547C18.7944 1.98465 18.9278 1.91229 19.0117 1.85156C19.0835 1.36974 19.4982 1 20 1Z" fill="#E4F2F2"/>
</svg>
