<svg width="24" height="24" viewBox="0 0 24 24" fill="none" xmlns="http://www.w3.org/2000/svg">
<path fill-rule="evenodd" clip-rule="evenodd" d="M11.6602 1.05959C11.9161 0.967157 12.2009 0.982299 12.4473 1.10549L20.4473 5.10549L20.5332 5.15432C20.7277 5.27697 20.8748 5.46361 20.9482 5.68362L22.9482 11.6836C23.0499 11.9885 22.9994 12.3243 22.8115 12.585C22.647 12.8132 22.3949 12.9601 22.1191 12.9932L22 13V20C22 20.7956 21.6836 21.5585 21.1211 22.1211C20.5585 22.6837 19.7956 23 19 23H5C4.20441 23 3.44151 22.6837 2.87891 22.1211C2.3163 21.5585 2 20.7957 2 20V13L1.87989 12.9932C1.60435 12.96 1.35286 12.813 1.18848 12.585C1.00053 12.3242 0.950112 11.9886 1.05176 11.6836L3.05176 5.68362L3.08692 5.59182C3.18086 5.38173 3.3451 5.20931 3.55274 5.10549L11.5527 1.10549L11.6602 1.05959ZM18 13V21H19C19.2651 21 19.5196 20.8945 19.707 20.7071C19.8945 20.5195 20 20.2652 20 20V13H18ZM9.41407 21H14.5859L12 18.4141L9.41407 21ZM4 20L4.00489 20.0987C4.02758 20.3277 4.12883 20.5429 4.29297 20.7071C4.4805 20.8945 4.73484 21 5 21H6V13H4V20ZM8 19.586L10.5859 17L8 14.4141V19.586ZM13.4141 17L16 19.586V14.4141L13.4141 17ZM12 15.586L14.5859 13H9.41407L12 15.586ZM4.81641 6.70901L3.38672 11H9V8.00002C9.00001 7.44774 9.44772 7.00002 10 7.00002H14C14.5522 7.00015 15 7.44782 15 8.00002V11H20.6133L19.1826 6.70901L12 3.11819L4.81641 6.70901ZM11 11H13V9.00002H11V11Z" fill="#E4F2F2"/>
</svg>
