<svg width="24" height="24" viewBox="0 0 24 24" fill="none" xmlns="http://www.w3.org/2000/svg">
<path d="M17 16C17.5523 16 18 16.4477 18 17C18 17.5523 17.5523 18 17 18H7C6.44772 18 6 17.5523 6 17C6 16.4477 6.44772 16 7 16H17Z" fill="#E4F2F2"/>
<path fill-rule="evenodd" clip-rule="evenodd" d="M12 6C12.3788 6 12.7251 6.21395 12.8945 6.55273L15.8945 12.5527C16.1415 13.0467 15.9412 13.6475 15.4473 13.8945C14.9533 14.1415 14.3525 13.9412 14.1055 13.4473L13.8818 13H10.1182L9.89453 13.4473C9.64754 13.9412 9.04671 14.1415 8.55273 13.8945C8.05876 13.6475 7.85848 13.0467 8.10547 12.5527L11.1055 6.55273L11.1768 6.43164C11.3617 6.16367 11.6685 6 12 6ZM11.1182 11H12.8818L12 9.23633L11.1182 11Z" fill="#E4F2F2"/>
<path fill-rule="evenodd" clip-rule="evenodd" d="M19 2C20.6569 2 22 3.34315 22 5V19C22 20.6569 20.6569 22 19 22H5C3.34315 22 2 20.6569 2 19V5C2 3.34315 3.34315 2 5 2H19ZM5 4C4.44772 4 4 4.44772 4 5V19C4 19.5523 4.44772 20 5 20H19C19.5523 20 20 19.5523 20 19V5C20 4.44772 19.5523 4 19 4H5Z" fill="#E4F2F2"/>
</svg>
