<svg width="24" height="24" viewBox="0 0 24 24" fill="none" xmlns="http://www.w3.org/2000/svg">
<path fill-rule="evenodd" clip-rule="evenodd" d="M12 1C18.0751 1 23 5.92487 23 12C23 18.0751 18.0751 23 12 23C5.92487 23 1 18.0751 1 12C1 5.92487 5.92487 1 12 1ZM12.9482 3.0498C12.8142 4.45031 12.4132 5.77455 11.7998 6.97461L12.0996 7.2002C12.5414 7.53153 12.631 8.15779 12.2998 8.59961C11.9685 9.04138 11.3422 9.13104 10.9004 8.7998L10.7285 8.6709C10.1358 9.44373 9.44373 10.1358 8.6709 10.7285L8.7998 10.9004C9.13104 11.3422 9.04138 11.9685 8.59961 12.2998C8.15779 12.631 7.53153 12.5414 7.2002 12.0996L6.97461 11.7998C5.77455 12.4132 4.45031 12.8142 3.0498 12.9482C3.49095 17.1611 6.8381 20.5076 11.0508 20.9492C11.1849 19.5489 11.5859 18.2243 12.1992 17.0244L11.9004 16.7998C11.4586 16.4685 11.369 15.8422 11.7002 15.4004C12.0315 14.9586 12.6578 14.869 13.0996 15.2002L13.2705 15.3281C13.8632 14.5554 14.5554 13.8632 15.3281 13.2705L15.2002 13.0996C14.869 12.6578 14.9586 12.0315 15.4004 11.7002C15.8422 11.369 16.4685 11.4586 16.7998 11.9004L17.0244 12.1992C18.2243 11.5859 19.5489 11.1849 20.9492 11.0508C20.5076 6.8381 17.1611 3.49095 12.9482 3.0498ZM20.9346 13.0654C19.9862 13.1787 19.0823 13.4408 18.2461 13.8281L18.2998 13.9004C18.631 14.3422 18.5414 14.9685 18.0996 15.2998C17.6578 15.631 17.0315 15.5414 16.7002 15.0996L16.5283 14.8701C15.9067 15.349 15.349 15.9067 14.8701 16.5283L15.0996 16.7002C15.5414 17.0315 15.631 17.6578 15.2998 18.0996C14.9685 18.5414 14.3422 18.631 13.9004 18.2998L13.8281 18.2461C13.4408 19.0823 13.1787 19.9862 13.0654 20.9346C17.1841 20.4486 20.4486 17.1841 20.9346 13.0654ZM10.9336 3.06445C6.81557 3.5507 3.5507 6.81557 3.06445 10.9336C4.01297 10.8204 4.91661 10.5582 5.75293 10.1709L5.7002 10.0996C5.36896 9.65779 5.45861 9.03153 5.90039 8.7002C6.34221 8.36896 6.96847 8.45861 7.2998 8.90039L7.4707 9.12891C8.0924 8.64993 8.64993 8.0924 9.12891 7.4707L8.90039 7.2998C8.45861 6.96847 8.36896 6.34221 8.7002 5.90039C9.03153 5.45861 9.65779 5.36896 10.0996 5.7002L10.1709 5.75293C10.5582 4.91661 10.8204 4.01297 10.9336 3.06445Z" fill="#E4F2F2"/>
</svg>
