<svg width="24" height="24" viewBox="0 0 24 24" fill="none" xmlns="http://www.w3.org/2000/svg">
<path fill-rule="evenodd" clip-rule="evenodd" d="M12 1C18.0751 1 23 5.92487 23 12C23 18.0751 18.0751 23 12 23C5.92487 23 1 18.0751 1 12C1 5.92487 5.92487 1 12 1ZM13.501 14.9473C12.8513 15.7628 12.3454 16.6863 12.0068 17.6777C11.6428 18.7439 11.4829 19.8661 11.5283 20.9873C11.6845 20.9954 11.8418 21 12 21C14.1019 21 16.0336 20.2769 17.5654 19.0693L13.501 14.9473ZM10.4971 11.9004C9.4547 12.771 8.25925 13.445 6.96875 13.8857C5.80045 14.2847 4.57689 14.4841 3.34863 14.4805C4.20023 17.4562 6.54385 19.7987 9.51953 20.6504C9.516 19.4225 9.71542 18.1992 10.1143 17.0312C10.5533 15.7457 11.2232 14.5542 12.0889 13.5146L10.4971 11.9004ZM20.9873 11.5283C19.8661 11.4829 18.7439 11.6428 17.6777 12.0068C16.6718 12.3504 15.7363 12.8669 14.9121 13.5303L18.9902 17.666C20.2459 16.1188 21 14.1479 21 12C21 11.8418 20.9954 11.6845 20.9873 11.5283ZM5.00879 6.33301C3.75306 7.88026 3 9.85202 3 12C3 12.1575 3.00372 12.3142 3.01172 12.4697C4.13329 12.5156 5.25572 12.3574 6.32227 11.9932C7.32795 11.6497 8.26284 11.1329 9.08691 10.4697L5.00879 6.33301ZM14.4805 3.34863C14.4841 4.57689 14.2847 5.80045 13.8857 6.96875C13.4467 8.25442 12.776 9.44574 11.9102 10.4854L13.502 12.0996C14.5445 11.2288 15.7405 10.5551 17.0312 10.1143C18.1995 9.71531 19.4231 9.51589 20.6514 9.51953C19.7997 6.54372 17.4563 4.20025 14.4805 3.34863ZM12 3C9.898 3 7.96542 3.72203 6.43359 4.92969L10.498 9.05273C11.1478 8.23712 11.6545 7.31388 11.9932 6.32227C12.3574 5.25572 12.5156 4.13329 12.4697 3.01172C12.3142 3.00372 12.1575 3 12 3Z" fill="#E4F2F2"/>
</svg>
