<svg width="24" height="24" viewBox="0 0 24 24" fill="none" xmlns="http://www.w3.org/2000/svg">
<path fill-rule="evenodd" clip-rule="evenodd" d="M6.18262 3.90234C9.86233 0.114773 15.8349 0.0109777 19.7363 3.54004L20.1074 3.89258L20.1191 3.90527C23.0471 6.93785 23.7115 11.3547 22.0137 15.0176C22.6333 15.8502 23 16.8823 23 18C22.9999 20.7614 20.7614 23 18 23C16.7277 23 15.5671 22.5238 14.6846 21.7412C13.6236 22.0683 12.567 22.0591 11.4746 21.6992C10.448 21.361 9.42844 20.7241 8.35742 19.8555L6.10742 22.1064C4.9169 23.297 3.0831 23.297 1.89258 22.1064C0.702533 20.916 0.702387 19.083 1.89258 17.8926L4.1416 15.6426C2.6401 13.7943 1.80346 12.0888 2.05859 10.2031C2.33371 8.17111 3.85388 6.23228 6.18262 3.90234ZM4.25293 9.66699C4.14602 9.94753 4.07594 10.2138 4.04102 10.4717C3.87911 11.6693 4.42871 12.9716 6.25 15.0391C6.59867 15.4349 6.57985 16.0331 6.20703 16.4062L3.30664 19.3066C2.8975 19.716 2.89764 20.283 3.30664 20.6924C3.71612 21.1019 4.28388 21.1019 4.69336 20.6924L7.59277 17.793L7.66504 17.7266C8.04033 17.4178 8.59171 17.4227 8.96289 17.751C10.2251 18.8675 11.2292 19.5127 12.1006 19.7998C12.5479 19.9471 12.9728 20.0013 13.4014 19.9658C13.1971 19.4887 13.0659 18.9734 13.0195 18.4336L4.25293 9.66699ZM18 15C16.3431 15 15 16.3431 15 18C15.0001 19.6568 16.3432 21 18 21C19.6568 21 20.9999 19.6568 21 18C21 17.2547 20.7262 16.5744 20.2764 16.0498C20.1376 15.9644 20.0261 15.8509 19.9463 15.7197C19.4222 15.2719 18.7434 15 18 15ZM18.6846 5.29883C15.5689 2.19189 10.6162 2.20979 7.61719 5.29687C7.61403 5.30012 7.61063 5.30344 7.60742 5.30664C6.61296 6.30111 5.85517 7.14459 5.29785 7.88379L13.416 16.002C14.1872 14.2351 15.949 13 18 13C18.8809 13 19.7079 13.229 20.4268 13.6289C21.48 10.8231 20.8825 7.5786 18.6846 5.29883Z" fill="#E4F2F2"/>
</svg>
