<svg width="24" height="24" viewBox="0 0 24 24" fill="none" xmlns="http://www.w3.org/2000/svg">
<path fill-rule="evenodd" clip-rule="evenodd" d="M5.00684 2.20067C5.57053 1.98599 6.18472 1.93903 6.77441 2.0659C7.36405 2.1928 7.90459 2.48804 8.33008 2.91551L8.3291 2.91649L8.99902 3.58543L9.29297 3.29247C9.68344 2.90221 10.3166 2.90221 10.707 3.29247C11.0975 3.68292 11.0974 4.31599 10.707 4.70653L9.71484 5.69774C9.71201 5.70064 9.7099 5.70463 9.70703 5.7075C9.70409 5.71044 9.70023 5.71243 9.69727 5.71532L8.70703 6.70653C8.31651 7.09705 7.68349 7.09705 7.29297 6.70653C6.90264 6.31599 6.90251 5.68292 7.29297 5.29247L7.58496 4.9995L6.91211 4.32665C6.75931 4.17319 6.56522 4.06753 6.35352 4.02196C6.14171 3.97639 5.92121 3.99271 5.71875 4.06981C5.51634 4.14692 5.3407 4.28165 5.21289 4.45653C5.08841 4.62702 5.01469 4.82916 5 5.03954V10.9995H22C22.5522 10.9995 22.9998 11.4474 23 11.9995C23 12.5518 22.5523 12.9995 22 12.9995H21V17.0005C20.9998 17.7959 20.6836 18.5591 20.1211 19.1216C19.6289 19.6136 18.9834 19.9175 18.2969 19.9858L18 20.0005V20.9995C18 21.5518 17.5523 21.9995 17 21.9995C16.4477 21.9995 16 21.5518 16 20.9995V20.0005H8V20.9995C8 21.5518 7.55228 21.9995 7 21.9995C6.44772 21.9995 6 21.5518 6 20.9995V20.0005L5.70312 19.9858C5.01663 19.9175 4.37108 19.6136 3.87891 19.1216C3.31643 18.5591 3.00015 17.7959 3 17.0005V12.9995H2C1.44772 12.9995 1 12.5518 1 11.9995C1.00022 11.4474 1.44785 10.9995 2 10.9995H3V5.00047C3 4.98216 3.00094 4.9631 3.00195 4.94481C3.03534 4.34273 3.24191 3.76275 3.59766 3.27586C3.95353 2.78892 4.44321 2.41536 5.00684 2.20067ZM5 12.9995V17.0005C5.00015 17.2655 5.10557 17.5201 5.29297 17.7075C5.48048 17.8949 5.73492 18.0005 6 18.0005H6.9834C6.98892 18.0004 6.99445 17.9995 7 17.9995C7.00555 17.9995 7.01108 18.0004 7.0166 18.0005H16.9834C16.9889 18.0004 16.9945 17.9995 17 17.9995C17.0055 17.9995 17.0111 18.0004 17.0166 18.0005H18C18.2651 18.0005 18.5195 17.8949 18.707 17.7075C18.8944 17.5201 18.9998 17.2655 19 17.0005V12.9995H5Z" fill="#E4F2F2"/>
</svg>
