<svg width="24" height="24" viewBox="0 0 24 24" fill="none" xmlns="http://www.w3.org/2000/svg">
<path fill-rule="evenodd" clip-rule="evenodd" d="M12 10C12.5272 10 13.0439 10.1806 13.4316 10.5684C13.5621 10.6988 13.6674 10.8449 13.752 11H22C22.5523 11 23 11.4477 23 12C23 12.5523 22.5523 13 22 13H21V17C21 17.7957 20.6837 18.5585 20.1211 19.1211C19.5585 19.6837 18.7957 20 18 20V21C18 21.5523 17.5523 22 17 22C16.4477 22 16 21.5523 16 21V20H8V21C8 21.5523 7.55228 22 7 22C6.44772 22 6 21.5523 6 21V20C5.20435 20 4.44151 19.6837 3.87891 19.1211C3.3163 18.5585 3 17.7956 3 17V13H2C1.44772 13 1 12.5523 1 12C1 11.4477 1.44772 11 2 11H7.24805C7.33262 10.8449 7.43788 10.6988 7.56836 10.5684C7.95614 10.1806 8.47275 10 9 10H12ZM5 17L5.00488 17.0986C5.02757 17.3276 5.12883 17.5429 5.29297 17.707C5.48051 17.8946 5.73478 18 6 18H18C18.2652 18 18.5195 17.8946 18.707 17.707C18.8946 17.5195 19 17.2652 19 17V13H14V15C14 15.5523 13.5523 16 13 16H8C7.44772 16 7 15.5523 7 15V13H5V17ZM9 14H12V12H9V14Z" fill="#E4F2F2"/>
<path fill-rule="evenodd" clip-rule="evenodd" d="M16.5 6C17.3284 6 18 6.67157 18 7.5C18 8.32843 17.3284 9 16.5 9C15.6716 9 15 8.32843 15 7.5C15 6.67157 15.6716 6 16.5 6ZM16.5 7C16.2239 7 16 7.22386 16 7.5C16 7.77614 16.2239 8 16.5 8C16.7761 8 17 7.77614 17 7.5C17 7.22386 16.7761 7 16.5 7Z" fill="#E4F2F2"/>
<path fill-rule="evenodd" clip-rule="evenodd" d="M11.5 5C12.3284 5 13 5.67157 13 6.5C13 7.32843 12.3284 8 11.5 8C10.6716 8 10 7.32843 10 6.5C10 5.67157 10.6716 5 11.5 5ZM11.5 6C11.2239 6 11 6.22386 11 6.5C11 6.77614 11.2239 7 11.5 7C11.7761 7 12 6.77614 12 6.5C12 6.22386 11.7761 6 11.5 6Z" fill="#E4F2F2"/>
<path d="M15.0098 2C15.5621 2 16.0098 2.44772 16.0098 3C16.0098 3.55228 15.5621 4 15.0098 4H15C14.4477 4 14 3.55228 14 3C14 2.44772 14.4477 2 15 2H15.0098Z" fill="#E4F2F2"/>
</svg>
