<svg width="24" height="24" viewBox="0 0 24 24" fill="none" xmlns="http://www.w3.org/2000/svg">
<path fill-rule="evenodd" clip-rule="evenodd" d="M12 1C14.8468 1 17.4413 2.08104 19.3945 3.85547C19.4936 3.9219 19.5897 3.99502 19.6816 4.07617L19.8066 4.19238L19.8291 4.21582C19.9311 4.32462 20.0208 4.4401 20.1006 4.55957C21.9004 6.51809 23 9.13038 23 12C23 18.0751 18.0751 23 12 23C5.92487 23 1 18.0751 1 12C1 5.92487 5.92487 1 12 1ZM20.2617 8.42871C20.1615 8.74222 20.0434 9.06054 19.9072 9.37988C19.0852 11.3069 17.58 13.4825 15.6162 15.498L15.6064 15.5068C13.5908 17.5224 11.4127 19.0571 9.47949 19.8818C9.12826 20.0316 8.77829 20.16 8.43359 20.2646C9.52725 20.7372 10.7328 21 12 21C16.9706 21 21 16.9706 21 12C21 10.7308 20.7357 9.52374 20.2617 8.42871ZM17.4463 5.33301C16.919 5.3437 16.2274 5.50632 15.4043 5.85742C13.7627 6.55779 11.7903 7.92257 9.90625 9.80664C8.02215 11.6908 6.65733 13.6631 5.95703 15.3047C5.60588 16.1279 5.44324 16.8193 5.43262 17.3467C5.42212 17.8679 5.55786 18.1437 5.70703 18.293C5.8563 18.4421 6.13239 18.5778 6.65332 18.5674C7.18049 18.5567 7.87161 18.3938 8.69434 18.043C10.336 17.3427 12.3082 15.9769 14.1924 14.0928C16.0238 12.2112 17.3655 10.2399 18.0674 8.59473C18.4198 7.76844 18.591 7.07071 18.6113 6.53516C18.625 6.17361 18.5692 5.93133 18.4912 5.76855C18.3907 5.66392 18.288 5.5616 18.1826 5.46191C18.019 5.38173 17.7845 5.3262 17.4463 5.33301ZM12 3C7.02944 3 3 7.02944 3 12C3 13.2664 3.26234 14.4713 3.73438 15.5645C3.83883 15.2203 3.96764 14.8711 4.11719 14.5205C4.94186 12.5873 6.47656 10.4082 8.49219 8.39258C10.5078 6.37697 12.6869 4.84232 14.6201 4.01758C14.9064 3.89548 15.1923 3.78784 15.4746 3.69531C14.4055 3.24748 13.2317 3 12 3Z" fill="#E4F2F2"/>
</svg>
