<svg width="24" height="24" viewBox="0 0 24 24" fill="none" xmlns="http://www.w3.org/2000/svg">
<path fill-rule="evenodd" clip-rule="evenodd" d="M1.29297 1.29299C1.68349 0.902469 2.31651 0.902469 2.70703 1.29299L22.707 21.293C23.0973 21.6835 23.0975 22.3166 22.707 22.7071C22.3166 23.0975 21.6835 23.0974 21.293 22.7071L17.876 19.2901C16.6488 20.3654 15.2529 21.2353 13.7412 21.8614C11.9211 22.6151 9.97001 23.0013 8 22.999L7.99805 23C6.28414 23.0007 4.62937 22.3723 3.34766 21.2344C2.06541 20.0959 1.24572 18.5261 1.04394 16.8233C0.842285 15.1205 1.27226 13.4026 2.25293 11.9961C2.94041 11.0102 3.86573 10.226 4.93164 9.70706C4.93297 9.70646 4.93422 9.70569 4.93555 9.7051C4.9366 9.70463 4.93742 9.70361 4.93848 9.70315C5.39119 9.48339 5.86908 9.31124 6.36523 9.19241C6.76479 9.0967 7.12198 8.98484 7.43457 8.84866L1.29297 2.70706C0.902448 2.31654 0.902457 1.68352 1.29297 1.29299ZM4.99805 11.9971C4.57464 12.3139 4.20095 12.6989 3.89355 13.1397C3.19309 14.1443 2.88626 15.3717 3.03027 16.5879C3.17441 17.8042 3.75987 18.9261 4.67578 19.7393C5.59168 20.5523 6.77433 21.0009 7.99902 21H8.00098L8.32129 20.9961C9.91927 20.9586 11.4981 20.626 12.9766 20.0137C14.2452 19.4882 15.4194 18.7639 16.458 17.8721L11.7549 13.169C11.3615 13.4293 10.9331 13.6357 10.4795 13.7764C9.70393 14.0169 8.8813 14.0647 8.08301 13.916C7.28469 13.7674 6.53448 13.4265 5.89746 12.9229C5.55733 12.6539 5.25611 12.3418 4.99805 11.9971ZM8.91406 10.3281C8.25136 10.7382 7.52471 10.9672 6.88086 11.124C6.96204 11.205 7.04733 11.2821 7.13769 11.3535C7.51995 11.6558 7.97015 11.861 8.44922 11.9502C8.92825 12.0394 9.42232 12.0096 9.88769 11.8653C10.0265 11.8222 10.1607 11.7674 10.291 11.7051L8.91406 10.3281Z" fill="#E4F2F2"/>
<path d="M13.2334 1.56741C14.659 0.954182 16.2484 0.831559 17.751 1.21975C19.2536 1.60804 20.5851 2.48479 21.5352 3.71194C22.485 4.93895 23.0003 6.44735 23 7.99905C23 10.5804 22.3464 13.0133 21.1963 15.1358C20.9332 15.6213 20.3264 15.8012 19.8408 15.5381C19.3553 15.275 19.1744 14.6682 19.4375 14.1826C20.4331 12.3453 21 10.2393 21 7.99905L20.9961 7.79104C20.9534 6.75643 20.59 5.75811 19.9541 4.93655C19.2755 4.06004 18.3242 3.43364 17.251 3.15627C16.1778 2.87897 15.0427 2.96641 14.0244 3.40432C13.2181 3.75123 12.5209 4.30304 11.999 4.99905C12.6788 5.50938 13.2235 6.18763 13.5732 6.97561C13.7969 7.48027 13.569 8.07097 13.0645 8.29495C12.5597 8.51893 11.9692 8.29087 11.7451 7.78616C11.4421 7.1037 10.8962 6.55826 10.2139 6.25491C9.7092 6.0306 9.48177 5.43927 9.70605 4.9346C9.73489 4.86974 9.76957 4.80926 9.80957 4.75393C9.82737 4.70474 9.84888 4.65566 9.875 4.60842C10.6264 3.25065 11.808 2.18076 13.2334 1.56741Z" fill="#E4F2F2"/>
</svg>
