<svg width="24" height="24" viewBox="0 0 24 24" fill="none" xmlns="http://www.w3.org/2000/svg">
<path fill-rule="evenodd" clip-rule="evenodd" d="M11.9961 2.25292C13.4026 1.27223 15.1204 0.842237 16.8232 1.04394C18.5261 1.24568 20.0959 2.06535 21.2344 3.34765C22.3727 4.62985 23.0012 6.28537 23 7.99999L22.9951 8.38671C22.7931 16.3635 16.3635 22.7931 8.38671 22.9951L7.99999 23C6.28537 23.0012 4.62985 22.3727 3.34765 21.2344C2.06535 20.0959 1.24568 18.5261 1.04394 16.8232C0.842237 15.1204 1.27223 13.4026 2.25292 11.9961C3.23376 10.5895 4.69757 9.59177 6.36523 9.19238C7.20158 8.99204 7.85554 8.73038 8.29296 8.29296C8.73036 7.85557 8.99191 7.2003 9.19238 6.36425C9.59186 4.69683 10.5896 3.23365 11.9961 2.25292ZM16.5879 3.03027C15.3715 2.88619 14.1444 3.19296 13.1396 3.89355C12.6988 4.20097 12.3139 4.57458 11.9971 4.99804C12.3411 5.25625 12.6525 5.55754 12.9209 5.89745C13.4236 6.53434 13.7638 7.2843 13.9121 8.08202C14.0603 8.87976 14.0118 9.70159 13.7715 10.4766C13.5311 11.2515 13.1058 11.9564 12.5322 12.5303C11.9585 13.1041 11.2535 13.5299 10.4785 13.7705C9.70348 14.0111 8.88087 14.0592 8.083 13.9111C7.28534 13.7629 6.53532 13.4235 5.89843 12.9209C5.55803 12.6523 5.25647 12.3405 4.99804 11.9961C4.57439 12.313 4.20109 12.6986 3.89355 13.1396C3.19296 14.1444 2.88619 15.3715 3.03027 16.5879C3.17436 17.8042 3.75988 18.9251 4.67577 19.7383C5.59172 20.5515 6.77415 21.0009 7.99902 21C15.1785 20.9998 20.9998 15.1795 21 7.99999C21.0009 6.77513 20.5515 5.59172 19.7383 4.67577C18.9251 3.75988 17.8042 3.17436 16.5879 3.03027ZM11.123 6.88085C10.9003 7.79453 10.5344 8.87968 9.70702 9.70702C8.88032 10.5337 7.79749 10.9011 6.8828 11.124C6.9633 11.204 7.04815 11.2799 7.13769 11.3506C7.51983 11.6521 7.96964 11.8564 8.44823 11.9453C8.92695 12.0342 9.42072 12.0047 9.88573 11.8603C10.3506 11.716 10.773 11.4604 11.1172 11.1162C11.4614 10.7719 11.7171 10.3488 11.8613 9.88378C12.0055 9.41886 12.0342 8.92582 11.9453 8.44726C11.8563 7.96861 11.6522 7.51884 11.3506 7.13671C11.2796 7.04682 11.2033 6.96164 11.123 6.88085Z" fill="#E4F2F2"/>
</svg>
