<svg width="24" height="24" viewBox="0 0 24 24" fill="none" xmlns="http://www.w3.org/2000/svg">
<path d="M14 15C14.5522 15 14.9999 15.4478 15 16C15 16.5523 14.5523 17 14 17H13V18C13 18.5523 12.5523 19 12 19C11.4478 18.9999 11 18.5522 11 18V17H10C9.44782 16.9999 9 16.5522 9 16C9.00012 15.4479 9.4479 15.0001 10 15H14Z" fill="#E4F2F2"/>
<path d="M10 10.5C10.5522 10.5 10.9999 10.9478 11 11.5V12C11 12.5523 10.5523 13 10 13C9.44782 12.9999 9 12.5522 9 12V11.5C9.00012 10.9479 9.4479 10.5001 10 10.5Z" fill="#E4F2F2"/>
<path d="M14 10.5C14.5522 10.5 14.9999 10.9478 15 11.5V12C15 12.5523 14.5523 13 14 13C13.4478 12.9999 13 12.5522 13 12V11.5C13.0001 10.9479 13.4479 10.5001 14 10.5Z" fill="#E4F2F2"/>
<path d="M5.29297 6.29296C5.68341 5.90251 6.31648 5.90267 6.70703 6.29296L7.20703 6.79296C7.59755 7.18348 7.59755 7.8165 7.20703 8.20702C6.8165 8.59754 6.18349 8.59754 5.79297 8.20702L5.29297 7.70702C4.90268 7.31648 4.90252 6.6834 5.29297 6.29296Z" fill="#E4F2F2"/>
<path d="M17.293 6.29296C17.6834 5.90251 18.3165 5.90267 18.707 6.29296C19.0976 6.68348 19.0976 7.3165 18.707 7.70702L18.207 8.20702C17.8165 8.59754 17.1835 8.59754 16.793 8.20702C16.4027 7.81648 16.4025 7.1834 16.793 6.79296L17.293 6.29296Z" fill="#E4F2F2"/>
<path fill-rule="evenodd" clip-rule="evenodd" d="M6.11035 1.96288C7.43214 1.99199 8.68847 2.54254 9.60644 3.49315L10.2568 4.14257C11.4145 4.00334 12.5845 4.00344 13.7422 4.14257L14.3926 3.49315C16.3753 1.51043 19.4918 1.5035 21.4834 3.47069C23.3205 5.19312 23.4688 7.84355 22.1064 9.79589C22.6965 10.9379 23.0054 12.2085 23 13.501L22.9853 14.0029C22.68 19.1528 17.7075 23.001 12 23.001C6.10867 23.0009 1.00046 18.9008 0.999997 13.501V13.498C1.00313 12.2246 1.31168 10.9741 1.89257 9.84862C1.28562 8.98084 0.963797 7.93704 0.987301 6.86522C1.0166 5.53596 1.57363 4.2728 2.53418 3.3535C3.49485 2.43427 4.78106 1.93368 6.11035 1.96288ZM6.0664 3.96288C5.26735 3.94533 4.49348 4.24527 3.91601 4.79784C3.33877 5.35039 3.00495 6.11028 2.9873 6.90917C2.96983 7.70808 3.26981 8.48218 3.82226 9.05956C4.14082 9.39265 4.19139 9.90055 3.94336 10.2891C3.3305 11.2491 3.0028 12.3639 3 13.5029C3.00174 17.5015 6.89295 21.0009 12 21.001C17.108 21.001 20.9995 17.5004 21 13.501V13.4961C21.0054 12.3426 20.6782 11.2116 20.0576 10.2392C19.8116 9.854 19.8584 9.35015 20.1709 9.01659C21.3183 7.79244 21.2861 6.02786 20.1162 4.93065C20.1085 4.92338 20.1003 4.91571 20.0928 4.90819C18.8833 3.69872 17.0171 3.69872 15.8076 4.90819L14.8076 5.90819C14.5818 6.13383 14.2607 6.23776 13.9453 6.18847C12.6563 5.98706 11.3437 5.98703 10.0547 6.18847C9.73944 6.23768 9.41912 6.13361 9.19336 5.90819L8.19336 4.90819C8.18823 4.90307 8.18275 4.89685 8.17773 4.89159C7.62513 4.3142 6.86543 3.98048 6.0664 3.96288Z" fill="#E4F2F2"/>
</svg>
