<svg width="24" height="24" viewBox="0 0 24 24" fill="none" xmlns="http://www.w3.org/2000/svg">
<path fill-rule="evenodd" clip-rule="evenodd" d="M2 1C2.55228 1 3 1.44772 3 2V4H20C20.7957 4 21.5585 4.3163 22.1211 4.87891C22.6837 5.44151 23 6.20435 23 7V22C23 22.5523 22.5523 23 22 23C21.4477 23 21 22.5523 21 22V20H3V22C3 22.5523 2.55228 23 2 23C1.44772 23 1 22.5523 1 22V2C1 1.44772 1.44772 1 2 1ZM7 18H21V15H7V18ZM3 18H5V15H3V18ZM3 13H21V11H3V13ZM3 9H5V6H3V9ZM7 9H21V7C21 6.73478 20.8946 6.48051 20.707 6.29297C20.5195 6.10543 20.2652 6 20 6H7V9Z" fill="#E4F2F2"/>
</svg>
