<svg width="24" height="24" viewBox="0 0 24 24" fill="none" xmlns="http://www.w3.org/2000/svg">
<path fill-rule="evenodd" clip-rule="evenodd" d="M15 1C16.6569 1 18 2.34315 18 4C18 4.351 17.9369 4.68694 17.8262 5H18C19.6569 5 21 6.34315 21 8C21 8.39151 20.9225 8.76453 20.7861 9.10742C21.2864 9.24349 21.7481 9.50589 22.1211 9.87891C22.6837 10.4415 23 11.2043 23 12C23 12.7957 22.6837 13.5585 22.1211 14.1211C21.9655 14.2767 21.793 14.4109 21.6104 14.5273C21.862 14.9732 22 15.4789 22 16C22 16.7957 21.6837 17.5585 21.1211 18.1211C20.7481 18.4941 20.2863 18.7555 19.7861 18.8916C19.9228 19.2347 20 19.6082 20 20C20 21.6569 18.6569 23 17 23H7C5.34315 23 4 21.6569 4 20C4 19.6083 4.07635 19.2346 4.21289 18.8916C3.71307 18.7554 3.25164 18.4938 2.87891 18.1211C2.3163 17.5585 2 16.7956 2 16C2 15.4791 2.13716 14.9731 2.38867 14.5273C2.20627 14.411 2.03429 14.2765 1.87891 14.1211C1.38671 13.6289 1.08291 12.9835 1.01465 12.2969L1 12C1 11.2044 1.3163 10.4415 1.87891 9.87891C2.2517 9.50611 2.71298 9.24356 3.21289 9.10742C3.07656 8.76462 3 8.39138 3 8C3 6.34315 4.34315 5 6 5H6.17383C6.06306 4.68694 6 4.351 6 4C6 2.34315 7.34315 1 9 1H15ZM7 19C6.44772 19 6 19.4477 6 20C6 20.5523 6.44772 21 7 21H17C17.5523 21 18 20.5523 18 20C18 19.4477 17.5523 19 17 19H7ZM5 15C4.73478 15 4.48051 15.1054 4.29297 15.293C4.10543 15.4805 4 15.7348 4 16L4.00488 16.0986C4.02757 16.3276 4.12883 16.5429 4.29297 16.707C4.48051 16.8946 4.73478 17 5 17H9.17383C9.06306 16.6869 9 16.351 9 16V15H5ZM12 11C11.4477 11 11 11.4477 11 12V16C11 16.5523 11.4477 17 12 17C12.5523 17 13 16.5523 13 16V12C13 11.4477 12.5523 11 12 11ZM15 16C15 16.351 14.9369 16.6869 14.8262 17H19C19.2652 17 19.5195 16.8946 19.707 16.707C19.8946 16.5195 20 16.2652 20 16C20 15.7348 19.8946 15.4805 19.707 15.293C19.5195 15.1054 19.2652 15 19 15H15V16ZM4 11C3.73478 11 3.48051 11.1054 3.29297 11.293C3.10543 11.4805 3 11.7348 3 12L3.00488 12.0986C3.02757 12.3276 3.12883 12.5429 3.29297 12.707C3.48051 12.8946 3.73478 13 4 13H9V12C9 11.649 9.06306 11.3131 9.17383 11H4ZM14.8262 11C14.9369 11.3131 15 11.649 15 12V13H20C20.2652 13 20.5195 12.8946 20.707 12.707C20.8946 12.5195 21 12.2652 21 12C21 11.7348 20.8946 11.4805 20.707 11.293C20.5195 11.1054 20.2652 11 20 11H14.8262ZM6 7C5.44772 7 5 7.44772 5 8C5 8.55228 5.44772 9 6 9H18C18.5523 9 19 8.55228 19 8C19 7.44772 18.5523 7 18 7H6ZM9 3C8.44772 3 8 3.44772 8 4C8 4.55228 8.44772 5 9 5H15C15.5523 5 16 4.55228 16 4C16 3.44772 15.5523 3 15 3H9Z" fill="#E4F2F2"/>
</svg>
