<svg width="24" height="24" viewBox="0 0 24 24" fill="none" xmlns="http://www.w3.org/2000/svg">
<path fill-rule="evenodd" clip-rule="evenodd" d="M15.293 1.29295C15.6835 0.902511 16.3165 0.902507 16.707 1.29295C17.0974 1.68347 17.0974 2.31653 16.707 2.70701L15.4443 3.96873C15.8044 4.57909 16 5.27923 16 5.99998H19.0185C19.6745 6.01269 20.3177 6.18714 20.8906 6.50682C21.4635 6.82657 21.9494 7.28234 22.3047 7.83397C22.6598 8.38556 22.8737 9.01611 22.9277 9.6699C22.9817 10.3238 22.8741 10.9815 22.6143 11.584C22.3544 12.1863 21.9501 12.7156 21.4375 13.125C20.9248 13.5343 20.3188 13.8115 19.6738 13.9316C19.1153 14.0356 18.5421 14.0191 17.9922 13.8847C17.9931 13.8954 17.9952 13.9063 17.9961 13.917C17.9984 13.9444 18 13.9724 18 14C17.9999 17.2194 16.6022 19.4589 15.2139 20.875C14.524 21.5787 13.8351 22.0816 13.3164 22.4101C13.0563 22.5749 12.8362 22.6974 12.6777 22.7803C12.5987 22.8216 12.5349 22.8536 12.4883 22.876C12.4652 22.887 12.4459 22.8958 12.4316 22.9023C12.4245 22.9056 12.4178 22.909 12.4131 22.9111C12.411 22.9121 12.4088 22.9123 12.4072 22.9131L12.4043 22.915L12 22L12.4023 22.915C12.1459 23.0278 11.8541 23.0278 11.5976 22.915L12 22C11.6218 22.8595 11.5995 22.912 11.5976 22.915H11.5957L11.5928 22.9131C11.5912 22.9124 11.589 22.912 11.5869 22.9111C11.5822 22.909 11.5754 22.9056 11.5684 22.9023C11.5541 22.8958 11.5348 22.887 11.5117 22.876C11.4651 22.8537 11.4012 22.8215 11.3223 22.7803C11.1638 22.6974 10.9436 22.5748 10.6836 22.4101C10.1649 22.0816 9.476 21.5786 8.78613 20.875C7.95246 20.0246 7.11781 18.8763 6.58202 17.3984C6.56719 17.3643 6.55495 17.3289 6.54394 17.293C6.20943 16.3346 6.00002 15.2404 5.99999 14C6 13.9724 6.00162 13.9444 6.0039 13.917C6.00482 13.906 6.00586 13.8948 6.00683 13.8838C5.45693 14.018 4.88362 14.0356 4.32519 13.9316C3.68026 13.8114 3.07415 13.5344 2.56152 13.125C2.04895 12.7156 1.64462 12.1863 1.38476 11.584C1.1249 10.9815 1.01729 10.3238 1.07128 9.6699C1.12532 9.0162 1.33928 8.3855 1.69433 7.83397C2.0495 7.28239 2.53557 6.82659 3.10839 6.50682C3.68124 6.18711 4.32456 6.01276 4.98046 5.99998H7.99999C7.99999 5.27937 8.19475 4.57901 8.55468 3.96873L7.29296 2.70701C6.90244 2.31649 6.90244 1.68348 7.29296 1.29295C7.68349 0.902433 8.3165 0.902429 8.70702 1.29295L9.96874 2.55467C10.579 2.19474 11.2794 1.99998 12 1.99998L12.1982 2.00487C12.8484 2.03712 13.4763 2.22805 14.0303 2.55467L15.293 1.29295ZM9.07128 18C9.41749 18.5784 9.81435 19.0681 10.2139 19.4756C10.7737 20.0465 11.3353 20.4556 11.7539 20.7207C11.843 20.7771 11.926 20.8261 12 20.8691C12.074 20.8261 12.1569 20.7772 12.2461 20.7207C12.6647 20.4555 13.2263 20.0466 13.7861 19.4756C14.1857 19.068 14.5826 18.5785 14.9287 18H9.07128ZM8.22363 13C8.10841 13.3356 8.03399 13.6848 8.00097 14.0361C8.00384 14.7532 8.09458 15.4059 8.24413 16H15.7549C15.9043 15.4059 15.9952 14.7532 15.998 14.0361C15.965 13.6847 15.8905 13.3356 15.7754 13H8.22363ZM4.89648 8.00584C4.61138 8.02895 4.33361 8.11307 4.083 8.25291C3.79667 8.41279 3.55352 8.64124 3.37597 8.91698C3.19855 9.1927 3.09144 9.50817 3.06445 9.83494C3.03749 10.1618 3.09178 10.4908 3.22167 10.792C3.3516 11.0929 3.55344 11.3579 3.80956 11.5625C4.06581 11.7671 4.36905 11.9057 4.6914 11.9658C5.01374 12.0258 5.34645 12.0057 5.65917 11.9072C5.97004 11.8092 6.25154 11.6352 6.48046 11.4033C7.43517 10.3489 8.63078 9.07903 9.58691 8.07323C9.61029 8.04863 9.63412 8.02426 9.65722 7.99998H5.01855L4.89648 8.00584ZM14.4121 8.07323C15.3681 9.07886 16.5629 10.349 17.5176 11.4033C17.7465 11.6355 18.0288 11.8091 18.3398 11.9072C18.6525 12.0058 18.9853 12.0258 19.3076 11.9658C19.63 11.9057 19.9332 11.767 20.1894 11.5625C20.4456 11.3579 20.6474 11.0929 20.7773 10.792C20.9073 10.4908 20.9615 10.1619 20.9346 9.83494C20.9076 9.50808 20.8006 9.19275 20.623 8.91698C20.4454 8.64119 20.2024 8.41278 19.916 8.25291C19.6654 8.11309 19.3877 8.02889 19.1025 8.00584L18.9805 7.99998H14.3418C14.3649 8.02428 14.3887 8.04861 14.4121 8.07323ZM11.0371 9.45115C10.5846 9.92717 10.0811 10.4606 9.57617 11H14.4238C13.9188 10.4605 13.4145 9.92726 12.9619 9.45115C12.5984 9.06874 12.2681 8.72419 11.999 8.44334C11.73 8.7241 11.4004 9.069 11.0371 9.45115ZM12 3.99998C11.4742 3.99998 10.9698 4.20717 10.5957 4.57615C10.5925 4.57945 10.5902 4.58363 10.5869 4.5869C10.5836 4.59016 10.5795 4.59248 10.5762 4.59569C10.2072 4.96979 9.99999 5.47415 9.99999 5.99998H14C14 5.47396 13.7921 4.96983 13.4228 4.59569C13.4197 4.59264 13.4162 4.59 13.4131 4.5869C13.4097 4.58352 13.4066 4.57957 13.4033 4.57615C13.0764 4.25386 12.6505 4.05468 12.1973 4.00975L12 3.99998Z" fill="#E4F2F2"/>
</svg>
