<svg width="24" height="24" viewBox="0 0 24 24" fill="none" xmlns="http://www.w3.org/2000/svg">
<path fill-rule="evenodd" clip-rule="evenodd" d="M12.5 5.00052C14.4329 5.00062 16 6.56758 16 8.50052C15.9998 10.4333 14.4328 12.0004 12.5 12.0005C10.5671 12.0005 9.00021 10.4333 9 8.50052C9 6.56752 10.567 5.00052 12.5 5.00052ZM12.5 7.00052C11.6716 7.00052 11 7.67209 11 8.50052C11.0002 9.32877 11.6717 10.0005 12.5 10.0005C13.3282 10.0004 13.9998 9.32871 14 8.50052C14 7.67215 13.3283 7.00062 12.5 7.00052Z" fill="#E4F2F2"/>
<path fill-rule="evenodd" clip-rule="evenodd" d="M10.0586 1.41067C11.1781 1.02618 12.3729 0.91196 13.5449 1.07767C14.717 1.2434 15.8337 1.68399 16.8027 2.3638C17.7715 3.04351 18.5655 3.9434 19.1201 4.9888C19.209 5.1563 19.2886 5.32839 19.3643 5.50149C19.3759 5.52165 19.3881 5.54178 19.3984 5.56302L21.5889 10.063L21.6406 10.1909C22.1244 11.6786 22.1294 13.2812 21.6553 14.772C21.1838 16.2538 20.2616 17.5513 19.0186 18.4849C15.863 21.106 11.2526 23.0005 6.99902 23.0005C6.25687 22.9994 5.5284 22.7917 4.89746 22.4009C4.3453 22.0589 3.88594 21.588 3.55762 21.0308L3.4248 20.7876L1.50488 16.9478C1.49981 16.9376 1.49591 16.9268 1.49121 16.9165C1.3916 16.734 1.30593 16.5428 1.23535 16.3452C0.958152 15.5688 0.927143 14.7246 1.14746 13.9302C1.36343 13.1522 1.81038 12.4582 2.42773 11.939L2.81836 11.5728C3.658 10.7571 4.0063 10.2062 4.25488 9.61087C4.40957 9.2403 4.53376 8.83297 4.69824 8.27884C4.85984 7.73441 5.05274 7.07669 5.33691 6.2681C5.68564 5.15167 6.29024 4.13168 7.10352 3.29056C7.92635 2.43967 8.93913 1.79522 10.0586 1.41067ZM19.667 10.6851C19.551 11.0661 19.4075 11.4394 19.2314 11.7993C18.7186 12.8476 17.9669 13.7602 17.0391 14.4673L17.04 14.4683C13.884 17.0982 9.26278 18.9995 5 18.9995C4.92067 18.9995 4.84058 18.9945 4.76172 18.9898L5.21387 19.8931C5.37961 20.225 5.63485 20.5053 5.95019 20.7007C6.2654 20.896 6.62924 20.9988 7 20.9995C10.7366 20.9994 14.915 19.3017 17.7588 16.9322C17.7725 16.9207 17.7875 16.9096 17.8018 16.899C18.7206 16.2141 19.4016 15.2576 19.749 14.1656C20.0903 13.0926 20.0919 11.9413 19.7559 10.8677L19.667 10.6851ZM13.2646 3.05716C12.4053 2.9357 11.5289 3.01939 10.708 3.3013C9.88714 3.58327 9.1444 4.0563 8.54102 4.6802C7.93779 5.30407 7.49065 6.06242 7.23633 6.89212C7.23241 6.9049 7.22806 6.91856 7.22363 6.93118C6.95801 7.687 6.77793 8.30006 6.61523 8.84817C6.45546 9.38644 6.30321 9.89597 6.10059 10.3814C5.66976 11.4132 5.04244 12.2658 3.77246 13.4195C3.76019 13.4306 3.74719 13.4421 3.73437 13.4527C3.41568 13.7139 3.18445 14.0683 3.07422 14.4654C2.96417 14.8624 2.97968 15.2843 3.11816 15.6724C3.25681 16.0606 3.51275 16.3967 3.84961 16.6343C4.1863 16.8717 4.58806 16.9982 5 16.9986C8.737 16.9985 12.9159 15.3011 15.7598 12.9312C15.7725 12.9206 15.7856 12.9099 15.7988 12.8999C16.4927 12.3784 17.0541 11.7001 17.4355 10.9204C17.8169 10.1408 18.0083 9.28141 17.9941 8.4136C17.9799 7.54575 17.7602 6.69309 17.3535 5.9263C16.9467 5.15954 16.3639 4.5 15.6533 4.00149C14.9427 3.50298 14.1241 3.17869 13.2646 3.05716Z" fill="#E4F2F2"/>
</svg>
