<svg width="24" height="24" viewBox="0 0 24 24" fill="none" xmlns="http://www.w3.org/2000/svg">
<path d="M9 13.5996C9.55212 13.5997 9.99979 14.0475 10 14.5996V18C9.99979 18.5521 9.55212 19 9 19C8.44785 19 8.00021 18.5521 8 18V14.5996C8.00021 14.0475 8.44785 13.5996 9 13.5996Z" fill="#E4F2F2"/>
<path fill-rule="evenodd" clip-rule="evenodd" d="M1.29297 1.29297C1.6835 0.902482 2.31652 0.902457 2.70703 1.29297L22.707 21.293C23.0975 21.6835 23.0975 22.3165 22.707 22.707C22.3165 23.0975 21.6835 23.0975 21.293 22.707L18 19.4141V20C18 20.7956 17.6837 21.5585 17.1211 22.1211C16.5585 22.6837 15.7956 23 15 23H7C6.20437 23 5.44151 22.6837 4.87891 22.1211C4.3163 21.5585 4 20.7957 4 20V8.66211C3.84645 8.58947 3.69714 8.50629 3.55469 8.41113C2.97911 8.0266 2.53058 7.47934 2.26563 6.83984C2.00073 6.20038 1.93144 5.49625 2.06641 4.81738C2.13507 4.47231 2.25533 4.14109 2.4209 3.83496L1.29297 2.70703C0.902445 2.31651 0.902445 1.68349 1.29297 1.29297ZM6.76856 8.7666C6.55508 8.83238 6.29242 8.90926 6 8.95605V20L6.00488 20.0986C6.02758 20.3276 6.12883 20.5429 6.29297 20.707C6.4805 20.8945 6.7348 21 7 21H15C15.2652 21 15.5195 20.8946 15.707 20.707C15.8945 20.5195 16 20.2652 16 20V17.4141L14 15.4141V18C14 18.5523 13.5523 19 13 19C12.4477 19 12 18.5523 12 18V13.4141L7.21582 8.62988C7.08022 8.66887 6.93528 8.71523 6.76856 8.7666ZM4.00195 5.41602C3.98929 5.63999 4.02676 5.86527 4.11328 6.07422C4.22683 6.34821 4.4194 6.58327 4.66602 6.74805C4.91248 6.9126 5.20268 6.99991 5.49902 7C5.52507 7 5.5521 6.99643 5.58008 6.99414L4.00195 5.41602Z" fill="#E4F2F2"/>
<path d="M11 1C12.1568 1.00015 12.8934 1.5829 13.3672 1.99609C13.6298 2.22509 13.7506 2.34329 13.8916 2.43945C13.9476 2.47765 13.9807 2.49268 13.9951 2.49805C13.998 2.49911 14.002 2.49902 14.002 2.49902C14.3362 2.49864 14.6391 2.41792 15.0352 2.29492C15.3877 2.18543 15.9255 2.00008 16.5 2C17.428 2.00012 18.3184 2.36923 18.9746 3.02539C19.6308 3.68175 20 4.57185 20 5.5C20 6.42815 19.6308 7.31825 18.9746 7.97461C18.6887 8.2605 18.3585 8.49202 18 8.66211V10L18.249 10.0078C18.8281 10.0439 19.3933 10.2061 19.9053 10.4834C20.4904 10.8004 20.9881 11.2579 21.3516 11.8154C21.715 12.3729 21.9334 13.0125 21.9873 13.6758C22.0412 14.339 21.9287 15.0055 21.6602 15.6143C21.4373 16.1194 20.847 16.3486 20.3418 16.126C19.8366 15.9031 19.6073 15.3129 19.8301 14.8076C19.9644 14.5032 20.0211 14.1696 19.9941 13.8379C19.9672 13.5064 19.8574 13.1869 19.6758 12.9082C19.4941 12.6294 19.2457 12.3997 18.9531 12.2412C18.6606 12.0827 18.3327 12 18 12H17.8477C17.6708 12.282 17.3575 12.4697 17 12.4697C16.4822 12.4697 16.0561 12.0765 16.0049 11.5723L16 11.4697V8.95605C15.6216 8.89475 15.2826 8.78192 15.0352 8.70508C14.6391 8.58208 14.3362 8.50039 14.002 8.5C13.809 8.50154 13.6163 8.52925 13.4307 8.58203C12.8997 8.73258 12.3463 8.42454 12.1953 7.89355C12.0444 7.36257 12.353 6.80949 12.8838 6.6582C13.2445 6.55563 13.6181 6.50235 13.9932 6.5H14L14.2441 6.50781C14.8012 6.54182 15.2723 6.68419 15.6289 6.79492C16.0808 6.93528 16.2948 6.99992 16.5 7C16.8976 6.99988 17.2794 6.84164 17.5605 6.56055C17.8417 6.27926 18 5.89772 18 5.5C18 5.10228 17.8417 4.72074 17.5605 4.43945C17.2794 4.15837 16.8976 4.00012 16.5 4C16.2948 4.00008 16.0808 4.06472 15.6289 4.20508C15.2213 4.33165 14.6643 4.49993 14 4.5C13.4789 4.49991 13.0673 4.29817 12.7646 4.0918C12.4936 3.90691 12.2199 3.64969 12.0527 3.50391C11.6669 3.16741 11.4024 3.00012 11 3C10.6995 3.00008 10.4701 3.09511 10.2305 3.26074C10.1013 3.35005 9.97531 3.45605 9.82617 3.58594C9.69142 3.7033 9.50971 3.86562 9.3291 4.00195C8.88839 4.33438 8.26142 4.24713 7.92871 3.80664C7.59629 3.366 7.6837 2.73901 8.12402 2.40625C8.2327 2.32422 8.34138 2.22635 8.5127 2.07715C8.66959 1.94051 8.86678 1.77212 9.09375 1.61523C9.56688 1.28831 10.1861 1.00009 11 1Z" fill="#E4F2F2"/>
</svg>
