<svg width="24" height="24" viewBox="0 0 24 24" fill="none" xmlns="http://www.w3.org/2000/svg">
<path fill-rule="evenodd" clip-rule="evenodd" d="M15.293 1.29295C15.6835 0.90247 16.3165 0.902496 16.707 1.29295C17.0975 1.68348 17.0975 2.31652 16.707 2.70702L15.4443 3.96874C15.8044 4.57911 16 5.27922 16 5.99999V6.41893C16.5671 6.66664 17.0891 7.01877 17.5352 7.46483C18.2335 8.16319 18.7037 9.0467 18.8984 9.99999H20.9238C20.6593 8.21122 19.7052 6.6151 18.3857 5.58885C17.9501 5.24971 17.872 4.62135 18.2109 4.18553C18.5501 3.74997 19.1784 3.67182 19.6143 4.01073C21.6529 5.59648 23 8.18561 23 11C22.9999 11.5522 22.5522 12 22 12H19V14H21.9199C22.2006 14 22.4688 14.1181 22.6582 14.3252C22.8474 14.5322 22.9409 14.8094 22.916 15.0889C22.6908 17.6141 21.5851 19.9734 19.7979 21.7158C19.4024 22.1013 18.7693 22.0936 18.3838 21.6982C17.9984 21.3029 18.0063 20.6697 18.4014 20.2842C19.5813 19.1338 20.4 17.6391 20.7568 16H18.7061C17.8408 18.8844 15.1578 21 12 21C8.84221 21 6.1592 18.8844 5.29395 16H3.23828C3.59507 17.6679 4.43213 19.1005 5.59863 20.3047C5.98231 20.7012 5.9723 21.3336 5.57617 21.7178C5.17952 22.102 4.54639 22.0919 4.16211 21.6953C2.47396 19.9526 1.30571 17.7435 1.08398 15.083C1.06078 14.8045 1.15465 14.529 1.34375 14.3232C1.53311 14.1174 1.80043 14 2.08008 14H5V12H2C1.44778 12 1.00011 11.5522 1 11C1.00004 8.18561 2.34714 5.59648 4.38574 4.01073C4.82155 3.67182 5.44993 3.74997 5.78906 4.18553C6.12803 4.62135 6.04986 5.24971 5.61426 5.58885C4.2948 6.6151 3.34067 8.21122 3.07617 9.99999H5.10156C5.29631 9.0467 5.7665 8.16319 6.46484 7.46483C6.9109 7.01877 7.43295 6.66664 8 6.41893V5.99999C8 5.27939 8.19477 4.57901 8.55469 3.96874L7.29297 2.70702C6.90246 2.3165 6.90248 1.68348 7.29297 1.29295C7.68349 0.90243 8.31651 0.90243 8.70703 1.29295L9.96875 2.55467C10.579 2.19472 11.2794 1.99999 12 1.99999L12.1982 2.00487C12.8484 2.03711 13.4763 2.22807 14.0303 2.55467L15.293 1.29295ZM7 14C7.00004 16.4054 8.72643 18.4302 11 18.8974V12H7V14ZM13 18.8974C15.2736 18.4302 17 16.4054 17 14V12H13V18.8974ZM10 7.99999C9.20435 7.99999 8.44152 8.31628 7.87891 8.87889C7.55985 9.19796 7.32364 9.58267 7.17578 9.99999H16.8242C16.6764 9.58267 16.4401 9.19796 16.1211 8.87889C15.7528 8.51058 15.2986 8.24791 14.8057 8.11034C14.7871 8.10669 14.7691 8.10133 14.751 8.09667C14.6024 8.05821 14.4508 8.02994 14.2969 8.01463L14 7.99999H10ZM12 3.99999C11.4742 3.99999 10.9698 4.20715 10.5957 4.57616C10.5925 4.57944 10.5902 4.58365 10.5869 4.5869C10.5836 4.59016 10.5795 4.59248 10.5762 4.59569C10.2072 4.96979 10 5.47418 10 5.99999H14C14 5.47395 13.7921 4.96984 13.4229 4.59569C13.4197 4.59264 13.4162 4.59 13.4131 4.5869C13.4097 4.58351 13.4067 4.57959 13.4033 4.57616C13.0764 4.25387 12.6505 4.05466 12.1973 4.00975L12 3.99999Z" fill="#E4F2F2"/>
</svg>
