<svg width="24" height="24" viewBox="0 0 24 24" fill="none" xmlns="http://www.w3.org/2000/svg">
<path d="M12.8652 20.5C13.1413 20.0219 13.7532 19.858 14.2315 20.1338C14.7097 20.4099 14.8738 21.0217 14.5977 21.5C14.3345 21.9558 13.9558 22.3344 13.5 22.5977C13.0441 22.8608 12.5264 22.9999 12 23C11.4736 22.9999 10.9559 22.8608 10.5 22.5977C10.0441 22.3344 9.66464 21.9559 9.40137 21.5C9.12546 21.0218 9.28958 20.41 9.76758 20.1338C10.2458 19.8577 10.8576 20.0219 11.1338 20.5C11.2215 20.6519 11.3481 20.7785 11.5 20.8662C11.6518 20.9538 11.8247 20.9999 12 21C12.1753 20.9999 12.3482 20.9538 12.5 20.8662C12.6518 20.7785 12.7775 20.6518 12.8652 20.5Z" fill="#E4F2F2"/>
<path fill-rule="evenodd" clip-rule="evenodd" d="M12 1C13.8563 1.00009 15.6375 1.73721 16.9502 3.0498C18.2628 4.36254 19 6.14357 19 8C19 10.1447 19.3359 11.4789 19.7754 12.4092C20.1058 13.1085 20.5131 13.6223 20.9766 14.125L21.458 14.6309L21.4795 14.6543C21.7403 14.941 21.9125 15.2972 21.9746 15.6797C22.0366 16.062 21.9866 16.4543 21.8301 16.8086C21.6734 17.1629 21.4164 17.4644 21.0918 17.6758C20.8076 17.8608 20.4812 17.9708 20.1445 17.9951L20 18H4.00001C3.61248 17.9997 3.23278 17.8865 2.90821 17.6748C2.58361 17.463 2.32728 17.1613 2.1709 16.8066C2.01458 16.452 1.96476 16.0593 2.02735 15.6768C2.08998 15.2944 2.26237 14.9386 2.52344 14.6523L2.54395 14.6299C3.20833 13.944 3.78413 13.3416 4.22462 12.4092C4.63658 11.537 4.95758 10.3098 4.9961 8.39258L5.00001 8C5.00001 6.14348 5.73803 4.36256 7.05079 3.0498C8.36343 1.73744 10.1438 1.00007 12 1ZM12 3C10.6741 3.00007 9.40246 3.52733 8.46485 4.46484C7.52724 5.40251 7.00001 6.67398 7.00001 8C7.00001 10.3542 6.63097 11.9982 6.03321 13.2637C5.4428 14.5135 4.65916 15.3206 4.00098 16H20C19.3404 15.3202 18.5579 14.5127 17.9678 13.2637C17.3698 11.998 17 10.3541 17 8C17 6.67417 16.4735 5.40247 15.5361 4.46484C14.5985 3.52724 13.326 3.00009 12 3Z" fill="#E4F2F2"/>
</svg>
