<svg width="24" height="24" viewBox="0 0 24 24" fill="none" xmlns="http://www.w3.org/2000/svg">
<path d="M12.8652 20.4995C13.1413 20.0216 13.7533 19.8578 14.2314 20.1333C14.7096 20.4094 14.8736 21.0213 14.5977 21.4995C14.3344 21.9554 13.9558 22.3339 13.5 22.5972C13.0441 22.8604 12.5264 22.9995 12 22.9995C11.4736 22.9995 10.9559 22.8604 10.5 22.5972C10.0442 22.3339 9.66458 21.9554 9.40137 21.4995C9.12576 21.0214 9.28961 20.4094 9.76758 20.1333C10.2457 19.8574 10.8575 20.0217 11.1338 20.4995C11.2215 20.6513 11.3483 20.778 11.5 20.8657C11.6518 20.9533 11.8248 20.9995 12 20.9995C12.1753 20.9995 12.3481 20.9534 12.5 20.8657C12.6519 20.778 12.7775 20.6514 12.8652 20.4995Z" fill="#E4F2F2"/>
<path fill-rule="evenodd" clip-rule="evenodd" d="M12 0.999532C13.8563 0.999597 15.6375 1.73679 16.9502 3.04934C18.2628 4.36198 18.9999 6.14319 19 7.99953C19 10.144 19.336 11.4784 19.7754 12.4087C20.1058 13.1081 20.5131 13.6219 20.9766 14.1245L21.458 14.6304L21.4795 14.6538C21.7402 14.9404 21.9125 15.2968 21.9746 15.6792C22.0366 16.0614 21.9865 16.4539 21.8301 16.8081C21.6734 17.1623 21.4163 17.4639 21.0918 17.6753C20.8076 17.8603 20.4812 17.9703 20.1445 17.9946L20 17.9995H4C3.61238 17.9992 3.23283 17.8861 2.9082 17.6743C2.58359 17.4625 2.32727 17.1609 2.1709 16.8062C2.01468 16.4516 1.96477 16.0587 2.02734 15.6763C2.09003 15.2941 2.26246 14.938 2.52344 14.6519L2.54395 14.6294C3.20825 13.9436 3.78417 13.3411 4.22461 12.4087C4.63649 11.5366 4.95758 10.309 4.99609 8.39211L5 7.99953C5.00013 6.14319 5.73814 4.36198 7.05078 3.04934C8.36341 1.73709 10.1439 0.999597 12 0.999532ZM12 2.99953C10.6742 2.9996 9.40243 3.52698 8.46484 4.46438C7.52735 5.40193 7.00013 6.67368 7 7.99953C7 10.3535 6.63086 11.9978 6.0332 13.2632C5.44285 14.5129 4.65912 15.3202 4.00098 15.9995H20C19.3404 15.3197 18.5579 14.5122 17.9678 13.2632C17.3699 11.9975 17 10.3535 17 7.99953C16.9999 6.67379 16.4735 5.40191 15.5361 4.46438C14.5985 3.52682 13.3259 2.9996 12 2.99953Z" fill="#E4F2F2"/>
<path d="M3.18262 1.42238C3.50115 0.971623 4.12611 0.863951 4.57715 1.18215C5.02814 1.50059 5.13557 2.12554 4.81738 2.57668C3.71185 4.1429 3.00011 5.94544 3 7.99953C3 8.55182 2.55228 8.99953 2 8.99953C1.44772 8.99953 1 8.55182 1 7.99953C1.00011 5.45407 1.88837 3.25591 3.18262 1.42238Z" fill="#E4F2F2"/>
<path d="M19.4229 1.18215C19.8739 0.863951 20.4988 0.971623 20.8174 1.42238C22.1116 3.25591 22.9999 5.45407 23 7.99953C23 8.55182 22.5523 8.99953 22 8.99953C21.4477 8.99953 21 8.55182 21 7.99953C20.9999 5.94544 20.2882 4.1429 19.1826 2.57668C18.8644 2.12554 18.9719 1.50059 19.4229 1.18215Z" fill="#E4F2F2"/>
</svg>
