<svg width="24" height="24" viewBox="0 0 24 24" fill="none" xmlns="http://www.w3.org/2000/svg">
<path d="M12.8657 20.5005C13.1418 20.0223 13.7537 19.8583 14.2319 20.1343C14.7099 20.4105 14.8742 21.0223 14.5981 21.5005C14.3349 21.9562 13.9562 22.3349 13.5005 22.5981C13.0446 22.8613 12.5268 23.0004 12.0005 23.0005C11.4741 23.0005 10.9564 22.8612 10.5005 22.5981C10.0446 22.3349 9.66515 21.9563 9.40184 21.5005C9.12578 21.0222 9.28984 20.4104 9.76805 20.1343C10.2463 19.8582 10.8581 20.0222 11.1343 20.5005C11.222 20.6522 11.3486 20.779 11.5005 20.8667C11.6523 20.9542 11.8252 21.0005 12.0005 21.0005C12.1758 21.0004 12.3487 20.9543 12.5005 20.8667C12.6522 20.779 12.778 20.6522 12.8657 20.5005Z" fill="#E4F2F2"/>
<path d="M11.7505 1.00535C12.9502 0.962654 14.1415 1.22858 15.2085 1.77879C15.6992 2.03193 15.8911 2.63567 15.6382 3.12645C15.3849 3.61698 14.7822 3.80919 14.2915 3.55614C13.5294 3.16321 12.6786 2.97291 11.8218 3.0034C10.9649 3.03394 10.1301 3.2848 9.39794 3.73094C8.66583 4.1771 8.06007 4.8038 7.64012 5.55125C7.22025 6.2987 6.99971 7.1422 6.9995 7.9995C6.9995 10.3534 6.63057 11.9975 6.0327 13.2632C5.44266 14.5121 4.66 15.3197 4.00048 15.9995H19.9995C19.7151 15.7046 19.4488 15.3925 19.2026 15.0649C18.8711 14.6235 18.9596 13.9963 19.4009 13.6645C19.8423 13.333 20.4695 13.4216 20.8013 13.8628C20.9531 14.0648 21.1145 14.26 21.2847 14.4468L21.4575 14.6304L21.48 14.6538C21.7406 14.9403 21.912 15.2969 21.9741 15.6792C22.0362 16.0617 21.9863 16.4546 21.8296 16.8091C21.6728 17.1634 21.4161 17.4648 21.0913 17.6763C20.7665 17.8877 20.3871 17.9996 19.9995 17.9995H3.9995C3.61225 17.9995 3.23327 17.8875 2.90868 17.6763C2.58393 17.4649 2.32718 17.1634 2.1704 16.8091C2.01367 16.4546 1.9628 16.0617 2.02489 15.6792C2.08703 15.2968 2.25928 14.9404 2.52001 14.6538L2.54247 14.6304C3.20805 13.9443 3.78361 13.3411 4.22411 12.4087C4.66353 11.4784 4.9995 10.144 4.9995 7.9995C4.99971 6.79911 5.30906 5.61833 5.89696 4.57176C6.48486 3.5254 7.33204 2.64753 8.35692 2.02293C9.38196 1.39833 10.5509 1.04812 11.7505 1.00535Z" fill="#E4F2F2"/>
<path d="M17.9995 4.00047C18.5518 4.00047 18.9995 4.44819 18.9995 5.00047V7.00047H20.9995C21.5518 7.00047 21.9995 7.44819 21.9995 8.00047C21.9993 8.55255 21.5516 9.00047 20.9995 9.00047H18.9995V11.0005C18.9993 11.5525 18.5516 12.0005 17.9995 12.0005C17.4475 12.0003 16.9997 11.5524 16.9995 11.0005V9.00047H14.9995C14.4475 9.00029 13.9997 8.55243 13.9995 8.00047C13.9995 7.4483 14.4474 7.00065 14.9995 7.00047H16.9995V5.00047C16.9995 4.4483 17.4474 4.00065 17.9995 4.00047Z" fill="#E4F2F2"/>
</svg>
