<svg width="24" height="24" viewBox="0 0 24 24" fill="none" xmlns="http://www.w3.org/2000/svg">
<path fill-rule="evenodd" clip-rule="evenodd" d="M1.29297 1.29295C1.68349 0.90243 2.31651 0.90243 2.70703 1.29295L22.707 21.293C23.0975 21.6835 23.0975 22.3165 22.707 22.707C22.3165 23.0975 21.6835 23.0975 21.293 22.707L19.5859 21H2C1.44774 21 1.00004 20.5522 1 20V18C1 17.2044 1.31632 16.4415 1.87891 15.8789C2.20821 15.5496 2.60712 15.3076 3.04004 15.1611C3.29844 12.3893 4.82399 9.96258 7.06152 8.47557L1.29297 2.70702C0.902457 2.3165 0.902482 1.68348 1.29297 1.29295ZM4 17C3.73478 17 3.48051 17.1054 3.29297 17.293C3.10546 17.4805 3 17.7348 3 18V19H17.5859L15.5859 17H4ZM8.5127 9.92674C6.67102 11.0056 5.38171 12.8586 5.07227 15H13.5859L8.5127 9.92674Z" fill="#E4F2F2"/>
<path d="M12.9287 7.96581C13.0583 7.42897 13.5979 7.09901 14.1348 7.2285C15.7446 7.61708 17.2167 8.44227 18.3877 9.61327C19.5584 10.7842 20.384 12.2556 20.7725 13.8652C20.9018 14.4018 20.5716 14.9425 20.0352 15.0723C19.4984 15.2018 18.9579 14.8715 18.8281 14.3349C18.526 13.083 17.8842 11.9381 16.9736 11.0273C16.0629 10.1166 14.918 9.47411 13.666 9.17186C13.1292 9.04232 12.7993 8.50259 12.9287 7.96581Z" fill="#E4F2F2"/>
<path d="M14 2.99999C14.5523 2.99999 15 3.4477 15 3.99999C15 4.55224 14.5523 4.99999 14 4.99999H13V6.29979C13 6.85204 12.5523 7.29979 12 7.29979C11.4477 7.29979 11 6.85204 11 6.29979V4.99999H10C9.44774 4.99999 9.00004 4.55224 9 3.99999C9 3.4477 9.44771 2.99999 10 2.99999H14Z" fill="#E4F2F2"/>
</svg>
