<svg width="24" height="24" viewBox="0 0 24 24" fill="none" xmlns="http://www.w3.org/2000/svg">
<path d="M12.8652 20.5C13.1413 20.0219 13.7532 19.858 14.2314 20.1338C14.7097 20.4099 14.8738 21.0217 14.5977 21.5C14.3344 21.9558 13.9558 22.3344 13.5 22.5977C13.0441 22.8608 12.5263 22.9999 12 23C11.4736 22.9999 10.9559 22.8608 10.5 22.5977C10.0441 22.3344 9.66463 21.9559 9.40137 21.5C9.12546 21.0218 9.28957 20.41 9.76758 20.1338C10.2458 19.8577 10.8576 20.0219 11.1338 20.5C11.2215 20.6519 11.3481 20.7785 11.5 20.8662C11.6518 20.9538 11.8247 20.9999 12 21C12.1753 20.9999 12.3482 20.9538 12.5 20.8662C12.6518 20.7785 12.7775 20.6518 12.8652 20.5Z" fill="#E4F2F2"/>
<path d="M11.627 1.00977C12.1781 0.980556 12.649 1.404 12.6787 1.95508C12.7082 2.50646 12.2847 2.97817 11.7334 3.00781C10.4556 3.07611 9.25256 3.63199 8.37207 4.56055C7.49159 5.48927 7.00015 6.72026 7 8C6.99998 10.354 6.63089 11.9983 6.0332 13.2637C5.4428 14.5134 4.65913 15.3206 4.00097 16H20.001C19.1695 15.1424 18.1832 14.1242 17.5801 12.291C17.4078 11.7665 17.6933 11.2019 18.2178 11.0293C18.7422 10.857 19.3078 11.1417 19.4805 11.666C19.8791 12.8778 20.4729 13.5972 21.1592 14.3193L21.458 14.6309L21.4795 14.6533C21.7403 14.94 21.9125 15.2972 21.9746 15.6797C22.0366 16.062 21.9866 16.4544 21.8301 16.8086C21.6734 17.1629 21.4164 17.4644 21.0918 17.6758C20.8076 17.8608 20.4812 17.9698 20.1445 17.9941L20 18H4C3.61247 17.9997 3.23277 17.8865 2.9082 17.6748C2.58357 17.463 2.32727 17.1613 2.1709 16.8066C2.01454 16.452 1.96475 16.0593 2.02734 15.6768C2.08999 15.2943 2.26224 14.9376 2.52344 14.6514L2.54394 14.6299C3.20829 13.944 3.78413 13.3416 4.22461 12.4092C4.66398 11.4789 4.99998 10.1444 5 8C5.00019 6.20851 5.68747 4.48475 6.91992 3.18457C8.15269 1.88445 9.83784 1.10532 11.627 1.00977Z" fill="#E4F2F2"/>
<path fill-rule="evenodd" clip-rule="evenodd" d="M18 1C20.2091 1.00005 22 2.79089 22 5C22 7.20911 20.2091 8.99995 18 9C15.7909 9 14 7.20914 14 5C14 2.79086 15.7909 1 18 1ZM18 3C16.8954 3 16 3.89543 16 5C16 6.10457 16.8954 7 18 7C19.1045 6.99995 20 6.10454 20 5C20 3.89546 19.1045 3.00005 18 3Z" fill="#E4F2F2"/>
</svg>
