<svg width="24" height="24" viewBox="0 0 24 24" fill="none" xmlns="http://www.w3.org/2000/svg">
<path d="M12.8652 20.5C13.1413 20.0219 13.7532 19.858 14.2314 20.1338C14.7097 20.4099 14.8738 21.0217 14.5976 21.5C14.3344 21.9557 13.9557 22.3344 13.5 22.5976C13.0441 22.8607 12.5263 22.9999 12 23C11.4736 22.9999 10.9559 22.8608 10.5 22.5976C10.044 22.3344 9.66462 21.9559 9.40135 21.5C9.12542 21.0218 9.28958 20.41 9.76756 20.1338C10.2458 19.8577 10.8576 20.0218 11.1338 20.5C11.2215 20.6519 11.3481 20.7785 11.5 20.8662C11.6518 20.9537 11.8247 20.9999 12 21C12.1753 20.9999 12.3482 20.9538 12.5 20.8662C12.6518 20.7785 12.7775 20.6517 12.8652 20.5Z" fill="#E4F2F2"/>
<path fill-rule="evenodd" clip-rule="evenodd" d="M1.29295 1.29295C1.68348 0.90243 2.31649 0.90243 2.70702 1.29295L6.95702 5.54295C6.96393 5.54973 6.97082 5.5565 6.97752 5.56346L22.707 21.293C23.0975 21.6835 23.0975 22.3165 22.707 22.707C22.3165 23.0975 21.6835 23.0975 21.293 22.707L16.5859 18H3.99999C3.61275 18 3.23375 17.887 2.90917 17.6758C2.58434 17.4643 2.32767 17.163 2.17088 16.8086C2.01422 16.4543 1.96338 16.0621 2.02538 15.6797C2.08747 15.2973 2.25987 14.9409 2.52049 14.6543L2.54295 14.6308C3.20853 13.9447 3.78408 13.3415 4.22459 12.4092C4.63659 11.537 4.95757 10.3097 4.99608 8.39256L4.99999 7.99999C4.99988 7.5167 5.05032 7.0354 5.1494 6.56346L1.29295 2.70702C0.90243 2.31649 0.90243 1.68348 1.29295 1.29295ZM6.9951 8.40917C6.95462 10.5465 6.59582 12.0727 6.03319 13.2637C5.44313 14.5125 4.66048 15.3202 4.00096 16H14.5859L6.9951 8.40917Z" fill="#E4F2F2"/>
<path d="M11.6582 1.00877C12.9241 0.946896 14.1831 1.22949 15.3008 1.82713C16.4184 2.4248 17.3534 3.31519 18.0049 4.40233C18.656 5.48928 19 6.73291 19 7.99999C19 10.4824 19.7073 12.256 20.5371 13.4931C20.8445 13.9518 20.7222 14.5733 20.2637 14.8808C19.8052 15.188 19.1846 15.0655 18.8769 14.6074C17.8328 13.0507 17 10.8912 17 7.99999C17 7.09481 16.7543 6.20614 16.289 5.42967C15.8237 4.65318 15.1557 4.01769 14.3574 3.59081C13.5591 3.16399 12.66 2.96166 11.7558 3.00584C10.8517 3.05006 9.97646 3.33912 9.22362 3.84178C8.76441 4.14834 8.14266 4.02448 7.83592 3.56542C7.52955 3.10628 7.65341 2.48543 8.11229 2.1787C9.16636 1.47483 10.3922 1.07068 11.6582 1.00877Z" fill="#E4F2F2"/>
</svg>
