<svg width="24" height="24" viewBox="0 0 24 24" fill="none" xmlns="http://www.w3.org/2000/svg">
<path d="M12.8652 20.5005C13.1413 20.0223 13.7532 19.8584 14.2314 20.1343C14.7097 20.4104 14.8738 21.0222 14.5977 21.5005C14.3345 21.9562 13.9557 22.3349 13.5 22.5981C13.0442 22.8612 12.5263 23.0004 12 23.0005C11.4736 23.0004 10.9559 22.8613 10.5 22.5981C10.044 22.3349 9.66466 21.9564 9.40137 21.5005C9.12537 21.0223 9.28962 20.4105 9.76758 20.1343C10.2458 19.8582 10.8576 20.0222 11.1338 20.5005C11.2215 20.6523 11.3481 20.779 11.5 20.8667C11.6518 20.9542 11.8247 21.0004 12 21.0005C12.1752 21.0004 12.3482 20.9542 12.5 20.8667C12.6517 20.779 12.7775 20.6522 12.8652 20.5005Z" fill="#E4F2F2"/>
<path d="M9.32129 1.53269C10.6004 1.00291 12.0083 0.864107 13.3662 1.13425C14.724 1.40447 15.9713 2.07128 16.9502 3.05027C17.3405 3.44078 17.3405 4.07389 16.9502 4.46433C16.5597 4.85471 15.9266 4.85463 15.5361 4.46433C14.837 3.76503 13.9454 3.28821 12.9756 3.09519C12.0058 2.90233 11.0004 3.00202 10.0869 3.38035C9.17327 3.75881 8.39217 4.39986 7.84278 5.22214C7.29343 6.04447 6.99988 7.01152 7 8.00046C6.99997 10.3545 6.63094 11.9987 6.03321 13.2641C5.44276 14.5139 4.65915 15.3211 4.00098 16.0005H20.001C18.9962 14.9527 18.2206 13.7056 17.7266 12.3403C17.5388 11.821 17.8079 11.2479 18.3272 11.06C18.8463 10.8724 19.4194 11.1407 19.6074 11.6596C19.959 12.6312 20.4866 13.5286 21.1621 14.3071L21.46 14.6333L21.4795 14.6538C21.7403 14.9404 21.9125 15.2976 21.9746 15.6802C22.0366 16.0625 21.9867 16.4548 21.8301 16.8091C21.6734 17.1634 21.4164 17.4648 21.0918 17.6762C20.8076 17.8612 20.4812 17.9703 20.1445 17.9946L20 18.0005H4C3.61253 18.0002 3.23275 17.8869 2.90821 17.6753C2.58363 17.4635 2.32728 17.1617 2.1709 16.8071C2.01453 16.4524 1.96475 16.0598 2.02735 15.6772C2.08995 15.2947 2.26219 14.9382 2.52344 14.6518L2.54395 14.6303C3.20834 13.9444 3.78411 13.3421 4.22461 12.4096C4.66402 11.4794 4.99997 10.145 5 8.00046C4.99984 6.61587 5.41053 5.26211 6.17969 4.11081C6.94881 2.95966 8.04225 2.06255 9.32129 1.53269Z" fill="#E4F2F2"/>
<path d="M21 7.00046C21.5522 7.00052 22 7.44821 22 8.00046C21.9999 8.55259 21.5522 9.00041 21 9.00046H15C14.4478 9.00046 14.0001 8.55262 14 8.00046C14 7.44818 14.4477 7.00046 15 7.00046H21Z" fill="#E4F2F2"/>
</svg>
