<svg width="24" height="24" viewBox="0 0 24 24" fill="none" xmlns="http://www.w3.org/2000/svg">
<path fill-rule="evenodd" clip-rule="evenodd" d="M14 3C14.5523 3 15 3.44772 15 4C15 4.55228 14.5523 5 14 5H13V8C13 8.55228 12.5523 9 12 9C8.49166 9 5.56284 11.6209 5.07324 15H20L20.2969 15.0146C20.9835 15.0829 21.6289 15.3867 22.1211 15.8789C22.6837 16.4415 23 17.2043 23 18V20C23 20.5523 22.5523 21 22 21H2C1.44772 21 1 20.5523 1 20V18C1 17.2044 1.3163 16.4415 1.87891 15.8789C2.20799 15.5498 2.60647 15.3077 3.03906 15.1611C3.43442 10.929 6.78918 7.527 11 7.05664V5H10C9.44771 5 9 4.55228 9 4C9 3.44772 9.44771 3 10 3H14ZM4 17C3.73478 17 3.48051 17.1054 3.29297 17.293C3.10543 17.4805 3 17.7348 3 18V19H21V18C21 17.7348 20.8946 17.4805 20.707 17.293C20.5195 17.1054 20.2652 17 20 17H4Z" fill="#E4F2F2"/>
<path fill-rule="evenodd" clip-rule="evenodd" d="M19 5C21.2091 5 23 6.79086 23 9C23 11.2091 21.2091 13 19 13C16.7909 13 15 11.2091 15 9C15 6.79086 16.7909 5 19 5ZM19 7C17.8954 7 17 7.89543 17 9C17 10.1046 17.8954 11 19 11C20.1046 11 21 10.1046 21 9C21 7.89543 20.1046 7 19 7Z" fill="#E4F2F2"/>
</svg>
