<svg width="24" height="24" viewBox="0 0 24 24" fill="none" xmlns="http://www.w3.org/2000/svg">
<path d="M13.0098 5C13.5621 5 14.0098 5.44772 14.0098 6C14.0098 6.55228 13.5621 7 13.0098 7H13C12.4477 7 12 6.55228 12 6C12 5.44772 12.4477 5 13 5H13.0098Z" fill="#E4F2F2"/>
<path fill-rule="evenodd" clip-rule="evenodd" d="M15 1C15.8874 1 16.6822 1.3876 17.2314 2H21C21.5272 2.00004 22.0449 2.18063 22.4326 2.56836C22.8201 2.95608 23 3.47297 23 4V8C23 8.52703 22.8201 9.04392 22.4326 9.43164C22.3035 9.56071 22.1583 9.6639 22.0049 9.74805L15.1504 15H19L19.0986 15.0049C19.3276 15.0276 19.5429 15.1288 19.707 15.293L22.707 18.293C23.0976 18.6835 23.0976 19.3165 22.707 19.707L19.707 22.707C19.5195 22.8946 19.2652 23 19 23H3C2.47275 23 1.95614 22.8194 1.56836 22.4316C1.18058 22.0439 1 21.5272 1 21V17C1 16.4728 1.18058 15.9561 1.56836 15.5684C1.69809 15.4386 1.84293 15.3334 1.99707 15.249L7.84766 10.7705C7.43139 10.5972 7.06507 10.3306 6.76855 10H3C2.47275 10 1.95614 9.81942 1.56836 9.43164C1.18058 9.04386 1 8.52725 1 8V4C1 3.47275 1.18058 2.95614 1.56836 2.56836C1.95614 2.18058 2.47275 2 3 2H6.76855C7.31781 1.3876 8.11262 1 9 1H15ZM3 21H18.5859L20.5859 19L18.5859 17H3V21ZM17.2314 10C16.6822 10.6124 15.8874 11 15 11H10.8389L5.61328 15H11.8604L18.3887 10H17.2314ZM9 3C8.69153 3 8.41586 3.13982 8.23242 3.35938C8.19271 3.46236 8.13596 3.55638 8.06641 3.63965C8.02324 3.7514 8 3.87302 8 4V5H9C9.55229 5 10 5.44772 10 6C10 6.55228 9.55229 7 9 7H8V8C8 8.12666 8.02345 8.24786 8.06641 8.35938C8.13599 8.44256 8.19264 8.53675 8.23242 8.63965C8.41586 8.85953 8.69126 9 9 9H15C15.3085 9 15.5832 8.85925 15.7666 8.63965C15.8063 8.53681 15.8631 8.44253 15.9326 8.35938C15.9757 8.24776 16 8.12678 16 8V4C16 3.8729 15.9759 3.75149 15.9326 3.63965C15.8631 3.5564 15.8063 3.4623 15.7666 3.35938C15.5832 3.1401 15.3082 3 15 3H9ZM3 8H6V7C5.44772 7 5 6.55228 5 6C5 5.44772 5.44772 5 6 5V4H3V8ZM18 8H21V4H18V8Z" fill="#E4F2F2"/>
</svg>
