<svg width="24" height="24" viewBox="0 0 24 24" fill="none" xmlns="http://www.w3.org/2000/svg">
<path fill-rule="evenodd" clip-rule="evenodd" d="M20 13C21.1045 13 22 13.8955 22 15V20C22 21.1045 21.1045 22 20 22H8.99999C7.89542 22 6.99999 21.1046 6.99999 20V15C6.99999 13.8954 7.89542 13 8.99999 13H20ZM8.99999 20H20V15H8.99999V20Z" fill="#E4F2F2"/>
<path d="M1.29295 8.29297C1.68348 7.90248 2.3165 7.90246 2.70702 8.29297L5.70702 11.293C6.09749 11.6835 6.09749 12.3165 5.70702 12.707L2.70702 15.707C2.3165 16.0975 1.68348 16.0975 1.29295 15.707C0.90243 15.3165 0.90243 14.6835 1.29295 14.293L3.58592 12L1.29295 9.70703C0.90243 9.31651 0.90243 8.68349 1.29295 8.29297Z" fill="#E4F2F2"/>
<path fill-rule="evenodd" clip-rule="evenodd" d="M20 2C21.1045 2.00004 22 2.89546 22 4V9C22 10.1045 21.1045 11 20 11H8.99999C7.89542 11 6.99999 10.1046 6.99999 9V4C6.99999 2.89543 7.89542 2 8.99999 2H20ZM8.99999 9H20V4H8.99999V9Z" fill="#E4F2F2"/>
</svg>
