<svg width="24" height="24" viewBox="0 0 24 24" fill="none" xmlns="http://www.w3.org/2000/svg">
<path fill-rule="evenodd" clip-rule="evenodd" d="M9 6.99999C10.1046 6.99999 11 7.89542 11 8.99999V20C11 21.1045 10.1045 22 9 22H4C2.89546 22 2.00004 21.1045 2 20V8.99999C2 7.89542 2.89543 6.99999 4 6.99999H9ZM4 20H9V8.99999H4V20Z" fill="#E4F2F2"/>
<path fill-rule="evenodd" clip-rule="evenodd" d="M20 6.99999C21.1046 6.99999 22 7.89542 22 8.99999V20C22 21.1045 21.1045 22 20 22H15C13.8955 22 13 21.1045 13 20V8.99999C13 7.89542 13.8954 6.99999 15 6.99999H20ZM15 20H20V8.99999H15V20Z" fill="#E4F2F2"/>
<path d="M14.293 1.29295C14.6835 0.90243 15.3165 0.90243 15.707 1.29295C16.0975 1.68348 16.0975 2.3165 15.707 2.70702L12.707 5.70702C12.3165 6.09749 11.6835 6.09749 11.293 5.70702L8.29297 2.70702C7.90246 2.3165 7.90248 1.68348 8.29297 1.29295C8.68349 0.90243 9.31651 0.90243 9.70703 1.29295L12 3.58592L14.293 1.29295Z" fill="#E4F2F2"/>
</svg>
