<svg width="24" height="24" viewBox="0 0 24 24" fill="none" xmlns="http://www.w3.org/2000/svg">
<path fill-rule="evenodd" clip-rule="evenodd" d="M9.99952 1C11.0603 1 12.0785 1.42186 12.8286 2.17188C13.5785 2.92198 13.9995 3.93932 13.9995 5C13.9995 5.79565 13.6832 6.55849 13.1206 7.12109C12.558 7.68351 11.795 8 10.9995 8C10.7318 7.99997 10.4794 7.97795 10.2417 7.93555C10.1633 8.06833 10.0873 8.26075 10.021 8.53906C9.88911 9.09327 9.84549 9.79653 9.81495 10.6309C9.79416 11.1989 9.77723 11.8293 9.72999 12.4463C9.97025 12.3481 10.217 12.2638 10.4692 12.1973C10.9062 12.0821 11.3534 12.0166 11.8023 12.002C12.371 11.0149 13.2111 10.2051 14.23 9.6748C15.4547 9.0375 16.8623 8.84265 18.2144 9.12207C19.5665 9.40164 20.7811 10.1392 21.6528 11.21C22.5245 12.2808 23.0001 13.6193 22.9995 15C22.9995 19.6358 18.3057 23 12.9995 23C10.8987 23 8.78496 22.7894 6.89601 22.3604C5.02064 21.9343 3.29744 21.2773 2.0337 20.3418L2.03273 20.3408C1.29845 19.7958 0.992938 18.9434 1.00929 18.1553C1.06365 15.4363 1.21571 11.2582 2.32667 7.74219C2.88384 5.97898 3.70623 4.30115 4.94776 3.05469C6.21555 1.78208 7.88251 1.00015 9.99952 1ZM9.99952 3C8.43079 3.00015 7.26919 3.55884 6.36476 4.4668C5.43403 5.40127 4.73915 6.7458 4.2339 8.34473C3.34693 11.1518 3.11614 14.4956 3.03566 17.1191L3.00831 18.1963C3.00269 18.4674 3.10714 18.6472 3.22413 18.7344L3.40773 18.8652C4.35667 19.5118 5.71087 20.0394 7.33839 20.4092C9.06069 20.8004 11.0239 21 12.9995 21C17.5465 21 20.7911 18.2751 20.9898 15.29L20.9995 15C21 14.0795 20.6831 13.1866 20.1021 12.4727C19.521 11.7589 18.7114 11.2665 17.8101 11.0801C16.9087 10.8938 15.9694 11.0243 15.1528 11.4492C14.7155 11.6769 14.3295 11.9838 14.0073 12.3477C14.5767 12.55 15.1152 12.8355 15.6011 13.2002C16.0422 13.5316 16.1312 14.1581 15.8003 14.5996C15.4689 15.0413 14.8416 15.1312 14.3999 14.7998C13.9172 14.4376 13.3584 14.189 12.7661 14.0732C12.6242 14.0455 12.4808 14.0259 12.3374 14.0137C12.3231 14.0126 12.3088 14.0114 12.2944 14.0098C11.8534 13.977 11.4087 14.0176 10.979 14.1309C10.3956 14.2848 9.85416 14.5693 9.39601 14.9619C9.18345 15.1441 8.9917 15.3483 8.82276 15.5693C8.8152 15.5797 8.808 15.5903 8.8003 15.6006C8.7949 15.6078 8.78829 15.6141 8.78273 15.6211C8.60474 15.862 8.45409 16.1231 8.33351 16.3994C8.11275 16.9055 7.52321 17.1365 7.0171 16.916C6.51088 16.6952 6.2787 16.1058 6.49952 15.5996C6.6887 15.166 6.92805 14.7579 7.21144 14.3828C7.42394 14.0896 7.58148 13.6141 7.6753 12.9092C7.76968 12.2 7.78465 11.4136 7.81593 10.5586C7.84575 9.7437 7.8906 8.84999 8.07472 8.07617C8.16138 7.71213 8.28983 7.32979 8.48878 6.97559C8.36273 6.83381 8.254 6.68807 8.16066 6.54395C7.86071 6.08047 7.99326 5.46035 8.45655 5.16016C8.91997 4.86043 9.53919 4.99293 9.83937 5.45605C9.96087 5.64371 10.0774 5.7612 10.2153 5.83984C10.3528 5.91811 10.585 5.99992 10.9995 6C11.2646 6 11.519 5.89437 11.7066 5.70703C11.8941 5.51949 11.9995 5.26522 11.9995 5C11.9995 4.46957 11.7887 3.96101 11.4136 3.58594C11.0385 3.21106 10.5298 3 9.99952 3Z" fill="#E4F2F2"/>
</svg>
