<svg width="24" height="24" viewBox="0 0 24 24" fill="none" xmlns="http://www.w3.org/2000/svg">
<path fill-rule="evenodd" clip-rule="evenodd" d="M5.75927 3.06055C5.94655 2.54128 6.52009 2.27199 7.03954 2.45899C7.5586 2.64622 7.82773 3.21899 7.6411 3.73828C6.90222 5.79103 7.62618 8.0035 9.437 9.25489L10.062 9.61133C10.5849 9.16806 11.2613 8.89942 12.0005 8.89942C12.7395 8.8995 13.4152 9.16821 13.938 9.61133L14.561 9.25489C16.3728 8.00362 17.098 5.79157 16.3589 3.73828C16.1721 3.21879 16.442 2.64604 16.9614 2.45899C17.4808 2.27208 18.0534 2.54137 18.2407 3.06055C18.9085 4.91549 18.7286 6.86561 17.8589 8.49219C19.7199 8.55165 21.5121 9.40859 22.7768 10.9707C23.1242 11.3999 23.0584 12.0294 22.6294 12.377C22.2002 12.7244 21.5706 12.6577 21.2231 12.2285C19.8221 10.4981 17.5388 10.0062 15.562 10.9863L14.9458 11.3379C14.9803 11.5199 15.0004 11.7074 15.0005 11.8994C15.0005 13.205 14.1648 14.3123 13.0005 14.7246V15.4795C13.0902 17.6898 14.7289 19.4847 16.852 19.8115C17.3978 19.8956 17.7729 20.4063 17.689 20.9522C17.6049 21.4979 17.0941 21.8719 16.5483 21.7881C14.5999 21.4883 12.939 20.3334 11.9546 18.7168C10.9754 20.2615 9.38421 21.3912 7.45263 21.6885C6.90697 21.7724 6.39627 21.3981 6.312 20.8525C6.22804 20.3068 6.60225 19.796 7.14794 19.7119C9.24693 19.3889 10.8212 17.609 11.0005 15.4531V14.7246C9.83587 14.3125 9.00048 13.2052 9.00048 11.8994C9.00051 11.7075 9.01873 11.5198 9.05321 11.3379L8.4497 10.9941C6.45698 10.0983 4.15886 10.6043 2.7622 12.2471C2.40452 12.6677 1.77379 12.7189 1.35302 12.3613C0.932273 12.0037 0.881187 11.373 1.23876 10.9522C2.51357 9.45263 4.31419 8.62605 6.17821 8.55957C5.27699 6.91961 5.08222 4.94123 5.75927 3.06055ZM12.0005 10.8994C11.6923 10.8994 11.4154 11.0386 11.2319 11.2578C11.214 11.3044 11.194 11.3508 11.1684 11.3955C11.1389 11.4472 11.1047 11.4948 11.0679 11.5391C11.0245 11.6509 11.0005 11.7723 11.0005 11.8994C11.0005 12.4517 11.4482 12.8994 12.0005 12.8994C12.5526 12.8992 13.0005 12.4516 13.0005 11.8994C13.0004 11.7715 12.975 11.6495 12.9311 11.5371C12.895 11.4934 12.8607 11.4465 12.8315 11.3955C12.8062 11.3511 12.7859 11.3051 12.7681 11.2588C12.5847 11.0394 12.3088 10.8995 12.0005 10.8994Z" fill="#E4F2F2"/>
<path d="M5.18407 12.9512C5.70768 12.7769 6.27389 13.0596 6.44872 13.583C6.70952 14.3654 7.1375 15.1224 7.70751 15.6924C8.0979 16.0828 8.09762 16.7159 7.70751 17.1064C7.31699 17.497 6.68397 17.497 6.29345 17.1064C5.4636 16.2766 4.89143 15.2333 4.55224 14.2158C4.37784 13.6921 4.66042 13.1259 5.18407 12.9512Z" fill="#E4F2F2"/>
<path d="M17.5522 13.583C17.7272 13.0596 18.2932 12.7766 18.8169 12.9512C19.3404 13.1259 19.6229 13.6922 19.4487 14.2158C19.1096 15.2331 18.5372 16.2766 17.7075 17.1064C17.317 17.497 16.684 17.497 16.2934 17.1064C15.903 16.7159 15.9029 16.0829 16.2934 15.6924C16.8633 15.1224 17.2915 14.3653 17.5522 13.583Z" fill="#E4F2F2"/>
<path d="M10.3042 4.41895C11.4335 4.19312 12.5674 4.19308 13.6968 4.41895C14.238 4.52743 14.589 5.05443 14.4809 5.59571C14.3726 6.13712 13.8456 6.48894 13.3042 6.38086C12.4338 6.20681 11.5671 6.20685 10.6968 6.38086C10.1553 6.48916 9.6284 6.13716 9.52001 5.59571C9.41194 5.0543 9.7628 4.52727 10.3042 4.41895Z" fill="#E4F2F2"/>
</svg>
