<svg width="24" height="24" viewBox="0 0 24 24" fill="none" xmlns="http://www.w3.org/2000/svg">
<path fill-rule="evenodd" clip-rule="evenodd" d="M12 7C13.6568 7.00005 15 8.34317 15 10C15 11.6568 13.6568 13 12 13C10.3431 13 9 11.6569 9 10C9 8.34315 10.3431 7 12 7ZM12 9C11.4477 9 11 9.44771 11 10C11 10.5523 11.4477 11 12 11C12.5522 11 13 10.5523 13 10C13 9.44774 12.5522 9.00005 12 9Z" fill="#E4F2F2"/>
<path fill-rule="evenodd" clip-rule="evenodd" d="M12 1C12.6336 1.00002 13.2502 1.20181 13.7627 1.57422L13.7637 1.57324L21.583 7.1875C22.0314 7.50956 22.1342 8.13447 21.8125 8.58301C21.4904 9.03145 20.8656 9.13433 20.417 8.8125L19.6719 8.27734L18.1846 17H20C20.5522 17 21 17.4477 21 18C21 18.5523 20.5522 19 20 19H13V22C13 22.5523 12.5522 23 12 23C11.4477 23 11 22.5523 11 22V19H4C3.44771 19 3 18.5523 3 18C3 17.4477 3.44771 17 4 17H5.81543L4.32714 8.27734L3.583 8.8125C3.13446 9.1344 2.5096 9.03141 2.1875 8.58301C1.86572 8.13443 1.96853 7.50954 2.41699 7.1875L10.2363 1.57324C10.749 1.20052 11.3661 1 12 1ZM12 3C11.788 3 11.5814 3.06733 11.4102 3.19238L11.4033 3.19727L6.13378 6.98047L7.84375 17H16.1562L17.8652 6.98047L12.5967 3.19727L12.5898 3.19238C12.4186 3.06735 12.212 3.00002 12 3Z" fill="#E4F2F2"/>
</svg>
