<svg width="24" height="24" viewBox="0 0 24 24" fill="none" xmlns="http://www.w3.org/2000/svg">
<path d="M16.0093 6.00002C16.5616 6.00002 17.0093 6.44776 17.0093 7.00002C17.0093 7.5523 16.5616 8.00002 16.0093 8.00002H15.9995C15.4474 7.99988 14.9995 7.55222 14.9995 7.00002C14.9996 6.44784 15.4474 6.00016 15.9995 6.00002H16.0093Z" fill="#E4F2F2"/>
<path fill-rule="evenodd" clip-rule="evenodd" d="M14.3901 2.2549C15.3983 1.91218 16.49 1.90105 17.5054 2.2217C18.5209 2.54253 19.4082 3.17927 20.0366 4.03908C20.5065 4.6821 20.8141 5.42503 20.938 6.20412L22.2417 6.53029C22.6869 6.64158 22.9995 7.04117 22.9995 7.50002C22.9995 7.95889 22.6869 8.35845 22.2417 8.46974L20.9995 8.78029V10C20.9995 12.3869 20.0516 14.6765 18.3638 16.3643C17.4056 17.3224 16.2533 18.0412 14.9995 18.4844V21C14.9995 21.5523 14.5518 22 13.9995 22C13.4474 21.9999 12.9995 21.5522 12.9995 21V18.9414C12.669 18.9784 12.3353 19 11.9995 19H10.9995V21C10.9995 21.5523 10.5518 22 9.99952 22C9.44736 21.9999 8.99952 21.5522 8.99952 21V19H3.9214L2.81886 20.5733C2.50195 21.0256 1.87762 21.1353 1.4253 20.8184C0.973635 20.5013 0.863467 19.8779 1.18019 19.4258L2.56007 17.4551C2.57065 17.4388 2.58179 17.4228 2.59327 17.4072L11.9009 4.12599C12.5104 3.25348 13.3824 2.59753 14.3901 2.2549ZM16.9028 4.12892C16.2936 3.93661 15.6386 3.94283 15.0337 4.14846C14.4287 4.35417 13.9053 4.74852 13.5396 5.27248L13.5386 5.27346L12.148 7.25783C12.9068 8.08206 13.4601 9.07986 13.7554 10.1699C14.1314 11.5584 14.071 13.0292 13.5816 14.3819C13.2223 15.3746 12.6444 16.268 11.897 17H11.9995L12.3462 16.9912C14.0765 16.9055 15.7189 16.18 16.9497 14.9492C18.2622 13.6366 18.9995 11.8563 18.9995 10V6.99709C19.0011 6.35814 18.7984 5.73466 18.4214 5.21877C18.0444 4.70316 17.5119 4.32136 16.9028 4.12892ZM5.32277 17H6.99952C8.02702 17 9.02946 16.6829 9.87062 16.0928C10.7118 15.5026 11.351 14.6674 11.7007 13.7012C12.0503 12.735 12.0943 11.6842 11.8257 10.6924C11.6536 10.0573 11.3576 9.46699 10.9605 8.95119L5.32277 17Z" fill="#E4F2F2"/>
</svg>
