<svg width="24" height="24" viewBox="0 0 24 24" fill="none" xmlns="http://www.w3.org/2000/svg">
<path fill-rule="evenodd" clip-rule="evenodd" d="M9.6201 2.46337C9.71603 1.91965 10.2356 1.55715 10.7793 1.65283C11.323 1.74889 11.6857 2.26725 11.5898 2.81103L11.416 3.79638L13.3857 4.14404L13.5605 3.15869C13.6566 2.61495 14.176 2.25132 14.7197 2.34716C15.2634 2.44339 15.6263 2.96259 15.5303 3.50634L15.3408 4.5747C16.335 4.93485 17.1 5.54475 17.6113 6.31396C18.2679 7.30197 18.4618 8.48301 18.2695 9.57372C18.0772 10.6644 17.491 11.7078 16.5361 12.4116C16.375 12.5303 16.2041 12.6361 16.0264 12.7319C16.1606 12.8827 16.2848 13.0409 16.3955 13.2075C17.0519 14.1956 17.2441 15.3766 17.0517 16.4673C16.8593 17.558 16.2742 18.6013 15.3193 19.3052C14.5762 19.8529 13.6494 20.1637 12.5928 20.1626L12.4053 21.2319C12.3097 21.7759 11.791 22.14 11.2471 22.0444C10.7035 21.9486 10.3401 21.43 10.4355 20.8862L10.6084 19.8999L8.6367 19.5522L8.46385 20.5376C8.36792 21.0815 7.84953 21.445 7.30565 21.3491C6.76214 21.253 6.39853 20.7345 6.49412 20.1909L6.66795 19.2046L5.68553 19.0317C5.14195 18.9356 4.7791 18.4172 4.87498 17.8735C4.97092 17.3298 5.48945 16.9663 6.03319 17.062L7.01463 17.2349L9.09862 5.41747L8.11522 5.24462C7.57184 5.1483 7.20884 4.63 7.30467 4.08642C7.40062 3.54275 7.91919 3.18024 8.46287 3.27587L9.4453 3.44872L9.6201 2.46337ZM8.98436 17.5825L11.9404 18.104C12.9266 18.2777 13.6433 18.0564 14.1328 17.6958C14.6369 17.3242 14.9714 16.7523 15.083 16.1196C15.1945 15.4871 15.076 14.8355 14.7295 14.314C14.3929 13.8076 13.7949 13.3543 12.8086 13.1802L12.8056 13.1792L9.85252 12.6587L8.98436 17.5825ZM10.2002 10.689L13.1572 11.2104C14.1434 11.3845 14.8602 11.1628 15.3496 10.8022C15.8536 10.4307 16.1882 9.85869 16.2998 9.22607C16.4112 8.59371 16.2926 7.94276 15.9463 7.42138C15.6097 6.91509 15.0118 6.46059 14.0254 6.28662H14.0234L14.0195 6.28564L11.0683 5.76513L10.2002 10.689Z" fill="#E4F2F2"/>
</svg>
