<svg width="24" height="24" viewBox="0 0 24 24" fill="none" xmlns="http://www.w3.org/2000/svg">
<path fill-rule="evenodd" clip-rule="evenodd" d="M1.29295 1.29298C1.68348 0.902484 2.3165 0.902468 2.70702 1.29298L22.707 21.293C23.0975 21.6835 23.0975 22.3165 22.707 22.707C22.3165 23.0976 21.6835 23.0975 21.293 22.707L17 18.4141L12.707 22.707C12.421 22.993 11.9908 23.0786 11.6172 22.9238C11.2436 22.769 11 22.4044 11 22V14.4141L7.70702 17.707C7.31651 18.0976 6.68348 18.0975 6.29295 17.707C5.90243 17.3165 5.90243 16.6835 6.29295 16.293L10.5859 12L1.29295 2.70705C0.90243 2.31652 0.90243 1.68351 1.29295 1.29298ZM13 19.586L15.5859 17L13 14.4141V19.586Z" fill="#E4F2F2"/>
<path d="M11.6172 1.07619C11.9908 0.921438 12.421 1.007 12.707 1.29298L17.707 6.29298C18.0975 6.68351 18.0975 7.31654 17.707 7.70705L15.207 10.207C14.8165 10.5976 14.1835 10.5975 13.793 10.207C13.4024 9.81652 13.4024 9.18351 13.793 8.79298L15.5859 7.00002L13 4.41408V6.50002C13 7.05226 12.5522 7.49997 12 7.50002C11.4477 7.50002 11 7.05229 11 6.50002V2.00002C11 1.5956 11.2436 1.231 11.6172 1.07619Z" fill="#E4F2F2"/>
</svg>
