<svg width="24" height="24" viewBox="0 0 24 24" fill="none" xmlns="http://www.w3.org/2000/svg">
<path fill-rule="evenodd" clip-rule="evenodd" d="M11.6172 1.07619C11.9909 0.921438 12.4211 1.007 12.7071 1.29298L17.7071 6.29298C18.0975 6.68351 18.0976 7.31654 17.7071 7.70705L13.4141 12L17.7071 16.293C18.0975 16.6835 18.0976 17.3165 17.7071 17.707L12.7071 22.707C12.4211 22.993 11.9909 23.0786 11.6172 22.9238C11.2436 22.769 11.0001 22.4044 11 22V14.4141L7.70708 17.707C7.31657 18.0976 6.68354 18.0975 6.29302 17.707C5.90249 17.3165 5.90249 16.6835 6.29302 16.293L10.586 12L6.29302 7.70705C5.90249 7.31652 5.90249 6.68351 6.29302 6.29298C6.68354 5.90248 7.31656 5.90247 7.70708 6.29298L11 9.58595V2.00002C11 1.5956 11.2436 1.231 11.6172 1.07619ZM13 19.586L15.586 17L13 14.4141V19.586ZM13 9.58595L15.586 7.00002L13 4.41408V9.58595Z" fill="#E4F2F2"/>
</svg>
