<svg width="24" height="24" viewBox="0 0 24 24" fill="none" xmlns="http://www.w3.org/2000/svg">
<path fill-rule="evenodd" clip-rule="evenodd" d="M11.6172 1.07614C11.9909 0.921363 12.421 1.00694 12.707 1.29294L17.707 6.29294C18.0975 6.68347 18.0976 7.31648 17.707 7.707L13.4141 12L17.707 16.2929C18.0975 16.6835 18.0976 17.3165 17.707 17.707L12.707 22.707C12.421 22.993 11.9909 23.0786 11.6172 22.9238C11.2436 22.769 11 22.4044 11 22V14.414L7.70703 17.707C7.31651 18.0975 6.68349 18.0975 6.29297 17.707C5.90245 17.3165 5.90246 16.6835 6.29297 16.2929L10.5859 12L6.29297 7.707C5.90245 7.31648 5.90246 6.68347 6.29297 6.29294C6.68349 5.90242 7.31651 5.90242 7.70703 6.29294L11 9.58591V1.99997C11 1.59556 11.2436 1.23096 11.6172 1.07614ZM13 19.5859L15.5859 17L13 14.414V19.5859ZM13 9.58591L15.5859 6.99997L13 4.41403V9.58591Z" fill="#E4F2F2"/>
<path d="M6 11C6.55228 11 7 11.4477 7 12C6.99998 12.5522 6.55228 13 6 13H3C2.44772 13 2.00002 12.5522 2 12C2 11.4477 2.44772 11 3 11H6Z" fill="#E4F2F2"/>
<path d="M21 11C21.5523 11 22 11.4477 22 12C22 12.5522 21.5523 13 21 13H18C17.4477 13 17 12.5522 17 12C17 11.4477 17.4477 11 18 11H21Z" fill="#E4F2F2"/>
</svg>
