<svg width="24" height="24" viewBox="0 0 24 24" fill="none" xmlns="http://www.w3.org/2000/svg">
<path fill-rule="evenodd" clip-rule="evenodd" d="M11.6172 1.07619C11.9908 0.921438 12.421 1.007 12.707 1.29298L17.707 6.29298C18.0975 6.68351 18.0975 7.31654 17.707 7.70705L13.414 12L17.707 16.293C18.0975 16.6835 18.0975 17.3165 17.707 17.707L12.707 22.707C12.421 22.993 11.9908 23.0786 11.6172 22.9238C11.2436 22.769 11 22.4044 11 22V14.4141L7.70702 17.707C7.31651 18.0976 6.68348 18.0975 6.29295 17.707C5.90243 17.3165 5.90243 16.6835 6.29295 16.293L10.5859 12L6.29295 7.70705C5.90243 7.31652 5.90243 6.68351 6.29295 6.29298C6.68348 5.90248 7.3165 5.90247 7.70702 6.29298L11 9.58595V2.00002C11 1.5956 11.2436 1.231 11.6172 1.07619ZM13 19.586L15.5859 17L13 14.4141V19.586ZM13 9.58595L15.5859 7.00002L13 4.41408V9.58595Z" fill="#E4F2F2"/>
<path d="M20.123 8.46291C20.5134 8.07266 21.1465 8.07276 21.5371 8.46291C22.0017 8.92712 22.3705 9.47827 22.6221 10.085C22.8737 10.6919 23.0029 11.343 23.0029 12C23.0029 12.657 22.8736 13.3081 22.6221 13.9151C22.3705 14.5217 22.0017 15.0729 21.5371 15.5371C21.1465 15.9273 20.5134 15.9273 20.123 15.5371C19.7327 15.1464 19.7323 14.5124 20.123 14.1221C20.4019 13.8435 20.6234 13.5126 20.7744 13.1485C20.9253 12.7844 21.0029 12.3941 21.0029 12C21.0029 11.6059 20.9253 11.2157 20.7744 10.8516C20.6234 10.4874 20.4019 10.1556 20.123 9.87697C19.7327 9.48663 19.7329 8.85352 20.123 8.46291Z" fill="#E4F2F2"/>
<path d="M18.0098 11C18.562 11.0001 19.0098 11.4478 19.0098 12C19.0097 12.5523 18.562 13 18.0098 13H18C17.4477 13 17 12.5523 17 12C17 11.4477 17.4477 11 18 11H18.0098Z" fill="#E4F2F2"/>
</svg>
