<svg width="24" height="24" viewBox="0 0 24 24" fill="none" xmlns="http://www.w3.org/2000/svg">
<path fill-rule="evenodd" clip-rule="evenodd" d="M13 6C13.9283 6 14.8182 6.36901 15.4746 7.02539C16.131 7.68177 16.5 8.57174 16.5 9.5C16.5 10.3299 16.2033 11.1277 15.6719 11.7568C15.7772 11.8403 15.8786 11.9294 15.9746 12.0254C16.631 12.6818 17 13.5717 17 14.5C17 15.4283 16.631 16.3182 15.9746 16.9746C15.3182 17.631 14.4283 18 13.5 18H8C7.44772 18 7 17.5523 7 17V7C7 6.44772 7.44772 6 8 6H13ZM9 16H13.5C13.8978 16 14.2792 15.8419 14.5605 15.5605C14.8419 15.2792 15 14.8978 15 14.5C15 14.1022 14.8419 13.7208 14.5605 13.4395C14.3145 13.1934 13.9917 13.042 13.6484 13.0078L13.5 13H9V16ZM9 11H13C13.3978 11 13.7792 10.8419 14.0605 10.5605C14.3419 10.2792 14.5 9.89782 14.5 9.5C14.5 9.10218 14.3419 8.72076 14.0605 8.43945C13.8145 8.19337 13.4917 8.04195 13.1484 8.00781L13 8H9V11Z" fill="#E4F2F2"/>
<path fill-rule="evenodd" clip-rule="evenodd" d="M19 2C20.6569 2 22 3.34315 22 5V19C22 20.6569 20.6569 22 19 22H5C3.34315 22 2 20.6569 2 19V5C2 3.34315 3.34315 2 5 2H19ZM5 4C4.44772 4 4 4.44772 4 5V19C4 19.5523 4.44772 20 5 20H19C19.5523 20 20 19.5523 20 19V5C20 4.44772 19.5523 4 19 4H5Z" fill="#E4F2F2"/>
</svg>
