<svg width="24" height="24" viewBox="0 0 24 24" fill="none" xmlns="http://www.w3.org/2000/svg">
<path fill-rule="evenodd" clip-rule="evenodd" d="M9.23438 5.15332C9.65142 5.01705 10.0922 4.96641 10.5293 5.00488C10.9664 5.04342 11.3915 5.16983 11.7783 5.37695C11.856 5.41857 11.9311 5.46507 12.0049 5.5127C12.0774 5.46669 12.1514 5.42208 12.2275 5.38184C12.6139 5.17783 13.0383 5.05321 13.4736 5.0166C13.909 4.98004 14.3477 5.03131 14.7627 5.16797C15.1777 5.3047 15.5612 5.52428 15.8896 5.8125C16.218 6.10066 16.4853 6.45206 16.6748 6.8457C16.8643 7.23942 16.9719 7.66804 16.9922 8.10449C17.0124 8.5408 16.945 8.97725 16.793 9.38672C16.6425 9.79185 16.4108 10.1623 16.1152 10.4775L16.1162 10.4785L13.4902 13.335L13.4893 13.334C13.3053 13.5398 13.0814 13.7066 12.8301 13.8213C12.57 13.9399 12.2868 14.0009 12.001 14.001C11.715 14.001 11.4321 13.9399 11.1719 13.8213C10.9198 13.7063 10.6951 13.5396 10.5107 13.333L7.88379 10.4766L7.88477 10.4756C7.58806 10.1621 7.35554 9.79359 7.20312 9.38965C7.04824 8.97895 6.97813 8.54009 6.99707 8.10156C7.0161 7.66322 7.12381 7.23256 7.31348 6.83691C7.50323 6.44133 7.77168 6.08811 8.10156 5.79883C8.43155 5.50955 8.81728 5.28972 9.23438 5.15332ZM10.3535 6.99707C10.1855 6.98231 10.0158 7.00135 9.85547 7.05371C9.69514 7.10614 9.54679 7.19156 9.41992 7.30273C9.29319 7.41393 9.19012 7.55014 9.11719 7.70215C9.0443 7.85425 9.00244 8.01997 8.99512 8.18848C8.98787 8.35702 9.01471 8.52574 9.07422 8.68359C9.13379 8.84147 9.22501 8.98562 9.3418 9.10742C9.34669 9.11252 9.35166 9.11784 9.35645 9.12305L11.9834 11.9805C11.9891 11.9866 11.9945 11.9937 12 12C12.0057 11.9935 12.0127 11.9868 12.0186 11.9805L14.6445 9.125L14.6543 9.11426C14.7696 8.99228 14.8595 8.84775 14.918 8.69043C14.9763 8.53303 15.0019 8.36497 14.9941 8.19727C14.9863 8.02948 14.9449 7.86425 14.8721 7.71289C14.7992 7.56166 14.6965 7.42616 14.5703 7.31543C14.4441 7.20469 14.2962 7.12092 14.1367 7.06836C13.9773 7.01589 13.8088 6.99581 13.6416 7.00977C13.4742 7.02384 13.3106 7.072 13.1621 7.15039C13.0137 7.22882 12.8823 7.3366 12.7764 7.4668C12.5858 7.7011 12.299 7.83682 11.9971 7.83594C11.6948 7.83481 11.4087 7.69684 11.2197 7.46094C11.1142 7.3292 10.9828 7.22032 10.834 7.14062C10.6852 7.06097 10.5216 7.0119 10.3535 6.99707Z" fill="#E4F2F2"/>
<path fill-rule="evenodd" clip-rule="evenodd" d="M19 1C19.5304 1 20.039 1.21086 20.4141 1.58594C20.7891 1.96101 21 2.46957 21 3V21C21 21.5304 20.7891 22.039 20.4141 22.4141C20.039 22.7891 19.5304 23 19 23H6.5C5.57174 23 4.68177 22.631 4.02539 21.9746C3.36901 21.3182 3 20.4283 3 19.5V4.5C3 3.57174 3.36901 2.68177 4.02539 2.02539C4.68177 1.36901 5.57174 1 6.5 1H19ZM6.5 18C6.10218 18 5.72076 18.1581 5.43945 18.4395C5.15815 18.7208 5 19.1022 5 19.5C5 19.8978 5.15815 20.2792 5.43945 20.5605C5.72076 20.8419 6.10218 21 6.5 21H19V18H6.5ZM6.5 3C6.10218 3 5.72076 3.15815 5.43945 3.43945C5.15815 3.72076 5 4.10218 5 4.5V16.3379C5.46445 16.1176 5.97614 16 6.5 16H19V3H6.5Z" fill="#E4F2F2"/>
</svg>
