<svg width="24" height="24" viewBox="0 0 24 24" fill="none" xmlns="http://www.w3.org/2000/svg">
<path d="M8 11C8.55228 11 9 11.4477 9 12C9 12.5523 8.55228 13 8 13H6C5.44772 13 5 12.5523 5 12C5 11.4477 5.44772 11 6 11H8Z" fill="#E4F2F2"/>
<path d="M8 7C8.55228 7 9 7.44772 9 8C9 8.55228 8.55228 9 8 9H6C5.44772 9 5 8.55228 5 8C5 7.44772 5.44772 7 6 7H8Z" fill="#E4F2F2"/>
<path d="M18 11C18.5523 11 19 11.4477 19 12C19 12.5523 18.5523 13 18 13H16C15.4477 13 15 12.5523 15 12C15 11.4477 15.4477 11 16 11H18Z" fill="#E4F2F2"/>
<path d="M18 7C18.5523 7 19 7.44772 19 8C19 8.55228 18.5523 9 18 9H16C15.4477 9 15 8.55228 15 8C15 7.44772 15.4477 7 16 7H18Z" fill="#E4F2F2"/>
<path fill-rule="evenodd" clip-rule="evenodd" d="M8 2C9.32608 2 10.5975 2.52716 11.5352 3.46484C11.7036 3.63332 11.8587 3.81256 12 4.00098C12.1413 3.81256 12.2964 3.63332 12.4648 3.46484C13.4025 2.52716 14.6739 2 16 2H21C21.5304 2 22.039 2.21086 22.4141 2.58594C22.7891 2.96101 23 3.46957 23 4V17C23 17.5304 22.7891 18.039 22.4141 18.4141C22.039 18.7891 21.5304 19 21 19H15C14.4696 19 13.961 19.2109 13.5859 19.5859C13.2109 19.961 13 20.4696 13 21C13 21.5523 12.5523 22 12 22C11.4477 22 11 21.5523 11 21C11 20.4696 10.7891 19.961 10.4141 19.5859C10.0858 19.2577 9.65526 19.0551 9.19727 19.0098L9 19H3C2.46957 19 1.96101 18.7891 1.58594 18.4141C1.21086 18.039 1 17.5304 1 17V4C1 3.46957 1.21086 2.96101 1.58594 2.58594C1.96101 2.21086 2.46957 2 3 2H8ZM3 17H9C9.70847 17 10.397 17.1887 11 17.5371V7C11 6.20435 10.6837 5.44152 10.1211 4.87891C9.55849 4.3163 8.79565 4 8 4H3V17ZM16 4C15.2044 4 14.4415 4.3163 13.8789 4.87891C13.3163 5.44152 13 6.20435 13 7V17.5371C13.603 17.1887 14.2915 17 15 17H21V4H16Z" fill="#E4F2F2"/>
</svg>
