<svg width="24" height="24" viewBox="0 0 24 24" fill="none" xmlns="http://www.w3.org/2000/svg">
<path fill-rule="evenodd" clip-rule="evenodd" d="M14.3438 1C14.896 1 15.3438 1.44772 15.3438 2C15.3438 2.55228 14.896 3 14.3438 3H6.5C6.10218 3 5.72076 3.15815 5.43945 3.43945C5.15815 3.72076 5 4.10218 5 4.5V16.3369C5.46435 16.1166 5.97625 16 6.5 16H19V7.89844C19 7.34615 19.4477 6.89844 20 6.89844C20.5523 6.89844 21 7.34615 21 7.89844V21C20.9999 21.5303 20.789 22.0401 20.4141 22.415C20.039 22.7898 19.5302 23 19 23H6.5C5.57197 23 4.68172 22.6317 4.02539 21.9756C3.40997 21.3602 3.04678 20.5381 3.00391 19.6729L3 19.5V4.5C3 3.57174 3.36901 2.68177 4.02539 2.02539C4.68177 1.36901 5.57174 1 6.5 1H14.3438ZM6.5 18C6.10228 18 5.72074 18.1583 5.43945 18.4395C5.15839 18.7206 5.00012 19.1024 5 19.5C5.00012 19.8977 5.15825 20.2803 5.43945 20.5615C5.72071 20.8425 6.10241 21 6.5 21H19V18H6.5Z" fill="#E4F2F2"/>
<path fill-rule="evenodd" clip-rule="evenodd" d="M19.293 1.29297C19.6835 0.902444 20.3165 0.902444 20.707 1.29297C21.0976 1.68349 21.0976 2.31651 20.707 2.70703L20.4141 3L20.707 3.29297C21.0976 3.68349 21.0976 4.31651 20.707 4.70703C20.3165 5.09756 19.6835 5.09756 19.293 4.70703L19 4.41406L16.7041 6.70898C16.8913 7.10047 17 7.53708 17 8C17 9.65685 15.6569 11 14 11C12.3431 11 11 9.65685 11 8C11 6.34315 12.3431 5 14 5C14.4625 5 14.8988 5.10803 15.29 5.29492L19.293 1.29297ZM14 7C13.4477 7 13 7.44772 13 8C13 8.55228 13.4477 9 14 9C14.5523 9 15 8.55228 15 8C15 7.44772 14.5523 7 14 7Z" fill="#E4F2F2"/>
</svg>
