<svg width="24" height="24" viewBox="0 0 24 24" fill="none" xmlns="http://www.w3.org/2000/svg">
<path d="M9 12C9.55229 12 10 12.4477 10 13V15C9.99996 15.5522 9.55226 16 9 16C8.44774 16 8.00004 15.5522 8 15V13C8 12.4477 8.44772 12 9 12Z" fill="#E4F2F2"/>
<path fill-rule="evenodd" clip-rule="evenodd" d="M1.29297 1.29295C1.68349 0.90243 2.31651 0.90243 2.70703 1.29295L22.707 21.293C23.0975 21.6835 23.0975 22.3165 22.707 22.707C22.3165 23.0975 21.6835 23.0975 21.293 22.707L19.292 20.706C18.9803 20.8549 18.6441 20.9508 18.2969 20.9853L18 21H6C5.20437 21 4.44151 20.6837 3.87891 20.1211C3.31631 19.5585 3.00002 18.7956 3 18V15H2C1.44774 15 1.00004 14.5522 1 14C1 13.4477 1.44772 13 2 13H3V9.99999C3 9.20435 3.31632 8.4415 3.87891 7.87889C4.3495 7.4083 4.96049 7.1123 5.61328 7.02733L1.29297 2.70702C0.902457 2.3165 0.902482 1.68348 1.29297 1.29295ZM6 8.99999C5.73478 8.99999 5.48051 9.10542 5.29297 9.29295C5.10546 9.48049 5 9.73479 5 9.99999V18L5.00488 18.0986C5.02759 18.3276 5.12884 18.5429 5.29297 18.707C5.4805 18.8945 5.7348 19 6 19H17.5859L7.58594 8.99999H6Z" fill="#E4F2F2"/>
<path d="M18 6.99999C18.7956 7.00001 19.5585 7.3163 20.1211 7.87889C20.6837 8.4415 21 9.20435 21 9.99999V13H22C22.5523 13 23 13.4477 23 14C23 14.5522 22.5523 15 22 15H20.7402C20.5573 15.202 20.294 15.33 20 15.3301C19.4478 15.33 19.0001 14.8823 19 14.3301V9.99999C19 9.73479 18.8945 9.48049 18.707 9.29295C18.5195 9.10544 18.2652 9.00001 18 8.99999H13.6699C13.1177 8.99994 12.67 8.55221 12.6699 7.99999C12.6699 7.44773 13.1177 7.00003 13.6699 6.99999H18Z" fill="#E4F2F2"/>
<path d="M12 2.99999C12.5522 3.00003 13 3.44773 13 3.99999V6.33006C12.9999 6.88225 12.5522 7.33002 12 7.33006C11.4478 7.33002 11.0001 6.88225 11 6.33006V4.99999H9.66992C9.1177 4.99994 8.66996 4.55221 8.66992 3.99999C8.66992 3.44773 9.11767 3.00003 9.66992 2.99999H12Z" fill="#E4F2F2"/>
</svg>
