<svg width="24" height="24" viewBox="0 0 24 24" fill="none" xmlns="http://www.w3.org/2000/svg">
<path fill-rule="evenodd" clip-rule="evenodd" d="M19.5 1.00098C19.792 1.001 20.0811 1.05947 20.3506 1.17188C20.6185 1.28368 20.8617 1.44747 21.0664 1.65332L22.3467 2.93262C22.553 3.13574 22.7174 3.37772 22.8301 3.64453C22.9442 3.91512 23.0029 4.20631 23.0029 4.5C23.0029 4.79378 22.9443 5.08481 22.8301 5.35547C22.7173 5.62267 22.5515 5.86406 22.3447 6.06738L22.3457 6.06836L19.7764 8.62891C19.7546 8.65567 19.732 8.68211 19.707 8.70703C19.6816 8.73247 19.6543 8.75522 19.627 8.77734L18.7275 9.6748C18.4957 9.90759 18.3125 10.1845 18.1875 10.4883C18.0625 10.7922 17.9991 11.1187 18 11.4473V12.5498C18 13.1422 17.8825 13.7292 17.6553 14.2764C17.4282 14.8229 17.0949 15.3185 16.6758 15.7363L16.6768 15.7373L10.4072 22.0068C10.0916 22.3233 9.71654 22.5747 9.30371 22.7461C8.89054 22.9176 8.44736 23.0058 8 23.0059C7.55273 23.0058 7.10939 22.9176 6.69629 22.7461C6.28364 22.5747 5.90833 22.3232 5.59277 22.0068L1.99121 18.4053C1.35545 17.7663 0.998099 16.9014 0.998047 16C0.998099 15.0986 1.35535 14.2337 1.99121 13.5947L8.2627 7.32227C8.68047 6.90327 9.17719 6.57071 9.72363 6.34375C10.2707 6.11656 10.8578 5.99998 11.4502 6H12.5469C13.2092 5.99815 13.8441 5.73294 14.3115 5.26367L14.3135 5.26172L17.9336 1.65137C18.138 1.44613 18.3811 1.2835 18.6484 1.17188C18.918 1.05941 19.2079 1.001 19.5 1.00098ZM15.7275 6.6748C14.8862 7.51943 13.7449 7.99664 12.5527 8H11.4502C11.1661 8 10.8846 8.05103 10.6172 8.14551L12.998 10.5342L12.999 10.5352C13.3715 10.9099 13.5811 11.4169 13.5811 11.9453C13.581 12.4736 13.3715 12.9808 12.999 13.3555L12.998 13.3564L9.3584 17.0059L9.35547 17.0088C8.98082 17.3812 8.47358 17.5907 7.94531 17.5908C7.41694 17.5908 6.90988 17.3813 6.53516 17.0088L3.96973 14.4434L3.40723 15.0068L3.40625 15.0059C3.14429 15.2699 2.9981 15.628 2.99805 16C2.9981 16.372 3.14527 16.7291 3.40723 16.9932L7.00781 20.5938C7.13779 20.7242 7.29285 20.8278 7.46289 20.8984C7.633 20.9691 7.81581 21.0058 8 21.0059C8.18416 21.0058 8.36703 20.969 8.53711 20.8984C8.70709 20.8278 8.86127 20.7241 8.99121 20.5938L8.99316 20.5928L15.2637 14.3213C15.4969 14.089 15.6823 13.8128 15.8086 13.5088C15.9032 13.2809 15.9631 13.0406 15.9873 12.7959L16 12.5498V11.4502C15.9986 10.8595 16.1132 10.2738 16.3379 9.72754C16.5629 9.18054 16.8941 8.68278 17.3115 8.26367L17.3135 8.26172L17.5801 7.99414L15.9941 6.4082L15.7275 6.6748ZM5.38379 13.0293L7.94434 15.5898L11.5811 11.9443L9.02832 9.38477L5.38379 13.0293ZM19.5 3.00098C19.4723 3.001 19.4445 3.00691 19.4189 3.01758C19.3934 3.02827 19.3701 3.04381 19.3506 3.06348L19.3457 3.06836L17.4102 4.99609L18.9961 6.58203L20.9336 4.65137L20.9424 4.64355L20.9678 4.6123C20.9752 4.60136 20.9821 4.58941 20.9873 4.57715C20.9975 4.55274 21.0029 4.52646 21.0029 4.5C21.0029 4.47334 20.9977 4.44643 20.9873 4.42188C20.9769 4.39738 20.9615 4.37501 20.9424 4.35645L19.6523 3.06738L19.6494 3.06348C19.63 3.04397 19.6064 3.02823 19.5811 3.01758C19.5556 3.00698 19.5276 3.001 19.5 3.00098Z" fill="#E4F2F2"/>
<path d="M22.0098 15C22.562 15 23.0098 15.4477 23.0098 16C23.0098 16.5523 22.562 17 22.0098 17H22C21.4477 17 21 16.5523 21 16C21 15.4477 21.4477 15 22 15H22.0098Z" fill="#E4F2F2"/>
<path d="M21.0098 11C21.562 11 22.0098 11.4477 22.0098 12C22.0098 12.5523 21.562 13 21.0098 13H21C20.4477 13 20 12.5523 20 12C20 11.4477 20.4477 11 21 11H21.0098Z" fill="#E4F2F2"/>
<path d="M12.0098 2C12.5621 2 13.0098 2.44772 13.0098 3C13.0098 3.55228 12.5621 4 12.0098 4H12C11.4477 4 11 3.55228 11 3C11 2.44772 11.4477 2 12 2H12.0098Z" fill="#E4F2F2"/>
<path d="M8.00977 1C8.56205 1 9.00977 1.44772 9.00977 2C9.00977 2.55228 8.56205 3 8.00977 3H8C7.44772 3 7 2.55228 7 2C7 1.44772 7.44772 1 8 1H8.00977Z" fill="#E4F2F2"/>
</svg>
