<svg width="24" height="24" viewBox="0 0 24 24" fill="none" xmlns="http://www.w3.org/2000/svg">
<path fill-rule="evenodd" clip-rule="evenodd" d="M18 2C18.5523 2 19 2.44772 19 3V7C19 7.55228 18.5523 8 18 8H16V10H19C20.6569 10 22 11.3431 22 13V19C22 20.6569 20.6569 22 19 22H5C3.34315 22 2 20.6569 2 19V13C2 11.3431 3.34315 10 5 10H8V8H6C5.44772 8 5 7.55228 5 7V3C5 2.44772 5.44772 2 6 2H18ZM5 12C4.44772 12 4 12.4477 4 13V19C4 19.5523 4.44772 20 5 20H19C19.5523 20 20 19.5523 20 19V13C20 12.4477 19.5523 12 19 12H5ZM10 10H14V8H10V10ZM7 6H17V4H7V6Z" fill="#E4F2F2"/>
</svg>
