<svg width="24" height="24" viewBox="0 0 24 24" fill="none" xmlns="http://www.w3.org/2000/svg">
<path fill-rule="evenodd" clip-rule="evenodd" d="M6 2C6.55228 2 7 2.44772 7 3V9C7 9.5125 7.08761 10.2397 7.18359 10.8193L8.9834 20.6191C8.99433 20.6787 8.99999 20.7393 9 20.7998V21C9 21.5272 8.81942 22.0439 8.43164 22.4316C8.04386 22.8194 7.52725 23 7 23H3C2.47275 23 1.95614 22.8194 1.56836 22.4316C1.18058 22.0439 1 21.5272 1 21V3C1 2.44772 1.44772 2 2 2H6ZM3 21H7V20.8896L5.2168 11.1807C5.2158 11.1753 5.21477 11.1695 5.21387 11.1641C5.11091 10.5463 5 9.68258 5 9V8H3V21ZM3 6H5V4H3V6Z" fill="#E4F2F2"/>
<path fill-rule="evenodd" clip-rule="evenodd" d="M14 1C14.5523 1 15 1.44772 15 2V9C15 9.05053 14.9945 9.09992 14.9873 9.14844C14.9802 9.19563 14.9708 9.24234 14.957 9.28809C14.946 9.32484 14.933 9.36067 14.918 9.39551L13 14.1924V22C13 22.5523 12.5523 23 12 23C11.4477 23 11 22.5523 11 22V14C11 13.8729 11.0241 13.7469 11.0713 13.6289L12.5225 10H10C9.44771 10 9 9.55229 9 9V3C9 2.44772 9.44771 2 10 2H13C13 1.44772 13.4477 1 14 1ZM11 8H13V4H11V8Z" fill="#E4F2F2"/>
<path d="M20 1C20.7957 1 21.5585 1.3163 22.1211 1.87891C22.6837 2.44151 23 3.20435 23 4V20C23 20.7957 22.6837 21.5585 22.1211 22.1211C21.5585 22.6837 20.7957 23 20 23H18C17.4477 23 17 22.5523 17 22C17 21.4477 17.4477 21 18 21H20C20.2652 21 20.5195 20.8946 20.707 20.707C20.8946 20.5195 21 20.2652 21 20V19H18C17.4477 19 17 18.5523 17 18C17 17.4477 17.4477 17 18 17H21V15H18C17.4477 15 17 14.5523 17 14C17 13.4477 17.4477 13 18 13H21V11H18C17.4477 11 17 10.5523 17 10C17 9.44771 17.4477 9 18 9H21V7H18C17.4477 7 17 6.55228 17 6C17 5.44772 17.4477 5 18 5H21V4C21 3.73478 20.8946 3.48051 20.707 3.29297C20.5429 3.12883 20.3276 3.02757 20.0986 3.00488L20 3H18C17.4477 3 17 2.55228 17 2C17 1.44772 17.4477 1 18 1H20Z" fill="#E4F2F2"/>
</svg>
