<svg width="24" height="24" viewBox="0 0 24 24" fill="none" xmlns="http://www.w3.org/2000/svg">
<path fill-rule="evenodd" clip-rule="evenodd" d="M15 1C15.5272 1 16.0439 1.18058 16.4316 1.56836C16.8194 1.95614 17 2.47275 17 3V5C17 5.52725 16.8194 6.04386 16.4316 6.43164C16.0472 6.81607 15.5362 6.99592 15.0137 6.99902C15.0327 7.44806 15.0771 7.74983 15.1787 8.00391C15.3041 8.31717 15.569 8.66633 16.4473 9.10547C16.9412 9.35246 17.1415 9.95329 16.8945 10.4473C16.6475 10.9412 16.0467 11.1415 15.5527 10.8945C14.4313 10.3338 13.6959 9.68274 13.3213 8.74609C13.104 8.20258 13.0335 7.60599 13.0107 7H12C11.7348 7 11.4805 7.10543 11.293 7.29297C11.1054 7.48051 11 7.73478 11 8V9.58594L13.0068 11.5928C13.5922 12.1782 14 13.1318 14 14V20C14 20.7957 13.6837 21.5585 13.1211 22.1211C12.5585 22.6837 11.7957 23 11 23H5C4.20435 23 3.44151 22.6837 2.87891 22.1211C2.3163 21.5585 2 20.7957 2 20V14C2 13.1318 2.40777 12.1782 2.99316 11.5928L5 9.58594V8C5 7.73478 4.89457 7.4805 4.70703 7.29297C4.54289 7.12883 4.32763 7.02757 4.09863 7.00488L4 7H3C2.47275 7 1.95614 6.81942 1.56836 6.43164C1.18058 6.04386 1 5.52725 1 5C1 2.74772 2.74772 1 5 1H15ZM5.5 16.9541C4.98978 16.9541 4.48433 17.034 4 17.1865V20C4 20.2652 4.10543 20.5195 4.29297 20.707C4.48051 20.8946 4.73478 21 5 21H11C11.2652 21 11.5195 20.8946 11.707 20.707C11.8946 20.5195 12 20.2652 12 20V17.8672C10.8988 18.1175 9.94663 18.0866 9.19922 17.9531C8.6808 17.8605 8.26682 17.7204 7.97461 17.5986C7.8286 17.5378 7.71244 17.4808 7.62793 17.4365C7.60213 17.423 7.57945 17.4095 7.55957 17.3984C6.91244 17.1059 6.21038 16.9541 5.5 16.9541ZM4.40723 13.0068C4.19262 13.2214 4 13.6682 4 14V15.1162C4.49125 15.0084 4.99425 14.9541 5.5 14.9541C6.38101 14.9541 7.25293 15.1207 8.07031 15.4434L8.41699 15.5908L8.52148 15.6465L8.55566 15.665C8.59217 15.6842 8.65606 15.7162 8.74414 15.7529C8.92067 15.8265 9.19444 15.9207 9.55078 15.9844C10.1411 16.0898 10.9762 16.1137 12 15.7988V14C12 13.6682 11.8074 13.2214 11.5928 13.0068L9.58594 11H6.41406L4.40723 13.0068ZM5 3C3.85228 3 3 3.85228 3 5H4C4.79565 5 5.55848 5.3163 6.12109 5.87891C6.6837 6.44152 7 7.20435 7 8V9H9V8C9 7.20435 9.3163 6.44151 9.87891 5.87891C10.198 5.55977 10.5826 5.32266 11 5.1748V3H5ZM13 5H15V3H13V5Z" fill="#E4F2F2"/>
<path d="M22.0098 8C22.562 8 23.0098 8.44772 23.0098 9C23.0098 9.55229 22.562 10 22.0098 10H22C21.4477 10 21 9.55229 21 9C21 8.44772 21.4477 8 22 8H22.0098Z" fill="#E4F2F2"/>
<path d="M20.0098 4.5C20.562 4.5 21.0098 4.94772 21.0098 5.5C21.0098 6.05228 20.562 6.5 20.0098 6.5H20C19.4477 6.5 19 6.05228 19 5.5C19 4.94772 19.4477 4.5 20 4.5H20.0098Z" fill="#E4F2F2"/>
<path d="M22.0098 1C22.562 1 23.0098 1.44772 23.0098 2C23.0098 2.55228 22.562 3 22.0098 3H22C21.4477 3 21 2.55228 21 2C21 1.44772 21.4477 1 22 1H22.0098Z" fill="#E4F2F2"/>
</svg>
