<svg width="24" height="24" viewBox="0 0 24 24" fill="none" xmlns="http://www.w3.org/2000/svg">
<path fill-rule="evenodd" clip-rule="evenodd" d="M16 1C16.5523 1 17 1.44772 17 2C17 2.55228 16.5523 3 16 3H12V5C13.1046 5 14 5.89543 14 7V9C14 9.03973 13.9955 9.079 13.9932 9.11816C15.7458 9.54624 17 11.092 17 13V20C17 20.7957 16.6837 21.5585 16.1211 22.1211C15.5585 22.6837 14.7957 23 14 23H8C7.20435 23 6.44151 22.6837 5.87891 22.1211C5.3163 21.5585 5 20.7957 5 20V13C5 11.0924 6.2537 9.54656 8.00586 9.11816C8.00358 9.07902 8 9.03972 8 9V7C8 5.89543 8.89543 5 10 5V3H9C8.44772 3 8 2.55228 8 2C8 1.44772 8.44772 1 9 1H16ZM8.5 14.9541C7.98978 14.9541 7.48433 15.034 7 15.1865V20L7.00488 20.0986C7.02757 20.3276 7.12883 20.5429 7.29297 20.707C7.48051 20.8946 7.73478 21 8 21H14C14.2652 21 14.5195 20.8946 14.707 20.707C14.8946 20.5195 15 20.2652 15 20V15.8672C13.8988 16.1175 12.9466 16.0866 12.1992 15.9531C11.6808 15.8605 11.2668 15.7204 10.9746 15.5986C10.8286 15.5378 10.7124 15.4808 10.6279 15.4365C10.6021 15.423 10.5795 15.4095 10.5596 15.3984C9.91244 15.1059 9.21038 14.9541 8.5 14.9541ZM9 11C7.85228 11 7 11.8523 7 13V13.1162C7.49125 13.0084 7.99425 12.9541 8.5 12.9541C9.38101 12.9541 10.2529 13.1207 11.0703 13.4434L11.417 13.5908L11.5215 13.6465L11.5557 13.665C11.5922 13.6842 11.6561 13.7162 11.7441 13.7529C11.9207 13.8265 12.1944 13.9207 12.5508 13.9844C13.1411 14.0898 13.9762 14.1137 15 13.7988V13C15 11.8523 14.1477 11 13 11H9ZM10 9H12V7H10V9Z" fill="#E4F2F2"/>
<path d="M20.0098 9C20.5621 9 21.0098 9.44771 21.0098 10C21.0098 10.5523 20.5621 11 20.0098 11H20C19.4477 11 19 10.5523 19 10C19 9.44771 19.4477 9 20 9H20.0098Z" fill="#E4F2F2"/>
<path fill-rule="evenodd" clip-rule="evenodd" d="M18.5 4C19.3284 4 20 4.67157 20 5.5C20 6.32843 19.3284 7 18.5 7C17.6716 7 17 6.32843 17 5.5C17 4.67157 17.6716 4 18.5 4ZM18.5 5C18.2239 5 18 5.22386 18 5.5C18 5.77614 18.2239 6 18.5 6C18.7761 6 19 5.77614 19 5.5C19 5.22386 18.7761 5 18.5 5Z" fill="#E4F2F2"/>
</svg>
