<svg width="24" height="24" viewBox="0 0 24 24" fill="none" xmlns="http://www.w3.org/2000/svg">
<path fill-rule="evenodd" clip-rule="evenodd" d="M13 1C13.5304 1 14.039 1.21086 14.4141 1.58594C14.7891 1.96101 15 2.46957 15 3V5L15.0039 5.20215C15.0448 6.2125 15.3914 7.18852 16 8L16.5996 8.7998C17.5084 10.0115 18 11.4854 18 13V21C18 21.5304 17.7891 22.039 17.4141 22.4141C17.039 22.7891 16.5304 23 16 23H8C7.46957 23 6.96101 22.7891 6.58594 22.4141C6.21086 22.039 6 21.5304 6 21V13C6 11.4854 6.49164 10.0115 7.40039 8.7998L8 8L8.11816 7.83594C8.69168 7.00314 9 6.01434 9 5V3C9 2.46957 9.21087 1.96101 9.58594 1.58594C9.96101 1.21086 10.4696 1 11 1H13ZM11 5C11 6.51459 10.5084 7.98852 9.59961 9.2002L9 10C8.35089 10.8655 8 11.9181 8 13V21H16V19H13C12.4696 19 11.961 18.7891 11.5859 18.4141C11.2109 18.039 11 17.5304 11 17V14C11 13.4696 11.2109 12.961 11.5859 12.5859C11.961 12.2109 12.4696 12 13 12H15.8955C15.7617 11.3447 15.5006 10.7193 15.1182 10.1641L15 10L14.4004 9.2002C13.4916 7.98852 13 6.51459 13 5V3H11V5ZM13 14V17H16V14H13Z" fill="#E4F2F2"/>
</svg>
