<svg width="24" height="24" viewBox="0 0 24 24" fill="none" xmlns="http://www.w3.org/2000/svg">
<path fill-rule="evenodd" clip-rule="evenodd" d="M20.0996 0.919922C20.8899 0.919922 21.6482 1.23422 22.207 1.79297C22.7657 2.35166 23.0799 3.10935 23.0801 3.89941C23.0801 4.68971 22.7658 5.448 22.207 6.00684L21.832 6.38086C22.2144 7.87015 22.0487 9.5152 21.2598 10.9062C21.4708 11.2292 21.5859 11.6088 21.5859 12C21.5859 12.5235 21.3801 13.0266 21.0137 13.4004L19.4004 15.0137C19.0266 15.3801 18.5234 15.5859 18 15.5859C17.67 15.5859 17.349 15.5028 17.0625 15.3506L10.4072 22.0068C9.11678 23.2973 6.88431 23.2971 5.59375 22.0068L1.99316 18.4072C0.702638 17.1167 0.702637 14.8833 1.99316 13.5928L8.64746 6.9375C8.49578 6.6512 8.41407 6.32967 8.41406 6C8.41408 5.47658 8.61898 4.97344 8.98535 4.59961L8.99316 4.59277L10.5928 2.99316L10.5996 2.98535C10.9734 2.61898 11.4766 2.41411 12 2.41406C12.3989 2.41408 12.7854 2.534 13.1123 2.75293C13.7675 2.39955 14.4815 2.16253 15.2227 2.05664C16.021 1.94262 16.8315 1.98441 17.6113 2.17383L17.9932 1.79297C18.5519 1.23427 19.3095 0.920057 20.0996 0.919922ZM8.41406 10L9.70703 11.293C10.0976 11.6835 10.0976 12.3165 9.70703 12.707C9.3165 13.0975 8.68347 13.0975 8.29297 12.707L7 11.4141L5.41406 13L6.70703 14.293C7.09755 14.6835 7.09755 15.3165 6.70703 15.707C6.3165 16.0975 5.68347 16.0975 5.29297 15.707L4 14.4141L3.40722 15.0068C2.89775 15.5163 2.89775 16.4837 3.40722 16.9932L7.00781 20.5928C7.51735 21.102 8.48376 21.1022 8.99316 20.5928L15.5859 14L10 8.41406L8.41406 10ZM10.4141 6L18 13.5859L19.5859 12L12 4.41406L10.4141 6ZM20.0996 2.91992C19.8399 2.92006 19.5909 3.02341 19.4072 3.20703L18.6074 4.00684C18.3347 4.27957 17.9289 4.37117 17.5654 4.24219C16.9055 4.00807 16.1981 3.9371 15.5049 4.03613C15.2159 4.07744 14.9331 4.14848 14.6602 4.24609L19.7783 9.36426C20.1213 8.43891 20.1151 7.38834 19.7637 6.45117C19.6261 6.08405 19.7159 5.66982 19.9932 5.39258L20.793 4.59277C20.9767 4.40901 21.0801 4.15928 21.0801 3.89941C21.0799 3.63978 20.9765 3.39065 20.793 3.20703C20.6092 3.02336 20.3594 2.91992 20.0996 2.91992Z" fill="#E4F2F2"/>
</svg>
