<svg width="24" height="24" viewBox="0 0 24 24" fill="none" xmlns="http://www.w3.org/2000/svg">
<path fill-rule="evenodd" clip-rule="evenodd" d="M13 1C13.5272 1 14.0439 1.18058 14.4316 1.56836C14.8194 1.95614 15 2.47275 15 3V5.41895C15.5671 5.66665 16.0891 6.01878 16.5352 6.46484C17.4728 7.40253 18 8.67392 18 10C18 10.7957 17.6837 11.5585 17.1211 12.1211C17.1051 12.1371 17.0866 12.1504 17.0703 12.166C17.6396 12.7775 18 13.5947 18 14.5C18 15.4051 17.6393 16.2215 17.0703 16.833C17.0868 16.8487 17.1049 16.8628 17.1211 16.8789C17.6837 17.4415 18 18.2043 18 19V20C18 20.7957 17.6837 21.5585 17.1211 22.1211C16.5585 22.6837 15.7957 23 15 23H9C8.20435 23 7.44151 22.6837 6.87891 22.1211C6.3163 21.5585 6 20.7957 6 20V19C6 18.2043 6.3163 17.4415 6.87891 16.8789C6.92454 16.8333 6.97331 16.7914 7.02148 16.749C6.98034 16.7 6.93894 16.651 6.90039 16.5996C6.44604 15.9938 6.2002 15.2573 6.2002 14.5C6.2002 13.7427 6.44604 13.0062 6.90039 12.4004C6.93909 12.3488 6.98017 12.2992 7.02148 12.25C6.97348 12.2078 6.92438 12.1666 6.87891 12.1211C6.38671 11.6289 6.08291 10.9835 6.01465 10.2969L6 10C6 8.67392 6.52716 7.40253 7.46484 6.46484C7.91091 6.01878 8.43294 5.66665 9 5.41895V3C9 2.47275 9.18058 1.95614 9.56836 1.56836C9.95614 1.18058 10.4728 1 11 1H13ZM11 7C10.2044 7 9.44152 7.3163 8.87891 7.87891C8.3163 8.44152 8 9.20435 8 10L8.00488 10.0986C8.02757 10.3276 8.12883 10.5429 8.29297 10.707C8.48051 10.8946 8.73478 11 9 11L9.10254 11.0049C9.60667 11.0562 10 11.4823 10 12V12.0996C10 12.5439 9.70674 12.935 9.28027 13.0596C8.9688 13.1504 8.69472 13.3401 8.5 13.5996C8.30527 13.8593 8.2002 14.1754 8.2002 14.5C8.2002 14.8246 8.30527 15.1407 8.5 15.4004C8.69472 15.6599 8.9688 15.8496 9.28027 15.9404C9.70674 16.065 10 16.4561 10 16.9004V17C10 17.5523 9.55228 18 9 18C8.73478 18 8.48051 18.1054 8.29297 18.293C8.10543 18.4805 8 18.7348 8 19V20L8.00488 20.0986C8.02757 20.3276 8.12883 20.5429 8.29297 20.707C8.48051 20.8946 8.73478 21 9 21H15C15.2652 21 15.5195 20.8946 15.707 20.707C15.8946 20.5195 16 20.2652 16 20V19C16 18.7348 15.8946 18.4805 15.707 18.293C15.5195 18.1054 15.2652 18 15 18C14.4477 18 14 17.5523 14 17V16.9004C14 16.4171 14.3458 16.0025 14.8213 15.916C15.4642 15.799 16 15.1981 16 14.5C16 13.8019 15.4642 13.201 14.8213 13.084C14.3458 12.9975 14 12.5829 14 12.0996V12C14 11.4477 14.4477 11 15 11C15.2652 11 15.5195 10.8946 15.707 10.707C15.8946 10.5195 16 10.2652 16 10C16 9.20435 15.6837 8.44152 15.1211 7.87891C14.6289 7.38671 13.9835 7.08291 13.2969 7.01465L13 7H11ZM11 5H13V3H11V5Z" fill="#E4F2F2"/>
</svg>
