<svg width="24" height="24" viewBox="0 0 24 24" fill="none" xmlns="http://www.w3.org/2000/svg">
<path d="M18.1196 10.1914C18.6113 9.9403 19.214 10.1354 19.4653 10.627C20.9982 13.6251 21.3977 17.0751 20.5933 20.3447L20.5942 20.3457C20.5055 20.7092 20.324 21.0446 20.0679 21.3174C19.8118 21.59 19.4893 21.7919 19.1323 21.9033C18.7751 22.0147 18.3946 22.0319 18.0288 21.9531C17.6631 21.8743 17.324 21.7017 17.0444 21.4531C17.03 21.4403 17.0152 21.4268 17.0015 21.4131L13.2925 17.707C12.9023 17.3167 12.9024 16.6835 13.2925 16.293C13.6828 15.9026 14.316 15.9028 14.7065 16.293L18.3813 19.9648C18.4015 19.9806 18.4247 19.9926 18.4497 19.998C18.4783 20.0042 18.5087 20.0028 18.5366 19.9941C18.5645 19.9854 18.5898 19.9695 18.6099 19.9482C18.6299 19.9269 18.6439 19.9005 18.6509 19.8721L18.6519 19.8701C19.3423 17.0666 18.9985 14.1078 17.6841 11.5371C17.4329 11.0455 17.6281 10.4429 18.1196 10.1914Z" fill="#E4F2F2"/>
<path fill-rule="evenodd" clip-rule="evenodd" d="M20.9995 2C21.0581 2 21.1156 2.00596 21.1714 2.01562C21.1788 2.01691 21.1864 2.0171 21.1938 2.01855C21.2097 2.02167 21.2251 2.02641 21.2407 2.03027C21.2573 2.03439 21.2741 2.03799 21.2905 2.04297C21.3396 2.05787 21.3865 2.07768 21.4321 2.09961C21.4739 2.11967 21.515 2.14178 21.5542 2.16797C21.6091 2.2046 21.6601 2.2465 21.7065 2.29297C21.7415 2.32797 21.7725 2.36574 21.8013 2.4043C21.8687 2.49486 21.9217 2.59653 21.9556 2.70703C21.9618 2.72732 21.9663 2.74798 21.9712 2.76855C21.9889 2.84295 21.9995 2.9202 21.9995 3V7C21.9995 7.55228 21.5518 8 20.9995 8C20.4473 7.99987 19.9995 7.5522 19.9995 7V5.41406L10.9292 14.4834C10.974 14.6507 10.9995 14.8238 10.9995 15V16.998L10.9868 17.2646C10.961 17.5294 10.8956 17.7894 10.7935 18.0361C10.6574 18.3645 10.4572 18.662 10.2056 18.9131L10.2065 18.9141L7.56104 21.5605C7.35132 21.7706 7.08356 21.9136 6.79248 21.9717C6.50144 22.0296 6.19945 22.0003 5.92529 21.8867C5.65104 21.773 5.41619 21.58 5.25147 21.333C5.08675 21.0859 4.99898 20.795 4.99951 20.498V19H3.49951C3.20287 18.9999 2.91212 18.912 2.66553 18.7471C2.41894 18.5821 2.22614 18.3474 2.11279 18.0732C1.99948 17.799 1.97067 17.497 2.02881 17.2061L2.0542 17.0977C2.12342 16.849 2.2564 16.6217 2.43994 16.4385L5.08545 13.793C5.33649 13.5414 5.63505 13.3411 5.96338 13.2051C6.29171 13.0691 6.64415 13.0006 6.99951 13.001L8.99951 13C9.17516 13 9.34833 13.0248 9.51514 13.0693L18.5854 4H16.9995C16.4473 3.99987 15.9995 3.5522 15.9995 3C15.9995 2.4478 16.4473 2.00013 16.9995 2H20.9995ZM6.14502 20.1475L6.15088 20.1416C6.14897 20.1435 6.1469 20.1456 6.14502 20.1475ZM6.99756 15C6.90547 14.9999 6.8141 15.0185 6.729 15.0537C6.64383 15.089 6.56558 15.1407 6.50049 15.2061L4.70654 17H4.99951C5.52982 17 6.03854 17.211 6.41358 17.5859C6.78861 17.961 6.99951 18.4696 6.99951 19V19.293L8.79346 17.499C8.85882 17.4339 8.91047 17.3558 8.9458 17.2705C8.98108 17.1853 8.99963 17.0942 8.99951 17.002V15H6.99756Z" fill="#E4F2F2"/>
<path d="M3.65186 3.40918C6.92349 2.60387 10.376 3.00527 13.3755 4.54004C13.8669 4.79171 14.0616 5.39419 13.8101 5.88574C13.5585 6.37723 12.9559 6.57173 12.4644 6.32031C9.89309 5.00464 6.93296 4.66 4.12842 5.35059L4.12744 5.35156C4.09905 5.35851 4.07259 5.37259 4.05127 5.39258C4.02997 5.41257 4.01413 5.43795 4.00537 5.46582C3.99667 5.49365 3.99542 5.52323 4.00147 5.55176C4.00678 5.57682 4.01808 5.59993 4.03369 5.62012L7.70654 9.29297C8.09707 9.68349 8.09707 10.3165 7.70654 10.707C7.31601 11.0974 6.68296 11.0975 6.29248 10.707L2.58252 6.99707C2.56771 6.98225 2.5534 6.96689 2.53955 6.95117C2.29276 6.67107 2.12188 6.33199 2.04443 5.9668C1.967 5.60159 1.9853 5.22238 2.09717 4.86621C2.20901 4.51017 2.4109 4.18888 2.68311 3.93359C2.95542 3.67833 3.2893 3.49787 3.65186 3.40918Z" fill="#E4F2F2"/>
</svg>
