<svg width="24" height="24" viewBox="0 0 24 24" fill="none" xmlns="http://www.w3.org/2000/svg">
<path fill-rule="evenodd" clip-rule="evenodd" d="M12 3C14.8693 3 17.5279 3.5721 19.5068 4.55469C21.4285 5.5089 23 7.01725 23 9C23 13.2654 20.5401 17.0392 17 18.834V19C17 19.7957 16.6837 20.5585 16.1211 21.1211C15.5585 21.6837 14.7957 22 14 22C13.2043 22 12.4415 21.6837 11.8789 21.1211C11.5506 20.7928 11.3097 20.3952 11.1631 19.9639C5.49834 19.5328 1 14.7707 1 9C1 7.01725 2.57149 5.5089 4.49316 4.55469C6.47208 3.5721 9.13072 3 12 3ZM12 9C10.147 9 8.53767 9.31063 7.42969 9.78223C6.87437 10.0186 6.49143 10.2759 6.26172 10.5117C6.03879 10.7406 6 10.9031 6 11C6 11.149 6.11968 11.5126 6.90332 11.9541C7.64485 12.3718 8.76178 12.7195 10.1367 12.9092C10.1446 12.9103 10.1524 12.9118 10.1602 12.9131C11.6935 13.0865 13 14.3572 13 16V19C13 19.2652 13.1054 19.5195 13.293 19.707C13.4805 19.8946 13.7348 20 14 20C14.2652 20 14.5195 19.8946 14.707 19.707C14.8946 19.5195 15 19.2652 15 19V15.5996C15 15.5902 15.0009 15.5807 15.001 15.5713C15.0127 13.7827 16.1146 12.877 16.8916 12.2812C17.778 11.6017 18 11.4081 18 11C18 10.9031 17.9612 10.7406 17.7383 10.5117C17.5086 10.2759 17.1256 10.0186 16.5703 9.78223C15.4623 9.31063 13.853 9 12 9ZM4.04004 13.1816C5.4044 15.7587 7.98313 17.6035 11 17.9414V16C11 15.4676 10.5459 14.9534 9.90918 14.8955C9.90344 14.895 9.89733 14.8952 9.8916 14.8945C7.62962 14.6486 5.5911 14.05 4.04004 13.1816ZM19.9941 13.1406C19.4673 13.4383 18.8892 13.7032 18.2705 13.9277C17.9567 14.0534 17.6238 14.308 17.3721 14.6406C17.1195 14.9744 17.0001 15.3181 17 15.5996V16.5215C18.2527 15.6806 19.2896 14.5117 19.9941 13.1406ZM12 5C9.36937 5 7.0279 5.52835 5.38184 6.3457C3.67876 7.19146 3 8.1828 3 9C3 9.52695 3.29162 10.1394 4.0127 10.751C4.07975 10.1056 4.40276 9.55392 4.8291 9.11621C5.30246 8.63027 5.93853 8.2434 6.64551 7.94238C8.06251 7.3391 9.95324 7 12 7C14.0468 7 15.9375 7.3391 17.3545 7.94238C18.0615 8.2434 18.6975 8.63027 19.1709 9.11621C19.5925 9.54904 19.9124 10.0934 19.9844 10.7295C20.0574 10.6672 20.128 10.6061 20.1934 10.543C20.7779 9.97895 21 9.44738 21 9C21 8.1828 20.3212 7.19146 18.6182 6.3457C16.9721 5.52835 14.6306 5 12 5Z" fill="#E4F2F2"/>
</svg>
