<svg width="24" height="24" viewBox="0 0 24 24" fill="none" xmlns="http://www.w3.org/2000/svg">
<path fill-rule="evenodd" clip-rule="evenodd" d="M21.1914 1.41209C21.5162 0.965613 22.1413 0.866761 22.5879 1.19139C23.0345 1.51617 23.1332 2.14124 22.8086 2.58787L19.2705 7.45115C19.3542 7.49046 19.4372 7.5296 19.5186 7.57029C21.4343 8.52825 22.9999 10.0366 23 12C23 14.9173 21.8412 17.7154 19.7783 19.7783C17.7154 21.8412 14.9174 23 12 23C9.08262 23 6.28458 21.8412 4.22168 19.7783C2.15884 17.7154 1 14.9173 1 12C1.0001 10.0366 2.56571 8.52825 4.48145 7.57029C6.19457 6.71375 8.42205 6.16278 10.8633 6.03123L12.0352 1.73729C12.1805 1.20472 12.7301 0.890145 13.2627 1.03514C13.7953 1.1804 14.1098 1.73004 13.9648 2.26268L12.9395 6.02147C14.5134 6.09134 16.0021 6.33654 17.3271 6.72459L21.1914 1.41209ZM19.9629 16.1914C19.817 16.2736 19.6694 16.3542 19.5186 16.4297C17.5428 17.4176 14.883 18 12 18C9.11699 18 6.45721 17.4176 4.48145 16.4297C4.33036 16.3541 4.18226 16.2737 4.03613 16.1914C4.45356 16.9848 4.99019 17.7187 5.63574 18.3642C7.32357 20.0521 9.61305 21 12 21C14.3869 21 16.6764 20.0521 18.3643 18.3642C19.0097 17.7188 19.5455 16.9846 19.9629 16.1914ZM10.9648 13.2627C10.8196 13.7954 10.27 14.1099 9.7373 13.9648C9.20465 13.8195 8.89012 13.27 9.03516 12.7373L10.3057 8.07615C8.36424 8.25107 6.65797 8.71838 5.37598 9.35936C3.67301 10.2109 3.00011 11.2022 3 12C3 12.7978 3.67294 13.789 5.37598 14.6406C7.0195 15.4624 9.36016 16 12 16C14.6398 16 16.9805 15.4624 18.624 14.6406C20.3271 13.789 21 12.7978 21 12C20.9999 11.2022 20.327 10.2109 18.624 9.35936C18.4469 9.27082 18.2611 9.18707 18.0684 9.10545L14.8086 13.5879C14.4838 14.0345 13.8588 14.1333 13.4121 13.8086C12.9656 13.4837 12.8667 12.8587 13.1914 12.4121L16.0664 8.45799C14.9603 8.19417 13.7204 8.03211 12.3984 8.00486L10.9648 13.2627Z" fill="#E4F2F2"/>
</svg>
