<svg width="24" height="24" viewBox="0 0 24 24" fill="none" xmlns="http://www.w3.org/2000/svg">
<path fill-rule="evenodd" clip-rule="evenodd" d="M18.1982 1.00488C19.1869 1.05393 20.1249 1.46862 20.8281 2.17188C21.5782 2.92201 22 3.93916 22 5C22 5.99704 21.6489 6.69035 21.4141 7.21875C21.1889 7.72528 21 8.20156 21 9C21 10.0029 21.3989 10.9347 21.9141 12.0938C22.3989 13.1846 23 14.503 23 16C23 17.5099 22.4316 19.1638 21.9199 20.3662C21.6574 20.9831 21.3958 21.5139 21.1992 21.8906C21.1008 22.0793 21.0177 22.2306 20.959 22.3359C20.9297 22.3885 20.9062 22.4302 20.8897 22.459C20.8815 22.4731 20.8748 22.4842 20.8701 22.4922C20.8678 22.4962 20.8657 22.4995 20.8643 22.502C20.8637 22.5029 20.8637 22.5042 20.8633 22.5049L20.8623 22.5059C20.6827 22.8113 20.3543 23 20 23H15.9004C15.5383 23 15.2041 22.8042 15.0273 22.4883L15.0264 22.4873C15.026 22.4866 15.025 22.4845 15.0244 22.4834C15.0231 22.4811 15.0217 22.4775 15.0195 22.4736C15.0151 22.4656 15.0088 22.4538 15.001 22.4395C14.9853 22.4107 14.9624 22.3699 14.9346 22.3174C14.8788 22.2122 14.8005 22.0606 14.707 21.8721C14.5205 21.4957 14.2715 20.9657 14.0225 20.3496C13.5363 19.1469 13 17.4996 13 16C13 14.5029 13.6011 13.1847 14.0859 12.0938C14.6011 10.9347 15 10.0029 15 9C15 8.20158 14.8111 7.72526 14.5859 7.21875C14.3511 6.69035 14 5.99706 14 5C14 3.93913 14.4217 2.92202 15.1719 2.17188C15.922 1.42177 16.9392 1 18 1L18.1982 1.00488ZM16.9131 10C16.7298 11.089 16.2878 12.0653 15.9141 12.9062C15.3989 14.0653 15 14.9971 15 16C15 17.1003 15.4132 18.4533 15.877 19.6006C16.1028 20.1593 16.3294 20.6421 16.499 20.9844C16.5016 20.9896 16.5043 20.9948 16.5068 21H19.4072C19.4132 20.9887 19.4197 20.9775 19.4258 20.9658C19.6042 20.6238 19.8426 20.141 20.0801 19.583C20.5683 18.4356 21 17.0898 21 16C21 14.9971 20.6011 14.0653 20.0859 12.9062C19.7122 12.0653 19.2702 11.089 19.0869 10H16.9131ZM18 3C17.4696 3 16.961 3.2109 16.5859 3.58594C16.2109 3.96101 16 4.46957 16 5C16 5.50294 16.1489 5.80965 16.4141 6.40625C16.6039 6.83336 16.808 7.33503 16.918 8H19.082C19.192 7.33503 19.3961 6.83336 19.5859 6.40625C19.8511 5.80968 20 5.50292 20 5C20 4.46959 19.7891 3.961 19.4141 3.58594C19.0858 3.25768 18.6552 3.05517 18.1973 3.00977L18 3Z" fill="#E4F2F2"/>
<path d="M7.38672 5.39746C8.62711 5.01617 9.93542 4.90747 11.2217 5.0791C11.7691 5.15218 12.1541 5.6557 12.0811 6.20312C12.0076 6.75013 11.5042 7.13456 10.957 7.06152C9.95674 6.92807 8.93924 7.01211 7.97461 7.30859C7.00983 7.6052 6.11989 8.1078 5.36719 8.78027C4.61476 9.45267 4.01618 10.2799 3.61328 11.2051C3.21038 12.1304 3.01181 13.1325 3.03223 14.1416C3.0527 15.1505 3.2915 16.1436 3.73145 17.0518C4.17157 17.9601 4.80372 18.7628 5.58301 19.4043C6.3623 20.0457 7.27111 20.5113 8.24707 20.7686C9.22299 21.0258 10.2431 21.0694 11.2373 20.8955C11.7813 20.8003 12.2993 21.164 12.3945 21.708C12.4895 22.2519 12.126 22.7701 11.582 22.8652C10.3038 23.0888 8.99209 23.0339 7.73731 22.7031C6.4824 22.3723 5.31352 21.773 4.31153 20.9482C3.30967 20.1235 2.49748 19.0916 1.93164 17.9238C1.36592 16.7561 1.05951 15.479 1.03321 14.1816C1.00702 12.8846 1.26146 11.5967 1.7793 10.4072C2.29741 9.21742 3.06744 8.15272 4.03516 7.28809C5.00286 6.42359 6.14641 5.77878 7.38672 5.39746Z" fill="#E4F2F2"/>
<path d="M10.0098 13C10.562 13.0001 11.0098 13.4478 11.0098 14C11.0098 14.5522 10.562 14.9999 10.0098 15H10C9.44772 15 9 14.5523 9 14C9 13.4477 9.44772 13 10 13H10.0098Z" fill="#E4F2F2"/>
<path d="M6.00977 12C6.562 12.0001 7.00977 12.4478 7.00977 13C7.00977 13.5522 6.562 13.9999 6.00977 14H6C5.44772 14 5 13.5523 5 13C5 12.4477 5.44772 12 6 12H6.00977Z" fill="#E4F2F2"/>
<path d="M9.00977 9C9.562 9.00006 10.0098 9.44775 10.0098 10C10.0098 10.5522 9.562 10.9999 9.00977 11H9C8.44772 11 8 10.5523 8 10C8 9.44771 8.44772 9 9 9H9.00977Z" fill="#E4F2F2"/>
</svg>
