<svg width="24" height="24" viewBox="0 0 24 24" fill="none" xmlns="http://www.w3.org/2000/svg">
<path fill-rule="evenodd" clip-rule="evenodd" d="M12 1.00195C12.5249 1.00195 13.0401 1.14067 13.4951 1.40234L13.4961 1.40137L20.4961 5.40137L20.5 5.4043L20.667 5.50781C21.0483 5.76265 21.3673 6.10243 21.5977 6.50098C21.8608 6.95632 21.9994 7.47313 22 7.99902V16.001C21.9995 16.5269 21.8608 17.0436 21.5977 17.499C21.3344 17.9544 20.9555 18.3327 20.5 18.5957L20.4961 18.5986L13.4961 22.5986L13.4951 22.5977C13.0712 22.8414 12.595 22.9765 12.1074 22.9941C12.0721 22.9979 12.0363 23 12 23C11.9634 23 11.9272 22.998 11.8916 22.9941C11.4041 22.9764 10.9277 22.8415 10.5039 22.5977L3.50391 18.5986L3.5 18.5957C3.04446 18.3327 2.66559 17.9544 2.40234 17.499C2.1392 17.0436 2.00055 16.5269 2 16.001V7.99902L2.00684 7.80176C2.03743 7.34452 2.1722 6.89927 2.40234 6.50098C2.66559 6.0456 3.0445 5.66732 3.5 5.4043L3.50391 5.40137L10.5039 1.40137C10.9591 1.13942 11.4748 1.00195 12 1.00195ZM4 15.999L4.00879 16.1299C4.02601 16.2591 4.06818 16.3844 4.13379 16.498C4.22076 16.6485 4.34604 16.7738 4.49609 16.8613L11 20.5771V12.5781L4 8.55566V15.999ZM13 12.5781V20.5771L19.5039 16.8613C19.654 16.7738 19.7792 16.6485 19.8662 16.498C19.9536 16.3467 19.9996 16.1748 20 16V8.55566L13 12.5781ZM12 3.00195C11.8245 3.00195 11.652 3.04802 11.5 3.13574L11.4961 3.1377L5.02148 6.83594L11.999 10.8457L18.9766 6.83594L12.5039 3.1377L12.5 3.13574C12.348 3.04802 12.1755 3.00195 12 3.00195Z" fill="#E4F2F2"/>
</svg>
