<svg width="24" height="24" viewBox="0 0 24 24" fill="none" xmlns="http://www.w3.org/2000/svg">
<path fill-rule="evenodd" clip-rule="evenodd" d="M8.00095 2C8.55287 2.00043 9.00095 2.44798 9.00095 3V10H15.001V3C15.001 2.44772 15.4487 2 16.001 2H20.001C20.5529 2.00043 21.001 2.44798 21.001 3V13.082C21.6872 13.6258 22.2216 14.3435 22.5459 15.1641C22.9413 16.1649 23.0033 17.2668 22.7226 18.3057C22.4418 19.3447 21.8332 20.2662 20.9873 20.9316C20.1414 21.597 19.1022 21.9717 18.0263 22H5.97458C4.89868 21.9718 3.85961 21.597 3.01365 20.9316C2.16772 20.2662 1.55913 19.3447 1.2783 18.3057C0.99759 17.2668 1.05963 16.1649 1.45505 15.1641C1.77945 14.3432 2.31437 13.6259 3.00095 13.082V3C3.00095 2.44772 3.44867 2 4.00095 2H8.00095ZM5.00095 13.5996C5.00095 13.9459 4.82071 14.2679 4.52634 14.4502C3.97742 14.79 3.55276 15.2981 3.3154 15.8984C3.07806 16.4991 3.04047 17.1607 3.20896 17.7842C3.37747 18.4076 3.74338 18.9601 4.25095 19.3594C4.75836 19.7584 5.38109 19.983 6.02634 20H14.5859L7.29294 12.707C7.10558 12.5195 7.00095 12.2651 7.00095 12V11.0205C7.00081 11.0137 6.99997 11.0069 6.99997 11C6.99997 10.9931 7.00081 10.9863 7.00095 10.9795V4H5.00095V13.5996ZM17.001 12C17.001 12.265 16.8953 12.5195 16.708 12.707L13.415 16L17.415 20H17.9746C18.6198 19.9829 19.2426 19.7584 19.75 19.3594C20.2575 18.9601 20.6235 18.4075 20.792 17.7842C20.9604 17.1608 20.9228 16.499 20.6855 15.8984C20.4482 15.2981 20.0234 14.79 19.4746 14.4502C19.1801 14.2679 19.001 13.946 19.001 13.5996V4H17.001V12ZM9.41501 12L12 14.585L14.5859 12H9.41501Z" fill="#E4F2F2"/>
</svg>
