<svg width="24" height="24" viewBox="0 0 24 24" fill="none" xmlns="http://www.w3.org/2000/svg">
<path fill-rule="evenodd" clip-rule="evenodd" d="M14.2197 1.07766C14.8215 0.957966 15.4425 0.978433 16.0351 1.13723C16.6278 1.29603 17.1764 1.58912 17.6377 1.99367C18.0987 2.39815 18.4606 2.9036 18.6953 3.47024C18.8188 3.76857 18.9037 4.07991 18.9521 4.39699C19.4182 4.59454 19.8535 4.86115 20.2412 5.19094C20.8189 5.68248 21.2768 6.2998 21.581 6.99465C21.8851 7.68949 22.0278 8.4448 21.9971 9.20266C21.9768 9.70016 21.8801 10.1897 21.7158 10.6568C22.0932 11.0763 22.4003 11.5591 22.6191 12.0874C23.0401 13.1041 23.1139 14.2315 22.8291 15.2945C22.5442 16.3573 21.9169 17.2974 21.0439 17.9673C21.0289 17.9788 21.0131 17.9892 20.998 18.0005C20.9974 18.4653 20.9337 18.9287 20.8047 19.3775C20.6158 20.0342 20.2946 20.6458 19.8603 21.1734C19.426 21.701 18.8875 22.1342 18.2793 22.4458C17.6713 22.7572 17.0059 22.9406 16.3242 22.9849C15.6422 23.0291 14.9578 22.933 14.3144 22.7027C13.6712 22.4723 13.0818 22.1129 12.583 21.646C12.3691 21.4457 12.1748 21.226 12 20.9927C11.8251 21.2261 11.6309 21.4457 11.417 21.646C10.9182 22.1129 10.3288 22.4723 9.68553 22.7027C9.0421 22.933 8.35776 23.0291 7.67577 22.9849C6.99411 22.9406 6.32868 22.7572 5.72069 22.4458C5.1125 22.1342 4.57395 21.701 4.13963 21.1734C3.70539 20.6458 3.3842 20.0341 3.1953 19.3775C3.06627 18.9287 3.00259 18.4653 3.00194 18.0005C2.98684 17.9892 2.97102 17.9788 2.95604 17.9673C2.083 17.2973 1.45482 16.3574 1.16991 15.2945C0.88521 14.2316 0.959915 13.104 1.38084 12.0874C1.59955 11.5594 1.90608 11.0762 2.28319 10.6568C2.11894 10.1898 2.02317 9.70004 2.00291 9.20266C1.97214 8.44483 2.11485 7.68947 2.41893 6.99465C2.72311 6.29984 3.18112 5.68246 3.75877 5.19094C4.14615 4.86139 4.58119 4.5945 5.04686 4.39699C5.09527 4.07987 5.18115 3.76861 5.30467 3.47024C5.53934 2.90365 5.90132 2.39813 6.36229 1.99367C6.82353 1.58916 7.37225 1.29605 7.96483 1.13723C8.55746 0.978433 9.17851 0.957966 9.78026 1.07766C10.382 1.19736 10.9488 1.45316 11.4355 1.82668C11.6414 1.9847 11.8295 2.16346 12 2.35695C12.1705 2.1635 12.3586 1.98468 12.5644 1.82668C13.0512 1.45319 13.618 1.19738 14.2197 1.07766ZM9.39061 3.03859C9.08973 2.97874 8.77873 2.98947 8.48241 3.06887C8.1863 3.14825 7.91215 3.29452 7.68163 3.4966C7.4512 3.69877 7.26968 3.95169 7.15233 4.23488C7.03507 4.51818 6.98383 4.82542 7.00389 5.13137C7.02402 5.43723 7.11432 5.73503 7.26756 6.00051C7.54344 6.47868 7.38035 7.09056 6.90233 7.36672C6.4242 7.6426 5.81232 7.47845 5.53612 7.00051C5.44739 6.84684 5.36997 6.68712 5.30272 6.52395C5.21694 6.58267 5.1342 6.64672 5.05467 6.71438C4.7082 7.00925 4.43343 7.37963 4.25096 7.79641C4.06852 8.21329 3.98347 8.66692 4.00194 9.1216C4.00766 9.2616 4.02385 9.40053 4.04881 9.53762C4.37679 9.55393 4.68984 9.73123 4.8662 10.0366C5.142 10.5149 4.97811 11.1268 4.49999 11.4029C3.92829 11.7331 3.48114 12.2431 3.2285 12.853C2.9761 13.4629 2.93172 14.1393 3.10252 14.7769C3.27349 15.4146 3.65003 15.9784 4.17381 16.3804C4.69764 16.7823 5.33973 17.0004 5.99999 17.0005C6.55215 17.0006 6.99991 17.4483 6.99999 18.0005C6.9997 18.5525 6.55201 19.0004 5.99999 19.0005C5.71304 19.0005 5.42827 18.9747 5.14842 18.9263C5.26436 19.2817 5.44567 19.6127 5.68358 19.9019C5.94408 20.2183 6.26706 20.4786 6.63182 20.6655C6.99673 20.8525 7.3965 20.9632 7.80565 20.9898C8.21485 21.0163 8.62565 20.9581 9.0117 20.8198C9.39759 20.6816 9.75154 20.4662 10.0508 20.1861C10.35 19.9059 10.5886 19.567 10.7519 19.1909C10.9152 18.8149 10.9995 18.4086 11 17.9986V13.0796C10.4899 13.4757 9.90786 13.777 9.28026 13.9605C8.7504 14.1151 8.19505 13.8105 8.04002 13.2808C7.8853 12.7508 8.18983 12.1955 8.71971 12.0405C9.37719 11.8483 9.95513 11.4479 10.3662 10.8999C10.7258 10.4204 10.9407 9.84946 10.9892 9.25539L11 8.99953V5.00051C11 4.69389 10.9295 4.39077 10.7939 4.11574C10.6583 3.84072 10.461 3.60031 10.2178 3.41359C9.97447 3.2269 9.69137 3.09848 9.39061 3.03859ZM15.5176 3.06887C15.2212 2.98947 14.9102 2.97874 14.6094 3.03859C14.3087 3.09849 14.0255 3.22694 13.7822 3.41359C13.539 3.60029 13.3417 3.84077 13.206 4.11574C13.1043 4.32211 13.0388 4.54456 13.0127 4.77199L13 5.00051V8.99953L13.0107 9.25539C13.0592 9.84946 13.2742 10.4204 13.6338 10.8999C14.0448 11.4479 14.6227 11.8483 15.2803 12.0405C15.8103 12.1955 16.1147 12.7508 15.9599 13.2808C15.8049 13.8106 15.2496 14.1152 14.7197 13.9605C14.0921 13.777 13.5101 13.4758 13 13.0796V17.9986C13.0004 18.4085 13.0848 18.8149 13.248 19.1909C13.4113 19.5669 13.65 19.9059 13.9492 20.1861C14.2484 20.4662 14.6024 20.6816 14.9883 20.8198C15.3743 20.9581 15.7851 21.0163 16.1943 20.9898C16.6035 20.9632 17.0032 20.8525 17.3681 20.6655C17.733 20.4786 18.0559 20.2184 18.3164 19.9019C18.5543 19.6128 18.7346 19.2816 18.8506 18.9263C18.5711 18.9745 18.2866 19.0005 18 19.0005C17.4479 19.0005 17.0003 18.5525 17 18.0005C17.0001 17.4483 17.4478 17.0006 18 17.0005C18.6602 17.0005 19.3023 16.7823 19.8262 16.3804C20.3499 15.9785 20.7265 15.4145 20.8974 14.7769C21.0682 14.1393 21.0239 13.4629 20.7715 12.853C20.5188 12.243 20.0717 11.7331 19.5 11.4029C19.0219 11.1268 18.858 10.5148 19.1338 10.0366C19.3099 9.73161 19.6227 9.55434 19.9502 9.53762C19.9752 9.40047 19.9923 9.26167 19.998 9.1216C20.0165 8.66689 19.9315 8.21331 19.749 7.79641C19.5665 7.37958 19.2918 7.00926 18.9453 6.71438C18.8655 6.64651 18.7823 6.58283 18.6963 6.52395C18.6291 6.68697 18.5525 6.84696 18.4639 7.00051C18.1876 7.47843 17.5758 7.6427 17.0976 7.36672C16.6196 7.09058 16.4566 6.47867 16.7324 6.00051C16.8856 5.73504 16.9759 5.43723 16.9961 5.13137C17.0161 4.82539 16.9649 4.5182 16.8476 4.23488C16.7303 3.95165 16.5488 3.69878 16.3183 3.4966C16.0878 3.29448 15.8137 3.14824 15.5176 3.06887Z" fill="#E4F2F2"/>
</svg>
