<svg width="24" height="24" viewBox="0 0 24 24" fill="none" xmlns="http://www.w3.org/2000/svg">
<path fill-rule="evenodd" clip-rule="evenodd" d="M12.6069 7.92187C12.8187 7.41184 13.4045 7.1692 13.9146 7.38085C14.4243 7.59257 14.6659 8.17761 14.4546 8.68749L14.4058 8.80371C14.7041 9.02864 14.9698 9.29453 15.1948 9.59277L15.312 9.54492C15.822 9.3336 16.4071 9.57598 16.6187 10.0859C16.8299 10.5958 16.5883 11.1808 16.0786 11.3926L15.9595 11.4414C15.985 11.6239 15.9995 11.8104 15.9995 12C15.9995 12.189 15.9848 12.3746 15.9595 12.5566L16.0786 12.6064C16.5885 12.8182 16.8301 13.4041 16.6187 13.9141C16.4069 14.4239 15.822 14.6655 15.312 14.4541L15.1948 14.4053C14.9696 14.704 14.7036 14.9701 14.4048 15.1953L14.4536 15.3135C14.6646 15.8238 14.4219 16.408 13.9116 16.6191C13.4013 16.83 12.8169 16.5875 12.606 16.0771L12.5571 15.96C12.3749 15.9854 12.1887 16 11.9995 16C11.8099 16 11.6235 15.9855 11.4409 15.96L11.3931 16.0781C11.1814 16.5878 10.5963 16.8293 10.0864 16.6182C9.57643 16.4065 9.33399 15.8216 9.54542 15.3115L9.59327 15.1943C9.29498 14.9693 9.02917 14.7036 8.80421 14.4053L8.688 14.4541C8.17805 14.6655 7.59305 14.4239 7.38136 13.9141C7.16977 13.404 7.4123 12.8181 7.92237 12.6064L8.03858 12.5576C8.01315 12.3754 7.99953 12.1892 7.99952 12C7.99952 11.8102 8.01301 11.6232 8.03858 11.4404L7.92237 11.3926C7.41241 11.181 7.17002 10.5959 7.38136 10.0859C7.59302 9.57607 8.17804 9.3336 8.688 9.54492L8.80421 9.59277C9.0292 9.29454 9.295 9.02865 9.59327 8.80371L9.54542 8.68749C9.33408 8.17749 9.57647 7.59246 10.0864 7.38085C10.5963 7.16982 11.1815 7.41205 11.3931 7.92187L11.4409 8.03906C11.6235 8.01353 11.8099 8.00001 11.9995 7.99999C12.189 7.99999 12.3756 8.01357 12.5581 8.03906L12.6069 7.92187ZM11.9995 10C10.8951 10.0001 9.99952 10.8955 9.99952 12C9.99962 12.8271 10.5022 13.5365 11.2183 13.8408C11.224 13.8431 11.2301 13.8453 11.2358 13.8477C11.2372 13.8482 11.2384 13.849 11.2398 13.8496C11.4741 13.946 11.7305 14 11.9995 14C13.104 14 13.9994 13.1045 13.9995 12C13.9995 10.8954 13.1041 10 11.9995 10Z" fill="#E4F2F2"/>
<path fill-rule="evenodd" clip-rule="evenodd" d="M7.41065 1.32617C8.22545 0.973438 9.13465 0.902254 9.99464 1.12304C10.7738 1.32321 11.4715 1.75453 12.0005 2.35546C12.1709 2.16217 12.3592 1.98404 12.5649 1.82617C13.0516 1.4528 13.6177 1.19588 14.2192 1.07617C14.8209 0.956514 15.4431 0.976953 16.0357 1.13574C16.628 1.29455 17.1761 1.58783 17.6372 1.99218C18.0984 2.39668 18.461 2.902 18.6958 3.46874C18.8194 3.76722 18.9042 4.07905 18.9526 4.39648C19.4188 4.5943 19.854 4.86145 20.2417 5.1914C20.8194 5.68308 21.2775 6.30012 21.5816 6.99511C21.8856 7.69011 22.0276 8.44517 21.9966 9.20312C21.9762 9.70031 21.8804 10.1895 21.7163 10.6562C21.9783 10.9475 22.207 11.2701 22.396 11.6191C22.9479 12.6383 23.1282 13.8174 22.9067 14.9551C22.6852 16.0928 22.0752 17.1187 21.1812 17.8564C21.1225 17.9048 21.062 17.9506 21.0015 17.9961C21.0027 18.9287 20.7431 19.8478 20.2456 20.6465C19.634 21.6282 18.7005 22.3673 17.605 22.7383C16.5093 23.1092 15.3181 23.089 14.2358 22.6807C13.3415 22.3431 12.5675 21.7567 11.9995 20.998C11.4314 21.757 10.6569 22.3431 9.76221 22.6807C8.67993 23.0889 7.48966 23.1093 6.39405 22.7383C5.29841 22.3671 4.36491 21.6275 3.75343 20.6455C3.25664 19.8475 2.99684 18.9295 2.99757 17.998C2.93736 17.9529 2.87718 17.9074 2.81886 17.8594C1.92292 17.1214 1.31112 16.0944 1.08936 14.9551C0.867676 13.8157 1.0493 12.6343 1.60304 11.6143C1.7919 11.2664 2.02034 10.9446 2.28175 10.6543C2.11818 10.1882 2.02277 9.69952 2.00245 9.20312C1.97146 8.44502 2.11335 7.68925 2.41749 6.99414C2.72162 6.29911 3.18054 5.6821 3.75831 5.19042C4.14544 4.86106 4.58019 4.59494 5.04542 4.39746C5.11573 3.93479 5.26641 3.48591 5.49366 3.07226C5.92102 2.29379 6.59574 1.67914 7.41065 1.32617ZM9.49757 3.05957C9.06759 2.94915 8.61297 2.98577 8.20557 3.1621C7.84907 3.31652 7.54578 3.57065 7.33253 3.89257L7.24659 4.03515C7.0707 4.35531 6.98607 4.71804 7.00147 5.083C7.0016 5.08593 7.00138 5.08887 7.00147 5.09179C7.01639 5.4112 7.10704 5.72308 7.2671 5.99999C7.54324 6.47811 7.37992 7.08989 6.90186 7.36621C6.4238 7.64213 5.81193 7.47793 5.53565 6.99999C5.4468 6.84624 5.36959 6.68665 5.30225 6.52343C5.2164 6.58228 5.13381 6.64613 5.05421 6.71386C4.70763 7.0088 4.43298 7.37899 4.2505 7.79589C4.06803 8.21294 3.98289 8.66625 4.00147 9.12109C4.00536 9.21605 4.01413 9.3105 4.02686 9.40429C4.05956 9.39027 4.09245 9.37662 4.1255 9.36328C4.63753 9.15668 5.22049 9.40498 5.42725 9.91699C5.63357 10.4289 5.38636 11.012 4.87452 11.2187C4.22874 11.4795 3.69317 11.9563 3.36085 12.5684C3.02859 13.1804 2.92022 13.8896 3.05323 14.5732C3.18635 15.2567 3.55289 15.8727 4.09034 16.3154C4.62792 16.7582 5.30307 17.0004 5.99952 17C6.55153 16.9998 6.99898 17.447 6.99952 17.999C6.99969 18.5511 6.55263 18.9996 6.0005 19C5.71178 19.0002 5.42536 18.9745 5.14405 18.9258C5.21869 19.1565 5.32083 19.3792 5.45069 19.5879C5.81756 20.1771 6.37829 20.621 7.03565 20.8437C7.69291 21.0663 8.40689 21.0544 9.05616 20.8096C9.70565 20.5645 10.2506 20.1015 10.5972 19.5L10.5982 19.498C10.7869 19.1722 11.074 18.993 11.3023 18.8994C11.5359 18.8037 11.7797 18.7666 11.9995 18.7666C12.2193 18.7666 12.4632 18.8037 12.6968 18.8994C12.925 18.993 13.2121 19.1723 13.4009 19.498L13.4019 19.5C13.7483 20.1012 14.2927 20.5645 14.9419 20.8096C15.5913 21.0546 16.306 21.0663 16.9634 20.8437C17.6207 20.6212 18.1804 20.1778 18.5474 19.5889C18.6777 19.3797 18.7792 19.1562 18.854 18.9248C18.5753 18.9732 18.2914 18.9996 18.0054 19C17.4535 19.0003 17.0052 18.5529 17.0044 18.001C17.0038 17.4489 17.4514 17.0009 18.0034 17C18.6987 16.999 19.3724 16.7559 19.9087 16.3135C20.4449 15.8709 20.8109 15.2557 20.9439 14.5732C21.0767 13.8906 20.9684 13.1828 20.6372 12.5713C20.306 11.9598 19.7726 11.4824 19.1284 11.2207C18.6171 11.0129 18.3703 10.4294 18.5776 9.91796C18.7854 9.40648 19.3688 9.15982 19.8804 9.36718C19.9109 9.37956 19.941 9.39329 19.9712 9.40625C19.9842 9.31174 19.9946 9.21678 19.9985 9.12109C20.0171 8.66638 19.9319 8.21283 19.7495 7.79589C19.5671 7.37903 19.2923 7.00879 18.9458 6.71386C18.866 6.64593 18.7829 6.58234 18.6968 6.52343C18.6295 6.68662 18.5531 6.84633 18.4644 6.99999C18.1883 7.47811 17.5764 7.64197 17.0982 7.36621C16.62 7.09009 16.456 6.47824 16.7319 5.99999C16.8853 5.73444 16.9755 5.43682 16.9956 5.13085C17.0157 4.82482 16.9655 4.51773 16.8482 4.23437C16.7308 3.95104 16.5494 3.69833 16.3189 3.49609C16.0883 3.29392 15.8142 3.14681 15.5181 3.06738C15.2218 2.988 14.9107 2.97829 14.6099 3.03808C14.3091 3.09791 14.0261 3.22642 13.7827 3.41308C13.5394 3.59982 13.3422 3.84012 13.2066 4.11523C13.0709 4.39038 13.0005 4.69321 13.0005 4.99999C12.9998 5.55187 12.5514 6.0001 11.9995 5.99999C11.4475 5.99971 11.0006 5.55197 11.0005 4.99999C11.0009 4.55595 10.8525 4.12349 10.5806 3.77246C10.3086 3.42145 9.92764 3.17008 9.49757 3.05957Z" fill="#E4F2F2"/>
</svg>
