<svg width="24" height="24" viewBox="0 0 24 24" fill="none" xmlns="http://www.w3.org/2000/svg">
<path fill-rule="evenodd" clip-rule="evenodd" d="M8.91601 0.992201C9.44914 0.981089 9.97994 1.07677 10.4756 1.27345C10.9712 1.47017 11.4223 1.76408 11.8027 2.13771C12.1831 2.51135 12.4849 2.95725 12.6904 3.44923C12.8956 3.94038 13.0012 4.46776 13 5.00001V7.00001H15V5.00001C15 4.2044 15.3163 3.44152 15.8789 2.87892C16.1105 2.64732 16.3772 2.45966 16.665 2.31642C16.9136 1.83179 17.4179 1.50004 18 1.50001C18.8284 1.50001 19.5 2.17159 19.5 3.00001C19.4999 3.82839 18.8284 4.50001 18 4.50001C17.7367 4.5 17.4895 4.43167 17.2744 4.31251C17.0987 4.49799 17 4.74383 17 5.00001V7.00001H18.8848C19.1594 6.69391 19.5564 6.50003 20 6.50001C20.8284 6.50001 21.5 7.17159 21.5 8.00001C21.4999 8.82839 20.8284 9.50001 20 9.50001C19.5565 9.5 19.1594 9.30604 18.8848 9.00001H13V12H14.8848C15.1594 11.6939 15.5564 11.5 16 11.5C16.8284 11.5 17.5 12.1716 17.5 13C17.4999 13.8284 16.8284 14.5 16 14.5C15.5565 14.5 15.1594 14.306 14.8848 14H13V17H18C18.7956 17 19.5585 17.3163 20.1211 17.8789C20.6551 18.4129 20.9628 19.1273 20.9932 19.8789C21.3031 20.1537 21.5 20.5532 21.5 21C21.4999 21.8284 20.8284 22.5 20 22.5C19.1716 22.5 18.5001 21.8284 18.5 21C18.5 20.5595 18.6908 20.1641 18.9932 19.8897C18.9682 19.6651 18.8684 19.4543 18.707 19.293C18.5195 19.1054 18.2652 19 18 19H12.8975C12.8281 19.338 12.7241 19.6692 12.5859 19.9873C12.3137 20.614 11.9158 21.1785 11.417 21.6455C10.9182 22.1125 10.3288 22.4728 9.68554 22.7031C9.04218 22.9335 8.35769 23.0296 7.67578 22.9854C6.99395 22.9411 6.32784 22.7578 5.71972 22.4463C5.11163 22.1347 4.57392 21.7013 4.13964 21.1738C3.70531 20.6462 3.38327 20.0347 3.19433 19.3779C3.06521 18.929 3.00138 18.465 3.00097 18C2.52488 17.6432 2.11423 17.2038 1.79101 16.7002C1.35105 16.0147 1.08512 15.2316 1.0166 14.4199C0.948143 13.6084 1.07972 12.7924 1.39843 12.043C1.61511 11.5336 1.91539 11.0662 2.2832 10.6572C2.11891 10.19 2.02317 9.69988 2.00293 9.20216C1.97214 8.44426 2.11479 7.68903 2.41894 6.99415C2.72314 6.29929 3.18107 5.68198 3.75878 5.19044C4.14531 4.86162 4.57955 4.59582 5.04394 4.39845C5.08443 4.12827 5.15288 3.86204 5.24804 3.60451C5.43287 3.10445 5.71569 2.64599 6.08007 2.25685C6.44456 1.86768 6.88413 1.55511 7.37109 1.3379C7.85782 1.12091 8.38322 1.0034 8.91601 0.992201ZM8.958 2.99122C8.69157 2.99683 8.42893 3.05652 8.18554 3.16505C7.94211 3.27365 7.72225 3.42949 7.54003 3.62404C7.35788 3.81859 7.21642 4.04787 7.12402 4.29787C7.03168 4.5478 6.99011 4.8139 7.00195 5.08009V5.084C7.01515 5.40645 7.10648 5.72135 7.26757 6.00099C7.54303 6.4794 7.37861 7.09048 6.90039 7.36622C6.42186 7.64179 5.80984 7.47752 5.53417 6.99904C5.44596 6.84589 5.36958 6.68692 5.30273 6.52443C5.2171 6.58307 5.13409 6.64633 5.05468 6.71388C4.70817 7.00875 4.43346 7.37911 4.25097 7.79591C4.06849 8.21283 3.9825 8.66637 4.00097 9.12111C4.00616 9.24846 4.01977 9.375 4.04101 9.50001C4.39946 9.49277 4.75034 9.6794 4.93652 10.0147C5.20419 10.4973 5.03026 11.1059 4.54785 11.374C4.39338 11.4598 4.24638 11.5594 4.10937 11.6709C4.10546 11.6741 4.10062 11.6766 4.09667 11.6797C3.72256 11.9866 3.42775 12.3798 3.23828 12.8252C3.04703 13.2749 2.96866 13.765 3.00976 14.252C3.05089 14.739 3.21064 15.2088 3.4746 15.6201C3.73856 16.0313 4.0989 16.3721 4.52441 16.6123C4.52641 16.6135 4.52827 16.6151 4.53027 16.6162C4.97898 16.868 5.48542 17.0003 6 17C6.55209 17 6.99974 17.4479 7 18C6.99994 18.5519 6.55286 18.9995 6.00097 19C5.71408 19.0001 5.42912 18.9722 5.14843 18.9238C5.26438 19.2802 5.44502 19.6125 5.68359 19.9024C5.94417 20.2189 6.26694 20.4791 6.63183 20.666C6.99672 20.853 7.39654 20.9627 7.80566 20.9893C8.21461 21.0158 8.62489 20.9584 9.01074 20.8203C9.39669 20.6821 9.75051 20.4657 10.0498 20.1856C10.3491 19.9054 10.5886 19.5665 10.7519 19.1904C10.915 18.8148 10.9994 18.4095 11 18V12.9981C10.5053 13.4055 9.94293 13.7284 9.33203 13.9434C8.81114 14.1266 8.23999 13.8529 8.05664 13.332C7.87339 12.8111 8.14713 12.24 8.66796 12.0567C9.32079 11.827 9.89133 11.409 10.3066 10.8555C10.7176 10.3075 10.9585 9.65024 11 8.96681V4.99708C11.0008 4.73064 10.9483 4.4666 10.8457 4.22072C10.7429 3.97469 10.5916 3.75131 10.4014 3.56447C10.2111 3.37763 9.98513 3.2302 9.7373 3.13185C9.48962 3.03364 9.2244 2.98567 8.958 2.99122Z" fill="#E4F2F2"/>
</svg>
