<svg width="24" height="24" viewBox="0 0 24 24" fill="none" xmlns="http://www.w3.org/2000/svg">
<path d="M12 10C12.5523 10 13 10.4477 13 11V13H15C15.5523 13 16 13.4477 16 14C16 14.5523 15.5523 15 15 15H13V17C13 17.5523 12.5523 18 12 18C11.4477 18 11 17.5523 11 17V15H9C8.44772 15 8 14.5523 8 14C8 13.4477 8.44772 13 9 13H11V11C11 10.4477 11.4477 10 12 10Z" fill="#E4F2F2"/>
<path fill-rule="evenodd" clip-rule="evenodd" d="M14 2C14.7956 2 15.5585 2.3163 16.1211 2.87891C16.6837 3.44151 17 4.20435 17 5V6H20C21.6569 6 23 7.34315 23 9V19C23 20.6569 21.6569 22 20 22H4C2.34315 22 1 20.6569 1 19V9C1 7.34315 2.34315 6 4 6H7V5C7 4.20435 7.3163 3.44151 7.87891 2.87891C8.44152 2.3163 9.20435 2 10 2H14ZM4 8C3.44772 8 3 8.44772 3 9V19C3 19.5523 3.44772 20 4 20H20C20.5523 20 21 19.5523 21 19V9C21 8.44772 20.5523 8 20 8H4ZM10 4C9.73478 4 9.4805 4.10543 9.29297 4.29297C9.10543 4.48051 9 4.73478 9 5V6H15V5C15 4.73478 14.8946 4.48051 14.707 4.29297C14.5429 4.12883 14.3276 4.02757 14.0986 4.00488L14 4H10Z" fill="#E4F2F2"/>
</svg>
