<svg width="24" height="24" viewBox="0 0 24 24" fill="none" xmlns="http://www.w3.org/2000/svg">
<path fill-rule="evenodd" clip-rule="evenodd" d="M21.293 1.29299C21.6835 0.902636 22.3166 0.902524 22.7071 1.29299C23.0973 1.68348 23.0973 2.3166 22.7071 2.70706L14.4141 10.999L15.3067 11.8926C16.4496 13.0355 16.6041 14.8905 15.5987 16.1983L15.5996 16.1992L10.7998 22.5996C10.6261 22.8313 10.3601 22.9763 10.0713 22.9971C9.78226 23.0176 9.49796 22.9119 9.29299 22.7071L1.29299 14.7071C1.08801 14.5021 0.982406 14.2179 1.00295 13.9287C1.02361 13.6397 1.1686 13.3731 1.40041 13.1992L7.79983 8.39944C9.10765 7.39343 10.9643 7.54926 12.1074 8.69241L13 9.58498L21.293 1.29299ZM3.52248 14.1074L5.00002 15.585L5.69338 14.8926C6.08395 14.5026 6.71711 14.5023 7.10744 14.8926C7.49754 15.283 7.49733 15.9162 7.10744 16.3067L6.41408 16.999L9.89162 20.4766L12.2783 17.293L6.7051 11.7198L3.52248 14.1074ZM10.6934 10.1065C10.2407 9.65377 9.50515 9.6074 9.01369 9.98928C9.00933 9.99267 9.00444 9.99669 9.00002 10L8.32131 10.5078L13.4912 15.6778L14 15L14.0108 14.9854C14.3925 14.4939 14.3452 13.7593 13.8926 13.3067L10.6934 10.1065Z" fill="#E4F2F2"/>
</svg>
