<svg width="24" height="24" viewBox="0 0 24 24" fill="none" xmlns="http://www.w3.org/2000/svg">
<path fill-rule="evenodd" clip-rule="evenodd" d="M12 1C12.7956 1 13.5585 1.3163 14.1211 1.87891C14.6837 2.44151 15 3.20435 15 4V9H18C18.7956 9 19.5585 9.3163 20.1211 9.87891C20.6837 10.4415 21 11.2043 21 12V13C21 13.5304 20.7891 14.039 20.4141 14.4141C20.3509 14.4772 20.2821 14.5333 20.2119 14.5869L21.9326 20.4873L21.9453 20.5342C22.0157 20.8281 22.018 21.1345 21.9531 21.4297C21.8882 21.7249 21.7576 22.002 21.5703 22.2393C21.3831 22.4764 21.144 22.668 20.8721 22.7998C20.6003 22.9314 20.3019 23 20 23H4C3.69781 23.0001 3.39891 22.9315 3.12695 22.7998C2.85509 22.668 2.61589 22.4764 2.42871 22.2393C2.24153 22.002 2.11083 21.7248 2.0459 21.4297C1.98101 21.1345 1.98335 20.8281 2.05371 20.5342L2.06641 20.4873L3.78613 14.5859C3.71656 14.5327 3.64858 14.4767 3.58594 14.4141C3.21087 14.039 3 13.5304 3 13V12C3 11.2044 3.3163 10.4415 3.87891 9.87891C4.44151 9.3163 5.20435 9 6 9H9V4C9 3.20435 9.3163 2.44151 9.87891 1.87891C10.4415 1.3163 11.2044 1 12 1ZM4 21H7.21973L8.03027 17.7578C8.1642 17.2221 8.70647 16.8965 9.24219 17.0303C9.77791 17.1642 10.1035 17.7065 9.96973 18.2422L9.28027 21H14.7197L14.0303 18.2422C13.8965 17.7065 14.2221 17.1642 14.7578 17.0303C15.2935 16.8965 15.8358 17.2221 15.9697 17.7578L16.7803 21H19.999L18.249 15H5.75L4 21ZM12 3C11.7348 3 11.4805 3.10543 11.293 3.29297C11.1054 3.4805 11 3.73479 11 4V9C11 9.53043 10.7891 10.039 10.4141 10.4141C10.039 10.7891 9.53043 11 9 11H6C5.73479 11 5.4805 11.1054 5.29297 11.293C5.10544 11.4805 5 11.7348 5 12V13H19V12C19 11.7348 18.8946 11.4805 18.707 11.293C18.5195 11.1054 18.2652 11 18 11H15C14.4696 11 13.961 10.7891 13.5859 10.4141C13.2109 10.039 13 9.53043 13 9V4C13 3.73478 12.8946 3.48051 12.707 3.29297C12.5429 3.12883 12.3276 3.02757 12.0986 3.00488L12 3Z" fill="#E4F2F2"/>
</svg>
