<svg width="24" height="24" viewBox="0 0 24 24" fill="none" xmlns="http://www.w3.org/2000/svg">
<path fill-rule="evenodd" clip-rule="evenodd" d="M19.8774 1C20.7055 1.00008 21.4999 1.32952 22.0854 1.91504C22.6709 2.50058 23.0004 3.29505 23.0005 4.12305C23.0004 4.95104 22.6709 5.74552 22.0854 6.33105L10.9956 17.418C11.0069 18.0335 10.8954 18.6477 10.6577 19.2217C10.3172 20.0438 9.74033 20.7468 9.00049 21.2412C8.26056 21.7356 7.39039 21.9999 6.50049 22H3.00049C2.60503 22.0004 2.21823 21.8834 1.88916 21.6641C1.55962 21.4444 1.30255 21.1315 1.15088 20.7656C0.999286 20.3998 0.960145 19.9967 1.0376 19.6084C1.11298 19.2309 1.29628 18.8843 1.56396 18.6084C1.84518 18.3081 2.0006 17.9114 2.00049 17.5C2.00049 16.6101 2.26393 15.74 2.7583 15C3.25268 14.2601 3.95578 13.6834 4.77783 13.3428C5.35079 13.1055 5.96404 12.9931 6.57861 13.0039L17.6694 1.91504C18.255 1.32954 19.0493 1 19.8774 1ZM6.98779 15.0479C6.50298 14.9515 6.00014 15.0013 5.54346 15.1904C5.08675 15.3796 4.69605 15.7003 4.42139 16.1113C4.14681 16.5224 4.00049 17.0057 4.00049 17.5L3.99658 17.6719C3.95603 18.5292 3.61133 19.3465 3.02197 19.9756C3.01428 19.9838 3.00649 19.9921 2.99853 20H6.50049C6.99472 19.9999 7.47818 19.8536 7.88916 19.5791C8.30015 19.3045 8.62084 18.9137 8.81006 18.457C8.99919 18.0004 9.04896 17.4975 8.95264 17.0127C8.85619 16.5278 8.61761 16.082 8.26806 15.7324C7.91847 15.3828 7.47268 15.1443 6.98779 15.0479ZM8.78467 13.627C9.10959 13.8186 9.41252 14.0488 9.68213 14.3184C9.95091 14.5872 10.1803 14.8891 10.3716 15.2129L12.5854 12.999L10.9995 11.4131L8.78467 13.627ZM19.8774 3C19.5798 3 19.294 3.11867 19.0835 3.3291L12.4136 9.99902L14.0005 11.5859L20.6714 4.91699C20.8817 4.70653 21.0004 4.42061 21.0005 4.12305C21.0004 3.82549 20.8817 3.53957 20.6714 3.3291C20.4609 3.11866 20.1751 3.00008 19.8774 3Z" fill="#E4F2F2"/>
</svg>
