<svg width="24" height="24" viewBox="0 0 24 24" fill="none" xmlns="http://www.w3.org/2000/svg">
<path fill-rule="evenodd" clip-rule="evenodd" d="M19 10C19.5523 10 20 10.4477 20 11C20 11.5523 19.5523 12 19 12H18.915L18.1963 20.0889V20.0908C18.0487 21.7126 16.6102 23 15 23H9C7.38977 23 5.95128 21.7126 5.80371 20.0908V20.0889L5.08496 12H5C4.44772 12 4 11.5523 4 11C4 10.4477 4.44772 10 5 10H19ZM7.09277 12L7.7959 19.9092L7.81152 20.0166C7.91854 20.5494 8.44703 21 9 21H15C15.5897 21 16.1515 20.4873 16.2041 19.9092L16.9072 12H7.09277Z" fill="#E4F2F2"/>
<path d="M13 1C16.3523 1 19 3.64772 19 7C19 7.55228 18.5523 8 18 8C17.4477 8 17 7.55228 17 7C17 4.75228 15.2477 3 13 3H11C8.75229 3 7 4.75228 7 7C7 7.55228 6.55228 8 6 8C5.44772 8 5 7.55228 5 7C5 3.64772 7.64772 1 11 1H13Z" fill="#E4F2F2"/>
</svg>
