<svg width="24" height="24" viewBox="0 0 24 24" fill="none" xmlns="http://www.w3.org/2000/svg">
<path fill-rule="evenodd" clip-rule="evenodd" d="M1.29297 1.29295C1.68349 0.90243 2.31651 0.90243 2.70703 1.29295L8.35059 6.93651C8.40177 6.97808 8.44901 7.02549 8.49219 7.07811L22.707 21.293C23.0975 21.6835 23.0975 22.3165 22.707 22.707C22.3165 23.0975 21.6835 23.0975 21.293 22.707L17.2324 18.6465C16.505 19.4656 15.5928 20.1084 14.5625 20.5137C13.7494 20.8335 12.8891 20.9947 12.0264 20.998C12.0176 20.9983 12.0088 21 12 21C11.9879 21 11.9759 20.9985 11.9639 20.998C11.3401 20.9949 10.7156 20.91 10.1074 20.7392C8.63777 20.3265 7.34297 19.4441 6.4209 18.2275C6.38326 18.1779 6.34775 18.1267 6.31152 18.0762C5.74883 18.209 5.23234 18.5024 4.82812 18.9267C4.296 19.4854 3.99913 20.2275 4 20.999C4.0005 21.5512 3.55318 21.9994 3.00098 22C2.44879 22.0005 2.00066 21.5532 2 21.001C1.99859 19.7151 2.49303 18.478 3.37988 17.5469C3.9382 16.9608 4.62512 16.5239 5.37793 16.2656C5.12999 15.5409 5.00004 14.776 5 14H2C1.44774 14 1.00004 13.5522 1 13C1 12.4477 1.44772 12 2 12H5V11C4.99995 10.543 5.06416 10.0902 5.18652 9.65331C4.45873 9.36988 3.80097 8.91913 3.27246 8.32811C2.45427 7.413 2.00143 6.22851 2 5.00096C1.99958 4.5718 2.26979 4.20569 2.64941 4.06346L1.29297 2.70702C0.902457 2.3165 0.902482 1.68348 1.29297 1.29295ZM7.68164 9.09569C7.55162 9.25404 7.43744 9.42562 7.3418 9.60838C7.11715 10.0377 6.99995 10.5155 7 11V14C7.00007 14.8607 7.22297 15.7024 7.64062 16.4463C7.66655 16.4851 7.69152 16.5249 7.71191 16.5674C7.80495 16.7227 7.90545 16.8741 8.01562 17.0195C8.67428 17.8885 9.59861 18.5187 10.6484 18.8135C10.7648 18.8461 10.8822 18.8734 11 18.8974V12.414L7.68164 9.09569ZM13 18.8974C13.2818 18.8399 13.5597 18.7587 13.8301 18.6523C14.6031 18.3482 15.2837 17.8573 15.8154 17.2295L13 14.414V18.8974ZM4.03711 5.45116C4.12496 6.02219 4.37427 6.55963 4.76367 6.9951C5.12815 7.40268 5.59485 7.69915 6.11035 7.85936C6.16014 7.79769 6.21103 7.73694 6.26367 7.67772L4.03711 5.45116Z" fill="#E4F2F2"/>
<path d="M15.293 1.29295C15.6835 0.90247 16.3165 0.902496 16.707 1.29295C17.0975 1.68348 17.0975 2.31652 16.707 2.70702L15.4453 3.96776C15.8074 4.58149 15.9998 5.28272 16 5.99901V6.41893C16.5674 6.66664 17.09 7.01871 17.5361 7.46483C17.6617 7.59039 17.7791 7.7225 17.8896 7.85936C18.4051 7.69913 18.8719 7.40266 19.2363 6.9951C19.7273 6.44607 19.9991 5.73551 20 4.99901C20.0006 4.44685 20.4489 3.99955 21.001 3.99999C21.5531 4.00073 22.0005 4.44882 22 5.00096C21.9986 6.22853 21.5458 7.41299 20.7275 8.32811C20.1991 8.91911 19.5412 9.36987 18.8135 9.65331C18.9351 10.088 19 10.5406 19 11V12H22L22.1025 12.0049C22.6067 12.0562 23 12.4823 23 13C23 13.5176 22.6066 13.9438 22.1025 13.9951L22 14H18.6562C18.2077 14 17.828 13.7046 17.7012 13.2978C17.2949 13.1708 17 12.7919 17 12.3437V11C17 10.2044 16.6836 9.44149 16.1211 8.87889C15.5586 8.31642 14.7955 8.00005 14 7.99999H12.6562C12.104 7.99999 11.6563 7.55224 11.6562 6.99999C11.6562 6.4477 12.104 5.99999 12.6562 5.99999H14C13.9999 5.59057 13.8741 5.19014 13.6396 4.85448C13.5742 4.76088 13.5005 4.67415 13.4209 4.59374C13.4184 4.59132 13.4155 4.58935 13.4131 4.5869C13.4112 4.58498 13.4091 4.58297 13.4072 4.58104C13.2039 4.37956 12.9597 4.22155 12.6885 4.12206C12.3043 3.98122 11.8859 3.96209 11.4902 4.06639C11.1514 4.15577 10.8428 4.33243 10.5947 4.57713C10.5918 4.58009 10.5898 4.58397 10.5869 4.5869C10.5823 4.59147 10.5769 4.59513 10.5723 4.59959C10.5386 4.63388 10.5058 4.66922 10.4746 4.70604C10.1174 5.12719 9.48664 5.17931 9.06543 4.82225C8.85138 4.64063 8.73286 4.38842 8.71484 4.12889L7.29297 2.70702C6.90246 2.3165 6.90248 1.68348 7.29297 1.29295C7.68349 0.90243 8.31651 0.90243 8.70703 1.29295L9.96973 2.55565C10.2839 2.37029 10.6228 2.22593 10.9795 2.13182C11.7714 1.92294 12.609 1.96306 13.3779 2.2451C13.6052 2.3285 13.8217 2.43495 14.0283 2.55663L15.293 1.29295Z" fill="#E4F2F2"/>
</svg>
