<svg width="24" height="24" viewBox="0 0 24 24" fill="none" xmlns="http://www.w3.org/2000/svg">
<path fill-rule="evenodd" clip-rule="evenodd" d="M15.0283 13C15.3819 13.005 15.7273 13.1048 16.0303 13.2871L16.0312 13.2861L21.0264 16.2822L21.1348 16.3515C21.3837 16.5226 21.5914 16.7481 21.7412 17.0117C21.9123 17.3128 22.0019 17.6537 22.002 18C22.0019 18.3463 21.9123 18.6871 21.7412 18.9883C21.5705 19.2887 21.3239 19.5386 21.0273 19.7158L21.0283 19.7168L16.0312 22.7139L16.0303 22.7129C15.7271 22.8952 15.3812 22.9951 15.0273 23C14.6724 23.0048 14.3225 22.9152 14.0137 22.7402C13.7048 22.5651 13.4477 22.3101 13.2695 22.0029C13.0916 21.6959 12.9986 21.347 13 20.9922V15.0029C12.9995 14.6491 13.0928 14.3011 13.2705 13.9951C13.4488 13.6883 13.7059 13.4346 14.0146 13.2598C14.3235 13.0849 14.6734 12.995 15.0283 13ZM15 21L15.0029 20.998L20 18.001L20.002 18L20 17.999L15.0029 15.0019L15 15V21Z" fill="#E4F2F2"/>
<path fill-rule="evenodd" clip-rule="evenodd" d="M15.293 1.29295C15.6835 0.90247 16.3165 0.902496 16.707 1.29295C17.0975 1.68348 17.0975 2.31652 16.707 2.70702L15.4443 3.96874C15.8044 4.57911 16 5.27922 16 5.99999V6.41698C16.5618 6.66219 17.0791 7.01109 17.5225 7.45116C17.6531 7.58081 17.7751 7.7175 17.8896 7.85936C18.4051 7.69913 18.8719 7.40266 19.2363 6.9951C19.7273 6.44607 19.9991 5.73551 20 4.99901C20.0006 4.44685 20.4489 3.99955 21.001 3.99999C21.5531 4.00073 22.0005 4.44882 22 5.00096C21.9986 6.22853 21.5458 7.41299 20.7275 8.32811C20.1991 8.91911 19.5412 9.36987 18.8135 9.65331C18.9318 10.0763 18.9966 10.5161 19 10.9629C19.0039 11.5148 18.5598 11.9654 18.0078 11.9697C17.4556 11.9739 17.0042 11.5297 17 10.9775C16.9941 10.1859 16.6752 9.42882 16.1133 8.87108C15.5513 8.31333 14.7918 7.99996 14 7.99999H10C9.20435 7.99999 8.44152 8.31628 7.87891 8.87889C7.31632 9.4415 7 10.2044 7 11V14L7.01465 14.3857C7.07173 15.1198 7.29335 15.8305 7.65723 16.4697C7.67129 16.4922 7.684 16.5154 7.69629 16.539C7.76588 16.6569 7.8385 16.7734 7.91797 16.8857C8.51483 17.7295 9.35865 18.3673 10.333 18.7119C10.8537 18.896 11.1265 19.4676 10.9424 19.9883C10.7583 20.5088 10.1876 20.7815 9.66699 20.5976C8.31665 20.1202 7.14567 19.2396 6.31152 18.0762C5.74883 18.209 5.23234 18.5024 4.82812 18.9267C4.296 19.4854 3.99913 20.2275 4 20.999C4.0005 21.5512 3.55318 21.9994 3.00098 22C2.44879 22.0005 2.00066 21.5532 2 21.001C1.99859 19.7151 2.49303 18.478 3.37988 17.5469C3.9382 16.9608 4.62512 16.5239 5.37793 16.2656C5.15848 15.6253 5.03155 14.9539 5.00488 14.2715L5 14H2C1.44774 14 1.00004 13.5522 1 13C1 12.4477 1.44772 12 2 12H5V11C5 10.5406 5.06388 10.0879 5.18555 9.65331C4.45809 9.36986 3.80076 8.9189 3.27246 8.32811C2.45427 7.413 2.00143 6.22851 2 5.00096C1.99946 4.44876 2.4468 4.00062 2.99902 3.99999C3.55123 3.99944 3.99936 4.44678 4 4.99901C4.00091 5.73553 4.27272 6.44607 4.76367 6.9951C5.12815 7.40268 5.59485 7.69915 6.11035 7.85936C6.22101 7.72235 6.33915 7.59052 6.46484 7.46483C6.9109 7.01877 7.43295 6.66664 8 6.41893V5.99999C8 5.27939 8.19477 4.57901 8.55469 3.96874L7.29297 2.70702C6.90246 2.3165 6.90248 1.68348 7.29297 1.29295C7.68349 0.90243 8.31651 0.90243 8.70703 1.29295L9.96875 2.55467C10.579 2.19472 11.2794 1.99999 12 1.99999L12.1982 2.00487C12.8484 2.03711 13.4763 2.22807 14.0303 2.55467L15.293 1.29295ZM12 3.99999C11.4742 3.99999 10.9698 4.20715 10.5957 4.57616C10.5925 4.57944 10.5902 4.58365 10.5869 4.5869C10.5836 4.59016 10.5795 4.59248 10.5762 4.59569C10.2072 4.96979 10 5.47418 10 5.99999H14C14 5.47395 13.7921 4.96984 13.4229 4.59569C13.4197 4.59264 13.4162 4.59 13.4131 4.5869C13.4097 4.58351 13.4067 4.57959 13.4033 4.57616C13.0764 4.25387 12.6505 4.05466 12.1973 4.00975L12 3.99999Z" fill="#E4F2F2"/>
</svg>
