<svg width="24" height="24" viewBox="0 0 24 24" fill="none" xmlns="http://www.w3.org/2000/svg">
<path fill-rule="evenodd" clip-rule="evenodd" d="M15.293 1.29295C15.6835 0.90247 16.3165 0.902496 16.707 1.29295C17.0975 1.68348 17.0975 2.31652 16.707 2.70702L15.4443 3.96874C15.8044 4.57911 16 5.27922 16 5.99999V6.41893C16.5671 6.66664 17.0891 7.01877 17.5352 7.46483C17.6607 7.59038 17.7781 7.72252 17.8887 7.85936C18.4045 7.6992 18.8717 7.40289 19.2363 6.9951C19.7273 6.44607 19.9991 5.73551 20 4.99901C20.0006 4.44685 20.4489 3.99955 21.001 3.99999C21.5531 4.00073 22.0005 4.44882 22 5.00096C21.9986 6.22853 21.5458 7.41299 20.7275 8.32811C20.1991 8.91911 19.5412 9.36987 18.8135 9.65331C18.9352 10.088 19 10.5405 19 11V12H22C22.5523 12 23 12.4477 23 13C23 13.5522 22.5523 14 22 14H19L18.9912 14.3467C18.9586 15.0052 18.8315 15.6504 18.6211 16.2656C19.3745 16.5238 20.0625 16.9604 20.6211 17.5469C21.5078 18.4779 22.0014 19.7152 22 21.001C21.9993 21.5531 21.5511 22.0004 20.999 22C20.4469 21.9992 19.9995 21.5511 20 20.999C20.0009 20.2277 19.7047 19.4854 19.1729 18.9267C18.7687 18.5024 18.2513 18.209 17.6885 18.0762C17.4674 18.3848 17.2221 18.6783 16.9502 18.9502C15.6374 20.2629 13.8565 21 12 21L11.6533 20.9912C9.92299 20.9055 8.28061 20.181 7.0498 18.9502C6.77774 18.6781 6.53172 18.3849 6.31055 18.0762C5.74821 18.2091 5.23212 18.5026 4.82812 18.9267C4.296 19.4854 3.99913 20.2275 4 20.999C4.0005 21.5512 3.55318 21.9994 3.00098 22C2.44879 22.0005 2.00066 21.5532 2 21.001C1.99859 19.7151 2.49303 18.478 3.37988 17.5469C3.9382 16.9608 4.62512 16.5239 5.37793 16.2656C5.16756 15.6505 5.0414 15.0051 5.00879 14.3467L5 14H2C1.44774 14 1.00004 13.5522 1 13C1 12.4477 1.44772 12 2 12H5V11C5 10.5406 5.06388 10.0879 5.18555 9.65331C4.45809 9.36986 3.80076 8.9189 3.27246 8.32811C2.45427 7.413 2.00143 6.22851 2 5.00096C1.99946 4.44876 2.4468 4.00062 2.99902 3.99999C3.55123 3.99944 3.99936 4.44678 4 4.99901C4.00091 5.73553 4.27272 6.44607 4.76367 6.9951C5.12815 7.40268 5.59485 7.69915 6.11035 7.85936C6.22101 7.72235 6.33915 7.59052 6.46484 7.46483C6.9109 7.01877 7.43295 6.66664 8 6.41893V5.99999C8 5.27939 8.19477 4.57901 8.55469 3.96874L7.29297 2.70702C6.90246 2.3165 6.90248 1.68348 7.29297 1.29295C7.68349 0.90243 8.31651 0.90243 8.70703 1.29295L9.96875 2.55467C10.579 2.19472 11.2794 1.99999 12 1.99999L12.1982 2.00487C12.8484 2.03711 13.4763 2.22807 14.0303 2.55467L15.293 1.29295ZM10 7.99999C9.20435 7.99999 8.44152 8.31628 7.87891 8.87889C7.31632 9.4415 7 10.2044 7 11V14L7.00586 14.248C7.04414 15.0191 7.26001 15.7658 7.63086 16.4316C7.66178 16.4762 7.6904 16.5227 7.71387 16.5723C7.9225 16.9197 8.17349 17.2438 8.46484 17.5351C9.16319 18.2335 10.0467 18.7037 11 18.8984V11C11 10.4477 11.4477 9.99999 12 9.99999C12.5523 9.99999 13 10.4477 13 11V18.8984C13.9533 18.7037 14.8368 18.2335 15.5352 17.5351C15.8262 17.2441 16.0767 16.9202 16.2852 16.5732C16.3072 16.5265 16.3326 16.4818 16.3613 16.4394C16.775 15.7002 17 14.8622 17 14V11C17 10.2044 16.6837 9.4415 16.1211 8.87889C15.7528 8.51058 15.2986 8.24791 14.8057 8.11034C14.7871 8.10669 14.7691 8.10133 14.751 8.09667C14.6024 8.05821 14.4508 8.02994 14.2969 8.01463L14 7.99999H10ZM12 3.99999C11.4742 3.99999 10.9698 4.20715 10.5957 4.57616C10.5925 4.57944 10.5902 4.58365 10.5869 4.5869C10.5836 4.59016 10.5795 4.59248 10.5762 4.59569C10.2072 4.96979 10 5.47418 10 5.99999H14C14 5.47395 13.7921 4.96984 13.4229 4.59569C13.4197 4.59264 13.4162 4.59 13.4131 4.5869C13.4097 4.58351 13.4067 4.57959 13.4033 4.57616C13.0764 4.25387 12.6505 4.05466 12.1973 4.00975L12 3.99999Z" fill="#E4F2F2"/>
</svg>
