<svg width="24" height="24" viewBox="0 0 24 24" fill="none" xmlns="http://www.w3.org/2000/svg">
<path d="M9.0098 17.0005C9.562 17.0006 10.0098 17.4483 10.0098 18.0005C10.0096 18.5525 9.56188 19.0004 9.0098 19.0005H9.00003C8.44787 19.0005 8.00023 18.5526 8.00003 18.0005C8.00003 17.4482 8.44775 17.0005 9.00003 17.0005H9.0098Z" fill="#E4F2F2"/>
<path d="M15.0098 17.0005C15.562 17.0006 16.0098 17.4483 16.0098 18.0005C16.0096 18.5525 15.5619 19.0004 15.0098 19.0005H15C14.4479 19.0005 14.0002 18.5526 14 18.0005C14 17.4482 14.4478 17.0005 15 17.0005H15.0098Z" fill="#E4F2F2"/>
<path fill-rule="evenodd" clip-rule="evenodd" d="M20.6836 1.05224C21.092 0.91616 21.5416 1.05655 21.7998 1.40088C22.4681 2.29213 22.8755 3.35194 22.9756 4.46142C23.0756 5.57107 22.8645 6.68756 22.3662 7.68408C21.8679 8.68041 21.1019 9.51832 20.1543 10.104C19.6759 10.3997 19.1603 10.624 18.6241 10.7749C18.8635 11.3839 19 12.1048 19 13.0005C19 13.5633 18.9405 14.1728 18.7608 14.7661C19.0654 15.125 19.321 15.5249 19.5147 15.9575C19.8533 16.714 19.9987 17.543 19.9375 18.3696C19.8763 19.1964 19.6106 19.9953 19.1641 20.6938C18.7176 21.3923 18.1036 21.969 17.3789 22.3716C16.6543 22.7741 15.8406 22.9903 15.0118 23.0005H8.98734C8.15847 22.9903 7.34476 22.7742 6.62015 22.3716C5.89558 21.969 5.28246 21.3922 4.83597 20.6938C4.38946 19.9954 4.12375 19.1964 4.06254 18.3696C4.00134 17.543 4.14671 16.7141 4.48539 15.9575C4.67906 15.525 4.93401 15.1249 5.23832 14.7661C5.05861 14.1728 5.00006 13.5632 5.00004 13.0005C5.00004 12.1049 5.13562 11.3838 5.37503 10.7749C4.83912 10.624 4.3239 10.3995 3.84574 10.104C2.89817 9.51835 2.13213 8.68034 1.63382 7.68408C1.13556 6.68755 0.924457 5.57108 1.02445 4.46142C1.12454 3.35187 1.53185 2.29217 2.20023 1.40088C2.45849 1.05653 2.9081 0.91613 3.31644 1.05224C3.72447 1.18852 4.00004 1.57025 4.00004 2.00049C4.00013 2.796 4.31642 3.55906 4.87894 4.12158C5.44152 4.68402 6.20452 5.00049 7.00003 5.00049H17C17.7956 5.00044 18.5586 4.68409 19.1211 4.12158C19.6837 3.55906 19.9999 2.796 20 2.00049C20 1.57016 20.2754 1.18844 20.6836 1.05224ZM15.4287 15.0386C14.9377 14.9594 14.4346 15.004 13.9649 15.1675C13.4952 15.331 13.0731 15.6082 12.7373 15.9751C12.5479 16.182 12.2805 16.3002 12 16.3003C11.7194 16.3003 11.4512 16.1821 11.2618 15.9751C10.9261 15.6084 10.5047 15.3309 10.0352 15.1675C9.56539 15.004 9.06141 14.9593 8.57035 15.0386C8.07943 15.1179 7.61611 15.3187 7.22171 15.6216C6.82727 15.9245 6.51384 16.321 6.31058 16.7749C6.10746 17.2288 6.01997 17.7263 6.05668 18.2222C6.09343 18.7181 6.25365 19.1977 6.52152 19.6167C6.78938 20.0355 7.15725 20.3811 7.59183 20.6226C8.02654 20.8641 8.5145 20.9943 9.01175 21.0005H14.9873C15.4847 20.9944 15.9734 20.8641 16.4082 20.6226C16.8428 20.381 17.2107 20.0355 17.4785 19.6167C17.7464 19.1977 17.9057 18.7181 17.9424 18.2222C17.9791 17.7262 17.8917 17.2288 17.6885 16.7749C17.4853 16.321 17.1727 15.9245 16.7784 15.6216C16.3839 15.3186 15.9198 15.1178 15.4287 15.0386ZM9.93363 7.00049C9.84463 7.66019 9.66776 8.20969 9.41507 8.68701C9.0541 9.36877 8.57336 9.84122 8.20707 10.2075C7.82348 10.5911 7.55406 10.869 7.35257 11.2495C7.16083 11.6118 7.00003 12.1331 7.00003 13.0005C7.00004 13.1502 7.00571 13.2945 7.01664 13.4331C7.40954 13.2583 7.82429 13.133 8.25199 13.064C8.50015 13.0239 8.75023 13.0049 9.00003 13.0024V12.5005C9.00003 11.9482 9.44775 11.5005 10 11.5005C10.5522 11.5006 11 11.9483 11 12.5005V13.3979C11.3547 13.5491 11.69 13.7404 12 13.9673C12.3101 13.7404 12.6454 13.5491 13 13.3979V12.5005C13 11.9482 13.4478 11.5005 14 11.5005C14.5522 11.5006 15 11.9483 15 12.5005V13.0024C15.2498 13.0049 15.4999 13.0239 15.7481 13.064C16.1755 13.133 16.5899 13.2584 16.9825 13.4331C16.9934 13.2945 17 13.1502 17 13.0005C17 12.1333 16.8392 11.6118 16.6475 11.2495C16.446 10.869 16.1765 10.591 15.793 10.2075C15.4267 9.84125 14.946 9.36869 14.585 8.68701C14.3323 8.20967 14.1545 7.66022 14.0655 7.00049H9.93363ZM3.00199 5.00146C3.00219 5.62034 3.14367 6.23308 3.42191 6.78955C3.75413 7.45381 4.26571 8.01236 4.8975 8.40283C5.41797 8.72441 6.00399 8.91851 6.60941 8.97802C6.67294 8.91354 6.73437 8.85208 6.793 8.79345C7.17657 8.40989 7.446 8.13194 7.6475 7.75146C7.75051 7.55687 7.84323 7.31582 7.90824 7.00049H7.00003C5.67408 7.00049 4.40253 6.47315 3.46488 5.53564C3.29716 5.36792 3.14275 5.18896 3.00199 5.00146ZM20.9971 5.00146C20.8564 5.18886 20.7028 5.36801 20.5352 5.53564C19.5976 6.47322 18.326 7.00044 17 7.00049H16.0918C16.1568 7.31579 16.2496 7.55689 16.3526 7.75146C16.5541 8.13186 16.8235 8.40994 17.2071 8.79345C17.2655 8.85194 17.3263 8.91372 17.3897 8.97802C17.9954 8.91857 18.5819 8.72461 19.1026 8.40283C19.7344 8.01234 20.2459 7.45387 20.5782 6.78955C20.8564 6.23307 20.9969 5.62034 20.9971 5.00146Z" fill="#E4F2F2"/>
</svg>
