<svg width="24" height="24" viewBox="0 0 24 24" fill="none" xmlns="http://www.w3.org/2000/svg">
<path d="M8.00928 14C8.56156 14 9.00928 14.4477 9.00928 15C9.00928 15.5523 8.56156 16 8.00928 16H7.99951C7.44737 15.9998 6.99951 15.5522 6.99951 15C6.99951 14.4478 7.44737 14.0002 7.99951 14H8.00928Z" fill="#E4F2F2"/>
<path d="M16.0093 14C16.5616 14 17.0093 14.4477 17.0093 15C17.0093 15.5523 16.5616 16 16.0093 16H15.9995C15.4474 15.9998 14.9995 15.5522 14.9995 15C14.9995 14.4478 15.4474 14.0002 15.9995 14H16.0093Z" fill="#E4F2F2"/>
<path d="M13.9995 5C14.5518 5 14.9995 5.44772 14.9995 6C14.9995 6.55228 14.5518 7 13.9995 7H9.99951C9.44737 6.99983 8.99951 6.55218 8.99951 6C8.99951 5.44782 9.44737 5.00017 9.99951 5H13.9995Z" fill="#E4F2F2"/>
<path fill-rule="evenodd" clip-rule="evenodd" d="M17.9995 2C19.6564 2 20.9995 3.34315 20.9995 5V5.38184L22.4468 6.10547C22.9408 6.35246 23.141 6.95329 22.894 7.44727C22.647 7.94115 22.0462 8.1415 21.5522 7.89453L20.9995 7.61816V17C20.9995 18.3058 20.1642 19.4131 18.9995 19.8252V21C18.9995 21.5523 18.5518 22 17.9995 22C17.4474 21.9998 16.9995 21.5522 16.9995 21V20H6.99951V21C6.99951 21.5523 6.55179 22 5.99951 22C5.44737 21.9998 4.99951 21.5522 4.99951 21V19.8252C3.83514 19.4129 2.99951 18.3056 2.99951 17V7.61816L2.44678 7.89453C1.95284 8.14133 1.35193 7.94116 1.10498 7.44727C0.858127 6.95339 1.05849 6.35251 1.55224 6.10547L2.99951 5.38184V5C2.99951 3.34325 4.3428 2.00017 5.99951 2H17.9995ZM4.99951 17C4.99951 17.5522 5.44737 17.9998 5.99951 18H17.9995C18.5518 18 18.9995 17.5523 18.9995 17V12H4.99951V17ZM5.99951 4C5.44737 4.00017 4.99951 4.44782 4.99951 5V10H18.9995V5C18.9995 4.44772 18.5518 4 17.9995 4H5.99951Z" fill="#E4F2F2"/>
</svg>
