<svg width="24" height="24" viewBox="0 0 24 24" fill="none" xmlns="http://www.w3.org/2000/svg">
<path fill-rule="evenodd" clip-rule="evenodd" d="M15.3721 1.09667C15.8712 0.860293 16.4677 1.07315 16.7041 1.57225C16.94 2.07111 16.7271 2.66684 16.2285 2.90331C14.6874 3.63332 13.8646 5.07644 13.4297 6.47264C13.2402 7.08102 13.1348 7.65362 13.0752 8.1035C13.5308 7.55804 14.0308 7.01688 14.5703 6.51659C16.0191 5.17317 17.8791 3.99999 20 3.99999C20.7957 3.99999 21.5585 4.31628 22.1211 4.87889C22.6836 5.44149 23 6.20439 23 6.99999C23 9.40306 22.3855 11.713 21.3359 13.1474C20.8649 13.9596 20.153 14.5172 19.3086 14.7949C20.3269 15.7631 20.6776 16.9262 20.4287 18.1172C20.196 19.2303 19.4664 20.2484 18.6074 21.1074L18.6064 21.1064C17.7933 21.9679 16.8048 22.6961 15.6924 22.9287C14.5059 23.1766 13.3344 22.8282 12.3271 21.8389C12.2095 21.7433 12.0893 21.6334 11.9785 21.5195C11.8875 21.6179 11.8009 21.7099 11.7285 21.7832L11.7295 21.7842C10.7566 22.8218 9.58349 23.1796 8.38281 22.9287C7.26966 22.696 6.2516 21.9664 5.39258 21.1074C4.53132 20.2944 3.80386 19.3045 3.57129 18.1924C3.32267 17.0026 3.67325 15.8274 4.66895 14.8183C4.67572 14.8106 4.68257 14.8026 4.68945 14.7949C3.84564 14.517 3.1338 13.9592 2.66309 13.1474C1.61375 11.713 1.00004 9.4028 1 6.99999C1 6.20439 1.31637 5.44149 1.87891 4.87889C2.44152 4.31628 3.20435 3.99999 4 3.99999C6.12093 3.99999 7.98085 5.17317 9.42969 6.51659C9.96905 7.01673 10.4684 7.5582 10.9238 8.1035C10.8642 7.65365 10.7598 7.08097 10.5703 6.47264C10.1355 5.07655 9.31336 3.63338 7.77246 2.90331C7.27342 2.66692 7.06063 2.07132 7.29688 1.57225C7.53328 1.07317 8.12883 0.860335 8.62793 1.09667C10.3421 1.9087 11.376 3.28945 12 4.63085C12.624 3.28938 13.6578 1.90873 15.3721 1.09667ZM4 5.99999C3.73478 5.99999 3.4805 6.10542 3.29297 6.29295C3.1055 6.48048 3 6.73482 3 6.99999L3.00684 7.40233C3.07239 9.39693 3.61797 11.0908 4.2998 12C4.32702 12.0363 4.35198 12.0746 4.37402 12.1142C4.68127 12.6671 5.22817 13 6 13H8C8.47217 13 8.88035 13.3302 8.97852 13.792C9.07643 14.2539 8.83776 14.7223 8.40625 14.914C7.93711 15.1226 7.45305 15.3293 7.01562 15.5596C6.55658 15.8012 6.28367 16.0018 6.16797 16.1406C6.14881 16.1636 6.12856 16.1859 6.10742 16.207C5.52216 16.7923 5.42997 17.3078 5.5293 17.7832C5.6304 18.2663 5.95755 18.8265 6.52539 19.416L6.78418 19.6709L6.80664 19.6933C7.54745 20.4341 8.23032 20.8533 8.79199 20.9707C9.26614 21.0698 9.74353 20.9781 10.2705 20.416L10.293 20.3926C10.4201 20.2654 10.6517 20.0113 10.8672 19.7705C10.914 19.7182 10.9584 19.667 11 19.6201V11.5918C10.2795 10.4684 9.268 9.09405 8.07031 7.98338C6.76917 6.77687 5.37897 5.99999 4 5.99999ZM20 5.99999C18.621 5.99999 17.2308 6.77687 15.9297 7.98338C14.732 9.09405 13.7205 10.4684 13 11.5918V19.6514C13.0359 19.6953 13.0739 19.7439 13.1152 19.793C13.317 20.0326 13.5013 20.2259 13.5996 20.2998C13.6374 20.3281 13.6737 20.3592 13.707 20.3926C14.2923 20.9778 14.8078 21.07 15.2832 20.9707C15.8354 20.8552 16.4884 20.4437 17.1709 19.7158L17.1934 19.6933C17.9341 18.9526 18.3532 18.2697 18.4707 17.708C18.5698 17.2338 18.4781 16.7565 17.916 16.2295C17.9082 16.2222 17.9001 16.2146 17.8926 16.207C17.7489 16.0635 17.4313 15.8446 16.9668 15.5879C16.5257 15.3441 16.0281 15.1071 15.5938 14.914C15.1622 14.7223 14.9236 14.2539 15.0215 13.792C15.1197 13.3302 15.5278 13 16 13H18C18.7718 13 19.3187 12.6671 19.626 12.1142L19.7002 12C20.4274 11.0303 21 9.1679 21 6.99999C21 6.73482 20.8945 6.48048 20.707 6.29295C20.5429 6.12882 20.3276 6.02756 20.0986 6.00487L20 5.99999Z" fill="#E4F2F2"/>
</svg>
