<svg width="24" height="24" viewBox="0 0 24 24" fill="none" xmlns="http://www.w3.org/2000/svg">
<path d="M14 15C14.5523 15 15 15.4477 15 16C15 16.5523 14.5523 17 14 17H10C9.44772 17 9 16.5523 9 16C9 15.4477 9.44772 15 10 15H14Z" fill="#E4F2F2"/>
<path d="M14 5C14.5523 5 15 5.44772 15 6C15 6.55228 14.5523 7 14 7H10C9.44772 7 9 6.55228 9 6C9 5.44772 9.44772 5 10 5H14Z" fill="#E4F2F2"/>
<path fill-rule="evenodd" clip-rule="evenodd" d="M18 1C19.6569 1 21 2.34315 21 4V20C21 21.6569 19.6569 23 18 23H6C4.34315 23 3 21.6569 3 20V4C3 2.34315 4.34315 1 6 1H18ZM5 20C5 20.5523 5.44772 21 6 21H18C18.5523 21 19 20.5523 19 20V13H5V20ZM6 3C5.44772 3 5 3.44772 5 4V11H19V4C19 3.44772 18.5523 3 18 3H6Z" fill="#E4F2F2"/>
</svg>
