<svg width="24" height="24" viewBox="0 0 24 24" fill="none" xmlns="http://www.w3.org/2000/svg">
<path fill-rule="evenodd" clip-rule="evenodd" d="M21.7578 3.03027C22.2935 2.89662 22.8358 3.22217 22.9697 3.75781C23.1035 4.29344 22.7778 4.83571 22.2422 4.96973L13 7.28027V11H17C19.209 11.0001 21 12.7909 21 15V19C21 21.2091 19.209 22.9999 17 23H7.00002C4.79088 23 3.00002 21.2091 3.00002 19V15C3.00002 12.7909 4.79088 11 7.00002 11H11V7.78027L2.2422 9.96973C1.7065 10.1035 1.16424 9.77787 1.03029 9.24219C0.89649 8.70647 1.22211 8.1642 1.75783 8.03027L21.7578 3.03027ZM5.00002 18V19C5.00002 20.1046 5.89545 21 7.00002 21H17C18.1045 20.9999 19 20.1045 19 19V18H5.00002ZM7.00002 13C5.89545 13 5.00002 13.8954 5.00002 15V16H8.00002V13H7.00002ZM10 16H14V13H10V16ZM16 16H19V15C19 13.8955 18.1045 13.0001 17 13H16V16Z" fill="#E4F2F2"/>
<path d="M10.0098 2C10.562 2.00012 11.0098 2.44779 11.0098 3C11.0098 3.55221 10.562 3.99988 10.0098 4H10C9.44773 4 9.00002 3.55228 9.00002 3C9.00002 2.44772 9.44773 2 10 2H10.0098Z" fill="#E4F2F2"/>
<path d="M14.0098 1C14.562 1.00012 15.0098 1.44779 15.0098 2C15.0098 2.55221 14.562 2.99988 14.0098 3H14C13.4477 3 13 2.55228 13 2C13 1.44772 13.4477 1 14 1H14.0098Z" fill="#E4F2F2"/>
</svg>
