<svg width="24" height="24" viewBox="0 0 24 24" fill="none" xmlns="http://www.w3.org/2000/svg">
<path fill-rule="evenodd" clip-rule="evenodd" d="M12.1982 1.00488C13.1869 1.0539 14.1248 1.46859 14.8281 2.17188C15.5783 2.92202 16 3.93913 16 5V13H17C17.2652 13 17.5195 12.8946 17.707 12.707C17.8946 12.5195 18 12.2652 18 12V6C18 5.44772 18.4477 5 19 5C19.5523 5 20 5.44772 20 6V12C20 12.7957 19.6837 13.5585 19.1211 14.1211C18.5585 14.6837 17.7957 15 17 15H16V21H17C17.5523 21 18 21.4477 18 22C18 22.5523 17.5523 23 17 23H7C6.44772 23 6 22.5523 6 22C6 21.4477 6.44772 21 7 21H8V17H7C6.20435 17 5.44151 16.6837 4.87891 16.1211C4.3163 15.5585 4 14.7956 4 14V8C4 7.44772 4.44772 7 5 7C5.55228 7 6 7.44772 6 8V14L6.00488 14.0986C6.02757 14.3276 6.12883 14.5429 6.29297 14.707C6.48051 14.8946 6.73478 15 7 15H8V5C8 3.93913 8.42173 2.92202 9.17188 2.17188C9.92202 1.42173 10.9391 1 12 1L12.1982 1.00488ZM12 3C11.4696 3 10.961 3.21087 10.5859 3.58594C10.2109 3.96101 10 4.46957 10 5V21H14V5C14 4.46957 13.7891 3.96101 13.4141 3.58594C13.0858 3.25765 12.6553 3.05515 12.1973 3.00977L12 3Z" fill="#E4F2F2"/>
</svg>
