<svg width="24" height="24" viewBox="0 0 24 24" fill="none" xmlns="http://www.w3.org/2000/svg">
<path fill-rule="evenodd" clip-rule="evenodd" d="M13.958 2.19041C14.3227 2.1712 14.6845 2.25382 15.0059 2.42576L15.0068 2.42479C17.1687 3.50571 18.8958 5.12543 20.085 6.73924C21.2449 8.3135 21.9999 10.0317 22 11.3457V20C21.9999 20.5302 21.789 21.0391 21.4141 21.414C21.039 21.789 20.5303 22 20 22H4C3.46966 22 2.96099 21.789 2.58594 21.414C2.21101 21.0391 2.0001 20.5302 2 20V12.0097C1.99984 11.5401 2.10982 11.0765 2.32129 10.6572C2.53284 10.2379 2.83996 9.87368 3.21777 9.59471L6.04297 7.50975C6.0146 7.34408 6.00001 7.17374 6 6.99998C6 5.34313 7.34315 3.99998 9 3.99998C9.51183 3.99998 9.99343 4.12847 10.415 4.35447L12.8926 2.56639C13.2042 2.34153 13.5743 2.21063 13.958 2.19041ZM11.7686 5.84373C11.9173 6.19958 12 6.59018 12 6.99998C11.9999 8.65674 10.6568 9.99998 9 9.99998C8.24751 9.99998 7.56179 9.72034 7.03516 9.26268L4.40527 11.2031C4.27934 11.2961 4.17794 11.4188 4.10742 11.5586C4.03835 11.6956 4.00233 11.8466 4.00098 12H16C16.5523 12 17 12.4477 17 13C16.9999 13.5522 16.5522 14 16 14H4V16H16C16.5523 16 17 16.4477 17 17C16.9999 17.5522 16.5522 18 16 18H4V20H20V11.3457C19.9999 10.6597 19.5345 9.36431 18.4746 7.92576C17.4438 6.52677 15.9502 5.1328 14.1123 4.21385L14.0635 4.18748L11.7686 5.84373ZM9 5.99998C8.44772 5.99998 8 6.4477 8 6.99998C8.00011 7.55217 8.44778 7.99998 9 7.99998C9.55222 7.99998 9.99989 7.55217 10 6.99998C10 6.77399 9.92427 6.56588 9.79785 6.39842C9.72588 6.34418 9.6605 6.27926 9.60352 6.20408C9.43565 6.07656 9.22708 5.99998 9 5.99998Z" fill="#E4F2F2"/>
</svg>
