<svg width="24" height="24" viewBox="0 0 24 24" fill="none" xmlns="http://www.w3.org/2000/svg">
<path fill-rule="evenodd" clip-rule="evenodd" d="M1.29302 1.29297C1.68354 0.902482 2.31657 0.902457 2.70708 1.29297L22.7071 21.293C23.0976 21.6835 23.0976 22.3165 22.7071 22.707C22.3166 23.0975 21.6835 23.0975 21.293 22.707L20.9004 22.3145C20.8131 22.3863 20.7234 22.4557 20.628 22.5176C20.1438 22.8315 19.579 22.9988 19.002 23H5.00005C4.20446 23 3.44155 22.6836 2.87895 22.1211C2.31645 21.5585 2.0001 20.7955 2.00005 20V5.9834C2.00962 5.40825 2.18489 4.84777 2.50395 4.36914C2.56376 4.27944 2.62868 4.19361 2.69731 4.11133L1.29302 2.70703C0.902491 2.31651 0.902491 1.68349 1.29302 1.29297ZM4.00005 11V20C4.0001 20.2651 4.10559 20.5196 4.29302 20.707C4.48054 20.8945 4.73489 21 5.00005 21H18.9981C19.1619 20.9996 19.3211 20.9556 19.4649 20.8789L9.58598 11H4.00005ZM4.12993 5.54395C4.04876 5.6883 4.00283 5.85026 4.00005 6.0166V9H7.58598L4.12993 5.54395Z" fill="#E4F2F2"/>
<path d="M16 1C16.5523 1.00004 17 1.44774 17 2V3H19C19.7957 3.00002 20.5585 3.31631 21.1211 3.87891C21.6837 4.44151 22 5.20437 22 6V15.5C22 16.0523 21.5523 16.5 21 16.5C20.4478 16.5 20 16.0523 20 15.5V11H15.5C14.9478 11 14.5 10.5523 14.5 10C14.5 9.44771 14.9478 9 15.5 9H20V6C20 5.7348 19.8946 5.4805 19.7071 5.29297C19.543 5.12884 19.3277 5.02759 19.0987 5.00488L19 5H17V6C17 6.55226 16.5523 6.99996 16 7C15.4478 7 15 6.55228 15 6V5H9.50005C8.94776 5 8.50005 4.55228 8.50005 4C8.50005 3.44772 8.94776 3 9.50005 3H15V2C15 1.44772 15.4478 1 16 1Z" fill="#E4F2F2"/>
</svg>
