<svg width="24" height="24" viewBox="0 0 24 24" fill="none" xmlns="http://www.w3.org/2000/svg">
<path fill-rule="evenodd" clip-rule="evenodd" d="M1.29297 1.29295C1.68349 0.90243 2.31651 0.90243 2.70703 1.29295L11.0889 9.67479C11.1282 9.70819 11.1649 9.74515 11.1992 9.78514L15.2139 13.7998C15.2543 13.8344 15.2915 13.8715 15.3252 13.9111L22.707 21.293C23.0975 21.6835 23.0975 22.3165 22.707 22.707C22.3165 23.0975 21.6835 23.0975 21.293 22.707L19.5859 21H4C3.20441 21 2.4415 20.6836 1.87891 20.1211C1.31642 19.5585 1.00007 18.7955 1 18V8.99999C1.00005 8.20447 1.31643 7.44144 1.87891 6.87889C2.44151 6.31634 3.2044 5.99999 4 5.99999H4.58594L1.29297 2.70702C0.902457 2.3165 0.902482 1.68348 1.29297 1.29295ZM6.53516 7.9492C6.35801 7.98155 6.17816 8.00003 5.99707 7.99999H4C3.73483 7.99999 3.4805 8.10548 3.29297 8.29295C3.10556 8.48043 3.00005 8.7349 3 8.99999V18C3.00007 18.2651 3.10556 18.5196 3.29297 18.707C3.48049 18.8945 3.73485 19 4 19H17.5859L14.6123 16.0264C14.4717 16.1477 14.3239 16.2611 14.167 16.3623C13.6577 16.6905 13.0801 16.8991 12.4785 16.9717C11.8769 17.0441 11.2661 16.9791 10.6934 16.7812C10.1206 16.5833 9.60041 16.2575 9.17188 15.8291C8.74335 15.4006 8.41777 14.8803 8.21973 14.3076C8.02174 13.7349 7.95599 13.124 8.02832 12.5224C8.10075 11.9211 8.30968 11.3432 8.6377 10.834C8.73899 10.6768 8.85212 10.5284 8.97363 10.3877L6.53516 7.9492ZM10.3184 11.917C10.1543 12.1716 10.0509 12.461 10.0146 12.7617C9.9785 13.0624 10.0104 13.368 10.1094 13.6543C10.2084 13.9406 10.3717 14.2008 10.5859 14.415C10.8002 14.6292 11.0604 14.7917 11.3467 14.8906C11.6331 14.9895 11.9384 15.0226 12.2393 14.9863C12.5399 14.9501 12.8285 14.8456 13.083 14.6816C13.1201 14.6577 13.1541 14.6297 13.1895 14.6035L10.3955 11.8096C10.3692 11.8449 10.3423 11.8798 10.3184 11.917Z" fill="#E4F2F2"/>
<path d="M13.9971 2.99999C14.5381 3.00003 15.0695 3.14662 15.5342 3.42381C15.9988 3.70108 16.3807 4.09903 16.6377 4.57518L17.123 5.4746C17.2087 5.63326 17.3364 5.766 17.4912 5.85838C17.646 5.95063 17.8228 5.99992 18.0029 5.99999H20C20.7955 6.00007 21.5595 6.31636 22.1221 6.87889C22.6843 7.44145 23 8.20458 23 8.99999V16.3437C23 16.8959 22.5521 17.3436 22 17.3437C21.4479 17.3436 21 16.8959 21 16.3437V8.99999C21 8.73486 20.8944 8.48047 20.707 8.29295C20.5196 8.10559 20.265 8.00007 20 7.99999H18.0029C17.462 7.99992 16.9304 7.85326 16.4658 7.57616C16.0013 7.29893 15.6203 6.90081 15.3633 6.42479L14.877 5.52538C14.7914 5.3668 14.6645 5.234 14.5098 5.14159C14.3549 5.04922 14.1774 5.00004 13.9971 4.99999H10.0039C9.95239 5 9.90051 5.00376 9.84961 5.0117C9.3041 5.09692 8.79248 4.72414 8.70703 4.1787C8.62173 3.63304 8.99536 3.12142 9.54102 3.03612C9.69406 3.01221 9.849 3 10.0039 2.99999H13.9971Z" fill="#E4F2F2"/>
</svg>
