<svg width="24" height="24" viewBox="0 0 24 24" fill="none" xmlns="http://www.w3.org/2000/svg">
<path fill-rule="evenodd" clip-rule="evenodd" d="M16.2344 1.15233C16.5996 1.00108 17.0019 0.961111 17.3897 1.03807C17.7291 1.10557 18.0448 1.26052 18.3057 1.48534L18.4141 1.58592L18.4189 1.59081C18.5849 1.75911 18.7885 1.88614 19.0127 1.96092C19.237 2.03565 19.4762 2.0556 19.71 2.0205L19.7178 2.01952C20.0249 1.97578 20.3385 2.00439 20.6328 2.10253C20.9271 2.20069 21.1947 2.36659 21.4141 2.58592C21.6334 2.80527 21.7993 3.07296 21.8975 3.36717C21.9956 3.66138 22.0241 3.97518 21.9805 4.28221L21.9785 4.28905C21.9434 4.52271 21.9645 4.76211 22.0391 4.98632C22.0951 5.15452 22.1809 5.31144 22.291 5.44921L22.4092 5.58104L22.4141 5.58592C22.6935 5.86545 22.8837 6.22176 22.9609 6.60936C23.038 6.99704 22.9988 7.39941 22.8477 7.76464C22.6964 8.12988 22.4399 8.44234 22.1113 8.6621C21.7825 8.88187 21.3955 8.9999 21 8.99999H18.6572C18.8823 9.63639 19 10.3122 19 11C19 12.5909 18.368 14.117 17.2432 15.2422L15.2432 17.2422C15.0548 17.4306 14.8534 17.6045 14.6426 17.7656C14.6145 17.7892 14.5853 17.8116 14.5547 17.832C14.1662 18.1178 13.7445 18.3575 13.2969 18.543C12.5689 18.8445 11.788 19 11 19C10.6053 19 10.2125 18.9606 9.82715 18.8838C9.7963 18.8784 9.76614 18.8714 9.73633 18.8633C9.48708 18.8095 9.24096 18.7414 9 18.6562V21C8.99992 21.3955 8.88188 21.7825 8.66211 22.1113C8.44236 22.4399 8.12989 22.6964 7.76465 22.8476C7.39943 22.9988 6.99705 23.038 6.60938 22.9609C6.22177 22.8837 5.86546 22.6935 5.58594 22.414L5.58106 22.4092C5.41503 22.2409 5.21063 22.1138 4.98633 22.039C4.76213 21.9645 4.52273 21.9434 4.28907 21.9785L4.28223 21.9805C3.97519 22.0241 3.6614 21.9955 3.36719 21.8974C3.07298 21.7992 2.80528 21.6334 2.58594 21.414C2.36661 21.1946 2.20071 20.9271 2.10254 20.6328C2.00441 20.3385 1.97579 20.0249 2.01953 19.7178L2.02051 19.7099C2.05561 19.4762 2.03567 19.237 1.96094 19.0127C1.88615 18.7885 1.75913 18.5849 1.59082 18.4189L1.58594 18.414C1.30645 18.1344 1.1152 17.7774 1.03809 17.3896C0.961126 17.0019 1.00109 16.5996 1.15235 16.2344C1.30368 15.8692 1.56003 15.5566 1.88867 15.3369C2.21737 15.1173 2.60468 15.0001 3 15H5.34375C5.11874 14.3636 5.00001 13.6878 5 13C5.00005 11.4091 5.63206 9.88292 6.75684 8.7578L8.75684 6.7578C9.31388 6.20064 9.97529 5.75862 10.7031 5.45702C11.4311 5.15542 12.212 5.00001 13 4.99999C13.3956 4.99999 13.7896 5.03904 14.1758 5.1162C14.2012 5.12071 14.2262 5.1264 14.251 5.1328C14.5045 5.18685 14.755 5.25617 15 5.34276V2.99999C15.0002 2.60466 15.1173 2.21736 15.3369 1.88866C15.5566 1.56002 15.8692 1.30366 16.2344 1.15233ZM3 17C3.39039 17.3865 3.6847 17.8596 3.8584 18.3808C4.03203 18.902 4.0795 19.4567 3.99903 20C4.54245 19.9194 5.09786 19.968 5.61914 20.1416C6.07712 20.2942 6.49793 20.5402 6.85547 20.8623L7 21V17.4707C6.91725 17.3966 6.83553 17.3209 6.75684 17.2422C6.6783 17.1636 6.60298 17.0823 6.5293 17H3ZM13 6.99999C12.4747 7.00001 11.9541 7.10361 11.4688 7.30467C11.3071 7.37165 11.1509 7.44998 11 7.5371V17C11.5253 17 12.0459 16.8963 12.5313 16.6953C12.6929 16.6283 12.8491 16.55 13 16.4629V6.99999ZM8.1709 10.1719C7.42112 10.9219 7.00005 11.9394 7 13C7.00002 14.0605 7.42117 15.078 8.1709 15.8281C8.41853 16.0758 8.69795 16.2885 9 16.4629V9.34276L8.1709 10.1719ZM15 14.6572L15.8291 13.8281C16.5789 13.078 17 12.0606 17 11C17 9.93948 16.5788 8.92191 15.8291 8.17186C15.5813 7.92404 15.3023 7.71057 15 7.53612V14.6572ZM17 6.52928C17.0828 6.60338 17.1644 6.67903 17.2432 6.7578C17.3216 6.8363 17.3971 6.9177 17.4707 6.99999H21C20.6096 6.6135 20.3153 6.14035 20.1416 5.61913C19.968 5.09785 19.9194 4.54243 20 3.99901C19.4567 4.07948 18.902 4.03201 18.3809 3.85839C17.9229 3.70576 17.5021 3.45983 17.1445 3.13768L17 2.99999V6.52928Z" fill="#E4F2F2"/>
</svg>
