<svg width="24" height="24" viewBox="0 0 24 24" fill="none" xmlns="http://www.w3.org/2000/svg">
<path fill-rule="evenodd" clip-rule="evenodd" d="M14.0332 10.0005C14.0485 10.001 14.0638 10.0022 14.0791 10.0034C14.0905 10.0043 14.102 10.005 14.1133 10.0063C14.1185 10.0069 14.1237 10.0076 14.1289 10.0083L14.2012 10.02C14.2047 10.0207 14.2084 10.0212 14.2119 10.0219C14.2317 10.0262 14.2511 10.0321 14.2705 10.0376C14.2819 10.0408 14.2934 10.0437 14.3047 10.0473C14.317 10.0513 14.3287 10.0566 14.3408 10.061C14.4219 10.0905 14.4986 10.1289 14.5684 10.1772C14.5823 10.1869 14.5959 10.1971 14.6094 10.2075C14.6189 10.2149 14.6284 10.2223 14.6377 10.23C14.6814 10.2661 14.7223 10.3062 14.7598 10.3501C14.7649 10.3561 14.7694 10.3625 14.7744 10.3686C14.7867 10.3837 14.7981 10.3996 14.8096 10.4155C14.8182 10.4274 14.8269 10.4393 14.835 10.4516C14.8445 10.4662 14.8534 10.4813 14.8623 10.4966C14.87 10.5098 14.8776 10.523 14.8848 10.5366C14.8877 10.5422 14.8917 10.5476 14.8945 10.5532L15.8945 12.5532C16.1413 13.0471 15.9411 13.6481 15.4473 13.895C15.3035 13.9669 15.1505 13.9986 15 13.9985V22.0005C14.9998 22.5526 14.5522 23.0005 14 23.0005H10C9.44785 23.0005 9.00021 22.5526 9 22.0005V11.0005C9 10.4482 9.44772 10.0005 10 10.0005H14.0332ZM11 21.0005H13V12.0005H11V21.0005Z" fill="#E4F2F2"/>
<path fill-rule="evenodd" clip-rule="evenodd" d="M11.3115 1.27586C11.6975 0.909188 12.3025 0.909188 12.6885 1.27586L12.6914 1.27878C12.693 1.28015 12.6959 1.28141 12.6982 1.28367C12.7031 1.28831 12.7095 1.29523 12.7178 1.3032C12.7348 1.31971 12.7592 1.34392 12.7891 1.37351C12.849 1.43284 12.9339 1.51708 13.0342 1.62156C13.2339 1.82965 13.5027 2.12273 13.7744 2.45554C14.0431 2.78464 14.3322 3.17479 14.5586 3.57664C14.7697 3.95142 15 4.46201 15 5.00046C14.9998 6.65257 13.6522 8.00046 12 8.00046C10.3478 8.00046 9.00021 6.65257 9 5.00046C9 4.46201 9.23029 3.95142 9.44141 3.57664C9.66782 3.17479 9.95695 2.78464 10.2256 2.45554C10.4973 2.12273 10.7661 1.82965 10.9658 1.62156C11.0661 1.51708 11.151 1.43284 11.2109 1.37351C11.2408 1.34392 11.2652 1.31971 11.2822 1.3032C11.2905 1.29523 11.2969 1.28831 11.3018 1.28367C11.3041 1.28141 11.307 1.28015 11.3086 1.27878L11.3115 1.27586ZM11.7744 3.72019C11.5433 4.00332 11.3321 4.29462 11.1836 4.55808C11.11 4.68872 11.0601 4.79845 11.0303 4.88425C11 4.9715 11 5.00694 11 5.00046C11.0002 5.548 11.4524 6.00046 12 6.00046C12.5476 6.00046 12.9998 5.548 13 5.00046C13 5.00694 13 4.9715 12.9697 4.88425C12.9399 4.79845 12.89 4.68872 12.8164 4.55808C12.6679 4.29462 12.4567 4.00332 12.2256 3.72019C12.1506 3.62837 12.0735 3.54081 12 3.45652C11.9265 3.54081 11.8494 3.62837 11.7744 3.72019Z" fill="#E4F2F2"/>
</svg>
