<svg width="24" height="24" viewBox="0 0 24 24" fill="none" xmlns="http://www.w3.org/2000/svg">
<path fill-rule="evenodd" clip-rule="evenodd" d="M14.1855 1.23534C15.9793 0.754248 17.8913 1.0055 19.5 1.93359C21.1086 2.86174 22.2833 4.39086 22.7646 6.18456C23.2454 7.97635 22.9938 9.88552 22.0684 11.4932L22.0693 11.4941C21.8739 11.8377 21.6121 12.1396 21.2998 12.3818C20.9872 12.6241 20.6287 12.8026 20.2471 12.9062C19.8656 13.0097 19.4671 13.0372 19.0752 12.9863C18.6831 12.9354 18.3044 12.807 17.9619 12.6094C17.6193 12.4115 17.3184 12.1473 17.0781 11.833C16.8379 11.5188 16.6626 11.1597 16.5615 10.7773C16.4605 10.395 16.4357 9.99628 16.4893 9.60448C16.5429 9.21286 16.6732 8.83517 16.873 8.49413C16.9396 8.38048 16.9841 8.25353 17.002 8.12304C17.0197 7.99268 17.0112 7.85961 16.9775 7.73241C16.9438 7.60503 16.8847 7.48553 16.8047 7.38085C16.7246 7.27617 16.6249 7.18798 16.5107 7.12206C16.3966 7.05617 16.2703 7.01311 16.1396 6.99609C16.0092 6.97913 15.876 6.98808 15.749 7.02245C15.6221 7.05692 15.5025 7.11678 15.3984 7.19726C15.2944 7.27795 15.2068 7.37968 15.1416 7.49413C15.1364 7.50324 15.1305 7.51254 15.125 7.52148L7.91895 19.2891C7.87961 19.3822 7.82714 19.4697 7.76074 19.5478L6.55273 21.5215L6.55176 21.5205C6.35713 21.8534 6.10184 22.1475 5.79688 22.3838C5.48389 22.6262 5.12506 22.805 4.74316 22.9092C3.97185 23.1194 3.14828 23.0147 2.4541 22.6182C1.75974 22.2214 1.25147 21.5645 1.04102 20.793C0.83069 20.0215 0.935282 19.1972 1.33203 18.5029C1.33712 18.494 1.34229 18.4843 1.34766 18.4756L6.9834 9.2998C7.02064 9.21439 7.06984 9.13406 7.12988 9.06152L9.94824 4.47558C9.95339 4.46675 9.95869 4.45801 9.96387 4.44921C10.0114 4.32226 10.0846 4.20501 10.1807 4.10546C11.1212 2.69993 12.542 1.67629 14.1855 1.23534ZM3.06836 19.4951C2.93478 19.7289 2.89994 20.0068 2.9707 20.2666C3.04157 20.5264 3.21251 20.7472 3.44629 20.8809C3.68013 21.0144 3.95795 21.0503 4.21777 20.9795C4.34616 20.9444 4.46703 20.8842 4.57227 20.8027C4.67751 20.7211 4.76595 20.6186 4.83203 20.5029L4.84766 20.4775L5.85059 18.8379L4.78223 16.7031L3.06836 19.4951ZM6.01563 14.6963L7.08106 16.8271L8.7793 14.0527L7.77246 11.8369L6.01563 14.6963ZM9.03418 9.78124L10.04 11.9941L11.8779 8.99316L10.8193 6.87695L9.03418 9.78124ZM18.6221 6.50976C18.6376 6.53745 18.6504 6.56627 18.6631 6.59472C18.7678 6.79359 18.8534 7.00239 18.9111 7.2207C19.0122 7.60305 19.0369 8.00268 18.9834 8.39452C18.9298 8.78624 18.7985 9.16376 18.5986 9.50488C18.5321 9.61838 18.4886 9.74465 18.4707 9.87499C18.4529 10.0056 18.4615 10.1392 18.4951 10.2666C18.5288 10.3939 18.587 10.5135 18.667 10.6182C18.7471 10.7229 18.8477 10.811 18.9619 10.8769C19.076 10.9428 19.2024 10.9859 19.333 11.0029C19.4636 11.0198 19.5966 11.0101 19.7236 10.9756C19.8507 10.941 19.9702 10.8814 20.0742 10.8008C20.1782 10.7201 20.266 10.6193 20.3311 10.5049L20.334 10.5C20.9968 9.35078 21.1767 7.9845 20.833 6.70312C20.4891 5.42164 19.6493 4.32907 18.5 3.66601C17.9327 3.33872 17.3123 3.12988 16.6758 3.04296L18.6221 6.50976ZM14.4873 3.23046C13.5287 3.53447 12.6872 4.1193 12.0693 4.90331L13.1084 6.98339L13.4189 6.47753C13.6126 6.14529 13.8687 5.85294 14.1729 5.61718C14.4854 5.37497 14.843 5.19639 15.2246 5.09277C15.3152 5.06818 15.4068 5.04819 15.499 5.03222L14.4873 3.23046Z" fill="#E4F2F2"/>
</svg>
