<svg width="24" height="24" viewBox="0 0 24 24" fill="none" xmlns="http://www.w3.org/2000/svg">
<path fill-rule="evenodd" clip-rule="evenodd" d="M11.3115 1.27586C11.6975 0.909188 12.3025 0.909188 12.6885 1.27586L12.6914 1.27878C12.693 1.28015 12.6959 1.28141 12.6982 1.28367C12.7031 1.28831 12.7095 1.29523 12.7178 1.3032C12.7348 1.31971 12.7592 1.34392 12.7891 1.37351C12.849 1.43284 12.9339 1.51708 13.0342 1.62156C13.2339 1.82965 13.5027 2.12273 13.7744 2.45554C14.0431 2.78464 14.3322 3.17479 14.5586 3.57664C14.7697 3.95142 15 4.46201 15 5.00046C14.9998 6.30182 14.1625 7.41102 13 7.82468V9.01414C15.4402 9.0847 17.6612 9.41222 19.3584 9.92136C20.3152 10.2084 21.1627 10.57 21.793 11.0171C22.3971 11.4457 23 12.1016 23 13.0005V19.0005C22.9998 19.9046 22.4024 20.5662 21.79 21.0014C21.1562 21.4519 20.3049 21.813 19.3467 22.0971C17.4172 22.6693 14.8164 23.0005 12 23.0005C9.18362 23.0005 6.58279 22.6693 4.65332 22.0971C3.69515 21.813 2.84385 21.4519 2.20996 21.0014C1.59763 20.5662 1.00017 19.9046 1 19.0005V13.0005C1 12.1016 1.60285 11.4457 2.20703 11.0171C2.83729 10.57 3.68482 10.2084 4.6416 9.92136C6.33876 9.41222 8.55978 9.0847 11 9.01414V7.82468C9.83748 7.41102 9.00017 6.30182 9 5.00046C9 4.46201 9.23029 3.95142 9.44141 3.57664C9.66782 3.17479 9.95695 2.78464 10.2256 2.45554C10.4973 2.12273 10.7661 1.82965 10.9658 1.62156C11.0661 1.51708 11.151 1.43284 11.2109 1.37351C11.2408 1.34392 11.2652 1.31971 11.2822 1.3032C11.2905 1.29523 11.2969 1.28831 11.3018 1.28367C11.3041 1.28141 11.307 1.28015 11.3086 1.27878L11.3115 1.27586ZM21 15.4487C20.5131 15.6895 19.9574 15.8999 19.3584 16.0796C17.6613 16.5887 15.4402 16.9143 13 16.9848V18.0005C12.9998 18.5526 12.5522 19.0005 12 19.0005C11.4478 19.0005 11.0002 18.5526 11 18.0005V16.9848C10.3137 16.965 9.64484 16.9244 9 16.8657V17.0005C8.99979 17.5526 8.55215 18.0005 8 18.0005C7.44785 18.0005 7.00021 17.5526 7 17.0005V16.6118C6.13846 16.4687 5.3449 16.2905 4.6416 16.0796C4.04256 15.8999 3.48686 15.6895 3 15.4487V19.0005C3 18.9462 2.965 19.085 3.36816 19.3716C3.74986 19.6428 4.36772 19.9259 5.22168 20.1792C6.91717 20.682 9.31661 21.0005 12 21.0005C14.6834 21.0005 17.0828 20.682 18.7783 20.1792C19.6323 19.9259 20.2501 19.6428 20.6318 19.3716C21.035 19.085 21 18.9462 21 19.0005V15.4487ZM13 12.0005C12.9998 12.5526 12.5522 13.0005 12 13.0005C11.4478 13.0005 11.0002 12.5526 11 12.0005V11.0151C8.71617 11.0853 6.69604 11.3933 5.21582 11.8374C4.36343 12.0931 3.74595 12.3772 3.36426 12.6479C3.10331 12.833 3.02879 12.9557 3.00781 13.0005C3.029 13.0455 3.10378 13.1682 3.36426 13.353C3.74598 13.6237 4.36351 13.9078 5.21582 14.1636C6.90873 14.6714 9.30791 15.0005 12 15.0005C14.6921 15.0005 17.0913 14.6714 18.7842 14.1636C19.6365 13.9078 20.254 13.6237 20.6357 13.353C20.8955 13.1688 20.9698 13.0458 20.9912 13.0005C20.97 12.9554 20.896 12.8325 20.6357 12.6479C20.2541 12.3772 19.6366 12.0931 18.7842 11.8374C17.304 11.3933 15.2838 11.0853 13 11.0151V12.0005ZM11.7744 3.72019C11.5433 4.00332 11.3321 4.29462 11.1836 4.55808C11.11 4.68872 11.0601 4.79845 11.0303 4.88425C11 4.9715 11 5.00694 11 5.00046C11.0002 5.548 11.4524 6.00046 12 6.00046C12.5476 6.00046 12.9998 5.548 13 5.00046C13 5.00694 13 4.9715 12.9697 4.88425C12.9399 4.79845 12.89 4.68872 12.8164 4.55808C12.6679 4.29462 12.4567 4.00332 12.2256 3.72019C12.1506 3.62837 12.0735 3.54081 12 3.45652C11.9265 3.54081 11.8494 3.62837 11.7744 3.72019Z" fill="#E4F2F2"/>
</svg>
