<svg width="24" height="24" viewBox="0 0 24 24" fill="none" xmlns="http://www.w3.org/2000/svg">
<path fill-rule="evenodd" clip-rule="evenodd" d="M1.29297 1.29296C1.68345 0.902473 2.3165 0.902556 2.70703 1.29296L22.707 21.293C23.0976 21.6835 23.0976 22.3165 22.707 22.707C22.3165 23.0975 21.6835 23.0975 21.293 22.707L15.5352 16.9492L15.2432 17.2422C14.118 18.3673 12.5913 18.999 11 18.999C10.6247 18.999 10.2533 18.9621 9.88965 18.8935C9.82547 18.8865 9.76306 18.8741 9.70313 18.8555C9.46443 18.8026 9.22973 18.7355 9 18.6543V21C8.99992 21.3955 8.88188 21.7825 8.66211 22.1113C8.44236 22.4399 8.12989 22.6964 7.76465 22.8476C7.39943 22.9988 6.99705 23.038 6.60938 22.9609C6.22177 22.8837 5.86546 22.6935 5.58594 22.414L5.58106 22.4092C5.41503 22.2409 5.21063 22.1138 4.98633 22.039C4.76213 21.9645 4.52273 21.9434 4.28907 21.9785L4.28223 21.9805C3.97519 22.0241 3.6614 21.9955 3.36719 21.8974C3.07298 21.7992 2.80528 21.6334 2.58594 21.414C2.36661 21.1946 2.20071 20.9271 2.10254 20.6328C2.00441 20.3385 1.97579 20.0249 2.01953 19.7178L2.02051 19.7099C2.05561 19.4762 2.03567 19.237 1.96094 19.0127C1.88615 18.7885 1.75913 18.5849 1.59082 18.4189L1.58594 18.414C1.30645 18.1344 1.1152 17.7774 1.03809 17.3896C0.961126 17.0019 1.00109 16.5996 1.15235 16.2344C1.30368 15.8692 1.56003 15.5566 1.88867 15.3369C2.21737 15.1173 2.60468 15.0001 3 15H5.34473C5.1197 14.3636 5.00098 13.6878 5.00098 13C5.00101 11.4091 5.63305 9.88293 6.75781 8.7578L7.04981 8.46385L1.29297 2.70702C0.902571 2.31648 0.902488 1.68344 1.29297 1.29296ZM3 17C3.39039 17.3865 3.6847 17.8596 3.8584 18.3808C4.03203 18.902 4.0795 19.4567 3.99903 20C4.54245 19.9194 5.09786 19.968 5.61914 20.1416C6.07712 20.2942 6.49793 20.5402 6.85547 20.8623L7 21V17.4697C6.91771 17.3961 6.83631 17.3207 6.75781 17.2422C6.67928 17.1636 6.60396 17.0823 6.53028 17H3ZM11 16.999C12.0608 16.999 13.079 16.5782 13.8291 15.8281L14.1211 15.5351L11 12.4141V16.999ZM8.17285 10.1719C7.42307 10.9219 7.00101 11.9394 7.00098 13C7.00098 14.0605 7.42214 15.078 8.17188 15.8281C8.42089 16.0771 8.70025 16.2888 9 16.4619V10.4141L8.46485 9.87889L8.17285 10.1719Z" fill="#E4F2F2"/>
<path fill-rule="evenodd" clip-rule="evenodd" d="M16.2344 1.15233C16.5996 1.00108 17.0019 0.961111 17.3897 1.03807C17.7291 1.10557 18.0448 1.26052 18.3057 1.48534L18.4141 1.58592L18.4189 1.59081C18.5849 1.75911 18.7885 1.88614 19.0127 1.96092C19.237 2.03565 19.4762 2.0556 19.71 2.0205L19.7178 2.01952C20.0249 1.97578 20.3385 2.00439 20.6328 2.10253C20.9271 2.20069 21.1947 2.36659 21.4141 2.58592C21.6334 2.80527 21.7993 3.07296 21.8975 3.36717C21.9956 3.66138 22.0241 3.97518 21.9805 4.28221L21.9785 4.28905C21.9434 4.52271 21.9645 4.76211 22.0391 4.98632C22.0951 5.15452 22.1809 5.31144 22.291 5.44921L22.4092 5.58104L22.4141 5.58592C22.6935 5.86545 22.8837 6.22176 22.9609 6.60936C23.038 6.99704 22.9988 7.39941 22.8477 7.76464C22.6964 8.12988 22.4399 8.44234 22.1113 8.6621C21.7825 8.88187 21.3955 8.9999 21 8.99999H18.6572C18.7026 9.12821 18.7436 9.25813 18.7803 9.38964C19.0574 10.3848 19.0729 11.4346 18.8252 12.4375C18.6928 12.9736 18.1513 13.3012 17.6152 13.1689C17.0793 13.0363 16.7514 12.494 16.8838 11.958C17.0489 11.2893 17.0383 10.5893 16.8535 9.92577C16.6687 9.26248 16.316 8.65781 15.8291 8.17089C15.5806 7.92248 15.3018 7.70844 15 7.53417V8.34374C14.9997 8.89573 14.5521 9.34374 14 9.34374C13.448 9.34367 13.0003 8.89569 13 8.34374V6.99999C12.6785 7.00004 12.3566 7.03758 12.042 7.11522C11.506 7.24744 10.9635 6.92075 10.8311 6.38475C10.6989 5.84891 11.0259 5.3065 11.5615 5.17382C12.417 4.96253 13.3071 4.94451 14.168 5.11522C14.179 5.11709 14.1902 5.11787 14.2012 5.1201L14.2354 5.12694C14.3611 5.15337 14.4861 5.18415 14.6104 5.21874C14.7418 5.25535 14.8718 5.29744 15 5.34276V2.99999C15.0002 2.60466 15.1173 2.21736 15.3369 1.88866C15.5566 1.56002 15.8692 1.30366 16.2344 1.15233ZM17 6.52733C17.083 6.60153 17.1642 6.67788 17.2432 6.75682C17.3217 6.83537 17.3969 6.91747 17.4707 6.99999H21C20.6096 6.6135 20.3153 6.14035 20.1416 5.61913C19.968 5.09785 19.9194 4.54243 20 3.99901C19.4567 4.07948 18.902 4.03201 18.3809 3.85839C17.9229 3.70576 17.5021 3.45983 17.1445 3.13768L17 2.99999V6.52733Z" fill="#E4F2F2"/>
</svg>
