<svg width="24" height="24" viewBox="0 0 24 24" fill="none" xmlns="http://www.w3.org/2000/svg">
<path fill-rule="evenodd" clip-rule="evenodd" d="M10 8C10.5523 8 11 8.44772 11 9V10H12C12.5523 10 13 10.4477 13 11V17H17V16C17 15.4067 17.1762 14.8264 17.5059 14.333C17.8354 13.8399 18.3037 13.4556 18.8516 13.2285C19.3996 13.0015 20.0031 12.9419 20.585 13.0576C21.1669 13.1734 21.7015 13.4593 22.1211 13.8789C22.5406 14.2985 22.8266 14.8331 22.9424 15.415C23.0581 15.9969 22.9985 16.6004 22.7715 17.1484C22.5444 17.6963 22.1601 18.1646 21.667 18.4941C21.1736 18.8238 20.5933 19 20 19H18.8984C18.7038 19.9534 18.2335 20.8368 17.5352 21.5352C16.5975 22.4728 15.3261 23 14 23H6C4.67392 23 3.40253 22.4728 2.46484 21.5352C1.52716 20.5975 1 19.3261 1 18C1 17.7348 1.10543 17.4805 1.29297 17.293C1.48051 17.1054 1.73478 17 2 17H7V11C7 10.4477 7.44772 10 8 10H9V9C9 8.44772 9.44771 8 10 8ZM3.17578 19C3.32358 19.4174 3.55984 19.802 3.87891 20.1211C4.44152 20.6837 5.20435 21 6 21H14C14.7956 21 15.5585 20.6837 16.1211 20.1211C16.4402 19.802 16.6764 19.4174 16.8242 19H3.17578ZM9 17H11V12H9V17ZM20.1953 15.0195C20.0013 14.9809 19.7999 15.0005 19.6172 15.0762C19.4346 15.1518 19.2788 15.28 19.1689 15.4443C19.0591 15.6088 19 15.8022 19 16V17H20C20.1978 17 20.3912 16.9409 20.5557 16.8311C20.72 16.7212 20.8482 16.5654 20.9238 16.3828C20.9995 16.2001 21.0191 15.9987 20.9805 15.8047C20.9418 15.6108 20.8468 15.4328 20.707 15.293C20.5672 15.1532 20.3892 15.0582 20.1953 15.0195Z" fill="#E4F2F2"/>
</svg>
