<svg width="24" height="24" viewBox="0 0 24 24" fill="none" xmlns="http://www.w3.org/2000/svg">
<path fill-rule="evenodd" clip-rule="evenodd" d="M12 6C12.5523 6 13 6.44772 13 7V9.01367C15.4402 9.08424 17.6612 9.41175 19.3584 9.9209C20.3152 10.2079 21.1627 10.5696 21.793 11.0166C22.3972 11.4452 23 12.1011 23 13V19C23 19.9043 22.4025 20.5657 21.79 21.001C21.1561 21.4515 20.3049 21.8125 19.3467 22.0967C17.4172 22.6688 14.8164 23 12 23C9.18357 23 6.5828 22.6688 4.65332 22.0967C3.69506 21.8125 2.84386 21.4515 2.20996 21.001C1.59754 20.5657 1 19.9043 1 19V13C1 12.1011 1.60279 11.4452 2.20703 11.0166C2.83731 10.5696 3.68478 10.2079 4.6416 9.9209C6.33876 9.41175 8.55977 9.08424 11 9.01367V7C11 6.44772 11.4477 6 12 6ZM21 15.4492C20.5132 15.69 19.9573 15.8994 19.3584 16.0791C17.432 16.657 14.8307 17 12 17C9.1693 17 6.56798 16.657 4.6416 16.0791C4.04265 15.8994 3.4868 15.69 3 15.4492V19C3 18.9457 2.965 19.0845 3.36816 19.3711C3.74985 19.6424 4.36758 19.9254 5.22168 20.1787C6.91718 20.6815 9.31655 21 12 21C14.6835 21 17.0828 20.6815 18.7783 20.1787C19.6324 19.9254 20.2502 19.6424 20.6318 19.3711C21.035 19.0845 21 18.9457 21 19V15.4492ZM13 12C13 12.5523 12.5523 13 12 13C11.4477 13 11 12.5523 11 12V11.0146C8.71616 11.0849 6.69604 11.3928 5.21582 11.8369C4.36338 12.0927 3.74596 12.3768 3.36426 12.6475C3.10316 12.8327 3.0288 12.9552 3.00781 13C3.0288 13.0448 3.10316 13.1673 3.36426 13.3525C3.74596 13.6232 4.36338 13.9073 5.21582 14.1631C6.90873 14.671 9.30786 15 12 15C14.6921 15 17.0913 14.671 18.7842 14.1631C19.6366 13.9073 20.254 13.6232 20.6357 13.3525C20.8961 13.1679 20.97 13.0451 20.9912 13C20.97 12.9549 20.8961 12.8321 20.6357 12.6475C20.254 12.3768 19.6366 12.0927 18.7842 11.8369C17.304 11.3928 15.2838 11.0849 13 11.0146V12Z" fill="#E4F2F2"/>
</svg>
