<svg width="24" height="24" viewBox="0 0 24 24" fill="none" xmlns="http://www.w3.org/2000/svg">
<path fill-rule="evenodd" clip-rule="evenodd" d="M12.0791 10.0034C12.0905 10.0043 12.102 10.005 12.1133 10.0063C12.1185 10.0069 12.1237 10.0076 12.1289 10.0083L12.2012 10.02C12.2047 10.0207 12.2084 10.0212 12.2119 10.0219C12.2317 10.0262 12.2511 10.0321 12.2705 10.0376C12.2819 10.0408 12.2934 10.0437 12.3047 10.0473C12.317 10.0513 12.3287 10.0566 12.3408 10.061C12.4219 10.0905 12.4986 10.1289 12.5684 10.1772C12.5823 10.1869 12.5959 10.1971 12.6094 10.2075C12.6189 10.2149 12.6284 10.2223 12.6377 10.23C12.6814 10.2661 12.7223 10.3062 12.7598 10.3501C12.7649 10.3561 12.7694 10.3625 12.7744 10.3686C12.7867 10.3837 12.7981 10.3996 12.8096 10.4155C12.8182 10.4274 12.8268 10.4393 12.835 10.4516C12.8445 10.4662 12.8534 10.4813 12.8623 10.4966C12.87 10.5098 12.8776 10.523 12.8848 10.5366C12.8877 10.5422 12.8917 10.5476 12.8945 10.5532L13.8945 12.5532C14.1413 13.0471 13.9411 13.6481 13.4473 13.895C13.3035 13.9669 13.1505 13.9986 13 13.9985V17.0005H17V16.0005C17 15.4072 17.1763 14.8268 17.5059 14.3335C17.8354 13.8404 18.3037 13.456 18.8516 13.229C19.3996 13.002 20.0031 12.9424 20.585 13.0581C21.1669 13.1738 21.7016 13.4598 22.1211 13.8794C22.5405 14.2989 22.8266 14.8336 22.9424 15.4155C23.058 15.9972 22.9985 16.6009 22.7715 17.1489C22.5444 17.6967 22.16 18.1651 21.667 18.4946C21.1737 18.8242 20.5933 19.0005 20 19.0005H18.8984C18.7037 19.9537 18.2334 20.8374 17.5352 21.5356C16.5975 22.4732 15.326 23.0005 14 23.0005H6C4.67401 23.0005 3.40251 22.4732 2.46484 21.5356C1.52725 20.598 1.0001 19.3264 1 18.0005C1 17.7353 1.10555 17.4809 1.29297 17.2934C1.48051 17.1059 1.73478 17.0005 2 17.0005H7V11.0005C7 10.4482 7.44772 10.0005 8 10.0005H12.0332C12.0485 10.001 12.0638 10.0022 12.0791 10.0034ZM3.17578 19.0005C3.32359 19.4177 3.55993 19.8026 3.87891 20.1216C4.4415 20.684 5.20444 21.0005 6 21.0005H14C14.7956 21.0005 15.5585 20.684 16.1211 20.1216C16.4401 19.8026 16.6764 19.4177 16.8242 19.0005H3.17578ZM9 17.0005H11V12.0005H9V17.0005ZM20.1953 15.02C20.0013 14.9814 19.7999 15.0009 19.6172 15.0766C19.4347 15.1523 19.2788 15.2806 19.1689 15.4448C19.0592 15.6092 19 15.8028 19 16.0005V17.0005H20C20.1977 17.0005 20.3913 16.9413 20.5557 16.8315C20.7199 16.7217 20.8482 16.5657 20.9238 16.3833C20.9995 16.2007 21.019 15.999 20.9805 15.8052C20.9419 15.6114 20.8467 15.4332 20.707 15.2934C20.5673 15.1537 20.3892 15.0586 20.1953 15.02Z" fill="#E4F2F2"/>
<path fill-rule="evenodd" clip-rule="evenodd" d="M9.31152 1.27586C9.69749 0.909188 10.3025 0.909188 10.6885 1.27586L10.6914 1.27878C10.693 1.28015 10.6959 1.28141 10.6982 1.28367C10.7031 1.28831 10.7095 1.29523 10.7178 1.3032C10.7348 1.31971 10.7592 1.34392 10.7891 1.37351C10.849 1.43284 10.9339 1.51708 11.0342 1.62156C11.2339 1.82965 11.5027 2.12273 11.7744 2.45554C12.0431 2.78464 12.3322 3.17479 12.5586 3.57664C12.7697 3.95142 13 4.46201 13 5.00046C12.9998 6.65257 11.6522 8.00046 10 8.00046C8.34785 8.00046 7.00021 6.65257 7 5.00046C7 4.46201 7.23029 3.95142 7.44141 3.57664C7.66782 3.17479 7.95695 2.78464 8.22559 2.45554C8.49728 2.12273 8.76606 1.82965 8.96582 1.62156C9.06612 1.51708 9.15097 1.43284 9.21094 1.37351C9.24085 1.34392 9.26518 1.31971 9.28223 1.3032C9.29045 1.29523 9.29693 1.28831 9.30176 1.28367C9.30411 1.28141 9.30704 1.28015 9.30859 1.27878L9.31152 1.27586ZM9.77441 3.72019C9.54331 4.00332 9.33205 4.29462 9.18359 4.55808C9.11001 4.68872 9.06012 4.79845 9.03027 4.88425C8.99997 4.9715 8.99999 5.00694 9 5.00046C9.00021 5.548 9.45241 6.00046 10 6.00046C10.5476 6.00046 10.9998 5.548 11 5.00046C11 5.00694 11 4.9715 10.9697 4.88425C10.9399 4.79845 10.89 4.68872 10.8164 4.55808C10.6679 4.29462 10.4567 4.00332 10.2256 3.72019C10.1506 3.62837 10.0735 3.54081 10 3.45652C9.92653 3.54081 9.84937 3.62837 9.77441 3.72019Z" fill="#E4F2F2"/>
</svg>
