<svg width="24" height="24" viewBox="0 0 24 24" fill="none" xmlns="http://www.w3.org/2000/svg">
<path fill-rule="evenodd" clip-rule="evenodd" d="M15 13C15.5272 13 16.0439 13.1806 16.4316 13.5684C16.6944 13.8312 16.8597 14.1537 16.9404 14.498C17.1134 14.9078 17.3223 15.3626 17.5039 15.7461C17.6141 15.9787 17.7128 16.1813 17.7832 16.3252C17.8183 16.397 17.8459 16.4552 17.8652 16.4941C17.8748 16.5135 17.8828 16.5282 17.8877 16.5381C17.8901 16.5429 17.8923 16.5464 17.8936 16.5488C17.8941 16.5499 17.8943 16.5512 17.8945 16.5518C18.1413 17.0455 17.9408 17.6464 17.4473 17.8936C17.3035 17.9654 17.1504 17.9981 17 17.998V22C17 22.5523 16.5523 23 16 23H8C7.44772 23 7 22.5523 7 22V15C7 14.4728 7.18058 13.9561 7.56836 13.5684C7.95614 13.1806 8.47275 13 9 13H15ZM9 21H15V15.0391C14.9947 15.0259 14.9887 15.0131 14.9834 15H13V17C13 17.5523 12.5523 18 12 18C11.4477 18 11 17.5523 11 17V15H9V21Z" fill="#E4F2F2"/>
<path fill-rule="evenodd" clip-rule="evenodd" d="M12 1C12.2817 1 12.5507 1.11867 12.7402 1.32715L12.7432 1.33105C12.745 1.33312 12.7477 1.33626 12.751 1.33984C12.7576 1.34719 12.7673 1.35769 12.7793 1.37109C12.8032 1.39785 12.8377 1.43618 12.8809 1.48535C12.9673 1.58388 13.0892 1.72586 13.2354 1.90039C13.5267 2.24837 13.9177 2.73294 14.3105 3.27637C14.7008 3.81616 15.1075 4.43385 15.4209 5.04492C15.719 5.62619 16 6.32791 16 7C16 9.25229 14.2523 11 12 11C9.74772 11 8 9.25229 8 7C8 6.32791 8.28101 5.62619 8.5791 5.04492C8.8925 4.43385 9.29924 3.81616 9.68945 3.27637C10.0823 2.73294 10.4733 2.24837 10.7646 1.90039C10.9108 1.72586 11.0327 1.58388 11.1191 1.48535C11.1623 1.43618 11.1968 1.39785 11.2207 1.37109C11.2327 1.35769 11.2424 1.34719 11.249 1.33984C11.2523 1.33626 11.255 1.33312 11.2568 1.33105L11.335 1.25293C11.5172 1.09073 11.7536 1 12 1ZM12 3.55078C11.7874 3.81481 11.5476 4.1203 11.3105 4.44824C10.9508 4.94586 10.6075 5.47231 10.3584 5.95801C10.0941 6.47352 10 6.82211 10 7C10 8.14772 10.8523 9 12 9C13.1477 9 14 8.14772 14 7C14 6.82211 13.9059 6.47352 13.6416 5.95801C13.3925 5.47231 13.0492 4.94586 12.6895 4.44824C12.4524 4.1203 12.2126 3.81481 12 3.55078Z" fill="#E4F2F2"/>
</svg>
