<svg width="24" height="24" viewBox="0 0 24 24" fill="none" xmlns="http://www.w3.org/2000/svg">
<path fill-rule="evenodd" clip-rule="evenodd" d="M12 1C12.3147 1.00007 12.611 1.14865 12.7998 1.40039C14.0582 3.07843 14.6661 5.04065 14.8916 7.02051C15.4553 6.65283 16.0733 6.3141 16.7148 6.02539C18.0488 5.42518 19.5665 5 21 5C21.5522 5.00013 22 5.44779 22 6C22 7.33479 21.2067 8.80656 20.373 9.96094C19.9858 10.4971 19.551 11.0125 19.1123 11.4727C19.5435 11.641 19.9705 11.8444 20.3652 12.0664C20.917 12.3768 21.4554 12.75 21.9023 13.1689C22.3384 13.5778 22.7497 14.0882 22.9482 14.6836C23.1126 15.1769 22.8714 15.714 22.3935 15.9189C20.6604 16.6617 19.1446 16.9476 18.0049 17.04C18.7356 18.3931 19 19.8372 19 21C19 21.5522 18.5522 21.9999 18 22C16.0221 22 14.353 21.1931 13 20.1914V22C13 22.5522 12.5522 22.9999 12 23C11.4477 23 11 22.5523 11 22V20.1904C9.64688 21.1923 7.97817 21.9999 5.99999 22C5.44771 22 4.99999 21.5523 4.99999 21C4.99999 19.8373 5.26357 18.393 5.99413 17.04C4.85451 16.9475 3.33915 16.6615 1.60644 15.9189C1.1284 15.7141 0.887285 15.177 1.05175 14.6836C1.25033 14.0882 1.66152 13.5778 2.09765 13.1689C2.54457 12.75 3.08298 12.3768 3.63476 12.0664C4.02923 11.8445 4.45578 11.6409 4.88671 11.4727C4.44821 11.0126 4.01409 10.4969 3.62695 9.96094C2.79321 8.80654 1.99999 7.33483 1.99999 6C1.99999 5.44772 2.44771 5 2.99999 5C4.43349 5.00005 5.95124 5.42516 7.28515 6.02539C7.92646 6.31399 8.54392 6.653 9.10742 7.02051C9.33291 5.04058 9.94168 3.07848 11.2002 1.40039L11.2754 1.31055C11.4629 1.11346 11.7246 1 12 1ZM12 3.92871C11.2801 5.43631 11 7.18084 11 9C11 9.40434 10.7563 9.76897 10.3828 9.92383C10.0092 10.0786 9.57896 9.99294 9.29296 9.70703C8.64645 9.06052 7.62957 8.3738 6.46484 7.84961C5.74649 7.52635 5.00247 7.279 4.28808 7.13672C4.50123 7.63809 4.82593 8.20456 5.24804 8.78906C6.01402 9.84962 6.93264 10.7533 7.55468 11.168C7.9212 11.4124 8.08467 11.8684 7.95702 12.29C7.82927 12.7116 7.44048 12.9999 6.99999 13C6.49589 13 5.54699 13.2845 4.61523 13.8086C4.22208 14.0297 3.86792 14.2768 3.58202 14.5254C4.69919 14.8839 5.65353 15.0222 6.37109 15.0645C6.85167 15.0927 7.22693 15.0776 7.47363 15.0576C7.59674 15.0476 7.68814 15.0363 7.74413 15.0283C7.77201 15.0243 7.79172 15.0213 7.80175 15.0195L7.80566 15.0186C8.23708 14.9332 8.67423 15.1404 8.88183 15.5283C9.08954 15.9167 9.01844 16.3955 8.70702 16.707C7.77957 17.6345 7.29538 18.8055 7.10253 19.8809C8.51178 19.5796 9.75331 18.7344 10.8379 17.7314L11.293 17.293C11.3501 17.2358 11.4148 17.1866 11.4844 17.1445C11.5063 17.1313 11.5281 17.1179 11.5508 17.1064C11.6127 17.0752 11.6785 17.0511 11.7471 17.0332C11.7611 17.0296 11.7749 17.0255 11.7891 17.0225C11.8029 17.0195 11.817 17.017 11.831 17.0146C11.8466 17.012 11.8623 17.0097 11.8779 17.0078C11.8957 17.0057 11.9136 17.0041 11.9316 17.0029C11.9476 17.0018 11.9635 17.0013 11.9795 17.001C11.9862 17.0008 11.9932 17 12 17C12.0069 17 12.0137 17.0008 12.0205 17.001C12.0384 17.0013 12.0563 17.0016 12.0742 17.0029C12.0909 17.0042 12.1075 17.0058 12.124 17.0078C12.1371 17.0094 12.15 17.0125 12.1631 17.0146C12.1811 17.0176 12.1991 17.0205 12.2168 17.0244C12.2279 17.0269 12.239 17.0294 12.25 17.0322C12.3015 17.0455 12.3515 17.0621 12.3994 17.083C12.511 17.1316 12.6157 17.2017 12.707 17.293C13.8954 18.4813 15.2863 19.5365 16.8965 19.8809C16.7036 18.8056 16.2203 17.6344 15.293 16.707C14.9814 16.3955 14.9104 15.9168 15.1182 15.5283C15.3257 15.1407 15.7622 14.9336 16.1934 15.0186L16.1982 15.0195C16.2084 15.0213 16.2281 15.0244 16.2559 15.0283C16.3119 15.0363 16.4033 15.0476 16.5264 15.0576C16.7731 15.0776 17.1484 15.0927 17.6289 15.0645C18.3463 15.0222 19.3002 14.8837 20.417 14.5254C20.1312 14.277 19.7776 14.0296 19.3848 13.8086C18.4531 13.2846 17.5042 13.0001 17 13C16.5594 13 16.1708 12.7116 16.043 12.29C15.9153 11.8683 16.0786 11.4124 16.4453 11.168C17.0674 10.7532 17.986 9.84958 18.7519 8.78906C19.1739 8.2047 19.4978 7.63799 19.7109 7.13672C18.9968 7.27901 18.2532 7.5265 17.5351 7.84961C16.3704 8.37377 15.3536 9.06051 14.707 9.70703C14.4211 9.99298 13.9908 10.0785 13.6172 9.92383C13.2436 9.76902 13 9.40442 13 9C13 7.18087 12.7199 5.43629 12 3.92871Z" fill="#E4F2F2"/>
</svg>
