<svg width="24" height="24" viewBox="0 0 24 24" fill="none" xmlns="http://www.w3.org/2000/svg">
<path fill-rule="evenodd" clip-rule="evenodd" d="M1.29297 1.29297C1.6835 0.902487 2.31652 0.902461 2.70703 1.29297L7.65918 6.24512C7.68898 6.27163 7.71706 6.29957 7.74317 6.3291L22.707 21.293C23.0975 21.6835 23.0975 22.3165 22.707 22.707C22.3165 23.0975 21.6835 23.0975 21.293 22.707L18.9756 20.3897C18.9916 20.5999 19 20.8039 19 21C19 21.5523 18.5522 22 18 22C16.0228 22 14.3531 21.1951 13 20.1943V22C13 22.5523 12.5523 23 12 23C11.4477 23 11 22.5523 11 22V20.1943C9.64688 21.1951 7.97722 22 6 22C5.44772 22 5 21.5523 5 21C5 19.8373 5.26357 18.393 5.99414 17.04C4.85449 16.9475 3.33921 16.6615 1.60645 15.9189C1.12841 15.7141 0.887292 15.177 1.05176 14.6836C1.25033 14.0882 1.66151 13.5778 2.09766 13.1689C2.54459 12.75 3.08296 12.3768 3.63477 12.0664C4.02927 11.8445 4.45574 11.6409 4.88672 11.4727C4.4482 11.0126 4.01411 10.497 3.62695 9.96094C2.79322 8.80654 2 7.33484 2 6C2 5.44772 2.44772 5 3 5C3.20199 5.00001 3.40571 5.00821 3.61035 5.02442L1.29297 2.70703C0.902445 2.31651 0.902445 1.6835 1.29297 1.29297ZM4.28711 7.13575C4.50025 7.63742 4.82559 8.20408 5.24805 8.78907C6.01404 9.84966 6.93264 10.7533 7.55469 11.168C7.9213 11.4124 8.08471 11.8683 7.95703 12.29C7.82926 12.7116 7.44055 13 7 13C6.49587 13 5.54703 13.2845 4.61524 13.8086C4.22205 14.0298 3.86794 14.2768 3.58203 14.5254C4.69926 14.8839 5.65351 15.0222 6.37109 15.0645C6.85175 15.0927 7.22691 15.0776 7.47363 15.0576C7.59683 15.0476 7.68813 15.0363 7.74414 15.0283C7.7721 15.0243 7.79171 15.0213 7.80176 15.0195L7.80567 15.0186C8.23714 14.9331 8.67422 15.1404 8.88184 15.5283C9.08961 15.9168 9.01853 16.3955 8.70703 16.707C7.77957 17.6345 7.29538 18.8055 7.10254 19.8809C8.7131 19.5367 10.1044 18.4816 11.293 17.293C11.3087 17.2772 11.3253 17.2625 11.3418 17.2481C11.3534 17.2379 11.3648 17.2274 11.377 17.2178C11.4063 17.1944 11.4366 17.1729 11.4678 17.1533C11.4783 17.1467 11.4892 17.141 11.5 17.1348C11.579 17.089 11.6627 17.0545 11.749 17.0322C11.7568 17.0302 11.7646 17.0282 11.7725 17.0264C11.8568 17.0067 11.9432 16.9985 12.0293 17.001C12.0433 17.0014 12.0573 17.0019 12.0713 17.0029C12.1122 17.0058 12.153 17.0106 12.1934 17.0186C12.1957 17.019 12.1979 17.02 12.2002 17.0205C12.2401 17.0286 12.2795 17.0397 12.3184 17.0527C12.3285 17.0561 12.3386 17.0597 12.3486 17.0635C12.3883 17.0782 12.4279 17.0943 12.4658 17.1143C12.4706 17.1168 12.4748 17.1205 12.4795 17.1231C12.5118 17.1407 12.5427 17.1611 12.5732 17.1826C12.5854 17.1912 12.5975 17.1998 12.6094 17.209C12.643 17.2349 12.6762 17.2622 12.707 17.293L13.1621 17.7314C14.2465 18.7342 15.4876 19.5795 16.8965 19.8809C16.7157 18.8728 16.2798 17.7805 15.4619 16.8838L15.293 16.707L6.41309 7.82715C5.71102 7.51547 4.98554 7.27478 4.28711 7.13575Z" fill="#E4F2F2"/>
<path d="M11.9971 1C12.3127 0.999177 12.6104 1.14792 12.7998 1.40039C14.0591 3.07961 14.666 5.04342 14.8916 7.02246C16.6148 5.89824 18.9206 5.00001 21 5C21.5522 5.00006 22 5.44776 22 6C22 7.23613 21.3206 8.58116 20.5781 9.66895C20.1368 10.3154 19.6254 10.9345 19.1123 11.4727C19.7064 11.7046 20.3086 12.0088 20.8496 12.3574C21.7042 12.9082 22.6233 13.7053 22.9492 14.6836C23.1136 15.177 22.8716 15.7142 22.3936 15.9189C22.0514 16.0654 21.7041 16.2 21.3525 16.3223C20.8309 16.5036 20.2605 16.2277 20.0791 15.7061C19.9284 15.272 20.0946 14.8048 20.4551 14.5557C20.269 14.3902 20.0396 14.2147 19.7656 14.0381C19.0407 13.571 18.194 13.2156 17.5342 13.0693C17.2512 13.0067 17.0236 12.8296 16.8877 12.5977C16.7768 12.5358 16.6756 12.4523 16.5918 12.3467C16.2487 11.9139 16.3212 11.2846 16.7539 10.9414C17.4193 10.4137 18.2587 9.51973 18.9268 8.54102C19.2676 8.04169 19.5314 7.5648 19.7129 7.1377C17.9874 7.48126 16.1474 8.42625 14.9971 9.43555C14.5819 9.79966 13.9501 9.75885 13.5859 9.34375C13.5412 9.2928 13.5032 9.23823 13.4707 9.18164C13.1929 9.01328 13.0016 8.71403 12.9883 8.36524C12.928 6.77327 12.634 5.25832 11.999 3.92871C11.8043 4.33246 11.6411 4.75206 11.5137 5.1836C11.3571 5.71298 10.801 6.01568 10.2715 5.85938C9.7421 5.7029 9.43959 5.14665 9.5957 4.61719C9.9371 3.46127 10.4791 2.37394 11.1963 1.40528L11.2715 1.31446C11.4585 1.11582 11.7209 1.00092 11.9971 1Z" fill="#E4F2F2"/>
</svg>
