<svg width="24" height="24" viewBox="0 0 24 24" fill="none" xmlns="http://www.w3.org/2000/svg">
<path d="M9.5 14C10.0522 14 10.5 14.4477 10.5 15C10.5 15.5522 10.0522 15.9999 9.5 16H7C6.44774 16 6.00004 15.5522 6 15C6 14.4477 6.44772 14 7 14H9.5Z" fill="#E4F2F2"/>
<path fill-rule="evenodd" clip-rule="evenodd" d="M1.29297 1.29295C1.68349 0.90243 2.31651 0.90243 2.70703 1.29295L22.707 21.293C23.0975 21.6835 23.0975 22.3165 22.707 22.707C22.3165 23.0975 21.6835 23.0975 21.293 22.707L18.5859 20H5C4.20439 20 3.44151 19.6836 2.87891 19.1211C2.31631 18.5585 2.00002 17.7956 2 17V6.99999C2 6.20434 2.3163 5.4415 2.87891 4.87889C2.97759 4.78021 3.08424 4.69153 3.19434 4.60838L1.29297 2.70702C0.902444 2.31649 0.902444 1.68348 1.29297 1.29295ZM4.64941 6.06346C4.51681 6.11313 4.39503 6.19089 4.29297 6.29295C4.10543 6.48049 4 6.73477 4 6.99999V17C4.00002 17.2652 4.10545 17.5195 4.29297 17.707C4.4805 17.8945 4.73482 18 5 18H16.5859L10.5859 12H7C6.44774 12 6.00004 11.5522 6 11C6 10.4477 6.44772 9.99999 7 9.99999H8.58594L4.64941 6.06346Z" fill="#E4F2F2"/>
<path d="M19 3.99999C19.7956 4.00001 20.5585 4.3163 21.1211 4.87889C21.6837 5.44149 22 6.20437 22 6.99999V15.5C22 16.0522 21.5522 16.4999 21 16.5C20.4477 16.5 20 16.0522 20 15.5V6.99999C20 6.73481 19.8945 6.48048 19.707 6.29295C19.5429 6.12883 19.3276 6.02757 19.0986 6.00487L19 5.99999H10.5C9.94774 5.99999 9.50004 5.55224 9.5 4.99999C9.5 4.4477 9.94771 3.99999 10.5 3.99999H19Z" fill="#E4F2F2"/>
<path d="M17 9.99999C17.5523 10 18 10.4477 18 11C18 11.5522 17.5522 11.9999 17 12H16.5C15.9477 12 15.5 11.5522 15.5 11C15.5 10.4477 15.9477 9.99999 16.5 9.99999H17Z" fill="#E4F2F2"/>
</svg>
