<svg width="24" height="24" viewBox="0 0 24 24" fill="none" xmlns="http://www.w3.org/2000/svg">
<path d="M8 6.5C8.55228 6.5 9 6.94772 9 7.5V10C9 10.5523 8.55228 11 8 11C7.44772 11 7 10.5523 7 10V7.5C7 6.94772 7.44772 6.5 8 6.5Z" fill="#E4F2F2"/>
<path d="M12 5C12.5523 5 13 5.44772 13 6V10C13 10.5523 12.5523 11 12 11C11.4477 11 11 10.5523 11 10V6C11 5.44772 11.4477 5 12 5Z" fill="#E4F2F2"/>
<path d="M16 5C16.5523 5 17 5.44772 17 6V10C17 10.5523 16.5523 11 16 11C15.4477 11 15 10.5523 15 10V6C15 5.44772 15.4477 5 16 5Z" fill="#E4F2F2"/>
<path fill-rule="evenodd" clip-rule="evenodd" d="M18 1C18.7956 1 19.5585 1.3163 20.1211 1.87891C20.6837 2.44151 21 3.20435 21 4V20C21 20.7957 20.6837 21.5585 20.1211 22.1211C19.5585 22.6837 18.7957 23 18 23H6C5.20435 23 4.44151 22.6837 3.87891 22.1211C3.3163 21.5585 3 20.7957 3 20V6L3.00488 5.90137C3.02757 5.67237 3.12883 5.45711 3.29297 5.29297L7.29297 1.29297L7.36621 1.22656C7.54417 1.08073 7.76791 1 8 1H18ZM5 6.41406V20L5.00488 20.0986C5.02757 20.3276 5.12883 20.5429 5.29297 20.707C5.48051 20.8946 5.73478 21 6 21H18C18.2652 21 18.5195 20.8946 18.707 20.707C18.8946 20.5195 19 20.2652 19 20V4C19 3.73478 18.8946 3.48051 18.707 3.29297C18.5195 3.10543 18.2652 3 18 3H8.41406L5 6.41406Z" fill="#E4F2F2"/>
</svg>
