<svg width="24" height="24" viewBox="0 0 24 24" fill="none" xmlns="http://www.w3.org/2000/svg">
<path fill-rule="evenodd" clip-rule="evenodd" d="M14.4463 1.16698C14.7816 0.94417 15.2184 0.9441 15.5537 1.16698L15 1.99999L15.5547 1.16796L15.5566 1.16894C15.5577 1.16965 15.5592 1.17098 15.5605 1.17187C15.563 1.17354 15.566 1.17546 15.5693 1.17773C15.5765 1.1826 15.5859 1.18871 15.5967 1.19628C15.6183 1.21147 15.6467 1.23287 15.6816 1.25878C15.7515 1.31063 15.8465 1.38421 15.958 1.47851C16.1798 1.66612 16.4748 1.94179 16.7705 2.29882C17.3544 3.00399 17.9999 4.09816 18 5.49999C18 5.68562 17.9807 5.8692 17.9502 6.0498C18.131 6.01882 18.3146 5.99999 18.5 5.99999C19.9019 6.00003 20.996 6.64559 21.7012 7.22948C22.0582 7.52516 22.3339 7.82016 22.5215 8.04198C22.6158 8.15345 22.6894 8.24852 22.7412 8.31835C22.7671 8.35321 22.7885 8.38166 22.8037 8.40331C22.8113 8.41407 22.8174 8.42351 22.8223 8.43066C22.8245 8.43395 22.8265 8.43697 22.8281 8.43944C22.829 8.44072 22.8303 8.44229 22.8311 8.44335L22.832 8.4453L22 8.99999L22.832 9.55468L22.8311 9.55663C22.8304 9.55765 22.829 9.55927 22.8281 9.56054C22.8265 9.56298 22.8245 9.56608 22.8223 9.56933C22.8174 9.57644 22.8112 9.58595 22.8037 9.59667C22.7885 9.6183 22.7671 9.64681 22.7412 9.68163C22.6894 9.75144 22.6157 9.84657 22.5215 9.958C22.3339 10.1798 22.0582 10.4748 21.7012 10.7705C20.996 11.3544 19.9019 12 18.5 12C18.0744 12 17.6772 11.94 17.3105 11.8408C17.3166 11.9467 17.3204 12.0528 17.3203 12.1592C17.3197 12.8815 17.1763 13.5966 16.8994 14.2637C16.7291 14.674 16.5094 15.0609 16.2471 15.417C16.1989 15.5218 16.1332 15.6207 16.0469 15.707C16.0124 15.7415 15.9744 15.7714 15.9365 15.7998C15.8621 15.8839 15.7867 15.9673 15.707 16.0469C14.8878 16.866 13.6312 17.677 12.2861 18.417C10.922 19.1674 9.3894 19.886 7.96192 20.5088C6.53219 21.1325 5.19421 21.6656 4.21485 22.042C3.72503 22.2302 3.3233 22.3797 3.04395 22.4824C2.90461 22.5336 2.7954 22.5736 2.7207 22.6006C2.68343 22.614 2.65434 22.6248 2.63477 22.6318C2.62515 22.6353 2.61743 22.6378 2.61231 22.6396C2.61 22.6405 2.60778 22.6411 2.60645 22.6416L2.60449 22.6426C2.24119 22.7712 1.83506 22.6797 1.5625 22.4072C1.29002 22.1344 1.19817 21.7286 1.32715 21.3652L1.32813 21.3633C1.3286 21.3619 1.32922 21.3598 1.33008 21.3574C1.3319 21.3523 1.33446 21.3445 1.33789 21.335C1.34491 21.3154 1.35567 21.2863 1.36914 21.249C1.39611 21.1743 1.43598 21.0652 1.48731 20.9258C1.59006 20.6466 1.73938 20.2453 1.92774 19.7558C2.30434 18.7772 2.83746 17.4399 3.46192 16.0107C4.08537 14.5838 4.80571 13.0521 5.55762 11.6875C6.29912 10.3418 7.1113 9.08404 7.93262 8.26269L8.12891 8.07616C8.5966 7.65298 9.13462 7.31273 9.71875 7.07128C10.3862 6.79548 11.1021 6.65377 11.8242 6.65429C11.9337 6.65438 12.0433 6.65845 12.1523 6.66503C12.0571 6.30527 12 5.91613 12 5.49999C12.0001 4.09816 12.6456 3.00399 13.2295 2.29882C13.5251 1.94185 13.8202 1.6661 14.042 1.47851C14.1534 1.38426 14.2486 1.31061 14.3184 1.25878C14.3532 1.23292 14.3817 1.21145 14.4033 1.19628C14.4141 1.18876 14.4236 1.18258 14.4307 1.17773C14.4339 1.17551 14.437 1.17352 14.4395 1.17187C14.4407 1.17099 14.4423 1.16962 14.4434 1.16894L14.4453 1.16796L14.4463 1.16698ZM11.8223 8.65429C11.3627 8.65398 10.9072 8.74437 10.4824 8.91991C10.0577 9.09551 9.67096 9.35298 9.34571 9.67773C8.87724 10.1464 8.3573 10.8704 7.81641 11.7695L9.34473 13.291C9.73611 13.6805 9.7379 14.3136 9.34863 14.7051C8.95915 15.0964 8.32604 15.0982 7.93457 14.709L6.81055 13.5908C6.27599 14.632 5.7615 15.7437 5.29492 16.8115C4.78353 17.982 4.33401 19.0916 3.98438 19.9853C4.8791 19.6358 5.99039 19.187 7.16211 18.6758C8.55943 18.0661 10.0316 17.3741 11.3223 16.6641C12.3885 16.0774 13.2802 15.5017 13.9053 14.9795L12.1729 13.2471C11.7826 12.8565 11.7825 12.2234 12.1729 11.833C12.5633 11.4427 13.1964 11.4428 13.5869 11.833L15.1074 13.3535C15.247 12.9707 15.3199 12.5664 15.3203 12.1582L15.3164 11.9853C15.2969 11.5847 15.2082 11.1899 15.0547 10.8184C14.9786 10.6343 14.8868 10.4578 14.7813 10.29C14.6636 10.1689 14.5619 10.0566 14.4785 9.958C14.3984 9.86331 14.3347 9.77944 14.2852 9.71386C14.2197 9.66439 14.1361 9.60111 14.042 9.52148C13.9354 9.43128 13.8121 9.32055 13.6797 9.19042C13.5152 9.08723 13.3423 8.99667 13.1621 8.92187C12.7376 8.7457 12.2819 8.65465 11.8223 8.65429ZM18.5 7.99999C18.0271 7.99999 17.3792 8.31984 16.7334 8.80175C16.6121 8.89224 16.4975 8.98294 16.3926 9.0703C16.4494 9.12278 16.5099 9.17623 16.5742 9.22948C17.0765 9.64547 17.7322 9.99999 18.5 9.99999C19.2678 9.99996 19.9235 9.64545 20.4258 9.22948C20.5185 9.15265 20.6027 9.07434 20.6797 8.99999C20.6027 8.92561 20.5186 8.84737 20.4258 8.7705C19.9235 8.35454 19.2677 8.00003 18.5 7.99999ZM14.7705 3.57421C14.3546 4.07647 14.0001 4.73228 14 5.49999C14 6.26776 14.3545 6.92347 14.7705 7.42577C14.8244 7.49083 14.8786 7.552 14.9316 7.60937C15.0184 7.50573 15.1094 7.39333 15.1992 7.27343C15.6787 6.63325 16 5.98385 16 5.49999C15.9999 4.73228 15.6454 4.07647 15.2295 3.57421C15.1525 3.4812 15.0745 3.39648 15 3.31933C14.9255 3.39645 14.8475 3.48124 14.7705 3.57421Z" fill="#E4F2F2"/>
<path d="M22.833 8.44628C23.0559 8.7816 23.0558 9.21835 22.833 9.5537L22 8.99999L22.833 8.44628Z" fill="#E4F2F2"/>
</svg>
