<svg width="24" height="24" viewBox="0 0 24 24" fill="none" xmlns="http://www.w3.org/2000/svg">
<path fill-rule="evenodd" clip-rule="evenodd" d="M1.29297 1.29297C1.6835 0.902482 2.31652 0.902457 2.70703 1.29297L22.707 21.293C23.0975 21.6835 23.0975 22.3165 22.707 22.707C22.3165 23.0975 21.6835 23.0975 21.293 22.707L19.7588 21.1729C19.6097 21.5235 19.3956 21.8465 19.1211 22.1211C18.5585 22.6836 17.7955 23 17 23H7C6.20444 23 5.4415 22.6836 4.87891 22.1211C4.31649 21.5586 4.0001 20.7954 4 20V10L4.0127 9.84277C4.03727 9.68846 4.09793 9.54083 4.19043 9.41309L5.78906 7.20312L1.29297 2.70703C0.902445 2.31651 0.902445 1.68349 1.29297 1.29297ZM14 21H17C17.2651 21 17.5195 20.8944 17.707 20.707C17.8943 20.5196 17.9999 20.265 18 20V19.4141L14 15.4141V21ZM6 10.3223V20C6.0001 20.265 6.10562 20.5196 6.29297 20.707C6.48049 20.8944 6.73488 21 7 21H12V13.4141L7.22168 8.63574L6 10.3223Z" fill="#E4F2F2"/>
<path d="M15 1C15.5272 1.00002 16.0439 1.1806 16.4316 1.56836C16.8194 1.95613 17 2.47277 17 3V5.66699L19.7998 9.40039C19.9295 9.57345 20 9.78371 20 10V13.2998C20 13.852 19.5522 14.2997 19 14.2998C18.4478 14.2997 18 13.852 18 13.2998V10.332L15.9951 7.6582L14.8965 9.10547C14.5623 9.54508 13.9348 9.63001 13.4951 9.2959C13.0554 8.96172 12.9695 8.33424 13.3037 7.89453L13.9834 7H11.7002C11.1479 7 10.7002 6.55228 10.7002 6C10.7002 5.44772 11.1479 5 11.7002 5H15V3H9C8.44772 3 8 2.55228 8 2C8 1.44772 8.44772 1 9 1H15Z" fill="#E4F2F2"/>
</svg>
