<svg width="24" height="24" viewBox="0 0 24 24" fill="none" xmlns="http://www.w3.org/2000/svg">
<path fill-rule="evenodd" clip-rule="evenodd" d="M15 1C15.5272 1 16.0439 1.18058 16.4316 1.56836C16.8194 1.95614 17 2.47275 17 3V5.66699L19.7998 9.40039C19.9296 9.57346 20 9.7837 20 10V20C20 20.7957 19.6837 21.5585 19.1211 22.1211C18.5585 22.6837 17.7957 23 17 23H7C6.20435 23 5.44151 22.6837 4.87891 22.1211C4.3163 21.5585 4 20.7957 4 20V10C4 9.95123 4.004 9.90335 4.01074 9.85645C4.01226 9.846 4.01378 9.83557 4.01562 9.8252C4.04289 9.67062 4.10576 9.52859 4.19531 9.40723C4.19697 9.40497 4.19852 9.40263 4.2002 9.40039L7 5.66699V3C7 2.47275 7.18058 1.95614 7.56836 1.56836C7.95614 1.18058 8.47275 1 9 1H15ZM6 11V20C6 20.2652 6.10543 20.5195 6.29297 20.707C6.48051 20.8946 6.73478 21 7 21H12V11H6ZM14 10.332V21H17C17.2652 21 17.5195 20.8946 17.707 20.707C17.8946 20.5195 18 20.2652 18 20V10.332L16 7.66504L14 10.332ZM6.99902 9H12.501L14.001 7H8.49902L6.99902 9ZM9 5H15V3H9V5Z" fill="#E4F2F2"/>
</svg>
