<svg width="24" height="24" viewBox="0 0 24 24" fill="none" xmlns="http://www.w3.org/2000/svg">
<path fill-rule="evenodd" clip-rule="evenodd" d="M10 9C10.5523 9 11 9.44772 11 10V16C11 16.5523 10.5523 17 10 17C9.59436 17 9.24573 16.7582 9.08887 16.4111C8.48082 16.7843 7.76571 17 7 17C4.79086 17 3 15.2091 3 13C3 10.7909 4.79086 9 7 9C7.76553 9 8.48091 9.21491 9.08887 9.58789C9.2459 9.24124 9.59468 9 10 9ZM7 11C5.89543 11 5 11.8954 5 13C5 14.1046 5.89543 15 7 15C8.10457 15 9 14.1046 9 13C9 11.8954 8.10457 11 7 11Z" fill="#E4F2F2"/>
<path fill-rule="evenodd" clip-rule="evenodd" d="M18 7C18.7957 7 19.5585 7.3163 20.1211 7.87891C20.6837 8.44151 21 9.20435 21 10C21 10.6223 20.8036 11.2225 20.4502 11.7246C20.5083 11.7744 20.5666 11.8244 20.6211 11.8789C21.1837 12.4415 21.5 13.2043 21.5 14C21.5 14.7957 21.1837 15.5585 20.6211 16.1211C20.0585 16.6837 19.2957 17 18.5 17H14C13.4477 17 13 16.5523 13 16V8C13 7.44772 13.4477 7 14 7H18ZM15 15H18.5C18.7652 15 19.0195 14.8946 19.207 14.707C19.3946 14.5195 19.5 14.2652 19.5 14C19.5 13.7348 19.3946 13.4805 19.207 13.293C19.0195 13.1054 18.7652 13 18.5 13H15V15ZM15 11H18C18.2652 11 18.5195 10.8946 18.707 10.707C18.8946 10.5195 19 10.2652 19 10C19 9.73478 18.8946 9.48051 18.707 9.29297C18.5195 9.10543 18.2652 9 18 9H15V11Z" fill="#E4F2F2"/>
</svg>
