<svg width="24" height="24" viewBox="0 0 24 24" fill="none" xmlns="http://www.w3.org/2000/svg">
<path d="M2.00928 19C2.56156 19 3.00928 19.4477 3.00928 20C3.00928 20.5523 2.56156 21 2.00928 21H1.99951C1.44739 20.9998 0.999513 20.5522 0.999513 20C0.999513 19.4478 1.44739 19.0002 1.99951 19H2.00928Z" fill="#E4F2F2"/>
<path d="M1.01611 15.8174C1.11718 15.2747 1.63949 14.916 2.18213 15.0166C3.37323 15.2384 4.46991 15.8162 5.32666 16.6729C6.18342 17.5296 6.76105 18.6262 6.98291 19.8174C7.08371 20.3601 6.72491 20.8823 6.18213 20.9834C5.63949 21.084 5.11718 20.7253 5.01611 20.1826C4.86813 19.3887 4.48365 18.658 3.9126 18.0869C3.34156 17.516 2.61074 17.1314 1.8169 16.9834C1.27434 16.8822 0.915379 16.36 1.01611 15.8174Z" fill="#E4F2F2"/>
<path d="M2.10498 11.0059C4.37976 11.2473 6.50302 12.2614 8.12061 13.8789C9.7382 15.4965 10.7522 17.6197 10.9937 19.8945C11.0519 20.4437 10.6542 20.9359 10.105 20.9941C9.55594 21.0522 9.06364 20.6545 9.00537 20.1055C8.81223 18.2856 8.00061 16.587 6.70654 15.293C5.41249 13.999 3.71384 13.1873 1.89404 12.9941C1.34505 12.9357 0.947143 12.4436 1.00537 11.8945C1.06364 11.3455 1.55594 10.9478 2.10498 11.0059Z" fill="#E4F2F2"/>
<path d="M19.9995 3C20.7951 3 21.558 3.31641 22.1206 3.87891C22.6832 4.44151 22.9995 5.20435 22.9995 6V18C22.9995 18.7957 22.6832 19.5585 22.1206 20.1211C21.558 20.6836 20.7951 21 19.9995 21H13.9995C13.4474 20.9998 12.9995 20.5522 12.9995 20C12.9995 19.4478 13.4474 19.0002 13.9995 19H19.9995C20.2646 19 20.519 18.8945 20.7065 18.707C20.8941 18.5195 20.9995 18.2652 20.9995 18V6C20.9995 5.73478 20.8941 5.48051 20.7065 5.29297C20.519 5.10555 20.2646 5 19.9995 5H3.99951C3.73443 5.0001 3.47993 5.10552 3.29248 5.29297C3.10506 5.48049 2.99951 5.73487 2.99951 6V8C2.99951 8.55228 2.5518 9 1.99951 9C1.44739 8.9998 0.999513 8.55216 0.999513 8V6C0.999513 5.20444 1.31592 4.4415 1.87842 3.87891C2.44094 3.31638 3.20399 3.0001 3.99951 3H19.9995Z" fill="#E4F2F2"/>
</svg>
