<svg width="24" height="24" viewBox="0 0 24 24" fill="none" xmlns="http://www.w3.org/2000/svg">
<path d="M10 9.49999C10.5522 9.49999 10.9999 9.94776 11 10.5V11C11 11.5523 10.5523 12 10 12C9.44776 11.9999 9 11.5522 9 11V10.5C9.00006 9.94779 9.44779 9.50004 10 9.49999Z" fill="#E4F2F2"/>
<path d="M14 9.49999C14.5522 9.49999 14.9999 9.94776 15 10.5V11C15 11.5523 14.5523 12 14 12C13.4478 11.9999 13 11.5522 13 11V10.5C13.0001 9.94779 13.4478 9.50004 14 9.49999Z" fill="#E4F2F2"/>
<path d="M5.29297 6.29296C5.68346 5.90248 6.3165 5.90254 6.70703 6.29296L7.20703 6.79296C7.59755 7.18348 7.59754 7.8165 7.20703 8.20702C6.81651 8.59755 6.18349 8.59755 5.79297 8.20702L5.29297 7.70702C4.90255 7.31649 4.90248 6.68345 5.29297 6.29296Z" fill="#E4F2F2"/>
<path d="M17.293 6.29296C17.6835 5.90248 18.3165 5.90254 18.707 6.29296C19.0975 6.68348 19.0975 7.3165 18.707 7.70702L18.207 8.20702C17.8165 8.59755 17.1835 8.59755 16.793 8.20702C16.4025 7.81649 16.4025 7.18345 16.793 6.79296L17.293 6.29296Z" fill="#E4F2F2"/>
<path fill-rule="evenodd" clip-rule="evenodd" d="M17.8779 2.02636C19.1836 1.96755 20.4599 2.42986 21.4248 3.31152C22.3897 4.1932 22.9646 5.42281 23.0234 6.72851C23.0711 7.78835 22.775 8.82817 22.1904 9.69823C22.6806 10.6928 23 11.8331 23 13C23 13.5522 22.5522 14 22 14H21.2539C21.267 14.0219 21.2811 14.0433 21.2939 14.0654C21.7244 14.8077 21.9911 15.6343 22.0752 16.4883C22.0921 16.6599 22.0985 16.8321 22.1006 17.0039C22.6057 17.0542 22.9999 17.4816 23 18C23 18.5523 22.5523 19 22 19H21.7861C21.7843 19.0055 21.7831 19.0111 21.7812 19.0166C21.5037 19.8285 21.055 20.5715 20.4658 21.1953C19.8766 21.8192 19.1601 22.3093 18.3652 22.6328C17.5705 22.9562 16.7157 23.1054 15.8584 23.0703C15.0011 23.0352 14.1611 22.817 13.3955 22.4297C12.8844 22.1711 12.4156 21.8391 12 21.4492C11.5845 21.8391 11.1164 22.1711 10.6055 22.4297C9.83973 22.8171 8.99905 23.0352 8.1416 23.0703C7.28428 23.1054 6.42951 22.9562 5.63476 22.6328C4.83992 22.3093 4.12341 21.8192 3.53418 21.1953C2.94507 20.5715 2.49631 19.8285 2.21875 19.0166C2.21688 19.0111 2.21571 19.0055 2.21387 19H2C1.44776 18.9999 0.999999 18.5522 0.999999 18C1.00006 17.482 1.39387 17.0548 1.89844 17.0039C1.90048 16.8321 1.90792 16.6599 1.9248 16.4883C2.00885 15.6343 2.27557 14.8077 2.70605 14.0654C2.71886 14.0434 2.73302 14.0219 2.74609 14H2C1.44779 13.9999 1.00005 13.5522 0.999999 13C1.00004 11.8332 1.31945 10.6928 1.80957 9.69823C1.22503 8.82819 0.928905 7.78831 0.976561 6.72851C1.03543 5.42285 1.61039 4.19319 2.57519 3.31152C3.54009 2.42985 4.81634 1.96754 6.12207 2.02636C7.41264 2.08454 8.62745 2.64803 9.50683 3.59277L10.1436 4.22948C11.3627 4.05357 12.6363 4.05368 13.8555 4.22948L14.4932 3.59277C15.3725 2.64802 16.5874 2.0846 17.8779 2.02636ZM17.9687 4.02441C17.1929 4.05935 16.4624 4.40134 15.9385 4.9746C15.9284 4.98561 15.9178 4.99629 15.9072 5.00683L14.9072 6.00683C14.6735 6.24055 14.3394 6.34354 14.0146 6.28222C12.7091 6.03524 11.2919 6.03529 9.98633 6.28222C9.66143 6.34368 9.32659 6.24064 9.09277 6.00683L8.09277 5.00683C8.08226 4.99631 8.07155 4.98557 8.06152 4.9746C7.5377 4.40148 6.80788 4.05944 6.03223 4.02441C5.25643 3.98946 4.49812 4.26428 3.9248 4.78808C3.35151 5.31195 3.00961 6.04255 2.97461 6.81835C2.93972 7.5941 3.21448 8.3525 3.73828 8.92577C4.03631 9.25212 4.08472 9.73522 3.85742 10.1143C3.50871 10.6954 3.24818 11.3429 3.11035 12H5C5.43509 12 5.82077 12.2818 5.95312 12.6963C6.08515 13.1107 5.93361 13.5634 5.5791 13.8154C5.11295 14.1468 4.72345 14.5746 4.43652 15.0693C4.14966 15.564 3.97209 16.1145 3.91601 16.6836C3.90566 16.7889 3.90045 16.8946 3.89844 17H5C5.55225 17 5.99994 17.4478 6 18C6 18.5523 5.55228 19 5 19H4.39062C4.55388 19.2975 4.75407 19.5743 4.98828 19.8223C5.38108 20.2382 5.85881 20.5646 6.38867 20.7803C6.91858 20.9959 7.48891 21.0957 8.06055 21.0723C8.63203 21.0488 9.19178 20.9027 9.70215 20.6445C10.064 20.4614 10.3942 20.2238 10.6836 19.9424L8.43164 17.2402C8.42084 17.2273 8.41052 17.2137 8.40039 17.2002C8.17762 16.9031 8.04118 16.5495 8.00781 16.1797C7.9745 15.8099 8.0449 15.4376 8.21094 15.1055C8.37698 14.7735 8.63252 14.494 8.94824 14.2988C9.26414 14.1036 9.62865 14 10 14H14C14.3714 14 14.7358 14.1036 15.0518 14.2988C15.3676 14.4941 15.623 14.7734 15.7891 15.1055C15.9551 15.4376 16.0255 15.8098 15.9922 16.1797C15.9588 16.5495 15.8233 16.9031 15.6006 17.2002C15.5904 17.2138 15.5793 17.2271 15.5684 17.2402L13.3154 19.9424C13.605 20.224 13.9358 20.4613 14.2979 20.6445C14.8083 20.9028 15.3688 21.0488 15.9404 21.0723C16.5119 21.0956 17.0816 20.9958 17.6113 20.7803C18.1411 20.5646 18.6189 20.2381 19.0117 19.8223C19.2459 19.5743 19.4461 19.2975 19.6094 19H19C18.4478 18.9999 18 18.5522 18 18C18.0001 17.4478 18.4478 17 19 17H20.1016C20.0996 16.8946 20.0953 16.7889 20.085 16.6836C20.0289 16.1146 19.8512 15.564 19.5645 15.0693C19.2775 14.5746 18.8871 14.1468 18.4209 13.8154C18.0663 13.5634 17.9157 13.1107 18.0478 12.6963C18.1802 12.2819 18.5649 12 19 12H20.8896C20.7518 11.3429 20.4913 10.6954 20.1426 10.1143C19.9154 9.73528 19.9638 9.25209 20.2617 8.92577C20.7855 8.3525 21.0603 7.5941 21.0254 6.81835C20.9904 6.04255 20.6485 5.31195 20.0752 4.78808C19.502 4.26444 18.7443 3.98959 17.9687 4.02441ZM12 18.3975L13.999 16H10.002L12 18.3975Z" fill="#E4F2F2"/>
</svg>
