<svg width="24" height="24" viewBox="0 0 24 24" fill="none" xmlns="http://www.w3.org/2000/svg">
<path d="M12.7495 15.25C13.1538 15.25 13.5185 15.4937 13.6733 15.8672C13.8281 16.2409 13.7425 16.671 13.4565 16.957L12.7065 17.707C12.316 18.0974 11.683 18.0975 11.2925 17.707L10.5425 16.957C10.2567 16.671 10.171 16.2407 10.3257 15.8672C10.4804 15.4937 10.8453 15.2502 11.2495 15.25H12.7495Z" fill="#E4F2F2"/>
<path d="M7.99951 13C8.55175 13 8.99944 13.4478 8.99951 14V14.5C8.99951 15.0523 8.55179 15.5 7.99951 15.5C7.44742 15.4998 6.99951 15.0521 6.99951 14.5V14C6.99958 13.4479 7.44746 13.0002 7.99951 13Z" fill="#E4F2F2"/>
<path d="M15.9995 13C16.5518 13 16.9994 13.4478 16.9995 14V14.5C16.9995 15.0523 16.5518 15.5 15.9995 15.5C15.4474 15.4998 14.9995 15.0521 14.9995 14.5V14C14.9996 13.4479 15.4475 13.0002 15.9995 13Z" fill="#E4F2F2"/>
<path fill-rule="evenodd" clip-rule="evenodd" d="M4.8999 1.82323C5.53038 1.85345 6.21577 1.98112 6.89892 2.19237C8.08348 2.55871 9.34297 3.20426 10.3364 4.14257C10.8847 4.04896 11.4407 4.00162 11.9976 3.99999H12.0005C12.5602 4.00003 13.1239 4.05523 13.6743 4.16112C14.6563 3.23238 15.8877 2.58298 17.0513 2.20995C17.7248 1.99408 18.4017 1.86181 19.0269 1.82812C19.6375 1.79524 20.266 1.854 20.8022 2.07714L20.8032 2.07616C21.3403 2.29886 21.6102 2.75895 21.7437 3.12499C21.8785 3.49505 21.9299 3.91058 21.9448 4.2998C21.975 5.08613 21.8645 6.02308 21.7212 6.88183C21.5758 7.75299 21.386 8.6 21.2339 9.2246C21.1698 9.48772 21.1106 9.7132 21.0649 9.88671C21.5878 10.9446 22.0003 12.1543 22.0005 13.4394C22.0005 18.6299 17.3255 21.9998 12.0005 22C6.68481 22 2.00049 18.7378 2.00049 13.4394C2.00065 12.0996 2.47882 10.8924 2.93701 9.90917C2.88895 9.73401 2.82594 9.50399 2.75732 9.23437C2.59842 8.60991 2.39973 7.76349 2.24463 6.89257C2.09175 6.03411 1.97068 5.0976 1.9917 4.31151C2.00213 3.92249 2.04849 3.506 2.1792 3.13476C2.30847 2.76788 2.57474 2.3026 3.11474 2.07714C3.65017 1.85379 4.28397 1.79376 4.8999 1.82323ZM4.8042 3.82128C4.47108 3.80534 4.21835 3.83176 4.04443 3.87304C4.01982 3.97557 3.99784 4.13635 3.9917 4.36523C3.9762 4.9458 4.06759 5.7233 4.21338 6.54198C4.35697 7.34826 4.5438 8.14386 4.6958 8.7412C4.77147 9.03855 4.8379 9.28516 4.88525 9.45605C4.90883 9.54113 4.92815 9.60777 4.94092 9.65234C4.94716 9.67415 4.95142 9.69118 4.95459 9.70214C4.95612 9.70742 4.95773 9.71226 4.95849 9.71484L4.95947 9.71679C5.02934 9.95412 5.00794 10.2096 4.90088 10.4326C4.40074 11.4729 4.00067 12.4398 4.00049 13.4394C4.00049 17.2611 7.37616 20 12.0005 20C16.615 19.9998 20.0005 17.1687 20.0005 13.4394C20.0003 12.472 19.6507 11.4703 19.1177 10.4697C18.9963 10.2417 18.9671 9.97505 19.0376 9.72655L19.0425 9.71191C19.0455 9.70094 19.0501 9.68396 19.0562 9.6621C19.0684 9.61756 19.0863 9.55081 19.1089 9.46581C19.1544 9.29495 19.2181 9.04829 19.2905 8.75097C19.4359 8.1538 19.614 7.35868 19.7485 6.55273C19.8851 5.73439 19.968 4.95723 19.9458 4.37694C19.9367 4.14059 19.9103 3.97669 19.8833 3.87401C19.7122 3.83279 19.463 3.80749 19.1343 3.82519C18.7038 3.84841 18.1964 3.94284 17.6616 4.11425C16.5813 4.46056 15.4924 5.08806 14.7476 5.9248C14.4976 6.20563 14.1103 6.32264 13.7466 6.22753C13.1772 6.07866 12.5829 6.00013 12.0015 5.99999C11.4034 6.00185 10.807 6.07004 10.2241 6.20409C9.8682 6.28593 9.49626 6.16728 9.25342 5.89452C8.51429 5.06411 7.41081 4.44355 6.3081 4.10253C5.76296 3.93396 5.24434 3.84238 4.8042 3.82128Z" fill="#E4F2F2"/>
</svg>
