<svg width="24" height="24" viewBox="0 0 24 24" fill="none" xmlns="http://www.w3.org/2000/svg">
<path fill-rule="evenodd" clip-rule="evenodd" d="M14 3C15.6569 3 17 4.34315 17 6C17 6.351 16.9369 6.68694 16.8262 7H22C22.5523 7 23 7.44772 23 8C23 8.55228 22.5523 9 22 9H21.6768C22.5152 10.3304 23 11.8548 23 13.5C23 16.0268 21.8807 18.2679 20.0869 19.9385L20.8945 21.5527C21.1415 22.0467 20.9412 22.6475 20.4473 22.8945C19.9533 23.1415 19.3525 22.9412 19.1055 22.4473L18.4697 21.1768C16.6307 22.3299 14.3796 23 12 23C9.62007 23 7.3685 22.3302 5.5293 21.1768L4.89453 22.4473C4.64754 22.9412 4.04671 23.1415 3.55273 22.8945C3.05876 22.6475 2.85848 22.0467 3.10547 21.5527L3.91211 19.9385C2.11867 18.2679 1 16.0266 1 13.5C1 11.8548 1.48481 10.3304 2.32324 9H2C1.44772 9 1 8.55228 1 8C1 7.44772 1.44772 7 2 7H11.1738C11.0631 6.68694 11 6.351 11 6C11 4.34315 12.3431 3 14 3ZM4.83008 9C3.6622 10.2858 3 11.831 3 13.5C3 17.4998 6.89169 21 12 21C17.1083 21 21 17.4998 21 13.5C21 11.831 20.3378 10.2858 19.1699 9H12V10C12 10.5523 11.5523 11 11 11C10.4477 11 10 10.5523 10 10V9H8V12C8 12.5523 7.55228 13 7 13C6.44772 13 6 12.5523 6 12V9H4.83008ZM14 5C13.4477 5 13 5.44772 13 6C13 6.55228 13.4477 7 14 7C14.5523 7 15 6.55228 15 6C15 5.44772 14.5523 5 14 5Z" fill="#E4F2F2"/>
<path fill-rule="evenodd" clip-rule="evenodd" d="M8 2C8.82843 2 9.5 2.67157 9.5 3.5C9.5 4.32843 8.82843 5 8 5C7.17157 5 6.5 4.32843 6.5 3.5C6.5 2.67157 7.17157 2 8 2ZM8 3C7.72386 3 7.5 3.22386 7.5 3.5C7.5 3.77614 7.72386 4 8 4C8.27614 4 8.5 3.77614 8.5 3.5C8.5 3.22386 8.27614 3 8 3Z" fill="#E4F2F2"/>
<path d="M19.0098 1C19.562 1 20.0098 1.44772 20.0098 2C20.0098 2.55228 19.562 3 19.0098 3H19C18.4477 3 18 2.55228 18 2C18 1.44772 18.4477 1 19 1H19.0098Z" fill="#E4F2F2"/>
</svg>
