<svg width="24" height="24" viewBox="0 0 24 24" fill="none" xmlns="http://www.w3.org/2000/svg">
<path d="M7.00977 8.0005C7.56205 8.0005 8.00977 8.44821 8.00977 9.0005C8.00954 9.55259 7.56191 10.0005 7.00977 10.0005H7C6.44786 10.0005 6.00023 9.55259 6 9.0005C6 8.44821 6.44772 8.0005 7 8.0005H7.00977Z" fill="#E4F2F2"/>
<path fill-rule="evenodd" clip-rule="evenodd" d="M6.58398 3.0005C7.0967 3.03779 7.59711 3.17633 8.05664 3.40675L8.05762 3.40577L17.5537 8.1587C18.0276 8.39601 18.3881 8.8122 18.5557 9.31495C18.7232 9.81778 18.685 10.3671 18.4482 10.8413L18.3672 11.0005H20.3828L20.5098 11.0044C20.8063 11.0235 21.096 11.1091 21.3564 11.2544C21.6537 11.4204 21.904 11.66 22.083 11.9497C22.2619 12.2395 22.3646 12.5705 22.3799 12.9107C22.3951 13.2507 22.323 13.5895 22.1709 13.8941L20.1367 17.9634C19.9825 18.2716 19.7508 18.5355 19.4648 18.728C19.1789 18.9206 18.8476 19.036 18.5039 19.063C18.1604 19.0899 17.8153 19.0278 17.5029 18.8823C17.2296 18.755 16.9889 18.5671 16.7988 18.3345L16.7207 18.2319L15.5615 16.6118L15.3418 17.0523C15.2243 17.2872 15.0617 17.4974 14.8633 17.6694C14.6649 17.8414 14.4337 17.9722 14.1846 18.0552C13.9355 18.1381 13.672 18.1715 13.4102 18.1528C13.1485 18.1341 12.8928 18.0641 12.6582 17.9468L9.4502 16.3413L8.45605 18.3452L8.45312 18.3501C8.20154 18.8493 7.81486 19.2686 7.33789 19.5601C6.8628 19.8503 6.31641 20.0021 5.75977 19.9995L3 20.0005V21.0005C2.99977 21.5526 2.55214 22.0005 2 22.0005C1.44786 22.0005 1.00023 21.5526 1 21.0005V17.0005C1 16.4482 1.44772 16.0005 2 16.0005C2.55228 16.0005 3 16.4482 3 17.0005V18.0005H5.7666C5.95273 18.0018 6.13603 17.951 6.29492 17.854C6.45206 17.758 6.57917 17.6194 6.66309 17.4556L7.66113 15.4458L3.16309 13.1948L3.16016 13.1929C2.2346 12.7265 1.53117 11.9127 1.2041 10.9292C0.877031 9.94548 0.952744 8.87174 1.41504 7.94385L2.79395 5.15675L2.79688 5.15186C3.02777 4.69173 3.34692 4.28157 3.73633 3.94483C4.12574 3.60813 4.57778 3.35101 5.06641 3.18897C5.55489 3.02703 6.07071 2.96323 6.58398 3.0005ZM16.5732 14.5884L18.3477 17.0689L20.3818 13.0005H17.3672L16.5732 14.5884ZM6.43945 4.99464C6.18818 4.97638 5.93544 5.0082 5.69629 5.08741C5.45699 5.16677 5.23466 5.29264 5.04395 5.45753C4.85494 5.62103 4.69875 5.81952 4.58594 6.04249L4.58691 6.04346L3.20703 8.8335L3.20508 8.83643C2.97882 9.29082 2.94141 9.81666 3.10156 10.2983C3.2618 10.78 3.60716 11.1784 4.06055 11.4067L13.5527 16.1577L16.6582 9.94776L7.16309 5.19483L7.16211 5.19385C6.93688 5.08078 6.69081 5.01296 6.43945 4.99464Z" fill="#E4F2F2"/>
</svg>
