<svg width="24" height="24" viewBox="0 0 24 24" fill="none" xmlns="http://www.w3.org/2000/svg">
<path fill-rule="evenodd" clip-rule="evenodd" d="M12 5C12.5523 5 13 5.44772 13 6V6.08398C13.2659 6.12891 13.5296 6.1914 13.7891 6.27246C14.9911 6.64794 16.0442 7.39295 16.7998 8.40039C17.131 8.84221 17.0414 9.46847 16.5996 9.7998C16.1578 10.131 15.5315 10.0414 15.2002 9.59961C14.6965 8.92806 13.9937 8.43194 13.1924 8.18164C13.1288 8.16178 13.0643 8.14551 13 8.12891V15.8701C13.0642 15.8535 13.1289 15.8382 13.1924 15.8184C13.9937 15.5681 14.6965 15.0719 15.2002 14.4004C15.5315 13.9586 16.1578 13.869 16.5996 14.2002C17.0414 14.5315 17.131 15.1578 16.7998 15.5996C16.0442 16.607 14.9911 17.3521 13.7891 17.7275C13.5296 17.8086 13.2658 17.8701 13 17.915V18C13 18.5523 12.5523 19 12 19C11.4477 19 11 18.5523 11 18V17.916C10.6969 17.8648 10.3968 17.7905 10.1025 17.6924C8.90787 17.2942 7.86914 16.5294 7.13281 15.5078C6.44252 14.55 6.05104 13.4116 6.00488 12.2354L6 12C6 10.7408 6.39657 9.51375 7.13281 8.49219C7.86914 7.47059 8.90787 6.70584 10.1025 6.30762C10.3969 6.20951 10.6969 6.13425 11 6.08301V6C11 5.44772 11.4477 5 12 5ZM10.7354 8.20508C9.9389 8.47056 9.24576 8.98007 8.75488 9.66113C8.26403 10.3422 8 11.1605 8 12L8.0127 12.3135C8.06995 13.0418 8.32537 13.7429 8.75488 14.3389C9.24576 15.0199 9.9389 15.5294 10.7354 15.7949C10.8227 15.824 10.9113 15.8482 11 15.8711V8.12793C10.9112 8.15086 10.8228 8.17594 10.7354 8.20508Z" fill="#E4F2F2"/>
<path fill-rule="evenodd" clip-rule="evenodd" d="M12 1C18.0751 1 23 5.92487 23 12C23 18.0751 18.0751 23 12 23C5.92487 23 1 18.0751 1 12C1 5.92487 5.92487 1 12 1ZM12 3C7.02944 3 3 7.02944 3 12C3 16.9706 7.02944 21 12 21C16.9706 21 21 16.9706 21 12C21 7.02944 16.9706 3 12 3Z" fill="#E4F2F2"/>
</svg>
