<svg width="24" height="24" viewBox="0 0 24 24" fill="none" xmlns="http://www.w3.org/2000/svg">
<path fill-rule="evenodd" clip-rule="evenodd" d="M12 1C12.5523 1 13 1.44772 13 2V3.04785C13.8595 3.13704 14.7077 3.35049 15.5166 3.68555C17.3466 4.44376 18.8757 5.78451 19.8662 7.5C20.1421 7.97815 19.978 8.59001 19.5 8.86621C19.0219 9.14194 18.4109 8.97788 18.1348 8.5C17.3644 7.16565 16.1744 6.12293 14.751 5.5332C14.1867 5.29948 13.5976 5.14256 13 5.0625V18.9365C13.5976 18.8565 14.1868 18.7005 14.751 18.4668C16.1744 17.8771 17.3644 16.8343 18.1348 15.5C18.4109 15.0221 19.0219 14.8581 19.5 15.1338C19.978 15.41 20.1421 16.0219 19.8662 16.5C18.8757 18.2155 17.3466 19.5562 15.5166 20.3145C14.7077 20.6495 13.8595 20.862 13 20.9512V22C13 22.5523 12.5523 23 12 23C11.4477 23 11 22.5523 11 22V20.9336C10.5778 20.883 10.1577 20.8044 9.74316 20.6934C7.82956 20.1806 6.13771 19.0502 4.93164 17.4785C3.72577 15.9068 3.07227 13.981 3.07227 12C3.07227 10.019 3.72577 8.0932 4.93164 6.52148C6.13771 4.9498 7.82956 3.81939 9.74316 3.30664C10.1577 3.1956 10.5778 3.11605 11 3.06543V2C11 1.44772 11.4477 1 12 1ZM11 5.08398C10.7519 5.1224 10.505 5.17285 10.2607 5.23828C8.77245 5.63707 7.4566 6.51596 6.51855 7.73828C5.58049 8.96079 5.07227 10.4591 5.07227 12C5.07227 13.5409 5.58049 15.0392 6.51855 16.2617C7.4566 17.484 8.77245 18.3629 10.2607 18.7617C10.505 18.8271 10.752 18.8766 11 18.915V5.08398Z" fill="#E4F2F2"/>
</svg>
