<svg width="24" height="24" viewBox="0 0 24 24" fill="none" xmlns="http://www.w3.org/2000/svg">
<path fill-rule="evenodd" clip-rule="evenodd" d="M12 6C12.5523 6 13 6.44772 13 7V7.11523C13.2887 7.1782 13.5727 7.26662 13.8486 7.38086C14.8655 7.80204 15.7153 8.54687 16.2656 9.5C16.5418 9.97829 16.3777 10.5901 15.8994 10.8662C15.4212 11.1419 14.8092 10.9781 14.5332 10.5C14.2031 9.92835 13.6938 9.48122 13.084 9.22852C13.0563 9.21707 13.0279 9.20785 13 9.19727V14.8018C13.0278 14.7912 13.0565 14.7829 13.084 14.7715C13.6938 14.5188 14.2031 14.0716 14.5332 13.5C14.8092 13.0219 15.4212 12.8581 15.8994 13.1338C16.3777 13.4099 16.5418 14.0217 16.2656 14.5C15.7153 15.4531 14.8655 16.198 13.8486 16.6191C13.5728 16.7334 13.2886 16.8208 13 16.8838V17C13 17.5523 12.5523 18 12 18C11.4477 18 11 17.5523 11 17V16.9111C10.8801 16.8883 10.7602 16.8618 10.6416 16.8301C9.5786 16.5452 8.63872 15.917 7.96875 15.0439C7.29879 14.1708 6.93555 13.1006 6.93555 12C6.93555 10.8994 7.29879 9.82924 7.96875 8.95605C8.63872 8.08296 9.5786 7.45483 10.6416 7.16992C10.7602 7.13814 10.88 7.11074 11 7.08789V7C11 6.44772 11.4477 6 12 6ZM11 9.15137C10.428 9.33925 9.92375 9.69414 9.55566 10.1738C9.15372 10.6977 8.93555 11.3397 8.93555 12C8.93555 12.6603 9.15372 13.3023 9.55566 13.8262C9.92369 14.3058 10.4281 14.6597 11 14.8477V9.15137Z" fill="#E4F2F2"/>
<path fill-rule="evenodd" clip-rule="evenodd" d="M19 2C20.6569 2 22 3.34315 22 5V19C22 20.6569 20.6569 22 19 22H5C3.34315 22 2 20.6569 2 19V5C2 3.34315 3.34315 2 5 2H19ZM5 4C4.44772 4 4 4.44772 4 5V19C4 19.5523 4.44772 20 5 20H19C19.5523 20 20 19.5523 20 19V5C20 4.44772 19.5523 4 19 4H5Z" fill="#E4F2F2"/>
</svg>
