<svg width="24" height="24" viewBox="0 0 24 24" fill="none" xmlns="http://www.w3.org/2000/svg">
<path d="M2 7C2.55228 7 3 7.44772 3 8V13H7C7.52725 13 8.04386 13.1806 8.43164 13.5684C8.81942 13.9561 9 14.4728 9 15V19C9 19.5523 8.55228 20 8 20C7.44772 20 7 19.5523 7 19V15H3V19C3 19.5523 2.55228 20 2 20C1.44772 20 1 19.5523 1 19V8C1 7.44772 1.44772 7 2 7Z" fill="#E4F2F2"/>
<path fill-rule="evenodd" clip-rule="evenodd" d="M12 4C12.5523 4 13 4.44772 13 5V5.10156C13.9533 5.29639 14.8368 5.76651 15.5352 6.46484C16.2335 7.16319 16.7037 8.04672 16.8984 9H18C18.5523 9 19 9.44772 19 10C19 10.5523 18.5523 11 18 11H13V19C13 19.5523 12.5523 20 12 20C11.4477 20 11 19.5523 11 19V11H6C5.44772 11 5 10.5523 5 10C5 9.44772 5.44772 9 6 9H7.10156C7.29632 8.04672 7.7665 7.16319 8.46484 6.46484C9.16323 5.76645 10.0466 5.29532 11 5.10059V5C11 4.44772 11.4477 4 12 4ZM12 7C11.2044 7 10.4415 7.3163 9.87891 7.87891C9.55985 8.19796 9.32364 8.58269 9.17578 9H14.8242C14.6764 8.58269 14.4401 8.19796 14.1211 7.87891C13.6289 7.38671 12.9835 7.08291 12.2969 7.01465L12 7Z" fill="#E4F2F2"/>
<path d="M22 7C22.5523 7 23 7.44772 23 8V19C23 19.5523 22.5523 20 22 20C21.4477 20 21 19.5523 21 19V15H17V19C17 19.5523 16.5523 20 16 20C15.4477 20 15 19.5523 15 19V15C15 14.4696 15.2109 13.961 15.5859 13.5859C15.961 13.2109 16.4696 13 17 13H21V8C21 7.44772 21.4477 7 22 7Z" fill="#E4F2F2"/>
</svg>
