<svg width="24" height="24" viewBox="0 0 24 24" fill="none" xmlns="http://www.w3.org/2000/svg">
<path d="M2.99999 11C3.55227 11 3.99999 11.4477 3.99999 12V16H6.99999C7.53042 16 8.03898 16.2109 8.41405 16.586C8.78912 16.961 8.99999 17.4696 8.99999 18V21C8.99997 21.5523 8.55226 22 7.99999 22C7.44773 22 7.00001 21.5523 6.99999 21V18H3.99999V21C3.99997 21.5523 3.55226 22 2.99999 22C2.44773 22 2.00001 21.5523 1.99999 21V12C1.99999 11.4478 2.44771 11 2.99999 11Z" fill="#E4F2F2"/>
<path fill-rule="evenodd" clip-rule="evenodd" d="M11.5752 1.09476C11.8887 0.947562 12.2606 0.971962 12.5547 1.168L21.5547 7.168C21.9213 7.41244 22.0847 7.86831 21.957 8.29007C21.8292 8.71167 21.4406 9.00003 21 9.00003H13V12H17C17.5523 12 18 12.4477 18 13C18 13.5523 17.5523 14 17 14H13V21C13 21.5523 12.5523 22 12 22C11.4477 22 11 21.5523 11 21V14H6.99999C6.44773 14 6.00001 13.5523 5.99999 13C5.99999 12.4478 6.44771 12 6.99999 12H11V9.00003H2.99999C2.55943 9.00002 2.17074 8.71167 2.04296 8.29007C1.91526 7.86832 2.07867 7.41244 2.4453 7.168L11.4453 1.168L11.5752 1.09476ZM6.30272 7.00003H17.6973L12 3.2012L6.30272 7.00003Z" fill="#E4F2F2"/>
<path d="M21 11C21.5523 11 22 11.4477 22 12V21C22 21.5523 21.5523 22 21 22C20.4477 22 20 21.5523 20 21V18H17.042C17.035 18.005 17.0273 18.0118 17.0195 18.0196C17.0118 18.0273 17.005 18.035 17 18.042V21C17 21.5523 16.5523 22 16 22C15.4477 22 15 21.5523 15 21V18C15 17.4248 15.2776 16.9333 15.6055 16.6055C15.9333 16.2777 16.4248 16 17 16H20V12C20 11.4478 20.4477 11 21 11Z" fill="#E4F2F2"/>
</svg>
