<svg width="24" height="24" viewBox="0 0 24 24" fill="none" xmlns="http://www.w3.org/2000/svg">
<path d="M14.0098 6.00002C14.562 6.00002 15.0098 6.44774 15.0098 7.00002C15.0098 7.5523 14.5621 8.00002 14.0098 8.00002H14C13.4477 8.00002 13 7.5523 13 7.00002C13 6.44774 13.4477 6.00002 14 6.00002H14.0098Z" fill="#E4F2F2"/>
<path fill-rule="evenodd" clip-rule="evenodd" d="M11 1.00002C13.1481 1.00002 15.1142 1.76291 16.6846 2.97756L18.6377 1.25099L18.7139 1.18947C19.1073 0.904373 19.6565 0.942722 20.0068 1.29299C23.4459 4.732 23.8877 10.0486 21.4463 13.9326C21.4416 13.94 21.4365 13.9478 21.4316 13.9551C21.3027 14.1484 21.1574 14.3147 21 14.4561V20C21.0001 20.265 21.1056 20.5196 21.293 20.707C21.4805 20.8945 21.7349 21 22 21C22.5522 21 22.9998 21.4479 23 22C22.9998 22.5521 22.5522 23 22 23C21.2046 23 20.4415 22.6844 19.8789 22.1221C19.3164 21.5596 19.0001 20.7955 19 20V15.0674C18.3295 14.9939 17.6761 14.6897 17.1934 14.207L16.0176 13.0313L15.7627 12.8028C14.4624 11.6901 12.8009 11 11 11C9.67392 11 8.40252 11.5272 7.46484 12.4649C6.52717 13.4025 6.00001 14.6739 6 16C6 17.3261 6.52717 18.5975 7.46484 19.5352C8.40253 20.4729 9.67392 21 11 21C11.7956 21 12.5585 20.6837 13.1211 20.1211C13.6133 19.6289 13.9171 18.9835 13.9854 18.2969L14 18C14 17.2044 13.6837 16.4415 13.1211 15.8789C12.6289 15.3867 11.9835 15.0829 11.2969 15.0147L11 15C10.7348 15 10.4805 15.1055 10.293 15.293C10.1054 15.4805 10 15.7348 10 16C10 16.2652 10.1054 16.5195 10.293 16.707C10.4805 16.8946 10.7348 17 11 17C11.5523 17 12 17.4477 12 18C12 18.5523 11.5523 19 11 19C10.2043 19 9.44151 18.6837 8.87891 18.1211C8.31631 17.5585 8 16.7957 8 16C8.00001 15.2044 8.3163 14.4415 8.87891 13.8789C9.44151 13.3163 10.2044 13 11 13L11.248 13.0059C12.4838 13.0672 13.6561 13.5858 14.5352 14.4649C15.4728 15.4025 16 16.6739 16 18C16 19.3261 15.4728 20.5975 14.5352 21.5352C13.5975 22.4729 12.3261 23 11 23L10.6533 22.9912C10.6468 22.9909 10.6403 22.9896 10.6338 22.9893C5.16117 22.7765 1 17.8177 1 12C1.00001 6.05324 5.34782 1.00002 11 1.00002ZM11 3.00002C6.65219 3.00002 3.00001 6.94682 3 12C3 13.605 3.36955 15.0979 4.01172 16.3887C4.00454 16.2596 4 16.13 4 16C4.00001 14.1594 4.72486 12.3934 6.0166 11.084L5.62891 10.9287C5.3693 10.8249 5.16483 10.6168 5.06543 10.3555C4.96606 10.0941 4.98041 9.80287 5.10547 9.55275L6.10547 7.55275C6.35246 7.05879 6.9533 6.85851 7.44727 7.10549C7.94124 7.35247 8.1415 7.95331 7.89453 8.44728L7.37988 9.47463L7.94727 9.70119C8.73622 9.31902 9.59475 9.08742 10.4795 9.0215C10.1733 8.41361 10 7.72714 10 7.00002C10 5.34089 10.898 3.89162 12.2344 3.11134C11.8323 3.0396 11.4201 3.00002 11 3.00002ZM18.1416 4.35842C18.6808 5.10041 19 6.01264 19 7.00002C19 8.70583 18.0503 10.189 16.6514 10.9522C16.7916 11.0597 16.9296 11.1697 17.0635 11.2842L17.3818 11.5694L17.4072 11.5928L18.6074 12.793C18.8174 13.0028 19.0789 13.0934 19.2998 13.0879C19.3505 13.0866 19.398 13.0799 19.4424 13.0694C19.5109 13.0232 19.5859 12.9862 19.665 12.958C19.7011 12.9275 19.7339 12.8929 19.7617 12.8526C21.5516 9.991 21.3913 6.15223 19.2158 3.4092L18.1416 4.35842ZM14.5 4.50002C13.1193 4.50002 12 5.61932 12 7.00002C12 8.38073 13.1193 9.50002 14.5 9.50002C15.8807 9.50002 17 8.38073 17 7.00002C17 6.26738 16.6828 5.61059 16.1807 5.15334C16.1235 5.11849 16.0683 5.0786 16.0176 5.03127C15.9852 5.00107 15.9518 4.97205 15.9189 4.9424C15.5158 4.66383 15.0271 4.50002 14.5 4.50002Z" fill="#E4F2F2"/>
</svg>
