<svg width="24" height="24" viewBox="0 0 24 24" fill="none" xmlns="http://www.w3.org/2000/svg">
<path d="M3.99999 17C4.55223 17.0001 4.99999 17.4478 4.99999 18V21C4.99995 21.5522 4.5522 22 3.99999 22C3.44773 22 3.00003 21.5523 2.99999 21V18C2.99999 17.4477 3.4477 17 3.99999 17Z" fill="#E4F2F2"/>
<path d="M7.99999 13C8.55223 13.0001 8.99999 13.4478 8.99999 14V21C8.99995 21.5522 8.5522 22 7.99999 22C7.44773 22 7.00003 21.5523 6.99999 21V14C6.99999 13.4477 7.4477 13 7.99999 13Z" fill="#E4F2F2"/>
<path d="M12 15C12.5522 15.0001 13 15.4478 13 16V21C12.9999 21.5522 12.5522 22 12 22C11.4477 22 11 21.5523 11 21V16C11 15.4477 11.4477 15 12 15Z" fill="#E4F2F2"/>
<path d="M16 13C16.5522 13.0001 17 13.4478 17 14V21C16.9999 21.5522 16.5522 22 16 22C15.4477 22 15 21.5523 15 21V14C15 13.4477 15.4477 13 16 13Z" fill="#E4F2F2"/>
<path d="M20 9.00001C20.5522 9.00006 21 9.44776 21 10V21C20.9999 21.5522 20.5522 22 20 22C19.4477 22 19 21.5523 19 21V10C19 9.44772 19.4477 9.00001 20 9.00001Z" fill="#E4F2F2"/>
<path d="M21.293 2.29298C21.6835 1.90247 22.3165 1.90246 22.707 2.29298C23.0975 2.68351 23.0975 3.31654 22.707 3.70704L14.0615 12.3535L14.0605 12.3525C13.9214 12.4918 13.757 12.6033 13.5752 12.6787C13.393 12.7543 13.1973 12.793 13 12.793C12.8027 12.793 12.607 12.7543 12.4248 12.6787C12.2428 12.6032 12.0777 12.492 11.9385 12.3525L8.99999 9.41505L2.70702 15.707C2.31651 16.0975 1.68346 16.0975 1.29296 15.707C0.902481 15.3165 0.902458 14.6835 1.29296 14.293L7.94042 7.64649L8.04979 7.54688C8.31668 7.32829 8.65296 7.20802 9.00097 7.20802L9.14843 7.21485C9.49164 7.24888 9.81441 7.40062 10.0605 7.64649L13 10.585L21.293 2.29298Z" fill="#E4F2F2"/>
</svg>
