<svg width="24" height="24" viewBox="0 0 24 24" fill="none" xmlns="http://www.w3.org/2000/svg">
<path d="M3 2C3.55228 2 4 2.44772 4 3V19C4 19.2652 4.10543 19.5195 4.29297 19.707C4.48051 19.8946 4.73478 20 5 20H21C21.5523 20 22 20.4477 22 21C22 21.5523 21.5523 22 21 22H5C4.20435 22 3.44151 21.6837 2.87891 21.1211C2.3163 20.5585 2 19.7957 2 19V3C2 2.44772 2.44772 2 3 2Z" fill="#E4F2F2"/>
<path fill-rule="evenodd" clip-rule="evenodd" d="M18.3154 6.71875C18.5352 6.69149 18.7584 6.71301 18.9688 6.78223L19.0732 6.82031L19.1738 6.86719C19.3717 6.9667 19.5452 7.10871 19.6816 7.2832L19.7471 7.37305L19.8047 7.46777C19.9321 7.69262 19.9999 7.94736 20 8.20703V16C20 16.5304 19.7891 17.039 19.4141 17.4141C19.039 17.7891 18.5304 18 18 18H8C7.46959 18 6.96101 17.7891 6.58594 17.4141C6.21091 17.039 6.00002 16.5304 6 16V11.207L6.00781 11.0586C6.0419 10.716 6.19318 10.3934 6.43848 10.1475L8.43848 8.14648C8.57759 8.00725 8.74302 7.89674 8.9248 7.82129C9.10703 7.74568 9.30271 7.70703 9.5 7.70703C9.64782 7.70703 9.79461 7.72873 9.93555 7.77148L10.0752 7.82129L10.208 7.88477C10.3375 7.9541 10.4563 8.04225 10.5605 8.14648L13.5 11.085L17.4385 7.14648C17.648 6.93656 17.9152 6.79449 18.2061 6.73633L18.3154 6.71875ZM14.5615 12.8535L14.5605 12.8525C14.4214 12.9918 14.257 13.1033 14.0752 13.1787C13.893 13.2543 13.6973 13.293 13.5 13.293C13.3027 13.293 13.107 13.2543 12.9248 13.1787C12.7428 13.1032 12.5777 12.992 12.4385 12.8525L9.49902 9.91406L8 11.4141V16H18V9.41406L14.5615 12.8535Z" fill="#E4F2F2"/>
</svg>
