<svg width="24" height="24" viewBox="0 0 24 24" fill="none" xmlns="http://www.w3.org/2000/svg">
<path d="M7.60058 1.91309C8.10655 1.69257 8.69604 1.92389 8.91699 2.42969C9.13774 2.93579 8.90641 3.52615 8.40038 3.74707C7.05306 4.33505 5.86993 5.24386 4.95507 6.39453C4.04026 7.5452 3.42148 8.9025 3.15234 10.3477C2.88321 11.7929 2.97177 13.2826 3.41113 14.6855C3.85051 16.0883 4.62751 17.362 5.67284 18.3955C6.71817 19.4289 8.00058 20.191 9.4082 20.6143C10.816 21.0375 12.307 21.1098 13.749 20.8242C15.1908 20.5386 16.5406 19.9034 17.6807 18.9756C18.8207 18.0477 19.7165 16.8548 20.2891 15.501C20.5041 14.9924 21.091 14.7539 21.5996 14.9688C22.108 15.1839 22.3466 15.7708 22.1318 16.2793C21.432 17.9342 20.3369 19.3932 18.9434 20.5273C17.5499 21.6614 15.8991 22.437 14.1367 22.7861C12.3745 23.1351 10.5534 23.0465 8.833 22.5293C7.11237 22.0119 5.54433 21.0806 4.2666 19.8174C2.98901 18.5543 2.03993 16.9976 1.50292 15.2832C0.96593 13.5685 0.856608 11.7479 1.18554 9.98145C1.51449 8.21505 2.27146 6.55584 3.38964 5.14941C4.50782 3.74308 5.95385 2.63169 7.60058 1.91309Z" fill="#E4F2F2"/>
<path fill-rule="evenodd" clip-rule="evenodd" d="M13.0967 1.05664C15.6221 1.30968 17.9824 2.42814 19.7773 4.22266C21.5721 6.01713 22.6917 8.37705 22.9453 10.9023C23.0658 12.107 22.074 13 21 13L12.999 13.001C12.4688 13.0009 11.96 12.7908 11.585 12.416C11.21 12.041 10.9991 11.5313 10.999 11.001V3.00098C10.9992 1.99482 11.7825 1.06059 12.874 1.04688L13.0967 1.05664ZM12.999 11.001L20.9424 11C20.7153 8.97252 19.8075 7.08063 18.3633 5.63672C16.9189 4.19269 15.0268 3.28509 12.999 3.05859V11.001Z" fill="#E4F2F2"/>
</svg>
