<svg width="24" height="24" viewBox="0 0 24 24" fill="none" xmlns="http://www.w3.org/2000/svg">
<path d="M21 18C21.5523 18 22 18.4477 22 19C22 19.5522 21.5523 20 21 20H3C2.44774 20 2.00004 19.5522 2 19C2 18.4477 2.44772 18 3 18H21Z" fill="#E4F2F2"/>
<path d="M19.293 3.29295C19.6835 2.90243 20.3165 2.90243 20.707 3.29295C21.0975 3.68348 21.0975 4.3165 20.707 4.70702L9.70703 15.707L9.63086 15.7754C9.23812 16.0957 8.65908 16.0731 8.29297 15.707L3.29297 10.707C2.90246 10.3165 2.90248 9.68348 3.29297 9.29295C3.68349 8.90243 4.31651 8.90243 4.70703 9.29295L9 13.5859L19.293 3.29295Z" fill="#E4F2F2"/>
</svg>
