<svg width="24" height="24" viewBox="0 0 24 24" fill="none" xmlns="http://www.w3.org/2000/svg">
<path d="M21.293 9.29295C21.6835 8.90243 22.3165 8.90243 22.707 9.29295C23.0975 9.68348 23.0975 10.3165 22.707 10.707L15.207 18.207C14.8165 18.5975 14.1835 18.5975 13.793 18.207L12.293 16.707C11.9024 16.3165 11.9024 15.6835 12.293 15.293C12.6835 14.9024 13.3165 14.9024 13.707 15.293L14.5 16.0859L21.293 9.29295Z" fill="#E4F2F2"/>
<path d="M17.293 5.29295C17.6835 4.90243 18.3165 4.90243 18.707 5.29295C19.0975 5.68348 19.0975 6.31652 18.707 6.70702L7.70703 17.707C7.31653 18.0975 6.6835 18.0975 6.29297 17.707L1.29297 12.707C0.902445 12.3165 0.902445 11.6835 1.29297 11.293C1.68349 10.9024 2.31651 10.9024 2.70703 11.293L7 15.5859L17.293 5.29295Z" fill="#E4F2F2"/>
</svg>
