<svg width="24" height="24" viewBox="0 0 24 24" fill="none" xmlns="http://www.w3.org/2000/svg">
<path fill-rule="evenodd" clip-rule="evenodd" d="M13.5361 2.11425C13.8183 1.96641 14.1574 1.96054 14.4473 2.10546L14 2.99999C14.4472 2.10556 14.4469 2.10527 14.4473 2.10546L14.457 2.11034C14.4616 2.11267 14.4673 2.11634 14.4746 2.1201C14.4895 2.12777 14.5104 2.13772 14.5361 2.15135C14.5877 2.17871 14.6609 2.21811 14.752 2.26952C14.9339 2.37226 15.1893 2.52401 15.4971 2.72362C16.1117 3.1223 16.9409 3.71914 17.8037 4.51561C19.5202 6.10016 21.4366 8.53728 21.9863 11.8359C21.9865 11.8372 21.9861 11.8386 21.9863 11.8398C21.9947 11.892 22 11.9454 22 12V19L21.9961 19.1543C21.9184 20.6883 20.6883 21.9184 19.1543 21.9961L19 22H11C10.7348 22 10.4805 21.8946 10.293 21.707C10.1288 21.5429 10.0276 21.3276 10.0049 21.0986L9.99512 20.9014C9.97243 20.6724 9.87117 20.4571 9.70703 20.293C9.51949 20.1054 9.26522 20 9 20C8.73478 20 8.48051 20.1054 8.29297 20.293C8.10544 20.4805 8 20.7348 8 21C7.99999 21.5523 7.55228 22 7 22H4C3.47276 22 2.95614 21.8194 2.56836 21.4316C2.18058 21.0439 2 20.5272 2 20V11C2 10.6804 2.15287 10.3796 2.41113 10.1914L8.31055 5.89159C8.64134 5.6505 9.08618 5.63552 9.43262 5.8535C9.60237 5.96036 9.80052 6.01394 10.001 6.00682C10.2014 5.9997 10.3949 5.93207 10.5566 5.81346C10.7183 5.69486 10.8412 5.53078 10.9082 5.34178C10.9752 5.15279 10.9835 4.94787 10.9326 4.75389C10.8274 4.3526 10.9809 3.92779 11.3184 3.68651L13.4189 2.18651L13.5361 2.11425ZM4 20H6.17578C6.32358 19.5826 6.55984 19.198 6.87891 18.8789C7.44151 18.3163 8.20435 18 9 18C9.79565 18 10.5585 18.3163 11.1211 18.8789C11.4402 19.198 11.6764 19.5826 11.8242 20H16.1738C16.0631 19.6869 16 19.351 16 19C16 17.3431 17.3431 16 19 16C19.351 16 19.6869 16.063 20 16.1738V13H15.8721C15.6948 13.6858 15.3376 14.3186 14.8281 14.8281C14.078 15.5783 13.0609 16 12 16C10.9391 16 9.92202 15.5783 9.17188 14.8281C8.6624 14.3186 8.3052 13.6858 8.12793 13H4V20ZM19 18C18.4477 18 18 18.4477 18 19C18 19.5523 18.4477 20 19 20C19.5523 20 20 19.5523 20 19C20 18.4477 19.5523 18 19 18ZM12 11.5C11.2752 11.5 10.6878 11.6509 10.3184 11.8398C10.1153 11.9437 10.0331 12.0249 10.0029 12.0625C10.0188 12.5702 10.2256 13.0538 10.5859 13.4141C10.961 13.7891 11.4696 14 12 14C12.5304 14 13.039 13.7891 13.4141 13.4141C13.7744 13.0538 13.9802 12.5702 13.9961 12.0625C13.9656 12.0247 13.8838 11.9433 13.6816 11.8398C13.3122 11.6509 12.7248 11.5 12 11.5ZM12.9629 4.96874C12.9674 5.32131 12.9121 5.67382 12.793 6.00975C12.5919 6.57691 12.2245 7.07089 11.7393 7.42675C11.2542 7.78241 10.6734 7.98443 10.0723 8.00585C9.71214 8.01863 9.3548 7.96437 9.0166 7.85155L4.69824 11H8.30566C8.5869 10.5705 9.01746 10.259 9.40723 10.0596C10.1127 9.69865 11.0252 9.49999 12 9.49999C12.9748 9.49999 13.8873 9.69865 14.5928 10.0596C14.9825 10.259 15.4131 10.5705 15.6943 11H19.7373C19.0894 8.86339 17.7512 7.18885 16.4463 5.98436C15.6844 5.2811 14.9507 4.75261 14.4092 4.40135C14.2816 4.31861 14.1648 4.24616 14.0615 4.18358L12.9629 4.96874Z" fill="#E4F2F2"/>
</svg>
