<svg width="24" height="24" viewBox="0 0 24 24" fill="none" xmlns="http://www.w3.org/2000/svg">
<path fill-rule="evenodd" clip-rule="evenodd" d="M12 1.99609C13.1728 1.99609 14.3202 2.33945 15.2998 2.98438C16.0848 3.50125 16.7345 4.19387 17.2002 5.00293C18.1303 5.03928 19.0368 5.33495 19.8144 5.86328C20.7893 6.5256 21.4993 7.51097 21.8184 8.64551C22.1373 9.77999 22.0453 10.9912 21.5586 12.0645C21.072 13.1372 20.2212 14.0023 19.1582 14.5098L19.1592 14.5107C19.0894 14.5442 19.0412 14.5884 19.0166 14.6221C18.9954 14.6512 18.9999 14.6596 19 14.6504V20C19 20.5304 18.7891 21.039 18.4141 21.4141C18.039 21.7891 17.5304 22 17 22H6.99999C6.46966 22 5.96096 21.7891 5.58593 21.4141C5.21099 21.039 5.00003 20.5303 4.99999 20V14.6494C5.00012 14.6596 5.0049 14.6516 4.98339 14.6221C4.95881 14.5884 4.91098 14.5446 4.84179 14.5107L4.6455 14.4111C3.67458 13.8934 2.89914 13.0685 2.44335 12.0625C1.95734 10.9896 1.86574 9.77934 2.18456 8.64551C2.50344 7.51166 3.21253 6.52655 4.18652 5.86426C4.96369 5.33587 5.87013 5.03982 6.7998 5.00293C7.26546 4.19388 7.91521 3.50126 8.70019 2.98438C9.6797 2.33946 10.8272 1.99613 12 1.99609ZM6.99999 18V20H17V18H6.99999ZM12 3.99609C11.2183 3.99613 10.4537 4.22542 9.80078 4.65527C9.1479 5.08516 8.63516 5.69702 8.32617 6.41504C8.15342 6.81642 7.73938 7.05934 7.30468 7.01465C6.6017 6.94243 5.89593 7.12122 5.31152 7.51855C4.72723 7.91583 4.30175 8.5064 4.11035 9.18652C3.91905 9.86685 3.97397 10.5936 4.26562 11.2373C4.5209 11.8006 4.94287 12.2695 5.47167 12.582L5.7041 12.7061L5.70703 12.707C6.35943 13.0213 6.99999 13.7055 6.99999 14.6494V16H17V14.6504C17 13.7061 17.6402 13.0209 18.2949 12.707H18.2969C18.935 12.4026 19.4452 11.8821 19.7373 11.2383C20.0294 10.5943 20.0839 9.86722 19.8926 9.18652C19.7011 8.50595 19.2752 7.9149 18.6904 7.51758C18.1056 7.12033 17.3995 6.94193 16.6963 7.01465C16.2614 7.05963 15.8476 6.81665 15.6748 6.41504C15.3659 5.697 14.853 5.0852 14.2002 4.65527C13.5471 4.22531 12.7819 3.99609 12 3.99609Z" fill="#E4F2F2"/>
</svg>
