<svg width="24" height="24" viewBox="0 0 24 24" fill="none" xmlns="http://www.w3.org/2000/svg">
<path fill-rule="evenodd" clip-rule="evenodd" d="M18 4C19.3261 4 20.5975 4.52716 21.5352 5.46484C22.4728 6.40253 23 7.67392 23 9V17C23 17.7957 22.6837 18.5585 22.1211 19.1211C21.5585 19.6837 20.7957 20 20 20H4C3.20435 20 2.44151 19.6837 1.87891 19.1211C1.3163 18.5585 1 17.7956 1 17V9C1 7.67392 1.52716 6.40253 2.46484 5.46484C3.3439 4.58579 4.51618 4.06719 5.75195 4.00586L6 4H18ZM3 17C3 17.2652 3.10543 17.5195 3.29297 17.707C3.48051 17.8946 3.73478 18 4 18H8C8.26522 18 8.51949 17.8946 8.70703 17.707C8.89457 17.5195 9 17.2652 9 17V12H3V17ZM11 17C11 17.3444 10.937 17.6814 10.8242 18H20C20.2652 18 20.5195 17.8946 20.707 17.707C20.8946 17.5195 21 17.2652 21 17V12H17V14C17 14.5523 16.5523 15 16 15C15.4477 15 15 14.5523 15 14V12H11V17ZM6 6C5.20435 6 4.44152 6.3163 3.87891 6.87891C3.3163 7.44152 3 8.20435 3 9V10H9V9C9 8.20435 8.6837 7.44152 8.12109 6.87891C7.6289 6.38671 6.98351 6.08291 6.29688 6.01465L6 6ZM9.99902 6C10.6446 6.86048 11 7.91171 11 9V10H21V9C21 8.20435 20.6837 7.44152 20.1211 6.87891C19.5585 6.3163 18.7956 6 18 6H9.99902Z" fill="#E4F2F2"/>
</svg>
