<svg width="24" height="24" viewBox="0 0 24 24" fill="none" xmlns="http://www.w3.org/2000/svg">
<path fill-rule="evenodd" clip-rule="evenodd" d="M11.999 1C13.8392 1 15.6137 1.63522 17.0312 2.78223C17.0423 2.79068 17.0537 2.79864 17.0645 2.80762C17.2696 2.97538 17.4672 3.15377 17.6562 3.34277C18.427 4.11351 19.0224 5.02626 19.4209 6.01855C19.4509 6.07781 19.4747 6.13914 19.4922 6.20215C19.8232 7.08901 19.999 8.03519 19.999 9C19.999 12.4488 18.946 15.1939 18.0127 17.1797C18.4251 17.3279 18.8053 17.5631 19.1211 17.8789C19.6836 18.4415 20 19.2044 20 20V21C20 21.5304 19.7891 22.039 19.4141 22.4141C19.039 22.7891 18.5304 22.9999 18 23H6C5.46962 23 4.961 22.7891 4.58594 22.4141C4.21086 22.039 4 21.5304 4 21V20C4 19.2043 4.3163 18.4415 4.87891 17.8789C5.27946 17.4784 5.78209 17.2057 6.3252 17.0801L7.18457 15.2383L5.17676 14.2197C4.5093 13.8801 3.9922 13.3025 3.72852 12.6016C3.46492 11.9006 3.47274 11.126 3.75098 10.4307L5.84961 5.18164L5.09766 4.28027C4.85455 3.98832 4.69997 3.63266 4.65137 3.25586C4.60277 2.87902 4.66213 2.49548 4.82324 2.15137C4.98437 1.80741 5.24108 1.51643 5.56152 1.3125C5.88194 1.10871 6.25406 1.00026 6.63379 1H11.999ZM7 19C6.73484 19 6.48049 19.1055 6.29297 19.293C6.10543 19.4805 6 19.7348 6 20V21H18V20C18 19.7348 17.8945 19.4805 17.707 19.293C17.5195 19.1055 17.2651 19.0001 17 19H7ZM7.76758 4.36035C8.00247 4.64244 8.06399 5.03023 7.92773 5.37109L5.6084 11.1729L5.60742 11.1738C5.51478 11.4055 5.51278 11.6639 5.60059 11.8975C5.68847 12.131 5.86066 12.3233 6.08301 12.4365L8.03027 13.4248L8.80664 11.7617C9.04028 11.2616 9.63541 11.0449 10.1357 11.2783C10.6361 11.5118 10.8523 12.107 10.6191 12.6074L8.57031 17H15.8789C16.8385 15.051 17.999 12.4113 17.999 9C17.999 8.81266 17.989 8.62639 17.9717 8.44141L17.707 8.70703C17.3165 9.09737 16.6835 9.09737 16.293 8.70703C15.9025 8.31655 15.9026 7.6835 16.293 7.29297L17.332 6.25293C17.0943 5.79149 16.7969 5.35953 16.4434 4.96973L15.707 5.70703C15.3166 6.09749 14.6835 6.09735 14.293 5.70703C13.9025 5.3165 13.9025 4.68346 14.293 4.29297L14.8594 3.72559C13.989 3.25371 13.0068 3 11.999 3H6.63477L7.76758 4.36035Z" fill="#E4F2F2"/>
</svg>
