<svg width="24" height="24" viewBox="0 0 24 24" fill="none" xmlns="http://www.w3.org/2000/svg">
<path d="M11.3691 14.2246C11.7619 13.9043 12.3409 13.9268 12.707 14.293L17.707 19.293C18.0975 19.6835 18.0975 20.3165 17.707 20.707C17.3165 21.0975 16.6835 21.0975 16.293 20.707L12 16.414L7.70702 20.707C7.31652 21.0975 6.68348 21.0975 6.29295 20.707C5.90243 20.3165 5.90243 19.6835 6.29295 19.293L11.293 14.293L11.3691 14.2246Z" fill="#E4F2F2"/>
<path d="M16.293 3.29295C16.6835 2.90243 17.3165 2.90243 17.707 3.29295C18.0975 3.68348 18.0975 4.31652 17.707 4.70702L12.707 9.70702C12.3165 10.0975 11.6835 10.0975 11.293 9.70702L6.29295 4.70702C5.90243 4.31649 5.90243 3.68348 6.29295 3.29295C6.68348 2.90243 7.31649 2.90243 7.70702 3.29295L12 7.58592L16.293 3.29295Z" fill="#E4F2F2"/>
</svg>
