<svg width="24" height="24" viewBox="0 0 24 24" fill="none" xmlns="http://www.w3.org/2000/svg">
<path d="M11.3691 12.2246C11.7619 11.9043 12.3409 11.9269 12.707 12.293L17.707 17.293C18.0974 17.6835 18.0975 18.3166 17.707 18.707C17.3166 19.0974 16.6835 19.0974 16.293 18.707L12 14.4141L7.70704 18.707C7.31656 19.0974 6.68349 19.0974 6.29298 18.707C5.90248 18.3165 5.90253 17.6835 6.29298 17.293L11.293 12.293L11.3691 12.2246Z" fill="#E4F2F2"/>
<path d="M11.3691 5.22462C11.7619 4.90427 12.3409 4.92686 12.707 5.29298L17.707 10.293C18.0974 10.6835 18.0975 11.3166 17.707 11.707C17.3166 12.0974 16.6835 12.0974 16.293 11.707L12 7.41407L7.70704 11.707C7.31656 12.0974 6.68349 12.0974 6.29298 11.707C5.90248 11.3165 5.90253 10.6835 6.29298 10.293L11.293 5.29298L11.3691 5.22462Z" fill="#E4F2F2"/>
</svg>
