<svg width="24" height="24" viewBox="0 0 24 24" fill="none" xmlns="http://www.w3.org/2000/svg">
<path d="M5.29295 6.29295C5.68348 5.90243 6.31649 5.90243 6.70702 6.29295L11.707 11.293C12.0975 11.6835 12.0975 12.3165 11.707 12.707L6.70702 17.707C6.31652 18.0975 5.68348 18.0975 5.29295 17.707C4.90243 17.3165 4.90243 16.6835 5.29295 16.293L9.58592 12L5.29295 7.70702C4.90243 7.31649 4.90243 6.68348 5.29295 6.29295Z" fill="#E4F2F2"/>
<path d="M12.293 6.29295C12.6835 5.90243 13.3165 5.90243 13.707 6.29295L18.707 11.293C19.0975 11.6835 19.0975 12.3165 18.707 12.707L13.707 17.707C13.3165 18.0975 12.6835 18.0975 12.293 17.707C11.9024 17.3165 11.9024 16.6835 12.293 16.293L16.5859 12L12.293 7.70702C11.9024 7.31649 11.9024 6.68348 12.293 6.29295Z" fill="#E4F2F2"/>
</svg>
