<svg width="24" height="24" viewBox="0 0 24 24" fill="none" xmlns="http://www.w3.org/2000/svg">
<path d="M6.29295 6.29295C6.68348 5.90243 7.31649 5.90243 7.70702 6.29295C8.09747 6.68348 8.09752 7.31652 7.70702 7.70702L3.41405 12L7.70702 16.293C8.09747 16.6835 8.09752 17.3165 7.70702 17.707C7.31652 18.0975 6.68349 18.0975 6.29295 17.707L1.29295 12.707C0.90243 12.3165 0.90243 11.6835 1.29295 11.293L6.29295 6.29295Z" fill="#E4F2F2"/>
<path d="M16.293 6.29295C16.6835 5.90243 17.3165 5.90243 17.707 6.29295L22.707 11.293C23.0975 11.6835 23.0975 12.3165 22.707 12.707L17.707 17.707C17.3165 18.0975 16.6835 18.0975 16.293 17.707C15.9024 17.3165 15.9024 16.6835 16.293 16.293L20.5859 12L16.293 7.70702C15.9024 7.31649 15.9024 6.68348 16.293 6.29295Z" fill="#E4F2F2"/>
<path d="M8.00975 11C8.562 11 9.00975 11.4477 9.00975 12C9.00971 12.5522 8.56198 12.9999 8.00975 13H7.99999C7.44773 13 7.00003 12.5522 6.99999 12C6.99999 11.4477 7.4477 11 7.99999 11H8.00975Z" fill="#E4F2F2"/>
<path d="M12.0098 11C12.562 11 13.0098 11.4477 13.0098 12C13.0097 12.5522 12.562 12.9999 12.0098 13H12C11.4477 13 11 12.5522 11 12C11 11.4477 11.4477 11 12 11H12.0098Z" fill="#E4F2F2"/>
<path d="M16.0098 11C16.562 11 17.0098 11.4477 17.0098 12C17.0097 12.5522 16.562 12.9999 16.0098 13H16C15.4477 13 15 12.5522 15 12C15 11.4477 15.4477 11 16 11H16.0098Z" fill="#E4F2F2"/>
</svg>
