<svg width="24" height="24" viewBox="0 0 24 24" fill="none" xmlns="http://www.w3.org/2000/svg">
<path d="M8.29295 6.29295C8.68348 5.90243 9.31649 5.90243 9.70702 6.29295C10.0975 6.68348 10.0975 7.31652 9.70702 7.70702L5.41405 12L9.70702 16.293C10.0975 16.6835 10.0975 17.3165 9.70702 17.707C9.31652 18.0975 8.68349 18.0975 8.29295 17.707L3.29295 12.707C2.90243 12.3165 2.90243 11.6835 3.29295 11.293L8.29295 6.29295Z" fill="#E4F2F2"/>
<path d="M14.293 6.29295C14.6835 5.90243 15.3165 5.90243 15.707 6.29295L20.707 11.293C21.0975 11.6835 21.0975 12.3165 20.707 12.707L15.707 17.707C15.3165 18.0975 14.6835 18.0975 14.293 17.707C13.9024 17.3165 13.9024 16.6835 14.293 16.293L18.5859 12L14.293 7.70702C13.9024 7.31649 13.9024 6.68348 14.293 6.29295Z" fill="#E4F2F2"/>
</svg>
