<svg width="24" height="24" viewBox="0 0 24 24" fill="none" xmlns="http://www.w3.org/2000/svg">
<path d="M16.293 14.293C16.6835 13.9025 17.3165 13.9025 17.707 14.293C18.0974 14.6835 18.0975 15.3166 17.707 15.707L12.707 20.707C12.3166 21.0974 11.6835 21.0974 11.293 20.707L6.29298 15.707C5.90248 15.3165 5.90253 14.6835 6.29298 14.293C6.6835 13.9025 7.31651 13.9025 7.70704 14.293L12 18.5859L16.293 14.293Z" fill="#E4F2F2"/>
<path d="M11.3691 3.22462C11.7619 2.90427 12.3409 2.92686 12.707 3.29298L17.707 8.29298C18.0974 8.68352 18.0975 9.31657 17.707 9.70704C17.3166 10.0974 16.6835 10.0974 16.293 9.70704L12 5.41407L7.70704 9.70704C7.31656 10.0974 6.68349 10.0974 6.29298 9.70704C5.90248 9.31654 5.90253 8.68351 6.29298 8.29298L11.293 3.29298L11.3691 3.22462Z" fill="#E4F2F2"/>
</svg>
