<svg width="24" height="24" viewBox="0 0 24 24" fill="none" xmlns="http://www.w3.org/2000/svg">
<path d="M3.29295 6.29295C3.68348 5.90243 4.31649 5.90243 4.70702 6.29295L9.70702 11.293C10.0975 11.6835 10.0975 12.3165 9.70702 12.707L4.70702 17.707C4.31652 18.0975 3.68348 18.0975 3.29295 17.707C2.90243 17.3165 2.90243 16.6835 3.29295 16.293L7.58592 12L3.29295 7.70702C2.90243 7.31649 2.90243 6.68348 3.29295 6.29295Z" fill="#E4F2F2"/>
<path d="M19.293 6.29295C19.6835 5.90243 20.3165 5.90243 20.707 6.29295C21.0975 6.68348 21.0975 7.31652 20.707 7.70702L16.414 12L20.707 16.293C21.0975 16.6835 21.0975 17.3165 20.707 17.707C20.3165 18.0975 19.6835 18.0975 19.293 17.707L14.293 12.707C13.9024 12.3165 13.9024 11.6835 14.293 11.293L19.293 6.29295Z" fill="#E4F2F2"/>
</svg>
