<svg width="24" height="24" viewBox="0 0 24 24" fill="none" xmlns="http://www.w3.org/2000/svg">
<path fill-rule="evenodd" clip-rule="evenodd" d="M12 1C16.4762 1 20.3246 3.67522 22.042 7.5127C22.0693 7.56147 22.0924 7.61264 22.1113 7.66602C22.6822 8.99615 23 10.4608 23 12C23 18.0751 18.0751 23 12 23C11.6115 23 11.2277 22.9788 10.8496 22.9395C10.786 22.9376 10.7223 22.9293 10.6592 22.915C5.2167 22.2534 1 17.6211 1 12C1 9.5941 1.77462 7.37022 3.08496 5.55957C3.12133 5.49654 3.16369 5.43633 3.21387 5.38184C5.22156 2.72066 8.40958 1 12 1ZM16 9C16.6278 9.83569 17 10.8743 17 12C17 12.9747 16.7197 13.8834 16.2373 14.6523L12.5879 20.9785C17.2844 20.6756 21 16.773 21 12C21 10.9479 20.8181 9.93847 20.4863 9H16ZM3.92773 8.01855C3.3345 9.21903 3 10.5703 3 12C3 16.4087 6.17053 20.0737 10.3555 20.8467L12.5947 16.9629C12.3996 16.986 12.2013 17 12 17C10.0791 17 8.41258 15.9161 7.5752 14.3271L3.92773 8.01855ZM12 9C10.3431 9 9 10.3431 9 12C9 12.5011 9.1246 12.9725 9.3418 13.3877L9.40625 13.499C9.40985 13.5053 9.41256 13.5123 9.41602 13.5186C9.93755 14.4041 10.898 15 12 15C13.0912 15 14.0424 14.415 14.5674 13.5439L14.5938 13.5C14.6001 13.4889 14.6075 13.4785 14.6143 13.4678C14.8585 13.0336 15 12.5337 15 12C15 10.3431 13.6569 9 12 9ZM12 3C9.26164 3 6.80987 4.22378 5.15918 6.15332L7.40137 10.0322C8.16542 8.24899 9.93713 7 12 7H19.4834C17.8688 4.5883 15.1202 3 12 3Z" fill="#E4F2F2"/>
</svg>
