<svg width="24" height="24" viewBox="0 0 24 24" fill="none" xmlns="http://www.w3.org/2000/svg">
<path fill-rule="evenodd" clip-rule="evenodd" d="M1.29297 1.29295C1.68349 0.90243 2.31651 0.90243 2.70703 1.29295L22.707 21.293C23.0975 21.6835 23.0975 22.3165 22.707 22.707C22.3165 23.0975 21.6835 23.0975 21.293 22.707L15.5859 17H3C2.46958 17 1.96101 16.7891 1.58594 16.414C1.21088 16.039 1.00002 15.5304 1 15V13C1 12.4696 1.21089 11.961 1.58594 11.5859C1.96101 11.2109 2.46957 11 3 11H9.58594L1.29297 2.70702C0.902457 2.3165 0.902482 1.68348 1.29297 1.29295ZM8 15H13.5859L11.5859 13H8V15ZM3 15H6V13H3V15Z" fill="#E4F2F2"/>
<path d="M21 11C21.5304 11 22.039 11.2109 22.4141 11.5859C22.7891 11.961 23 12.4696 23 13V15L22.9961 15.1308C22.9761 15.4363 22.886 15.7339 22.7324 16C22.5569 16.304 22.304 16.5569 22 16.7324C21.5218 17.0084 20.9099 16.8443 20.6338 16.3662C20.3577 15.8879 20.5217 15.2761 21 15V13C20.4477 13 20 12.5522 20 12C20 11.4477 20.4477 11 21 11Z" fill="#E4F2F2"/>
<path d="M16 1.99999C16.5523 1.99999 17 2.4477 17 2.99999C17 3.47983 17.0932 3.80034 17.2139 4.05174C17.3448 4.32443 17.5233 4.5525 17.7812 4.87499C18.0232 5.17746 18.3448 5.57449 18.5889 6.08299C18.8432 6.6128 19 7.22991 19 7.99999C19 8.55224 18.5523 8.99999 18 8.99999C17.4477 8.99999 17 8.55224 17 7.99999C17 7.52014 16.9068 7.19964 16.7861 6.94823C16.6552 6.67553 16.4767 6.44747 16.2188 6.12499C15.9768 5.82252 15.6552 5.42547 15.4111 4.91698C15.1568 4.38717 15 3.77005 15 2.99999C15 2.4477 15.4477 1.99999 16 1.99999Z" fill="#E4F2F2"/>
<path d="M20 1.99999C20.5523 1.99999 21 2.4477 21 2.99999C21 3.47983 21.0932 3.80034 21.2139 4.05174C21.3448 4.32443 21.5233 4.5525 21.7812 4.87499C22.0232 5.17746 22.3448 5.57449 22.5889 6.08299C22.8432 6.6128 23 7.22991 23 7.99999C23 8.55224 22.5523 8.99999 22 8.99999C21.4477 8.99999 21 8.55224 21 7.99999C21 7.52014 20.9068 7.19964 20.7861 6.94823C20.6552 6.67553 20.4767 6.44747 20.2188 6.12499C19.9768 5.82252 19.6552 5.42547 19.4111 4.91698C19.1568 4.38717 19 3.77005 19 2.99999C19 2.4477 19.4477 1.99999 20 1.99999Z" fill="#E4F2F2"/>
</svg>
