<svg width="24" height="24" viewBox="0 0 24 24" fill="none" xmlns="http://www.w3.org/2000/svg">
<path d="M9.854 1.21045C11.9875 0.786182 14.1998 1.00407 16.2095 1.83642C18.2192 2.66894 19.9374 4.0795 21.146 5.88818C22.3546 7.697 22.9994 9.82408 22.9995 11.9995C22.9995 12.5518 22.5518 12.9995 21.9995 12.9995C21.4474 12.9993 20.9995 12.5517 20.9995 11.9995C20.9994 10.2197 20.4717 8.47942 19.4829 6.99951C18.4941 5.51975 17.0881 4.3662 15.4438 3.68506C13.7994 3.00401 11.9893 2.82512 10.2436 3.17236C8.49793 3.51966 6.89385 4.37665 5.63525 5.63525C4.37665 6.89385 3.51966 8.49793 3.17236 10.2436C2.82512 11.9893 3.00401 13.7994 3.68506 15.4438C4.3662 17.0881 5.51975 18.4941 6.99951 19.4829C8.47942 20.4717 10.2197 20.9994 11.9995 20.9995C12.5517 20.9995 12.9993 21.4474 12.9995 21.9995C12.9995 22.5518 12.5518 22.9995 11.9995 22.9995C9.82408 22.9994 7.697 22.3546 5.88818 21.146C4.0795 19.9374 2.66894 18.2192 1.83642 16.2095C1.00407 14.1998 0.786182 11.9875 1.21045 9.854C1.63492 7.72031 2.68287 5.7595 4.22119 4.22119C5.7595 2.68287 7.72031 1.63492 9.854 1.21045Z" fill="#E4F2F2"/>
<path d="M11.2925 11.2925C11.6829 10.9021 12.316 10.9023 12.7065 11.2925L20.9995 19.5854V15.9995C20.9997 15.4475 21.4475 14.9997 21.9995 14.9995C22.5517 14.9995 22.9993 15.4474 22.9995 15.9995V21.9995C22.9995 22.0337 22.9981 22.068 22.9946 22.102C22.9895 22.1525 22.9796 22.2016 22.9673 22.2495C22.9637 22.2633 22.9597 22.2769 22.9556 22.2905C22.9326 22.3663 22.9002 22.4374 22.8608 22.5044C22.8502 22.5226 22.8405 22.5415 22.8286 22.5591C22.7739 22.64 22.7077 22.7123 22.6323 22.7739C22.5918 22.8071 22.5484 22.835 22.5044 22.8608C22.4639 22.8846 22.4223 22.9063 22.3784 22.9243C22.3722 22.9269 22.3661 22.9297 22.3599 22.9321C22.3372 22.9409 22.314 22.9484 22.2905 22.9556C22.2769 22.9597 22.2633 22.9637 22.2495 22.9673C22.2311 22.972 22.2127 22.9772 22.1938 22.981C22.1297 22.9936 22.0646 22.9995 21.9995 22.9995H15.9995C15.4474 22.9993 14.9995 22.5517 14.9995 21.9995C14.9997 21.4475 15.4475 20.9997 15.9995 20.9995H19.5854L11.2925 12.7065C10.9023 12.316 10.9021 11.6829 11.2925 11.2925Z" fill="#E4F2F2"/>
</svg>
