<svg width="24" height="24" viewBox="0 0 24 24" fill="none" xmlns="http://www.w3.org/2000/svg">
<path d="M10.291 1.13085C12.7763 0.73938 15.3208 1.21236 17.5 2.46972C17.9779 2.74577 18.1428 3.35679 17.8672 3.83495C17.5912 4.31312 16.9792 4.47683 16.501 4.20117C14.7181 3.17248 12.6358 2.78624 10.6025 3.10644C8.56907 3.42681 6.70653 4.43479 5.32616 5.96191C3.9458 7.4891 3.13051 9.44361 3.01659 11.499C2.90277 13.5544 3.49702 15.5875 4.70018 17.2578C5.90339 18.9279 7.64344 20.1357 9.62889 20.6787C11.6144 21.2215 13.7267 21.0676 15.6123 20.2422C17.498 19.4166 19.0442 17.9688 19.9922 16.1416C20.94 14.3144 21.2322 12.2171 20.8213 10.2002C20.711 9.65915 21.0606 9.13092 21.6015 9.0205C22.1426 8.91042 22.671 9.25975 22.7812 9.80078C23.2835 12.2661 22.9252 14.8292 21.7666 17.0625C20.6079 19.2958 18.7188 21.0652 16.414 22.0742C14.1095 23.083 11.5282 23.2709 9.10155 22.6074C6.67478 21.9437 4.54773 20.4681 3.07713 18.4268C1.60661 16.3853 0.880432 13.9008 1.01952 11.3887C1.15871 8.87643 2.15561 6.4877 3.84276 4.62109C5.52989 2.7546 7.80566 1.52241 10.291 1.13085Z" fill="#E4F2F2"/>
<path d="M21.293 3.29296C21.6834 2.9025 22.3165 2.90262 22.707 3.29296C23.0975 3.68349 23.0975 4.3165 22.707 4.70703L12.707 14.707C12.3165 15.0975 11.6835 15.0975 11.293 14.707L8.29295 11.707C7.90263 11.3165 7.90252 10.6834 8.29295 10.293C8.68342 9.9025 9.31648 9.90262 9.70702 10.293L12 12.5859L21.293 3.29296Z" fill="#E4F2F2"/>
</svg>
