<svg width="24" height="24" viewBox="0 0 24 24" fill="none" xmlns="http://www.w3.org/2000/svg">
<path d="M15.8477 20.1357C16.3468 19.8999 16.9436 20.1132 17.1797 20.6123C17.4156 21.1114 17.2021 21.7081 16.7031 21.9443C14.0709 23.1891 11.0515 23.3393 8.3086 22.3623C7.78849 22.1769 7.51684 21.6042 7.70215 21.084C7.88764 20.564 8.46035 20.2932 8.98047 20.4785C11.2245 21.2777 13.6942 21.1541 15.8477 20.1357Z" fill="#E4F2F2"/>
<path d="M2.43164 15.083C2.93812 14.8629 3.52693 15.0951 3.74707 15.6016C4.25242 16.7642 4.99823 17.8066 5.93457 18.6611C6.34239 19.0334 6.37121 19.6663 5.99903 20.0742C5.62673 20.4821 4.99387 20.511 4.58594 20.1387C3.44148 19.0942 2.53074 17.8194 1.91309 16.3984C1.69302 15.892 1.92518 15.3031 2.43164 15.083Z" fill="#E4F2F2"/>
<path d="M12 1C14.1341 0.999646 16.2221 1.62055 18.0098 2.78613C19.7973 3.95172 21.2079 5.61162 22.0684 7.56445C22.9288 9.51745 23.2027 11.6793 22.8564 13.7852C22.5102 15.8908 21.5585 17.8503 20.1182 19.4248C19.7455 19.8322 19.1126 19.8608 18.7051 19.4883C18.2977 19.1155 18.2698 18.4827 18.6426 18.0752C19.8212 16.7869 20.5995 15.1829 20.8828 13.46C21.166 11.7371 20.9422 9.96886 20.2383 8.37109C19.5343 6.77331 18.3805 5.41463 16.918 4.46094C15.4553 3.50725 13.7461 2.99968 12 3C11.4478 2.99996 11.0001 2.5522 11 2C11 1.44783 11.4478 1.00014 12 1Z" fill="#E4F2F2"/>
<path d="M12 7C12.5523 7 13 7.44772 13 8V11H16C16.5523 11 17 11.4477 17 12C17 12.5523 16.5523 13 16 13H13V16C13 16.5523 12.5523 17 12 17C11.4478 17 11 16.5523 11 16V13H8C7.44776 13 7 12.5523 7 12C7 11.4477 7.44776 11 8 11H11V8C11 7.44774 11.4478 7.00004 12 7Z" fill="#E4F2F2"/>
<path d="M1.54981 8.5625C1.72237 8.03792 2.28792 7.75232 2.8125 7.9248C3.33711 8.09738 3.62273 8.66289 3.4502 9.1875C3.16342 10.0593 3.01146 10.97 3 11.8877C2.993 12.4398 2.53948 12.8819 1.98731 12.875C1.4352 12.868 0.993109 12.4145 1 11.8623C1.01403 10.7408 1.19933 9.62793 1.54981 8.5625Z" fill="#E4F2F2"/>
<path d="M4.87989 3.61621C5.30076 3.2588 5.93153 3.30973 6.28907 3.73047C6.64656 4.15139 6.5947 4.78212 6.17383 5.13965C5.89097 5.3799 5.62314 5.63783 5.37207 5.91113C4.99844 6.31773 4.36567 6.34525 3.95899 5.97168C3.55252 5.59808 3.52602 4.96526 3.89942 4.55859C4.20631 4.2245 4.53412 3.90989 4.87989 3.61621Z" fill="#E4F2F2"/>
</svg>
