<svg width="24" height="24" viewBox="0 0 24 24" fill="none" xmlns="http://www.w3.org/2000/svg">
<path d="M15.8477 20.1357C16.3468 19.8999 16.9436 20.1132 17.1797 20.6123C17.4156 21.1114 17.2021 21.7081 16.7031 21.9443C14.0709 23.1891 11.0515 23.3393 8.3086 22.3623C7.78849 22.1769 7.51684 21.6042 7.70215 21.084C7.88764 20.564 8.46035 20.2932 8.98047 20.4785C11.2245 21.2777 13.6942 21.1541 15.8477 20.1357Z" fill="#E4F2F2"/>
<path d="M2.43164 15.083C2.93812 14.8629 3.52693 15.0951 3.74707 15.6016C4.25242 16.7642 4.99823 17.8066 5.93457 18.6611C6.34239 19.0334 6.37121 19.6663 5.99903 20.0742C5.62673 20.4821 4.99387 20.511 4.58594 20.1387C3.44148 19.0942 2.53074 17.8194 1.91309 16.3984C1.69302 15.892 1.92518 15.3031 2.43164 15.083Z" fill="#E4F2F2"/>
<path d="M12 1C14.1341 0.999646 16.2221 1.62055 18.0098 2.78613C19.7973 3.95172 21.2079 5.61162 22.0684 7.56445C22.9288 9.51745 23.2027 11.6793 22.8564 13.7852C22.5102 15.8908 21.5585 17.8503 20.1182 19.4248C19.7455 19.8322 19.1126 19.8608 18.7051 19.4883C18.2977 19.1155 18.2698 18.4827 18.6426 18.0752C19.8212 16.7869 20.5995 15.1829 20.8828 13.46C21.166 11.7371 20.9422 9.96886 20.2383 8.37109C19.5343 6.77331 18.3805 5.41463 16.918 4.46094C15.4553 3.50725 13.7461 2.99968 12 3C11.4478 2.99996 11.0001 2.5522 11 2C11 1.44783 11.4478 1.00014 12 1Z" fill="#E4F2F2"/>
<path d="M12.0205 7.00098C12.0381 7.00133 12.0557 7.00166 12.0732 7.00293C12.0909 7.00421 12.1085 7.00562 12.126 7.00781C12.1378 7.00929 12.1494 7.01177 12.1611 7.01367C12.1802 7.01676 12.1991 7.02026 12.2178 7.02441C12.2269 7.02645 12.236 7.02895 12.2451 7.03125C12.3141 7.04865 12.3799 7.07358 12.4424 7.10449C12.4746 7.12042 12.5064 7.13761 12.5371 7.15723C12.5449 7.16219 12.5529 7.16671 12.5605 7.17188C12.6122 7.2069 12.6613 7.24722 12.707 7.29297L16.707 11.293C17.0976 11.6835 17.0976 12.3165 16.707 12.707C16.3165 13.0975 15.6835 13.0975 15.293 12.707L13 10.4141V16C13 16.5523 12.5523 17 12 17C11.4478 17 11 16.5523 11 16V10.4141L8.70703 12.707C8.31651 13.0975 7.68348 13.0975 7.29297 12.707C6.9025 12.3165 6.9025 11.6835 7.29297 11.293L11.293 7.29297C11.3508 7.23517 11.4159 7.1849 11.4863 7.14258C11.5055 7.13105 11.5252 7.12048 11.5449 7.11035C11.6075 7.07826 11.6738 7.05259 11.7432 7.03418C11.7588 7.03004 11.7743 7.02583 11.79 7.02246C11.8033 7.01963 11.8166 7.01695 11.8301 7.01465C11.846 7.01191 11.8619 7.00978 11.8779 7.00781C11.8957 7.00565 11.9136 7.00415 11.9316 7.00293C11.9476 7.00183 11.9635 7.00131 11.9795 7.00098C11.9863 7.00084 11.9931 7 12 7C12.0068 7 12.0137 7.00084 12.0205 7.00098Z" fill="#E4F2F2"/>
<path d="M1.54981 8.5625C1.72237 8.03792 2.28792 7.75232 2.8125 7.9248C3.33711 8.09738 3.62273 8.66289 3.4502 9.1875C3.16342 10.0593 3.01146 10.97 3 11.8877C2.993 12.4398 2.53948 12.8819 1.98731 12.875C1.4352 12.868 0.993109 12.4145 1 11.8623C1.01403 10.7408 1.19933 9.62793 1.54981 8.5625Z" fill="#E4F2F2"/>
<path d="M4.87989 3.61621C5.30076 3.2588 5.93153 3.30973 6.28907 3.73047C6.64656 4.15139 6.5947 4.78212 6.17383 5.13965C5.89097 5.3799 5.62314 5.63783 5.37207 5.91113C4.99844 6.31773 4.36567 6.34525 3.95899 5.97168C3.55252 5.59808 3.52602 4.96526 3.89942 4.55859C4.20631 4.2245 4.53412 3.90989 4.87989 3.61621Z" fill="#E4F2F2"/>
</svg>
