<svg width="24" height="24" viewBox="0 0 24 24" fill="none" xmlns="http://www.w3.org/2000/svg">
<path fill-rule="evenodd" clip-rule="evenodd" d="M1.29295 1.29295C1.68348 0.90243 2.31649 0.90243 2.70702 1.29295L22.707 21.293C23.0975 21.6835 23.0975 22.3165 22.707 22.707C22.3165 23.0975 21.6835 23.0975 21.293 22.707L19.0361 20.4502C17.0682 22.089 14.5819 22.999 12 22.999C9.08297 22.9989 6.28529 21.84 4.22264 19.7773C2.16016 17.7146 1.00096 14.917 1.00096 12C1.00106 9.41819 1.91003 6.93077 3.54881 4.96288L1.29295 2.70702C0.90243 2.31649 0.90243 1.68348 1.29295 1.29295ZM4.96971 6.38377C3.70186 7.97077 3.00106 9.94913 3.00096 12C3.00096 14.3865 3.94929 16.6756 5.6367 18.3633C7.32428 20.0508 9.6134 20.9989 12 20.999C14.0509 20.999 16.0282 20.2971 17.6152 19.0293L12.5859 14H9.99999V17C9.99994 17.5522 9.55221 17.9999 8.99999 18C8.44773 18 8.00003 17.5522 7.99999 17V9.41405L4.96971 6.38377ZM9.99999 12H10.5859L9.99999 11.414V12Z" fill="#E4F2F2"/>
<path d="M7.99217 1.75584C9.98347 0.976842 12.159 0.795649 14.2519 1.23338C16.3451 1.67132 18.2661 2.70952 19.7783 4.22167C21.2903 5.73375 22.3286 7.65402 22.7666 9.74706C23.2045 11.8402 23.0232 14.0163 22.2441 16.0078C22.0427 16.5218 21.4624 16.7754 20.9482 16.5742C20.4344 16.373 20.1803 15.7933 20.3808 15.2793C21.0183 13.65 21.1668 11.8697 20.8086 10.1572C20.4503 8.44458 19.6005 6.87296 18.3633 5.63573C17.1261 4.39872 15.5552 3.54869 13.8428 3.19042C12.1303 2.83223 10.35 2.98076 8.72069 3.61815C8.20655 3.81895 7.62599 3.56578 7.42479 3.05174C7.22366 2.5376 7.47822 1.95725 7.99217 1.75584Z" fill="#E4F2F2"/>
<path d="M13.2099 6.00585C13.6977 6.03152 14.1776 6.14583 14.625 6.34471C15.1364 6.57214 15.5948 6.90478 15.9697 7.3203C16.3446 7.73585 16.6279 8.2258 16.8017 8.7578C16.9755 9.28982 17.0358 9.85241 16.9785 10.4092C16.922 10.9584 16.4311 11.3581 15.8818 11.3017C15.3326 11.2452 14.933 10.7542 14.9892 10.2051C15.0179 9.92674 14.9882 9.64486 14.9014 9.37889C14.8145 9.11303 14.6726 8.86785 14.4853 8.66014C14.2979 8.45244 14.0681 8.28655 13.8125 8.17284C13.6207 8.08756 13.4169 8.0326 13.209 8.01073L13 7.99999H12.6562C12.104 7.99999 11.6563 7.55224 11.6562 6.99999C11.6562 6.4477 12.104 5.99999 12.6562 5.99999H13L13.2099 6.00585Z" fill="#E4F2F2"/>
</svg>
