<svg width="24" height="24" viewBox="0 0 24 24" fill="none" xmlns="http://www.w3.org/2000/svg">
<path d="M11.9995 1C12.5518 1 12.9995 1.44772 12.9995 2C12.9995 2.55228 12.5518 3 11.9995 3C10.2197 3.00007 8.47944 3.5278 6.99953 4.5166C5.5197 5.50546 4.36625 6.91135 3.68508 8.55566C3.00394 10.2001 2.82514 12.0101 3.17238 13.7559C3.51964 15.5016 4.3767 17.1056 5.63527 18.3643C6.89386 19.6228 8.49798 20.4798 10.2437 20.8271C11.9894 21.1744 13.7994 20.9955 15.4439 20.3145C17.0882 19.6333 18.4941 18.4799 19.4829 17C20.4718 15.52 20.9995 13.78 20.9995 12C20.9995 11.4478 21.4474 11.0002 21.9995 11C22.5518 11 22.9995 11.4477 22.9995 12C22.9995 14.1756 22.3547 16.3024 21.146 18.1113C19.9374 19.9201 18.2193 21.3305 16.2095 22.1631C14.1998 22.9955 11.9875 23.2133 9.85402 22.7891C7.72036 22.3646 5.75951 21.3166 4.22121 19.7783C2.68293 18.24 1.63489 16.2792 1.21047 14.1455C0.786201 12.0119 1.004 9.7998 1.83644 7.79004C2.66898 5.78024 4.07944 4.06216 5.8882 2.85352C7.69702 1.64493 9.8241 1.00007 11.9995 1Z" fill="#E4F2F2"/>
<path d="M21.9995 1C22.0581 1 22.1156 1.00597 22.1714 1.01562C22.2118 1.02263 22.2521 1.03098 22.2915 1.04297C22.3111 1.04893 22.3301 1.05637 22.3491 1.06348C22.3589 1.0671 22.3688 1.07028 22.3784 1.07422C22.3948 1.08091 22.4104 1.08916 22.4263 1.09668C22.4701 1.11738 22.5131 1.14054 22.5542 1.16797C22.637 1.22323 22.7111 1.29038 22.7739 1.36719C22.8018 1.40121 22.8264 1.43706 22.8491 1.47363C22.8942 1.54617 22.9301 1.62466 22.9556 1.70801C22.9846 1.80311 22.9995 1.90144 22.9995 2V8C22.9995 8.55228 22.5518 9 21.9995 9C21.4474 8.99981 20.9995 8.55217 20.9995 8V4.41406L12.7066 12.707C12.316 13.0974 11.683 13.0975 11.2925 12.707C10.9022 12.3166 10.9022 11.6834 11.2925 11.293L19.5855 3H15.9995C15.4474 2.99981 14.9995 2.55217 14.9995 2C14.9995 1.44783 15.4474 1.00019 15.9995 1H21.9995Z" fill="#E4F2F2"/>
</svg>
