<svg width="24" height="24" viewBox="0 0 24 24" fill="none" xmlns="http://www.w3.org/2000/svg">
<path d="M13.7085 20.8384C14.2504 20.7329 14.7755 21.0867 14.8813 21.6284C14.9869 22.1705 14.6334 22.6957 14.0913 22.8013C12.7102 23.0702 11.2898 23.0702 9.90869 22.8013C9.36686 22.6955 9.01312 22.1704 9.11865 21.6284C9.22449 21.0868 9.74969 20.733 10.2915 20.8384C11.4199 21.0581 12.5801 21.0581 13.7085 20.8384Z" fill="#E4F2F2"/>
<path d="M3.15381 16.7603C3.61245 16.4528 4.23292 16.5751 4.54053 17.0337C5.18302 17.9915 6.00503 18.8164 6.96045 19.4624C7.41758 19.7718 7.53798 20.3927 7.229 20.8501C6.9197 21.3076 6.29783 21.4278 5.84033 21.1187C4.67137 20.3283 3.66644 19.3189 2.88037 18.147C2.5728 17.6883 2.69518 17.0679 3.15381 16.7603Z" fill="#E4F2F2"/>
<path d="M19.4624 17.0396C19.7719 16.5826 20.3928 16.4629 20.8501 16.772C21.3076 17.0813 21.4279 17.7032 21.1187 18.1607C20.3283 19.3295 19.3188 20.3346 18.147 21.1206C17.6884 21.428 17.0679 21.3056 16.7603 20.8472C16.4526 20.3885 16.575 19.7671 17.0337 19.4595C17.9914 18.817 18.8164 17.9949 19.4624 17.0396Z" fill="#E4F2F2"/>
<path d="M1.19873 9.90871C1.30448 9.3668 1.82964 9.01313 2.37158 9.11867C2.91352 9.22443 3.26722 9.74954 3.16162 10.2915C2.94167 11.4199 2.94172 12.5802 3.16162 13.7085C3.26728 14.2505 2.91353 14.7756 2.37158 14.8814C1.82955 14.9869 1.30439 14.6334 1.19873 14.0913C0.92952 12.7102 0.929488 11.2899 1.19873 9.90871Z" fill="#E4F2F2"/>
<path d="M21.6284 9.11867C22.1704 9.01301 22.6955 9.36679 22.8013 9.90871C23.0705 11.2899 23.0705 12.7101 22.8013 14.0913C22.6956 14.6334 22.1705 14.987 21.6284 14.8814C21.0866 14.7754 20.7327 14.2504 20.8384 13.7085C21.0583 12.5802 21.0583 11.4199 20.8384 10.2915C20.7329 9.74966 21.0867 9.22453 21.6284 9.11867Z" fill="#E4F2F2"/>
<path d="M12.0005 10.0005C13.1049 10.0006 14.0005 10.896 14.0005 12.0005C14.0003 13.1049 13.1049 14.0004 12.0005 14.0005C10.896 14.0005 10.0006 13.105 10.0005 12.0005C10.0005 10.8959 10.8959 10.0005 12.0005 10.0005Z" fill="#E4F2F2"/>
<path d="M16.772 3.14992C17.0814 2.69275 17.7033 2.57308 18.1606 2.88234C19.3294 3.67268 20.3346 4.68133 21.1206 5.85304C21.4282 6.31166 21.3057 6.93308 20.8472 7.24074C20.3886 7.5482 19.7671 7.42582 19.4595 6.9673C18.817 6.00949 17.995 5.18461 17.0396 4.53859C16.5824 4.22919 16.4629 3.60727 16.772 3.14992Z" fill="#E4F2F2"/>
<path d="M5.85303 2.88039C6.31168 2.57278 6.93308 2.69518 7.24072 3.15382C7.54798 3.61241 7.42573 4.23297 6.96729 4.54054C6.00938 5.18306 5.18464 6.00495 4.53857 6.96046C4.22926 7.41782 3.60736 7.53813 3.1499 7.22902C2.69258 6.91963 2.57306 6.29779 2.88232 5.84035C3.67265 4.67152 4.6813 3.66641 5.85303 2.88039Z" fill="#E4F2F2"/>
<path d="M9.90869 1.19875C11.2898 0.929504 12.7102 0.929536 14.0913 1.19875C14.6333 1.30441 14.9869 1.82957 14.8813 2.3716C14.7756 2.91354 14.2505 3.26729 13.7085 3.16164C12.5802 2.94173 11.4198 2.94168 10.2915 3.16164C9.74952 3.26724 9.22441 2.91353 9.11865 2.3716C9.01312 1.82965 9.36679 1.3045 9.90869 1.19875Z" fill="#E4F2F2"/>
</svg>
