<svg width="24" height="24" viewBox="0 0 24 24" fill="none" xmlns="http://www.w3.org/2000/svg">
<path fill-rule="evenodd" clip-rule="evenodd" d="M1.29297 1.29295C1.68349 0.90243 2.31651 0.90243 2.70703 1.29295L22.707 21.293C23.0975 21.6835 23.0975 22.3165 22.707 22.707C22.3165 23.0975 21.6835 23.0975 21.293 22.707L19.0459 20.4599C18.1945 21.1688 17.2409 21.7484 16.2139 22.1738C14.8778 22.7272 13.4461 23.0127 12 23.0127C10.5538 23.0127 9.12125 22.7272 7.78516 22.1738C6.4493 21.6204 5.23535 20.8095 4.21289 19.7871C3.19029 18.7645 2.37863 17.55 1.8252 16.2139C1.27191 14.8779 0.987315 13.446 0.987305 12C0.987305 10.5538 1.27176 9.12125 1.8252 7.78514C2.25064 6.7581 2.82991 5.80431 3.53906 4.95311L1.29297 2.70702C0.902457 2.3165 0.902482 1.68348 1.29297 1.29295ZM4.95996 6.37401C4.43236 7.03446 3.99862 7.76672 3.67383 8.55077C3.22091 9.64422 2.9873 10.8164 2.9873 12C2.98731 13.1835 3.22092 14.3558 3.67383 15.4492C4.12675 16.5425 4.79018 17.5362 5.62695 18.373C6.46376 19.2098 7.45747 19.8732 8.55078 20.3262C9.64423 20.7791 10.8165 21.0127 12 21.0127C13.1835 21.0127 14.3558 20.7791 15.4492 20.3262C16.2332 20.0014 16.9646 19.5666 17.625 19.039L4.95996 6.37401Z" fill="#E4F2F2"/>
<path d="M7.98535 1.75877C9.97686 0.980951 12.1526 0.800532 14.2451 1.23924C16.3376 1.67807 18.2573 2.71714 19.7686 4.22948C21.2799 5.742 22.3176 7.66282 22.7549 9.75585C23.192 11.8487 23.0098 14.0237 22.2305 16.0146C22.029 16.5285 21.4496 16.7821 20.9355 16.581C20.4215 16.3797 20.1671 15.7993 20.3682 15.2851C21.0058 13.6562 21.1555 11.8764 20.7979 10.164C20.4401 8.45183 19.5908 6.88094 18.3545 5.64354C17.1179 4.40607 15.5471 3.55534 13.835 3.19627C12.1229 2.83731 10.3433 2.98572 8.71387 3.62206C8.19955 3.82268 7.61886 3.56796 7.41797 3.0537C7.21734 2.5396 7.47157 1.95997 7.98535 1.75877Z" fill="#E4F2F2"/>
</svg>
