<svg width="24" height="24" viewBox="0 0 24 24" fill="none" xmlns="http://www.w3.org/2000/svg">
<path d="M13.7109 20.8369C14.2528 20.7324 14.7778 21.0861 14.8828 21.6279C14.9875 22.1698 14.6326 22.6946 14.0908 22.7998C12.7105 23.0669 11.2905 23.0669 9.91016 22.7998C9.36824 22.6946 9.01432 22.1699 9.11914 21.6279C9.22429 21.086 9.74895 20.732 10.291 20.8369C11.4202 21.0553 12.5817 21.0554 13.7109 20.8369Z" fill="#E4F2F2"/>
<path d="M19.4512 17.0488C19.7609 16.5917 20.3827 16.4717 20.8398 16.7812C21.2968 17.0909 21.4168 17.7128 21.1074 18.1699C20.3163 19.3374 19.3072 20.3421 18.1367 21.1289C17.6784 21.4368 17.0571 21.3156 16.749 20.8574C16.441 20.3991 16.5632 19.7778 17.0215 19.4697C17.979 18.8261 18.8039 18.0039 19.4512 17.0488Z" fill="#E4F2F2"/>
<path d="M3.14356 16.749C3.60188 16.4411 4.22321 16.5632 4.53125 17.0215C5.17498 17.9791 5.99691 18.8039 6.95215 19.4512C7.40935 19.7609 7.52851 20.3826 7.21875 20.8398C6.90898 21.297 6.28728 21.4171 5.83008 21.1074C4.66246 20.3163 3.6579 19.3072 2.8711 18.1367C2.56321 17.6784 2.68528 17.0571 3.14356 16.749Z" fill="#E4F2F2"/>
<path d="M1.2002 9.91014C1.3053 9.36814 1.82998 9.01423 2.37207 9.11913C2.91424 9.2241 3.26899 9.74881 3.16406 10.291C2.94563 11.4203 2.94553 12.5817 3.16406 13.7109C3.2685 14.2529 2.91403 14.7779 2.37207 14.8828C1.83014 14.9875 1.3054 14.6326 1.2002 14.0908C0.933057 12.7104 0.933112 11.2905 1.2002 9.91014Z" fill="#E4F2F2"/>
<path d="M21.6279 9.11913C22.17 9.0143 22.6947 9.36823 22.7998 9.91014C23.0669 11.2905 23.0669 12.7104 22.7998 14.0908C22.6946 14.6326 22.1698 14.9875 21.6279 14.8828C21.0861 14.7778 20.7324 14.2528 20.8369 13.7109C21.0554 12.5817 21.0553 11.4202 20.8369 10.291C20.732 9.74894 21.086 9.22428 21.6279 9.11913Z" fill="#E4F2F2"/>
<path d="M16.7813 3.16014C17.091 2.70341 17.7129 2.58323 18.1699 2.89256C19.3375 3.68367 20.3421 4.69281 21.1289 5.86327C21.4368 6.3215 21.3154 6.94281 20.8574 7.25096C20.3991 7.55901 19.7778 7.43677 19.4697 6.9785C18.8261 6.021 18.0039 5.19603 17.0488 4.54881C16.5918 4.2391 16.4718 3.6173 16.7813 3.16014Z" fill="#E4F2F2"/>
<path d="M5.86328 2.87108C6.32155 2.56334 6.94292 2.68546 7.25098 3.14354C7.5588 3.60187 7.43677 4.22321 6.97852 4.53124C6.02101 5.17493 5.19603 5.99699 4.54883 6.95213C4.23901 7.40912 3.61729 7.52837 3.16016 7.21874C2.70326 6.90893 2.58305 6.28716 2.89258 5.83006C3.68365 4.66255 4.69287 3.65786 5.86328 2.87108Z" fill="#E4F2F2"/>
<path d="M9.91016 1.20018C11.2906 0.933096 12.7104 0.933042 14.0908 1.20018C14.6326 1.30538 14.9876 1.83012 14.8828 2.37206C14.7779 2.91402 14.2529 3.26849 13.7109 3.16405C12.5817 2.94551 11.4203 2.94562 10.291 3.16405C9.74883 3.26898 9.22412 2.91423 9.11914 2.37206C9.01425 1.82997 9.36816 1.30529 9.91016 1.20018Z" fill="#E4F2F2"/>
</svg>
