<svg width="24" height="24" viewBox="0 0 24 24" fill="none" xmlns="http://www.w3.org/2000/svg">
<path d="M11.293 11.2925C11.6834 10.9022 12.3166 10.9022 12.707 11.2925C13.0975 11.6829 13.0974 12.316 12.707 12.7065L4.41406 20.9995H8C8.55217 20.9995 8.99981 21.4474 9 21.9995C9 22.5518 8.55228 22.9995 8 22.9995H2C1.93388 22.9995 1.86781 22.993 1.80273 22.98C1.7882 22.9771 1.77406 22.9728 1.75977 22.9692C1.74245 22.9649 1.72512 22.9608 1.70801 22.9556C1.62837 22.9313 1.55323 22.8972 1.4834 22.855C1.46156 22.8417 1.43994 22.828 1.41895 22.813C1.32051 22.7425 1.23526 22.655 1.16797 22.5542C1.14054 22.5131 1.11738 22.4701 1.09668 22.4263C1.07611 22.3828 1.05717 22.3382 1.04297 22.2915C1.03789 22.2748 1.03446 22.2576 1.03027 22.2407C1.01116 22.1635 1 22.0826 1 21.9995V15.9995C1.00019 15.4474 1.44783 14.9995 2 14.9995C2.55217 14.9995 2.99981 15.4474 3 15.9995V19.5854L11.293 11.2925Z" fill="#E4F2F2"/>
<path d="M7.79004 1.83641C9.7998 1.00397 12.0119 0.786171 14.1455 1.21044C16.2792 1.63486 18.24 2.68289 19.7783 4.22118C21.3166 5.75948 22.3646 7.72033 22.7891 9.85399C23.2133 11.9875 22.9955 14.1997 22.1631 16.2095C21.3305 18.2193 19.9201 19.9373 18.1113 21.146C16.3024 22.3546 14.1756 22.9995 12 22.9995C11.4477 22.9995 11 22.5518 11 21.9995C11.0002 21.4474 11.4478 20.9995 12 20.9995C13.78 20.9995 15.52 20.4718 17 19.4829C18.4799 18.494 19.6333 17.0882 20.3145 15.4438C20.9955 13.7994 21.1744 11.9894 20.8271 10.2436C20.4798 8.49795 19.6228 6.89383 18.3643 5.63524C17.1056 4.37667 15.5016 3.5196 13.7559 3.17235C12.0101 2.82511 10.2001 3.00391 8.55566 3.68505C6.91135 4.36622 5.50546 5.51966 4.5166 6.9995C3.5278 8.47941 3.00007 10.2197 3 11.9995C3 12.5518 2.55228 12.9995 2 12.9995C1.44772 12.9995 1 12.5518 1 11.9995C1.00007 9.82407 1.64493 7.69699 2.85352 5.88817C4.06216 4.07941 5.78024 2.66895 7.79004 1.83641Z" fill="#E4F2F2"/>
</svg>
