<svg width="24" height="24" viewBox="0 0 24 24" fill="none" xmlns="http://www.w3.org/2000/svg">
<path d="M8.61182 1.54933C11.0145 0.776842 13.6099 0.854143 15.9624 1.76808C16.4769 1.9681 16.7324 2.54741 16.5327 3.06202C16.3327 3.57675 15.7526 3.83225 15.2378 3.63233C13.3132 2.88467 11.1898 2.82074 9.22412 3.45265C7.25836 4.0848 5.56914 5.37458 4.44092 7.10401C3.31278 8.83355 2.81416 10.8988 3.02783 12.9526C3.24162 15.0066 4.15455 16.925 5.61475 18.3853C7.07499 19.8455 8.99337 20.7584 11.0474 20.9722C13.1013 21.1859 15.1664 20.6873 16.896 19.5591C18.6254 18.4309 19.9152 16.7417 20.5474 14.7759C21.1792 12.8104 21.1162 10.6867 20.3687 8.76222C20.1689 8.2475 20.4233 7.66728 20.938 7.46729C21.4526 7.2676 22.0329 7.52311 22.2329 8.03761C23.1468 10.39 23.2231 12.9856 22.4507 15.3882C21.6781 17.7908 20.1025 19.855 17.9888 21.2339C15.8748 22.6128 13.3507 23.2227 10.8403 22.9614C8.3299 22.7001 5.98542 21.5841 4.20069 19.7993C2.41599 18.0146 1.29987 15.6701 1.03858 13.1597C0.777395 10.6494 1.38727 8.12514 2.76612 6.01124C4.14505 3.89756 6.20927 2.32194 8.61182 1.54933Z" fill="#E4F2F2"/>
<path fill-rule="evenodd" clip-rule="evenodd" d="M18.2925 4.29347C18.6829 3.90301 19.316 3.90314 19.7065 4.29347C20.0969 4.684 20.097 5.31704 19.7065 5.70753L14.7046 10.7085C14.8919 11.1001 15.0005 11.5375 15.0005 12.0005C15.0003 13.657 13.657 15.0002 12.0005 15.0005C10.3438 15.0005 9.00069 13.6572 9.00049 12.0005C9.00049 10.3436 10.3436 9.0005 12.0005 9.0005C12.4628 9.00057 12.8994 9.10757 13.2905 9.29444L18.2925 4.29347ZM12.0005 11.0005C11.4482 11.0005 11.0005 11.4482 11.0005 12.0005C11.0007 12.5526 11.4483 13.0005 12.0005 13.0005C12.5524 13.0002 13.0003 12.5525 13.0005 12.0005C13.0005 11.7724 12.923 11.5623 12.7944 11.3941C12.7595 11.3673 12.7249 11.3391 12.6929 11.3071C12.6609 11.2752 12.6327 11.2405 12.606 11.2056C12.4379 11.0772 12.2283 11.0006 12.0005 11.0005Z" fill="#E4F2F2"/>
</svg>
