<svg width="24" height="24" viewBox="0 0 24 24" fill="none" xmlns="http://www.w3.org/2000/svg">
<path fill-rule="evenodd" clip-rule="evenodd" d="M5.502 1.01025C5.79005 1.00319 6.07683 1.05517 6.3438 1.16357C6.60771 1.27081 6.84677 1.43166 7.04692 1.63427L7.0479 1.63329L8.96001 3.54736C8.98732 3.56842 9.01358 3.59142 9.03911 3.61572C9.07288 3.64786 9.10262 3.6828 9.13091 3.71825L14.6553 9.2456C14.6684 9.25695 14.681 9.26875 14.6934 9.28075C14.6978 9.28497 14.7028 9.28913 14.7071 9.29345C14.7102 9.29655 14.7128 9.30008 14.7159 9.30322C14.73 9.31777 14.7436 9.33275 14.7569 9.34814L22.3672 16.9634C22.5693 17.1604 22.729 17.3959 22.837 17.6567C22.9479 17.925 23.0014 18.2142 22.9942 18.5044C22.9869 18.7944 22.9191 19.08 22.795 19.3423C22.6708 19.6045 22.4932 19.8384 22.2735 20.0278C22.2677 20.0328 22.2609 20.0376 22.2549 20.0425C19.7606 22.0924 16.592 23.1411 13.3672 22.9839C10.1426 22.8265 7.0916 21.4747 4.80864 19.1919C2.52555 16.9088 1.17396 13.8573 1.01665 10.6323C0.859436 7.40751 1.9081 4.23995 3.95806 1.7456L3.98149 1.71728C4.17267 1.50139 4.40656 1.32722 4.66802 1.20556C4.92948 1.08396 5.21373 1.01741 5.502 1.01025ZM5.51177 3.01904C5.50112 3.024 5.49171 3.03124 5.48345 3.03954C3.76183 5.14651 2.88112 7.81723 3.01372 10.5356C3.14692 13.2643 4.29095 15.8461 6.2227 17.7778C8.15446 19.7094 10.7363 20.8527 13.4649 20.9858C16.1868 21.1185 18.8606 20.2354 20.9688 18.5093C20.9761 18.5025 20.9831 18.4949 20.9874 18.4858C20.992 18.4759 20.9949 18.4646 20.9952 18.4536C20.9954 18.4426 20.9935 18.4315 20.9893 18.4214C20.9851 18.4112 20.9787 18.4017 20.9708 18.394C20.965 18.3886 20.9588 18.383 20.9532 18.3774L19.5928 17.0161C18.0001 18.228 16.0412 18.8826 14.0215 18.855C11.6749 18.8228 9.43353 17.8752 7.77544 16.2143C6.11743 14.5534 5.17368 12.31 5.14556 9.96337C5.12154 7.947 5.77571 5.99113 6.98638 4.40185L5.62505 3.03954C5.61565 3.02995 5.60423 3.02224 5.59185 3.01708C5.57938 3.01202 5.56526 3.00906 5.55181 3.00927C5.53819 3.00961 5.52414 3.01333 5.51177 3.01904ZM14.9991 16.8013C16.1378 16.6613 17.2244 16.2445 18.1631 15.5864L14.9991 12.4204V16.8013ZM9.9522 15.4614C10.8492 16.1322 11.8946 16.577 12.9991 16.7602V12.4145L9.9522 15.4614ZM7.24028 11.0005C7.42331 12.1048 7.86759 13.1503 8.53813 14.0474L11.585 11.0005H7.24028ZM8.41606 5.83251C7.75648 6.77183 7.33956 7.86031 7.19927 9.00048H11.5821L8.41606 5.83251Z" fill="#E4F2F2"/>
</svg>
