<svg width="24" height="24" viewBox="0 0 24 24" fill="none" xmlns="http://www.w3.org/2000/svg">
<path fill-rule="evenodd" clip-rule="evenodd" d="M16.6372 1.13525C18.2201 0.703683 19.8861 1.55408 20.356 3.10595L21.1558 5.70654C21.2344 5.96246 21.2077 6.23944 21.0806 6.47509C20.9535 6.71065 20.7369 6.88556 20.48 6.96044L16.0064 8.26025C15.8586 8.34735 15.6962 8.39276 15.5327 8.39794L10.021 10.0005H21.0005C21.5526 10.0007 22.0005 10.4483 22.0005 11.0005V19.0005C22.0004 19.796 21.6841 20.5591 21.1216 21.1216C20.5591 21.6841 19.796 22.0004 19.0005 22.0005H5.0005C4.20502 22.0005 3.44199 21.684 2.87941 21.1216C2.31688 20.5591 2.0006 19.796 2.0005 19.0005V11.1821L1.16457 8.95166C1.15379 8.92292 1.14337 8.89337 1.13527 8.86377C0.702935 7.27854 1.55656 5.61018 3.11281 5.14306L3.11672 5.14209L11.8833 2.54345C12.0321 2.45344 12.1976 2.40792 12.3628 2.40185L16.6167 1.14209L16.6372 1.13525ZM4.0005 19.0005L4.00539 19.0991C4.02815 19.328 4.12942 19.5435 4.29347 19.7075C4.48098 19.8948 4.73546 20.0005 5.0005 20.0005H19.0005C19.2656 20.0004 19.5201 19.895 19.7075 19.7075C19.895 19.5201 20.0004 19.2656 20.0005 19.0005V12.0005H4.0005V19.0005ZM3.68703 7.05712L3.688 7.0581C3.25197 7.18891 2.91021 7.70469 3.05812 8.30615L3.61086 9.78076L7.56886 8.62939L5.81691 6.42529L3.68703 7.05712ZM7.88527 5.81298L9.64406 8.02685L13.7876 6.82177L12.0493 4.57861L7.88527 5.81298ZM18.4429 3.68798C18.3101 3.24528 17.7798 2.89846 17.1665 3.06396L14.106 3.97021L15.8521 6.22216L18.9458 5.32373L18.4448 3.69482L18.4429 3.68798Z" fill="#E4F2F2"/>
</svg>
