<svg width="24" height="24" viewBox="0 0 24 24" fill="none" xmlns="http://www.w3.org/2000/svg">
<path fill-rule="evenodd" clip-rule="evenodd" d="M15 1C16.1046 1 17 1.89543 17 3H18C18.7956 3 19.5585 3.3163 20.1211 3.87891C20.6837 4.44151 21 5.20435 21 6V20C21 20.7957 20.6837 21.5585 20.1211 22.1211C19.5585 22.6837 18.7957 23 18 23H12.5C11.9477 23 11.5 22.5523 11.5 22C11.5 21.4477 11.9477 21 12.5 21H18C18.2652 21 18.5195 20.8946 18.707 20.707C18.8946 20.5195 19 20.2652 19 20V6C19 5.73478 18.8946 5.48051 18.707 5.29297C18.5429 5.12883 18.3276 5.02757 18.0986 5.00488L18 5H17C17 6.10457 16.1046 7 15 7H9C7.89543 7 7 6.10457 7 5H6C5.73478 5 5.4805 5.10543 5.29297 5.29297C5.10543 5.4805 5 5.73478 5 6V13.5C5 14.0523 4.55228 14.5 4 14.5C3.44772 14.5 3 14.0523 3 13.5V6C3 5.20435 3.3163 4.44152 3.87891 3.87891C4.44152 3.3163 5.20435 3 6 3H7C7 1.89543 7.89543 1 9 1H15ZM9 5H15V3H9V5Z" fill="#E4F2F2"/>
<path fill-rule="evenodd" clip-rule="evenodd" d="M11.876 11C12.2862 11 12.6923 11.0813 13.0713 11.2383C13.4503 11.3953 13.7949 11.625 14.085 11.915C14.375 12.2051 14.6057 12.5497 14.7627 12.9287C14.9196 13.3076 15 13.7139 15 14.124C15 14.5341 14.9196 14.9405 14.7627 15.3193C14.6057 15.6983 14.375 16.043 14.085 16.333L9.07227 21.3428L9.07129 21.3418C8.71494 21.6982 8.27481 21.9593 7.79102 22.1006L4.9209 22.9385C4.66288 23.0137 4.38926 23.0178 4.12891 22.9512C3.86844 22.8844 3.63056 22.7487 3.44043 22.5586C3.25035 22.3685 3.1146 22.1305 3.04785 21.8701C2.98122 21.6098 2.98535 21.3361 3.06055 21.0781L3.89844 18.208L3.95703 18.0283C4.10649 17.6152 4.34448 17.2385 4.65625 16.9268L9.66699 11.915C9.95707 11.625 10.3017 11.3953 10.6807 11.2383C11.0597 11.0813 11.4657 11 11.876 11ZM11.876 13C11.7284 13 11.5817 13.0294 11.4453 13.0859C11.3092 13.1424 11.1853 13.2249 11.0811 13.3291L6.07129 18.3408C5.95246 18.4596 5.86546 18.6073 5.81836 18.7686L5.23633 20.7627L7.23145 20.1807C7.3924 20.1335 7.53962 20.0464 7.6582 19.9277L12.6709 14.9189L12.7451 14.8369C12.815 14.7518 12.8727 14.6568 12.915 14.5547C12.9715 14.4183 13 14.2716 13 14.124C13 13.9767 12.9713 13.8305 12.915 13.6943C12.8586 13.558 12.7753 13.4335 12.6709 13.3291C12.5667 13.2249 12.4428 13.1424 12.3066 13.0859C12.1703 13.0294 12.0236 13 11.876 13Z" fill="#E4F2F2"/>
</svg>
