<svg width="24" height="24" viewBox="0 0 24 24" fill="none" xmlns="http://www.w3.org/2000/svg">
<path d="M10.1983 1.14941C12.4618 0.773478 14.7868 1.11516 16.8467 2.12597C18.9065 3.13685 20.599 4.76676 21.6866 6.78711C22.774 8.80758 23.2027 11.1184 22.9121 13.3945C22.8419 13.9418 22.3414 14.3294 21.794 14.2598C21.2462 14.1898 20.859 13.6883 20.9287 13.1406C21.1664 11.2785 20.8155 9.38835 19.9258 7.73535C19.036 6.08229 17.6512 4.74801 15.9658 3.92089C14.2805 3.09391 12.3783 2.81549 10.5264 3.12304C8.67428 3.43069 6.96433 4.30913 5.63675 5.63671C4.30916 6.9643 3.43072 8.67425 3.12307 10.5264C2.81552 12.3783 3.09394 14.2805 3.92093 15.9658C4.74804 17.6511 6.08232 19.036 7.73538 19.9258C9.38838 20.8154 11.2786 21.1664 13.1407 20.9287C13.6884 20.8589 14.1899 21.2462 14.2598 21.7939C14.3294 22.3413 13.9418 22.8418 13.3946 22.9121C11.1185 23.2027 8.80761 22.774 6.78714 21.6865C4.76679 20.5989 3.13688 18.9065 2.126 16.8467C1.11519 14.7867 0.773508 12.4618 1.14944 10.1982C1.52549 7.93464 2.60014 5.8452 4.22268 4.22265C5.84523 2.60011 7.93467 1.52546 10.1983 1.14941Z" fill="#E4F2F2"/>
<path d="M19 15C19.5523 15 20 15.4478 20 16V18H22C22.5523 18 23 18.4478 23 19C23 19.5523 22.5523 20 22 20H20V22C20 22.5523 19.5523 23 19 23C18.4478 22.9999 18 22.5522 18 22V20H16C15.4478 19.9999 15 19.5522 15 19C15.0001 18.4478 15.4478 18.0001 16 18H18V16C18.0001 15.4478 18.4478 15.0001 19 15Z" fill="#E4F2F2"/>
<path d="M12 5C12.5523 5 13 5.44777 13 6V11.3818L16.0908 12.9277C16.5848 13.1747 16.7851 13.7756 16.5381 14.2695C16.2911 14.763 15.691 14.9633 15.1973 14.7168L11.5528 12.8945C11.2141 12.7251 11 12.3787 11 12V6C11.0001 5.44782 11.4478 5.00007 12 5Z" fill="#E4F2F2"/>
</svg>
