<svg width="24" height="24" viewBox="0 0 24 24" fill="none" xmlns="http://www.w3.org/2000/svg">
<path d="M10.2612 1.13916C12.363 0.802631 14.5178 1.08323 16.4634 1.94678C18.4087 2.81039 20.0619 4.22001 21.2222 6.00439C22.3824 7.78891 23.0005 9.87193 23.0005 12.0005C23.0003 12.5525 22.5525 13.0003 22.0005 13.0005C21.4483 13.0005 21.0007 12.5526 21.0005 12.0005C21.0005 10.2589 20.4947 8.55431 19.5454 7.09424C18.596 5.6343 17.2435 4.48047 15.6519 3.77392C14.0601 3.06743 12.2972 2.83849 10.5776 3.11377C8.85804 3.38915 7.25495 4.15751 5.96338 5.32568C4.67175 6.49402 3.74627 8.01223 3.30029 9.6958C2.85435 11.3794 2.90683 13.1565 3.45068 14.811C3.99457 16.4654 5.00698 17.9265 6.36474 19.0171C7.72247 20.1075 9.36742 20.7814 11.1001 20.9556C11.6494 21.0109 12.0508 21.5009 11.9956 22.0503C11.9403 22.5995 11.4501 23.0006 10.9009 22.9458C8.78296 22.7329 6.77139 21.9096 5.11181 20.5767C3.45232 19.2437 2.21501 17.4571 1.55029 15.4351C0.885726 13.413 0.822709 11.2416 1.36767 9.18408C1.91276 7.12636 3.04291 5.27026 4.62158 3.84228C6.20019 2.41448 8.15947 1.47574 10.2612 1.13916Z" fill="#E4F2F2"/>
<path d="M21.2935 15.2935C21.684 14.9029 22.317 14.9029 22.7075 15.2935C23.0978 15.684 23.0979 16.3171 22.7075 16.7075L17.2075 22.2075C16.8171 22.5979 16.184 22.5977 15.7935 22.2075L13.2935 19.7075C12.9029 19.317 12.903 18.684 13.2935 18.2935C13.684 17.9029 14.317 17.9029 14.7075 18.2935L16.5005 20.0864L21.2935 15.2935Z" fill="#E4F2F2"/>
<path d="M12.0005 5.00049C12.5527 5.00062 13.0005 5.44828 13.0005 6.00049V11.3823L16.4478 13.106C16.9415 13.353 17.142 13.9539 16.895 14.4478C16.648 14.9415 16.0471 15.1417 15.5532 14.895L11.5532 12.895C11.2145 12.7257 11.0006 12.3791 11.0005 12.0005V6.00049C11.0005 5.4482 11.4482 5.00049 12.0005 5.00049Z" fill="#E4F2F2"/>
</svg>
