<svg width="24" height="24" viewBox="0 0 24 24" fill="none" xmlns="http://www.w3.org/2000/svg">
<path d="M15.8477 20.1357C16.3468 19.8999 16.9436 20.1132 17.1797 20.6123C17.4156 21.1114 17.2021 21.7081 16.7031 21.9443C14.0709 23.1891 11.0516 23.3393 8.30861 22.3623C7.7885 22.1769 7.51685 21.6042 7.70217 21.084C7.88766 20.564 8.46037 20.2932 8.98049 20.4785C11.2245 21.2777 13.6942 21.1541 15.8477 20.1357Z" fill="#E4F2F2"/>
<path d="M2.43166 15.083C2.93814 14.8629 3.52695 15.0951 3.74709 15.6016C4.25244 16.7642 4.99824 17.8066 5.93459 18.6611C6.3424 19.0334 6.37122 19.6663 5.99904 20.0742C5.62674 20.4821 4.99389 20.511 4.58596 20.1387C3.4415 19.0942 2.53076 17.8194 1.9131 16.3984C1.69304 15.892 1.92519 15.3031 2.43166 15.083Z" fill="#E4F2F2"/>
<path d="M12 1C14.1341 0.999646 16.2221 1.62055 18.0098 2.78613C19.7974 3.95172 21.2079 5.61162 22.0684 7.56445C22.9289 9.51745 23.2027 11.6793 22.8565 13.7852C22.5102 15.8908 21.5585 17.8503 20.1182 19.4248C19.7455 19.8322 19.1126 19.8608 18.7051 19.4883C18.2977 19.1155 18.2699 18.4827 18.6426 18.0752C19.8212 16.7869 20.5995 15.1829 20.8828 13.46C21.1661 11.7371 20.9423 9.96886 20.2383 8.37109C19.5343 6.77331 18.3805 5.41463 16.918 4.46094C15.4553 3.50725 13.7461 2.99968 12 3C11.4479 2.99996 11.0001 2.5522 11 2C11 1.44783 11.4478 1.00014 12 1Z" fill="#E4F2F2"/>
<path d="M12 5C12.5523 5 13 5.44772 13 6V11.3818L16.4473 13.1055C16.9413 13.3525 17.1415 13.9533 16.8945 14.4473C16.6476 14.9412 16.0467 15.1415 15.5528 14.8945L11.5528 12.8945C11.214 12.7251 11 12.3787 11 12V6C11 5.44774 11.4478 5.00004 12 5Z" fill="#E4F2F2"/>
<path d="M1.54982 8.5625C1.72239 8.03792 2.28793 7.75232 2.81252 7.9248C3.33712 8.09738 3.62275 8.66289 3.45021 9.1875C3.16343 10.0593 3.01148 10.97 3.00002 11.8877C2.99301 12.4398 2.5395 12.8819 1.98732 12.875C1.43522 12.868 0.993124 12.4145 1.00002 11.8623C1.01405 10.7408 1.19935 9.62793 1.54982 8.5625Z" fill="#E4F2F2"/>
<path d="M4.8799 3.61621C5.30078 3.2588 5.93154 3.30973 6.28908 3.73047C6.64658 4.15139 6.59472 4.78212 6.17385 5.13965C5.89099 5.3799 5.62315 5.63783 5.37209 5.91113C4.99846 6.31773 4.36569 6.34525 3.959 5.97168C3.55254 5.59808 3.52603 4.96526 3.89943 4.55859C4.20633 4.2245 4.53413 3.90989 4.8799 3.61621Z" fill="#E4F2F2"/>
</svg>
