<svg width="24" height="24" viewBox="0 0 24 24" fill="none" xmlns="http://www.w3.org/2000/svg">
<path d="M10.5527 1.09571C12.7819 0.799727 15.0487 1.19405 17.0469 2.22559C19.0451 3.25732 20.6799 4.87733 21.7295 6.86622C22.7788 8.85496 23.1938 11.118 22.918 13.3496C22.8501 13.8974 22.3505 14.2872 21.8027 14.2197C21.2547 14.152 20.865 13.6525 20.9326 13.1045C21.1584 11.2786 20.8194 9.42698 19.9609 7.79981C19.1022 6.17265 17.7646 4.84709 16.1299 4.00294C14.4949 3.15887 12.6394 2.83592 10.8154 3.07813C8.9915 3.3205 7.28563 4.11681 5.92773 5.35841C4.56982 6.60011 3.62487 8.22834 3.2207 10.0234C2.81666 11.8185 2.97228 13.6947 3.66699 15.3984C4.36179 17.1021 5.56245 18.5522 7.10644 19.5527C8.65056 20.5532 10.4648 21.057 12.3037 20.9951C12.8555 20.9768 13.3183 21.4091 13.3369 21.9609C13.3552 22.5125 12.9226 22.9753 12.3711 22.9941C10.1235 23.0698 7.90584 22.4543 6.01855 21.2315C4.13138 20.0085 2.66461 18.2356 1.81542 16.1533C0.966303 14.0709 0.775629 11.778 1.26952 9.58399C1.76354 7.38988 2.91833 5.39951 4.57812 3.88184C6.23788 2.36427 8.32335 1.39186 10.5527 1.09571Z" fill="#E4F2F2"/>
<path d="M18 13C18.5522 13 19 13.4478 19 14V19.5859L21.293 17.293C21.6835 16.9025 22.3165 16.9025 22.707 17.293C23.0975 17.6835 23.0975 18.3165 22.707 18.707L18.707 22.707C18.6605 22.7536 18.6086 22.7944 18.5537 22.8311C18.5146 22.8572 18.4743 22.8804 18.4326 22.9004C18.3871 22.9223 18.34 22.9412 18.291 22.9561C18.2743 22.9611 18.2572 22.9646 18.2402 22.9688C18.2246 22.9726 18.2092 22.9774 18.1934 22.9805C18.1863 22.9819 18.179 22.9822 18.1719 22.9834C18.1159 22.9931 18.0587 23 18 23L17.8975 22.9951C17.876 22.9929 17.855 22.9879 17.834 22.9844C17.8236 22.9826 17.8131 22.9816 17.8027 22.9795C17.7912 22.9772 17.7799 22.9744 17.7685 22.9717C17.748 22.9668 17.7273 22.9623 17.707 22.9561C17.6584 22.9412 17.6116 22.9222 17.5664 22.9004C17.5266 22.8812 17.4877 22.8597 17.4502 22.835C17.3935 22.7976 17.3408 22.7548 17.293 22.707L13.293 18.707C12.9024 18.3165 12.9024 17.6835 13.293 17.293C13.6835 16.9025 14.3165 16.9025 14.707 17.293L17 19.5859V14C17 13.4477 17.4477 13 18 13Z" fill="#E4F2F2"/>
<path d="M12 5.00001C12.5522 5.00005 13 5.44776 13 6.00001V11.3818L14.4473 12.1055C14.9412 12.3525 15.1415 12.9533 14.8945 13.4473C14.6475 13.9412 14.0467 14.1415 13.5527 13.8945L11.5527 12.8945C11.2139 12.7251 11 12.3788 11 12V6.00001C11 5.44773 11.4477 5.00001 12 5.00001Z" fill="#E4F2F2"/>
</svg>
