<svg width="24" height="24" viewBox="0 0 24 24" fill="none" xmlns="http://www.w3.org/2000/svg">
<path d="M11.9736 0.99609C14.1596 0.991249 16.2974 1.63809 18.1142 2.85351C19.9312 4.06909 21.345 5.7988 22.1748 7.82129C22.384 8.33212 22.1397 8.91642 21.6289 9.12597C21.1183 9.33484 20.5338 9.09053 20.3242 8.58007C19.6453 6.92543 18.4894 5.51016 17.0029 4.51562C15.5165 3.52117 13.7669 2.99221 11.9785 2.99609C10.1902 3.00014 8.44291 3.53715 6.96092 4.53808C5.47901 5.5392 4.3277 6.95963 3.65624 8.61718C2.98497 10.2747 2.82295 12.0955 3.19042 13.8457C3.558 15.5957 4.43849 17.1969 5.71971 18.4443C7.0012 19.6919 8.6262 20.5301 10.3857 20.8506C12.1451 21.1709 13.9607 20.9596 15.5996 20.2441C16.1057 20.0231 16.695 20.2546 16.916 20.7607C17.1366 21.2668 16.9054 21.8562 16.3994 22.0771C14.3963 22.9515 12.1776 23.2099 10.0273 22.8184C7.87687 22.4266 5.89143 21.4026 4.32518 19.8779C2.75898 18.3532 1.6817 16.396 1.23241 14.2568C0.783259 12.1177 0.982188 9.89216 1.80272 7.86621C2.62338 5.84034 4.02962 4.10444 5.84081 2.88086C7.65221 1.65734 9.78773 1.00103 11.9736 0.99609Z" fill="#E4F2F2"/>
<path d="M20.0098 20C20.562 20 21.0097 20.4477 21.0098 21C21.0098 21.5523 20.562 22 20.0098 22H20C19.4478 21.9999 19 21.5522 19 21C19 20.4478 19.4478 20.0001 20 20H20.0098Z" fill="#E4F2F2"/>
<path d="M20 11C20.5523 11 21 11.4477 21 12V17C21 17.5523 20.5523 18 20 18C19.4478 17.9999 19 17.5522 19 17V12C19 11.4478 19.4478 11.0001 20 11Z" fill="#E4F2F2"/>
<path d="M12 5C12.5523 5 13 5.44772 13 6V11.3818L16.4473 13.1055C16.9412 13.3525 17.1415 13.9533 16.8945 14.4473C16.6475 14.9412 16.0467 15.1415 15.5527 14.8945L11.5527 12.8945C11.214 12.7251 11 12.3787 11 12V6C11 5.44779 11.4478 5.0001 12 5Z" fill="#E4F2F2"/>
</svg>
