<svg width="24" height="24" viewBox="0 0 24 24" fill="none" xmlns="http://www.w3.org/2000/svg">
<path d="M9.58399 1.26952C11.778 0.775629 14.0709 0.966303 16.1533 1.81542C18.2356 2.66461 20.0085 4.13138 21.2315 6.01855C22.4543 7.90584 23.0698 10.1235 22.9941 12.3711C22.9753 12.9226 22.5125 13.3552 21.9609 13.3369C21.4091 13.3183 20.9768 12.8555 20.9951 12.3037C21.057 10.4648 20.5532 8.65056 19.5527 7.10644C18.5522 5.56245 17.1021 4.36179 15.3984 3.66699C13.6947 2.97228 11.8185 2.81666 10.0234 3.2207C8.22834 3.62487 6.60011 4.56982 5.35841 5.92773C4.11681 7.28563 3.3205 8.9915 3.07813 10.8154C2.83592 12.6394 3.15887 14.4949 4.00294 16.1299C4.84709 17.7646 6.17265 19.1022 7.79981 19.9609C9.42698 20.8194 11.2786 21.1584 13.1045 20.9326C13.6525 20.865 14.152 21.2547 14.2197 21.8027C14.2872 22.3505 13.8974 22.8501 13.3496 22.918C11.118 23.1938 8.85496 22.7788 6.86622 21.7295C4.87733 20.6799 3.25732 19.0451 2.22559 17.0469C1.19405 15.0487 0.799727 12.7819 1.09571 10.5527C1.39186 8.32335 2.36427 6.23788 3.88184 4.57812C5.39951 2.91833 7.38988 1.76354 9.58399 1.26952Z" fill="#E4F2F2"/>
<path d="M18.0205 13.001C18.0381 13.0013 18.0557 13.0016 18.0732 13.0029C18.091 13.0042 18.1085 13.0056 18.126 13.0078C18.1378 13.0093 18.1494 13.0118 18.1611 13.0137C18.1802 13.0168 18.1991 13.0203 18.2178 13.0244C18.2315 13.0275 18.2452 13.0305 18.2588 13.0342C18.2742 13.0383 18.2896 13.0421 18.3047 13.0469C18.3165 13.0506 18.3281 13.0553 18.3399 13.0596C18.3752 13.0723 18.409 13.088 18.4424 13.1045C18.4746 13.1204 18.5064 13.1376 18.5371 13.1572C18.5697 13.178 18.601 13.2003 18.6309 13.2246C18.657 13.246 18.6826 13.2686 18.707 13.293L22.707 17.293C23.0975 17.6835 23.0976 18.3165 22.707 18.707C22.3165 19.0975 21.6835 19.0975 21.293 18.707L19 16.4141V22C19 22.5522 18.5523 23 18 23C17.4478 23 17 22.5522 17 22V16.4141L14.707 18.707C14.3165 19.0975 13.6835 19.0975 13.293 18.707C12.9025 18.3165 12.9025 17.6835 13.293 17.293L17.293 13.293L17.3057 13.2812C17.3665 13.2225 17.4347 13.1718 17.5088 13.1299C17.5363 13.1143 17.5642 13.0997 17.5928 13.0869C17.6392 13.0662 17.6875 13.0497 17.7373 13.0361C17.7555 13.0312 17.7736 13.0254 17.792 13.0215C17.803 13.0192 17.8141 13.0176 17.8252 13.0156C17.8427 13.0125 17.8603 13.01 17.8779 13.0078C17.8957 13.0056 17.9136 13.0041 17.9316 13.0029C17.9476 13.0018 17.9635 13.0013 17.9795 13.001C17.9863 13.0008 17.9931 13 18 13C18.0069 13 18.0137 13.0008 18.0205 13.001Z" fill="#E4F2F2"/>
<path d="M12 4.99999C12.5523 4.99999 13 5.44771 13 5.99999V11.3818L14.0068 11.8857C14.5008 12.1327 14.7011 12.7336 14.4541 13.2275C14.207 13.7212 13.6061 13.9217 13.1123 13.6748L11.5527 12.8945C11.214 12.7251 11 12.3787 11 12V5.99999C11 5.44771 11.4477 5 12 4.99999Z" fill="#E4F2F2"/>
</svg>
