<svg width="24" height="24" viewBox="0 0 24 24" fill="none" xmlns="http://www.w3.org/2000/svg">
<path fill-rule="evenodd" clip-rule="evenodd" d="M18 1.58398C18.3177 1.58399 18.6325 1.64656 18.9258 1.76855C19.2182 1.89019 19.4835 2.06868 19.707 2.29297L21.7051 4.29102L21.8652 4.4668C22.0162 4.64984 22.14 4.85437 22.2314 5.07422C22.3535 5.36753 22.416 5.68232 22.416 6C22.416 6.31768 22.3534 6.63247 22.2314 6.92578C22.1098 7.21817 21.9304 7.48254 21.7061 7.70605L21.707 7.70703L20.7051 8.70898C20.6668 8.74708 20.636 8.79288 20.6152 8.84277C20.5946 8.89257 20.584 8.94608 20.584 9C20.584 9.05393 20.5946 9.10742 20.6152 9.15723C20.6256 9.18211 20.6384 9.20624 20.6533 9.22852L20.7051 9.29102L21.7051 10.291L21.8652 10.4668C22.0162 10.6498 22.14 10.8544 22.2314 11.0742C22.3535 11.3675 22.416 11.6823 22.416 12C22.416 12.3177 22.3534 12.6325 22.2314 12.9258C22.1098 13.2182 21.9304 13.4825 21.7061 13.7061L21.707 13.707L20.7051 14.709C20.6668 14.7471 20.636 14.7929 20.6152 14.8428C20.5946 14.8926 20.584 14.9461 20.584 15C20.584 15.0539 20.5946 15.1074 20.6152 15.1572C20.6256 15.1821 20.6384 15.2062 20.6533 15.2285L20.7051 15.291L21.7051 16.291L21.8652 16.4668C22.0162 16.6498 22.14 16.8544 22.2314 17.0742C22.3535 17.3675 22.416 17.6823 22.416 18C22.416 18.3177 22.3534 18.6325 22.2314 18.9258C22.1098 19.2182 21.9304 19.4825 21.7061 19.7061L21.707 19.707L19.707 21.707C19.4835 21.9313 19.2182 22.1098 18.9258 22.2314C18.6325 22.3534 18.3177 22.416 18 22.416C17.6823 22.416 17.3675 22.3535 17.0742 22.2314C16.7818 22.1098 16.5165 21.9313 16.293 21.707L15.291 20.7051C15.2529 20.6668 15.2071 20.636 15.1572 20.6152C15.1074 20.5946 15.0539 20.584 15 20.584C14.9461 20.584 14.8926 20.5946 14.8428 20.6152C14.7929 20.636 14.7471 20.6668 14.709 20.7051L13.707 21.707C13.4835 21.9313 13.2182 22.1098 12.9258 22.2314C12.6325 22.3534 12.3177 22.416 12 22.416C11.6823 22.416 11.3675 22.3535 11.0742 22.2314C10.7818 22.1098 10.5165 21.9313 10.293 21.707L9.29102 20.7051C9.25292 20.6668 9.20711 20.636 9.15723 20.6152C9.10742 20.5946 9.05393 20.584 9 20.584C8.94608 20.584 8.89257 20.5946 8.84277 20.6152C8.79288 20.636 8.74708 20.6668 8.70898 20.7051L7.70703 21.707C7.48351 21.9313 7.21817 22.1098 6.92578 22.2314C6.63247 22.3534 6.31768 22.416 6 22.416C5.68232 22.416 5.36753 22.3535 5.07422 22.2314C4.78185 22.1098 4.51648 21.9313 4.29297 21.707L2.29297 19.707L2.29395 19.7061C2.06965 19.4825 1.89019 19.2182 1.76855 18.9258C1.64656 18.6325 1.58399 18.3177 1.58398 18C1.58399 17.6823 1.64654 17.3675 1.76855 17.0742C1.89054 16.781 2.06969 16.5149 2.29492 16.291L3.29492 15.291C3.33325 15.2529 3.36401 15.2071 3.38477 15.1572C3.40544 15.1074 3.41601 15.0539 3.41602 15C3.41601 14.9461 3.40542 14.8926 3.38477 14.8428C3.36401 14.7929 3.33324 14.7471 3.29492 14.709L2.29297 13.707L2.29395 13.7061C2.06965 13.4825 1.89019 13.2182 1.76855 12.9258C1.64656 12.6325 1.58399 12.3177 1.58398 12C1.58399 11.6823 1.64654 11.3675 1.76855 11.0742C1.89054 10.781 2.06969 10.5149 2.29492 10.291L3.29492 9.29102C3.33325 9.25291 3.36401 9.20713 3.38477 9.15723C3.40544 9.10742 3.41601 9.05393 3.41602 9C3.41601 8.94609 3.40542 8.89256 3.38477 8.84277C3.36401 8.79289 3.33324 8.74707 3.29492 8.70898L2.29297 7.70703L2.29395 7.70605C2.06965 7.48255 1.89019 7.21815 1.76855 6.92578C1.64656 6.63248 1.58399 6.31766 1.58398 6C1.58399 5.68232 1.64654 5.36754 1.76855 5.07422C1.89054 4.78097 2.06969 4.51494 2.29492 4.29102L4.29297 2.29297C4.51649 2.06866 4.78182 1.89019 5.07422 1.76855C5.36754 1.64654 5.68232 1.58399 6 1.58398C6.31766 1.58399 6.63248 1.64656 6.92578 1.76855C7.21815 1.89019 7.48352 2.06868 7.70703 2.29297L8.70898 3.29492C8.74707 3.33324 8.79289 3.36401 8.84277 3.38477C8.89256 3.40542 8.94609 3.41601 9 3.41602C9.05393 3.41601 9.10742 3.40544 9.15723 3.38477C9.20713 3.36401 9.25291 3.33325 9.29102 3.29492L10.293 2.29297C10.5165 2.06866 10.7818 1.89019 11.0742 1.76855C11.3675 1.64654 11.6823 1.58399 12 1.58398C12.3177 1.58399 12.6325 1.64656 12.9258 1.76855C13.2182 1.89019 13.4835 2.06868 13.707 2.29297L14.709 3.29492C14.7471 3.33324 14.7929 3.36401 14.8428 3.38477C14.8926 3.40542 14.9461 3.41601 15 3.41602C15.0539 3.41601 15.1074 3.40544 15.1572 3.38477C15.2071 3.36401 15.2529 3.33325 15.291 3.29492L16.293 2.29297C16.5165 2.06866 16.7818 1.89019 17.0742 1.76855C17.3675 1.64654 17.6823 1.58399 18 1.58398ZM18 3.58398C17.9461 3.58399 17.8926 3.59457 17.8428 3.61523C17.7929 3.63599 17.7471 3.66675 17.709 3.70508L16.707 4.70703C16.4835 4.93133 16.2182 5.10981 15.9258 5.23145C15.6325 5.35345 15.3177 5.41601 15 5.41602C14.6823 5.41601 14.3675 5.35345 14.0742 5.23145C13.7818 5.10982 13.5165 4.93131 13.293 4.70703L12.291 3.70508C12.2529 3.66677 12.2071 3.63598 12.1572 3.61523C12.1074 3.59456 12.0539 3.58399 12 3.58398C11.9461 3.58399 11.8926 3.59457 11.8428 3.61523C11.7929 3.63599 11.7471 3.66675 11.709 3.70508L10.707 4.70703C10.4835 4.93133 10.2182 5.10981 9.92578 5.23145C9.63247 5.35345 9.31768 5.41601 9 5.41602C8.68232 5.41601 8.36753 5.35345 8.07422 5.23145C7.78185 5.10982 7.51648 4.93131 7.29297 4.70703L6.29102 3.70508C6.25292 3.66677 6.20711 3.63598 6.15723 3.61523C6.10742 3.59456 6.05393 3.58399 6 3.58398C5.94608 3.58399 5.89257 3.59457 5.84277 3.61523C5.79288 3.63599 5.74708 3.66675 5.70898 3.70508L3.70508 5.70898C3.66675 5.74708 3.63599 5.79288 3.61523 5.84277C3.59457 5.89257 3.58399 5.94608 3.58398 6C3.58399 6.05393 3.59456 6.10742 3.61523 6.15723C3.62559 6.18211 3.63838 6.20624 3.65332 6.22852L3.70508 6.29102L4.70508 7.29102L4.86523 7.4668C5.01617 7.64984 5.13999 7.85437 5.23145 8.07422C5.35345 8.36753 5.41601 8.68232 5.41602 9C5.41601 9.31768 5.35345 9.63247 5.23145 9.92578C5.10981 10.2182 4.93036 10.4825 4.70605 10.7061L4.70703 10.707L3.70508 11.709C3.66675 11.7471 3.63599 11.7929 3.61523 11.8428C3.59457 11.8926 3.58399 11.9461 3.58398 12C3.58399 12.0539 3.59456 12.1074 3.61523 12.1572C3.62559 12.1821 3.63838 12.2062 3.65332 12.2285L3.70508 12.291L4.70508 13.291L4.86523 13.4668C5.01617 13.6498 5.13999 13.8544 5.23145 14.0742C5.35345 14.3675 5.41601 14.6823 5.41602 15C5.41601 15.3177 5.35345 15.6325 5.23145 15.9258C5.10981 16.2182 4.93036 16.4825 4.70605 16.7061L4.70703 16.707L3.70508 17.709C3.66675 17.7471 3.63599 17.7929 3.61523 17.8428C3.59457 17.8926 3.58399 17.9461 3.58398 18C3.58399 18.0539 3.59456 18.1074 3.61523 18.1572C3.62559 18.1821 3.63838 18.2062 3.65332 18.2285L3.70508 18.291L5.70898 20.2949C5.74707 20.3332 5.79289 20.364 5.84277 20.3848C5.89256 20.4054 5.94609 20.416 6 20.416C6.05393 20.416 6.10742 20.4054 6.15723 20.3848C6.20713 20.364 6.25291 20.3333 6.29102 20.2949L7.29297 19.293C7.51649 19.0687 7.78182 18.8902 8.07422 18.7686C8.36754 18.6465 8.68232 18.584 9 18.584C9.31766 18.584 9.63248 18.6466 9.92578 18.7686C10.2182 18.8902 10.4835 19.0687 10.707 19.293L11.709 20.2949C11.7471 20.3332 11.7929 20.364 11.8428 20.3848C11.8926 20.4054 11.9461 20.416 12 20.416C12.0539 20.416 12.1074 20.4054 12.1572 20.3848C12.2071 20.364 12.2529 20.3333 12.291 20.2949L13.293 19.293C13.5165 19.0687 13.7818 18.8902 14.0742 18.7686C14.3675 18.6465 14.6823 18.584 15 18.584C15.3177 18.584 15.6325 18.6466 15.9258 18.7686C16.2182 18.8902 16.4835 19.0687 16.707 19.293L17.709 20.2949C17.7471 20.3332 17.7929 20.364 17.8428 20.3848C17.8926 20.4054 17.9461 20.416 18 20.416C18.0539 20.416 18.1074 20.4054 18.1572 20.3848C18.2071 20.364 18.2529 20.3333 18.291 20.2949L20.2949 18.291C20.3333 18.2529 20.364 18.2071 20.3848 18.1572C20.4054 18.1074 20.416 18.0539 20.416 18C20.416 17.9461 20.4054 17.8926 20.3848 17.8428C20.364 17.7929 20.3332 17.7471 20.2949 17.709L19.293 16.707C19.0689 16.4836 18.8901 16.2179 18.7686 15.9258C18.6466 15.6325 18.584 15.3177 18.584 15C18.584 14.6823 18.6465 14.3675 18.7686 14.0742C18.8905 13.781 19.0697 13.5149 19.2949 13.291L20.2949 12.291C20.3333 12.2529 20.364 12.2071 20.3848 12.1572C20.4054 12.1074 20.416 12.0539 20.416 12C20.416 11.9461 20.4054 11.8926 20.3848 11.8428C20.364 11.7929 20.3332 11.7471 20.2949 11.709L19.293 10.707C19.0689 10.4836 18.8901 10.2179 18.7686 9.92578C18.6466 9.63248 18.584 9.31766 18.584 9C18.584 8.68232 18.6465 8.36754 18.7686 8.07422C18.8905 7.78097 19.0697 7.51494 19.2949 7.29102L20.2949 6.29102C20.3333 6.25291 20.364 6.20713 20.3848 6.15723C20.4054 6.10742 20.416 6.05393 20.416 6C20.416 5.94609 20.4054 5.89256 20.3848 5.84277C20.364 5.79289 20.3332 5.74707 20.2949 5.70898L18.291 3.70508C18.2529 3.66677 18.2071 3.63598 18.1572 3.61523C18.1074 3.59456 18.0539 3.58399 18 3.58398Z" fill="#E4F2F2"/>
</svg>
