<svg width="24" height="24" viewBox="0 0 24 24" fill="none" xmlns="http://www.w3.org/2000/svg">
<path d="M11.9995 12.0005C12.5518 12.0005 12.9995 12.4482 12.9995 13.0005V18.5864L15.2925 16.2934C15.683 15.9029 16.316 15.9029 16.7066 16.2934C17.0971 16.684 17.0971 17.317 16.7066 17.7075L12.7066 21.7075C12.6517 21.7623 12.591 21.8077 12.5279 21.8472C12.5166 21.8542 12.5053 21.8611 12.4937 21.8677C12.4196 21.9099 12.3418 21.9416 12.2613 21.9634C12.2473 21.9672 12.2334 21.9709 12.2193 21.9741C12.1331 21.9934 12.0454 22.0012 11.9575 21.9975C11.9513 21.9973 11.9452 21.9969 11.939 21.9966C11.8495 21.9911 11.761 21.9742 11.6753 21.9448C11.6691 21.9427 11.663 21.9402 11.6568 21.938C11.6153 21.9228 11.5743 21.9061 11.5347 21.8852L11.5308 21.8833C11.5281 21.8818 11.5257 21.8799 11.523 21.8784C11.4871 21.8589 11.4522 21.8372 11.4185 21.813C11.4106 21.8073 11.4028 21.8013 11.395 21.7954C11.3864 21.7888 11.3772 21.7828 11.3687 21.7759L11.2925 21.7075L7.29251 17.7075C6.90211 17.3171 6.9023 16.684 7.29251 16.2934C7.68303 15.9029 8.31605 15.9029 8.70657 16.2934L10.9995 18.5864V13.0005C10.9995 12.4483 11.4474 12.0007 11.9995 12.0005Z" fill="#E4F2F2"/>
<path d="M8.13919 2.04735C9.37202 1.91373 10.62 2.0685 11.7827 2.4995C12.9452 2.93051 13.9917 3.62607 14.8394 4.53075C15.5141 5.25094 16.046 6.08969 16.4146 7.00047H17.4995L17.7222 7.00438C18.8314 7.04918 19.9038 7.42912 20.7954 8.09618C21.7465 8.80786 22.4417 9.80909 22.7769 10.9487C23.1119 12.0884 23.0693 13.3062 22.6548 14.4194C22.2403 15.5327 21.4759 16.4815 20.4771 17.1245C20.0127 17.4233 19.3932 17.2899 19.0943 16.8257C18.7956 16.3614 18.9299 15.7418 19.3941 15.4429C20.0298 15.0337 20.516 14.4297 20.7798 13.7212C21.0436 13.0127 21.0712 12.2375 20.8579 11.5122C20.6446 10.7872 20.2022 10.1505 19.5972 9.69774C18.9919 9.24494 18.2555 9.00038 17.4995 9.00047H15.7095C15.2674 9.00031 14.8778 8.70929 14.7515 8.28563C14.4857 7.39443 14.0162 6.57663 13.3804 5.89794C12.7446 5.21938 11.9593 4.69776 11.0874 4.3745C10.2154 4.05128 9.2796 3.93542 8.35501 4.03563C7.43043 4.13589 6.54181 4.45003 5.75931 4.95262C4.97678 5.45528 4.32092 6.1329 3.84524 6.93212C3.36979 7.73111 3.08682 8.6299 3.0181 9.55712C2.94944 10.4846 3.09696 11.4163 3.44974 12.2768C3.80254 13.1373 4.35139 13.9038 5.0513 14.5161C5.46693 14.8797 5.50863 15.5116 5.14505 15.9272C4.78141 16.3428 4.14957 16.3856 3.73392 16.022C2.80066 15.2055 2.06957 14.1829 1.59915 13.0356C1.12876 11.8882 0.931442 10.6464 1.02298 9.40965C1.11457 8.17303 1.49231 6.97424 2.12649 5.90868C2.76074 4.84304 3.63486 3.93924 4.67825 3.26903C5.72148 2.59902 6.90657 2.18104 8.13919 2.04735Z" fill="#E4F2F2"/>
</svg>
