<svg width="24" height="24" viewBox="0 0 24 24" fill="none" xmlns="http://www.w3.org/2000/svg">
<path d="M12.1425 11.4854C12.4267 11.0119 13.0411 10.8585 13.5146 11.1426C13.988 11.4268 14.1415 12.0411 13.8574 12.5147L11.7665 16H13.9999C14.36 16 14.6925 16.1936 14.8701 16.5068C15.0475 16.8203 15.0427 17.2057 14.8574 17.5147L11.8574 22.5147C11.5732 22.9881 10.9588 23.1415 10.4853 22.8574C10.0118 22.5732 9.8584 21.9589 10.1425 21.4854L12.2333 18H9.99994C9.63983 18 9.30739 17.8064 9.12983 17.4932C8.95232 17.1797 8.95716 16.7943 9.14252 16.4854L12.1425 11.4854Z" fill="#E4F2F2"/>
<path d="M7.32416 2.18068C8.62734 1.90106 9.97998 1.95227 11.2587 2.32814C12.5375 2.70414 13.7029 3.39352 14.6474 4.334C15.4126 5.09601 16.0135 6.00391 16.4169 7.00001H17.4999C18.9067 6.99802 20.2612 7.53522 21.2841 8.50099C22.3072 9.46715 22.9217 10.7893 22.9999 12.1943C23.0781 13.5993 22.6144 14.9809 21.705 16.0547C20.7955 17.1285 19.5081 17.8128 18.1093 17.9668C17.5607 18.027 17.0665 17.6316 17.0058 17.083C16.9454 16.5342 17.3418 16.0401 17.8906 15.9795C18.7806 15.8815 19.5999 15.4459 20.1787 14.7627C20.7574 14.0794 21.0526 13.1997 21.0029 12.3057C20.9531 11.4116 20.5621 10.5699 19.9111 9.95509C19.26 9.34038 18.3973 8.99855 17.5019 9.00001H15.7099C15.2681 8.99985 14.8785 8.70945 14.7519 8.28615C14.4659 7.3283 13.9446 6.4564 13.2363 5.75099C12.5279 5.04573 11.6542 4.5281 10.6953 4.24611C9.7362 3.96417 8.72148 3.92706 7.74408 4.13673C6.76656 4.34656 5.85661 4.7975 5.0976 5.44825C4.33858 6.09909 3.75396 6.92918 3.3974 7.86329C3.0409 8.79736 2.92331 9.8059 3.05561 10.7969C3.18798 11.7878 3.56616 12.7303 4.15522 13.5381C4.74435 14.3458 5.52654 14.994 6.42963 15.4229C6.92797 15.66 7.13996 16.2563 6.90326 16.7549C6.66641 17.2536 6.07002 17.4661 5.57123 17.2295C4.36711 16.6577 3.32451 15.7938 2.53901 14.7168C1.75355 13.6398 1.24967 12.3828 1.07319 11.0615C0.896793 9.74021 1.05391 8.39582 1.52924 7.1504C2.00465 5.90486 2.78378 4.79751 3.79584 3.9297C4.80782 3.06208 6.02085 2.46044 7.32416 2.18068Z" fill="#E4F2F2"/>
</svg>
