<svg width="24" height="24" viewBox="0 0 24 24" fill="none" xmlns="http://www.w3.org/2000/svg">
<path fill-rule="evenodd" clip-rule="evenodd" d="M6.05422 4.5625C7.43318 4.01605 8.93744 3.8642 10.398 4.12304C11.8586 4.38199 13.2185 5.04205 14.3257 6.02929C15.2439 6.84813 15.9576 7.86573 16.4165 9H17.4995C18.9582 9 20.3577 9.57996 21.3892 10.6113C22.4204 11.6427 22.9995 13.0415 22.9995 14.5C22.9995 15.9584 22.4203 17.3573 21.3892 18.3887C20.3578 19.4199 18.9581 20 17.4995 20H8.99953C7.51618 19.9995 6.06158 19.5868 4.79933 18.8076C3.53706 18.0283 2.51625 16.9129 1.85109 15.5869C1.18594 14.2609 0.902605 12.7756 1.03273 11.2978C1.16291 9.82042 1.70107 8.40791 2.58742 7.21875C3.47409 6.02947 4.67519 5.10915 6.05422 4.5625ZM10.0484 6.09179C8.95302 5.89778 7.82468 6.012 6.79054 6.42187C5.75635 6.83187 4.8559 7.52215 4.19094 8.41406C3.52617 9.30597 3.12252 10.3655 3.02492 11.4736C2.92734 12.5819 3.13935 13.6959 3.6382 14.6904C4.13706 15.6849 4.90343 16.521 5.85012 17.1055C6.79664 17.6897 7.88722 17.9996 8.99953 18H17.4995C18.4276 18 19.3178 17.6308 19.9741 16.9746C20.6305 16.3183 20.9995 15.4282 20.9995 14.5C20.9995 13.5717 20.6305 12.6818 19.9741 12.0254C19.3178 11.3691 18.4277 11 17.4995 11H15.7095C15.2677 10.9997 14.8779 10.7095 14.7515 10.2861C14.4336 9.21982 13.8251 8.26204 12.9946 7.52148C12.1643 6.78117 11.1437 6.28597 10.0484 6.09179Z" fill="#E4F2F2"/>
</svg>
