<svg width="24" height="24" viewBox="0 0 24 24" fill="none" xmlns="http://www.w3.org/2000/svg">
<path d="M11 19C11.5522 19.0001 12 19.4478 12 20V22C11.9999 22.5522 11.5522 22.9999 11 23C10.4477 23 10 22.5523 9.99999 22V20C9.99999 19.4477 10.4477 19 11 19Z" fill="#E4F2F2"/>
<path d="M7.15331 11.0039C8.05246 11.0268 8.93576 11.2521 9.73632 11.6621C10.5368 12.0721 11.2353 12.6569 11.7793 13.3731C12.1551 13.8679 12.449 14.4174 12.6553 15H13C13.8106 14.9992 14.6025 15.2448 15.2705 15.7041C15.9388 16.1637 16.4519 16.8155 16.7412 17.5733C17.0305 18.3312 17.0819 19.1601 16.8896 19.9483C16.6974 20.736 16.2704 21.4469 15.665 21.9863C15.2527 22.3535 14.6202 22.3176 14.2529 21.9053C13.8857 21.493 13.9219 20.8606 14.334 20.4932C14.6368 20.2234 14.8511 19.8676 14.9473 19.4736C15.0433 19.0797 15.0166 18.6659 14.8721 18.2871C14.7274 17.9081 14.471 17.5824 14.1367 17.3525C13.8025 17.1228 13.4065 16.9994 13.001 17H11.8994C11.4246 16.9998 11.0151 16.6654 10.9199 16.2002C10.7997 15.6128 10.5492 15.0595 10.1865 14.582C9.82382 14.1046 9.35787 13.7147 8.82421 13.4414C8.29059 13.1682 7.70184 13.0182 7.10253 13.0029C6.50329 12.9878 5.90808 13.1078 5.36132 13.3535C4.81448 13.5993 4.32985 13.9655 3.94335 14.4238C3.55692 14.8822 3.27781 15.4215 3.12792 16.002C2.97809 16.5824 2.96093 17.1893 3.07714 17.7774C3.19344 18.3656 3.44028 18.9206 3.7998 19.4004C4.13095 19.8424 4.04153 20.4696 3.5996 20.8008C3.15763 21.1317 2.53032 21.0415 2.19921 20.5996C1.66002 19.88 1.28971 19.0482 1.11523 18.166C0.940804 17.2837 0.966589 16.3728 1.1914 15.502C1.41625 14.6311 1.83431 13.8214 2.41405 13.1338C2.99374 12.4464 3.72088 11.898 4.54101 11.5293C5.36122 11.1607 6.25436 10.9811 7.15331 11.0039Z" fill="#E4F2F2"/>
<path d="M6.99999 18C7.55219 18.0001 7.99999 18.4478 7.99999 19V21C7.99994 21.5522 7.55216 21.9999 6.99999 22C6.44774 22 6.00004 21.5523 5.99999 21V19C5.99999 18.4477 6.44771 18 6.99999 18Z" fill="#E4F2F2"/>
<path d="M14.3848 2.18946C15.2564 1.98479 15.9055 2.50038 16.1904 3.05177C16.4566 3.56717 16.4973 4.23069 16.2471 4.8086C16.0085 5.36026 15.9412 5.97111 16.0537 6.56153C16.1664 7.15216 16.4538 7.69588 16.8789 8.1211C17.3039 8.54615 17.8471 8.83345 18.4375 8.9463C19.0281 9.05903 19.6396 8.99157 20.1914 8.75294C20.7691 8.50247 21.4322 8.54324 21.9473 8.8086C22.4986 9.09278 23.0162 9.74219 22.8096 10.6152C22.5583 11.6768 22.0623 12.6651 21.3613 13.501C20.6603 14.3368 19.7731 14.9984 18.7715 15.4307C18.2646 15.649 17.6758 15.415 17.457 14.9082C17.2384 14.4013 17.4727 13.8127 17.9795 13.5938C18.6948 13.285 19.3284 12.8128 19.8291 12.2158C20.2075 11.7645 20.5013 11.2505 20.7002 10.6992C19.8575 11.004 18.9464 11.0799 18.0625 10.9111C17.0784 10.7231 16.1733 10.2437 15.4648 9.53517C14.7563 8.82646 14.2766 7.92093 14.0889 6.93653C13.9202 6.05219 13.9955 5.14084 14.3008 4.29786C13.4916 4.59038 12.7682 5.08892 12.2041 5.74708C11.5165 6.54948 11.1007 7.54921 11.0166 8.60255C10.9726 9.15283 10.4907 9.56323 9.94042 9.51954C9.39009 9.47546 8.97863 8.99373 9.02245 8.44337C9.14023 6.96853 9.72278 5.56875 10.6855 4.44532C11.6484 3.32189 12.9433 2.53253 14.3828 2.19044L14.3848 2.18946Z" fill="#E4F2F2"/>
</svg>
