<svg width="24" height="24" viewBox="0 0 24 24" fill="none" xmlns="http://www.w3.org/2000/svg">
<path fill-rule="evenodd" clip-rule="evenodd" d="M5.10153 11.3086C6.17833 10.9493 7.33528 10.9031 8.43746 11.1748C9.53944 11.4466 10.5418 12.0252 11.3281 12.8438C11.9217 13.4619 12.3736 14.198 12.6572 15H13C14.0608 15 15.078 15.4218 15.8281 16.1719C16.5782 16.922 17 17.9392 17 19C16.9999 20.0608 16.5782 21.078 15.8281 21.8281C15.078 22.5782 14.0608 23 13 23H6.99996C5.86477 22.9998 4.75228 22.6772 3.79293 22.0703C2.83376 21.4635 2.0665 20.5968 1.58004 19.5713C1.0936 18.5457 0.908 17.4032 1.04489 16.2764C1.18186 15.1496 1.63555 14.0843 2.35348 13.2051C3.07155 12.3258 4.02468 11.668 5.10153 11.3086ZM7.95895 13.1162C7.22415 12.9351 6.45222 12.9665 5.73434 13.2061C5.01671 13.4456 4.38189 13.8838 3.90328 14.4697C3.42457 15.0559 3.12156 15.7663 3.03024 16.5176C2.939 17.2686 3.06251 18.0303 3.38668 18.7139C3.71102 19.3976 4.22272 19.9763 4.86227 20.3809C5.50176 20.7854 6.24328 20.9998 6.99996 21H13C13.5303 21 14.039 20.7891 14.414 20.4141C14.7891 20.039 14.9999 19.5304 15 19C15 18.4696 14.789 17.961 14.414 17.5859C14.039 17.2109 13.5303 17 13 17H11.9004C11.4252 17 11.015 16.6657 10.9199 16.2002C10.7685 15.4587 10.4099 14.7753 9.8857 14.2295C9.36159 13.6838 8.69355 13.2974 7.95895 13.1162Z" fill="#E4F2F2"/>
<path d="M14.3847 2.18946C15.2563 1.98479 15.9054 2.50038 16.1904 3.05177C16.4566 3.56717 16.4972 4.23068 16.247 4.8086C16.0084 5.36025 15.9411 5.97112 16.0537 6.56153C16.1663 7.15216 16.4538 7.69588 16.8789 8.1211C17.3038 8.54614 17.8471 8.83344 18.4375 8.9463C19.028 9.05903 19.6395 8.99156 20.1914 8.75294C20.7691 8.50247 21.4322 8.54325 21.9472 8.8086C22.4986 9.09278 23.0161 9.74219 22.8095 10.6152C22.5583 11.6768 22.0622 12.6651 21.3613 13.501C20.6603 14.3368 19.7731 14.9984 18.7714 15.4307C18.2646 15.649 17.6758 15.415 17.457 14.9082C17.2384 14.4013 17.4727 13.8127 17.9795 13.5938C18.6947 13.285 19.3284 12.8128 19.8291 12.2158C20.2075 11.7645 20.5013 11.2505 20.7002 10.6992C19.8574 11.004 18.9464 11.0799 18.0625 10.9111C17.0784 10.7231 16.1732 10.2437 15.4648 9.53517C14.7563 8.82646 14.2766 7.92092 14.0888 6.93653C13.9202 6.05219 13.9955 5.14083 14.3007 4.29786C13.4916 4.59038 12.7682 5.08893 12.2041 5.74708C11.5165 6.54947 11.1007 7.54922 11.0166 8.60255C10.9725 9.15283 10.4907 9.56323 9.94039 9.51954C9.39008 9.47544 8.9786 8.99372 9.02242 8.44337C9.14019 6.96854 9.72276 5.56875 10.6855 4.44532C11.6484 3.3219 12.9433 2.53254 14.3828 2.19044L14.3847 2.18946Z" fill="#E4F2F2"/>
</svg>
