<svg width="24" height="24" viewBox="0 0 24 24" fill="none" xmlns="http://www.w3.org/2000/svg">
<path d="M12.0098 20.0005C12.5621 20.0005 13.0098 20.4482 13.0098 21.0005C13.0096 21.5526 12.5619 22.0005 12.0098 22.0005H12C11.4479 22.0004 11.0002 21.5526 11 21.0005C11 20.4483 11.4478 20.0006 12 20.0005H12.0098Z" fill="#E4F2F2"/>
<path d="M8.00977 18.0005C8.56206 18.0005 9.00977 18.4482 9.00977 19.0005C9.00957 19.5526 8.56193 20.0005 8.00977 20.0005H8.00001C7.44792 20.0004 7.00021 19.5526 7.00001 19.0005C7.00001 18.4483 7.44779 18.0006 8.00001 18.0005H8.00977Z" fill="#E4F2F2"/>
<path d="M16.0098 18.0005C16.5621 18.0005 17.0098 18.4482 17.0098 19.0005C17.0096 19.5526 16.5619 20.0005 16.0098 20.0005H16C15.4479 20.0004 15.0002 19.5526 15 19.0005C15 18.4483 15.4478 18.0006 16 18.0005H16.0098Z" fill="#E4F2F2"/>
<path d="M12.0098 16.0005C12.5621 16.0005 13.0098 16.4482 13.0098 17.0005C13.0096 17.5526 12.5619 18.0005 12.0098 18.0005H12C11.4479 18.0004 11.0002 17.5526 11 17.0005C11 16.4483 11.4478 16.0006 12 16.0005H12.0098Z" fill="#E4F2F2"/>
<path d="M8.37012 2.02784C9.58016 1.9319 10.7969 2.11256 11.9268 2.55616C13.0565 2.99977 14.0711 3.69488 14.8926 4.58838C15.5425 5.29537 16.056 6.11327 16.415 6.99952H17.5C18.68 6.99942 19.8295 7.37868 20.7774 8.08155C21.725 8.7843 22.4211 9.77392 22.7637 10.9028C23.1062 12.032 23.0762 13.2421 22.6787 14.353C22.2811 15.4639 21.5368 16.4183 20.5557 17.0737C20.0965 17.3802 19.4757 17.2564 19.169 16.7974C18.8623 16.3381 18.9861 15.7174 19.4453 15.4106C20.0696 14.9936 20.5429 14.3861 20.7959 13.6792C21.0488 12.9723 21.0685 12.2023 20.8506 11.4839C20.6326 10.7654 20.1891 10.1353 19.5859 9.68799C18.9828 9.24076 18.2509 8.99947 17.5 8.99952H15.71C15.268 8.99935 14.8784 8.70914 14.752 8.28565C14.4915 7.41355 14.0359 6.61196 13.4199 5.9419C12.8038 5.27173 12.0427 4.75019 11.1953 4.41748C10.348 4.08487 9.43573 3.94907 8.52833 4.021C7.62094 4.093 6.74131 4.37052 5.95704 4.83252C5.17274 5.2946 4.50379 5.93014 4.00098 6.68897C3.49835 7.44773 3.17444 8.31115 3.05469 9.21338C2.935 10.1158 3.02302 11.0342 3.31055 11.898C3.59815 12.7616 4.07813 13.5491 4.71485 14.1997C5.10093 14.5943 5.09456 15.2275 4.7002 15.6138C4.30557 16 3.67247 15.9927 3.28614 15.5981C2.43709 14.7306 1.79557 13.6815 1.41212 12.5298C1.02873 11.3782 0.9127 10.1539 1.07227 8.95069C1.2319 7.74755 1.6637 6.59628 2.33399 5.58448C3.00441 4.57266 3.89662 3.72599 4.94239 3.10987C5.98805 2.49391 7.16033 2.12384 8.37012 2.02784Z" fill="#E4F2F2"/>
<path d="M8.00977 14.0005C8.56206 14.0005 9.00977 14.4482 9.00977 15.0005C9.00957 15.5526 8.56193 16.0005 8.00977 16.0005H8.00001C7.44792 16.0004 7.00021 15.5526 7.00001 15.0005C7.00001 14.4483 7.44779 14.0006 8.00001 14.0005H8.00977Z" fill="#E4F2F2"/>
<path d="M16.0098 14.0005C16.5621 14.0005 17.0098 14.4482 17.0098 15.0005C17.0096 15.5526 16.5619 16.0005 16.0098 16.0005H16C15.4479 16.0004 15.0002 15.5526 15 15.0005C15 14.4483 15.4478 14.0006 16 14.0005H16.0098Z" fill="#E4F2F2"/>
</svg>
