<svg width="24" height="24" viewBox="0 0 24 24" fill="none" xmlns="http://www.w3.org/2000/svg">
<path d="M12.0205 12.0015C12.0381 12.0018 12.0557 12.0021 12.0732 12.0034C12.093 12.0048 12.1125 12.0067 12.1318 12.0093C12.137 12.01 12.1423 12.0105 12.1475 12.0112C12.1715 12.0148 12.1953 12.0187 12.2188 12.0239C12.2345 12.0274 12.25 12.0323 12.2656 12.0366C12.2784 12.0401 12.2912 12.0434 12.3037 12.0474C12.3215 12.053 12.339 12.0593 12.3565 12.0659C12.4588 12.105 12.5537 12.1595 12.6367 12.228C12.6611 12.2482 12.6842 12.2706 12.707 12.2935L16.707 16.2935C17.0975 16.684 17.0975 17.317 16.707 17.7075C16.3165 18.0977 15.6834 18.0979 15.293 17.7075L13 15.4146V21.0005C12.9998 21.5526 12.5522 22.0005 12 22.0005C11.4479 22.0004 11.0002 21.5526 11 21.0005V15.4146L8.70704 17.7075C8.31653 18.0977 7.68342 18.0979 7.29298 17.7075C6.90254 17.3171 6.90271 16.684 7.29298 16.2935L11.293 12.2935C11.3381 12.2483 11.3874 12.2073 11.4404 12.1714C11.4538 12.1623 11.4678 12.1543 11.4815 12.146C11.5309 12.1159 11.5831 12.0901 11.6377 12.0689C11.6844 12.0507 11.7318 12.0348 11.7803 12.0239C11.8056 12.0182 11.8314 12.014 11.8574 12.0103C11.8629 12.0095 11.8685 12.009 11.874 12.0083C11.8934 12.0059 11.9129 12.0047 11.9326 12.0034C11.9482 12.0024 11.9639 12.0018 11.9795 12.0015C11.9863 12.0013 11.9931 12.0005 12 12.0005C12.0068 12.0005 12.0137 12.0013 12.0205 12.0015Z" fill="#E4F2F2"/>
<path d="M8.37012 2.02784C9.58016 1.9319 10.7969 2.11256 11.9268 2.55616C13.0565 2.99977 14.0711 3.69488 14.8926 4.58838C15.5425 5.29537 16.056 6.11327 16.415 6.99952H17.5C18.68 6.99942 19.8295 7.37868 20.7774 8.08155C21.725 8.7843 22.4211 9.77392 22.7637 10.9028C23.1062 12.032 23.0762 13.2421 22.6787 14.353C22.2811 15.4639 21.5368 16.4183 20.5557 17.0737C20.0965 17.3802 19.4757 17.2564 19.169 16.7974C18.8623 16.3381 18.9861 15.7174 19.4453 15.4106C20.0696 14.9936 20.5429 14.3861 20.7959 13.6792C21.0488 12.9723 21.0685 12.2023 20.8506 11.4839C20.6326 10.7654 20.1891 10.1353 19.5859 9.68799C18.9828 9.24076 18.2509 8.99947 17.5 8.99952H15.71C15.268 8.99935 14.8784 8.70914 14.752 8.28565C14.4915 7.41355 14.0359 6.61196 13.4199 5.9419C12.8038 5.27173 12.0427 4.75019 11.1953 4.41748C10.348 4.08487 9.43573 3.94907 8.52833 4.021C7.62094 4.093 6.74131 4.37052 5.95704 4.83252C5.17274 5.2946 4.50379 5.93014 4.00098 6.68897C3.49835 7.44773 3.17444 8.31115 3.05469 9.21338C2.935 10.1158 3.02302 11.0342 3.31055 11.898C3.59815 12.7616 4.07813 13.5491 4.71485 14.1997C5.10093 14.5943 5.09456 15.2275 4.7002 15.6138C4.30557 16 3.67247 15.9927 3.28614 15.5981C2.43709 14.7306 1.79557 13.6815 1.41212 12.5298C1.02873 11.3782 0.9127 10.1539 1.07227 8.95069C1.2319 7.74755 1.6637 6.59628 2.33399 5.58448C3.00441 4.57266 3.89662 3.72599 4.94239 3.10987C5.98805 2.49391 7.16033 2.12384 8.37012 2.02784Z" fill="#E4F2F2"/>
</svg>
