<svg width="24" height="24" viewBox="0 0 24 24" fill="none" xmlns="http://www.w3.org/2000/svg">
<path d="M11.2812 14.6069C11.4987 14.0994 12.0862 13.8642 12.5937 14.0815C13.1012 14.2991 13.3365 14.8865 13.1191 15.394L10.1191 22.394C9.90152 22.9013 9.31406 23.1367 8.80662 22.9194C8.29917 22.702 8.06407 22.1144 8.28123 21.6069L11.2812 14.6069Z" fill="#E4F2F2"/>
<path d="M8.08103 12.6069C8.29855 12.0994 8.88596 11.8642 9.39353 12.0815C9.90108 12.2991 10.1363 12.8865 9.91892 13.394L6.91892 20.394C6.70127 20.9013 6.11387 21.1368 5.60642 20.9194C5.09899 20.702 4.86392 20.1144 5.08103 19.6069L8.08103 12.6069Z" fill="#E4F2F2"/>
<path d="M16.081 12.6069C16.2986 12.0994 16.886 11.8642 17.3935 12.0815C17.9011 12.2991 18.1363 12.8865 17.9189 13.394L14.9189 20.394C14.7013 20.9013 14.1139 21.1368 13.6064 20.9194C13.099 20.702 12.8639 20.1144 13.081 19.6069L16.081 12.6069Z" fill="#E4F2F2"/>
<path d="M8.37009 2.02784C9.58013 1.9319 10.7969 2.11256 11.9267 2.55616C13.0565 2.99977 14.0711 3.69488 14.8926 4.58838C15.5425 5.29537 16.0559 6.11327 16.415 6.99952H17.5C18.68 6.99942 19.8295 7.37868 20.7773 8.08155C21.725 8.7843 22.421 9.77392 22.7636 10.9028C23.1061 12.032 23.0762 13.2421 22.6787 14.353C22.2811 15.4639 21.5368 16.4183 20.5556 17.0737C20.0965 17.3802 19.4757 17.2564 19.1689 16.7974C18.8623 16.3381 18.9861 15.7174 19.4453 15.4106C20.0695 14.9936 20.5429 14.3861 20.7959 13.6792C21.0488 12.9723 21.0685 12.2023 20.8506 11.4839C20.6326 10.7654 20.189 10.1353 19.5859 9.68799C18.9828 9.24076 18.2508 8.99947 17.5 8.99952H15.7099C15.268 8.99935 14.8784 8.70914 14.7519 8.28565C14.4915 7.41355 14.0359 6.61196 13.4199 5.9419C12.8037 5.27173 12.0427 4.75019 11.1953 4.41748C10.348 4.08487 9.4357 3.94907 8.5283 4.021C7.62091 4.093 6.74128 4.37052 5.95701 4.83252C5.17271 5.2946 4.50376 5.93014 4.00095 6.68897C3.49832 7.44773 3.17441 8.31115 3.05466 9.21338C2.93497 10.1158 3.02299 11.0342 3.31052 11.898C3.59812 12.7616 4.0781 13.5491 4.71482 14.1997C5.1009 14.5943 5.09453 15.2275 4.70017 15.6138C4.30554 16 3.67244 15.9927 3.28611 15.5981C2.43706 14.7306 1.79554 13.6815 1.41209 12.5298C1.0287 11.3782 0.912669 10.1539 1.07224 8.95069C1.23187 7.74755 1.66367 6.59628 2.33396 5.58448C3.00438 4.57266 3.89659 3.72599 4.94236 3.10987C5.98802 2.49391 7.1603 2.12384 8.37009 2.02784Z" fill="#E4F2F2"/>
</svg>
