<svg width="24" height="24" viewBox="0 0 24 24" fill="none" xmlns="http://www.w3.org/2000/svg">
<path fill-rule="evenodd" clip-rule="evenodd" d="M1.29295 1.29295C1.68348 0.90243 2.31649 0.90243 2.70702 1.29295L6.40819 4.99413C6.46957 5.04232 6.52563 5.09812 6.57518 5.16112L22.707 21.293C23.0975 21.6835 23.0975 22.3165 22.707 22.707C22.3165 23.0975 21.6835 23.0975 21.293 22.707L18.4912 19.9053C18.1644 19.9651 17.8331 20.0001 17.5 20H8.99999C7.2069 19.9997 5.46515 19.3974 4.05565 18.289C2.64618 17.1807 1.6497 15.6301 1.22655 13.8877C0.803554 12.1453 0.978534 10.3109 1.72264 8.67967C2.27954 7.45901 3.13137 6.40448 4.19237 5.60643L1.29295 2.70702C0.90243 2.31649 0.90243 1.68348 1.29295 1.29295ZM5.62499 7.03905C4.72161 7.65373 3.99927 8.50741 3.54198 9.50975C2.98391 10.7332 2.85264 12.1092 3.16991 13.416C3.48728 14.7228 4.2349 15.8855 5.29198 16.7168C6.3491 17.548 7.65518 17.9997 8.99999 18H16.5859L5.62499 7.03905Z" fill="#E4F2F2"/>
<path d="M9.9785 4.99608C10.1317 4.46604 10.6865 4.16003 11.2168 4.31249C12.5048 4.68369 13.6795 5.37308 14.6318 6.31639C15.4044 7.08181 16.0109 7.9958 16.417 8.99901H17.499C18.3849 8.99902 19.2585 9.2142 20.0439 9.62401C20.8293 10.0339 21.505 10.6278 22.0117 11.3545C22.5182 12.0812 22.8421 12.9202 22.9551 13.7988C23.0679 14.6776 22.9666 15.5711 22.6601 16.4023C22.4691 16.9205 21.8932 17.1862 21.375 16.9951C20.8574 16.8037 20.5922 16.2278 20.7832 15.7099C20.9781 15.1811 21.0425 14.6128 20.9707 14.0537C20.8988 13.4947 20.6934 12.9605 20.3711 12.498C20.0487 12.0357 19.6188 11.6573 19.1191 11.3965C18.6194 11.1357 18.0627 10.999 17.499 10.999H15.709C15.2671 10.9986 14.8772 10.7086 14.751 10.2851C14.4635 9.32166 13.9388 8.44496 13.2246 7.73729C12.5103 7.0297 11.6283 6.51275 10.6621 6.23436C10.132 6.08104 9.82568 5.52644 9.9785 4.99608Z" fill="#E4F2F2"/>
</svg>
