<svg width="24" height="24" viewBox="0 0 24 24" fill="none" xmlns="http://www.w3.org/2000/svg">
<path fill-rule="evenodd" clip-rule="evenodd" d="M11.1318 2.0083C12.6077 1.92436 14.0684 2.34591 15.2725 3.20361C16.2661 3.9116 17.0359 4.88259 17.501 5.99951H19C19.8275 5.99876 20.6355 6.25458 21.3115 6.73193C21.9878 7.20949 22.4994 7.88601 22.7754 8.6665C22.9593 9.18695 22.6863 9.75856 22.166 9.94287C21.6455 10.1269 21.0739 9.85392 20.8897 9.33349C20.7516 8.94333 20.4953 8.60446 20.1572 8.36572C19.8192 8.12715 19.4147 7.99905 19.001 7.99951H16.793C16.3457 7.99939 15.9529 7.70237 15.8311 7.27197C15.5522 6.28723 14.9458 5.42641 14.1123 4.83251C13.2787 4.23867 12.2669 3.94629 11.2451 4.00439C10.2234 4.0626 9.25199 4.46836 8.49122 5.15283C8.17851 5.43423 7.90884 5.7564 7.68848 6.1079C8.58071 5.9595 9.49604 5.96354 10.3945 6.12255C11.8555 6.3812 13.2157 7.04155 14.3232 8.0288C15.2418 8.84774 15.956 9.86594 16.415 11.0005H17.5C18.2221 11.0005 18.9373 11.1431 19.6045 11.4194C20.2717 11.6958 20.879 12.1011 21.3897 12.6118C21.9001 13.1224 22.3048 13.729 22.5811 14.396C22.8574 15.0632 23 15.7783 23 16.5005C23 17.2226 22.8574 17.9378 22.5811 18.605C22.3047 19.272 21.9002 19.8786 21.3897 20.3892C20.879 20.8998 20.2718 21.3051 19.6045 21.5815C18.9373 21.8578 18.2221 22.0005 17.5 22.0005H9.00587C7.52245 22.0016 6.0678 21.5899 4.80469 20.812C3.54125 20.0338 2.51906 18.919 1.85255 17.5933C1.18614 16.2675 0.901189 14.7824 1.03028 13.3042C1.15943 11.8259 1.69773 10.4123 2.58399 9.22216C3.27916 8.28873 4.1674 7.52184 5.1836 6.97021C5.49113 5.69921 6.17578 4.54521 7.15333 3.66552C8.25231 2.67681 9.65594 2.09228 11.1318 2.0083ZM10.0459 8.09228C8.95007 7.89834 7.82153 8.01291 6.78712 8.42333C5.75269 8.83384 4.85223 9.52392 4.18751 10.4165C3.52286 11.3091 3.11937 12.3694 3.02247 13.478C2.92566 14.5867 3.13981 15.7015 3.63966 16.6958C4.13954 17.6898 4.90615 18.5254 5.85352 19.1089C6.80099 19.6924 7.89215 20.0014 9.00489 20.0005H17.5C17.9596 20.0005 18.4153 19.9098 18.8399 19.7339C19.2643 19.558 19.6497 19.2999 19.9746 18.9751C20.2994 18.6503 20.5575 18.2647 20.7334 17.8403C20.9093 17.4158 21 16.96 21 16.5005C21 16.041 20.9092 15.5852 20.7334 15.1606C20.5576 14.7363 20.2994 14.3507 19.9746 14.0259C19.6498 13.701 19.2643 13.443 18.8399 13.2671C18.4153 13.0912 17.9596 13.0005 17.5 13.0005H15.708C15.2661 13.0004 14.8766 12.71 14.75 12.2866C14.4321 11.2202 13.8237 10.2625 12.9932 9.52197C12.1625 8.78143 11.1417 8.28629 10.0459 8.09228Z" fill="#E4F2F2"/>
</svg>
