<svg width="24" height="24" viewBox="0 0 24 24" fill="none" xmlns="http://www.w3.org/2000/svg">
<path fill-rule="evenodd" clip-rule="evenodd" d="M12.6069 12.9224C12.8186 12.4123 13.4045 12.1698 13.9145 12.3813C14.4244 12.593 14.6659 13.178 14.4546 13.688L14.4058 13.8042C14.5547 13.9164 14.6962 14.039 14.8286 14.1714C14.9607 14.3035 15.0829 14.4446 15.1948 14.5933L15.312 14.5454C15.822 14.334 16.407 14.5764 16.6186 15.0864C16.83 15.5964 16.5884 16.1814 16.0786 16.3931L15.9604 16.4409C15.9866 16.6259 16.0005 16.8129 16.0005 17.0005C16.0005 17.1872 15.9854 17.373 15.9595 17.5571L16.0786 17.6069C16.5886 17.8187 16.8302 18.4045 16.6186 18.9145C16.4069 19.4244 15.822 19.666 15.312 19.4546L15.1948 19.4058C15.0827 19.5545 14.9609 19.6963 14.8286 19.8286C14.696 19.9612 14.554 20.0835 14.4048 20.1958L14.4536 20.314C14.6646 20.8244 14.422 21.4096 13.9116 21.6206C13.4014 21.8311 12.8169 21.5878 12.606 21.0776L12.5571 20.9604C12.1872 21.0125 11.8119 21.0104 11.4419 20.9585L11.3931 21.0786C11.1816 21.5888 10.5966 21.8311 10.0864 21.6196C9.57624 21.4081 9.33393 20.8232 9.5454 20.313L9.59326 20.1958C9.29458 19.9707 9.02906 19.7046 8.80419 19.4058L8.68798 19.4546C8.17804 19.6659 7.59304 19.4244 7.38134 18.9145C7.1698 18.4045 7.41231 17.8186 7.92236 17.6069L8.03857 17.5581C7.9864 17.1876 7.98629 16.8114 8.03857 16.4409L7.92236 16.3931C7.41242 16.1815 7.17005 15.5964 7.38134 15.0864C7.59295 14.5765 8.17798 14.3341 8.68798 14.5454L8.80517 14.5933C9.0299 14.2949 9.29494 14.0289 9.59326 13.8042L9.5454 13.688C9.33406 13.178 9.57646 12.593 10.0864 12.3813C10.5964 12.17 11.1815 12.4124 11.3931 12.9224L11.4409 13.0405C11.6259 13.0144 11.8128 12.9995 12.0005 12.9995C12.1874 12.9995 12.3737 13.0126 12.5581 13.0386L12.6069 12.9224ZM12.0005 14.9995C11.7378 14.9995 11.4775 15.0514 11.2349 15.1519C10.7448 15.3549 10.3549 15.7448 10.1518 16.2349C9.94901 16.7247 9.94909 17.2752 10.1518 17.7651C10.3543 18.254 10.7426 18.6427 11.231 18.8462C11.2323 18.8467 11.2335 18.8476 11.2349 18.8481C11.2358 18.8485 11.2368 18.8487 11.2378 18.8491C11.727 19.0507 12.2762 19.0505 12.7651 18.8481C13.0078 18.7476 13.2288 18.6003 13.4145 18.4145C13.6002 18.2289 13.7476 18.0086 13.8481 17.7661C13.9487 17.5235 14.0004 17.2631 14.0005 17.0005C14.0005 16.7378 13.9486 16.4775 13.8481 16.2349C13.7476 15.9922 13.6003 15.7712 13.4145 15.5854C13.2294 15.4004 13.0098 15.2533 12.7681 15.1528L12.7651 15.1519C12.7641 15.1514 12.7633 15.1503 12.7622 15.1499C12.5207 15.0505 12.2617 14.9995 12.0005 14.9995Z" fill="#E4F2F2"/>
<path d="M9.16259 2.0083C10.235 2.02996 11.293 2.2671 12.272 2.70556C13.2509 3.14413 14.1326 3.7752 14.8628 4.56103C15.5258 5.2738 16.0477 6.10157 16.4126 6.99951H17.5132C18.6788 7.01522 19.8095 7.40207 20.7417 8.10205C21.6737 8.80205 22.3596 9.78013 22.6997 10.895C23.0397 12.0101 23.0172 13.2051 22.6343 14.3062C22.2512 15.4073 21.5276 16.3585 20.5688 17.022C20.1147 17.3361 19.4915 17.2231 19.1772 16.769C18.8633 16.315 18.9772 15.6916 19.4311 15.3774C20.0411 14.9552 20.5009 14.3496 20.7446 13.6489C20.9882 12.9483 21.0029 12.1885 20.7866 11.479C20.5702 10.7694 20.1337 10.1462 19.5405 9.70068C18.9474 9.25548 18.2274 9.00951 17.4858 8.99951H15.7095C15.2681 8.9992 14.8782 8.7095 14.7515 8.28662C14.4873 7.40568 14.0243 6.59678 13.3979 5.92334L13.397 5.92236C12.8494 5.33313 12.1887 4.85963 11.4546 4.53076C10.7204 4.20192 9.92688 4.02357 9.12255 4.00732C8.31836 3.99114 7.51873 4.13714 6.77197 4.43603C6.02504 4.73508 5.3449 5.18169 4.77392 5.74853C4.20312 6.31529 3.75216 6.99129 3.44775 7.73584C3.14336 8.48045 2.99213 9.27914 3.00244 10.0835C3.01283 10.8879 3.18479 11.6828 3.50829 12.4194C3.83183 13.1559 4.29997 13.8207 4.88525 14.3726C5.28711 14.7514 5.30608 15.3838 4.92724 15.7856C4.54847 16.1874 3.91602 16.2062 3.51415 15.8276C2.73374 15.0918 2.10866 14.2061 1.67724 13.2241C1.24588 12.242 1.01632 11.1824 1.00244 10.1099C0.988615 9.03718 1.19026 7.97201 1.59619 6.979C2.00213 5.98606 2.60348 5.08439 3.36474 4.32861C4.12595 3.57293 5.03208 2.97831 6.02783 2.57959C7.02359 2.18097 8.09022 1.98675 9.16259 2.0083Z" fill="#E4F2F2"/>
</svg>
