<svg width="24" height="24" viewBox="0 0 24 24" fill="none" xmlns="http://www.w3.org/2000/svg">
<path d="M11 19C11.5522 19.0001 12 19.4478 12 20V22C12 22.5522 11.5522 22.9999 11 23C10.4477 23 10 22.5523 10 22V20C10 19.4477 10.4477 19 11 19Z" fill="#E4F2F2"/>
<path d="M7.15332 11.0039C8.05245 11.0268 8.93578 11.2521 9.73633 11.6621C10.5367 12.0721 11.2353 12.6569 11.7793 13.373C12.1551 13.8679 12.449 14.4174 12.6553 15H13C13.8106 14.9992 14.6026 15.2449 15.2705 15.7041C15.9388 16.1637 16.4519 16.8155 16.7412 17.5732C17.0305 18.3312 17.0819 19.1601 16.8896 19.9482C16.6974 20.736 16.2704 21.4469 15.665 21.9863C15.2527 22.3535 14.6203 22.3176 14.2529 21.9053C13.8857 21.493 13.9219 20.8606 14.334 20.4932C14.6368 20.2234 14.8511 19.8677 14.9473 19.4736C15.0433 19.0797 15.0167 18.666 14.8721 18.2871C14.7274 17.9081 14.471 17.5824 14.1367 17.3525C13.8025 17.1228 13.4065 16.9994 13.001 17H11.8994C11.4245 16.9998 11.0151 16.6655 10.9199 16.2002C10.7997 15.6128 10.5492 15.0595 10.1865 14.582C9.82384 14.1046 9.35786 13.7147 8.82422 13.4414C8.29061 13.1682 7.70184 13.0182 7.10254 13.0029C6.5033 12.9877 5.90809 13.1078 5.36133 13.3535C4.81447 13.5993 4.32987 13.9655 3.94336 14.4238C3.55691 14.8822 3.27782 15.4214 3.12793 16.002C2.97808 16.5824 2.96093 17.1892 3.07715 17.7773C3.19344 18.3655 3.4403 18.9205 3.79981 19.4004C4.13095 19.8424 4.04154 20.4696 3.59961 20.8008C3.15764 21.1318 2.53034 21.0415 2.19922 20.5996C1.66004 19.88 1.28971 19.0482 1.11524 18.166C0.940807 17.2837 0.966578 16.3728 1.19141 15.502C1.41627 14.6311 1.8343 13.8214 2.41406 13.1338C2.99375 12.4464 3.72088 11.898 4.54102 11.5293C5.36123 11.1607 6.25437 10.9811 7.15332 11.0039Z" fill="#E4F2F2"/>
<path d="M7 18C7.5522 18.0001 8 18.4478 8 19V21C8 21.5522 7.5522 21.9999 7 22C6.44772 22 6 21.5523 6 21V19C6 18.4477 6.44772 18 7 18Z" fill="#E4F2F2"/>
<path d="M12.2275 7.00293C13.1709 7.04594 14.0835 7.35577 14.8584 7.89551C15.6331 8.43526 16.2392 9.18391 16.6064 10.0537C16.9736 10.9238 17.0873 11.8807 16.9336 12.8125C16.8436 13.3574 16.3281 13.7257 15.7832 13.6357C15.2388 13.5454 14.8701 13.031 14.96 12.4863C15.0521 11.9275 14.9838 11.3538 14.7637 10.832C14.5433 10.3101 14.1797 9.85998 13.7148 9.53613C13.25 9.21248 12.7025 9.0268 12.1367 9.00098C11.5707 8.97523 11.008 9.11039 10.5156 9.39062C10.0358 9.66342 9.42552 9.49624 9.15234 9.0166C8.87957 8.53669 9.04755 7.92544 9.52734 7.65234C10.348 7.18543 11.2843 6.96001 12.2275 7.00293Z" fill="#E4F2F2"/>
<path d="M22 11C22.5522 11.0001 23 11.4478 23 12C23 12.5522 22.5522 12.9999 22 13H20C19.4477 13 19 12.5523 19 12C19 11.4477 19.4477 11 20 11H22Z" fill="#E4F2F2"/>
<path d="M4.22266 4.22266C4.61312 3.8323 5.24621 3.83238 5.63672 4.22266L7.04688 5.63281C7.43721 6.02332 7.43725 6.65639 7.04688 7.04688C6.6564 7.43735 6.02335 7.43724 5.63281 7.04688L4.22266 5.63672C3.83235 5.24618 3.83221 4.61311 4.22266 4.22266Z" fill="#E4F2F2"/>
<path d="M18.3633 4.22266C18.7538 3.83254 19.387 3.83227 19.7773 4.22266C20.1676 4.61305 20.1674 5.24619 19.7773 5.63672L18.3672 7.04688C17.9767 7.43729 17.3436 7.43728 16.9531 7.04688C16.5626 6.65638 16.5627 6.02334 16.9531 5.63281L18.3633 4.22266Z" fill="#E4F2F2"/>
<path d="M12 1C12.5522 1.0001 13 1.44778 13 2V4C13 4.55222 12.5522 4.9999 12 5C11.4477 5 11 4.55228 11 4V2C11 1.44772 11.4477 1 12 1Z" fill="#E4F2F2"/>
</svg>
