<svg width="24" height="24" viewBox="0 0 24 24" fill="none" xmlns="http://www.w3.org/2000/svg">
<path d="M7.00002 9.99951C7.55222 9.99951 7.99988 10.4474 8.00002 10.9995V12.5854L8.38284 12.2026C8.92366 11.6624 9.56606 11.233 10.2725 10.9409C10.9787 10.6489 11.7358 10.5 12.5 10.5005C13.9586 10.5005 15.3573 11.0795 16.3887 12.1108C17.4201 13.1422 18 14.5409 18 15.9995C18 17.2587 17.6034 18.4858 16.8672 19.5073C16.1309 20.5289 15.0921 21.2937 13.8975 21.6919C12.7028 22.0901 11.413 22.1025 10.211 21.7271C9.009 21.3516 7.95577 20.6065 7.20022 19.5991C6.86916 19.1573 6.95871 18.531 7.40041 18.1997C7.84216 17.8686 8.46848 17.9583 8.79983 18.3999C9.30351 19.0714 10.0064 19.5676 10.8076 19.8179C11.6088 20.0681 12.4684 20.0598 13.2647 19.7944C14.0611 19.5289 14.7543 19.0194 15.2451 18.3384C15.7359 17.6574 16 16.839 16 15.9995C16 15.0714 15.6309 14.1812 14.9746 13.5249C14.3183 12.8686 13.4282 12.4995 12.5 12.4995C11.9984 12.4992 11.5007 12.5979 11.0371 12.7896C10.6313 12.9574 10.2575 13.1937 9.93264 13.4878L9.7969 13.6167L9.41409 13.9995H11C11.5522 13.9995 11.9999 14.4474 12 14.9995C12 15.5518 11.5523 15.9995 11 15.9995H7.00002C6.9658 15.9995 6.93156 15.9981 6.89748 15.9946C6.89024 15.9939 6.8832 15.9916 6.876 15.9907C6.85247 15.9878 6.829 15.9846 6.80569 15.98C6.78981 15.9768 6.77441 15.9721 6.75881 15.9683C6.74188 15.9641 6.72477 15.9607 6.70803 15.9556C6.60357 15.9237 6.5068 15.8751 6.41995 15.813C6.37569 15.7813 6.33273 15.7463 6.29299 15.7065C6.24653 15.6601 6.20462 15.6091 6.16799 15.5542C6.1193 15.4813 6.08121 15.4035 6.05373 15.3228C6.05018 15.3123 6.04621 15.3021 6.04299 15.2915C6.03664 15.2706 6.03232 15.2492 6.02737 15.228C6.01022 15.1546 6.00002 15.0781 6.00002 14.9995V10.9995C6.00017 10.4474 6.44785 9.99954 7.00002 9.99951Z" fill="#E4F2F2"/>
<path d="M9.07131 2.0083C10.2055 2.0178 11.3255 2.26862 12.3555 2.74365C13.3854 3.21869 14.3024 3.90768 15.0459 4.76416C15.6237 5.4298 16.0847 6.18602 16.4151 6.99951H17.5137L17.8955 7.01807C18.7827 7.09192 19.6415 7.38041 20.3955 7.86084C21.2569 8.40982 21.9485 9.18807 22.3926 10.1079C22.8367 11.028 23.0163 12.0546 22.9102 13.0708C22.804 14.0867 22.4165 15.0535 21.792 15.8618C21.4544 16.2988 20.8257 16.3791 20.3887 16.0415C19.952 15.7038 19.8716 15.0761 20.209 14.6392C20.6064 14.1247 20.8534 13.5093 20.9209 12.8628C20.9884 12.2164 20.8743 11.5634 20.5918 10.978C20.3092 10.3925 19.8686 9.89675 19.3203 9.54736C18.8405 9.24163 18.2941 9.05822 17.7295 9.01123L17.4873 8.99951H15.71C15.2685 8.9993 14.8798 8.70948 14.753 8.28662C14.5088 7.4717 14.0938 6.71715 13.5362 6.07471C12.9785 5.43235 12.29 4.91633 11.5176 4.56006C10.7452 4.20381 9.90532 4.01544 9.05471 4.0083C8.20418 4.00124 7.36126 4.17581 6.58303 4.51904C5.80488 4.86236 5.10827 5.36762 4.54006 6.00049C3.9719 6.63345 3.54484 7.38034 3.28713 8.19092C3.02946 9.00164 2.94647 9.85865 3.04495 10.7036C3.14351 11.5485 3.42121 12.3627 3.85842 13.0923C4.14221 13.5659 3.98801 14.1803 3.51467 14.4644C3.04095 14.7482 2.4265 14.5943 2.1426 14.1206C1.55958 13.1477 1.19001 12.0617 1.05862 10.9351C0.92731 9.80849 1.03737 8.66637 1.38088 7.58545C1.72448 6.50457 2.29416 5.50857 3.05178 4.66455C3.80949 3.82058 4.73867 3.14675 5.77639 2.68897C6.81397 2.23137 7.93734 1.99889 9.07131 2.0083Z" fill="#E4F2F2"/>
</svg>
