<svg width="24" height="24" viewBox="0 0 24 24" fill="none" xmlns="http://www.w3.org/2000/svg">
<path d="M12 15.0005C12.5523 15.0005 13 15.4482 13 16.0005V22.0005C12.9998 22.5526 12.5521 23.0005 12 23.0005C11.4479 23.0004 11.0002 22.5526 11 22.0005V16.0005C11 15.4483 11.4478 15.0006 12 15.0005Z" fill="#E4F2F2"/>
<path d="M7.99998 13.0005C8.55226 13.0005 8.99998 13.4482 8.99998 14.0005V20.0005C8.99978 20.5526 8.55214 21.0005 7.99998 21.0005C7.44789 21.0004 7.00018 20.5526 6.99998 20.0005V14.0005C6.99998 13.4483 7.44776 13.0006 7.99998 13.0005Z" fill="#E4F2F2"/>
<path d="M16 13.0005C16.5523 13.0005 17 13.4482 17 14.0005V20.0005C16.9998 20.5526 16.5521 21.0005 16 21.0005C15.4479 21.0004 15.0002 20.5526 15 20.0005V14.0005C15 13.4483 15.4478 13.0006 16 13.0005Z" fill="#E4F2F2"/>
<path d="M8.37009 2.02784C9.58013 1.9319 10.7969 2.11256 11.9267 2.55616C13.0565 2.99977 14.0711 3.69488 14.8926 4.58838C15.5425 5.29537 16.0559 6.11327 16.415 6.99952H17.5C18.68 6.99942 19.8295 7.37868 20.7773 8.08155C21.725 8.7843 22.421 9.77392 22.7636 10.9028C23.1061 12.032 23.0762 13.2421 22.6787 14.353C22.2811 15.4639 21.5368 16.4183 20.5556 17.0737C20.0965 17.3802 19.4757 17.2564 19.1689 16.7974C18.8623 16.3381 18.9861 15.7174 19.4453 15.4106C20.0695 14.9936 20.5429 14.3861 20.7959 13.6792C21.0488 12.9723 21.0685 12.2023 20.8506 11.4839C20.6326 10.7654 20.189 10.1353 19.5859 9.68799C18.9828 9.24076 18.2508 8.99947 17.5 8.99952H15.7099C15.268 8.99935 14.8784 8.70914 14.7519 8.28565C14.4915 7.41355 14.0359 6.61196 13.4199 5.9419C12.8037 5.27173 12.0427 4.75019 11.1953 4.41748C10.348 4.08487 9.4357 3.94907 8.5283 4.021C7.62091 4.093 6.74128 4.37052 5.95701 4.83252C5.17271 5.2946 4.50376 5.93014 4.00095 6.68897C3.49832 7.44773 3.17441 8.31115 3.05466 9.21338C2.93497 10.1158 3.02299 11.0342 3.31052 11.898C3.59812 12.7616 4.0781 13.5491 4.71482 14.1997C5.1009 14.5943 5.09453 15.2275 4.70017 15.6138C4.30554 16 3.67244 15.9927 3.28611 15.5981C2.43706 14.7306 1.79554 13.6815 1.41209 12.5298C1.0287 11.3782 0.912669 10.1539 1.07224 8.95069C1.23187 7.74755 1.66367 6.59628 2.33396 5.58448C3.00438 4.57266 3.89659 3.72599 4.94236 3.10987C5.98802 2.49391 7.1603 2.12384 8.37009 2.02784Z" fill="#E4F2F2"/>
</svg>
