<svg width="24" height="24" viewBox="0 0 24 24" fill="none" xmlns="http://www.w3.org/2000/svg">
<path fill-rule="evenodd" clip-rule="evenodd" d="M5.10156 11.3086C6.17837 10.9492 7.33533 10.9031 8.4375 11.1748C9.53949 11.4466 10.5419 12.0252 11.3281 12.8438C11.9218 13.4619 12.3736 14.198 12.6572 15H13C14.0608 15 15.078 15.4218 15.8281 16.1719C16.5782 16.922 17 17.9392 17 19C17 20.0608 16.5782 21.078 15.8281 21.8281C15.078 22.5782 14.0608 23 13 23H7C5.8648 22.9998 4.75233 22.6772 3.79297 22.0703C2.83378 21.4634 2.06653 20.5968 1.58008 19.5713C1.09363 18.5457 0.908021 17.4032 1.04492 16.2764C1.1819 15.1496 1.63559 14.0843 2.35352 13.2051C3.07159 12.3258 4.02474 11.668 5.10156 11.3086ZM7.95899 13.1162C7.2242 12.935 6.45225 12.9665 5.73438 13.2061C5.01677 13.4456 4.38193 13.8838 3.90332 14.4697C3.42461 15.0559 3.12161 15.7663 3.03028 16.5176C2.93902 17.2687 3.06254 18.0302 3.38672 18.7139C3.71106 19.3977 4.22273 19.9763 4.86231 20.3809C5.50181 20.7854 6.2433 20.9998 7 21H13C13.5304 21 14.039 20.7891 14.4141 20.4141C14.7891 20.039 15 19.5304 15 19C15 18.4696 14.7891 17.961 14.4141 17.5859C14.039 17.2109 13.5304 17 13 17H11.9004C11.4253 17 11.015 16.6657 10.9199 16.2002C10.7686 15.4587 10.4099 14.7753 9.88574 14.2295C9.36162 13.6838 8.6936 13.2974 7.95899 13.1162Z" fill="#E4F2F2"/>
<path d="M12.2275 7.00293C13.1709 7.04594 14.0835 7.35578 14.8584 7.89551C15.6331 8.43526 16.2392 9.18392 16.6064 10.0537C16.9736 10.9238 17.0873 11.8807 16.9336 12.8125C16.8436 13.3574 16.3281 13.7257 15.7832 13.6357C15.2388 13.5454 14.8701 13.0309 14.96 12.4863C15.0521 11.9275 14.9838 11.3538 14.7637 10.832C14.5433 10.3101 14.1797 9.85998 13.7148 9.53613C13.2501 9.21249 12.7025 9.0268 12.1367 9.00098C11.5707 8.97524 11.008 9.1104 10.5156 9.39062C10.0358 9.6634 9.42552 9.49623 9.15235 9.0166C8.87958 8.5367 9.04757 7.92544 9.52735 7.65234C10.348 7.18544 11.2844 6.96002 12.2275 7.00293Z" fill="#E4F2F2"/>
<path d="M22 11C22.5522 11.0001 23 11.4478 23 12C23 12.5522 22.5522 12.9999 22 13H20C19.4477 13 19 12.5523 19 12C19 11.4477 19.4477 11 20 11H22Z" fill="#E4F2F2"/>
<path d="M4.22266 4.22266C4.61311 3.83229 5.2462 3.83239 5.63672 4.22266L7.04688 5.63281C7.43722 6.02332 7.43727 6.6564 7.04688 7.04688C6.6564 7.43735 6.02335 7.43724 5.63281 7.04688L4.22266 5.63672C3.83237 5.24618 3.83221 4.6131 4.22266 4.22266Z" fill="#E4F2F2"/>
<path d="M18.3633 4.22266C18.7538 3.83252 19.387 3.83226 19.7773 4.22266C20.1677 4.61306 20.1675 5.24619 19.7773 5.63672L18.3672 7.04688C17.9767 7.4373 17.3436 7.4373 16.9531 7.04688C16.5626 6.65638 16.5627 6.02334 16.9531 5.63281L18.3633 4.22266Z" fill="#E4F2F2"/>
<path d="M12 1C12.5522 1.00008 13 1.44777 13 2V4C13 4.55223 12.5522 4.99992 12 5C11.4477 5 11 4.55228 11 4V2C11 1.44772 11.4477 1 12 1Z" fill="#E4F2F2"/>
</svg>
