<svg width="24" height="24" viewBox="0 0 24 24" fill="none" xmlns="http://www.w3.org/2000/svg">
<path d="M12.0097 19C12.562 19 13.0097 19.4478 13.0097 20C13.0097 20.5523 12.562 21 12.0097 21H12C11.4477 20.9999 11 20.5522 11 20C11.0001 19.4478 11.4478 19 12 19H12.0097Z" fill="#E4F2F2"/>
<path d="M6.87791 3.28807C8.21342 2.9203 9.62193 2.90527 10.9648 3.2451C12.3076 3.58495 13.5393 4.26787 14.539 5.22655C15.3561 6.0101 15.9945 6.95681 16.417 8.00096H17.5C18.9585 8.00096 20.3572 8.58007 21.3887 9.61131C22.42 10.6427 23 12.0424 23 13.501C22.9998 14.9594 22.4199 16.3584 21.3887 17.3896C20.3572 18.4208 18.9584 19.001 17.5 19.001H17C16.448 19.0009 16.0004 18.5528 16 18.001C16 17.4487 16.4477 17.001 17 17.001H17.5C18.428 17.001 19.3183 16.6317 19.9746 15.9756C20.6308 15.3194 20.9998 14.4289 21 13.501C21 12.5728 20.6308 11.6817 19.9746 11.0254C19.3182 10.3692 18.4281 10.001 17.5 10.001H15.7099C15.2679 10.0009 14.8784 9.70963 14.7519 9.28612C14.4551 8.29068 13.904 7.38889 13.1543 6.66991C12.4045 5.95105 11.4806 5.43939 10.4736 5.18456C9.4666 4.92976 8.41064 4.94008 7.40916 5.21581C6.40759 5.49165 5.49441 6.0233 4.75974 6.7578C4.02528 7.49219 3.49381 8.40496 3.21775 9.40624C2.94182 10.4077 2.92995 11.4646 3.18455 12.4717C3.43918 13.4786 3.95131 14.4025 4.6699 15.1523C5.38875 15.9023 6.29068 16.4529 7.28611 16.75C7.81517 16.9079 8.11569 17.465 7.95799 17.9941C7.79987 18.523 7.24289 18.8248 6.71385 18.667C5.38662 18.2708 4.18499 17.536 3.22654 16.5361C2.26825 15.5362 1.58562 14.3046 1.24607 12.9619C0.90659 11.6191 0.921088 10.2103 1.28904 8.87499C1.65707 7.5398 2.36632 6.32302 3.34568 5.34374C4.32523 4.36441 5.5425 3.65586 6.87791 3.28807Z" fill="#E4F2F2"/>
<path d="M12 11C12.5522 11 12.9999 11.4478 13 12V16C13 16.5523 12.5523 17 12 17C11.4477 16.9999 11 16.5522 11 16V12C11.0001 11.4478 11.4478 11 12 11Z" fill="#E4F2F2"/>
</svg>
