<svg width="24" height="24" viewBox="0 0 24 24" fill="none" xmlns="http://www.w3.org/2000/svg">
<path d="M16.2925 14.293C16.683 13.9025 17.316 13.9025 17.7065 14.293C18.0971 14.6835 18.0971 15.3165 17.7065 15.707L12.2065 21.207C11.816 21.5973 11.1829 21.5975 10.7925 21.207L8.29247 18.707C7.90211 18.3166 7.90218 17.6835 8.29247 17.293C8.68296 16.9025 9.316 16.9025 9.70653 17.293L11.4995 19.0859L16.2925 14.293Z" fill="#E4F2F2"/>
<path d="M7.812 4.08788C9.07518 3.89801 10.3662 4.01385 11.5757 4.4248C12.7848 4.83575 13.8783 5.53028 14.7642 6.45019C15.4742 7.18765 16.0322 8.05438 16.4145 8.99902H17.5005C18.7972 8.99961 20.0521 9.45906 21.0434 10.2949C22.0348 11.131 22.699 12.2912 22.9184 13.5693C23.1378 14.8475 22.8985 16.1624 22.2427 17.2812C21.5867 18.4001 20.5561 19.2517 19.3335 19.6846C18.8129 19.8688 18.2414 19.5957 18.0571 19.0752C17.8731 18.5547 18.146 17.9831 18.6665 17.7988C19.4443 17.5233 20.0997 16.9814 20.5171 16.2695C20.9344 15.5576 21.0873 14.7206 20.9477 13.9072C20.808 13.0941 20.3851 12.3562 19.7544 11.8242C19.2023 11.3587 18.5216 11.076 17.8071 11.0127L17.4995 10.999H15.7095C15.2674 10.9989 14.8778 10.7088 14.7515 10.2851C14.4778 9.36727 13.988 8.5279 13.3237 7.83788C12.6593 7.14792 11.839 6.62658 10.9321 6.31835C10.0252 6.01019 9.05711 5.92309 8.10985 6.06542C7.1625 6.20783 6.2622 6.57547 5.48583 7.13671C4.70968 7.6979 4.07915 8.43727 3.64696 9.29198C3.2148 10.1469 2.99318 11.0939 3.00146 12.0518C3.00987 13.0095 3.24794 13.9517 3.69482 14.7988C4.14185 15.6461 4.78579 16.3742 5.57177 16.9219C6.02465 17.2376 6.13523 17.8614 5.81982 18.3144C5.50399 18.7672 4.8812 18.8781 4.42821 18.5625C3.38037 17.8323 2.52229 16.862 1.92626 15.7324C1.33028 14.6027 1.01259 13.3456 1.00146 12.0684C0.990464 10.7913 1.28563 9.52943 1.86181 8.38964C2.43809 7.24985 3.27894 6.26393 4.31396 5.51562C5.34908 4.76731 6.54892 4.27779 7.812 4.08788Z" fill="#E4F2F2"/>
</svg>
