<svg width="24" height="24" viewBox="0 0 24 24" fill="none" xmlns="http://www.w3.org/2000/svg">
<path d="M17.0386 17.0015C17.0568 17.0022 17.0751 17.0027 17.0933 17.0044C17.1034 17.0053 17.1135 17.0071 17.1235 17.0083C17.1441 17.0108 17.1646 17.0133 17.185 17.0171C17.2002 17.0199 17.2151 17.0234 17.23 17.0269C17.2413 17.0295 17.2529 17.0316 17.2642 17.0347L17.2974 17.0444C17.3066 17.0473 17.3156 17.0511 17.3247 17.0542C17.3421 17.0602 17.3593 17.0668 17.3765 17.0737C17.3866 17.0779 17.3967 17.082 17.4067 17.0864C17.4258 17.0949 17.4447 17.104 17.4634 17.1138C17.4773 17.1211 17.4908 17.1293 17.5044 17.1372C17.5168 17.1445 17.5293 17.1518 17.5415 17.1597C17.56 17.1716 17.5776 17.1847 17.5952 17.1978C17.6036 17.204 17.6124 17.2098 17.6206 17.2163C17.6336 17.2267 17.6462 17.2376 17.6587 17.2485C17.6696 17.2581 17.6813 17.2668 17.6919 17.2769L17.7075 17.2925C17.7103 17.2953 17.7126 17.2985 17.7153 17.3013C17.7345 17.3209 17.7528 17.3411 17.77 17.3618C17.7993 17.3972 17.8258 17.4349 17.8501 17.4741C17.8774 17.5183 17.9015 17.5638 17.9214 17.6108C17.9509 17.6807 17.9718 17.7547 17.9849 17.8316C17.9885 17.8533 17.9914 17.8751 17.9936 17.897C17.9971 17.9307 18.0005 17.9649 18.0005 17.9995V21.9995C18.0005 22.5517 17.5526 22.9993 17.0005 22.9995C16.4482 22.9995 16.0005 22.5518 16.0005 21.9995V20.4683C15.3429 21.0568 14.5645 21.4955 13.7173 21.7485C12.8019 22.0218 11.834 22.073 10.895 21.897C9.95597 21.7209 9.07215 21.3232 8.31786 20.7368C7.56365 20.1505 6.96031 19.3924 6.55809 18.5259C6.32569 18.025 6.54354 17.4303 7.04442 17.1978C7.54518 16.9655 8.13995 17.1826 8.37255 17.6831C8.64069 18.2608 9.04256 18.7668 9.5454 19.1577C10.0482 19.5486 10.6373 19.8138 11.2632 19.9312C11.8891 20.0485 12.5347 20.0147 13.145 19.8325C13.7 19.6668 14.2106 19.3816 14.644 18.9995H13.0005C12.4482 18.9995 12.0005 18.5518 12.0005 17.9995C12.0006 17.4474 12.4483 16.9995 13.0005 16.9995H17.0005C17.0132 16.9995 17.0259 17.001 17.0386 17.0015Z" fill="#E4F2F2"/>
<path d="M9.06591 2.00538C10.2006 2.01495 11.3208 2.26624 12.3511 2.74171C13.3811 3.21711 14.2981 3.90626 15.0415 4.76319C15.6192 5.42922 16.0806 6.18568 16.4106 6.99952H17.5083C18.5301 7.01312 19.5282 7.31186 20.3901 7.86085C21.2519 8.40981 21.9439 9.18781 22.3882 10.1079C22.8325 11.0282 23.0119 12.0544 22.9058 13.0708C22.7996 14.0869 22.4122 15.0533 21.7876 15.8618C21.4499 16.2988 20.8213 16.3801 20.3843 16.0425C19.9473 15.7048 19.867 15.0762 20.2046 14.6392C20.6021 14.1246 20.849 13.5095 20.9165 12.8628C20.984 12.2162 20.87 11.5635 20.5874 10.978C20.3047 10.3925 19.8643 9.89672 19.3159 9.54737C18.8361 9.24174 18.2896 9.05815 17.7251 9.01124L17.4819 8.99952H15.7056C15.2637 8.99952 14.8732 8.70994 14.7466 8.28663C14.5027 7.47127 14.0884 6.71663 13.5308 6.07374C12.9732 5.43096 12.2848 4.9137 11.5122 4.55714C10.7397 4.20071 9.90008 4.01258 9.04931 4.00538C8.19829 3.9982 7.35529 4.1726 6.57665 4.51612C5.79811 4.85962 5.10106 5.36426 4.5327 5.99757C3.96431 6.63096 3.53731 7.37882 3.27977 8.18995C3.02232 9.00098 2.94065 9.8575 3.03954 10.7026C3.13846 11.5479 3.41614 12.3625 3.85399 13.0923C4.138 13.5658 3.98376 14.1803 3.51024 14.4644C3.03672 14.7483 2.42228 14.595 2.13817 14.1216C1.55437 13.1486 1.18511 12.0621 1.05321 10.9351C0.921345 9.8081 1.03017 8.66594 1.37352 7.58448C1.71688 6.50305 2.28665 5.50709 3.04442 4.66261C3.80223 3.81815 4.73097 3.14407 5.76903 2.68604C6.80719 2.22802 7.93124 1.99582 9.06591 2.00538Z" fill="#E4F2F2"/>
<path d="M7.00048 8.99952C7.55249 8.99974 8.00033 9.4475 8.00048 9.99952V11.5298C8.65793 10.9417 9.43675 10.5034 10.2837 10.2505C11.199 9.97731 12.1671 9.92602 13.1059 10.1021C14.0449 10.2782 14.9289 10.6759 15.6831 11.2622C16.4372 11.8485 17.0407 12.6067 17.4429 13.4732C17.6753 13.9739 17.4571 14.5686 16.9565 14.8013C16.4557 15.0337 15.861 14.8167 15.6284 14.3159C15.3603 13.7383 14.9583 13.2322 14.4556 12.8413C13.9529 12.4506 13.3635 12.1853 12.7378 12.0679C12.1119 11.9505 11.4661 11.9844 10.8559 12.1665C10.3009 12.3322 9.78954 12.6175 9.35595 12.9995H11.0005C11.5525 12.9997 12.0003 13.4475 12.0005 13.9995C12.0005 14.5517 11.5526 14.9993 11.0005 14.9995H7.00048C6.99506 14.9995 6.98927 14.9986 6.98388 14.9985C6.95746 14.9981 6.9311 14.9971 6.90477 14.9946C6.89691 14.9939 6.88914 14.9926 6.88134 14.9917C6.85583 14.9887 6.83043 14.985 6.80517 14.98C6.79561 14.9781 6.7863 14.9753 6.77684 14.9732C6.75753 14.9687 6.73831 14.9641 6.71923 14.9585C6.70604 14.9546 6.69313 14.9502 6.68017 14.9458C6.66116 14.9394 6.6422 14.9329 6.62352 14.9253C6.60537 14.9179 6.58742 14.9103 6.56981 14.9019C6.56154 14.8979 6.55359 14.8934 6.5454 14.8892C6.52784 14.8802 6.51058 14.8708 6.49364 14.8608C6.47842 14.8519 6.46355 14.8424 6.44872 14.8325C6.4411 14.8275 6.43373 14.8222 6.42626 14.8169C6.40787 14.804 6.38926 14.7912 6.37157 14.7769C6.36009 14.7676 6.34943 14.7574 6.33837 14.7476C6.32873 14.739 6.31846 14.7312 6.30907 14.7222C6.3056 14.7189 6.30272 14.7148 6.29931 14.7114C6.24482 14.6578 6.19587 14.5986 6.15477 14.5337C6.09149 14.4336 6.04729 14.3249 6.02294 14.2124C6.01269 14.1651 6.0067 14.1165 6.00341 14.0669C6.0024 14.0519 6.00081 14.037 6.00048 14.022V9.99952C6.00063 9.44736 6.44829 8.99952 7.00048 8.99952Z" fill="#E4F2F2"/>
</svg>
