<svg width="24" height="24" viewBox="0 0 24 24" fill="none" xmlns="http://www.w3.org/2000/svg">
<path fill-rule="evenodd" clip-rule="evenodd" d="M13.9131 2.01464C14.4285 1.98005 14.946 2.05011 15.4336 2.2207C15.9212 2.39138 16.3696 2.65934 16.751 3.00781C17.1323 3.35632 17.4395 3.77874 17.6533 4.24902C17.8671 4.71937 17.9842 5.2286 17.9961 5.74511C17.9981 5.833 17.9952 5.92122 17.9912 6.00878C18.079 6.00474 18.1677 6.00286 18.2559 6.00488C18.7723 6.01683 19.2817 6.13288 19.7519 6.34667C20.2221 6.56053 20.6447 6.86772 20.9932 7.24902C21.3416 7.63048 21.6097 8.07972 21.7803 8.56738C21.9507 9.05494 22.021 9.57255 21.9863 10.0879C21.9516 10.6034 21.8126 11.107 21.5781 11.5674C21.5016 11.7175 21.4144 11.8618 21.3193 12C21.4145 12.1382 21.5016 12.2834 21.5781 12.4336C21.8124 12.8939 21.9516 13.3978 21.9863 13.9131C22.0209 14.4284 21.9508 14.946 21.7803 15.4336C21.6096 15.9213 21.3416 16.3695 20.9932 16.751C20.6447 17.1324 20.2222 17.4394 19.7519 17.6533C19.2817 17.8671 18.7723 17.9841 18.2559 17.9961C18.1678 17.9981 18.079 17.9953 17.9912 17.9912C17.9953 18.079 17.9981 18.1678 17.9961 18.2559C17.9841 18.7723 17.8671 19.2817 17.6533 19.7519C17.4394 20.2222 17.1324 20.6447 16.751 20.9932C16.3695 21.3417 15.9213 21.6096 15.4336 21.7803C14.946 21.9508 14.4285 22.0209 13.9131 21.9863C13.3978 21.9516 12.8939 21.8124 12.4336 21.5781C12.2834 21.5016 12.1382 21.4145 12 21.3193C11.8618 21.4144 11.7175 21.5016 11.5674 21.5781C11.107 21.8126 10.6034 21.9516 10.0879 21.9863C9.57254 22.021 9.05495 21.9507 8.56738 21.7803C8.07973 21.6097 7.63048 21.3416 7.24902 20.9932C6.86772 20.6447 6.56054 20.2221 6.34668 19.7519C6.27292 19.5897 6.21136 19.4221 6.16113 19.2519L2.70703 22.707C2.31656 23.0974 1.68348 23.0974 1.29297 22.707C0.902501 22.3165 0.902515 21.6835 1.29297 21.293L4.82715 17.7578C4.16766 17.5624 3.56683 17.1917 3.09375 16.6768C2.40661 15.9286 2.04493 14.9377 2.08789 13.9228C2.11695 13.239 2.32882 12.5819 2.69238 12.0156C2.59302 11.8728 2.50219 11.7231 2.42285 11.5674C2.18839 11.107 2.04942 10.6034 2.01465 10.0879C1.97994 9.57241 2.05016 9.05506 2.2207 8.56738C2.39137 8.07955 2.65921 7.63057 3.00781 7.24902C3.35637 6.86762 3.77867 6.56051 4.24902 6.34667C4.71942 6.13287 5.22853 6.01672 5.74511 6.00488C5.83302 6.00287 5.9212 6.00475 6.00879 6.00878C6.00476 5.92122 6.00288 5.833 6.00488 5.74511C6.01673 5.22855 6.13288 4.71941 6.34668 4.24902C6.56052 3.77867 6.86763 3.35636 7.24902 3.00781C7.63058 2.65919 8.07953 2.39137 8.56738 2.2207C9.05508 2.05015 9.57239 1.97994 10.0879 2.01464C10.6034 2.04942 11.107 2.18838 11.5674 2.42285C11.7175 2.49931 11.8619 2.58655 12 2.68163C12.1384 2.58635 12.2832 2.49944 12.4336 2.42285C12.894 2.18844 13.3976 2.04936 13.9131 2.01464ZM8.5459 16.8672C8.54301 16.8701 8.54101 16.874 8.53808 16.8769C8.36384 17.0515 8.22647 17.2593 8.13476 17.4883C8.04312 17.7173 7.99825 17.9634 8.0039 18.21C8.00966 18.4564 8.06596 18.6994 8.16797 18.9238C8.27007 19.1482 8.41664 19.3503 8.59863 19.5166C8.78066 19.6828 8.99488 19.8112 9.22754 19.8926C9.46011 19.9738 9.70731 20.0067 9.95312 19.9902C10.1992 19.9736 10.4404 19.9078 10.6602 19.7959C10.8798 19.684 11.0743 19.5281 11.2324 19.3389C11.4224 19.1115 11.7038 18.9806 12 18.9805C12.2961 18.9806 12.5777 19.1117 12.7676 19.3389C12.9257 19.528 13.1211 19.684 13.3408 19.7959C13.5605 19.9076 13.801 19.9736 14.0469 19.9902C14.2929 20.0067 14.5407 19.974 14.7734 19.8926C15.0062 19.8111 15.2203 19.6829 15.4023 19.5166C15.5844 19.3502 15.7309 19.1483 15.833 18.9238C15.935 18.6995 15.9903 18.4563 15.9961 18.21C16.0017 17.9635 15.9578 17.7172 15.8662 17.4883C15.7975 17.3166 15.7024 17.1565 15.5859 17.0137L15.4629 16.8769L11.999 13.4131L8.5459 16.8672ZM18.21 8.0039C17.9634 7.99825 17.7173 8.0431 17.4883 8.13476C17.2593 8.22647 17.0515 8.36382 16.877 8.53808C16.874 8.54101 16.8702 8.543 16.8672 8.54589L13.4131 11.999L16.877 15.4629L17.0137 15.5859C17.1565 15.7024 17.3166 15.7974 17.4883 15.8662C17.7172 15.9578 17.9635 16.0017 18.21 15.9961C18.4563 15.9903 18.6995 15.935 18.9238 15.833C19.1483 15.7309 19.3502 15.5844 19.5166 15.4023C19.6829 15.2203 19.8111 15.0061 19.8926 14.7734C19.974 14.5407 20.0067 14.2929 19.9902 14.0469C19.9737 13.801 19.9076 13.5605 19.7959 13.3408C19.684 13.1211 19.528 12.9257 19.3389 12.7676C19.1117 12.5777 18.9806 12.2961 18.9805 12C18.9806 11.7038 19.1115 11.4223 19.3389 11.2324C19.5281 11.0743 19.684 10.8798 19.7959 10.6602C19.9078 10.4404 19.9736 10.1991 19.9902 9.95312C20.0067 9.70731 19.9738 9.4601 19.8926 9.22753C19.8112 8.99488 19.6828 8.78066 19.5166 8.59863C19.3503 8.41663 19.1482 8.27007 18.9238 8.16796C18.6994 8.06595 18.4564 8.00965 18.21 8.0039ZM5.79101 8.0039C5.54449 8.00955 5.30164 8.06596 5.07715 8.16796C4.85256 8.27007 4.65079 8.41651 4.48437 8.59863C4.31796 8.78077 4.18987 8.99466 4.1084 9.22753C4.02704 9.4602 3.99327 9.70719 4.00976 9.95312C4.02639 10.1991 4.09318 10.4404 4.20508 10.6602C4.31693 10.8795 4.47221 11.0745 4.66113 11.2324C5.0845 11.5866 5.14196 12.2179 4.78808 12.6416C4.73297 12.7075 4.66922 12.7625 4.60254 12.8105C4.2903 13.1321 4.10507 13.5576 4.08593 14.0078C4.06551 14.4927 4.23808 14.9667 4.5664 15.3242C4.89486 15.6816 5.35293 15.8944 5.83789 15.915C6.31792 15.9352 6.78641 15.7643 7.14257 15.4424L10.585 11.999L7.12304 8.5371C6.94868 8.36316 6.74034 8.22638 6.51172 8.13476C6.28286 8.04316 6.03746 7.99831 5.79101 8.0039ZM14.0469 4.00976C13.8008 4.02635 13.5606 4.09317 13.3408 4.20507C13.121 4.31701 12.9258 4.47184 12.7676 4.66113C12.5777 4.88839 12.2962 5.02038 12 5.0205C11.704 5.02041 11.4223 4.88817 11.2324 4.66113C11.0745 4.47221 10.8795 4.31692 10.6602 4.20507C10.4404 4.09317 10.1991 4.02639 9.95312 4.00976C9.70718 3.99326 9.46022 4.02702 9.22754 4.10839C8.99464 4.18987 8.78079 4.31794 8.59863 4.48437C8.41651 4.65079 8.27007 4.85256 8.16797 5.07714C8.06598 5.30163 8.00956 5.54451 8.0039 5.79101C7.99832 6.03744 8.04317 6.28287 8.13476 6.51171C8.22638 6.74032 8.36316 6.94868 8.53711 7.12304L11.999 10.585L15.4629 7.12304C15.4643 7.1216 15.4653 7.11959 15.4668 7.11816C15.6388 6.94462 15.7753 6.73855 15.8662 6.51171C15.9578 6.2829 16.0017 6.03739 15.9961 5.79101C15.9904 5.54467 15.9349 5.3015 15.833 5.07714C15.731 4.85283 15.5842 4.65067 15.4023 4.48437C15.2204 4.31814 15.006 4.18989 14.7734 4.10839C14.5407 4.02696 14.2929 3.99324 14.0469 4.00976Z" fill="#E4F2F2"/>
</svg>
