<svg width="24" height="24" viewBox="0 0 24 24" fill="none" xmlns="http://www.w3.org/2000/svg">
<path fill-rule="evenodd" clip-rule="evenodd" d="M12 1.00977C13.0091 1.00978 14.0047 1.24503 14.9072 1.69629C15.8096 2.14749 16.5948 2.80233 17.2002 3.60938C17.8055 4.41651 18.2149 5.35406 18.3955 6.34668C18.5133 6.99465 18.5293 7.65501 18.4492 8.30469C19.136 8.52 19.7853 8.84671 20.3682 9.27734C21.235 9.91785 21.9291 10.7639 22.3877 11.7393C22.8463 12.7148 23.055 13.7899 22.9951 14.8662C22.9352 15.9425 22.6089 16.9876 22.0449 17.9062C21.481 18.8247 20.6971 19.5885 19.7646 20.1289C18.8319 20.6694 17.7787 20.9694 16.7012 21.002C15.6238 21.0344 14.5553 20.7986 13.5918 20.3154C13.3879 20.2132 13.1909 20.0993 13 19.9766V22C12.9999 22.5522 12.5522 23 12 23C11.4479 22.9999 11.0001 22.5521 11 22V19.9707C10.8082 20.0936 10.6102 20.2073 10.4053 20.3096C9.44168 20.7905 8.37326 21.0243 7.29687 20.9902C6.2206 20.9561 5.16945 20.6551 4.23828 20.1143C3.30712 19.5734 2.52486 18.8096 1.96191 17.8916C1.399 16.9736 1.0725 15.9297 1.01269 14.8545C0.952986 13.7794 1.16155 12.7061 1.61914 11.7314C2.07682 10.7568 2.76936 9.9103 3.63476 9.26953C4.21586 8.83934 4.86394 8.51285 5.54883 8.29688C5.4699 7.64978 5.48814 6.992 5.60547 6.34668C5.78604 5.35409 6.19545 4.41648 6.80078 3.60938C7.40617 2.80241 8.19144 2.14745 9.09375 1.69629C9.99613 1.24516 10.9911 1.00982 12 1.00977ZM12 3.00977C11.3018 3.00982 10.6128 3.17223 9.98828 3.48438C9.36356 3.79673 8.81952 4.25085 8.40039 4.80957C7.98128 5.36839 7.69823 6.01783 7.57324 6.70508C7.44834 7.39223 7.48516 8.09904 7.68066 8.76953C7.76172 9.04743 7.71804 9.34734 7.56152 9.59082C7.40468 9.83438 7.14904 9.99878 6.8623 10.04C6.12452 10.1462 5.42428 10.4335 4.82519 10.877C4.2261 11.3205 3.74657 11.9063 3.42969 12.5811C3.11284 13.2559 2.9684 13.9998 3.00976 14.7441C3.05123 15.4884 3.27733 16.2112 3.66699 16.8467C4.05675 17.4821 4.59855 18.0104 5.24316 18.3848C5.88783 18.7592 6.61522 18.9676 7.36035 18.9912C8.10554 19.0148 8.84559 18.8534 9.51269 18.5205C10.1797 18.1876 10.7535 17.6936 11.1826 17.084C11.1861 17.079 11.1898 17.0742 11.1934 17.0693C11.2095 17.0473 11.2262 17.0255 11.2441 17.0049C11.2547 16.9927 11.2662 16.9814 11.2773 16.9697C11.2901 16.9564 11.303 16.9433 11.3164 16.9307C11.3297 16.9182 11.3435 16.9062 11.3574 16.8945C11.4394 16.8256 11.5325 16.7694 11.6338 16.7295C11.6451 16.725 11.6565 16.7208 11.668 16.7168C11.6957 16.707 11.7241 16.6987 11.7529 16.6914C11.7578 16.6902 11.7627 16.6887 11.7676 16.6875C11.8422 16.6697 11.92 16.6602 12 16.6602C12.0402 16.6602 12.0801 16.6624 12.1191 16.667C12.1241 16.6676 12.1289 16.6693 12.1338 16.6699C12.1652 16.6741 12.1961 16.6795 12.2266 16.6865C12.237 16.689 12.2474 16.6916 12.2578 16.6943C12.2843 16.7014 12.3103 16.7096 12.3359 16.7188C12.3456 16.7222 12.3557 16.7248 12.3652 16.7285C12.396 16.7406 12.4259 16.7546 12.4551 16.7695L12.46 16.7725C12.4945 16.7904 12.5285 16.8093 12.5605 16.8311C12.569 16.8368 12.5767 16.8436 12.585 16.8496C12.6072 16.8657 12.6286 16.8826 12.6494 16.9004C12.6587 16.9083 12.6677 16.9165 12.6768 16.9248C12.6925 16.9393 12.7078 16.9542 12.7227 16.9697C12.7347 16.9824 12.7464 16.9955 12.7578 17.0088C12.7722 17.0255 12.7856 17.0429 12.7988 17.0605C12.8053 17.0692 12.8131 17.077 12.8193 17.0859C13.2474 17.6973 13.8211 18.1928 14.4883 18.5273C15.1554 18.8619 15.8956 19.0254 16.6416 19.0029C17.3874 18.9804 18.1161 18.7725 18.7617 18.3984C19.4074 18.0243 19.9504 17.4953 20.3408 16.8594C20.7312 16.2234 20.9576 15.4999 20.999 14.7549C21.0404 14.0099 20.8955 13.2661 20.5781 12.5908C20.2606 11.9154 19.7799 11.3292 19.1797 10.8857C18.5795 10.4423 17.8784 10.155 17.1396 10.0498C16.6468 9.97967 16.2803 9.55743 16.2803 9.05957V9.0498C16.2803 8.95513 16.2938 8.86042 16.3203 8.76953C16.5158 8.0991 16.5526 7.39217 16.4277 6.70508C16.3027 6.01782 16.0197 5.3684 15.6006 4.80957C15.1814 4.25074 14.6375 3.79678 14.0127 3.48438C13.388 3.17206 12.6985 3.00978 12 3.00977Z" fill="#E4F2F2"/>
</svg>
