<svg width="24" height="24" viewBox="0 0 24 24" fill="none" xmlns="http://www.w3.org/2000/svg">
<path fill-rule="evenodd" clip-rule="evenodd" d="M11.5879 0.979989C12.2461 0.911824 12.9115 1.0083 13.5234 1.26026C14.1351 1.51228 14.6755 1.91159 15.0947 2.42335C15.514 2.93528 15.7992 3.54436 15.9258 4.19386C16.0522 4.84324 16.0157 5.51424 15.8193 6.146C15.6238 6.77472 15.2756 7.3451 14.8066 7.80714L13.3076 9.30811L13.2998 9.31495C13.1116 9.49955 13.0038 9.75154 13 10.0151V10.4771L21.7715 16.5796L21.8008 16.6001C22.3043 16.9779 22.6766 17.5051 22.8643 18.106C23.0518 18.7067 23.0456 19.3516 22.8467 19.9487C22.6476 20.5459 22.2655 21.066 21.7549 21.4341C21.2442 21.8022 20.6295 22.0004 20 22.0005H4.00001C3.3501 22.0107 2.71347 21.8099 2.18751 21.4273C1.6551 21.0398 1.26487 20.4871 1.07716 19.856C0.889558 19.2249 0.91528 18.5494 1.14942 17.9341C1.3776 17.3347 1.79243 16.8254 2.33106 16.479L11 10.4761V9.98682C11.0112 9.19876 11.3326 8.44633 11.8936 7.89307L13.4004 6.38624C13.6365 6.15468 13.8119 5.86801 13.9102 5.55225C14.0083 5.2364 14.0261 4.90036 13.9629 4.57569C13.8996 4.25111 13.7564 3.94678 13.5469 3.69093C13.3373 3.43515 13.0675 3.23486 12.7617 3.1089C12.4558 2.98292 12.1231 2.93517 11.794 2.96925C11.4648 3.00336 11.1487 3.11814 10.875 3.30421C10.6015 3.49026 10.3783 3.74218 10.2256 4.03565C10.0731 4.32904 9.99536 4.65618 10 4.98682C10.0074 5.53862 9.56647 5.9925 9.01466 6.0005C8.46271 6.00825 8.00822 5.56698 8.00001 5.01514C7.99071 4.35345 8.14672 3.69887 8.45216 3.11182C8.75764 2.52493 9.20385 2.02293 9.75098 1.65089C10.2983 1.27875 10.9296 1.04821 11.5879 0.979989ZM3.46973 18.1226C3.45572 18.1323 3.44126 18.1419 3.42676 18.1509C3.2402 18.2664 3.09668 18.44 3.01856 18.645C2.94055 18.85 2.93175 19.0754 2.99415 19.2857C3.05673 19.4959 3.18689 19.681 3.36426 19.8101C3.54165 19.939 3.75731 20.0056 3.97657 20.0005H20C20.2097 20.0004 20.4148 19.9346 20.585 19.812C20.7551 19.6894 20.8828 19.5159 20.9492 19.3169C21.0155 19.118 21.0175 18.9028 20.9551 18.7026C20.8926 18.5025 20.7682 18.3266 20.6006 18.2007L11.9981 12.2173L3.46973 18.1226Z" fill="#E4F2F2"/>
</svg>
