<svg width="24" height="24" viewBox="0 0 24 24" fill="none" xmlns="http://www.w3.org/2000/svg">
<path fill-rule="evenodd" clip-rule="evenodd" d="M5 1C5.50585 1 5.9906 1.16274 6.375 1.36328C6.7571 1.56264 7.13822 1.85063 7.40039 2.2002L9.5 5H13.1133C13.2818 4.22416 13.6337 3.49439 14.1455 2.875C14.8696 1.99879 15.8704 1.39508 16.9834 1.16406C18.0964 0.933104 19.2556 1.08774 20.2686 1.60352C21.2815 2.11934 22.0887 2.96598 22.5566 4.00195C23.0244 5.03786 23.1255 6.20282 22.8428 7.30371C22.56 8.40458 21.91 9.37629 21.001 10.0586C20.0918 10.7409 18.977 11.0927 17.8408 11.0566C17.0097 11.0302 16.2037 10.7962 15.4922 10.3838L12 14.375V21H15C15.5523 21 16 21.4477 16 22C16 22.5523 15.5523 23 15 23H7C6.44772 23 6 22.5523 6 22C6 21.4477 6.44772 21 7 21H10V14.375L3.24707 6.6582C2.98894 6.36293 2.92777 5.94409 3.08984 5.58691C3.252 5.22964 3.60765 5 4 5H7L5.7998 3.40039C5.76199 3.34998 5.64294 3.23733 5.4502 3.13672C5.25961 3.03728 5.0941 3 5 3H2C1.44772 3 1 2.55228 1 2C1 1.44772 1.44772 1 2 1H5ZM11 12.4805L15.7959 7H6.2041L11 12.4805ZM19.3613 3.38574C18.7535 3.07628 18.0575 2.9835 17.3896 3.12207C16.722 3.2607 16.1209 3.6228 15.6865 4.14844C15.4748 4.40473 15.3101 4.69332 15.1943 5H18L18.1455 5.01074C18.4786 5.05966 18.7683 5.27443 18.9102 5.58691C19.0722 5.94409 19.0111 6.36293 18.7529 6.6582L16.8525 8.8291C17.1846 8.96644 17.5401 9.04602 17.9043 9.05762C18.5859 9.07927 19.2543 8.86825 19.7998 8.45898C20.3453 8.04958 20.7356 7.46627 20.9053 6.80566C21.0748 6.14523 21.014 5.44663 20.7334 4.8252C20.4527 4.20372 19.969 3.69523 19.3613 3.38574Z" fill="#E4F2F2"/>
</svg>
