<svg width="24" height="24" viewBox="0 0 24 24" fill="none" xmlns="http://www.w3.org/2000/svg">
<path fill-rule="evenodd" clip-rule="evenodd" d="M22 1C22.5523 1 23 1.44772 23 2C23 2.55228 22.5523 3 22 3H20.4141L19.9541 3.45898C21.7776 4.84315 23 6.77524 23 9V12C23 14.9174 21.8412 17.7154 19.7783 19.7783C17.7154 21.8412 14.9174 23 12 23C9.08262 23 6.28458 21.8412 4.22168 19.7783C2.15878 17.7154 1 14.9174 1 12V9C1 6.65121 2.36151 4.62729 4.35547 3.23145C6.35269 1.83339 9.05856 1 12 1C14.2834 1 16.424 1.50407 18.2021 2.38281L19.293 1.29297L19.3662 1.22656C19.5442 1.08073 19.7679 1 20 1H22ZM20.8174 13.7969C20.4586 14.1462 20.067 14.4728 19.6445 14.7686C17.6473 16.1666 14.9414 17 12 17C9.05856 17 6.35269 16.1666 4.35547 14.7686C3.93315 14.4729 3.54127 14.147 3.18262 13.7979C3.53273 15.5148 4.37819 17.1067 5.63574 18.3643C7.32357 20.0521 9.61305 21 12 21C14.3869 21 16.6764 20.0521 18.3643 18.3643C19.622 17.1065 20.4675 15.5143 20.8174 13.7969ZM12 3C9.41859 3 7.12402 3.7337 5.50195 4.86914C3.87682 6.00678 3 7.48292 3 9C3 10.5171 3.87682 11.9932 5.50195 13.1309C7.12402 14.2663 9.41859 15 12 15C14.5814 15 16.876 14.2663 18.498 13.1309C20.1232 11.9932 21 10.5171 21 9C21 7.49129 20.1324 6.02374 18.5244 4.88867L17.1641 6.24902C18.1619 6.86074 19 7.77893 19 9C19 10.4113 17.8815 11.4196 16.6895 12.0156C15.4376 12.6415 13.7783 13 12 13C10.2217 13 8.56242 12.6415 7.31055 12.0156C6.11846 11.4196 5 10.4113 5 9C5 7.58874 6.11846 6.58042 7.31055 5.98438C8.56242 5.35851 10.2217 5 12 5C13.1308 5 14.2135 5.14466 15.1738 5.41113L16.6924 3.89258C15.3349 3.33203 13.7324 3 12 3ZM12 7C10.4647 7 9.12377 7.3136 8.2041 7.77344C7.22505 8.26309 7 8.75444 7 9C7 9.24556 7.22505 9.73691 8.2041 10.2266C9.12377 10.6864 10.4647 11 12 11C13.5353 11 14.8762 10.6864 15.7959 10.2266C16.7749 9.73691 17 9.24556 17 9C17 8.75444 16.7749 8.26309 15.7959 7.77344C15.7611 7.75605 15.7245 7.74157 15.6885 7.72461L14.707 8.70703C14.3165 9.09756 13.6835 9.09756 13.293 8.70703C12.9024 8.31651 12.9024 7.68349 13.293 7.29297L13.4814 7.10352C13.0156 7.03829 12.5191 7 12 7Z" fill="#E4F2F2"/>
</svg>
