<svg width="24" height="24" viewBox="0 0 24 24" fill="none" xmlns="http://www.w3.org/2000/svg">
<path d="M13.5459 3.70214C13.7106 3.17509 14.2708 2.88134 14.7979 3.04589C15.3248 3.21064 15.6186 3.77082 15.4541 4.29784L10.4541 20.2978C10.2894 20.8248 9.72913 21.1185 9.20215 20.9541C8.67515 20.7894 8.38146 20.2292 8.5459 19.7021L13.5459 3.70214Z" fill="#E4F2F2"/>
<path d="M5.29297 7.29296C5.68349 6.90243 6.31651 6.90243 6.70703 7.29296C7.09742 7.68349 7.09751 8.31654 6.70703 8.70702L3.41406 12L6.70703 15.293C7.09742 15.6835 7.09751 16.3165 6.70703 16.707C6.31655 17.0974 5.68349 17.0974 5.29297 16.707L1.29297 12.707C0.902466 12.3165 0.902505 11.6835 1.29297 11.293L5.29297 7.29296Z" fill="#E4F2F2"/>
<path d="M17.293 7.29296C17.6835 6.90243 18.3165 6.90243 18.707 7.29296L22.707 11.293C23.0974 11.6835 23.0975 12.3165 22.707 12.707L18.707 16.707C18.3165 17.0974 17.6835 17.0974 17.293 16.707C16.9025 16.3165 16.9025 15.6835 17.293 15.293L20.5859 12L17.293 8.70702C16.9025 8.31652 16.9025 7.68349 17.293 7.29296Z" fill="#E4F2F2"/>
</svg>
