<svg width="24" height="24" viewBox="0 0 24 24" fill="none" xmlns="http://www.w3.org/2000/svg">
<path d="M7.29297 5.29295C7.68349 4.90243 8.31651 4.90243 8.70703 5.29295C9.09748 5.68348 9.09753 6.31652 8.70703 6.70702L3.41406 12L8.70703 17.293C9.09748 17.6835 9.09753 18.3165 8.70703 18.707C8.31653 19.0975 7.6835 19.0975 7.29297 18.707L1.29297 12.707C0.902445 12.3165 0.902445 11.6835 1.29297 11.293L7.29297 5.29295Z" fill="#E4F2F2"/>
<path d="M15.293 5.29295C15.6835 4.90243 16.3165 4.90243 16.707 5.29295L22.707 11.293C23.0975 11.6835 23.0975 12.3165 22.707 12.707L16.707 18.707C16.3165 19.0975 15.6835 19.0975 15.293 18.707C14.9024 18.3165 14.9024 17.6835 15.293 17.293L20.5859 12L15.293 6.70702C14.9024 6.31649 14.9024 5.68348 15.293 5.29295Z" fill="#E4F2F2"/>
</svg>
