<svg width="24" height="24" viewBox="0 0 24 24" fill="none" xmlns="http://www.w3.org/2000/svg">
<path fill-rule="evenodd" clip-rule="evenodd" d="M12.0342 1.00098C12.0518 1.00158 12.0694 1.00238 12.0869 1.00391C12.1106 1.00595 12.134 1.00903 12.1572 1.0127C12.1752 1.01555 12.1931 1.01862 12.2109 1.02246C12.2404 1.02878 12.2694 1.03607 12.2979 1.04492L12.3154 1.05078C12.3188 1.05188 12.3219 1.05355 12.3252 1.05469C12.359 1.0663 12.3918 1.07971 12.4238 1.09473C12.4307 1.09794 12.4375 1.10112 12.4443 1.10449C12.4712 1.11784 12.497 1.13281 12.5225 1.14844C12.5298 1.15292 12.5377 1.15644 12.5449 1.16113L22.5449 7.66113C22.5514 7.66532 22.5571 7.67048 22.5635 7.6748C22.5872 7.69101 22.6104 7.70818 22.6328 7.72656C22.6409 7.73316 22.6484 7.74025 22.6562 7.74707C22.6792 7.7671 22.7014 7.78817 22.7227 7.81055C22.7285 7.81673 22.7345 7.82278 22.7402 7.8291C22.7599 7.85089 22.7789 7.87361 22.7969 7.89746C22.8022 7.90448 22.8084 7.91082 22.8135 7.91797L22.8193 7.92676C22.84 7.95634 22.8589 7.98666 22.876 8.01758C22.8805 8.02574 22.8834 8.03469 22.8877 8.04297C22.9015 8.06973 22.9146 8.09652 22.9258 8.12402C22.9293 8.13271 22.9323 8.1416 22.9355 8.15039C22.9465 8.17973 22.9558 8.20934 22.9639 8.23926C22.9658 8.24643 22.9679 8.25352 22.9697 8.26074C22.9769 8.28991 22.9828 8.31915 22.9873 8.34863C22.9891 8.36032 22.9908 8.37201 22.9922 8.38379C22.9965 8.42056 22.9988 8.45732 22.999 8.49414L23 8.5V15.5L22.999 15.5049C22.9989 15.541 22.9972 15.5772 22.9932 15.6133C22.9917 15.6258 22.9892 15.638 22.9873 15.6504C22.9828 15.6799 22.9769 15.7091 22.9697 15.7383C22.968 15.7455 22.9658 15.7526 22.9639 15.7598C22.9558 15.7897 22.9465 15.8193 22.9355 15.8486C22.9323 15.8574 22.9293 15.8663 22.9258 15.875C22.9146 15.9025 22.9015 15.9293 22.8877 15.9561C22.8834 15.9643 22.8805 15.9733 22.876 15.9814C22.8588 16.0126 22.8402 16.0434 22.8193 16.0732C22.8124 16.0831 22.8041 16.0919 22.7969 16.1016C22.7789 16.1254 22.7599 16.1481 22.7402 16.1699C22.7345 16.1763 22.7285 16.1823 22.7227 16.1885C22.7012 16.211 22.6794 16.2327 22.6562 16.2529C22.6493 16.259 22.6419 16.2646 22.6348 16.2705C22.614 16.2876 22.5931 16.3041 22.5713 16.3193C22.5623 16.3256 22.5541 16.3329 22.5449 16.3389L12.5449 22.8389C12.5388 22.8428 12.5315 22.8448 12.5254 22.8486C12.4951 22.8674 12.464 22.8848 12.4316 22.9004C12.4241 22.904 12.4168 22.9077 12.4092 22.9111C12.3694 22.929 12.3285 22.9444 12.2861 22.957C12.278 22.9595 12.2699 22.9617 12.2617 22.9639C12.2294 22.9726 12.1966 22.9798 12.1631 22.9854C12.151 22.9873 12.1391 22.9897 12.127 22.9912C12.0853 22.9965 12.043 23 12 23C11.9566 23 11.914 22.9966 11.8721 22.9912C11.86 22.9897 11.848 22.9874 11.8359 22.9854C11.8024 22.9798 11.7696 22.9726 11.7373 22.9639C11.7291 22.9616 11.721 22.9595 11.7129 22.957C11.6706 22.9444 11.6296 22.9291 11.5898 22.9111C11.5823 22.9077 11.5749 22.904 11.5674 22.9004C11.535 22.8848 11.5039 22.8675 11.4736 22.8486C11.4677 22.845 11.4609 22.8427 11.4551 22.8389L1.45508 16.3389C1.44589 16.3329 1.43766 16.3256 1.42871 16.3193C1.40666 16.304 1.38517 16.2878 1.36426 16.2705C1.35711 16.2646 1.34974 16.259 1.34277 16.2529C1.31967 16.2327 1.29779 16.211 1.27637 16.1885C1.27049 16.1823 1.2645 16.1762 1.25879 16.1699C1.23911 16.1481 1.22014 16.1254 1.20215 16.1016C1.19501 16.0921 1.18745 16.083 1.18066 16.0732C1.15971 16.0433 1.14029 16.0128 1.12305 15.9814C1.11857 15.9733 1.11558 15.9643 1.11133 15.9561C1.09755 15.9293 1.0844 15.9025 1.07324 15.875C1.06973 15.8663 1.06675 15.8574 1.06348 15.8486C1.05254 15.8193 1.0432 15.7897 1.03516 15.7598C1.03323 15.7526 1.03107 15.7455 1.0293 15.7383C1.02215 15.7091 1.01618 15.6799 1.01172 15.6504C1.00985 15.6381 1.00825 15.6257 1.00684 15.6133C1.00323 15.5814 1.00053 15.5495 1 15.5176V8.48242C1.00054 8.44953 1.00303 8.41662 1.00684 8.38379L1.00781 8.37402C1.00927 8.36254 1.01182 8.35124 1.01367 8.33984C1.0172 8.31802 1.02039 8.29607 1.02539 8.27441C1.0276 8.26487 1.03072 8.25556 1.0332 8.24609C1.03956 8.22187 1.04644 8.1977 1.05469 8.17383C1.05927 8.16056 1.06518 8.14782 1.07031 8.13477C1.07634 8.11945 1.08203 8.10397 1.08887 8.08887C1.0969 8.07107 1.10521 8.05342 1.11426 8.03613C1.12268 8.02009 1.13124 8.004 1.14062 7.98828C1.14857 7.97494 1.15746 7.96219 1.16602 7.94922C1.17093 7.94178 1.17552 7.9341 1.18066 7.92676C1.18508 7.92045 1.1898 7.91438 1.19434 7.9082C1.20627 7.89194 1.21852 7.8759 1.23145 7.86035C1.2424 7.84716 1.25412 7.83476 1.26562 7.82227C1.27701 7.80992 1.28778 7.79695 1.2998 7.78516C1.31752 7.76777 1.33671 7.75218 1.35547 7.73633C1.36145 7.73128 1.36693 7.72562 1.37305 7.7207C1.39143 7.7059 1.41044 7.69207 1.42969 7.67871C1.43813 7.67285 1.44643 7.66675 1.45508 7.66113L11.4551 1.16113L11.4736 1.15039C11.5039 1.1316 11.5351 1.11417 11.5674 1.09863L11.583 1.09082C11.5853 1.08979 11.5876 1.08891 11.5898 1.08789C11.659 1.05677 11.7322 1.03336 11.8086 1.01855C11.8225 1.01584 11.8366 1.01384 11.8506 1.01172C11.8748 1.0081 11.8991 1.00479 11.9238 1.00293C11.9407 1.00164 11.9577 1.00141 11.9746 1.00098C11.9831 1.00077 11.9915 1 12 1C12.0114 1 12.0228 1.0006 12.0342 1.00098ZM3.78809 15.4678L11 20.1562V16.0205L6.99902 13.2197L3.78809 15.4678ZM13 16.0205V20.1562L20.2109 15.4678L17 13.2197L13 16.0205ZM8.74316 11.999L12 14.2793L15.2559 11.999L12 9.71973L8.74316 11.999ZM3 13.5791L5.25586 11.999L3 10.4199V13.5791ZM18.7432 11.999L21 13.5791V10.4199L18.7432 11.999ZM3.78711 8.53027L7 10.7793L11 7.97852V3.8418L3.78711 8.53027ZM13 7.97852L16.999 10.7783L20.2119 8.53027L13 3.8418V7.97852Z" fill="#E4F2F2"/>
</svg>
