<svg width="24" height="24" viewBox="0 0 24 24" fill="none" xmlns="http://www.w3.org/2000/svg">
<path fill-rule="evenodd" clip-rule="evenodd" d="M12 1.00195C12.5249 1.00195 13.0401 1.14067 13.4951 1.40234L13.4961 1.40137L16.6973 3.23047C16.9054 3.2725 17.0995 3.37953 17.2461 3.54395L20.4961 5.40137L20.5 5.4043L20.667 5.50781C20.9666 5.70804 21.2266 5.96151 21.4365 6.25391C21.4965 6.31396 21.5502 6.38209 21.5947 6.45898C21.6326 6.52448 21.6619 6.59279 21.6836 6.66211C21.8905 7.07662 21.9995 7.5341 22 7.99902V16.001C21.9995 16.5269 21.8608 17.0436 21.5977 17.499C21.3344 17.9544 20.9555 18.3327 20.5 18.5957L20.4961 18.5986L17.2422 20.457C17.1006 20.6145 16.9111 20.7267 16.6953 20.7695L13.4961 22.5986L13.4951 22.5977C13.1794 22.7792 12.8344 22.9001 12.4775 22.958C12.3356 23.0354 12.1731 23.0801 12 23.0801C11.8266 23.0801 11.6636 23.0357 11.5215 22.958C11.1646 22.9001 10.8196 22.7793 10.5039 22.5977L7.30371 20.7695C7.08807 20.7266 6.89824 20.6145 6.75684 20.457L3.50391 18.5986L3.5 18.5957C3.04446 18.3327 2.66559 17.9544 2.40234 17.499C2.1392 17.0436 2.00055 16.5269 2 16.001V7.99902L2.00684 7.80176C2.03343 7.40426 2.13813 7.01557 2.31641 6.65918C2.33801 6.59085 2.36694 6.52359 2.4043 6.45898C2.44936 6.38115 2.50461 6.31254 2.56543 6.25195C2.8132 5.90757 3.13072 5.61753 3.5 5.4043L3.50391 5.40137L6.75293 3.54395C6.89936 3.37951 7.0938 3.27268 7.30176 3.23047L10.5039 1.40137C10.9591 1.13942 11.4748 1.00195 12 1.00195ZM4 11.4219L8 13.7344C8.30913 13.913 8.49986 14.2426 8.5 14.5996V19.1484L11 20.5771V12.5869L4 8.53711V11.4219ZM13 12.5859V20.5771L15.5 19.1484V14.5996C15.5001 14.2426 15.6909 13.913 16 13.7344L20 11.4219V8.53613L13 12.5859ZM4 15.999L4.00879 16.1299C4.02601 16.2591 4.06818 16.3844 4.13379 16.498C4.22076 16.6485 4.34604 16.7738 4.49609 16.8613L6.5 18.0059V15.1768L4 13.7324V15.999ZM17.5 15.1768V18.0059L19.5039 16.8613C19.654 16.7738 19.7792 16.6485 19.8662 16.498C19.9536 16.3467 19.9996 16.1748 20 16V13.7324L17.5 15.1768ZM12.5 7.67578C12.1906 7.85448 11.8094 7.85448 11.5 7.67578L7.54785 5.39258L5.03613 6.82715L11.999 10.8545L18.9619 6.82715L16.4512 5.39258L12.5 7.67578ZM12 3.00195C11.8245 3.00195 11.652 3.04802 11.5 3.13574L11.4961 3.1377L9.55859 4.24414L12 5.65527L14.4404 4.24414L12.5039 3.1377L12.5 3.13574C12.348 3.04802 12.1755 3.00195 12 3.00195Z" fill="#E4F2F2"/>
</svg>
