<svg width="24" height="24" viewBox="0 0 24 24" fill="none" xmlns="http://www.w3.org/2000/svg">
<path fill-rule="evenodd" clip-rule="evenodd" d="M20 1C20.7957 1 21.5585 1.3163 22.1211 1.87891C22.6837 2.44151 23 3.20435 23 4V22C23 22.5523 22.5523 23 22 23H2C1.44772 23 1 22.5523 1 22C1 21.4477 1.44772 21 2 21H3.51562C3.18667 20.4157 3 19.7349 3 19V18C3 18.5523 2.55228 19 2 19C1.44772 19 1 18.5523 1 18C1 17.2043 1.3163 16.4415 1.87891 15.8789C2.41681 15.341 3.13786 15.0313 3.89551 15.0049C3.92984 15.0013 3.96473 15 4 15H10C10.5523 15 11 15.4477 11 16V19C11 19.7349 10.8133 20.4157 10.4844 21H13V12C13 11.7348 12.8946 11.4805 12.707 11.293C12.5195 11.1054 12.2652 11 12 11H8V12C8 12.5523 7.55228 13 7 13C6.44772 13 6 12.5523 6 12V11H4C3.20435 11 2.44151 10.6837 1.87891 10.1211C1.3163 9.55849 1 8.79565 1 8V4C1 3.20435 1.3163 2.44152 1.87891 1.87891C2.44152 1.3163 3.20435 1 4 1H20ZM5 19C5 20.1477 5.85228 21 7 21C8.14772 21 9 20.1477 9 19V17H5V19ZM4 3C3.73478 3 3.4805 3.10543 3.29297 3.29297C3.10543 3.4805 3 3.73478 3 4V8L3.00488 8.09863C3.02757 8.32763 3.12883 8.54289 3.29297 8.70703C3.48051 8.89457 3.73478 9 4 9H12C12.7957 9 13.5585 9.3163 14.1211 9.87891C14.6837 10.4415 15 11.2043 15 12V21H17V16C17 15.2043 17.3163 14.4415 17.8789 13.8789C18.4415 13.3163 19.2043 13 20 13H21V11H18C17.4477 11 17 10.5523 17 10C17 9.44771 17.4477 9 18 9H21V7H18C17.4477 7 17 6.55228 17 6C17 5.44772 17.4477 5 18 5H21V4C21 3.73478 20.8946 3.48051 20.707 3.29297C20.5195 3.10543 20.2652 3 20 3H11V4C11 4.79565 10.6837 5.55849 10.1211 6.12109C9.6289 6.61329 8.98351 6.91709 8.29688 6.98535L8 7C7.20435 7 6.44152 6.6837 5.87891 6.12109C5.3163 5.55848 5 4.79565 5 4V3H4ZM20 15C19.7348 15 19.4805 15.1054 19.293 15.293C19.1054 15.4805 19 15.7348 19 16V21H21V15H20ZM7 4L7.00488 4.09863C7.02757 4.32763 7.12883 4.54289 7.29297 4.70703C7.4805 4.89457 7.73478 5 8 5L8.09863 4.99512C8.32763 4.97243 8.54289 4.87117 8.70703 4.70703C8.89457 4.51949 9 4.26522 9 4V3H7V4Z" fill="#E4F2F2"/>
</svg>
