<svg width="24" height="24" viewBox="0 0 24 24" fill="none" xmlns="http://www.w3.org/2000/svg">
<path fill-rule="evenodd" clip-rule="evenodd" d="M13.1963 1.09421C16.077 0.708596 18.7894 1.47447 20.6582 3.34324C22.5267 5.21212 23.293 7.92449 22.9072 10.8052C22.5223 13.6789 21.0236 16.5365 18.7802 18.7798C16.5369 21.0231 13.6793 22.5218 10.8056 22.9067C7.92497 23.2925 5.21261 22.5262 3.34373 20.6577C1.47496 18.7889 0.709084 16.0765 1.0947 13.1958C1.47957 10.322 2.97827 7.46455 5.22166 5.22117C7.46504 2.97778 10.3225 1.47908 13.1963 1.09421ZM20.4912 6.64988C20.052 8.14405 19.1744 9.28388 18.0371 10.1792C16.4193 11.4527 14.2799 12.2276 12.3447 12.938C10.3301 13.6775 8.51972 14.3533 7.20017 15.3921C5.98673 16.3474 5.19536 17.6088 5.20017 19.6372C6.53858 20.7163 8.4075 21.2098 10.54 20.9243C12.9254 20.6048 15.3927 19.3392 17.3662 17.3657C19.3397 15.3922 20.6052 12.925 20.9248 10.5395C21.1183 9.09435 20.9523 7.77028 20.4912 6.64988ZM18.7998 4.36179C17.4614 3.28336 15.5928 2.7912 13.4609 3.07664C11.0755 3.39621 8.60915 4.6618 6.63572 6.63523C4.66229 8.60866 3.3967 11.0751 3.07712 13.4604C2.8837 14.9051 3.04807 16.2288 3.50876 17.3491C3.94794 15.8551 4.82575 14.715 5.96287 13.8198C7.58063 12.5463 9.72011 11.7714 11.6552 11.061C13.6696 10.3215 15.4802 9.6465 16.7998 8.60789C18.0135 7.65237 18.8049 6.39101 18.7998 4.36179Z" fill="#E4F2F2"/>
</svg>
