<svg width="24" height="24" viewBox="0 0 24 24" fill="none" xmlns="http://www.w3.org/2000/svg">
<path fill-rule="evenodd" clip-rule="evenodd" d="M6 13C8.76142 13 11 15.2386 11 18C11 20.7614 8.76142 23 6 23C3.23858 23 1 20.7614 1 18C1 15.2386 3.23858 13 6 13ZM6 15C4.34315 15 3 16.3431 3 18C3 19.6569 4.34315 21 6 21C7.65685 21 9 19.6569 9 18C9 16.3431 7.65685 15 6 15Z" fill="#E4F2F2"/>
<path d="M18.0205 13.001C18.0381 13.0013 18.0557 13.0017 18.0732 13.0029C18.1225 13.0065 18.1707 13.014 18.2178 13.0244C18.2269 13.0264 18.236 13.029 18.2451 13.0312C18.3141 13.0487 18.3799 13.0736 18.4424 13.1045C18.4746 13.1204 18.5064 13.1376 18.5371 13.1572C18.5714 13.1791 18.6045 13.2027 18.6357 13.2285C18.6602 13.2487 18.6841 13.2701 18.707 13.293L21.707 16.293C22.0976 16.6835 22.0976 17.3165 21.707 17.707C21.3165 18.0976 20.6835 18.0976 20.293 17.707L19 16.4141V19C19 21.2523 17.2523 23 15 23H14C13.4477 23 13 22.5523 13 22C13 21.4477 13.4477 21 14 21H15C16.1477 21 17 20.1477 17 19V16.4141L15.707 17.707C15.3165 18.0976 14.6835 18.0976 14.293 17.707C13.9024 17.3165 13.9024 16.6835 14.293 16.293L17.293 13.293C17.3548 13.2312 17.4248 13.1778 17.501 13.1338C17.5154 13.1255 17.5302 13.1179 17.5449 13.1104C17.6073 13.0784 17.6731 13.0526 17.7422 13.0342C17.7588 13.0298 17.7753 13.025 17.792 13.0215C17.803 13.0192 17.8141 13.0176 17.8252 13.0156C17.8427 13.0125 17.8603 13.01 17.8779 13.0078C17.8957 13.0056 17.9136 13.0041 17.9316 13.0029C17.9476 13.0018 17.9635 13.0013 17.9795 13.001C17.9863 13.0008 17.9931 13 18 13C18.0069 13 18.0137 13.0008 18.0205 13.001Z" fill="#E4F2F2"/>
<path d="M10 1C10.5523 1 11 1.44772 11 2C11 2.55228 10.5523 3 10 3H9C7.85228 3 7 3.85228 7 5V7.58594L8.29297 6.29297C8.68349 5.90244 9.31651 5.90244 9.70703 6.29297C10.0976 6.68349 10.0976 7.31651 9.70703 7.70703L6.70703 10.707C6.65922 10.7548 6.60646 10.7976 6.5498 10.835C6.51207 10.8599 6.47268 10.8811 6.43262 10.9004C6.3874 10.9222 6.34068 10.9412 6.29199 10.9561C6.27169 10.9622 6.25105 10.9668 6.23047 10.9717C6.21911 10.9744 6.2078 10.9772 6.19629 10.9795C6.18593 10.9816 6.17545 10.9826 6.16504 10.9844C6.11125 10.9933 6.05633 11 6 11C5.94333 11 5.88808 10.9934 5.83398 10.9844C5.82358 10.9826 5.81309 10.9816 5.80273 10.9795C5.79123 10.9772 5.77991 10.9744 5.76855 10.9717C5.74799 10.9668 5.72732 10.9623 5.70703 10.9561C5.65838 10.9412 5.61159 10.9222 5.56641 10.9004C5.52662 10.8812 5.48768 10.8597 5.4502 10.835C5.39354 10.7976 5.34078 10.7548 5.29297 10.707L2.29297 7.70703C1.90244 7.31651 1.90244 6.68349 2.29297 6.29297C2.68349 5.90244 3.31651 5.90244 3.70703 6.29297L5 7.58594V5C5 2.74772 6.74771 1 9 1H10Z" fill="#E4F2F2"/>
<path fill-rule="evenodd" clip-rule="evenodd" d="M18 1C20.7614 1 23 3.23858 23 6C23 8.76142 20.7614 11 18 11C15.2386 11 13 8.76142 13 6C13 3.23858 15.2386 1 18 1ZM18 3C16.3431 3 15 4.34315 15 6C15 7.65685 16.3431 9 18 9C19.6569 9 21 7.65685 21 6C21 4.34315 19.6569 3 18 3Z" fill="#E4F2F2"/>
</svg>
