<svg width="24" height="24" viewBox="0 0 24 24" fill="none" xmlns="http://www.w3.org/2000/svg">
<path fill-rule="evenodd" clip-rule="evenodd" d="M12 2C14.5629 2 16.9251 2.34449 18.6807 2.92969C19.5531 3.22053 20.3315 3.58931 20.9121 4.04688C21.4814 4.4956 22 5.14818 22 6V18C22 18.8525 21.4946 19.51 20.9199 19.9678C20.3392 20.4303 19.561 20.7986 18.6895 21.0869C16.9359 21.6669 14.5736 22 12 22C9.42641 22 7.06413 21.6669 5.31055 21.0869C4.43902 20.7986 3.66078 20.4303 3.08008 19.9678C2.50543 19.51 2 18.8525 2 18V6C2 5.14818 2.51859 4.4956 3.08789 4.04688C3.66849 3.58931 4.4469 3.22053 5.31934 2.92969C7.07494 2.34449 9.43715 2 12 2ZM20 16.5469C19.6008 16.751 19.1592 16.9315 18.6895 17.0869C16.9359 17.6669 14.5736 18 12 18C9.42641 18 7.06413 17.6669 5.31055 17.0869C4.84083 16.9315 4.3992 16.751 4 16.5469V18C4 18.0073 4.00043 18.0373 4.03906 18.1016C4.08153 18.1722 4.16684 18.2764 4.32617 18.4033C4.65163 18.6626 5.18613 18.9393 5.93945 19.1885C7.43585 19.6834 9.57385 20 12 20C14.4261 20 16.5642 19.6834 18.0605 19.1885C18.8139 18.9393 19.3484 18.6626 19.6738 18.4033C19.8332 18.2764 19.9185 18.1722 19.9609 18.1016C19.9996 18.0373 20 18.0073 20 18V16.5469ZM20 12.5469C19.6008 12.751 19.1592 12.9315 18.6895 13.0869C16.9359 13.6669 14.5736 14 12 14C9.42641 14 7.06413 13.6669 5.31055 13.0869C4.84083 12.9315 4.3992 12.751 4 12.5469V14C4 14.0073 4.00043 14.0373 4.03906 14.1016C4.08153 14.1722 4.16684 14.2764 4.32617 14.4033C4.65163 14.6626 5.18613 14.9393 5.93945 15.1885C7.43585 15.6834 9.57385 16 12 16C14.4261 16 16.5642 15.6834 18.0605 15.1885C18.8139 14.9393 19.3484 14.6626 19.6738 14.4033C19.8332 14.2764 19.9185 14.1722 19.9609 14.1016C19.9996 14.0373 20 14.0073 20 14V12.5469ZM20 8.52441C19.5986 8.72981 19.154 8.91253 18.6807 9.07031C16.9251 9.65551 14.5629 10 12 10C9.43715 10 7.07494 9.65551 5.31934 9.07031C4.84602 8.91253 4.40139 8.72981 4 8.52441V10C4 10.0073 4.00043 10.0373 4.03906 10.1016C4.08153 10.1722 4.16684 10.2764 4.32617 10.4033C4.65163 10.6626 5.18613 10.9393 5.93945 11.1885C7.43585 11.6834 9.57385 12 12 12C14.4261 12 16.5642 11.6834 18.0605 11.1885C18.8139 10.9393 19.3484 10.6626 19.6738 10.4033C19.8332 10.2764 19.9185 10.1722 19.9609 10.1016C19.9996 10.0373 20 10.0073 20 10V8.52441ZM12 4C9.59229 4 7.45391 4.32656 5.95215 4.82715C5.19606 5.07918 4.65634 5.35796 4.32617 5.61816C4.16419 5.74586 4.07758 5.84984 4.03516 5.91895C4.01518 5.95153 4.00637 5.97318 4.00293 5.98438C3.99978 5.99473 4 6 4 6C4 6 3.99978 6.00527 4.00293 6.01562C4.00637 6.02682 4.01518 6.04847 4.03516 6.08105C4.07758 6.15016 4.16419 6.25414 4.32617 6.38184C4.65634 6.64204 5.19606 6.92082 5.95215 7.17285C7.45391 7.67344 9.59229 8 12 8C14.4077 8 16.5461 7.67344 18.0479 7.17285C18.8039 6.92082 19.3437 6.64204 19.6738 6.38184C19.8358 6.25414 19.9224 6.15016 19.9648 6.08105C19.9848 6.04847 19.9936 6.02682 19.9971 6.01562C20.0002 6.00527 20 6 20 6C20 6 20.0002 5.99473 19.9971 5.98438C19.9936 5.97318 19.9848 5.95153 19.9648 5.91895C19.9224 5.84984 19.8358 5.74586 19.6738 5.61816C19.3437 5.35796 18.8039 5.07918 18.0479 4.82715C16.5461 4.32656 14.4077 4 12 4Z" fill="#E4F2F2"/>
</svg>
