<svg width="24" height="24" viewBox="0 0 24 24" fill="none" xmlns="http://www.w3.org/2000/svg">
<path d="M17.1533 10.0205C17.3464 9.50331 17.9221 9.24078 18.4395 9.43359C19.5421 9.84477 20.5239 10.5271 21.293 11.418C22.062 12.3089 22.5941 13.3793 22.8398 14.5303C23.0856 15.6812 23.0373 16.8757 22.6992 18.0029C22.3611 19.1302 21.7439 20.1548 20.9053 20.9805C20.0666 21.8061 19.0328 22.407 17.9004 22.7275C16.768 23.048 15.5727 23.0781 14.4258 22.8145C13.2788 22.5507 12.2167 22.0016 11.3379 21.2188C10.4591 20.4359 9.79137 19.444 9.39746 18.335C9.21268 17.8147 9.4847 17.2426 10.0049 17.0576C10.5252 16.8728 11.0973 17.1448 11.2822 17.665C11.5636 18.4572 12.0403 19.1664 12.668 19.7256C13.2957 20.2847 14.0548 20.6769 14.874 20.8652C15.6932 21.0535 16.5467 21.0316 17.3555 20.8027C18.1643 20.5738 18.9029 20.1444 19.502 19.5547C20.1008 18.965 20.5417 18.2338 20.7832 17.4287C21.0247 16.6235 21.0593 15.7703 20.8838 14.9482C20.7082 14.1261 20.3277 13.361 19.7783 12.7246C19.229 12.0884 18.5279 11.6003 17.7402 11.3066C17.2231 11.1135 16.9606 10.5378 17.1533 10.0205Z" fill="#E4F2F2"/>
<path d="M16.0078 13.168C16.401 12.7803 17.0341 12.7847 17.4219 13.1777L18.1221 13.8877C18.5078 14.2789 18.5056 14.9083 18.1172 15.2969L15.2969 18.1172C14.9064 18.5075 14.2733 18.5075 13.8828 18.1172C13.4925 17.7267 13.4925 17.0936 13.8828 16.7031L16 14.585L15.998 14.582C15.6105 14.1888 15.6147 13.5557 16.0078 13.168Z" fill="#E4F2F2"/>
<path d="M8.10254 5.00488C8.60667 5.05621 9 5.48232 9 6V10C9 10.5523 8.55228 11 8 11C7.44772 11 7 10.5523 7 10V7C6.44772 7 6 6.55228 6 6C6 5.44772 6.44772 5 7 5H8L8.10254 5.00488Z" fill="#E4F2F2"/>
<path fill-rule="evenodd" clip-rule="evenodd" d="M8 1C11.866 1 15 4.13401 15 8C15 11.866 11.866 15 8 15C4.13401 15 1 11.866 1 8C1 4.13401 4.13401 1 8 1ZM8 3C5.23858 3 3 5.23858 3 8C3 10.7614 5.23858 13 8 13C10.7614 13 13 10.7614 13 8C13 5.23858 10.7614 3 8 3Z" fill="#E4F2F2"/>
</svg>
