<svg width="24" height="24" viewBox="0 0 24 24" fill="none" xmlns="http://www.w3.org/2000/svg">
<path fill-rule="evenodd" clip-rule="evenodd" d="M16.0293 13.3711C16.5419 13.1665 17.1241 13.4162 17.3291 13.9287L17.376 14.0479C17.5793 14.016 17.7878 14 18 14C18.1478 14 18.2938 14.0078 18.4375 14.0234L18.4512 13.9834C18.6259 13.4598 19.1921 13.1772 19.7158 13.3516C20.2397 13.5262 20.5232 14.0923 20.3486 14.6162L20.3086 14.7344C20.6282 14.9607 20.9126 15.2328 21.1533 15.541L21.3291 15.4717C21.8418 15.2668 22.4238 15.5166 22.6289 16.0293C22.8335 16.5419 22.5838 17.1241 22.0713 17.3291L21.9512 17.376C21.983 17.5793 22 17.7877 22 18C22 18.1479 21.9912 18.2938 21.9756 18.4375L22.0156 18.4512C22.5395 18.6258 22.8229 19.192 22.6484 19.7158C22.4738 20.2397 21.9076 20.5231 21.3838 20.3486L21.2646 20.3086C21.0382 20.6282 20.7664 20.9126 20.458 21.1533L20.5283 21.3291C20.7332 21.8418 20.4843 22.4238 19.9717 22.6289C19.459 22.834 18.8771 22.5839 18.6719 22.0713L18.623 21.9512C18.42 21.9829 18.212 22 18 22C17.8515 22 17.7049 21.9914 17.5605 21.9756L17.5479 22.0156C17.3732 22.5396 16.8071 22.8231 16.2832 22.6484C15.7597 22.4736 15.4768 21.9075 15.6514 21.3838L15.6904 21.2646C15.3709 21.0382 15.0863 20.7663 14.8457 20.458L14.6709 20.5283C14.1582 20.7332 13.5762 20.4843 13.3711 19.9717C13.166 19.459 13.4161 18.8771 13.9287 18.6719L14.0479 18.623C14.0161 18.42 14 18.2119 14 18C14 17.8515 14.0077 17.7048 14.0234 17.5605L13.9834 17.5479C13.4598 17.373 13.177 16.807 13.3516 16.2832C13.5264 15.7597 14.0925 15.477 14.6162 15.6514L14.7344 15.6904C14.9607 15.3709 15.2328 15.0863 15.541 14.8457L15.4717 14.6709C15.2668 14.1582 15.5166 13.5762 16.0293 13.3711ZM18 16C17.7965 16 17.6001 16.0304 17.415 16.0869C17.3424 16.1436 17.2617 16.1925 17.1719 16.2285C17.1067 16.2546 17.0401 16.2734 16.9736 16.2852C16.3909 16.6347 16 17.271 16 18C16 18.2032 16.0306 18.3992 16.0869 18.584C16.144 18.6569 16.1924 18.7388 16.2285 18.8291C16.2541 18.8931 16.2724 18.9581 16.2842 19.0234C16.6334 19.6076 17.27 20 18 20C18.2033 20 18.3991 19.9685 18.584 19.9121C18.6568 19.8552 18.739 19.8075 18.8291 19.7715C18.8932 19.7459 18.9581 19.7266 19.0234 19.7148C19.6074 19.3656 20 18.7299 20 18C20 17.7964 19.9687 17.6001 19.9121 17.415C19.8555 17.3425 19.8074 17.2615 19.7715 17.1719C19.7454 17.1067 19.7256 17.0401 19.7139 16.9736C19.3643 16.3911 18.7288 16 18 16Z" fill="#E4F2F2"/>
<path fill-rule="evenodd" clip-rule="evenodd" d="M19 2C19.7957 2 20.5585 2.3163 21.1211 2.87891C21.6837 3.44151 22 4.20435 22 5V10.5C22 11.0523 21.5523 11.5 21 11.5C20.4477 11.5 20 11.0523 20 10.5V5C20 4.73478 19.8946 4.48051 19.707 4.29297C19.5195 4.10543 19.2652 4 19 4H16V10.5C16 11.0523 15.5523 11.5 15 11.5C14.4477 11.5 14 11.0523 14 10.5V4H10V20H10.5C11.0523 20 11.5 20.4477 11.5 21C11.5 21.5523 11.0523 22 10.5 22H5C4.20435 22 3.44151 21.6837 2.87891 21.1211C2.3163 20.5585 2 19.7957 2 19V5C2 4.20435 2.3163 3.44152 2.87891 2.87891C3.44152 2.3163 4.20435 2 5 2H19ZM5 4C4.73478 4 4.4805 4.10543 4.29297 4.29297C4.10543 4.4805 4 4.73478 4 5V19C4 19.2652 4.10543 19.5195 4.29297 19.707C4.48051 19.8946 4.73478 20 5 20H8V4H5Z" fill="#E4F2F2"/>
</svg>
