<svg width="24" height="24" viewBox="0 0 24 24" fill="none" xmlns="http://www.w3.org/2000/svg">
<path fill-rule="evenodd" clip-rule="evenodd" d="M16.4702 2.30519C17.201 2.00261 18.005 1.92335 18.7808 2.07765C19.5566 2.23204 20.2693 2.61305 20.8286 3.17238C21.3879 3.73174 21.769 4.44445 21.9234 5.22023C22.0776 5.99592 21.9984 6.80008 21.6958 7.53078C21.3931 8.26154 20.8808 8.88719 20.2232 9.32667C19.5654 9.76614 18.7915 10.0004 18.0005 10.0005H16.0005V14.0005H18.0005C18.7915 14.0006 19.5654 14.2349 20.2232 14.6743C20.8807 15.1138 21.3931 15.7395 21.6958 16.4702C21.9983 17.2009 22.0776 18.0051 21.9234 18.7808C21.769 19.5566 21.388 20.2693 20.8286 20.8286C20.2693 21.388 19.5566 21.769 18.7808 21.9234C18.0051 22.0776 17.2009 21.9983 16.4702 21.6958C15.7395 21.3931 15.1138 20.8807 14.6743 20.2232C14.2349 19.5654 14.0006 18.7915 14.0005 18.0005V16.0005H10.0005V18.0005C10.0004 18.7915 9.76614 19.5654 9.32667 20.2232C8.88719 20.8808 8.26154 21.3931 7.53078 21.6958C6.80008 21.9984 5.99592 22.0776 5.22023 21.9234C4.44445 21.769 3.73174 21.3879 3.17238 20.8286C2.61305 20.2693 2.23204 19.5566 2.07765 18.7808C1.92335 18.005 2.00261 17.201 2.30519 16.4702C2.60792 15.7394 3.12011 15.1139 3.77785 14.6743C4.43563 14.2348 5.20941 14.0005 6.0005 14.0005H8.0005V10.0005H6.0005C5.20952 10.0005 4.43557 9.76605 3.77785 9.32667C3.12022 8.88723 2.60794 8.26148 2.30519 7.53078C2.00258 6.80004 1.9234 5.99596 2.07765 5.22023C2.23199 4.4443 2.61297 3.73179 3.17238 3.17238C3.73179 2.61297 4.4443 2.23199 5.22023 2.07765C5.99596 1.9234 6.80004 2.00258 7.53078 2.30519C8.26148 2.60794 8.88723 3.12022 9.32667 3.77785C9.76605 4.43557 10.0005 5.20952 10.0005 6.0005V8.0005H14.0005V6.0005C14.0005 5.20941 14.2348 4.43563 14.6743 3.77785C15.1139 3.12011 15.7394 2.60792 16.4702 2.30519ZM6.0005 16.0005C5.60497 16.0005 5.21806 16.1177 4.88917 16.3374C4.56038 16.5571 4.30423 16.8696 4.15285 17.2349C4.00152 17.6003 3.96143 18.0032 4.03859 18.3911C4.11585 18.7788 4.30691 19.135 4.58644 19.4146C4.86601 19.694 5.2222 19.8852 5.60988 19.9624C5.99773 20.0395 6.40079 19.9995 6.76613 19.8482C7.13135 19.6968 7.44391 19.4405 7.66359 19.1118C7.88329 18.783 8.00044 18.396 8.0005 18.0005V16.0005H6.0005ZM16.0005 18.0005C16.0006 18.396 16.1177 18.783 16.3374 19.1118C16.5571 19.4405 16.8697 19.6968 17.2349 19.8482C17.6002 19.9994 18.0033 20.0396 18.3911 19.9624C18.7789 19.8852 19.135 19.6941 19.4146 19.4146C19.6941 19.135 19.8852 18.7789 19.9624 18.3911C20.0396 18.0033 19.9994 17.6002 19.8482 17.2349C19.6968 16.8697 19.4405 16.5571 19.1118 16.3374C18.783 16.1177 18.396 16.0006 18.0005 16.0005H16.0005V18.0005ZM10.0005 14.0005H14.0005V10.0005H10.0005V14.0005ZM6.76613 4.15285C6.40075 4.0015 5.99777 3.96148 5.60988 4.03859C5.22206 4.11581 4.86606 4.30682 4.58644 4.58644C4.30682 4.86606 4.11581 5.22206 4.03859 5.60988C3.96148 5.99777 4.0015 6.40075 4.15285 6.76613C4.30424 7.13129 4.56049 7.44395 4.88917 7.66359C5.218 7.8832 5.60508 8.0005 6.0005 8.0005H8.0005V6.0005C8.0005 5.60508 7.8832 5.218 7.66359 4.88917C7.44395 4.56049 7.13129 4.30424 6.76613 4.15285ZM18.3911 4.03859C18.0032 3.96143 17.6003 4.00152 17.2349 4.15285C16.8696 4.30423 16.5571 4.56038 16.3374 4.88917C16.1177 5.21806 16.0005 5.60497 16.0005 6.0005V8.0005H18.0005C18.396 8.00044 18.783 7.88329 19.1118 7.66359C19.4405 7.44391 19.6968 7.13135 19.8482 6.76613C19.9995 6.40079 20.0395 5.99773 19.9624 5.60988C19.8852 5.2222 19.694 4.86601 19.4146 4.58644C19.135 4.30691 18.7788 4.11585 18.3911 4.03859Z" fill="#E4F2F2"/>
</svg>
