<svg width="24" height="24" viewBox="0 0 24 24" fill="none" xmlns="http://www.w3.org/2000/svg">
<path fill-rule="evenodd" clip-rule="evenodd" d="M22 11C22.5523 11 23 11.4477 23 12C22.9999 12.5522 22.5522 13 22 13H21V20C21 20.7956 20.6837 21.5585 20.1211 22.1211C19.5585 22.6836 18.7956 23 18 23H6C5.20439 23 4.44151 22.6836 3.87891 22.1211C3.31634 21.5585 3.00005 20.7956 3 20V13H2C1.44778 13 1.0001 12.5522 1 12C1 11.4477 1.44772 11 2 11H22ZM5 20L5.00488 20.0986C5.02761 20.3276 5.12887 20.5429 5.29297 20.707C5.4805 20.8945 5.73483 21 6 21H18C18.2652 21 18.5195 20.8945 18.707 20.707C18.8945 20.5195 19 20.2651 19 20V13H5V20Z" fill="#E4F2F2"/>
<path fill-rule="evenodd" clip-rule="evenodd" d="M12.7285 1.03125C13.1191 1.08921 13.4945 1.22441 13.833 1.42773C14.1714 1.63105 14.4666 1.89927 14.7012 2.21679C14.9352 2.53386 15.1044 2.89485 15.1992 3.27734L15.4092 4.11719L19.7578 3.03027C20.2935 2.89647 20.8358 3.22209 20.9697 3.75781C21.1034 4.29347 20.7778 4.83581 20.2422 4.96972L4.24219 8.96972C3.70654 9.10348 3.16427 8.77778 3.03027 8.24219C2.89648 7.70648 3.22212 7.16422 3.75781 7.03027L7.64941 6.05664L7.43945 5.21094L7.44043 5.20996C7.34478 4.82931 7.32314 4.43331 7.37988 4.04492C7.4369 3.65503 7.57055 3.27978 7.77246 2.9414C7.97443 2.60301 8.2415 2.30757 8.55762 2.07226C8.87368 1.83704 9.23321 1.66666 9.61523 1.57031L9.61914 1.56836L11.5596 1.08887C11.9415 0.993225 12.339 0.973541 12.7285 1.03125ZM12.4346 3.00976C12.3044 2.99053 12.1715 2.99718 12.0439 3.02929L12.04 3.03027L10.0996 3.51074L10.0986 3.50976C9.97338 3.5421 9.85578 3.59952 9.75195 3.67676C9.64659 3.75519 9.55755 3.854 9.49023 3.96679C9.42304 4.07944 9.37841 4.20421 9.35938 4.33398C9.34514 4.43141 9.34479 4.53091 9.35938 4.62793L9.37891 4.72461L9.37988 4.72851L9.58887 5.57226L13.4697 4.60156L13.2598 3.76172L13.2588 3.75976C13.2272 3.63209 13.1709 3.5111 13.0928 3.40527C13.0146 3.29943 12.9155 3.20937 12.8027 3.1416C12.69 3.07399 12.5646 3.02904 12.4346 3.00976Z" fill="#E4F2F2"/>
</svg>
