<svg width="24" height="24" viewBox="0 0 24 24" fill="none" xmlns="http://www.w3.org/2000/svg">
<path d="M10.9995 16C11.5518 16 11.9995 16.4477 11.9995 17V17.0098C11.9995 17.562 11.5518 18.0098 10.9995 18.0098C10.4474 18.0096 9.99953 17.5619 9.99953 17.0098V17C9.99953 16.4478 10.4474 16.0002 10.9995 16Z" fill="#E4F2F2"/>
<path d="M15.9995 14.5C16.5518 14.5 16.9995 14.9477 16.9995 15.5V15.5098C16.9995 16.0621 16.5518 16.5098 15.9995 16.5098C15.4474 16.5096 14.9995 16.0619 14.9995 15.5098V15.5C14.9995 14.9478 15.4474 14.5002 15.9995 14.5Z" fill="#E4F2F2"/>
<path d="M6.99953 13C7.55181 13 7.99953 13.4477 7.99953 14V14.0098C7.99953 14.5621 7.55181 15.0098 6.99953 15.0098C6.4474 15.0096 5.99953 14.5619 5.99953 14.0098V14C5.99953 13.4478 6.4474 13.0002 6.99953 13Z" fill="#E4F2F2"/>
<path d="M11.9995 11C12.5518 11 12.9995 11.4477 12.9995 12V12.0098C12.9995 12.5621 12.5518 13.0098 11.9995 13.0098C11.4474 13.0096 10.9995 12.5619 10.9995 12.0098V12C10.9995 11.4478 11.4474 11.0002 11.9995 11Z" fill="#E4F2F2"/>
<path d="M8.49953 7.5C9.05181 7.5 9.49953 7.94772 9.49953 8.5V8.50977C9.49953 9.06205 9.05181 9.50977 8.49953 9.50977C7.9474 9.50958 7.49953 9.06194 7.49953 8.50977V8.5C7.49953 7.94783 7.9474 7.50019 8.49953 7.5Z" fill="#E4F2F2"/>
<path fill-rule="evenodd" clip-rule="evenodd" d="M12.1177 1.00684C12.3899 1.0392 12.6393 1.18299 12.8042 1.40625C12.9925 1.66142 13.0488 1.99084 12.9556 2.29395C12.7951 2.81513 12.7793 3.37112 12.9107 3.90039C13.0421 4.4295 13.3152 4.91329 13.7007 5.29883C14.0862 5.68432 14.5701 5.95739 15.0991 6.08887C15.6284 6.22025 16.1844 6.20435 16.7056 6.04395C17.0595 5.93514 17.4447 6.03123 17.7066 6.29297C17.9684 6.55484 18.0644 6.93998 17.9556 7.29395C17.7951 7.81513 17.7793 8.37112 17.9107 8.90039C18.0421 9.4295 18.3152 9.91329 18.7007 10.2988C19.0862 10.6843 19.5701 10.9574 20.0991 11.0889C20.6284 11.2203 21.1844 11.2044 21.7056 11.0439C22.0086 10.9508 22.3381 11.0072 22.5933 11.1953C22.8486 11.3838 22.9995 11.6826 22.9995 12C22.9995 14.1756 22.3547 16.3024 21.146 18.1113C19.9374 19.9201 18.2193 21.3305 16.2095 22.1631C14.1998 22.9955 11.9875 23.2133 9.85402 22.7891C7.72036 22.3646 5.75951 21.3166 4.22121 19.7783C2.68293 18.24 1.63489 16.2792 1.21047 14.1455C0.786201 12.0119 1.004 9.7998 1.83644 7.79004C2.66898 5.78024 4.07944 4.06216 5.8882 2.85352C7.69702 1.64493 9.8241 1.00007 11.9995 1L12.1177 1.00684ZM10.8247 3.07812C9.46149 3.25769 8.15149 3.74692 6.99953 4.5166C5.5197 5.50546 4.36625 6.91135 3.68508 8.55566C3.00394 10.2001 2.82514 12.0101 3.17238 13.7559C3.51964 15.5016 4.3767 17.1056 5.63527 18.3643C6.89386 19.6228 8.49798 20.4798 10.2437 20.8271C11.9894 21.1744 13.7994 20.9955 15.4439 20.3145C17.0882 19.6333 18.4941 18.4799 19.4829 17C20.2528 15.8477 20.741 14.5375 20.9204 13.1738C20.4838 13.1824 20.0455 13.1365 19.6177 13.0303C18.7356 12.8112 17.9293 12.3556 17.2866 11.7129C16.644 11.0702 16.1883 10.264 15.9693 9.38184C15.8707 8.98491 15.8245 8.5791 15.8247 8.17383C15.4199 8.17399 15.0142 8.1287 14.6177 8.03027C13.7356 7.81122 12.9293 7.35556 12.2866 6.71289C11.644 6.07017 11.1883 5.26396 10.9693 4.38184C10.863 3.95366 10.8161 3.51519 10.8247 3.07812Z" fill="#E4F2F2"/>
</svg>
