<svg width="24" height="24" viewBox="0 0 24 24" fill="none" xmlns="http://www.w3.org/2000/svg">
<path d="M18 16C18.5523 16 19 16.4477 19 17C19 17.5523 18.5523 18 18 18H12C11.4477 18 11 17.5523 11 17C11 16.4477 11.4477 16 12 16H18Z" fill="#E4F2F2"/>
<path d="M18 12C18.5523 12 19 12.4477 19 13C19 13.5523 18.5523 14 18 14H12C11.4477 14 11 13.5523 11 13C11 12.4477 11.4477 12 12 12H18Z" fill="#E4F2F2"/>
<path fill-rule="evenodd" clip-rule="evenodd" d="M20 7C21.6569 7 23 8.34315 23 10V20C23 21.6569 21.6569 23 20 23H10C8.34315 23 7 21.6569 7 20V10C7 8.34315 8.34315 7 10 7H20ZM10 9C9.44771 9 9 9.44771 9 10V20C9 20.5523 9.44771 21 10 21H20C20.5523 21 21 20.5523 21 20V10C21 9.44771 20.5523 9 20 9H10Z" fill="#E4F2F2"/>
<path d="M14 1C14.7956 1 15.5585 1.3163 16.1211 1.87891C16.6837 2.44151 17 3.20435 17 4C17 4.55228 16.5523 5 16 5C15.4477 5 15 4.55228 15 4C15 3.73478 14.8946 3.48051 14.707 3.29297C14.5195 3.10543 14.2652 3 14 3H4C3.73478 3 3.4805 3.10543 3.29297 3.29297C3.10543 3.4805 3 3.73478 3 4V14C3 14.2652 3.10543 14.5195 3.29297 14.707C3.48051 14.8946 3.73478 15 4 15C4.55228 15 5 15.4477 5 16C5 16.5523 4.55228 17 4 17C3.20435 17 2.44151 16.6837 1.87891 16.1211C1.3163 15.5585 1 14.7956 1 14V4C1 3.20435 1.3163 2.44152 1.87891 1.87891C2.44152 1.3163 3.20435 1 4 1H14Z" fill="#E4F2F2"/>
</svg>
