<svg width="24" height="24" viewBox="0 0 24 24" fill="none" xmlns="http://www.w3.org/2000/svg">
<path d="M12.0098 17C12.5621 17 13.0098 17.4477 13.0098 18C13.0098 18.5523 12.5621 19 12.0098 19H12C11.4477 19 11 18.5523 11 18C11 17.4477 11.4477 17 12 17H12.0098Z" fill="#E4F2F2"/>
<path d="M17.0518 11.6836C17.2265 11.1598 17.7926 10.8771 18.3164 11.0518C18.8402 11.2265 19.1229 11.7926 18.9482 12.3164L16.9482 18.3164C16.7735 18.8402 16.2074 19.1229 15.6836 18.9482C15.1598 18.7735 14.8771 18.2074 15.0518 17.6836L17.0518 11.6836Z" fill="#E4F2F2"/>
<path fill-rule="evenodd" clip-rule="evenodd" d="M20 7C21.6569 7 23 8.34315 23 10V20C23 21.6569 21.6569 23 20 23H10C8.34315 23 7 21.6569 7 20V10C7 8.34315 8.34315 7 10 7H20ZM10 9C9.44771 9 9 9.44771 9 10V20C9 20.5523 9.44771 21 10 21H20C20.5523 21 21 20.5523 21 20V10C21 9.44771 20.5523 9 20 9H10Z" fill="#E4F2F2"/>
<path d="M14 1C15.6523 1 17 2.34772 17 4C17 4.55228 16.5523 5 16 5C15.4477 5 15 4.55228 15 4C15 3.45228 14.5477 3 14 3H4C3.45228 3 3 3.45228 3 4V14C3 14.5477 3.45228 15 4 15C4.55228 15 5 15.4477 5 16C5 16.5523 4.55228 17 4 17C2.34772 17 1 15.6523 1 14V4C1 2.34772 2.34772 1 4 1H14Z" fill="#E4F2F2"/>
</svg>
