<svg width="24" height="24" viewBox="0 0 24 24" fill="none" xmlns="http://www.w3.org/2000/svg">
<path d="M18 11C18.5523 11 19 11.4477 19 12V13C19 13.5523 18.5523 14 18 14C17.4477 14 17 13.5523 17 13H16V17C16.5523 17 17 17.4477 17 18C17 18.5523 16.5523 19 16 19H14C13.4477 19 13 18.5523 13 18C13 17.4477 13.4477 17 14 17V13H13C13 13.5523 12.5523 14 12 14C11.4477 14 11 13.5523 11 13V12C11 11.4477 11.4477 11 12 11H18Z" fill="#E4F2F2"/>
<path fill-rule="evenodd" clip-rule="evenodd" d="M20 7C21.6569 7 23 8.34315 23 10V20C23 21.6569 21.6569 23 20 23H10C8.34315 23 7 21.6569 7 20V10C7 8.34315 8.34315 7 10 7H20ZM10 9C9.44771 9 9 9.44771 9 10V20C9 20.5523 9.44771 21 10 21H20C20.5523 21 21 20.5523 21 20V10C21 9.44771 20.5523 9 20 9H10Z" fill="#E4F2F2"/>
<path d="M14 1C15.6523 1 17 2.34772 17 4C17 4.55228 16.5523 5 16 5C15.4477 5 15 4.55228 15 4C15 3.45228 14.5477 3 14 3H4C3.45228 3 3 3.45228 3 4V14C3 14.5477 3.45228 15 4 15C4.55228 15 5 15.4477 5 16C5 16.5523 4.55228 17 4 17C2.34772 17 1 15.6523 1 14V4C1 2.34772 2.34772 1 4 1H14Z" fill="#E4F2F2"/>
</svg>
