<svg width="24" height="24" viewBox="0 0 24 24" fill="none" xmlns="http://www.w3.org/2000/svg">
<path d="M15 11C15.5523 11 16 11.4477 16 12V15.5859L17.293 14.293C17.6835 13.9024 18.3165 13.9024 18.707 14.293C19.0976 14.6835 19.0976 15.3165 18.707 15.707L15.707 18.707C15.6592 18.7548 15.6065 18.7976 15.5498 18.835C15.5121 18.8599 15.4727 18.8811 15.4326 18.9004C15.3874 18.9222 15.3407 18.9412 15.292 18.9561C15.2717 18.9622 15.251 18.9668 15.2305 18.9717C15.2191 18.9744 15.2078 18.9772 15.1963 18.9795C15.1859 18.9816 15.1754 18.9826 15.165 18.9844C15.1112 18.9933 15.0563 19 15 19C14.9433 19 14.8881 18.9934 14.834 18.9844C14.8236 18.9826 14.8131 18.9816 14.8027 18.9795C14.7912 18.9772 14.7799 18.9744 14.7686 18.9717C14.748 18.9668 14.7273 18.9623 14.707 18.9561C14.6584 18.9412 14.6116 18.9222 14.5664 18.9004C14.5266 18.8812 14.4877 18.8597 14.4502 18.835C14.3935 18.7976 14.3408 18.7548 14.293 18.707L11.293 15.707C10.9024 15.3165 10.9024 14.6835 11.293 14.293C11.6835 13.9024 12.3165 13.9024 12.707 14.293L14 15.5859V12C14 11.4477 14.4477 11 15 11Z" fill="#E4F2F2"/>
<path fill-rule="evenodd" clip-rule="evenodd" d="M20 7C21.6569 7 23 8.34315 23 10V20C23 21.6569 21.6569 23 20 23H10C8.34315 23 7 21.6569 7 20V10C7 8.34315 8.34315 7 10 7H20ZM10 9C9.44771 9 9 9.44771 9 10V20C9 20.5523 9.44771 21 10 21H20C20.5523 21 21 20.5523 21 20V10C21 9.44771 20.5523 9 20 9H10Z" fill="#E4F2F2"/>
<path d="M14 1C14.7956 1 15.5585 1.3163 16.1211 1.87891C16.6837 2.44151 17 3.20435 17 4C17 4.55228 16.5523 5 16 5C15.4477 5 15 4.55228 15 4C15 3.73478 14.8946 3.48051 14.707 3.29297C14.5195 3.10543 14.2652 3 14 3H4C3.73478 3 3.4805 3.10543 3.29297 3.29297C3.10543 3.4805 3 3.73478 3 4V14C3 14.2652 3.10543 14.5195 3.29297 14.707C3.48051 14.8946 3.73478 15 4 15C4.55228 15 5 15.4477 5 16C5 16.5523 4.55228 17 4 17C3.20435 17 2.44151 16.6837 1.87891 16.1211C1.3163 15.5585 1 14.7956 1 14V4C1 3.20435 1.3163 2.44152 1.87891 1.87891C2.44152 1.3163 3.20435 1 4 1H14Z" fill="#E4F2F2"/>
</svg>
