<svg width="24" height="24" viewBox="0 0 24 24" fill="none" xmlns="http://www.w3.org/2000/svg">
<path d="M15.0205 3.00098C15.0381 3.00133 15.0557 3.00165 15.0732 3.00293C15.0909 3.00421 15.1085 3.00562 15.126 3.00781C15.1378 3.0093 15.1494 3.01177 15.1611 3.01367C15.1802 3.01676 15.1991 3.02026 15.2178 3.02441C15.2269 3.02645 15.236 3.02895 15.2451 3.03125C15.3141 3.04866 15.3799 3.07357 15.4424 3.10449C15.4746 3.12042 15.5064 3.13761 15.5371 3.15723C15.5449 3.16219 15.5529 3.16671 15.5605 3.17188C15.6122 3.2069 15.6613 3.24722 15.707 3.29297L20.707 8.29297C21.0976 8.68349 21.0976 9.31651 20.707 9.70703C20.3165 10.0976 19.6835 10.0976 19.293 9.70703L16 6.41406V16C16 17.3261 15.4728 18.5975 14.5352 19.5352C13.5975 20.4728 12.3261 21 11 21H4C3.44772 21 3 20.5523 3 20C3 19.4477 3.44772 19 4 19H11C11.7956 19 12.5585 18.6837 13.1211 18.1211C13.6133 17.6289 13.9171 16.9835 13.9854 16.2969L14 16V6.41406L10.707 9.70703C10.3165 10.0976 9.68349 10.0976 9.29297 9.70703C8.90244 9.31651 8.90244 8.68349 9.29297 8.29297L14.293 3.29297C14.3548 3.23117 14.4248 3.17778 14.501 3.13379C14.5154 3.12546 14.5302 3.1179 14.5449 3.11035C14.6073 3.0784 14.6731 3.05257 14.7422 3.03418C14.7588 3.02976 14.7753 3.02503 14.792 3.02148C14.803 3.01916 14.8141 3.01758 14.8252 3.01562C14.8427 3.01252 14.8603 3.00998 14.8779 3.00781C14.8957 3.00565 14.9136 3.00415 14.9316 3.00293C14.9476 3.00184 14.9635 3.00131 14.9795 3.00098C14.9863 3.00084 14.9931 3 15 3C15.0069 3 15.0137 3.00084 15.0205 3.00098Z" fill="#E4F2F2"/>
</svg>
