<svg width="24" height="24" viewBox="0 0 24 24" fill="none" xmlns="http://www.w3.org/2000/svg">
<path d="M8.29297 3.29295C8.68349 2.90243 9.31651 2.90243 9.70703 3.29295C10.0975 3.68348 10.0975 4.3165 9.70703 4.70702L6.41406 7.99999H16C17.3261 7.99999 18.5975 8.52715 19.5352 9.46483C20.4728 10.4025 21 11.6739 21 13V20C21 20.5522 20.5523 21 20 21C19.4477 21 19 20.5522 19 20V13C19 12.2044 18.6837 11.4415 18.1211 10.8789C17.6289 10.3867 16.9835 10.0829 16.2969 10.0146L16 9.99999H6.41406L9.70703 13.293C10.0975 13.6835 10.0975 14.3165 9.70703 14.707C9.31652 15.0975 8.68348 15.0975 8.29297 14.707L3.29297 9.70702C3.24631 9.66036 3.20472 9.6088 3.16797 9.5537C3.14195 9.51471 3.11956 9.47411 3.09961 9.4326C3.07767 9.38703 3.05788 9.3401 3.04297 9.291C3.0379 9.27428 3.03445 9.25714 3.03027 9.24022C3.01125 9.16318 3.00001 9.0829 3 8.99999C3 8.92031 3.00974 8.84283 3.02734 8.76854C3.03221 8.74799 3.03678 8.72729 3.04297 8.70702C3.05787 8.65827 3.07777 8.61166 3.09961 8.56639C3.11877 8.5266 3.1403 8.48767 3.16504 8.45018C3.20242 8.39352 3.24516 8.34077 3.29297 8.29295L8.29297 3.29295Z" fill="#E4F2F2"/>
</svg>
