<svg width="24" height="24" viewBox="0 0 24 24" fill="none" xmlns="http://www.w3.org/2000/svg">
<path d="M9.02049 3.00098C9.03808 3.00133 9.05567 3.00165 9.07323 3.00293C9.09093 3.00421 9.10853 3.00562 9.12596 3.00781C9.13774 3.0093 9.14939 3.01177 9.16112 3.01367C9.17987 3.01671 9.19839 3.02034 9.21678 3.02441C9.22788 3.02687 9.23896 3.02939 9.24999 3.03223C9.31726 3.04956 9.38136 3.07429 9.44237 3.10449C9.53766 3.15158 9.62767 3.21362 9.70702 3.29297L14.707 8.29297C15.0975 8.68348 15.0975 9.31652 14.707 9.70703C14.3165 10.0975 13.6835 10.0975 13.293 9.70703L9.99999 6.41406V16L10.0146 16.2969C10.0829 16.9835 10.3867 17.6289 10.8789 18.1211C11.4415 18.6837 12.2044 19 13 19H20C20.5522 19 21 19.4477 21 20C21 20.5523 20.5522 21 20 21H13C11.6739 21 10.4025 20.4728 9.46483 19.5352C8.52715 18.5975 7.99999 17.3261 7.99999 16V6.41406L4.70702 9.70703C4.3165 10.0975 3.68348 10.0975 3.29295 9.70703C2.90243 9.31651 2.90243 8.68349 3.29295 8.29297L8.29295 3.29297C8.35012 3.2358 8.41476 3.18656 8.48436 3.14453C8.50431 3.13248 8.52434 3.12088 8.54491 3.11035C8.60725 3.07841 8.6731 3.05256 8.74217 3.03418C8.75875 3.02977 8.77524 3.02503 8.79198 3.02148C8.80295 3.01917 8.81408 3.01758 8.82518 3.01562C8.8427 3.01252 8.86029 3.00998 8.87792 3.00781C8.89568 3.00565 8.91358 3.00415 8.93163 3.00293C8.94757 3.00184 8.96351 3.00131 8.97948 3.00098C8.98628 3.00084 8.99315 3 8.99999 3C9.00684 3 9.01367 3.00084 9.02049 3.00098Z" fill="#E4F2F2"/>
</svg>
