<svg width="24" height="24" viewBox="0 0 24 24" fill="none" xmlns="http://www.w3.org/2000/svg">
<path d="M20 3C20.5523 3 21 3.44772 21 4V11C21 12.3261 20.4728 13.5975 19.5352 14.5352C18.5975 15.4728 17.3261 16 16 16H6.41406L9.70703 19.293C10.0976 19.6835 10.0976 20.3165 9.70703 20.707C9.31651 21.0976 8.68349 21.0976 8.29297 20.707L3.29297 15.707C3.26503 15.6791 3.23976 15.6494 3.21582 15.6191C3.18002 15.5739 3.14776 15.5257 3.12012 15.4746C3.11269 15.4609 3.10634 15.4466 3.09961 15.4326C3.07754 15.3868 3.05792 15.3395 3.04297 15.29C3.02998 15.2471 3.02075 15.2032 3.01367 15.1592C3.00536 15.1073 3 15.0542 3 15C3 14.9203 3.00973 14.8429 3.02734 14.7686C3.03231 14.7476 3.03761 14.7267 3.04395 14.7061C3.05879 14.6577 3.07794 14.6113 3.09961 14.5664C3.11877 14.5266 3.1403 14.4877 3.16504 14.4502C3.20242 14.3935 3.24516 14.3408 3.29297 14.293L8.29297 9.29297C8.68349 8.90244 9.31651 8.90244 9.70703 9.29297C10.0976 9.68349 10.0976 10.3165 9.70703 10.707L6.41406 14H16L16.2969 13.9854C16.9835 13.9171 17.6289 13.6133 18.1211 13.1211C18.6837 12.5585 19 11.7956 19 11V4C19 3.44772 19.4477 3 20 3Z" fill="#E4F2F2"/>
</svg>
