<svg width="24" height="24" viewBox="0 0 24 24" fill="none" xmlns="http://www.w3.org/2000/svg">
<path d="M20 3C20.5522 3.00004 21 3.44774 21 4C21 4.55226 20.5522 4.99996 20 5H13C12.2044 5 11.4415 5.31632 10.8789 5.87891C10.3163 6.44152 9.99999 7.20435 9.99999 8V17.5859L13.293 14.293C13.6835 13.9025 14.3165 13.9025 14.707 14.293C15.0975 14.6835 15.0975 15.3165 14.707 15.707L9.70702 20.707C9.66049 20.7536 9.60863 20.7944 9.5537 20.8311C9.51457 20.8572 9.47427 20.8804 9.4326 20.9004C9.38711 20.9223 9.34 20.9412 9.291 20.9561C9.27426 20.9611 9.25716 20.9646 9.24022 20.9688C9.22462 20.9726 9.20923 20.9774 9.19335 20.9805C9.18625 20.9819 9.17898 20.9822 9.17186 20.9834C9.11592 20.9931 9.0587 21 8.99999 21L8.89745 20.9951C8.87597 20.9929 8.85503 20.9879 8.83397 20.9844C8.82357 20.9826 8.81307 20.9816 8.80272 20.9795C8.79122 20.9772 8.7799 20.9744 8.76854 20.9717C8.74797 20.9668 8.7273 20.9623 8.70702 20.9561C8.65836 20.9412 8.61158 20.9222 8.56639 20.9004C8.5266 20.8812 8.48767 20.8597 8.45018 20.835C8.39352 20.7976 8.34077 20.7548 8.29295 20.707L3.29295 15.707C2.90243 15.3165 2.90243 14.6835 3.29295 14.293C3.68348 13.9025 4.3165 13.9025 4.70702 14.293L7.99999 17.5859V8C7.99999 6.67392 8.52715 5.40253 9.46483 4.46484C10.4025 3.52719 11.6739 3 13 3H20Z" fill="#E4F2F2"/>
</svg>
