<svg width="24" height="24" viewBox="0 0 24 24" fill="none" xmlns="http://www.w3.org/2000/svg">
<path d="M14.293 3.29295C14.6835 2.90243 15.3165 2.90243 15.707 3.29295L20.707 8.29295C20.7548 8.34077 20.7976 8.39352 20.835 8.45018C20.8597 8.48767 20.8812 8.5266 20.9004 8.56639C20.9222 8.61158 20.9412 8.65836 20.9561 8.70702C20.9623 8.7273 20.9668 8.74797 20.9717 8.76854C20.9893 8.8429 21 8.92023 21 8.99999C21 9.08298 20.9878 9.16311 20.9688 9.24022C20.9646 9.25716 20.9611 9.27426 20.9561 9.291C20.9412 9.34 20.9223 9.38711 20.9004 9.4326C20.8804 9.47427 20.8572 9.51457 20.8311 9.5537C20.7944 9.60863 20.7536 9.66049 20.707 9.70702L15.707 14.707C15.3165 15.0975 14.6835 15.0975 14.293 14.707C13.9025 14.3165 13.9025 13.6835 14.293 13.293L17.5859 9.99999H8C7.20435 9.99999 6.44152 10.3163 5.87891 10.8789C5.31632 11.4415 5 12.2044 5 13V20C4.99996 20.5522 4.55226 21 4 21C3.44774 21 3.00004 20.5522 3 20V13C3 11.6739 3.52719 10.4025 4.46484 9.46483C5.40253 8.52715 6.67392 7.99999 8 7.99999H17.5859L14.293 4.70702C13.9025 4.3165 13.9025 3.68348 14.293 3.29295Z" fill="#E4F2F2"/>
</svg>
