<svg width="24" height="24" viewBox="0 0 24 24" fill="none" xmlns="http://www.w3.org/2000/svg">
<path fill-rule="evenodd" clip-rule="evenodd" d="M6.5 15.5C6.91657 15.5001 7.29009 15.7585 7.43652 16.1484C7.64562 16.706 7.98484 17.2223 8.41699 17.6934L8.60742 17.8926L8.62598 17.9121C9.02001 18.3276 9.28405 18.8494 9.38477 19.4131C9.48545 19.977 9.41847 20.5586 9.19238 21.085C8.96628 21.6112 8.59055 22.0598 8.1123 22.375C7.63392 22.6901 7.07285 22.8583 6.5 22.8584C5.92723 22.8583 5.36701 22.69 4.88867 22.375C4.41024 22.0598 4.03478 21.6113 3.80859 21.085C3.58242 20.5585 3.5155 19.9771 3.61621 19.4131C3.71697 18.8493 3.98082 18.3276 4.375 17.9121L4.39355 17.8926C4.91694 17.3691 5.32556 16.7855 5.56445 16.1484L5.62891 16.0088C5.80405 15.698 6.13544 15.5001 6.5 15.5ZM6.5 18.5176C6.2901 18.7917 6.0628 19.048 5.8252 19.2871L5.82617 19.2881C5.70109 19.4199 5.61699 19.5858 5.58496 19.7646C5.55299 19.9437 5.57372 20.1288 5.64551 20.2959C5.71726 20.4628 5.83663 20.6051 5.98828 20.7051C6.14002 20.805 6.31834 20.8583 6.5 20.8584C6.68171 20.8583 6.85996 20.805 7.01172 20.7051C7.16338 20.6051 7.28272 20.4628 7.35449 20.2959C7.42624 20.1289 7.44796 19.9436 7.41602 19.7646C7.38402 19.5858 7.29983 19.4199 7.1748 19.2881C6.93722 19.049 6.70989 18.7917 6.5 18.5176Z" fill="#E4F2F2"/>
<path fill-rule="evenodd" clip-rule="evenodd" d="M17.5 15.5C17.9166 15.5001 18.2901 15.7585 18.4365 16.1484C18.6456 16.706 18.9848 17.2223 19.417 17.6934L19.6074 17.8926L19.626 17.9121C20.02 18.3276 20.284 18.8494 20.3848 19.4131C20.4855 19.977 20.4185 20.5586 20.1924 21.085C19.9663 21.6112 19.5906 22.0598 19.1123 22.375C18.6339 22.6901 18.0729 22.8583 17.5 22.8584C16.9272 22.8583 16.367 22.69 15.8887 22.375C15.4102 22.0598 15.0348 21.6113 14.8086 21.085C14.5824 20.5585 14.5155 19.9771 14.6162 19.4131C14.717 18.8493 14.9808 18.3276 15.375 17.9121L15.3936 17.8926C15.9169 17.3691 16.3256 16.7855 16.5645 16.1484L16.6289 16.0088C16.804 15.698 17.1354 15.5001 17.5 15.5ZM17.5 18.5176C17.2901 18.7917 17.0628 19.048 16.8252 19.2871L16.8262 19.2881C16.7011 19.4199 16.617 19.5858 16.585 19.7646C16.553 19.9437 16.5737 20.1288 16.6455 20.2959C16.7173 20.4628 16.8366 20.6051 16.9883 20.7051C17.14 20.805 17.3183 20.8583 17.5 20.8584C17.6817 20.8583 17.86 20.805 18.0117 20.7051C18.1634 20.6051 18.2827 20.4628 18.3545 20.2959C18.4262 20.1289 18.448 19.9436 18.416 19.7646C18.384 19.5858 18.2998 19.4199 18.1748 19.2881C17.9372 19.049 17.7099 18.7917 17.5 18.5176Z" fill="#E4F2F2"/>
<path fill-rule="evenodd" clip-rule="evenodd" d="M22 1C22.5523 1 23 1.44772 23 2C23 3.95839 22.4734 5.93778 21.4717 7.5459L22.5723 9.51172C22.9634 10.1875 23.073 10.9898 22.877 11.7461C22.6791 12.5091 22.1862 13.1619 21.5068 13.5615C20.8274 13.9612 20.017 14.0748 19.2539 13.877C18.4909 13.6791 17.8381 13.1862 17.4385 12.5068C17.4352 12.5013 17.4319 12.4958 17.4287 12.4902L17.0361 11.793C16.3911 12.1396 15.7078 12.4088 15 12.5986V14C15 14.7957 14.6837 15.5585 14.1211 16.1211C13.5585 16.6837 12.7957 17 12 17C11.2043 17 10.4415 16.6837 9.87891 16.1211C9.3163 15.5585 9 14.7957 9 14V12.5645C8.27279 12.3445 7.60587 12.0692 6.98438 11.7539L6.57129 12.4902C6.54093 12.5442 6.50562 12.5951 6.46582 12.6426C6.00972 13.1859 5.37589 13.5506 4.67676 13.6709C3.97774 13.7911 3.25884 13.6594 2.64746 13.2998C2.03602 12.9401 1.57147 12.3755 1.33691 11.7061C1.10236 11.0366 1.11291 10.3052 1.36621 9.64258C1.38347 9.59749 1.40415 9.55384 1.42773 9.51172L2.52734 7.5459C1.52575 5.93786 1 3.95822 1 2C1 1.44772 1.44772 1 2 1H22ZM3.05566 3C3.21678 4.45817 3.72501 5.84205 4.50684 6.9082C4.7385 7.22411 4.76362 7.64645 4.57227 7.98828L3.21582 10.4102C3.14993 10.6166 3.15263 10.8395 3.22461 11.0449C3.30282 11.268 3.45738 11.4563 3.66113 11.5762C3.86494 11.696 4.10487 11.7393 4.33789 11.6992C4.54626 11.6633 4.73606 11.5616 4.88281 11.4111L5.72852 9.91016L5.78223 9.82422C5.91695 9.63286 6.11549 9.49412 6.34375 9.43359C6.60482 9.36442 6.88267 9.40402 7.11426 9.54297C8.04367 10.1006 9.04671 10.5533 10.2246 10.8252C10.6783 10.9299 10.9999 11.3342 11 11.7998V14C11 14.2652 11.1054 14.5195 11.293 14.707C11.4805 14.8946 11.7348 15 12 15C12.2652 15 12.5195 14.8946 12.707 14.707C12.8946 14.5195 13 14.2652 13 14V11.7998C13.0001 11.3139 13.3494 10.8979 13.8281 10.8145C14.9063 10.6265 15.9302 10.2048 16.8281 9.5791C17.0594 9.41798 17.3483 9.36196 17.623 9.4248C17.8979 9.48768 18.1333 9.66443 18.2715 9.91016L19.1641 11.4971C19.295 11.7173 19.5078 11.8771 19.7559 11.9414C20.0055 12.0061 20.2709 11.9686 20.4932 11.8379C20.7153 11.7071 20.8767 11.4936 20.9414 11.2441C21.0061 10.9945 20.9686 10.7291 20.8379 10.5068C20.8343 10.5008 20.8306 10.4944 20.8271 10.4883L19.4277 7.98828C19.2364 7.64645 19.2615 7.22411 19.4932 6.9082C20.275 5.84205 20.7832 4.45817 20.9443 3H3.05566Z" fill="#E4F2F2"/>
</svg>
