<svg width="24" height="24" viewBox="0 0 24 24" fill="none" xmlns="http://www.w3.org/2000/svg">
<path d="M9.00977 17C9.56205 17 10.0098 17.4477 10.0098 18C10.0098 18.5523 9.56205 19 9.00977 19H9C8.44772 19 8 18.5523 8 18C8 17.4477 8.44772 17 9 17H9.00977Z" fill="#E4F2F2"/>
<path d="M15.0098 17C15.5621 17 16.0098 17.4477 16.0098 18C16.0098 18.5523 15.5621 19 15.0098 19H15C14.4477 19 14 18.5523 14 18C14 17.4477 14.4477 17 15 17H15.0098Z" fill="#E4F2F2"/>
<path d="M9 8.5C9.55229 8.5 10 8.94772 10 9.5V10C10 10.5523 9.55229 11 9 11C8.44772 11 8 10.5523 8 10V9.5C8 8.94772 8.44772 8.5 9 8.5Z" fill="#E4F2F2"/>
<path d="M15 8.5C15.5523 8.5 16 8.94772 16 9.5V10C16 10.5523 15.5523 11 15 11C14.4477 11 14 10.5523 14 10V9.5C14 8.94772 14.4477 8.5 15 8.5Z" fill="#E4F2F2"/>
<path fill-rule="evenodd" clip-rule="evenodd" d="M5 2C6.3333 2 7.52417 2.64209 8.24512 3.63574C9.44648 3.19946 10.7171 2.97559 12 2.97559C13.2826 2.97559 14.5528 3.19966 15.7539 3.63574C16.4748 2.64183 17.6665 2 19 2H22C22.5523 2 23 2.44772 23 3V5C23 6.94695 21.6937 8.5154 19.8848 8.90527C20.1618 10.9585 19.8535 13.051 18.9912 14.9414C19.2272 15.2463 19.43 15.577 19.5908 15.9307C19.9387 16.696 20.0885 17.5376 20.0254 18.376C19.9622 19.2143 19.6881 20.023 19.2295 20.7275C18.7708 21.4322 18.1415 22.0101 17.4004 22.4072C16.6625 22.8025 15.837 23.0056 15 22.999L9 23C8.16275 23.0066 7.33674 22.8027 6.59863 22.4072C5.85773 22.0101 5.22813 21.4321 4.76953 20.7275C4.31107 20.0231 4.03683 19.2141 3.97363 18.376C3.91051 17.5376 4.06032 16.696 4.4082 15.9307C4.56895 15.5771 4.7719 15.2463 5.00781 14.9414C4.14554 13.0511 3.83724 10.9583 4.11426 8.90527C2.3058 8.51506 1 6.94662 1 5V3C1 2.44772 1.44772 2 2 2H5ZM15.459 15.0293C14.9597 14.9588 14.4502 15.0151 13.9785 15.1934C13.5068 15.3717 13.0876 15.6666 12.7598 16.0498C12.5699 16.2717 12.292 16.3993 12 16.3994C11.7079 16.3993 11.4291 16.2718 11.2393 16.0498C10.9114 15.6667 10.4922 15.3716 10.0205 15.1934C9.54884 15.0152 9.03926 14.9587 8.54004 15.0293C8.04083 15.1 7.56683 15.2957 7.16309 15.5977C6.75925 15.8999 6.43723 16.2996 6.22852 16.7588C6.01989 17.2179 5.9309 17.7227 5.96875 18.2256C6.00667 18.7284 6.17032 19.2141 6.44531 19.6367C6.72043 20.0594 7.0985 20.4063 7.54297 20.6445C7.98735 20.8826 8.48514 21.0048 8.98926 21H15.0098C15.5139 21.0049 16.0116 20.8826 16.4561 20.6445C16.9007 20.4063 17.2785 20.0595 17.5537 19.6367C17.8288 19.214 17.9923 18.7285 18.0303 18.2256C18.0681 17.7227 17.9792 17.2179 17.7705 16.7588C17.5617 16.2997 17.2398 15.8998 16.8359 15.5977C16.4322 15.2958 15.9582 15.0999 15.459 15.0293ZM3 5C3 6.14772 3.85228 7 5 7H5.2998C5.60684 7 5.89734 7.14129 6.08691 7.38281C6.27626 7.62423 6.34429 7.93926 6.27148 8.2373C5.83481 10.0228 5.95839 11.8895 6.6084 13.5898C7.12178 13.316 7.67988 13.1309 8.25977 13.0488C9.09207 12.9311 9.9412 13.0262 10.7275 13.3232C11.1856 13.4964 11.6132 13.7368 11.999 14.0322C12.385 13.7365 12.8131 13.4965 13.2715 13.3232C14.0578 13.0261 14.9069 12.9312 15.7393 13.0488C16.319 13.1308 16.8773 13.3161 17.3906 13.5898C18.0407 11.8894 18.1652 10.0229 17.7285 8.2373C17.6557 7.93926 17.7237 7.62423 17.9131 7.38281C18.1027 7.14129 18.3932 7 18.7002 7H19C20.1477 7 21 6.14772 21 5V4H19C18.1116 4 17.3929 4.54571 17.1396 5.24219C17.0439 5.50505 16.8423 5.71577 16.584 5.82324C16.3257 5.93068 16.0342 5.92505 15.7803 5.80762C14.5955 5.25933 13.3054 4.97559 12 4.97559C10.6946 4.97559 9.40445 5.25933 8.21973 5.80762C7.9658 5.92505 7.67433 5.93068 7.41602 5.82324C7.15772 5.71577 6.95608 5.50505 6.86035 5.24219C6.60709 4.54571 5.88843 4 5 4H3V5Z" fill="#E4F2F2"/>
</svg>
