<svg width="24" height="24" viewBox="0 0 24 24" fill="none" xmlns="http://www.w3.org/2000/svg">
<path fill-rule="evenodd" clip-rule="evenodd" d="M13.6689 1.41701C14.6063 1.0884 15.6032 0.962612 16.5928 1.04884C17.5822 1.13509 18.5419 1.43127 19.4082 1.91701C20.2745 2.4028 21.0285 3.06698 21.6182 3.86623C22.2078 4.66545 22.6205 5.5817 22.8291 6.55275C22.9173 6.96339 22.9651 7.38038 22.9785 7.79787C22.9919 7.86312 23 7.93079 23 8.00001C23 8.06674 22.992 8.13226 22.9795 8.19533C22.9687 8.63249 22.9199 9.06921 22.8271 9.49904C22.6176 10.4698 22.2037 11.385 21.6133 12.1836C21.0228 12.9822 20.2691 13.6469 19.4023 14.1319C19.1759 14.2585 18.9422 14.3703 18.7041 14.4707C19.0093 14.7921 19.2705 15.1446 19.4785 15.5225C20.0905 15.2443 20.9332 15 22 15C22.5523 15 23 15.4477 23 16C23 16.5523 22.5523 17 22 17C21.1728 17 20.575 17.2057 20.1973 17.3945C20.1228 17.4318 20.0571 17.4693 19.999 17.5039C19.9988 17.71 19.9826 17.9115 19.9521 18.1084C21.7262 18.5222 23 20.0772 23 22C23 22.5523 22.5523 23 22 23C21.4477 23 21 22.5523 21 22C21 20.8997 20.2166 20.0725 19.1406 20.0059C18.7068 20.5962 18.1365 21.108 17.4902 21.5235C16.0394 22.456 14.0956 23 12 23C9.90441 23 7.96056 22.456 6.50977 21.5235C5.86336 21.1079 5.29229 20.5964 4.8584 20.0059C3.78293 20.0729 3.00001 20.9001 3 22C3 22.5523 2.55228 23 2 23C1.44772 23 1 22.5523 1 22C1.00001 20.0776 2.2733 18.5226 4.04688 18.1084C4.01644 17.9115 4.0002 17.7099 4 17.5039C3.94212 17.4695 3.87685 17.4316 3.80273 17.3945C3.42502 17.2057 2.82723 17 2 17C1.44772 17 1 16.5523 1 16C1.00001 15.4477 1.44772 15 2 15C3.06636 15 3.90856 15.2444 4.52051 15.5225C4.72846 15.1446 4.98981 14.7921 5.29492 14.4707C5.05714 14.3704 4.82387 14.2584 4.59766 14.1319C3.73085 13.6469 2.97722 12.9822 2.38672 12.1836C1.79629 11.385 1.3824 10.4698 1.17285 9.49904C1.08009 9.06921 1.03133 8.63249 1.02051 8.19533C1.00802 8.13226 1.00002 8.06674 1 8.00001C1.00002 7.93079 1.00807 7.86312 1.02148 7.79787C1.03489 7.38038 1.08274 6.96339 1.1709 6.55275C1.37946 5.5817 1.7922 4.66545 2.38184 3.86623C2.97154 3.06698 3.72545 2.4028 4.5918 1.91701C5.45813 1.43127 6.41777 1.13509 7.40723 1.04884C8.39678 0.962612 9.39369 1.08839 10.3311 1.41701C10.6324 1.52281 10.8649 1.76643 10.957 2.07228C11.049 2.37808 10.9897 2.70932 10.7969 2.96388L9.32324 4.90919L10.707 6.29298C10.952 6.53805 11.0532 6.89325 10.9736 7.23048C10.8939 7.56749 10.645 7.83968 10.3164 7.94923L10.3135 7.95021C10.3126 7.95049 10.3116 7.95084 10.3105 7.95119C10.3078 7.95206 10.3039 7.95278 10.2998 7.95412C10.2916 7.95679 10.2805 7.96048 10.2666 7.96486C10.2383 7.9738 10.1976 7.98673 10.1465 8.00197C10.0441 8.03246 9.8959 8.07426 9.70508 8.12404C9.32293 8.22372 8.76711 8.35468 8.05371 8.48439C6.83844 8.70534 5.16421 8.92231 3.10938 8.98244C3.11553 9.01389 3.12116 9.0458 3.12793 9.07716C3.27761 9.77053 3.57245 10.4247 3.99414 10.9951C4.41592 11.5656 4.95509 12.0394 5.57422 12.3858C6.13897 12.7017 6.75939 12.903 7.40039 12.9824C7.89713 12.7453 8.43339 12.5464 9 12.3916V11C9.00001 10.4477 9.44772 10 10 10C10.5523 10 11 10.4477 11 11V12.043C11.3285 12.0154 11.6622 12 12 12C12.3378 12 12.6715 12.0154 13 12.043V11C13 10.4477 13.4477 10 14 10C14.5523 10 15 10.4477 15 11V12.3916C15.5663 12.5463 16.1021 12.7455 16.5986 12.9824C17.24 12.903 17.8607 12.7018 18.4258 12.3858C19.0449 12.0394 19.5841 11.5656 20.0059 10.9951C20.4275 10.4247 20.7224 9.77053 20.8721 9.07716C20.8788 9.04587 20.8835 9.01383 20.8896 8.98244C18.8353 8.92227 17.1614 8.7053 15.9463 8.48439C15.2329 8.35468 14.6771 8.22372 14.2949 8.12404C14.1041 8.07426 13.9559 8.03246 13.8535 8.00197C13.8024 7.98673 13.7617 7.9738 13.7334 7.96486C13.7195 7.96048 13.7084 7.95679 13.7002 7.95412C13.6961 7.95278 13.6922 7.95206 13.6895 7.95119C13.6884 7.95084 13.6874 7.95049 13.6865 7.95021L13.6846 7.94923C13.356 7.83968 13.1061 7.56749 13.0264 7.23048C12.9468 6.89325 13.048 6.53805 13.293 6.29298L14.6758 4.90919L13.2031 2.96388C13.0103 2.70932 12.951 2.37808 13.043 2.07228C13.1351 1.76643 13.3676 1.52281 13.6689 1.41701ZM12 14C10.2298 14 8.67349 14.4632 7.59082 15.1592C6.49755 15.8621 6.00001 16.713 6 17.5C6 18.287 6.49755 19.138 7.59082 19.8408C8.67349 20.5368 10.2297 21 12 21C13.7703 21 15.3265 20.5368 16.4092 19.8408C17.5025 19.138 18 18.287 18 17.5C18 16.713 17.5025 15.8621 16.4092 15.1592C15.3265 14.4632 13.7702 14 12 14ZM7.58105 3.04103C6.87424 3.10263 6.18819 3.31415 5.56934 3.66115C4.95062 4.00813 4.41238 4.48291 3.99121 5.05373C3.57008 5.62458 3.27591 6.27911 3.12695 6.97267C3.12639 6.97519 3.12554 6.97796 3.125 6.98048C5.03585 6.92055 6.58427 6.7188 7.69629 6.51662C7.81467 6.49509 7.92775 6.47151 8.03613 6.45021L7.29297 5.70705C6.93998 5.3539 6.90171 4.79456 7.20312 4.3965L8.23828 3.02834C8.01966 3.01856 7.80012 3.02195 7.58105 3.04103ZM15.7607 3.02834L16.7969 4.3965C17.0983 4.79456 17.06 5.3539 16.707 5.70705L15.9629 6.45021C16.0716 6.47157 16.185 6.49503 16.3037 6.51662C17.4155 6.71876 18.9636 6.92051 20.874 6.98048C20.8735 6.97802 20.8735 6.97514 20.873 6.97267C20.7241 6.27911 20.4299 5.62458 20.0088 5.05373C19.5876 4.48291 19.0494 4.00813 18.4307 3.66115C17.8118 3.31415 17.1258 3.10263 16.4189 3.04103C16.1996 3.02192 15.9797 3.0185 15.7607 3.02834Z" fill="#E4F2F2"/>
</svg>
