<svg width="24" height="24" viewBox="0 0 24 24" fill="none" xmlns="http://www.w3.org/2000/svg">
<path d="M11.293 14.293C11.6835 13.9024 12.3165 13.9024 12.707 14.293L13.707 15.293C14.0976 15.6835 14.0976 16.3165 13.707 16.707C13.3165 17.0976 12.6835 17.0976 12.293 16.707L11.293 15.707C10.9024 15.3165 10.9024 14.6835 11.293 14.293Z" fill="#E4F2F2"/>
<path d="M14.293 11.293C14.6835 10.9024 15.3165 10.9024 15.707 11.293L16.707 12.293C17.0976 12.6835 17.0976 13.3165 16.707 13.707C16.3165 14.0976 15.6835 14.0976 15.293 13.707L14.293 12.707C13.9024 12.3165 13.9024 11.6835 14.293 11.293Z" fill="#E4F2F2"/>
<path d="M7.29297 10.293C7.68349 9.90244 8.31651 9.90244 8.70703 10.293L9.70703 11.293C10.0976 11.6835 10.0976 12.3165 9.70703 12.707C9.31651 13.0976 8.68349 13.0976 8.29297 12.707L7.29297 11.707C6.90244 11.3165 6.90244 10.6835 7.29297 10.293Z" fill="#E4F2F2"/>
<path d="M10.293 7.29297C10.6835 6.90244 11.3165 6.90244 11.707 7.29297L12.707 8.29297C13.0976 8.68349 13.0976 9.31651 12.707 9.70703C12.3165 10.0976 11.6835 10.0976 11.293 9.70703L10.293 8.70703C9.90244 8.31651 9.90244 7.68349 10.293 7.29297Z" fill="#E4F2F2"/>
<path fill-rule="evenodd" clip-rule="evenodd" d="M12 1C18.0751 1 23 5.92487 23 12C23 18.0751 18.0751 23 12 23C5.92487 23 1 18.0751 1 12C1 5.92487 5.92487 1 12 1ZM12 3C10.6565 3 9.3823 3.29548 8.2373 3.82324L8.70703 4.29297C9.09717 4.68352 9.09743 5.31664 8.70703 5.70703C8.31664 6.09743 7.68352 6.09717 7.29297 5.70703L6.47949 4.89355C5.88721 5.35432 5.35432 5.88721 4.89355 6.47949L5.70703 7.29297C6.09717 7.68352 6.09743 8.31664 5.70703 8.70703C5.31664 9.09743 4.68352 9.09717 4.29297 8.70703L3.82324 8.2373C3.29548 9.3823 3 10.6565 3 12C3 16.9706 7.02944 21 12 21C13.3433 21 14.6168 20.7034 15.7617 20.1758L15.293 19.707C14.9024 19.3165 14.9024 18.6835 15.293 18.293C15.6835 17.9024 16.3165 17.9024 16.707 18.293L17.5195 19.1055C18.1119 18.6446 18.6446 18.1119 19.1055 17.5195L18.293 16.707C17.9024 16.3165 17.9024 15.6835 18.293 15.293C18.6835 14.9024 19.3165 14.9024 19.707 15.293L20.1758 15.7617C20.7034 14.6168 21 13.3433 21 12C21 7.02944 16.9706 3 12 3Z" fill="#E4F2F2"/>
</svg>
