<svg width="24" height="24" viewBox="0 0 24 24" fill="none" xmlns="http://www.w3.org/2000/svg">
<path d="M5.99999 5.99953C6.55217 5.99953 6.99982 6.44739 6.99999 6.99953V21.9995C6.99999 22.5518 6.55228 22.9995 5.99999 22.9995C5.44785 22.9994 4.99999 22.5517 4.99999 21.9995V6.99953C5.00016 6.44749 5.44795 5.9997 5.99999 5.99953Z" fill="#E4F2F2"/>
<path fill-rule="evenodd" clip-rule="evenodd" d="M13.0732 6.00246C13.6239 6.0428 14.0372 6.52211 13.9971 7.07277L13.7412 10.5601C14.5023 11.1041 14.9999 11.9927 15 12.9995C15 14.1303 14.3741 15.1142 13.4502 15.6255L12.9971 22.0698C12.9582 22.6207 12.4806 23.0364 11.9297 22.9976C11.379 22.9586 10.9642 22.48 11.0029 21.9292L11.4238 15.9439C10.0428 15.675 8.99999 14.4592 8.99999 12.9995C9.00015 11.4178 10.2247 10.1224 11.7773 10.0083L12.0029 6.92629C12.0435 6.3758 12.5227 5.96225 13.0732 6.00246ZM12 11.9995C11.448 11.9997 11.0002 12.4475 11 12.9995C11 13.5517 11.4479 13.9994 12 13.9995C12.0249 13.9995 12.0498 13.9974 12.0742 13.9956C12.1823 13.9446 12.3007 13.9131 12.4248 13.9038C12.7645 13.744 13 13.3998 13 12.9995C12.9998 12.4474 12.5522 11.9995 12 11.9995Z" fill="#E4F2F2"/>
<path d="M18 5.99953C18.5522 5.99953 18.9998 6.44739 19 6.99953V21.9995C19 22.5518 18.5523 22.9995 18 22.9995C17.4479 22.9994 17 22.5517 17 21.9995V6.99953C17.0002 6.44749 17.448 5.9997 18 5.99953Z" fill="#E4F2F2"/>
<path d="M5.10546 1.55226C5.35243 1.0585 5.95339 0.858317 6.44726 1.105L10.4473 3.105C10.9412 3.35196 11.1414 3.95284 10.8945 4.44679C10.6475 4.94077 10.0467 5.14105 9.55273 4.89406L5.55273 2.89406C5.05902 2.64695 4.85853 2.04612 5.10546 1.55226Z" fill="#E4F2F2"/>
<path d="M17.7578 1.0298C18.2934 0.896033 18.8356 1.22184 18.9697 1.75734C19.1035 2.29306 18.7779 2.83532 18.2422 2.96925L14.2422 3.96925C13.7065 4.10291 13.1642 3.77736 13.0303 3.24171C12.8967 2.70619 13.2223 2.16379 13.7578 2.0298L17.7578 1.0298Z" fill="#E4F2F2"/>
</svg>
