<svg width="24" height="24" viewBox="0 0 24 24" fill="none" xmlns="http://www.w3.org/2000/svg">
<path fill-rule="evenodd" clip-rule="evenodd" d="M8.47851 1.58107C8.99107 1.45939 9.52916 1.5029 10.0156 1.70509C10.3809 1.85698 10.7035 2.09252 10.958 2.39064C12.8923 1.88343 14.9244 1.86602 16.8691 2.34474L17.3057 2.46095L17.3828 2.48634C17.8445 2.66039 18.2445 2.9673 18.5322 3.36818C18.6849 3.58094 18.8009 3.81566 18.8799 4.06251C19.8159 4.19486 20.7069 4.53777 21.4287 5.07911C22.3797 5.79243 22.9999 6.83123 23 8.00001C23 8.79543 22.6844 9.55854 22.1221 10.1211C21.6298 10.6133 20.9836 10.9171 20.2969 10.9854L20 11C18.6944 10.9997 17.4082 11.2836 16.2295 11.8272L16.6309 12.5537C16.9455 13.1231 17.0664 13.7797 16.9756 14.4238C16.8846 15.0683 16.5862 15.6658 16.126 16.126C15.6658 16.5862 15.0683 16.8846 14.4238 16.9756C13.7796 17.0664 13.1231 16.9455 12.5537 16.6309L11.8271 16.2295C11.2837 17.4083 10.9995 18.6944 11 20L10.9853 20.2969C10.9171 20.9836 10.6133 21.6299 10.1211 22.1221C9.55853 22.6844 8.79542 23 8 23C6.83121 23 5.79241 22.3797 5.0791 21.4287C4.53775 20.7069 4.19485 19.8159 4.0625 18.8799C3.81602 18.8009 3.58176 18.6847 3.36914 18.5322C2.96815 18.2445 2.66041 17.8446 2.48632 17.3828C2.47678 17.3575 2.46839 17.3317 2.46093 17.3057C1.86623 15.2299 1.84427 13.0368 2.38964 10.957C2.092 10.7026 1.85678 10.3804 1.70507 10.0156C1.50289 9.52918 1.45938 8.99108 1.58105 8.47853L1.61035 8.38087C2.15564 6.81504 3.04729 5.39217 4.21972 4.21974C5.39215 3.04731 6.81502 2.15566 8.38086 1.61036L8.47851 1.58107ZM6.12109 19C6.23665 19.473 6.42887 19.8954 6.67871 20.2285C7.09052 20.7776 7.57768 21 8 21C8.26513 21 8.51951 20.8945 8.70703 20.707C8.89441 20.5196 8.99994 20.2651 9 20C8.9999 19.6653 9.01672 19.3316 9.04687 19H6.12109ZM4.19726 12.0127C3.88322 13.5615 3.93951 15.1681 4.36914 16.7002C4.40504 16.7825 4.46099 16.8547 4.53418 16.9072C4.61213 16.9631 4.70509 16.9952 4.80078 17H9.41699C9.58582 16.4035 9.80528 15.8214 10.0732 15.2598L4.19726 12.0127ZM8.97949 3.52052C7.72165 3.96839 6.57828 4.6893 5.63378 5.6338C4.68929 6.5783 3.96838 7.72166 3.5205 8.9795C3.50646 9.07002 3.51641 9.163 3.55175 9.24806C3.59137 9.34323 3.65998 9.42356 3.74707 9.47853L11.9102 13.9893C11.9179 13.9936 11.9259 13.9974 11.9336 14.002L11.9375 14.0039L13.5215 14.8799C13.7112 14.9847 13.9299 15.0254 14.1445 14.9951C14.3593 14.9648 14.5585 14.8653 14.7119 14.7119C14.8653 14.5585 14.9648 14.3593 14.9951 14.1445C15.0254 13.9299 14.9847 13.7112 14.8799 13.5215L9.47851 3.74708C9.42355 3.66 9.34321 3.59138 9.24804 3.55177C9.16299 3.51643 9.07 3.50648 8.97949 3.52052ZM16.7012 4.36915C15.1688 3.93938 13.5618 3.88303 12.0127 4.19728L15.2598 10.0733C15.8214 9.80525 16.4035 9.58589 17 9.417V4.79982C16.995 4.70438 16.963 4.61195 16.9072 4.53419C16.8548 4.46122 16.7831 4.4051 16.7012 4.36915ZM19 9.04689C19.3316 9.0167 19.6653 8.99994 20 9.00001C20.2651 8.99996 20.5195 8.89443 20.707 8.70704C20.8945 8.51952 21 8.26515 21 8.00001C20.9999 7.57769 20.7776 7.09054 20.2285 6.67872C19.8953 6.42883 19.4731 6.23568 19 6.12013V9.04689Z" fill="#E4F2F2"/>
</svg>
