<svg width="24" height="24" viewBox="0 0 24 24" fill="none" xmlns="http://www.w3.org/2000/svg">
<path fill-rule="evenodd" clip-rule="evenodd" d="M13 5C13.5272 5 14.0439 5.18058 14.4316 5.56836C14.8194 5.95614 15 6.47275 15 7V9H17C17.5272 9 18.0439 9.18058 18.4316 9.56836C18.8194 9.95614 19 10.4728 19 11V13C19 13.5272 18.8194 14.0439 18.4316 14.4316C18.0439 14.8194 17.5272 15 17 15H15V17C15 17.5272 14.8194 18.0439 14.4316 18.4316C14.0439 18.8194 13.5272 19 13 19H11C10.4728 19 9.95614 18.8194 9.56836 18.4316C9.18058 18.0439 9 17.5272 9 17V15H7C6.47275 15 5.95614 14.8194 5.56836 14.4316C5.18058 14.0439 5 13.5272 5 13V11C5 10.4728 5.18058 9.95614 5.56836 9.56836C5.95614 9.18058 6.47275 9 7 9H9V7C9 6.47275 9.18058 5.95614 9.56836 5.56836C9.95614 5.18058 10.4728 5 11 5H13ZM11 10C11 10.5523 10.5523 11 10 11H7V13H10C10.5523 13 11 13.4477 11 14V17H13V14C13 13.4477 13.4477 13 14 13H17V11H14C13.4477 11 13 10.5523 13 10V7H11V10Z" fill="#E4F2F2"/>
<path fill-rule="evenodd" clip-rule="evenodd" d="M19 1C21.2091 1 23 2.79086 23 5V19C23 21.2091 21.2091 23 19 23H5C2.79086 23 1 21.2091 1 19V5C1 2.79086 2.79086 1 5 1H19ZM5 3C3.89543 3 3 3.89543 3 5V19C3 20.1046 3.89543 21 5 21H19C20.1046 21 21 20.1046 21 19V5C21 3.89543 20.1046 3 19 3H5Z" fill="#E4F2F2"/>
</svg>
