<svg width="24" height="24" viewBox="0 0 24 24" fill="none" xmlns="http://www.w3.org/2000/svg">
<path d="M19 20C19.5522 20.0001 20 20.4478 20 21C20 21.5522 19.5522 21.9999 19 22H5C4.44772 22 4 21.5523 4 21C4 20.4477 4.44772 20 5 20H19Z" fill="#E4F2F2"/>
<path fill-rule="evenodd" clip-rule="evenodd" d="M11.999 2.00684C12.2003 2.00684 12.3998 2.04715 12.584 2.125L12.7627 2.21582L12.9277 2.3291C13.0322 2.41146 13.1259 2.50735 13.2051 2.61426L13.3135 2.7832L13.3223 2.7998L16.2686 8.3916L20.5322 4.74023L20.5518 4.72363C20.7978 4.52359 21.1013 4.40662 21.418 4.38965C21.7347 4.37281 22.0494 4.45709 22.3154 4.62988C22.5814 4.80284 22.7862 5.05623 22.8994 5.35254C23.0125 5.6491 23.0285 5.97492 22.9453 6.28125L22.9443 6.28516L20.1104 16.5312C19.9946 16.9503 19.7453 17.3202 19.4004 17.585C19.0554 17.8498 18.6332 17.9956 18.1982 17.999H5.80273C5.36766 17.9959 4.9449 17.8506 4.59961 17.5859C4.25452 17.3211 4.00449 16.9505 3.88867 16.5312L1.05566 6.28613L1.05469 6.28223C0.971554 5.97595 0.987474 5.65004 1.10059 5.35352C1.21378 5.05716 1.41863 4.80384 1.68457 4.63086C1.91728 4.47962 2.18698 4.39591 2.46289 4.38867L2.58203 4.39062L2.7002 4.40137C2.97365 4.43781 3.23295 4.54969 3.44824 4.72461C3.45467 4.72984 3.46147 4.73581 3.46777 4.74121L7.72949 8.39258L10.6768 2.7998L10.6855 2.7832C10.815 2.54822 11.0054 2.35235 11.2363 2.21582L11.415 2.125C11.5991 2.04717 11.7979 2.00693 11.999 2.00684ZM9.49414 9.33691L9.48828 9.34766C9.3475 9.60711 9.15115 9.8323 8.91309 10.0068C8.675 10.1814 8.40114 10.3012 8.11133 10.3574C7.82155 10.4136 7.52236 10.4049 7.23633 10.332C6.95043 10.2591 6.6835 10.1235 6.45605 9.93555C6.45165 9.93189 6.44672 9.92754 6.44238 9.92383L3.41992 7.33398L5.81641 15.998L18.1826 15.999L20.5791 7.33203L17.5557 9.92285C17.5512 9.92667 17.5465 9.93083 17.542 9.93457C17.3145 10.1224 17.0486 10.2582 16.7627 10.3311C16.4767 10.4039 16.1775 10.4126 15.8877 10.3564C15.598 10.3002 15.3239 10.1803 15.0859 10.0059C14.8481 9.83137 14.6515 9.60597 14.5107 9.34668L14.5049 9.33594L11.999 4.5791L9.49414 9.33691Z" fill="#E4F2F2"/>
</svg>
