<svg width="24" height="24" viewBox="0 0 24 24" fill="none" xmlns="http://www.w3.org/2000/svg">
<path fill-rule="evenodd" clip-rule="evenodd" d="M14.0156 0.99512C14.5929 1.00846 15.1541 1.18828 15.6318 1.5127L15.6309 1.51367L21.6768 5.56934L21.6797 5.57129C22.0867 5.84641 22.4202 6.21734 22.6504 6.65137C22.8803 7.08503 23.0005 7.56877 23 8.05957V13.8906C22.9994 14.4017 22.8684 14.9044 22.6191 15.3506C22.3698 15.7968 22.0102 16.172 21.5752 16.4404L21.5742 16.4414L11.624 22.5615C11.1318 22.8637 10.5618 23.0172 9.98438 23.0039C9.40714 22.9906 8.84582 22.8117 8.36816 22.4873L2.32227 18.4189L2.32031 18.418C1.91326 18.1428 1.57976 17.772 1.34961 17.3379C1.11949 16.9038 0.999259 16.4191 1 15.9277V10.1084C1.00062 9.59733 1.13157 9.0946 1.38086 8.64844C1.63022 8.20226 1.98979 7.82697 2.4248 7.5586L2.42578 7.55762L12.376 1.4375C12.8682 1.1354 13.4383 0.981818 14.0156 0.99512ZM11 14.5732V20.5967L20.5254 14.7383L20.6289 14.665C20.7276 14.5852 20.8107 14.4865 20.873 14.375C20.9559 14.2266 20.9996 14.0595 21 13.8897V8.73633L11 14.5732ZM3 15.9316C2.99983 16.0952 3.03961 16.2568 3.11621 16.4014C3.19292 16.546 3.3048 16.6691 3.44043 16.7607L9 20.501V14.5527L3 10.7979V15.9316ZM13.9697 2.99414C13.7774 2.98971 13.5868 3.04008 13.4229 3.14063L13.4238 3.1416L3.89746 9L10.0186 12.8311L20.1221 6.9336L14.5127 3.16992L14.5078 3.167C14.3487 3.05901 14.162 2.99865 13.9697 2.99414Z" fill="#E4F2F2"/>
</svg>
