<svg width="24" height="24" viewBox="0 0 24 24" fill="none" xmlns="http://www.w3.org/2000/svg">
<path fill-rule="evenodd" clip-rule="evenodd" d="M17 1C18.1378 1 18.9996 1.89901 19.1807 2.80371L19.8193 6H20C20.5523 6 21 6.44772 21 7C21 7.55228 20.5523 8 20 8H19.8193L19.4023 10.085C19.5364 10.1438 19.6577 10.2316 19.7559 10.3447C19.9457 10.5637 20.0312 10.8547 19.9902 11.1416L18.9902 18.1416C18.9198 18.6342 18.4976 19 18 19H17.6201L17.1807 21.1963L17.1797 21.1953C16.9831 22.2837 16.0542 22.9999 15 23H9C7.86233 22.9999 7.00034 22.1009 6.81934 21.1963L6.37988 19H6C5.5024 19 5.0802 18.6342 5.00977 18.1416L4.00977 11.1416C3.96878 10.8547 4.0543 10.5637 4.24414 10.3447C4.34206 10.2318 4.4629 10.1438 4.59668 10.085L4.18066 8H4C3.44772 8 3 7.55228 3 7C3 6.44772 3.44772 6 4 6H4.17578C4.21476 5.80024 4.25905 5.57363 4.30664 5.33203C4.46917 4.50686 4.67036 3.49894 4.82227 2.79004C5.02454 1.70982 5.95043 1 7 1H17ZM8.41992 19L8.78125 20.8037C8.78128 20.8041 8.7818 20.8089 8.78516 20.8174C8.78874 20.8264 8.79445 20.8387 8.80273 20.8525C8.81999 20.8813 8.84463 20.9115 8.87402 20.9375C8.93584 20.992 8.98339 20.9999 9 21H15C15.0753 21 15.1245 20.976 15.1523 20.9531C15.178 20.9319 15.2035 20.8976 15.2139 20.8359L15.2197 20.8037L15.5801 19H8.41992ZM6.86719 17H17.1328L17.8467 12H6.15332L6.86719 17ZM6.61914 10H17.3799L17.7793 8H6.21973L6.61914 10ZM7 3C6.92482 3 6.87652 3.02401 6.84863 3.04688C6.82285 3.06811 6.79652 3.10213 6.78613 3.16406C6.78361 3.17917 6.78055 3.19499 6.77734 3.20996C6.62929 3.90092 6.43096 4.89324 6.26855 5.71777C6.24952 5.81443 6.23173 5.90886 6.21387 6H17.7793L17.2197 3.19629C17.2197 3.19629 17.2183 3.19148 17.2148 3.18262C17.2112 3.17356 17.2056 3.16137 17.1973 3.14746C17.18 3.11866 17.1554 3.08853 17.126 3.0625C17.0639 3.00769 17.0164 3 17 3H7Z" fill="#E4F2F2"/>
</svg>
