<svg width="24" height="24" viewBox="0 0 24 24" fill="none" xmlns="http://www.w3.org/2000/svg">
<path fill-rule="evenodd" clip-rule="evenodd" d="M19 7C20.0609 7 21.078 7.42173 21.8281 8.17188C22.5783 8.92202 23 9.93913 23 11L22.9951 11.1982C22.9461 12.1869 22.5314 13.1248 21.8281 13.8281C21.078 14.5783 20.0609 15 19 15H18.8984C18.7506 15.7238 18.4439 16.4072 17.999 17H22C22.5523 17 23 17.4477 23 18C23 19.3261 22.4728 20.5975 21.5352 21.5352C20.5975 22.4728 19.3261 23 18 23H6C4.67392 23 3.40253 22.4728 2.46484 21.5352C1.52716 20.5975 1 19.3261 1 18C1 17.7348 1.10543 17.4805 1.29297 17.293C1.48051 17.1054 1.73478 17 2 17H6.00098C5.35532 16.1396 5 15.0883 5 14V8C5 7.44772 5.44772 7 6 7H19ZM3.17578 19C3.32358 19.4174 3.55984 19.802 3.87891 20.1211C4.44152 20.6837 5.20435 21 6 21H18C18.7956 21 19.5585 20.6837 20.1211 20.1211C20.4402 19.802 20.6764 19.4174 20.8242 19H3.17578ZM7 14L7.01465 14.2969C7.08291 14.9835 7.38671 15.6289 7.87891 16.1211C8.44152 16.6837 9.20435 17 10 17H14C14.7956 17 15.5585 16.6837 16.1211 16.1211C16.6837 15.5585 17 14.7956 17 14V9H7V14ZM19 13C19.5304 13 20.039 12.7891 20.4141 12.4141C20.7423 12.0858 20.9449 11.6553 20.9902 11.1973L21 11C21 10.4696 20.7891 9.96101 20.4141 9.58594C20.039 9.21087 19.5304 9 19 9V13Z" fill="#E4F2F2"/>
<path d="M8 1C8.55228 1 9 1.44772 9 2C9 2.53043 8.78913 3.03899 8.41406 3.41406C8.03899 3.78914 7.53043 4 7 4C7 4.55228 6.55228 5 6 5C5.44772 5 5 4.55228 5 4C5 3.46957 5.21087 2.96101 5.58594 2.58594C5.91422 2.25765 6.34474 2.05515 6.80273 2.00977L7 2C7 1.44772 7.44772 1 8 1Z" fill="#E4F2F2"/>
<path d="M14 1C14.5523 1 15 1.44772 15 2C15 2.53043 14.7891 3.03899 14.4141 3.41406C14.039 3.78914 13.5304 4 13 4C13 4.55228 12.5523 5 12 5C11.4477 5 11 4.55228 11 4C11 3.46957 11.2109 2.96101 11.5859 2.58594C11.9142 2.25765 12.3447 2.05515 12.8027 2.00977L13 2C13 1.44772 13.4477 1 14 1Z" fill="#E4F2F2"/>
<path d="M20 1C20.5523 1 21 1.44772 21 2C21 2.53043 20.7891 3.03899 20.4141 3.41406C20.039 3.78914 19.5304 4 19 4C19 4.55228 18.5523 5 18 5C17.4477 5 17 4.55228 17 4C17 3.46957 17.2109 2.96101 17.5859 2.58594C17.9142 2.25765 18.3447 2.05515 18.8027 2.00977L19 2C19 1.44772 19.4477 1 20 1Z" fill="#E4F2F2"/>
</svg>
