<svg width="24" height="24" viewBox="0 0 24 24" fill="none" xmlns="http://www.w3.org/2000/svg">
<path fill-rule="evenodd" clip-rule="evenodd" d="M15 1C15.5523 1 16 1.44772 16 2C16 2.55228 15.5523 3 15 3H13.8467L13.1807 7H19C19.5523 7 20 7.44772 20 8C20 8.55228 19.5523 9 19 9H18.8701L17.2803 20.418V20.4199C17.1784 21.1407 16.8176 21.7997 16.2656 22.2744C15.7162 22.747 15.0145 23.0038 14.29 22.999L9.75 23C9.02553 23.0048 8.32388 22.747 7.77441 22.2744C7.22269 21.7999 6.86183 21.1414 6.75977 20.4209L5.13184 9H5C4.44772 9 4 8.55228 4 8C4 7.44772 4.44772 7 5 7H11.1533L12.0137 1.83594L12.0322 1.74707C12.1459 1.31074 12.5416 1 13 1H15ZM9.5 15.4971C9.02782 15.4971 8.559 15.5597 8.10449 15.6797L8.74023 20.1387C8.77418 20.3788 8.89432 20.5996 9.07812 20.7578C9.26211 20.916 9.49758 21.0024 9.74023 21H14.2998C14.5425 21.0024 14.7779 20.916 14.9619 20.7578C15.1457 20.5996 15.2659 20.3798 15.2998 20.1396L15.8223 16.3838C15.5082 16.4403 15.1906 16.4773 14.8711 16.4932L14.5 16.502C13.5089 16.502 12.5274 16.3048 11.6133 15.9219C11.0276 15.6766 10.4043 15.5354 9.77148 15.5039L9.5 15.4971ZM7.82031 13.6904C8.37 13.5636 8.93324 13.4971 9.5 13.4971L9.87109 13.5059C10.7353 13.5488 11.5869 13.7421 12.3867 14.0771C13.056 14.3575 13.7743 14.502 14.5 14.502L14.7715 14.4951C15.2294 14.4724 15.6819 14.3914 16.1191 14.2559L16.8516 9H7.15234L7.82031 13.6904Z" fill="#E4F2F2"/>
</svg>
