<svg width="24" height="24" viewBox="0 0 24 24" fill="none" xmlns="http://www.w3.org/2000/svg">
<path fill-rule="evenodd" clip-rule="evenodd" d="M16.293 6.29297C16.6835 5.9025 17.3165 5.9025 17.707 6.29297C18.0975 6.68348 18.0975 7.31652 17.707 7.70703L16.1709 9.24219C16.6947 10.0327 17 10.9807 17 12C17 13.0191 16.6944 13.9664 16.1709 14.7568L17.707 16.293C18.0975 16.6835 18.0975 17.3165 17.707 17.707C17.3165 18.0975 16.6835 18.0975 16.293 17.707L14.7568 16.1709C13.9664 16.6944 13.0191 17 12 17C10.9807 17 10.0327 16.6947 9.24219 16.1709L7.70703 17.707C7.31652 18.0975 6.68348 18.0975 6.29297 17.707C5.9025 17.3165 5.9025 16.6835 6.29297 16.293L7.82812 14.7568C7.30481 13.9665 7 13.0189 7 12C7 10.9808 7.30454 10.0327 7.82812 9.24219L6.29297 7.70703C5.90244 7.31651 5.90244 6.68349 6.29297 6.29297C6.68349 5.90244 7.31651 5.90244 7.70703 6.29297L9.24219 7.82812C10.0327 7.30454 10.9808 7 12 7C13.0189 7 13.9665 7.30481 14.7568 7.82812L16.293 6.29297ZM12 9C10.3431 9 9 10.3431 9 12C9 13.6569 10.3431 15 12 15C13.6569 15 15 13.6569 15 12C15 10.3431 13.6569 9 12 9Z" fill="#E4F2F2"/>
<path fill-rule="evenodd" clip-rule="evenodd" d="M19 2C20.6569 2 22 3.34315 22 5V19C22 20.6569 20.6569 22 19 22H5C3.34315 22 2 20.6569 2 19V5C2 3.34315 3.34315 2 5 2H19ZM5 4C4.44772 4 4 4.44772 4 5V19C4 19.5523 4.44772 20 5 20H19C19.5523 20 20 19.5523 20 19V5C20 4.44772 19.5523 4 19 4H5Z" fill="#E4F2F2"/>
</svg>
