<svg width="24" height="24" viewBox="0 0 24 24" fill="none" xmlns="http://www.w3.org/2000/svg">
<path fill-rule="evenodd" clip-rule="evenodd" d="M20.293 2.29295C20.6835 1.90243 21.3165 1.90243 21.707 2.29295C22.0975 2.68348 22.0975 3.31652 21.707 3.70702L19.0293 6.38377C20.2611 7.92349 21 9.87484 21 12C21 14.1249 20.2608 16.0756 19.0293 17.6152L21.707 20.293C22.0975 20.6835 22.0975 21.3165 21.707 21.707C21.3165 22.0975 20.6835 22.0975 20.293 21.707L17.6152 19.0293C16.0756 20.2608 14.1249 21 12 21C9.87486 21 7.92351 20.261 6.38379 19.0293L3.70703 21.707C3.31653 22.0975 2.6835 22.0975 2.29297 21.707C1.90245 21.3165 1.90245 20.6835 2.29297 20.293L4.96875 17.6162C3.73738 16.0766 3.00002 14.1247 3 12C3 9.87497 3.73712 7.92247 4.96875 6.3828L2.29297 3.70702C1.90245 3.31649 1.90245 2.68348 2.29297 2.29295C2.68349 1.90243 3.31651 1.90243 3.70703 2.29295L6.38281 4.96874C7.92248 3.73711 9.87499 2.99999 12 2.99999C14.1248 3 16.0766 3.73736 17.6162 4.96874L20.293 2.29295ZM12 4.99999C8.13401 4.99999 5 8.13399 5 12C5.00004 15.8659 8.13403 19 12 19C15.8659 18.9999 19 15.8659 19 12C19 8.13402 15.866 5.00003 12 4.99999Z" fill="#E4F2F2"/>
</svg>
