<svg width="24" height="24" viewBox="0 0 24 24" fill="none" xmlns="http://www.w3.org/2000/svg">
<path fill-rule="evenodd" clip-rule="evenodd" d="M12 1C14.5628 1 16.9251 1.34451 18.6807 1.92969C19.553 2.22051 20.3315 2.58934 20.9121 3.04688C21.4814 3.4956 22 4.14818 22 5V8C22 8.55228 21.5523 9 21 9C20.4478 8.99992 20 8.55224 20 8V7.52441C19.5986 7.72979 19.1539 7.91254 18.6807 8.07031C16.9251 8.65549 14.5628 9 12 9C9.43719 8.99999 7.07489 8.6555 5.31932 8.07031C4.84601 7.91252 4.40137 7.72982 3.99999 7.52441V11.999C4.00037 12.0012 4.00199 12.0065 4.00487 12.0146C4.01071 12.0311 4.02503 12.0634 4.05858 12.1104C4.12881 12.2087 4.26693 12.3493 4.51366 12.5127C5.01241 12.8428 5.80576 13.1703 6.87304 13.4346C7.92909 13.6961 9.17344 13.8753 10.5049 13.9531C11.8349 14.0308 13.2009 14.0041 14.4902 13.875C15.0398 13.82 15.5299 14.221 15.5849 14.7705C15.6399 15.32 15.2389 15.8102 14.6894 15.8652C13.2925 16.0051 11.8204 16.0339 10.3877 15.9502C8.95624 15.8665 7.58819 15.672 6.39257 15.376C5.49066 15.1526 4.67489 14.8674 3.99999 14.5215V19.0137C3.99999 19.0137 4.00199 19.0211 4.00487 19.0293C4.01076 19.046 4.02504 19.0789 4.05956 19.127C4.13308 19.2291 4.27869 19.375 4.53905 19.5439C5.06511 19.8851 5.9015 20.2197 7.01952 20.4844C8.12581 20.7462 9.42391 20.9192 10.8017 20.9834C12.1783 21.0475 13.5793 21.0003 14.8828 20.8467C15.4312 20.7821 15.9284 21.1743 15.9932 21.7227C16.0578 22.2711 15.6656 22.7683 15.1172 22.833C13.7003 23 12.189 23.0504 10.708 22.9814C9.22832 22.9125 7.80588 22.7256 6.55956 22.4307C5.32507 22.1385 4.24406 21.7359 3.45116 21.2217C2.69209 20.7293 1.98841 19.9882 1.99999 18.9883V5C1.99999 4.14823 2.51862 3.4956 3.08788 3.04688C3.66845 2.58934 4.44694 2.22052 5.31932 1.92969C7.07489 1.3445 9.43719 1.00001 12 1ZM12 3C9.59234 3.00001 7.45387 3.32657 5.95214 3.82715C5.19612 4.07917 4.65631 4.35797 4.32616 4.61816C4.16424 4.74583 4.07756 4.84986 4.03514 4.91895C4.01519 4.9515 4.00635 4.97318 4.00292 4.98438C3.99978 4.9947 3.99999 5 3.99999 5C3.99999 5 3.99978 5.0053 4.00292 5.01562C4.00635 5.02682 4.01519 5.0485 4.03514 5.08105C4.07756 5.15014 4.16424 5.25417 4.32616 5.38184C4.65631 5.64203 5.19612 5.92083 5.95214 6.17285C7.45387 6.67343 9.59234 6.99999 12 7C14.4076 7 16.5461 6.67341 18.0478 6.17285C18.8039 5.92084 19.3436 5.64202 19.6738 5.38184C19.8357 5.25418 19.9224 5.15016 19.9648 5.08105C19.9848 5.04851 19.9936 5.02684 19.9971 5.01562C20.0002 5.00527 20 5 20 5C20 5 20.0002 4.99473 19.9971 4.98438C19.9936 4.97316 19.9848 4.95149 19.9648 4.91895C19.9224 4.84984 19.8357 4.74582 19.6738 4.61816C19.3436 4.35798 18.8039 4.07916 18.0478 3.82715C16.5461 3.32659 14.4076 3 12 3Z" fill="#E4F2F2"/>
<path d="M20.1426 11.4854C20.4267 11.0119 21.0411 10.8585 21.5146 11.1426C21.9881 11.4268 22.1415 12.0411 21.8574 12.5146L19.7666 16H22C22.3601 16 22.6925 16.1936 22.8701 16.5068C23.0476 16.8203 23.0428 17.2057 22.8574 17.5146L19.8574 22.5146C19.5732 22.9881 18.9589 23.1415 18.4853 22.8574C18.012 22.5732 17.8585 21.9588 18.1426 21.4854L20.2334 18H18C17.6399 18 17.3074 17.8064 17.1299 17.4932C16.9524 17.1797 16.9573 16.7943 17.1426 16.4854L20.1426 11.4854Z" fill="#E4F2F2"/>
</svg>
