<svg width="24" height="24" viewBox="0 0 24 24" fill="none" xmlns="http://www.w3.org/2000/svg">
<path d="M17.293 8.29297C17.6835 7.90244 18.3165 7.90244 18.707 8.29297C19.0976 8.68349 19.0976 9.31651 18.707 9.70703L16.4141 12L18.707 14.293C19.0976 14.6835 19.0976 15.3165 18.707 15.707C18.3165 16.0976 17.6835 16.0976 17.293 15.707L15 13.4141L12.707 15.707C12.3165 16.0976 11.6835 16.0976 11.293 15.707C10.9024 15.3165 10.9024 14.6835 11.293 14.293L13.5859 12L11.293 9.70703C10.9024 9.31651 10.9024 8.68349 11.293 8.29297C11.6835 7.90244 12.3165 7.90244 12.707 8.29297L15 10.5859L17.293 8.29297Z" fill="#E4F2F2"/>
<path fill-rule="evenodd" clip-rule="evenodd" d="M20.2969 4.01465C20.9835 4.08292 21.6289 4.38674 22.1211 4.87891C22.6837 5.44151 23 6.20437 23 7V17C23 17.7956 22.6837 18.5585 22.1211 19.1211C21.5585 19.6837 20.7956 20 20 20H10C9.2548 19.9999 8.53627 19.7224 7.98438 19.2217L1.65625 13.4805C1.44971 13.293 1.28385 13.0646 1.1709 12.8096C1.05795 12.5545 1 12.278 1 11.999C1.00007 11.7202 1.05801 11.4444 1.1709 11.1895C1.28385 10.9344 1.4497 10.706 1.65625 10.5186L7.98438 4.77832L8.19824 4.60156C8.71579 4.21274 9.3477 4.00005 10 4H20L20.2969 4.01465ZM10 6C9.75156 6.00003 9.5121 6.0928 9.32812 6.25977L3 11.999L9.32812 17.7402C9.51209 17.9072 9.75156 18 10 18H20C20.2652 18 20.5195 17.8945 20.707 17.707C20.8945 17.5195 21 17.2652 21 17V7C21 6.73479 20.8945 6.4805 20.707 6.29297C20.5429 6.12886 20.3276 6.02758 20.0986 6.00488L20 6H10Z" fill="#E4F2F2"/>
</svg>
