<svg width="24" height="24" viewBox="0 0 24 24" fill="none" xmlns="http://www.w3.org/2000/svg">
<path fill-rule="evenodd" clip-rule="evenodd" d="M8 1C8.47662 1 8.88691 1.33638 8.98047 1.80371L9.98047 6.80371C10.0392 7.09742 9.96328 7.40212 9.77344 7.63379C9.5835 7.86548 9.29959 8 9 8H7V10H14V7C14 6.44772 14.4477 6 15 6H16.3818L17.1055 4.55273C17.3525 4.05876 17.9533 3.85848 18.4473 4.10547C18.9412 4.35246 19.1415 4.95329 18.8945 5.44727L18.6182 6H19C19.5523 6 20 6.44772 20 7V10H21C21.5272 10 22.0439 10.1806 22.4316 10.5684C22.8194 10.9561 23 11.4728 23 12V22C23 22.5523 22.5523 23 22 23C21.4477 23 21 22.5523 21 22V20H3V22C3 22.5523 2.55228 23 2 23C1.44772 23 1 22.5523 1 22V12C1 11.4728 1.18058 10.9561 1.56836 10.5684C1.95614 10.1806 2.47275 10 3 10H5V8H3C2.70041 8 2.4165 7.86548 2.22656 7.63379C2.03672 7.40212 1.96079 7.09742 2.01953 6.80371L3.01953 1.80371L3.04102 1.71777C3.16493 1.29575 3.55317 1 4 1H8ZM3 18H9V16H3V18ZM11 18H21V12H11V18ZM3 14H9V12H3V14ZM16 10H18V8H16V10ZM4.21973 6H7.78027L7.18066 3H4.81934L4.21973 6Z" fill="#E4F2F2"/>
</svg>
