<svg width="24" height="24" viewBox="0 0 24 24" fill="none" xmlns="http://www.w3.org/2000/svg">
<path fill-rule="evenodd" clip-rule="evenodd" d="M6.55862 2.44042C8.53796 1.31223 10.8246 0.821093 13.1035 1.0498C15.6285 1.30331 17.9888 2.42241 19.7832 4.21679C21.5777 6.01124 22.6967 8.37145 22.9502 10.8965C23.179 13.1756 22.687 15.4619 21.5586 17.4414C21.8363 17.8961 22 18.4282 22 19C22 20.6568 20.6569 22 19 22C18.4282 22 17.8962 21.8362 17.4414 21.5586C15.462 22.687 13.1757 23.179 10.8965 22.9502C8.37148 22.6966 6.01127 21.5776 4.21682 19.7832C2.42244 17.9887 1.30335 15.6285 1.04983 13.1035C0.821124 10.8246 1.31226 8.53793 2.44045 6.55859C2.16307 6.10397 2.00002 5.57152 2.00002 4.99999C2.0001 3.34325 3.34328 2.00007 5.00002 1.99999C5.57155 1.99999 6.104 2.16304 6.55862 2.44042ZM6.29006 7.7041C5.89879 7.89108 5.4626 7.99999 5.00002 7.99999C4.65739 7.99998 4.32918 7.93977 4.02249 7.83398C3.21051 9.38615 2.86377 11.148 3.04006 12.9043C3.24756 14.97 4.16286 16.901 5.63088 18.3691C7.09906 19.8373 9.03079 20.7525 11.0967 20.96C12.8527 21.1361 14.6141 20.7892 16.166 19.9775C16.0603 19.6709 16 19.3425 16 19C16 18.5373 16.1078 18.1003 16.2949 17.709L6.29006 7.7041ZM19 18C18.7431 18 18.5092 18.0975 18.3321 18.2568C18.3202 18.27 18.3095 18.2842 18.2969 18.2969C18.2843 18.3095 18.27 18.3202 18.2569 18.332C18.0976 18.5091 18.0001 18.7431 18 19C18 19.237 18.083 19.4546 18.2207 19.626C18.2475 19.6522 18.2729 19.6803 18.2969 19.71C18.4776 19.889 18.7256 20 19 20C19.5523 20 20 19.5523 20 19C20 18.7256 19.889 18.4775 19.71 18.2969C19.6803 18.2728 19.6523 18.2474 19.626 18.2207C19.4546 18.0829 19.237 18 19 18ZM12.9043 3.04003C11.148 2.86374 9.38618 3.21047 7.83401 4.02245C7.9398 4.32915 8.00001 4.65736 8.00002 4.99999C8.00002 5.46257 7.89111 5.89876 7.70413 6.29003L17.709 16.2949C18.1004 16.1078 18.5373 16 19 16C19.3426 16 19.6709 16.0603 19.9776 16.166C20.7892 14.614 21.1362 12.8526 20.96 11.0967C20.7525 9.03076 19.8373 7.09902 18.3692 5.63085C16.9011 4.16282 14.9701 3.24753 12.9043 3.04003ZM5.00002 3.99999C4.44785 4.00007 4.0001 4.44782 4.00002 4.99999C4.00002 5.27358 4.11009 5.52159 4.28811 5.70214C4.31731 5.72568 4.34521 5.75021 4.37112 5.77636C4.54299 5.91582 4.76146 5.99996 5.00002 5.99999C5.25576 5.99999 5.48824 5.90304 5.66506 5.74511C5.67759 5.7311 5.6897 5.71657 5.70315 5.70312C5.7166 5.68967 5.73113 5.67756 5.74514 5.66503C5.90307 5.48821 6.00002 5.25573 6.00002 4.99999C5.99999 4.76143 5.91585 4.54296 5.77639 4.37109C5.75024 4.34518 5.72571 4.31728 5.70217 4.28808C5.52162 4.11006 5.27361 3.99999 5.00002 3.99999Z" fill="#E4F2F2"/>
</svg>
