<svg width="24" height="24" viewBox="0 0 24 24" fill="none" xmlns="http://www.w3.org/2000/svg">
<path fill-rule="evenodd" clip-rule="evenodd" d="M20 4C20.7957 4 21.5585 4.3163 22.1211 4.87891C22.6837 5.44151 23 6.20435 23 7V13L22.9902 13.3965C22.8922 15.3739 22.0638 17.2507 20.6572 18.6572C19.1569 20.1575 17.1217 21 15 21H9C6.87827 21 4.84306 20.1575 3.34277 18.6572C1.84248 17.1569 1 15.1217 1 13V7C1 6.20435 1.3163 5.44152 1.87891 4.87891C2.44152 4.3163 3.20435 4 4 4H20ZM4 6C3.73478 6 3.4805 6.10543 3.29297 6.29297C3.10543 6.4805 3 6.73478 3 7V8H6C6.55228 8 7 8.44772 7 9C7 9.55228 6.55228 10 6 10H3V12.0645C4.75301 12.2852 6.39465 13.0802 7.65723 14.3428C8.91978 15.6053 9.71378 17.247 9.93457 19H14.0654C14.2862 17.247 15.0802 15.6053 16.3428 14.3428C17.6054 13.0802 19.247 12.2852 21 12.0645V10H18C17.4477 10 17 9.55228 17 9C17 8.44772 17.4477 8 18 8H21V7C21 6.73478 20.8946 6.48051 20.707 6.29297C20.5195 6.10543 20.2652 6 20 6H4ZM20.8955 14.1035C19.7151 14.3248 18.6191 14.8965 17.7578 15.7578C16.8963 16.6193 16.3247 17.7158 16.1035 18.8965C17.2843 18.6755 18.3807 18.1037 19.2422 17.2422C20.1036 16.3807 20.6743 15.2842 20.8955 14.1035ZM3.10352 14.1035C3.32465 15.2842 3.89631 16.3807 4.75781 17.2422C5.61904 18.1034 6.71522 18.6742 7.89551 18.8955C7.67422 17.7152 7.10342 16.619 6.24219 15.7578C5.38068 14.8963 4.28423 14.3247 3.10352 14.1035Z" fill="#E4F2F2"/>
</svg>
