<svg width="24" height="24" viewBox="0 0 24 24" fill="none" xmlns="http://www.w3.org/2000/svg">
<path d="M8.03809 10.7256C8.18977 10.1947 8.7435 9.88662 9.27441 10.0381C9.80532 10.1898 10.1134 10.7435 9.96191 11.2744L7.96191 18.2744C7.81023 18.8053 7.2565 19.1134 6.72559 18.9619C6.19468 18.8102 5.88662 18.2565 6.03809 17.7256L8.03809 10.7256Z" fill="#E4F2F2"/>
<path fill-rule="evenodd" clip-rule="evenodd" d="M12.0381 10.7256C12.1898 10.1947 12.7435 9.88662 13.2744 10.0381C13.8053 10.1898 14.1134 10.7435 13.9619 11.2744L13.7295 12.0859C13.9775 12.0302 14.2352 12 14.5 12C16.433 12 18 13.567 18 15.5C18 17.433 16.433 19 14.5 19C13.5419 19 12.674 18.6149 12.042 17.9912L11.9619 18.2744C11.8102 18.8053 11.2565 19.1134 10.7256 18.9619C10.1947 18.8102 9.88662 18.2565 10.0381 17.7256L12.0381 10.7256ZM14.5 14C13.6716 14 13 14.6716 13 15.5C13 16.3284 13.6716 17 14.5 17C15.3284 17 16 16.3284 16 15.5C16 14.6716 15.3284 14 14.5 14Z" fill="#E4F2F2"/>
<path fill-rule="evenodd" clip-rule="evenodd" d="M19 1C20.6569 1 22 2.34315 22 4V20C22 21.6569 20.6569 23 19 23H5C3.34315 23 2 21.6569 2 20V4C2 2.34315 3.34315 1 5 1H19ZM4 20C4 20.5523 4.44772 21 5 21H19C19.5523 21 20 20.5523 20 20V8H18C18 8.55228 17.5523 9 17 9C16.4477 9 16 8.55228 16 8H4V20ZM5 3C4.44772 3 4 3.44772 4 4V6H16C16 5.44772 16.4477 5 17 5C17.5523 5 18 5.44772 18 6H20V4C20 3.44772 19.5523 3 19 3H5Z" fill="#E4F2F2"/>
</svg>
