<svg width="24" height="24" viewBox="0 0 24 24" fill="none" xmlns="http://www.w3.org/2000/svg">
<path d="M1.29295 1.29295C1.68348 0.90243 2.31649 0.90243 2.70702 1.29295L22.707 21.293C23.0975 21.6835 23.0975 22.3165 22.707 22.707C22.3165 23.0975 21.6835 23.0975 21.293 22.707L11.5879 13.0019C10.5046 13.004 9.45804 13.0195 8.43358 13.1445C8.56916 13.5013 8.4944 13.9196 8.20702 14.207C7.81652 14.5975 7.18349 14.5975 6.79295 14.207L6.21581 13.6299C5.70893 13.7996 5.20486 14.0145 4.70213 14.2881L4.70702 14.293C5.09709 14.6835 5.09739 15.3166 4.70702 15.707C4.31664 16.0974 3.68351 16.0971 3.29295 15.707L3.02342 15.4375C2.90554 15.5356 2.78694 15.6369 2.66893 15.7431C2.25847 16.1126 1.62631 16.0793 1.25682 15.6689C0.887347 15.2584 0.920565 14.6263 1.33104 14.2568C1.71547 13.9108 2.1012 13.6026 2.48631 13.3262C2.51389 13.3042 2.54204 13.2833 2.57127 13.2646C3.7867 12.4076 5.00261 11.875 6.20409 11.5439C6.2173 11.5399 6.23078 11.5367 6.24413 11.5332C7.38892 11.2219 8.52018 11.0928 9.62499 11.039L1.29295 2.70702C0.90243 2.31649 0.90243 1.68348 1.29295 1.29295Z" fill="#E4F2F2"/>
<path d="M9.29295 15.293C9.68348 14.9024 10.3165 14.9024 10.707 15.293L12.207 16.793C12.4605 17.0465 12.5589 17.4167 12.4648 17.7627C12.0171 19.4085 11.2012 21.0489 9.74315 22.6689C9.37371 23.0794 8.74153 23.1125 8.33104 22.7431C7.92058 22.3737 7.88738 21.7415 8.25682 21.331C8.36317 21.2129 8.46244 21.0925 8.56053 20.9746L6.29295 18.707C5.90243 18.3165 5.90243 17.6835 6.29295 17.293C6.68348 16.9024 7.31649 16.9024 7.70702 17.293L9.70799 19.2939C9.98277 18.7882 10.2008 18.2861 10.3691 17.7832L9.29295 16.707C8.90243 16.3165 8.90243 15.6835 9.29295 15.293Z" fill="#E4F2F2"/>
<path d="M19.293 8.29295C19.6835 7.90243 20.3165 7.90243 20.707 8.29295L20.9746 8.56053C21.0925 8.46244 21.2129 8.36317 21.331 8.25682C21.7415 7.88738 22.3737 7.92058 22.7431 8.33104C23.1125 8.74153 23.0794 9.37371 22.6689 9.74315C21.0489 11.2012 19.4085 12.0171 17.7627 12.4648C17.4167 12.5589 17.0465 12.4605 16.793 12.207L15.793 11.207C15.4024 10.8165 15.4024 10.1835 15.793 9.79295C16.1835 9.40243 16.8165 9.40243 17.207 9.79295L17.7832 10.3691C18.2861 10.2008 18.7882 9.98277 19.2939 9.70799L19.293 9.70702C18.9024 9.31649 18.9024 8.68348 19.293 8.29295Z" fill="#E4F2F2"/>
<path d="M14.2568 1.33104C14.6263 0.920581 15.2584 0.887379 15.6689 1.25682C16.0793 1.6263 16.1126 2.25847 15.7431 2.66893C15.6369 2.78703 15.5355 2.90562 15.4375 3.02342L17.707 5.29295C18.0971 5.68352 18.0974 6.31664 17.707 6.70702C17.3166 7.09739 16.6835 7.09709 16.293 6.70702L14.29 4.70409C14.0149 5.20984 13.7982 5.71284 13.6299 6.21581L14.707 7.29295C15.0975 7.68349 15.0975 8.31652 14.707 8.70702C14.3165 9.09752 13.6835 9.09747 13.293 8.70702L11.793 7.20702C11.5394 6.95345 11.441 6.58332 11.5351 6.23729C11.9828 4.59147 12.7988 2.9511 14.2568 1.33104Z" fill="#E4F2F2"/>
</svg>
