<svg width="24" height="24" viewBox="0 0 24 24" fill="none" xmlns="http://www.w3.org/2000/svg">
<path d="M9.29297 15.293C9.68349 14.9024 10.3165 14.9024 10.707 15.293L10.9336 15.5195C11.1297 15.1683 11.5282 14.9565 11.9502 15.0176C12.4967 15.0967 12.8759 15.6039 12.7969 16.1504C12.4842 18.3118 11.6935 20.5016 9.74316 22.669C9.37372 23.0793 8.74152 23.1125 8.33105 22.7432C7.92053 22.3737 7.8874 21.7416 8.25683 21.3311C8.36307 21.213 8.4644 21.0944 8.5625 20.9766L6.29297 18.707C5.90246 18.3165 5.90249 17.6835 6.29297 17.293C6.68349 16.9025 7.3165 16.9025 7.70703 17.293L9.70996 19.2959C9.98438 18.7914 10.199 18.2873 10.3682 17.7822L9.29297 16.707C8.90246 16.3165 8.90249 15.6835 9.29297 15.293Z" fill="#E4F2F2"/>
<path d="M19.293 8.29297C19.6835 7.90245 20.3165 7.90245 20.707 8.29297L20.9756 8.56153C21.0935 8.46336 21.213 8.36308 21.3311 8.25684C21.7415 7.88741 22.3737 7.92061 22.7432 8.33106C23.1124 8.74156 23.0793 9.37376 22.6689 9.74317C22.267 10.1049 21.8626 10.4241 21.46 10.71C21.4519 10.7156 21.4447 10.7222 21.4365 10.7275C20.2166 11.5893 18.9968 12.1243 17.791 12.4561C17.7816 12.4589 17.7721 12.4613 17.7627 12.4639C15.7787 13.0047 13.8353 13 12 13C10.7693 13 9.58729 13.0028 8.43359 13.1436C8.56955 13.5005 8.49461 13.9195 8.20703 14.207C7.81655 14.5975 7.18349 14.5974 6.79297 14.207L6.21582 13.6299C5.70921 13.7995 5.20562 14.0147 4.70312 14.2881L4.70703 14.292C5.09736 14.6824 5.0971 15.3155 4.70703 15.7061C4.31652 16.0966 3.68349 16.0965 3.29297 15.7061L3.02343 15.4365C2.9054 15.5348 2.78711 15.6368 2.66894 15.7432C2.2585 16.1125 1.6263 16.0792 1.25683 15.669C0.887419 15.2585 0.920643 14.6263 1.33105 14.2568C1.7155 13.9109 2.10122 13.6026 2.48633 13.3262C2.51391 13.3042 2.54205 13.2833 2.57129 13.2647C3.78679 12.4076 5.00267 11.875 6.2041 11.544C6.21732 11.5399 6.23079 11.5367 6.24414 11.5332C8.22565 10.9944 10.1669 11 12 11C13.2305 11 14.4119 10.9952 15.5654 10.8545C15.4303 10.498 15.5059 10.0801 15.793 9.79297C16.1835 9.40245 16.8165 9.40245 17.207 9.79297L17.7832 10.3691C18.2901 10.1994 18.7941 9.98454 19.2969 9.71094L19.293 9.70704C18.9025 9.31653 18.9025 8.6835 19.293 8.29297Z" fill="#E4F2F2"/>
<path d="M14.2568 1.33106C14.6263 0.920675 15.2584 0.887539 15.6689 1.25684C16.079 1.62622 16.1132 2.25853 15.7441 2.66895C15.638 2.78693 15.5356 2.90467 15.4375 3.02247L17.707 5.292C18.0974 5.68238 18.0971 6.31551 17.707 6.70606C17.3165 7.09657 16.6835 7.09654 16.293 6.70606L14.2891 4.70215C14.0143 5.2068 13.8003 5.71161 13.6309 6.2168L14.707 7.29297C15.0974 7.68351 15.0975 8.31656 14.707 8.70704C14.3166 9.09746 13.6835 9.09739 13.293 8.70704L13.0645 8.47852C12.8685 8.82998 12.4718 9.04325 12.0498 8.98243C11.5035 8.90317 11.1251 8.39602 11.2041 7.84961C11.5168 5.68815 12.3065 3.49841 14.2568 1.33106Z" fill="#E4F2F2"/>
</svg>
