<svg width="24" height="24" viewBox="0 0 24 24" fill="none" xmlns="http://www.w3.org/2000/svg">
<path d="M12.75 15.25C13.1544 15.25 13.519 15.4936 13.6738 15.8672C13.8286 16.2408 13.743 16.671 13.457 16.957L12.707 17.707C12.3165 18.0974 11.6834 18.0975 11.293 17.707L10.543 16.957C10.257 16.6711 10.1715 16.2408 10.3262 15.8672C10.4809 15.4936 10.8456 15.2501 11.25 15.25H12.75Z" fill="#E4F2F2"/>
<path d="M7.99999 13C8.55227 13 8.99999 13.4477 8.99999 14V14.5C8.99993 15.0522 8.55224 15.5 7.99999 15.5C7.44781 15.4999 7.00004 15.0522 6.99999 14.5V14C6.99999 13.4478 7.44778 13.0001 7.99999 13Z" fill="#E4F2F2"/>
<path d="M16 13C16.5523 13 17 13.4477 17 14V14.5C16.9999 15.0522 16.5522 15.5 16 15.5C15.4478 15.4999 15 15.0522 15 14.5V14C15 13.4478 15.4478 13.0001 16 13Z" fill="#E4F2F2"/>
<path fill-rule="evenodd" clip-rule="evenodd" d="M6.33495 2.01366C7.53442 1.81344 8.69716 2.07203 9.58104 2.63085C10.1314 2.97888 10.6116 3.47435 10.8916 4.07714C11.6834 3.97329 12.4859 3.98136 13.2754 4.10155C13.5722 3.49087 14.0776 2.99354 14.6348 2.64745C15.5368 2.0872 16.7239 1.8121 17.9316 2.01366C18.9489 2.18316 19.7521 2.79571 20.3574 3.49999C20.9645 4.20648 21.4349 5.07581 21.789 5.91503C22.1456 6.75992 22.402 7.61719 22.5625 8.33397C22.7123 9.00288 22.8098 9.68203 22.7607 10.1133C22.7029 10.6206 22.3994 11.02 22.1172 11.2842C21.814 11.5679 21.4243 11.803 20.9892 11.9687C20.9078 11.9997 20.8231 12.0253 20.7373 12.0517C20.9062 12.8737 20.9962 13.7108 21 14.5517V14.5557C20.9999 16.9644 19.9496 18.8684 18.2578 20.1416C16.5948 21.3929 14.3666 22 12 22C9.6333 22 7.40513 21.393 5.74217 20.1416C4.15618 18.948 3.13434 17.2003 3.01268 15.0019L2.99999 14.5557C2.99928 13.682 3.08047 12.8107 3.24022 11.9531C2.82059 11.7883 2.44463 11.5596 2.15038 11.2842C1.86811 11.02 1.56469 10.6208 1.50682 10.1133C1.4578 9.68205 1.55432 9.00285 1.70409 8.33397C1.8646 7.61724 2.12105 6.75987 2.47753 5.91503C2.83164 5.07586 3.30306 4.20646 3.91014 3.49999C4.5153 2.79594 5.31805 2.18327 6.33495 2.01366ZM8.5117 4.32128C8.05095 4.03008 7.38817 3.86571 6.66503 3.98632C6.27128 4.05197 5.85346 4.30723 5.42674 4.8037C5.00161 5.29844 4.62738 5.96466 4.3203 6.69237C4.01574 7.41416 3.794 8.15623 3.65624 8.77147C3.58747 9.0786 3.54183 9.34536 3.51659 9.5537C3.50434 9.65485 3.49686 9.73662 3.49413 9.79882C3.50097 9.80588 3.50731 9.81551 3.51659 9.82421C3.60461 9.90659 3.76286 10.013 3.99022 10.0996C4.43709 10.2697 5.07965 10.3348 5.80565 10.0635L5.97069 9.99511C6.77778 9.63536 7.26279 8.97032 7.56053 8.15624C7.75026 7.63769 8.32513 7.37096 8.84374 7.56054C9.3623 7.7503 9.62911 8.32511 9.43944 8.84374C8.989 10.0752 8.12128 11.3321 6.50682 11.9365C6.06752 12.1007 5.63506 12.1926 5.22167 12.2285C5.07312 12.9943 4.99932 13.7735 4.99999 14.5547C5.00003 16.3178 5.74071 17.6382 6.94432 18.5439C8.17677 19.4714 9.9489 20 12 20C14.051 20 15.8232 19.4713 17.0556 18.5439C18.2583 17.6389 18.9987 16.3214 19 14.5605L18.9912 14.1767C18.9642 13.5069 18.8741 12.8411 18.7226 12.1885C18.4817 12.1506 18.2354 12.0947 17.9863 12.0146L17.7607 11.9365C16.1064 11.3172 15.3622 10.0184 14.9326 8.84374C14.7429 8.32514 15.0098 7.75033 15.5283 7.56054C16.047 7.37086 16.6218 7.63762 16.8115 8.15624C17.1499 9.08142 17.5946 9.73876 18.4619 10.0635C19.1878 10.3347 19.8305 10.2697 20.2773 10.0996C20.5044 10.0131 20.6619 9.90655 20.75 9.82421C20.7588 9.81599 20.7649 9.80658 20.7715 9.79979C20.7688 9.73749 20.7633 9.65534 20.751 9.5537C20.7257 9.34534 20.6791 9.07863 20.6103 8.77147C20.4726 8.15618 20.2509 7.4142 19.9463 6.69237C19.6392 5.96463 19.266 5.29844 18.8408 4.8037C18.4674 4.36917 18.1013 4.11915 17.7519 4.01952L17.6025 3.98632C16.8875 3.86701 16.191 4.03578 15.6904 4.34667C15.1696 4.67019 15 5.04328 15 5.27733C14.9998 5.58959 14.854 5.88421 14.6055 6.07323C14.3568 6.26225 14.0334 6.3237 13.7324 6.24022C12.6429 5.93817 11.4933 5.92585 10.3974 6.20409C10.0984 6.27997 9.78062 6.21377 9.5371 6.0244C9.29368 5.83504 9.15149 5.54373 9.15135 5.23534C9.15135 4.97804 8.98458 4.62026 8.5117 4.32128Z" fill="#E4F2F2"/>
</svg>
