<svg width="24" height="24" viewBox="0 0 24 24" fill="none" xmlns="http://www.w3.org/2000/svg">
<path fill-rule="evenodd" clip-rule="evenodd" d="M12 6C12.5523 6 13 6.44772 13 7H16C16.5523 7 17 7.44772 17 8C17 8.55228 16.5523 9 16 9H13V11H14C14.7957 11 15.5585 11.3163 16.1211 11.8789C16.6837 12.4415 17 13.2043 17 14C17 14.7957 16.6837 15.5585 16.1211 16.1211C15.5585 16.6837 14.7957 17 14 17H13C13 17.5523 12.5523 18 12 18C11.4477 18 11 17.5523 11 17H8C7.44772 17 7 16.5523 7 16C7 15.4477 7.44772 15 8 15H11V13H10C9.20435 13 8.44151 12.6837 7.87891 12.1211C7.38671 11.6289 7.08291 10.9835 7.01465 10.2969L7 10C7 9.20435 7.3163 8.44151 7.87891 7.87891C8.44151 7.3163 9.20435 7 10 7H11C11 6.44772 11.4477 6 12 6ZM13 15H14C14.2652 15 14.5195 14.8946 14.707 14.707C14.8946 14.5195 15 14.2652 15 14C15 13.7348 14.8946 13.4805 14.707 13.293C14.5195 13.1054 14.2652 13 14 13H13V15ZM10 9C9.73478 9 9.48051 9.10543 9.29297 9.29297C9.10543 9.48051 9 9.73478 9 10L9.00488 10.0986C9.02757 10.3276 9.12883 10.5429 9.29297 10.707C9.48051 10.8946 9.73478 11 10 11H11V9H10Z" fill="#E4F2F2"/>
<path fill-rule="evenodd" clip-rule="evenodd" d="M19 2C20.6569 2 22 3.34315 22 5V19C22 20.6569 20.6569 22 19 22H5C3.34315 22 2 20.6569 2 19V5C2 3.34315 3.34315 2 5 2H19ZM5 4C4.44772 4 4 4.44772 4 5V19C4 19.5523 4.44772 20 5 20H19C19.5523 20 20 19.5523 20 19V5C20 4.44772 19.5523 4 19 4H5Z" fill="#E4F2F2"/>
</svg>
