<svg width="24" height="24" viewBox="0 0 24 24" fill="none" xmlns="http://www.w3.org/2000/svg">
<path fill-rule="evenodd" clip-rule="evenodd" d="M12 1C12.5523 1 13 1.44772 13 2V4H17C17.5523 4 18 4.44772 18 5C18 5.55228 17.5523 6 17 6H13V11H14.5C15.6935 11 16.8377 11.4744 17.6816 12.3184C18.5256 13.1623 19 14.3065 19 15.5C19 16.6935 18.5256 17.8377 17.6816 18.6816C16.8377 19.5256 15.6935 20 14.5 20H13V22C13 22.5523 12.5523 23 12 23C11.4477 23 11 22.5523 11 22V20H6C5.44772 20 5 19.5523 5 19C5 18.4477 5.44772 18 6 18H11V13H9.5C8.30653 13 7.16227 12.5256 6.31836 11.6816C5.52708 10.8904 5.06093 9.83506 5.00586 8.72266L5 8.5C5 7.30653 5.47445 6.16227 6.31836 5.31836C7.16227 4.47445 8.30653 4 9.5 4H11V2C11 1.44772 11.4477 1 12 1ZM13 18H14.5L14.7471 17.9873C15.3194 17.9305 15.8573 17.6778 16.2676 17.2676C16.7364 16.7987 17 16.163 17 15.5C17 14.837 16.7364 14.2013 16.2676 13.7324C15.8573 13.3222 15.3194 13.0695 14.7471 13.0127L14.5 13H13V18ZM9.5 6C8.83696 6 8.20126 6.26358 7.73242 6.73242C7.26358 7.20126 7 7.83696 7 8.5L7.0127 8.74707C7.06952 9.31937 7.32219 9.85735 7.73242 10.2676C8.20126 10.7364 8.83696 11 9.5 11H11V6H9.5Z" fill="#E4F2F2"/>
</svg>
