<svg width="24" height="24" viewBox="0 0 24 24" fill="none" xmlns="http://www.w3.org/2000/svg">
<path fill-rule="evenodd" clip-rule="evenodd" d="M12 8C14.2091 8 16 9.79088 16 12C16 14.2091 14.2091 16 12 16C9.79088 16 8.00001 14.2091 8.00001 12C8.00003 9.79089 9.7909 8.00002 12 8ZM12 10C10.8955 10 10 10.8955 10 12C10 13.1046 10.8955 14 12 14C13.1046 14 14 13.1046 14 12C14 10.8954 13.1046 10 12 10Z" fill="#E4F2F2"/>
<path fill-rule="evenodd" clip-rule="evenodd" d="M8.59669 1.52051C10.9278 0.770561 13.4433 0.820342 15.7432 1.66113C16.0188 1.76194 16.2363 1.97862 16.3379 2.2539C16.4394 2.52941 16.4148 2.83609 16.2705 3.0918C16.1024 3.38981 16.0152 3.72716 16.0186 4.06933C16.022 4.4116 16.116 4.74729 16.29 5.04199C16.4642 5.33664 16.7127 5.58088 17.0107 5.74902C17.3089 5.9171 17.647 6.00353 17.9893 6H18.0996C18.3999 6 18.6841 6.13557 18.874 6.36816C19.0639 6.60076 19.1392 6.90603 19.0791 7.20019C19.0351 7.41562 19.0393 7.6388 19.0908 7.85254C19.1424 8.06619 19.2407 8.26586 19.3779 8.4375C19.5152 8.60909 19.6887 8.74848 19.8857 8.8457C20.08 8.94146 20.2933 8.99329 20.5098 8.99902C20.8042 8.99714 21.0739 8.91467 21.1445 8.86816C21.4169 8.68656 21.7618 8.6496 22.0664 8.76953C22.3711 8.88972 22.5977 9.15195 22.6729 9.4707C23.2341 11.8544 22.9839 14.3576 21.9619 16.583C20.9399 18.8081 19.2048 20.6293 17.0313 21.7568C14.8575 22.8843 12.3687 23.2539 9.96094 22.8076C7.55343 22.3612 5.36345 21.1244 3.73829 19.293C2.11303 17.4613 1.14493 15.1391 0.988287 12.6953C0.831781 10.2519 1.49522 7.82573 2.87305 5.80176C4.25115 3.77773 6.26577 2.27056 8.59669 1.52051ZM14.1016 3.25C12.4925 2.85695 10.7991 2.91364 9.20997 3.4248C7.30283 4.03846 5.65393 5.27074 4.52637 6.92676C3.39895 8.58276 2.85634 10.5681 2.98438 12.5674C3.11255 14.5668 3.90464 16.4672 5.23438 17.9658C6.56409 19.4642 8.35641 20.4766 10.3262 20.8418C12.2959 21.2068 14.332 20.9038 16.1104 19.9814C17.8887 19.0589 19.3084 17.5686 20.1445 15.748C20.8321 14.2509 21.0916 12.6003 20.9072 10.9766C20.7621 10.9925 20.624 11 20.5 11C20.4935 11 20.4859 11.0001 20.4795 11C19.9668 10.9898 19.462 10.8673 19.002 10.6406C18.5419 10.4138 18.1369 10.088 17.8164 9.6875C17.4959 9.28683 17.2668 8.82008 17.1465 8.32129C17.1126 8.18053 17.0885 8.0377 17.0723 7.89453C16.7089 7.80978 16.3571 7.67595 16.0293 7.49121C15.4251 7.15061 14.9212 6.65667 14.5684 6.05957C14.2156 5.46256 14.0255 4.78325 14.0186 4.08984C14.0158 3.80673 14.0447 3.52496 14.1016 3.25Z" fill="#E4F2F2"/>
</svg>
