<svg width="24" height="24" viewBox="0 0 24 24" fill="none" xmlns="http://www.w3.org/2000/svg">
<path fill-rule="evenodd" clip-rule="evenodd" d="M12 11C13.6569 11 15 12.3431 15 14C15 15.6569 13.6569 17 12 17C10.3431 17 9 15.6569 9 14C9 12.3431 10.3431 11 12 11ZM12 13C11.4477 13 11 13.4477 11 14C11 14.5523 11.4477 15 12 15C12.5523 15 13 14.5523 13 14C13 13.4477 12.5523 13 12 13Z" fill="#E4F2F2"/>
<path d="M8.00977 7C8.56205 7 9.00977 7.44772 9.00977 8C9.00977 8.55228 8.56205 9 8.00977 9H8C7.44772 9 7 8.55228 7 8C7 7.44772 7.44772 7 8 7H8.00977Z" fill="#E4F2F2"/>
<path d="M12.0098 7C12.5621 7 13.0098 7.44772 13.0098 8C13.0098 8.55228 12.5621 9 12.0098 9H12C11.4477 9 11 8.55228 11 8C11 7.44772 11.4477 7 12 7H12.0098Z" fill="#E4F2F2"/>
<path d="M16.0098 7C16.5621 7 17.0098 7.44772 17.0098 8C17.0098 8.55228 16.5621 9 16.0098 9H16C15.4477 9 15 8.55228 15 8C15 7.44772 15.4477 7 16 7H16.0098Z" fill="#E4F2F2"/>
<path fill-rule="evenodd" clip-rule="evenodd" d="M12 0.855469C12.8575 0.855469 13.6914 1.13772 14.3721 1.65918C14.8408 2.01834 15.2165 2.4788 15.4795 3H19C19.5271 3 20.0439 3.18075 20.4316 3.56836C20.8191 3.95599 20.9999 4.47303 21 5V19C20.9999 19.5271 20.8193 20.045 20.4316 20.4326C20.0439 20.8201 19.527 21 19 21H15.4795C15.2165 21.5214 14.841 21.9825 14.3721 22.3418C13.6914 22.8631 12.8574 23.1455 12 23.1455C11.1426 23.1455 10.3086 22.8631 9.62793 22.3418C9.15896 21.9825 8.78352 21.5214 8.52051 21H5C4.47297 21 3.95608 20.8201 3.56836 20.4326C3.1807 20.045 3.00011 19.5271 3 19V5L3.00879 4.80371C3.04852 4.34626 3.22916 3.90768 3.56836 3.56836C3.95611 3.18075 4.47286 3 5 3H8.52051C8.78347 2.4788 9.15919 2.01834 9.62793 1.65918C10.3086 1.13772 11.1425 0.855469 12 0.855469ZM12 2.85547C11.5823 2.85547 11.1763 2.99311 10.8447 3.24707C10.5132 3.5011 10.2738 3.8575 10.165 4.26074C10.0472 4.69685 9.65196 4.99991 9.2002 5H5V19H9.2002L9.36621 19.0146C9.74643 19.0786 10.0621 19.3583 10.165 19.7402C10.2739 20.1434 10.5132 20.5 10.8447 20.7539C11.1763 21.0077 11.5824 21.1455 12 21.1455C12.4176 21.1455 12.8237 21.0077 13.1553 20.7539C13.4868 20.5 13.7261 20.1434 13.835 19.7402L13.8916 19.583C14.0524 19.2328 14.4044 19.0001 14.7998 19H19V5H14.7998C14.348 4.99991 13.9528 4.69685 13.835 4.26074C13.7262 3.8575 13.4868 3.5011 13.1553 3.24707C12.8237 2.99311 12.4177 2.85547 12 2.85547Z" fill="#E4F2F2"/>
</svg>
