<svg width="24" height="24" viewBox="0 0 24 24" fill="none" xmlns="http://www.w3.org/2000/svg">
<path d="M14.0098 11.0005C14.5621 11.0005 15.0098 11.4482 15.0098 12.0005C15.0096 12.5526 14.562 13.0005 14.0098 13.0005H14C13.4478 13.0005 13.0001 12.5526 13 12.0005C13 11.4482 13.4477 11.0005 14 11.0005H14.0098Z" fill="#E4F2F2"/>
<path fill-rule="evenodd" clip-rule="evenodd" d="M12.3779 1.62842C12.8238 1.53394 13.2854 1.54232 13.7275 1.65283L17.7275 2.65283C18.3764 2.81507 18.9526 3.18923 19.3643 3.71631C19.7759 4.24352 19.9999 4.89413 20 5.56299V19.0005H22C22.5523 19.0005 23 19.4482 23 20.0005C22.9999 20.5527 22.5522 21.0005 22 21.0005H19.125L12.4844 22.6597C12.1897 22.7332 11.8811 22.7384 11.584 22.6753C11.2871 22.6122 11.0078 22.4822 10.7686 22.2954C10.5294 22.1085 10.3353 21.8689 10.2021 21.5962C10.1104 21.4081 10.0507 21.2066 10.0215 21.0005H2C1.44781 21.0005 1.00015 20.5527 1 20.0005C1 19.4482 1.44772 19.0005 2 19.0005H5V6.00049C5 5.20491 5.31638 4.44199 5.87891 3.8794C6.44152 3.31679 7.20435 3.00049 8 3.00049H10.4404C10.628 2.69284 10.8691 2.42036 11.1543 2.19776C11.5135 1.91746 11.9322 1.72292 12.3779 1.62842ZM13.2422 3.59326C13.095 3.5565 12.9414 3.55307 12.793 3.58448C12.6444 3.61598 12.5045 3.68147 12.3848 3.7749C12.2652 3.86831 12.1682 3.98818 12.1016 4.12451C12.0354 4.26025 12.0002 4.41096 12 4.56299V20.7192L18 19.2192V5.56299C18 5.34017 17.9251 5.12343 17.7881 4.94776C17.6509 4.77203 17.4585 4.64736 17.2422 4.59326L13.2422 3.59326ZM8 5.00049C7.73478 5.00049 7.4805 5.10592 7.29297 5.29346C7.10552 5.48098 7 5.73534 7 6.00049V19.0005H10V5.00049H8Z" fill="#E4F2F2"/>
</svg>
