<svg width="24" height="24" viewBox="0 0 24 24" fill="none" xmlns="http://www.w3.org/2000/svg">
<path d="M21 14C21.5523 14 22 14.4477 22 15V19C22 19.7957 21.6837 20.5585 21.1211 21.1211C20.5585 21.6837 19.7957 22 19 22H5C4.20435 22 3.44151 21.6837 2.87891 21.1211C2.3163 20.5585 2 19.7957 2 19V15C2 14.4477 2.44772 14 3 14C3.55228 14 4 14.4477 4 15V19L4.00488 19.0986C4.02757 19.3276 4.12883 19.5429 4.29297 19.707C4.48051 19.8946 4.73478 20 5 20H19C19.2652 20 19.5195 19.8946 19.707 19.707C19.8946 19.5195 20 19.2652 20 19V15C20 14.4477 20.4477 14 21 14Z" fill="#E4F2F2"/>
<path d="M12 2C12.5523 2 13 2.44772 13 3V12.5859L16.293 9.29297C16.6835 8.90244 17.3165 8.90244 17.707 9.29297C18.0976 9.68349 18.0976 10.3165 17.707 10.707L12.707 15.707C12.6592 15.7548 12.6065 15.7976 12.5498 15.835C12.5121 15.8599 12.4727 15.8811 12.4326 15.9004C12.3874 15.9222 12.3407 15.9412 12.292 15.9561C12.2717 15.9622 12.251 15.9668 12.2305 15.9717C12.2191 15.9744 12.2078 15.9772 12.1963 15.9795C12.1859 15.9816 12.1754 15.9826 12.165 15.9844C12.1112 15.9933 12.0563 16 12 16C11.9433 16 11.8881 15.9934 11.834 15.9844C11.8236 15.9826 11.8131 15.9816 11.8027 15.9795C11.7912 15.9772 11.7799 15.9744 11.7686 15.9717C11.748 15.9668 11.7273 15.9623 11.707 15.9561C11.6584 15.9412 11.6116 15.9222 11.5664 15.9004C11.5266 15.8812 11.4877 15.8597 11.4502 15.835C11.3935 15.7976 11.3408 15.7548 11.293 15.707L6.29297 10.707C5.90244 10.3165 5.90244 9.68349 6.29297 9.29297C6.68349 8.90244 7.31651 8.90244 7.70703 9.29297L11 12.5859V3C11 2.44772 11.4477 2 12 2Z" fill="#E4F2F2"/>
</svg>
