<svg width="24" height="24" viewBox="0 0 24 24" fill="none" xmlns="http://www.w3.org/2000/svg">
<path fill-rule="evenodd" clip-rule="evenodd" d="M11.9995 2C13.6564 2 14.9995 3.34315 14.9995 5C14.9995 5.75265 14.72 6.43816 14.2622 6.96484L15.7915 9.69141C16.0615 10.173 15.8903 10.7826 15.4087 11.0527C14.9272 11.3224 14.3175 11.1511 14.0474 10.6699L12.5239 7.95312C12.3537 7.98312 12.1783 8 11.9995 8C11.8233 7.99997 11.6508 7.98424 11.4829 7.95508L8.48877 13.2793C8.49868 13.2835 8.50813 13.2888 8.51806 13.293C9.62063 13.7556 10.8048 13.9941 12.0005 13.9941C13.196 13.9941 14.3795 13.7554 15.4819 13.293C16.5845 12.8304 17.5847 12.1529 18.4224 11.2998C18.8092 10.9058 19.4423 10.8994 19.8364 11.2861C20.2305 11.673 20.2359 12.3061 19.8491 12.7002C18.8252 13.743 17.604 14.5723 16.2563 15.1377C14.9088 15.7031 13.4618 15.9941 12.0005 15.9941C10.5392 15.9941 9.09209 15.703 7.74463 15.1377C7.66357 15.1037 7.58453 15.0652 7.50439 15.0293L3.87158 21.4902C3.60076 21.9713 2.99052 22.1427 2.50928 21.8721C2.02821 21.6013 1.85705 20.991 2.12744 20.5098L5.76025 14.0498C5.1838 13.6525 4.64362 13.202 4.15088 12.7002C3.76446 12.3061 3.77074 11.6729 4.16455 11.2861C4.55862 10.8996 5.19179 10.906 5.57861 11.2998C5.93864 11.6664 6.3305 11.9982 6.7456 12.2969L9.7417 6.9707C9.28111 6.44334 8.99951 5.75518 8.99951 5C8.99951 3.3433 10.3429 2.00025 11.9995 2ZM11.9995 4C11.4474 4.00025 10.9995 4.44787 10.9995 5C10.9995 5.36353 11.1948 5.68041 11.4849 5.85547C11.493 5.85973 11.5012 5.86366 11.5093 5.86816C11.5189 5.87359 11.5282 5.88005 11.5376 5.88574C11.6759 5.95807 11.8327 5.99993 11.9995 6C12.5518 6 12.9995 5.55228 12.9995 5C12.9995 4.44772 12.5518 4 11.9995 4Z" fill="#E4F2F2"/>
<path d="M18.3501 16.2891C18.8314 16.0185 19.4406 16.1888 19.7114 16.6699L21.8716 20.5098C22.1421 20.991 21.9718 21.6013 21.4907 21.8721C21.0095 22.1427 20.3992 21.9714 20.1284 21.4902L17.9692 17.6504C17.6985 17.1691 17.8689 16.5599 18.3501 16.2891Z" fill="#E4F2F2"/>
</svg>
