<svg width="24" height="24" viewBox="0 0 24 24" fill="none" xmlns="http://www.w3.org/2000/svg">
<path d="M6.51025 12.0996C7.06227 12.0998 7.51004 12.5476 7.51025 13.0996C7.51025 13.6518 7.0624 14.0994 6.51025 14.0996H6.50049C5.9482 14.0996 5.50049 13.6519 5.50049 13.0996C5.5007 12.5475 5.94833 12.0996 6.50049 12.0996H6.51025Z" fill="#E4F2F2"/>
<path d="M16.6929 9.19336C17.0834 8.80287 17.7164 8.80293 18.1069 9.19336C18.4973 9.5839 18.4974 10.2169 18.1069 10.6074C16.9165 11.7976 15.0835 11.7977 13.8931 10.6074C13.5026 10.217 13.5028 9.5839 13.8931 9.19336C14.2836 8.80283 14.9166 8.80283 15.3071 9.19336C15.7165 9.60257 16.2835 9.60245 16.6929 9.19336Z" fill="#E4F2F2"/>
<path d="M14.0103 5C14.5624 5.00017 15.0103 5.44782 15.0103 6C15.0103 6.55218 14.5624 6.99983 14.0103 7H14.0005C13.4482 7 13.0005 6.55228 13.0005 6C13.0005 5.44772 13.4482 5 14.0005 5H14.0103Z" fill="#E4F2F2"/>
<path d="M18.0103 5C18.5624 5.00017 19.0103 5.44782 19.0103 6C19.0103 6.55218 18.5624 6.99983 18.0103 7H18.0005C17.4482 7 17.0005 6.55228 17.0005 6C17.0005 5.44772 17.4482 5 18.0005 5H18.0103Z" fill="#E4F2F2"/>
<path fill-rule="evenodd" clip-rule="evenodd" d="M16.0005 1C18.0514 1.00003 19.7389 1.25102 20.9478 1.85547C21.5663 2.16477 22.0904 2.58215 22.4575 3.13281C22.8288 3.68977 23.0005 4.32507 23.0005 5C23.0005 9.64236 21.9689 12.85 20.5825 14.9297C19.3249 16.8161 17.7188 17.8327 16.3423 17.9795C16.1074 20.2015 15.1586 21.8065 14.0063 22.46L14.0073 22.4619C14.0018 22.4652 13.9954 22.4675 13.9897 22.4707L13.9858 22.4736L13.9849 22.4727C12.7404 23.1908 10.6979 23.1784 8.50732 22.0967C6.26367 20.9887 3.75967 18.7261 1.43897 14.7061C1.09923 14.1283 0.926835 13.4955 0.966309 12.8291C1.0055 12.1704 1.24648 11.545 1.62549 10.9648C2.3673 9.8297 3.70621 8.75898 5.50439 7.73145L5.53271 7.71582C6.838 7.02482 7.98357 6.52455 9.02979 6.27051C9.01214 5.85946 9.00049 5.43612 9.00049 5C9.00049 4.32502 9.17213 3.68981 9.54346 3.13281C9.91061 2.58215 10.4346 2.16476 11.0532 1.85547C12.2622 1.25108 13.9496 1 16.0005 1ZM9.19385 8.29883C8.46775 8.5124 7.58874 8.8909 6.48291 9.47559C4.79008 10.4445 3.78248 11.321 3.30029 12.0586C3.06709 12.4155 2.97657 12.7104 2.9624 12.9482C2.95225 13.1208 2.97931 13.3006 3.06104 13.4941L3.1626 13.6924L3.1665 13.7002C5.34447 17.4752 7.58817 19.4114 9.39307 20.3027C11.2398 21.2147 12.536 21.0065 12.9937 20.7373L13.0142 20.7256C13.4251 20.4971 14.2095 19.537 14.3687 17.6094C13.6124 17.2621 12.8422 16.6826 12.1362 15.8701C11.8874 16.0755 11.5446 16.1582 11.2124 16.0586C10.7738 15.9272 10.2234 16.1828 10.0649 16.7637C9.91944 17.2961 9.36995 17.6099 8.8374 17.4648C8.30472 17.3196 7.99023 16.77 8.13525 16.2373C8.49113 14.9324 9.63177 14.0663 10.8784 14.0244C10.5576 13.4246 10.2651 12.7511 10.0112 11.999L10.0103 12H10.0005C9.4482 12 9.00049 11.5523 9.00049 11C9.00049 10.6292 9.20261 10.3065 9.50244 10.1338C9.37856 9.5581 9.274 8.94711 9.19385 8.29883ZM16.0005 3C14.0518 3 12.7388 3.24908 11.9478 3.64453C11.5665 3.83517 11.3404 4.04297 11.2075 4.24219C11.0788 4.43519 11.0005 4.67498 11.0005 5C11.0005 5.64595 11.0241 6.25733 11.064 6.83594C11.0792 6.89168 11.0907 6.94926 11.0962 7.00879C11.1028 7.08136 11.1008 7.15314 11.0923 7.22266C11.358 10.3351 12.1713 12.4535 13.0825 13.8203C13.9419 15.1093 14.853 15.6952 15.4858 15.9043C15.5945 15.9136 15.6984 15.9392 15.7944 15.9805C15.8705 15.9929 15.9396 16 16.0005 16C16.5545 15.9998 17.7821 15.5248 18.9185 13.8203C20.0319 12.15 21.0005 9.35741 21.0005 5C21.0005 4.67506 20.9221 4.43517 20.7935 4.24219C20.6606 4.04297 20.4344 3.83518 20.0532 3.64453C19.2622 3.24903 17.9492 3.00003 16.0005 3Z" fill="#E4F2F2"/>
</svg>
