<svg width="24" height="24" viewBox="0 0 24 24" fill="none" xmlns="http://www.w3.org/2000/svg">
<path fill-rule="evenodd" clip-rule="evenodd" d="M16 1C16.5523 1 17 1.44772 17 2V4.68848C17.4897 5.43556 17.8121 6.28132 17.9414 7.16797C18.0873 8.16818 17.984 9.18896 17.6406 10.1396C17.6368 10.1503 17.6331 10.1614 17.6289 10.1719L17.4287 10.6719C17.0979 11.5516 16.9571 12.4916 17.0166 13.4297C17.076 14.3649 17.3336 15.2767 17.7705 16.1055C18.1675 16.7506 18.6821 17.5848 19.1006 18.2617C19.3129 18.6051 19.5005 18.9079 19.6348 19.125C19.7019 19.2335 19.7559 19.3209 19.793 19.3809C19.8115 19.4108 19.8262 19.4345 19.8359 19.4502C19.8406 19.4577 19.8443 19.4639 19.8467 19.4678C19.8478 19.4695 19.849 19.4707 19.8496 19.4717V19.4736L19.8994 19.5625C20.1187 20.0121 19.9711 20.5629 19.542 20.8398L19 20C19.5179 20.8027 19.5412 20.8381 19.542 20.8398L19.54 20.8418C19.5391 20.8424 19.5374 20.843 19.5361 20.8438C19.5334 20.8455 19.5296 20.848 19.5254 20.8506C19.5168 20.856 19.5047 20.8641 19.4902 20.873C19.4612 20.891 19.4199 20.9157 19.3682 20.9463C19.264 21.0079 19.1144 21.0942 18.9248 21.1953C18.5457 21.3975 18.0021 21.6639 17.3311 21.9297C15.9941 22.4592 14.115 23 12 23C9.88503 23 8.00588 22.4592 6.66896 21.9297C5.9979 21.6639 5.45432 21.3975 5.07521 21.1953C4.88559 21.0942 4.73599 21.0079 4.63185 20.9463C4.58011 20.9157 4.53881 20.891 4.50978 20.873C4.4953 20.8641 4.48319 20.856 4.47462 20.8506C4.47044 20.8479 4.4666 20.8455 4.46388 20.8438C4.46261 20.843 4.46088 20.8424 4.45997 20.8418L4.459 20.8408C4.45897 20.8403 4.46911 20.8229 5.00001 20L4.45802 20.8398C4.00034 20.5444 3.8628 19.9369 4.14942 19.4736L4.1504 19.4727C4.15099 19.4717 4.15215 19.4697 4.15333 19.4678C4.15574 19.4639 4.15935 19.4578 4.16407 19.4502C4.17364 19.4347 4.18772 19.4116 4.20607 19.3818C4.24282 19.3223 4.2966 19.2355 4.36329 19.127C4.49696 18.9093 4.68413 18.604 4.89552 18.2559C5.31676 17.562 5.83052 16.7023 6.22267 16.0166C6.64905 15.1977 6.9015 14.2994 6.96095 13.3779C7.02024 12.4586 6.8874 11.537 6.5713 10.6719L6.3711 10.1719C6.36091 10.1464 6.35183 10.12 6.34376 10.0938C6.05391 9.15014 5.97768 8.15355 6.12013 7.17676C6.24739 6.30426 6.54756 5.46726 7.00001 4.71289V2C7.00001 1.44779 7.44783 1.00012 8.00001 1C8.5523 1 9.00001 1.44772 9.00001 2V4.08887C10.1847 4.30067 11.2253 4.88399 12 5.72656C12.7746 4.88407 13.8155 4.30174 15 4.08984V2C15 1.44779 15.4478 1.00012 16 1ZM15.4795 6.03516C14.3088 6.2004 13.3742 6.92009 12.9063 7.92285C12.7419 8.27488 12.3885 8.5 12 8.5C11.6116 8.49991 11.258 8.27486 11.0938 7.92285C10.6297 6.92845 9.70686 6.21398 8.54982 6.04102C8.32487 6.48765 8.17213 6.96858 8.09962 7.46582C8.0016 8.13823 8.05129 8.82389 8.2461 9.47461L8.42872 9.92871L8.43751 9.95312C8.85743 11.0883 9.03496 12.299 8.95704 13.5068C8.87911 14.7147 8.54767 15.893 7.98536 16.9648C7.97985 16.9753 7.97367 16.9858 7.96778 16.9961C7.56094 17.7081 7.03038 18.5925 6.6045 19.2939C6.534 19.4101 6.46539 19.521 6.40138 19.626C6.67946 19.7621 7.01724 19.9166 7.40528 20.0703C8.59327 20.5408 10.2152 21 12 21C13.7848 21 15.4067 20.5408 16.5947 20.0703C16.9806 19.9175 17.3166 19.7635 17.5938 19.6279C17.5321 19.5282 17.467 19.4228 17.3994 19.3135C16.9744 18.626 16.4494 17.7749 16.0488 17.124C16.038 17.1065 16.0273 17.0885 16.0176 17.0703C15.4389 15.9836 15.0985 14.7854 15.0205 13.5566C14.9425 12.3279 15.1289 11.0965 15.5654 9.94531L15.5713 9.92871L15.7627 9.44824C15.9909 8.81053 16.0597 8.12639 15.9619 7.45605C15.8889 6.95561 15.7247 6.47428 15.4795 6.03516Z" fill="#E4F2F2"/>
</svg>
