<svg width="24" height="24" viewBox="0 0 24 24" fill="none" xmlns="http://www.w3.org/2000/svg">
<path fill-rule="evenodd" clip-rule="evenodd" d="M12 1C18.0751 1 23 5.92487 23 12C23 18.0751 18.0751 23 12 23C5.92487 23 1 18.0751 1 12C1 5.92487 5.92487 1 12 1ZM13.7295 14.1533C11.0811 15.0447 8.708 16.7608 6.62012 19.2158C8.12084 20.3365 9.98295 21 12 21C13.2363 21 14.414 20.7499 15.4863 20.2988C14.8947 17.8769 14.3372 15.8974 13.7295 14.1533ZM20.8398 13.6836C19.0254 13.3716 17.3034 13.3684 15.6748 13.6562C16.242 15.3039 16.7605 17.1308 17.2949 19.2754C19.1077 17.9538 20.4065 15.9727 20.8398 13.6836ZM12.168 10.3809C9.51703 11.2036 6.48952 11.635 3.00195 11.8867C3.00149 11.9244 3 11.9622 3 12C3 14.2324 3.81433 16.2737 5.16016 17.8467C7.43609 15.1935 10.068 13.2912 13.0215 12.2803C12.8651 11.8996 12.7046 11.5276 12.5381 11.1621C12.4183 10.8991 12.2944 10.6393 12.168 10.3809ZM19.1182 6.49609C17.6143 7.87999 15.9411 8.91726 14.0605 9.69922C14.1615 9.90901 14.2613 10.1198 14.3584 10.333C14.5699 10.7974 14.7716 11.2702 14.9668 11.7549C16.8603 11.3737 18.8707 11.3389 20.9912 11.6826C20.9236 9.73165 20.2362 7.93995 19.1182 6.49609ZM8.13281 3.87109C5.72057 5.02073 3.90229 7.21272 3.25684 9.86426C6.34411 9.62566 8.95945 9.23866 11.2148 8.58008C10.3722 7.09891 9.37351 5.59644 8.13281 3.87109ZM12 3C11.3531 3 10.7225 3.06953 10.1143 3.19922C11.3065 4.87995 12.2903 6.39221 13.1367 7.91602C14.881 7.2096 16.3888 6.28235 17.7285 5.05762C16.1723 3.77203 14.1762 3 12 3Z" fill="#E4F2F2"/>
</svg>
