<svg width="24" height="24" viewBox="0 0 24 24" fill="none" xmlns="http://www.w3.org/2000/svg">
<path d="M18.8823 13.3438C19.2449 12.9272 19.8769 12.8837 20.2935 13.2461C20.7982 13.6855 21.2098 14.2219 21.5034 14.8233C21.7971 15.4248 21.9674 16.0796 22.0034 16.7481C22.0394 17.4164 21.9406 18.0853 21.7134 18.7149C21.486 19.3446 21.134 19.9228 20.6792 20.4141C20.2245 20.9051 19.676 21.3001 19.0659 21.5752C18.4556 21.8504 17.7957 22.0001 17.1265 22.0156C16.4574 22.0311 15.7917 21.9125 15.1694 21.666C14.5472 21.4196 13.9804 21.0505 13.5034 20.5811C13.1101 20.1938 13.1047 19.5606 13.4917 19.167C13.879 18.7735 14.5121 18.7682 14.9058 19.1553C15.192 19.437 15.5324 19.6587 15.9058 19.8067C16.2792 19.9545 16.6791 20.0259 17.0806 20.0166C17.482 20.0072 17.8776 19.917 18.2437 19.752C18.6098 19.5868 18.9395 19.3495 19.2124 19.0547C19.4851 18.76 19.6962 18.4138 19.8325 18.0361C19.9689 17.6583 20.028 17.2566 20.0063 16.8555C19.9847 16.4546 19.8826 16.0619 19.7065 15.7012C19.5303 15.3403 19.2829 15.0176 18.98 14.7539C18.5638 14.3913 18.52 13.7602 18.8823 13.3438Z" fill="#E4F2F2"/>
<path d="M3.70459 13.2393C4.11856 12.8743 4.75033 12.9135 5.11572 13.3272C5.48088 13.7412 5.44162 14.3738 5.02783 14.7393C4.72823 15.0038 4.4846 15.3256 4.31104 15.6856C4.13744 16.0457 4.03738 16.4367 4.01709 16.8359C3.99682 17.2352 4.05667 17.6349 4.19287 18.0108C4.32906 18.3863 4.53892 18.7311 4.81006 19.0244C5.08138 19.3179 5.40905 19.5545 5.77295 19.7197C6.13684 19.8849 6.53071 19.9762 6.93018 19.9873C7.32955 19.9983 7.72771 19.9289 8.1001 19.7842C8.47249 19.6394 8.81301 19.4215 9.1001 19.1436C9.49696 18.7599 10.1302 18.7703 10.5142 19.167C10.8976 19.5638 10.8872 20.1971 10.4907 20.5811C10.0122 21.0442 9.44543 21.4071 8.82471 21.6484C8.20386 21.8897 7.54034 22.0048 6.87451 21.9863C6.20863 21.9678 5.55237 21.8164 4.9458 21.541C4.33929 21.2656 3.7935 20.871 3.34131 20.3818C2.88924 19.8927 2.53898 19.3176 2.31201 18.6914C2.08512 18.0652 1.98623 17.3996 2.02002 16.7344C2.05384 16.0691 2.22007 15.4174 2.50928 14.8174C2.79861 14.2173 3.20509 13.6802 3.70459 13.2393Z" fill="#E4F2F2"/>
<path fill-rule="evenodd" clip-rule="evenodd" d="M16.2925 6.29298C16.6829 5.90253 17.316 5.90267 17.7065 6.29298C18.0971 6.6835 18.0971 7.31652 17.7065 7.70704L14.9995 10.4141V13.5859L17.7065 16.293C18.0971 16.6835 18.0971 17.3165 17.7065 17.707C17.316 18.0975 16.683 18.0976 16.2925 17.707L14.6753 16.0899C14.3185 16.6374 13.7018 17 12.9995 17H10.9995C10.297 16.9999 9.68041 16.6369 9.32373 16.0889L7.70654 17.707C7.31602 18.0975 6.68299 18.0976 6.29248 17.707C5.90219 17.3165 5.90208 16.6834 6.29248 16.293L8.99951 13.5859V10.4141L6.29248 7.70704C5.90219 7.31652 5.90208 6.68343 6.29248 6.29298C6.68293 5.90253 7.316 5.90267 7.70654 6.29298L9.32373 7.91017C9.6805 7.36271 10.2974 7.0001 10.9995 7.00001H12.9995C13.7014 7.00001 14.3184 7.36218 14.6753 7.90919L16.2925 6.29298ZM10.9995 15H12.9995V9.00001H10.9995V15Z" fill="#E4F2F2"/>
<path d="M17.1226 2.00294C17.7897 2.01936 18.4468 2.16901 19.0552 2.44337C19.6636 2.71782 20.2116 3.11127 20.6655 3.6006C21.1193 4.08978 21.4707 4.66497 21.6987 5.292C21.9267 5.91919 22.0273 6.58644 21.9937 7.25294C21.96 7.91936 21.7924 8.57286 21.5024 9.17384C21.2124 9.77469 20.8049 10.3119 20.3042 10.7529C19.8898 11.1175 19.258 11.0772 18.8931 10.6631C18.5284 10.2488 18.5689 9.61696 18.9829 9.25196C19.2832 8.98742 19.5277 8.66508 19.7017 8.3047C19.8756 7.94423 19.9754 7.55207 19.9956 7.15235C20.0158 6.7525 19.9556 6.35187 19.8188 5.9756C19.682 5.59939 19.471 5.25445 19.1987 4.96095C18.9264 4.66736 18.598 4.43128 18.2329 4.26661C17.868 4.10202 17.4739 4.01185 17.0737 4.00196C16.6734 3.99213 16.2745 4.06251 15.9019 4.209C15.5296 4.35543 15.19 4.57502 14.9038 4.8545C14.5088 5.24008 13.8746 5.23276 13.4888 4.8379C13.1034 4.4429 13.1108 3.80963 13.5054 3.42384C13.9827 2.95754 14.5494 2.59185 15.1704 2.34767C15.7915 2.10353 16.4554 1.98656 17.1226 2.00294Z" fill="#E4F2F2"/>
<path d="M6.88526 1.98341C7.55487 1.96908 8.22105 2.09002 8.84326 2.3379C9.4654 2.58585 10.0321 2.95589 10.5083 3.42677C10.9007 3.81505 10.9042 4.44916 10.5161 4.84181C10.1279 5.23407 9.49468 5.23745 9.10205 4.84962C8.81629 4.56704 8.47635 4.34411 8.10303 4.19532C7.72976 4.04662 7.32993 3.97483 6.92822 3.98341C6.52643 3.99207 6.1298 4.08146 5.76319 4.2461C5.39662 4.41081 5.06679 4.6478 4.79346 4.94239C4.5201 5.23708 4.30818 5.58397 4.17139 5.96192C4.03471 6.33979 3.97514 6.74134 3.99658 7.14259C4.01807 7.54402 4.12004 7.93758 4.29639 8.29884C4.47274 8.65997 4.72072 8.98232 5.02393 9.2461C5.4399 9.60859 5.48358 10.2398 5.12158 10.6563C4.75916 11.0728 4.12712 11.1172 3.71045 10.7549C3.20505 10.3152 2.79342 9.7778 2.49951 9.17579C2.20565 8.57381 2.03537 7.91892 1.99951 7.25001C1.96372 6.58096 2.06352 5.91129 2.29151 5.28126C2.51947 4.65137 2.87112 4.07317 3.32666 3.58204C3.78231 3.09092 4.33275 2.69642 4.94385 2.42189C5.55494 2.14741 6.21551 1.99785 6.88526 1.98341Z" fill="#E4F2F2"/>
</svg>
