<svg width="24" height="24" viewBox="0 0 24 24" fill="none" xmlns="http://www.w3.org/2000/svg">
<path fill-rule="evenodd" clip-rule="evenodd" d="M1.29297 1.29295C1.68349 0.90243 2.31651 0.90243 2.70703 1.29295L18.8262 17.4121C18.8993 17.4675 18.9627 17.5317 19.0166 17.6025L22.707 21.293C23.0975 21.6835 23.0975 22.3165 22.707 22.707C22.3165 23.0975 21.6835 23.0975 21.293 22.707L18.3936 19.8076C17.5959 20.8681 16.5431 21.7202 15.3232 22.2773C13.6916 23.0225 11.8565 23.1983 10.1133 22.7754C8.3702 22.3524 6.81963 21.3553 5.71094 19.9453C4.60235 18.5353 3.99987 16.7936 4 15C4.00002 12.6436 5.18107 10.4883 7.33594 8.74999L1.29297 2.70702C0.902445 2.31649 0.902445 1.68348 1.29297 1.29295ZM8.62598 10.2803C6.80562 11.7365 6.00002 13.3706 6 15C5.99987 16.3452 6.45178 17.6515 7.2832 18.709C8.11469 19.7664 9.27771 20.5138 10.585 20.831C11.8923 21.1482 13.2685 21.0168 14.4922 20.458C15.4942 20.0003 16.3455 19.2772 16.96 18.374L8.75586 10.1699C8.71206 10.2061 8.67029 10.2447 8.62598 10.2803Z" fill="#E4F2F2"/>
<path d="M12.002 1.99999C12.4777 2.00106 12.8871 2.33721 12.9805 2.8037C13.4325 5.0635 14.8012 7.25965 16.625 8.71874C18.1285 9.92134 19.1709 11.3278 19.668 12.8808C19.8362 13.4067 19.5453 13.9702 19.0195 14.1387C18.4938 14.3066 17.9312 14.0167 17.7627 13.4912C17.4098 12.3886 16.64 11.2924 15.376 10.2812C13.9782 9.16298 12.8056 7.68754 12 6.04979C11.7492 6.52835 11.1624 6.72307 10.6748 6.48338C10.1794 6.23951 9.97503 5.63997 10.2188 5.14452C10.585 4.40056 10.8547 3.61225 11.0205 2.79979L11.042 2.71385C11.1674 2.2931 11.556 1.99921 12.002 1.99999Z" fill="#E4F2F2"/>
</svg>
