<svg width="24" height="24" viewBox="0 0 24 24" fill="none" xmlns="http://www.w3.org/2000/svg">
<path fill-rule="evenodd" clip-rule="evenodd" d="M14.6304 1.31202C16.3083 0.843879 18.0131 0.887801 19.4751 1.51222C20.949 2.14173 22.0496 3.30986 22.602 4.82081C23.15 6.31933 23.1172 8.03616 22.5815 9.70557C22.4894 9.99228 22.2733 10.2223 21.9927 10.3316C21.7118 10.4408 21.3961 10.4174 21.1343 10.2681C20.6976 10.0191 20.0837 9.92523 19.3638 10.0942C18.6432 10.2634 17.904 10.679 17.2915 11.2915C16.679 11.904 16.2634 12.6432 16.0942 13.3638C15.9252 14.0837 16.0191 14.6977 16.2681 15.1343C16.4174 15.3961 16.4408 15.7118 16.3315 15.9927C16.2222 16.2733 15.9923 16.4894 15.7056 16.5816C14.3143 17.0279 12.8907 17.1228 11.5874 16.8257L9.86669 18.5464C9.93096 18.7807 9.97141 19.0222 9.98584 19.2661C10.0154 19.7676 9.93707 20.2704 9.75537 20.7388C9.57358 21.207 9.29218 21.6307 8.93212 21.981C8.57189 22.3313 8.1398 22.6004 7.6665 22.7691C7.1932 22.9376 6.68851 23.0021 6.18798 22.9585C5.68752 22.9148 5.20209 22.764 4.76513 22.5161C4.32798 22.268 3.94906 21.9285 3.65478 21.521C3.48656 21.2881 3.34966 21.0354 3.24365 20.77C2.97229 20.6671 2.71309 20.5323 2.47412 20.3648C2.05861 20.0733 1.71124 19.6944 1.45654 19.2554C1.20188 18.8164 1.04534 18.3271 0.998531 17.8218C0.951799 17.3166 1.01538 16.8068 1.18505 16.3286C1.35478 15.8505 1.62719 15.415 1.98193 15.0523C2.33675 14.6896 2.76643 14.4073 3.24072 14.2271C3.71484 14.047 4.22308 13.9718 4.729 14.0073C4.97314 14.0245 5.21484 14.0682 5.44873 14.1353L7.16943 12.4146C6.89572 11.2183 6.95317 9.9165 7.31201 8.63038C7.78032 6.95209 8.74478 5.35191 10.0483 4.04835C11.3519 2.74479 12.9521 1.78033 14.6304 1.31202ZM6.39697 16.0161C6.08225 16.3308 5.59738 16.3997 5.20752 16.1851C5.01726 16.0803 4.806 16.0178 4.58935 16.0024C4.37255 15.9872 4.15387 16.0201 3.95068 16.0972C3.74768 16.1744 3.56354 16.2955 3.41162 16.4507C3.25969 16.6061 3.14255 16.7928 3.06982 16.9976C2.99717 17.2024 2.97075 17.4208 2.99072 17.6372C3.01076 17.8536 3.07704 18.0635 3.18603 18.2515C3.29519 18.4396 3.44448 18.6021 3.62255 18.7271C3.80045 18.8518 4.00347 18.9365 4.21728 18.9751C4.62143 19.0482 4.9407 19.3614 5.02099 19.7642C5.06298 19.9754 5.14983 20.1755 5.27587 20.3501C5.40194 20.5247 5.56421 20.6706 5.75146 20.7769C5.93871 20.8831 6.14735 20.9476 6.36181 20.9663C6.57624 20.985 6.79284 20.9575 6.9956 20.8853C7.19825 20.813 7.38332 20.6973 7.53759 20.5474C7.69179 20.3973 7.81323 20.2157 7.89111 20.0151C7.96894 19.8144 8.00243 19.5982 7.98974 19.3833C7.97698 19.1684 7.91784 18.9582 7.81689 18.7681C7.61109 18.3801 7.68219 17.9029 7.99267 17.5923L9.59814 15.9858C8.96676 15.5688 8.43111 15.0339 8.0122 14.4009L6.39697 16.0161ZM18.689 3.35206C17.716 2.93658 16.4882 2.8706 15.1685 3.23878C13.8489 3.60694 12.5437 4.38116 11.4624 5.46241C10.3811 6.54366 9.60693 7.84893 9.23876 9.16847C8.87058 10.4883 8.93657 11.716 9.35205 12.689C9.76256 13.6501 10.5098 14.3593 11.5073 14.7241C12.2577 14.9985 13.1424 15.0729 14.0903 14.9194C13.9647 14.2707 13.9881 13.5833 14.147 12.9067C14.4093 11.7896 15.0277 10.7272 15.8774 9.87745C16.7272 9.02771 17.7896 8.40929 18.9067 8.14698C19.5833 7.98815 20.2707 7.96476 20.9194 8.09034C21.0729 7.14236 20.9985 6.25775 20.7241 5.50733C20.3593 4.50982 19.6501 3.76257 18.689 3.35206Z" fill="#E4F2F2"/>
</svg>
