<svg width="24" height="24" viewBox="0 0 24 24" fill="none" xmlns="http://www.w3.org/2000/svg">
<path fill-rule="evenodd" clip-rule="evenodd" d="M21.293 1.29295C21.6835 0.90243 22.3165 0.90243 22.707 1.29295C23.0975 1.68348 23.0975 2.3165 22.707 2.70702L20.3643 5.04881C21.8736 6.00109 23 7.33582 23 8.99999V17C23 18.8965 21.5176 20.43 19.5186 21.4297C17.4725 22.4527 14.7674 23 12 23L11.4824 22.9931C8.89734 22.9293 6.39973 22.3888 4.48145 21.4297C2.48236 20.43 1.00004 18.8965 1 17V8.99999C1 7.33608 2.12573 6.00106 3.63477 5.04881L1.29297 2.70702C0.902457 2.3165 0.902482 1.68348 1.29297 1.29295C1.68349 0.90243 2.31651 0.90243 2.70703 1.29295L5.52539 4.11131C7.35104 3.40502 9.59789 2.99999 12 2.99999C14.4017 2.99999 16.6481 3.40522 18.4736 4.11131L21.293 1.29295ZM8 20.5566C8.93331 20.7744 9.94654 20.9169 11 20.9726V14.9746C9.95415 14.9251 8.9465 14.799 8 14.6045V20.5566ZM16 14.6045C15.0535 14.799 14.0458 14.9251 13 14.9746V20.9726C14.0535 20.9169 15.0667 20.7744 16 20.5566V14.6045ZM3 17L3.00781 17.1445C3.0829 17.8811 3.73431 18.8197 5.37598 19.6406C5.57481 19.74 5.78356 19.8331 6 19.9228V14.0615C5.45947 13.8749 4.95092 13.6644 4.48145 13.4297C3.95177 13.1648 3.45045 12.8558 3 12.5088V17ZM21 12.5088C20.5495 12.8558 20.0482 13.1648 19.5186 13.4297C19.0491 13.6644 18.5405 13.8749 18 14.0615V19.9228C18.2164 19.8331 18.4252 19.74 18.624 19.6406C20.3752 18.765 21 17.7554 21 17V12.5088ZM12 4.99999C10.18 4.99999 8.50187 5.25457 7.09668 5.6826L10.707 9.29295C11.0975 9.68348 11.0975 10.3165 10.707 10.707C10.3165 11.0975 9.68348 11.0975 9.29297 10.707L5.09277 6.50682C3.5977 7.32366 3 8.24792 3 8.99999C3.00004 9.7978 3.67293 10.789 5.37598 11.6406C7.0195 12.4624 9.36018 13 12 13C14.6398 13 16.9805 12.4624 18.624 11.6406C20.3271 10.789 21 9.7978 21 8.99999C21 8.2478 20.4019 7.32376 18.9062 6.50682L14.707 10.707C14.3165 11.0975 13.6835 11.0975 13.293 10.707C12.9025 10.3165 12.9025 9.68348 13.293 9.29295L16.9023 5.6826C15.4973 5.25473 13.8197 4.99999 12 4.99999Z" fill="#E4F2F2"/>
</svg>
