<svg width="24" height="24" viewBox="0 0 24 24" fill="none" xmlns="http://www.w3.org/2000/svg">
<path d="M1.29298 1.29249C1.68347 0.902229 2.31658 0.902179 2.70704 1.29249L22.707 21.2925C23.0975 21.6829 23.0973 22.316 22.707 22.7066C22.3165 23.0971 21.6835 23.0971 21.293 22.7066L15.0039 16.4175C14.3469 17.0676 14.0001 17.6662 14 18.4995C14 19.0903 13.8832 19.6754 13.6572 20.2212C13.4311 20.7671 13.0994 21.2633 12.6816 21.6812C12.2638 22.099 11.7676 22.4306 11.2217 22.6568C10.6758 22.8828 10.0908 22.9995 9.50001 22.9995C8.90915 22.9995 8.32422 22.8828 7.77833 22.6568C7.23238 22.4306 6.73622 22.099 6.31837 21.6812C5.90057 21.2633 5.5689 20.7671 5.34278 20.2212C5.11678 19.6754 5.00001 19.0903 5.00001 18.4995C5.0002 17.9474 5.44784 17.4995 6.00001 17.4995C6.55214 17.4996 6.99982 17.9474 7.00001 18.4995C7.00001 18.8277 7.06487 19.1533 7.19044 19.4566C7.31605 19.7597 7.50042 20.0351 7.73243 20.2671C7.96448 20.4992 8.23981 20.6835 8.54298 20.8091C8.84629 20.9347 9.17171 20.9995 9.50001 20.9995C9.82829 20.9995 10.1537 20.9347 10.457 20.8091C10.7602 20.6835 11.0356 20.4991 11.2676 20.2671C11.4996 20.0351 11.684 19.7597 11.8096 19.4566C11.9351 19.1533 12 18.8277 12 18.4995C12.0001 16.9291 12.7329 15.8517 13.5889 15.0025L11.9014 13.315C11.814 13.3868 11.7235 13.4552 11.6279 13.5171C11.1438 13.831 10.579 13.9983 10.002 13.9995C9.44974 14.0006 9.00116 13.5537 9.00001 13.0015C8.99912 12.4494 9.44593 12.0007 9.99806 11.9995C10.1619 11.9991 10.321 11.9552 10.4649 11.8784L7.00098 8.41456C7.00055 8.44284 7.00001 8.47116 7.00001 8.49953C7.00001 9.05178 6.55226 9.49949 6.00001 9.49953C5.44772 9.49953 5.00001 9.05181 5.00001 8.49953C5.00004 7.8583 5.08257 7.23727 5.23243 6.64601L1.29298 2.70656C0.90259 2.31602 0.902499 1.68297 1.29298 1.29249Z" fill="#E4F2F2"/>
<path d="M12.041 1.00734C13.4075 0.923595 14.771 1.2162 15.9834 1.85206C17.1958 2.48799 18.211 3.44395 18.919 4.61574C19.6267 5.78739 20.001 7.13071 20 8.49953L19.9941 8.83742C19.9364 10.5021 19.451 11.7776 18.7354 12.8237C18.4235 13.2795 17.8005 13.3964 17.3447 13.0845C16.8895 12.7725 16.7733 12.1504 17.085 11.6948C17.6213 10.9109 18 9.9273 18 8.49953C18.0008 7.49555 17.7262 6.50927 17.207 5.64992C16.6879 4.79065 15.9438 4.0889 15.0547 3.62257C14.1655 3.15627 13.1652 2.94295 12.1631 3.00441C11.1611 3.06589 10.1946 3.39982 9.36915 3.97121C8.91507 4.28558 8.29192 4.17235 7.97755 3.71828C7.66379 3.26433 7.7768 2.64192 8.23048 2.32765C9.3562 1.54828 10.6744 1.09117 12.041 1.00734Z" fill="#E4F2F2"/>
<path d="M12.5 4.99953C13.4282 4.99955 14.3183 5.36864 14.9746 6.02492C15.6309 6.68121 15.9999 7.57139 16 8.49953C16 9.05179 15.5523 9.49949 15 9.49953C14.4477 9.49953 14 9.05181 14 8.49953C13.9999 8.10183 13.8418 7.7202 13.5606 7.43898C13.2793 7.15778 12.8977 6.99955 12.5 6.99953C11.9477 6.99953 11.5 6.55181 11.5 5.99953C11.5002 5.4474 11.9478 4.99953 12.5 4.99953Z" fill="#E4F2F2"/>
</svg>
