<svg width="24" height="24" viewBox="0 0 24 24" fill="none" xmlns="http://www.w3.org/2000/svg">
<path fill-rule="evenodd" clip-rule="evenodd" d="M12 1C12.5521 1.00018 13 1.44785 13 2C13 2.55213 12.5521 2.99976 12 3C10.6085 3.00015 9.23993 3.32405 8.00001 3.93945V5C8.00006 5.53034 8.21096 6.03903 8.58595 6.41406C8.96102 6.78909 9.46962 7 10 7C10.5522 7.00001 10.9999 7.44779 11 8C10.9999 8.55221 10.5522 8.99999 10 9C8.93918 9 7.92203 8.57822 7.17189 7.82812C6.4886 7.1448 6.07852 6.23988 6.01076 5.28223C5.17469 6.02763 4.48197 6.92617 3.97169 7.93359C3.63803 8.59242 3.38813 9.28664 3.2256 10H5.00001L5.29591 10.0146C5.9828 10.0828 6.62874 10.3866 7.12111 10.8789C7.68366 11.4415 8.00001 12.2044 8.00001 13V14L8.0049 14.0986C8.02759 14.3276 8.1289 14.5429 8.29298 14.707C8.45712 14.8711 8.67242 14.9724 8.90138 14.9951L9.29591 15.0146C9.9828 15.0828 10.6287 15.3866 11.1211 15.8789C11.6837 16.4415 12 17.2044 12 18V20.999C12.491 20.9991 12.9834 20.9598 13.4717 20.8789C13.6492 20.8495 13.8252 20.8133 14 20.7734V17C14 16.2043 14.3163 15.4415 14.8789 14.8789C15.4415 14.3163 16.2044 14 17 14H21.543C21.5673 14.0001 21.5917 14.001 21.6162 14.0029C21.6587 14.0061 21.7004 14.0122 21.7412 14.0205C21.7743 14.0273 21.8079 14.0355 21.8408 14.0459C21.8525 14.0496 21.8636 14.0545 21.875 14.0586C21.8943 14.0654 21.9139 14.0711 21.9326 14.0791C22.0996 14.1501 22.2371 14.2644 22.3399 14.4023C22.3529 14.4197 22.3661 14.4369 22.3779 14.4551C22.4005 14.4899 22.4204 14.5262 22.4385 14.5635C22.4484 14.5837 22.4583 14.604 22.4668 14.625C22.4859 14.6721 22.501 14.7208 22.5127 14.7705C22.53 14.8443 22.5401 14.921 22.5401 15C22.5401 15.0998 22.5253 15.1962 22.4981 15.2871C22.4968 15.2913 22.4955 15.2956 22.4942 15.2998C21.8843 17.2391 20.7487 18.9716 19.2139 20.3047C18.0746 21.2942 16.7475 22.0341 15.3193 22.4863C15.3089 22.4898 15.2987 22.4939 15.2881 22.4971C14.8022 22.6493 14.3048 22.7687 13.7988 22.8525C12.8467 23.0103 11.8823 23.0394 10.9307 22.9463C10.9113 22.945 10.8921 22.9438 10.8731 22.9414C9.84006 22.8349 8.8224 22.5829 7.85158 22.1875C5.9689 21.4207 4.33556 20.1467 3.13283 18.5078C1.93004 16.8688 1.20488 14.9285 1.0381 12.9023C0.983932 12.2442 0.989325 11.5854 1.05275 10.9336C1.05459 10.9056 1.05744 10.8779 1.06154 10.8506C1.20073 9.52451 1.57996 8.22884 2.18751 7.0293C3.10613 5.21579 4.51018 3.69226 6.2422 2.62793C6.30766 2.58771 6.37425 2.54953 6.44044 2.51074C6.46929 2.49124 6.4994 2.4735 6.53029 2.45703C8.19346 1.50363 10.0791 1.00017 12 1ZM3.00197 12C3.00198 12.2458 3.011 12.4921 3.03126 12.7383C3.16772 14.3959 3.76115 15.9832 4.74513 17.3242C5.72924 18.6652 7.066 19.7076 8.60646 20.335C9.05999 20.5196 9.52636 20.6644 10 20.7725V18C10 17.7348 9.89452 17.4805 9.70704 17.293C9.54292 17.1289 9.32762 17.0276 9.09865 17.0049L8.70412 16.9854C8.01725 16.9172 7.37129 16.6134 6.87892 16.1211C6.31637 15.5585 6.00001 14.7956 6.00001 14V13C6.00001 12.7348 5.89452 12.4805 5.70705 12.293C5.54296 12.1289 5.32753 12.0276 5.09865 12.0049L5.00001 12H3.00197ZM17 16C16.7348 16 16.4805 16.1054 16.293 16.293C16.1054 16.4805 16 16.7348 16 17V20.0605C16.6818 19.7222 17.3223 19.2987 17.9024 18.7949C18.8035 18.0122 19.5359 17.0609 20.0625 16H17Z" fill="#E4F2F2"/>
<path fill-rule="evenodd" clip-rule="evenodd" d="M18.2969 1.01465C18.9835 1.08291 19.6289 1.38671 20.1211 1.87891C20.6837 2.44151 21 3.20435 21 4V5L21.2041 5.01074C22.2128 5.11301 23 5.96435 23 7V10C23 11.1046 22.1046 12 21 12H15C13.8954 12 13 11.1046 13 10V7C13 5.96434 13.7872 5.113 14.7959 5.01074L15 5V4C15 3.20435 15.3163 2.44151 15.8789 1.87891C16.4415 1.3163 17.2044 1 18 1L18.2969 1.01465ZM15 10H21V7H15V10ZM18 3C17.7348 3 17.4805 3.10544 17.293 3.29297C17.1054 3.48051 17 3.73478 17 4V5H19V4C19 3.73479 18.8946 3.4805 18.707 3.29297C18.5429 3.12883 18.3276 3.02758 18.0986 3.00488L18 3Z" fill="#E4F2F2"/>
</svg>
