<svg width="24" height="24" viewBox="0 0 24 24" fill="none" xmlns="http://www.w3.org/2000/svg">
<path fill-rule="evenodd" clip-rule="evenodd" d="M1.29295 1.29297C1.68348 0.902482 2.3165 0.902457 2.70702 1.29297L22.707 21.293C23.0975 21.6835 23.0975 22.3165 22.707 22.707C22.3165 23.0975 21.6835 23.0975 21.293 22.707L18.6484 20.0625C17.6329 21.1762 16.351 22.0236 14.9131 22.5156C13.0999 23.1359 11.1362 23.1612 9.3076 22.5879C7.47893 22.0145 5.88052 20.8727 4.74608 19.3281C3.61165 17.7834 2.99987 15.9165 2.99999 14C2.99999 11.2895 3.7616 8.59402 4.96092 6.375L1.29295 2.70703C0.90243 2.31651 0.90243 1.68349 1.29295 1.29297ZM6.44432 7.8584C5.55231 9.69534 4.99999 11.8537 4.99999 14L5.00585 14.2793C5.06131 15.6713 5.53127 17.0173 6.35838 18.1436C7.24066 19.3449 8.48303 20.2336 9.90526 20.6797C11.3275 21.1256 12.8554 21.1064 14.2656 20.624C15.4134 20.2313 16.434 19.5477 17.2334 18.6475L6.44432 7.8584Z" fill="#E4F2F2"/>
<path d="M12 1C14.4942 1.00011 16.7576 2.83373 18.332 5.19531C19.9355 7.60063 21 10.7921 21 14V14.3467C21 14.8989 20.5522 15.3466 20 15.3467C19.4478 15.3466 19 14.8989 19 14.3467V14C19 11.208 18.0644 8.39935 16.668 6.30469C15.2425 4.16652 13.5056 3.00012 12 3C11.1964 3.00004 10.3228 3.32593 9.44432 3.98828C9.00336 4.3205 8.37635 4.23287 8.04393 3.79199C7.7117 3.35106 7.80039 2.72405 8.2412 2.3916C9.36258 1.54615 10.6478 1.00004 12 1Z" fill="#E4F2F2"/>
</svg>
