<svg width="24" height="24" viewBox="0 0 24 24" fill="none" xmlns="http://www.w3.org/2000/svg">
<path fill-rule="evenodd" clip-rule="evenodd" d="M12 1C13.1239 1 14.1275 1.48634 14.9619 2.16797C15.7956 2.84911 16.5138 3.76642 17.0977 4.75293C18.0573 6.37444 18.7326 8.31865 18.9355 10H19C19.5523 10 20 10.4477 20 11C20 12.0506 19.7927 13.0909 19.3906 14.0615C18.9886 15.0321 18.4 15.9144 17.6572 16.6572C16.9144 17.4 16.0321 17.9886 15.0615 18.3906C14.4006 18.6644 13.7068 18.8444 13 18.9336V21H15C15.5523 21 16 21.4477 16 22C16 22.5523 15.5523 23 15 23H9C8.44772 23 8 22.5523 8 22C8 21.4477 8.44772 21 9 21H11V18.9336C10.2932 18.8444 9.59943 18.6644 8.93848 18.3906C7.96795 17.9886 7.08559 17.4 6.34277 16.6572C5.59995 15.9144 5.01141 15.0321 4.60938 14.0615C4.20734 13.0909 4 12.0506 4 11C4 10.4477 4.44772 10 5 10H5.06445C5.2674 8.31865 5.94267 6.37444 6.90234 4.75293C7.48624 3.76642 8.20437 2.84911 9.03809 2.16797C9.87246 1.48634 10.8761 1 12 1ZM6.08594 12C6.16093 12.4435 6.2841 12.8784 6.45703 13.2959C6.75856 14.0239 7.20066 14.685 7.75781 15.2422C8.31496 15.7993 8.97615 16.2414 9.7041 16.543C10.432 16.8445 11.2121 17 12 17C12.7879 17 13.568 16.8445 14.2959 16.543C15.0239 16.2414 15.685 15.7993 16.2422 15.2422C16.7993 14.685 17.2414 14.0239 17.543 13.2959C17.7159 12.8784 17.8391 12.4435 17.9141 12H6.08594ZM12 3C11.474 3 10.9027 3.22663 10.3027 3.7168C9.70233 4.2074 9.1265 4.92086 8.62305 5.77148C7.82348 7.12248 7.27992 8.69373 7.08301 10H16.917C16.7201 8.69373 16.1765 7.12248 15.377 5.77148C14.8735 4.92086 14.2977 4.2074 13.6973 3.7168C13.0973 3.22663 12.526 3 12 3Z" fill="#E4F2F2"/>
</svg>
