<svg width="24" height="24" viewBox="0 0 24 24" fill="none" xmlns="http://www.w3.org/2000/svg">
<path d="M18.0098 9C18.562 9 19.0098 9.44772 19.0098 10C19.0098 10.5523 18.562 11 18.0098 11H18C17.4477 11 17 10.5523 17 10C17 9.44772 17.4477 9 18 9H18.0098Z" fill="#E4F2F2"/>
<path fill-rule="evenodd" clip-rule="evenodd" d="M13 2C14.6234 2 16.0991 2.76136 16.9648 4H19C21.2523 4 23 5.74772 23 8V18C23 18.7957 22.6837 19.5585 22.1211 20.1211C21.5585 20.6837 20.7957 21 20 21C19.2043 21 18.4415 20.6837 17.8789 20.1211C17.3163 19.5585 17 18.7957 17 18C17 17.4477 17.4477 17 18 17C18.5523 17 19 17.4477 19 18C19 18.2652 19.1054 18.5195 19.293 18.707C19.4805 18.8946 19.7348 19 20 19C20.2652 19 20.5195 18.8946 20.707 18.707C20.8946 18.5195 21 18.2652 21 18C21 17.2044 20.6837 16.4415 20.1211 15.8789C19.5585 15.3163 18.7956 15 18 15C17.2043 15 16.4415 15.3163 15.8789 15.8789C15.3163 16.4415 15 17.2044 15 18V21C15 21.5523 14.5523 22 14 22H6C5.44772 22 5 21.5523 5 21V18.4004C5 18.0834 4.87983 17.6849 4.62793 17.2617C4.37949 16.8443 4.03837 16.4632 3.68652 16.1895L3.68262 16.1865C3.44248 15.9978 3.21554 15.7952 3 15.583V18C3 18.5523 2.55228 19 2 19C1.44772 19 1 18.5523 1 18V11C1 7.27448 4.22434 4.40027 8.16113 4.03906C8.30767 3.60647 8.54982 3.20799 8.87891 2.87891C9.44151 2.3163 10.2044 2 11 2H13ZM8 6.06738C5.03843 6.47172 3 8.64395 3 11C3 12.4286 3.70347 13.6577 4.91406 14.6104L5.11719 14.7773C5.5867 15.1804 6.01728 15.685 6.34668 16.2383C6.71975 16.865 7 17.6174 7 18.4004V20H9V16C9 15.4477 9.44771 15 10 15C10.5523 15 11 15.4477 11 16V20H13V18C13 16.6739 13.5272 15.4025 14.4648 14.4648C14.6333 14.2964 14.8126 14.1413 15.001 14C14.8126 13.8587 14.6333 13.7036 14.4648 13.5352C14.2967 13.367 14.142 13.188 14.001 13C10.6487 13 8 10.3523 8 7V6.06738ZM11 4C10.7348 4 10.4805 4.10543 10.293 4.29297C10.1054 4.48051 10 4.73478 10 5V7C10 8.9305 11.2931 10.4932 13.082 10.8965C13.0284 10.6027 13 10.3028 13 10C13 9.44772 13.4477 9 14 9C14.5523 9 15 9.44772 15 10C15 10.7956 15.3163 11.5585 15.8789 12.1211C16.4415 12.6837 17.2043 13 18 13C19.0883 13 20.1396 13.3553 21 14.001V8C21 6.85228 20.1477 6 19 6H16.4004C16.0217 6 15.6753 5.78596 15.5059 5.44727C15.0865 4.60858 14.1471 4 13 4H11Z" fill="#E4F2F2"/>
</svg>
