<svg width="24" height="24" viewBox="0 0 24 24" fill="none" xmlns="http://www.w3.org/2000/svg">
<path d="M15.5 9C16.0523 9 16.5 9.44771 16.5 10C16.5 10.5523 16.0523 11 15.5 11H15C14.4477 11 14 10.5523 14 10C14 9.44771 14.4477 9 15 9H15.5Z" fill="#E4F2F2"/>
<path fill-rule="evenodd" clip-rule="evenodd" d="M9 1C10.5734 1 12.0185 1.79043 12.9316 3H17C18.3261 3 19.5975 3.52716 20.5352 4.46484C21.4728 5.40253 22 6.67392 22 8V16C22 19.8523 18.8523 23 15 23C13.2803 23 11.544 22.6788 10.0059 22.0195C9.96434 22.0017 9.92448 21.9803 9.88574 21.957C9.45915 21.7011 9.0783 21.2819 8.97754 20.7109C8.87292 20.1173 9.10927 19.5773 9.49316 19.1934L10.1396 18.5449L10.2051 17.9004L10.2139 17.8359C10.2943 17.3533 10.5322 16.8304 11.0537 16.5322C11.511 16.2709 12.0003 16.2879 12.4043 16.4121L12.5713 16.4717L12.6055 16.4854C13.3602 16.8197 14.1756 16.9942 15.001 16.999C15.2658 16.9988 15.5197 16.8943 15.707 16.707C15.8946 16.5195 16 16.2652 16 16C16 15.7348 15.8946 15.4805 15.707 15.293C15.5195 15.1054 15.2652 15 15 15C13.9122 15 12.8613 14.645 12.001 14H10C7.87827 14 5.84306 13.1575 4.34277 11.6572C2.84248 10.1569 2 8.12173 2 6V5C2 2.74772 3.74772 1 6 1H9ZM6 3C4.85228 3 4 3.85228 4 5V6L4.00781 6.29785C4.08146 7.7807 4.703 9.18738 5.75781 10.2422C6.88303 11.3674 8.4087 12 10 12H10.4189C10.1461 11.375 10 10.6952 10 10C10 9.44771 10.4477 9 11 9C11.5523 9 12 9.44771 12 10C12 10.7956 12.3163 11.5585 12.8789 12.1211L12.8828 12.124C13.0024 12.1901 13.1062 12.2805 13.1895 12.3877C13.6296 12.7214 14.1521 12.9306 14.7031 12.9854L15.2969 13.0146C15.9835 13.0829 16.6289 13.3867 17.1211 13.8789C17.6837 14.4415 18 15.2043 18 16C18 16.7957 17.6837 17.5585 17.1211 18.1211C16.5585 18.6837 15.7957 19 15 19H14.9951C14.0237 18.995 13.0625 18.8125 12.1582 18.4639L12.0947 19.0996C12.0717 19.3293 11.9698 19.5438 11.8066 19.707L11.1807 20.333C12.3507 20.772 13.6682 21 15 21C17.7477 21 20 18.7477 20 16V8C20 7.20435 19.6837 6.44152 19.1211 5.87891C18.5585 5.3163 17.7956 5 17 5H12.4004C12.0447 5 11.7153 4.81112 11.5361 4.50391C11.0028 3.58969 10.0202 3 9 3H6Z" fill="#E4F2F2"/>
</svg>
