<svg width="24" height="24" viewBox="0 0 24 24" fill="none" xmlns="http://www.w3.org/2000/svg">
<path d="M8.49999 12.9775C9.93098 12.9775 11.3322 13.3868 12.5381 14.1572C13.4224 14.7223 14.4505 15.0234 15.5 15.0234C16.5494 15.0234 17.5776 14.7223 18.4619 14.1572C18.9272 13.8602 19.5455 13.9967 19.8428 14.4619C20.1399 14.9273 20.0034 15.5455 19.5381 15.8428C18.3322 16.6133 16.931 17.0234 15.5 17.0234C14.0689 17.0234 12.6678 16.6133 11.4619 15.8428C10.6881 15.3483 9.80437 15.0564 8.89256 14.9912L8.49999 14.9775C7.45048 14.9776 6.42244 15.2777 5.53807 15.8428C5.07285 16.1398 4.4546 16.004 4.15721 15.5391C3.85987 15.0737 3.99667 14.4547 4.4619 14.1572C5.66776 13.3868 7.06901 12.9776 8.49999 12.9775Z" fill="#E4F2F2"/>
<path d="M8.76756 6.98242C10.1051 7.03016 11.4075 7.43488 12.5381 8.15723C13.4224 8.72231 14.4505 9.02343 15.5 9.02344C16.5494 9.02344 17.5776 8.72228 18.4619 8.15723C18.9272 7.86023 19.5455 7.99669 19.8428 8.46191C20.1399 8.92726 20.0034 9.54545 19.5381 9.84277C18.4074 10.5652 17.1052 10.9708 15.7676 11.0186L15.5 11.0234C14.0689 11.0234 12.6678 10.6133 11.4619 9.84277C10.6881 9.34833 9.80437 9.05645 8.89256 8.99121L8.49999 8.97754C7.45048 8.97755 6.42244 9.27765 5.53807 9.84277C5.07285 10.1398 4.4546 10.004 4.15721 9.53906C3.85987 9.07374 3.99667 8.45466 4.4619 8.15723C5.66776 7.38679 7.06901 6.97755 8.49999 6.97754L8.76756 6.98242Z" fill="#E4F2F2"/>
</svg>
