<svg width="24" height="24" viewBox="0 0 24 24" fill="none" xmlns="http://www.w3.org/2000/svg">
<path fill-rule="evenodd" clip-rule="evenodd" d="M14 2C14.3939 2 14.7845 2.07777 15.1484 2.22852C15.5124 2.37932 15.8435 2.6003 16.1221 2.87891L22.1211 8.87891C22.6834 9.44146 22.999 10.2046 22.999 11C22.999 11.7954 22.6834 12.5585 22.1211 13.1211L15.2471 20H21C21.5521 20.0002 22 20.4479 22 21C22 21.5521 21.5521 21.9998 21 22H8C7.60522 22.0006 7.21348 21.9233 6.84863 21.7725C6.48332 21.6214 6.15137 21.3989 5.87207 21.1191L1.87793 17.1211C1.31577 16.5586 1.00002 15.7953 1 15C1.00002 14.2047 1.31577 13.4414 1.87793 12.8789L11.8779 2.87988C12.1564 2.60132 12.4877 2.37935 12.8516 2.22852C13.2155 2.07774 13.6061 2.00007 14 2ZM3.29297 14.293C3.10567 14.4805 3.00002 14.735 3 15C3.00002 15.2651 3.10563 15.5195 3.29297 15.707L7.28711 19.7061C7.38015 19.7992 7.49162 19.8735 7.61328 19.9238C7.7349 19.9741 7.86548 20.0002 7.99707 20H12.4189L12.498 19.9199L5.08203 12.5039L3.29297 14.293ZM14 4C13.8688 4.00007 13.7384 4.02596 13.6172 4.07617C13.4961 4.12643 13.3857 4.20024 13.293 4.29297L6.49609 11.0898L13.9111 18.5049L20.7061 11.707C20.8935 11.5195 20.999 11.2651 20.999 11C20.999 10.7349 20.8935 10.4805 20.7061 10.293L14.707 4.29297C14.6142 4.20024 14.504 4.12639 14.3828 4.07617C14.2616 4.02599 14.1312 4 14 4Z" fill="#E4F2F2"/>
</svg>
