<svg width="24" height="24" viewBox="0 0 24 24" fill="none" xmlns="http://www.w3.org/2000/svg">
<path d="M22 12C22.0563 12 22.1113 12.0057 22.165 12.0146C22.1738 12.0161 22.1827 12.0169 22.1914 12.0186L22.2012 12.0205C22.211 12.0225 22.2207 12.025 22.2305 12.0273C22.251 12.0322 22.2717 12.0368 22.292 12.043C22.3408 12.0578 22.3873 12.0778 22.4326 12.0996C22.4466 12.1063 22.4609 12.1127 22.4746 12.1201C22.6203 12.1989 22.7441 12.3125 22.835 12.4502C22.8597 12.4877 22.8812 12.5266 22.9004 12.5664C22.9222 12.6116 22.9412 12.6584 22.9561 12.707C22.9623 12.7273 22.9668 12.748 22.9717 12.7686C22.9893 12.8429 23 12.9202 23 13V17C23 17.5523 22.5523 18 22 18C21.4477 18 21 17.5523 21 17V15.4141L13.707 22.707C13.3165 23.0976 12.6835 23.0976 12.293 22.707C11.9024 22.3165 11.9024 21.6835 12.293 21.293L19.5859 14H18C17.4477 14 17 13.5523 17 13C17 12.4477 17.4477 12 18 12H22Z" fill="#E4F2F2"/>
<path fill-rule="evenodd" clip-rule="evenodd" d="M20 2C20.7957 2 21.5585 2.3163 22.1211 2.87891C22.6837 3.44151 23 4.20435 23 5C23 5.79565 22.6837 6.55849 22.1211 7.12109C21.5585 7.6837 20.7957 8 20 8H18.4141L9.40723 17.0068C8.82183 17.5922 7.86823 18 7 18H4C3.20435 18 2.44151 17.6837 1.87891 17.1211C1.3163 16.5585 1 15.7956 1 15C1 14.2044 1.3163 13.4415 1.87891 12.8789C2.44151 12.3163 3.20435 12 4 12H5.58594L8 9.58594V7C8 6.44772 8.44772 6 9 6C9.55229 6 10 6.44772 10 7V7.58594L14.5928 2.99316C15.1782 2.40777 16.1318 2 17 2H20ZM17 4C16.6682 4 16.2214 4.19262 16.0068 4.40723L6.70703 13.707C6.5195 13.8946 6.26522 14 6 14H4C3.73478 14 3.48051 14.1054 3.29297 14.293C3.10543 14.4805 3 14.7348 3 15C3 15.2652 3.10543 15.5195 3.29297 15.707C3.48051 15.8946 3.73478 16 4 16H7C7.33177 16 7.77856 15.8074 7.99316 15.5928L17.293 6.29297L17.3662 6.22656C17.5442 6.08073 17.7679 6 18 6H20C20.2652 6 20.5195 5.89457 20.707 5.70703C20.8946 5.51949 21 5.26522 21 5C21 4.73478 20.8946 4.48051 20.707 4.29297C20.5195 4.10543 20.2652 4 20 4H17Z" fill="#E4F2F2"/>
<path d="M9 1C10.1046 1 11 1.89543 11 3C11 4.10457 10.1046 5 9 5C7.89543 5 7 4.10457 7 3C7 1.89543 7.89543 1 9 1Z" fill="#E4F2F2"/>
</svg>
