<svg width="24" height="24" viewBox="0 0 24 24" fill="none" xmlns="http://www.w3.org/2000/svg">
<path d="M21.293 12.293C21.6835 11.9024 22.3165 11.9024 22.707 12.293C23.0976 12.6835 23.0976 13.3165 22.707 13.707L15.4141 21H17C17.5523 21 18 21.4477 18 22C18 22.5523 17.5523 23 17 23H13C12.9433 23 12.8881 22.9934 12.834 22.9844C12.8236 22.9826 12.8131 22.9816 12.8027 22.9795C12.7912 22.9772 12.7799 22.9744 12.7686 22.9717C12.748 22.9668 12.7273 22.9623 12.707 22.9561C12.6584 22.9412 12.6116 22.9222 12.5664 22.9004C12.5266 22.8812 12.4877 22.8597 12.4502 22.835C12.3125 22.7441 12.1989 22.6203 12.1201 22.4746C12.1127 22.4609 12.1063 22.4466 12.0996 22.4326C12.0778 22.3873 12.0578 22.3408 12.043 22.292C12.0303 22.2503 12.0218 22.2077 12.0146 22.165C12.0057 22.1113 12 22.0563 12 22V18C12 17.4477 12.4477 17 13 17C13.5523 17 14 17.4477 14 18V19.5859L21.293 12.293Z" fill="#E4F2F2"/>
<path fill-rule="evenodd" clip-rule="evenodd" d="M20 2C20.7957 2 21.5585 2.3163 22.1211 2.87891C22.6837 3.44151 23 4.20435 23 5C23 5.79565 22.6837 6.55849 22.1211 7.12109C21.5585 7.6837 20.7957 8 20 8H18.4141L9.40723 17.0068C8.82183 17.5922 7.86823 18 7 18H4C3.20435 18 2.44151 17.6837 1.87891 17.1211C1.3163 16.5585 1 15.7956 1 15C1 14.2044 1.3163 13.4415 1.87891 12.8789C2.44151 12.3163 3.20435 12 4 12H5.58594L8 9.58594V7C8 6.44772 8.44772 6 9 6C9.55229 6 10 6.44772 10 7V7.58594L14.5928 2.99316C15.1782 2.40777 16.1318 2 17 2H20ZM17 4C16.6682 4 16.2214 4.19262 16.0068 4.40723L6.70703 13.707C6.5195 13.8946 6.26522 14 6 14H4C3.73478 14 3.48051 14.1054 3.29297 14.293C3.10543 14.4805 3 14.7348 3 15C3 15.2652 3.10543 15.5195 3.29297 15.707C3.48051 15.8946 3.73478 16 4 16H7C7.33177 16 7.77856 15.8074 7.99316 15.5928L17.293 6.29297L17.3662 6.22656C17.5442 6.08073 17.7679 6 18 6H20C20.2652 6 20.5195 5.89457 20.707 5.70703C20.8946 5.51949 21 5.26522 21 5C21 4.73478 20.8946 4.48051 20.707 4.29297C20.5195 4.10543 20.2652 4 20 4H17Z" fill="#E4F2F2"/>
<path d="M9 1C10.1046 1 11 1.89543 11 3C11 4.10457 10.1046 5 9 5C7.89543 5 7 4.10457 7 3C7 1.89543 7.89543 1 9 1Z" fill="#E4F2F2"/>
</svg>
