<svg width="24" height="24" viewBox="0 0 24 24" fill="none" xmlns="http://www.w3.org/2000/svg">
<path d="M6 7C6.55228 7 7 7.44772 7 8V9C7 9.55228 6.55228 10 6 10C5.44772 10 5 9.55228 5 9V8C5 7.44772 5.44772 7 6 7Z" fill="#E4F2F2"/>
<path d="M10 7C10.5523 7 11 7.44772 11 8V9C11 9.55228 10.5523 10 10 10C9.44771 10 9 9.55228 9 9V8C9 7.44772 9.44771 7 10 7Z" fill="#E4F2F2"/>
<path d="M14 7C14.5523 7 15 7.44772 15 8V9C15 9.55228 14.5523 10 14 10C13.4477 10 13 9.55228 13 9V8C13 7.44772 13.4477 7 14 7Z" fill="#E4F2F2"/>
<path d="M18 7C18.5523 7 19 7.44772 19 8V9C19 9.55228 18.5523 10 18 10C17.4477 10 17 9.55228 17 9V8C17 7.44772 17.4477 7 18 7Z" fill="#E4F2F2"/>
<path fill-rule="evenodd" clip-rule="evenodd" d="M20 3C20.7957 3 21.5585 3.3163 22.1211 3.87891C22.6837 4.44151 23 5.20435 23 6V15C23 15.7957 22.6837 16.5585 22.1211 17.1211C21.5585 17.6837 20.7957 18 20 18H18.4141L15.707 20.707C15.5195 20.8946 15.2652 21 15 21H9C8.73478 21 8.4805 20.8946 8.29297 20.707L5.58594 18H4C3.20435 18 2.44151 17.6837 1.87891 17.1211C1.3163 16.5585 1 15.7956 1 15V6C1 5.20435 1.3163 4.44152 1.87891 3.87891C2.44152 3.3163 3.20435 3 4 3H20ZM4 5C3.73478 5 3.4805 5.10543 3.29297 5.29297C3.10543 5.4805 3 5.73478 3 6V15C3 15.2652 3.10543 15.5195 3.29297 15.707C3.48051 15.8946 3.73478 16 4 16H6C6.26522 16 6.5195 16.1054 6.70703 16.293L9.41406 19H14.5859L17.293 16.293L17.3662 16.2266C17.5442 16.0807 17.7679 16 18 16H20C20.2652 16 20.5195 15.8946 20.707 15.707C20.8946 15.5195 21 15.2652 21 15V6C21 5.73478 20.8946 5.48051 20.707 5.29297C20.5429 5.12883 20.3276 5.02757 20.0986 5.00488L20 5H4Z" fill="#E4F2F2"/>
</svg>
