<svg width="24" height="24" viewBox="0 0 24 24" fill="none" xmlns="http://www.w3.org/2000/svg">
<path d="M10.1025 6.30762C11.2972 5.9094 12.5871 5.89701 13.7891 6.27246C14.9911 6.64794 16.0442 7.39295 16.7998 8.40039C17.131 8.84221 17.0414 9.46847 16.5996 9.7998C16.1578 10.131 15.5315 10.0414 15.2002 9.59961C14.6965 8.92806 13.9937 8.43194 13.1924 8.18164C12.3912 7.93146 11.5316 7.93973 10.7354 8.20508C9.9389 8.47056 9.24576 8.98007 8.75488 9.66113C8.46254 10.0668 8.25247 10.5215 8.12891 11H13C13.5523 11 14 11.4477 14 12C14 12.5523 13.5523 13 13 13H8.12988C8.25334 13.4784 8.46258 13.9333 8.75488 14.3389C9.24576 15.0199 9.9389 15.5294 10.7354 15.7949C11.5316 16.0603 12.3912 16.0685 13.1924 15.8184C13.9937 15.5681 14.6965 15.0719 15.2002 14.4004C15.5315 13.9586 16.1578 13.869 16.5996 14.2002C17.0414 14.5315 17.131 15.1578 16.7998 15.5996C16.0442 16.607 14.9911 17.3521 13.7891 17.7275C12.5871 18.103 11.2972 18.0906 10.1025 17.6924C8.90787 17.2942 7.86914 16.5294 7.13281 15.5078C6.59351 14.7595 6.23828 13.9007 6.08594 13H6C5.44772 13 5 12.5523 5 12C5 11.4477 5.44772 11 6 11H6.08496C6.23738 10.0993 6.59349 9.24052 7.13281 8.49219C7.86914 7.47059 8.90787 6.70584 10.1025 6.30762Z" fill="#E4F2F2"/>
<path fill-rule="evenodd" clip-rule="evenodd" d="M12 1C18.0751 1 23 5.92487 23 12C23 18.0751 18.0751 23 12 23C5.92487 23 1 18.0751 1 12C1 5.92487 5.92487 1 12 1ZM12 3C7.02944 3 3 7.02944 3 12C3 16.9706 7.02944 21 12 21C16.9706 21 21 16.9706 21 12C21 7.02944 16.9706 3 12 3Z" fill="#E4F2F2"/>
</svg>
