<svg width="24" height="24" viewBox="0 0 24 24" fill="none" xmlns="http://www.w3.org/2000/svg">
<path d="M13.5264 6.13867C14.6102 6.20823 15.6562 6.56418 16.5576 7.16992C17.016 7.47792 17.138 8.09924 16.8301 8.55762C16.5221 9.01591 15.9007 9.13795 15.4424 8.83008C14.8346 8.42166 14.1292 8.1817 13.3984 8.13477C12.6676 8.08791 11.9363 8.23597 11.2812 8.56348C10.6264 8.891 10.0699 9.38642 9.66895 9.99902C9.4648 10.311 9.30531 10.6481 9.19238 11H14C14.5523 11 15 11.4477 15 12C15 12.5523 14.5523 13 14 13H9.10547C9.19898 13.4011 9.35245 13.7875 9.56738 14.1436C9.95374 14.7834 10.5141 15.3005 11.1826 15.6348C11.8511 15.969 12.6011 16.107 13.3447 16.0322C14.0882 15.9574 14.7954 15.6725 15.3838 15.2119C15.8186 14.8719 16.4468 14.9491 16.7871 15.3838C17.1274 15.8186 17.051 16.4467 16.6162 16.7871C15.7298 17.4809 14.6649 17.9097 13.5449 18.0225C12.4247 18.1351 11.2951 17.9273 10.2881 17.4238C9.28111 16.9203 8.43745 16.1415 7.85547 15.1777C7.45094 14.5078 7.18751 13.7672 7.07031 13H7C6.44772 13 6 12.5523 6 12C6 11.4477 6.44772 11 7 11H7.12793C7.28477 10.2561 7.57588 9.54393 7.99512 8.90332C8.58993 7.99453 9.41622 7.26015 10.3877 6.77441C11.3592 6.28876 12.4425 6.06919 13.5264 6.13867Z" fill="#E4F2F2"/>
<path fill-rule="evenodd" clip-rule="evenodd" d="M19 2C20.6569 2 22 3.34315 22 5V19C22 20.6569 20.6569 22 19 22H5C3.34315 22 2 20.6569 2 19V5C2 3.34315 3.34315 2 5 2H19ZM5 4C4.44772 4 4 4.44772 4 5V19C4 19.5523 4.44772 20 5 20H19C19.5523 20 20 19.5523 20 19V5C20 4.44772 19.5523 4 19 4H5Z" fill="#E4F2F2"/>
</svg>
