<svg width="24" height="24" viewBox="0 0 24 24" fill="none" xmlns="http://www.w3.org/2000/svg">
<path d="M1.65672 7.06005C2.17541 6.8708 2.74949 7.13816 2.93894 7.65673C3.61691 9.5146 4.84978 11.1196 6.47019 12.2534C8.09085 13.3872 10.0216 13.9955 11.9995 13.9956C13.9774 13.9956 15.9081 13.3872 17.5288 12.2534C19.1494 11.1196 20.382 9.51473 21.06 7.65673C21.2494 7.13815 21.8236 6.87103 22.3423 7.06005C22.861 7.24935 23.1281 7.82351 22.9389 8.34228C22.2696 10.1766 21.1516 11.8056 19.6968 13.0874L20.7651 14.3559C21.1205 14.7784 21.0663 15.4095 20.644 15.7651C20.2216 16.1206 19.5905 16.0663 19.2348 15.644L18.0835 14.2768C17.2586 14.7824 16.3783 15.1827 15.4614 15.4683L15.9761 17.7827C16.0958 18.3218 15.7554 18.8563 15.2163 18.9761C14.6773 19.0956 14.1436 18.7553 14.0239 18.2163L13.5073 15.896C13.0093 15.961 12.5057 15.9956 11.9995 15.9956C11.4929 15.9956 10.9891 15.9612 10.4907 15.896L9.97605 18.2163C9.85629 18.7554 9.32179 19.0957 8.78269 18.9761C8.2438 18.8562 7.90327 18.3217 8.02293 17.7827L8.5366 15.4683C7.61975 15.1826 6.73925 14.7824 5.91453 14.2768L4.76414 15.644C4.40837 16.0661 3.77731 16.1207 3.35496 15.7651C2.93276 15.4094 2.87931 14.7783 3.23484 14.3559L4.30125 13.0874C2.84682 11.8058 1.72927 10.1762 1.06004 8.34228C0.871013 7.82362 1.13814 7.24939 1.65672 7.06005Z" fill="#E4F2F2"/>
</svg>
