<svg width="24" height="24" viewBox="0 0 24 24" fill="none" xmlns="http://www.w3.org/2000/svg">
<path fill-rule="evenodd" clip-rule="evenodd" d="M1.29298 1.29297C1.68351 0.902474 2.31653 0.902456 2.70704 1.29297L22.707 21.293C23.0975 21.6835 23.0975 22.3165 22.707 22.707C22.3166 23.0975 21.6835 23.0975 21.293 22.707L17.3135 18.7275C16.0434 19.3716 14.6654 19.7822 13.2451 19.9336C11.5696 20.1121 9.87457 19.9285 8.27638 19.3945C6.67827 18.8605 5.21313 17.9887 3.98146 16.8389C2.74984 15.689 1.77912 14.2872 1.13673 12.7295C1.13224 12.7186 1.12814 12.7064 1.12404 12.6953C0.957596 12.2465 0.957435 11.7525 1.12404 11.3037L1.13673 11.2705C1.94378 9.31337 3.26303 7.61968 4.94337 6.35742L1.29298 2.70703C0.902456 2.31651 0.902456 1.6835 1.29298 1.29297ZM6.37306 7.78711C4.87905 8.8429 3.70755 10.3014 3.00001 11.999C3.53308 13.2786 4.33232 14.4308 5.34572 15.377C6.36777 16.3311 7.58401 17.0539 8.91017 17.4971C10.2363 17.9402 11.6429 18.0925 13.0332 17.9443C13.9911 17.8422 14.9252 17.596 15.8076 17.2217L14.0303 15.4443C13.4095 15.8102 12.6967 16.0063 11.9649 16C10.9163 15.9908 9.91341 15.5696 9.17189 14.8281C8.43038 14.0866 8.00921 13.0838 8.00001 12.0352C7.99365 11.3029 8.18854 10.5895 8.5547 9.96875L6.37306 7.78711ZM10.0684 11.4824C10.022 11.6555 9.99843 11.8354 10 12.0176C10.0046 12.5419 10.2152 13.0433 10.5859 13.4141C10.9567 13.7847 11.4582 13.9954 11.9824 14C12.1642 14.0016 12.343 13.9759 12.5156 13.9297L10.0684 11.4824Z" fill="#E4F2F2"/>
<path d="M10.6143 4.08301C13.1602 3.77963 15.7359 4.31775 17.9473 5.61524C20.0203 6.83168 21.6672 8.65312 22.6699 10.8291L22.8623 11.2695L22.875 11.3027C23.0416 11.7516 23.0415 12.2455 22.875 12.6943C22.8709 12.7053 22.8668 12.7167 22.8623 12.7275C22.4606 13.7014 21.929 14.6169 21.2832 15.4492C20.9448 15.8854 20.3172 15.9651 19.8809 15.627C19.445 15.2884 19.3649 14.6598 19.7031 14.2236C20.2316 13.5425 20.6664 12.7937 20.9981 11.998C20.185 10.0462 18.7597 8.41031 16.9356 7.33985C15.1007 6.26334 12.963 5.81663 10.8506 6.06836C10.3024 6.13339 9.8046 5.74158 9.73927 5.19336C9.6745 4.64547 10.0664 4.14852 10.6143 4.08301Z" fill="#E4F2F2"/>
</svg>
