<svg width="24" height="24" viewBox="0 0 24 24" fill="none" xmlns="http://www.w3.org/2000/svg">
<path fill-rule="evenodd" clip-rule="evenodd" d="M12 8C14.2091 8.00008 16 9.79091 16 12C16 14.2091 14.2091 15.9999 12 16C9.79085 16 7.99999 14.2091 7.99999 12C7.99999 9.79086 9.79085 8 12 8ZM12 10C10.8954 10 9.99999 10.8954 9.99999 12C9.99999 13.1046 10.8954 14 12 14C13.1045 13.9999 14 13.1045 14 12C14 10.8955 13.1045 10.0001 12 10Z" fill="#E4F2F2"/>
<path fill-rule="evenodd" clip-rule="evenodd" d="M12 4.00098C14.3268 4.00107 16.6015 4.69215 18.5351 5.98633C20.3479 7.19966 21.7849 8.89191 22.6885 10.8711L22.8623 11.2715L22.875 11.3047C23.0415 11.7536 23.0416 12.2474 22.875 12.6963C22.8709 12.7072 22.8667 12.7187 22.8623 12.7295C21.9751 14.8805 20.4688 16.7204 18.5351 18.0146C16.6015 19.3087 14.3267 19.9999 12 20C9.6731 19.9999 7.3976 19.3089 5.46386 18.0146C3.53015 16.7204 2.0239 14.8806 1.13671 12.7295C1.13223 12.7186 1.1281 12.7073 1.12401 12.6963C0.957443 12.2475 0.957604 11.7535 1.12401 11.3047L1.13671 11.2715C2.02382 9.12048 3.53031 7.2806 5.46386 5.98633C7.3976 4.6921 9.6731 4.00104 12 4.00098ZM12 6.00098C10.0692 6.00104 8.18074 6.57451 6.57616 7.64844C4.98191 8.71565 3.73786 10.2297 2.99999 12C3.7379 13.7707 4.98157 15.2852 6.57616 16.3525C8.18074 17.4265 10.0692 17.9999 12 18C13.9306 17.9999 15.8184 17.4263 17.4228 16.3525C19.0173 15.2853 20.2601 13.7705 20.998 12C20.2601 10.2297 19.0172 8.71559 17.4228 7.64844C15.8183 6.57456 13.9307 6.00107 12 6.00098Z" fill="#E4F2F2"/>
</svg>
