<svg width="24" height="24" viewBox="0 0 24 24" fill="none" xmlns="http://www.w3.org/2000/svg">
<path fill-rule="evenodd" clip-rule="evenodd" d="M15.3945 9.09375C16.3427 8.90728 17.4352 9.02128 18.207 9.79297C18.9788 10.5648 19.0927 11.6573 18.9062 12.6055C18.7161 13.5717 18.1934 14.5615 17.4326 15.3809C17.4159 15.3988 17.3978 15.4159 17.3799 15.4326C16.5606 16.1933 15.5715 16.7162 14.6054 16.9062C13.7394 17.0766 12.7544 16.9948 12.0019 16.3916C11.2371 17.0242 10.2649 17.1628 9.35349 16.9805C8.37171 16.784 7.40173 16.2162 6.59275 15.4072C6.58412 15.3986 6.57566 15.3898 6.56736 15.3809C5.80653 14.5615 5.2838 13.5717 5.09372 12.6055C4.90721 11.6572 5.02116 10.5648 5.79294 9.79297C6.56475 9.02116 7.65721 8.90725 8.60544 9.09375C9.45079 9.26005 10.314 9.68079 11.0654 10.293L11.3808 10.5674L11.4326 10.6191C11.6329 10.8349 11.8158 11.063 11.9814 11.2988C12.1655 11.0537 12.3691 10.8165 12.5927 10.5928L12.6191 10.5674C13.4384 9.80661 14.4283 9.28387 15.3945 9.09375ZM8.2197 11.0566C7.643 10.9432 7.33515 11.0789 7.207 11.207C7.07887 11.3352 6.94317 11.6431 7.05661 12.2197C7.16599 12.7754 7.49055 13.4315 8.02439 14.0098C8.61027 14.59 9.23301 14.9169 9.74607 15.0195C10.2514 15.1206 10.5837 15.0022 10.7929 14.793C10.8608 14.7251 10.9289 14.6066 10.9629 14.4248C10.9439 14.2347 10.9414 14.0429 10.9541 13.8516C10.9502 13.8284 10.9481 13.8044 10.9433 13.7803C10.835 13.2301 10.5156 12.5818 9.99118 12.0078C9.41744 11.484 8.76949 11.1649 8.2197 11.0566ZM16.7929 11.207C16.6647 11.0789 16.3568 10.9432 15.7802 11.0566C15.2245 11.1661 14.5675 11.4904 13.9892 12.0244C13.4094 12.6101 13.083 13.2332 12.9804 13.7461C12.9749 13.7738 12.972 13.8014 12.9677 13.8281C12.9843 14.0112 12.9879 14.1966 12.9775 14.3818C13.0207 14.5536 13.1027 14.6886 13.207 14.793C13.3352 14.9211 13.6432 15.0567 14.2197 14.9434C14.7698 14.835 15.4173 14.5145 15.9912 13.9902C16.5149 13.4165 16.8351 12.7695 16.9433 12.2197C17.0568 11.6431 16.9211 11.3352 16.7929 11.207Z" fill="#E4F2F2"/>
<path fill-rule="evenodd" clip-rule="evenodd" d="M12 1C14.9173 1 17.7154 2.15881 19.7783 4.22168C21.8412 6.28458 23 9.08262 23 12V12.0078C22.9879 13.4991 22.5993 14.9638 21.8701 16.2646C21.1409 17.5653 20.0948 18.6609 18.8291 19.4492L14.8759 22.1162L14.8769 22.1172C14.05 22.7012 13.0621 23.0146 12.0498 23.0146C11.0443 23.0146 10.0637 22.7044 9.24021 22.1279L5.25876 19.4414C3.9649 18.6882 2.88985 17.6095 2.14255 16.3115C1.38697 14.9991 0.99287 13.5095 0.999972 11.9951C1.00126 9.07952 2.15993 6.28342 4.22165 4.22168C6.28453 2.1588 9.08262 1.00002 12 1ZM12 3C9.61306 3.00002 7.32352 3.94794 5.63571 5.63574C3.94792 7.32357 2.99997 9.61307 2.99997 12V12.0049C2.99456 13.1657 3.29677 14.3074 3.87595 15.3135C4.45521 16.3196 5.29114 17.1542 6.29782 17.7324C6.31877 17.7444 6.33933 17.758 6.35935 17.7715L10.3593 20.4707C10.3652 20.4747 10.3712 20.4793 10.3769 20.4834C10.8663 20.829 11.4507 21.0146 12.0498 21.0146C12.649 21.0146 13.2342 20.8291 13.7236 20.4834L13.7402 20.4707L17.7402 17.7715L17.7715 17.751C18.7512 17.1408 19.5605 16.2929 20.125 15.2861C20.6881 14.2816 20.9893 13.1515 21 12C21 9.61305 20.0521 7.32357 18.3642 5.63574C16.6764 3.94794 14.3869 3 12 3Z" fill="#E4F2F2"/>
</svg>
