<svg width="24" height="24" viewBox="0 0 24 24" fill="none" xmlns="http://www.w3.org/2000/svg">
<path fill-rule="evenodd" clip-rule="evenodd" d="M4.0498 2.00098C8.70907 2.23127 13.1163 4.18582 16.415 7.48438C19.7139 10.7832 21.6682 15.191 21.8984 19.8506C21.8993 19.867 21.9004 19.8839 21.9004 19.9004C21.9003 20.4351 21.716 20.9339 21.3564 21.3193C21.0047 21.6962 20.5399 21.9071 20.0645 21.9863C20.0103 21.9954 19.9553 22 19.9004 22H5.02637C3.31776 22.118 2 20.7119 2 19.0996V4C2 3.47275 2.18058 2.95614 2.56836 2.56836C2.95614 2.18058 3.47275 2 4 2C4.01646 2 4.03337 2.00016 4.0498 2.00098ZM9.45508 20H19.792C19.8231 19.9916 19.8465 19.9835 19.8623 19.9756C19.8843 19.9646 19.8924 19.9563 19.8936 19.9551C19.8942 19.9535 19.8974 19.941 19.8984 19.9111C19.8195 18.3848 19.5327 16.8894 19.0566 15.4619L9.45508 20ZM5.98438 19.4277L18.3105 13.6016C17.6428 12.1879 16.777 10.8667 15.7324 9.67969L5.98438 19.4277ZM4.57227 18.0117L14.3242 8.25977C13.1436 7.20324 11.8273 6.3252 10.417 5.64551L4.57227 18.0117ZM4 14.543L8.56445 4.88477C7.10259 4.3843 5.56746 4.08401 4 4.00195V14.543Z" fill="#E4F2F2"/>
</svg>
