<svg width="24" height="24" viewBox="0 0 24 24" fill="none" xmlns="http://www.w3.org/2000/svg">
<path d="M12 11C12.5523 11 13 11.4477 13 12V12.0098C13 12.5621 12.5523 13.0098 12 13.0098C11.4477 13.0098 11 12.562 11 12.0098V12C11 11.4477 11.4477 11 12 11Z" fill="#E4F2F2"/>
<path fill-rule="evenodd" clip-rule="evenodd" d="M10.8662 1.34668C12.1667 0.925294 13.5614 0.889441 14.8818 1.24316C15.138 1.3118 15.3566 1.47932 15.4893 1.70898C15.6218 1.93863 15.6575 2.21164 15.5889 2.46777L14.6182 6.08691C15.2924 5.96122 15.9849 5.93369 16.6738 6.00781C18.033 6.15408 19.3209 6.69078 20.3818 7.55273C21.4428 8.41479 22.2319 9.56574 22.6533 10.8662C23.0747 12.1667 23.1106 13.5614 22.7568 14.8818C22.6882 15.138 22.5207 15.3566 22.291 15.4893C22.0614 15.6218 21.7883 15.6575 21.5322 15.5889L17.9121 14.6182C18.0378 15.2924 18.0663 15.9848 17.9922 16.6738C17.8459 18.033 17.3093 19.3208 16.4473 20.3818C15.5852 21.4428 14.4343 22.2319 13.1338 22.6533C11.8334 23.0747 10.4386 23.1105 9.11816 22.7568C8.86208 22.6882 8.64333 22.5206 8.51074 22.291C8.37823 22.0614 8.34252 21.7883 8.41113 21.5322L9.38086 17.9121C8.7069 18.0377 8.01485 18.0663 7.32617 17.9922C5.96699 17.8459 4.67915 17.3093 3.61816 16.4473C2.55717 15.5852 1.76811 14.4343 1.34668 13.1338C0.925327 11.8334 0.889454 10.4386 1.24316 9.11816C1.31182 8.86204 1.47934 8.64334 1.70898 8.51074C1.93861 8.3782 2.21166 8.34255 2.46777 8.41113L6.08691 9.38086C5.96138 8.70696 5.93371 8.01479 6.00781 7.32617C6.15408 5.96699 6.69072 4.67915 7.55273 3.61816C8.41479 2.55715 9.56571 1.76811 10.8662 1.34668ZM13.3721 3.01367C12.7359 2.97318 12.0945 3.05068 11.4824 3.24902C10.5494 3.55139 9.72401 4.11778 9.10546 4.87891C8.48688 5.64025 8.10107 6.56471 7.99609 7.54004C7.89114 8.51539 8.07123 9.50044 8.51367 10.376C8.69149 10.7279 8.64611 11.152 8.39746 11.458C8.14879 11.764 7.74316 11.895 7.3623 11.793L3.01367 10.627C2.97302 11.2635 3.05056 11.9051 3.24902 12.5176C3.55144 13.4508 4.11756 14.2769 4.8789 14.8955C5.64023 15.5141 6.56474 15.8989 7.54004 16.0039C8.51539 16.1088 9.50043 15.9288 10.376 15.4863C10.7279 15.3085 11.152 15.3539 11.458 15.6025C11.764 15.8512 11.8949 16.2569 11.793 16.6377L10.6269 20.9854C11.2635 21.026 11.9051 20.9495 12.5176 20.751C13.4508 20.4486 14.2769 19.8825 14.8955 19.1211C15.5141 18.3597 15.8989 17.4353 16.0039 16.46C16.1089 15.4846 15.9288 14.4996 15.4863 13.624C15.3087 13.2723 15.3543 12.8489 15.6025 12.543C15.8512 12.237 16.2568 12.1051 16.6377 12.207L20.9853 13.3721C21.0258 12.7359 20.9493 12.0945 20.751 11.4824C20.4486 10.5494 19.8822 9.72401 19.1211 9.10547C18.3597 8.48687 17.4353 8.10106 16.46 7.99609C15.4846 7.89114 14.4996 8.07123 13.624 8.51367C13.2723 8.69138 12.849 8.64577 12.543 8.39746C12.2369 8.1488 12.105 7.7432 12.207 7.3623L13.3721 3.01367Z" fill="#E4F2F2"/>
</svg>
