<svg width="24" height="24" viewBox="0 0 24 24" fill="none" xmlns="http://www.w3.org/2000/svg">
<path fill-rule="evenodd" clip-rule="evenodd" d="M5.67383 1.00391C6.5388 1.04688 7.35932 1.4101 7.97461 2.02539C8.63099 2.68177 9 3.57174 9 4.5V5.86426L13.3594 2.23145L13.5 2.13379C13.8418 1.93627 14.2751 1.95695 14.5996 2.2002L19 5.5V4C19 3.44772 19.4477 3 20 3C20.5523 3 21 3.44772 21 4V7L22.5996 8.2002C23.0414 8.53153 23.131 9.15779 22.7998 9.59961C22.4685 10.0414 21.8422 10.131 21.4004 9.7998L21 9.49902V13H22C22.5523 13 23 13.4477 23 14C23 14.5523 22.5523 15 22 15H17.5537L16.3037 17H22C22.5523 17 23 17.4477 23 18C23 18.5523 22.5523 19 22 19H15.0537L13.8037 21H22C22.5523 21 23 21.4477 23 22C23 22.5523 22.5523 23 22 23H12C11.6365 23 11.3012 22.8023 11.125 22.4844C10.949 22.1665 10.9598 21.7778 11.1523 21.4697L15.1963 15H12.5537L7.84766 22.5303C7.55486 22.9983 6.93795 23.1403 6.46973 22.8477C6.00167 22.5549 5.85971 21.9379 6.15234 21.4697L10.1963 15H7.55371L2.84766 22.5303C2.55486 22.9983 1.93795 23.1403 1.46973 22.8477C1.00167 22.5549 0.859707 21.9379 1.15234 21.4697L5.19629 15H2C1.44772 15 1 14.5523 1 14C1 13.4477 1.44772 13 2 13V4.5C2 3.57174 2.36901 2.68177 3.02539 2.02539C3.68177 1.36901 4.57174 1 5.5 1L5.67383 1.00391ZM5.5 3C5.10218 3 4.72076 3.15815 4.43945 3.43945C4.15815 3.72076 4 4.10218 4 4.5V13H7V4.5C7 4.10218 6.84185 3.72076 6.56055 3.43945C6.31446 3.19337 5.99174 3.04195 5.64844 3.00781L5.5 3ZM9 8.46875V13H11V10C11 9.44771 11.4477 9 12 9H16C16.5523 9 17 9.44771 17 10V13H19V7.99902L14.0332 4.27441L9 8.46875ZM13 13H15V11H13V13Z" fill="#E4F2F2"/>
</svg>
