<svg width="24" height="24" viewBox="0 0 24 24" fill="none" xmlns="http://www.w3.org/2000/svg">
<path fill-rule="evenodd" clip-rule="evenodd" d="M12.8516 3.22851C13.3996 3.00157 14.0032 2.94197 14.585 3.05761C15.1667 3.17329 15.7016 3.45868 16.1211 3.87793L22.1211 9.8789C22.6834 10.4414 22.9999 11.2047 23 12C22.9999 12.7952 22.6832 13.5577 22.1211 14.1201L16.1211 20.1211C15.7016 20.5404 15.1667 20.8257 14.585 20.9414C14.0031 21.0571 13.3996 20.9975 12.8516 20.7705C12.3037 20.5435 11.8354 20.1591 11.5059 19.666C11.1764 19.1729 11.0002 18.5931 11 18V15.2422L6.12109 20.1211C5.70157 20.5404 5.16675 20.8257 4.58496 20.9414C4.00314 21.0571 3.39963 20.9975 2.85156 20.7705C2.30373 20.5435 1.83538 20.1591 1.50586 19.666C1.17637 19.1729 1.00017 18.5931 1 18V5.99902L1.00781 5.77734C1.04618 5.26239 1.21753 4.76441 1.50586 4.33301C1.83541 3.84003 2.30375 3.45551 2.85156 3.22851C3.39957 3.00157 4.0032 2.94197 4.58496 3.05761C5.16667 3.17329 5.70159 3.45868 6.12109 3.87793L11 8.75781V5.99902L11.0078 5.77734C11.0462 5.26239 11.2175 4.76441 11.5059 4.33301C11.8354 3.84003 12.3038 3.45551 12.8516 3.22851ZM4.19531 5.01953C4.00142 4.98099 3.79984 5.00055 3.61719 5.07617C3.4347 5.15179 3.27878 5.28015 3.16895 5.44433C3.05912 5.60865 3.00011 5.80236 3 6V17.999L3.01074 18.1465C3.0324 18.2919 3.08662 18.4314 3.16895 18.5547C3.27876 18.719 3.43465 18.8472 3.61719 18.9228C3.79989 18.9985 4.00136 19.0181 4.19531 18.9795C4.3891 18.9409 4.56728 18.8458 4.70703 18.7061L10.707 12.7061C10.8941 12.5187 10.9999 12.2648 11 12C10.9999 11.7351 10.8942 11.4804 10.707 11.293L4.70703 5.29297C4.56728 5.15333 4.38906 5.05812 4.19531 5.01953ZM14.1953 5.01953C14.0014 4.98099 13.7998 5.00055 13.6172 5.07617C13.4347 5.15179 13.2788 5.28015 13.1689 5.44433C13.0591 5.60865 13.0001 5.80236 13 6V17.999L13.0107 18.1465C13.0324 18.2919 13.0866 18.4314 13.1689 18.5547C13.2788 18.719 13.4347 18.8472 13.6172 18.9228C13.7999 18.9985 14.0014 19.0181 14.1953 18.9795C14.3891 18.9409 14.5673 18.8458 14.707 18.7061L20.707 12.7061C20.8941 12.5187 20.9999 12.2648 21 12C20.9999 11.7351 20.8942 11.4804 20.707 11.293L14.707 5.29297C14.5673 5.15333 14.3891 5.05812 14.1953 5.01953Z" fill="#E4F2F2"/>
</svg>
