<svg width="24" height="24" viewBox="0 0 24 24" fill="none" xmlns="http://www.w3.org/2000/svg">
<path fill-rule="evenodd" clip-rule="evenodd" d="M18.9805 0.900391C19.7759 0.900515 20.5391 1.2168 21.1016 1.7793C21.6639 2.34186 21.9805 3.10494 21.9805 3.90039C21.9804 4.69583 21.664 5.45898 21.1016 6.02148C20.5391 6.58391 19.7759 6.90027 18.9805 6.90039H18.5801C18.5117 6.90039 18.443 6.89285 18.376 6.87891L14.2197 6.0127C13.8896 6.37659 13.4727 6.65787 13 6.8252V8.08301C13.5227 8.19262 14.0264 8.38689 14.4893 8.66211C15.0645 9.00414 15.5603 9.46076 15.9492 10H17C17 9.44771 17.4477 9 18 9H21C21 8.44772 21.4477 8 22 8C22.5523 8 23 8.44772 23 9V17C23 17.5523 22.5523 18 22 18C21.4477 18 21 17.5523 21 17H18C17.4477 17 17 16.5523 17 16H15.9492C15.5603 16.5392 15.0645 16.9959 14.4893 17.3379C13.7363 17.7856 12.876 18.0215 12 18.0215C11.124 18.0215 10.2637 17.7856 9.51074 17.3379C8.93552 16.9959 8.43973 16.5392 8.05078 16H7V17C6.99999 17.4463 6.70737 17.8235 6.30371 17.9521C6.43955 18.1964 6.57328 18.4561 6.68457 18.7158C6.83901 19.0762 7 19.5414 7 20C7 20.7957 6.6837 21.5585 6.12109 22.1211C5.55849 22.6837 4.79565 23 4 23C3.20435 23 2.44151 22.6837 1.87891 22.1211C1.3163 21.5585 1 20.7957 1 20C1 19.5414 1.16099 19.0762 1.31543 18.7158C1.42666 18.4563 1.55955 18.1962 1.69531 17.9521C1.29212 17.8232 1.00001 17.446 1 17V16C1.00002 12.6477 3.64773 10 7 10H8.05078C8.43973 9.46076 8.93552 9.00414 9.51074 8.66211C9.97365 8.38688 10.4773 8.19254 11 8.08301V6.8252C10.5319 6.65952 10.1187 6.38215 9.79004 6.02344L5.62207 6.97461C5.54931 6.99119 5.47502 6.99997 5.40039 7H5C4.20435 7 3.44152 6.6837 2.87891 6.12109C2.3163 5.55848 2 4.79565 2 4C2 3.20435 2.3163 2.44152 2.87891 1.87891C3.44152 1.3163 4.20435 1 5 1H5.40039L5.50098 1.00488C5.53472 1.00831 5.5683 1.01366 5.60156 1.02051L9.86133 1.89648C10.4055 1.34323 11.1626 1 12 1C12.7879 1 13.5028 1.30597 14.0381 1.80273L18.3809 0.920898C18.4464 0.907589 18.5132 0.900396 18.5801 0.900391H18.9805ZM4 18.0273C3.88293 18.2004 3.74424 18.4116 3.60742 18.6396C3.43244 18.9313 3.26941 19.2321 3.15332 19.5029C3.02654 19.7988 3 19.9587 3 20L3.00488 20.0986C3.02757 20.3276 3.12883 20.5429 3.29297 20.707C3.48051 20.8946 3.73478 21 4 21C4.26522 21 4.51949 20.8946 4.70703 20.707C4.89457 20.5195 5 20.2652 5 20C5 19.9587 4.97346 19.7988 4.84668 19.5029C4.73059 19.2321 4.56756 18.9313 4.39258 18.6396C4.25576 18.4116 4.11707 18.2004 4 18.0273ZM12.1689 9.98438C12.114 9.99375 12.0577 10 12 10C11.942 10 11.8854 9.99385 11.8301 9.98438C11.373 10.0115 10.9281 10.147 10.5332 10.3818C10.0896 10.6457 9.72508 11.0241 9.47852 11.4775C9.30348 11.7995 8.96604 12 8.59961 12H7C4.75229 12 3.00002 13.7523 3 16H5C5.00001 15.4728 5.1806 14.9561 5.56836 14.5684C5.95614 14.1806 6.47276 14 7 14H8.59961C8.96605 14 9.30349 14.2005 9.47852 14.5225C9.72507 14.9759 10.0895 15.3543 10.5332 15.6182C10.977 15.882 11.4837 16.0215 12 16.0215C12.5163 16.0215 13.023 15.882 13.4668 15.6182C13.9105 15.3543 14.2749 14.9759 14.5215 14.5225L14.5947 14.4072C14.7815 14.1534 15.0799 14 15.4004 14H17V12H15.4004C15.034 12 14.6965 11.7995 14.5215 11.4775C14.2749 11.0241 13.9104 10.6457 13.4668 10.3818C13.0786 10.151 12.6422 10.0157 12.1934 9.98535L12.1689 9.98438ZM19 15H21V11H19V15ZM5 3C4.73478 3 4.4805 3.10543 4.29297 3.29297C4.10543 3.4805 4 3.73478 4 4L4.00488 4.09863C4.02757 4.32763 4.12883 4.54289 4.29297 4.70703C4.4805 4.89457 4.73478 5 5 5H5.28906L9.00293 4.15039C9.00047 4.10058 9 4.05042 9 4C9 3.92012 9.00364 3.841 9.00977 3.7627L5.29785 3H5ZM12 3C11.4477 3 11 3.44772 11 4C11 4.13737 11.027 4.26855 11.0771 4.3877C11.0979 4.42238 11.1162 4.45853 11.1328 4.49609C11.3052 4.79684 11.6285 5 12 5C12.3654 5 12.6839 4.80334 12.8584 4.51074C12.877 4.46655 12.8985 4.42412 12.9229 4.38379C12.9721 4.26553 13 4.13609 13 4C13 3.82487 12.9541 3.66074 12.875 3.51758C12.8408 3.47412 12.8091 3.42823 12.7822 3.37891C12.599 3.14849 12.3172 3 12 3ZM14.9785 3.65137C14.9918 3.76579 15 3.88202 15 4C15 4.04419 14.998 4.08811 14.9961 4.13184L18.6807 4.90039H18.9805C19.2455 4.90027 19.5001 4.79477 19.6875 4.60742C19.8748 4.41999 19.9804 4.16539 19.9805 3.90039C19.9805 3.63538 19.8748 3.38085 19.6875 3.19336C19.5001 3.00593 19.2455 2.90051 18.9805 2.90039H18.6787L14.9785 3.65137Z" fill="#E4F2F2"/>
</svg>
