<svg width="24" height="24" viewBox="0 0 24 24" fill="none" xmlns="http://www.w3.org/2000/svg">
<path fill-rule="evenodd" clip-rule="evenodd" d="M22 16C22.5522 16 22.9999 16.4477 23 17C23 17.5523 22.5523 18 22 18C22 18.1543 22.0606 18.2881 22.332 18.6953C22.5605 19.038 23 19.6544 23 20.5C23 21.8523 21.8523 23 20.5 23H15.5C14.1477 23 13 21.8523 13 20.5C13 19.6544 13.4395 19.038 13.668 18.6953C13.9394 18.2881 14 18.1543 14 18C13.4477 18 13 17.5523 13 17C13.0001 16.4477 13.4477 16 14 16H22ZM16 18C16 18.8455 15.5605 19.4619 15.332 19.8047C15.0606 20.2118 15 20.3456 15 20.5C15 20.7477 15.2523 21 15.5 21H20.5C20.7477 21 21 20.7477 21 20.5C21 20.3456 20.9394 20.2118 20.668 19.8047C20.4395 19.4619 20 18.8455 20 18H16Z" fill="#E4F2F2"/>
<path d="M10 18C10.5523 18 10.9999 18.4477 11 19C11 19.5523 10.5523 20 10 20H2C1.44772 20 1 19.5523 1 19C1.00005 18.4477 1.44775 18 2 18H10Z" fill="#E4F2F2"/>
<path fill-rule="evenodd" clip-rule="evenodd" d="M12.8076 3.0781C15.5859 0.415582 20.0084 0.394329 22.707 3.09275C23.094 3.47979 23.0979 4.10616 22.7158 4.49803L14.7158 12.6982C14.5276 12.8911 14.2695 13 14 13H5.48633L2.69727 15.7168C2.30161 16.1017 1.66842 16.0937 1.2832 15.6982C0.897915 15.3026 0.907138 14.6695 1.30273 14.2842L12.8027 3.08396L12.8076 3.0781ZM7.54004 11H13.5781L15.5293 8.99998H9.59375L7.54004 11ZM20.5225 3.88182C18.6129 2.63193 15.9607 2.82788 14.1924 4.52244L14.1914 4.52146L11.6465 6.99998H17.4805L20.5225 3.88182Z" fill="#E4F2F2"/>
</svg>
