<svg width="24" height="24" viewBox="0 0 24 24" fill="none" xmlns="http://www.w3.org/2000/svg">
<path d="M10.2998 2C10.8521 2 11.2998 2.44772 11.2998 3C11.2998 3.55228 10.8521 4 10.2998 4H5C4.73478 4 4.4805 4.10543 4.29297 4.29297C4.10543 4.4805 4 4.73478 4 5V19C4 19.2652 4.10543 19.5195 4.29297 19.707C4.48051 19.8946 4.73478 20 5 20H19C19.2652 20 19.5195 19.8946 19.707 19.707C19.8946 19.5195 20 19.2652 20 19V10.2002C20 9.64791 20.4477 9.2002 21 9.2002C21.5523 9.2002 22 9.64791 22 10.2002V19C22 19.7957 21.6837 20.5585 21.1211 21.1211C20.5585 21.6837 19.7957 22 19 22H5C4.20435 22 3.44151 21.6837 2.87891 21.1211C2.3163 20.5585 2 19.7957 2 19V5C2 4.20435 2.3163 3.44152 2.87891 2.87891C3.44152 2.3163 4.20435 2 5 2H10.2998Z" fill="#E4F2F2"/>
<path fill-rule="evenodd" clip-rule="evenodd" d="M18.75 1C20.19 1 21.5579 1.64385 22.707 2.79297C23.0976 3.18349 23.0976 3.81651 22.707 4.20703L17.207 9.70703C17.0195 9.89457 16.7652 10 16.5 10H10.4141L7.70703 12.707C7.31651 13.0976 6.68349 13.0976 6.29297 12.707C5.90244 12.3165 5.90244 11.6835 6.29297 11.293L14.793 2.79297C15.9421 1.64385 17.31 1 18.75 1ZM18.75 3C17.94 3 17.0579 3.35615 16.207 4.20703L12.4141 8H16.0859L20.5166 3.56836C19.916 3.17395 19.3155 3 18.75 3Z" fill="#E4F2F2"/>
</svg>
