<svg width="24" height="24" viewBox="0 0 24 24" fill="none" xmlns="http://www.w3.org/2000/svg">
<path fill-rule="evenodd" clip-rule="evenodd" d="M15.9951 0.991211C17.8523 0.991262 19.6339 1.72887 20.9473 3.04199C22.2604 4.35517 22.9978 6.13705 22.998 7.99414C22.998 9.85083 22.2597 11.6311 20.9473 12.9443L20.9482 12.9453L18.29 15.6104C18.2388 15.6766 18.1793 15.7356 18.1133 15.7871L14.7939 19.1172C14.5154 19.3966 14.1847 19.6192 13.8203 19.7705C13.4558 19.9218 13.0645 19.9999 12.6699 20H5.99999C5.82382 20 5.65067 19.9745 5.48338 19.9297L2.70702 22.707C2.3165 23.0975 1.68348 23.0975 1.29295 22.707C0.90243 22.3165 0.90243 21.6835 1.29295 21.293L4.06932 18.5156C4.02476 18.3488 4.00003 18.1756 3.99999 18V11.3271L4.01463 11.0312C4.08297 10.3446 4.38659 9.69821 4.87889 9.20605L11.043 3.04199C12.3563 1.72894 14.138 0.991211 15.9951 0.991211ZM9.41405 16L7.41405 18H12.6699L12.7685 17.9951C12.8661 17.9854 12.9618 17.9606 13.0527 17.9229C13.1741 17.8724 13.2851 17.7982 13.3779 17.7051L15.0781 16H9.41405ZM15.9951 2.99121C14.6683 2.99121 13.3953 3.51889 12.457 4.45703L6.29295 10.6211C6.10563 10.8085 6.00016 11.0632 5.99999 11.3281V16.5859L15.293 7.29297C15.6835 6.90248 16.3165 6.90246 16.707 7.29297C17.0975 7.68348 17.0975 8.31652 16.707 8.70703L11.414 14H17.0723L19.5322 11.5332L19.5332 11.5322C20.4712 10.594 20.998 9.32086 20.998 7.99414C20.9978 6.66765 20.4711 5.3951 19.5332 4.45703C18.5949 3.51889 17.3219 2.99126 15.9951 2.99121Z" fill="#E4F2F2"/>
</svg>
