<svg width="24" height="24" viewBox="0 0 24 24" fill="none" xmlns="http://www.w3.org/2000/svg">
<path fill-rule="evenodd" clip-rule="evenodd" d="M12.8076 8.07812C15.5859 5.41557 20.0084 5.39425 22.707 8.09277C23.094 8.47974 23.0977 9.10615 22.7158 9.49805L18.9219 13.3867C18.824 13.6199 18.6402 13.8074 18.4102 13.9111L14.7158 17.6982C14.5277 17.8909 14.2692 17.9999 14 18H5.5625L2.80078 20.7139C2.4069 21.1005 1.7737 21.0947 1.38672 20.7012C0.999957 20.3074 1.0051 19.6742 1.39844 19.2871L4.2334 16.501C4.32452 16.3432 4.45753 16.2122 4.61719 16.124L8.38281 12.4248C8.45337 12.3247 8.54088 12.2373 8.64258 12.1689L12.7988 8.08691L12.8076 8.07812ZM9.63379 14L7.59863 16H13.5781L15.5293 14H9.63379ZM20.5225 8.88184C18.6129 7.63186 15.9598 7.82778 14.1914 9.52246L11.6699 12H17.4805L20.5225 8.88184Z" fill="#E4F2F2"/>
<path d="M5 3C5.55228 3 6 3.44772 6 4V6H8C8.55228 6 9 6.44772 9 7C9 7.55228 8.55228 8 8 8H6V10C6 10.5523 5.55228 11 5 11C4.44772 11 4 10.5523 4 10V8H2C1.44772 8 1 7.55228 1 7C1 6.44772 1.44772 6 2 6H4V4C4 3.44772 4.44772 3 5 3Z" fill="#E4F2F2"/>
</svg>
