<svg width="24" height="24" viewBox="0 0 24 24" fill="none" xmlns="http://www.w3.org/2000/svg">
<path fill-rule="evenodd" clip-rule="evenodd" d="M3.36914 2.2246C3.76191 1.90425 4.34092 1.92685 4.70703 2.29296L6.70703 4.29296C6.89449 4.48049 7 4.73483 7 4.99999V6.99999H9V4.99999L9.00488 4.90136C9.02757 4.67242 9.12889 4.45709 9.29297 4.29296L11.293 2.29296L11.3691 2.2246C11.7619 1.90425 12.3409 1.92685 12.707 2.29296L14.707 4.29296C14.8945 4.48049 15 4.73483 15 4.99999V6.99999H17V4.99999L17.0049 4.90136C17.0276 4.67242 17.1289 4.45709 17.293 4.29296L19.293 2.29296L19.3691 2.2246C19.7619 1.90425 20.3409 1.92685 20.707 2.29296L22.707 4.29296C22.8945 4.48049 23 4.73483 23 4.99999V20C22.9999 20.5272 22.8194 21.0439 22.4316 21.4316C22.0439 21.8193 21.5272 22 21 22H19C18.4728 22 17.9561 21.8193 17.5684 21.4316C17.1806 21.0439 17.0001 20.5272 17 20V19H15V20C14.9999 20.5272 14.8194 21.0439 14.4316 21.4316C14.0439 21.8193 13.5272 22 13 22H11C10.4728 22 9.95613 21.8193 9.56836 21.4316C9.18064 21.0439 9.00005 20.5272 9 20V19H7V20C6.99995 20.5272 6.81936 21.0439 6.43164 21.4316C6.04387 21.8193 5.52719 22 5 22H3C2.47281 22 1.95613 21.8193 1.56836 21.4316C1.18064 21.0439 1.00005 20.5272 1 20V4.99999L1.00488 4.90136C1.02757 4.67242 1.12889 4.45709 1.29297 4.29296L3.29297 2.29296L3.36914 2.2246ZM3 5.41406V20H5V5.41406L4 4.41406L3 5.41406ZM11 5.41406V20H13V5.41406L12 4.41406L11 5.41406ZM19 5.41406V20H21V5.41406L20 4.41406L19 5.41406ZM15 8.99999V17H17V8.99999H15ZM7 17H9V8.99999H7V17Z" fill="#E4F2F2"/>
</svg>
