<svg width="24" height="24" viewBox="0 0 24 24" fill="none" xmlns="http://www.w3.org/2000/svg">
<path fill-rule="evenodd" clip-rule="evenodd" d="M12 9C13.6568 9.00006 15 10.3432 15 12C15 13.1801 14.3169 14.1976 13.3262 14.6875L15.6934 21H16C16.5522 21.0001 17 21.4478 17 22C17 22.5522 16.5522 22.9999 16 23H8C7.44772 23 7 22.5523 7 22C7 21.4477 7.44772 21 8 21H8.30664L10.6729 14.6875C9.68245 14.1975 9 13.1798 9 12C9 10.3431 10.3431 9 12 9ZM10.4434 21H13.5566L12 16.8486L10.4434 21ZM12 11C11.4477 11 11 11.4477 11 12C11 12.5523 11.4477 13 12 13C12.5522 12.9999 13 12.5522 13 12C13 11.4478 12.5522 11.0001 12 11Z" fill="#E4F2F2"/>
<path d="M12 1C12.5522 1.00006 13 1.44775 13 2V2.04297C14.671 2.21099 16.2788 2.7974 17.6709 3.75586C18.6303 4.41645 19.4604 5.23614 20.1309 6.17285L20.2041 6.13184C20.6836 5.85801 21.2944 6.02446 21.5684 6.50391C21.8422 6.98333 21.6756 7.59412 21.1963 7.86816L21.126 7.9082C21.2019 8.07787 21.2752 8.2495 21.3418 8.42383C22.0643 10.3156 22.1954 12.3827 21.7178 14.3506C21.5722 14.9501 21.3715 15.5315 21.1211 16.0889L21.1963 16.1318C21.6756 16.4059 21.8422 17.0167 21.5684 17.4961C21.2944 17.9755 20.6836 18.142 20.2041 17.8682L20.1231 17.8213C19.7001 18.4107 19.2134 18.9566 18.667 19.4453C18.2555 19.8132 17.6231 19.7784 17.2549 19.3672C16.8868 18.9557 16.9217 18.3233 17.333 17.9551C17.7182 17.6106 18.0659 17.2301 18.375 16.8223L16.7041 15.8682C16.2246 15.5942 16.058 14.9834 16.332 14.5039C16.6061 14.0245 17.2168 13.8579 17.6963 14.1318L19.374 15.0898C19.5383 14.699 19.6735 14.2946 19.7744 13.8789C20.1565 12.3047 20.0516 10.651 19.4736 9.1377C19.4438 9.05968 19.412 8.98214 19.3799 8.90527L17.6963 9.86816C17.2168 10.1421 16.6061 9.97551 16.332 9.49609C16.058 9.01658 16.2246 8.40585 16.7041 8.13184L18.3828 7.17188C17.8688 6.49127 17.2475 5.89254 16.5371 5.40332C15.4791 4.67485 14.265 4.21417 13 4.05469V6C13 6.55225 12.5522 6.99994 12 7C11.4477 7 11 6.55228 11 6V4.05469C9.7349 4.21414 8.52101 4.67481 7.46289 5.40332C6.75232 5.89264 6.13035 6.49107 5.61621 7.17188L7.2959 8.13184C7.77542 8.40585 7.94198 9.01658 7.66797 9.49609C7.39395 9.97558 6.78322 10.1422 6.30371 9.86816L4.61914 8.90527C4.58703 8.98205 4.55613 9.05978 4.52637 9.1377C3.94842 10.6511 3.84354 12.3046 4.22559 13.8789C4.32647 14.2945 4.4608 14.6991 4.625 15.0898L6.30371 14.1318C6.78322 13.8578 7.39395 14.0244 7.66797 14.5039C7.94198 14.9834 7.77542 15.5942 7.2959 15.8682L5.62403 16.8223C5.93316 17.2303 6.28171 17.6105 6.667 17.9551C7.07821 18.3233 7.11317 18.9557 6.74512 19.3672C6.37696 19.7784 5.74455 19.8132 5.33301 19.4453C4.78652 18.9565 4.29899 18.4108 3.87598 17.8213L3.7959 17.8682C3.31639 18.1421 2.70564 17.9756 2.43164 17.4961C2.15768 17.0166 2.32426 16.4059 2.80371 16.1318L2.87793 16.0889C2.62764 15.5316 2.42773 14.95 2.28223 14.3506C1.80463 12.3826 1.93567 10.3156 2.65821 8.42383C2.72486 8.24932 2.79704 8.07707 2.87305 7.90723L2.80371 7.86816C2.32426 7.59414 2.15768 6.9834 2.43164 6.50391C2.70564 6.02441 3.31639 5.85788 3.7959 6.13184L3.86817 6.17285C4.53873 5.23594 5.36955 4.41655 6.32911 3.75586C7.72127 2.79736 9.32894 2.21096 11 2.04297V2C11 1.44772 11.4477 1 12 1Z" fill="#E4F2F2"/>
</svg>
