<svg width="24" height="24" viewBox="0 0 24 24" fill="none" xmlns="http://www.w3.org/2000/svg">
<path fill-rule="evenodd" clip-rule="evenodd" d="M15.7217 1.00586C16.2368 1.03127 16.7442 1.14502 17.2217 1.34277C17.7676 1.56892 18.2638 1.9005 18.6816 2.31836C19.0995 2.73622 19.4311 3.23236 19.6572 3.77832C19.8833 4.32421 20 4.90914 20 5.5C20 6.09086 19.8833 6.67579 19.6572 7.22168C19.4311 7.76764 19.0995 8.26378 18.6816 8.68164C18.5689 8.79442 18.4498 8.90017 18.3262 9C18.4498 9.09983 18.5689 9.20558 18.6816 9.31836C19.0995 9.73622 19.4311 10.2324 19.6572 10.7783C19.8833 11.3242 20 11.9091 20 12.5L19.9941 12.7217C19.9687 13.2368 19.855 13.7442 19.6572 14.2217C19.4311 14.7676 19.0995 15.2638 18.6816 15.6816C18.2638 16.0995 17.7676 16.4311 17.2217 16.6572C16.6758 16.8833 16.0909 17 15.5 17C14.9091 17 14.3242 16.8833 13.7783 16.6572C13.5052 16.5441 13.2446 16.4047 13 16.2412V19.5C13 20.6935 12.5256 21.8377 11.6816 22.6816C10.8377 23.5256 9.69347 24 8.5 24C7.30653 24 6.16227 23.5256 5.31836 22.6816C4.47445 21.8377 4 20.6935 4 19.5C4 18.3065 4.47445 17.1623 5.31836 16.3184C5.43127 16.2054 5.54979 16.0994 5.67285 16C5.54979 15.9006 5.43127 15.7946 5.31836 15.6816C4.47445 14.8377 4 13.6935 4 12.5C4 11.3065 4.47445 10.1623 5.31836 9.31836C5.43127 9.20545 5.54979 9.09943 5.67285 9C5.54979 8.90057 5.43127 8.79455 5.31836 8.68164C4.47445 7.83773 4 6.69347 4 5.5C4 4.30653 4.47445 3.16227 5.31836 2.31836C6.16227 1.47445 7.30653 1 8.5 1H15.5L15.7217 1.00586ZM8.5 17C7.83696 17 7.20126 17.2636 6.73242 17.7324C6.26358 18.2013 6 18.837 6 19.5C6 20.163 6.26358 20.7987 6.73242 21.2676C7.20126 21.7364 7.83696 22 8.5 22C9.16304 22 9.79874 21.7364 10.2676 21.2676C10.7364 20.7987 11 20.163 11 19.5V17H8.5ZM8.5 10C7.83696 10 7.20126 10.2636 6.73242 10.7324C6.26358 11.2013 6 11.837 6 12.5C6 13.163 6.26358 13.7987 6.73242 14.2676C7.20126 14.7364 7.83696 15 8.5 15H11V10H8.5ZM15.5 10C15.1717 10 14.8463 10.0648 14.543 10.1904C14.2398 10.3161 13.9645 10.5004 13.7324 10.7324C13.5004 10.9645 13.3161 11.2398 13.1904 11.543C13.0648 11.8463 13 12.1717 13 12.5L13.0117 12.7451C13.0358 12.9894 13.0962 13.2295 13.1904 13.457C13.3161 13.7602 13.5004 14.0355 13.7324 14.2676C13.9645 14.4996 14.2398 14.6839 14.543 14.8096C14.8463 14.9352 15.1717 15 15.5 15C15.8283 15 16.1537 14.9352 16.457 14.8096C16.7602 14.6839 17.0355 14.4996 17.2676 14.2676C17.4996 14.0355 17.6839 13.7602 17.8096 13.457C17.9352 13.1537 18 12.8283 18 12.5L17.9883 12.2549C17.9642 12.0106 17.9038 11.7705 17.8096 11.543C17.6839 11.2398 17.4996 10.9645 17.2676 10.7324C17.0355 10.5004 16.7602 10.3161 16.457 10.1904C16.1537 10.0648 15.8283 10 15.5 10ZM8.5 3C7.83696 3 7.20126 3.26358 6.73242 3.73242C6.26358 4.20126 6 4.83696 6 5.5C6 6.16304 6.26358 6.79874 6.73242 7.26758C7.20126 7.73642 7.83696 8 8.5 8H11V3H8.5ZM13 8H15.5C15.8283 8 16.1537 7.93521 16.457 7.80957C16.7602 7.68394 17.0355 7.49964 17.2676 7.26758C17.4996 7.03551 17.6839 6.76022 17.8096 6.45703C17.9352 6.15372 18 5.8283 18 5.5C18 5.1717 17.9352 4.84628 17.8096 4.54297C17.6839 4.23978 17.4996 3.96449 17.2676 3.73242C17.0355 3.50036 16.7602 3.31606 16.457 3.19043C16.1537 3.06479 15.8283 3 15.5 3H13V8Z" fill="#E4F2F2"/>
</svg>
