<svg width="24" height="24" viewBox="0 0 24 24" fill="none" xmlns="http://www.w3.org/2000/svg">
<path fill-rule="evenodd" clip-rule="evenodd" d="M14 1.00001C14.448 0.999229 14.8916 1.08748 15.3057 1.25879C15.7199 1.43024 16.0965 1.68159 16.4131 1.99903L20.001 5.58594C20.3187 5.90286 20.5708 6.27963 20.7422 6.69434C20.9132 7.10826 21.0009 7.55215 21 8.00001V11.25C21 11.8023 20.5523 12.25 20 12.25C19.4477 12.25 19 11.8023 19 11.25V9H15C14.4696 9 13.961 8.78914 13.5859 8.41407C13.2109 8.039 13 7.53044 13 7.00001V3.00001H6C5.73479 3.00001 5.4805 3.10544 5.29297 3.29297C5.10543 3.48051 5 3.73479 5 4.00001V20C5 20.2652 5.10544 20.5195 5.29297 20.707C5.48051 20.8946 5.73478 21 6 21H11.0996C11.6519 21 12.0996 21.4477 12.0996 22C12.0996 22.5523 11.6519 23 11.0996 23H6C5.20435 23 4.44151 22.6837 3.87891 22.1211C3.3163 21.5585 3 20.7957 3 20V4.00001C3 3.20436 3.3163 2.44152 3.87891 1.87891C4.44152 1.3163 5.20435 1.00001 6 1.00001H14ZM15 7.00001H18.5869L15 3.41309V7.00001Z" fill="#E4F2F2"/>
<path fill-rule="evenodd" clip-rule="evenodd" d="M16 13C18.2091 13 20 14.7909 20 17C20 17.7418 19.7971 18.4358 19.4453 19.0313L21.707 21.293C22.0974 21.6835 22.0975 22.3166 21.707 22.707C21.3165 23.0975 20.6835 23.0974 20.293 22.707L18.0312 20.4453C17.4358 20.7972 16.7417 21 16 21C13.7909 21 12 19.2091 12 17C12 14.7909 13.7909 13 16 13ZM16 15C14.8954 15 14 15.8954 14 17C14 18.1046 14.8954 19 16 19C17.1046 19 18 18.1046 18 17C18 15.8954 17.1046 15 16 15Z" fill="#E4F2F2"/>
</svg>
