<svg width="24" height="24" viewBox="0 0 24 24" fill="none" xmlns="http://www.w3.org/2000/svg">
<path fill-rule="evenodd" clip-rule="evenodd" d="M6.99121 10.0186C7.52666 10.0212 8.05169 10.1674 8.51172 10.4414L8.51465 10.4434L11.5449 12.2627L11.7129 12.3711C12.0954 12.6369 12.412 12.9888 12.6357 13.3994C12.8863 13.8593 13.0114 14.3772 13 14.9004V18.126L12.9961 18.3262C12.9716 18.7906 12.839 19.2445 12.6084 19.6504C12.3486 20.1074 11.9725 20.4867 11.5195 20.7529L11.5205 20.7539L8.55078 22.5645C8.54515 22.5679 8.5389 22.5709 8.5332 22.5742C8.13034 22.8088 7.67915 22.9457 7.21582 22.9756C7.14629 22.9909 7.07413 23 7 23C6.91634 23 6.83548 22.9881 6.75781 22.9688C6.31034 22.9289 5.87607 22.7905 5.48828 22.5596L5.48535 22.5576L2.45508 20.7373C1.99715 20.4622 1.62075 20.0697 1.36523 19.6006C1.11501 19.1409 0.990617 18.6234 1.00195 18.1006L1.00098 14.8604C0.995957 14.3317 1.13061 13.8105 1.3916 13.3506C1.65114 12.8934 2.02664 12.5126 2.47949 12.2461L5.44922 10.4365C5.45485 10.4331 5.46109 10.4291 5.4668 10.4258C5.92941 10.1564 6.45589 10.016 6.99121 10.0186ZM8 17.5684V20.5566L10.4795 19.0459C10.4862 19.0418 10.4932 19.0381 10.5 19.0342C10.654 18.9453 10.7822 18.8167 10.8701 18.6621C10.9579 18.5076 11.0024 18.332 11 18.1543V15.7813L8 17.5684ZM3.00098 18.1328C2.99519 18.3107 3.037 18.4872 3.12207 18.6436C3.20725 18.7999 3.3327 18.9317 3.48535 19.0234L6 20.5332V17.5684L3.00098 15.7813V18.1328ZM6.98145 12.0186C6.80428 12.0177 6.62996 12.0638 6.47656 12.1523L3.67871 13.8574L7 15.835L10.3174 13.8584L7.48828 12.1592C7.33497 12.0679 7.15987 12.0194 6.98145 12.0186Z" fill="#E4F2F2"/>
<path fill-rule="evenodd" clip-rule="evenodd" d="M14 1.00001C14.448 0.999229 14.8917 1.08751 15.3057 1.25879C15.7199 1.43022 16.0965 1.68163 16.4131 1.99903L20 5.58594L20.1162 5.70704C20.3798 5.99707 20.591 6.33141 20.7412 6.69434C20.9125 7.10836 21.0008 7.55196 21 8.00001V20C21 20.7957 20.6837 21.5585 20.1211 22.1211C19.5585 22.6837 18.7956 23 18 23H14.5C13.9478 22.9999 13.5 22.5522 13.5 22C13.5 21.4478 13.9478 21.0001 14.5 21H18C18.2652 21 18.5195 20.8945 18.707 20.707C18.8946 20.5195 19 20.2652 19 20V9H15C14.4696 8.99997 13.961 8.78911 13.5859 8.41407C13.2109 8.039 13 7.53041 13 7.00001V3.00001H6C5.73483 3.00004 5.48047 3.10547 5.29297 3.29297C5.10548 3.4805 5 3.73482 5 4.00001V7.79981C5 8.35209 4.55228 8.79981 4 8.79981C3.44778 8.79974 3 8.35205 3 7.79981V4.00001C3 3.20439 3.31634 2.44151 3.87891 1.87891C4.44148 1.31634 5.2044 1.00004 6 1.00001H14ZM15 7.00001H18.5859L15 3.41407V7.00001Z" fill="#E4F2F2"/>
</svg>
