<svg width="24" height="24" viewBox="0 0 24 24" fill="none" xmlns="http://www.w3.org/2000/svg">
<path d="M16 17C16.5523 17 17 17.4477 17 18C17 18.5523 16.5523 19 16 19H12C11.4477 19 11 18.5523 11 18C11 17.4477 11.4477 17 12 17H16Z" fill="#E4F2F2"/>
<path d="M7.29297 11.293C7.68349 10.9024 8.31651 10.9024 8.70703 11.293L10.707 13.293C11.0976 13.6835 11.0976 14.3165 10.707 14.707L8.70703 16.707C8.31651 17.0976 7.68349 17.0976 7.29297 16.707C6.90245 16.3165 6.90244 15.6835 7.29297 15.293L8.58594 14L7.29297 12.707C6.90245 12.3165 6.90244 11.6835 7.29297 11.293Z" fill="#E4F2F2"/>
<path fill-rule="evenodd" clip-rule="evenodd" d="M14 1C14.4479 0.99949 14.8919 1.08735 15.3057 1.25879C15.7193 1.43023 16.0949 1.68198 16.4111 1.99903L19.9971 5.58496L20.1133 5.70606C20.3773 5.99585 20.5896 6.32952 20.7402 6.69239C20.9122 7.10671 21.0005 7.55143 21 8V20C21 20.7957 20.6837 21.5585 20.1211 22.1211C19.5585 22.6837 18.7957 23 18 23H6C5.20435 23 4.44151 22.6837 3.87891 22.1211C3.3163 21.5585 3 20.7957 3 20V4C3 3.20435 3.3163 2.44152 3.87891 1.87891C4.44152 1.3163 5.20435 1 6 1H14ZM6 3C5.73478 3 5.4805 3.10544 5.29297 3.29297C5.10543 3.48051 5 3.73479 5 4V20C5 20.2652 5.10543 20.5195 5.29297 20.707C5.48051 20.8946 5.73478 21 6 21H18C18.2652 21 18.5195 20.8946 18.707 20.707C18.8946 20.5195 19 20.2652 19 20V9H15C14.4696 9 13.961 8.78914 13.5859 8.41406C13.2109 8.03899 13 7.53044 13 7V3H6ZM15 7H18.584L15 3.41602V7Z" fill="#E4F2F2"/>
</svg>
