<svg width="24" height="24" viewBox="0 0 24 24" fill="none" xmlns="http://www.w3.org/2000/svg">
<path d="M12 11C12.5523 11 13 11.4477 13 12V15.5859L14.293 14.293C14.6835 13.9024 15.3165 13.9024 15.707 14.293C16.0976 14.6835 16.0976 15.3165 15.707 15.707L12.707 18.707C12.6592 18.7548 12.6065 18.7976 12.5498 18.835C12.5121 18.8599 12.4727 18.8811 12.4326 18.9004C12.3874 18.9222 12.3407 18.9412 12.292 18.9561C12.2717 18.9622 12.251 18.9668 12.2305 18.9717C12.2191 18.9744 12.2078 18.9772 12.1963 18.9795C12.1859 18.9816 12.1754 18.9826 12.165 18.9844C12.1112 18.9933 12.0563 19 12 19C11.9433 19 11.8881 18.9934 11.834 18.9844C11.8236 18.9826 11.8131 18.9816 11.8027 18.9795C11.7912 18.9772 11.7799 18.9744 11.7686 18.9717C11.748 18.9668 11.7273 18.9623 11.707 18.9561C11.6584 18.9412 11.6116 18.9222 11.5664 18.9004C11.5266 18.8812 11.4877 18.8597 11.4502 18.835C11.3935 18.7976 11.3408 18.7548 11.293 18.707L8.29297 15.707C7.90245 15.3165 7.90244 14.6835 8.29297 14.293C8.68349 13.9024 9.31651 13.9024 9.70703 14.293L11 15.5859V12C11 11.4477 11.4477 11 12 11Z" fill="#E4F2F2"/>
<path fill-rule="evenodd" clip-rule="evenodd" d="M14 1C14.4479 0.99949 14.8919 1.08735 15.3057 1.25879C15.7193 1.43023 16.0949 1.68198 16.4111 1.99903L19.9971 5.58496L20.1133 5.70606C20.3773 5.99585 20.5896 6.32952 20.7402 6.69239C20.9122 7.10671 21.0005 7.55143 21 8V20C21 20.7957 20.6837 21.5585 20.1211 22.1211C19.5585 22.6837 18.7957 23 18 23H6C5.20435 23 4.44151 22.6837 3.87891 22.1211C3.3163 21.5585 3 20.7957 3 20V4C3 3.20435 3.3163 2.44152 3.87891 1.87891C4.44152 1.3163 5.20435 1 6 1H14ZM6 3C5.73478 3 5.4805 3.10544 5.29297 3.29297C5.10543 3.48051 5 3.73479 5 4V20C5 20.2652 5.10543 20.5195 5.29297 20.707C5.48051 20.8946 5.73478 21 6 21H18C18.2652 21 18.5195 20.8946 18.707 20.707C18.8946 20.5195 19 20.2652 19 20V9H15C14.4696 9 13.961 8.78914 13.5859 8.41406C13.2109 8.03899 13 7.53044 13 7V3H6ZM15 7H18.584L15 3.41602V7Z" fill="#E4F2F2"/>
</svg>
