<svg width="24" height="24" viewBox="0 0 24 24" fill="none" xmlns="http://www.w3.org/2000/svg">
<path fill-rule="evenodd" clip-rule="evenodd" d="M14 1C14.4485 0.999488 14.8934 1.08788 15.3076 1.25977C15.7213 1.43152 16.097 1.6836 16.4131 2.00098L20 5.58789L20.1162 5.70899C20.3795 5.9986 20.5911 6.33202 20.7412 6.69434C20.9127 7.10814 21.0005 7.5521 21 8V20C21 20.7957 20.6837 21.5585 20.1211 22.1211C19.5585 22.6836 18.7956 23 18 23H15.9414C15.3892 22.9999 14.9414 22.5522 14.9414 22C14.9414 21.4478 15.3892 21.0001 15.9414 21H18C18.2652 21 18.5195 20.8945 18.707 20.707C18.8946 20.5195 19 20.2652 19 20V9H15C14.4697 8.99994 13.961 8.78908 13.5859 8.41406C13.2109 8.039 13 7.53038 13 7V3H6C5.73487 3.00006 5.48045 3.10549 5.29297 3.29297C5.10551 3.4805 5 3.73484 5 4V7.51172L4.99512 7.61426C4.94391 8.11851 4.51777 8.51172 4 8.51172C3.48234 8.5116 3.05608 8.11845 3.00489 7.61426L3 7.51172V4C3 3.20441 3.31637 2.44151 3.87891 1.87891C4.44146 1.31636 5.20444 1.00006 6 1H14ZM15 7H18.584L15 3.41602V7Z" fill="#E4F2F2"/>
<path d="M3.35352 10.7637C3.76657 10.3974 4.39911 10.4348 4.76563 10.8477C5.13208 11.2606 5.0943 11.8931 4.68164 12.2598C4.17204 12.712 3.75942 13.2637 3.47071 13.8809C3.18203 14.498 3.02247 15.1686 3.00196 15.8496C2.98155 16.5305 3.10061 17.2086 3.35157 17.8418C3.60268 18.4753 3.98131 19.0511 4.46289 19.5332C4.94442 20.0152 5.51928 20.3938 6.15235 20.6455C6.78544 20.8972 7.46352 21.0168 8.14453 20.9971C8.82559 20.9773 9.4958 20.8183 10.1133 20.5303C10.7307 20.2422 11.2835 19.8314 11.7363 19.3223C12.1034 18.9098 12.7358 18.8723 13.1484 19.2393C13.5609 19.6062 13.5972 20.2387 13.2305 20.6514C12.5966 21.3641 11.8234 21.9395 10.959 22.3428C10.0945 22.746 9.1566 22.9684 8.20313 22.9961C7.24952 23.0237 6.29958 22.8564 5.41309 22.5039C4.52672 22.1514 3.722 21.6212 3.04785 20.9463C2.37363 20.2713 1.84376 19.466 1.49219 18.5791C1.14068 17.6923 0.974274 16.7426 1.00293 15.7891C1.03163 14.8356 1.25502 13.8973 1.65918 13.0332C2.06337 12.1693 2.64014 11.3968 3.35352 10.7637Z" fill="#E4F2F2"/>
<path fill-rule="evenodd" clip-rule="evenodd" d="M9.16016 9.09668C10.5953 9.33807 11.9211 10.0208 12.9502 11.0498C13.915 12.0146 14.5749 13.2394 14.8525 14.5713L14.9033 14.8389C15.1152 16.1057 14.0498 17 13 17H9C8.46967 16.9999 7.96095 16.7891 7.58594 16.4141C7.21099 16.039 7.00003 15.5303 7 15V11C7.00005 9.9508 7.89222 8.88512 9.16016 9.09668ZM9 15H12.8984C12.7026 14.0407 12.2293 13.158 11.5352 12.4639C10.8412 11.7701 9.959 11.2973 9 11.1016V15Z" fill="#E4F2F2"/>
</svg>
