<svg width="24" height="24" viewBox="0 0 24 24" fill="none" xmlns="http://www.w3.org/2000/svg">
<path fill-rule="evenodd" clip-rule="evenodd" d="M13.9995 1.00001C14.4474 0.999229 14.8912 1.08758 15.3051 1.25879C15.7193 1.4302 16.096 1.6817 16.4126 1.99903L19.9995 5.58594L20.1157 5.70704C20.3793 5.99705 20.5905 6.33145 20.7407 6.69434C20.912 7.10836 21.0002 7.55196 20.9995 8.00001V20C20.9995 20.7957 20.6832 21.5585 20.1206 22.1211C19.558 22.6836 18.795 23 17.9995 23H5.99947C5.45117 23.0001 4.91273 22.8496 4.4438 22.5654C3.975 22.2812 3.59293 21.8737 3.33931 21.3877C3.08408 20.8982 3.27379 20.2936 3.76314 20.0381C4.2527 19.7829 4.85633 19.9734 5.11177 20.4629C5.19629 20.6248 5.32472 20.7607 5.48091 20.8555C5.63707 20.95 5.81693 21 5.99947 21H17.9995C18.2646 21 18.519 20.8944 18.7065 20.707C18.894 20.5195 18.9995 20.2652 18.9995 20V9H14.9995C14.4692 8.99989 13.9604 8.78904 13.5854 8.41407C13.2105 8.03902 12.9995 7.53033 12.9995 7.00001V3.00001H5.99947C5.73441 3.00012 5.47987 3.10554 5.29244 3.29297C5.10504 3.48049 4.99947 3.73489 4.99947 4.00001V7.12696C4.99947 7.67924 4.55175 8.12696 3.99947 8.12696C3.44738 8.12672 2.99947 7.6791 2.99947 7.12696V4.00001C2.99947 3.20446 3.3159 2.4415 3.87837 1.87891C4.44088 1.31641 5.20398 1.00012 5.99947 1.00001H13.9995ZM14.9995 7.00001H18.5854L14.9995 3.41407V7.00001Z" fill="#E4F2F2"/>
<path d="M4.29244 10.293C4.68289 9.90252 5.31596 9.90267 5.7065 10.293C6.09702 10.6835 6.09702 11.3165 5.7065 11.707L4.41353 13H11.9995C12.5518 13 12.9995 13.4477 12.9995 14C12.9995 14.5523 12.5518 15 11.9995 15H4.41353L5.7065 16.293C6.09702 16.6835 6.09702 17.3165 5.7065 17.707C5.31596 18.0973 4.68289 18.0975 4.29244 17.707L1.29244 14.707C1.26164 14.6762 1.23439 14.643 1.20845 14.6094C1.19976 14.5981 1.19122 14.5868 1.18306 14.5752C1.13256 14.5037 1.09245 14.4273 1.06294 14.3477C1.06137 14.3434 1.05958 14.3392 1.05806 14.335L1.04146 14.2852C1.01997 14.2127 1.00713 14.1383 1.0024 14.0635C1.00173 14.0531 1.00176 14.0427 1.00142 14.0322C0.998679 13.9468 1.00581 13.8611 1.02486 13.7773C1.0277 13.7649 1.03129 13.7526 1.03462 13.7402C1.04518 13.7009 1.05824 13.6621 1.07369 13.624C1.07457 13.6218 1.07474 13.6194 1.07564 13.6172C1.07908 13.6089 1.08371 13.601 1.08736 13.5928C1.10188 13.5602 1.118 13.5282 1.13619 13.4971C1.1406 13.4895 1.14525 13.4821 1.14986 13.4746C1.18971 13.4103 1.23662 13.3488 1.29244 13.293L4.29244 10.293Z" fill="#E4F2F2"/>
</svg>
