<svg width="24" height="24" viewBox="0 0 24 24" fill="none" xmlns="http://www.w3.org/2000/svg">
<path fill-rule="evenodd" clip-rule="evenodd" d="M10.293 13.293C10.6835 12.9025 11.3165 12.9025 11.707 13.293C12.0975 13.6835 12.0975 14.3165 11.707 14.707L11.4141 15L11.707 15.293C12.0976 15.6835 12.0976 16.3165 11.707 16.707C11.3165 17.0976 10.6835 17.0976 10.293 16.707L10 16.4141L7.7041 18.709C7.89135 19.1005 8 19.5371 8 20C8 21.6569 6.65685 23 5 23C3.34315 23 2 21.6569 2 20C2 18.3432 3.34315 17 5 17C5.46245 17 5.89885 17.108 6.29004 17.2949L10.293 13.293ZM5 19C4.44772 19 4 19.4477 4 20C4 20.5523 4.44772 21 5 21C5.55228 21 6 20.5523 6 20C6 19.4477 5.55228 19 5 19Z" fill="#E4F2F2"/>
<path fill-rule="evenodd" clip-rule="evenodd" d="M14 1.00001C14.448 0.999229 14.8916 1.08748 15.3057 1.25879C15.7199 1.43024 16.0965 1.68159 16.4131 1.99903L20 5.58594L20.1162 5.70704C20.3799 5.99709 20.591 6.33139 20.7412 6.69434C20.9125 7.10836 21.0008 7.55196 21 8.00001V20C21 20.7957 20.6837 21.5585 20.1211 22.1211C19.5585 22.6837 18.7957 23 18 23H10.6504C10.0981 23 9.65039 22.5523 9.65039 22C9.65039 21.4477 10.0981 21 10.6504 21H18C18.2652 21 18.5195 20.8946 18.707 20.707C18.8946 20.5195 19 20.2652 19 20V9H15C14.4696 9 13.961 8.78914 13.5859 8.41407C13.2109 8.039 13 7.53044 13 7.00001V3.00001H6C5.73479 3.00001 5.4805 3.10544 5.29297 3.29297C5.10543 3.48051 5 3.73479 5 4.00001V14.0996C5 14.6519 4.55228 15.0996 4 15.0996C3.44772 15.0996 3 14.6519 3 14.0996V4.00001C3 3.20436 3.3163 2.44152 3.87891 1.87891C4.44152 1.3163 5.20435 1.00001 6 1.00001H14ZM15 7.00001H18.5859L15 3.41407V7.00001Z" fill="#E4F2F2"/>
</svg>
