<svg width="24" height="24" viewBox="0 0 24 24" fill="none" xmlns="http://www.w3.org/2000/svg">
<path d="M3.2771 6.77769C3.52699 6.77789 3.72974 6.98149 3.7299 7.2314C3.72957 7.48095 3.52709 7.684 3.2771 7.6842H2.79783L2.79874 6.77769H3.2771Z" fill="#E4F2F2"/>
<path d="M6.23581 6.77769C6.74084 6.77792 7.15048 7.18826 7.15054 7.69333C7.15025 8.19807 6.74083 8.60782 6.23581 8.60806H6.02402V6.77769H6.23581Z" fill="#E4F2F2"/>
<path d="M16 16C16.5523 16 17 16.4477 17 17C17 17.5523 16.5523 18 16 18H8C7.44772 18 7 17.5523 7 17C7.00001 16.4477 7.44772 16 8 16H16Z" fill="#E4F2F2"/>
<path d="M16 12C16.5523 12 17 12.4477 17 13C17 13.5523 16.5523 14 16 14H8C7.44772 14 7 13.5523 7 13C7.00001 12.4477 7.44772 12 8 12H16Z" fill="#E4F2F2"/>
<path fill-rule="evenodd" clip-rule="evenodd" d="M14 1C14.4479 0.99949 14.8919 1.08735 15.3057 1.25879C15.7193 1.43022 16.0949 1.68199 16.4111 1.99903L19.9971 5.58496L20.1133 5.70606C20.3773 5.99585 20.5896 6.32952 20.7402 6.69239C20.9122 7.1067 21.0005 7.55143 21 8V20C21 20.7956 20.6837 21.5585 20.1211 22.1211C19.5585 22.6837 18.7957 23 18 23H6C5.20435 23 4.44151 22.6837 3.87891 22.1211C3.3163 21.5585 3 20.7956 3 20V10.5342H2.4834C1.37903 10.534 0.483398 9.63861 0.483398 8.53418V6.59961C0.483531 5.4953 1.37911 4.59984 2.4834 4.59961H3V4C3 3.20436 3.3163 2.44151 3.87891 1.87891C4.44151 1.3163 5.20435 1 6 1H14ZM2.32768 5.8374C2.06865 5.83813 1.85755 6.04913 1.85754 6.30846V9.07729C1.85775 9.33598 2.06818 9.5477 2.32768 9.54834C2.58763 9.54822 2.79758 9.33624 2.79783 9.07729V8.62449H3.2771C4.04634 8.62429 4.66982 8.00054 4.67019 7.2314C4.67003 6.46205 4.04644 5.8376 3.2771 5.8374H2.32768ZM5.55387 5.8374C5.29508 5.83794 5.08373 6.04859 5.08373 6.30846V9.07911C5.08433 9.33835 5.29533 9.54781 5.55387 9.54834H6.23581C7.26014 9.54811 8.09053 8.71762 8.09082 7.69333C8.09077 6.66882 7.26028 5.83764 6.23581 5.8374H5.55387ZM8.94347 5.84471C8.93961 5.84422 8.93445 5.84288 8.92978 5.84288C8.67099 5.84369 8.46071 6.05378 8.46055 6.31302V9.07729C8.46078 9.33602 8.67064 9.5475 8.92978 9.54834L9.02472 9.53922C9.23905 9.49533 9.40064 9.30441 9.40084 9.07729V8.30589H10.3283C10.5874 8.30586 10.799 8.09457 10.7994 7.83483C10.7991 7.57537 10.5879 7.36471 10.3283 7.36469H9.40084V6.77769H10.7182C10.977 6.77715 11.187 6.56769 11.1874 6.30846C11.1874 6.04891 10.9773 5.83794 10.7182 5.8374H9.0019C8.98087 5.83752 8.96044 5.84225 8.94347 5.84471ZM15 7H18.584L15 3.41602V7ZM10.2686 4.59961C11.373 4.59961 12.2684 5.49516 12.2686 6.59961V8.53418C12.2686 9.63875 11.3731 10.5342 10.2686 10.5342H5V20C5 20.2652 5.10544 20.5195 5.29297 20.707C5.48051 20.8946 5.73478 21 6 21H18C18.2652 21 18.5195 20.8946 18.707 20.707C18.8946 20.5195 19 20.2652 19 20V9H15C14.4696 9 13.961 8.78914 13.5859 8.41406C13.2109 8.03899 13 7.53043 13 7V3H6C5.73479 3 5.4805 3.10544 5.29297 3.29297C5.10544 3.4805 5 3.73479 5 4V4.59961H10.2686Z" fill="#E4F2F2"/>
</svg>
