<svg width="24" height="24" viewBox="0 0 24 24" fill="none" xmlns="http://www.w3.org/2000/svg">
<path d="M12.0205 11.001C12.0381 11.0013 12.0557 11.0017 12.0732 11.0029C12.1225 11.0065 12.1707 11.014 12.2178 11.0244C12.2269 11.0265 12.236 11.029 12.2451 11.0313C12.3141 11.0487 12.3799 11.0736 12.4424 11.1045C12.4746 11.1204 12.5064 11.1376 12.5371 11.1572C12.5714 11.1791 12.6045 11.2027 12.6357 11.2285C12.6602 11.2487 12.6841 11.2701 12.707 11.293L15.707 14.293C16.0976 14.6835 16.0976 15.3165 15.707 15.707C15.3165 16.0976 14.6835 16.0976 14.293 15.707L13 14.4141V18C13 18.5523 12.5523 19 12 19C11.4477 19 11 18.5523 11 18V14.4141L9.70703 15.707C9.31651 16.0976 8.68349 16.0976 8.29297 15.707C7.90245 15.3165 7.90244 14.6835 8.29297 14.293L11.293 11.293C11.3548 11.2312 11.4248 11.1778 11.501 11.1338C11.5154 11.1255 11.5302 11.1179 11.5449 11.1104C11.6073 11.0784 11.6731 11.0526 11.7422 11.0342C11.7588 11.0298 11.7753 11.025 11.792 11.0215C11.803 11.0192 11.8141 11.0176 11.8252 11.0156C11.8427 11.0125 11.8603 11.01 11.8779 11.0078C11.8957 11.0057 11.9136 11.0042 11.9316 11.0029C11.9476 11.0018 11.9635 11.0013 11.9795 11.001C11.9863 11.0008 11.9931 11 12 11C12.0069 11 12.0137 11.0008 12.0205 11.001Z" fill="#E4F2F2"/>
<path fill-rule="evenodd" clip-rule="evenodd" d="M14 1C14.4479 0.99949 14.8919 1.08735 15.3057 1.25879C15.7193 1.43023 16.0949 1.68198 16.4111 1.99903L19.9971 5.58496L20.1133 5.70606C20.3773 5.99585 20.5896 6.32952 20.7402 6.69239C20.9122 7.10671 21.0005 7.55143 21 8V20C21 20.7957 20.6837 21.5585 20.1211 22.1211C19.5585 22.6837 18.7957 23 18 23H6C5.20435 23 4.44151 22.6837 3.87891 22.1211C3.3163 21.5585 3 20.7957 3 20V4C3 3.20435 3.3163 2.44152 3.87891 1.87891C4.44152 1.3163 5.20435 1 6 1H14ZM6 3C5.73478 3 5.4805 3.10544 5.29297 3.29297C5.10543 3.48051 5 3.73479 5 4V20C5 20.2652 5.10543 20.5195 5.29297 20.707C5.48051 20.8946 5.73478 21 6 21H18C18.2652 21 18.5195 20.8946 18.707 20.707C18.8946 20.5195 19 20.2652 19 20V9H15C14.4696 9 13.961 8.78914 13.5859 8.41406C13.2109 8.03899 13 7.53044 13 7V3H6ZM15 7H18.584L15 3.41602V7Z" fill="#E4F2F2"/>
</svg>
