<svg width="24" height="24" viewBox="0 0 24 24" fill="none" xmlns="http://www.w3.org/2000/svg">
<path d="M4.29295 15.293C4.68348 14.9025 5.31651 14.9025 5.70702 15.293C6.09749 15.6835 6.09749 16.3165 5.70702 16.707L3.41405 19L5.70702 21.293C6.09749 21.6835 6.09749 22.3165 5.70702 22.707C5.3165 23.0975 4.68348 23.0975 4.29295 22.707L1.29295 19.707C0.90243 19.3165 0.90243 18.6835 1.29295 18.293L4.29295 15.293Z" fill="#E4F2F2"/>
<path d="M8.29295 15.293C8.68348 14.9025 9.31651 14.9025 9.70702 15.293L12.707 18.293C13.0975 18.6835 13.0975 19.3165 12.707 19.707L9.70702 22.707C9.3165 23.0975 8.68348 23.0975 8.29295 22.707C7.90243 22.3165 7.90243 21.6835 8.29295 21.293L10.5859 19L8.29295 16.707C7.90243 16.3165 7.90243 15.6835 8.29295 15.293Z" fill="#E4F2F2"/>
<path fill-rule="evenodd" clip-rule="evenodd" d="M14.04 1.00098C14.4744 1.00532 14.904 1.09259 15.3056 1.25879C15.7199 1.43023 16.0965 1.68161 16.4131 1.99902L20 5.58594L20.1162 5.70703C20.3798 5.99707 20.591 6.3314 20.7412 6.69434C20.9125 7.10835 21.0008 7.55196 21 8V20C21 20.7956 20.6837 21.5585 20.1211 22.1211C19.5585 22.6837 18.7956 23 18 23H14.6504C14.0981 23 13.6504 22.5523 13.6504 22C13.6504 21.4477 14.0981 21 14.6504 21H18C18.2652 21 18.5195 20.8946 18.707 20.707C18.8945 20.5195 19 20.2652 19 20V9H15C14.4696 9 13.961 8.78911 13.5859 8.41406C13.2109 8.03899 13 7.53043 13 7V3H5.99999C5.73479 3 5.48049 3.10546 5.29295 3.29297C5.10542 3.4805 4.99999 3.73479 4.99999 4V12.1504C4.99978 12.7025 4.55211 13.1503 3.99999 13.1504C3.44783 13.1504 3.00019 12.7025 2.99999 12.1504V4C2.99999 3.20435 3.31628 2.44151 3.87889 1.87891C4.4415 1.31632 5.20436 1 5.99999 1H14L14.04 1.00098ZM15 7H18.5859L15 3.41406V7Z" fill="#E4F2F2"/>
</svg>
