<svg width="24" height="24" viewBox="0 0 24 24" fill="none" xmlns="http://www.w3.org/2000/svg">
<path fill-rule="evenodd" clip-rule="evenodd" d="M14 1.00001C14.448 0.999229 14.8916 1.08748 15.3057 1.25879C15.7199 1.43024 16.0965 1.68159 16.4131 1.99903L20 5.58594L20.1162 5.70704C20.3799 5.99709 20.591 6.33139 20.7412 6.69434C20.9125 7.10836 21.0008 7.55196 21 8.00001V20C21 20.7957 20.6837 21.5585 20.1211 22.1211C19.5585 22.6837 18.7956 23 18 23H6C5.20435 23 4.44151 22.6837 3.87891 22.1211C3.3163 21.5585 3 20.7957 3 20V17C3 16.2044 3.3163 15.4415 3.87891 14.8789C4.44151 14.3163 5.20435 14 6 14H10.5859L9.29297 12.707C8.90245 12.3165 8.90245 11.6835 9.29297 11.293C9.68349 10.9025 10.3165 10.9025 10.707 11.293L13.707 14.293C13.7548 14.3408 13.7976 14.3935 13.835 14.4502C13.8597 14.4877 13.8812 14.5266 13.9004 14.5664C13.9222 14.6116 13.9412 14.6584 13.9561 14.707C13.9623 14.7273 13.9668 14.748 13.9717 14.7686C13.9893 14.8429 14 14.9202 14 15C14 15.0563 13.9933 15.1112 13.9844 15.165C13.9772 15.2078 13.9688 15.2503 13.9561 15.292C13.9412 15.3407 13.9222 15.3874 13.9004 15.4326C13.8936 15.4468 13.8864 15.4607 13.8789 15.4746C13.851 15.5262 13.8184 15.5745 13.7822 15.6201C13.7586 15.6498 13.7345 15.6796 13.707 15.707L10.707 18.707C10.3165 19.0976 9.68349 19.0976 9.29297 18.707C8.90245 18.3165 8.90245 17.6835 9.29297 17.293L10.5859 16H6C5.73479 16 5.4805 16.1054 5.29297 16.293C5.10543 16.4805 5 16.7348 5 17V20C5 20.2652 5.10544 20.5195 5.29297 20.707C5.48051 20.8946 5.73478 21 6 21H18C18.2652 21 18.5195 20.8946 18.707 20.707C18.8946 20.5195 19 20.2652 19 20V9H15C14.4696 9 13.961 8.78914 13.5859 8.41407C13.2109 8.039 13 7.53044 13 7.00001V3.00001H6C5.73479 3.00001 5.4805 3.10544 5.29297 3.29297C5.10543 3.48051 5 3.73479 5 4.00001V11C5 11.5523 4.55228 12 4 12C3.44772 12 3 11.5523 3 11V4.00001C3 3.20436 3.3163 2.44152 3.87891 1.87891C4.44152 1.3163 5.20435 1.00001 6 1.00001H14ZM15 7.00001H18.5859L15 3.41407V7.00001Z" fill="#E4F2F2"/>
</svg>
