<svg width="24" height="24" viewBox="0 0 24 24" fill="none" xmlns="http://www.w3.org/2000/svg">
<path fill-rule="evenodd" clip-rule="evenodd" d="M11.8799 11.001C12.7078 11.0015 13.5018 11.3313 14.0869 11.917C14.6721 12.5028 15.0004 13.297 15 14.125C14.9996 14.953 14.6707 15.7468 14.085 16.332L9.06643 21.3447C8.71017 21.7009 8.26974 21.9613 7.78616 22.1025L4.91897 22.9395C4.66093 23.0147 4.38737 23.0198 4.12698 22.9531C3.86659 22.8864 3.6286 22.7506 3.4385 22.5606C3.24843 22.3704 3.11265 22.1325 3.04593 21.8721C2.97928 21.6118 2.98344 21.3381 3.05862 21.0801L3.89456 18.2109L3.89554 18.21C4.03708 17.7266 4.29802 17.2866 4.65432 16.9307L9.67093 11.915C10.2567 11.3298 11.0519 11.0006 11.8799 11.001ZM11.8789 13.001C11.6185 13.0009 11.3668 13.0913 11.167 13.2549L11.085 13.3291L6.06741 18.3457C5.94931 18.4638 5.86177 18.6094 5.81448 18.7695L5.81546 18.7705L5.2344 20.7637L7.22561 20.1826C7.38692 20.1355 7.53357 20.0485 7.65237 19.9297L12.6709 14.917C12.8815 14.7066 12.9999 14.4217 13 14.124L12.9951 14.0127C12.9697 13.7559 12.8559 13.5142 12.6719 13.3301C12.4616 13.1197 12.1764 13.0012 11.8789 13.001Z" fill="#E4F2F2"/>
<path fill-rule="evenodd" clip-rule="evenodd" d="M14 1.00001C14.448 0.999229 14.8917 1.08752 15.3057 1.25879C15.7199 1.43022 16.0965 1.68163 16.4131 1.99903L20 5.58594L20.1162 5.70704C20.3799 5.99707 20.591 6.33141 20.7412 6.69434C20.9126 7.10836 21.0008 7.55196 21 8.00001V20C21 20.7957 20.6837 21.5585 20.1211 22.1211C19.5585 22.6837 18.7956 23 18 23H12.6592C12.107 22.9999 11.6592 22.5522 11.6592 22C11.6592 21.4478 12.107 21.0001 12.6592 21H18C18.2652 21 18.5195 20.8945 18.7071 20.707C18.8946 20.5195 19 20.2652 19 20V9H15C14.4697 8.99996 13.961 8.7891 13.586 8.41407C13.2109 8.039 13 7.5304 13 7.00001V3.00001H6.00003C5.73487 3.00005 5.4805 3.10548 5.293 3.29297C5.10551 3.4805 5.00003 3.73483 5.00003 4.00001V13.3398C5.00003 13.8921 4.55231 14.3398 4.00003 14.3398C3.44782 14.3398 3.00003 13.8921 3.00003 13.3398V4.00001C3.00003 3.2044 3.31638 2.44151 3.87893 1.87891C4.44151 1.31634 5.20444 1.00005 6.00003 1.00001H14ZM15 7.00001H18.586L15 3.41407V7.00001Z" fill="#E4F2F2"/>
</svg>
