<svg width="24" height="24" viewBox="0 0 24 24" fill="none" xmlns="http://www.w3.org/2000/svg">
<path d="M9.21875 11.875C9.56376 11.4437 10.1937 11.3737 10.625 11.7188C11.0563 12.0638 11.1263 12.6937 10.7812 13.125L9.28125 15L10.7812 16.875C11.1263 17.3063 11.0563 17.9362 10.625 18.2813C10.1937 18.6263 9.56376 18.5563 9.21875 18.125L7.21875 15.625C6.92658 15.2598 6.92658 14.7402 7.21875 14.375L9.21875 11.875Z" fill="#E4F2F2"/>
<path d="M13.375 11.7188C13.8063 11.3737 14.4362 11.4437 14.7812 11.875L16.7812 14.375C17.0734 14.7402 17.0734 15.2598 16.7812 15.625L14.7812 18.125C14.4362 18.5563 13.8063 18.6263 13.375 18.2813C12.9437 17.9362 12.8737 17.3063 13.2188 16.875L14.7188 15L13.2188 13.125C12.8737 12.6937 12.9437 12.0638 13.375 11.7188Z" fill="#E4F2F2"/>
<path fill-rule="evenodd" clip-rule="evenodd" d="M14 1C14.4479 0.99949 14.8919 1.08735 15.3057 1.25879C15.7193 1.43023 16.0949 1.68198 16.4111 1.99903L19.9971 5.58496L20.1133 5.70606C20.3773 5.99585 20.5896 6.32952 20.7402 6.69239C20.9122 7.10671 21.0005 7.55143 21 8V20C21 20.7957 20.6837 21.5585 20.1211 22.1211C19.5585 22.6837 18.7957 23 18 23H6C5.20435 23 4.44151 22.6837 3.87891 22.1211C3.3163 21.5585 3 20.7957 3 20V4C3 3.20435 3.3163 2.44152 3.87891 1.87891C4.44152 1.3163 5.20435 1 6 1H14ZM6 3C5.73478 3 5.4805 3.10544 5.29297 3.29297C5.10543 3.48051 5 3.73479 5 4V20C5 20.2652 5.10543 20.5195 5.29297 20.707C5.48051 20.8946 5.73478 21 6 21H18C18.2652 21 18.5195 20.8946 18.707 20.707C18.8946 20.5195 19 20.2652 19 20V9H15C14.4696 9 13.961 8.78914 13.5859 8.41406C13.2109 8.03899 13 7.53044 13 7V3H6ZM15 7H18.584L15 3.41602V7Z" fill="#E4F2F2"/>
</svg>
