<svg width="24" height="24" viewBox="0 0 24 24" fill="none" xmlns="http://www.w3.org/2000/svg">
<path fill-rule="evenodd" clip-rule="evenodd" d="M13.5684 15.0117C13.7119 15.0301 13.8526 15.0668 13.9863 15.1221L14.1816 15.2188L14.3633 15.3398C14.5353 15.4728 14.6793 15.6397 14.7871 15.8301C14.9283 16.0794 15.0007 16.3612 14.999 16.6475L15 21.3633C14.9967 21.6493 14.9187 21.9298 14.7744 22.1768C14.6301 22.4237 14.4242 22.6291 14.1768 22.7725C13.9293 22.9158 13.6483 22.9919 13.3623 22.9941C13.0764 22.9963 12.7945 22.9246 12.5449 22.7852C12.5406 22.7827 12.5365 22.7798 12.5322 22.7773L10.834 21.7949C10.5264 22.5037 9.82184 23 9 23H4C2.89543 23 2 22.1046 2 21V17C2 15.8954 2.89543 15 4 15H9C9.82152 15 10.5262 15.4958 10.834 16.2041L12.5215 15.2295C12.5228 15.2287 12.525 15.2274 12.5264 15.2266L12.5322 15.2227C12.7807 15.0772 13.0626 14.9997 13.3506 14.9981L13.5684 15.0117ZM4 21H9V17H4V21ZM11 18.419V19.5791L13 20.7373V17.2617L11 18.419Z" fill="#E4F2F2"/>
<path fill-rule="evenodd" clip-rule="evenodd" d="M14 1.00001C14.448 0.999229 14.8916 1.08748 15.3057 1.25879C15.7199 1.43024 16.0965 1.68159 16.4131 1.99903L20 5.58594L20.1162 5.70704C20.3799 5.99709 20.591 6.33139 20.7412 6.69434C20.9125 7.10836 21.0008 7.55196 21 8.00001V20C21 20.7957 20.6837 21.5585 20.1211 22.1211C19.5585 22.6837 18.7957 23 18 23C17.4477 23 17 22.5523 17 22C17 21.4477 17.4477 21 18 21C18.2652 21 18.5195 20.8946 18.707 20.707C18.8946 20.5195 19 20.2652 19 20V9H15C14.4696 9 13.961 8.78914 13.5859 8.41407C13.2109 8.039 13 7.53044 13 7.00001V3.00001H6C5.73479 3.00001 5.4805 3.10544 5.29297 3.29297C5.10543 3.48051 5 3.73479 5 4.00001V12C5 12.5523 4.55228 13 4 13C3.44772 13 3 12.5523 3 12V4.00001C3 3.20436 3.3163 2.44152 3.87891 1.87891C4.44152 1.3163 5.20435 1.00001 6 1.00001H14ZM15 7.00001H18.5859L15 3.41407V7.00001Z" fill="#E4F2F2"/>
</svg>
