<svg width="24" height="24" viewBox="0 0 24 24" fill="none" xmlns="http://www.w3.org/2000/svg">
<path fill-rule="evenodd" clip-rule="evenodd" d="M7.47168 12.1514C7.76478 11.9689 8.13152 11.9503 8.44141 12.1025L11.4414 13.5762C11.9369 13.8198 12.141 14.4194 11.8975 14.915C11.6539 15.4107 11.0543 15.6146 10.5586 15.3711L9 14.6055V20C9 21.6569 7.65685 23 6 23C4.34315 23 3 21.6569 3 20C3 18.3432 4.34315 17 6 17C6.351 17 6.68694 17.0631 7 17.1738V13L7.00781 12.8721C7.04586 12.5767 7.21512 12.3112 7.47168 12.1514ZM6 19C5.44772 19 5 19.4477 5 20C5 20.5523 5.44772 21 6 21C6.55228 21 7 20.5523 7 20C7 19.4477 6.55228 19 6 19Z" fill="#E4F2F2"/>
<path fill-rule="evenodd" clip-rule="evenodd" d="M14 1.00001C14.448 0.999229 14.8916 1.08748 15.3057 1.25879C15.7199 1.43024 16.0965 1.68159 16.4131 1.99903L20 5.58594L20.1162 5.70704C20.3799 5.99709 20.591 6.33139 20.7412 6.69434C20.9125 7.10836 21.0008 7.55196 21 8.00001V20C21 20.7957 20.6837 21.5585 20.1211 22.1211C19.5585 22.6837 18.7956 23 18 23H11.6504C11.0981 23 10.6504 22.5523 10.6504 22C10.6504 21.4477 11.0981 21 11.6504 21H18C18.2652 21 18.5195 20.8946 18.707 20.707C18.8946 20.5195 19 20.2652 19 20V9H15C14.4696 9 13.961 8.78914 13.5859 8.41407C13.2109 8.039 13 7.53044 13 7.00001V3.00001H6C5.73479 3.00001 5.4805 3.10544 5.29297 3.29297C5.10543 3.48051 5 3.73479 5 4.00001V14.3496C5 14.9019 4.55228 15.3496 4 15.3496C3.44772 15.3496 3 14.9019 3 14.3496V4.00001C3 3.20436 3.3163 2.44152 3.87891 1.87891C4.44152 1.3163 5.20435 1.00001 6 1.00001H14ZM15 7.00001H18.5859L15 3.41407V7.00001Z" fill="#E4F2F2"/>
</svg>
