<svg width="24" height="24" viewBox="0 0 24 24" fill="none" xmlns="http://www.w3.org/2000/svg">
<path fill-rule="evenodd" clip-rule="evenodd" d="M14 1.00001C14.448 0.999229 14.8916 1.08748 15.3057 1.25879C15.7199 1.43024 16.0965 1.68159 16.4131 1.99903L20 5.58594L20.1162 5.70704C20.3799 5.99709 20.591 6.33139 20.7412 6.69434C20.9125 7.10836 21.0008 7.55196 21 8.00001V14C21 14.5523 20.5523 15 20 15C19.4477 15 19 14.5523 19 14V9H15C14.4696 9 13.961 8.78914 13.5859 8.41407C13.2109 8.039 13 7.53044 13 7.00001V3.00001H6C5.73479 3.00001 5.4805 3.10544 5.29297 3.29297C5.10543 3.48051 5 3.73479 5 4.00001V20C5 20.2652 5.10544 20.5195 5.29297 20.707C5.48051 20.8946 5.73478 21 6 21H10.5C11.0523 21 11.5 21.4477 11.5 22C11.5 22.5523 11.0523 23 10.5 23H6C5.20435 23 4.44151 22.6837 3.87891 22.1211C3.3163 21.5585 3 20.7957 3 20V4.00001C3 3.20436 3.3163 2.44152 3.87891 1.87891C4.44152 1.3163 5.20435 1.00001 6 1.00001H14ZM15 7.00001H18.5859L15 3.41407V7.00001Z" fill="#E4F2F2"/>
<path d="M19.293 17.293C19.6835 16.9025 20.3165 16.9025 20.707 17.293C21.0976 17.6835 21.0976 18.3165 20.707 18.707L16.707 22.707C16.3165 23.0976 15.6835 23.0976 15.293 22.707L13.293 20.707C12.9024 20.3165 12.9024 19.6835 13.293 19.293C13.6835 18.9025 14.3165 18.9025 14.707 19.293L16 20.5859L19.293 17.293Z" fill="#E4F2F2"/>
</svg>
