<svg width="24" height="24" viewBox="0 0 24 24" fill="none" xmlns="http://www.w3.org/2000/svg">
<path fill-rule="evenodd" clip-rule="evenodd" d="M14 1C14.0349 1 14.0696 1.0014 14.1035 1.00488L14.2969 1.01465C14.9834 1.083 15.629 1.38675 16.1211 1.87891L20.1211 5.87891L20.3203 6.09863C20.7578 6.63237 20.9998 7.30383 21 8V20C21 20.7957 20.6837 21.5585 20.1211 22.1211C19.5585 22.6836 18.7956 23 18 23H13.8496C13.2976 22.9997 12.8496 22.5521 12.8496 22C12.8496 21.4479 13.2976 21.0003 13.8496 21H18C18.2652 21 18.5195 20.8945 18.707 20.707C18.8946 20.5195 19 20.2652 19 20V9H15C14.4696 8.99995 13.961 8.78909 13.5859 8.41406C13.2109 8.039 13 7.53039 13 7V3H5.99999C5.73484 3.00005 5.48045 3.10548 5.29296 3.29297C5.10548 3.4805 4.99999 3.73483 4.99999 4V10.5996C4.99999 11.1519 4.55227 11.5996 3.99999 11.5996C3.4478 11.5995 2.99999 11.1518 2.99999 10.5996V4C2.99999 3.2044 3.31635 2.44151 3.8789 1.87891C4.44146 1.31634 5.20441 1.00005 5.99999 1H14ZM15 7H18.4141L15 3.58594V7Z" fill="#E4F2F2"/>
<path fill-rule="evenodd" clip-rule="evenodd" d="M7.60741 13.9219C7.81921 13.412 8.40503 13.1692 8.91503 13.3809C9.42468 13.5925 9.66616 14.1777 9.45507 14.6875L9.40624 14.8047C9.7042 15.0294 9.96949 15.2949 10.1943 15.5928L10.3115 15.5449C10.8214 15.3333 11.4072 15.5752 11.6191 16.085C11.831 16.5949 11.5889 17.1806 11.0791 17.3926L10.96 17.4414C10.9855 17.624 11 17.8104 11 18C11 18.1896 10.9855 18.376 10.96 18.5586L11.0791 18.6084C11.5887 18.8204 11.8309 19.4052 11.6191 19.915C11.4072 20.4248 10.8214 20.6666 10.3115 20.4551L10.1943 20.4062C9.96907 20.7048 9.70296 20.9702 9.40429 21.1953L9.45409 21.3145C9.66474 21.8247 9.4223 22.4092 8.9121 22.6201C8.40191 22.8309 7.81758 22.5881 7.60643 22.0781L7.55761 21.96C7.37538 21.9854 7.18922 22 6.99999 22C6.81036 22 6.62399 21.9855 6.4414 21.96L6.39257 22.0791C6.1809 22.5889 5.59593 22.8315 5.08593 22.6201C4.57607 22.4086 4.33387 21.8235 4.54491 21.3135L4.59374 21.1943C4.29543 20.9693 4.02964 20.7037 3.80468 20.4053L3.68847 20.4541C3.17843 20.6652 2.5933 20.4228 2.38183 19.9131C2.17067 19.4029 2.41277 18.8178 2.92284 18.6064L3.03905 18.5576C3.01363 18.3754 2.99999 18.1892 2.99999 18C2.99999 17.8104 3.01354 17.624 3.03905 17.4414L2.92089 17.3926C2.41107 17.1809 2.16854 16.5959 2.37987 16.0859C2.59128 15.576 3.17648 15.3339 3.68651 15.5449L3.80468 15.5938C4.02966 15.2954 4.29545 15.0297 4.59374 14.8047L4.54491 14.6875C4.33392 14.1777 4.57629 13.5925 5.08593 13.3809C5.59579 13.1696 6.18081 13.4122 6.39257 13.9219L6.44042 14.0391C6.62328 14.0135 6.81007 14 6.99999 14C7.18951 14 7.37609 14.0136 7.55858 14.0391L7.60741 13.9219ZM6.99999 16C5.89551 16.0001 4.99999 16.8955 4.99999 18C4.99999 19.1045 5.89551 19.9999 6.99999 20C8.10456 20 8.99999 19.1046 8.99999 18C8.99999 16.8954 8.10456 16 6.99999 16Z" fill="#E4F2F2"/>
</svg>
