<svg width="24" height="24" viewBox="0 0 24 24" fill="none" xmlns="http://www.w3.org/2000/svg">
<path fill-rule="evenodd" clip-rule="evenodd" d="M4.23435 14.1533C4.65142 14.017 5.09218 13.9664 5.52927 14.0049C5.96639 14.0434 6.39144 14.1698 6.77829 14.377C6.85603 14.4186 6.931 14.4651 7.00486 14.5127C7.07736 14.4667 7.15134 14.4221 7.22751 14.3818C7.61388 14.1778 8.03821 14.0532 8.47361 14.0166C8.90899 13.98 9.34768 14.0313 9.76267 14.168C10.1777 14.3047 10.5612 14.5243 10.8896 14.8125C11.218 15.1007 11.4853 15.4521 11.6748 15.8457C11.8642 16.2394 11.9718 16.668 11.9922 17.1045C12.0124 17.5408 11.9449 17.9772 11.7929 18.3867C11.6424 18.7919 11.4108 19.1623 11.1152 19.4775L11.1162 19.4785L8.49021 22.335L8.48923 22.334C8.30476 22.5399 8.07988 22.7068 7.8281 22.8213C7.56841 22.9393 7.28618 23 7.00095 23C6.71543 23 6.43275 22.9395 6.17283 22.8213C5.92039 22.7065 5.69547 22.5396 5.51072 22.333L2.88376 19.4766L2.88474 19.4756C2.58806 19.1622 2.35551 18.7936 2.2031 18.3897C2.04823 17.979 1.9781 17.5401 1.99704 17.1016C2.01608 16.6632 2.12378 16.2326 2.31345 15.8369C2.50321 15.4413 2.77165 15.0881 3.10154 14.7988C3.43153 14.5095 3.81723 14.2897 4.23435 14.1533ZM5.35349 15.9971C5.18547 15.9823 5.01577 16.0013 4.85544 16.0537C4.69509 16.1062 4.54678 16.1915 4.4199 16.3027C4.29315 16.4139 4.1901 16.5501 4.11716 16.7022C4.04427 16.8543 4.00242 17.02 3.99509 17.1885C3.98784 17.357 4.01469 17.5258 4.07419 17.6836C4.13375 17.8415 4.22501 17.9856 4.34177 18.1074C4.34665 18.1125 4.35165 18.1179 4.35642 18.1231L6.98337 20.9805L7.00095 21L7.01853 20.9805L9.64451 18.125L9.65427 18.1143C9.76955 17.9923 9.8595 17.8478 9.91794 17.6904C9.97633 17.533 10.0019 17.365 9.99411 17.1973C9.98627 17.0295 9.94487 16.8643 9.87204 16.7129C9.79918 16.5617 9.69646 16.4262 9.57029 16.3154C9.44402 16.2047 9.29621 16.1209 9.13669 16.0684C8.97728 16.0159 8.80882 15.9958 8.64158 16.0098C8.47419 16.0238 8.31063 16.072 8.16208 16.1504C8.01364 16.2288 7.88231 16.3366 7.77634 16.4668C7.58577 16.7011 7.29906 16.8369 6.99704 16.8359C6.69479 16.8348 6.40866 16.6968 6.2197 16.4609C6.11417 16.3292 5.98275 16.2203 5.83396 16.1406C5.68518 16.061 5.52161 16.0119 5.35349 15.9971Z" fill="#E4F2F2"/>
<path fill-rule="evenodd" clip-rule="evenodd" d="M14 1.00001C14.448 0.999229 14.8916 1.0875 15.3056 1.25879C15.7199 1.43023 16.0965 1.68162 16.4131 1.99903L20 5.58594L20.1162 5.70704C20.3798 5.99708 20.591 6.3314 20.7412 6.69434C20.9125 7.10836 21.0007 7.55196 21 8.00001V20C21 20.7957 20.6837 21.5585 20.1211 22.1211C19.5585 22.6837 18.7956 23 18 23H13C12.4477 23 12 22.5523 12 22C12 21.4478 12.4477 21.0001 13 21H18C18.2652 21 18.5195 20.8945 18.707 20.707C18.8945 20.5195 19 20.2652 19 20V9H15C14.4696 8.99998 13.961 8.78912 13.5859 8.41407C13.2109 8.039 13 7.53042 13 7.00001V3.00001H5.99997C5.73479 3.00003 5.48046 3.10546 5.29294 3.29297C5.10544 3.4805 4.99998 3.73481 4.99997 4.00001V11C4.99997 11.5523 4.55226 12 3.99997 12C3.44774 12 2.99998 11.5523 2.99997 11V4.00001C2.99998 3.20438 3.3163 2.44151 3.87888 1.87891C4.44147 1.31633 5.20436 1.00003 5.99997 1.00001H14ZM15 7.00001H18.5859L15 3.41407V7.00001Z" fill="#E4F2F2"/>
</svg>
