<svg width="24" height="24" viewBox="0 0 24 24" fill="none" xmlns="http://www.w3.org/2000/svg">
<path fill-rule="evenodd" clip-rule="evenodd" d="M7.292 13.0147C7.54127 12.9798 7.79486 13.0083 8.0293 13.0967L8.12793 13.1377L8.22461 13.1865C8.41255 13.2902 8.57609 13.4332 8.7041 13.6055L8.76465 13.6934L8.81934 13.7861C8.938 14.0054 9.00031 14.2515 9 14.502V21.4971L8.9961 21.6045C8.97863 21.854 8.89901 22.0959 8.76367 22.3076C8.60893 22.5496 8.3879 22.7422 8.12696 22.8623C7.86595 22.9824 7.57553 23.0253 7.29102 22.9854C7.00667 22.9454 6.74019 22.8239 6.52246 22.6367L6.52051 22.6357L4.62793 21.0029H3.5C3.30276 21.0029 3.10698 20.9642 2.92481 20.8887C2.74281 20.8131 2.57769 20.702 2.43848 20.5625C2.29926 20.423 2.18848 20.2574 2.11328 20.0752C2.03812 19.8929 1.99962 19.6972 2 19.5V16.4961C1.99986 16.2995 2.03832 16.1046 2.11328 15.9229L2.17578 15.7891C2.24508 15.6591 2.33405 15.5402 2.43848 15.4356L2.54785 15.3359C2.66152 15.2426 2.78845 15.166 2.92481 15.1094L3.06446 15.0596C3.20541 15.0168 3.35217 14.9951 3.5 14.9951H4.62793L6.52149 13.3633L6.52246 13.3623C6.74036 13.1751 7.00749 13.0545 7.292 13.0147ZM5.9336 16.5098C5.57188 16.8216 5.11042 16.9939 4.63282 16.9951H4V19.0029H4.63086C5.10917 19.0037 5.57136 19.176 5.9336 19.4883L7 20.4072V15.5908L5.9336 16.5098Z" fill="#E4F2F2"/>
<path fill-rule="evenodd" clip-rule="evenodd" d="M14 1.00001C14.448 0.999229 14.8916 1.08748 15.3057 1.25879C15.7199 1.43024 16.0965 1.68159 16.4131 1.99903L20 5.58594L20.1162 5.70704C20.3799 5.99709 20.591 6.33139 20.7412 6.69434C20.9125 7.10836 21.0008 7.55196 21 8.00001V20C21 20.7957 20.6837 21.5585 20.1211 22.1211C19.5585 22.6837 18.7957 23 18 23H16.0498C15.4976 22.9999 15.0498 22.5522 15.0498 22C15.0498 21.4478 15.4976 21.0001 16.0498 21H18C18.2652 21 18.5195 20.8946 18.707 20.707C18.8946 20.5195 19 20.2652 19 20V9H15C14.4696 9 13.961 8.78914 13.5859 8.41407C13.2109 8.039 13 7.53044 13 7.00001V3.00001H6C5.73479 3.00001 5.48051 3.10544 5.29297 3.29297C5.10544 3.48051 5 3.73479 5 4.00001V11.5498C5 12.1021 4.55229 12.5498 4 12.5498C3.44772 12.5498 3 12.1021 3 11.5498V4.00001C3 3.20436 3.3163 2.44152 3.87891 1.87891C4.44152 1.3163 5.20436 1.00001 6 1.00001H14ZM15 7.00001H18.5859L15 3.41407V7.00001Z" fill="#E4F2F2"/>
<path d="M11.4004 14.2002C11.8422 13.869 12.4685 13.9586 12.7998 14.4004C13.5787 15.4389 14 16.7019 14 18C14 19.2982 13.5787 20.5611 12.7998 21.5996C12.4685 22.0414 11.8422 22.131 11.4004 21.7998C10.9586 21.4685 10.869 20.8422 11.2002 20.4004C11.7195 19.708 12 18.8655 12 18C12 17.1345 11.7195 16.292 11.2002 15.5996C10.869 15.1578 10.9586 14.5315 11.4004 14.2002Z" fill="#E4F2F2"/>
</svg>
