<svg width="24" height="24" viewBox="0 0 24 24" fill="none" xmlns="http://www.w3.org/2000/svg">
<path d="M8.23535 19.8262C8.33145 19.2824 8.85074 18.9197 9.39453 19.0156C9.9379 19.1119 10.3009 19.6303 10.2051 20.1738C10.0699 20.9396 9.7961 21.6975 9.60352 22.3027C9.43614 22.8288 8.87372 23.12 8.34766 22.9531C7.82153 22.7857 7.53014 22.2234 7.69727 21.6973C7.92462 20.9827 8.13057 20.4199 8.23535 19.8262Z" fill="#E4F2F2"/>
<path d="M14 12.1201C14.5523 12.1201 15 12.5679 15 13.1201C15 14.3066 15.0005 15.9387 14.8721 17.5928C14.7449 19.2306 14.486 20.9776 13.9287 22.3711C13.7236 22.8838 13.1416 23.1336 12.6289 22.9287C12.1162 22.7236 11.8664 22.1416 12.0713 21.6289C12.5138 20.5226 12.7551 19.0193 12.8779 17.4375C12.9995 15.8716 13 14.3136 13 13.1201C13 12.5679 13.4477 12.1201 14 12.1201Z" fill="#E4F2F2"/>
<path d="M17.8867 17.0049C18.4363 17.0583 18.8384 17.5471 18.7852 18.0967C18.7097 18.8732 18.3898 20.6191 18.2705 21.2158C18.1622 21.7574 17.6353 22.1093 17.0938 22.001C16.5523 21.8926 16.2015 21.3656 16.3096 20.8242C16.4303 20.2203 16.7304 18.5665 16.7949 17.9033C16.8485 17.3537 17.3371 16.9515 17.8867 17.0049Z" fill="#E4F2F2"/>
<path d="M5.39648 9.66796C5.57986 9.14718 6.151 8.87344 6.67188 9.05664C7.1928 9.2399 7.46635 9.81109 7.2832 10.332C7.09496 10.8672 6.99923 11.4307 7 11.998V12C7 15.0802 6.48984 18.1915 5.94824 19.8164C5.77348 20.3402 5.20744 20.6229 4.68359 20.4482C4.15988 20.2735 3.87715 19.7074 4.05176 19.1836C4.51009 17.8083 5 14.9193 5 12C4.99901 11.2059 5.13296 10.4171 5.39648 9.66796Z" fill="#E4F2F2"/>
<path d="M2.00977 15C2.56198 15 3.00966 15.4478 3.00977 16C3.00977 16.5523 2.56205 17 2.00977 17H2C1.44772 17 1 16.5523 1 16C1.00011 15.4478 1.44778 15 2 15H2.00977Z" fill="#E4F2F2"/>
<path d="M12 9C12.5521 9.00012 12.9999 9.44788 13 10C13 10.5522 12.5522 10.9999 12 11C11.735 11.0001 11.4804 11.1056 11.293 11.293C11.1056 11.4804 11.0001 11.7349 11 12C11 13.0698 10.8962 14.5989 10.7344 16.1064C10.6754 16.6554 10.1827 17.0528 9.63379 16.9941C9.08476 16.9352 8.68731 16.4426 8.74609 15.8936C8.90417 14.4214 9 12.9701 9 12C9.00005 11.2045 9.31642 10.4415 9.87891 9.8789C10.4414 9.31648 11.2045 9.00006 12 9Z" fill="#E4F2F2"/>
<path d="M21.6006 9.01953C22.1417 8.90981 22.6702 9.25985 22.7803 9.80078C22.8303 10.0472 22.8605 10.4521 22.8818 10.8789C22.9044 11.3324 22.9194 11.8899 22.9238 12.4853C22.9326 13.6693 22.9 15.0483 22.7949 16.0996C22.7399 16.6491 22.2497 17.0501 21.7002 16.9951C21.1508 16.94 20.7497 16.4498 20.8047 15.9004C20.8995 14.952 20.9323 13.6541 20.9238 12.5C20.9196 11.9264 20.9057 11.398 20.8848 10.9785C20.8626 10.5333 20.8349 10.2761 20.8193 10.1992C20.7098 9.6582 21.0597 9.12951 21.6006 9.01953Z" fill="#E4F2F2"/>
<path d="M12.001 4.99609C13.23 4.99629 14.4378 5.31977 15.502 5.93457C16.5661 6.54941 17.4494 7.43442 18.0635 8.49902C18.6774 9.56354 19.0006 10.7711 19 12V14C19 14.5523 18.5523 15 18 15C17.4477 15 17 14.5523 17 14V11.999C17.0005 11.1212 16.7696 10.2584 16.3311 9.49804C15.8925 8.73768 15.261 8.10613 14.501 7.66699C13.7409 7.22792 12.8787 6.99626 12.001 6.99609C11.1231 6.99595 10.2603 7.22708 9.5 7.66601C9.02171 7.94214 8.40993 7.77809 8.13379 7.2998C7.85795 6.82156 8.02183 6.20966 8.5 5.93359C9.56436 5.31914 10.772 4.99592 12.001 4.99609Z" fill="#E4F2F2"/>
<path d="M8.52148 1.56445C10.7117 0.834398 13.0766 0.811639 15.2803 1.5C17.4838 2.18839 19.4146 3.55357 20.7998 5.40039C21.131 5.84218 21.0413 6.46845 20.5996 6.7998C20.1578 7.13103 19.5315 7.04138 19.2002 6.59961C18.0668 5.0886 16.4865 3.97236 14.6836 3.40918C12.8807 2.84601 10.9462 2.8647 9.1543 3.46191C7.36249 4.05918 5.80368 5.20517 4.69922 6.7373C3.59477 8.26964 3.00004 10.1111 3 12C3 12.5523 2.55228 13 2 13C1.44772 13 1 12.5523 1 12C1.00004 9.69144 1.72637 7.44118 3.07617 5.56836C4.42609 3.6955 6.3313 2.29451 8.52148 1.56445Z" fill="#E4F2F2"/>
</svg>
