<svg width="24" height="24" viewBox="0 0 24 24" fill="none" xmlns="http://www.w3.org/2000/svg">
<path fill-rule="evenodd" clip-rule="evenodd" d="M1.29347 1.29296C1.68401 0.902636 2.31708 0.902504 2.70753 1.29296L9.32472 7.91015C9.33293 7.9183 9.34212 7.92607 9.35011 7.93456C9.35185 7.93641 9.35327 7.93856 9.355 7.94042L22.7075 21.293C23.0977 21.6834 23.0978 22.3166 22.7075 22.707C22.3171 23.0975 21.684 23.0973 21.2935 22.707L17.2593 18.6728C17.135 18.7099 17.0102 18.7446 16.8843 18.7754L16.7671 19.4922V19.4951C16.6497 20.197 16.2856 20.8341 15.7417 21.293C15.1987 21.7509 14.5106 22.0007 13.8003 21.999L9.5005 22C9.1075 22 8.75115 21.7693 8.58937 21.4111C8.42775 21.053 8.49066 20.6336 8.7505 20.3389C9.43005 19.5683 9.84876 18.6089 9.95949 17.5967C9.70132 17.4496 9.44879 17.2936 9.20461 17.1269C8.62687 16.7327 8.08362 16.2779 7.59523 15.7725C7.38755 16.3462 7.09804 16.881 6.71925 17.3603C5.8335 18.4812 4.52948 19.2164 2.89308 19.4863C2.50719 19.5499 2.11942 19.3829 1.90089 19.0586C1.23168 18.0647 0.971463 16.5745 1.00246 15.2266C1.02746 14.1416 1.24599 12.945 1.76418 11.9971C1.2515 11.0501 1.03426 9.85612 1.00929 8.77343C0.97832 7.42682 1.23604 5.93836 1.89796 4.94531L1.98781 4.83007C2.21359 4.57979 2.55402 4.45777 2.89308 4.51367C2.97829 4.52772 3.06262 4.54299 3.14601 4.55956L1.29347 2.70702C0.902948 2.3165 0.902948 1.68349 1.29347 1.29296ZM11.8462 18.4492C11.7364 18.9847 11.5671 19.5056 11.3364 20H13.8042C14.0412 20.0008 14.2714 19.9174 14.4527 19.7646C14.6331 19.6123 14.7538 19.4007 14.7935 19.168L14.8218 18.9941C13.8275 18.9735 12.8177 18.7825 11.8462 18.4492ZM3.28566 6.65527C3.10366 7.19759 2.99097 7.92777 3.00929 8.72656C3.0359 9.88275 3.32515 10.8677 3.7339 11.3662C4.03665 11.7359 4.0353 12.2683 3.73097 12.6367C3.31913 13.1349 3.02804 14.1187 3.00148 15.2734C2.98315 16.0727 3.09763 16.803 3.28175 17.3447C4.11656 17.0876 4.726 16.6565 5.14992 16.1201C5.6675 15.4651 5.96694 14.5789 5.99464 13.4941C5.80695 13.0993 5.65128 12.6884 5.53566 12.2617C5.48919 12.0902 5.48904 11.9088 5.53566 11.7373C5.65157 11.3111 5.80672 10.9002 5.99464 10.5059C5.96696 9.42104 5.66748 8.53495 5.14992 7.87988C4.72662 7.34424 4.11861 6.91251 3.28566 6.65527ZM8.64308 10.0566C8.14855 10.6571 7.77173 11.3121 7.54445 12C7.98798 13.3474 8.99985 14.5668 10.3316 15.4756C11.5092 16.2791 12.8806 16.7984 14.2036 16.9512C13.8459 16.2601 13.5643 15.5313 13.3628 14.7764L8.64308 10.0566Z" fill="#E4F2F2"/>
<path d="M13.8003 1.99999C14.5106 1.9983 15.1987 2.24904 15.7417 2.70702C16.2176 3.10855 16.5559 3.64664 16.7114 4.24511L16.7671 4.50488V4.50781L16.8843 5.2207C19.9908 5.97475 22.1075 8.58049 22.9653 11.7383C23.0118 11.9096 23.0118 12.0904 22.9653 12.2617C22.6288 13.5034 22.1044 14.6505 21.4019 15.6377C21.0817 16.0875 20.4573 16.193 20.0073 15.873C19.5575 15.5528 19.4529 14.9284 19.773 14.4785C20.2778 13.7692 20.6781 12.9311 20.9585 11.998C20.2093 9.5099 18.6094 7.72249 16.4419 7.17577C16.0142 7.82513 15.6739 8.52897 15.4312 9.26952C15.2593 9.7941 14.6941 10.0797 14.1694 9.9082C13.6446 9.73621 13.3578 9.1713 13.5298 8.64648C13.71 8.09655 13.9337 7.56295 14.1987 7.05077C13.5881 7.12021 12.9868 7.26061 12.4077 7.47167C11.889 7.6606 11.3147 7.39266 11.1255 6.87402C10.9368 6.35529 11.2045 5.78185 11.7232 5.59277C12.7178 5.23024 13.7643 5.03278 14.8218 5.00488L14.7935 4.83202C14.7537 4.59972 14.6328 4.38743 14.4527 4.23534C14.2714 4.08254 14.0412 3.99923 13.8042 3.99999H8.53078C7.97852 3.99999 7.53082 3.55224 7.53078 2.99999C7.53078 2.44771 7.97849 1.99999 8.53078 1.99999H13.8003Z" fill="#E4F2F2"/>
<path d="M18.0005 11C18.5526 11.0002 19.0005 11.4479 19.0005 12V12.5C19.0005 13.0521 18.5525 13.4997 18.0005 13.5C17.4482 13.5 17.0005 13.0522 17.0005 12.5V12C17.0005 11.4477 17.4482 11 18.0005 11Z" fill="#E4F2F2"/>
</svg>
