<svg width="24" height="24" viewBox="0 0 24 24" fill="none" xmlns="http://www.w3.org/2000/svg">
<path fill-rule="evenodd" clip-rule="evenodd" d="M14.293 6.98585C16.9786 7.14383 19.8234 8.4098 22.707 11.2935C23.0973 11.684 23.0975 12.3171 22.707 12.7075C19.8235 15.591 16.9786 16.8562 14.293 17.0142C11.6232 17.1712 9.25595 16.2251 7.32714 14.9614C6.58953 14.4782 5.90898 13.9426 5.29004 13.395C4.94508 13.7634 4.63022 14.1235 4.35058 14.4634C3.86385 15.055 3.48562 15.5746 3.23144 15.9439C3.10457 16.1281 3.00931 16.2751 2.94629 16.3735C2.91483 16.4227 2.89078 16.46 2.87597 16.4839C2.86879 16.4955 2.86349 16.5041 2.86035 16.5093L2.85742 16.5151C2.57313 16.9883 1.95874 17.1419 1.48535 16.8579C1.01186 16.5738 0.858648 15.9594 1.14257 15.4858L2 16.0005C1.18277 15.5102 1.14413 15.4874 1.14257 15.4858L1.14355 15.4839C1.14407 15.483 1.14475 15.4813 1.1455 15.48C1.14713 15.4773 1.14968 15.4736 1.15234 15.4692C1.15788 15.4602 1.16592 15.4471 1.17578 15.4312C1.19566 15.3991 1.22468 15.3533 1.26172 15.2954C1.33586 15.1796 1.44442 15.0142 1.58496 14.8101C1.86587 14.402 2.27703 13.8354 2.80566 13.1929C3.11439 12.8177 3.46705 12.4149 3.85742 11.9995C3.46729 11.5843 3.11423 11.1822 2.80566 10.8071C2.27701 10.1646 1.86587 9.59798 1.58496 9.18995C1.44441 8.9858 1.33588 8.82046 1.26172 8.7046C1.22474 8.64683 1.19565 8.60094 1.17578 8.56885C1.16604 8.55312 1.15787 8.5408 1.15234 8.53175C1.14959 8.52724 1.14719 8.52282 1.1455 8.52003C1.14483 8.51891 1.14405 8.5179 1.14355 8.5171L1.14257 8.51514C0.858511 8.0417 1.0121 7.42733 1.48535 7.14307C1.95881 6.85899 2.5722 7.01253 2.85644 7.48585C2.85703 7.4867 2.85884 7.48826 2.86035 7.49073C2.86348 7.49586 2.86876 7.50446 2.87597 7.51612C2.8908 7.54005 2.91487 7.57739 2.94629 7.62647C3.0093 7.72492 3.10459 7.87189 3.23144 8.05616C3.48564 8.42539 3.86383 8.94503 4.35058 9.53663C4.62998 9.87619 4.94445 10.236 5.28906 10.604C5.90796 10.0565 6.5896 9.52181 7.32714 9.03858C9.25594 7.77493 11.6233 6.82886 14.293 6.98585ZM14.1758 8.98292C12.0644 8.85873 10.119 9.60019 8.42285 10.7114C7.81907 11.107 7.25358 11.5456 6.73144 11.9995C7.25373 12.4537 7.81885 12.8928 8.42285 13.2886C10.1189 14.3998 12.0644 15.1413 14.1758 15.0171C16.07 14.9056 18.2155 14.0884 20.543 12.0005C18.2154 9.91224 16.0701 9.09438 14.1758 8.98292Z" fill="#E4F2F2"/>
</svg>
