<svg width="24" height="24" viewBox="0 0 24 24" fill="none" xmlns="http://www.w3.org/2000/svg">
<path fill-rule="evenodd" clip-rule="evenodd" d="M7.08398 5.0127C7.33433 4.98183 7.5886 5.00687 7.82812 5.08594L7.94629 5.12989L8.06055 5.18262C8.28574 5.29602 8.4835 5.45753 8.63867 5.65625L8.71191 5.75879L8.77832 5.86622C8.92314 6.12207 9.00001 6.41162 9 6.70704V10C8.99999 10.5522 8.55222 10.9999 8 11C7.44778 10.9999 7.00001 10.5522 7 10V7.41407L4.36328 10.0508C3.49009 10.924 2.99913 12.1089 2.99902 13.3438C2.99903 14.5788 3.49 15.7634 4.36328 16.6367C5.23658 17.51 6.42122 18.0009 7.65625 18.001C8.89116 18.0009 10.076 17.5099 10.9492 16.6367L16.2949 11.29C16.1081 10.8989 16 10.4624 16 10C16.0001 8.34321 17.3432 7 19 7C19.4624 7 19.8989 7.10805 20.29 7.29493L21.293 6.29297C21.6835 5.90257 22.3165 5.90255 22.707 6.29297C23.0975 6.68347 23.0975 7.3165 22.707 7.70704L21.7041 8.70899C21.8914 9.10047 22 9.53709 22 10C22 11.6569 20.6569 13 19 13C18.5371 13 18.1005 12.8914 17.709 12.7041L12.3633 18.0508C11.115 19.2991 9.42159 20.0009 7.65625 20.001C5.89079 20.0009 4.19759 19.2992 2.94922 18.0508C1.70086 16.8024 0.999029 15.1092 0.999023 13.3438C0.99913 11.5784 1.70096 9.88502 2.94922 8.63672L6.08594 5.5L6.17773 5.41407C6.40042 5.222 6.67015 5.09089 6.95996 5.03321L7.08398 5.0127ZM19 9C18.4478 9 18.0001 9.44778 18 10C18 10.5523 18.4477 11 19 11C19.5523 11 20 10.5523 20 10C19.9999 9.44778 19.5522 9 19 9Z" fill="#E4F2F2"/>
</svg>
