<svg width="24" height="24" viewBox="0 0 24 24" fill="none" xmlns="http://www.w3.org/2000/svg">
<path d="M18.0005 11C18.5525 11.0003 19.0005 11.4479 19.0005 12V12.5C19.0005 13.0521 18.5525 13.4997 18.0005 13.5C17.4482 13.5 17.0005 13.0523 17.0005 12.5V12C17.0005 11.4477 17.4482 11 18.0005 11Z" fill="#E4F2F2"/>
<path fill-rule="evenodd" clip-rule="evenodd" d="M13.8003 2.00098C14.5106 1.99929 15.1986 2.24905 15.7417 2.70703C16.2176 3.10855 16.5558 3.64664 16.7114 4.24512L16.7671 4.50488V4.50781L16.8843 5.2207C19.9908 5.97475 22.1074 8.58049 22.9653 11.7383C23.0117 11.9095 23.0117 12.0905 22.9653 12.2617C22.1072 15.4292 19.9898 18.0264 16.8843 18.7783L16.7671 19.4912V19.4941C16.6497 20.1959 16.2855 20.8341 15.7417 21.293C15.1987 21.7508 14.5105 22.0007 13.8003 21.999L9.50047 22C9.10748 22 8.75112 21.7693 8.58934 21.4111C8.42774 21.0529 8.49051 20.6326 8.75047 20.3379C9.42973 19.5675 9.84867 18.6086 9.95946 17.5967C9.7013 17.4495 9.44876 17.2936 9.20458 17.127C8.62683 16.7327 8.0836 16.278 7.5952 15.7725C7.38753 16.3463 7.09801 16.881 6.71922 17.3604C5.83348 18.4812 4.52945 19.2164 2.89305 19.4863C2.50714 19.5499 2.11939 19.383 1.90087 19.0586C1.23164 18.0647 0.971424 16.5746 1.00243 15.2266C1.02744 14.1416 1.24596 12.945 1.76415 11.9971C1.25146 11.0501 1.03422 9.85615 1.00926 8.77344C0.978291 7.42682 1.23601 5.93837 1.89794 4.94531L1.98778 4.83008C2.21356 4.57982 2.55401 4.45778 2.89305 4.51367C4.52945 4.78363 5.83348 5.51884 6.71922 6.63965C7.09846 7.11958 7.38846 7.65493 7.59618 8.22949C8.08393 7.7248 8.62685 7.27101 9.2036 6.87695C9.23557 6.85511 9.26805 6.83402 9.30028 6.8125C8.93969 5.81006 8.179 4.64686 7.27294 3.68652C6.99898 3.39618 6.92441 2.97006 7.08251 2.60352C7.24075 2.23733 7.60152 2 8.00047 2L13.8003 2.00098ZM11.8462 18.4502C11.7364 18.9854 11.5669 19.5059 11.3364 20H13.8042C14.0413 20.0008 14.2714 19.9165 14.4526 19.7637C14.633 19.6113 14.7539 19.3997 14.7934 19.167L14.8208 18.9961C13.8268 18.9754 12.8173 18.7836 11.8462 18.4502ZM3.28563 6.65527C3.10363 7.1976 2.99094 7.92778 3.00926 8.72656C3.03586 9.88279 3.32512 10.8677 3.73387 11.3662C4.03665 11.7359 4.03525 12.2683 3.73094 12.6367C3.3191 13.1349 3.02801 14.1187 3.00145 15.2734C2.98311 16.0727 3.09759 16.803 3.28172 17.3447C4.11652 17.0876 4.72598 16.6565 5.14989 16.1201C5.66746 15.4651 5.96692 14.5789 5.99462 13.4941C5.80692 13.0993 5.65125 12.6884 5.53563 12.2617C5.48922 12.0904 5.48916 11.9096 5.53563 11.7383C5.65131 11.3125 5.80683 10.9022 5.99462 10.5078C5.96724 9.42212 5.66778 8.53534 5.14989 7.87988C4.72658 7.34424 4.11859 6.91251 3.28563 6.65527ZM14.2016 7.04785C12.8799 7.2016 11.5099 7.72407 10.3325 8.52832C9.00108 9.43795 7.98734 10.6557 7.54344 11.998C7.98661 13.3463 8.99913 14.5664 10.3315 15.4756C11.5089 16.2789 12.8798 16.7982 14.2026 16.9512C13.4143 15.4287 12.9947 13.7324 12.9946 12C12.9947 10.2676 13.4133 8.57035 14.2016 7.04785ZM16.4419 7.17578C15.5008 8.60416 14.9947 10.2806 14.9946 12C14.9947 13.7192 15.5001 15.3959 16.4409 16.8242C18.6103 16.2794 20.2108 14.496 20.9595 12C20.2105 9.51077 18.6101 7.7226 16.4419 7.17578ZM10.0727 4C10.4711 4.59405 10.8171 5.22268 11.0718 5.85059C12.2724 5.33293 13.5592 5.02933 14.8208 5.00293L14.7934 4.83203C14.7536 4.59972 14.6328 4.38743 14.4526 4.23535C14.2714 4.08255 14.0412 3.99923 13.8042 4H10.0727Z" fill="#E4F2F2"/>
</svg>
