<svg width="24" height="24" viewBox="0 0 24 24" fill="none" xmlns="http://www.w3.org/2000/svg">
<path fill-rule="evenodd" clip-rule="evenodd" d="M1.29295 1.29297C1.68348 0.902482 2.3165 0.902457 2.70702 1.29297L22.707 21.293C23.0975 21.6835 23.0975 22.3165 22.707 22.707C22.3165 23.0975 21.6835 23.0975 21.293 22.707L15.5723 16.9863C14.0432 16.9015 12.757 16.38 11.6289 15.9287C10.3608 15.4215 9.28065 15 7.99999 15C6.91437 15 5.86227 15.3532 4.99999 16V22C4.99999 22.5523 4.55224 23 3.99999 23C3.4477 23 2.99999 22.5523 2.99999 22V4.41406L1.29295 2.70703C0.90243 2.31651 0.90243 1.68349 1.29295 1.29297ZM4.99999 13.6768C5.9304 13.2355 6.95383 13 7.99999 13C9.7191 13 11.1393 13.5786 12.3711 14.0713C12.5296 14.1347 12.6864 14.1938 12.8398 14.2539L4.99999 6.41406V13.6768Z" fill="#E4F2F2"/>
<path d="M7.99999 1C9.72285 1.00007 11.1392 1.57903 12.3105 2.08105C13.5447 2.61 14.417 2.99993 15.333 3C16.5521 2.99996 17.3288 2.75324 17.7998 2.40039L17.914 2.32031C18.1857 2.14472 18.4968 2.03703 18.8203 2.00781C19.19 1.97453 19.5625 2.04495 19.8945 2.21094C20.2265 2.37698 20.506 2.63255 20.7012 2.94824C20.8964 3.26416 21 3.62863 21 4V14.3467C21 14.8989 20.5521 15.3465 20 15.3467C19.4478 15.3465 19 14.8989 19 14.3467V4C18.0484 4.71347 16.7797 4.99996 15.333 5C13.9164 4.99993 12.6212 4.38985 11.5224 3.91895C10.3609 3.42115 9.27659 3.00007 7.99999 3H7.65624C7.10395 3 6.65624 2.55228 6.65624 2C6.65624 1.44772 7.10395 1 7.65624 1H7.99999Z" fill="#E4F2F2"/>
</svg>
