<svg width="24" height="24" viewBox="0 0 24 24" fill="none" xmlns="http://www.w3.org/2000/svg">
<path fill-rule="evenodd" clip-rule="evenodd" d="M17.4883 1.02247C17.64 1.04708 17.7882 1.09111 17.9287 1.15333L18.1338 1.25977L18.3232 1.39258C18.4435 1.48862 18.5515 1.59929 18.6436 1.72266L18.7695 1.917L18.8691 2.12501C18.9555 2.33873 19.0001 2.56788 19 2.79981V22C18.9999 22.5521 18.5521 22.9998 18 23C17.4479 22.9998 17.0001 22.5521 17 22V16.1162L5.00293 10.1143C4.7038 9.96668 4.45069 9.73882 4.27344 9.45606C4.11628 9.20533 4.02457 8.91988 4.00391 8.62598L3.99902 8.50001L4.00391 8.37305C4.02466 8.07951 4.11652 7.79442 4.27344 7.54395L4.34473 7.43946C4.51578 7.20493 4.74159 7.01465 5.00293 6.88575L16.3828 1.19532V1.19727C16.6536 1.05916 16.9548 0.990182 17.2588 1.00001L17.4883 1.02247ZM6.24512 8.49903L17 13.8799V3.12208L6.24512 8.49903ZM5.79785 8.49903L5.79883 8.50001L5.80371 8.51075L5.80469 8.50977L5.79883 8.49805L5.79785 8.49903Z" fill="#E4F2F2"/>
</svg>
