<svg width="24" height="24" viewBox="0 0 24 24" fill="none" xmlns="http://www.w3.org/2000/svg">
<path fill-rule="evenodd" clip-rule="evenodd" d="M11.4795 2.14698C11.73 1.99416 12.0372 1.95812 12.3193 2.05323C12.642 2.16216 12.8871 2.42795 12.9697 2.7583C13.588 5.23117 14.8131 7.20902 16.6406 8.73194C18.7946 10.527 20 12.6195 20 15.0005C19.9999 17.1221 19.1574 19.1575 17.6572 20.6577C16.1569 22.1579 14.1217 23.0005 12 23.0005C9.87834 23.0005 7.84305 22.1579 6.34277 20.6577C4.93627 19.2512 4.10788 17.3742 4.00977 15.397L4 15.0005C4 13.7024 4.42143 12.4394 5.2002 11.4009C5.45845 11.0565 5.90806 10.9161 6.31641 11.0522C6.72454 11.1885 7 11.5702 7 12.0005C7.00008 12.3982 7.15822 12.7798 7.43945 13.061C7.72074 13.3422 8.10225 13.5005 8.5 13.5005C8.89775 13.5005 9.27926 13.3422 9.56055 13.061C9.84178 12.7798 9.99992 12.3982 10 12.0005C10 11.2647 9.73634 10.7095 9.35547 9.94776C8.98644 9.2097 8.50008 8.26447 8.5 7.00049C8.5 5.21898 9.61335 3.6286 11.375 2.21924L11.4795 2.14698ZM11.5156 4.8169C10.7828 5.6399 10.5 6.36872 10.5 7.00049C10.5001 7.73621 10.7636 8.29145 11.1445 9.05323C11.5136 9.79131 12 10.7365 12 12.0005C11.9999 12.9286 11.6309 13.8188 10.9746 14.4751C10.3182 15.1314 9.42819 15.5005 8.5 15.5005C7.57665 15.5005 6.69149 15.1347 6.03613 14.4849C6.01399 14.6552 6 14.8273 6 15.0005L6.00781 15.2983C6.08153 16.7811 6.70307 18.1879 7.75781 19.2427C8.88302 20.3678 10.4088 21.0005 12 21.0005C13.5912 21.0005 15.117 20.3678 16.2422 19.2427C17.2969 18.1879 17.9185 16.7811 17.9922 15.2983L18 15.0005C18 13.3816 17.2051 11.8072 15.3594 10.269C13.5995 8.80242 12.3188 6.97756 11.5156 4.8169Z" fill="#E4F2F2"/>
</svg>
