<svg width="24" height="24" viewBox="0 0 24 24" fill="none" xmlns="http://www.w3.org/2000/svg">
<path d="M18.7261 17.0381C19.2569 16.8869 19.8108 17.1948 19.9624 17.7256C20.1137 18.2563 19.8055 18.8101 19.2749 18.9619L15.6411 20L19.2749 21.0381C19.8055 21.1899 20.1137 21.7437 19.9624 22.2744C19.8108 22.8052 19.2569 23.1131 18.7261 22.9619L12.0005 21.04L5.2749 22.9619C4.74403 23.1134 4.19032 22.8052 4.03858 22.2744C3.88711 21.7435 4.19517 21.1898 4.72608 21.0381L8.35889 20L4.72608 18.9619C4.19517 18.8102 3.88711 18.2565 4.03858 17.7256C4.19032 17.1948 4.74403 16.8866 5.2749 17.0381L12.0005 18.959L18.7261 17.0381Z" fill="#E4F2F2"/>
<path fill-rule="evenodd" clip-rule="evenodd" d="M12.0005 1C12.4306 1.00021 12.8126 1.27557 12.9487 1.68359C13.8475 4.37981 14.9807 4.56972 16.2007 5.78613L16.4067 5.99805C17.4092 7.08235 17.9793 8.50191 18.0005 9.98535C18.0006 9.9901 18.0005 9.99525 18.0005 10C18.0005 11.5912 17.3677 13.117 16.2427 14.2422C15.188 15.2969 13.781 15.9184 12.2983 15.9922L12.0005 16C10.4093 16 8.8835 15.3673 7.7583 14.2422C6.63308 13.117 6.00049 11.5913 6.00049 10C6.00049 9.72262 5.99277 9.26169 6.15186 8.78418L6.21533 8.63477C6.38952 8.30325 6.73905 8.09226 7.12256 8.10059C7.56052 8.11047 7.94162 8.40393 8.06201 8.8252C8.10426 8.97296 8.18035 9.1089 8.28369 9.22266C8.38709 9.33635 8.51563 9.42533 8.65869 9.48145C8.80164 9.53739 8.95594 9.55998 9.10889 9.54688C9.26193 9.53368 9.41014 9.48488 9.54151 9.40527C9.67287 9.32559 9.7852 9.21655 9.86768 9.08691C9.94998 8.95732 10.0016 8.80987 10.0181 8.65723C10.0344 8.50466 10.0152 8.35012 9.9624 8.20605C9.90944 8.06189 9.82373 7.931 9.7124 7.8252C9.69653 7.81013 9.68039 7.7944 9.66553 7.77832C8.93474 6.98661 8.55778 6.13384 8.49951 5.27344C8.44213 4.42461 8.70147 3.66634 9.06983 3.05762C9.43596 2.45278 9.92908 1.962 10.4097 1.61816C10.8458 1.30624 11.433 1 12.0005 1ZM11.4507 3.33984C11.2037 3.538 10.9598 3.79707 10.7808 4.09277C10.5743 4.43385 10.4709 4.78787 10.4946 5.13867C10.5176 5.47723 10.6655 5.91069 11.1314 6.41699C11.4448 6.72673 11.6872 7.10155 11.8394 7.51562C11.9984 7.94863 12.0557 8.41343 12.0064 8.87207C11.9569 9.33056 11.8027 9.77203 11.5552 10.1611C11.3076 10.5502 10.973 10.8771 10.5786 11.1162C10.1842 11.3552 9.73928 11.4996 9.27979 11.5391C8.94205 11.568 8.60249 11.5391 8.27588 11.4551C8.47507 11.9649 8.77786 12.4336 9.17237 12.8281C9.92249 13.5781 10.9397 14 12.0005 14L12.1987 13.9951C13.1872 13.946 14.1254 13.5313 14.8286 12.8281C15.5752 12.0815 15.9966 11.0701 16.0005 10.0146L15.9927 9.81738C15.9302 8.83475 15.5068 7.90628 14.8003 7.21387L14.7935 7.20703C14.1036 6.51721 12.5584 5.79752 11.4507 3.33984Z" fill="#E4F2F2"/>
</svg>
