<svg width="24" height="24" viewBox="0 0 24 24" fill="none" xmlns="http://www.w3.org/2000/svg">
<path fill-rule="evenodd" clip-rule="evenodd" d="M15.4995 1C16.0518 1 16.4995 1.44772 16.4995 2C16.4995 2.55228 16.0518 3 15.4995 3H14.9995V8C14.9995 8.16774 15.0421 8.33328 15.1226 8.48047L20.6314 18.5596C20.8814 19.0165 21.0085 19.531 20.9995 20.0518C20.9905 20.5725 20.8462 21.0823 20.5806 21.5303C20.315 21.9781 19.9373 22.3488 19.4849 22.6064C19.0889 22.8319 18.6478 22.9647 18.1948 22.9941L17.9995 23H5.99953C5.47894 23 4.96754 22.8641 4.51515 22.6064C4.06271 22.3488 3.68506 21.9781 3.41945 21.5303C3.15383 21.0823 3.00852 20.5725 2.99953 20.0518C2.99055 19.531 3.1177 19.0165 3.36769 18.5596L5.56691 14.5371C5.57239 14.5266 5.57768 14.5161 5.58351 14.5059L8.87746 8.48047C8.9579 8.33328 8.9996 8.16774 8.99953 8V3H8.49953C7.94745 2.99976 7.49953 2.55214 7.49953 2C7.49953 1.44786 7.94745 1.00024 8.49953 1H15.4995ZM5.12258 19.5195C5.03924 19.6718 4.99653 19.844 4.99953 20.0176C5.00258 20.191 5.05078 20.3606 5.13918 20.5098C5.2277 20.6591 5.3536 20.7832 5.50441 20.8691C5.6552 20.955 5.826 21 5.99953 21H18.0005C18.174 21 18.3448 20.955 18.4956 20.8691C18.6464 20.7832 18.7723 20.659 18.8609 20.5098C18.9492 20.3606 18.9975 20.1909 19.0005 20.0176C19.0035 19.844 18.9608 19.6718 18.8775 19.5195L16.9536 16H7.0464L5.12258 19.5195ZM10.9995 3V8L10.9946 8.1875C10.9673 8.62555 10.8436 9.05298 10.6323 9.43945L8.13918 14H15.8609L13.3677 9.43945C13.1565 9.05297 13.0327 8.62556 13.0054 8.1875L12.9995 8V3H10.9995Z" fill="#E4F2F2"/>
</svg>
