<svg width="24" height="24" viewBox="0 0 24 24" fill="none" xmlns="http://www.w3.org/2000/svg">
<path fill-rule="evenodd" clip-rule="evenodd" d="M1.29295 1.29297C1.68348 0.902482 2.3165 0.902457 2.70702 1.29297L22.707 21.293C23.0975 21.6835 23.0975 22.3165 22.707 22.707C22.3165 23.0975 21.6835 23.0975 21.293 22.707L20.3906 21.8047C20.3075 21.9149 20.2198 22.0223 20.1211 22.1211C19.5585 22.6837 18.7947 23 17.999 23H5.99901C5.47863 22.9999 4.96685 22.8639 4.51463 22.6064C4.06228 22.3487 3.68445 21.9771 3.41893 21.5293C3.15357 21.0815 3.00806 20.5722 2.99901 20.0518C2.9901 19.5312 3.11725 19.0163 3.36717 18.5596L8.23631 9.65039L1.29295 2.70703C0.90243 2.31651 0.90243 1.68349 1.29295 1.29297ZM5.12206 19.5195C5.03883 19.6716 4.99613 19.8432 4.99901 20.0166C5.002 20.19 5.05031 20.3606 5.13866 20.5098C5.22703 20.6588 5.35344 20.7823 5.50389 20.8682C5.65456 20.954 5.82563 20.9999 5.99901 21H17.999C18.2642 21 18.5195 20.8946 18.707 20.707C18.8094 20.6047 18.8852 20.4818 18.9346 20.3486L14.5859 16H7.04491L5.12206 19.5195ZM8.13866 14H12.5859L9.70995 11.124L8.13866 14Z" fill="#E4F2F2"/>
<path d="M15.5 1C16.0522 1.00004 16.5 1.44774 16.5 2C16.5 2.55226 16.0522 2.99996 15.5 3H15V8.34277C15 8.89503 14.5522 9.34273 14 9.34277C13.4477 9.34277 13 8.89506 13 8.34277V3H11V4.34277C11 4.89503 10.5522 5.34273 9.99999 5.34277C9.4477 5.34277 8.99999 4.89506 8.99999 4.34277V3H8.49999C7.9477 3 7.49999 2.55228 7.49999 2C7.49999 1.44772 7.9477 1 8.49999 1H15.5Z" fill="#E4F2F2"/>
</svg>
