<svg width="24" height="24" viewBox="0 0 24 24" fill="none" xmlns="http://www.w3.org/2000/svg">
<path fill-rule="evenodd" clip-rule="evenodd" d="M1.29295 1.29297C1.68348 0.902482 2.3165 0.902457 2.70702 1.29297L22.707 21.293C23.0975 21.6835 23.0975 22.3165 22.707 22.707C22.3165 23.0975 21.6835 23.0975 21.293 22.707L17 18.4141V20C17 20.7956 16.6837 21.5585 16.1211 22.1211C15.5585 22.6837 14.7956 23 14 23H9.99999C9.20435 23 8.4415 22.6837 7.87889 22.1211C7.31628 21.5585 6.99999 20.7957 6.99999 20V12C6.99999 11.351 6.78968 10.7194 6.40038 10.2002L5.79979 9.40039C5.2805 8.70801 4.99999 7.86548 4.99999 7V6.41406L1.29295 2.70703C0.90243 2.31651 0.90243 1.68349 1.29295 1.29297ZM8.57811 9.99219C8.85411 10.6215 8.99999 11.3046 8.99999 12V20C8.99999 20.2652 9.10542 20.5195 9.29295 20.707C9.48049 20.8945 9.73479 21 9.99999 21H14C14.2652 21 14.5195 20.8946 14.707 20.707C14.8945 20.5195 15 20.2652 15 20V16.4141L12.9355 14.3496C12.7936 14.7292 12.4291 15 12 15C11.4477 15 11 14.5523 11 14V13C11 12.8305 11.0427 12.6711 11.1172 12.5312L8.57811 9.99219Z" fill="#E4F2F2"/>
<path d="M16.999 1C17.5293 1 18.039 1.21102 18.414 1.58594C18.7889 1.96098 18.999 2.4697 18.999 3V5.98047C18.9991 5.98697 19 5.99347 19 6C19 6.0062 18.9991 6.01238 18.999 6.01855V7C18.999 7.86548 18.7185 8.70801 18.1992 9.40039L17.5996 10.2002C17.4267 10.4307 17.287 10.685 17.1865 10.9551C16.994 11.4725 16.4189 11.7362 15.9014 11.5439C15.3841 11.3513 15.1203 10.7762 15.3125 10.2588C15.4799 9.80862 15.7108 9.38418 15.999 9L16.5996 8.2002C16.8592 7.854 16.999 7.43274 16.999 7H11.6523C11.1 7 10.6523 6.55228 10.6523 6C10.6523 5.44772 11.1 5 11.6523 5H16.999V3H7.64842C7.09636 2.99974 6.64842 2.55212 6.64842 2C6.64842 1.44788 7.09636 1.00026 7.64842 1H16.999Z" fill="#E4F2F2"/>
</svg>
