<svg width="24" height="24" viewBox="0 0 24 24" fill="none" xmlns="http://www.w3.org/2000/svg">
<path fill-rule="evenodd" clip-rule="evenodd" d="M12.5 2C13.8781 2 15.1055 2.27444 15.9814 2.54395C16.4043 2.67404 16.7507 2.80598 17 2.9082C17.2493 2.80598 17.5957 2.67404 18.0186 2.54395C18.8945 2.27444 20.1219 2 21.5 2C21.8772 2 22.2691 2.13038 22.5693 2.43066C22.8696 2.73094 23 3.12275 23 3.5C23 6.86354 22.4801 9.32579 21.9717 11.4229C21.4583 13.5407 21 15.1493 21 17V18C21 20.2091 19.2091 22 17 22C14.7909 22 13 20.2091 13 18V17C13 15.1493 12.5417 13.5407 12.0283 11.4229C12.0187 11.383 12.0097 11.3429 12 11.3027C11.9903 11.3429 11.9813 11.383 11.9717 11.4229C11.4583 13.5407 11 15.1493 11 17V18C11 20.2091 9.20914 22 7 22C4.79086 22 3 20.2091 3 18V17C3 15.1493 2.54174 13.5407 2.02832 11.4229C1.51995 9.32579 1 6.86354 1 3.5C1 3.12275 1.13038 2.73094 1.43066 2.43066C1.73094 2.13038 2.12275 2 2.5 2C3.87815 2 5.1055 2.27444 5.98145 2.54395C6.40426 2.67404 6.75069 2.80598 7 2.9082C7.24931 2.80598 7.59574 2.67404 8.01855 2.54395C8.8945 2.27444 10.1219 2 11.5 2H12.5ZM7 15C5.89543 15 5 15.8954 5 17V18C5 19.1046 5.89543 20 7 20C8.10457 20 9 19.1046 9 18V17C9 15.8954 8.10457 15 7 15ZM17 15C15.8954 15 15 15.8954 15 17V18C15 19.1046 15.8954 20 17 20C18.1046 20 19 19.1046 19 18V17C19 15.8954 18.1046 15 17 15ZM10.9941 4.01562C10.0726 4.0696 9.24121 4.26074 8.60645 4.45605C8.37341 4.52776 8.16965 4.60021 8 4.66406V10C8 10.5523 7.55228 11 7 11C6.44772 11 6 10.5523 6 10V4.66406C5.83035 4.60021 5.62659 4.52776 5.39355 4.45605C4.75857 4.26068 3.9268 4.06947 3.00488 4.01562C3.05397 6.89006 3.50742 9.03706 3.97168 10.9521C4.20271 11.9051 4.44373 12.8326 4.63574 13.7734C5.29806 13.2873 6.11544 13 7 13C7.88428 13 8.70107 13.2876 9.36328 13.7734C9.5553 12.8325 9.79728 11.9052 10.0283 10.9521C10.4926 9.03707 10.9451 6.89008 10.9941 4.01562ZM13.0049 4.01465C13.0539 6.8896 13.5074 9.03685 13.9717 10.9521C14.2027 11.9051 14.4437 12.8326 14.6357 13.7734C15.2981 13.2873 16.1154 13 17 13C17.8843 13 18.7011 13.2876 19.3633 13.7734C19.5553 12.8325 19.7973 11.9052 20.0283 10.9521C20.4926 9.03707 20.9451 6.89005 20.9941 4.01562C20.0726 4.06954 19.2412 4.26074 18.6064 4.45605C18.3734 4.52776 18.1696 4.60021 18 4.66406V10C18 10.5523 17.5523 11 17 11C16.4477 11 16 10.5523 16 10V4.66406C15.8304 4.60021 15.6266 4.52776 15.3936 4.45605C14.7586 4.26067 13.9269 4.06854 13.0049 4.01465Z" fill="#E4F2F2"/>
</svg>
