<svg width="24" height="24" viewBox="0 0 24 24" fill="none" xmlns="http://www.w3.org/2000/svg">
<path d="M19 2C19.7957 2 20.5585 2.3163 21.1211 2.87891C21.6837 3.44151 22 4.20435 22 5V19C22 19.7957 21.6837 20.5585 21.1211 21.1211C20.5585 21.6837 19.7957 22 19 22H14C13.4477 22 13 21.5523 13 21C13 20.4477 13.4477 20 14 20H19C19.2652 20 19.5195 19.8946 19.707 19.707C19.8946 19.5195 20 19.2652 20 19V11H14C13.4477 11 13 10.5523 13 10C13 9.44772 13.4477 9 14 9H20V5C20 4.73478 19.8946 4.48051 19.707 4.29297C19.5195 4.10543 19.2652 4 19 4H10V10C10 10.5523 9.55228 11 9 11C8.44772 11 8 10.5523 8 10V4H5C4.73478 4 4.4805 4.10543 4.29297 4.29297C4.10543 4.4805 4 4.73478 4 5V14H12C12.5523 14 13 14.4477 13 15C13 15.5523 12.5523 16 12 16H4V19C4 19.2652 4.10543 19.5195 4.29297 19.707C4.48051 19.8946 4.73478 20 5 20H9C9.55228 20 10 20.4477 10 21C10 21.5523 9.55228 22 9 22H5C4.20435 22 3.44151 21.6837 2.87891 21.1211C2.3163 20.5585 2 19.7957 2 19V5C2 4.20435 2.3163 3.44152 2.87891 2.87891C3.44152 2.3163 4.20435 2 5 2H19Z" fill="#E4F2F2"/>
</svg>
