<svg width="24" height="24" viewBox="0 0 24 24" fill="none" xmlns="http://www.w3.org/2000/svg">
<path d="M2 5C2.55228 5 3 5.44772 3 6V20C3 20.2652 3.10543 20.5195 3.29297 20.707C3.48051 20.8946 3.73478 21 4 21H18C18.5523 21 19 21.4477 19 22C19 22.5523 18.5523 23 18 23H4C3.20435 23 2.44151 22.6837 1.87891 22.1211C1.3163 21.5585 1 20.7957 1 20V6C1 5.44772 1.44772 5 2 5Z" fill="#E4F2F2"/>
<path fill-rule="evenodd" clip-rule="evenodd" d="M14 9C15.6569 9 17 10.3431 17 12C17 13.6569 15.6569 15 14 15C12.3431 15 11 13.6569 11 12C11 10.3431 12.3431 9 14 9ZM14 11C13.4477 11 13 11.4477 13 12C13 12.5523 13.4477 13 14 13C14.5523 13 15 12.5523 15 12C15 11.4477 14.5523 11 14 11Z" fill="#E4F2F2"/>
<path fill-rule="evenodd" clip-rule="evenodd" d="M18.0986 1.00488C18.3276 1.02757 18.5429 1.12883 18.707 1.29297L22.707 5.29297C22.8946 5.4805 23 5.73478 23 6V16C23 16.7957 22.6837 17.5585 22.1211 18.1211C21.5585 18.6837 20.7957 19 20 19H8C7.20435 19 6.44151 18.6837 5.87891 18.1211C5.3163 17.5585 5 16.7956 5 16V4C5 3.20435 5.3163 2.44152 5.87891 1.87891C6.44152 1.3163 7.20435 1 8 1H18L18.0986 1.00488ZM8 3C7.73478 3 7.4805 3.10543 7.29297 3.29297C7.10543 3.4805 7 3.73478 7 4V16L7.00488 16.0986C7.02757 16.3276 7.12883 16.5429 7.29297 16.707C7.48051 16.8946 7.73478 17 8 17H20C20.2652 17 20.5195 16.8946 20.707 16.707C20.8946 16.5195 21 16.2652 21 16V6.41406L18 3.41406V6C18 6.55228 17.5523 7 17 7H10C9.44771 7 9 6.55228 9 6V3H8ZM11 5H16V3H11V5Z" fill="#E4F2F2"/>
</svg>
