<svg width="24" height="24" viewBox="0 0 24 24" fill="none" xmlns="http://www.w3.org/2000/svg">
<path fill-rule="evenodd" clip-rule="evenodd" d="M16.0986 2.00488C16.3276 2.02757 16.5429 2.12883 16.707 2.29297L21.707 7.29297C21.8946 7.4805 22 7.73478 22 8V19C22 19.7957 21.6837 20.5585 21.1211 21.1211C20.5585 21.6837 19.7957 22 19 22H5C4.20435 22 3.44151 21.6837 2.87891 21.1211C2.3163 20.5585 2 19.7957 2 19V5C2 4.20435 2.3163 3.44152 2.87891 2.87891C3.44152 2.3163 4.20435 2 5 2H16L16.0986 2.00488ZM5 4C4.73478 4 4.4805 4.10543 4.29297 4.29297C4.10543 4.4805 4 4.73478 4 5V19C4 19.2652 4.10543 19.5195 4.29297 19.707C4.48051 19.8946 4.73478 20 5 20H6V13C6 12.4477 6.44772 12 7 12H17C17.5523 12 18 12.4477 18 13V20H19C19.2652 20 19.5195 19.8946 19.707 19.707C19.8946 19.5195 20 19.2652 20 19V8.41406L15.5859 4H8V7H15C15.5523 7 16 7.44772 16 8C16 8.55228 15.5523 9 15 9H7C6.44772 9 6 8.55228 6 8V4H5ZM8 20H16V14H8V20Z" fill="#E4F2F2"/>
</svg>
