<svg width="24" height="24" viewBox="0 0 24 24" fill="none" xmlns="http://www.w3.org/2000/svg">
<path d="M2 5C2.55228 5 3 5.44772 3 6V20C3 20.2652 3.10543 20.5195 3.29297 20.707C3.48051 20.8946 3.73478 21 4 21H18C18.5523 21 19 21.4477 19 22C19 22.5523 18.5523 23 18 23H4C3.20435 23 2.44151 22.6837 1.87891 22.1211C1.3163 21.5585 1 20.7957 1 20V6C1 5.44772 1.44772 5 2 5Z" fill="#E4F2F2"/>
<path fill-rule="evenodd" clip-rule="evenodd" d="M18.0986 1.00488C18.3276 1.02757 18.5429 1.12883 18.707 1.29297L22.707 5.29297C22.8946 5.4805 23 5.73478 23 6V16.2002C23 16.2335 22.9984 16.2667 22.9951 16.2998C22.9205 17.0424 22.5713 17.7302 22.0166 18.2295C21.4631 18.7276 20.7445 19.0015 20 18.999L8 19C7.20435 19 6.44151 18.6837 5.87891 18.1211C5.3163 17.5585 5 16.7956 5 16V4C5 3.20435 5.3163 2.44152 5.87891 1.87891C6.44152 1.3163 7.20435 1 8 1H18L18.0986 1.00488ZM8 3C7.73478 3 7.4805 3.10543 7.29297 3.29297C7.10543 3.4805 7 3.73478 7 4V16L7.00488 16.0986C7.02757 16.3276 7.12883 16.5429 7.29297 16.707C7.48051 16.8946 7.73478 17 8 17H9V11C9 10.4477 9.44771 10 10 10H18C18.5523 10 19 10.4477 19 11V17H20.0049C20.2536 17.0012 20.4938 16.9095 20.6787 16.7432C20.8556 16.5839 20.9687 16.3671 21 16.1318V6.41406L17.5859 3H11V5H16C16.5523 5 17 5.44772 17 6C17 6.55228 16.5523 7 16 7H10C9.44771 7 9 6.55228 9 6V3H8ZM11 17H17V12H11V17Z" fill="#E4F2F2"/>
</svg>
