<svg width="24" height="24" viewBox="0 0 24 24" fill="none" xmlns="http://www.w3.org/2000/svg">
<path fill-rule="evenodd" clip-rule="evenodd" d="M14.0332 1.376C15.0602 0.951266 16.1994 0.877596 17.2725 1.16702C18.3454 1.45664 19.2938 2.09288 19.9678 2.97659C20.5275 3.71079 20.8716 4.58215 20.9697 5.49319C21.5225 5.9004 21.9917 6.41978 22.3408 7.0264C23.0035 8.17789 23.1815 9.54531 22.8359 10.8282C22.4903 12.1109 21.6495 13.2045 20.498 13.8672L20.4971 13.8662L18.5137 15.0576C18.5089 15.0605 18.5039 15.0636 18.499 15.0664C16.8902 15.9945 14.9784 16.245 13.1846 15.7637C11.7104 15.3681 10.4154 14.5045 9.48535 13.3164C8.20601 14.1119 7.13948 15.1225 6.26367 16.1866C6.44653 16.1616 6.63568 16.1405 6.83008 16.127C8.90892 15.9827 11.5469 16.5835 13.7803 19.375C13.9604 19.6003 14.0353 19.8929 13.9844 20.1768C13.9334 20.4606 13.7618 20.7089 13.5147 20.8575L13 20L13.5137 20.8584C13.513 20.8588 13.5107 20.8598 13.5098 20.8604C13.508 20.8615 13.5053 20.8629 13.5029 20.8643C13.498 20.8672 13.4916 20.8709 13.4844 20.875C13.4696 20.8835 13.45 20.8949 13.4258 20.9082C13.3769 20.9352 13.308 20.9711 13.2227 21.0137C13.052 21.0988 12.8095 21.2105 12.5078 21.3252C11.9067 21.5537 11.0529 21.8011 10.0449 21.8721C8.27217 21.9969 6.08367 21.5662 4.02539 19.6807C3.7316 20.2715 3.50131 20.8004 3.33301 21.2266C3.20137 21.56 3.10677 21.8287 3.0459 22.0108C3.01554 22.1016 2.99337 22.1709 2.97949 22.2158L2.96192 22.2744L2.92871 22.3721C2.74095 22.8424 2.22307 23.1036 1.72559 22.9619C1.19468 22.8103 0.886624 22.2565 1.03809 21.7256L2 22C1.12885 21.7511 1.04667 21.7272 1.03906 21.7246V21.7217C1.03955 21.72 1.0403 21.7173 1.04102 21.7149C1.04246 21.7099 1.0445 21.7034 1.04688 21.6953C1.05182 21.6787 1.05932 21.6553 1.06836 21.626C1.08659 21.567 1.11293 21.4822 1.14844 21.376C1.21949 21.1635 1.32675 20.8617 1.47266 20.4922C1.76419 19.754 2.21494 18.7398 2.85449 17.627C4.01101 15.6147 5.82115 13.2144 8.48731 11.5762C7.93742 10.1861 7.84342 8.64669 8.23535 7.18558C8.71268 5.40647 9.87158 3.88741 11.46 2.95706L12.9648 1.97854C13.1366 1.85165 13.3166 1.73541 13.5039 1.63089C13.5226 1.6202 13.5414 1.60997 13.5605 1.60061C13.7134 1.51784 13.8714 1.44296 14.0332 1.376ZM11.2783 19.628C9.77992 18.2938 8.22421 18.0359 6.96875 18.1231C6.44601 18.1594 5.96859 18.2569 5.56446 18.3711C7.12217 19.709 8.67784 19.9643 9.9043 19.878C10.4194 19.8417 10.8859 19.742 11.2783 19.628ZM10.9199 6.10257C10.579 6.58256 10.3225 7.12365 10.167 7.70315C9.82316 8.98476 10.0029 10.3506 10.666 11.5C11.3291 12.6494 12.4215 13.4882 13.7031 13.8321C14.9847 14.1759 16.3506 13.9971 17.5 13.334L19.4854 12.1426L19.501 12.1328C20.1925 11.7347 20.6977 11.0781 20.9053 10.3076C21.1128 9.53703 21.0055 8.71516 20.6074 8.02347C20.4329 7.72042 20.2069 7.45553 19.9453 7.23343C19.9804 7.41689 20 7.60615 20 7.79983C20 9.04586 19.2396 10.1141 18.1582 10.5674C17.2811 10.9927 16.2967 11.1568 15.3242 11.0332C14.2217 10.8931 13.1957 10.3917 12.4072 9.60843C11.619 8.82512 11.1122 7.80266 10.9648 6.7012C10.9382 6.502 10.9227 6.30191 10.9199 6.10257ZM17 6.79983C16.4478 6.79983 16.0001 7.24763 16 7.79983C16 8.35212 16.4477 8.79983 17 8.79983C17.1192 8.79978 17.2329 8.77758 17.3389 8.73929C17.3911 8.71265 17.4443 8.68701 17.4951 8.65725C17.5235 8.64069 17.5519 8.62485 17.5811 8.61136C17.8338 8.42987 18 8.13474 18 7.79983C17.9999 7.2478 17.552 6.8001 17 6.79983ZM16.752 3.09768C16.1047 2.92305 15.4174 2.96747 14.7979 3.22366C14.1784 3.47988 13.661 3.93394 13.3262 4.51468C12.9915 5.09545 12.8576 5.77115 12.9463 6.43558C13.0352 7.1 13.3419 7.71699 13.8174 8.18948C13.8942 8.26574 13.9758 8.33616 14.0596 8.40335C14.0198 8.20849 14 8.00644 14 7.79983C14.0001 6.7604 14.5279 5.84397 15.3311 5.30569C15.3821 5.25992 15.4392 5.21921 15.501 5.18362C16.448 4.6386 17.5413 4.4214 18.6133 4.55374C18.543 4.42768 18.4652 4.30529 18.377 4.18948C17.9705 3.65661 17.399 3.27237 16.752 3.09768Z" fill="#E4F2F2"/>
</svg>
