<svg width="24" height="24" viewBox="0 0 24 24" fill="none" xmlns="http://www.w3.org/2000/svg">
<path fill-rule="evenodd" clip-rule="evenodd" d="M11.6602 1.05958C11.9161 0.967056 12.2008 0.982251 12.4473 1.10548L12.4482 1.10645C12.4491 1.10687 12.4511 1.10786 12.4521 1.10841C12.4543 1.10948 12.4569 1.11075 12.46 1.11231C12.4662 1.11549 12.4745 1.11984 12.4844 1.12501C12.5041 1.1353 12.5313 1.14898 12.5645 1.167C12.6311 1.20327 12.724 1.25567 12.835 1.32227C13.0558 1.45477 13.3565 1.64937 13.6768 1.89844C14.0465 2.18604 14.4907 2.58593 14.8613 3.08594C15.7876 2.54972 16.7938 2.16507 17.8564 2.01075C18.1436 1.96921 18.4359 2.0543 18.6553 2.24415C18.8744 2.43407 19 2.71003 19 3.00001V8.00001C19 11.5127 16.3821 14.438 13 14.9268V17.7051C13.1159 17.6123 13.2354 17.5219 13.3604 17.4365C14.8116 16.4444 16.7862 16 19 16C19.5523 16 20 16.4477 20 17C20 18.9786 19.1386 20.5387 17.6396 21.5635C16.1884 22.5557 14.2138 23 12 23C9.78619 23 7.81162 22.5557 6.36035 21.5635C4.86141 20.5387 4 18.9786 4 17C4 16.4477 4.44772 16 5 16C7.2138 16 9.18838 16.4444 10.6396 17.4365C10.7646 17.5219 10.8841 17.6123 11 17.7051V14.9268C7.61767 14.4382 5 11.5129 5 8.00001V3.00001C5 2.70042 5.13453 2.41651 5.36621 2.22657C5.59788 2.03673 5.90259 1.9608 6.19629 2.01954L6.19922 2.02051C6.20056 2.02079 6.20228 2.02112 6.2041 2.02149C6.20772 2.02224 6.2123 2.02327 6.21777 2.02442C6.22894 2.02678 6.24417 2.03006 6.2627 2.03419C6.29993 2.04249 6.35225 2.05424 6.41699 2.07032C6.54633 2.10244 6.72817 2.15045 6.9502 2.21876C7.39373 2.35523 8.00418 2.5728 8.68262 2.89844C8.82317 2.96591 8.96637 3.04036 9.11328 3.11817C9.48863 2.60265 9.94541 2.19235 10.3232 1.89844C10.6435 1.64937 10.9442 1.45477 11.165 1.32227C11.276 1.25567 11.3689 1.20327 11.4355 1.167C11.4687 1.14898 11.4959 1.1353 11.5156 1.12501C11.5255 1.11984 11.5338 1.11549 11.54 1.11231C11.5431 1.11075 11.5457 1.10948 11.5479 1.10841C11.5489 1.10786 11.55 1.10687 11.5508 1.10645L11.5527 1.10548L11.6602 1.05958ZM6.13184 18.0479C6.34508 18.8382 6.81186 19.449 7.48926 19.9121C8.28879 20.4587 9.42631 20.8258 10.8672 20.9512C10.6538 20.1614 10.1878 19.5508 9.51074 19.0879C8.71101 18.5411 7.57321 18.1731 6.13184 18.0479ZM17.8672 18.0479C16.4263 18.1732 15.2888 18.5413 14.4893 19.0879C13.8121 19.5508 13.3452 20.1613 13.1318 20.9512C14.5732 20.8259 15.711 20.4589 16.5107 19.9121C17.1881 19.449 17.6539 18.8381 17.8672 18.0479ZM17 4.28321C14.7985 5.08485 12.8349 7.16575 11.7695 9.28614C11.1468 10.5258 10.9279 11.5934 11.0293 12.2568C11.0765 12.5652 11.1818 12.7225 11.2803 12.8076C11.3771 12.8912 11.5773 12.9999 12 13C14.7475 12.9997 17 10.7476 17 8.00001V4.28321ZM7 8.00001C7 9.62814 7.79077 11.0823 9.00684 11.9971C8.9879 10.8643 9.381 9.58396 9.98145 8.38868C10.2108 7.93224 10.4825 7.46965 10.7891 7.01075C9.94511 5.92069 8.82016 5.18251 7.81738 4.70118C7.52618 4.56141 7.24992 4.44483 7 4.34962V8.00001ZM12 3.16016C11.8651 3.24771 11.7105 3.35315 11.5518 3.47657C11.2622 3.70175 10.9998 3.95112 10.7969 4.20801C11.2299 4.55026 11.6533 4.94456 12.0469 5.39551C12.4143 4.99058 12.8103 4.60334 13.2314 4.24415C13.025 3.97439 12.7514 3.71233 12.4482 3.47657C12.2895 3.35315 12.1349 3.24771 12 3.16016Z" fill="#E4F2F2"/>
</svg>
