<svg width="24" height="24" viewBox="0 0 24 24" fill="none" xmlns="http://www.w3.org/2000/svg">
<path fill-rule="evenodd" clip-rule="evenodd" d="M12 3C12.2967 3 12.5786 3.13144 12.7686 3.35938L12 4C12.7348 3.38765 12.767 3.36029 12.7686 3.35938L12.7705 3.3623C12.7714 3.36333 12.7723 3.36478 12.7734 3.36621C12.7759 3.36918 12.7794 3.37324 12.7832 3.37793C12.7909 3.38733 12.8016 3.39991 12.8145 3.41602C12.8407 3.44874 12.8774 3.49535 12.9229 3.55469C13.0138 3.67337 13.1404 3.84498 13.291 4.0625C13.5917 4.49684 13.9906 5.12095 14.3887 5.89062C14.4838 6.07454 14.5783 6.26812 14.6729 6.46973C15.2605 5.92085 15.8244 5.48115 16.2979 5.14648C16.6859 4.87217 17.016 4.66545 17.2529 4.52637C17.3713 4.4569 17.4672 4.4039 17.5352 4.36719C17.5689 4.34894 17.5965 4.33446 17.6162 4.32422L17.6475 4.30859C17.6484 4.30813 17.6496 4.3071 17.6504 4.30664L17.6523 4.30566L17.752 4.2627C17.9891 4.17469 18.2527 4.1791 18.4883 4.27832C18.7573 4.39169 18.9628 4.61746 19.0518 4.89551L18.0996 5.2002C18.9934 4.91417 19.0483 4.89641 19.0518 4.89551L19.0527 4.89746L19.0566 4.90918C19.0588 4.9162 19.0619 4.92587 19.0654 4.9375C19.0726 4.96123 19.0826 4.99512 19.0947 5.03711C19.1189 5.1212 19.1514 5.24133 19.1895 5.39258C19.2655 5.6952 19.3629 6.12567 19.4492 6.65039C19.5664 7.3623 19.6642 8.25903 19.665 9.25293C20.4182 9.08861 21.1992 9 22 9C22.5523 9 23 9.44772 23 10C23 16.0523 18.0523 21 12 21C5.94772 21 1 16.0523 1 10C1 9.44772 1.44772 9 2 9C2.80077 9 3.58177 9.08861 4.33496 9.25293C4.33575 8.25903 4.43364 7.3623 4.55078 6.65039C4.63713 6.12568 4.73448 5.6952 4.81055 5.39258C4.84857 5.24133 4.88109 5.1212 4.90527 5.03711C4.91736 4.9951 4.92735 4.96124 4.93457 4.9375C4.93812 4.92584 4.94117 4.91621 4.94336 4.90918L4.94727 4.89746L4.94824 4.89551C5.03932 4.6109 5.25267 4.38209 5.53027 4.27148C5.80777 4.161 6.12009 4.18034 6.38184 4.32422L6.38379 4.3252L6.38672 4.32617C6.38849 4.32716 6.39101 4.32866 6.39355 4.33008C6.39915 4.3332 6.40686 4.33759 6.41602 4.34277C6.4348 4.35341 6.46133 4.36853 6.49414 4.3877C6.56008 4.4262 6.65341 4.48232 6.76953 4.55469C7.00221 4.6997 7.32853 4.91281 7.71191 5.19043C8.17779 5.52781 8.73303 5.96528 9.31348 6.49609C9.41208 6.28475 9.51198 6.0827 9.61133 5.89062C10.0094 5.12095 10.4083 4.49684 10.709 4.0625C10.8596 3.84498 10.9862 3.67337 11.0771 3.55469C11.1226 3.49535 11.1593 3.44874 11.1855 3.41602C11.1984 3.39991 11.2091 3.38733 11.2168 3.37793C11.2206 3.37324 11.2241 3.36918 11.2266 3.36621C11.2277 3.36478 11.2286 3.36333 11.2295 3.3623L11.2314 3.36035C11.233 3.36127 11.2652 3.38765 12 4L11.2314 3.36035C11.4214 3.13242 11.7033 3 12 3ZM3.06543 11.0654C3.55541 15.1663 6.8329 18.4431 10.9336 18.9336C10.6921 16.9142 9.77368 15.0955 8.41504 13.71C8.33302 13.6506 8.26085 13.5791 8.2002 13.498C6.82619 12.1866 5.04208 11.3016 3.06543 11.0654ZM20.9336 11.0654C18.9586 11.3016 17.1754 12.1853 15.8018 13.4951C15.7397 13.5787 15.6648 13.6513 15.5801 13.7119C14.2229 15.0971 13.3068 16.9157 13.0654 18.9336C17.1665 18.4435 20.4435 15.1665 20.9336 11.0654ZM12 5.73926C11.8092 6.04388 11.5987 6.40349 11.3887 6.80957C11.1453 7.28016 10.9054 7.80567 10.6953 8.37305C10.6827 8.54574 10.6261 8.71457 10.5254 8.8623C10.2132 9.82529 10 10.8901 10 12V12.4717C10.8178 13.34 11.4962 14.3396 12 15.4355C12.5038 14.3396 13.1822 13.34 14 12.4717V12C14 10.89 13.7859 9.82537 13.4736 8.8623C13.3731 8.71464 13.3152 8.54512 13.3027 8.37207C13.0928 7.80527 12.8545 7.27975 12.6113 6.80957C12.4013 6.40349 12.1908 6.04388 12 5.73926ZM17.4404 6.78711C16.8737 7.18869 16.1627 7.76108 15.458 8.50781C15.6774 9.23287 15.8487 10.0139 15.9355 10.835C16.4756 10.4758 17.0487 10.163 17.6494 9.90234C17.7064 8.7918 17.6057 7.7651 17.4756 6.97461C17.465 6.91028 17.4513 6.84799 17.4404 6.78711ZM6.52441 6.97461C6.39434 7.76509 6.29259 8.79181 6.34961 9.90234C6.95033 10.163 7.52335 10.4758 8.06348 10.835C8.14967 10.02 8.31811 9.24396 8.53516 8.52344C7.83127 7.80752 7.12231 7.23372 6.55273 6.82031C6.54389 6.87066 6.53308 6.92196 6.52441 6.97461Z" fill="#E4F2F2"/>
</svg>
