<svg width="24" height="24" viewBox="0 0 24 24" fill="none" xmlns="http://www.w3.org/2000/svg">
<path fill-rule="evenodd" clip-rule="evenodd" d="M14.3955 2.41895C15.4004 2.00272 16.5064 1.89328 17.5732 2.10547C18.64 2.31771 19.6195 2.84223 20.3887 3.61133C21.1578 4.38045 21.6823 5.35997 21.8945 6.42676C22.1067 7.4936 21.9973 8.59955 21.5811 9.6045C21.1811 10.5702 20.5141 11.4003 19.6602 12C20.5141 12.5997 21.1811 13.4299 21.5811 14.3955C21.9973 15.4005 22.1067 16.5064 21.8945 17.5732C21.6823 18.6401 21.1578 19.6195 20.3887 20.3887C19.6195 21.1578 18.6401 21.6823 17.5732 21.8945C16.5064 22.1067 15.4005 21.9973 14.3955 21.5811C13.4299 21.1811 12.5997 20.5141 12 19.6602C11.4003 20.5141 10.5702 21.1811 9.6045 21.5811C8.59955 21.9973 7.4936 22.1067 6.42676 21.8945C5.35997 21.6823 4.38045 21.1578 3.61133 20.3887C2.84223 19.6195 2.31771 18.64 2.10547 17.5732C1.89328 16.5064 2.00272 15.4004 2.41895 14.3955C2.81884 13.4301 3.48524 12.5996 4.33887 12C3.48526 11.4004 2.81883 10.5699 2.41895 9.6045C2.00274 8.59956 1.89327 7.49358 2.10547 6.42676C2.31772 5.35996 2.8422 4.38046 3.61133 3.61133C4.38046 2.8422 5.35996 2.31772 6.42676 2.10547C7.49358 1.89327 8.59956 2.00274 9.6045 2.41895C10.5699 2.81883 11.4004 3.48526 12 4.33887C12.5996 3.48524 13.4301 2.81884 14.3955 2.41895ZM7.5 13C6.80784 13 6.13119 13.2053 5.55567 13.5898C4.98025 13.9743 4.53153 14.5208 4.2666 15.1602C4.00173 15.7996 3.9324 16.5038 4.06739 17.1826C4.20243 17.8615 4.53595 18.4851 5.02539 18.9746C5.51486 19.4641 6.13848 19.7976 6.81739 19.9326C7.49626 20.0676 8.20037 19.9983 8.83985 19.7334C9.4792 19.4685 10.0257 19.0198 10.4102 18.4443C10.7947 17.8688 11 17.1922 11 16.5V15.874C10.6328 15.7795 10.2862 15.6336 9.96778 15.4453L8.70703 16.707C8.3165 17.0975 7.68348 17.0975 7.29297 16.707C6.90254 16.3165 6.90253 15.6835 7.29297 15.293L8.55371 14.0313C8.3658 13.7131 8.22038 13.3668 8.12598 13H7.5ZM15.874 13C15.7796 13.367 15.6334 13.713 15.4453 14.0313L16.707 15.293C17.0975 15.6835 17.0975 16.3165 16.707 16.707C16.3165 17.0975 15.6835 17.0975 15.293 16.707L14.0313 15.4453C13.713 15.6334 13.367 15.7796 13 15.874V16.5C13 17.1922 13.2053 17.8688 13.5898 18.4443C13.9743 19.0197 14.5208 19.4685 15.1602 19.7334C15.7996 19.9983 16.5038 20.0676 17.1826 19.9326C17.8616 19.7976 18.4851 19.4641 18.9746 18.9746C19.4641 18.4851 19.7976 17.8616 19.9326 17.1826C20.0676 16.5038 19.9983 15.7996 19.7334 15.1602C19.4685 14.5208 19.0197 13.9743 18.4443 13.5898C17.8688 13.2053 17.1922 13 16.5 13H15.874ZM12 10C11.4527 10 10.9568 10.22 10.5957 10.5762C10.5925 10.5795 10.5902 10.5837 10.5869 10.5869C10.5837 10.5902 10.5795 10.5925 10.5762 10.5957C10.22 10.9568 10 11.4527 10 12C10 12.547 10.2203 13.0422 10.5762 13.4033C10.5796 13.4067 10.5835 13.4097 10.5869 13.4131C10.59 13.4162 10.5927 13.4197 10.5957 13.4229C10.9569 13.7794 11.4524 14 12 14C13.1046 14 14 13.1046 14 12C14 11.4524 13.7794 10.9569 13.4229 10.5957C13.4197 10.5927 13.4162 10.59 13.4131 10.5869C13.4097 10.5835 13.4067 10.5796 13.4033 10.5762C13.0422 10.2203 12.547 10 12 10ZM8.83985 4.2666C8.20038 4.00175 7.49624 3.93239 6.81739 4.06739C6.13847 4.20244 5.51486 4.53592 5.02539 5.02539C4.53592 5.51486 4.20244 6.13847 4.06739 6.81739C3.93239 7.49624 4.00175 8.20038 4.2666 8.83985C4.53152 9.47917 4.98027 10.0257 5.55567 10.4102C6.13119 10.7947 6.80784 11 7.5 11H8.12598C8.22046 10.6329 8.36558 10.2861 8.55371 9.96778L7.29297 8.70703C6.90252 8.3165 6.90247 7.68347 7.29297 7.29297C7.68347 6.90247 8.3165 6.90252 8.70703 7.29297L9.96778 8.55371C10.2861 8.36558 10.6329 8.22046 11 8.12598V7.5C11 6.80784 10.7947 6.13119 10.4102 5.55567C10.0257 4.98027 9.47917 4.53152 8.83985 4.2666ZM17.1826 4.06739C16.5038 3.9324 15.7996 4.00173 15.1602 4.2666C14.5208 4.53153 13.9743 4.98025 13.5898 5.55567C13.2053 6.13119 13 6.80784 13 7.5V8.12598C13.3668 8.22038 13.7131 8.3658 14.0313 8.55371L15.293 7.29297C15.6835 6.90253 16.3165 6.90254 16.707 7.29297C17.0975 7.68348 17.0975 8.3165 16.707 8.70703L15.4453 9.96778C15.6336 10.2862 15.7795 10.6328 15.874 11H16.5C17.1922 11 17.8688 10.7947 18.4443 10.4102C19.0198 10.0257 19.4685 9.4792 19.7334 8.83985C19.9983 8.20037 20.0676 7.49626 19.9326 6.81739C19.7976 6.13848 19.4641 5.51486 18.9746 5.02539C18.4851 4.53595 17.8615 4.20243 17.1826 4.06739Z" fill="#E4F2F2"/>
</svg>
