<svg width="24" height="24" viewBox="0 0 24 24" fill="none" xmlns="http://www.w3.org/2000/svg">
<path fill-rule="evenodd" clip-rule="evenodd" d="M14 1C15.3261 1 16.5975 1.52716 17.5352 2.46484C18.4728 3.40253 19 4.67392 19 6V8C19 9.85651 18.2629 11.6374 16.9502 12.9502C15.8755 14.0249 14.4868 14.7123 13 14.9268V17.6924C13.1166 17.5993 13.2366 17.5084 13.3623 17.4229C14.8148 16.4347 16.7898 16 19 16C19.5523 16 20 16.4477 20 17C20 18.9926 19.1404 20.5548 17.6377 21.5771C16.1852 22.5653 14.2102 23 12 23C9.78981 23 7.81481 22.5653 6.3623 21.5771C4.85957 20.5548 4 18.9926 4 17C4 16.4477 4.44772 16 5 16C7.21019 16 9.18519 16.4347 10.6377 17.4229C10.7634 17.5084 10.8834 17.5993 11 17.6924V14.9268C9.51317 14.7123 8.1245 14.0249 7.0498 12.9502C5.73705 11.6374 5 9.85652 5 8V6C5 5.99249 5.00081 5.98501 5.00098 5.97754C5.00212 5.76978 5.01571 5.56125 5.04297 5.35352C5.18627 4.26209 5.6857 3.24832 6.46387 2.46973C7.24208 1.69115 8.2553 1.19072 9.34668 1.04688C10.2509 0.927723 11.1664 1.05956 11.9961 1.4209C12.6222 1.14676 13.3033 1 14 1ZM6.12891 18.0459C6.34078 18.8487 6.80893 19.4613 7.4873 19.9229C8.28671 20.4667 9.42532 20.8301 10.8701 20.9531C10.6581 20.1509 10.1907 19.5385 9.5127 19.0771C8.7131 18.5332 7.5742 18.1689 6.12891 18.0459ZM17.8701 18.0459C16.4253 18.1689 15.2867 18.5333 14.4873 19.0771C13.8092 19.5385 13.3409 20.1508 13.1289 20.9531C14.5742 20.8301 15.7131 20.4668 16.5127 19.9229C17.191 19.4613 17.6582 18.8486 17.8701 18.0459ZM14 3C13.6563 3 13.3199 3.0624 13.002 3.1748C14.1647 3.58719 14.9978 4.69325 14.999 5.99707L15 5.99902C15.0011 7.09968 14.6389 8.17008 13.9697 9.04395C13.3003 9.91793 12.361 10.5473 11.2979 10.833C10.2349 11.1187 9.10707 11.0455 8.08984 10.625C7.9259 10.5572 7.76703 10.4797 7.6123 10.3955C7.83894 10.8103 8.12457 11.1949 8.46484 11.5352C9.40253 12.4728 10.6739 13 12 13C13.3261 13 14.5975 12.4728 15.5352 11.5352C16.4728 10.5975 17 9.32608 17 8V6C17 5.20435 16.6837 4.44152 16.1211 3.87891C15.6289 3.38671 14.9835 3.08291 14.2969 3.01465L14 3ZM9.99512 3.00586C9.86635 3.00602 9.73716 3.01235 9.6084 3.0293C8.9536 3.11559 8.34486 3.41571 7.87793 3.88281C7.41107 4.34991 7.11142 4.9585 7.02539 5.61328C6.93945 6.26798 7.07202 6.93314 7.40234 7.50488C7.73286 8.07668 8.2432 8.52397 8.85352 8.77637C9.4638 9.0287 10.1405 9.07269 10.7783 8.90137C10.8563 8.8804 10.9331 8.85612 11.0088 8.8291C9.83954 8.41947 9 7.30912 9 6C9 5.98924 9.00086 5.97851 9.00098 5.96777C9.0079 4.89371 9.35894 3.85654 9.99512 3.00586ZM12 5C11.4477 5 11 5.44772 11 6C11 6.55228 11.4477 7 12 7C12.5523 7 13 6.55228 13 6C13 5.44772 12.5523 5 12 5Z" fill="#E4F2F2"/>
</svg>
