<svg width="24" height="24" viewBox="0 0 24 24" fill="none" xmlns="http://www.w3.org/2000/svg">
<path fill-rule="evenodd" clip-rule="evenodd" d="M13.4697 1.30518C14.2005 1.00254 15.0045 0.923327 15.7803 1.07764C16.5562 1.23199 17.2687 1.61297 17.8281 2.17236C18.3875 2.73175 18.7685 3.44436 18.9229 4.22022C19.0771 4.99593 18.9979 5.80004 18.6953 6.53076C18.4608 7.09692 18.0989 7.5985 17.6426 8.00049C18.0989 8.40252 18.4608 8.90401 18.6953 9.47022C18.9979 10.201 19.0771 11.0051 18.9229 11.7808C18.7685 12.5566 18.3875 13.2693 17.8281 13.8286C17.2687 14.3879 16.5561 14.769 15.7803 14.9233C15.0045 15.0776 14.2005 14.9984 13.4697 14.6958C13.3072 14.6285 13.151 14.5489 13 14.4614V17.6919C13.1165 17.599 13.2367 17.5088 13.3623 17.4233C14.8148 16.4352 16.7898 16.0005 19 16.0005C19.5523 16.0005 20 16.4482 20 17.0005C19.9999 18.993 19.1404 20.5554 17.6377 21.5776C16.1852 22.5657 14.2101 23.0005 12 23.0005L11.5889 22.9946C9.54532 22.9433 7.72411 22.504 6.3623 21.5776C4.85964 20.5554 4.00009 18.993 4 17.0005C4 16.4482 4.44772 16.0005 5 16.0005C7.21019 16.0005 9.18519 16.4352 10.6377 17.4233C10.7633 17.5088 10.8835 17.599 11 17.6919V14.4614C10.849 14.5489 10.6928 14.6285 10.5303 14.6958C9.79951 14.9984 8.99547 15.0776 8.21973 14.9233C7.44387 14.769 6.73126 14.3879 6.17188 13.8286C5.61254 13.2693 5.23153 12.5566 5.07715 11.7808C4.92286 11.0051 5.00214 10.201 5.30469 9.47022C5.53912 8.90424 5.90035 8.40244 6.35645 8.00049C5.90035 7.59858 5.53915 7.09669 5.30469 6.53076C5.00209 5.80004 4.92292 4.99593 5.07715 4.22022C5.23148 3.44436 5.61255 2.73175 6.17188 2.17236C6.73127 1.61297 7.44382 1.23199 8.21973 1.07764C8.99553 0.923327 9.79946 1.00254 10.5303 1.30518C11.0963 1.53964 11.5981 1.90079 12 2.35693C12.4019 1.90079 12.9037 1.53964 13.4697 1.30518ZM6.12891 18.0464C6.34082 18.849 6.80901 19.4618 7.4873 19.9233C8.2867 20.4671 9.42541 20.8306 10.8701 20.9536C10.6581 20.1515 10.1907 19.539 9.5127 19.0776C8.7131 18.5337 7.57419 18.1694 6.12891 18.0464ZM17.8701 18.0464C16.4253 18.1694 15.2867 18.5338 14.4873 19.0776C13.8093 19.539 13.3409 20.1513 13.1289 20.9536C14.5741 20.8306 15.7131 20.4672 16.5127 19.9233C17.1909 19.4619 17.6582 18.8489 17.8701 18.0464ZM8.85254 9.00537C8.50886 9.03074 8.17657 9.14504 7.88867 9.3374C7.55995 9.55711 7.3037 9.8696 7.15234 10.2349C7.00106 10.6002 6.96093 11.0032 7.03809 11.3911C7.11534 11.7788 7.30639 12.135 7.58594 12.4146C7.86553 12.6941 8.22162 12.8852 8.60938 12.9624C8.99728 13.0395 9.40022 12.9995 9.76562 12.8481C10.1309 12.6968 10.4434 12.4405 10.6631 12.1118C10.8554 11.824 10.9687 11.4915 10.9941 11.148L11 11.0005V10.8257C10.1487 10.5244 9.47622 9.85177 9.1748 9.00049H9L8.85254 9.00537ZM14.8252 9.00049C14.5238 9.85177 13.8513 10.5244 13 10.8257V11.0005L13.0059 11.148C13.0313 11.4915 13.1446 11.824 13.3369 12.1118C13.5566 12.4405 13.8691 12.6968 14.2344 12.8481C14.5998 12.9995 15.0027 13.0396 15.3906 12.9624C15.7784 12.8852 16.1345 12.6941 16.4141 12.4146C16.6936 12.135 16.8847 11.7788 16.9619 11.3911C17.0391 11.0032 16.9989 10.6002 16.8477 10.2349C16.6963 9.8696 16.4401 9.55711 16.1113 9.3374C15.7824 9.11764 15.3956 9.00049 15 9.00049H14.8252ZM12 7.00049C11.4477 7.00049 11 7.4482 11 8.00049C11.0002 8.55263 11.4478 9.00049 12 9.00049C12.5522 9.00049 12.9998 8.55263 13 8.00049C13 7.4482 12.5523 7.00049 12 7.00049ZM9.76562 3.15283C9.40017 3.00146 8.99734 2.9614 8.60938 3.03857C8.22158 3.1158 7.86554 3.30682 7.58594 3.58643C7.3064 3.86602 7.11529 4.22211 7.03809 4.60986C6.96099 4.99774 7.00101 5.40075 7.15234 5.76611C7.30374 6.13132 7.55996 6.44392 7.88867 6.66357C8.21754 6.88328 8.6045 7.00049 9 7.00049H9.17383C9.47511 6.14877 10.1483 5.47571 11 5.17432V5.00049C11 4.60501 10.8828 4.21801 10.6631 3.88916C10.4434 3.5604 10.1309 3.30422 9.76562 3.15283ZM15.3906 3.03857C15.0027 2.9614 14.5998 3.00146 14.2344 3.15283C13.8691 3.30422 13.5566 3.5604 13.3369 3.88916C13.1172 4.21801 13 4.60501 13 5.00049V5.17432C13.8517 5.47571 14.5249 6.14877 14.8262 7.00049H15C15.3955 7.00049 15.7825 6.88328 16.1113 6.66357C16.44 6.44392 16.6963 6.13132 16.8477 5.76611C16.999 5.40075 17.039 4.99774 16.9619 4.60986C16.8847 4.22211 16.6936 3.86602 16.4141 3.58643C16.1345 3.30682 15.7784 3.1158 15.3906 3.03857Z" fill="#E4F2F2"/>
</svg>
