<svg width="24" height="24" viewBox="0 0 24 24" fill="none" xmlns="http://www.w3.org/2000/svg">
<path fill-rule="evenodd" clip-rule="evenodd" d="M13.4697 1.30516C14.2005 1.00257 15.0045 0.923321 15.7803 1.07762C16.5561 1.23201 17.2688 1.61302 17.8281 2.17235C18.3874 2.73171 18.7686 3.44442 18.9229 4.2202C19.0771 4.99589 18.9979 5.80005 18.6953 6.53075C18.4608 7.09694 18.099 7.59846 17.6426 8.00047C18.0989 8.40248 18.4608 8.90407 18.6953 9.4702C18.9978 10.2009 19.0772 11.0051 18.9229 11.7807C18.7685 12.5566 18.3875 13.2692 17.8281 13.8286C17.2688 14.388 16.5561 14.769 15.7803 14.9233C15.0046 15.0776 14.2005 14.9983 13.4697 14.6958C13.3073 14.6285 13.1509 14.5488 13 14.4614V17.0005H16C16.5522 17.0006 17 17.4483 17 18.0005C16.9998 18.5525 16.5521 19.0003 16 19.0005H15.7803L14.9697 22.2427C14.8584 22.6876 14.4587 23.0003 14 23.0005H10C9.54127 23.0005 9.14171 22.6876 9.03029 22.2427L8.21974 19.0005H8.00001C7.44783 19.0005 7.00018 18.5526 7.00001 18.0005C7.00001 17.4482 7.44773 17.0005 8.00001 17.0005H11V14.4614C10.849 14.5489 10.6928 14.6285 10.5303 14.6958C9.79959 14.9984 8.99543 15.0775 8.21974 14.9233C7.44396 14.769 6.73125 14.3878 6.17189 13.8286C5.61256 13.2693 5.23155 12.5565 5.07716 11.7807C4.92286 11.005 5.00212 10.201 5.3047 9.4702C5.53916 8.90416 5.90029 8.40244 6.35646 8.00047C5.90039 7.59859 5.53917 7.09663 5.3047 6.53075C5.0021 5.80001 4.92292 4.99593 5.07716 4.2202C5.2315 3.44428 5.61248 2.73176 6.17189 2.17235C6.7313 1.61294 7.44382 1.23196 8.21974 1.07762C8.99547 0.923373 9.79955 1.00255 10.5303 1.30516C11.0962 1.53962 11.5981 1.90085 12 2.35692C12.402 1.90075 12.9037 1.53962 13.4697 1.30516ZM10.2803 19.0005L10.7803 21.0005H13.2197L13.7197 19.0005H10.2803ZM8.85158 9.00535C8.50816 9.03082 8.17638 9.14517 7.88869 9.33739C7.5599 9.5571 7.30374 9.86953 7.15236 10.2348C7.00104 10.6003 6.96094 11.0032 7.0381 11.3911C7.11536 11.7788 7.30642 12.135 7.58595 12.4145C7.86552 12.694 8.22171 12.8852 8.60939 12.9624C8.99724 13.0395 9.4003 12.9995 9.76564 12.8481C10.1309 12.6968 10.4434 12.4405 10.6631 12.1118C10.8554 11.824 10.9687 11.4915 10.9942 11.1479L11 11.0005V10.8247C10.1487 10.5234 9.47625 9.8517 9.17482 9.00047H9.00001L8.85158 9.00535ZM14.8252 9.00047C14.5239 9.8515 13.851 10.5222 13 10.8237V11.0005L13.0049 11.1479C13.0303 11.4915 13.1446 11.824 13.3369 12.1118C13.5566 12.4404 13.8692 12.6968 14.2344 12.8481C14.5997 12.9994 15.0028 13.0395 15.3906 12.9624C15.7784 12.8851 16.1345 12.6941 16.4141 12.4145C16.6936 12.135 16.8847 11.7788 16.9619 11.3911C17.0391 11.0033 16.9989 10.6002 16.8477 10.2348C16.6963 9.86966 16.44 9.55708 16.1113 9.33739C15.7825 9.11768 15.3955 9.00053 15 9.00047H14.8252ZM12 7.00047C11.4477 7.00047 11 7.44819 11 8.00047C11.0002 8.55262 11.4478 9.00047 12 9.00047C12.5521 9.00031 12.9999 8.55252 13 8.00047C13 7.44829 12.5522 7.00064 12 7.00047ZM9.76564 3.15282C9.40026 3.00147 8.99728 2.96145 8.60939 3.03856C8.22157 3.11578 7.86557 3.30679 7.58595 3.58641C7.30633 3.86603 7.11532 4.22203 7.0381 4.60985C6.96099 4.99774 7.00101 5.40072 7.15236 5.7661C7.30376 6.13126 7.56001 6.44392 7.88869 6.66356C8.21751 6.88317 8.60459 7.00047 9.00001 7.00047H9.17384C9.47517 6.14871 10.1483 5.47563 11 5.1743V5.00047C11 4.60505 10.8827 4.21797 10.6631 3.88914C10.4435 3.56046 10.1308 3.30421 9.76564 3.15282ZM15.3906 3.03856C15.0027 2.9614 14.5998 3.00149 14.2344 3.15282C13.8691 3.3042 13.5566 3.56035 13.3369 3.88914C13.1172 4.21803 13 4.60494 13 5.00047V5.1743C13.8515 5.47571 14.5239 6.14894 14.8252 7.00047H15C15.3955 7.00041 15.7825 6.88327 16.1113 6.66356C16.4401 6.44388 16.6963 6.13132 16.8477 5.7661C16.999 5.40076 17.039 4.9977 16.9619 4.60985C16.8847 4.22217 16.6935 3.86598 16.4141 3.58641C16.1345 3.30688 15.7783 3.11582 15.3906 3.03856Z" fill="#E4F2F2"/>
</svg>
