<svg width="24" height="24" viewBox="0 0 24 24" fill="none" xmlns="http://www.w3.org/2000/svg">
<path fill-rule="evenodd" clip-rule="evenodd" d="M21.293 13.293C21.6835 12.9024 22.3165 12.9024 22.707 13.293C23.0976 13.6835 23.0976 14.3165 22.707 14.707L22.4131 14.999L22.707 15.293C23.0976 15.6835 23.0976 16.3165 22.707 16.707C22.3165 17.0976 21.6835 17.0976 21.293 16.707L20.999 16.4131L18.7041 18.709C18.8913 19.1005 19 19.5371 19 20C19 21.6569 17.6569 23 16 23C14.3431 23 13 21.6569 13 20C13 18.3431 14.3431 17 16 17C16.4625 17 16.8988 17.108 17.29 17.2949L21.293 13.293ZM16 19C15.4477 19 15 19.4477 15 20C15 20.5523 15.4477 21 16 21C16.5523 21 17 20.5523 17 20C17 19.4477 16.5523 19 16 19Z" fill="#E4F2F2"/>
<path d="M7.90039 2.00098C8.39863 1.99778 8.89021 2.11829 9.33008 2.35254C9.76927 2.58653 10.1427 2.92637 10.418 3.34082L11.2285 4.54102L11.2354 4.5498C11.3264 4.68804 11.45 4.80233 11.5957 4.88086C11.7414 4.95938 11.9048 4.99997 12.0703 5H20C20.7956 5 21.5585 5.31633 22.1211 5.87891C22.6836 6.44149 23 7.20441 23 8V10C22.9999 10.5522 22.5523 11 22 11C21.4477 11 21.0001 10.5522 21 10V8C21 7.73484 20.8945 7.48048 20.707 7.29297C20.5195 7.10546 20.2652 7 20 7H12.0703C11.5737 6.99992 11.0846 6.87619 10.6475 6.64062C10.2103 6.40502 9.83761 6.06514 9.56445 5.65039L8.76074 4.45996L8.75488 4.4502C8.66291 4.31052 8.53725 4.1958 8.38965 4.11719C8.24215 4.03865 8.07725 3.99842 7.91016 4H4C3.73481 4 3.4805 4.10546 3.29297 4.29297C3.10549 4.48048 3.00003 4.73484 3 5V18C3.00003 18.2652 3.10548 18.5195 3.29297 18.707C3.4805 18.8945 3.73481 19 4 19H10C10.5523 19 10.9999 19.4478 11 20C10.9999 20.5522 10.5523 21 10 21H4C3.20437 21 2.44151 20.6837 1.87891 20.1211C1.31635 19.5585 1.00003 18.7956 1 18V5C1.00003 4.20441 1.31635 3.44149 1.87891 2.87891C2.44151 2.31633 3.20437 2 4 2L7.90039 2.00098Z" fill="#E4F2F2"/>
</svg>
