<svg width="24" height="24" viewBox="0 0 24 24" fill="none" xmlns="http://www.w3.org/2000/svg">
<path d="M7.90089 2.00098C8.39899 1.99785 8.89083 2.11835 9.33058 2.35254C9.76963 2.58653 10.1433 2.92647 10.4185 3.34082L11.229 4.54102L11.2359 4.5498C11.3269 4.68795 11.4506 4.80237 11.5962 4.88086C11.7418 4.95926 11.9054 4.99997 12.0708 5H20.0005C20.796 5.00011 21.5591 5.31643 22.1216 5.87891C22.684 6.44147 23.0005 7.20451 23.0005 8V18C23.0005 18.7955 22.684 19.5585 22.1216 20.1211C21.5591 20.6836 20.796 20.9999 20.0005 21H4.0005C3.33036 21.0141 2.674 20.8038 2.13722 20.4014C1.59206 19.9925 1.20188 19.4099 1.03175 18.75C0.893955 18.2152 1.21666 17.669 1.75148 17.5312C2.286 17.3941 2.83153 17.7165 2.96925 18.251C3.02602 18.4707 3.15585 18.6646 3.33741 18.8008C3.51912 18.937 3.74229 19.0082 3.96925 19.001C3.97953 19.0006 3.99022 19 4.0005 19H20.0005C20.2656 18.9999 20.5201 18.8945 20.7075 18.707C20.8949 18.5195 21.0005 18.2651 21.0005 18V8C21.0005 7.73494 20.8949 7.48046 20.7075 7.29297C20.5201 7.10556 20.2655 7.00011 20.0005 7H12.0708C11.5743 6.99992 11.085 6.87607 10.648 6.64062C10.2108 6.40506 9.8381 6.06506 9.56495 5.65039L8.76124 4.45996L8.75538 4.4502C8.66348 4.31062 8.53761 4.1958 8.39015 4.11719C8.24277 4.03872 8.07761 3.99849 7.91066 4H4.0005C3.73538 4 3.48098 4.10556 3.29347 4.29297C3.10596 4.48048 3.00053 4.73482 3.0005 5V7.5C3.00045 8.0521 2.55256 8.49977 2.0005 8.5C1.44825 8.5 1.00055 8.05224 1.0005 7.5V5C1.00053 4.20439 1.31682 3.44149 1.87941 2.87891C2.442 2.31643 3.20495 2 4.0005 2L7.90089 2.00098Z" fill="#E4F2F2"/>
<path d="M4.29347 9.29297C4.68401 8.90265 5.31708 8.90251 5.70753 9.29297C6.09778 9.68344 6.09778 10.3166 5.70753 10.707L4.41456 12H12.0005C12.5526 12.0002 13.0005 12.4479 13.0005 13C13.0005 13.5521 12.5526 13.9998 12.0005 14H4.41456L5.70753 15.293C6.09778 15.6834 6.09778 16.3166 5.70753 16.707C5.31708 17.0975 4.68401 17.0973 4.29347 16.707L1.30226 13.7158C1.18317 13.5997 1.09307 13.4543 1.04347 13.291C0.985902 13.1012 0.985721 12.8977 1.04347 12.708C1.09319 12.5449 1.18315 12.3992 1.30226 12.2832L4.29347 9.29297Z" fill="#E4F2F2"/>
</svg>
