<svg width="24" height="24" viewBox="0 0 24 24" fill="none" xmlns="http://www.w3.org/2000/svg">
<path d="M10.293 10.2934C10.6835 9.90291 11.3165 9.90291 11.707 10.2934L13.707 12.2934C14.0974 12.684 14.0975 13.317 13.707 13.7075C13.3165 14.0979 12.6835 14.0978 12.293 13.7075L10.293 11.7075C9.90246 11.317 9.90251 10.684 10.293 10.2934Z" fill="#E4F2F2"/>
<path fill-rule="evenodd" clip-rule="evenodd" d="M15.0937 1.10593C16.5622 0.948631 17.9044 0.971085 19.0107 1.15086C20.0725 1.32344 21.0807 1.66714 21.707 2.29343C22.3211 2.9076 22.6959 3.89897 22.8848 4.978C23.0802 6.0952 23.1024 7.45243 22.8896 8.94187C22.4646 11.9168 21.1855 15.3285 18.207 18.3071C15.243 21.2711 11.83 22.6706 8.80663 22.9946C7.33818 23.1519 5.99595 23.1294 4.88963 22.9497C3.82784 22.7771 2.81972 22.4334 2.19334 21.8071C1.57917 21.1929 1.20349 20.2017 1.01463 19.1225C0.822499 18.0246 0.797843 16.6951 0.999008 15.2358C0.99553 15.1378 1.00806 15.0376 1.03514 14.938C1.04053 14.9182 1.04721 14.8985 1.0537 14.8794C1.51792 11.9716 2.80759 8.67923 5.69334 5.79343C8.65742 2.82945 12.0704 1.42986 15.0937 1.10593ZM2.87889 16.561C2.83145 17.4072 2.87668 18.1569 2.98534 18.7778C3.14648 19.6985 3.42159 20.2072 3.60741 20.393C3.78118 20.5667 4.27318 20.8227 5.21092 20.9751C5.82414 21.0747 6.56175 21.1174 7.39452 21.0893C6.58481 19.0498 4.95244 17.4372 2.87889 16.561ZM14.5801 3.19773C12.1794 3.60784 9.49882 4.81617 7.10741 7.2075C4.78901 9.52593 3.64437 12.1317 3.15135 14.519C4.30047 14.9392 5.35899 15.5438 6.28221 16.3022L7.68456 14.8989L7.39256 14.6069C7.00234 14.2164 7.00214 13.5833 7.39256 13.1928C7.78299 12.8024 8.41608 12.8026 8.80663 13.1928L10.8066 15.1928C11.1971 15.5834 11.1971 16.2164 10.8066 16.6069C10.4161 16.9974 9.78309 16.9974 9.39256 16.6069L9.09862 16.313L7.69725 17.7153C8.45859 18.6419 9.05606 19.7072 9.4453 20.8803C11.8137 20.45 14.4431 19.2428 16.793 16.893C19.1676 14.5183 20.3084 11.8418 20.7812 9.40769C19.6625 9.01742 18.6251 8.43615 17.7168 7.69578L16.3135 9.10007L16.6064 9.39304C16.997 9.78357 16.997 10.4166 16.6064 10.8071C16.2159 11.1975 15.5828 11.1976 15.1924 10.8071L13.1924 8.80711C12.8022 8.41662 12.8021 7.78348 13.1924 7.39304C13.5828 7.00262 14.2159 7.00282 14.6064 7.39304L14.8994 7.68601L16.2998 6.28464C15.5577 5.38133 14.9698 4.34089 14.5801 3.19773ZM18.6894 3.12449C18.1101 3.03037 17.4194 2.98632 16.6426 3.00535C17.4622 4.99673 19.0619 6.55505 21.0283 7.36277C21.0603 6.58877 21.016 5.90005 20.915 5.32273C20.7539 4.40227 20.4788 3.89347 20.293 3.7075C20.1194 3.5339 19.6274 3.27693 18.6894 3.12449Z" fill="#E4F2F2"/>
</svg>
