<svg width="24" height="24" viewBox="0 0 24 24" fill="none" xmlns="http://www.w3.org/2000/svg">
<path fill-rule="evenodd" clip-rule="evenodd" d="M16.5005 5C18.4293 5.0001 19.8308 6.07137 20.7094 7.43945C21.5736 8.78498 21.9837 10.4765 22.0005 11.9883L21.9927 12.4971C21.9454 13.6424 21.6977 14.4979 21.4682 15.2461C21.2092 16.0909 21.0005 16.7323 21.0005 17.6201V20C21.0005 20.7956 20.6841 21.5585 20.1216 22.1211C19.559 22.6836 18.796 22.9999 18.0005 23C17.2049 23 16.442 22.6836 15.8794 22.1211C15.3872 21.6289 15.0834 20.9835 15.0151 20.2969L15.0005 20V18.1797C15.0004 16.8716 14.5686 15.6422 14.0581 14.209C13.5661 12.8277 13.0005 11.254 13.0005 9.5C13.0005 8.55234 13.1718 7.47749 13.688 6.60352C14.2379 5.67248 15.1721 5 16.5005 5ZM17.0005 18.1797V20C17.0005 20.2652 17.1059 20.5195 17.2934 20.707C17.481 20.8945 17.7353 21 18.0005 21C18.2656 20.9999 18.52 20.8945 18.7075 20.707C18.8949 20.5195 19.0005 20.2652 19.0005 20V18H16.9966C16.9979 18.0597 17.0005 18.1196 17.0005 18.1797ZM16.5005 7C15.9591 7 15.6432 7.22746 15.4106 7.62109C15.1443 8.07212 15.0005 8.74766 15.0005 9.5C15.0005 10.8558 15.4349 12.112 15.9428 13.5381C16.2155 14.3035 16.5086 15.1263 16.7182 16H19.1811C19.2896 15.5075 19.4303 15.0694 19.5561 14.6592C19.8014 13.8594 20.0136 13.1035 20.0005 12.0117C19.9871 10.8039 19.6523 9.49465 19.0268 8.52051C18.4156 7.56877 17.5813 7.00009 16.5005 7Z" fill="#E4F2F2"/>
<path fill-rule="evenodd" clip-rule="evenodd" d="M7.50046 1C8.82852 1.00011 9.76203 1.67266 10.312 2.60352C10.8281 3.47749 11.0005 4.55234 11.0005 5.5C11.0005 7.2541 10.4339 8.82762 9.94187 10.209C9.43138 11.6422 9.00053 12.8716 9.00046 14.1797V16C9.00046 16.7956 8.68406 17.5585 8.12156 18.1211C7.55903 18.6836 6.79598 18.9999 6.00046 19C5.20484 19 4.44099 18.6837 3.87839 18.1211C3.31601 17.5585 3.00046 16.7955 3.00046 16V13.6201C3.00046 12.7323 2.79173 12.0908 2.53269 11.2461C2.2705 10.3911 1.98361 9.39619 2.00046 7.98828C2.01726 6.4765 2.42733 4.78499 3.29148 3.43945C4.17018 2.0714 5.57159 1.00002 7.50046 1ZM5.00046 14V16L5.00535 16.0986C5.02804 16.3276 5.12932 16.5429 5.29343 16.707C5.48094 16.8944 5.73535 17 6.00046 17C6.26554 16.9999 6.52004 16.8945 6.7075 16.707C6.87155 16.5429 6.9729 16.3276 6.99558 16.0986L7.00046 16V14.1797C7.00047 14.1196 7.003 14.0597 7.00437 14H5.00046ZM7.50046 3C6.41951 3.00002 5.58538 3.56871 4.9741 4.52051C4.34848 5.49467 4.01384 6.80283 4.00046 8.01074C3.98736 9.10259 4.19954 9.85934 4.4448 10.6592C4.57059 11.0694 4.71137 11.5075 4.8198 12H7.28269C7.49237 11.1263 7.78545 10.3035 8.05808 9.53809C8.56602 8.11204 9.00046 6.85579 9.00046 5.5C9.00046 4.74769 8.85665 4.07212 8.59031 3.62109C8.35781 3.22743 8.04174 3.00009 7.50046 3Z" fill="#E4F2F2"/>
</svg>
