<svg width="24" height="24" viewBox="0 0 24 24" fill="none" xmlns="http://www.w3.org/2000/svg">
<path d="M7.00977 13C7.56205 13 8.00977 13.4477 8.00977 14C8.00977 14.5523 7.56205 15 7.00977 15H7C6.44772 15 6 14.5523 6 14C6 13.4477 6.44772 13 7 13H7.00977Z" fill="#E4F2F2"/>
<path fill-rule="evenodd" clip-rule="evenodd" d="M12 1C16.954 1 21.1233 4.29898 22.5508 8.69043C22.5661 8.73771 22.5778 8.7869 22.5859 8.83594C22.6665 9.31968 22.613 9.9046 22.209 10.376C21.8055 10.8466 21.2276 11 20.7002 11H13.9004C12.7527 11 11.9004 11.8523 11.9004 13H20C20.7957 13 21.5585 13.3163 22.1211 13.8789C22.6837 14.4415 23 15.2043 23 16V20C23 20.7957 22.6837 21.5585 22.1211 22.1211C21.5585 22.6837 20.7957 23 20 23C17.3515 23 15.1437 21.3471 14.333 19H11.1777C11.023 19.2374 10.8424 19.4656 10.6318 19.6797C10.6278 19.6841 10.6242 19.689 10.6201 19.6934C10.6157 19.6978 10.6118 19.7026 10.6074 19.707L10.6064 19.7061C8.86466 21.5507 6.04336 21.3333 4.31934 19.7324C4.3104 19.7241 4.3016 19.7157 4.29297 19.707C2.11537 17.5294 1 14.8789 1 12C1 5.94772 5.94772 1 12 1ZM16.5186 19C17.1991 20.205 18.4867 21 20 21C20.2652 21 20.5195 20.8946 20.707 20.707C20.8946 20.5195 21 20.2652 21 20V19H16.5186ZM12 3C7.05228 3 3 7.05228 3 12C3 14.3142 3.8799 16.4574 5.69141 18.2764C6.75878 19.258 8.30947 19.2428 9.16699 18.3193C9.17539 18.3103 9.18464 18.3017 9.19336 18.293C9.67856 17.8077 9.90039 17.1757 9.90039 16.5V13C9.90039 10.7477 11.6481 9 13.9004 9H20.541C19.2771 5.54784 15.9293 3 12 3ZM16 17H21V16C21 15.7348 20.8946 15.4805 20.707 15.293C20.5195 15.1054 20.2652 15 20 15H16V17ZM11.9004 16.5C11.9004 16.6661 11.8911 16.833 11.874 17H14V15H11.9004V16.5Z" fill="#E4F2F2"/>
</svg>
