<svg width="24" height="24" viewBox="0 0 24 24" fill="none" xmlns="http://www.w3.org/2000/svg">
<path fill-rule="evenodd" clip-rule="evenodd" d="M16 1C16.5523 1 17 1.44772 17 2V18H22C22.5523 18 23 18.4477 23 19C23 19.5523 22.5523 20 22 20H16C15.9423 20 15.886 19.9937 15.8311 19.9844C15.4233 21.1571 14.3116 22 13 22C11.6941 22 10.5859 21.1647 10.1738 20H8C7.94234 20 7.88605 19.9937 7.83105 19.9844C7.42333 21.1571 6.31162 22 5 22C3.34315 22 2 20.6569 2 19V14C2 13.2044 2.3163 12.4415 2.87891 11.8789C3.44151 11.3163 4.20435 11 5 11V7C5 5.34772 6.34772 4 8 4H11C11.2652 4 11.5195 4.10543 11.707 4.29297L15 7.58594V2C15 1.44772 15.4477 1 16 1ZM5 18C4.44772 18 4 18.4477 4 19C4 19.5523 4.44772 20 5 20C5.55228 20 6 19.5523 6 19C6 18.4477 5.55228 18 5 18ZM13 18C12.4477 18 12 18.4477 12 19C12 19.5523 12.4477 20 13 20C13.5523 20 14 19.5523 14 19C14 18.4477 13.5523 18 13 18ZM8 6C7.45228 6 7 6.45228 7 7V11H12C12.5523 11 13 11.4477 13 12C13 12.5523 12.5523 13 12 13H5C4.73478 13 4.48051 13.1054 4.29297 13.293C4.10543 13.4805 4 13.7348 4 14V16.1738C4.31306 16.0631 4.649 16 5 16C6.3113 16 7.42308 16.8424 7.83105 18.0146C7.886 18.0053 7.94239 18 8 18H10.1738C10.5859 16.8353 11.6941 16 13 16C13.7692 16 14.469 16.2916 15 16.7676V10.4141L10.5859 6H8Z" fill="#E4F2F2"/>
</svg>
