<svg width="24" height="24" viewBox="0 0 24 24" fill="none" xmlns="http://www.w3.org/2000/svg">
<path fill-rule="evenodd" clip-rule="evenodd" d="M15.293 1.29345C15.6834 0.903036 16.3165 0.903119 16.707 1.29345C17.0972 1.68399 17.0974 2.31709 16.707 2.70752L14.4141 5.00049C14.0477 5.37432 13.8428 5.87747 13.8428 6.40088C13.8429 6.92401 14.0479 7.42662 14.4141 7.80029L14.5996 7.98584L18.293 4.29345C18.6835 3.90293 19.3165 3.90293 19.707 4.29345C20.0974 4.68399 20.0975 5.31703 19.707 5.70752L16.0137 9.3999L16.2002 9.58642L16.3467 9.71631C16.7004 10.0008 17.1428 10.1577 17.6006 10.1577C18.1238 10.1576 18.6263 9.95261 19 9.58642L21.293 7.29345C21.6834 6.90304 22.3165 6.90312 22.707 7.29345C23.0972 7.68399 23.0974 8.31709 22.707 8.70752L20.4072 11.0073L20.4004 11.0151L20.3994 11.0142C19.6519 11.7468 18.6473 12.1576 17.6006 12.1577C16.5537 12.1577 15.5485 11.7469 14.8008 11.0142L14.793 11.0073L14.5996 10.814L13.4141 12.0005L22.707 21.2935C23.0973 21.684 23.0974 22.3171 22.707 22.7075C22.3166 23.0978 21.6835 23.0977 21.293 22.7075L14.999 16.4136L14.1064 17.3071C14.0909 17.3227 14.0752 17.3385 14.0586 17.353C12.9089 18.3588 11.007 18.4215 9.89258 17.3071L8.99805 16.4126L2.80078 22.5132C2.40719 22.9001 1.77399 22.8958 1.38672 22.5024C0.999456 22.109 1.00519 21.4748 1.39844 21.0874L7.58301 14.9976L2.59277 10.0073C2.10238 9.5248 1.71189 8.94925 1.44531 8.31494C1.17734 7.67719 1.03907 6.99205 1.03906 6.30029C1.03906 5.60854 1.17736 4.92338 1.44531 4.28564C1.71322 3.64817 2.10577 3.07042 2.59961 2.58642C2.99121 2.20274 3.61912 2.20568 4.00684 2.59326L12 10.5864L13.1855 9.3999L12.9863 9.20068C12.2536 8.45312 11.8429 7.44766 11.8428 6.40088C11.8428 5.35386 12.2534 4.34781 12.9863 3.60009L15.293 1.29345ZM3.28906 5.06103C3.12426 5.45339 3.03906 5.87473 3.03906 6.30029C3.03907 6.72587 3.12425 7.14718 3.28906 7.53955C3.43333 7.88286 3.63657 8.19821 3.88867 8.47119L4 8.58642L11.3066 15.8931C11.5884 16.1748 12.2719 16.2389 12.7227 15.8618L13.585 14.9995L3.40332 4.81787C3.36196 4.897 3.32376 4.97845 3.28906 5.06103Z" fill="#E4F2F2"/>
</svg>
