<svg width="24" height="24" viewBox="0 0 24 24" fill="none" xmlns="http://www.w3.org/2000/svg">
<path d="M14.293 6.29297C14.6835 5.90245 15.3165 5.90245 15.707 6.29297L20.707 11.293C20.7548 11.3408 20.7976 11.3935 20.835 11.4502C20.8597 11.4877 20.8812 11.5266 20.9004 11.5664C20.9222 11.6116 20.9412 11.6584 20.9561 11.707C20.9623 11.7273 20.9668 11.748 20.9717 11.7686C20.9893 11.8429 21 11.9202 21 12C21 12.083 20.9878 12.1631 20.9688 12.2402C20.9646 12.2572 20.9611 12.2743 20.9561 12.291C20.9412 12.34 20.9223 12.3871 20.9004 12.4326C20.8804 12.4743 20.8572 12.5146 20.8311 12.5537C20.7944 12.6086 20.7536 12.6605 20.707 12.707L15.707 17.707C15.3165 18.0975 14.6835 18.0975 14.293 17.707C13.9025 17.3165 13.9025 16.6835 14.293 16.293L17.5859 13H8C7.20435 13 6.44152 13.3163 5.87891 13.8789C5.31632 14.4415 5 15.2044 5 16V18C4.99996 18.5523 4.55226 19 4 19C3.44774 19 3.00004 18.5523 3 18V16C3 14.6739 3.52719 13.4025 4.46484 12.4648C5.40253 11.5272 6.67392 11 8 11H17.5859L14.293 7.70703C13.9025 7.31652 13.9025 6.6835 14.293 6.29297Z" fill="#E4F2F2"/>
</svg>
