<svg width="24" height="24" viewBox="0 0 24 24" fill="none" xmlns="http://www.w3.org/2000/svg">
<path d="M9 8C9.55224 8.00005 10 8.44775 10 9V9.5C10 10.0523 9.55224 10.4999 9 10.5C8.44771 10.5 8 10.0523 8 9.5V9C8 8.44772 8.44771 8 9 8Z" fill="#E4F2F2"/>
<path d="M15 8C15.5522 8.00005 16 8.44775 16 9V9.5C16 10.0523 15.5522 10.4999 15 10.5C14.4477 10.5 14 10.0523 14 9.5V9C14 8.44772 14.4477 8 15 8Z" fill="#E4F2F2"/>
<path fill-rule="evenodd" clip-rule="evenodd" d="M20 2C20.5271 2.00007 21.0449 2.18065 21.4326 2.56836C21.8199 2.95597 21.9999 3.47314 22 4C21.9999 5.5312 21.6672 6.90155 21.083 8.16699C21.5293 8.74014 21.9272 9.36297 22.2041 10.0703C22.7838 11.1398 23 12.2981 23 13.5C23 18.9001 17.8916 22.9999 12 23C9.80135 23 7.719 22.4335 5.97168 21.4434C5.84796 21.4004 5.73167 21.3333 5.63086 21.2422C3.37029 19.8534 1.72682 17.7314 1.21972 15.1963C1.16098 14.9026 1.23692 14.5979 1.42675 14.3662C1.61669 14.1346 1.90066 14 2.20019 14H5.11914C4.71674 13.7471 4.32784 13.4858 3.96582 13.2178C3.08277 12.5639 2.24656 11.7963 1.8125 10.9619C1.68177 10.7105 1.66429 10.4148 1.76367 10.1494C2.04112 9.40955 2.45344 8.76217 2.91601 8.16797C2.3317 6.90244 2.00006 5.53132 2 4C2.00009 3.47293 2.18073 2.95603 2.56836 2.56836C2.95368 2.1831 3.46649 2.00323 3.99023 2.00098C3.99238 2.00096 3.99492 2.001 3.99707 2.00098H4C6.26069 1.98101 8.45429 2.74364 10.21 4.15332C11.4002 4.01864 12.6018 4.01947 13.792 4.1543C15.5099 2.77999 17.6175 2.00004 20 2ZM20.9258 12.4912C20.6439 12.7453 20.3427 12.9893 20.0342 13.2178C19.1239 13.8917 18.047 14.5282 17 15.0742C15.9506 15.6215 14.9089 16.0901 14.0576 16.4238C13.6327 16.5904 13.2447 16.7271 12.9209 16.8242C12.6777 16.8972 12.3869 16.9697 12.127 16.9902C12.0853 16.9955 12.0431 17 12 17L11.8975 16.9951C11.8889 16.9942 11.8805 16.9923 11.8721 16.9912C11.6123 16.9706 11.3221 16.8971 11.0791 16.8242C10.7556 16.7271 10.3679 16.5902 9.94336 16.4238C9.92229 16.4156 9.90118 16.4059 9.87988 16.3975C9.75218 17.1277 9.52402 17.8392 9.19531 18.5088C8.88772 19.1353 8.49593 19.7136 8.03808 20.2344C9.22306 20.7218 10.5644 21 12 21C17.1082 20.9999 21 17.4997 21 13.5C21 13.1439 20.9749 12.8085 20.9258 12.4912ZM3.54883 16C4.07513 17.2608 5.00573 18.3829 6.22558 19.2432C6.70475 18.7762 7.10305 18.2306 7.39941 17.627C7.65248 17.1114 7.82757 16.5631 7.9209 16H3.54883ZM4 4C4.00007 5.42031 4.35217 6.65926 4.98047 7.82617C5.17617 8.19006 5.12829 8.63744 4.85937 8.95117C4.42337 9.45985 4.07903 9.92805 3.83398 10.4062C4.11372 10.7561 4.55594 11.1659 5.15625 11.6104C5.95513 12.2018 6.9347 12.7845 7.9248 13.3008C8.91257 13.8159 9.88993 14.2546 10.6728 14.5615C10.7866 14.6061 10.8966 14.6443 11 14.6826V14L10.8975 13.9951C10.3933 13.9438 10 13.5177 10 13C10 12.4477 10.4477 12 11 12H13C13.5522 12.0001 14 12.4477 14 13C14 13.5176 13.6066 13.9437 13.1025 13.9951L13 14V14.6826C13.1034 14.6443 13.2135 14.6061 13.3271 14.5615C14.1102 14.2546 15.0873 13.8159 16.0752 13.3008C17.0655 12.7844 18.0447 12.2019 18.8437 11.6104C19.4439 11.166 19.8853 10.7561 20.165 10.4062C19.9201 9.92833 19.5763 9.45954 19.1406 8.95117C18.8718 8.63737 18.8237 8.19004 19.0195 7.82617C19.6479 6.65922 19.9999 5.42037 20 4C17.9473 4.00004 16.1802 4.70936 14.7588 5.95312C14.5397 6.14476 14.2471 6.23129 13.959 6.19043C12.6596 6.00575 11.3404 6.00573 10.041 6.19043C9.75136 6.23161 9.45768 6.14369 9.23828 5.9502C7.79665 4.6764 5.93342 3.98113 4.00976 4H4Z" fill="#E4F2F2"/>
</svg>
