<svg width="24" height="24" viewBox="0 0 24 24" fill="none" xmlns="http://www.w3.org/2000/svg">
<path fill-rule="evenodd" clip-rule="evenodd" d="M19 1C19.5523 1 20 1.44772 20 2V9C20 9.55229 19.5523 10 19 10H14.4141L19.707 15.293C19.993 15.579 20.0786 16.0091 19.9238 16.3828C19.769 16.7564 19.4044 17 19 17H13V23C13 23.4044 12.7564 23.769 12.3828 23.9238C12.0091 24.0786 11.579 23.993 11.293 23.707L4.29297 16.707C4.10543 16.5195 4 16.2652 4 16V9C4 8.44772 4.44772 8 5 8H9.58594L4.29297 2.70703C4.00697 2.42103 3.92139 1.99086 4.07617 1.61719C4.23098 1.24359 4.59558 1 5 1H19ZM11 20.5859V17H7.41406L11 20.5859ZM6 15H16.5859L11.5859 10H6V15ZM12.4141 8H18V3H7.41406L12.4141 8Z" fill="#E4F2F2"/>
</svg>
