<svg width="24" height="24" viewBox="0 0 24 24" fill="none" xmlns="http://www.w3.org/2000/svg">
<path d="M10.0098 13C10.5621 13 11.0098 13.4477 11.0098 14C11.0098 14.5523 10.5621 15 10.0098 15H10C9.44771 15 9 14.5523 9 14C9 13.4477 9.44771 13 10 13H10.0098Z" fill="#E4F2F2"/>
<path d="M14.0098 13C14.5621 13 15.0098 13.4477 15.0098 14C15.0098 14.5523 14.5621 15 14.0098 15H14C13.4477 15 13 14.5523 13 14C13 13.4477 13.4477 13 14 13H14.0098Z" fill="#E4F2F2"/>
<path d="M6.00977 6C6.56205 6 7.00977 6.44772 7.00977 7C7.00977 7.55228 6.56205 8 6.00977 8H6C5.44772 8 5 7.55228 5 7C5 6.44772 5.44772 6 6 6H6.00977Z" fill="#E4F2F2"/>
<path d="M18.0098 6C18.562 6 19.0098 6.44772 19.0098 7C19.0098 7.55228 18.562 8 18.0098 8H18C17.4477 8 17 7.55228 17 7C17 6.44772 17.4477 6 18 6H18.0098Z" fill="#E4F2F2"/>
<path fill-rule="evenodd" clip-rule="evenodd" d="M18 2C20.7614 2 23 4.23858 23 7C23 8.05907 22.6692 9.04016 22.1074 9.84863C22.6883 10.9743 22.9969 12.2245 23 13.498V13.5C23 13.5393 22.9985 13.5783 22.9971 13.6172C22.9238 18.9594 17.849 23 12 23C6.15101 23 1.07622 18.9594 1.00293 13.6172C1.00151 13.5783 1 13.5393 1 13.5V13.498L1.00586 13.2129C1.05054 12.0381 1.35316 10.8892 1.89062 9.84766C1.32953 9.03948 1 8.05838 1 7C1 4.23858 3.23858 2 6 2C7.71081 2 9.22062 2.85945 10.1221 4.16992C11.3645 3.95467 12.6345 3.95476 13.877 4.16992C14.7784 2.8592 16.289 2 18 2ZM19.4717 17.5996C17.503 18.4821 14.8574 19 12 19C9.14264 19 6.49699 18.4821 4.52832 17.5996C4.50175 17.5877 4.4757 17.5746 4.44922 17.5625C6.03052 19.601 8.77167 21 12 21C15.2281 21 17.9684 19.6008 19.5498 17.5625C19.5236 17.5745 19.498 17.5878 19.4717 17.5996ZM13.0869 6.07324C12.3647 5.98537 11.6343 5.98531 10.9121 6.07324C10.9684 6.37368 11 6.68321 11 7C11 9.76142 8.76142 12 6 12C5.06078 12 4.18238 11.7405 3.43164 11.29C3.15197 11.9897 3.0024 12.7379 3 13.498V13.5C3 14.1102 3.59648 14.9908 5.34668 15.7754C7.003 16.5178 9.3575 17 12 17C14.6425 17 16.997 16.5178 18.6533 15.7754C20.4035 14.9908 21 14.1102 21 13.5V13.498C20.9976 12.7378 20.8471 11.9898 20.5674 11.29C19.8168 11.7402 18.9389 12 18 12C15.2386 12 13 9.76142 13 7C13 6.68327 13.0306 6.37363 13.0869 6.07324ZM6 4C4.34315 4 3 5.34315 3 7C3 8.65685 4.34315 10 6 10C7.65685 10 9 8.65685 9 7C9 6.59854 8.91944 6.21619 8.77637 5.86621C8.71621 5.77877 8.66911 5.68057 8.63867 5.57324C8.13111 4.63653 7.14023 4 6 4ZM18 4C16.8581 4 15.8653 4.63811 15.3584 5.57715C15.3279 5.68294 15.2821 5.77986 15.2227 5.86621C15.0797 6.2161 15 6.59867 15 7C15 8.65685 16.3431 10 18 10C19.6569 10 21 8.65685 21 7C21 5.34315 19.6569 4 18 4Z" fill="#E4F2F2"/>
</svg>
