<svg width="24" height="24" viewBox="0 0 24 24" fill="none" xmlns="http://www.w3.org/2000/svg">
<path d="M13.4004 6.2002C13.8422 5.86896 14.4685 5.95861 14.7998 6.40039C15.131 6.84221 15.0414 7.46847 14.5996 7.7998L13.666 8.5L14.5996 9.2002C15.0414 9.53153 15.131 10.1578 14.7998 10.5996C14.4685 11.0414 13.8422 11.131 13.4004 10.7998L12 9.74902L10.5996 10.7998C10.1578 11.131 9.53153 11.0414 9.2002 10.5996C8.86896 10.1578 8.95861 9.53153 9.40039 9.2002L10.334 8.5L9.40039 7.7998C8.95861 7.46847 8.86896 6.84221 9.2002 6.40039C9.53153 5.95861 10.1578 5.86896 10.5996 6.2002L12 7.25L13.4004 6.2002Z" fill="#E4F2F2"/>
<path fill-rule="evenodd" clip-rule="evenodd" d="M12 1C18.0751 1 23 5.92487 23 12C23 18.0751 18.0751 23 12 23C5.92487 23 1 18.0751 1 12C1 5.92487 5.92487 1 12 1ZM12 3C7.02944 3 3 7.02944 3 12C3 16.9706 7.02944 21 12 21C16.9706 21 21 16.9706 21 12C21 7.02944 16.9706 3 12 3Z" fill="#E4F2F2"/>
</svg>
