<svg width="24" height="24" viewBox="0 0 24 24" fill="none" xmlns="http://www.w3.org/2000/svg">
<path d="M13.354 2C13.9063 2 14.354 2.44772 14.354 3C14.354 3.55228 13.9063 4 13.354 4H3.00049L10.2251 11.9883C10.7237 12.5395 11.0002 13.2567 11.0005 14V20.001L12.9995 21L13.0005 14C13.0008 13.2568 13.2764 12.5395 13.7749 11.9883L14.9927 10.6406C15.3629 10.2308 15.996 10.1991 16.4058 10.5693C16.8153 10.9396 16.8472 11.5718 16.4771 11.9814L15.2593 13.3291L15.2583 13.3301C15.0923 13.5137 15.0007 13.7525 15.0005 14V21L14.9966 21.127C14.9778 21.4236 14.8927 21.713 14.7476 21.9736C14.5817 22.2714 14.3421 22.5218 14.0522 22.7012C13.7623 22.8805 13.4309 22.9826 13.0903 22.998C12.7924 23.0115 12.4959 22.9584 12.2222 22.8428L12.106 22.7891L10.106 21.7891C9.77364 21.6229 9.49364 21.3678 9.29834 21.0518C9.1275 20.7752 9.02774 20.4616 9.00537 20.1387L9.00049 20V14C9.00027 13.7524 8.90781 13.5137 8.7417 13.3301L1.51612 5.34082C1.25697 5.05369 1.08676 4.69642 1.02588 4.31445C0.965067 3.93257 1.01535 3.54089 1.17237 3.1875C1.32942 2.83412 1.58644 2.53404 1.91065 2.32324C2.23478 2.11257 2.61293 2.00019 2.99951 2H13.354Z" fill="#E4F2F2"/>
<path d="M19.0005 2C19.5526 2.00019 20.0005 2.44783 20.0005 3V5H22.0005C22.5526 5.00019 23.0005 5.44783 23.0005 6C23.0005 6.55217 22.5526 6.99981 22.0005 7H20.0005V9C20.0005 9.55217 19.5526 9.99981 19.0005 10C18.4482 10 18.0005 9.55228 18.0005 9V7H16.0005C15.4482 7 15.0005 6.55228 15.0005 6C15.0005 5.44772 15.4482 5 16.0005 5H18.0005V3C18.0005 2.44772 18.4482 2 19.0005 2Z" fill="#E4F2F2"/>
</svg>
