<svg width="24" height="24" viewBox="0 0 24 24" fill="none" xmlns="http://www.w3.org/2000/svg">
<path fill-rule="evenodd" clip-rule="evenodd" d="M21.1469 2.00586C21.4826 2.03097 21.8071 2.14046 22.0903 2.3252C22.4139 2.53631 22.6701 2.83619 22.8266 3.18945C22.9831 3.54264 23.034 3.93396 22.9731 4.31543C22.9121 4.69689 22.7417 5.05301 22.4829 5.33984L22.4819 5.34082L15.2592 13.3301C15.0932 13.5137 15.0007 13.7525 15.0005 14V21L14.9966 21.127C14.9778 21.4236 14.8927 21.713 14.7475 21.9736C14.5816 22.2714 14.3421 22.5218 14.0522 22.7012C13.7622 22.8805 13.4309 22.9826 13.0903 22.998C12.7924 23.0115 12.4959 22.9584 12.2221 22.8428L12.1059 22.7891L10.1059 21.7891C9.77361 21.6229 9.4936 21.3678 9.29831 21.0518C9.12747 20.7752 9.02771 20.4616 9.00534 20.1387L9.00046 20V14C9.00024 13.7524 8.90778 13.5137 8.74167 13.3301L1.51608 5.34082C1.25694 5.05369 1.08673 4.69642 1.02585 4.31445C0.965036 3.93257 1.01532 3.54089 1.17233 3.1875C1.32939 2.83412 1.58641 2.53404 1.91062 2.32324C2.23475 2.11257 2.6129 2.00019 2.99948 2H21.0024L21.1469 2.00586ZM10.2251 11.9883C10.7237 12.5395 11.0001 13.2567 11.0005 14V20.001L12.9995 21L13.0005 14L13.0132 13.7227C13.073 13.08 13.3386 12.4706 13.7749 11.9883L20.9975 4H3.00046L10.2251 11.9883Z" fill="#E4F2F2"/>
</svg>
