<svg width="24" height="24" viewBox="0 0 24 24" fill="none" xmlns="http://www.w3.org/2000/svg">
<path d="M12.5308 2C13.083 2 13.5308 2.44772 13.5308 3C13.5308 3.55228 13.083 4 12.5308 4H3.00049L10.2251 11.9883C10.7237 12.5395 11.0002 13.2567 11.0005 14V20.001L12.9995 21L13.0005 14C13.0008 13.2566 13.2771 12.5395 13.7759 11.9883L14.2017 11.5156C14.5716 11.1059 15.2038 11.0737 15.6138 11.4434C16.0237 11.8134 16.0561 12.4465 15.686 12.8564L15.2593 13.3291L15.2583 13.3301C15.0923 13.5137 15.0007 13.7525 15.0005 14V21L14.9966 21.127C14.9778 21.4236 14.8927 21.713 14.7476 21.9736C14.5817 22.2714 14.3421 22.5218 14.0522 22.7012C13.7623 22.8805 13.4309 22.9826 13.0903 22.998C12.7924 23.0115 12.4959 22.9584 12.2222 22.8428L12.106 22.7891L10.106 21.7891C9.77364 21.6229 9.49364 21.3678 9.29834 21.0518C9.1275 20.7752 9.02774 20.4616 9.00537 20.1387L9.00049 20V14C9.00027 13.7524 8.90781 13.5137 8.7417 13.3301L1.51612 5.34082C1.25697 5.05369 1.08676 4.69642 1.02588 4.31445C0.965067 3.93257 1.01535 3.54089 1.17237 3.1875C1.32942 2.83412 1.58644 2.53404 1.91065 2.32324C2.23478 2.11257 2.61293 2.00019 2.99951 2H12.5308Z" fill="#E4F2F2"/>
<path d="M20.7935 2.79297C21.184 2.40262 21.8171 2.4025 22.2075 2.79297C22.5978 3.18345 22.5978 3.81655 22.2075 4.20703L20.4146 6L22.2075 7.79297C22.5978 8.18345 22.5978 8.81655 22.2075 9.20703C21.8171 9.5975 21.184 9.59738 20.7935 9.20703L19.0005 7.41406L17.2075 9.20703C16.8171 9.5975 16.184 9.59738 15.7935 9.20703C15.4029 8.81651 15.4029 8.18349 15.7935 7.79297L17.5864 6L15.7935 4.20703C15.4029 3.81651 15.4029 3.18349 15.7935 2.79297C16.184 2.40262 16.8171 2.4025 17.2075 2.79297L19.0005 4.58594L20.7935 2.79297Z" fill="#E4F2F2"/>
</svg>
