<svg width="24" height="24" viewBox="0 0 24 24" fill="none" xmlns="http://www.w3.org/2000/svg">
<path fill-rule="evenodd" clip-rule="evenodd" d="M12.999 1C13.7946 1 14.5585 1.3164 15.1211 1.87891C15.6835 2.44148 15.999 3.20451 15.999 4V4.98926C16.0027 5.34112 16.0868 5.68819 16.2441 6.00293C16.3975 6.30964 16.6181 6.57745 16.8877 6.78906L19.3389 8.35742L19.3594 8.37109C20.7692 9.32326 21.8391 10.7003 22.4131 12.3018C22.987 13.9033 23.0349 15.6464 22.5508 17.2773C22.0666 18.9083 21.0747 20.3431 19.7197 21.3721C18.365 22.4008 16.7174 22.9713 15.0166 23H8.99902C7.26244 23.0292 5.56301 22.4926 4.1582 21.4707C2.7481 20.4448 1.7117 18.9856 1.20703 17.3164C0.702385 15.6471 0.756715 13.858 1.3623 12.2227C1.93008 10.6898 2.95324 9.37025 4.29004 8.43848L4.56152 8.25684L7.06055 6.6582L7.11328 6.62598C7.65053 6.32751 7.99902 5.69177 7.99902 5V4C7.99902 3.2045 8.31552 2.44148 8.87793 1.87891C9.44039 1.31645 10.2036 1.00017 10.999 1H12.999ZM10.999 3C10.734 3.00017 10.4794 3.10558 10.292 3.29297C10.1047 3.48047 9.99902 3.73494 9.99902 4L10 5C10 7.22446 9.4216 8.3893 8.91406 9.53125C8.45244 10.5699 8 11.6791 8 14C8 16.0454 8.51357 17.8563 9.2998 19.123C10.0932 20.401 11.0689 21 12 21C12.931 20.9999 13.9069 20.401 14.7002 19.123C15.4864 17.8563 16 16.0453 16 14C16 11.6792 15.5475 10.5699 15.0859 9.53125C14.5826 8.39865 14.0094 7.2437 14 5.05469C13.9997 5.04004 13.9992 5.0254 13.999 5.01074V4C13.999 3.73478 13.8936 3.48051 13.7061 3.29297C13.5185 3.10563 13.2641 3 12.999 3H10.999ZM5.63867 9.94238L5.63672 9.94336C4.53438 10.6468 3.69143 11.6917 3.2373 12.918C2.7833 14.1443 2.74275 15.4856 3.12109 16.7373C3.49956 17.9892 4.27648 19.084 5.33398 19.8535C6.16743 20.4599 7.13982 20.8371 8.1543 20.958C7.95583 20.7121 7.77041 20.4513 7.60058 20.1777C6.58682 18.5444 6 16.3546 6 14C6 11.6173 6.43267 10.2536 6.90723 9.12891L5.63867 9.94238ZM17.1807 9.35059C17.6181 10.4346 18 11.7709 18 14C18 16.3546 17.4131 18.5445 16.3994 20.1777C16.2388 20.4365 16.0623 20.6828 15.876 20.917C16.829 20.7569 17.7341 20.369 18.5107 19.7793C19.5268 19.0076 20.2706 17.932 20.6338 16.709C20.997 15.4857 20.9608 14.1778 20.5303 12.9766C20.0998 11.7754 19.2967 10.7424 18.2393 10.0283L17.1807 9.35059Z" fill="#E4F2F2"/>
</svg>
