<svg width="24" height="24" viewBox="0 0 24 24" fill="none" xmlns="http://www.w3.org/2000/svg">
<path fill-rule="evenodd" clip-rule="evenodd" d="M13.293 1.29297C13.6835 0.902445 14.3165 0.902445 14.707 1.29297C15.0255 1.61143 15.0837 2.09079 14.8828 2.46875L21.5303 9.11621C21.9083 8.91508 22.3885 8.97442 22.707 9.29297C23.0975 9.6835 23.0975 10.3165 22.707 10.707L16.707 16.707C16.3165 17.0975 15.6835 17.0975 15.293 16.707C14.9744 16.3885 14.9151 15.9083 15.1162 15.5303L13.999 14.4131L6.32617 22.0869C6.03641 22.3767 5.69208 22.6067 5.31348 22.7637C4.93491 22.9205 4.52892 23.0019 4.11914 23.002C3.29146 23.0021 2.49757 22.6729 1.91211 22.0879C1.32668 21.5027 0.997318 20.7086 0.99707 19.8809C0.996932 19.0529 1.3258 18.2584 1.91113 17.6729L9.58594 10L8.46875 8.88281C8.09081 9.08367 7.6114 9.02543 7.29297 8.70703C6.90246 8.31652 6.90248 7.6835 7.29297 7.29297L13.293 1.29297ZM3.3252 19.0869C3.11501 19.2972 2.99711 19.5826 2.99707 19.8799C2.99715 20.1773 3.11581 20.4626 3.32617 20.6729C3.53654 20.8831 3.82174 21.002 4.11914 21.002C4.26622 21.0019 4.41197 20.9723 4.54785 20.916C4.68386 20.8596 4.80801 20.777 4.91211 20.6729L12.585 12.999L11 11.4141L3.3252 19.0869ZM9.91406 7.5L11.6719 9.25781C11.6844 9.26915 11.6979 9.27991 11.71 9.29199C11.7221 9.30414 11.7328 9.31748 11.7441 9.33008L16.5 14.0859L20.0859 10.5L13.5 3.91406L9.91406 7.5Z" fill="#E4F2F2"/>
</svg>
