<svg width="24" height="24" viewBox="0 0 24 24" fill="none" xmlns="http://www.w3.org/2000/svg">
<path d="M17 6C17.5523 6 18 6.44772 18 7V12C18 12.5523 17.5523 13 17 13H13V17C13 17.5523 12.5523 18 12 18C11.4477 18 11 17.5523 11 17V13H8V17C8 17.5523 7.55228 18 7 18C6.44772 18 6 17.5523 6 17V7C6 6.44772 6.44772 6 7 6C7.55228 6 8 6.44772 8 7V11H11V7C11 6.44772 11.4477 6 12 6C12.5523 6 13 6.44772 13 7V11H16V7C16 6.44772 16.4477 6 17 6Z" fill="#E4F2F2"/>
<path fill-rule="evenodd" clip-rule="evenodd" d="M19 2C20.6569 2 22 3.34315 22 5V19C22 20.6569 20.6569 22 19 22H5C3.34315 22 2 20.6569 2 19V5C2 3.34315 3.34315 2 5 2H19ZM5 4C4.44772 4 4 4.44772 4 5V19C4 19.5523 4.44772 20 5 20H19C19.5523 20 20 19.5523 20 19V5C20 4.44772 19.5523 4 19 4H5Z" fill="#E4F2F2"/>
</svg>
