<svg width="24" height="24" viewBox="0 0 24 24" fill="none" xmlns="http://www.w3.org/2000/svg">
<path fill-rule="evenodd" clip-rule="evenodd" d="M14.5244 1.00781C14.8106 1.04367 15.0702 1.20197 15.2324 1.44531L16.832 3.8457C17.0679 4.19976 17.0546 4.66464 16.7979 5.00391L14.8799 7.53613C17.8748 8.69247 20 11.5972 20 15C20 19.4183 16.4183 23 12 23C7.58172 23 4 19.4183 4 15C4 11.5975 6.12466 8.6927 9.11914 7.53613L7.20215 5.00391C6.94541 4.66464 6.93209 4.19976 7.16797 3.8457L8.76758 1.44531C8.95297 1.16722 9.2654 1.00013 9.59961 1H14.4004L14.5244 1.00781ZM12 9C8.68629 9 6 11.6863 6 15C6 18.3137 8.68629 21 12 21C15.3137 21 18 18.3137 18 15C18 11.6863 15.3137 9 12 9ZM9.22559 4.3623L11.249 7.03516C11.4963 7.01214 11.7467 7 12 7C12.2529 7 12.5031 7.0122 12.75 7.03516L14.7734 4.3623L13.8652 3H10.1348L9.22559 4.3623Z" fill="#E4F2F2"/>
</svg>
