<svg width="24" height="24" viewBox="0 0 24 24" fill="none" xmlns="http://www.w3.org/2000/svg">
<path fill-rule="evenodd" clip-rule="evenodd" d="M18.1982 2.00488C19.1869 2.0539 20.1248 2.46859 20.8281 3.17188C21.5783 3.92202 22 4.93913 22 6L21.9951 6.19824C21.9461 7.18693 21.5314 8.12484 20.8281 8.82812C20.078 9.57827 19.0609 10 18 10C16.9391 10 15.922 9.57827 15.1719 8.82812C14.674 8.3303 14.3219 7.71461 14.1406 7.04688C12.3348 7.24186 10.6391 8.04645 9.34277 9.34277C8.04645 10.6391 7.24186 12.3348 7.04688 14.1406C7.71461 14.3219 8.3303 14.674 8.82812 15.1719C9.57827 15.922 10 16.9391 10 18C10 19.0609 9.57827 20.078 8.82812 20.8281C8.07798 21.5783 7.06087 22 6 22C4.93913 22 3.92202 21.5783 3.17188 20.8281C2.46859 20.1248 2.0539 19.1869 2.00488 18.1982L2 18C2 16.9391 2.42173 15.922 3.17188 15.1719C3.68135 14.6624 4.31417 14.3052 5 14.1279V3C5 2.44772 5.44772 2 6 2C6.55228 2 7 2.44772 7 3V9.00098C7.28241 8.62434 7.59194 8.26548 7.92871 7.92871C9.59481 6.26261 11.7886 5.2473 14.1172 5.04102C14.2906 4.33936 14.6522 3.69151 15.1719 3.17188C15.922 2.42173 16.9391 2 18 2L18.1982 2.00488ZM6 16C5.46957 16 4.96101 16.2109 4.58594 16.5859C4.21087 16.961 4 17.4696 4 18L4.00977 18.1973C4.05515 18.6553 4.25765 19.0858 4.58594 19.4141C4.96101 19.7891 5.46957 20 6 20L6.19727 19.9902C6.65526 19.9449 7.08578 19.7423 7.41406 19.4141C7.78913 19.039 8 18.5304 8 18C8 17.4696 7.78913 16.961 7.41406 16.5859C7.03899 16.2109 6.53043 16 6 16ZM18 4C17.4696 4 16.961 4.21087 16.5859 4.58594C16.2109 4.96101 16 5.46957 16 6C16 6.53043 16.2109 7.03899 16.5859 7.41406C16.961 7.78913 17.4696 8 18 8C18.5304 8 19.039 7.78913 19.4141 7.41406C19.7891 7.03899 20 6.53043 20 6L19.9902 5.80273C19.9449 5.34474 19.7423 4.91422 19.4141 4.58594C19.0858 4.25765 18.6553 4.05515 18.1973 4.00977L18 4Z" fill="#E4F2F2"/>
<path d="M18 14C18.5523 14 19 14.4477 19 15V17H21C21.5523 17 22 17.4477 22 18C22 18.5523 21.5523 19 21 19H19V21C19 21.5523 18.5523 22 18 22C17.4477 22 17 21.5523 17 21V19H15C14.4477 19 14 18.5523 14 18C14 17.4477 14.4477 17 15 17H17V15C17 14.4477 17.4477 14 18 14Z" fill="#E4F2F2"/>
</svg>
