<svg width="24" height="24" viewBox="0 0 24 24" fill="none" xmlns="http://www.w3.org/2000/svg">
<path d="M5.05859 1.00098C5.08178 1.00207 5.10895 1.00397 5.13965 1.00684C5.20165 1.01265 5.27914 1.02379 5.37109 1.04102C5.55558 1.07561 5.79935 1.13805 6.10059 1.25098C6.63438 1.45115 7.34889 1.80832 8.24414 2.44141C10.7278 2.02102 13.2712 2.02111 15.7549 2.44141C16.6502 1.80822 17.3646 1.45121 17.8984 1.25098C18.1997 1.13799 18.4434 1.07564 18.6279 1.04102C18.72 1.02376 18.7973 1.01267 18.8594 1.00684C18.8903 1.00393 18.9181 1.00207 18.9414 1.00098C18.9529 1.00044 18.964 1.00023 18.9736 1H18.998C18.9987 0.999999 18.9999 1 19 1.76172V1C19.4611 1.00009 19.8626 1.31569 19.9717 1.76367C20.2542 2.92415 20.2843 4.12937 20.0645 5.2998C20.7563 6.42753 21.0829 7.73667 20.998 9.06348C20.9676 12.5691 18.4208 14.7249 15.6172 15.3262C15.9573 16.1809 16.0922 17.1113 16 18.042V22C16 22.5522 15.5522 22.9999 15 23C14.4478 22.9999 14 22.5522 14 22V18C14 17.9631 14.0018 17.9263 14.0059 17.8896C14.116 16.8979 13.8313 15.903 13.2139 15.1191C12.9769 14.8183 12.9334 14.408 13.1006 14.0635C13.2678 13.719 13.6171 13.5001 14 13.5C16.6261 13.4999 19 11.7847 19 9C19 8.97883 19.0006 8.95765 19.002 8.93652C19.0673 7.91581 18.7818 6.91379 18.1865 6.08203C18.0172 5.84534 17.9595 5.54646 18.0283 5.26367C18.1851 4.61969 18.2377 3.95753 18.1914 3.30078C17.7978 3.49084 17.2668 3.79938 16.5996 4.2998C16.3749 4.46828 16.0894 4.53469 15.8135 4.48242C13.2966 4.00579 10.7024 4.00574 8.18555 4.48242C7.90967 4.53453 7.62403 4.46827 7.39941 4.2998C6.72423 3.79346 6.18891 3.48336 5.79395 3.29395C5.74331 3.9475 5.8005 4.60683 5.96777 5.24805C6.04257 5.5354 5.98549 5.84165 5.8125 6.08301C5.21938 6.91074 4.93167 7.91844 4.99805 8.93457C4.99947 8.95628 5 8.97824 5 9C5 11.7847 7.37391 13.4999 10 13.5C10.3837 13.5001 10.7336 13.7198 10.9004 14.0654C11.0671 14.4113 11.0213 14.8226 10.7822 15.123C10.4731 15.5115 10.2454 15.9531 10.1123 16.4229C9.97917 16.8928 9.93822 17.3885 9.99219 17.8779C9.99698 17.9167 9.99882 17.9555 9.99902 17.9941C9.99904 17.9961 10 17.998 10 18V22C10 22.5522 9.55219 22.9999 9 23C8.44781 22.9999 8 22.5522 8 22V19.3984C7.33176 19.559 6.72117 19.5972 6.1543 19.5225C5.20472 19.3973 4.49127 18.977 3.93359 18.5303C3.66026 18.3113 3.41733 18.0798 3.20898 17.8779C2.98971 17.6655 2.82052 17.4985 2.64941 17.3506C2.30852 17.0559 2.13462 17 2 17C1.44772 17 1 16.5523 1 16C1 15.4477 1.44772 15 2 15C2.8652 15 3.50263 15.4442 3.95703 15.8369C4.18347 16.0327 4.40872 16.2565 4.60059 16.4424C4.80333 16.6388 4.98899 16.8138 5.18359 16.9697C5.56205 17.2729 5.942 17.4776 6.41504 17.54C6.79017 17.5895 7.29075 17.555 7.97266 17.3262C7.9831 16.8374 8.05351 16.3499 8.1875 15.877C8.24074 15.6891 8.30396 15.5047 8.37598 15.3242C5.5755 14.721 3.03327 12.5671 3.00195 9.06543L2.99023 8.78809C2.96325 7.56013 3.29102 6.35212 3.93066 5.30664C3.69456 4.12881 3.72773 2.91557 4.03223 1.74805L4.08789 1.58887C4.24717 1.23517 4.60193 1.00008 5 1V2C5 1.05091 4.99931 1.00246 5 1H5.02637C5.03601 1.00023 5.04706 1.00044 5.05859 1.00098Z" fill="#E4F2F2"/>
</svg>
