<svg width="24" height="24" viewBox="0 0 24 24" fill="none" xmlns="http://www.w3.org/2000/svg">
<path fill-rule="evenodd" clip-rule="evenodd" d="M18.4439 2.00879C18.7371 2.04841 19.0085 2.1827 19.2202 2.38867C19.3343 2.48981 19.4341 2.60559 19.5103 2.73731L19.5962 2.91309L19.6187 2.97363L22.9488 12.9736L22.9507 12.9785C23.0713 13.3469 23.0628 13.7462 22.9273 14.1094C22.8007 14.4481 22.5685 14.7356 22.2681 14.9346L12.5786 21.8154C12.2326 22.0609 11.7689 22.0614 11.4224 21.8164L1.69289 14.9365L1.68411 14.9307C1.38523 14.7147 1.16246 14.4092 1.04836 14.0586C0.93432 13.7079 0.934644 13.329 1.04934 12.9785L1.05227 12.9717L4.42239 2.93164L4.44387 2.87305C4.54253 2.63068 4.7068 2.41984 4.9175 2.26465L4.93801 2.25C5.1766 2.08378 5.46179 1.99693 5.75246 2.00098C6.06466 1.99801 6.36971 2.09946 6.61672 2.29297C6.65631 2.32399 6.69357 2.35792 6.72805 2.39453C6.87518 2.55097 6.98238 2.73991 7.04641 2.94434L7.04836 2.94336L9.04153 8.91992H14.9624L16.9927 2.92871L17.0142 2.87305C17.1128 2.63077 17.2762 2.41981 17.4868 2.26465L17.5083 2.25C17.7483 2.08279 18.0352 1.99484 18.3277 2L18.4439 2.00879ZM3.01028 13.4189L11.9986 19.7744L20.981 13.3955L18.2925 5.32324L16.6275 10.2412C16.4899 10.6469 16.1086 10.9198 15.6802 10.9199H8.31985C7.8896 10.9198 7.50776 10.6445 7.3716 10.2363L5.73098 5.31445L3.01028 13.4189Z" fill="#E4F2F2"/>
</svg>
