<svg width="24" height="24" viewBox="0 0 24 24" fill="none" xmlns="http://www.w3.org/2000/svg">
<path fill-rule="evenodd" clip-rule="evenodd" d="M18.0996 2.01074C18.3077 2.03274 18.5122 2.08733 18.7041 2.17285C18.9598 2.28688 19.1887 2.45401 19.376 2.66211C19.5634 2.87046 19.7055 3.11625 19.792 3.38281C19.8569 3.58285 19.8897 3.79154 19.8896 4.00098L19.8779 4.20996L18.1846 20.3145C18.1066 21.0516 17.7581 21.7348 17.207 22.2305C16.6561 22.7259 15.9411 23.0002 15.2002 23H8.7998C8.05791 23.0027 7.341 22.7302 6.78808 22.2354C6.23395 21.7393 5.88386 21.055 5.80566 20.3154L4.12109 4.20801C4.09199 3.92964 4.12152 3.64803 4.208 3.38184C4.29457 3.11563 4.43677 2.87019 4.62402 2.66211C4.8113 2.4541 5.04027 2.28685 5.29589 2.17285C5.55163 2.0589 5.8294 2.00021 6.10937 2H17.8906L18.0996 2.01074ZM9 12C8.29552 12 7.60741 12.1879 7.00195 12.5371L7.79394 20.1055L7.80859 20.1963C7.85086 20.4074 7.96044 20.6004 8.12207 20.7451C8.30668 20.9103 8.54623 21.0012 8.79394 21H15.2002C15.4472 21.0001 15.6854 20.9083 15.8691 20.7432C16.0527 20.578 16.1693 20.351 16.1953 20.1055L16.8682 13.7012C16.269 13.8976 15.6388 14 15 14C13.7019 14 12.4389 13.5786 11.4004 12.7998C10.708 12.2806 9.86544 12 9 12ZM6.78124 10.4258C7.48284 10.1464 8.23527 10 9 10C10.2981 10 11.5611 10.4214 12.5996 11.2002C13.292 11.7195 14.1346 12 15 12C15.7485 12 16.4794 11.7891 17.1113 11.3965L17.8896 4H6.11035L6.78124 10.4258Z" fill="#E4F2F2"/>
</svg>
