<svg width="24" height="24" viewBox="0 0 24 24" fill="none" xmlns="http://www.w3.org/2000/svg">
<path fill-rule="evenodd" clip-rule="evenodd" d="M16 4C17.5115 4 18.7733 4.83059 19.4639 6.01172L19.5947 6.25293L19.5996 6.26367L22.7002 12.6641C22.7249 12.7151 22.7434 12.7676 22.7588 12.8203C22.9138 13.1824 23 13.5811 23 14V16C23 17.6569 21.6569 19 20 19H16C14.3431 19 13 17.6569 13 16V15C13 14.7348 12.8946 14.4805 12.707 14.293C12.5195 14.1054 12.2652 14 12 14C11.7348 14 11.4805 14.1054 11.293 14.293C11.1054 14.4805 11 14.7348 11 15V16C11 17.6569 9.65685 19 8 19H4C2.34315 19 1 17.6569 1 16V14C1 13.5813 1.08528 13.1824 1.24023 12.8203C1.25566 12.7676 1.27506 12.7152 1.2998 12.6641L4.40039 6.26367L4.40527 6.25293C5.05908 4.94545 6.38774 4.00008 8 4C8.5522 4.00011 9 4.44778 9 5C9 5.55222 8.5522 5.99989 8 6C7.21253 6.00008 6.54051 6.45517 6.19434 7.14746L4.3291 11H8C9.06312 11 9.99449 11.5546 10.5273 12.3887C10.9731 12.1372 11.4791 12 12 12C12.5206 12 13.0261 12.1374 13.4717 12.3887C14.0045 11.5544 14.9367 11 16 11H19.6719L17.8057 7.14746L17.7373 7.02051C17.3754 6.39981 16.7385 6 16 6C15.4477 6 15 5.55228 15 5C15 4.44772 15.4477 4 16 4ZM4 13C3.44772 13 3 13.4477 3 14V16C3 16.5523 3.44772 17 4 17H8C8.55228 17 9 16.5523 9 16V14C9 13.4477 8.55228 13 8 13H4ZM16 13C15.4477 13 15 13.4477 15 14V16C15 16.5523 15.4477 17 16 17H20C20.5523 17 21 16.5523 21 16V14C21 13.4477 20.5523 13 20 13H16Z" fill="#E4F2F2"/>
</svg>
