<svg width="24" height="24" viewBox="0 0 24 24" fill="none" xmlns="http://www.w3.org/2000/svg">
<path fill-rule="evenodd" clip-rule="evenodd" d="M16 4C17.5205 4 18.8883 4.93055 19.5303 6.15625L19.6484 6.40527L19.6523 6.41406L22.7432 13.793C22.9092 14.1701 23 14.5799 23 15V16C23 18.2523 21.2523 20 19 20H18C15.4601 20 13.2271 18.6312 12 16.5947C10.7729 18.6312 8.53994 20 6 20H5C2.74772 20 1 18.2523 1 16V15C1 14.6394 1.06797 14.2866 1.19141 13.9551C1.20349 13.9075 1.21875 13.8601 1.23828 13.8135L4.33789 6.41406L4.34473 6.39746C4.93336 5.05972 6.37678 4.00007 8 4C8.55221 4.00008 9 4.44777 9 5C9 5.55223 8.55221 5.99992 8 6C7.22338 6.00007 6.46714 6.54101 6.17578 7.20312L4.16602 12H19.8242L17.8115 7.19531L17.7529 7.07422C17.4359 6.47603 16.7297 6 16 6C15.4477 6 15 5.55228 15 5C15 4.44772 15.4477 4 16 4ZM4 14C3.73478 14 3.48051 14.1054 3.29297 14.293C3.10543 14.4805 3 14.7348 3 15V16C3 17.1477 3.85228 18 5 18H6C8.40556 18 10.4312 16.2737 10.8984 14H4ZM13.1016 14C13.5688 16.2737 15.5944 18 18 18H19C20.1477 18 21 17.1477 21 16V15C21 14.8729 20.9746 14.7488 20.9287 14.6328C20.9213 14.6174 20.9139 14.6019 20.9072 14.5859L20.8945 14.5566C20.8467 14.4602 20.7846 14.3705 20.707 14.293C20.5195 14.1054 20.2652 14 20 14H13.1016Z" fill="#E4F2F2"/>
</svg>
