<svg width="24" height="24" viewBox="0 0 24 24" fill="none" xmlns="http://www.w3.org/2000/svg">
<path fill-rule="evenodd" clip-rule="evenodd" d="M12 1C18.0751 1 23 5.92487 23 12C23 18.0751 18.0751 23 12 23C5.92487 23 1 18.0751 1 12C1 5.92487 5.92487 1 12 1ZM3.05664 13C3.46749 16.7159 6.13946 19.748 9.66699 20.6924C8.12545 18.4163 7.21163 15.7618 7.0332 13H3.05664ZM16.9668 13C16.7884 15.762 15.8738 18.4162 14.332 20.6924C17.86 19.7483 20.5325 16.7162 20.9434 13H16.9668ZM9.03906 13C9.24251 15.7381 10.2753 18.3489 12 20.4834C13.7246 18.3489 14.7565 15.738 14.96 13H9.03906ZM9.66602 3.30664C6.13881 4.25125 3.46746 7.28435 3.05664 11H7.0332C7.21166 8.23812 8.12427 5.58281 9.66602 3.30664ZM12 3.51562C10.2751 5.65021 9.24348 8.26166 9.04004 11H14.9609C14.7575 8.26162 13.7249 5.65023 12 3.51562ZM14.333 3.30664C15.8749 5.58292 16.7883 8.23793 16.9668 11H20.9434C20.5325 7.28403 17.8607 4.25097 14.333 3.30664Z" fill="#E4F2F2"/>
</svg>
