<svg width="24" height="24" viewBox="0 0 24 24" fill="none" xmlns="http://www.w3.org/2000/svg">
<path d="M7.56789 4.03516C8.06284 3.79052 8.66287 3.99347 8.90774 4.48828C9.1525 4.98327 8.9495 5.58324 8.45461 5.82813C7.08094 6.50739 5.93105 7.56712 5.14211 8.88086C4.35325 10.1948 3.9583 11.7084 4.00442 13.2402C4.05063 14.7722 4.53622 16.2594 5.40285 17.5234C6.26953 18.7873 7.48095 19.7758 8.89309 20.3711C10.3055 20.9664 11.8595 21.1431 13.3697 20.8809C14.8796 20.6186 16.2828 19.9282 17.4116 18.8916C18.5404 17.855 19.3481 16.5154 19.7378 15.0332C20.1274 13.5511 20.0828 11.9879 19.6099 10.5303C19.4397 10.0051 19.7273 9.44097 20.2525 9.27051C20.7777 9.10018 21.3417 9.38799 21.5122 9.91309C22.1035 11.7353 22.1585 13.6892 21.6714 15.542C21.1842 17.3948 20.1753 19.0694 18.7642 20.3652C17.353 21.661 15.599 22.5238 13.7114 22.8516C11.8239 23.1793 9.8821 22.9579 8.11672 22.2139C6.3513 21.4697 4.83585 20.2344 3.75246 18.6543C2.66917 17.0742 2.06317 15.2157 2.00539 13.3008C1.94769 11.3859 2.44114 9.49406 3.42727 7.85156C4.41345 6.20922 5.85067 4.88431 7.56789 4.03516Z" fill="#E4F2F2"/>
<path d="M7.20266 9.39649C7.53426 8.95519 8.16057 8.86606 8.60207 9.19727C9.04364 9.52899 9.13301 10.1561 8.80129 10.5977C8.40053 11.1312 8.13981 11.7568 8.0425 12.417C7.94522 13.0772 8.01477 13.7514 8.24465 14.3779C8.47453 15.0045 8.8577 15.5642 9.35891 16.0049C9.85994 16.4452 10.4633 16.7536 11.1138 16.9014C11.7644 17.049 12.4423 17.0315 13.0845 16.8506C13.7267 16.6695 14.3138 16.33 14.7915 15.8643C15.2693 15.3984 15.6235 14.8201 15.8208 14.1826C16.0181 13.5451 16.0526 12.8682 15.9214 12.2139C15.8128 11.6725 16.1642 11.1448 16.7056 11.0361C17.2469 10.9278 17.7737 11.279 17.8823 11.8203C18.0792 12.8019 18.0269 13.8171 17.731 14.7734C17.4351 15.7298 16.9048 16.597 16.188 17.2959C15.4713 17.9947 14.591 18.5038 13.6275 18.7754C12.664 19.0469 11.6476 19.0731 10.6714 18.8516C9.69522 18.63 8.78943 18.1678 8.03762 17.5068C7.28589 16.8459 6.71156 16.007 6.36672 15.0674C6.02189 14.1276 5.91805 13.1154 6.06399 12.125C6.21 11.1348 6.60152 10.1967 7.20266 9.39649Z" fill="#E4F2F2"/>
<path fill-rule="evenodd" clip-rule="evenodd" d="M11.4751 1.14942C11.7699 0.967473 12.1379 0.950556 12.4478 1.10547L20.4478 5.10547C20.7864 5.27491 21.0005 5.62134 21.0005 6C21.0005 6.37866 20.7864 6.7251 20.4478 6.89453L13.0005 10.6182V13C13.0005 13.5522 12.5526 13.9998 12.0005 14C11.4482 14 11.0005 13.5523 11.0005 13V2C11.0005 1.65342 11.1803 1.33162 11.4751 1.14942ZM13.0005 8.38184L17.7642 6L13.0005 3.61817V8.38184Z" fill="#E4F2F2"/>
</svg>
