<svg width="24" height="24" viewBox="0 0 24 24" fill="none" xmlns="http://www.w3.org/2000/svg">
<path d="M20 3C20.7957 3 21.5585 3.3163 22.1211 3.87891C22.6837 4.44151 23 5.20435 23 6V20C23 20.5523 22.5523 21 22 21C21.4477 21 21 20.5523 21 20V6C21 5.73478 20.8946 5.48051 20.707 5.29297C20.5195 5.10543 20.2652 5 20 5H4C3.73478 5 3.4805 5.10543 3.29297 5.29297C3.10543 5.4805 3 5.73478 3 6V20C3 20.5523 2.55228 21 2 21C1.44772 21 1 20.5523 1 20V6C1 5.20435 1.3163 4.44152 1.87891 3.87891C2.44152 3.3163 3.20435 3 4 3H20Z" fill="#E4F2F2"/>
<path fill-rule="evenodd" clip-rule="evenodd" d="M16 7C16.5523 7 17 7.44772 17 8V9H18C18.5523 9 19 9.44772 19 10C19 10.5523 18.5523 11 18 11H17V13H18C18.5523 13 19 13.4477 19 14C19 14.5523 18.5523 15 18 15H17V17H18C18.5523 17 19 17.4477 19 18C19 18.5523 18.5523 19 18 19H17V20C17 20.5523 16.5523 21 16 21C15.4477 21 15 20.5523 15 20V19H13V20C13 20.5523 12.5523 21 12 21C11.4477 21 11 20.5523 11 20V19H9V20C9 20.5523 8.55228 21 8 21C7.44772 21 7 20.5523 7 20V19H6C5.44772 19 5 18.5523 5 18C5 17.4477 5.44772 17 6 17H7V15H6C5.44772 15 5 14.5523 5 14C5 13.4477 5.44772 13 6 13H7V11H6C5.44772 11 5 10.5523 5 10C5 9.44772 5.44772 9 6 9H7V8C7 7.44772 7.44772 7 8 7C8.55228 7 9 7.44772 9 8V9H11V8C11 7.44772 11.4477 7 12 7C12.5523 7 13 7.44772 13 8V9H15V8C15 7.44772 15.4477 7 16 7ZM9 17H11V15H9V17ZM13 17H15V15H13V17ZM9 13H11V11H9V13ZM13 13H15V11H13V13Z" fill="#E4F2F2"/>
</svg>
