<svg width="24" height="24" viewBox="0 0 24 24" fill="none" xmlns="http://www.w3.org/2000/svg">
<path fill-rule="evenodd" clip-rule="evenodd" d="M16 1C16.3373 1 16.6522 1.16992 16.8369 1.45215C17.7848 2.90058 18.5694 4.64684 19.1182 6.32812C19.6637 7.99975 20 9.68105 20 11L19.9902 11.3936C19.9451 12.3097 19.7424 13.2123 19.3906 14.0615C18.9886 15.0321 18.4 15.9144 17.6572 16.6572C16.9144 17.4 16.0321 17.9886 15.0615 18.3906C14.4006 18.6644 13.7068 18.8444 13 18.9336V21H16C16.5523 21 17 21.4477 17 22C17 22.5523 16.5523 23 16 23H8C7.44772 23 7 22.5523 7 22C7 21.4477 7.44772 21 8 21H11V18.9336C10.2932 18.8444 9.59943 18.6644 8.93848 18.3906C7.96795 17.9886 7.08559 17.4 6.34277 16.6572C5.59995 15.9144 5.01141 15.0321 4.60938 14.0615C4.25762 13.2123 4.05489 12.3097 4.00977 11.3936L4 11C4 10.9857 4.0009 10.9714 4.00098 10.957C4.00131 10.9495 4.00146 10.942 4.00195 10.9346C4.01281 9.6257 4.34525 7.97223 4.88184 6.32812C5.43059 4.64684 6.21522 2.90058 7.16309 1.45215L7.23828 1.35156C7.42688 1.12997 7.70486 1 8 1H16ZM8.5 11C7.68664 11 7.13349 11.1111 6.70898 11.2578C6.46206 11.3432 6.24619 11.4454 6.02734 11.5635C6.08354 12.1581 6.22765 12.7421 6.45703 13.2959C6.75856 14.0239 7.20066 14.685 7.75781 15.2422C8.31496 15.7993 8.97615 16.2414 9.7041 16.543C10.432 16.8445 11.2121 17 12 17C12.7879 17 13.568 16.8445 14.2959 16.543C15.0239 16.2414 15.685 15.7993 16.2422 15.2422C16.7993 14.685 17.2414 14.0239 17.543 13.2959C17.6246 13.0988 17.6939 12.8973 17.7539 12.6934C17.1348 12.8845 16.4118 13 15.5 13C13.4915 13 12.4341 12.3997 11.5039 11.8682C10.6841 11.3997 9.99147 11 8.5 11ZM8.55371 3C7.84265 4.1835 7.23099 5.5772 6.7832 6.94922C6.50918 7.78883 6.30458 8.5992 6.17285 9.3291C6.80798 9.12413 7.55212 9 8.5 9C10.5085 9 11.5659 9.6003 12.4961 10.1318C13.3159 10.6003 14.0085 11 15.5 11C16.3134 11 16.8665 10.8889 17.291 10.7422C17.5385 10.6566 17.7542 10.553 17.9736 10.4346C17.8968 9.46656 17.639 8.24277 17.2168 6.94922C16.769 5.5772 16.1573 4.1835 15.4463 3H8.55371Z" fill="#E4F2F2"/>
</svg>
