<svg width="24" height="24" viewBox="0 0 24 24" fill="none" xmlns="http://www.w3.org/2000/svg">
<path fill-rule="evenodd" clip-rule="evenodd" d="M16 1C16.3373 1 16.6522 1.16992 16.8369 1.45215C17.7848 2.90058 18.5694 4.64684 19.1182 6.32812C19.6637 7.99975 20 9.68105 20 11L19.9902 11.3936C19.9451 12.3097 19.7424 13.2123 19.3906 14.0615C18.9886 15.0321 18.4 15.9144 17.6572 16.6572C16.9144 17.4 16.0321 17.9886 15.0615 18.3906C14.4006 18.6644 13.7068 18.8444 13 18.9336V21H16C16.5523 21 17 21.4477 17 22C17 22.5523 16.5523 23 16 23H8C7.44772 23 7 22.5523 7 22C7 21.4477 7.44772 21 8 21H11V18.9336C10.2932 18.8444 9.59943 18.6644 8.93848 18.3906C7.96795 17.9886 7.08559 17.4 6.34277 16.6572C5.59995 15.9144 5.01141 15.0321 4.60938 14.0615C4.25762 13.2123 4.05489 12.3097 4.00977 11.3936L4 11C4 9.68105 4.33626 7.99975 4.88184 6.32812C5.43059 4.64684 6.21522 2.90058 7.16309 1.45215L7.23828 1.35156C7.42688 1.12997 7.70486 1 8 1H16ZM8.55371 3C7.84265 4.1835 7.23099 5.5772 6.7832 6.94922C6.27381 8.51003 6 9.96899 6 11C6 11.7879 6.15552 12.568 6.45703 13.2959C6.75856 14.0239 7.20066 14.685 7.75781 15.2422C8.31496 15.7993 8.97615 16.2414 9.7041 16.543C10.432 16.8445 11.2121 17 12 17C12.7879 17 13.568 16.8445 14.2959 16.543C15.0239 16.2414 15.685 15.7993 16.2422 15.2422C16.7993 14.685 17.2414 14.0239 17.543 13.2959C17.8445 12.568 18 11.7879 18 11C18 9.96899 17.7262 8.51003 17.2168 6.94922C16.769 5.5772 16.1573 4.1835 15.4463 3H14.4141L12.4141 5L14.707 7.29297C15.0976 7.68349 15.0976 8.31651 14.707 8.70703L13.4141 10L13.707 10.293C14.0976 10.6835 14.0976 11.3165 13.707 11.707C13.3165 12.0976 12.6835 12.0976 12.293 11.707L11.293 10.707C10.9024 10.3165 10.9024 9.68349 11.293 9.29297L12.5859 8L10.293 5.70703C9.90244 5.31651 9.90244 4.68349 10.293 4.29297L11.5859 3H8.55371Z" fill="#E4F2F2"/>
</svg>
