<svg width="24" height="24" viewBox="0 0 24 24" fill="none" xmlns="http://www.w3.org/2000/svg">
<path fill-rule="evenodd" clip-rule="evenodd" d="M21.165 1.44871C21.4692 0.987921 22.0898 0.860611 22.5508 1.16453C23.0117 1.46858 23.1389 2.08928 22.835 2.55027L13.5352 16.6499L13.5322 16.6538C13.53 16.6571 13.5266 16.6603 13.5244 16.6636L10.9258 20.4643C10.922 20.4698 10.9179 20.4755 10.9141 20.4809C9.71633 22.1578 7.90532 22.9995 6 22.9995H4C3.20435 22.9995 2.44151 22.6832 1.87891 22.1206C1.31639 21.558 1 20.7951 1 19.9995V18.9995C1.00008 18.2039 1.31636 17.4409 1.87891 16.8784C2.4415 16.3159 3.20442 15.9995 4 15.9995H11C11.3817 15.9995 11.6624 15.8531 11.8682 15.5444L11.875 15.5346L21.165 1.44871ZM4 17.9995C3.73485 17.9995 3.48049 18.105 3.29297 18.2925C3.1055 18.4799 3.00008 18.7344 3 18.9995V19.9995C3 20.2646 3.10552 20.519 3.29297 20.7065C3.48051 20.8941 3.73478 20.9995 4 20.9995H6C7.29468 20.9995 8.48386 20.441 9.28613 19.3179L10.1885 17.9995H4Z" fill="#E4F2F2"/>
<path fill-rule="evenodd" clip-rule="evenodd" d="M6 5.99949C7.65676 5.99949 8.99985 7.34277 9 8.99949C9 10.3052 8.16447 11.4125 7 11.8247V12.9995C7 13.5518 6.55228 13.9995 6 13.9995C5.44772 13.9995 5 13.5518 5 12.9995V11.8247C3.83553 11.4125 3 10.3052 3 8.99949C3.00015 7.34277 4.34324 5.99949 6 5.99949ZM6 7.99949C5.44781 7.99949 5.00015 8.44734 5 8.99949C5 9.55178 5.44772 9.99949 6 9.99949C6.55228 9.99949 7 9.55178 7 8.99949C6.99985 8.44734 6.55219 7.99949 6 7.99949Z" fill="#E4F2F2"/>
</svg>
