<svg width="24" height="24" viewBox="0 0 24 24" fill="none" xmlns="http://www.w3.org/2000/svg">
<path fill-rule="evenodd" clip-rule="evenodd" d="M12 4C12.4295 4.00003 12.8543 4.09227 13.2451 4.27051L13.2441 4.27148L21.8154 8.17383L21.8145 8.1748C22.163 8.32664 22.462 8.57402 22.6748 8.88965C22.8933 9.21392 23.0115 9.59534 23.0156 9.98633C23.0165 10.0768 23.0112 10.1668 23 10.2559V16C23 16.5523 22.5523 17 22 17C21.4477 17 21 16.5523 21 16V12.2109L19 13.1182V16C19 17.3662 17.9386 18.3911 16.6895 19.0156C15.4745 19.623 13.9156 19.9568 12.3193 19.9961L12 20C10.2936 20 8.60643 19.6635 7.31055 19.0156C6.06141 18.3911 5 17.3662 5 16V13.1055L2.18457 11.8223C1.83485 11.6658 1.53696 11.4116 1.32715 11.0908C1.11451 10.7656 1.00105 10.3847 1.00098 9.99609C1.00103 9.60767 1.11471 9.22752 1.32715 8.90234C1.5372 8.58104 1.83524 8.32639 2.18555 8.16992L10.7549 4.27148C11.1456 4.09326 11.5705 4.00003 12 4ZM7 16L7.01074 16.0967C7.06328 16.3502 7.32825 16.7885 8.2041 17.2266C9.15862 17.7038 10.5239 18 12 18L12.5479 17.9863C13.8109 17.9232 14.9607 17.6442 15.7959 17.2266C16.7968 16.726 17 16.225 17 16V14.0264L13.2432 15.7314C12.853 15.9091 12.4287 16.0009 12 16.001C11.6243 16.001 11.2521 15.9299 10.9033 15.793L10.7549 15.7305L7 14.0176V16ZM12 6C11.857 6.00003 11.7151 6.03052 11.585 6.08984L11.584 6.09082L3.01367 9.99023L3.00098 9.99609L3.01465 10.0029L11.585 13.9102C11.7152 13.9696 11.8569 14.0009 12 14.001C12.143 14.0009 12.2849 13.9695 12.415 13.9102H12.417L21 10.0146V10C20.9955 9.99791 20.9908 9.99615 20.9863 9.99414L12.415 6.09082C12.2848 6.03143 12.1431 6.00003 12 6Z" fill="#E4F2F2"/>
</svg>
