<svg width="24" height="24" viewBox="0 0 24 24" fill="none" xmlns="http://www.w3.org/2000/svg">
<path fill-rule="evenodd" clip-rule="evenodd" d="M21.293 1.29298C21.5789 1.00712 22.0092 0.92152 22.3828 1.07618C22.7563 1.23105 23 1.59567 23 2.00001V5.00001C22.9999 5.55212 22.5521 5.99982 22 6.00001C21.4479 5.99982 21.0001 5.55212 21 5.00001V4.41407L19.1875 6.22657C20.8936 6.68359 22.1504 8.23963 22.1504 10.0899C22.1504 11.6598 21.2449 13.017 19.9287 13.6719C20.3525 14.3066 20.5996 15.0692 20.5996 15.8897C20.5996 18.0988 18.8087 19.8897 16.5996 19.8897C15.7792 19.8896 15.0166 19.6425 14.3818 19.2188C13.727 20.5349 12.3696 21.4395 10.7998 21.4395C9.98106 21.4394 9.21989 21.1936 8.58594 20.7715C7.93248 22.0916 6.57278 23 5 23C2.7909 23 1.00007 21.2091 1 19C1 17.4274 1.90759 16.0666 3.22754 15.4131C2.80582 14.7794 2.55963 14.0185 2.55957 13.2002C2.55957 11.6305 3.46437 10.2721 4.78027 9.6172C4.35683 8.98258 4.11035 8.21959 4.11035 7.39943C4.1106 5.1905 5.90137 3.39943 8.11035 3.39943C8.93037 3.3995 9.69263 3.64695 10.3271 4.07032C10.9821 2.75431 12.3404 1.84962 13.9102 1.84962C15.7604 1.84969 17.3165 3.10642 17.7734 4.81251L21.293 1.29298ZM5 17C3.89543 17 3 17.8954 3 19C3.00007 20.1045 3.89547 21 5 21C6.10453 21 6.99993 20.1045 7 19C7 17.8954 6.10457 17 5 17ZM10.7998 15.4395C10.2683 15.4395 9.7859 15.6481 9.42773 15.9863C9.40222 16.0126 9.37681 16.0389 9.35059 16.0645C9.01029 16.423 8.79991 16.9062 8.7998 17.4395C8.7998 18.544 9.69532 19.4394 10.7998 19.4395C11.9044 19.4395 12.7998 18.544 12.7998 17.4395C12.7996 16.5534 12.223 15.8035 11.4248 15.541C11.3458 15.5223 11.2676 15.5019 11.1904 15.4785C11.0641 15.4535 10.9334 15.4395 10.7998 15.4395ZM16.5996 13.8897C15.4953 13.8899 14.5997 14.7853 14.5996 15.8897C14.5996 16.9941 15.4952 17.8894 16.5996 17.8897C17.7042 17.8897 18.5996 16.9942 18.5996 15.8897C18.5995 14.7852 17.7041 13.8897 16.5996 13.8897ZM6.55957 11.2002C5.4552 11.2004 4.55957 12.0958 4.55957 13.2002C4.55974 14.3045 5.45531 15.2 6.55957 15.2002C7.09127 15.2002 7.57341 14.9908 7.93164 14.6524C7.95828 14.625 7.98529 14.5979 8.0127 14.5713C8.35092 14.2132 8.55949 13.7317 8.55957 13.2002C8.55957 13.0656 8.54588 12.9338 8.52051 12.8067C8.49751 12.7304 8.4765 12.6533 8.45801 12.5752C8.19543 11.7769 7.44572 11.2002 6.55957 11.2002ZM12.3496 9.64943C11.2454 9.64964 10.3499 10.5452 10.3496 11.6494C10.3496 11.784 10.3633 11.9159 10.3887 12.043C10.4119 12.1198 10.4326 12.1976 10.4512 12.2764C10.6489 12.8761 11.1222 13.3495 11.7217 13.5479C11.801 13.5666 11.8796 13.587 11.957 13.6104C12.084 13.6357 12.2152 13.6494 12.3496 13.6494C13.4542 13.6494 14.3496 12.754 14.3496 11.6494C14.3494 10.5451 13.454 9.64943 12.3496 9.64943ZM18.1504 8.08986C17.6159 8.08986 17.1303 8.29999 16.7715 8.64161C16.7477 8.66601 16.7246 8.69108 16.7002 8.71486C16.36 9.07339 16.1504 9.55662 16.1504 10.0899C16.1504 11.1944 17.0458 12.0899 18.1504 12.0899C19.2548 12.0896 20.1504 11.1943 20.1504 10.0899C20.1504 8.98543 19.2548 8.09007 18.1504 8.08986ZM8.11035 5.39943C7.00594 5.39943 6.1106 6.29507 6.11035 7.39943C6.11035 8.504 7.00578 9.39943 8.11035 9.39943C9.21476 9.39924 10.1104 8.50388 10.1104 7.39943C10.1101 6.29519 9.21461 5.39962 8.11035 5.39943ZM13.9102 3.84962C12.8057 3.84962 11.9103 4.74517 11.9102 5.84962C11.9102 6.95419 12.8056 7.84962 13.9102 7.84962C14.4441 7.84958 14.9275 7.63883 15.2861 7.29786C15.3091 7.2743 15.3319 7.25055 15.3555 7.22755C15.6976 6.86866 15.9102 6.38463 15.9102 5.84962C15.91 4.74523 15.0146 3.84971 13.9102 3.84962Z" fill="#E4F2F2"/>
</svg>
