<svg width="24" height="24" viewBox="0 0 24 24" fill="none" xmlns="http://www.w3.org/2000/svg">
<path fill-rule="evenodd" clip-rule="evenodd" d="M21.293 1.29297C21.5789 1.0071 22.0092 0.921505 22.3828 1.07617C22.7563 1.23103 23 1.59566 23 2V5C22.9999 5.55211 22.5521 5.99981 22 6C21.4479 5.99981 21.0001 5.55211 21 5V4.41406L19.1875 6.22656C20.8936 6.68358 22.1504 8.23962 22.1504 10.0898C22.1504 11.6597 21.2449 13.017 19.9287 13.6719C20.3525 14.3066 20.5996 15.0692 20.5996 15.8896C20.5996 18.0988 18.8087 19.8896 16.5996 19.8896C15.7792 19.8896 15.0166 19.6425 14.3818 19.2187C13.727 20.5348 12.3696 21.4394 10.7998 21.4394C9.98106 21.4394 9.21989 21.1936 8.58594 20.7715C7.93248 22.0916 6.57278 23 5 23C2.7909 23 1.00007 21.2091 1 19C1 17.4274 1.90759 16.0666 3.22754 15.4131C2.80582 14.7794 2.55963 14.0185 2.55957 13.2002C2.55957 11.6305 3.46437 10.2721 4.78027 9.61718C4.35683 8.98256 4.11035 8.21958 4.11035 7.39941C4.1106 5.19048 5.90137 3.39941 8.11035 3.39941C8.93037 3.39948 9.69263 3.64694 10.3271 4.07031C10.9821 2.7543 12.3404 1.84961 13.9102 1.84961C15.7604 1.84968 17.3165 3.10641 17.7734 4.8125L21.293 1.29297ZM5 17C3.89543 17 3 17.8954 3 19C3.00007 20.1045 3.89547 21 5 21C6.10453 21 6.99993 20.1045 7 19C7 17.8954 6.10457 17 5 17ZM10.7998 15.4395C10.2683 15.4395 9.7859 15.6481 9.42773 15.9863C9.40222 16.0126 9.37681 16.0389 9.35059 16.0645C9.01029 16.4229 8.79991 16.9062 8.7998 17.4394C8.7998 18.544 9.69532 19.4393 10.7998 19.4394C11.9044 19.4394 12.7998 18.544 12.7998 17.4394C12.7996 16.5534 12.223 15.8035 11.4248 15.541C11.3458 15.5223 11.2676 15.5018 11.1904 15.4785C11.0641 15.4535 10.9334 15.4395 10.7998 15.4395ZM16.5996 13.8896C15.4953 13.8899 14.5997 14.7853 14.5996 15.8896C14.5996 16.9941 15.4952 17.8894 16.5996 17.8896C17.7042 17.8896 18.5996 16.9942 18.5996 15.8896C18.5995 14.7852 17.7041 13.8896 16.5996 13.8896ZM6.55957 11.2002C5.4552 11.2004 4.55957 12.0958 4.55957 13.2002C4.55974 14.3045 5.45531 15.2 6.55957 15.2002C7.09127 15.2002 7.57341 14.9908 7.93164 14.6523C7.95828 14.6249 7.98529 14.5979 8.0127 14.5713C8.35092 14.2131 8.55949 13.7317 8.55957 13.2002C8.55957 13.0655 8.54588 12.9338 8.52051 12.8066C8.49751 12.7304 8.4765 12.6533 8.45801 12.5752C8.19543 11.7769 7.44572 11.2002 6.55957 11.2002ZM12.3496 9.64941C11.2454 9.64962 10.3499 10.5452 10.3496 11.6494C10.3496 11.784 10.3633 11.9159 10.3887 12.043C10.4119 12.1198 10.4326 12.1976 10.4512 12.2764C10.6489 12.8761 11.1222 13.3495 11.7217 13.5478C11.801 13.5666 11.8796 13.587 11.957 13.6103C12.084 13.6357 12.2152 13.6494 12.3496 13.6494C13.4542 13.6494 14.3496 12.754 14.3496 11.6494C14.3494 10.5451 13.454 9.64941 12.3496 9.64941ZM18.1504 8.08984C17.6159 8.08984 17.1303 8.29997 16.7715 8.6416C16.7477 8.66599 16.7246 8.69106 16.7002 8.71484C16.36 9.07338 16.1504 9.5566 16.1504 10.0898C16.1504 11.1944 17.0458 12.0898 18.1504 12.0898C19.2548 12.0896 20.1504 11.1943 20.1504 10.0898C20.1504 8.98542 19.2548 8.09005 18.1504 8.08984ZM8.11035 5.39941C7.00594 5.39941 6.1106 6.29505 6.11035 7.39941C6.11035 8.50398 7.00578 9.39941 8.11035 9.39941C9.21476 9.39922 10.1104 8.50386 10.1104 7.39941C10.1101 6.29517 9.21461 5.3996 8.11035 5.39941ZM13.9102 3.84961C12.8057 3.84961 11.9103 4.74516 11.9102 5.84961C11.9102 6.95418 12.8056 7.84961 13.9102 7.84961C14.4441 7.84957 14.9275 7.63882 15.2861 7.29785C15.3091 7.27428 15.3319 7.25053 15.3555 7.22754C15.6976 6.86864 15.9102 6.38462 15.9102 5.84961C15.91 4.74521 15.0146 3.84969 13.9102 3.84961Z" fill="#E4F2F2"/>
</svg>
