<svg width="24" height="24" viewBox="0 0 24 24" fill="none" xmlns="http://www.w3.org/2000/svg">
<path fill-rule="evenodd" clip-rule="evenodd" d="M13 2C13.5523 2 14 2.44772 14 3V10H21C21.5523 10 22 10.4477 22 11C22 11.5523 21.5523 12 21 12H14V16H21C21.5523 16 22 16.4477 22 17C22 17.5523 21.5523 18 21 18H14V21C14 21.5523 13.5523 22 13 22C12.4477 22 12 21.5523 12 21V18H8V21C8 21.5523 7.55228 22 7 22C6.44772 22 6 21.5523 6 21V18H3C2.44772 18 2 17.5523 2 17C2 16.4477 2.44772 16 3 16H6V12H3C2.44772 12 2 11.5523 2 11C2 10.4477 2.44772 10 3 10H6V3C6 2.44772 6.44772 2 7 2C7.55228 2 8 2.44772 8 3V10H12V3C12 2.44772 12.4477 2 13 2ZM8 16H12V12H8V16Z" fill="#E4F2F2"/>
</svg>
