<svg width="24" height="24" viewBox="0 0 24 24" fill="none" xmlns="http://www.w3.org/2000/svg">
<path fill-rule="evenodd" clip-rule="evenodd" d="M15 2C15.5523 2 16 2.44772 16 3V8H21C21.5523 8 22 8.44772 22 9C22 9.55228 21.5523 10 21 10H16V14H21C21.5523 14 22 14.4477 22 15C22 15.5523 21.5523 16 21 16H16V21C16 21.5523 15.5523 22 15 22C14.4477 22 14 21.5523 14 21V16H10V21C10 21.5523 9.55228 22 9 22C8.44772 22 8 21.5523 8 21V16H3C2.44772 16 2 15.5523 2 15C2 14.4477 2.44772 14 3 14H8V10H3C2.44772 10 2 9.55228 2 9C2 8.44772 2.44772 8 3 8H8V3C8 2.44772 8.44772 2 9 2C9.55228 2 10 2.44772 10 3V8H14V3C14 2.44772 14.4477 2 15 2ZM10 14H14V10H10V14Z" fill="#E4F2F2"/>
</svg>
