<svg width="24" height="24" viewBox="0 0 24 24" fill="none" xmlns="http://www.w3.org/2000/svg">
<path fill-rule="evenodd" clip-rule="evenodd" d="M8 5C9.65685 5 11 6.34315 11 8C11 9.65685 9.65685 11 8 11C6.34315 11 5 9.65685 5 8C5 6.34315 6.34315 5 8 5ZM8 7C7.44772 7 7 7.44772 7 8C7 8.55228 7.44772 9 8 9C8.55228 9 9 8.55228 9 8C9 7.44772 8.55228 7 8 7Z" fill="#E4F2F2"/>
<path fill-rule="evenodd" clip-rule="evenodd" d="M8.34082 1.00977C9.15771 1.05484 10.1207 1.25072 11.0801 1.50098C12.1953 1.79192 13.3811 2.17654 14.458 2.55664C15.5368 2.93739 16.5186 3.31782 17.2305 3.60254C17.5235 3.71975 17.7713 3.82167 17.9619 3.90039L21.5527 2.10547C21.8626 1.95051 22.2306 1.96733 22.5254 2.14941C22.8202 2.33162 23 2.65342 23 3V13C23 13.3466 22.8202 13.6684 22.5254 13.8506C22.2306 14.0327 21.8626 14.0495 21.5527 13.8945L17.9619 12.0986C17.7712 12.1774 17.5237 12.2802 17.2305 12.3975C16.5186 12.6822 15.5368 13.0626 14.458 13.4434C13.6836 13.7167 12.8525 13.9909 12.0322 14.2324L12.4023 16.4922C12.7026 16.3567 13.0497 16.2105 13.4365 16.0645C14.831 15.5382 16.7802 15.0001 18.9395 15C19.735 15 20.498 15.3165 21.0605 15.8789C21.6232 16.4415 21.9395 17.2043 21.9395 18C21.9395 18.7957 21.6232 19.5585 21.0605 20.1211C20.498 20.6835 19.735 21 18.9395 21H17C16.735 21.0001 16.4804 21.1056 16.293 21.293C16.1055 21.4805 16 21.7349 16 22C16 22.5522 15.5521 22.9998 15 23C14.4479 22.9998 14 22.5522 14 22C14 21.2046 14.3156 20.4415 14.8779 19.8789C15.4405 19.3164 16.2045 19.0001 17 19H18.9395C19.2045 19 19.459 18.8944 19.6465 18.707C19.834 18.5195 19.9395 18.2652 19.9395 18C19.9395 17.7348 19.834 17.4805 19.6465 17.293C19.459 17.1056 19.2045 17 18.9395 17C17.0992 17.0001 15.3979 17.4619 14.1426 17.9355C13.5595 18.1556 13.0805 18.375 12.7383 18.5449L12.7871 18.8389C12.8671 19.3226 12.8101 19.8833 12.4492 20.3428C12.0766 20.8171 11.5246 21 11 21H9C7.86223 21 7.00035 20.101 6.81934 19.1963C6.81663 19.1827 6.81465 19.1689 6.8125 19.1553L6.11914 14.7402C4.9691 14.4195 3.90888 13.8093 3.0498 12.9502C1.73705 11.6374 1 9.85652 1 8C1 6.14348 1.73705 4.36256 3.0498 3.0498C4.36256 1.73705 6.14348 1 8 1L8.34082 1.00977ZM10.0879 14.7344C9.40965 14.8788 8.75648 14.9761 8.18359 14.9941L8.78223 18.8105C8.78287 18.8125 8.78408 18.8147 8.78516 18.8174C8.78875 18.8264 8.7944 18.8386 8.80273 18.8525C8.82002 18.8813 8.84455 18.9115 8.87402 18.9375C8.93614 18.9923 8.98355 19 9 19H10.7871L10.0879 14.7344ZM8 3C6.67392 3 5.40253 3.52716 4.46484 4.46484C3.52716 5.40253 3 6.67392 3 8C3 9.32608 3.52716 10.5975 4.46484 11.5352C5.16607 12.2364 6.05392 12.7081 7.01172 12.9014C7.11789 12.9025 7.22109 12.9194 7.31836 12.9521C7.54303 12.9831 7.77062 13 8 13C8.60499 13 9.47991 12.8443 10.5117 12.5781C10.5829 12.5482 10.6587 12.5257 10.7383 12.5127C10.7503 12.5107 10.7624 12.5093 10.7744 12.5078C11.7589 12.2427 12.8106 11.903 13.792 11.5566C14.838 11.1875 15.7939 10.8178 16.4883 10.54C16.6806 10.4631 16.8519 10.3917 17 10.3311V5.66797C16.852 5.60739 16.6804 5.53682 16.4883 5.45996C15.7939 5.1822 14.838 4.81254 13.792 4.44336C12.7441 4.07352 11.617 3.70807 10.5762 3.43652C9.51659 3.16011 8.61745 3 8 3ZM19 5.61816V10.3818L21 11.3818V4.61816L19 5.61816Z" fill="#E4F2F2"/>
</svg>
