<svg width="24" height="24" viewBox="0 0 24 24" fill="none" xmlns="http://www.w3.org/2000/svg">
<path d="M6.79297 14.7935C7.18349 14.4029 7.8165 14.4029 8.20703 14.7935L9.20703 15.7935C9.59724 16.184 9.59745 16.8171 9.20703 17.2075C8.8166 17.5978 8.18348 17.5977 7.79297 17.2075L6.79297 16.2075C6.40248 15.817 6.40256 15.184 6.79297 14.7935Z" fill="#E4F2F2"/>
<path fill-rule="evenodd" clip-rule="evenodd" d="M16.623 0.940918C17.0964 0.772297 17.6009 0.707863 18.1016 0.751465C18.6021 0.79513 19.0874 0.94595 19.5244 1.19385C19.9616 1.44193 20.3405 1.78147 20.6348 2.18897C20.8024 2.4211 20.9391 2.67271 21.0449 2.93701C21.3173 3.03956 21.5774 3.17561 21.8174 3.34326C22.2339 3.63439 22.5823 4.01247 22.8379 4.45166C23.0935 4.89099 23.2506 5.38114 23.2978 5.88721C23.345 6.39328 23.2813 6.90429 23.1113 7.3833C22.9413 7.86231 22.6681 8.29944 22.3125 8.6626C21.9569 9.02549 21.5259 9.30692 21.0508 9.48682C20.5755 9.66663 20.0664 9.74116 19.5596 9.70459C19.3145 9.68688 19.0725 9.64266 18.8379 9.57471L17.7061 10.7056C17.7242 10.7696 17.7452 10.8331 17.7617 10.8979C18.0545 12.0506 18.0732 13.3078 17.8437 14.5903C17.6142 15.8731 17.1384 17.1694 16.4541 18.4087C15.7694 19.6485 14.885 20.8176 13.8516 21.8511C12.6958 23.0068 10.9537 23.2248 9.21191 22.7896C7.4586 22.3512 5.6711 21.2585 4.20605 19.7935C2.74103 18.3284 1.64821 16.5409 1.20996 14.7876C0.7796 13.0654 0.989239 11.3446 2.11133 10.189C2.1234 10.1755 2.1355 10.1619 2.14843 10.1489C3.18192 9.11544 4.35006 8.23014 5.58984 7.54541C6.8292 6.86099 8.1263 6.3844 9.40918 6.15479C10.6917 5.9253 11.949 5.945 13.1016 6.23779C13.1659 6.25415 13.2294 6.27446 13.293 6.29248L14.4219 5.1626C14.3578 4.9286 14.3181 4.68745 14.3037 4.44385C14.2741 3.94227 14.3524 3.43962 14.5342 2.97119C14.716 2.50277 14.9972 2.07836 15.3574 1.72803C15.7176 1.37782 16.1498 1.10956 16.623 0.940918ZM6.30273 11.1499C4.95784 10.8138 4.04514 11.0817 3.56347 11.563C3.08195 12.0445 2.81435 12.9572 3.15039 14.3022C3.48372 15.6359 4.35682 17.116 5.62011 18.3794C6.88348 19.6428 8.36356 20.5158 9.69726 20.8491C11.0425 21.1853 11.955 20.9176 12.4365 20.436C12.9179 19.9544 13.1858 19.0418 12.8496 17.6968C12.5162 16.3632 11.6431 14.8829 10.3799 13.6196C9.11658 12.3564 7.63635 11.4833 6.30273 11.1499ZM12.6084 8.17627C11.7709 7.96362 10.8056 7.93678 9.76172 8.12354C8.77728 8.29974 7.75197 8.66281 6.74121 9.19873C6.75671 9.2025 6.77258 9.2056 6.78808 9.20947C8.54134 9.64776 10.3289 10.7406 11.7939 12.2056C13.2589 13.6705 14.3517 15.4582 14.79 17.2114C14.7938 17.2265 14.7961 17.2423 14.7998 17.2573C15.3357 16.2465 15.6988 15.2223 15.875 14.2378C16.0618 13.1935 16.0361 12.2279 15.8232 11.3901C15.6112 10.556 15.2173 9.85942 14.6787 9.3208C14.14 8.78224 13.4427 8.38825 12.6084 8.17627ZM17.9277 2.74365C17.7132 2.725 17.4968 2.75246 17.2939 2.82471C17.0912 2.89701 16.9063 3.01255 16.752 3.1626C16.5977 3.31263 16.4773 3.49427 16.3994 3.69482C16.3216 3.89555 16.2871 4.11174 16.2998 4.32666C16.3126 4.54137 16.3718 4.75093 16.4727 4.94092C16.6787 5.32897 16.6075 5.80692 16.2969 6.11768L15.2246 7.18897C15.5344 7.40121 15.8258 7.63884 16.0928 7.90576C16.3598 8.17275 16.5972 8.46503 16.8096 8.7749L17.8926 7.69287L18.0186 7.58643C18.3281 7.36528 18.7428 7.3369 19.084 7.52588C19.2744 7.63138 19.486 7.69369 19.7031 7.70947C19.9203 7.72514 20.1391 7.69368 20.3428 7.6167C20.5464 7.53962 20.7314 7.41864 20.8838 7.26318C21.0362 7.10753 21.1537 6.91965 21.2266 6.71436C21.2993 6.50922 21.3258 6.29045 21.3057 6.07373C21.2854 5.8567 21.219 5.64592 21.1094 5.45752C20.9998 5.26915 20.8495 5.10677 20.6709 4.98193C20.4924 4.85732 20.2886 4.77298 20.0742 4.73486C19.6689 4.6626 19.3489 4.34861 19.2686 3.94482C19.2265 3.73382 19.1396 3.53432 19.0137 3.35986C18.8876 3.18529 18.7253 3.03941 18.5381 2.93311C18.3508 2.82685 18.1423 2.76236 17.9277 2.74365Z" fill="#E4F2F2"/>
</svg>
