<svg width="24" height="24" viewBox="0 0 24 24" fill="none" xmlns="http://www.w3.org/2000/svg">
<path fill-rule="evenodd" clip-rule="evenodd" d="M12 2C14.5819 2 17.0938 2.79574 18.9775 4.26074C20.8671 5.73043 22 7.78553 22 10C22 10.5208 21.8617 11.026 21.6104 11.4717C21.7932 11.5882 21.9654 11.7232 22.1211 11.8789C22.6837 12.4415 23 13.2043 23 14C23 14.7957 22.6837 15.5585 22.1211 16.1211C21.9655 16.2767 21.793 16.4109 21.6104 16.5273C21.862 16.9732 22 17.4789 22 18C22 19.0609 21.5783 20.078 20.8281 20.8281C20.078 21.5783 19.0609 22 18 22H6C4.93913 22 3.92202 21.5783 3.17188 20.8281C2.46859 20.1248 2.0539 19.1869 2.00488 18.1982L2 18C2 17.4791 2.13716 16.9731 2.38867 16.5273C2.20627 16.411 2.03429 16.2765 1.87891 16.1211C1.3163 15.5585 1 14.7956 1 14C1 13.2044 1.3163 12.4415 1.87891 11.8789C2.03409 11.7237 2.20555 11.5889 2.3877 11.4727C2.18437 11.1122 2.05595 10.7123 2.01465 10.2969L2 10C2 7.78553 3.13286 5.73043 5.02246 4.26074C6.90619 2.79574 9.41812 2 12 2ZM5 17C4.73478 17 4.48051 17.1054 4.29297 17.293C4.10543 17.4805 4 17.7348 4 18L4.00977 18.1973C4.05515 18.6553 4.25765 19.0858 4.58594 19.4141C4.96101 19.7891 5.46957 20 6 20H18L18.1973 19.9902C18.6553 19.9449 19.0858 19.7423 19.4141 19.4141C19.7423 19.0858 19.9449 18.6553 19.9902 18.1973L20 18C20 17.7348 19.8946 17.4805 19.707 17.293C19.5195 17.1054 19.2652 17 19 17H16.2334C16.0292 17.2277 15.7923 17.4247 15.5283 17.5811C15.1893 17.7818 14.8138 17.914 14.4238 17.9697C13.6365 18.0821 12.8365 17.8775 12.2002 17.4004L11.668 17H5ZM13.4004 15.7998C13.6125 15.9588 13.8792 16.0277 14.1416 15.9902C14.2715 15.9716 14.3968 15.9272 14.5098 15.8604C14.6226 15.7935 14.7211 15.7046 14.7998 15.5996L16.75 13H9.66895L13.4004 15.7998ZM17.75 15H20C20.2652 15 20.5195 14.8946 20.707 14.707C20.8946 14.5195 21 14.2652 21 14C21 13.7348 20.8946 13.4805 20.707 13.293C20.5195 13.1054 20.2652 13 20 13H19.25L17.75 15ZM4 13C3.73478 13 3.48051 13.1054 3.29297 13.293C3.10543 13.4805 3 13.7348 3 14C3 14.2652 3.10543 14.5195 3.29297 14.707C3.48051 14.8946 3.73478 15 4 15H9.00195L6.33594 13H4ZM12 4C9.80812 4 7.74189 4.67948 6.25 5.83984C4.76402 6.99565 4 8.50147 4 10L4.00488 10.0986C4.02757 10.3276 4.12883 10.5429 4.29297 10.707C4.48051 10.8946 4.73478 11 5 11H19C19.2652 11 19.5195 10.8946 19.707 10.707C19.8946 10.5195 20 10.2652 20 10C20 8.50147 19.236 6.99565 17.75 5.83984C16.2581 4.67948 14.1919 4 12 4Z" fill="#E4F2F2"/>
</svg>
