<svg width="24" height="24" viewBox="0 0 24 24" fill="none" xmlns="http://www.w3.org/2000/svg">
<path fill-rule="evenodd" clip-rule="evenodd" d="M12.2969 1.01465C12.9835 1.08291 13.6289 1.38673 14.1211 1.87891C14.494 2.25186 14.7555 2.71371 14.8916 3.21387C15.2411 3.07473 15.6165 3.00001 16 3L16.2969 3.01465C16.9835 3.08291 17.6289 3.38673 18.1211 3.87891C18.494 4.25186 18.7555 4.71371 18.8916 5.21387C19.2411 5.07474 19.6165 5.00001 20 5C20.7956 5.00001 21.5585 5.31634 22.1211 5.87891C22.6837 6.44151 23 7.20436 23 8V14C23 16.3869 22.0521 18.6764 20.3643 20.3643C18.6764 22.052 16.3869 23 14 23H12C8.93126 23 6.97958 22.0318 5.30567 20.3691L5.30274 20.3672L1.70313 16.7676C1.69118 16.7556 1.67929 16.743 1.66797 16.7305C1.15188 16.1589 0.875217 15.4104 0.895509 14.6406C0.915814 13.8708 1.23183 13.1383 1.77734 12.5947C2.32284 12.0512 3.05634 11.7383 3.82617 11.7207C4.23135 11.7115 4.62997 11.785 5 11.9316V6C5 5.20437 5.31632 4.44151 5.87891 3.87891C6.4415 3.31631 7.20438 3.00002 8 3L8.29688 3.01465C8.57663 3.04246 8.84893 3.11105 9.10742 3.21387C9.24349 2.71361 9.5059 2.25192 9.87891 1.87891C10.4415 1.31631 11.2044 1.00002 12 1L12.2969 1.01465ZM12 3C11.7348 3.00002 11.4805 3.10545 11.293 3.29297C11.1055 3.4805 11 3.7348 11 4V10.5C11 11.0523 10.5523 11.5 10 11.5C9.44775 11.5 9 11.0523 9 10.5V6C9 5.73478 8.89457 5.48051 8.70703 5.29297C8.54289 5.12885 8.32762 5.02757 8.09863 5.00488L8 5C7.73481 5.00002 7.48049 5.10545 7.29297 5.29297C7.10545 5.4805 7 5.7348 7 6V13.5859L7.70703 14.293C8.09753 14.6835 8.09753 15.3165 7.70703 15.707C7.31651 16.0975 6.68348 16.0975 6.29297 15.707L4.55664 13.9707C4.36819 13.8041 4.12388 13.7141 3.87207 13.7197C3.61544 13.7256 3.37031 13.8305 3.18848 14.0117C3.00683 14.1929 2.9013 14.4369 2.89453 14.6934C2.8879 14.9453 2.97752 15.1898 3.14356 15.3789L6.71387 18.9502C8.01991 20.2475 9.46889 21 12 21H14C15.8565 21 17.6375 20.2629 18.9502 18.9502C20.181 17.7194 20.9055 16.077 20.9912 14.3467L21 14V8C21 7.73479 20.8946 7.4805 20.707 7.29297C20.5195 7.10547 20.2652 7.00001 20 7C19.7348 7.00003 19.4805 7.10547 19.293 7.29297C19.1055 7.4805 19 7.73481 19 8V11C19 11.5523 18.5523 12 18 12C17.4477 12 17 11.5523 17 11V6C17 5.73478 16.8946 5.48051 16.707 5.29297C16.5429 5.12885 16.3276 5.02757 16.0986 5.00488L16 5C15.7348 5.00002 15.4805 5.10545 15.293 5.29297C15.1055 5.4805 15 5.7348 15 6V10C15 10.5523 14.5523 11 14 11C13.4477 11 13 10.5523 13 10V4C13 3.73478 12.8946 3.48051 12.707 3.29297C12.5429 3.12884 12.3276 3.02757 12.0986 3.00488L12 3Z" fill="#E4F2F2"/>
</svg>
