<svg width="24" height="24" viewBox="0 0 24 24" fill="none" xmlns="http://www.w3.org/2000/svg">
<path fill-rule="evenodd" clip-rule="evenodd" d="M12.2969 5.01465C12.9835 5.08291 13.6289 5.38671 14.1211 5.87891C14.2765 6.03429 14.411 6.20627 14.5273 6.38867C14.9731 6.13716 15.4791 6 16 6L16.2969 6.01465C16.9835 6.08291 17.6289 6.38671 18.1211 6.87891C18.4941 7.25187 18.7555 7.7137 18.8916 8.21387C19.2411 8.07474 19.6165 8 20 8L20.2969 8.01465C20.9835 8.08291 21.6289 8.38671 22.1211 8.87891C22.6837 9.44151 23 10.2043 23 11V14C23 16.3869 22.0521 18.6764 20.3643 20.3643C18.6764 22.0521 16.3869 23 14 23H10C7.61305 23 5.32357 22.0521 3.63574 20.3643C1.94791 18.6764 1 16.3869 1 14C1 13.2044 1.3163 12.4415 1.87891 11.8789C2.44151 11.3163 3.20435 11 4 11L4.29688 11.0146C4.39218 11.0241 4.48667 11.0382 4.58008 11.0566C4.59456 11.0595 4.60862 11.0643 4.62305 11.0674C4.69734 11.0832 4.77106 11.1007 4.84375 11.1221C4.87994 11.1327 4.91544 11.1453 4.95117 11.1572C4.96738 11.1627 4.98389 11.1671 5 11.1729V9C5 8.20435 5.3163 7.44152 5.87891 6.87891C6.44152 6.3163 7.20435 6 8 6L8.29688 6.01465C8.71234 6.05595 9.1122 6.18437 9.47266 6.3877C9.58889 6.20555 9.72372 6.03409 9.87891 5.87891C10.4415 5.3163 11.2044 5 12 5L12.2969 5.01465ZM12 7C11.7348 7 11.4805 7.10543 11.293 7.29297C11.1054 7.48051 11 7.73478 11 8V10C11 10.5523 10.5523 11 10 11C9.44771 11 9 10.5523 9 10V9C9 8.73478 8.89457 8.48051 8.70703 8.29297C8.54289 8.12883 8.32763 8.02757 8.09863 8.00488L8 8C7.73478 8 7.4805 8.10543 7.29297 8.29297C7.10543 8.4805 7 8.73478 7 9V14C7 14.5523 6.55228 15 6 15C5.44772 15 5 14.5523 5 14C5 13.7348 4.89457 13.4805 4.70703 13.293C4.51949 13.1054 4.26522 13 4 13C3.73478 13 3.48051 13.1054 3.29297 13.293C3.10543 13.4805 3 13.7348 3 14L3.00879 14.3467C3.09452 16.077 3.819 17.7194 5.0498 18.9502C6.36256 20.2629 8.14348 21 10 21H14L14.3467 20.9912C16.077 20.9055 17.7194 20.181 18.9502 18.9502C20.181 17.7194 20.9055 16.077 20.9912 14.3467L21 14V11C21 10.7348 20.8946 10.4805 20.707 10.293C20.5429 10.1288 20.3276 10.0276 20.0986 10.0049L20 10C19.7348 10 19.4805 10.1054 19.293 10.293C19.1066 10.4794 19.0013 10.7317 19 10.9951V11.5C19 12.0523 18.5523 12.5 18 12.5C17.4477 12.5 17 12.0523 17 11.5V9C17 8.73478 16.8946 8.48051 16.707 8.29297C16.5429 8.12883 16.3276 8.02757 16.0986 8.00488L16 8C15.7348 8 15.4805 8.10543 15.293 8.29297C15.1054 8.48051 15 8.73478 15 9V10.4004L14.9951 10.502C14.9441 11.0064 14.5179 11.4004 14 11.4004C13.4821 11.4004 13.0559 11.0064 13.0049 10.502L13 10.4004V8C13 7.73478 12.8946 7.48051 12.707 7.29297C12.5429 7.12883 12.3276 7.02757 12.0986 7.00488L12 7Z" fill="#E4F2F2"/>
</svg>
