<svg width="24" height="24" viewBox="0 0 24 24" fill="none" xmlns="http://www.w3.org/2000/svg">
<path fill-rule="evenodd" clip-rule="evenodd" d="M20.1094 5.94434C20.9052 5.96685 21.6602 6.30516 22.207 6.88379C22.7536 7.4624 23.0479 8.23461 23.0254 9.03027C23.0029 9.82414 22.6659 10.5756 22.0898 11.1221L22.0908 11.123L17.5137 15.5C16.6006 16.5173 15.3286 17 14 17H10C9.61183 17 9.45726 17.1245 9.40039 17.2002C9.35875 17.2557 9.311 17.3068 9.25879 17.3525L8.46289 18.0488L8.70703 18.293C9.09751 18.6834 9.09741 19.3165 8.70703 19.707C8.3165 20.0976 7.68349 20.0976 7.29297 19.707L1.29297 13.707C0.902509 13.3165 0.902465 12.6835 1.29297 12.293C1.68348 11.9026 2.31655 11.9026 2.70703 12.293L3.01172 12.5977L7.8623 7.92187C8.40655 7.25627 9.21871 7 10 7H13C13.7956 7.00002 14.5585 7.31636 15.1211 7.87891C15.3923 8.1501 15.604 8.46896 15.7529 8.81445L17.9629 6.76465C18.5414 6.21792 19.3137 5.92196 20.1094 5.94434ZM20.0537 7.94336C19.8213 7.93679 19.5944 8.01141 19.4121 8.15234L19.3301 8.22266L15.1309 12.123C15.0984 12.1531 15.0634 12.1791 15.0283 12.2041C14.4757 12.7128 13.7541 13 13 13H11C10.4477 13 10 12.5523 10 12C10.0001 11.4478 10.4478 11 11 11H13C13.2652 11 13.5195 10.8945 13.707 10.707C13.8945 10.5195 14 10.2651 14 10C13.9999 9.73486 13.8945 9.48046 13.707 9.29297C13.5429 9.12888 13.3276 9.02758 13.0986 9.00488L13 9H10C9.61182 9 9.45726 9.12453 9.40039 9.20019C9.3684 9.24285 9.33232 9.28329 9.29394 9.32031L4.42676 14.0127L7.04492 16.6309L7.8789 15.9014C8.42299 15.2509 9.22671 15 10 15H14C14.853 15 15.5634 14.6952 16.0478 14.1416L16.1084 14.0771L20.709 9.67773L20.7129 9.67383C20.906 9.49134 21.0188 9.2392 21.0264 8.97363C21.0339 8.70805 20.9354 8.44996 20.7529 8.25684C20.5705 8.06399 20.319 7.95098 20.0537 7.94336Z" fill="#E4F2F2"/>
</svg>
