<svg width="24" height="24" viewBox="0 0 24 24" fill="none" xmlns="http://www.w3.org/2000/svg">
<path fill-rule="evenodd" clip-rule="evenodd" d="M13.5684 2.05078C15.0673 1.86607 16.5854 2.18632 17.8818 2.96094L18.3516 3.24121L18.502 3.31641C18.6517 3.37645 18.8144 3.39934 18.9756 3.38281L19.0674 3.36914L20.0117 3.17871L20.0039 3.09082C19.954 2.54103 20.3595 2.05413 20.9092 2.00391C21.4591 1.95392 21.9459 2.3594 21.9961 2.90918L22.9961 13.9092C23.0215 14.189 22.9278 14.4673 22.7383 14.6748C22.5488 14.8821 22.2808 15 22 15H21.1211C21.1209 15.8275 20.7922 16.6228 20.207 17.208C19.6217 17.7931 18.8276 18.1221 18 18.1221C17.8531 18.1221 17.7073 18.1111 17.5635 18.0908C17.5238 18.297 17.4645 18.4994 17.3838 18.6943C17.2269 19.073 16.9969 19.4172 16.707 19.707C16.4172 19.9969 16.073 20.2269 15.6943 20.3838C15.3157 20.5406 14.9098 20.6211 14.5 20.6211C14.0902 20.6211 13.6843 20.5406 13.3057 20.3838C13.1619 20.3242 13.0234 20.2538 12.8906 20.1738C12.7352 20.5568 12.505 20.9091 12.207 21.207C11.6217 21.7924 10.8278 22.1211 10 22.1211C9.17225 22.121 8.37829 21.7923 7.79298 21.207L1.29298 14.707C1.08325 14.4972 0.977054 14.2047 1.00391 13.9092L2.00391 2.90918C2.05412 2.35945 2.54104 1.95404 3.09083 2.00391C3.61017 2.05126 4.00035 2.48833 4.00001 3H10.8555C11.6769 2.49707 12.6004 2.1701 13.5684 2.05078ZM3.82227 5L3.03809 13.624L9.20704 19.793C9.41728 20.0032 9.70269 20.121 10 20.1211C10.2974 20.1211 10.5827 20.0033 10.793 19.793C11.0033 19.5827 11.1211 19.2974 11.1211 19C11.1211 18.7027 11.0032 18.4173 10.793 18.207L10.293 17.707C9.90264 17.3165 9.90253 16.6834 10.293 16.293C10.6834 15.9025 11.3165 15.9026 11.707 16.293L13.707 18.293C13.8111 18.397 13.9353 18.4798 14.0713 18.5361C14.2072 18.5924 14.353 18.6211 14.5 18.6211C14.6471 18.6211 14.7928 18.5923 14.9287 18.5361C15.0648 18.4798 15.1889 18.3971 15.293 18.293C15.3971 18.1888 15.4798 18.0648 15.5361 17.9287C15.5924 17.7928 15.6211 17.6471 15.6211 17.5C15.6211 17.353 15.5924 17.2072 15.5361 17.0713C15.4813 16.9389 15.4011 16.8182 15.3008 16.7158L13.293 14.708C12.9025 14.3175 12.9026 13.6835 13.293 13.293C13.6834 12.9027 14.3165 12.9029 14.707 13.293L17.207 15.793C17.4173 16.0031 17.7028 16.122 18 16.1221C18.2973 16.1221 18.5827 16.0032 18.793 15.793C19.003 15.5829 19.1209 15.298 19.1211 15.001C19.1211 14.7037 19.0031 14.4183 18.793 14.208L14.9131 10.3272C14.5381 9.95275 14.0299 9.74317 13.5 9.74317C12.9701 9.74323 12.4619 9.95365 12.0869 10.3281L12.0859 10.3272L11.207 11.208C10.6217 11.7931 9.82759 12.1221 9.00001 12.1221C8.17241 12.122 7.37826 11.7931 6.79298 11.208C6.20781 10.6228 5.87913 9.82852 5.87891 9.00098C5.87891 8.17322 6.20771 7.37832 6.79298 6.79297L8.58692 5H3.82227ZM16.8574 4.67871C15.9427 4.13178 14.8713 3.90585 13.8135 4.03613C12.7557 4.16649 11.7713 4.64581 11.0166 5.39844L8.20704 8.20801C7.99706 8.41825 7.87891 8.70382 7.87891 9.00098C7.87913 9.29791 7.99717 9.58291 8.20704 9.79297C8.41726 10.0031 8.70278 10.122 9.00001 10.1221C9.29732 10.1221 9.58271 10.0032 9.79298 9.79297L10.6729 8.91309C11.4228 8.16412 12.4401 7.74323 13.5 7.74317C14.4938 7.74317 15.45 8.11282 16.1836 8.77637L16.3272 8.91309L20.207 12.793C20.2733 12.8593 20.3359 12.9286 20.3955 13H20.9043L20.1934 5.18164L19.457 5.33106L19.4531 5.33203C18.7231 5.47572 17.9657 5.34226 17.3281 4.95899L16.8584 4.67969L16.8574 4.67871Z" fill="#E4F2F2"/>
</svg>
