<svg width="24" height="24" viewBox="0 0 24 24" fill="none" xmlns="http://www.w3.org/2000/svg">
<path fill-rule="evenodd" clip-rule="evenodd" d="M12.248 1.00586C13.4838 1.06719 14.6561 1.5858 15.5352 2.46484C16.4728 3.40253 17 4.67392 17 6V7H18L18.2549 7.01074C18.8459 7.06126 19.4113 7.28665 19.877 7.66016C20.409 8.0871 20.7796 8.68275 20.9277 9.34863L22.9277 18.3486C23.0252 18.7871 23.0227 19.2422 22.9209 19.6797C22.8191 20.1172 22.6208 20.5265 22.3398 20.877C22.0589 21.2272 21.7026 21.5098 21.2979 21.7041C20.9436 21.8741 20.5592 21.9731 20.168 21.9951L20 22H3.99902C3.55012 21.9998 3.10686 21.8983 2.70215 21.7041C2.29729 21.5097 1.94015 21.2273 1.65918 20.877C1.3783 20.5266 1.17989 20.1171 1.07812 19.6797C0.976381 19.2423 0.973843 18.787 1.07129 18.3486L3.07129 9.34863C3.21941 8.68266 3.59093 8.08713 4.12305 7.66016C4.65513 7.23334 5.31692 7.00031 5.99902 7H7V6C7 4.67393 7.52717 3.40252 8.46484 2.46484C9.40252 1.52717 10.6739 1.00001 12 1L12.248 1.00586ZM5.83105 9.01465C5.66486 9.04321 5.50699 9.11305 5.37402 9.21973C5.19671 9.36207 5.07278 9.56124 5.02344 9.7832L3.02344 18.7832C2.99103 18.9292 2.99248 19.0809 3.02637 19.2266C3.06028 19.3723 3.12613 19.5092 3.21973 19.626C3.31332 19.7426 3.43257 19.8366 3.56738 19.9014C3.70226 19.9661 3.8504 19.9999 4 20H19.999C20.1486 20 20.2968 19.966 20.4316 19.9014C20.5665 19.8367 20.6857 19.7426 20.7793 19.626C20.873 19.5092 20.9397 19.3724 20.9736 19.2266C21.0075 19.0808 21.008 18.9293 20.9756 18.7832L18.9756 9.7832C18.9262 9.56117 18.8024 9.36206 18.625 9.21973C18.4919 9.1131 18.3342 9.04311 18.168 9.01465L17.999 9H17V11C17 11.5523 16.5523 12 16 12C15.4477 12 15 11.5523 15 11V9H9V11C9 11.5523 8.55228 12 8 12C7.44773 12 7 11.5523 7 11V9H6L5.83105 9.01465ZM12 3C11.2044 3.00001 10.4415 3.3163 9.87891 3.87891C9.31631 4.44151 9 5.20436 9 6V7H15V6C15 5.20435 14.6837 4.44152 14.1211 3.87891C13.6289 3.38672 12.9835 3.08291 12.2969 3.01465L12 3Z" fill="#E4F2F2"/>
</svg>
