<svg width="24" height="24" viewBox="0 0 24 24" fill="none" xmlns="http://www.w3.org/2000/svg">
<path fill-rule="evenodd" clip-rule="evenodd" d="M8.29688 2.01465C8.9835 2.08291 9.6289 2.38673 10.1211 2.87891C10.6837 3.44151 11 4.20435 11 5V6.1748C11.3185 6.062 11.6557 6.00001 12 6L12.2969 6.01465C12.9835 6.08291 13.6289 6.38673 14.1211 6.87891C14.2765 7.03428 14.411 7.20628 14.5273 7.38867C14.9731 7.13716 15.4791 7.00001 16 7L16.2969 7.01465C16.5381 7.03863 16.7738 7.09279 17 7.17285V7C17 6.20437 17.3163 5.44151 17.8789 4.87891C18.4415 4.31633 19.2044 4.00003 20 4C20.7956 4.00001 21.5585 4.31634 22.1211 4.87891C22.6837 5.44151 23 6.20436 23 7V14C23 16.3869 22.0521 18.6764 20.3643 20.3643C18.6764 22.052 16.3869 23 14 23H12C8.93127 23 6.97958 22.0318 5.30567 20.3691L5.30274 20.3672L1.70313 16.7676C1.69119 16.7556 1.6793 16.743 1.66797 16.7305C1.15189 16.1589 0.875221 15.4104 0.895512 14.6406C0.915818 13.8708 1.23184 13.1383 1.77735 12.5947C2.32284 12.0512 3.05634 11.7383 3.82618 11.7207C4.23136 11.7115 4.62998 11.785 5 11.9316V5C5 4.20437 5.31632 3.44151 5.87891 2.87891C6.4415 2.31631 7.20438 2.00002 8 2L8.29688 2.01465ZM8 4C7.73481 4.00002 7.48049 4.10545 7.29297 4.29297C7.10546 4.4805 7 4.7348 7 5V13.5859L7.70704 14.293C8.09754 14.6835 8.09754 15.3165 7.70704 15.707C7.31651 16.0975 6.68348 16.0975 6.29297 15.707L4.55665 13.9707C4.36819 13.8041 4.12388 13.7141 3.87207 13.7197C3.61545 13.7256 3.37032 13.8305 3.18848 14.0117C3.00683 14.1929 2.9013 14.4369 2.89454 14.6934C2.88791 14.9453 2.97753 15.1898 3.14356 15.3789L6.71387 18.9502C8.01991 20.2475 9.46889 21 12 21H14C15.8565 21 17.6375 20.2629 18.9502 18.9502C20.181 17.7194 20.9055 16.077 20.9912 14.3467L21 14V7C21 6.73479 20.8946 6.4805 20.707 6.29297C20.5195 6.10547 20.2652 6.00001 20 6C19.7348 6.00003 19.4805 6.10547 19.293 6.29297C19.1055 6.4805 19 6.73481 19 7V12.5C19 13.0523 18.5523 13.5 18 13.5C17.4478 13.5 17 13.0523 17 12.5V10C17 9.73478 16.8946 9.48051 16.707 9.29297C16.5429 9.12884 16.3276 9.02757 16.0986 9.00488L16 9C15.7348 9.00002 15.4805 9.10545 15.293 9.29297C15.1055 9.4805 15 9.7348 15 10V11.4004L14.9951 11.502C14.9441 12.0064 14.5179 12.4004 14 12.4004C13.4822 12.4004 13.0559 12.0063 13.0049 11.502L13 11.4004V9C13 8.73478 12.8946 8.48051 12.707 8.29297C12.5429 8.12885 12.3276 8.02757 12.0986 8.00488L12 8C11.7348 8.00002 11.4805 8.10545 11.293 8.29297C11.1055 8.4805 11 8.7348 11 9V11C11 11.5523 10.5523 12 10 12C9.44775 12 9 11.5523 9 11V5C9 4.73478 8.89457 4.48051 8.70704 4.29297C8.5429 4.12884 8.32762 4.02757 8.09864 4.00488L8 4Z" fill="#E4F2F2"/>
</svg>
