<svg width="24" height="24" viewBox="0 0 24 24" fill="none" xmlns="http://www.w3.org/2000/svg">
<path fill-rule="evenodd" clip-rule="evenodd" d="M17.3701 2.10352C18.1077 1.92553 18.8822 1.97577 19.5908 2.24707C20.2996 2.51849 20.9097 2.99874 21.3398 3.62403C21.7699 4.24936 22.0001 4.99108 22 5.75L21.9873 6.04102C21.9288 6.71435 21.6764 7.34224 21.3828 7.86426C21.322 7.97234 21.2565 8.07753 21.1904 8.18067C21.5707 8.34108 21.9183 8.57821 22.207 8.88379C22.7536 9.46239 23.0479 10.2346 23.0254 11.0303C23.0028 11.8241 22.6659 12.5756 22.0898 13.1221L22.0908 13.123L17.5137 17.5C16.6006 18.5173 15.3286 19 14 19H10C9.61183 19 9.45727 19.1245 9.40039 19.2002C9.35876 19.2557 9.31098 19.3068 9.25879 19.3525L8.46289 20.0488L8.70703 20.293C9.09752 20.6835 9.09749 21.3165 8.70703 21.707C8.31651 22.0976 7.6835 22.0975 7.29297 21.707L1.29297 15.707C0.902445 15.3165 0.902445 14.6835 1.29297 14.293C1.6835 13.9025 2.31653 13.9025 2.70703 14.293L3.01172 14.5977L7.86231 9.92188C8.40656 9.2562 9.21867 9 10 9H11.418C10.7461 8.23825 10.0001 7.109 10 5.75C9.99991 4.99108 10.2301 4.24936 10.6602 3.62403C11.0903 2.99877 11.7005 2.51848 12.4092 2.24707C13.1178 1.9758 13.8923 1.9255 14.6299 2.10352C15.1288 2.22399 15.5936 2.4478 16 2.75293C16.4063 2.44784 16.8712 2.22398 17.3701 2.10352ZM20.0537 9.94336C19.7882 9.93586 19.53 10.0344 19.3369 10.2168C19.3183 10.2344 19.2979 10.2497 19.2783 10.2656L16.6807 12.6816C16.6718 12.6899 16.6624 12.6982 16.6533 12.7061L15.1309 14.1221C15.0984 14.1523 15.0635 14.1791 15.0283 14.2041C14.4757 14.7127 13.7541 15 13 15H11C10.4477 15 10 14.5523 10 14C10 13.4477 10.4477 13 11 13H13C13.2652 13 13.5195 12.8946 13.707 12.707C13.8945 12.5195 14 12.2652 14 12C14 11.7348 13.8945 11.4805 13.707 11.293C13.5195 11.1055 13.2652 11 13 11H10C9.61165 11 9.4572 11.1245 9.40039 11.2002C9.36838 11.2429 9.33235 11.2833 9.29395 11.3203L4.42676 16.0127L7.04492 18.6309L7.87891 17.9014C8.42299 17.2509 9.22672 17 10 17H14C14.853 17 15.5634 16.6952 16.0479 16.1416L16.1084 16.0772L20.709 11.6777L20.7129 11.6738C20.906 11.4914 21.0188 11.2392 21.0264 10.9736C21.0339 10.7081 20.9353 10.45 20.7529 10.2568C20.5705 10.064 20.319 9.95099 20.0537 9.94336ZM18.876 4.11524C18.5452 3.9886 18.1831 3.96476 17.8389 4.04785C17.4948 4.131 17.1837 4.31671 16.9473 4.58008L16.9385 4.58985C16.8191 4.71946 16.6741 4.82371 16.5127 4.89453C16.3512 4.96535 16.1764 5.00195 16 5.00196C15.8236 5.00196 15.6488 4.96536 15.4873 4.89453C15.3259 4.82371 15.181 4.71951 15.0615 4.58985L15.0527 4.58008C14.8163 4.31666 14.5052 4.13101 14.1611 4.04785C13.8169 3.96473 13.4548 3.98863 13.124 4.11524C12.7935 4.24189 12.5083 4.46618 12.3076 4.75782C12.1073 5.04937 12.0001 5.39527 12 5.74903C12.0002 6.52268 12.5393 7.31844 13.1992 7.98047L15.999 10.583L18.7988 7.98047C19.0921 7.68601 19.4058 7.2996 19.6396 6.88379C19.8797 6.45689 19.9999 6.06641 20 5.75C19.9999 5.39625 19.8927 5.04937 19.6924 4.75782C19.4917 4.46614 19.2066 4.2419 18.876 4.11524Z" fill="#E4F2F2"/>
</svg>
