<svg width="24" height="24" viewBox="0 0 24 24" fill="none" xmlns="http://www.w3.org/2000/svg">
<path fill-rule="evenodd" clip-rule="evenodd" d="M16 5.09961C18.1363 5.09982 19.8695 6.8185 19.8975 8.94824C19.9678 8.94525 20.0385 8.94234 20.1094 8.94434C20.9052 8.96685 21.6602 9.30516 22.207 9.88379C22.7536 10.4624 23.0479 11.2347 23.0254 12.0303C23.0028 12.8241 22.6659 13.5757 22.0898 14.1221L22.0908 14.123L17.5137 18.5C16.6006 19.5172 15.3285 20 14 20H10C9.61183 20 9.45727 20.1245 9.40039 20.2002C9.35877 20.2557 9.31097 20.3068 9.25879 20.3525L8.46289 21.0488L8.70703 21.293C9.09751 21.6835 9.09751 22.3165 8.70703 22.707C8.31652 23.0975 7.6835 23.0975 7.29297 22.707L1.29297 16.707C0.902445 16.3165 0.902445 15.6835 1.29297 15.293C1.6835 14.9025 2.31652 14.9025 2.70703 15.293L3.01172 15.5977L7.86231 10.9219C8.40656 10.2562 9.21866 10 10 10H12.2295C12.1451 9.68097 12.0996 9.34556 12.0996 9C12.0998 6.84637 13.8464 5.09978 16 5.09961ZM20.0537 10.9434C19.8213 10.9368 19.5944 11.0114 19.4121 11.1523L19.3301 11.2227L18.7861 11.7266C18.6994 11.8152 18.6085 11.8994 18.5137 11.9795L15.1309 15.123C15.0984 15.1531 15.0634 15.1791 15.0283 15.2041C14.4757 15.7127 13.7541 16 13 16H11C10.4477 16 10 15.5523 10 15C10 14.4477 10.4477 14 11 14H13C13.2652 14 13.5195 13.8946 13.707 13.707C13.8945 13.5195 14 13.2652 14 13C14 12.7348 13.8945 12.4805 13.707 12.293C13.5195 12.1054 13.2652 12 13 12H10C9.61159 12 9.45718 12.1245 9.40039 12.2002C9.36837 12.2429 9.33236 12.2833 9.29395 12.3203L4.42676 17.0127L7.04492 19.6309L7.87891 18.9014C8.42299 18.2509 9.22672 18 10 18H14C14.853 18 15.5634 17.6952 16.0479 17.1416L16.1084 17.0771L20.709 12.6777L20.7129 12.6738C20.9059 12.4914 21.0188 12.2391 21.0264 11.9736C21.0339 11.7081 20.9353 11.4499 20.7529 11.2568C20.5705 11.064 20.319 10.951 20.0537 10.9434ZM16 7.09961C14.9509 7.09978 14.0998 7.95094 14.0996 9C14.0998 10.0491 14.9509 10.8992 16 10.8994C16.4563 10.8993 16.8747 10.7379 17.2021 10.4697L17.3711 10.3135C17.698 9.97233 17.8993 9.50983 17.8994 9C17.8992 7.95097 17.049 7.09982 16 7.09961Z" fill="#E4F2F2"/>
<path fill-rule="evenodd" clip-rule="evenodd" d="M6 1C8.20911 1.00004 10 2.79089 10 5C10 7.20911 8.20911 8.99996 6 9C3.79086 9 2 7.20914 2 5C2 2.79086 3.79086 1 6 1ZM6 3C4.89543 3 4 3.89543 4 5C4 6.10457 4.89543 7 6 7C7.10454 6.99996 8 6.10454 8 5C8 3.89546 7.10454 3.00004 6 3Z" fill="#E4F2F2"/>
</svg>
