<svg width="24" height="24" viewBox="0 0 24 24" fill="none" xmlns="http://www.w3.org/2000/svg">
<path d="M6.00977 17C6.56205 17 7.00977 17.4477 7.00977 18C7.00977 18.5523 6.56205 19 6.00977 19H6C5.44772 19 5 18.5523 5 18C5 17.4477 5.44772 17 6 17H6.00977Z" fill="#E4F2F2"/>
<path d="M10.0098 17C10.5621 17 11.0098 17.4477 11.0098 18C11.0098 18.5523 10.5621 19 10.0098 19H10C9.44771 19 9 18.5523 9 18C9 17.4477 9.44771 17 10 17H10.0098Z" fill="#E4F2F2"/>
<path fill-rule="evenodd" clip-rule="evenodd" d="M20 13C21.6569 13 23 14.3431 23 16V20C23 21.6569 21.6569 23 20 23H4C2.34315 23 1 21.6569 1 20V16C1 14.3431 2.34315 13 4 13H20ZM4 15C3.44772 15 3 15.4477 3 16V20C3 20.5523 3.44772 21 4 21H20C20.5523 21 21 20.5523 21 20V16C21 15.4477 20.5523 15 20 15H4Z" fill="#E4F2F2"/>
<path d="M12 1C12.5523 1 13 1.44772 13 2V7.58594L15.293 5.29297C15.6835 4.90244 16.3165 4.90244 16.707 5.29297C17.0976 5.68349 17.0976 6.31651 16.707 6.70703L12.707 10.707C12.6592 10.7548 12.6065 10.7976 12.5498 10.835C12.5121 10.8599 12.4727 10.8811 12.4326 10.9004C12.3874 10.9222 12.3407 10.9412 12.292 10.9561C12.2717 10.9622 12.251 10.9668 12.2305 10.9717C12.2191 10.9744 12.2078 10.9772 12.1963 10.9795C12.1859 10.9816 12.1754 10.9826 12.165 10.9844C12.1112 10.9933 12.0563 11 12 11C11.9433 11 11.8881 10.9934 11.834 10.9844C11.8236 10.9826 11.8131 10.9816 11.8027 10.9795C11.7912 10.9772 11.7799 10.9744 11.7686 10.9717C11.748 10.9668 11.7273 10.9623 11.707 10.9561C11.6584 10.9412 11.6116 10.9222 11.5664 10.9004C11.5266 10.8812 11.4877 10.8597 11.4502 10.835C11.3935 10.7976 11.3408 10.7548 11.293 10.707L7.29297 6.70703C6.90244 6.31651 6.90244 5.68349 7.29297 5.29297C7.68349 4.90244 8.31651 4.90244 8.70703 5.29297L11 7.58594V2C11 1.44772 11.4477 1 12 1Z" fill="#E4F2F2"/>
</svg>
