<svg width="24" height="24" viewBox="0 0 24 24" fill="none" xmlns="http://www.w3.org/2000/svg">
<path d="M6.00977 17C6.56205 17 7.00977 17.4477 7.00977 18C7.00977 18.5523 6.56205 19 6.00977 19H6C5.44772 19 5 18.5523 5 18C5 17.4477 5.44772 17 6 17H6.00977Z" fill="#E4F2F2"/>
<path d="M10.0098 17C10.5621 17 11.0098 17.4477 11.0098 18C11.0098 18.5523 10.5621 19 10.0098 19H10C9.44771 19 9 18.5523 9 18C9 17.4477 9.44771 17 10 17H10.0098Z" fill="#E4F2F2"/>
<path fill-rule="evenodd" clip-rule="evenodd" d="M20 13C21.6569 13 23 14.3431 23 16V20C23 21.6569 21.6569 23 20 23H4C2.34315 23 1 21.6569 1 20V16C1 14.3431 2.34315 13 4 13H20ZM4 15C3.44772 15 3 15.4477 3 16V20C3 20.5523 3.44772 21 4 21H20C20.5523 21 21 20.5523 21 20V16C21 15.4477 20.5523 15 20 15H4Z" fill="#E4F2F2"/>
<path d="M12.0205 1.00098C12.0381 1.00133 12.0557 1.00165 12.0732 1.00293C12.0909 1.00421 12.1085 1.00562 12.126 1.00781C12.1378 1.0093 12.1494 1.01177 12.1611 1.01367C12.1802 1.01676 12.1991 1.02026 12.2178 1.02441C12.2269 1.02645 12.236 1.02895 12.2451 1.03125C12.3141 1.04866 12.3799 1.07357 12.4424 1.10449C12.4746 1.12042 12.5064 1.13761 12.5371 1.15723C12.5449 1.16219 12.5529 1.16671 12.5605 1.17188C12.6122 1.2069 12.6613 1.24722 12.707 1.29297L16.707 5.29297C17.0976 5.68349 17.0976 6.31651 16.707 6.70703C16.3165 7.09756 15.6835 7.09756 15.293 6.70703L13 4.41406V10C13 10.5523 12.5523 11 12 11C11.4477 11 11 10.5523 11 10V4.41406L8.70703 6.70703C8.31651 7.09756 7.68349 7.09756 7.29297 6.70703C6.90244 6.31651 6.90244 5.68349 7.29297 5.29297L11.293 1.29297C11.3548 1.23117 11.4248 1.17778 11.501 1.13379C11.5154 1.12546 11.5302 1.1179 11.5449 1.11035C11.6073 1.0784 11.6731 1.05257 11.7422 1.03418C11.7588 1.02976 11.7753 1.02503 11.792 1.02148C11.803 1.01916 11.8141 1.01758 11.8252 1.01562C11.8427 1.01252 11.8603 1.00998 11.8779 1.00781C11.8957 1.00565 11.9136 1.00415 11.9316 1.00293C11.9476 1.00184 11.9635 1.00131 11.9795 1.00098C11.9863 1.00084 11.9931 1 12 1C12.0069 1 12.0137 1.00084 12.0205 1.00098Z" fill="#E4F2F2"/>
</svg>
