<svg width="24" height="24" viewBox="0 0 24 24" fill="none" xmlns="http://www.w3.org/2000/svg">
<path fill-rule="evenodd" clip-rule="evenodd" d="M16.1104 2.00537C16.6591 2.06634 17.0549 2.56113 16.9941 3.10986L16.4512 7.99951H20C20.5522 7.99951 20.9998 8.44738 21 8.99951C21 9.5518 20.5523 9.99951 20 9.99951H16.2285L15.7842 13.9995H20C20.5522 13.9995 20.9998 14.4474 21 14.9995C21 15.5518 20.5523 15.9995 20 15.9995H15.5615L14.9941 21.1099C14.9332 21.6587 14.4385 22.0546 13.8896 21.9937C13.3408 21.9326 12.9449 21.438 13.0059 20.8892L13.5488 15.9995H9.56152L8.99414 21.1099C8.93316 21.6587 8.43851 22.0546 7.88965 21.9937C7.3408 21.9326 6.94493 21.438 7.00586 20.8892L7.54883 15.9995H4C3.44772 15.9995 3 15.5518 3 14.9995C3.00018 14.4474 3.44782 13.9995 4 13.9995H7.77148L8.21582 9.99951H4C3.44772 9.99951 3 9.5518 3 8.99951C3.00018 8.44738 3.44782 7.99951 4 7.99951H8.43848L9.00586 2.88916C9.067 2.34047 9.56161 1.94448 10.1104 2.00537C10.6591 2.06634 11.0549 2.56113 10.9941 3.10986L10.4512 7.99951H14.4385L15.0059 2.88916C15.067 2.34047 15.5616 1.94448 16.1104 2.00537ZM10.2285 9.99951L9.78418 13.9995H13.7715L14.2158 9.99951H10.2285Z" fill="#E4F2F2"/>
</svg>
