<svg width="24" height="24" viewBox="0 0 24 24" fill="none" xmlns="http://www.w3.org/2000/svg">
<path fill-rule="evenodd" clip-rule="evenodd" d="M12.3467 3.00879C14.077 3.09452 15.7194 3.819 16.9502 5.0498C17.8854 5.98498 18.5258 7.15833 18.8184 8.42676C18.8372 8.45357 18.8549 8.48111 18.8711 8.50977C21.1892 9.69015 22.9999 11.5681 23 14C22.9999 16.1417 21.5464 17.9131 19.5771 19.0947C17.5857 20.2896 14.9016 21 12 21C9.09839 21 6.41431 20.2896 4.42285 19.0947C2.45355 17.9131 1.00009 16.1417 1 14C1.0001 11.5684 2.81016 9.69017 5.12793 8.50977C5.14406 8.48113 5.16188 8.45356 5.18066 8.42676C5.47317 7.15825 6.11458 5.98503 7.0498 5.0498C8.36256 3.73705 10.1435 3 12 3L12.3467 3.00879ZM19 13C19 14.431 17.8818 15.4405 16.6807 16.0342C15.4259 16.6544 13.767 17 12 17C10.233 17 8.57412 16.6544 7.31934 16.0342C6.11825 15.4405 5 14.431 5 13V10.9072C3.67151 11.8277 3.00008 12.9216 3 14C3.00009 15.1581 3.79678 16.3867 5.45215 17.3799C7.08567 18.36 9.4017 19 12 19C14.5983 19 16.9143 18.36 18.5479 17.3799C20.2032 16.3867 20.9999 15.1581 21 14C20.9999 12.9216 20.3285 11.8277 19 10.9072V13ZM17 11.8633C16.8945 11.9231 16.7883 11.981 16.6807 12.0342C15.4259 12.6544 13.767 13 12 13C10.233 13 8.57412 12.6544 7.31934 12.0342C7.21173 11.981 7.10553 11.9231 7 11.8633V13C7 13.269 7.23214 13.7599 8.20605 14.2412C9.12625 14.6959 10.4672 15 12 15C13.5328 15 14.8737 14.6959 15.7939 14.2412C16.7679 13.7599 17 13.269 17 13V11.8633ZM12 5C10.6739 5 9.40253 5.52716 8.46484 6.46484C7.70603 7.22366 7.21596 8.201 7.05664 9.24902C7.17102 9.52203 7.48425 9.88446 8.20605 10.2412C9.12625 10.6959 10.4672 11 12 11C13.5328 11 14.8737 10.6959 15.7939 10.2412C16.5154 9.88461 16.8279 9.52199 16.9424 9.24902C16.783 8.20105 16.2939 7.22362 15.5352 6.46484C14.6561 5.58579 13.4838 5.06719 12.248 5.00586L12 5Z" fill="#E4F2F2"/>
</svg>
