<svg width="24" height="24" viewBox="0 0 24 24" fill="none" xmlns="http://www.w3.org/2000/svg">
<path fill-rule="evenodd" clip-rule="evenodd" d="M13 3C13.5272 3 14.0439 3.18058 14.4316 3.56836C14.8194 3.95614 15 4.47275 15 5V5.56543C18.4424 6.80529 20.9999 10.0955 21 14V15C22.1046 15 23 15.8954 23 17V19C23 20.1046 22.1046 21 21 21H3C1.89543 21 1 20.1046 1 19V17C1 15.8954 1.89543 15 3 15V14C3.00009 10.0955 5.55758 6.80529 9 5.56543V5C9 4.47275 9.18058 3.95614 9.56836 3.56836C9.95614 3.18058 10.4728 3 11 3H13ZM3 19H21V17H3V19ZM11 10C11 10.5523 10.5523 11 10 11C9.44771 11 9 10.5523 9 10V7.73242C6.65497 8.86335 5.00008 11.2505 5 14V15H19V14C18.9999 11.2505 17.345 8.86335 15 7.73242V10C15 10.5523 14.5523 11 14 11C13.4477 11 13 10.5523 13 10V5H11V10Z" fill="#E4F2F2"/>
</svg>
