<svg width="24" height="24" viewBox="0 0 24 24" fill="none" xmlns="http://www.w3.org/2000/svg">
<path fill-rule="evenodd" clip-rule="evenodd" d="M12 2C13.6569 2 15 3.34315 15 5C15 5.17791 14.9838 5.35208 14.9541 5.52148C18.5146 6.70816 20.9999 10.0411 21 14C22.1046 14 23 14.8954 23 16V19C23 20.1046 22.1046 21 21 21H3C1.89543 21 1 20.1046 1 19V16C1 14.8954 1.89543 14 3 14C3.00008 10.0413 5.48482 6.70835 9.04492 5.52148C9.01524 5.35213 9 5.17785 9 5C9 3.34315 10.3431 2 12 2ZM3 19H5V16H3V19ZM7 19H9V16H7V19ZM11 19H13V16H11V19ZM19 19H21V16H19V19ZM15 19H17V16H15V19ZM13.9238 7.2998C13.4029 7.73606 12.7327 8 12 8C11.2671 8 10.5962 7.73635 10.0752 7.2998C7.11364 8.09401 5.00008 10.7627 5 14H19C18.9999 10.7623 16.8859 8.09369 13.9238 7.2998ZM12 4C11.4477 4 11 4.44772 11 5C11 5.55228 11.4477 6 12 6C12.5523 6 13 5.55228 13 5C13 4.44772 12.5523 4 12 4Z" fill="#E4F2F2"/>
</svg>
