<svg width="24" height="24" viewBox="0 0 24 24" fill="none" xmlns="http://www.w3.org/2000/svg">
<path fill-rule="evenodd" clip-rule="evenodd" d="M12 2C12.5523 2 13 2.44772 13 3V3.05762C15.019 3.28326 16.9139 4.18536 18.3643 5.63574C20.0521 7.32357 21 9.61305 21 12V14.7148L22.5723 17.5098C22.8299 17.9597 22.9665 18.4687 22.9688 18.9873C22.9709 19.5097 22.8356 20.024 22.5781 20.4785C22.3206 20.9331 21.9483 21.3134 21.499 21.5801C21.0499 21.8465 20.5388 21.9916 20.0166 22H19.6006C19.5189 22 19.4367 21.9895 19.3574 21.9697L17.7735 21.5732L17.0596 21.418C13.4826 20.6921 9.78782 20.7438 6.22756 21.5732L4.6426 21.9697C4.56348 21.9895 4.48197 22 4.40042 22H3.9844C3.46191 21.9917 2.95039 21.8468 2.501 21.5801C2.0516 21.3134 1.67954 20.9332 1.4219 20.4785C1.16447 20.024 1.03011 19.5097 1.03225 18.9873C1.03449 18.4687 1.17207 17.9597 1.42971 17.5098L3.00003 14.7158V12C3.00003 9.61306 3.94795 7.32357 5.63577 5.63574C7.08614 4.18537 8.98103 3.28327 11 3.05762V3C11 2.44772 11.4478 2.00001 12 2ZM16.1367 15.2354C13.3879 14.9412 10.6161 14.9416 7.86721 15.2354C6.78316 15.3612 5.72658 15.5358 4.7051 15.7627L3.1719 18.4902L3.16604 18.5C3.07908 18.6507 3.03302 18.8221 3.03225 18.9961C3.03159 19.1701 3.07635 19.3417 3.16213 19.4932C3.248 19.6446 3.37179 19.7715 3.52151 19.8604C3.67129 19.9492 3.84248 19.9972 4.01663 20H4.27542L5.77346 19.626C9.61366 18.7312 13.5988 18.6751 17.4571 19.458L18.2276 19.626L19.7256 20H19.9844C20.1583 19.9972 20.3289 19.9491 20.4785 19.8604C20.6282 19.7715 20.7531 19.6446 20.8389 19.4932C20.9246 19.3418 20.9694 19.17 20.9688 18.9961C20.968 18.822 20.9211 18.6507 20.834 18.5L20.8291 18.4902L19.293 15.7627C18.2733 15.5362 17.2188 15.3611 16.1367 15.2354ZM12 5C10.1435 5.00001 8.36258 5.73706 7.04983 7.0498C5.73708 8.36256 5.00003 10.1435 5.00003 12V13.6143C5.99588 13.4413 6.99661 13.3066 8.00003 13.208V10C8.00003 9.44772 8.44775 9.00001 9.00003 9H15C15.5523 9 16 9.44772 16 10V13.208C17.0034 13.3066 18.0042 13.4413 19 13.6143V12C19 10.1435 18.263 8.36256 16.9502 7.0498C15.6375 5.73706 13.8565 5 12 5ZM10 13.0518C10.6608 13.018 11.3279 13 12 13C12.6721 13 13.3392 13.018 14 13.0518V11H10V13.0518Z" fill="#E4F2F2"/>
</svg>
