<svg width="24" height="24" viewBox="0 0 24 24" fill="none" xmlns="http://www.w3.org/2000/svg">
<path fill-rule="evenodd" clip-rule="evenodd" d="M12 1C14.0352 1 15.9252 1.35202 17.3438 1.95996C18.0511 2.26315 18.6881 2.64957 19.1621 3.12988C19.6403 3.61451 20 4.24775 20 5C20 5.07176 19.9956 5.14234 19.9893 5.21191C19.9659 5.53872 19.898 5.91874 19.8232 6.28027C19.7277 6.742 19.5974 7.29808 19.4766 7.8418C19.262 8.80721 19.0692 9.78009 19.0156 10.5869C21.2636 11.7711 22.9999 13.6192 23 16C22.9999 18.1417 21.5464 19.9131 19.5771 21.0947C17.5857 22.2896 14.9016 23 12 23C9.09839 23 6.41431 22.2896 4.42285 21.0947C2.45355 19.9131 1.00009 18.1417 1 16C1.0001 13.6195 2.73578 11.7711 4.9834 10.5869C4.92981 9.7801 4.73797 8.80719 4.52344 7.8418C4.40261 7.29808 4.27229 6.742 4.17676 6.28027C4.10196 5.91871 4.03314 5.53873 4.00977 5.21191C4.00343 5.14237 4 5.07173 4 5C4 4.24775 4.35969 3.61451 4.83789 3.12988C5.31192 2.64957 5.94886 2.26315 6.65625 1.95996C8.07477 1.35202 9.96482 1 12 1ZM19 15C19 16.431 17.8818 17.4405 16.6807 18.0342C15.4259 18.6544 13.767 19 12 19C10.233 19 8.57412 18.6544 7.31934 18.0342C6.11825 17.4405 5 16.431 5 15V12.9072C3.67151 13.8277 3.00008 14.9216 3 16C3.00009 17.1581 3.79678 18.3867 5.45215 19.3799C7.08567 20.36 9.4017 21 12 21C14.5983 21 16.9143 20.36 18.5479 19.3799C20.2032 18.3867 20.9999 17.1581 21 16C20.9999 14.9216 20.3285 13.8277 19 12.9072V15ZM17 13.8633C16.8945 13.9231 16.7883 13.981 16.6807 14.0342C15.4259 14.6544 13.767 15 12 15C10.233 15 8.57412 14.6544 7.31934 14.0342C7.21173 13.981 7.10553 13.9231 7 13.8633V15C7 15.269 7.23214 15.7599 8.20605 16.2412C9.12625 16.6959 10.4672 17 12 17C13.5328 17 14.8737 16.6959 15.7939 16.2412C16.7679 15.7599 17 15.269 17 15V13.8633ZM17.3438 8.04004C15.9252 8.64798 14.0352 9 12 9C9.96482 9 8.07477 8.64798 6.65625 8.04004C6.6395 8.03286 6.62312 8.02485 6.60645 8.01758C6.8107 8.99205 7 10.0729 7 11C7 11.269 7.23214 11.7599 8.20605 12.2412C9.12625 12.6959 10.4672 13 12 13C13.5328 13 14.8737 12.6959 15.7939 12.2412C16.7679 11.7599 17 11.269 17 11C17 10.073 17.1883 8.992 17.3926 8.01758C17.3762 8.02473 17.3602 8.03298 17.3438 8.04004ZM12 3C10.1693 3 8.55931 3.32003 7.44434 3.79785C6.88507 4.03754 6.49608 4.29769 6.26172 4.53516C6.03186 4.76816 6 4.92398 6 5C6 5.07602 6.03186 5.23184 6.26172 5.46484C6.49608 5.70231 6.88507 5.96246 7.44434 6.20215C8.55931 6.67997 10.1693 7 12 7C13.8307 7 15.4407 6.67997 16.5557 6.20215C17.1149 5.96246 17.5039 5.70231 17.7383 5.46484C17.9681 5.23184 18 5.07602 18 5C18 4.92398 17.9681 4.76816 17.7383 4.53516C17.5039 4.29769 17.1149 4.03754 16.5557 3.79785C15.4407 3.32003 13.8307 3 12 3Z" fill="#E4F2F2"/>
</svg>
