<svg width="24" height="24" viewBox="0 0 24 24" fill="none" xmlns="http://www.w3.org/2000/svg">
<path fill-rule="evenodd" clip-rule="evenodd" d="M12 1.95996C13.1761 1.96005 14.3264 2.30567 15.3076 2.9541C16.0951 3.47466 16.7453 4.17292 17.21 4.9873C18.2171 5.03337 19.1931 5.38373 20.0049 6C21.0052 6.75955 21.6838 7.86799 21.9043 9.10449C22.1246 10.3409 21.8714 11.6154 21.1953 12.6738C20.6621 13.5084 19.8954 14.1594 19 14.5547V21C18.9998 21.552 18.5519 21.9998 18 22H5.99999C5.44784 22 5.00019 21.5521 4.99999 21V14.5547C4.1042 14.1594 3.3371 13.5087 2.8037 12.6738C2.12761 11.6154 1.87532 10.3409 2.09569 9.10449C2.31621 7.86801 2.99385 6.75955 3.99413 6C4.80563 5.38394 5.78128 5.03357 6.78808 4.9873C7.25271 4.17274 7.90373 3.47476 8.6914 2.9541C9.67276 2.30557 10.8237 1.95996 12 1.95996ZM6.99999 18V20H17V18H6.99999ZM12 3.95996C11.2157 3.95996 10.4482 4.19059 9.79394 4.62305C9.13974 5.0555 8.62668 5.67109 8.31933 6.39258C8.14835 6.79316 7.73731 7.03768 7.3037 6.99609C6.55354 6.92421 5.80335 7.1371 5.20312 7.59277C4.6032 8.04843 4.1968 8.71345 4.06444 9.45508C3.93226 10.1968 4.08375 10.9617 4.48925 11.5967C4.89497 12.2316 5.52522 12.691 6.2539 12.8828C6.69316 12.9985 6.99999 13.3963 6.99999 13.8506V16H17V13.8506C17 13.3964 17.3059 12.9985 17.7451 12.8828C18.4738 12.691 19.104 12.2316 19.5098 11.5967C19.9153 10.9617 20.0668 10.1968 19.9346 9.45508C19.8022 8.71343 19.3958 8.04843 18.7959 7.59277C18.1956 7.13709 17.4455 6.9242 16.6953 6.99609C16.2617 7.03767 15.8506 6.79317 15.6797 6.39258C15.3723 5.67108 14.8593 5.0555 14.2051 4.62305C13.5509 4.19067 12.7841 3.96005 12 3.95996Z" fill="#E4F2F2"/>
</svg>
