<svg width="24" height="24" viewBox="0 0 24 24" fill="none" xmlns="http://www.w3.org/2000/svg">
<path fill-rule="evenodd" clip-rule="evenodd" d="M17 14C19.2091 14 21 15.7909 21 18C21 20.2091 19.2091 22 17 22C14.86 22 13.1121 20.3194 13.0049 18.2061L13 18C13 17.7348 12.8946 17.4805 12.707 17.293C12.5429 17.1288 12.3276 17.0276 12.0986 17.0049L12 17C11.7348 17 11.4805 17.1054 11.293 17.293C11.1054 17.4805 11 17.7348 11 18L10.9951 18.2061C10.8879 20.3194 9.14003 22 7 22C4.79087 22 3.00001 20.2091 3 18C3 15.7909 4.79086 14 7 14C8.30979 14 9.4725 14.6295 10.2021 15.6025C10.7183 15.2153 11.3472 15 12 15L12.2969 15.0146C12.8424 15.0689 13.3605 15.2736 13.7979 15.6016C14.5275 14.6289 15.6905 14 17 14ZM7 16C5.89543 16 5 16.8954 5 18C5.00001 19.1046 5.89544 20 7 20C8.10456 20 8.99999 19.1046 9 18C9 16.8954 8.10457 16 7 16ZM17 16C15.8954 16 15 16.8954 15 18C15 19.1046 15.8954 20 17 20C18.1046 20 19 19.1046 19 18C19 16.8954 18.1046 16 17 16Z" fill="#E4F2F2"/>
<path fill-rule="evenodd" clip-rule="evenodd" d="M14.9248 2C15.3466 1.98931 15.7659 2.06809 16.1553 2.23047C16.5448 2.39297 16.8963 2.63597 17.1855 2.94336C17.4386 3.21226 17.6402 3.52515 17.7793 3.86621L17.835 4.01464L17.8428 4.04101L19.7324 10H22C22.5523 10 23 10.4477 23 11C23 11.5523 22.5523 12 22 12H2C1.44772 12 1.00001 11.5523 1 11C1 10.4477 1.44772 10 2 10H4.24414L5.6123 5.18359C5.79003 4.55504 6.16857 4.00155 6.68945 3.60742C7.21057 3.21332 7.84664 2.99991 8.5 3H12C12.1488 3.00004 12.2963 2.96725 12.4307 2.90332L13.707 2.29199C14.0877 2.11007 14.503 2.01072 14.9248 2ZM14.9756 3.99902C14.8702 4.0017 14.7659 4.02161 14.667 4.05664L14.5693 4.09668L13.293 4.70703C12.9396 4.87566 12.5569 4.97346 12.167 4.99511L12 5H8.5C8.28226 4.99995 8.07017 5.07085 7.89648 5.20214C7.72285 5.33347 7.5964 5.51807 7.53711 5.72754L6.32324 10H17.6348L15.9453 4.67089L15.9053 4.57324C15.8606 4.47836 15.8017 4.39018 15.7295 4.31347C15.6331 4.21106 15.5155 4.13032 15.3857 4.07617C15.256 4.02205 15.1161 3.99548 14.9756 3.99902Z" fill="#E4F2F2"/>
</svg>
