<svg width="24" height="24" viewBox="0 0 24 24" fill="none" xmlns="http://www.w3.org/2000/svg">
<path d="M16.5 11C17.0523 11 17.5 11.4477 17.5 12C17.5 12.5523 17.0523 13 16.5 13H7.5C6.94772 13 6.5 12.5523 6.5 12C6.5 11.4477 6.94772 11 7.5 11H16.5Z" fill="#E4F2F2"/>
<path fill-rule="evenodd" clip-rule="evenodd" d="M21.1973 7.00977C21.6553 7.05515 22.0858 7.25765 22.4141 7.58594C22.7891 7.96101 23 8.46957 23 9V13C23 13.5304 22.7891 14.039 22.4141 14.4141C22.039 14.7891 21.5304 15 21 15H20.4141L18.707 16.707C18.5195 16.8946 18.2652 17 18 17H6C5.73478 17 5.4805 16.8946 5.29297 16.707L3.58594 15H3C2.46957 15 1.96101 14.7891 1.58594 14.4141C1.21086 14.039 1 13.5304 1 13V9C1 8.46957 1.21086 7.96101 1.58594 7.58594C1.96101 7.21087 2.46957 7 3 7H21L21.1973 7.00977ZM3 13H4C4.26522 13 4.51949 13.1054 4.70703 13.293L6.41406 15H17.5859L19.293 13.293L19.3662 13.2266C19.5442 13.0807 19.7679 13 20 13H21V9H3V13Z" fill="#E4F2F2"/>
</svg>
