<svg width="24" height="24" viewBox="0 0 24 24" fill="none" xmlns="http://www.w3.org/2000/svg">
<path fill-rule="evenodd" clip-rule="evenodd" d="M1.29302 1.29297C1.68354 0.902445 2.31655 0.902445 2.70708 1.29297L22.7071 21.293C23.0975 21.6835 23.0976 22.3165 22.7071 22.707C22.3166 23.0975 21.6835 23.0975 21.293 22.707L20.292 21.7061C19.9804 21.8549 19.6441 21.9508 19.2969 21.9854L19 22H18C17.2044 22 16.4416 21.6837 15.879 21.1211C15.3868 20.6289 15.083 19.9835 15.0147 19.2969L15 19V16.4141L5.68169 7.0957C5.24504 7.65863 4.88322 8.27751 4.60942 8.93848C4.20742 9.90902 4.00006 10.9495 4.00005 12V13H6.00005C6.79564 13 7.55855 13.3163 8.12114 13.8789C8.68363 14.4415 9 15.2045 9.00005 16V19C8.99998 19.7955 8.68361 20.5586 8.12114 21.1211C7.55856 21.6836 6.79561 22 6.00005 22H5.00005C4.20446 22 3.44155 21.6836 2.87895 21.1211C2.31644 20.5585 2.00011 19.7955 2.00005 19V12C2.00006 10.6869 2.2583 9.38603 2.76079 8.17285C3.13531 7.26871 3.6397 6.42586 4.25688 5.6709L1.29302 2.70703C0.902491 2.31651 0.902491 1.68349 1.29302 1.29297ZM4.00005 19C4.00011 19.2651 4.10557 19.5196 4.29302 19.707C4.48054 19.8945 4.73489 20 5.00005 20H6.00005C6.26517 20 6.51957 19.8945 6.70708 19.707C6.89447 19.5196 6.99998 19.2651 7.00005 19V16C7 15.7349 6.89449 15.4805 6.70708 15.293C6.51956 15.1055 6.26521 15 6.00005 15H4.00005V19ZM17 19C17.0001 19.2652 17.1055 19.5195 17.293 19.707C17.4805 19.8945 17.7349 20 18 20H18.586L17 18.4141V19Z" fill="#E4F2F2"/>
<path d="M8.80864 2.52149C10.3127 2.01507 11.916 1.87461 13.4854 2.11035C15.0549 2.34614 16.5461 2.9519 17.835 3.87793C19.1238 4.80394 20.1743 6.02346 20.8985 7.43555C21.6227 8.84771 22.0001 10.413 22 12V15.3428C21.9999 15.8949 21.5522 16.3427 21 16.3428C20.4478 16.3428 20.0002 15.895 20 15.3428V15H19.6573C19.105 15 18.6573 14.5523 18.6573 14C18.6573 13.4477 19.105 13 19.6573 13H20V11.999C20 10.7296 19.6975 9.4782 19.1182 8.34863C18.5388 7.21894 17.6991 6.24277 16.668 5.50195C15.6369 4.76117 14.444 4.27652 13.1885 4.08789C11.9331 3.89928 10.6505 4.01193 9.44731 4.41699C8.92406 4.59318 8.35714 4.31217 8.18071 3.78906C8.0047 3.26577 8.28539 2.69772 8.80864 2.52149Z" fill="#E4F2F2"/>
</svg>
