<svg width="24" height="24" viewBox="0 0 24 24" fill="none" xmlns="http://www.w3.org/2000/svg">
<path d="M15 7C15.5523 7 16 7.44772 16 8V16C16 16.5523 15.5523 17 15 17C14.4477 17 14 16.5523 14 16V13H10V16C10 16.5523 9.55229 17 9 17C8.44772 17 8 16.5523 8 16V8C8 7.44772 8.44772 7 9 7C9.55229 7 10 7.44772 10 8V11H14V8C14 7.44772 14.4477 7 15 7Z" fill="#E4F2F2"/>
<path fill-rule="evenodd" clip-rule="evenodd" d="M12 1C18.0751 1 23 5.92487 23 12C23 18.0751 18.0751 23 12 23C5.92487 23 1 18.0751 1 12C1 5.92487 5.92487 1 12 1ZM12 3C7.02944 3 3 7.02944 3 12C3 16.9706 7.02944 21 12 21C16.9706 21 21 16.9706 21 12C21 7.02944 16.9706 3 12 3Z" fill="#E4F2F2"/>
</svg>
