<svg width="24" height="24" viewBox="0 0 24 24" fill="none" xmlns="http://www.w3.org/2000/svg">
<path fill-rule="evenodd" clip-rule="evenodd" d="M5.17285 3.42969C6.40078 2.95893 7.74295 2.87186 9.02148 3.17969C10.1439 3.45 11.1711 4.01417 12 4.80957C12.8287 4.01454 13.8555 3.45097 14.9775 3.18066C16.2561 2.87269 17.5982 2.96002 18.8262 3.43066C20.0542 3.90133 21.1103 4.73377 21.8555 5.81738C22.6006 6.90098 23 8.18493 23 9.5L22.9951 9.75488C22.8878 12.368 21.1467 14.2674 19.707 15.707C19.7031 15.7109 19.6993 15.7149 19.6953 15.7187L14.2217 21.0117C13.9493 21.3125 13.6201 21.5561 13.251 21.7256C12.8642 21.9031 12.4442 21.9973 12.0186 22C11.5929 22.0027 11.1712 21.9139 10.7822 21.7412C10.4099 21.5759 10.0754 21.3367 9.79883 21.0381L4.30469 15.7187C4.30082 15.715 4.29678 15.7108 4.29297 15.707C2.85418 14.2682 1.11227 12.378 1.00488 9.75586L1 9.5C0.999812 8.18482 1.39849 6.90019 2.14355 5.81641C2.88859 4.73275 3.94496 3.90049 5.17285 3.42969ZM8.55371 5.12402C7.66849 4.91083 6.73887 4.97093 5.88867 5.29687C5.0386 5.62284 4.30777 6.19995 3.79199 6.95019C3.27626 7.70047 2.99986 8.58956 3 9.5C3.00003 11.3395 4.18609 12.7708 5.69531 14.2812L11.2031 19.6133C11.2205 19.6301 11.2378 19.648 11.2539 19.666C11.3484 19.7717 11.4642 19.8565 11.5938 19.9141C11.7234 19.9716 11.864 20.0009 12.0059 20C12.1477 19.9991 12.288 19.9674 12.417 19.9082C12.5458 19.849 12.6608 19.7632 12.7539 19.6562L12.8125 19.5938L18.3047 14.2812C19.813 12.7716 21 11.3301 21 9.5C21 8.58956 20.7239 7.70038 20.208 6.95019C19.6921 6.2 18.9605 5.62369 18.1104 5.29785C17.2603 4.9721 16.3313 4.91185 15.4463 5.125C14.5663 5.33697 13.7703 5.80952 13.1631 6.48047C13.1613 6.48257 13.1601 6.48522 13.1582 6.4873C12.7313 6.96897 12.4229 7.39651 12.2021 7.78418L13.8555 9.43945C14.1364 9.72071 14.2939 10.1024 14.2939 10.5C14.2938 10.8975 14.1355 11.2794 13.8545 11.5605L11.915 13.5L12.708 14.293C13.098 14.6837 13.0975 15.3178 12.707 15.708C12.3164 16.098 11.6833 16.0973 11.293 15.707L10.1484 14.5596L10.1475 14.5605C9.90137 14.3144 9.74987 13.9908 9.71582 13.6475L9.70801 13.5L9.71582 13.3516C9.7499 13.0082 9.9014 12.6856 10.1475 12.4395L12.0869 10.499L10.2871 8.69726C10.0056 8.4154 9.91798 7.9925 10.0645 7.62207C10.2295 7.2048 10.449 6.78919 10.7266 6.36719C10.1343 5.75709 9.38264 5.32367 8.55371 5.12402Z" fill="#E4F2F2"/>
</svg>
