<svg width="24" height="24" viewBox="0 0 24 24" fill="none" xmlns="http://www.w3.org/2000/svg">
<path fill-rule="evenodd" clip-rule="evenodd" d="M14.9756 3.16846C16.2565 2.85675 17.6021 2.94179 18.833 3.41357C20.0639 3.88538 21.1218 4.72118 21.8662 5.80908C22.6098 6.89597 23.0054 8.18366 23 9.50049L22.9951 9.75537C22.9361 11.1894 22.3833 12.4074 21.6602 13.4536C21.6149 13.5423 21.5568 13.6229 21.4883 13.6938C20.9315 14.4528 20.2952 15.1194 19.707 15.7075C19.7032 15.7113 19.6992 15.7155 19.6953 15.7192L14.2178 21.0171C13.9463 21.3156 13.6181 21.5575 13.251 21.7261C12.8642 21.9036 12.4441 21.9968 12.0186 21.9995C11.5929 22.0022 11.1712 21.9144 10.7822 21.7417C10.4066 21.5749 10.07 21.3321 9.79199 21.0298L4.30469 15.7183C4.3009 15.7146 4.29669 15.7112 4.29297 15.7075C3.71176 15.1263 3.08267 14.4702 2.53027 13.7231C2.43916 13.6362 2.36473 13.5324 2.31152 13.4165C1.60226 12.3811 1.06313 11.1765 1.00488 9.75635L1 9.50049C1.00005 8.18541 1.39937 6.90049 2.14453 5.8169C2.88969 4.73347 3.94598 3.90177 5.17383 3.43115C6.40182 2.9605 7.74393 2.87318 9.02246 3.18115C10.1436 3.45127 11.1697 4.01403 11.998 4.80811C12.8248 4.00862 13.8525 3.44184 14.9756 3.16846ZM12.9609 16.7749C12.8453 17.1792 12.4889 17.4682 12.0693 17.4976C11.65 17.5267 11.2568 17.2908 11.0859 16.9067L9.77637 13.9605C9.68782 13.9859 9.5949 14.0005 9.5 14.0005H5.42188C5.51604 14.097 5.60999 14.1954 5.70703 14.2925L11.2031 19.6138L11.2539 19.6655C11.3484 19.7713 11.4642 19.856 11.5938 19.9136C11.7234 19.9711 11.864 20.0004 12.0059 19.9995C12.1477 19.9986 12.288 19.9679 12.417 19.9087C12.5458 19.8495 12.6608 19.7636 12.7539 19.6567L12.8125 19.5942L18.293 14.2925L18.5781 14.0005H15.5C15.1001 14.0004 14.7386 13.7615 14.5811 13.394L14.1885 12.478L12.9609 16.7749ZM18.1172 5.28174C17.2656 4.95535 16.3344 4.89519 15.4482 5.11084C14.5621 5.32654 13.7626 5.80755 13.1562 6.48877C13.1508 6.49489 13.1452 6.50134 13.1396 6.50732C12.9937 6.66333 12.817 6.78751 12.6211 6.87256C12.474 6.9364 12.3181 6.97735 12.1592 6.99365L12 7.00147C11.7864 7.00147 11.5749 6.95761 11.3789 6.87256C11.183 6.78751 11.0063 6.66333 10.8604 6.50732C10.856 6.50263 10.852 6.49745 10.8477 6.49268C10.2391 5.81549 9.43883 5.3387 8.55371 5.12549C7.66863 4.91231 6.73975 4.97255 5.88965 5.29834C5.03952 5.62418 4.30789 6.20052 3.79199 6.95068C3.27625 7.70079 3.00004 8.59018 3 9.50049L3.01367 9.84131C3.07683 10.6193 3.35538 11.3252 3.77539 12.0005H8.88184L9.10547 11.5532L9.17871 11.4302C9.36825 11.1572 9.68398 10.9929 10.0225 11.0005C10.4092 11.0093 10.7559 11.2408 10.9131 11.5942L11.7939 13.5776L13.0381 9.22607C13.1543 8.81931 13.5144 8.52932 13.9365 8.50244C14.3588 8.4757 14.7523 8.71803 14.9189 9.10693L16.1592 12.0005H20.2236C20.7051 11.2258 20.9999 10.4114 21 9.50049V9.49561C21.0043 8.58366 20.7307 7.69166 20.2158 6.93897C19.7009 6.18632 18.9687 5.60818 18.1172 5.28174Z" fill="#E4F2F2"/>
</svg>
