<svg width="24" height="24" viewBox="0 0 24 24" fill="none" xmlns="http://www.w3.org/2000/svg">
<path d="M14.9756 3.16846C16.2565 2.85675 17.6021 2.94179 18.833 3.41357C20.0639 3.88538 21.1218 4.72118 21.8662 5.80908C22.6098 6.89597 23.0054 8.18366 23 9.50049L22.9961 9.72607C22.9767 10.2514 22.8904 10.7727 22.7393 11.2769C22.5807 11.8058 22.0231 12.1062 21.4941 11.9478C20.9651 11.7891 20.6647 11.2317 20.8232 10.7026C20.9402 10.3123 20.9997 9.90696 21 9.49951V9.49561C21.0043 8.58366 20.7307 7.69166 20.2158 6.93897C19.7009 6.18632 18.9687 5.60818 18.1172 5.28174C17.2656 4.95535 16.3344 4.89519 15.4482 5.11084C14.5621 5.32654 13.7626 5.80755 13.1562 6.48877C13.1508 6.49489 13.1452 6.50134 13.1396 6.50732C12.9937 6.66333 12.817 6.78751 12.6211 6.87256C12.474 6.9364 12.3181 6.97735 12.1592 6.99365L12 7.00147C11.7864 7.00147 11.5749 6.95761 11.3789 6.87256C11.183 6.78751 11.0063 6.66333 10.8604 6.50732C10.856 6.50263 10.852 6.49745 10.8477 6.49268C10.2391 5.81549 9.43883 5.3387 8.55371 5.12549C7.66863 4.91231 6.73975 4.97255 5.88965 5.29834C5.03952 5.62418 4.30789 6.20052 3.79199 6.95068C3.27625 7.70079 3.00004 8.59018 3 9.50049L3.01367 9.84131C3.15025 11.5238 4.28709 12.8725 5.70703 14.2925L11.2031 19.6138L11.2539 19.6655C11.3484 19.7713 11.4642 19.856 11.5938 19.9136C11.7234 19.9711 11.864 20.0004 12.0059 19.9995C12.1477 19.9986 12.288 19.9679 12.417 19.9087C12.5458 19.8495 12.6608 19.7636 12.7539 19.6567L12.8125 19.5942L13.7842 18.6548C14.1812 18.2713 14.8145 18.2824 15.1982 18.6792C15.5818 19.0762 15.5707 19.7094 15.1738 20.0933L14.2178 21.0171C13.9463 21.3156 13.6181 21.5575 13.251 21.7261C12.8642 21.9036 12.4441 21.9968 12.0186 21.9995C11.5929 22.0022 11.1712 21.9144 10.7822 21.7417C10.4066 21.5749 10.07 21.3321 9.79199 21.0298L4.30469 15.7183C4.3009 15.7146 4.29669 15.7112 4.29297 15.7075C2.85425 14.2688 1.11242 12.3783 1.00488 9.75635L1 9.50049C1.00005 8.18541 1.39937 6.90049 2.14453 5.8169C2.88969 4.73347 3.94598 3.90177 5.17383 3.43115C6.40182 2.9605 7.74393 2.87318 9.02246 3.18115C10.1436 3.45127 11.1697 4.01403 11.998 4.80811C12.8248 4.00862 13.8525 3.44184 14.9756 3.16846Z" fill="#E4F2F2"/>
<path d="M18 11.0005C18.5523 11.0005 19 11.4482 19 12.0005V14.0005H21C21.5523 14.0005 22 14.4482 22 15.0005C21.9998 15.5526 21.5522 16.0005 21 16.0005H19V18.0005C18.9998 18.5526 18.5522 19.0005 18 19.0005C17.4478 19.0005 17.0002 18.5526 17 18.0005V16.0005H15C14.4478 16.0005 14.0002 15.5526 14 15.0005C14 14.4482 14.4477 14.0005 15 14.0005H17V12.0005C17 11.4482 17.4477 11.0005 18 11.0005Z" fill="#E4F2F2"/>
</svg>
