<svg width="24" height="24" viewBox="0 0 24 24" fill="none" xmlns="http://www.w3.org/2000/svg">
<path fill-rule="evenodd" clip-rule="evenodd" d="M1.29297 1.29297C1.68349 0.902445 2.31651 0.902445 2.70703 1.29297L5.37793 3.96387C5.42855 4.00504 5.47506 4.05184 5.51758 4.10352L22.707 21.293C23.0975 21.6835 23.0975 22.3165 22.707 22.707C22.3165 23.0975 21.6835 23.0975 21.293 22.707L16.9551 18.3691L14.2139 21.0205C13.943 21.3172 13.6165 21.5588 13.251 21.7266C12.8643 21.904 12.444 21.9973 12.0186 22C11.593 22.0027 11.1712 21.9148 10.7822 21.7422C10.4098 21.5769 10.0754 21.3367 9.79883 21.0381L4.30469 15.7188C4.30086 15.715 4.29674 15.7108 4.29297 15.707C2.8542 14.2683 1.11227 12.3779 1.00488 9.75586L1 9.5C1.00012 8.35995 1.30041 7.23945 1.87012 6.25195C2.22519 5.63662 2.67693 5.0856 3.20605 4.62012L1.29297 2.70703C0.902457 2.31652 0.902482 1.6835 1.29297 1.29297ZM4.625 6.03906C4.21681 6.37851 3.86985 6.78867 3.60254 7.25195C3.2082 7.93552 3.00012 8.71085 3 9.5L3.01367 9.8418C3.15048 11.5241 4.28716 12.8731 5.70703 14.293L11.2031 19.6133C11.2205 19.6301 11.2378 19.648 11.2539 19.666C11.3484 19.7717 11.4642 19.8565 11.5938 19.9141C11.7234 19.9716 11.8641 20.0009 12.0059 20C12.1477 19.9991 12.2881 19.9683 12.417 19.9092C12.5459 19.85 12.6608 19.7632 12.7539 19.6562L12.8125 19.5947L15.54 16.9541L4.625 6.03906Z" fill="#E4F2F2"/>
<path d="M14.9756 3.16797C16.2564 2.85629 17.6021 2.94134 18.833 3.41309C20.0638 3.88486 21.1218 4.72078 21.8662 5.80859C22.6098 6.89541 23.0053 8.18325 23 9.5L22.9863 9.91602C22.8484 11.9684 21.7077 13.5609 20.5518 14.8281C20.1795 15.2361 19.5467 15.2658 19.1387 14.8936C18.7309 14.5213 18.7021 13.8884 19.0742 13.4805C20.2109 12.2344 20.9998 10.9883 21 9.5V9.49512C21.0043 8.58326 20.7307 7.69111 20.2158 6.93848C19.7009 6.18591 18.9686 5.60767 18.1172 5.28125C17.2656 4.95489 16.3343 4.89472 15.4482 5.11035C14.5622 5.32603 13.7626 5.80713 13.1562 6.48828C13.1508 6.49436 13.1452 6.50089 13.1396 6.50684C12.9938 6.66282 12.817 6.78703 12.6211 6.87207C12.474 6.93591 12.3181 6.97686 12.1592 6.99317L12 7.00098C11.7864 7.00098 11.5749 6.95712 11.3789 6.87207C11.183 6.78703 11.0062 6.66282 10.8604 6.50684C10.8563 6.50251 10.8526 6.49755 10.8486 6.49317C10.5857 6.20157 10.2854 5.94521 9.95605 5.73145C9.49304 5.43082 9.36081 4.81181 9.66113 4.34863C9.96175 3.88574 10.5808 3.75352 11.0439 4.05371C11.3848 4.27493 11.7039 4.52828 11.9971 4.80859C12.824 4.00866 13.8521 3.44144 14.9756 3.16797Z" fill="#E4F2F2"/>
</svg>
