<svg width="24" height="24" viewBox="0 0 24 24" fill="none" xmlns="http://www.w3.org/2000/svg">
<path d="M10.0098 16C10.5621 16 11.0098 16.4477 11.0098 17C11.0096 17.5522 10.562 18 10.0098 18H10C9.44779 18 9.00012 17.5522 9 17C9 16.4477 9.44772 16 10 16H10.0098Z" fill="#E4F2F2"/>
<path fill-rule="evenodd" clip-rule="evenodd" d="M8 10C11.8523 10 15 13.1477 15 17L15.0146 17.2969C15.083 17.9834 15.3868 18.629 15.8789 19.1211C16.4415 19.6837 17.2044 20 18 20C18.5523 20 19 20.4477 19 21C18.9999 21.5522 18.5522 22 18 22H10C9.28748 22 8.50718 21.8101 7.80957 21.5254C7.11224 21.2408 6.41198 20.826 5.89258 20.3067L2.29297 16.7071C2.10549 16.5196 2.00006 16.2652 2 16V15C2 14.4477 2.44772 14 3 14C3.51161 14 3.93282 14.3843 3.99219 14.8799C5.74253 14.4506 6.9999 12.9037 7 11C7 10.4477 7.44772 10 8 10ZM8.90332 12.084C8.52509 14.218 7.04774 15.9351 5.05957 16.6455L7.30664 18.8926C7.58717 19.1731 8.03798 19.4586 8.56543 19.6738C9.09278 19.8891 9.61256 20 10 20H14.001C13.3555 19.1396 13 18.0882 13 17C13 14.5606 11.2244 12.513 8.90332 12.084Z" fill="#E4F2F2"/>
<path d="M13.6582 1.35939C13.8792 1.21699 14.1491 1.16706 14.4092 1.22268C14.7063 1.28628 14.9588 1.48117 15.0947 1.75295L16.0449 3.65432L17.9834 3.22365L18.0928 3.20607C18.3482 3.17851 18.606 3.25034 18.8115 3.4092C19.0463 3.59083 19.1885 3.86746 19.1992 4.16408L19.2725 6.21877L21.251 6.73244C21.5403 6.80751 21.7813 7.00822 21.9072 7.27932C22.0328 7.55029 22.0306 7.86355 21.9014 8.13283L21.041 9.92287L22.6328 11.2266C22.8648 11.4165 22.9999 11.7002 23 12C22.9999 12.2998 22.8648 12.5846 22.6328 12.7744L21.041 14.0762L21.9014 15.8672C22.0324 16.1405 22.0324 16.4591 21.9014 16.7324C21.7703 17.0056 21.5226 17.2055 21.2275 17.2744L18.2275 17.9737C17.6899 18.099 17.1521 17.765 17.0264 17.2276C16.9009 16.6898 17.2349 16.1521 17.7725 16.0264L19.5586 15.6094L18.8984 14.2334C18.6988 13.8175 18.8101 13.3186 19.167 13.0264L20.4209 12L19.167 10.9746C18.81 10.6826 18.6991 10.1835 18.8984 9.7676L19.5723 8.36232L18.0488 7.96779C17.621 7.85673 17.3168 7.47786 17.3008 7.03615L17.2432 5.43654L15.7168 5.77639C15.269 5.87579 14.8107 5.65723 14.6055 5.24709L13.8643 3.76564L12.6328 4.77443C12.2647 5.07518 11.7353 5.07518 11.3672 4.77443L10.1348 3.76564L9.39453 5.24709C9.18927 5.65723 8.73095 5.87579 8.2832 5.77639L6.75586 5.43654L6.69922 7.03615C6.68315 7.47786 6.37902 7.85673 5.95117 7.96779L4.25879 8.40627L4.95703 10.71C5.11693 11.2384 4.81841 11.7969 4.29004 11.9571C3.76165 12.1171 3.20328 11.8183 3.04297 11.2901L2.04297 7.99025C1.96407 7.72987 1.9949 7.44827 2.12793 7.21096C2.26115 6.97359 2.48556 6.8008 2.74902 6.73244L4.72656 6.21877L4.80078 4.16408L4.81055 4.05471C4.84795 3.80027 4.98284 3.56829 5.18848 3.4092C5.42337 3.22761 5.72676 3.15936 6.0166 3.22365L7.9541 3.65432L8.90527 1.75295L8.96191 1.65432C9.10527 1.43419 9.33098 1.2783 9.59082 1.22268C9.88801 1.15911 10.1984 1.23335 10.4336 1.4258L12 2.70803L13.5664 1.4258L13.6582 1.35939Z" fill="#E4F2F2"/>
</svg>
