<svg width="24" height="24" viewBox="0 0 24 24" fill="none" xmlns="http://www.w3.org/2000/svg">
<path fill-rule="evenodd" clip-rule="evenodd" d="M12 6C14.7614 6 17 8.23858 17 11C17 13.7614 14.7614 16 12 16C9.23858 16 7 13.7614 7 11C7 8.23858 9.23858 6 12 6ZM9.17383 12C9.47513 12.8515 10.1485 13.5238 11 13.8252V12H9.17383ZM13 13.8252C13.8515 13.5238 14.5249 12.8515 14.8262 12H13V13.8252ZM11 8.17383C10.1484 8.47517 9.47517 9.14838 9.17383 10H11V8.17383ZM13 10H14.8262C14.5248 9.14838 13.8516 8.47517 13 8.17383V10Z" fill="#E4F2F2"/>
<path fill-rule="evenodd" clip-rule="evenodd" d="M14 1C15.0021 1 15.9999 1.70856 16 2.7998V2.95508C16.8709 3.38538 17.6683 3.95349 18.3574 4.64258C19.0464 5.33156 19.6137 6.12922 20.0439 7H20.2002C21.2914 7.00012 22 7.99795 22 9V13C22 14.002 21.2914 14.9999 20.2002 15H20.041C19.7027 15.6741 19.2887 16.2839 18.8154 16.832C18.9746 16.9628 19.1245 17.1006 19.2598 17.2471C19.6728 17.6946 20 18.2752 20 19C20 19.7531 19.6511 20.3908 19.1709 20.8838C18.6975 21.3697 18.0615 21.7566 17.3545 22.0576C15.9375 22.6609 14.0468 23 12 23C9.95324 23 8.06251 22.6609 6.64551 22.0576C5.93853 21.7566 5.30246 21.3697 4.8291 20.8838C4.34891 20.3908 4 19.7531 4 19C4 18.2752 4.3272 17.6946 4.74023 17.2471C4.87531 17.1007 5.02469 16.9627 5.18359 16.832C4.71047 16.284 4.29722 15.6739 3.95898 15H3.7998C2.70856 14.9999 2 14.0021 2 13V9C2 7.99795 2.70856 7.00012 3.7998 7H3.95605C4.38633 6.12922 4.95359 5.33156 5.64258 4.64258C6.33166 3.95349 7.12907 3.38538 8 2.95508V2.7998C8.00012 1.70856 8.99795 1 10 1H14ZM10 3.59961C10 4.00808 9.75115 4.37617 9.37207 4.52832C8.50508 4.87637 7.71725 5.39603 7.05664 6.05664C6.39603 6.71725 5.87637 7.50508 5.52832 8.37207C5.37617 8.75115 5.00808 9 4.59961 9H4V13H4.59961C5.00477 13 5.37008 13.2445 5.52441 13.6191C6.13531 15.1028 7.18218 16.2435 8.51465 17.043C8.98788 17.3271 9.14127 17.9406 8.85742 18.4141C8.57328 18.8876 7.95893 19.0419 7.48535 18.7578C7.20408 18.5891 6.93205 18.4068 6.66992 18.2119C6.47448 18.3524 6.32258 18.4815 6.20996 18.6035C6.02312 18.8059 6 18.9249 6 19C6 19.0969 6.03879 19.2594 6.26172 19.4883C6.49143 19.7241 6.87437 19.9814 7.42969 20.2178C8.53767 20.6894 10.147 21 12 21C13.853 21 15.4623 20.6894 16.5703 20.2178C17.1256 19.9814 17.5086 19.7241 17.7383 19.4883C17.9612 19.2594 18 19.0969 18 19C18 18.9249 17.9769 18.8059 17.79 18.6035C17.6773 18.4814 17.5248 18.3526 17.3291 18.2119C17.0672 18.4067 16.7957 18.5892 16.5146 18.7578C16.0411 19.0419 15.4267 18.8876 15.1426 18.4141C14.8587 17.9406 15.0121 17.3271 15.4854 17.043C16.8178 16.2435 17.8647 15.1028 18.4756 13.6191L18.543 13.4854C18.7218 13.1875 19.0458 13 19.4004 13H20V9H19.4004C18.9919 9 18.6238 8.75115 18.4717 8.37207C18.1236 7.50508 17.604 6.71725 16.9434 6.05664C16.2827 5.39603 15.4949 4.87637 14.6279 4.52832C14.2488 4.37617 14 4.00808 14 3.59961V3H10V3.59961Z" fill="#E4F2F2"/>
</svg>
