<svg width="24" height="24" viewBox="0 0 24 24" fill="none" xmlns="http://www.w3.org/2000/svg">
<path fill-rule="evenodd" clip-rule="evenodd" d="M14.8008 1.53319C15.1056 1.35778 15.481 1.35486 15.7881 1.52636L19.1875 3.42675C19.5036 3.6034 19.7 3.93769 19.7002 4.29979V7.62108L22.499 9.23241C22.8089 9.41081 22.9998 9.74207 23 10.0996V13.8994C23 14.2569 22.8088 14.5871 22.499 14.7656L19.7002 16.3769V19.6992C19.7002 20.0614 19.5036 20.3955 19.1875 20.5723L15.7881 22.4726C15.4809 22.6443 15.1057 22.6414 14.8008 22.4658L12 20.8535L9.19922 22.4658C8.89431 22.6414 8.51905 22.6443 8.21191 22.4726L4.8125 20.5723C4.49636 20.3955 4.2998 20.0614 4.2998 19.6992V16.3769L1.50098 14.7656C1.19123 14.5871 1 14.2569 1 13.8994V10.0996L1.00879 9.96679C1.04971 9.66164 1.22987 9.3885 1.50098 9.23241L4.2998 7.62108V4.29979C4.29996 3.93769 4.49638 3.6034 4.8125 3.42675L8.21191 1.52636L8.33008 1.47069C8.6117 1.35853 8.93241 1.37965 9.19922 1.53319L12 3.14452L14.8008 1.53319ZM6.2998 16.3857V19.1113L8.69141 20.4492L11 19.1211V16.3779L8.69141 15.0488L6.2998 16.3857ZM13 16.3779V19.1211L15.3076 20.4492L17.7002 19.1113V16.3857L15.3066 15.0488L13 16.3779ZM3 10.6767V13.3213L5.30664 14.6494L7.7002 13.3115V10.6865L5.30566 9.3496L3 10.6767ZM16.2998 10.6855V13.3115L18.6914 14.6494L21 13.3213V10.6767L18.6924 9.34862L16.2998 10.6855ZM9.7002 10.6777V13.3213L12 14.6455L14.2998 13.3213V10.6777L12 9.3535L9.7002 10.6777ZM6.2998 4.88573V7.61229L8.69238 8.95018L11 7.62206V4.87694L8.69238 3.54784L6.2998 4.88573ZM13 4.87694V7.62206L15.3066 8.95018L17.7002 7.61229V4.88573L15.3066 3.54784L13 4.87694Z" fill="#E4F2F2"/>
</svg>
