<svg width="24" height="24" viewBox="0 0 24 24" fill="none" xmlns="http://www.w3.org/2000/svg">
<path fill-rule="evenodd" clip-rule="evenodd" d="M11.9727 1.33303C12.441 1.32845 12.9033 1.43342 13.3223 1.63869L13.499 1.73342L13.5146 1.74221L16.5449 3.56252C16.9812 3.82456 17.3441 4.19405 17.5986 4.63479C17.8529 5.07543 17.9912 5.57433 18 6.08303V9.93361L21.5449 12.0625C21.9812 12.3246 22.3441 12.6941 22.5986 13.1348C22.8529 13.5754 22.9912 14.0743 23 14.583V17.8711C22.9994 18.397 22.8608 18.9139 22.5977 19.3692C22.337 19.8201 21.9623 20.1944 21.5127 20.4571L21.5137 20.458L18.5449 22.2354L18.5459 22.2363C18.0872 22.5126 17.5628 22.6608 17.0273 22.666C16.492 22.6713 15.9649 22.5338 15.501 22.2666C15.4958 22.2636 15.4904 22.2599 15.4854 22.2569L11.999 20.1651L8.54492 22.2354L8.5459 22.2363C8.08722 22.5126 7.56278 22.6608 7.02734 22.666C6.492 22.6713 5.96493 22.5338 5.50098 22.2666C5.49573 22.2636 5.49054 22.26 5.48535 22.2569L2.45508 20.4375C2.01873 20.1754 1.65588 19.8061 1.40137 19.3653C1.14699 18.9245 1.00879 18.4258 1 17.917V14.6289L1.00684 14.4317C1.03746 13.9745 1.17224 13.5291 1.40234 13.1309C1.66281 12.6804 2.0363 12.3046 2.48535 12.042L6 9.93361V6.12893C6.0006 5.6031 6.13927 5.08616 6.40234 4.63088C6.66296 4.18012 7.03695 3.80465 7.48633 3.54201L10.4561 1.76174C10.9143 1.48617 11.4379 1.3383 11.9727 1.33303ZM3.51465 13.7569C3.50992 13.7597 3.50478 13.7629 3.5 13.7656C3.34821 13.8533 3.22154 13.9801 3.13379 14.1319C3.04627 14.2835 3.00024 14.4558 3 14.6309V17.8828L3.00977 18.0088C3.02791 18.134 3.07021 18.2551 3.13379 18.3653C3.21855 18.5121 3.33911 18.6353 3.48438 18.7227L6.49805 20.5332C6.65271 20.6223 6.82935 20.6688 7.00781 20.667C7.18616 20.6653 7.36086 20.6154 7.51367 20.5235L7.51562 20.5225L11 18.4326V14.0655L6.99902 11.666L3.51465 13.7569ZM13 14.0655V18.4336L16.5039 20.5352C16.6575 20.6225 16.8311 20.6687 17.0078 20.667C17.1862 20.6653 17.3609 20.6154 17.5137 20.5235L17.5156 20.5225L20.4863 18.7422L20.5 18.7334C20.6517 18.6457 20.7785 18.5199 20.8662 18.3682C20.9536 18.2169 20.9996 18.0449 21 17.8701V14.6172L20.9902 14.4912C20.9721 14.3661 20.9298 14.245 20.8662 14.1348C20.7815 13.9881 20.6608 13.8647 20.5156 13.7774L16.999 11.666L13 14.0655ZM11.9922 3.33303C11.8138 3.33479 11.6391 3.38461 11.4863 3.47658L11.4844 3.47756L8.51367 5.25783C8.50921 5.2605 8.5045 5.26305 8.5 5.26565C8.34821 5.35328 8.22154 5.48014 8.13379 5.63186C8.04627 5.78346 8.00024 5.95582 8 6.13088V9.93361L12 12.333L16 9.93361V6.11721L15.9902 5.99123C15.9721 5.86609 15.9298 5.74498 15.8662 5.63479C15.7815 5.4881 15.6608 5.36466 15.5156 5.27737L12.501 3.46584C12.3464 3.37694 12.1705 3.33128 11.9922 3.33303Z" fill="#E4F2F2"/>
</svg>
