<svg width="24" height="24" viewBox="0 0 24 24" fill="none" xmlns="http://www.w3.org/2000/svg">
<path fill-rule="evenodd" clip-rule="evenodd" d="M13.293 3.29297C13.6835 2.90252 14.3165 2.90247 14.707 3.29297C15.0974 3.68347 15.0974 4.31653 14.707 4.70703L10.1143 9.2998L10.0488 9.37305C9.9066 9.5499 9.82812 9.77111 9.82812 10C9.82817 10.2617 9.93107 10.5133 10.1143 10.7002L15.2998 15.8857C15.4867 16.0689 15.7383 16.1718 16 16.1719C16.2583 16.1718 16.5063 16.0713 16.6924 15.8926L21.293 11.293C21.6835 10.9025 22.3165 10.9025 22.707 11.293C23.0974 11.6835 23.0974 12.3165 22.707 12.707L18.0996 17.3145C17.5389 17.8638 16.785 18.1718 16 18.1719C15.7698 18.1719 15.543 18.1421 15.3223 18.0908L12.707 20.707C12.5195 20.8945 12.2652 21 12 21H3C2.44777 21 2.00008 20.5522 2 20V17L2.00488 16.9014C2.02757 16.6724 2.12887 16.4571 2.29297 16.293L7.9082 10.6768C7.85709 10.4564 7.82814 10.2298 7.82812 10C7.82812 9.21494 8.13613 8.46113 8.68555 7.90039L8.69238 7.89258L13.293 3.29297ZM4 17.4141V19H11.5859L13.585 17L8.99902 12.4141L4 17.4141Z" fill="#E4F2F2"/>
</svg>
