<svg width="24" height="24" viewBox="0 0 24 24" fill="none" xmlns="http://www.w3.org/2000/svg">
<path fill-rule="evenodd" clip-rule="evenodd" d="M3.47656 2.1489C3.86711 1.90843 4.3771 1.9635 4.70703 2.29343C7.74974 5.33616 9.88171 8.001 11.4287 10.0932C12.1987 11.1346 12.8277 12.0398 13.3369 12.7573C13.7295 13.3105 14.0383 13.7338 14.293 14.0444L14.5312 14.3178L14.543 14.3315C15.1377 14.9922 16.2113 15.1829 16.9814 14.7436C17.047 14.7004 17.1249 14.6513 17.1582 14.6294C17.2147 14.5922 17.2482 14.5679 17.2734 14.5483C17.3088 14.5208 17.3331 14.4984 17.3682 14.4458L17.4238 14.3706C17.7162 14.0097 18.2246 13.8945 18.6475 14.1059C18.9245 14.2445 19.3232 14.5558 19.7031 14.8862C20.1152 15.2447 20.6016 15.7117 21.0693 16.2329C21.5342 16.7509 22.0011 17.3446 22.3564 17.9585C22.7014 18.5544 23 19.2682 23 20.0005C23 20.4253 22.8908 20.8107 22.6758 21.1333C22.4649 21.4495 22.1908 21.6482 21.9473 21.77C21.7076 21.8898 21.4795 21.9446 21.3203 21.9712C21.2385 21.9848 21.1681 21.9917 21.1143 21.9956C21.0873 21.9975 21.064 21.9988 21.0449 21.9995C21.0354 21.9998 21.026 22.0003 21.0186 22.0005H21.001C21.0005 22.0004 21 21.9914 21 21.0005L21.001 22.0005H14C12.6614 22.0005 11.3301 21.3265 10.543 20.0151C10.5326 19.9978 10.522 19.9793 10.5127 19.9614L9.22852 17.4907L9.07031 17.2182C8.2558 15.8669 7.11362 14.6521 5.77539 13.5815L5.11816 13.0893C5.66009 15.3006 6 18.0407 6 21.0005C5.99985 21.5525 5.552 22.0002 5 22.0005C4.448 22.0002 4.00015 21.5525 4 21.0005C4 16.6075 3.21798 12.8819 2.26855 10.855L1.68164 9.77878C1.67295 9.76283 1.66594 9.74615 1.6582 9.72995C1.65032 9.71453 1.64154 9.69956 1.63379 9.68406C1.26934 8.95516 1.05701 8.16023 1.00977 7.3491L1 7.00046C1 6.06907 1.21729 5.14994 1.63379 4.31687C2.05032 3.48395 2.65539 2.75944 3.40039 2.20066L3.47656 2.1489ZM3.96777 4.39206C3.75372 4.64093 3.56966 4.91583 3.42188 5.2114C3.14423 5.76676 3 6.37956 3 7.00046L3.00684 7.23288C3.03834 7.7736 3.17893 8.30363 3.42188 8.78953C3.69955 9.3448 4.10296 9.82813 4.59961 10.2007L7 12.0005C7.00828 12.0067 7.01632 12.0135 7.02441 12.02C8.49845 13.1992 9.81803 14.5854 10.7832 16.187L10.9717 16.5102L10.9873 16.5395L12.2646 18.9966C12.6781 19.6772 13.3424 20.0005 14 20.0005H20.9775C20.9735 20.0006 20.9717 20.0014 20.9717 20.0014C20.9724 20.0014 20.9805 20.0005 20.9922 19.9985C20.9946 19.9981 20.9967 19.996 20.999 19.9956C20.9975 19.7776 20.8966 19.4296 20.625 18.9604C20.3619 18.506 19.9907 18.0254 19.5811 17.5688C19.174 17.1152 18.7472 16.7062 18.3906 16.396C18.349 16.3597 18.3076 16.3254 18.2686 16.2925C18.1872 16.3462 18.1146 16.3922 18.0547 16.4321C18.0381 16.4432 18.0211 16.4543 18.0039 16.4643C16.3805 17.4112 14.273 17.0066 13.0693 15.6821C13.0673 15.6799 13.0646 15.6784 13.0625 15.6762C13.0605 15.6741 13.0586 15.6716 13.0566 15.6694C12.6561 15.2375 12.2083 14.6232 11.7061 13.9155C11.1841 13.1801 10.5759 12.3033 9.82129 11.2827C8.43545 9.4084 6.56847 7.06425 3.96777 4.39206Z" fill="#E4F2F2"/>
</svg>
