<svg width="24" height="24" viewBox="0 0 24 24" fill="none" xmlns="http://www.w3.org/2000/svg">
<path d="M8.50977 16C9.06205 16 9.50977 16.4477 9.50977 17C9.50977 17.5523 9.06205 18 8.50977 18H8.5C7.94772 18 7.5 17.5523 7.5 17C7.5 16.4477 7.94772 16 8.5 16H8.50977Z" fill="#E4F2F2"/>
<path d="M15.5098 16C16.0621 16 16.5098 16.4477 16.5098 17C16.5098 17.5523 16.0621 18 15.5098 18H15.5C14.9477 18 14.5 17.5523 14.5 17C14.5 16.4477 14.9477 16 15.5 16H15.5098Z" fill="#E4F2F2"/>
<path d="M12.0098 14C12.5621 14 13.0098 14.4477 13.0098 15C13.0098 15.5523 12.5621 16 12.0098 16H12C11.4477 16 11 15.5523 11 15C11 14.4477 11.4477 14 12 14H12.0098Z" fill="#E4F2F2"/>
<path fill-rule="evenodd" clip-rule="evenodd" d="M8 7.5C9.65685 7.5 11 8.84315 11 10.5C11 12.1569 9.65685 13.5 8 13.5C6.34315 13.5 5 12.1569 5 10.5C5 8.84315 6.34315 7.5 8 7.5ZM8 9.5C7.44772 9.5 7 9.94771 7 10.5C7 11.0523 7.44772 11.5 8 11.5C8.55228 11.5 9 11.0523 9 10.5C9 9.94771 8.55228 9.5 8 9.5Z" fill="#E4F2F2"/>
<path fill-rule="evenodd" clip-rule="evenodd" d="M16 7.5C17.6569 7.5 19 8.84315 19 10.5C19 12.1569 17.6569 13.5 16 13.5C14.3431 13.5 13 12.1569 13 10.5C13 8.84315 14.3431 7.5 16 7.5ZM16 9.5C15.4477 9.5 15 9.94771 15 10.5C15 11.0523 15.4477 11.5 16 11.5C16.5523 11.5 17 11.0523 17 10.5C17 9.94771 16.5523 9.5 16 9.5Z" fill="#E4F2F2"/>
<path d="M12.0098 5C12.5621 5 13.0098 5.44772 13.0098 6C13.0098 6.55228 12.5621 7 12.0098 7H12C11.4477 7 11 6.55228 11 6C11 5.44772 11.4477 5 12 5H12.0098Z" fill="#E4F2F2"/>
<path fill-rule="evenodd" clip-rule="evenodd" d="M12 1C14.0686 1 15.8052 1.09942 17.2373 1.41016C18.6828 1.72383 19.8796 2.26628 20.8066 3.19336C21.7337 4.12044 22.2762 5.31722 22.5898 6.7627C22.9006 8.19479 23 9.9314 23 12C23 14.9174 21.8412 17.7154 19.7783 19.7783C17.7154 21.8412 14.9174 23 12 23C9.08262 23 6.28458 21.8412 4.22168 19.7783C2.15878 17.7154 1 14.9174 1 12C1 9.9314 1.09942 8.19479 1.41016 6.7627C1.72383 5.31722 2.26628 4.12044 3.19336 3.19336C4.12044 2.26628 5.31722 1.72383 6.7627 1.41016C8.19479 1.09942 9.9314 1 12 1ZM12 3C9.96879 3 8.40536 3.10103 7.1875 3.36523C5.98307 3.62657 5.18029 4.03455 4.60742 4.60742C4.03455 5.18029 3.62657 5.98307 3.36523 7.1875C3.10103 8.40536 3 9.96879 3 12C3 14.3869 3.94791 16.6764 5.63574 18.3643C7.32357 20.0521 9.61305 21 12 21C14.3869 21 16.6764 20.0521 18.3643 18.3643C20.0521 16.6764 21 14.3869 21 12C21 9.96879 20.899 8.40536 20.6348 7.1875C20.3734 5.98307 19.9655 5.18029 19.3926 4.60742C18.8197 4.03455 18.0169 3.62657 16.8125 3.36523C15.5946 3.10103 14.0312 3 12 3Z" fill="#E4F2F2"/>
</svg>
