<svg width="24" height="24" viewBox="0 0 24 24" fill="none" xmlns="http://www.w3.org/2000/svg">
<path fill-rule="evenodd" clip-rule="evenodd" d="M20.4111 1.05618C20.7976 1.11026 21.1704 1.24016 21.5068 1.43802C21.8431 1.63584 22.1371 1.89812 22.3721 2.2095C22.6072 2.52108 22.779 2.8766 22.877 3.25442C22.9748 3.63197 22.9974 4.0254 22.9434 4.41165C22.8892 4.79807 22.7594 5.17103 22.5615 5.50735L22.5547 5.51907L16.7949 15.0044C16.8628 15.001 16.9313 14.9995 17 14.9995C19.209 14.9996 20.9999 16.7906 21 18.9995C21 21.2086 19.2091 22.9995 17 22.9995C15.3429 22.9995 13.9205 21.9923 13.3135 20.5562C12.4019 21.6198 11.1867 22.396 9.81446 22.7642C8.02066 23.2453 6.10872 22.994 4.50001 22.0659C2.89132 21.1378 1.7167 19.6088 1.23536 17.815C0.754101 16.0212 1.00563 14.1093 1.9336 12.5005C2.12973 12.1585 2.39147 11.8572 2.70314 11.6158C3.016 11.3735 3.37414 11.1955 3.75587 11.0913C4.13778 10.9872 4.537 10.9585 4.9297 11.0083C5.32249 11.0583 5.70212 11.1859 6.04591 11.3824C6.38957 11.5788 6.69123 11.8409 6.9336 12.1538C7.17605 12.4669 7.3548 12.8246 7.459 13.2066C7.56314 13.5885 7.59095 13.9877 7.54103 14.3804C7.49105 14.7731 7.36439 15.1529 7.16798 15.4966L7.16114 15.5074C7.09663 15.6172 7.0538 15.7396 7.03614 15.8658C7.01859 15.992 7.02663 16.1213 7.0586 16.2447C7.09068 16.368 7.14691 16.4838 7.22364 16.5855C7.30051 16.6873 7.39686 16.7737 7.50685 16.8384C7.61659 16.9029 7.73822 16.9457 7.86427 16.9634C7.9905 16.9811 8.11977 16.9729 8.24318 16.9409C8.3666 16.9089 8.48315 16.8526 8.58497 16.7759C8.6867 16.6991 8.77322 16.6025 8.8379 16.4927L8.84767 16.4771L17.4473 2.47708C17.6439 2.1476 17.9027 1.85871 18.209 1.62747C18.5205 1.39247 18.8763 1.22057 19.2539 1.12259C19.6314 1.02478 20.0249 1.00222 20.4111 1.05618ZM10.5518 17.524L10.5508 17.523C10.3542 17.8523 10.0963 18.1415 9.79005 18.3726C9.47857 18.6075 9.12279 18.7796 8.74513 18.8775C8.36763 18.9752 7.9741 18.9979 7.5879 18.9439C7.20146 18.8898 6.82853 18.7599 6.4922 18.562C6.156 18.3642 5.86194 18.1019 5.62696 17.7906C5.39192 17.479 5.22005 17.1234 5.12208 16.7456C5.02428 16.3681 5.00171 15.9746 5.05568 15.5884C5.10974 15.202 5.23975 14.829 5.43751 14.4927C5.49996 14.3801 5.54033 14.2562 5.55665 14.1284C5.57346 13.9962 5.56435 13.8615 5.52931 13.7329C5.49423 13.6043 5.43414 13.4839 5.35255 13.3784C5.27099 13.2731 5.16934 13.1848 5.05372 13.1187C4.93803 13.0526 4.80991 13.0095 4.67775 12.9927C4.54559 12.976 4.41076 12.985 4.28224 13.02C4.15386 13.0551 4.033 13.1154 3.92775 13.1968C3.82249 13.2784 3.73406 13.381 3.66798 13.4966L3.66603 13.4995C3.00316 14.6488 2.82328 16.015 3.167 17.2964C3.51085 18.5778 4.34994 19.6704 5.49903 20.3335C6.64828 20.9966 8.01441 21.1762 9.29591 20.8326C10.5773 20.4888 11.6699 19.6496 12.333 18.5005L12.3447 18.481L17.166 10.5367L15.4951 9.47317L10.5518 17.524ZM17 16.9995C15.8955 16.9995 15.0002 17.8951 15 18.9995C15 20.1041 15.8954 20.9995 17 20.9995C18.1045 20.9995 19 20.1041 19 18.9995C18.9999 17.8951 18.1044 16.9996 17 16.9995ZM16.543 7.7681L18.2051 8.82571L19.2412 7.11966L17.5879 6.0679L16.543 7.7681ZM20.1338 3.03763C20.0077 3.02007 19.8791 3.02721 19.7559 3.05911C19.6325 3.09117 19.5159 3.14738 19.4141 3.22415C19.3123 3.301 19.2258 3.39745 19.1611 3.50735C19.158 3.51265 19.1546 3.51874 19.1514 3.52396L18.6348 4.3638L20.2793 5.4097L20.8389 4.4888C20.9022 4.38 20.9444 4.25997 20.9619 4.13528C20.9796 4.00896 20.9724 3.87986 20.9404 3.75638C20.9084 3.63279 20.8523 3.5165 20.7754 3.41458C20.6985 3.31269 20.6022 3.22637 20.4922 3.16165C20.3823 3.09708 20.2601 3.05529 20.1338 3.03763Z" fill="#E4F2F2"/>
</svg>
