<svg width="24" height="24" viewBox="0 0 24 24" fill="none" xmlns="http://www.w3.org/2000/svg">
<path fill-rule="evenodd" clip-rule="evenodd" d="M1.29297 1.29346C1.68349 0.902932 2.31651 0.902932 2.70703 1.29346L17.3799 15.9663C17.3821 15.9683 17.3845 15.9701 17.3867 15.9722C17.3929 15.978 17.3983 15.9847 17.4043 15.9907L22.707 21.2935C23.0973 21.684 23.0975 22.3171 22.707 22.7075C22.3959 23.0185 21.9312 23.0805 21.5576 22.896C21.3572 22.9496 21.1491 22.971 20.9414 22.9575C19.9359 22.8984 18.2807 22.7397 16.7187 22.2954C16.3361 22.7607 15.7277 23.0144 15.0898 22.9312C15.0831 22.9303 15.0761 22.9292 15.0693 22.9282C13.778 22.7313 12.3624 22.1889 11.4785 21.813C11.4152 21.864 11.3493 21.9125 11.2793 21.9546C11.0291 22.1051 10.7456 22.1928 10.4541 22.2095C10.1627 22.2261 9.87115 22.1712 9.60547 22.0503L9.60254 22.0493C8.24053 21.4239 6.74333 20.327 5.64355 19.4155C5.44371 19.5303 5.21951 19.6025 4.98144 19.6226C4.39691 19.6718 3.84616 19.4058 3.48437 18.9614C1.75967 16.8507 0.879638 14.1741 1.01562 11.4517C1.13507 9.06275 2.0289 6.78698 3.54785 4.9624L1.29297 2.70752C0.902498 2.31705 0.902608 1.68399 1.29297 1.29346ZM12.0625 17.4976C12.1689 18.3473 12.2082 19.1662 12.1807 19.939C12.9258 20.2589 14.0875 20.7121 15.1357 20.9097C15.1722 19.9184 14.9814 18.7517 14.8037 17.8911C13.9849 17.8205 13.0145 17.7011 12.0625 17.4976ZM16.9199 18.3345C17.0227 18.9496 17.1124 19.6462 17.1348 20.3335C17.8702 20.553 18.6576 20.7004 19.3848 20.7993L16.9199 18.3345ZM7.44336 12.8218C7.3958 13.4867 7.32056 14.2302 7.21387 14.9712C7.08261 15.8827 6.89977 16.8376 6.66504 17.6626C7.63513 18.4889 8.9836 19.5036 10.1699 20.1021C10.2835 18.1374 9.86232 15.667 8.87305 13.1069C8.37129 13.0375 7.89147 12.9366 7.44336 12.8218ZM4.9707 6.38525C3.79839 7.85326 3.10832 9.65826 3.01367 11.5513C2.91151 13.5957 3.51022 15.6071 4.70019 17.2593C4.91291 16.552 5.09709 15.6394 5.23437 14.686C5.41067 13.4616 5.49997 12.261 5.5 11.5005C5.5 11.1787 5.65477 10.8759 5.91601 10.688C6.17726 10.5002 6.51334 10.4499 6.81836 10.5522C7.71065 10.8519 8.72945 11.1258 9.77637 11.1909L4.9707 6.38525ZM11.5342 13.1069L11.5352 13.1079C11.5323 13.1084 11.5292 13.1085 11.5264 13.1089C11.5251 13.1091 11.5237 13.1096 11.5225 13.1099L11.5215 13.1089C11.3553 13.1347 11.1893 13.1534 11.0244 13.1685C11.2781 13.8978 11.4922 14.6235 11.6641 15.3384C12.5418 15.5913 13.5345 15.7492 14.4316 15.8462L11.667 13.0815C11.6231 13.0914 11.5789 13.1002 11.5342 13.1069Z" fill="#E4F2F2"/>
<path d="M7.98535 1.74853C9.80455 1.03745 11.7807 0.824062 13.71 1.12939C15.6378 1.4346 17.45 2.24724 18.96 3.48389C19.4043 3.8456 19.6711 4.39649 19.6221 4.98096C19.6022 5.21709 19.5311 5.43956 19.418 5.63818C20.2715 6.66244 21.0317 7.76142 21.6846 8.92432L22.0273 9.56006L22.0498 9.60596C22.1707 9.87173 22.2257 10.1631 22.209 10.4546C22.1923 10.7462 22.1047 11.0295 21.9541 11.2798C21.9121 11.3495 21.8642 11.415 21.8135 11.478C22.1568 12.2847 22.6391 13.5348 22.8701 14.729L22.9287 15.0698L22.9316 15.0884C23.0161 15.7229 22.7675 16.3974 22.2012 16.7915C21.748 17.1065 21.125 16.9943 20.8096 16.5415C20.5264 16.1344 20.5879 15.5905 20.9316 15.2554C20.7472 14.176 20.2697 12.9526 19.9375 12.1792C18.8243 12.2196 17.6159 12.1226 16.3701 11.8823C15.828 11.7776 15.4736 11.2526 15.5781 10.7104C15.6828 10.1684 16.2069 9.81411 16.749 9.91846C17.9548 10.151 19.0887 10.2288 20.0859 10.1724C19.4073 8.91863 18.5973 7.74107 17.667 6.66162C15.984 7.13869 13.6872 7.41935 12.1787 7.479C11.6272 7.50043 11.1624 7.07066 11.1406 6.51904C11.1191 5.9677 11.5483 5.50319 12.0996 5.48096C13.6107 5.4212 15.8286 5.12773 17.2607 4.69873C16.118 3.87318 14.7949 3.32524 13.3975 3.104C11.8191 2.8542 10.2022 3.02914 8.71387 3.61084C8.19953 3.81175 7.619 3.55777 7.41797 3.04346C7.21752 2.5294 7.47149 1.94964 7.98535 1.74853Z" fill="#E4F2F2"/>
</svg>
