<svg width="24" height="24" viewBox="0 0 24 24" fill="none" xmlns="http://www.w3.org/2000/svg">
<path fill-rule="evenodd" clip-rule="evenodd" d="M2.37646 1.21777C2.77242 0.901538 3.35199 0.930154 3.71435 1.2998C4.027 1.61893 4.08136 2.09419 3.88232 2.46875L4.96924 3.55469C6.79216 2.03676 9.06571 1.14319 11.4526 1.02246C14.1744 0.884867 16.8508 1.76256 18.9624 3.48535C19.41 3.84994 19.6713 4.40399 19.6226 4.98535C19.6029 5.21926 19.532 5.44091 19.4194 5.63965C20.2723 6.66349 21.0316 7.7625 21.6841 8.9248L22.0278 9.56055L22.0503 9.60645C22.1711 9.87213 22.2252 10.1637 22.2085 10.4551C22.1917 10.7465 22.1051 11.0301 21.9546 11.2803C21.9138 11.348 21.8669 11.4113 21.8179 11.4727C22.231 12.4405 22.559 13.4426 22.7935 14.4688L22.9116 15.0283L22.9155 15.0479C22.9579 15.2908 22.9487 15.5409 22.8892 15.7803C22.8295 16.0194 22.7201 16.2439 22.5688 16.4385C22.4857 16.5453 22.3893 16.6408 22.2847 16.7256C22.6698 18.1052 22.8979 19.5249 22.9585 20.958H22.9565C22.9709 21.22 22.9333 21.4826 22.8413 21.7285C22.7461 21.9828 22.5968 22.2133 22.4048 22.4053C22.2128 22.5972 21.9823 22.7466 21.728 22.8418C21.477 22.9357 21.2083 22.9741 20.9409 22.957C19.9352 22.8979 18.2802 22.7392 16.7183 22.2949C16.6354 22.3956 16.5424 22.4879 16.439 22.5684C16.2443 22.7197 16.02 22.829 15.7808 22.8887C15.5414 22.9483 15.2914 22.9574 15.0483 22.915C15.042 22.9139 15.0351 22.9133 15.0288 22.9121C13.8075 22.6745 12.6161 22.3054 11.4731 21.8174C11.4115 21.8666 11.3477 21.9132 11.2798 21.9541C11.0296 22.1047 10.7461 22.1922 10.4546 22.209C10.163 22.2257 9.87175 22.1708 9.60595 22.0498C9.59053 22.0428 9.5751 22.0351 9.56006 22.0273C8.16113 21.3018 6.84739 20.4254 5.63818 19.418C5.43978 19.531 5.21789 19.6031 4.98193 19.623C4.39751 19.6723 3.84669 19.4061 3.48486 18.9619C1.76244 16.8505 0.884453 14.1745 1.02197 11.4531C1.1427 9.0661 2.03713 6.79269 3.55517 4.96973L2.29248 3.70703L2.29345 3.70605C2.13544 3.5493 2.00861 3.36347 1.92236 3.1582C1.83488 2.94983 1.78955 2.726 1.78955 2.5C1.78957 2.27398 1.83484 2.05018 1.92236 1.8418C2.00988 1.63352 2.13801 1.44431 2.29931 1.28613L2.37646 1.21777ZM17.8062 16.8262C17.6131 17.2635 17.263 17.6137 16.8257 17.8066C16.9653 18.5314 17.1052 19.4402 17.1343 20.333C18.4573 20.7277 19.9487 20.8902 20.9546 20.9541C20.893 19.6597 20.6804 18.3778 20.3228 17.1338C19.4339 17.1041 18.5296 16.9649 17.8062 16.8262ZM12.062 17.4971C12.169 18.35 12.208 19.1712 12.1802 19.9443C13.1319 20.3564 14.1222 20.6742 15.1372 20.8906C15.1705 19.9037 14.9807 18.7466 14.8042 17.8916C13.9851 17.8211 13.0144 17.7006 12.062 17.4971ZM7.44287 12.8223C7.3953 13.4872 7.32006 14.2308 7.21338 14.9717C7.08185 15.8851 6.89899 16.842 6.66357 17.668C7.74255 18.5977 8.9192 19.4077 10.1724 20.0859C10.2825 18.1317 9.85991 15.6609 8.87353 13.1074C8.37142 13.0378 7.89119 12.9372 7.44287 12.8223ZM11.5542 3.02051C9.32727 3.13311 7.22073 4.06785 5.64404 5.64453C4.06743 7.2212 3.13262 9.32782 3.02002 11.5547C2.91692 13.597 3.51384 15.6069 4.70068 17.2588C4.91325 16.5517 5.09666 15.6394 5.23388 14.6865C5.41016 13.4622 5.50042 12.2615 5.50049 11.501C5.50049 11.1792 5.65525 10.8764 5.9165 10.6885C6.17776 10.5007 6.51385 10.4503 6.81885 10.5527C8.0938 10.9808 9.62691 11.3564 11.1313 11.1445C11.2014 10.6063 11.2163 10.1262 11.1948 9.68359C11.1909 9.64645 11.1896 9.60894 11.1899 9.57129C11.1244 8.5503 10.8534 7.72268 10.5513 6.81641C10.4498 6.51164 10.5012 6.17666 10.689 5.91602C10.8769 5.65525 11.179 5.50098 11.5005 5.50098C12.261 5.50093 13.4616 5.41067 14.686 5.23438C15.639 5.09715 16.5512 4.91376 17.2583 4.70117C15.6063 3.51428 13.5966 2.91735 11.5542 3.02051ZM13.1567 11.0215C13.1413 11.1832 13.1239 11.3495 13.1001 11.5195L13.0991 11.5264C13.0407 11.9212 12.8579 12.2881 12.5776 12.5723C12.2973 12.8563 11.9335 13.0437 11.5395 13.1074L11.5356 13.1084C11.3652 13.1352 11.195 13.1545 11.0259 13.1699C11.2791 13.8986 11.4919 14.6244 11.6636 15.3389C13.0969 15.7516 14.8377 15.9101 15.9663 15.9668C15.9635 15.912 15.9589 15.8555 15.9556 15.7979C15.9418 15.7216 15.9373 15.643 15.9419 15.5635C15.8686 14.4522 15.6985 12.9342 15.3374 11.666C14.6189 11.4934 13.8892 11.2784 13.1567 11.0215ZM17.4937 12.0625C17.6962 13.0128 17.818 13.9843 17.8901 14.8047C18.7499 14.9813 19.9047 15.17 20.8901 15.1367C20.6737 14.1217 20.3567 13.1315 19.9448 12.1797C19.1706 12.208 18.348 12.1688 17.4937 12.0625ZM21.147 15.123C21.1482 15.123 21.1496 15.1231 21.1509 15.123L21.1538 15.1221C21.1516 15.1222 21.1492 15.1228 21.147 15.123ZM17.6675 6.66309C16.8414 6.89869 15.8847 7.08233 14.9712 7.21387C14.2364 7.31967 13.4991 7.39372 12.8384 7.44141C12.9606 7.8876 13.0633 8.36198 13.1294 8.88086C15.6677 9.86916 18.1333 10.2838 20.0864 10.1729C19.408 8.9194 18.5975 7.74227 17.6675 6.66309Z" fill="#E4F2F2"/>
</svg>
