<svg width="24" height="24" viewBox="0 0 24 24" fill="none" xmlns="http://www.w3.org/2000/svg">
<path fill-rule="evenodd" clip-rule="evenodd" d="M10.6836 1.05178C11.1557 0.894405 11.672 1.10764 11.8945 1.55275L11.8955 1.55568C11.896 1.55652 11.897 1.5576 11.8975 1.55861C11.8986 1.56095 11.8998 1.56419 11.9014 1.5674C11.9046 1.57402 11.9092 1.5825 11.9141 1.59279C11.9242 1.61409 11.9376 1.64422 11.9541 1.68068C11.9871 1.75378 12.0325 1.85719 12.085 1.9883C12.19 2.25091 12.3267 2.62734 12.4619 3.1006C12.7056 3.95361 12.945 5.12999 12.9903 6.53322L21.7529 14.082L21.8076 14.1338C22.5302 14.8574 22.9481 15.8303 22.9756 16.8526C23.003 17.875 22.638 18.8695 21.9551 19.6309C21.2722 20.3922 20.3231 20.8628 19.3037 20.9463C18.2846 21.0297 17.2723 20.7199 16.4746 20.0801C16.4463 20.0573 16.4183 20.0326 16.3926 20.0069L16.3858 20H9.00002C7.94267 20 6.9206 19.6639 6.07424 19.0528C5.90381 19.1797 5.69901 19.3378 5.4717 19.5332C4.74572 20.1575 3.77462 21.1409 2.83205 22.5547C2.52568 23.0141 1.9048 23.1383 1.44533 22.8321C0.985853 22.5257 0.861766 21.9048 1.16799 21.4453C2.22528 19.8594 3.324 18.7423 4.16799 18.0166C4.36465 17.8475 4.54737 17.6992 4.71291 17.5713C4.25064 16.8009 4.00006 15.9136 4.00002 15C4.00002 14.4477 4.44773 14 5.00002 14C5.5523 14 6.00002 14.4477 6.00002 15C6.00008 15.7956 6.31637 16.5586 6.87892 17.1211C7.44152 17.6837 8.20442 18 9.00002 18H16.7998C17.065 18 17.3193 18.1055 17.5069 18.293L17.7569 18.543C18.1509 18.8468 18.6439 18.9938 19.1406 18.9531C19.6503 18.9114 20.1254 18.6766 20.4668 18.2959C20.8082 17.9152 20.9903 17.4174 20.9766 16.9063C20.963 16.4023 20.7592 15.9227 20.4072 15.5625L11.3477 7.75783C11.1272 7.56791 11.0001 7.29098 11 7.00002C11 5.61035 10.7678 4.4534 10.5381 3.64943C10.5195 3.58431 10.4979 3.52225 10.4795 3.46193C10.3907 3.53498 10.2984 3.61574 10.207 3.70705C9.63199 4.28216 9.00002 5.28268 9.00002 7.00002C8.99991 7.45879 8.6873 7.85847 8.24221 7.96975C6.35766 8.44092 4.95398 9.14541 4.03029 9.72267C3.56839 10.0114 3.22675 10.2688 3.00588 10.4483C2.89559 10.5379 2.81543 10.6082 2.76564 10.6533C2.74081 10.6758 2.72259 10.692 2.71291 10.7012C2.71013 10.7038 2.70755 10.7056 2.70607 10.707C2.31554 11.0969 1.68332 11.0973 1.29299 10.707C0.9025 10.3166 0.902575 9.68352 1.29299 9.29299L1.71486 9.71486C1.32058 9.32046 1.29451 9.29493 1.29299 9.29299L1.29396 9.29201L1.29494 9.29006C1.29585 9.28915 1.29766 9.28825 1.29885 9.28713C1.30116 9.28485 1.3044 9.2815 1.30763 9.27834C1.31431 9.27182 1.32351 9.26391 1.334 9.25392C1.35551 9.23342 1.38439 9.20491 1.42189 9.17092C1.49707 9.10279 1.60463 9.00889 1.74416 8.89553C2.02319 8.66881 2.43195 8.36351 2.96974 8.02736C3.91983 7.43356 5.27549 6.74388 7.03517 6.22658C7.20547 4.37267 7.97694 3.10908 8.79299 2.29299C9.24588 1.8401 9.70011 1.53687 10.0459 1.34475C10.2192 1.24847 10.3676 1.17899 10.4776 1.13185C10.5325 1.10831 10.5785 1.09033 10.6133 1.07717C10.6306 1.07062 10.6454 1.06476 10.6572 1.06057C10.6631 1.0585 10.6685 1.05622 10.6729 1.05471L10.6817 1.05178H10.6836C10.685 1.05429 10.6996 1.09903 10.9483 1.84475L10.6836 1.05178Z" fill="#E4F2F2"/>
<path d="M11.5 11C12.0523 11 12.5 11.4477 12.5 12C12.4999 12.5522 12.0522 13 11.5 13H11C10.4478 13 10.0001 12.5522 10 12C10 11.4477 10.4477 11 11 11H11.5Z" fill="#E4F2F2"/>
</svg>
