<svg width="24" height="24" viewBox="0 0 24 24" fill="none" xmlns="http://www.w3.org/2000/svg">
<path fill-rule="evenodd" clip-rule="evenodd" d="M14.2666 1.05025C14.9605 1.08554 15.6401 1.26434 16.2607 1.57662C16.5529 1.72364 16.8283 1.90004 17.085 2.10005L17.0928 2.09322L17.2002 2.00044C17.8741 1.49506 18.7076 1.24937 19.5478 1.30904C20.3882 1.36876 21.1787 1.7299 21.7744 2.32564C22.3701 2.92137 22.7313 3.71184 22.791 4.5522C22.8507 5.39243 22.605 6.22596 22.0996 6.89986C22.0917 6.91035 22.0815 6.91895 22.0732 6.92916C22.2741 7.20172 22.4484 7.49404 22.5908 7.80318C22.8811 8.43322 23.037 9.11741 23.0488 9.81099C23.0606 10.5045 22.9278 11.193 22.6592 11.8325C22.394 12.4636 22.0011 13.033 21.5068 13.5063L13.5078 21.5073L13.5068 21.5063C13.0262 21.9936 12.4519 22.3797 11.8184 22.6391C11.1822 22.8995 10.4988 23.0277 9.81152 23.0161C9.1243 23.0044 8.44626 22.8525 7.81933 22.5708C7.50911 22.4313 7.21427 22.2613 6.93945 22.0639C6.92569 22.0754 6.91371 22.0893 6.89941 22.1001C6.22548 22.6054 5.39197 22.8512 4.55175 22.7915C3.71143 22.7317 2.9209 22.3705 2.32519 21.7749C1.7295 21.1792 1.36836 20.3886 1.30859 19.5483C1.24889 18.7081 1.49469 17.8746 1.99999 17.2006L2.05664 17.1342C1.83765 16.8539 1.64834 16.5502 1.49316 16.228C1.19209 15.6028 1.02453 14.9215 1.00097 14.228C0.977513 13.5345 1.09838 12.8428 1.35644 12.1987C1.61463 11.5545 2.005 10.9703 2.50097 10.4848L10.4971 2.48873C10.991 2.00028 11.5815 1.62019 12.2305 1.37252C12.8794 1.12488 13.5729 1.01503 14.2666 1.05025ZM8.39257 20.6206C8.473 20.6658 8.55522 20.7086 8.63964 20.7465C9.01922 20.9171 9.42963 21.009 9.8457 21.0161C10.2618 21.0231 10.6754 20.9452 11.0605 20.7876C11.4456 20.6299 11.7952 20.3957 12.0869 20.0991L12.0928 20.0922L12.0937 20.0932L20.0937 12.0932L20.1123 12.0737C20.4143 11.7876 20.6542 11.4416 20.8154 11.0581C20.9765 10.6745 21.0568 10.2611 21.0498 9.84517C21.0427 9.42905 20.9485 9.0181 20.7744 8.64009C20.7329 8.54994 20.6858 8.46268 20.6357 8.3774L8.39257 20.6206ZM19.4062 3.30416C19.0647 3.27991 18.7257 3.37338 18.4453 3.56783L17.8193 4.19283C17.8134 4.19895 17.8078 4.20539 17.8018 4.21138L3.56738 18.4458C3.373 18.7262 3.27944 19.0652 3.30371 19.4067C3.32937 19.7667 3.48401 20.1056 3.73925 20.3608C3.99451 20.616 4.3333 20.7707 4.69335 20.7963C5.03474 20.8206 5.37292 20.726 5.65332 20.5317L20.5312 5.65377C20.7256 5.37339 20.8201 5.0352 20.7959 4.6938C20.7703 4.33371 20.6156 3.99499 20.3603 3.7397C20.1051 3.48442 19.7664 3.32978 19.4062 3.30416ZM14.165 3.04732C13.7489 3.02622 13.3327 3.09214 12.9434 3.24068C12.554 3.38928 12.1996 3.61756 11.9033 3.9106L3.89941 11.9145C3.60194 12.2057 3.36777 12.5564 3.21289 12.9428C3.05819 13.3291 2.98598 13.7438 2.99999 14.1596C3.0141 14.5757 3.11436 14.9848 3.29492 15.3598C3.35135 15.477 3.41546 15.5903 3.48632 15.6987L15.6533 3.53267C15.5593 3.4713 15.462 3.41441 15.3613 3.36373C14.989 3.17641 14.5813 3.0685 14.165 3.04732Z" fill="#E4F2F2"/>
</svg>
