<svg width="24" height="24" viewBox="0 0 24 24" fill="none" xmlns="http://www.w3.org/2000/svg">
<path fill-rule="evenodd" clip-rule="evenodd" d="M19 1C19.5523 1 20 1.44772 20 2C20 2.55228 19.5523 3 19 3H18V6.17188L17.9854 6.46875C17.9268 7.05734 17.6953 7.61577 17.3203 8.07324L17.1211 8.29297L13.4141 12L17.1211 15.707L17.3203 15.9268C17.7578 16.4605 17.9999 17.132 18 17.8281V21H19C19.5523 21 20 21.4477 20 22C20 22.5523 19.5523 23 19 23H5C4.44772 23 4 22.5523 4 22C4 21.4477 4.44772 21 5 21H6V17.8281C6.00017 17.0326 6.31636 16.2695 6.87891 15.707L10.5859 12L6.87891 8.29297C6.3867 7.80083 6.08297 7.15536 6.01465 6.46875L6 6.17188V3H5C4.44772 3 4 2.55228 4 2C4 1.44772 4.44772 1 5 1H19ZM8.29297 17.1211C8.10544 17.3086 8.00008 17.563 8 17.8281V21H16V17.8281C15.9999 17.563 15.8946 17.3086 15.707 17.1211L12 13.4141L8.29297 17.1211ZM8 3V6.17188L8.00488 6.27051C8.02764 6.49945 8.12884 6.71482 8.29297 6.87891L12 10.5859L15.707 6.87891C15.8712 6.71482 15.9724 6.49945 15.9951 6.27051L16 6.17188V3H8Z" fill="#E4F2F2"/>
</svg>
