<svg width="24" height="24" viewBox="0 0 24 24" fill="none" xmlns="http://www.w3.org/2000/svg">
<path fill-rule="evenodd" clip-rule="evenodd" d="M15.5391 3.11228C15.8756 2.93735 16.2885 2.96696 16.5996 3.20017L22.5996 7.70017C22.8514 7.88902 23 8.18522 23 8.49997V16C23 16.5272 22.8194 17.0438 22.4316 17.4316C22.0439 17.8194 21.5272 18 21 18H19V19C19 19.5272 18.8194 20.0438 18.4316 20.4316C18.0439 20.8194 17.5272 21 17 21H7C6.47276 21 5.95614 20.8194 5.56836 20.4316C5.18059 20.0438 5.00001 19.5272 5 19V18H3C2.47276 18 1.95614 17.8194 1.56836 17.4316C1.18059 17.0438 1.00001 16.5272 1 16V8.49997C1 8.18522 1.14859 7.88902 1.40039 7.70017L7.40039 3.20017L7.53906 3.11228C7.87562 2.93735 8.28854 2.96696 8.59961 3.20017L12 5.74997L15.4004 3.20017L15.5391 3.11228ZM7 11.999V19H9V14C9 13.4477 9.44771 13 10 13H14C14.5523 13 15 13.4477 15 14V19H17V11.999L12 8.24899L7 11.999ZM11 19H13V15H11V19ZM3 8.99899V16H5V11.5C5 11.1852 5.14859 10.889 5.40039 10.7002L10.334 6.99997L8 5.24899L3 8.99899ZM13.666 6.99997L18.5996 10.7002C18.8514 10.889 19 11.1852 19 11.5V16H21V8.99899L16 5.24899L13.666 6.99997Z" fill="#E4F2F2"/>
</svg>
