<svg width="24" height="24" viewBox="0 0 24 24" fill="none" xmlns="http://www.w3.org/2000/svg">
<path fill-rule="evenodd" clip-rule="evenodd" d="M1.29295 1.29302C1.68348 0.902491 2.31649 0.902491 2.70702 1.29302L22.707 21.293C23.0975 21.6835 23.0975 22.3166 22.707 22.7071C22.3165 23.0976 21.6835 23.0975 21.293 22.7071L20.8877 22.3018C20.8053 22.3705 20.7206 22.4373 20.6308 22.4971C20.1522 22.8161 19.5917 22.9905 19.0166 23H4.99999C4.2046 23 3.44145 22.6844 2.87889 22.1221C2.31639 21.5596 2.00011 20.7955 1.99999 20V9.00005C2.00011 8.6888 2.14536 8.39523 2.39256 8.2061L4.88573 6.29985L1.29295 2.70708C0.90243 2.31655 0.90243 1.68354 1.29295 1.29302ZM3.99999 9.49419V20C4.00011 20.265 4.10565 20.5197 4.29295 20.7071C4.48046 20.8944 4.7349 21 4.99999 21H7.99999V12C7.99999 11.4478 8.4477 11 8.99999 11H9.58592L6.31151 7.72563L3.99999 9.49419ZM16 21H18.9941C19.1568 20.9956 19.3147 20.9495 19.456 20.8702L16 17.4141V21ZM9.99999 21H14V15.4141L11.5859 13H9.99999V21Z" fill="#E4F2F2"/>
<path d="M11.5205 1.12212C11.865 0.933918 12.295 0.963592 12.6133 1.21098L21.6133 8.21098C21.8569 8.40044 22 8.69146 22 9.00005V15.2999C21.9999 15.852 21.5521 16.2996 21 16.2999C20.4479 16.2997 20 15.852 20 15.2999V9.48833L12.0049 3.27055L10.2207 4.68364C9.78768 5.02624 9.15816 4.95349 8.81542 4.52055C8.47303 4.08775 8.54611 3.45909 8.9785 3.11626L11.3789 1.21587L11.5205 1.12212Z" fill="#E4F2F2"/>
</svg>
