<svg width="24" height="24" viewBox="0 0 24 24" fill="none" xmlns="http://www.w3.org/2000/svg">
<path fill-rule="evenodd" clip-rule="evenodd" d="M11.9961 0.994142C12.444 0.993676 12.888 1.08147 13.3018 1.25293C13.7153 1.42436 14.0911 1.67622 14.4072 1.99317L22.0811 9.66699L22.1875 9.77735C22.4297 10.0408 22.6251 10.3445 22.7647 10.6748C22.9242 11.0524 23.0079 11.4583 23.0107 11.8682C23.0135 12.2778 22.9353 12.6839 22.7813 13.0635C22.6271 13.4432 22.3991 13.7892 22.1113 14.0811C21.8236 14.3728 21.481 14.6052 21.1035 14.7647C21.0693 14.7791 21.0347 14.7925 21 14.8057V20C21 20.7957 20.6837 21.5585 20.1211 22.1211C19.5585 22.6837 18.7956 23 18 23H6.00001C5.20438 23 4.44151 22.6837 3.87891 22.1211C3.31633 21.5585 3.00001 20.7956 3.00001 20V14.8047C2.59891 14.652 2.22828 14.4194 1.917 14.1123C1.32794 13.5309 0.993891 12.7387 0.98829 11.9111C0.982772 11.0834 1.30639 10.2865 1.8877 9.69727L1.89259 9.69336L9.58888 1.99707C9.90376 1.68039 10.2783 1.42889 10.6904 1.25684C11.1039 1.0843 11.5481 0.994725 11.9961 0.994142ZM6.32716 14.0869L6.32618 14.0859C5.95438 14.4612 5.49718 14.7314 5.00001 14.8799V20L5.00489 20.0986C5.02758 20.3276 5.12886 20.5429 5.29298 20.707C5.4805 20.8946 5.73482 21 6.00001 21H9.00001V16C9.00001 15.2044 9.31633 14.4415 9.87891 13.8789C10.4415 13.3163 11.2044 13 12 13C12.7956 13 13.5585 13.3163 14.1211 13.8789C14.6837 14.4415 15 15.2044 15 16V21H18C18.2652 21 18.5195 20.8945 18.707 20.707C18.8946 20.5195 19 20.2652 19 20V14.8809C18.9037 14.8522 18.8082 14.8192 18.7149 14.7813C18.3353 14.627 17.989 14.4 17.6973 14.1123L11.999 8.41406L6.32716 14.0869ZM12 15C11.7348 15 11.4805 15.1054 11.293 15.293C11.1055 15.4805 11 15.7348 11 16V21H13V16C13 15.7348 12.8946 15.4805 12.707 15.293C12.5195 15.1055 12.2652 15 12 15ZM11.9981 2.99414C11.8137 2.99442 11.6311 3.03159 11.4609 3.10254C11.2908 3.17358 11.1357 3.27734 11.0059 3.40821L3.31153 11.1025L3.23731 11.1855C3.07545 11.3861 2.98657 11.6375 2.98829 11.8975C2.99028 12.1948 3.11071 12.4796 3.32227 12.6885C3.49826 12.862 3.72625 12.97 3.96876 13.001C3.97914 13.0007 3.98955 13 4.00001 13C4.04672 13 4.0927 13.0036 4.1377 13.0098C4.42767 13.0026 4.70407 12.8845 4.90821 12.6777L4.91212 12.6729L11.293 6.29297L11.3682 6.22461C11.7609 5.90401 12.3408 5.92693 12.707 6.29297L19.1016 12.6885L19.1836 12.7617C19.269 12.8308 19.3647 12.8872 19.4668 12.9287C19.5941 12.9804 19.7309 13.0062 19.8682 13.0088C19.9113 13.0031 19.9553 13 20 13C20.0098 13 20.0196 13.0007 20.0293 13.001C20.1309 12.9883 20.2305 12.9628 20.3252 12.9229C20.4608 12.8656 20.5842 12.7815 20.6875 12.6768C20.7908 12.572 20.8723 12.4478 20.9277 12.3115C20.9831 12.1751 21.0118 12.029 21.0107 11.8818C21.0097 11.7346 20.9792 11.5888 20.9219 11.4531C20.8646 11.3176 20.7816 11.1942 20.6768 11.0908L12.9912 3.40625C12.8611 3.27568 12.7064 3.17122 12.5361 3.10059C12.3658 3.03002 12.1825 2.99393 11.9981 2.99414Z" fill="#E4F2F2"/>
</svg>
