<svg width="24" height="24" viewBox="0 0 24 24" fill="none" xmlns="http://www.w3.org/2000/svg">
<path fill-rule="evenodd" clip-rule="evenodd" d="M1.29295 1.29297C1.68348 0.902491 2.31651 0.902459 2.70702 1.29297L7.29784 5.88379C7.30097 5.88683 7.3045 5.88948 7.3076 5.89258C7.31035 5.89532 7.31271 5.89859 7.31542 5.90136L10.0976 8.68359C10.1008 8.68664 10.1043 8.68928 10.1074 8.69238C10.1102 8.69513 10.1125 8.6984 10.1152 8.70117L22.707 21.293C23.0975 21.6835 23.0975 22.3165 22.707 22.707C22.3165 23.0975 21.6835 23.0975 21.293 22.707L20.3906 21.8047C20.3074 21.9148 20.2198 22.0224 20.1211 22.1211C19.5585 22.6837 18.7956 23 18 23H5.99999C5.20435 23 4.4415 22.6837 3.87889 22.1211C3.31628 21.5585 2.99999 20.7956 2.99999 20V14.5469C2.65944 14.3981 2.3461 14.1879 2.07909 13.9209C1.5686 13.4104 1.25928 12.7328 1.20799 12.0127C1.15692 11.2927 1.3668 10.5775 1.79979 10L1.89354 9.89258L5.18553 6.59961L1.29295 2.70703C0.90243 2.3165 0.90243 1.68349 1.29295 1.29297ZM15 21H18C18.2652 21 18.5195 20.8945 18.707 20.707C18.8092 20.6048 18.8859 20.4824 18.9355 20.3496L15 16.4141V21ZM12 15C11.7348 15 11.4805 15.1055 11.293 15.293C11.1054 15.4805 11 15.7348 11 16V21H13V16C13 15.7348 12.8945 15.4805 12.707 15.293C12.5195 15.1054 12.2652 15 12 15ZM6.10741 14.1064C6.07408 14.1398 6.03768 14.1709 5.99999 14.1992C5.69811 14.4256 5.35791 14.5892 4.99999 14.6885V20L5.00487 20.0986C5.02756 20.3276 5.12881 20.5429 5.29295 20.707C5.48049 20.8945 5.73478 21 5.99999 21H8.99999V16C8.99999 15.2044 9.31629 14.4415 9.87889 13.8789C10.3495 13.4083 10.9605 13.1123 11.6133 13.0273L9.3994 10.8135L6.10741 14.1064ZM3.36815 11.2451C3.24568 11.4289 3.18755 11.6488 3.20311 11.8701C3.22017 12.1102 3.32298 12.3366 3.49315 12.5068C3.66325 12.6769 3.88898 12.7797 4.12889 12.7969C4.3512 12.8126 4.57153 12.7524 4.75584 12.6289L7.98534 9.39941L6.5996 8.01367L3.36815 11.2451Z" fill="#E4F2F2"/>
<path d="M9.89354 1.89258C11.084 0.702621 12.9171 0.702328 14.1074 1.89258L22.1074 9.89258L22.2002 10C22.6334 10.5777 22.8441 11.2924 22.793 12.0127C22.7418 12.7328 22.4322 13.4103 21.9219 13.9209C21.4113 14.4315 20.7329 14.7407 20.0127 14.792C19.2925 14.8431 18.5776 14.6334 18 14.2002C17.9623 14.172 17.9268 14.1407 17.8935 14.1074L11.293 7.50683C10.9026 7.11629 10.9025 6.48323 11.293 6.09277C11.6834 5.70246 12.3165 5.70249 12.707 6.09277L19.2431 12.6289C19.4277 12.7529 19.6483 12.8137 19.8711 12.7978C20.111 12.7807 20.3367 12.6769 20.5068 12.5068C20.6769 12.3367 20.7807 12.1111 20.7978 11.8711C20.8137 11.6476 20.7527 11.4261 20.6279 11.2412L12.6933 3.30664C12.2841 2.89744 11.717 2.89773 11.3076 3.30664L9.90721 4.70703C9.51673 5.09751 8.88368 5.09743 8.49315 4.70703C8.10263 4.3165 8.10263 3.68349 8.49315 3.29297L9.89354 1.89258Z" fill="#E4F2F2"/>
</svg>
