<svg width="24" height="24" viewBox="0 0 24 24" fill="none" xmlns="http://www.w3.org/2000/svg">
<path d="M12.0098 10C12.5621 10 13.0098 10.4477 13.0098 11C13.0098 11.5523 12.5621 12 12.0098 12H12C11.4477 12 11 11.5523 11 11C11 10.4477 11.4477 10 12 10H12.0098Z" fill="#E4F2F2"/>
<path fill-rule="evenodd" clip-rule="evenodd" d="M9 1C9.55229 1 10 1.44772 10 2V5H14V2C14 1.44772 14.4477 1 15 1H19C19.5523 1 20 1.44772 20 2V5C21.6569 5 23 6.34315 23 8V20C23 21.6569 21.6569 23 20 23H4C2.34315 23 1 21.6569 1 20V8C1 6.34315 2.34315 5 4 5V2C4 1.44772 4.44772 1 5 1H9ZM3 20C3 20.5523 3.44772 21 4 21H5V13H3V20ZM7 12.3887V21H9V17C9 16.2043 9.3163 15.4415 9.87891 14.8789C10.4415 14.3163 11.2043 14 12 14L12.2969 14.0146C12.9835 14.0829 13.6289 14.3867 14.1211 14.8789C14.6837 15.4415 15 16.2043 15 17V21H17V12.3887L12.0596 7H11.9404L7 12.3887ZM19 21H20C20.5523 21 21 20.5523 21 20V13H19V21ZM12 16C11.7348 16 11.4805 16.1054 11.293 16.293C11.1054 16.4805 11 16.7348 11 17V21H13V17C13 16.7348 12.8946 16.4805 12.707 16.293C12.5429 16.1288 12.3276 16.0276 12.0986 16.0049L12 16ZM4 7C3.44772 7 3 7.44772 3 8V11H5.55957L9.22656 7H4ZM18.4404 11H21V8C21 7.44772 20.5523 7 20 7H14.7734L18.4404 11ZM6 5H8V3H6V5ZM16 5H18V3H16V5Z" fill="#E4F2F2"/>
</svg>
