<svg width="24" height="24" viewBox="0 0 24 24" fill="none" xmlns="http://www.w3.org/2000/svg">
<path fill-rule="evenodd" clip-rule="evenodd" d="M11 1C11.5523 1 12 1.44772 12 2V10.3369L16.6152 12.29C17.3261 12.6148 17.9289 13.1375 18.3516 13.7949C18.7743 14.4525 18.9996 15.2183 19 16C19 16.7957 18.6837 17.5585 18.1211 18.1211C17.5585 18.6837 16.7957 19 16 19V21C17.7334 21 19.2402 20.0942 20.1758 18.7334C20.4886 18.2785 21.1114 18.163 21.5664 18.4756C22.0214 18.7884 22.1368 19.4111 21.8242 19.8662C20.5598 21.7054 18.4665 23 16 23H4C3.44778 23 3.00011 22.5522 3 22C3.00011 21.4478 3.44778 21 4 21H6V19C5.20435 19 4.44151 18.6837 3.87891 18.1211C3.3163 17.5585 3 16.7956 3 16V5C3 4.55352 3.29628 4.16074 3.72559 4.03809L10 2.24512V2C10 1.44772 10.4477 1 11 1ZM8 21H14V19H8V21ZM5 5.75391V16L5.00488 16.0986C5.02757 16.3276 5.12883 16.5429 5.29297 16.707C5.48051 16.8946 5.73478 17 6 17H16C16.2652 17 16.5195 16.8946 16.707 16.707C16.8946 16.5195 17 16.2652 17 16C16.9997 15.6018 16.8852 15.212 16.6699 14.877C16.4557 14.5437 16.1507 14.2781 15.791 14.1123L10.957 12.0674L8.31641 12.9482C7.79256 13.1229 7.22652 12.8402 7.05176 12.3164C6.87714 11.7926 7.15984 11.2265 7.68359 11.0518L10 10.2793V8.38672L8.31641 8.94824C7.79256 9.12286 7.22652 8.84016 7.05176 8.31641C6.87714 7.79256 7.15984 7.22652 7.68359 7.05176L10 6.2793V4.3252L5 5.75391Z" fill="#E4F2F2"/>
</svg>
