<svg width="24" height="24" viewBox="0 0 24 24" fill="none" xmlns="http://www.w3.org/2000/svg">
<path fill-rule="evenodd" clip-rule="evenodd" d="M20.4121 1.05566C20.7985 1.10975 21.1705 1.23975 21.5068 1.4375C21.8431 1.63533 22.138 1.89755 22.373 2.20898C22.6081 2.52048 22.779 2.87619 22.877 3.25391C22.9748 3.63147 22.9973 4.02484 22.9434 4.41113C22.8893 4.7976 22.7593 5.17047 22.5615 5.50684L22.5547 5.51855L14.0654 19.499C13.4507 20.5637 12.5668 21.4481 11.502 22.0625C10.4371 22.6768 9.2293 22.9997 8 22.999H6.00977C6.00651 22.9991 6.00326 23 6 23C5.99641 23 5.99284 22.9991 5.98926 22.999L4 23C3.20443 23 2.4415 22.6836 1.87891 22.1211C1.31649 21.5586 1.00009 20.7954 1 20V19C1.00009 18.2045 1.31638 17.4405 1.87891 16.8779C2.44147 16.3156 3.20458 16 4 16H8.7002C8.98431 15.9999 9.29933 15.8418 9.56152 15.4531L17.4453 2.48047C17.6423 2.14922 17.9022 1.85914 18.21 1.62695C18.5215 1.39197 18.8762 1.22 19.2539 1.12207C19.6317 1.02414 20.0256 1.00159 20.4121 1.05566ZM11.2549 16.5186C11.2477 16.5304 11.2401 16.5431 11.2324 16.5547C10.6958 17.3595 9.81382 17.9999 8.7002 18H7V21H8.00098C8.87909 21.0005 9.74232 20.7699 10.5029 20.3311C11.2634 19.8922 11.8949 19.2604 12.334 18.5L12.3447 18.4805L17.167 10.5361L15.5244 9.49121L11.2549 16.5186ZM4 18C3.73487 18 3.48049 18.1055 3.29297 18.293C3.10562 18.4804 3.00009 18.735 3 19V20C3.00009 20.265 3.10562 20.5196 3.29297 20.707C3.48049 20.8945 3.73487 21 4 21H5V18H4ZM16.5625 7.78125L18.2051 8.82617L19.2412 7.12012L17.5996 6.07617L16.5625 7.78125ZM20.1348 3.03711C20.0084 3.01943 19.8794 3.02657 19.7559 3.05859C19.6324 3.09063 19.5159 3.14683 19.4141 3.22363C19.3377 3.2813 19.2709 3.35061 19.2148 3.42773L19.1543 3.51855L18.6387 4.36621L20.2793 5.41016L20.8398 4.48828C20.9031 4.37946 20.9454 4.25945 20.9629 4.13477C20.9805 4.00851 20.9734 3.87927 20.9414 3.75586C20.9094 3.63243 20.8532 3.51587 20.7764 3.41406C20.6995 3.31223 20.6031 3.22583 20.4932 3.16113C20.3832 3.09648 20.2611 3.0548 20.1348 3.03711Z" fill="#E4F2F2"/>
<path fill-rule="evenodd" clip-rule="evenodd" d="M6 1C7.22607 1 8.38544 1.24648 9.27539 1.69141C10.0803 2.09385 10.9432 2.81913 10.9951 3.89746C10.9985 3.93116 11 3.96539 11 4V8C11 9.13524 10.0999 9.89283 9.27246 10.3066C8.38233 10.7517 7.22293 11 6 11C4.77707 11 3.61767 10.7517 2.72754 10.3066C1.90008 9.89283 1 9.13524 1 8V4C1 3.96543 1.00048 3.93113 1.00391 3.89746C1.05584 2.81911 1.91972 2.09385 2.72461 1.69141C3.61456 1.24648 4.77393 1 6 1ZM9 6.43359C8.15229 6.798 7.10366 7 6 7C4.89634 7 3.84771 6.798 3 6.43359V8.00293C3.00048 8.00527 3.00206 8.01123 3.00586 8.02051C3.01383 8.03985 3.03402 8.077 3.07812 8.12891C3.17031 8.23736 3.34242 8.37873 3.62207 8.51855C4.18194 8.79847 5.02297 9 6 9C6.97703 9 7.81806 8.79847 8.37793 8.51855C8.65758 8.37873 8.82969 8.23736 8.92188 8.12891C8.96598 8.077 8.98617 8.03985 8.99414 8.02051C8.99794 8.01123 8.99952 8.00527 9 8.00293V6.43359ZM6 3C5.01712 3 4.17688 3.20165 3.61914 3.48047C3.34077 3.61966 3.16939 3.7594 3.07812 3.86719C3.03457 3.91867 3.01495 3.95581 3.00684 3.97559C3.00305 3.98483 3.00164 3.99103 3.00098 3.99414C3.0004 3.99697 3 4 3 4C3 4 3.0004 4.00303 3.00098 4.00586C3.00164 4.00897 3.00305 4.01517 3.00684 4.02441C3.01495 4.04419 3.03457 4.08133 3.07812 4.13281C3.16939 4.2406 3.34077 4.38034 3.61914 4.51953C4.17688 4.79835 5.01712 5 6 5C6.98288 5 7.82312 4.79835 8.38086 4.51953C8.65923 4.38034 8.83061 4.2406 8.92188 4.13281C8.96543 4.08133 8.98505 4.04419 8.99316 4.02441C8.99695 4.01517 8.99836 4.00897 8.99902 4.00586C8.9996 4.00303 9 4 9 4C9 4 8.9996 3.99697 8.99902 3.99414C8.99836 3.99103 8.99695 3.98483 8.99316 3.97559C8.98505 3.95581 8.96543 3.91867 8.92188 3.86719C8.83061 3.7594 8.65923 3.61966 8.38086 3.48047C7.82312 3.20165 6.98288 3 6 3Z" fill="#E4F2F2"/>
</svg>
