<svg width="24" height="24" viewBox="0 0 24 24" fill="none" xmlns="http://www.w3.org/2000/svg">
<path fill-rule="evenodd" clip-rule="evenodd" d="M14.1055 1.55225C14.3525 1.05849 14.9534 0.858129 15.4473 1.10498C15.9412 1.35193 16.1413 1.95285 15.8945 2.44678L15.6182 2.99951H17C17.7956 2.99951 18.5585 3.31591 19.1211 3.87842C19.6836 4.44095 19.9999 5.20397 20 5.99951V19.9995C20 20.7951 19.6836 21.558 19.1211 22.1206C18.5585 22.6832 17.7957 22.9995 17 22.9995H7C6.20435 22.9995 5.44151 22.6832 4.87891 22.1206C4.31639 21.558 4 20.7951 4 19.9995V5.99951C4.00008 5.20398 4.31637 4.44095 4.87891 3.87842C5.4415 3.31591 6.20442 2.99951 7 2.99951H8.38184L8.10547 2.44678C7.85867 1.95285 8.05884 1.35193 8.55273 1.10498C9.04661 0.858129 9.64749 1.05849 9.89453 1.55225L12.6182 6.99951H13.5C14.0522 6.99951 14.4998 7.44737 14.5 7.99951C14.5 8.5518 14.0523 8.99951 13.5 8.99951H10.5C9.94772 8.99951 9.5 8.5518 9.5 7.99951C9.50016 7.48634 9.88686 7.06347 10.3848 7.00635L9.38184 4.99951H7C6.73486 4.99951 6.48049 5.10504 6.29297 5.29248C6.10551 5.47994 6.00008 5.73441 6 5.99951V19.9995C6 20.2647 6.10553 20.519 6.29297 20.7065C6.33031 20.7439 6.37089 20.7775 6.41309 20.8081C6.78676 19.8543 7.40098 19.0065 8.20312 18.3511C8.48311 18.1223 8.78198 17.9206 9.09473 17.7476C8.41667 17.0309 8 16.064 8 14.9995C8.00017 12.7905 9.79097 10.9995 12 10.9995C14.209 10.9995 15.9998 12.7905 16 14.9995C16 16.0645 15.5819 17.0308 14.9033 17.7476C15.2162 17.9207 15.5148 18.1222 15.7949 18.3511C16.5973 19.0065 17.2119 19.8542 17.5859 20.8081C17.6284 20.7773 17.6695 20.7441 17.707 20.7065C17.8945 20.519 18 20.2647 18 19.9995V5.99951C17.9999 5.73441 17.8945 5.47994 17.707 5.29248C17.5429 5.12843 17.3276 5.02708 17.0986 5.00439L17 4.99951H14C13.6534 4.99951 13.3316 4.81972 13.1494 4.5249C12.9675 4.23016 12.9506 3.86208 13.1055 3.55225L14.1055 1.55225ZM12 18.9995C11.9899 18.9995 11.9798 18.9986 11.9697 18.9985C11.058 19.0053 10.1753 19.3227 9.46875 19.8999C9.09085 20.2087 8.77767 20.5829 8.53711 20.9995H15.4619C15.2213 20.5828 14.9074 20.2088 14.5293 19.8999C13.8225 19.3226 12.9403 19.0051 12.0283 18.9985C12.0189 18.9986 12.0095 18.9995 12 18.9995ZM12 12.9995C10.8955 12.9995 10.0002 13.8951 10 14.9995C10 16.094 10.8791 16.9814 11.9697 16.9976H12.0283C13.1198 16.9824 14 16.0946 14 14.9995C13.9998 13.8951 13.1045 12.9995 12 12.9995Z" fill="#E4F2F2"/>
</svg>
