<svg width="24" height="24" viewBox="0 0 24 24" fill="none" xmlns="http://www.w3.org/2000/svg">
<path fill-rule="evenodd" clip-rule="evenodd" d="M12 1C14.9174 1 17.7154 2.15878 19.7783 4.22168C21.8412 6.28458 23 9.08262 23 12V17C23 18.0861 22.3348 18.9693 21.5176 19.6113C20.8461 20.1389 19.9805 20.5788 19 20.9258V21C19 21.5272 18.8194 22.0439 18.4316 22.4316C18.0439 22.8194 17.5272 23 17 23H7C6.47275 23 5.95614 22.8194 5.56836 22.4316C5.18058 22.0439 5 21.5272 5 21V20.9258C4.01951 20.5788 3.15391 20.1389 2.48242 19.6113C1.66525 18.9693 1 18.0861 1 17V12C1 9.08262 2.15878 6.28458 4.22168 4.22168C6.28458 2.15878 9.08262 1 12 1ZM12 12C10.6739 12 9.40253 12.5272 8.46484 13.4648C7.52716 14.4025 7 15.6739 7 17V21H9V17C9 16.2043 9.3163 15.4415 9.87891 14.8789C10.4415 14.3163 11.2043 14 12 14L12.2969 14.0146C12.9835 14.0829 13.6289 14.3867 14.1211 14.8789C14.6837 15.4415 15 16.2043 15 17V21H17V17C17 15.6739 16.4728 14.4025 15.5352 13.4648C14.5975 12.5272 13.3261 12 12 12ZM12 16C11.7348 16 11.4805 16.1054 11.293 16.293C11.1054 16.4805 11 16.7348 11 17V21H13V17C13 16.7348 12.8946 16.4805 12.707 16.293C12.5429 16.1288 12.3276 16.0276 12.0986 16.0049L12 16ZM3 17C3 17.2139 3.13495 17.5811 3.71777 18.0391C4.04662 18.2974 4.47805 18.5474 5 18.7773V17C5 16.558 5.04265 16.1205 5.12402 15.6924C4.33879 15.3288 3.62639 14.8876 3 14.4023V17ZM21 14.4014C20.3733 14.8869 19.6608 15.3286 18.875 15.6924C18.9564 16.1206 19 16.558 19 17V18.7773C19.5219 18.5474 19.9534 18.2974 20.2822 18.0391C20.8651 17.5811 21 17.2139 21 17V14.4014ZM3.57812 8.83203C3.23981 9.73163 3.04452 10.6858 3.00781 11.6611C3.65674 12.4379 4.60508 13.2139 5.78027 13.79C6.10848 13.1538 6.5342 12.5654 7.0498 12.0498C7.29893 11.8007 7.56456 11.5718 7.84473 11.3652C7.71824 11.332 7.60264 11.2755 7.50195 11.2002C6.03132 10.656 4.69578 9.85023 3.57812 8.83203ZM20.4209 8.83105C19.3036 9.84902 17.9691 10.655 16.499 11.1992C16.3981 11.275 16.282 11.3317 16.1543 11.3652C16.4347 11.5719 16.7009 11.8005 16.9502 12.0498C17.4657 12.5653 17.8906 13.1539 18.2188 13.79C19.394 13.2139 20.3422 12.4379 20.9912 11.6611C20.9545 10.6854 20.7595 9.73098 20.4209 8.83105ZM10.4561 6.87109C9.93458 7.49376 9.46632 8.46 9.22461 9.64648C10.1082 9.87596 11.0402 9.99998 12 10C12.947 9.99998 13.8671 9.87982 14.7402 9.65625C14.4664 8.47378 14.0365 7.53958 13.5166 6.87598C13.0236 6.95564 12.5158 7 12 7C11.4746 7 10.9576 6.95366 10.4561 6.87109ZM17.6338 4.9834C17.0588 5.51634 16.3479 5.96342 15.5459 6.2998C16.0192 7.07184 16.3814 7.97659 16.6328 8.97363C17.7108 8.46546 18.673 7.78779 19.4658 6.97461C19.1447 6.49742 18.7769 6.04838 18.3643 5.63574C18.1321 5.40361 17.8874 5.187 17.6338 4.9834ZM6.36523 4.9834C6.11186 5.18686 5.8677 5.40379 5.63574 5.63574C5.2233 6.04819 4.85522 6.49669 4.53418 6.97363C5.31786 7.77762 6.26714 8.44873 7.33008 8.95508C7.56394 7.9593 7.93638 7.04456 8.41602 6.28418C7.6292 5.94957 6.93121 5.50814 6.36523 4.9834ZM12 3C10.6568 3 9.34396 3.29904 8.15234 3.8623C9.07374 4.52008 10.4312 5 12 5C13.5685 5 14.9253 4.51984 15.8467 3.8623C14.6553 3.29929 13.3429 3 12 3Z" fill="#E4F2F2"/>
</svg>
