<svg width="24" height="24" viewBox="0 0 24 24" fill="none" xmlns="http://www.w3.org/2000/svg">
<path fill-rule="evenodd" clip-rule="evenodd" d="M1.29295 1.29297C1.68348 0.902445 2.31649 0.902445 2.70702 1.29297L22.707 21.293C23.0975 21.6835 23.0975 22.3165 22.707 22.707C22.3165 23.0975 21.6835 23.0975 21.293 22.707L20.29 21.7041C19.8958 21.8931 19.4581 22 19 22H4.99999C4.20437 22 3.44149 21.6837 2.87889 21.1211C2.31632 20.5585 2.00003 19.7956 1.99999 19V4.99805L2.01561 4.70313C2.04526 4.41018 2.11736 4.12222 2.23143 3.84961C2.25119 3.80239 2.27473 3.75698 2.29686 3.71094L1.29295 2.70703C0.90243 2.31651 0.90243 1.68349 1.29295 1.29297ZM3.99999 19C4.00003 19.2652 4.10546 19.5195 4.29295 19.707C4.48048 19.8945 4.73481 20 4.99999 20H5.58592L12.0859 13.5L10.2861 11.7002C10.2387 11.7228 10.1922 11.7474 10.1435 11.7676C9.77956 11.9183 9.38907 11.9961 8.9951 11.9961C8.60116 11.9961 8.21064 11.9183 7.84667 11.7676C7.48271 11.6168 7.15163 11.3957 6.87303 11.1172C6.59445 10.8386 6.37345 10.5075 6.22264 10.1436C6.07185 9.7795 5.99415 9.38916 5.99413 8.99512C5.99413 8.60103 6.07184 8.21078 6.22264 7.84668C6.24285 7.79789 6.26635 7.75068 6.28905 7.70313L3.99999 5.41406V19ZM8.41405 20H18.5859L13.5 14.9141L8.41405 20ZM8.2871 9.70313C8.29362 9.70965 8.30091 9.71535 8.3076 9.72168L8.26756 9.68164C8.27412 9.6886 8.28033 9.69636 8.2871 9.70313Z" fill="#E4F2F2"/>
<path d="M19 2C19.7956 2.00002 20.5585 2.31632 21.1211 2.87891C21.6836 3.44151 22 4.20439 22 5V15C22 15.083 21.9878 15.1631 21.9687 15.2402C21.9646 15.2572 21.9611 15.2743 21.956 15.291C21.9522 15.3036 21.9476 15.3158 21.9433 15.3281C21.916 15.4068 21.8786 15.4825 21.831 15.5537C21.7577 15.6636 21.6636 15.7577 21.5537 15.8311C21.5076 15.8618 21.4596 15.8879 21.4101 15.9102C21.4016 15.914 21.3934 15.9183 21.3848 15.9219C21.366 15.9297 21.3472 15.9367 21.3281 15.9434C21.3158 15.9477 21.3035 15.9522 21.291 15.9561C21.2743 15.9611 21.2572 15.9646 21.2402 15.9688C21.2246 15.9726 21.2092 15.9774 21.1933 15.9805C21.1862 15.9819 21.179 15.9822 21.1719 15.9834C21.1159 15.9931 21.0587 16 21 16L20.8974 15.9951C20.876 15.9929 20.855 15.9879 20.834 15.9844C20.8236 15.9826 20.8131 15.9816 20.8027 15.9795C20.7912 15.9772 20.7799 15.9744 20.7685 15.9717C20.748 15.9668 20.7273 15.9623 20.707 15.9561C20.6934 15.9519 20.6804 15.9461 20.667 15.9414C20.6496 15.9353 20.6323 15.929 20.6152 15.9219C20.6063 15.9182 20.5976 15.9141 20.5889 15.9102C20.5413 15.8887 20.4946 15.8643 20.4502 15.835C20.3935 15.7976 20.3408 15.7548 20.293 15.707L17.293 12.707C16.9024 12.3165 16.9024 11.6835 17.293 11.293C17.6835 10.9024 18.3165 10.9024 18.707 11.293L20 12.5859V5C20 4.73482 19.8945 4.4805 19.707 4.29297C19.5195 4.10545 19.2652 4.00002 19 4H8.99999C8.44773 4 8.00003 3.55225 7.99999 3C7.99999 2.44772 8.4477 2 8.99999 2H19Z" fill="#E4F2F2"/>
</svg>
