<svg width="24" height="24" viewBox="0 0 24 24" fill="none" xmlns="http://www.w3.org/2000/svg">
<path d="M15.5 6C16.0523 6 16.5 6.44772 16.5 7C16.5 7.55228 16.0523 8 15.5 8H12.999C13.4438 8.59285 13.7505 9.27632 13.8984 10H15.5C16.0523 10 16.5 10.4477 16.5 11C16.5 11.5523 16.0523 12 15.5 12H13.8984C13.7036 12.9533 13.2335 13.8368 12.5352 14.5352C12.0881 14.9822 11.5647 15.3343 10.9961 15.582L12.707 17.293C13.0976 17.6835 13.0976 18.3165 12.707 18.707C12.3165 19.0976 11.6835 19.0976 11.293 18.707L8.29297 15.707C8.00697 15.421 7.92139 14.9909 8.07617 14.6172C8.23098 14.2436 8.59558 14 9 14C9.79565 14 10.5585 13.6837 11.1211 13.1211C11.4403 12.8019 11.6783 12.4175 11.8262 12H9C8.44772 12 8 11.5523 8 11C8 10.4477 8.44772 10 9 10H11.8242C11.6764 9.58269 11.4401 9.19796 11.1211 8.87891C10.5585 8.3163 9.79565 8 9 8C8.44772 8 8 7.55228 8 7C8 6.44772 8.44772 6 9 6H15.5Z" fill="#E4F2F2"/>
<path fill-rule="evenodd" clip-rule="evenodd" d="M12 1C18.0751 1 23 5.92487 23 12C23 18.0751 18.0751 23 12 23C5.92487 23 1 18.0751 1 12C1 5.92487 5.92487 1 12 1ZM12 3C7.02944 3 3 7.02944 3 12C3 16.9706 7.02944 21 12 21C16.9706 21 21 16.9706 21 12C21 7.02944 16.9706 3 12 3Z" fill="#E4F2F2"/>
</svg>
