<svg width="24" height="24" viewBox="0 0 24 24" fill="none" xmlns="http://www.w3.org/2000/svg">
<path d="M16 6C16.5523 6 17 6.44772 17 7C17 7.55228 16.5523 8 16 8H12.999C13.4439 8.59281 13.7506 9.27623 13.8984 10H16C16.5523 10 17 10.4477 17 11C17 11.5523 16.5523 12 16 12H13.8984C13.7036 12.9533 13.2335 13.8368 12.5352 14.5352C12.1438 14.9265 11.6935 15.2446 11.2061 15.4844L12.4473 16.1055C12.9412 16.3525 13.1415 16.9533 12.8945 17.4473C12.6475 17.9412 12.0467 18.1415 11.5527 17.8945L7.55273 15.8945C7.13802 15.6872 6.92 15.2218 7.02637 14.7705C7.13292 14.3191 7.53622 14 8 14H9L9.29688 13.9854C9.98351 13.9171 10.6289 13.6133 11.1211 13.1211C11.4403 12.8019 11.6783 12.4175 11.8262 12H8C7.44772 12 7 11.5523 7 11C7 10.4477 7.44772 10 8 10H11.8242C11.6764 9.58269 11.4401 9.19796 11.1211 8.87891C10.5585 8.3163 9.79565 8 9 8H8C7.44772 8 7 7.55228 7 7C7 6.44772 7.44772 6 8 6H16Z" fill="#E4F2F2"/>
<path fill-rule="evenodd" clip-rule="evenodd" d="M19 2C20.6569 2 22 3.34315 22 5V19C22 20.6569 20.6569 22 19 22H5C3.34315 22 2 20.6569 2 19V5C2 3.34315 3.34315 2 5 2H19ZM5 4C4.44772 4 4 4.44772 4 5V19C4 19.5523 4.44772 20 5 20H19C19.5523 20 20 19.5523 20 19V5C20 4.44772 19.5523 4 19 4H5Z" fill="#E4F2F2"/>
</svg>
