<svg width="24" height="24" viewBox="0 0 24 24" fill="none" xmlns="http://www.w3.org/2000/svg">
<path fill-rule="evenodd" clip-rule="evenodd" d="M9.74023 7.51855C10.6736 7.03432 11.7362 6.85657 12.7764 7.01074C13.8375 7.1681 14.8196 7.66332 15.5781 8.42188C16.3367 9.18043 16.8319 10.1625 16.9893 11.2236C17.1434 12.2637 16.9657 13.3264 16.4814 14.2598C15.9971 15.193 15.2302 15.9501 14.291 16.4229C13.3518 16.8955 12.2871 17.0605 11.249 16.8936C10.2108 16.7264 9.25141 16.2358 8.50781 15.4922C7.76422 14.7486 7.27356 13.7892 7.10645 12.751C6.93949 11.7129 7.10452 10.6482 7.57715 9.70898C8.04992 8.7698 8.80697 8.0029 9.74023 7.51855ZM12.4834 8.98926C11.8593 8.89676 11.2212 9.00336 10.6611 9.29395C10.1012 9.58458 9.64692 10.0449 9.36328 10.6084C9.07977 11.1719 8.98085 11.8108 9.08105 12.4336C9.18134 13.0565 9.47575 13.632 9.92188 14.0781C10.368 14.5243 10.9435 14.8187 11.5664 14.9189C12.1892 15.0192 12.8281 14.9202 13.3916 14.6367C13.9551 14.3531 14.4154 13.8988 14.7061 13.3389C14.9966 12.7788 15.1032 12.1407 15.0107 11.5166C14.9163 10.88 14.6191 10.291 14.1641 9.83594C13.709 9.38089 13.12 9.08372 12.4834 8.98926Z" fill="#E4F2F2"/>
<path d="M17.5098 5.5C18.062 5.5 18.5098 5.94772 18.5098 6.5C18.5098 7.05228 18.062 7.5 17.5098 7.5H17.5C16.9477 7.5 16.5 7.05228 16.5 6.5C16.5 5.94772 16.9477 5.5 17.5 5.5H17.5098Z" fill="#E4F2F2"/>
<path fill-rule="evenodd" clip-rule="evenodd" d="M17 1C20.3137 1 23 3.68629 23 7V17C23 20.3137 20.3137 23 17 23H7C3.68629 23 1 20.3137 1 17V7C1 3.68629 3.68629 1 7 1H17ZM7 3C4.79086 3 3 4.79086 3 7V17C3 19.2091 4.79086 21 7 21H17C19.2091 21 21 19.2091 21 17V7C21 4.79086 19.2091 3 17 3H7Z" fill="#E4F2F2"/>
</svg>
