<svg width="24" height="24" viewBox="0 0 24 24" fill="none" xmlns="http://www.w3.org/2000/svg">
<path d="M10 5C10.5523 5 11 5.44772 11 6V18C11 18.5523 10.5523 19 10 19C9.44771 19 9 18.5523 9 18V6C9 5.44772 9.44771 5 10 5Z" fill="#E4F2F2"/>
<path d="M14 5C14.5523 5 15 5.44772 15 6V18C15 18.5523 14.5523 19 14 19C13.4477 19 13 18.5523 13 18V6C13 5.44772 13.4477 5 14 5Z" fill="#E4F2F2"/>
<path d="M6 8C6.55228 8 7 8.44772 7 9V15C7 15.5523 6.55228 16 6 16C5.44772 16 5 15.5523 5 15V9C5 8.44772 5.44772 8 6 8Z" fill="#E4F2F2"/>
<path d="M18 8C18.5523 8 19 8.44772 19 9V15C19 15.5523 18.5523 16 18 16C17.4477 16 17 15.5523 17 15V9C17 8.44772 17.4477 8 18 8Z" fill="#E4F2F2"/>
<path fill-rule="evenodd" clip-rule="evenodd" d="M20 1C21.6569 1 23 2.34315 23 4V20C23 21.6569 21.6569 23 20 23H4C2.34315 23 1 21.6569 1 20V4C1 2.34315 2.34315 1 4 1H20ZM4 3C3.44772 3 3 3.44772 3 4V20C3 20.5523 3.44772 21 4 21H20C20.5523 21 21 20.5523 21 20V4C21 3.44772 20.5523 3 20 3H4Z" fill="#E4F2F2"/>
</svg>
