<svg width="24" height="24" viewBox="0 0 24 24" fill="none" xmlns="http://www.w3.org/2000/svg">
<path fill-rule="evenodd" clip-rule="evenodd" d="M20 2C20.7957 2 21.5585 2.3163 22.1211 2.87891C22.6837 3.44151 23 4.20435 23 5V9C23 9.79565 22.6837 10.5585 22.1211 11.1211C21.5585 11.6837 20.7957 12 20 12H18.3633L13.5625 16L18.6406 20.2314C19.0648 20.585 19.1221 21.2164 18.7686 21.6406C18.415 22.0648 17.7836 22.1221 17.3594 21.7686L12 17.3018L6.64062 21.7686C6.21638 22.1221 5.58502 22.0648 5.23145 21.6406C4.87791 21.2164 4.93519 20.585 5.35938 20.2314L10.4365 16L5.61719 11.9834C4.43127 11.8923 3.31184 11.3822 2.46484 10.5352C1.58579 9.6561 1.06719 8.48382 1.00586 7.24805L1 7C1 5.67392 1.52716 4.40253 2.46484 3.46484C3.40253 2.52716 4.67392 2 6 2H20ZM12 14.6973L15.2373 12H8.7627L12 14.6973ZM6 4C5.20435 4 4.44152 4.3163 3.87891 4.87891C3.3163 5.44152 3 6.20435 3 7L3.01465 7.29688C3.08291 7.98351 3.38671 8.6289 3.87891 9.12109C4.44152 9.6837 5.20435 10 6 10H20C20.2652 10 20.5195 9.89457 20.707 9.70703C20.8946 9.51949 21 9.26522 21 9V5C21 4.73478 20.8946 4.48051 20.707 4.29297C20.5195 4.10543 20.2652 4 20 4H6Z" fill="#E4F2F2"/>
</svg>
