<svg width="24" height="24" viewBox="0 0 24 24" fill="none" xmlns="http://www.w3.org/2000/svg">
<path d="M13 21C13.5523 21 14 21.4477 14 22C14 22.5523 13.5523 23 13 23H3C2.44772 23 2 22.5523 2 22C2 21.4477 2.44772 21 3 21H13Z" fill="#E4F2F2"/>
<path d="M6.00977 14C6.56205 14 7.00977 14.4477 7.00977 15C7.00977 15.5523 6.56205 16 6.00977 16H6C5.44772 16 5 15.5523 5 15C5 14.4477 5.44772 14 6 14H6.00977Z" fill="#E4F2F2"/>
<path d="M10.0098 14C10.5621 14 11.0098 14.4477 11.0098 15C11.0098 15.5523 10.5621 16 10.0098 16H10C9.44771 16 9 15.5523 9 15C9 14.4477 9.44771 14 10 14H10.0098Z" fill="#E4F2F2"/>
<path d="M6.00977 10C6.56205 10 7.00977 10.4477 7.00977 11C7.00977 11.5523 6.56205 12 6.00977 12H6C5.44772 12 5 11.5523 5 11C5 10.4477 5.44772 10 6 10H6.00977Z" fill="#E4F2F2"/>
<path fill-rule="evenodd" clip-rule="evenodd" d="M1.29297 1.29297C1.68349 0.902444 2.31651 0.902444 2.70703 1.29297L22.707 21.293C23.0976 21.6835 23.0976 22.3165 22.707 22.707C22.3165 23.0976 21.6835 23.0976 21.293 22.707L15 16.4141V19C14.9999 19.5522 14.5522 20 14 20H2C1.44778 20 1.00011 19.5522 1 19V12C1.00005 9.12143 2.08855 6.60115 3.37402 4.78809L1.29297 2.70703C0.902444 2.31651 0.902444 1.68349 1.29297 1.29297ZM4.81348 6.22754C3.80651 7.74374 3.00005 9.75833 3 12V18H13V14.4141L10.4717 11.8857C10.3334 11.958 10.1766 12 10.0098 12H10C9.44771 12 9 11.5523 9 11C9 10.8305 9.04276 10.6711 9.11719 10.5312L4.81348 6.22754Z" fill="#E4F2F2"/>
<path d="M20.2969 5.01465C20.9835 5.08291 21.6289 5.38671 22.1211 5.87891C22.6837 6.44151 23 7.20435 23 8V16.2998C23 16.8521 22.5523 17.2998 22 17.2998C21.4477 17.2998 21 16.8521 21 16.2998V8C21 7.73478 20.8946 7.48051 20.707 7.29297C20.5429 7.12883 20.3276 7.02757 20.0986 7.00488L20 7C19.7348 7 19.4805 7.10543 19.293 7.29297C19.1054 7.48051 19 7.73478 19 8V12.2998C19 12.8521 18.5523 13.2998 18 13.2998C17.4477 13.2998 17 12.8521 17 12.2998V8C17 7.20435 17.3163 6.44151 17.8789 5.87891C18.4415 5.3163 19.2043 5 20 5L20.2969 5.01465Z" fill="#E4F2F2"/>
<path d="M8 1C8.28838 1 8.55475 1.09259 8.74121 1.17188C8.94956 1.26048 9.16837 1.38069 9.3877 1.52051C9.8279 1.80114 10.3292 2.19808 10.8428 2.69141C11.87 3.6781 13.0007 5.1041 13.8105 6.88574C14.0391 7.38852 13.8163 7.98142 13.3135 8.20996C12.8107 8.43841 12.2178 8.21661 11.9893 7.71387C11.2992 6.19574 10.3297 4.97202 9.45703 4.13379C9.02067 3.71466 8.62227 3.40451 8.3125 3.20703C8.15708 3.10796 8.0381 3.04637 7.95898 3.0127C7.93931 3.00433 7.92422 2.99869 7.91406 2.99512C7.40206 2.95148 7 2.5233 7 2C7 1.44772 7.44772 1 8 1Z" fill="#E4F2F2"/>
</svg>
