<svg width="24" height="24" viewBox="0 0 24 24" fill="none" xmlns="http://www.w3.org/2000/svg">
<path d="M13 21C13.5523 21 14 21.4477 14 22C14 22.5523 13.5523 23 13 23H3C2.44772 23 2 22.5523 2 22C2 21.4477 2.44772 21 3 21H13Z" fill="#E4F2F2"/>
<path d="M6.00977 14C6.56205 14 7.00977 14.4477 7.00977 15C7.00977 15.5523 6.56205 16 6.00977 16H6C5.44772 16 5 15.5523 5 15C5 14.4477 5.44772 14 6 14H6.00977Z" fill="#E4F2F2"/>
<path d="M10.0098 14C10.5621 14 11.0098 14.4477 11.0098 15C11.0098 15.5523 10.5621 16 10.0098 16H10C9.44771 16 9 15.5523 9 15C9 14.4477 9.44771 14 10 14H10.0098Z" fill="#E4F2F2"/>
<path d="M6.00977 10C6.56205 10 7.00977 10.4477 7.00977 11C7.00977 11.5523 6.56205 12 6.00977 12H6C5.44772 12 5 11.5523 5 11C5 10.4477 5.44772 10 6 10H6.00977Z" fill="#E4F2F2"/>
<path d="M10.0098 10C10.5621 10 11.0098 10.4477 11.0098 11C11.0098 11.5523 10.5621 12 10.0098 12H10C9.44771 12 9 11.5523 9 11C9 10.4477 9.44771 10 10 10H10.0098Z" fill="#E4F2F2"/>
<path d="M8.00977 6C8.56205 6 9.00977 6.44772 9.00977 7C9.00977 7.55228 8.56205 8 8.00977 8H8C7.44772 8 7 7.55228 7 7C7 6.44772 7.44772 6 8 6H8.00977Z" fill="#E4F2F2"/>
<path fill-rule="evenodd" clip-rule="evenodd" d="M8 1C8.38125 1 8.7514 1.16379 9.00684 1.29688C9.30399 1.45169 9.63106 1.66605 9.96875 1.92578C10.6464 2.44702 11.4242 3.19402 12.1611 4.13184C13.6325 6.00448 15 8.71622 15 12V18H16C16.2652 18 16.5195 17.8946 16.707 17.707C16.8946 17.5195 17 17.2652 17 17V8C17 7.20435 17.3163 6.44151 17.8789 5.87891C18.4415 5.3163 19.2043 5 20 5C20.7957 5 21.5585 5.3163 22.1211 5.87891C22.6837 6.44151 23 7.20435 23 8V17C23 17.5523 22.5523 18 22 18C21.4477 18 21 17.5523 21 17V8C21 7.73478 20.8946 7.48051 20.707 7.29297C20.5195 7.10543 20.2652 7 20 7C19.7348 7 19.4805 7.10543 19.293 7.29297C19.1054 7.48051 19 7.73478 19 8V17C19 17.7957 18.6837 18.5585 18.1211 19.1211C17.5585 19.6837 16.7957 20 16 20H2C1.44772 20 1 19.5523 1 19V12C1 8.71622 2.3675 6.00448 3.83887 4.13184C4.57577 3.19402 5.35364 2.44702 6.03125 1.92578C6.36894 1.66605 6.69601 1.45169 6.99316 1.29688C7.2486 1.16379 7.61875 1 8 1ZM7.91699 3.07031C7.74942 3.15763 7.52152 3.30286 7.25 3.51172C6.709 3.92793 6.04901 4.55631 5.41113 5.36816C4.1326 6.9955 3 9.28395 3 12V18H13V12C13 9.28395 11.8674 6.9955 10.5889 5.36816C9.95098 4.55631 9.291 3.92793 8.75 3.51172C8.47848 3.30286 8.25058 3.15763 8.08301 3.07031C8.05101 3.05364 8.02268 3.04266 8 3.03223C7.97732 3.04266 7.94899 3.05364 7.91699 3.07031Z" fill="#E4F2F2"/>
</svg>
