<svg width="24" height="24" viewBox="0 0 24 24" fill="none" xmlns="http://www.w3.org/2000/svg">
<path d="M16 6C16.5523 6 17 6.44772 17 7C17 7.55228 16.5523 8 16 8H14.1768L10.9775 16H13C13.5523 16 14 16.4477 14 17C14 17.5523 13.5523 18 13 18H7C6.44772 18 6 17.5523 6 17C6 16.4477 6.44772 16 7 16H8.82324L12.0225 8H10C9.44772 8 9 7.55228 9 7C9 6.44772 9.44772 6 10 6H16Z" fill="#E4F2F2"/>
<path fill-rule="evenodd" clip-rule="evenodd" d="M19 2C20.6569 2 22 3.34315 22 5V19C22 20.6569 20.6569 22 19 22H5C3.34315 22 2 20.6569 2 19V5C2 3.34315 3.34315 2 5 2H19ZM5 4C4.44772 4 4 4.44772 4 5V19C4 19.5523 4.44772 20 5 20H19C19.5523 20 20 19.5523 20 19V5C20 4.44772 19.5523 4 19 4H5Z" fill="#E4F2F2"/>
</svg>
