<svg width="24" height="24" viewBox="0 0 24 24" fill="none" xmlns="http://www.w3.org/2000/svg">
<path d="M8.55566 1.68555C10.2002 1.00436 12.01 0.825584 13.7559 1.17285C15.5017 1.52012 17.1056 2.37708 18.3643 3.63574C19.6229 4.8944 20.4799 6.49834 20.8271 8.24414C21.1744 9.98995 20.9956 11.7998 20.3145 13.4443C19.6332 15.0887 18.4799 16.4945 17 17.4834C15.52 18.4722 13.78 19 12 19H6.41406L8.70703 21.293C9.09753 21.6835 9.09755 22.3165 8.70703 22.707C8.31651 23.0975 7.68349 23.0975 7.29297 22.707L3.29297 18.707C3.24631 18.6604 3.20472 18.6088 3.16797 18.5537C3.14196 18.5147 3.11956 18.4741 3.09961 18.4326C3.07767 18.387 3.05788 18.3401 3.04297 18.291C3.0379 18.2743 3.03445 18.2572 3.03027 18.2402C3.01125 18.1632 3 18.0829 3 18C3 17.9203 3.00974 17.8429 3.02734 17.7686C3.03221 17.748 3.03678 17.7273 3.04297 17.707C3.05787 17.6583 3.07777 17.6117 3.09961 17.5664C3.11877 17.5266 3.1403 17.4877 3.16504 17.4502C3.20242 17.3935 3.24516 17.3408 3.29297 17.293L7.29297 13.293C7.68349 12.9024 8.31651 12.9024 8.70703 13.293C9.09753 13.6835 9.09755 14.3165 8.70703 14.707L6.41406 17H12C13.3844 17 14.7376 16.5894 15.8887 15.8203C17.0398 15.0512 17.937 13.9577 18.4668 12.6787C18.9966 11.3997 19.1352 9.99251 18.8652 8.63477C18.5951 7.27691 17.9291 6.02877 16.9502 5.0498C15.9712 4.07084 14.7231 3.40486 13.3652 3.13477C12.0075 2.86476 10.6003 3.00343 9.32129 3.5332C8.04224 4.06302 6.94884 4.96021 6.17969 6.11133C5.41063 7.26241 5 8.61564 5 10C4.99997 10.5523 4.55227 11 4 11C3.44773 11 3.00003 10.5523 3 10C3 8.22005 3.52776 6.48 4.5166 5C5.50547 3.52006 6.91128 2.36675 8.55566 1.68555Z" fill="#E4F2F2"/>
</svg>
