<svg width="24" height="24" viewBox="0 0 24 24" fill="none" xmlns="http://www.w3.org/2000/svg">
<path d="M10.2441 1.17285C11.99 0.825597 13.7998 1.00436 15.4443 1.68555C17.0887 2.36676 18.4945 3.52007 19.4834 5C20.4722 6.47999 21 8.22006 21 10C21 10.5522 20.5522 11 20 11C19.4477 11 19 10.5523 19 10C19 8.61565 18.5894 7.26241 17.8203 6.11133C17.0512 4.96022 15.9577 4.06302 14.6787 3.5332C13.3997 3.00344 11.9925 2.86477 10.6348 3.13477C9.2769 3.40486 8.02877 4.07084 7.0498 5.0498C6.07084 6.02877 5.40486 7.2769 5.13476 8.63477C4.86477 9.99252 5.00344 11.3997 5.5332 12.6787C6.06302 13.9577 6.96022 15.0512 8.11133 15.8203C9.26241 16.5894 10.6157 17 12 17H17.5859L15.293 14.707C14.9024 14.3165 14.9024 13.6835 15.293 13.293C15.6835 12.9024 16.3165 12.9024 16.707 13.293L20.707 17.293C20.7548 17.3408 20.7976 17.3935 20.835 17.4502C20.8794 17.5175 20.914 17.5891 20.9404 17.6631C20.9457 17.6777 20.9515 17.6921 20.9561 17.707C20.9622 17.7273 20.9668 17.748 20.9717 17.7686C20.9893 17.8429 21 17.9202 21 18C21 18.083 20.9878 18.1631 20.9687 18.2402C20.9646 18.2572 20.9611 18.2743 20.9561 18.291C20.9522 18.3036 20.9476 18.3158 20.9434 18.3281C20.916 18.4068 20.8786 18.4825 20.8311 18.5537C20.7944 18.6086 20.7536 18.6605 20.707 18.707L16.707 22.707C16.3165 23.0975 15.6835 23.0975 15.293 22.707C14.9024 22.3165 14.9024 21.6835 15.293 21.293L17.5859 19H12C10.2201 19 8.47999 18.4722 7 17.4834C5.52007 16.4945 4.36676 15.0887 3.68555 13.4443C3.00436 11.7998 2.8256 9.98995 3.17285 8.24414C3.52012 6.49832 4.37708 4.89441 5.63574 3.63574C6.89441 2.37708 8.49832 1.52012 10.2441 1.17285Z" fill="#E4F2F2"/>
</svg>
