<svg width="24" height="24" viewBox="0 0 24 24" fill="none" xmlns="http://www.w3.org/2000/svg">
<path fill-rule="evenodd" clip-rule="evenodd" d="M15 1C15.5272 1 16.0439 1.18058 16.4316 1.56836C16.6272 1.76391 16.7697 1.99236 16.8633 2.23828L20.4229 3.4541C21.9792 3.91179 23 5.5269 23 7V18C23 18.5272 22.8194 19.0439 22.4316 19.4316C22.0439 19.8194 21.5272 20 21 20H19V21C19 21.5272 18.8194 22.0439 18.4316 22.4316C18.0439 22.8194 17.5272 23 17 23H7C6.47275 23 5.95614 22.8194 5.56836 22.4316C5.18058 22.0439 5 21.5272 5 21V20H3C2.47275 20 1.95614 19.8194 1.56836 19.4316C1.18058 19.0439 1 18.5272 1 18V7C1 5.52719 2.02134 3.91215 3.57715 3.4541L7.13574 2.23828C7.22932 1.99224 7.37272 1.764 7.56836 1.56836C7.95614 1.18058 8.47275 1 9 1H15ZM4.22266 5.34668C4.20302 5.35337 4.1831 5.35978 4.16309 5.36523C3.5528 5.53177 3 6.2918 3 7V18H5V9C5 8.44772 5.44772 8 6 8C6.55228 8 7 8.44772 7 9V12.5859L7.29297 12.293C7.68349 11.9024 8.31651 11.9024 8.70703 12.293C9.09756 12.6835 9.09756 13.3165 8.70703 13.707L7 15.4141V21H11V14C11 11.7782 10.1157 9.97119 9.14844 8.39941C8.9061 8.00562 8.66365 7.63376 8.42676 7.26855C8.19356 6.90904 7.9624 6.55084 7.76172 6.20801C7.44519 5.66723 7.12848 5.04099 7.03223 4.38672L4.22266 5.34668ZM16.9668 4.38672C16.8705 5.04094 16.5548 5.66727 16.2383 6.20801C16.0376 6.55084 15.8064 6.90904 15.5732 7.26855C15.3364 7.63376 15.0939 8.00562 14.8516 8.39941C13.8843 9.97119 13 11.7782 13 14V21H17V15.4141L15.293 13.707C14.9024 13.3165 14.9024 12.6835 15.293 12.293C15.6835 11.9024 16.3165 11.9024 16.707 12.293L17 12.5859V9C17 8.44772 17.4477 8 18 8C18.5523 8 19 8.44772 19 9V18H21V7C21 6.2918 20.4472 5.53177 19.8369 5.36523C19.8169 5.35978 19.797 5.35337 19.7773 5.34668L16.9668 4.38672ZM13.4453 6.87793C12.9831 6.95649 12.497 7 12 7C11.5027 7 11.0162 6.9566 10.5537 6.87793C10.6517 7.03155 10.7521 7.18895 10.8516 7.35059C11.2445 7.98917 11.649 8.70255 12 9.49414C12.351 8.70255 12.7555 7.98917 13.1484 7.35059C13.2478 7.18911 13.3474 7.03141 13.4453 6.87793ZM9 4.00293C9.00048 4.00527 9.00206 4.01123 9.00586 4.02051C9.01383 4.03985 9.03402 4.077 9.07812 4.12891C9.17031 4.23736 9.34242 4.37873 9.62207 4.51855C10.1819 4.79847 11.023 5 12 5C12.977 5 13.8181 4.79847 14.3779 4.51855C14.6576 4.37873 14.8297 4.23736 14.9219 4.12891C14.966 4.077 14.9862 4.03985 14.9941 4.02051C14.9979 4.01123 14.9995 4.00527 15 4.00293V3H9V4.00293Z" fill="#E4F2F2"/>
</svg>
