<svg width="24" height="24" viewBox="0 0 24 24" fill="none" xmlns="http://www.w3.org/2000/svg">
<path d="M17.2656 2.32129C17.6403 1.9159 18.273 1.89116 18.6787 2.26562C19.084 2.64029 19.1088 3.27308 18.7344 3.67871L13 9.89062V10H18C18.5523 10 19 10.4477 19 11C18.9999 11.5522 18.5522 12 18 12H13V14H18C18.5523 14 19 14.4477 19 15C18.9999 15.5522 18.5522 16 18 16H13V21C12.9999 21.5522 12.5522 22 12 22C11.4478 22 11.0001 21.5522 11 21V16H6C5.44779 16 5.00013 15.5522 5 15C5 14.4477 5.44772 14 6 14H11V12H6C5.44779 12 5.00013 11.5522 5 11C5 10.4477 5.44772 10 6 10H11V9.89062L5.26562 3.67871C4.89119 3.27308 4.91601 2.64029 5.32129 2.26562C5.72696 1.89116 6.35972 1.9159 6.73438 2.32129L12 8.02539L17.2656 2.32129Z" fill="#E4F2F2"/>
</svg>
