<svg width="24" height="24" viewBox="0 0 24 24" fill="none" xmlns="http://www.w3.org/2000/svg">
<path d="M14.293 6.29297C14.6835 5.90244 15.3165 5.90244 15.707 6.29297C16.0976 6.68349 16.0976 7.31651 15.707 7.70703L13.4141 10H15C15.5523 10 16 10.4477 16 11C16 11.5523 15.5523 12 15 12H13V14H15C15.5523 14 16 14.4477 16 15C16 15.5523 15.5523 16 15 16H13V18C13 18.5523 12.5523 19 12 19C11.4477 19 11 18.5523 11 18V16H9C8.44772 16 8 15.5523 8 15C8 14.4477 8.44772 14 9 14H11V12H9C8.44772 12 8 11.5523 8 11C8 10.4477 8.44772 10 9 10H10.5859L8.29297 7.70703C7.90244 7.31651 7.90244 6.68349 8.29297 6.29297C8.68349 5.90244 9.31651 5.90244 9.70703 6.29297L12 8.58594L14.293 6.29297Z" fill="#E4F2F2"/>
<path fill-rule="evenodd" clip-rule="evenodd" d="M12 1C18.0751 1 23 5.92487 23 12C23 18.0751 18.0751 23 12 23C5.92487 23 1 18.0751 1 12C1 5.92487 5.92487 1 12 1ZM12 3C7.02944 3 3 7.02944 3 12C3 16.9706 7.02944 21 12 21C16.9706 21 21 16.9706 21 12C21 7.02944 16.9706 3 12 3Z" fill="#E4F2F2"/>
</svg>
