<svg width="24" height="24" viewBox="0 0 24 24" fill="none" xmlns="http://www.w3.org/2000/svg">
<path d="M14.293 6.29297C14.6835 5.90244 15.3165 5.90244 15.707 6.29297C16.0976 6.68349 16.0976 7.31651 15.707 7.70703L13.4141 10H15C15.5523 10 16 10.4477 16 11C16 11.5523 15.5523 12 15 12H13V14H15C15.5523 14 16 14.4477 16 15C16 15.5523 15.5523 16 15 16H13V17C13 17.5523 12.5523 18 12 18C11.4477 18 11 17.5523 11 17V16H9C8.44772 16 8 15.5523 8 15C8 14.4477 8.44772 14 9 14H11V12H9C8.44772 12 8 11.5523 8 11C8 10.4477 8.44772 10 9 10H10.5859L8.29297 7.70703C7.90244 7.31651 7.90244 6.68349 8.29297 6.29297C8.68349 5.90244 9.31651 5.90244 9.70703 6.29297L12 8.58594L14.293 6.29297Z" fill="#E4F2F2"/>
<path fill-rule="evenodd" clip-rule="evenodd" d="M19 2C20.6569 2 22 3.34315 22 5V19C22 20.6569 20.6569 22 19 22H5C3.34315 22 2 20.6569 2 19V5C2 3.34315 3.34315 2 5 2H19ZM5 4C4.44772 4 4 4.44772 4 5V19C4 19.5523 4.44772 20 5 20H19C19.5523 20 20 19.5523 20 19V5C20 4.44772 19.5523 4 19 4H5Z" fill="#E4F2F2"/>
</svg>
