<svg width="24" height="24" viewBox="0 0 24 24" fill="none" xmlns="http://www.w3.org/2000/svg">
<path fill-rule="evenodd" clip-rule="evenodd" d="M20 2C20.5523 2 21 2.44772 21 3C21 3.55228 20.5523 4 20 4V4.59961C20 5.20124 20.143 5.7233 20.4512 6.27246L21.1074 7.20996C21.7728 8.03782 22 9.06996 22 10V18C22 20.2523 20.2523 22 18 22H6C3.74772 22 2 20.2523 2 18V10C2 9.05168 2.23371 8.04595 2.76758 7.24512L2.78125 7.22656L3.48047 6.22656L3.53223 6.16016C3.83564 5.79605 4 5.25103 4 4.59961V4C3.44772 4 3 3.55228 3 3C3 2.44772 3.44772 2 4 2H20ZM18 14V16C18 17.1046 17.1046 18 16 18H8C6.89543 18 6 17.1046 6 16V14H4V18C4 19.1477 4.85228 20 6 20H18C19.1477 20 20 19.1477 20 18V14H18ZM8 16H16V11H8V16ZM6 4.59961C6 5.5324 5.77152 6.56837 5.10156 7.39746L4.42969 8.35645C4.16447 8.75559 4 9.34959 4 10V12H6V11C6 9.89543 6.89543 9 8 9H16C17.1046 9 18 9.89543 18 11V12H20V10C20 9.34879 19.8355 8.80454 19.5322 8.44043C19.5143 8.41891 19.4965 8.39599 19.4805 8.37305L18.7812 7.37305C18.7638 7.34805 18.7466 7.32239 18.7314 7.2959C18.2519 6.4566 18 5.58651 18 4.59961V4H6V4.59961Z" fill="#E4F2F2"/>
</svg>
