<svg width="24" height="24" viewBox="0 0 24 24" fill="none" xmlns="http://www.w3.org/2000/svg">
<path fill-rule="evenodd" clip-rule="evenodd" d="M19 2C21.2523 2 23 3.74772 23 6V10C23 10.5523 22.5523 11 22 11C21.4478 11 21 10.5523 21 10V6C21 5.0781 20.4499 4.34778 19.6387 4.0957L18.082 7.98633L20.3994 13.3857C20.7876 14.1874 20.9906 15.0639 20.9981 15.9521C21.0001 15.994 20.9993 16.0357 20.9961 16.0771C20.9952 16.1468 20.9965 16.2165 20.9932 16.2861C20.9445 17.3056 20.6367 18.2958 20.0986 19.1631C19.5604 20.0305 18.8091 20.7468 17.917 21.2432C17.1364 21.6774 16.2701 21.9316 15.3818 21.9883L15 22H7.00001C5.98121 22.0017 4.97855 21.7439 4.08692 21.251C3.19461 20.7576 2.44277 20.0443 1.90235 19.1797C1.362 18.3151 1.05054 17.3268 0.998058 16.3086C0.946449 15.3064 1.14897 14.3085 1.58302 13.4043L3.917 7.98633L2.0713 3.37109C1.94825 3.06313 1.986 2.7141 2.17189 2.43945C2.3579 2.1647 2.66821 2.00002 3.00001 2H19ZM6.50001 16C4.79809 16 3.86204 16.2795 3.04103 16.6289C3.12532 17.1569 3.31379 17.6644 3.59864 18.1201C3.95891 18.6964 4.45992 19.1721 5.0547 19.501C5.64945 19.8298 6.31848 20.0013 6.99806 20H15C15.6806 20 16.3506 19.826 16.9453 19.4951C17.5398 19.1642 18.0407 18.6875 18.3994 18.1094C18.5007 17.9462 18.5878 17.7755 18.6641 17.6006C17.8627 17.835 16.8728 18 15.5 18C13.0485 18 11.7747 17.4389 10.5938 16.9141C9.52476 16.439 8.54842 16 6.50001 16ZM3.41896 14.1963C3.41258 14.2111 3.40553 14.2258 3.39845 14.2402C3.37233 14.2935 3.34888 14.3481 3.32521 14.4023C4.12852 14.1663 5.12103 14 6.50001 14C8.95153 14 10.2253 14.5611 11.4063 15.0859C12.4753 15.5611 13.4516 16 15.5 16C17.1952 16 18.1305 15.7225 18.9492 15.375C18.8863 14.9765 18.7645 14.5879 18.584 14.2236C18.576 14.2074 18.5687 14.1904 18.5615 14.1738L16.3408 9H5.65821L3.41896 14.1963ZM5.67677 7H16.3233L17.5225 4H4.47755L5.67677 7Z" fill="#E4F2F2"/>
</svg>
