<svg width="24" height="24" viewBox="0 0 24 24" fill="none" xmlns="http://www.w3.org/2000/svg">
<path fill-rule="evenodd" clip-rule="evenodd" d="M4.41503 2.05762C4.99686 1.94196 5.60036 2.0015 6.14843 2.22852C6.69629 2.45555 7.16459 2.83995 7.49413 3.33301C7.82374 3.82634 7.99999 4.40669 7.99999 5V6C7.99998 6.17585 7.97433 6.34865 7.92968 6.51562L9.24804 7.83398C11.9239 5.43053 15.3489 3.73629 20.0596 2.08594V2.08789C20.2489 2.01992 20.4491 1.99022 20.6484 2.00391L20.8545 2.0332L21.0537 2.0918C21.2484 2.16412 21.4262 2.27776 21.5742 2.42578C21.7222 2.57381 21.8359 2.75156 21.9082 2.94629L21.9668 3.14551L21.9961 3.35156C22.0097 3.5506 21.9798 3.75042 21.9121 3.93945L21.9141 3.94043C20.2637 8.65104 18.5685 12.0751 16.165 14.751L17.4834 16.0693C17.6506 16.0246 17.8239 16 18 16H19C19.5933 16 20.1737 16.1762 20.667 16.5059C21.16 16.8354 21.5445 17.3037 21.7715 17.8516C21.9985 18.3996 22.058 19.0031 21.9424 19.585C21.8266 20.1669 21.5406 20.7015 21.1211 21.1211C20.7015 21.5406 20.1669 21.8266 19.585 21.9424C19.0031 22.0581 18.3996 21.9985 17.8516 21.7715C17.3037 21.5445 16.8354 21.16 16.5058 20.667C16.1762 20.1737 16 19.5933 16 19V18C16 17.8239 16.0246 17.6506 16.0693 17.4834L14.751 16.165C12.0751 18.5685 8.65103 20.2637 3.94042 21.9141L3.93944 21.9121C3.68493 22.0033 3.41015 22.0238 3.1455 21.9668C2.87285 21.9081 2.62301 21.7714 2.42577 21.5742C2.22855 21.377 2.09195 21.1272 2.03319 20.8545C1.97614 20.5895 1.99639 20.3144 2.08788 20.0596H2.08593C3.73628 15.3489 5.43052 11.9239 7.83397 9.24805L6.51562 7.92969C6.34864 7.97434 6.17584 7.99999 5.99999 8H4.99999C4.40668 8 3.82633 7.82375 3.333 7.49414C2.83994 7.1646 2.45554 6.6963 2.22851 6.14844C2.00149 5.60037 1.94195 4.99687 2.05761 4.41504C2.17336 3.8331 2.45934 3.29846 2.8789 2.87891C3.29845 2.45935 3.83309 2.17337 4.41503 2.05762ZM18 19C18 19.1978 18.0591 19.3912 18.1689 19.5557C18.2788 19.7199 18.4346 19.8482 18.6172 19.9238C18.7999 19.9995 19.0013 20.019 19.1953 19.9805C19.3892 19.9418 19.5672 19.8468 19.707 19.707C19.8468 19.5673 19.9418 19.3892 19.9805 19.1953C20.019 19.0014 19.9995 18.7999 19.9238 18.6172C19.8482 18.4346 19.7199 18.2788 19.5557 18.1689C19.3912 18.0591 19.1978 18 19 18H18V19ZM9.24999 10.6641C7.31381 12.8474 5.83117 15.6566 4.36425 19.6348C8.34261 18.1678 11.1514 16.6851 13.335 14.749L9.24999 10.6641ZM19.6348 4.36426C15.6566 5.83117 12.8474 7.31382 10.6641 9.25L14.749 13.335C16.6851 11.1514 18.1678 8.34262 19.6348 4.36426ZM4.80468 4.01953C4.6108 4.05815 4.43275 4.15318 4.29296 4.29297C4.15317 4.43276 4.05814 4.61081 4.01952 4.80469C3.98095 4.99865 4.00048 5.2001 4.07616 5.38281C4.15182 5.56536 4.28006 5.72122 4.44433 5.83105C4.60876 5.9409 4.80224 6 4.99999 6H5.99999V5C5.99999 4.80225 5.9409 4.60877 5.83105 4.44434C5.72121 4.28007 5.56535 4.15183 5.3828 4.07617C5.20009 4.00049 4.99864 3.98096 4.80468 4.01953Z" fill="#E4F2F2"/>
</svg>
