<svg width="24" height="24" viewBox="0 0 24 24" fill="none" xmlns="http://www.w3.org/2000/svg">
<path fill-rule="evenodd" clip-rule="evenodd" d="M17.5439 1.50922C18.1978 1.25457 18.9084 1.18098 19.6006 1.29633C20.2925 1.41168 20.9407 1.71176 21.4766 2.16449C22.0124 2.61743 22.4164 3.20738 22.6455 3.87055C22.8745 4.53368 22.9204 5.24702 22.7783 5.93403C22.6361 6.62087 22.3111 7.2571 21.8379 7.77485C21.4654 8.18203 20.8333 8.21035 20.4258 7.83832C20.0182 7.46577 19.9898 6.8329 20.3623 6.42524C20.5926 6.1731 20.751 5.86316 20.8203 5.52875C20.8895 5.1941 20.8664 4.84592 20.7549 4.52289C20.6433 4.20005 20.4464 3.91335 20.1855 3.69281C19.9245 3.47218 19.6086 3.3252 19.2715 3.26899C18.9344 3.21287 18.588 3.24946 18.2695 3.37348C17.9513 3.49753 17.6722 3.70486 17.4619 3.97406C17.2517 4.24339 17.1173 4.56484 17.0742 4.90375C17.0324 5.23318 17.0784 5.56826 17.206 5.87445C17.6289 6.64952 17.6868 7.72762 16.9072 8.50727L15.4141 9.99945L16.0078 10.5932C17.2975 11.8837 17.2976 14.1163 16.0078 15.4067L14.4072 17.0073C13.7558 17.6585 12.8638 17.9803 11.9746 17.9741C11.9809 18.8633 11.659 19.7552 11.0078 20.4067L9.40722 22.0073C8.11687 23.2973 5.88427 23.297 4.59374 22.0073L3.99999 21.4135L2.70702 22.7065C2.3165 23.097 1.68349 23.097 1.29296 22.7065C0.902545 22.316 0.902473 21.6829 1.29296 21.2924L2.58593 19.9995L1.99316 19.4067C0.702925 18.1162 0.70299 15.8837 1.99316 14.5932L3.59374 12.9926C4.24507 12.3416 5.13637 12.0187 6.02538 12.0248C6.01922 11.1357 6.34199 10.2445 6.99316 9.5932L8.59374 7.99262C9.88427 6.70264 12.1168 6.70245 13.4072 7.99262L14 8.58539L15.4932 7.0932C15.5029 7.08346 15.5063 7.07701 15.5078 7.07367C15.5095 7.06967 15.5127 7.0592 15.5137 7.04047C15.5156 6.99933 15.5037 6.91732 15.4424 6.81488C15.4201 6.77775 15.4001 6.73838 15.3828 6.69867C15.1031 6.05534 15.0025 5.34772 15.0908 4.6518C15.1793 3.95592 15.4541 3.29655 15.8857 2.7436C16.3175 2.19061 16.8902 1.76385 17.5439 1.50922ZM6.99316 14.4067C6.48379 13.8976 5.51734 13.8977 5.0078 14.4067L3.40722 16.0073C2.8981 16.5168 2.89804 17.4832 3.40722 17.9926L6.0078 20.5932C6.51736 21.1019 7.48383 21.1022 7.99316 20.5932L9.59374 18.9926C10.1025 18.4832 10.1024 17.5168 9.59374 17.0073L8.99999 16.4135L7.70702 17.7065C7.3165 18.097 6.68349 18.097 6.29296 17.7065C5.90255 17.316 5.90247 16.6829 6.29296 16.2924L7.58593 14.9995L6.99316 14.4067ZM11.9932 9.40668C11.4838 8.89756 10.5173 8.89775 10.0078 9.40668L8.40722 11.0073C7.8981 11.5168 7.89804 12.4832 8.40722 12.9926L11.0078 15.5932L11.1084 15.6821C11.6362 16.0996 12.5156 16.0704 12.9932 15.5932L14.5937 13.9926C15.1025 13.4832 15.1024 12.5168 14.5937 12.0073L14 11.4135L12.707 12.7075C12.3166 13.0976 11.6834 13.0975 11.293 12.7075C10.9025 12.317 10.9027 11.6839 11.293 11.2934L12.5859 9.99945L11.9932 9.40668Z" fill="#E4F2F2"/>
</svg>
