<svg width="24" height="24" viewBox="0 0 24 24" fill="none" xmlns="http://www.w3.org/2000/svg">
<path d="M18 21C18.5523 21 19 21.4477 19 22C19 22.5523 18.5523 23 18 23H6C5.44772 23 5 22.5523 5 22C5 21.4477 5.44772 21 6 21H18Z" fill="#E4F2F2"/>
<path fill-rule="evenodd" clip-rule="evenodd" d="M12 1C15.0109 1.00007 17.452 3.13607 17.918 6H21C21.5523 6 22 6.44772 22 7V9C22 11.1595 20.6004 13.0483 18.5947 13.6875L18.7959 15.9082C18.9475 17.5757 17.706 18.9999 16 19H8C6.29401 18.9999 5.05252 17.5766 5.2041 15.9092L5.90723 8H5C3.85228 8 3 8.85228 3 10V14C3 14.5523 2.55228 15 2 15C1.44772 15 1 14.5523 1 14V10C1 7.74771 2.74772 6 5 6H6.08203C6.54795 3.13605 8.98911 1.00007 12 1ZM7.19629 16.0889L7.19531 16.0908C7.14709 16.6231 7.50625 16.9999 8 17H16C16.4935 16.9999 16.8515 16.6236 16.8037 16.0918L16.541 13.1826C16.5237 13.1237 16.5112 13.0624 16.5049 12.999C16.4978 12.9281 16.4984 12.8582 16.5059 12.79L16.3975 11.5889C16.2911 10.3927 16.1875 9.19637 16.084 8H12V14C12 14.5523 11.5523 15 11 15C10.4477 15 10 14.5523 10 14V8H7.91504L7.19629 16.0889ZM18.3896 11.4121L18.4072 11.6094C19.358 11.1267 20 10.1324 20 9V8H18.0908C18.1896 9.13744 18.2886 10.2749 18.3896 11.4121ZM12 3C10.0991 3.00007 8.55297 4.25358 8.12109 6H15.8799C15.448 4.2535 13.901 3.00007 12 3Z" fill="#E4F2F2"/>
</svg>
