<svg width="24" height="24" viewBox="0 0 24 24" fill="none" xmlns="http://www.w3.org/2000/svg">
<path d="M18 21C18.5523 21 19 21.4477 19 22C19 22.5523 18.5523 23 18 23H2C1.44772 23 1 22.5523 1 22C1 21.4477 1.44772 21 2 21H18Z" fill="#E4F2F2"/>
<path fill-rule="evenodd" clip-rule="evenodd" d="M10 1C11.5913 1 13.117 1.63259 14.2422 2.75781C15.3674 3.88303 16 5.4087 16 7V8.14258C17.0585 7.30519 17.7155 6.33256 18.1055 5.55273L18.1504 5.47168C18.3922 5.08213 18.8739 4.90424 19.3164 5.05176L22.3164 6.05176C22.7252 6.18815 23.0007 6.571 23 7.00195C22.9972 8.64733 22.5907 10.2669 21.8164 11.7188C21.1274 13.0105 20.165 14.1333 19 15.0127V17C19 17.5272 18.8194 18.0439 18.4316 18.4316C18.0439 18.8194 17.5272 19 17 19H3C2.47275 19 1.95614 18.8194 1.56836 18.4316C1.18058 18.0439 1 17.5272 1 17V15C1 12.6131 1.94791 10.3236 3.63574 8.63574C3.75413 8.51735 3.87586 8.40303 4 8.29199V7C4 5.4087 4.63259 3.88303 5.75781 2.75781C6.88303 1.63259 8.4087 1 10 1ZM15.5781 10.7734C14.1328 11.5073 12.3023 12 10 12C7.74137 12 5.89324 11.5371 4.41797 10.7764C3.50335 11.9854 3 13.4667 3 15V17H17V15C17 13.4651 16.4945 11.9831 15.5781 10.7734ZM19.4648 7.20801C18.9576 8.02573 18.2424 8.90676 17.2646 9.68848C17.915 10.578 18.3926 11.5777 18.6807 12.6357C19.2216 12.086 19.6863 11.4626 20.0518 10.7773C20.5602 9.82397 20.8701 8.78031 20.9668 7.70898L19.4648 7.20801ZM10 8C8.54245 8 7.1324 8.4556 5.95801 9.28613C7.02663 9.72209 8.35744 9.99998 10 10C11.6221 9.99998 12.9488 9.71765 14.0322 9.2793C12.9532 8.51908 11.6764 8.07467 10.3467 8.00879L10 8ZM10 3C8.93913 3 7.92202 3.42173 7.17188 4.17188C6.43624 4.90751 6.01695 5.89988 6.00098 6.93848C6.93741 6.47408 7.95175 6.17477 9 6.05762V6C9 5.44772 9.44771 5 10 5C10.5523 5 11 5.44772 11 6V6.05762C12.048 6.17474 13.0618 6.4743 13.998 6.93848C13.9821 5.89989 13.5638 4.9075 12.8281 4.17188C12.078 3.42173 11.0609 3 10 3Z" fill="#E4F2F2"/>
</svg>
