<svg width="24" height="24" viewBox="0 0 24 24" fill="none" xmlns="http://www.w3.org/2000/svg">
<path d="M16.5 6.00049C17.3284 6.00049 18 6.67206 18 7.50049C17.9998 8.32875 17.3283 9.00049 16.5 9.00049C15.6717 9.00049 15.0002 8.32875 15 7.50049C15 6.67206 15.6716 6.00049 16.5 6.00049Z" fill="#E4F2F2"/>
<path fill-rule="evenodd" clip-rule="evenodd" d="M11.5527 2.10791C12.9911 1.2057 14.6937 0.818592 16.3809 1.00928C18.068 1.20005 19.6411 1.95719 20.8418 3.15772C22.0424 4.3583 22.8003 5.93155 22.9912 7.61865C23.1819 9.30579 22.7938 11.0084 21.8916 12.4468C20.9892 13.8852 19.6247 14.975 18.0225 15.5376C16.6224 16.0291 15.1132 16.0925 13.6846 15.728L13.293 16.1206C12.7305 16.6832 11.9674 16.9993 11.1719 16.9995H11V17.9995C11 18.5298 10.7889 19.0385 10.4141 19.4136C10.039 19.7886 9.53043 19.9995 9 19.9995H8V20.9995C8 21.5298 7.78894 22.0385 7.41406 22.4136C7.03899 22.7886 6.53043 22.9995 6 22.9995H3C2.46957 22.9995 1.96101 22.7886 1.58594 22.4136C1.21106 22.0385 1 21.5298 1 20.9995V18.8276C1.00029 18.0323 1.31642 17.2689 1.87891 16.7065L8.27051 10.314C7.90656 8.88586 7.97058 7.37654 8.46191 5.97705C9.02451 4.37494 10.1143 3.01031 11.5527 2.10791ZM16.1562 2.99658C14.9189 2.85674 13.6701 3.14054 12.6152 3.80225C11.5605 4.46394 10.7612 5.46442 10.3486 6.63916C9.93614 7.81403 9.93521 9.0951 10.3447 10.271C10.4707 10.6331 10.3784 11.036 10.1074 11.3071L3.29297 18.1206C3.10559 18.3079 3.00024 18.5627 3 18.8276V20.9995H6V19.9995C6.00016 19.4693 6.21101 18.9604 6.58594 18.5854C6.96098 18.2106 7.46972 17.9995 8 17.9995H9V16.9995C9.00016 16.4693 9.21101 15.9604 9.58594 15.5855C9.96098 15.2106 10.4697 14.9995 11 14.9995H11.1719L11.2705 14.9946C11.4994 14.9719 11.7148 14.8707 11.8789 14.7065L12.6934 13.8921L12.8008 13.7993C13.0643 13.602 13.4118 13.5456 13.7285 13.6558C14.9045 14.0654 16.1853 14.0634 17.3604 13.6509C18.5352 13.2383 19.5355 12.4391 20.1973 11.3843C20.8589 10.3295 21.1438 9.08055 21.0039 7.84326C20.8639 6.60633 20.3079 5.45308 19.4277 4.57275C18.5473 3.69239 17.3935 3.1365 16.1562 2.99658Z" fill="#E4F2F2"/>
</svg>
