<svg width="24" height="24" viewBox="0 0 24 24" fill="none" xmlns="http://www.w3.org/2000/svg">
<path fill-rule="evenodd" clip-rule="evenodd" d="M20.293 1.29346C20.6834 0.903058 21.3165 0.903148 21.707 1.29346C22.0972 1.68399 22.0974 2.3171 21.707 2.70752L20.4141 4.00049L22.0068 5.59326L22.0146 5.6001C22.381 5.97394 22.5859 6.47704 22.5859 7.00049L22.5762 7.1958C22.5318 7.64766 22.3342 8.07387 22.0137 8.40088L19.9072 10.5073L19.9004 10.5151L19.8994 10.5142C19.5256 10.8805 19.0234 11.0864 18.5 11.0864C17.9766 11.0864 17.4735 10.8805 17.0996 10.5142L15.5 8.91455L12.748 11.6655C13.5349 12.7406 14 14.0662 14 15.5005C13.9999 19.0902 11.0898 22.0005 7.5 22.0005C3.91024 22.0005 1.00015 19.0902 1 15.5005C1 11.9106 3.91015 9.00049 7.5 9.00049C8.93386 9.00049 10.2582 9.46602 11.333 10.2524L20.293 1.29346ZM7.5 11.0005C5.01472 11.0005 3 13.0152 3 15.5005C3.00015 17.9856 5.01481 20.0005 7.5 20.0005C9.98519 20.0005 11.9999 17.9856 12 15.5005C12 13.0152 9.98528 11.0005 7.5 11.0005ZM16.9141 7.50049L18.5 9.08643L20.5859 7.00049L19 5.41455L16.9141 7.50049Z" fill="#E4F2F2"/>
</svg>
