<svg width="24" height="24" viewBox="0 0 24 24" fill="none" xmlns="http://www.w3.org/2000/svg">
<path d="M8.00977 11C8.56205 11 9.00977 11.4477 9.00977 12C9.00972 12.5522 8.56203 13 8.00977 13H8C7.44774 13 7.00004 12.5522 7 12C7 11.4477 7.44772 11 8 11H8.00977Z" fill="#E4F2F2"/>
<path fill-rule="evenodd" clip-rule="evenodd" d="M1.29297 1.29297C1.68349 0.902444 2.31651 0.902444 2.70703 1.29297L22.707 21.293C23.0975 21.6835 23.0975 22.3165 22.707 22.707C22.3165 23.0975 21.6835 23.0975 21.293 22.707L19.5859 21H4C3.20437 21 2.44151 20.6837 1.87891 20.1211C1.31631 19.5585 1.00002 18.7956 1 18V6C1 5.20437 1.31632 4.44151 1.87891 3.87891C1.97757 3.78024 2.08426 3.69154 2.19434 3.6084L1.29297 2.70703C0.902457 2.31652 0.902482 1.6835 1.29297 1.29297ZM3.64941 5.06348C3.51684 5.11314 3.39502 5.19092 3.29297 5.29297C3.10546 5.4805 3 5.7348 3 6V18C3.00002 18.2652 3.10545 18.5195 3.29297 18.707C3.4805 18.8945 3.7348 19 4 19H17.5859L15.5859 17H7C6.44774 17 6.00004 16.5522 6 16C6 15.4477 6.44772 15 7 15H13.5859L6.94238 8.35645C6.7986 8.73234 6.43621 9 6.00977 9H6C5.44774 9 5.00004 8.55225 5 8C5 7.57111 5.27012 7.20554 5.64941 7.06348L3.64941 5.06348Z" fill="#E4F2F2"/>
<path d="M20 3C20.0346 3.00001 20.0688 3.00144 20.1025 3.00488C20.8609 3.03084 21.5827 3.34054 22.1211 3.87891C22.659 4.41682 22.9677 5.13786 22.9941 5.89551C22.9977 5.92984 23 5.96472 23 6V16.4102C22.9999 16.9623 22.5522 17.4102 22 17.4102C21.4478 17.4102 21.0001 16.9623 21 16.4102V6C21 5.7348 20.8945 5.4805 20.707 5.29297C20.5429 5.12883 20.3276 5.02759 20.0986 5.00488L20 5H9.69043C9.13817 5 8.69047 4.55225 8.69043 4C8.69043 3.44772 9.13814 3 9.69043 3H20Z" fill="#E4F2F2"/>
<path d="M14.0098 7C14.5621 7 15.0098 7.44772 15.0098 8C15.0097 8.55225 14.562 9 14.0098 9H14C13.4477 9 13 8.55225 13 8C13 7.44772 13.4477 7 14 7H14.0098Z" fill="#E4F2F2"/>
<path d="M18.0098 7C18.562 7 19.0098 7.44772 19.0098 8C19.0097 8.55225 18.562 9 18.0098 9H18C17.4477 9 17 8.55225 17 8C17 7.44772 17.4477 7 18 7H18.0098Z" fill="#E4F2F2"/>
</svg>
