<svg width="24" height="24" viewBox="0 0 24 24" fill="none" xmlns="http://www.w3.org/2000/svg">
<path d="M12 16C12.5523 16 13 16.4477 13 17V18C13 18.5523 12.5523 19 12 19C11.4477 19 11 18.5523 11 18V17C11 16.4477 11.4477 16 12 16Z" fill="#E4F2F2"/>
<path d="M8.29297 14.293C8.68349 13.9024 9.31651 13.9024 9.70703 14.293C10.0976 14.6835 10.0976 15.3165 9.70703 15.707L8.70703 16.707C8.31651 17.0976 7.68349 17.0976 7.29297 16.707C6.90244 16.3165 6.90244 15.6835 7.29297 15.293L8.29297 14.293Z" fill="#E4F2F2"/>
<path d="M14.293 14.293C14.6835 13.9024 15.3165 13.9024 15.707 14.293L16.707 15.293C17.0976 15.6835 17.0976 16.3165 16.707 16.707C16.3165 17.0976 15.6835 17.0976 15.293 16.707L14.293 15.707C13.9024 15.3165 13.9024 14.6835 14.293 14.293Z" fill="#E4F2F2"/>
<path d="M7 11C7.55228 11 8 11.4477 8 12C8 12.5523 7.55228 13 7 13H6C5.44772 13 5 12.5523 5 12C5 11.4477 5.44772 11 6 11H7Z" fill="#E4F2F2"/>
<path d="M18 11C18.5523 11 19 11.4477 19 12C19 12.5523 18.5523 13 18 13H17C16.4477 13 16 12.5523 16 12C16 11.4477 16.4477 11 17 11H18Z" fill="#E4F2F2"/>
<path d="M7.29297 7.29297C7.68349 6.90244 8.31651 6.90244 8.70703 7.29297L9.70703 8.29297C10.0976 8.68349 10.0976 9.31651 9.70703 9.70703C9.31651 10.0976 8.68349 10.0976 8.29297 9.70703L7.29297 8.70703C6.90244 8.31651 6.90244 7.68349 7.29297 7.29297Z" fill="#E4F2F2"/>
<path d="M15.293 7.29297C15.6835 6.90244 16.3165 6.90244 16.707 7.29297C17.0976 7.68349 17.0976 8.31651 16.707 8.70703L15.707 9.70703C15.3165 10.0976 14.6835 10.0976 14.293 9.70703C13.9024 9.31651 13.9024 8.68349 14.293 8.29297L15.293 7.29297Z" fill="#E4F2F2"/>
<path d="M12 5C12.5523 5 13 5.44772 13 6V7C13 7.55228 12.5523 8 12 8C11.4477 8 11 7.55228 11 7V6C11 5.44772 11.4477 5 12 5Z" fill="#E4F2F2"/>
<path fill-rule="evenodd" clip-rule="evenodd" d="M12 1C18.0751 1 23 5.92487 23 12C23 18.0751 18.0751 23 12 23C5.92487 23 1 18.0751 1 12C1 5.92487 5.92487 1 12 1ZM12 3C7.02944 3 3 7.02944 3 12C3 16.9706 7.02944 21 12 21C16.9706 21 21 16.9706 21 12C21 7.02944 16.9706 3 12 3Z" fill="#E4F2F2"/>
</svg>
