<svg width="24" height="24" viewBox="0 0 24 24" fill="none" xmlns="http://www.w3.org/2000/svg">
<path fill-rule="evenodd" clip-rule="evenodd" d="M12 1C12.5523 1 13 1.44772 13 2V6H17C17.3913 5.99984 17.7738 6.1149 18.1006 6.33008C18.4276 6.5455 18.6845 6.85199 18.8389 7.21191L21.8389 14.2119C21.9693 14.5161 22.0226 14.8481 21.9932 15.1777C21.9637 15.5075 21.8523 15.8252 21.6699 16.1016C21.4876 16.3778 21.2398 16.6049 20.9482 16.7617C20.6569 16.9183 20.3308 17.0001 20 17H15.998C15.9978 17.1827 15.9872 17.3658 15.9619 17.5479C15.8737 18.1813 15.635 18.7845 15.2656 19.3066C14.8961 19.8288 14.406 20.2548 13.8379 20.5488C13.2698 20.8427 12.6396 20.9961 12 20.9961C11.3604 20.9961 10.7302 20.8427 10.1621 20.5488C9.59396 20.2548 9.10387 19.8289 8.73437 19.3066C8.36501 18.7845 8.12626 18.1813 8.03809 17.5479C8.01276 17.3658 8.00216 17.1827 8.00195 17H4C3.66919 17.0001 3.34313 16.9184 3.05176 16.7617C2.76023 16.6049 2.51242 16.3778 2.33008 16.1016C2.14771 15.8252 2.03633 15.5075 2.00684 15.1777C1.97743 14.8481 2.03074 14.5161 2.16113 14.2119L5.16113 7.21191C5.31538 6.85219 5.57165 6.54548 5.89844 6.33008C6.22527 6.11479 6.60865 6.00081 7 6.00098L11 6V2C11 1.44774 11.4477 1.00003 12 1ZM10.002 17C10.0021 17.0909 10.0069 17.182 10.0195 17.2725C10.0637 17.589 10.1826 17.8904 10.3672 18.1514C10.5519 18.4125 10.797 18.6255 11.0811 18.7725C11.3651 18.9194 11.6802 18.9961 12 18.9961C12.3198 18.9961 12.6349 18.9194 12.9189 18.7725C13.203 18.6255 13.4481 18.4125 13.6328 18.1514C13.8174 17.8904 13.9363 17.589 13.9805 17.2725C13.9931 17.182 13.9979 17.0909 13.998 17H10.002ZM3.99902 15H9.10156C9.14422 14.997 9.18723 14.9974 9.23047 15H14.7705C14.8134 14.9975 14.8561 14.997 14.8984 15H20.001L17.001 8H6.99902L3.99902 15Z" fill="#E4F2F2"/>
</svg>
