<svg width="24" height="24" viewBox="0 0 24 24" fill="none" xmlns="http://www.w3.org/2000/svg">
<path fill-rule="evenodd" clip-rule="evenodd" d="M14.9995 1C15.5916 1.00007 16.1709 1.17549 16.6636 1.50391C17.1563 1.83248 17.5413 2.29998 17.769 2.84668L20.8452 10.2305C20.9719 10.5343 21.0224 10.8647 20.9907 11.1924C20.959 11.5202 20.8462 11.8353 20.6636 12.1094C20.481 12.3832 20.234 12.6084 19.9438 12.7637C19.6898 12.8996 19.4092 12.9784 19.1226 12.9961L18.9995 13H12.9995V17H13.9995C14.7951 17 15.558 17.3164 16.1206 17.8789C16.6832 18.4415 16.9995 19.2043 16.9995 20V21C16.9995 21.5304 16.7886 22.039 16.4136 22.4141C16.0385 22.789 15.5298 23 14.9995 23H8.99951C8.46923 22.9999 7.96043 22.789 7.58545 22.4141C7.25728 22.0858 7.05465 21.6552 7.00928 21.1973L6.99951 21V20C6.99951 19.2044 7.31594 18.4415 7.87842 17.8789C8.44093 17.3164 9.20401 17.0001 9.99951 17H10.9995V13H4.99951C4.67052 12.9999 4.34625 12.9188 4.05615 12.7637C3.766 12.6083 3.51802 12.3832 3.33545 12.1094C3.15287 11.8354 3.03997 11.5201 3.0083 11.1924C2.97665 10.8647 3.02716 10.5343 3.15381 10.2305L6.23096 2.84473C6.4589 2.29849 6.84389 1.83215 7.33643 1.50391C7.82901 1.17573 8.40762 1.00005 8.99951 1H14.9995ZM9.99951 19C9.73444 19.0001 9.47992 19.1055 9.29248 19.293C9.10507 19.4805 8.99951 19.7349 8.99951 20V21H14.9995V20C14.9995 19.7348 14.8941 19.4805 14.7065 19.293C14.519 19.1056 14.2646 19 13.9995 19H9.99951ZM8.99951 3C8.80226 3.00005 8.60898 3.05859 8.44483 3.16797C8.28076 3.2774 8.15259 3.43322 8.07666 3.61523L4.99951 11H18.9995L15.9224 3.61523C15.8464 3.43316 15.7183 3.27743 15.5542 3.16797C15.431 3.08584 15.2913 3.03228 15.146 3.01074L14.9995 3H8.99951Z" fill="#E4F2F2"/>
</svg>
