<svg width="24" height="24" viewBox="0 0 24 24" fill="none" xmlns="http://www.w3.org/2000/svg">
<path fill-rule="evenodd" clip-rule="evenodd" d="M15.1504 1.00586C15.4972 1.03214 15.8328 1.14864 16.1221 1.34473C16.4526 1.56893 16.7092 1.88692 16.8574 2.25781L18.8574 7.25781C18.9786 7.5612 19.0243 7.89006 18.9893 8.21484C18.9541 8.53969 18.8395 8.85156 18.6562 9.12207C18.4731 9.39236 18.2259 9.61357 17.9375 9.7666C17.7212 9.88127 17.4858 9.95566 17.2441 9.98535L17 10H13V21H15C15.5522 21.0001 16 21.4478 16 22C16 22.5522 15.5522 22.9999 15 23H9C8.44772 23 8 22.5523 8 22C8 21.4477 8.44772 21 9 21H11V10H7C6.67348 9.99979 6.3509 9.91969 6.0625 9.7666C5.77418 9.61344 5.52777 9.39144 5.34473 9.12109C5.16169 8.85068 5.04778 8.53948 5.0127 8.21484C4.97765 7.89007 5.02236 7.56116 5.14355 7.25781L7.14355 2.25781L7.2041 2.12109C7.35695 1.80868 7.58959 1.54085 7.87891 1.34473C8.20965 1.12064 8.60049 1.00025 9 1H15.001L15.1504 1.00586ZM7.00098 8H17.001L15 3.00098L9.00098 3L7.00098 8Z" fill="#E4F2F2"/>
</svg>
