<svg width="24" height="24" viewBox="0 0 24 24" fill="none" xmlns="http://www.w3.org/2000/svg">
<path d="M21.0005 21C21.5526 21.0002 22.0005 21.4479 22.0005 22C22.0005 22.5522 21.5526 22.9998 21.0005 23H3.00049C2.44821 23 2.00049 22.5523 2.00049 22C2.0005 21.4477 2.44821 21 3.00049 21H21.0005Z" fill="#E4F2F2"/>
<path d="M6.00049 10C6.55259 10.0002 7.00048 10.4479 7.00049 11V18C7.00049 18.5522 6.55259 18.9998 6.00049 19C5.44821 19 5.00049 18.5523 5.00049 18V11C5.0005 10.4477 5.44821 10 6.00049 10Z" fill="#E4F2F2"/>
<path d="M10.0005 10C10.5526 10.0002 11.0005 10.4479 11.0005 11V18C11.0005 18.5522 10.5526 18.9998 10.0005 19C9.44821 19 9.00049 18.5523 9.00049 18V11C9.0005 10.4477 9.44821 10 10.0005 10Z" fill="#E4F2F2"/>
<path d="M14.0005 10C14.5526 10.0002 15.0005 10.4479 15.0005 11V18C15.0005 18.5522 14.5526 18.9998 14.0005 19C13.4482 19 13.0005 18.5523 13.0005 18V11C13.0005 10.4477 13.4482 10 14.0005 10Z" fill="#E4F2F2"/>
<path d="M18.0005 10C18.5526 10.0002 19.0005 10.4479 19.0005 11V18C19.0005 18.5522 18.5526 18.9998 18.0005 19C17.4482 19 17.0005 18.5523 17.0005 18V11C17.0005 10.4477 17.4482 10 18.0005 10Z" fill="#E4F2F2"/>
<path fill-rule="evenodd" clip-rule="evenodd" d="M12.0034 0.99707C12.4594 0.998625 12.9098 1.10427 13.3189 1.30566L21.1851 5.15234C22.614 5.85178 22.1143 7.99976 20.5259 8H3.47315C1.88008 7.99915 1.3928 5.8509 2.81397 5.15332L10.6802 1.2998L10.6831 1.29883C11.0944 1.09909 11.5462 0.995629 12.0034 0.99707ZM11.9966 2.99707C11.8443 2.99667 11.6931 3.03113 11.5562 3.09766L11.5552 3.09668L5.63135 6H18.3648L12.4399 3.10254L12.437 3.10059C12.3004 3.03312 12.149 2.99759 11.9966 2.99707Z" fill="#E4F2F2"/>
</svg>
