<svg width="24" height="24" viewBox="0 0 24 24" fill="none" xmlns="http://www.w3.org/2000/svg">
<path fill-rule="evenodd" clip-rule="evenodd" d="M7.50391 11.1221C7.9834 10.8483 8.59423 11.0148 8.86816 11.4941C9.13956 11.9698 8.9774 12.5736 8.50684 12.8506L12.002 14.8486L15.4854 12.8555C15.0217 12.5767 14.862 11.9787 15.1309 11.5059C15.404 11.0259 16.0151 10.8577 16.4951 11.1309L17.9004 11.9307C17.9726 11.9613 18.0417 11.9996 18.1055 12.0469L21.9932 14.2598C22.3009 14.4342 22.5573 14.6876 22.7354 14.9932C22.9133 15.2987 23.0068 15.6464 23.0068 16C23.0068 16.3536 22.9133 16.7013 22.7354 17.0068C22.5572 17.3124 22.3009 17.5658 21.9932 17.7402L13.499 22.5957L13.5 22.5967C13.044 22.8599 12.5265 22.998 12 22.998C11.4735 22.998 10.956 22.8599 10.5 22.5967L2.00684 17.7402C1.69919 17.5658 1.44273 17.3123 1.26465 17.0068C1.08674 16.7013 0.99321 16.3535 0.993164 16C0.993206 15.6464 1.08666 15.2987 1.26465 14.9932C1.44276 14.6875 1.69905 14.4342 2.00684 14.2598L5.94727 12.0098C5.97984 11.9888 6.01326 11.9691 6.04785 11.9521L7.50391 11.1221ZM8.50684 19.1533L11.4961 20.8623L11.5 20.8643C11.6519 20.9519 11.8246 20.998 12 20.998C12.1754 20.998 12.348 20.952 12.5 20.8643L12.5039 20.8623L15.4971 19.1504L12.0029 17.1523L8.50684 19.1533ZM2.99609 15.999L2.99316 16L2.99609 16.002L6.49219 18.001L9.98828 16L6.49219 14.002L2.99609 15.999ZM14.0166 16L17.5117 17.998L21.0039 16.002L21.0068 16L21.0059 15.999L17.5029 14.0059L14.0166 16Z" fill="#E4F2F2"/>
<path fill-rule="evenodd" clip-rule="evenodd" d="M11.4746 1.14941C11.7694 0.967334 12.1374 0.950513 12.4473 1.10547L18.4473 4.10547C18.786 4.27486 19 4.62123 19 5C19 5.37876 18.786 5.72514 18.4473 5.89453L13 8.61816V12C13 12.5523 12.5523 13 12 13C11.4477 13 11 12.5523 11 12V2C11 1.65343 11.1798 1.33162 11.4746 1.14941ZM13 6.38184L15.7637 5L13 3.61816V6.38184Z" fill="#E4F2F2"/>
</svg>
