<svg width="24" height="24" viewBox="0 0 24 24" fill="none" xmlns="http://www.w3.org/2000/svg">
<path fill-rule="evenodd" clip-rule="evenodd" d="M18 4C18.7956 4.00007 19.5595 4.31636 20.1221 4.87891C20.6844 5.44147 21 6.20458 21 7V15.5264L21.0068 15.6426C21.0203 15.7579 21.0542 15.8702 21.1064 15.9746L22.1729 18.0996C22.327 18.4056 22.4009 18.7466 22.3857 19.0889C22.3705 19.431 22.2675 19.7637 22.0869 20.0547C21.9063 20.3457 21.6534 20.5855 21.3535 20.751C21.0555 20.9154 20.7202 21.0002 20.3799 20.999L3.62012 21C3.28008 21.0012 2.94529 20.9152 2.64746 20.751C2.3475 20.5855 2.09475 20.3458 1.91406 20.0547C1.73341 19.7636 1.63045 19.4311 1.61523 19.0889C1.60004 18.7466 1.67296 18.4056 1.82715 18.0996L2.89453 15.9746L2.94043 15.8682C2.98007 15.7589 3.00005 15.6432 3 15.5264V7C3 6.20441 3.31638 5.4415 3.87891 4.87891C4.44144 4.31644 5.20451 4.00007 6 4H18ZM4.62402 16.9873L3.61426 18.999L3.61328 19H20.3877L20.3867 18.999L19.376 16.9873H4.62402ZM6 6C5.73494 6.00007 5.48043 6.10557 5.29297 6.29297C5.10552 6.48049 5 6.73485 5 7V14.9873H19V7C19 6.73484 18.8945 6.48049 18.707 6.29297C18.5196 6.10557 18.2651 6.00007 18 6H6Z" fill="#E4F2F2"/>
</svg>
