<svg width="24" height="24" viewBox="0 0 24 24" fill="none" xmlns="http://www.w3.org/2000/svg">
<path fill-rule="evenodd" clip-rule="evenodd" d="M12.3257 1.00293C14.978 1.06713 17.5371 1.9124 19.5054 3.41309C21.477 4.91666 22.7408 6.99555 22.9643 9.27637C23.1883 11.5621 22.3419 13.7961 20.6655 15.5498C18.9956 17.2965 16.615 18.4541 14.0044 18.8486C11.6801 19.1998 9.27746 18.9301 7.15673 18.082C6.85691 18.3925 6.49127 18.6373 6.08154 18.7959C6.15156 19.1401 6.26602 19.4749 6.42431 19.791C6.70197 20.3454 7.1041 20.8282 7.60009 21.2002C8.04162 21.5315 8.13127 22.1579 7.80029 22.5996C7.46902 23.0413 6.84268 23.1308 6.40087 22.7998C5.65668 22.2417 5.05177 21.5183 4.63525 20.6865C4.3452 20.1073 4.15306 19.4864 4.062 18.8486C2.86484 18.4546 2.00048 17.3291 2.00048 16C2.00049 15.4323 2.1601 14.9028 2.43407 14.4502C1.24705 12.7384 0.760278 10.7265 1.10986 8.72168C1.5041 6.4612 2.91713 4.45615 4.98974 3.05664C7.06006 1.65884 9.67296 0.938868 12.3257 1.00293ZM5.00048 15C4.4482 15 4.0005 15.4477 4.00048 16C4.00048 16.5523 4.4482 17 5.00048 17C5.55257 16.9998 6.00048 16.5521 6.00048 16C6.00047 15.4479 5.55256 15.0002 5.00048 15ZM12.2768 3.00195C10.0026 2.94709 7.80556 3.56835 6.10888 4.71387C4.41459 5.85789 3.36747 7.42029 3.08056 9.06543C2.83696 10.4624 3.14546 11.8979 3.98876 13.1777C4.30499 13.0644 4.64527 13 5.00048 13C6.65713 13.0002 8.00047 14.3433 8.00048 16C8.00048 16.0879 7.99519 16.1748 7.98779 16.2607C9.74435 16.9442 11.7513 17.1663 13.7056 16.8711C15.9385 16.5336 17.8955 15.5535 19.2202 14.168C20.5378 12.7896 21.1352 11.1168 20.9741 9.47168C20.8124 7.82132 19.8887 6.22006 18.2925 5.00293C16.6925 3.78306 14.5514 3.05698 12.2768 3.00195Z" fill="#E4F2F2"/>
</svg>
