<svg width="24" height="24" viewBox="0 0 24 24" fill="none" xmlns="http://www.w3.org/2000/svg">
<path d="M6.02049 2.00098C6.03808 2.00133 6.05567 2.00165 6.07323 2.00293C6.09093 2.00421 6.10853 2.00562 6.12596 2.00781C6.13774 2.0093 6.14939 2.01177 6.16112 2.01367C6.17987 2.01671 6.19839 2.02034 6.21678 2.02441C6.22788 2.02687 6.23896 2.02939 6.24999 2.03223C6.30648 2.04678 6.36091 2.06613 6.41307 2.08984C6.51947 2.13811 6.61949 2.20545 6.70702 2.29297L10.707 6.29297C11.0975 6.68348 11.0975 7.31652 10.707 7.70703C10.3165 8.09754 9.68348 8.09752 9.29295 7.70703L6.99999 5.41406V18.5859L9.29295 16.293C9.68348 15.9025 10.3165 15.9025 10.707 16.293C11.0975 16.6835 11.0975 17.3165 10.707 17.707L6.70702 21.707C6.66049 21.7536 6.60863 21.7944 6.5537 21.8311C6.51457 21.8572 6.47427 21.8804 6.4326 21.9004C6.38711 21.9223 6.34 21.9412 6.291 21.9561C6.27426 21.9611 6.25716 21.9646 6.24022 21.9688C6.22462 21.9726 6.20923 21.9774 6.19335 21.9805C6.18625 21.9819 6.17898 21.9822 6.17186 21.9834C6.11592 21.9931 6.0587 22 5.99999 22C5.94335 22 5.88804 21.9934 5.83397 21.9844C5.82357 21.9826 5.81307 21.9816 5.80272 21.9795C5.79122 21.9772 5.7799 21.9744 5.76854 21.9717C5.74797 21.9668 5.7273 21.9623 5.70702 21.9561C5.65836 21.9412 5.61158 21.9222 5.56639 21.9004C5.5266 21.8812 5.48767 21.8597 5.45018 21.835C5.39352 21.7976 5.34077 21.7548 5.29295 21.707L1.29295 17.707C0.90243 17.3165 0.90243 16.6835 1.29295 16.293C1.68348 15.9025 2.3165 15.9025 2.70702 16.293L4.99999 18.5859V5.41406L2.70702 7.70703C2.3165 8.09754 1.68348 8.09752 1.29295 7.70703C0.90243 7.31651 0.90243 6.68349 1.29295 6.29297L5.29295 2.29297L5.35057 2.24121C5.39237 2.2054 5.437 2.17313 5.48436 2.14453C5.50431 2.13248 5.52434 2.12088 5.54491 2.11035C5.60725 2.07841 5.6731 2.05256 5.74217 2.03418C5.75875 2.02977 5.77524 2.02503 5.79198 2.02148C5.80295 2.01917 5.81408 2.01758 5.82518 2.01562C5.8427 2.01252 5.86029 2.00998 5.87792 2.00781C5.89568 2.00565 5.91358 2.00415 5.93163 2.00293C5.94757 2.00184 5.96351 2.00131 5.97948 2.00098C5.98628 2.00084 5.99315 2 5.99999 2C6.00684 2 6.01367 2.00084 6.02049 2.00098Z" fill="#E4F2F2"/>
<path fill-rule="evenodd" clip-rule="evenodd" d="M20 13C21.1045 13 22 13.8955 22 15V20C22 21.1045 21.1045 22 20 22H15C13.8954 22 13 21.1046 13 20V15C13 13.8954 13.8954 13 15 13H20ZM15 20H20V15H15V20Z" fill="#E4F2F2"/>
<path fill-rule="evenodd" clip-rule="evenodd" d="M20 2C21.1045 2.00004 22 2.89546 22 4V9C22 10.1045 21.1045 11 20 11H15C13.8954 11 13 10.1046 13 9V4C13 2.89543 13.8954 2 15 2H20ZM15 9H20V4H15V9Z" fill="#E4F2F2"/>
</svg>
