<svg width="24" height="24" viewBox="0 0 24 24" fill="none" xmlns="http://www.w3.org/2000/svg">
<path d="M16.293 13.293C16.6835 12.9024 17.3165 12.9024 17.707 13.293L21.707 17.293C21.7548 17.3408 21.7976 17.3935 21.835 17.4502C21.8597 17.4877 21.8812 17.5266 21.9004 17.5664C21.9222 17.6116 21.9412 17.6584 21.9561 17.707C21.9623 17.7273 21.9668 17.748 21.9717 17.7686C21.9893 17.8429 22 17.9202 22 18C22 18.0563 21.9933 18.1112 21.9844 18.165C21.9772 18.2078 21.9688 18.2503 21.9561 18.292C21.9412 18.3407 21.9222 18.3874 21.9004 18.4326C21.8936 18.4468 21.8864 18.4607 21.8789 18.4746C21.851 18.5262 21.8184 18.5745 21.7822 18.6201C21.7586 18.6498 21.7345 18.6796 21.707 18.707L17.707 22.707C17.3165 23.0976 16.6835 23.0976 16.293 22.707C15.9024 22.3165 15.9024 21.6835 16.293 21.293L18.5859 19H5.41406L7.70703 21.293C8.09756 21.6835 8.09756 22.3165 7.70703 22.707C7.31651 23.0976 6.68349 23.0976 6.29297 22.707L2.29297 18.707C2.26536 18.6794 2.2405 18.65 2.2168 18.6201C2.18065 18.5745 2.14798 18.5261 2.12012 18.4746C2.11269 18.4609 2.10634 18.4466 2.09961 18.4326C2.0778 18.3873 2.05783 18.3408 2.04297 18.292C2.0303 18.2503 2.02176 18.2077 2.01465 18.165C2.00571 18.1113 2 18.0563 2 18C2 17.9203 2.00973 17.8429 2.02734 17.7686C2.03221 17.748 2.03678 17.7273 2.04297 17.707C2.05787 17.6583 2.07777 17.6117 2.09961 17.5664C2.11877 17.5266 2.1403 17.4877 2.16504 17.4502C2.20242 17.3935 2.24516 17.3408 2.29297 17.293L6.29297 13.293C6.68349 12.9024 7.31651 12.9024 7.70703 13.293C8.09756 13.6835 8.09756 14.3165 7.70703 14.707L5.41406 17H18.5859L16.293 14.707C15.9024 14.3165 15.9024 13.6835 16.293 13.293Z" fill="#E4F2F2"/>
<path fill-rule="evenodd" clip-rule="evenodd" d="M9 2C10.1046 2 11 2.89543 11 4V9C11 10.1046 10.1046 11 9 11H4C2.89543 11 2 10.1046 2 9V4C2 2.89543 2.89543 2 4 2H9ZM4 9H9V4H4V9Z" fill="#E4F2F2"/>
<path fill-rule="evenodd" clip-rule="evenodd" d="M20 2C21.1046 2 22 2.89543 22 4V9C22 10.1046 21.1046 11 20 11H15C13.8954 11 13 10.1046 13 9V4C13 2.89543 13.8954 2 15 2H20ZM15 9H20V4H15V9Z" fill="#E4F2F2"/>
</svg>
