<svg width="24" height="24" viewBox="0 0 24 24" fill="none" xmlns="http://www.w3.org/2000/svg">
<path fill-rule="evenodd" clip-rule="evenodd" d="M9 13C10.1046 13 11 13.8954 11 15V20C11 21.1046 10.1046 22 9 22H4C2.89543 22 2 21.1046 2 20V15C2 13.8954 2.89543 13 4 13H9ZM4 20H9V15H4V20Z" fill="#E4F2F2"/>
<path fill-rule="evenodd" clip-rule="evenodd" d="M20 13C21.1046 13 22 13.8954 22 15V20C22 21.1046 21.1046 22 20 22H15C13.8954 22 13 21.1046 13 20V15C13 13.8954 13.8954 13 15 13H20ZM15 20H20V15H15V20Z" fill="#E4F2F2"/>
<path fill-rule="evenodd" clip-rule="evenodd" d="M9 2C10.1046 2 11 2.89543 11 4V9C11 10.1046 10.1046 11 9 11H4C2.89543 11 2 10.1046 2 9V4C2 2.89543 2.89543 2 4 2H9ZM4 9H9V4H4V9Z" fill="#E4F2F2"/>
<path d="M17.5 2C18.0523 2 18.5 2.44772 18.5 3V5.5H21C21.5523 5.5 22 5.94772 22 6.5C22 7.05228 21.5523 7.5 21 7.5H18.5V10C18.5 10.5523 18.0523 11 17.5 11C16.9477 11 16.5 10.5523 16.5 10V7.5H14C13.4477 7.5 13 7.05228 13 6.5C13 5.94772 13.4477 5.5 14 5.5H16.5V3C16.5 2.44772 16.9477 2 17.5 2Z" fill="#E4F2F2"/>
</svg>
