<svg width="24" height="24" viewBox="0 0 24 24" fill="none" xmlns="http://www.w3.org/2000/svg">
<path fill-rule="evenodd" clip-rule="evenodd" d="M12.4683 1.11914C13.2222 0.941663 14.0096 0.96103 14.7534 1.17676C15.2005 1.30647 15.6219 1.50639 16.0054 1.76367C16.7336 1.28559 17.5909 1.02441 18.4751 1.02441C19.0659 1.02445 19.651 1.14118 20.1968 1.36719C20.7426 1.59329 21.239 1.92509 21.6568 2.34277C22.0745 2.76055 22.4062 3.25692 22.6324 3.80273C22.8585 4.34867 22.9751 4.93449 22.9751 5.52539C22.9751 6.1162 22.8584 6.70123 22.6324 7.24707C22.5241 7.50835 22.3912 7.75784 22.2368 7.99316C22.4944 8.37701 22.693 8.79958 22.8228 9.24707C23.0385 9.99092 23.0589 10.7783 22.8814 11.5322C22.7038 12.2859 22.3349 12.9814 21.8101 13.5508C21.5262 13.8587 21.1997 14.1213 20.8452 14.3379C20.9712 14.8081 21.024 15.2976 20.9927 15.7881C20.9387 16.6335 20.6465 17.4467 20.1509 18.1338C19.6553 18.8209 18.9753 19.3548 18.19 19.6729C17.6778 19.8802 17.1339 19.9877 16.5865 19.998C16.38 20.4782 16.1005 20.9257 15.7534 21.3213C15.2153 21.9347 14.5347 22.4072 13.772 22.6973C13.0094 22.9872 12.1871 23.0861 11.3775 22.9854C10.5678 22.8846 9.79482 22.5872 9.12649 22.1191C9.08808 22.0922 9.05138 22.0623 9.01712 22.0303C8.19006 21.2565 7.10486 20.8189 5.97415 20.8008C4.71833 20.9945 3.95249 21.7327 2.61966 22.7852C2.60528 22.7965 2.58955 22.806 2.57474 22.8164C2.56459 22.8236 2.55481 22.8312 2.54446 22.8379C2.47711 22.8817 2.40604 22.9165 2.33255 22.9424C2.30523 22.952 2.27744 22.9596 2.24954 22.9668C2.23136 22.9715 2.21321 22.9759 2.19485 22.9795C2.18802 22.9808 2.1812 22.9822 2.17435 22.9834C2.14902 22.9879 2.12369 22.9916 2.09817 22.9941C2.09427 22.9945 2.09036 22.9948 2.08646 22.9951C2.06042 22.9974 2.03442 22.9988 2.00833 22.999C1.9979 22.9991 1.98751 22.9983 1.97708 22.998C1.95684 22.9976 1.9367 22.9968 1.91653 22.9951C1.90739 22.9944 1.89832 22.9932 1.88919 22.9922C1.86565 22.9896 1.8422 22.9867 1.81888 22.9824C1.8104 22.9809 1.80193 22.9793 1.79349 22.9775C1.77579 22.9738 1.75826 22.9695 1.74075 22.9648C1.72335 22.9602 1.70617 22.9548 1.68899 22.9492C1.67783 22.9456 1.66684 22.9415 1.65579 22.9375C1.64014 22.9318 1.62432 22.9265 1.60892 22.9199C1.59378 22.9135 1.57885 22.9066 1.56399 22.8994C1.54922 22.8923 1.53453 22.8849 1.52005 22.877C1.43751 22.8318 1.3599 22.7748 1.29056 22.7051C1.19718 22.6111 1.12613 22.5026 1.07767 22.3867C1.07292 22.3754 1.06831 22.364 1.06399 22.3525C1.04651 22.306 1.03329 22.2582 1.02298 22.21C1.01957 22.194 1.01584 22.1782 1.01321 22.1621C1.01104 22.1488 1.00899 22.1355 1.00735 22.1221C1.00521 22.1045 1.00369 22.0869 1.00247 22.0693C1.00158 22.0563 1.00188 22.0433 1.00149 22.0303C1.00096 22.0127 1.00013 21.9951 1.00052 21.9775C1.00086 21.9626 1.00146 21.9476 1.00247 21.9326C1.00345 21.9179 1.00475 21.9033 1.00638 21.8887C1.00814 21.873 1.01071 21.8574 1.01321 21.8418C1.01581 21.8255 1.01763 21.8091 1.02103 21.793C1.02437 21.7772 1.0296 21.7618 1.03372 21.7461C1.06965 21.6088 1.13381 21.4771 1.22903 21.3623C2.29212 20.0336 2.99199 19.263 3.21341 17.9355C3.27311 17.5123 3.17375 17.054 2.92337 16.5205C2.6647 15.9694 2.29055 15.4296 1.88138 14.8359C1.42202 14.1688 1.13115 13.399 1.0347 12.5947C0.938294 11.7905 1.03905 10.9746 1.32767 10.2178C1.61644 9.4608 2.0852 8.78484 2.6929 8.24902C3.08432 7.90393 3.52636 7.62416 4.00149 7.41699C4.01148 6.86813 4.11978 6.32295 4.32767 5.80957C4.64571 5.02423 5.17953 4.34428 5.86673 3.84863C6.55385 3.35319 7.36703 3.06172 8.21243 3.00781C8.70222 2.97661 9.19107 3.02775 9.66067 3.15332C9.87719 2.79898 10.1419 2.47421 10.4497 2.19043C11.0192 1.66554 11.7145 1.29664 12.4683 1.11914ZM14.1958 3.09766C13.7827 2.97786 13.345 2.96686 12.9263 3.06543C12.5076 3.16407 12.1215 3.36955 11.8052 3.66113C11.4888 3.9528 11.2529 4.32101 11.1206 4.73047C11.0292 5.01336 10.8166 5.24109 10.5406 5.35156C10.2645 5.46196 9.95324 5.44357 9.69192 5.30176C9.27831 5.07713 8.80911 4.97399 8.33939 5.00391C7.86991 5.03389 7.41826 5.19561 7.03665 5.4707C6.65485 5.74608 6.35787 6.12422 6.18118 6.56055C6.00459 6.9968 5.95503 7.47416 6.03763 7.9375C6.1302 8.45724 5.80248 8.95996 5.28958 9.08496C4.81737 9.19999 4.37973 9.4276 4.01517 9.74902C3.65059 10.0705 3.37006 10.4765 3.19681 10.9307C3.02366 11.3847 2.96319 11.8739 3.02103 12.3564C3.07886 12.8387 3.25254 13.3001 3.52786 13.7002C3.91259 14.2584 4.39142 14.9412 4.73392 15.6709C4.97252 16.1793 5.16126 16.7524 5.21243 17.3721L16.2925 6.29297C16.683 5.90248 17.316 5.90256 17.7066 6.29297C18.0971 6.68349 18.0971 7.31651 17.7066 7.70703L6.57669 18.8359C7.96333 18.9798 9.27388 19.5622 10.313 20.5068C10.705 20.7724 11.1542 20.9424 11.6245 21.001C12.1102 21.0614 12.6036 21.002 13.0611 20.8281C13.5187 20.6541 13.9276 20.37 14.2505 20.002C14.5732 19.634 14.8006 19.1921 14.9136 18.7158C15.0361 18.2 15.541 17.8698 16.063 17.9629C16.5262 18.0453 17.0039 17.995 17.44 17.8184C17.8761 17.6417 18.2536 17.3455 18.5288 16.9639C18.8042 16.5821 18.9666 16.1299 18.9966 15.6602C19.0265 15.1907 18.9231 14.722 18.6988 14.3086C18.5568 14.0472 18.5386 13.7361 18.649 13.46C18.7594 13.1838 18.987 12.9713 19.27 12.8799C19.6793 12.7476 20.0478 12.5116 20.3394 12.1953C20.631 11.879 20.8355 11.4921 20.9341 11.0732C21.0327 10.6545 21.0217 10.2169 20.9019 9.80371C20.782 9.39083 20.5576 9.01574 20.2505 8.71484C20.0598 8.52804 19.9512 8.27185 19.9497 8.00488C19.9484 7.73807 20.0541 7.48168 20.2427 7.29297C20.4748 7.06082 20.6591 6.78475 20.7847 6.48145C20.9102 6.17832 20.9751 5.85348 20.9751 5.52539C20.9751 5.19713 20.9103 4.87164 20.7847 4.56836C20.6591 4.2651 20.4748 3.98896 20.2427 3.75684C20.0107 3.5249 19.7352 3.34043 19.4322 3.21484C19.1289 3.08923 18.8034 3.02445 18.4751 3.02441C17.8122 3.02441 17.1764 3.2882 16.7075 3.75684C16.5188 3.9456 16.2616 4.05114 15.9947 4.0498C15.7279 4.04836 15.4724 3.94052 15.2857 3.75C14.9846 3.44263 14.609 3.21753 14.1958 3.09766Z" fill="#E4F2F2"/>
</svg>
