<svg width="24" height="24" viewBox="0 0 24 24" fill="none" xmlns="http://www.w3.org/2000/svg">
<path fill-rule="evenodd" clip-rule="evenodd" d="M19.1074 1.00586C19.4456 1.04249 19.7424 1.24847 19.8945 1.55273C20.9265 3.61672 22 5.95854 22 10C21.9999 16.0694 16.7552 20.9978 11.002 20.999L11 21C8.99429 21.0053 7.0592 20.257 5.5791 18.9033C5.11019 18.4744 4.69789 17.9945 4.34766 17.4756C3.46271 18.3818 3 19.6051 3 21C2.99994 21.5522 2.55225 22 2 22C1.44775 22 1.00006 21.5522 1 21C1 18.8132 1.86428 16.9102 3.41992 15.6152C3.2059 14.9968 3.065 14.3505 3.00781 13.6885C2.83521 11.6892 3.42075 9.69748 4.64746 8.10938C5.86987 6.52694 7.64075 5.46012 9.61035 5.11816L10.6328 4.91797C12.8954 4.46553 14.3229 4.11034 15.3906 3.64941C16.5414 3.15253 17.2943 2.52193 18.2217 1.37207L18.3066 1.2793C18.5182 1.07577 18.8113 0.973977 19.1074 1.00586ZM18.7393 3.78125C18.0039 4.49706 17.2146 5.04018 16.1836 5.48535C14.7289 6.1134 12.8189 6.53595 9.98926 7.08203C9.98232 7.08337 9.97472 7.08475 9.96777 7.08594C8.48449 7.33951 7.15044 8.14117 6.23047 9.33203C5.31055 10.523 4.87166 12.0163 5.00098 13.5156C5.03113 13.8649 5.09262 14.2084 5.18164 14.543C5.70675 14.317 6.27577 14.1404 6.88574 14.0195C7.97278 13.8039 9.10805 13.3458 10.0996 12.8135C11.0989 12.277 11.8844 11.7015 12.293 11.293C12.6835 10.9024 13.3165 10.9024 13.707 11.293C14.0975 11.6835 14.0975 12.3165 13.707 12.707C13.1157 13.2984 12.1513 13.9827 11.0459 14.5762C10.0717 15.0992 8.93517 15.58 7.77344 15.8691L7.27441 15.9805C6.81806 16.0709 6.39637 16.2002 6.00977 16.3633C6.27138 16.75 6.57901 17.1079 6.92871 17.4277C8.03928 18.4435 9.49207 19.0045 10.9971 19H11L11.4375 18.9883C15.9508 18.7451 19.9999 14.7758 20 10C20 7.20939 19.4409 5.36982 18.7393 3.78125Z" fill="#E4F2F2"/>
</svg>
