<svg width="24" height="24" viewBox="0 0 24 24" fill="none" xmlns="http://www.w3.org/2000/svg">
<path fill-rule="evenodd" clip-rule="evenodd" d="M17 1C17.5304 1 18.039 1.21088 18.4141 1.58594C18.7891 1.96101 19 2.46957 19 3V5H21L21.2324 5.01367C21.4634 5.04069 21.6885 5.10798 21.8974 5.21289C22.176 5.35278 22.4184 5.55564 22.6045 5.80566C22.7906 6.05572 22.9156 6.34631 22.9697 6.65332C23.0237 6.96022 23.0054 7.27571 22.916 7.57422C22.9145 7.57915 22.9127 7.58396 22.9111 7.58887L21.8555 10.9219L21.8525 10.9297C21.6563 11.5315 21.2749 12.0559 20.7627 12.4277C20.3143 12.7531 19.7856 12.9479 19.2363 12.9912L19 13H17V21C17 22.1046 16.1046 23 15 23H8.99999C7.89544 23 6.99999 22.1046 6.99999 21V13H4.99999C4.36721 13.0002 3.75058 12.8001 3.23827 12.4287C2.72588 12.0572 2.34399 11.5332 2.14745 10.9316L2.14452 10.9229L1.08886 7.58887C1.0873 7.58396 1.08545 7.57915 1.08397 7.57422C0.99454 7.27571 0.976248 6.96022 1.03026 6.65332C1.08435 6.34631 1.20936 6.05573 1.3955 5.80566C1.58163 5.55561 1.82396 5.35279 2.10253 5.21289C2.38105 5.07303 2.68832 5 2.99999 5H17V3H14C13.4477 2.99997 13 2.55227 13 2C13 1.44773 13.4477 1.00003 14 1H17ZM8.99999 21H15V11H8.99999V21ZM4.04882 10.3105L4.10936 10.4561C4.18078 10.5954 4.28416 10.7168 4.4121 10.8096C4.58291 10.9334 4.78901 11.0001 4.99999 11H6.99999C6.99999 9.89545 7.89544 9.00003 8.99999 9H15C16.1046 9 17 9.89543 17 11H19C19.211 11.0001 19.4171 10.9335 19.5879 10.8096C19.7587 10.6856 19.8857 10.5102 19.9512 10.3096L21 7H2.99999L4.04882 10.3105Z" fill="#E4F2F2"/>
</svg>
