<svg width="24" height="24" viewBox="0 0 24 24" fill="none" xmlns="http://www.w3.org/2000/svg">
<path d="M12 6.00048C12.5521 6.00073 13 6.44835 13 7.00048C12.9997 7.55239 12.5519 8.00023 12 8.00048C9.75229 8.00048 8.00001 9.75276 8.00001 12.0005C7.99975 12.5524 7.55192 13.0002 7.00001 13.0005C6.44788 13.0005 6.00027 12.5525 6.00001 12.0005C6.00001 8.64819 8.64772 6.00048 12 6.00048Z" fill="#E4F2F2"/>
<path fill-rule="evenodd" clip-rule="evenodd" d="M17.1982 1.48387C17.9289 1.10729 18.7584 0.96543 19.5732 1.08348C20.4161 1.20574 21.1975 1.59752 21.7998 2.19969C22.4019 2.80187 22.7937 3.58256 22.916 4.42528C23.0355 5.24872 22.8894 6.08749 22.5039 6.82372C22.4486 6.95766 22.3878 7.09784 22.333 7.21923C22.267 7.36549 22.2057 7.49997 22.1523 7.63329C22.0386 7.91759 21.9991 8.09718 21.999 8.1997V11.9995C21.999 14.6517 20.9457 17.1954 19.0703 19.0708C17.195 20.9461 14.6512 21.9995 11.999 21.9995H8.19922C8.19645 21.9996 8.18288 22.0003 8.15723 22.0044C8.12655 22.0093 8.08562 22.0181 8.03419 22.0317C7.92904 22.0596 7.8028 22.1021 7.65821 22.1577C7.5146 22.2129 7.36659 22.2763 7.21485 22.3413C7.08535 22.3968 6.94222 22.4568 6.81348 22.5093C6.07958 22.891 5.24463 23.0354 4.42481 22.9165C3.5821 22.7942 2.8014 22.4024 2.19922 21.8003C1.59705 21.198 1.20527 20.4166 1.08301 19.5737C0.964537 18.756 1.10771 17.9234 1.48731 17.1909C1.54406 17.0523 1.60911 16.9068 1.66602 16.7807C1.73211 16.6344 1.79235 16.4991 1.84571 16.3657C1.9593 16.0817 1.99891 15.9028 1.99903 15.8003V11.9995C1.99916 9.34752 3.05347 6.80443 4.92872 4.92919C6.80396 3.05394 9.34705 1.99964 11.999 1.9995H15.7998C15.803 1.99935 15.8167 1.99863 15.8418 1.99462C15.8725 1.98968 15.9134 1.98092 15.9648 1.96727C16.07 1.93937 16.1963 1.89689 16.3408 1.8413C16.4842 1.78613 16.6317 1.72361 16.7832 1.65868C16.9173 1.60119 17.0659 1.53752 17.1982 1.48387ZM19.2861 3.06298C18.8702 3.00278 18.4455 3.0783 18.0762 3.2788C18.042 3.29731 18.0068 3.31418 17.9707 3.3286C17.8605 3.37269 17.7331 3.42822 17.5713 3.49755C17.4169 3.56369 17.2398 3.6388 17.0586 3.70848C16.7345 3.83314 16.254 3.99938 15.7998 3.9995H11.999C9.87748 3.99964 7.84295 4.84308 6.34278 6.34325C4.84261 7.84342 3.99916 9.87795 3.99903 11.9995V15.8003C3.99893 16.2976 3.83925 16.7686 3.70313 17.1089C3.63151 17.2879 3.5544 17.4598 3.48926 17.604C3.42028 17.7567 3.36813 17.8712 3.32813 17.9712C3.31371 18.0072 3.29684 18.0425 3.27833 18.0766C3.07782 18.446 3.00231 18.8707 3.06251 19.2866C3.12285 19.7027 3.31607 20.0889 3.61329 20.3862C3.9105 20.6834 4.29601 20.8766 4.71192 20.937C5.12787 20.9973 5.55244 20.9216 5.92188 20.7212L6.02833 20.6714C6.1385 20.6273 6.26606 20.5717 6.42774 20.5024C6.58208 20.4363 6.75929 20.3612 6.94044 20.2915C7.26459 20.1668 7.74493 19.9996 8.19922 19.9995H11.999C14.1208 19.9995 16.156 19.157 17.6563 17.6567C19.1565 16.1564 19.999 14.1212 19.999 11.9995V8.1997C19.9991 7.70235 20.1598 7.23144 20.2959 6.8911C20.3675 6.71205 20.4446 6.54022 20.5098 6.39598C20.5788 6.24324 20.6309 6.12877 20.6709 6.0288L20.7207 5.92235C20.9211 5.55291 20.9969 5.12835 20.9365 4.71239C20.8761 4.29648 20.6829 3.91098 20.3857 3.61376C20.0884 3.31654 19.7022 3.12332 19.2861 3.06298Z" fill="#E4F2F2"/>
</svg>
