<svg width="24" height="24" viewBox="0 0 24 24" fill="none" xmlns="http://www.w3.org/2000/svg">
<path fill-rule="evenodd" clip-rule="evenodd" d="M12 1C14.3869 1 16.6764 1.94791 18.3643 3.63574C20.0521 5.32357 21 7.61305 21 10V19C21 20.0609 20.5783 21.078 19.8281 21.8281C19.1248 22.5314 18.1869 22.9461 17.1982 22.9951L17 23C15.9391 23 14.922 22.5783 14.1719 21.8281C13.4217 21.078 13 20.0609 13 19V14C13 13.2428 13.2459 12.5062 13.7002 11.9004L14 11.5L14.0996 11.3574C14.3192 11.0178 14.4537 10.6291 14.4902 10.2246C14.5319 9.76221 14.444 9.2971 14.2363 8.88184C14.0287 8.46657 13.7094 8.11713 13.3145 7.87305C12.969 7.65953 12.5773 7.53397 12.1738 7.50586L12 7.5C11.5357 7.5 11.0805 7.62898 10.6855 7.87305C10.2906 8.11713 9.9713 8.46657 9.76367 8.88184C9.55604 9.2971 9.46807 9.76221 9.50977 10.2246C9.54964 10.6667 9.70765 11.0893 9.96484 11.4502C10.2892 11.772 10.5489 12.1534 10.7266 12.5752C10.8955 12.9765 10.9883 13.4057 11 13.8398V19L10.9951 19.1963C10.9726 19.6544 10.8712 20.1056 10.6953 20.5303C10.4943 21.0156 10.1996 21.4567 9.82812 21.8281C9.45669 22.1996 9.01558 22.4943 8.53027 22.6953C8.04506 22.8962 7.52517 23 7 23C6.47483 23 5.95494 22.8962 5.46973 22.6953C4.98442 22.4943 4.54331 22.1996 4.17188 21.8281C3.80044 21.4567 3.50571 21.0156 3.30469 20.5303C3.12883 20.1056 3.02739 19.6544 3.00488 19.1963L3 19V10C3 7.61305 3.94791 5.32357 5.63574 3.63574C7.32357 1.94791 9.61305 1 12 1ZM12 3C10.1435 3 8.36256 3.73705 7.0498 5.0498C5.73705 6.36256 5 8.14348 5 10V19C5 19.2626 5.05183 19.523 5.15234 19.7656C5.25285 20.0082 5.40029 20.2284 5.58594 20.4141C5.77159 20.5997 5.99183 20.7471 6.23438 20.8477C6.47703 20.9482 6.73736 21 7 21C7.26264 21 7.52297 20.9482 7.76562 20.8477C8.00818 20.7471 8.22841 20.5997 8.41406 20.4141C8.59971 20.2284 8.74715 20.0082 8.84766 19.7656C8.94817 19.523 9 19.2626 9 19V13.9736C9.00564 13.7604 8.96656 13.5481 8.88379 13.3516C8.80107 13.1551 8.67682 12.9789 8.52051 12.834C8.47656 12.7933 8.43636 12.7481 8.40039 12.7002C7.89901 12.0317 7.59364 11.2366 7.51855 10.4043C7.4435 9.57197 7.60087 8.73478 7.97461 7.9873C8.34831 7.2399 8.923 6.61122 9.63379 6.17188C10.3447 5.73252 11.1643 5.5 12 5.5L12.3125 5.51074C13.0389 5.5613 13.7442 5.78745 14.3662 6.17188C15.077 6.61122 15.6517 7.2399 16.0254 7.9873C16.3991 8.73478 16.5565 9.57197 16.4814 10.4043C16.4064 11.2366 16.101 12.0317 15.5996 12.7002L15.2998 13.0996C15.1051 13.3593 15 13.6754 15 14V19C15 19.5304 15.2109 20.039 15.5859 20.4141C15.961 20.7891 16.4696 21 17 21L17.1973 20.9902C17.6553 20.9449 18.0858 20.7423 18.4141 20.4141C18.7423 20.0858 18.9449 19.6553 18.9902 19.1973L19 19V10C19 8.14348 18.2629 6.36256 16.9502 5.0498C15.7194 3.819 14.077 3.09452 12.3467 3.00879L12 3Z" fill="#E4F2F2"/>
</svg>
