<svg width="24" height="24" viewBox="0 0 24 24" fill="none" xmlns="http://www.w3.org/2000/svg">
<path d="M10.2441 6.40332C11.0482 6.06267 11.9344 5.96308 12.7939 6.11719C13.6536 6.27136 14.4503 6.67261 15.0859 7.27148C15.4878 7.65018 15.5065 8.28359 15.1279 8.68555C14.7492 9.08749 14.1158 9.1063 13.7139 8.72754C13.3608 8.39498 12.9188 8.17162 12.4414 8.08594C11.9639 8.0003 11.4712 8.05586 11.0244 8.24512C10.5777 8.4344 10.1955 8.74972 9.9248 9.15234C9.65427 9.55487 9.5067 10.0278 9.5 10.5127V11H10C10.5523 11 11 11.4477 11 12C11 12.5523 10.5523 13 10 13H9.5V16H10C10.5523 16 11 16.4477 11 17C11 17.5523 10.5523 18 10 18H7C6.44772 18 6 17.5523 6 17C6 16.4477 6.44772 16 7 16H7.5V13H7C6.44772 13 6 12.5523 6 12C6 11.4477 6.44772 11 7 11H7.5V10.4863L7.5166 10.1602C7.58202 9.40242 7.83848 8.67133 8.26465 8.03711C8.75187 7.31228 9.43999 6.74406 10.2441 6.40332Z" fill="#E4F2F2"/>
<path d="M15.6025 11.0049C16.1067 11.0562 16.5 11.4823 16.5 12V16H17C17.5523 16 18 16.4477 18 17C18 17.5523 17.5523 18 17 18H14C13.4477 18 13 17.5523 13 17C13 16.4477 13.4477 16 14 16H14.5V13H14C13.4477 13 13 12.5523 13 12C13 11.4477 13.4477 11 14 11H15.5L15.6025 11.0049Z" fill="#E4F2F2"/>
<path fill-rule="evenodd" clip-rule="evenodd" d="M19 2C20.6569 2 22 3.34315 22 5V19C22 20.6569 20.6569 22 19 22H5C3.34315 22 2 20.6569 2 19V5C2 3.34315 3.34315 2 5 2H19ZM5 4C4.44772 4 4 4.44772 4 5V19C4 19.5523 4.44772 20 5 20H19C19.5523 20 20 19.5523 20 19V5C20 4.44772 19.5523 4 19 4H5Z" fill="#E4F2F2"/>
</svg>
