<svg width="24" height="24" viewBox="0 0 24 24" fill="none" xmlns="http://www.w3.org/2000/svg">
<path d="M10.7061 3.16992C11.769 2.88518 12.8964 2.9598 13.9131 3.38086C14.9299 3.80199 15.7797 4.54696 16.3301 5.5C16.6061 5.97821 16.442 6.59005 15.9639 6.86621C15.4856 7.14214 14.8738 6.97818 14.5977 6.5C14.2675 5.92838 13.7583 5.48121 13.1484 5.22852C12.5384 4.97587 11.8614 4.93166 11.2236 5.10254C10.5858 5.27344 10.0221 5.65002 9.62012 6.17383C9.21817 6.69765 9.00009 7.33974 9 8V11H10C10.5522 11 10.9999 11.4478 11 12C11 12.5523 10.5523 13 10 13H9V19H10C10.5522 19 10.9999 19.4478 11 20C11 20.5523 10.5523 21 10 21H6C5.44772 21 5 20.5523 5 20C5.00006 19.4478 5.44775 19 6 19H7V13H6C5.44772 13 5 12.5523 5 12C5.00006 11.4478 5.44775 11 6 11H7V8C7.00011 6.89947 7.36323 5.82915 8.0332 4.95606C8.70323 4.08297 9.643 3.45477 10.7061 3.16992Z" fill="#E4F2F2"/>
<path d="M16.1025 11.0049C16.6066 11.0562 16.9999 11.4824 17 12V19H18C18.5522 19 18.9999 19.4478 19 20C19 20.5523 18.5523 21 18 21H14C13.4477 21 13 20.5523 13 20C13.0001 19.4478 13.4478 19 14 19H15V13H14C13.4477 13 13 12.5523 13 12C13.0001 11.4478 13.4478 11 14 11H16L16.1025 11.0049Z" fill="#E4F2F2"/>
</svg>
