<svg width="24" height="24" viewBox="0 0 24 24" fill="none" xmlns="http://www.w3.org/2000/svg">
<path d="M14 21C14.5522 21 15 21.4477 15 22C14.9999 22.5522 14.5522 23 14 23H9.99999C9.44773 23 9.00003 22.5522 8.99999 22C8.99999 21.4477 9.4477 21 9.99999 21H14Z" fill="#E4F2F2"/>
<path d="M1.29295 1.29297C1.68348 0.902445 2.31649 0.902445 2.70702 1.29297L22.707 21.293C23.0975 21.6835 23.0975 22.3165 22.707 22.707C22.3165 23.0975 21.6835 23.0975 21.293 22.707L6.98436 8.39844C6.99972 8.55422 7.02311 8.70958 7.05858 8.86328C7.20608 9.50245 7.52182 10.0888 7.97069 10.5625L8.17186 10.7588L8.20702 10.793C8.96319 11.5492 9.72472 12.5202 9.98143 13.8037C10.0896 14.3451 9.73753 14.872 9.19627 14.9805C8.65489 15.0886 8.12795 14.7376 8.01952 14.1963C7.87625 13.48 7.43662 12.8507 6.79295 12.207C5.95413 11.4338 5.36703 10.4249 5.11034 9.3125C4.90104 8.40524 4.91824 7.46406 5.15721 6.57129L1.29295 2.70703C0.90243 2.31651 0.90243 1.68349 1.29295 1.29297Z" fill="#E4F2F2"/>
<path d="M15 17C15.5522 17 16 17.4477 16 18C15.9999 18.5522 15.5522 19 15 19H8.99999C8.44773 19 8.00003 18.5522 7.99999 18C7.99999 17.4477 8.4477 17 8.99999 17H15Z" fill="#E4F2F2"/>
<path d="M11.6885 1.01758C12.9497 0.961426 14.2035 1.24788 15.3154 1.8457C16.4271 2.44357 17.3572 3.33115 18.0058 4.41406C18.6544 5.49705 18.9976 6.7357 19 7.99805V8C18.9999 9.43448 18.517 10.7738 17.5478 11.8643C17.1809 12.277 16.5485 12.3141 16.1357 11.9473C15.7229 11.5803 15.6858 10.9479 16.0527 10.5352C16.6827 9.82631 16.9995 8.96622 17 8.00195L16.9883 7.66406C16.9338 6.88022 16.6954 6.1182 16.29 5.44141C15.8267 4.6678 15.1624 4.03349 14.3681 3.60645C13.5739 3.17944 12.6782 2.97553 11.7773 3.01563C10.8766 3.05581 10.003 3.33911 9.24999 3.83496C8.7888 4.13856 8.16898 4.01089 7.86522 3.54981C7.56148 3.08858 7.68918 2.46881 8.15038 2.16504C9.20474 1.47075 10.4273 1.0738 11.6885 1.01758Z" fill="#E4F2F2"/>
</svg>
