<svg width="24" height="24" viewBox="0 0 24 24" fill="none" xmlns="http://www.w3.org/2000/svg">
<path fill-rule="evenodd" clip-rule="evenodd" d="M6.62892 2.57178C9.353 1.48229 11.7513 2.0066 12.7363 3.68115C13.2229 4.5084 13.2615 5.50597 12.8184 6.40381C12.3816 7.28847 11.5236 7.99713 10.3506 8.43701C10.3283 8.44536 10.3051 8.45273 10.2822 8.45947C6.15675 9.67293 4.54491 11.4019 4.13575 12.6294C3.78056 13.696 4.24857 14.5982 5.1338 14.9819L5.31642 15.0513L5.37111 15.0718C6.17845 15.3947 7.00393 15.2099 8.02638 14.5054C9.07542 13.7824 10.1179 12.6578 11.2734 11.438C12.3769 10.2732 13.6003 9.00193 14.9033 8.24463C15.5708 7.85677 16.3083 7.57357 17.1055 7.52392C17.9176 7.4735 18.7273 7.67068 19.5147 8.14306C21.0743 9.07899 21.8602 10.5931 22.1055 12.2007C22.3478 13.7899 22.0754 15.5132 21.4981 17.0415C21.4282 17.2265 21.3521 17.41 21.2725 17.5913C21.4671 17.8702 21.662 18.1655 21.8535 18.479C22.1413 18.9502 21.9926 19.5661 21.5215 19.854C21.057 20.1376 20.4521 19.9969 20.1592 19.5415C19.7726 20.0721 19.3405 20.5499 18.8692 20.9458C17.7261 21.9057 16.2453 22.4693 14.6836 21.9487C14.6389 21.9338 14.5949 21.9161 14.5527 21.895C13.005 21.1211 12.1967 19.8262 12.0596 18.4683C11.9269 17.1513 12.4322 15.8226 13.3877 14.9497C14.3773 14.0462 15.8118 13.6683 17.3731 14.2222C18.183 14.5096 18.9972 15.0372 19.8008 15.8257C20.1553 14.6941 20.2848 13.5247 20.1289 12.5024C19.9523 11.3448 19.4253 10.4219 18.4854 9.85791C18.0228 9.58039 17.6126 9.49623 17.2295 9.52002C16.8318 9.54484 16.3965 9.69038 15.9082 9.97412C14.8991 10.5607 13.8718 11.6031 12.7256 12.813C11.6316 13.9678 10.4242 15.2813 9.16114 16.1519C7.87145 17.0406 6.32113 17.6058 4.62892 16.9292C2.66452 16.244 1.49989 14.2125 2.23829 11.9966C2.95117 9.85794 5.32423 7.84439 9.66407 6.55713C10.4798 6.24785 10.8692 5.83524 11.0254 5.51904C11.176 5.21383 11.151 4.93003 11.0127 4.69482C10.7476 4.24444 9.64663 3.51899 7.37111 4.4292C6.85853 4.63383 6.27638 4.38406 6.0713 3.87158C5.86636 3.35896 6.11645 2.777 6.62892 2.57178ZM16.7041 16.1069C15.8439 15.8019 15.1841 16.0174 14.7363 16.4263C14.2551 16.8659 13.9795 17.569 14.0498 18.2671C14.1145 18.9082 14.4779 19.5938 15.3789 20.0688C16.0508 20.267 16.7975 20.0741 17.583 19.4145C18.0659 19.0089 18.5198 18.4525 18.9131 17.8013C18.0795 16.8305 17.321 16.3258 16.7041 16.1069Z" fill="#E4F2F2"/>
</svg>
