<svg width="24" height="24" viewBox="0 0 24 24" fill="none" xmlns="http://www.w3.org/2000/svg">
<path fill-rule="evenodd" clip-rule="evenodd" d="M21 14C21.5523 14 22 14.4477 22 15C22 15.5523 21.5523 16 21 16C19.4087 16 17.883 16.6326 16.7578 17.7578C15.6326 18.883 15 20.4087 15 22C15 22.5523 14.5523 23 14 23H10C9.73478 23 9.4805 22.8946 9.29297 22.707C9.10543 22.5195 9 22.2652 9 22C9 20.4087 8.36741 18.883 7.24219 17.7578C6.11697 16.6326 4.5913 16 3 16C2.44772 16 2 15.5523 2 15C2 14.4477 2.44772 14 3 14H21ZM8.28906 16C8.41451 16.1106 8.53827 16.2238 8.65723 16.3428C9.91977 17.6053 10.7137 19.2471 10.9346 21H13.0654C13.2863 19.2471 14.0802 17.6053 15.3428 16.3428C15.4617 16.2238 15.5855 16.1106 15.7109 16H8.28906Z" fill="#E4F2F2"/>
<path fill-rule="evenodd" clip-rule="evenodd" d="M19 1C19.5523 1 20 1.44772 20 2V3.1748C20.4174 3.32266 20.802 3.55977 21.1211 3.87891C21.6837 4.44151 22 5.20435 22 6V8C22 10.2523 20.2523 12 18 12H16C15.2043 12 14.4415 11.6837 13.8789 11.1211C13.5598 10.802 13.3236 10.4174 13.1758 10H10.8242C10.6764 10.4174 10.4402 10.802 10.1211 11.1211C9.55849 11.6837 8.79565 12 8 12H6C3.74772 12 2 10.2523 2 8V6C2 5.20435 2.3163 4.44152 2.87891 3.87891C3.19805 3.55976 3.58249 3.32259 4 3.1748V2C4 1.44772 4.44772 1 5 1C5.55228 1 6 1.44772 6 2V3.08105C8.53919 3.49441 10.5045 5.46083 10.918 8H13.082C13.4955 5.46098 15.4608 3.49441 18 3.08105V2C18 1.44772 18.4477 1 19 1ZM5 5C4.73478 5 4.4805 5.10543 4.29297 5.29297C4.10543 5.4805 4 5.73478 4 6V8C4 9.14772 4.85228 10 6 10H8C8.26522 10 8.51949 9.89457 8.70703 9.70703C8.89457 9.51949 9 9.26522 9 9C9 6.75229 7.24771 5 5 5ZM19 5C16.7523 5 15 6.75229 15 9C15 9.26522 15.1054 9.51949 15.293 9.70703C15.4805 9.89457 15.7348 10 16 10H18C19.1477 10 20 9.14772 20 8V6C20 5.73478 19.8946 5.48051 19.707 5.29297C19.5195 5.10543 19.2652 5 19 5Z" fill="#E4F2F2"/>
</svg>
