<svg width="24" height="24" viewBox="0 0 24 24" fill="none" xmlns="http://www.w3.org/2000/svg">
<path d="M1.29297 1.29297C1.68349 0.902445 2.31651 0.902445 2.70703 1.29297L22.707 21.293C23.0975 21.6835 23.0975 22.3165 22.707 22.707C22.3165 23.0975 21.6835 23.0975 21.293 22.707L11.5859 13H8C7.44774 13 7.00004 12.5523 7 12C7 11.4477 7.44772 11 8 11H9.58594L6.60449 8.01856C5.68888 8.10955 4.82823 8.51552 4.17188 9.17188C3.42175 9.92202 3 10.9392 3 12C3.00002 13.0608 3.42175 14.078 4.17188 14.8281C4.92202 15.5782 5.93915 16 7 16H9C9.55229 16 10 16.4477 10 17C9.99996 17.5523 9.55226 18 9 18H7C5.40872 18 3.88303 17.3674 2.75781 16.2422C1.63261 15.117 1.00002 13.5913 1 12C1 10.4087 1.63262 8.88303 2.75781 7.75781C3.38333 7.13229 4.13274 6.6593 4.94824 6.36231L1.29297 2.70703C0.902457 2.31652 0.902482 1.6835 1.29297 1.29297Z" fill="#E4F2F2"/>
<path d="M17 6C18.1143 6 19.2064 6.31068 20.1543 6.89649C21.102 7.48221 21.8679 8.31999 22.3662 9.31641C22.8645 10.313 23.0757 11.4293 22.9756 12.5391C22.8755 13.6487 22.4682 14.7083 21.7998 15.5996C21.4685 16.0413 20.8422 16.131 20.4004 15.7998C19.9586 15.4685 19.869 14.8422 20.2002 14.4004C20.6459 13.8062 20.9166 13.0991 20.9834 12.3594C21.0501 11.6196 20.9103 10.8753 20.5781 10.2109C20.2459 9.54653 19.7344 8.98819 19.1025 8.59766C18.5496 8.25593 17.9231 8.05465 17.2773 8.00977L17 8H15C14.4477 8 14 7.55225 14 7C14 6.44772 14.4477 6 15 6H17Z" fill="#E4F2F2"/>
</svg>
