<svg width="24" height="24" viewBox="0 0 24 24" fill="none" xmlns="http://www.w3.org/2000/svg">
<path d="M10.4248 8.01074C11.2829 8.0722 12.118 8.31704 12.873 8.72949C13.6281 9.142 14.2854 9.71242 14.8008 10.4014C15.1315 10.8435 15.0415 11.4699 14.5996 11.8008C14.1574 12.1315 13.53 12.0417 13.1992 11.5996C12.8556 11.1403 12.4174 10.7594 11.914 10.4844C11.4108 10.2095 10.8542 10.0459 10.2822 10.0049C9.71023 9.96392 9.13592 10.0467 8.59862 10.2471C8.06122 10.4475 7.57248 10.7613 7.16697 11.167L4.17869 14.1543C3.4501 14.9087 3.04751 15.92 3.05662 16.9688C3.06579 18.0175 3.48692 19.0211 4.2285 19.7627C4.96999 20.504 5.97302 20.9244 7.02147 20.9336C8.07025 20.9427 9.08151 20.5392 9.83592 19.8105L11.5332 18.1133C11.9237 17.7228 12.5567 17.7228 12.9472 18.1133C13.3377 18.5038 13.3378 19.1368 12.9472 19.5273L11.2246 21.25C10.0931 22.3426 8.57772 22.9472 7.00487 22.9336C5.43188 22.9199 3.92684 22.289 2.81444 21.1768C1.70209 20.0644 1.0704 18.5594 1.05662 16.9863C1.04295 15.4132 1.64825 13.8972 2.74119 12.7656L2.75291 12.7529L5.75291 9.75293C6.36114 9.14452 7.09336 8.67373 7.8994 8.37305C8.70539 8.07242 9.56675 7.94932 10.4248 8.01074Z" fill="#E4F2F2"/>
<path d="M16.9961 1.06641C18.569 1.08018 20.0742 1.71201 21.1865 2.82422C22.2987 3.93657 22.9296 5.44175 22.9433 7.01465C22.9569 8.5875 22.3524 10.1029 21.2597 11.2344L18.2471 14.2471C17.6388 14.8555 16.9066 15.3263 16.1006 15.627C15.2946 15.9275 14.4332 16.0507 13.5752 15.9893C12.7171 15.9278 11.8819 15.683 11.1269 15.2705C10.3721 14.858 9.71446 14.2875 9.1992 13.5986C8.86883 13.1564 8.95928 12.5299 9.40135 12.1992C9.8435 11.8687 10.47 11.9594 10.8008 12.4014C11.1442 12.8605 11.5828 13.2407 12.0859 13.5156C12.5891 13.7905 13.1459 13.9541 13.7178 13.9951C14.2897 14.0361 14.8641 13.9532 15.4014 13.7529C15.9388 13.5525 16.4275 13.2387 16.833 12.833L19.8203 9.8457C20.5489 9.0913 20.9525 8.08003 20.9433 7.03125C20.9341 5.98289 20.5137 4.97972 19.7724 4.23828C19.0309 3.49685 18.0271 3.07557 16.9785 3.06641C15.9298 3.05735 14.9194 3.46092 14.165 4.18945L14.164 4.18848L12.4551 5.88867C12.0634 6.27806 11.4304 6.27643 11.041 5.88477C10.6519 5.49308 10.6533 4.86 11.0449 4.4707L12.7646 2.76074C12.768 2.75738 12.7719 2.75429 12.7754 2.75098C13.9069 1.65809 15.423 1.0528 16.9961 1.06641Z" fill="#E4F2F2"/>
</svg>
