<svg width="24" height="24" viewBox="0 0 24 24" fill="none" xmlns="http://www.w3.org/2000/svg">
<path d="M2.29297 13.293C2.68349 12.9024 3.31651 12.9024 3.70703 13.293L6.70703 16.293C7.09748 16.6835 7.09753 17.3165 6.70703 17.707L3.70703 20.707C3.31653 21.0975 2.6835 21.0975 2.29297 20.707C1.90245 20.3165 1.90245 19.6835 2.29297 19.293L4.58594 17L2.29297 14.707C1.90245 14.3165 1.90245 13.6835 2.29297 13.293Z" fill="#E4F2F2"/>
<path d="M21 18C21.5522 18 22 18.4477 22 19C22 19.5522 21.5522 20 21 20H10C9.44774 20 9.00004 19.5523 9 19C9 18.4477 9.44772 18 10 18H21Z" fill="#E4F2F2"/>
<path d="M21 11C21.5522 11 22 11.4477 22 12C22 12.5522 21.5522 13 21 13H10C9.44774 13 9.00004 12.5523 9 12C9 11.4477 9.44772 11 10 11H21Z" fill="#E4F2F2"/>
<path d="M2.29297 3.29297C2.68349 2.90245 3.31651 2.90245 3.70703 3.29297L6.70703 6.29297C7.09748 6.6835 7.09753 7.31653 6.70703 7.70703L3.70703 10.707C3.31653 11.0975 2.6835 11.0975 2.29297 10.707C1.90245 10.3165 1.90245 9.68349 2.29297 9.29297L4.58594 7L2.29297 4.70703C1.90245 4.31651 1.90245 3.68349 2.29297 3.29297Z" fill="#E4F2F2"/>
<path d="M21 4C21.5522 4.00004 22 4.44774 22 5C22 5.55223 21.5522 5.99996 21 6H10C9.44774 6 9.00004 5.55225 9 5C9 4.44772 9.44772 4 10 4H21Z" fill="#E4F2F2"/>
</svg>
