<svg width="24" height="24" viewBox="0 0 24 24" fill="none" xmlns="http://www.w3.org/2000/svg">
<path d="M8.29295 14.293C8.68348 13.9025 9.31651 13.9025 9.70702 14.293C10.0975 14.6835 10.0975 15.3165 9.70702 15.707L5.70702 19.707C5.3165 20.0975 4.68348 20.0975 4.29295 19.707L2.29295 17.707C1.90243 17.3165 1.90243 16.6835 2.29295 16.293C2.68348 15.9025 3.3165 15.9025 3.70702 16.293L4.99999 17.5859L8.29295 14.293Z" fill="#E4F2F2"/>
<path d="M21 18C21.5522 18 22 18.4477 22 19C22 19.5523 21.5522 20 21 20H13C12.4477 20 12 19.5523 12 19C12 18.4477 12.4477 18 13 18H21Z" fill="#E4F2F2"/>
<path d="M21 11C21.5522 11 22 11.4477 22 12C22 12.5523 21.5522 13 21 13H13C12.4477 13 12 12.5523 12 12C12 11.4477 12.4477 11 13 11H21Z" fill="#E4F2F2"/>
<path d="M8.29295 4.29297C8.68348 3.90248 9.31651 3.90246 9.70702 4.29297C10.0975 4.68348 10.0975 5.31652 9.70702 5.70703L5.70702 9.70703C5.3165 10.0975 4.68348 10.0975 4.29295 9.70703L2.29295 7.70703C1.90243 7.31651 1.90243 6.68349 2.29295 6.29297C2.68348 5.90248 3.3165 5.90246 3.70702 6.29297L4.99999 7.58594L8.29295 4.29297Z" fill="#E4F2F2"/>
<path d="M21 4C21.5522 4.00004 22 4.44774 22 5C22 5.55226 21.5522 5.99996 21 6H13C12.4477 6 12 5.55228 12 5C12 4.44772 12.4477 4 13 4H21Z" fill="#E4F2F2"/>
</svg>
