<svg width="24" height="24" viewBox="0 0 24 24" fill="none" xmlns="http://www.w3.org/2000/svg">
<path d="M21 18C21.5522 18 22 18.4477 22 19C22 19.5523 21.5522 20 21 20H11C10.4477 20 10 19.5523 10 19C10 18.4477 10.4477 18 11 18H21Z" fill="#E4F2F2"/>
<path d="M6.29297 7.29297C6.6835 6.90248 7.31652 6.90246 7.70703 7.29297C8.09751 7.68348 8.09751 8.31652 7.70703 8.70703L4.41406 12L7.70703 15.293C8.09751 15.6835 8.09751 16.3165 7.70703 16.707C7.31652 17.0975 6.6835 17.0975 6.29297 16.707L2.29297 12.707C1.90244 12.3165 1.90244 11.6835 2.29297 11.293L6.29297 7.29297Z" fill="#E4F2F2"/>
<path d="M21 11C21.5522 11 22 11.4477 22 12C22 12.5523 21.5522 13 21 13H11C10.4477 13 10 12.5523 10 12C10 11.4477 10.4477 11 11 11H21Z" fill="#E4F2F2"/>
<path d="M21 4C21.5522 4.00004 22 4.44774 22 5C22 5.55226 21.5522 5.99996 21 6H11C10.4477 6 10 5.55228 10 5C10 4.44772 10.4477 4 11 4H21Z" fill="#E4F2F2"/>
</svg>
