<svg width="24" height="24" viewBox="0 0 24 24" fill="none" xmlns="http://www.w3.org/2000/svg">
<path d="M16 18C16.5523 18 17 18.4477 17 19C17 19.5522 16.5523 20 16 20H3C2.44774 20 2.00004 19.5522 2 19C2 18.4477 2.44772 18 3 18H16Z" fill="#E4F2F2"/>
<path d="M15.293 1.29297C15.6835 0.902445 16.3165 0.902445 16.707 1.29297C17.0975 1.6835 17.0975 2.31652 16.707 2.70703L15.4141 4H19C19.7957 4 20.5585 4.3163 21.1211 4.87891C21.6837 5.44151 22 6.20437 22 7V19C22 19.5522 21.5523 20 21 20C20.4477 20 20 19.5522 20 19V7C20 6.7348 19.8945 6.4805 19.707 6.29297C19.5429 6.12883 19.3276 6.02758 19.0986 6.00488L19 6H15.4141L16.707 7.29297C17.0975 7.6835 17.0975 8.31652 16.707 8.70703C16.3165 9.09751 15.6835 9.09751 15.293 8.70703L12.293 5.70703C12.2618 5.6759 12.2342 5.64237 12.208 5.6084C12.1942 5.59049 12.1805 5.57255 12.168 5.55371C12.142 5.51472 12.1196 5.47412 12.0996 5.43262C12.0777 5.38704 12.0579 5.34011 12.043 5.29102C12.0379 5.27429 12.0345 5.25716 12.0303 5.24024C12.0112 5.16319 12 5.08292 12 5C12 4.92032 12.0097 4.84285 12.0273 4.76856C12.0322 4.748 12.0368 4.7273 12.043 4.70703C12.0579 4.65828 12.0778 4.61168 12.0996 4.56641C12.1188 4.52661 12.1403 4.48768 12.165 4.4502C12.2024 4.39354 12.2452 4.34078 12.293 4.29297L15.293 1.29297Z" fill="#E4F2F2"/>
<path d="M16 11C16.5523 11 17 11.4477 17 12C17 12.5523 16.5523 13 16 13H3C2.44774 13 2.00004 12.5523 2 12C2 11.4477 2.44772 11 3 11H16Z" fill="#E4F2F2"/>
<path d="M9 4C9.55228 4 10 4.44772 10 5C9.99996 5.55225 9.55226 6 9 6H3C2.44774 6 2.00004 5.55225 2 5C2 4.44772 2.44772 4 3 4H9Z" fill="#E4F2F2"/>
</svg>
