<svg width="24" height="24" viewBox="0 0 24 24" fill="none" xmlns="http://www.w3.org/2000/svg">
<path d="M8.91016 2.48926C10.9184 1.83683 13.0816 1.83683 15.0898 2.48926C15.6149 2.6599 15.9027 3.22394 15.7324 3.74902C15.5616 4.27403 14.9968 4.56214 14.4717 4.3916C12.865 3.86966 11.134 3.86956 9.52734 4.3916C7.9209 4.91371 6.52122 5.93131 5.52832 7.29785C4.53543 8.66457 4.00001 10.3107 4 12C4.00008 13.6892 4.53455 15.3355 5.52734 16.7021C6.52026 18.0687 7.92086 19.0863 9.52734 19.6084C11.1339 20.1304 12.865 20.1303 14.4717 19.6084C16.0783 19.0864 17.4786 18.0687 18.4717 16.7021C19.4646 15.3356 19.9998 13.6892 20 12C20.0002 11.4479 20.4479 11 21 11C21.5523 11 22 11.4487 22 12.001C21.9997 14.1124 21.3309 16.1698 20.0898 17.8779C18.8485 19.5862 17.0982 20.8583 15.0898 21.5107C13.0815 22.1632 10.9175 22.1633 8.90918 21.5107C6.90114 20.8582 5.1513 19.586 3.91016 17.8779C2.66901 16.1696 2.00008 14.1116 2 12C2.00002 9.88834 2.66901 7.83048 3.91016 6.12207C5.15139 4.41376 6.90189 3.14183 8.91016 2.48926Z" fill="#E4F2F2"/>
</svg>
