<svg width="24" height="24" viewBox="0 0 24 24" fill="none" xmlns="http://www.w3.org/2000/svg">
<path fill-rule="evenodd" clip-rule="evenodd" d="M12 1C12.5523 1 13 1.44772 13 2V4H17C18.6569 4 20 5.34315 20 7V11H22C22.5523 11 23 11.4477 23 12C23 12.5523 22.5523 13 22 13H20V17C20 18.6569 18.6569 20 17 20H13V22C13 22.5523 12.5523 23 12 23C11.4477 23 11 22.5523 11 22V20H7C5.34315 20 4 18.6569 4 17V13H2C1.44772 13 1 12.5523 1 12C1 11.4477 1.44772 11 2 11H4V7C4 5.34315 5.34315 4 7 4H11V2C11 1.44772 11.4477 1 12 1ZM7 6C6.44772 6 6 6.44772 6 7V17C6 17.5523 6.44772 18 7 18H17C17.5523 18 18 17.5523 18 17V7C18 6.44772 17.5523 6 17 6H7Z" fill="#E4F2F2"/>
</svg>
