<svg width="24" height="24" viewBox="0 0 24 24" fill="none" xmlns="http://www.w3.org/2000/svg">
<path d="M12 14C13.1046 14 14 14.8954 14 16C14 17.1046 13.1046 18 12 18C10.8954 18 10 17.1046 10 16C10 14.8954 10.8954 14 12 14Z" fill="#E4F2F2"/>
<path fill-rule="evenodd" clip-rule="evenodd" d="M10.4473 1.2041C11.7229 0.862374 13.0758 0.95171 14.2959 1.45703C15.516 1.96241 16.5359 2.85634 17.1963 4C17.4722 4.4782 17.3082 5.09008 16.8301 5.36621C16.3518 5.64223 15.74 5.47817 15.4639 5C15.0236 4.23757 14.3437 3.64159 13.5303 3.30469C12.7169 2.96788 11.8152 2.90888 10.9648 3.13672C10.1144 3.36459 9.36219 3.86602 8.82617 4.56445C8.29019 5.26293 8.00009 6.11958 8 7V9H19C20.6568 9 22 10.3432 22 12V20C22 21.6569 20.6569 23 19 23H5C3.34315 23 2 21.6569 2 20V12C2.00002 10.3432 3.34316 9 5 9H6V7C6.00011 5.67936 6.43627 4.39539 7.24023 3.34766C8.04427 2.29993 9.17158 1.54593 10.4473 1.2041ZM5 11C4.44773 11 4.00002 11.4477 4 12V20C4 20.5523 4.44772 21 5 21H19C19.5523 21 20 20.5523 20 20V12C20 11.4477 19.5523 11 19 11H5Z" fill="#E4F2F2"/>
</svg>
