<svg width="24" height="24" viewBox="0 0 24 24" fill="none" xmlns="http://www.w3.org/2000/svg">
<path fill-rule="evenodd" clip-rule="evenodd" d="M11.3975 1.02539C12.8777 0.87599 14.3607 1.28172 15.5586 2.16406C16.7565 3.04648 17.5837 4.34277 17.8799 5.80078C17.9897 6.342 17.6398 6.87057 17.0986 6.98047C16.5576 7.09009 16.0299 6.74025 15.9199 6.19922C15.7225 5.22711 15.1707 4.36274 14.3721 3.77441C13.5735 3.18623 12.5845 2.91595 11.5977 3.01563C10.6109 3.1154 9.69604 3.57839 9.03125 4.31445C8.36662 5.05053 7.99903 6.00727 8 6.99902V10H19C20.6568 10 22 11.3432 22 13V20C22 21.6569 20.6569 23 19 23H5C3.34315 23 2 21.6569 2 20V13C2.00004 11.3432 3.34317 10 5 10H6V7C5.99879 5.51259 6.54998 4.07755 7.54688 2.97363C8.54418 1.8694 9.91705 1.17493 11.3975 1.02539ZM5 12C4.44774 12 4.00004 12.4478 4 13V20C4 20.5523 4.44772 21 5 21H19C19.5523 21 20 20.5523 20 20V13C20 12.4478 19.5523 12 19 12H5Z" fill="#E4F2F2"/>
</svg>
