<svg width="24" height="24" viewBox="0 0 24 24" fill="none" xmlns="http://www.w3.org/2000/svg">
<path fill-rule="evenodd" clip-rule="evenodd" d="M16 1C16.5523 1 17 1.44772 17 2C17 2.55228 16.5523 3 16 3H15V6H16C17.6569 6 19 7.34315 19 9V19C19 20.3057 18.1645 21.413 17 21.8252V22C17 22.5523 16.5523 23 16 23C15.4477 23 15 22.5523 15 22H9C9 22.5523 8.55228 23 8 23C7.44772 23 7 22.5523 7 22V21.8252C5.83548 21.413 5 20.3057 5 19V9C5 7.34315 6.34315 6 8 6H9V3H8C7.44772 3 7 2.55228 7 2C7 1.44772 7.44772 1 8 1H16ZM8 8C7.44772 8 7 8.44772 7 9V19C7 19.5523 7.44772 20 8 20H9V13C9 12.2043 9.3163 11.4415 9.87891 10.8789C10.4415 10.3163 11.2043 10 12 10C12.7957 10 13.5585 10.3163 14.1211 10.8789C14.6837 11.4415 15 12.2043 15 13V20H16C16.5523 20 17 19.5523 17 19V9C17 8.44772 16.5523 8 16 8H8ZM12 12C11.7348 12 11.4805 12.1054 11.293 12.293C11.1054 12.4805 11 12.7348 11 13V20H13V13C13 12.7348 12.8946 12.4805 12.707 12.293C12.5195 12.1054 12.2652 12 12 12ZM11 6H13V3H11V6Z" fill="#E4F2F2"/>
</svg>
