<svg width="24" height="24" viewBox="0 0 24 24" fill="none" xmlns="http://www.w3.org/2000/svg">
<path fill-rule="evenodd" clip-rule="evenodd" d="M14 2C14.7956 2 15.5585 2.3163 16.1211 2.87891C16.6837 3.44151 17 4.20435 17 5V6H18C19.3261 6 20.5975 6.52716 21.5352 7.46484C22.4728 8.40253 23 9.67392 23 11V19C23 19.7957 22.6837 20.5585 22.1211 21.1211C21.5585 21.6837 20.7957 22 20 22H4C3.20435 22 2.44151 21.6837 1.87891 21.1211C1.3163 20.5585 1 19.7957 1 19V11C1 9.67392 1.52716 8.40253 2.46484 7.46484C3.3439 6.58579 4.51618 6.06719 5.75195 6.00586L6 6H7V5C7 4.20435 7.3163 3.44151 7.87891 2.87891C8.44152 2.3163 9.20435 2 10 2H14ZM3 14V19C3 19.2652 3.10543 19.5195 3.29297 19.707C3.48051 19.8946 3.73478 20 4 20H8C8.26522 20 8.51949 19.8946 8.70703 19.707C8.89457 19.5195 9 19.2652 9 19V14H3ZM11 14V19C11 19.3444 10.937 19.6814 10.8242 20H20C20.2652 20 20.5195 19.8946 20.707 19.707C20.8946 19.5195 21 19.2652 21 19V14H11ZM6 8C5.20435 8 4.44152 8.3163 3.87891 8.87891C3.3163 9.44152 3 10.2044 3 11V12H9V11C9 10.2044 8.6837 9.44152 8.12109 8.87891C7.6289 8.38671 6.98351 8.08291 6.29688 8.01465L6 8ZM9.99902 8C10.6446 8.86049 11 9.91171 11 11V12H21V11C21 10.2044 20.6837 9.44152 20.1211 8.87891C19.5585 8.3163 18.7956 8 18 8H9.99902ZM10 4C9.73478 4 9.4805 4.10543 9.29297 4.29297C9.10543 4.48051 9 4.73478 9 5V6H15V5C15 4.73478 14.8946 4.48051 14.707 4.29297C14.5429 4.12883 14.3276 4.02757 14.0986 4.00488L14 4H10Z" fill="#E4F2F2"/>
</svg>
