<svg width="24" height="24" viewBox="0 0 24 24" fill="none" xmlns="http://www.w3.org/2000/svg">
<path fill-rule="evenodd" clip-rule="evenodd" d="M20 3C20.7957 3 21.5585 3.3163 22.1211 3.87891C22.6837 4.44151 23 5.20435 23 6V15C23 15.5523 22.5523 16 22 16C21.4477 16 21 15.5523 21 15V8.81934L13.5664 13.5439L13.5605 13.5479C13.1512 13.8042 12.6858 13.9546 12.2061 13.9883L12 13.9961C11.4481 13.9961 10.9072 13.8408 10.4395 13.5479L10.4336 13.5439L3 8.81934V18C3 18.5477 3.45228 19 4 19H12C12.5523 19 13 19.4477 13 20C13 20.5523 12.5523 21 12 21H4C2.34772 21 1 19.6523 1 18V6C1 5.20435 1.3163 4.44152 1.87891 3.87891C2.44152 3.3163 3.20435 3 4 3H20ZM4 5C3.73478 5 3.4805 5.10543 3.29297 5.29297C3.10543 5.4805 3 5.73478 3 6V6.4502L11.5 11.8525C11.6496 11.9463 11.8235 11.9961 12 11.9961L12.1318 11.9863C12.2618 11.9679 12.387 11.9227 12.499 11.8525L21 6.4502V6C21 5.73478 20.8946 5.48051 20.707 5.29297C20.5429 5.12883 20.3276 5.02757 20.0986 5.00488L20 5H4Z" fill="#E4F2F2"/>
<path d="M22 18C22.5523 18 23 18.4477 23 19C23 19.5523 22.5523 20 22 20H16C15.4477 20 15 19.5523 15 19C15 18.4477 15.4477 18 16 18H22Z" fill="#E4F2F2"/>
</svg>
