<svg width="24" height="24" viewBox="0 0 24 24" fill="none" xmlns="http://www.w3.org/2000/svg">
<path fill-rule="evenodd" clip-rule="evenodd" d="M18 14C18.8064 14 19.5564 14.2399 20.1846 14.6504C20.1958 14.6577 20.2076 14.6644 20.2188 14.6719L20.2363 14.6836C21.3003 15.4024 22 16.6193 22 18C22 18.498 21.9075 18.9743 21.7412 19.4141C21.7334 19.4347 21.7249 19.4551 21.7168 19.4756C21.6401 19.6686 21.5498 19.8544 21.4453 20.0312L22.707 21.293C23.0976 21.6835 23.0976 22.3165 22.707 22.707C22.3165 23.0976 21.6835 23.0976 21.293 22.707L20.0312 21.4453C19.4358 21.7971 18.7417 22 18 22C17.1933 22 16.4428 21.7604 15.8145 21.3496C15.8011 21.3409 15.7877 21.3321 15.7744 21.3232C14.7046 20.6053 14 19.3852 14 18C14 16.6146 14.7043 15.3936 15.7744 14.6758C15.7875 14.667 15.8012 14.659 15.8145 14.6504C16.4428 14.2396 17.1933 14 18 14ZM18 16C17.8653 16 17.7337 16.0137 17.6064 16.0391C17.2227 16.1161 16.8669 16.305 16.5859 16.5859C16.3055 16.8664 16.1174 17.2215 16.04 17.6045C16.0144 17.7324 16 17.8645 16 18C16 18.1327 16.0134 18.2622 16.0381 18.3877C16.1144 18.7737 16.3036 19.1317 16.5859 19.4141C16.8668 19.6949 17.2227 19.8829 17.6064 19.96C17.7338 19.9854 17.8652 20 18 20C18.131 20 18.2588 19.986 18.3828 19.9619C18.7706 19.8862 19.1306 19.6976 19.4141 19.4141C19.6964 19.1317 19.8856 18.7737 19.9619 18.3877C19.9866 18.2622 20 18.1327 20 18C20 17.8686 19.9861 17.7405 19.9619 17.6162C19.8974 17.2868 19.7508 16.9781 19.5342 16.7188C19.4589 16.6287 19.376 16.5453 19.2861 16.4697C19.0281 16.2528 18.7208 16.1048 18.3926 16.0391C18.2656 16.0138 18.1344 16 18 16Z" fill="#E4F2F2"/>
<path fill-rule="evenodd" clip-rule="evenodd" d="M20 3C20.7957 3 21.5585 3.3163 22.1211 3.87891C22.6837 4.44151 23 5.20435 23 6V12.5C23 13.0523 22.5523 13.5 22 13.5C21.4477 13.5 21 13.0523 21 12.5V8.81934L13.5664 13.5439L13.5605 13.5479C13.1512 13.8042 12.6858 13.9546 12.2061 13.9883L12 13.9961C11.4481 13.9961 10.9072 13.8408 10.4395 13.5479L10.4336 13.5439L3 8.81934V18C3 18.5477 3.45228 19 4 19H11.5C12.0523 19 12.5 19.4477 12.5 20C12.5 20.5523 12.0523 21 11.5 21H4C2.34772 21 1 19.6523 1 18V6C1 5.20435 1.3163 4.44152 1.87891 3.87891C2.44152 3.3163 3.20435 3 4 3H20ZM4 5C3.73478 5 3.4805 5.10543 3.29297 5.29297C3.10543 5.4805 3 5.73478 3 6V6.4502L11.5 11.8525C11.6496 11.9463 11.8235 11.9961 12 11.9961L12.1318 11.9863C12.2618 11.9679 12.387 11.9227 12.499 11.8525L21 6.4502V6C21 5.73478 20.8946 5.48051 20.707 5.29297C20.5429 5.12883 20.3276 5.02757 20.0986 5.00488L20 5H4Z" fill="#E4F2F2"/>
</svg>
