<svg width="24" height="24" viewBox="0 0 24 24" fill="none" xmlns="http://www.w3.org/2000/svg">
<path fill-rule="evenodd" clip-rule="evenodd" d="M10 4C10.5523 4 11 4.44772 11 5C11 5.55228 10.5523 6 10 6C10.6457 6.8604 11 7.91169 11 9V17C11 17.3444 10.937 17.6814 10.8242 18H20C20.2652 18 20.5195 17.8946 20.707 17.707C20.8946 17.5195 21 17.2652 21 17V8.99121C21.0048 8.46004 20.868 7.93679 20.6045 7.47559C20.341 7.01454 19.9599 6.63172 19.5 6.36621C19.0217 6.0901 18.8577 5.4783 19.1338 5C19.4099 4.52171 20.0217 4.3577 20.5 4.63379C21.2667 5.07641 21.9026 5.71473 22.3418 6.4834C22.7795 7.24945 23.0063 8.11784 23 9V17C23 17.7957 22.6837 18.5585 22.1211 19.1211C21.5585 19.6837 20.7957 20 20 20H4C3.20435 20 2.44151 19.6837 1.87891 19.1211C1.3163 18.5585 1 17.7956 1 17V9C1 7.67392 1.52716 6.40253 2.46484 5.46484C3.40253 4.52716 4.67392 4 6 4H10ZM6 6C5.20435 6 4.44152 6.3163 3.87891 6.87891C3.3163 7.44152 3 8.20435 3 9V17C3 17.2652 3.10543 17.5195 3.29297 17.707C3.48051 17.8946 3.73478 18 4 18H8C8.26522 18 8.51949 17.8946 8.70703 17.707C8.89457 17.5195 9 17.2652 9 17V9C9 8.20435 8.6837 7.44152 8.12109 6.87891C7.6289 6.38671 6.98351 6.08291 6.29688 6.01465L6 6Z" fill="#E4F2F2"/>
<path d="M16.1025 4.00488C16.6067 4.05621 17 4.48232 17 5V6L16.9951 6.10254C16.9438 6.60667 16.5177 7 16 7H15V9C15 9.55228 14.5523 10 14 10C13.4477 10 13 9.55228 13 9V5C13 4.44772 13.4477 4 14 4H16L16.1025 4.00488Z" fill="#E4F2F2"/>
</svg>
