<svg width="24" height="24" viewBox="0 0 24 24" fill="none" xmlns="http://www.w3.org/2000/svg">
<path d="M20.293 16.293C20.6835 15.9024 21.3165 15.9024 21.707 16.293C22.0976 16.6835 22.0976 17.3165 21.707 17.707L20.4141 19L21.707 20.293C22.0976 20.6835 22.0976 21.3165 21.707 21.707C21.3165 22.0976 20.6835 22.0976 20.293 21.707L19 20.4141L17.707 21.707C17.3165 22.0976 16.6835 22.0976 16.293 21.707C15.9024 21.3165 15.9024 20.6835 16.293 20.293L17.5859 19L16.293 17.707C15.9024 17.3165 15.9024 16.6835 16.293 16.293C16.6835 15.9024 17.3165 15.9024 17.707 16.293L19 17.5859L20.293 16.293Z" fill="#E4F2F2"/>
<path fill-rule="evenodd" clip-rule="evenodd" d="M20 3C20.7957 3 21.5585 3.3163 22.1211 3.87891C22.6837 4.44151 23 5.20435 23 6V13C23 13.5523 22.5523 14 22 14C21.4477 14 21 13.5523 21 13V8.81934L13.5664 13.5439L13.5605 13.5479C13.1512 13.8042 12.6858 13.9546 12.2061 13.9883L12 13.9961C11.4481 13.9961 10.9072 13.8408 10.4395 13.5479L10.4336 13.5439L3 8.81934V18C3 18.5477 3.45228 19 4 19H13C13.5523 19 14 19.4477 14 20C14 20.5523 13.5523 21 13 21H4C2.34772 21 1 19.6523 1 18V6C1 5.20435 1.3163 4.44152 1.87891 3.87891C2.44152 3.3163 3.20435 3 4 3H20ZM4 5C3.73478 5 3.4805 5.10543 3.29297 5.29297C3.10543 5.4805 3 5.73478 3 6V6.4502L11.5 11.8525C11.6496 11.9463 11.8235 11.9961 12 11.9961L12.1318 11.9863C12.2618 11.9679 12.387 11.9227 12.499 11.8525L21 6.4502V6C21 5.73478 20.8946 5.48051 20.707 5.29297C20.5429 5.12883 20.3276 5.02757 20.0986 5.00488L20 5H4Z" fill="#E4F2F2"/>
</svg>
