<svg width="24" height="24" viewBox="0 0 24 24" fill="none" xmlns="http://www.w3.org/2000/svg">
<path fill-rule="evenodd" clip-rule="evenodd" d="M19.876 12.0005C20.7045 12.0005 21.4991 12.3297 22.085 12.9155C22.6707 13.5014 23 14.2961 23 15.1245C22.9999 15.9529 22.6707 16.7477 22.085 17.3335L18.0713 21.3433C17.715 21.6993 17.2745 21.9599 16.791 22.1011L13.9209 22.939C13.6629 23.0142 13.3892 23.0183 13.1289 22.9517C12.8685 22.8849 12.6305 22.7491 12.4404 22.5591C12.2504 22.369 12.1146 22.1309 12.0479 21.8706C11.9812 21.6104 11.9854 21.3365 12.0605 21.0786L12.8984 18.2085L12.957 18.0288C13.1065 17.6157 13.3445 17.2389 13.6563 16.9272L17.667 12.9155C18.2529 12.3297 19.0474 12.0005 19.876 12.0005ZM19.876 14.0005C19.6149 14.0005 19.3632 14.0913 19.1631 14.2554L19.0811 14.3296L15.0713 18.3413C14.9525 18.4601 14.8654 18.6078 14.8184 18.769L14.2363 20.7632L16.2314 20.1812C16.3921 20.1341 16.5387 20.0475 16.6572 19.9292L20.6709 15.9194L20.7451 15.8374C20.9091 15.6374 20.9999 15.3854 21 15.1245C21 14.8265 20.8816 14.5404 20.6709 14.3296C20.4601 14.1188 20.1741 14.0005 19.876 14.0005Z" fill="#E4F2F2"/>
<path d="M9.6084 1.00537C11.9259 0.904433 14.193 1.70185 15.9365 3.23193C17.6801 4.76214 18.7651 6.90715 18.9658 9.21826C19.0133 9.76821 18.6066 10.2524 18.0566 10.3003C17.5065 10.3481 17.0216 9.94114 16.9736 9.39111C16.8175 7.59366 15.9732 5.92599 14.6172 4.73584C13.2611 3.54569 11.4979 2.92488 9.69531 3.00342C7.89274 3.08198 6.18983 3.85316 4.94238 5.15674C3.69509 6.46025 2.99925 8.19538 3 9.99951C3.00009 12.0238 4.07003 14.2014 5.51856 16.189C6.94846 18.1509 8.64609 19.7924 9.6875 20.7222C10.0994 21.09 10.1354 21.7223 9.76758 22.1343C9.39983 22.5459 8.76837 22.5818 8.35645 22.2144C7.26291 21.2381 5.44944 19.4903 3.90234 17.3677C2.42166 15.3361 1.0861 12.8284 1.00391 10.2505L1 10.0005C0.998996 7.68084 1.89337 5.44991 3.49707 3.77392C5.10094 2.09783 7.29075 1.10638 9.6084 1.00537Z" fill="#E4F2F2"/>
<path fill-rule="evenodd" clip-rule="evenodd" d="M10 6.00049C12.2091 6.00049 14 7.79135 14 10.0005C13.9999 12.2095 12.2091 14.0005 10 14.0005C7.79095 14.0005 6.00014 12.2095 6 10.0005C6 7.79135 7.79086 6.00049 10 6.00049ZM10 8.00049C8.89543 8.00049 8 8.89592 8 10.0005C8.00014 11.1049 8.89552 12.0005 10 12.0005C11.1045 12.0005 11.9999 11.1049 12 10.0005C12 8.89592 11.1046 8.00049 10 8.00049Z" fill="#E4F2F2"/>
</svg>
