<svg width="24" height="24" viewBox="0 0 24 24" fill="none" xmlns="http://www.w3.org/2000/svg">
<path fill-rule="evenodd" clip-rule="evenodd" d="M1.29297 1.29297C1.68349 0.902443 2.31651 0.902443 2.70703 1.29297L22.707 21.293C23.0975 21.6835 23.0975 22.3165 22.707 22.707C22.3165 23.0975 21.6835 23.0975 21.293 22.707L17.1592 18.5732C15.6568 20.398 14.091 21.8338 13.2549 22.5557C13.238 22.5702 13.22 22.5842 13.2021 22.5977C12.899 22.8256 12.538 22.9626 12.1621 22.9932L12 22.999C11.5664 22.999 11.1444 22.8582 10.7979 22.5977C10.78 22.5842 10.7621 22.5703 10.7451 22.5557C9.78989 21.7309 7.88249 19.978 6.20606 17.7754C4.55273 15.6031 3.00013 12.8335 3 10C2.99994 8.44556 3.40381 6.92285 4.16309 5.57715L1.29297 2.70703C0.902445 2.31651 0.902445 1.68349 1.29297 1.29297ZM5.64746 7.06152C5.22346 7.97835 4.99997 8.98035 5 10C5.00014 12.1592 6.21695 14.4863 7.79785 16.5635C9.32577 18.571 11.0795 20.1963 12 20.9951C12.8287 20.276 14.3323 18.8862 15.7383 17.1523L12.5449 13.959C12.0405 14.0281 11.5258 14.0027 11.0283 13.8779C10.3266 13.7018 9.6855 13.3386 9.17383 12.8271C8.66205 12.3154 8.29824 11.6737 8.12207 10.9717C7.99718 10.4738 7.97074 9.9588 8.04004 9.4541L5.64746 7.06152Z" fill="#E4F2F2"/>
<path d="M8.03418 1.91992C9.40622 1.24649 10.9277 0.933657 12.4541 1.01074C13.9804 1.08792 15.4627 1.55214 16.7598 2.36035C18.0568 3.16859 19.1263 4.29478 19.8682 5.63086C20.6098 6.96704 20.9999 8.4708 21 9.99902L20.9951 10.2529C20.9543 11.5209 20.6115 12.7641 20.1074 13.9297C19.8881 14.4364 19.2998 14.6692 18.793 14.4502C18.2865 14.2308 18.0525 13.6424 18.2715 13.1357C18.7337 12.067 19 11.0092 19 9.99902C18.9999 8.81044 18.697 7.64079 18.1201 6.60156C17.5432 5.5625 16.7107 4.68723 15.7021 4.05859C14.6933 3.42998 13.5397 3.06781 12.3525 3.00781C11.1654 2.94794 9.98207 3.1911 8.91504 3.71484C8.41928 3.95811 7.82048 3.75356 7.57715 3.25781C7.33429 2.76218 7.53867 2.16319 8.03418 1.91992Z" fill="#E4F2F2"/>
<path d="M11.7813 6.84082C11.9187 6.30614 12.4642 5.98383 12.999 6.12109C13.6928 6.29925 14.3265 6.66047 14.833 7.16699C15.3395 7.67355 15.7008 8.30712 15.8789 9.00097C16.0162 9.53589 15.6931 10.0814 15.1582 10.2187C14.6234 10.3558 14.0787 10.0328 13.9414 9.49804C13.8523 9.15122 13.6712 8.83426 13.418 8.58105C13.1647 8.32797 12.8478 8.14761 12.501 8.05859C11.9662 7.92114 11.644 7.37564 11.7813 6.84082Z" fill="#E4F2F2"/>
</svg>
