<svg width="24" height="24" viewBox="0 0 24 24" fill="none" xmlns="http://www.w3.org/2000/svg">
<path fill-rule="evenodd" clip-rule="evenodd" d="M21 2C21.0563 2 21.1113 2.00571 21.165 2.01465C21.1738 2.01611 21.1827 2.01686 21.1914 2.01855L21.2012 2.02051C21.211 2.02252 21.2207 2.02504 21.2305 2.02734C21.251 2.0322 21.2717 2.0368 21.292 2.04297C21.3408 2.05783 21.3873 2.0778 21.4326 2.09961C21.4466 2.10634 21.4609 2.11269 21.4746 2.12012C21.6203 2.19887 21.7441 2.31255 21.835 2.4502C21.8597 2.48768 21.8812 2.52662 21.9004 2.56641C21.9222 2.61159 21.9412 2.65838 21.9561 2.70703C21.9623 2.72732 21.9668 2.74799 21.9717 2.76855C21.9893 2.84294 22 2.92022 22 3V7C22 7.55228 21.5523 8 21 8C20.4477 8 20 7.55228 20 7V5.41406L17.4141 8L18.707 9.29297C19.0976 9.68349 19.0976 10.3165 18.707 10.707C18.3165 11.0976 17.6835 11.0976 17.293 10.707L16 9.41406L14.6055 10.8076C15.4809 11.9763 16 13.4274 16 15C16 18.866 12.866 22 9 22C5.13401 22 2 18.866 2 15C2 11.134 5.13401 8 9 8C10.5721 8 12.0229 8.51858 13.1914 9.39355L14.5859 8L13.293 6.70703C12.9024 6.31651 12.9024 5.68349 13.293 5.29297C13.6835 4.90244 14.3165 4.90244 14.707 5.29297L16 6.58594L18.5859 4H17C16.4477 4 16 3.55228 16 3C16 2.44772 16.4477 2 17 2H21ZM9 10C6.23858 10 4 12.2386 4 15C4 17.7614 6.23858 20 9 20C11.7614 20 14 17.7614 14 15C14 12.2386 11.7614 10 9 10Z" fill="#E4F2F2"/>
</svg>
