<svg width="24" height="24" viewBox="0 0 24 24" fill="none" xmlns="http://www.w3.org/2000/svg">
<path fill-rule="evenodd" clip-rule="evenodd" d="M19.146 2.01074C19.4789 2.05974 19.7689 2.27452 19.9107 2.58691C20.0726 2.944 20.0114 3.36297 19.7534 3.6582L13.0005 11.375V21H16.0005C16.5526 21.0002 17.0005 21.4478 17.0005 22C17.0005 22.5522 16.5526 22.9998 16.0005 23H8.0005C7.44821 23 7.0005 22.5523 7.0005 22C7.0005 21.4477 7.44821 21 8.0005 21H11.0005V11.375L4.24757 3.6582C3.98944 3.36293 3.92827 2.94409 4.09034 2.58691C4.25252 2.22971 4.60819 2 5.0005 2H19.0005L19.146 2.01074ZM12.0005 9.48047L16.7964 4H7.2046L12.0005 9.48047Z" fill="#E4F2F2"/>
</svg>
