<svg width="24" height="24" viewBox="0 0 24 24" fill="none" xmlns="http://www.w3.org/2000/svg">
<path fill-rule="evenodd" clip-rule="evenodd" d="M4.5 20C5.32843 20 6 20.6716 6 21.5C6 22.3284 5.32843 23 4.5 23C3.67157 23 3 22.3284 3 21.5C3 20.6716 3.67157 20 4.5 20ZM4.5 21C4.22386 21 4 21.2239 4 21.5C4 21.7761 4.22386 22 4.5 22C4.77614 22 5 21.7761 5 21.5C5 21.2239 4.77614 21 4.5 21Z" fill="#E4F2F2"/>
<path fill-rule="evenodd" clip-rule="evenodd" d="M22 1C22.5523 1 23 1.44772 23 2V16C23 19.8523 19.8523 23 16 23H12C11.2043 23 10.4415 22.6837 9.87891 22.1211C9.52668 21.7689 9.27088 21.3382 9.12891 20.8701C8.66126 20.7281 8.23083 20.473 7.87891 20.1211C7.3163 19.5585 7 18.7957 7 18C7 17.4477 7.44772 17 8 17C8.55228 17 9 17.4477 9 18C9 18.2652 9.10543 18.5195 9.29297 18.707C9.48051 18.8946 9.73478 19 10 19C10.2652 19 10.5195 18.8946 10.707 18.707C10.8946 18.5195 11 18.2652 11 18C11 17.4477 11.4477 17 12 17C12.5523 17 13 17.4477 13 18C13 18.7957 12.6837 19.5585 12.1211 20.1211C11.8777 20.3645 11.5948 20.5576 11.29 20.7031L11.293 20.707C11.4805 20.8946 11.7348 21 12 21H16C18.7477 21 21 18.7477 21 16V11H19V16C19 16.7957 18.6837 17.5585 18.1211 18.1211C17.5585 18.6837 16.7957 19 16 19C15.4477 19 15 18.5523 15 18C15 17.4477 15.4477 17 16 17C16.2652 17 16.5195 16.8946 16.707 16.707C16.8946 16.5195 17 16.2652 17 16V13.998C16.1395 14.6439 15.0885 15 14 15H13.4854C12.6942 14.9886 11.9395 14.6648 11.3857 14.0996C11.3727 14.0863 11.3599 14.0726 11.3477 14.0586L10.6738 13.2891C10.2721 12.9039 9.72685 12.9036 9.3252 13.2891L8.65234 14.0586C8.64005 14.0726 8.62732 14.0863 8.61426 14.0996C8.06046 14.6648 7.30581 14.9886 6.51465 15H6C4.67392 15 3.40253 14.4728 2.46484 13.5352C1.52716 12.5975 1 11.3261 1 10C1 8.67392 1.52716 7.40253 2.46484 6.46484C3.40253 5.52716 4.67392 5 6 5H14C15.0883 5 16.1396 5.35532 17 6.00098V2C17 1.44772 17.4477 1 18 1H22ZM6 7C5.20435 7 4.44152 7.3163 3.87891 7.87891C3.3163 8.44152 3 9.20435 3 10L3.01465 10.2969C3.08291 10.9835 3.38671 11.6289 3.87891 12.1211C4.44152 12.6837 5.20435 13 6 13H6.48535C6.74398 12.9963 6.99026 12.8916 7.17383 12.71L7.84766 11.9414L7.89258 11.8926C9.04587 10.7393 10.8022 10.704 11.9932 11.7852L12.1074 11.8926L12.1523 11.9414L12.8252 12.71C13.0088 12.8919 13.2558 12.9963 13.5146 13H14L14.2969 12.9854C14.9835 12.9171 15.6289 12.6133 16.1211 12.1211C16.6837 11.5585 17 10.7956 17 10C17 9.20435 16.6837 8.44152 16.1211 7.87891C15.5585 7.3163 14.7956 7 14 7H6ZM19 9H21V3H19V9Z" fill="#E4F2F2"/>
<path d="M3.00977 16.5C3.56205 16.5 4.00977 16.9477 4.00977 17.5C4.00977 18.0523 3.56205 18.5 3.00977 18.5H3C2.44772 18.5 2 18.0523 2 17.5C2 16.9477 2.44772 16.5 3 16.5H3.00977Z" fill="#E4F2F2"/>
</svg>
