<svg width="24" height="24" viewBox="0 0 24 24" fill="none" xmlns="http://www.w3.org/2000/svg">
<path fill-rule="evenodd" clip-rule="evenodd" d="M9 9C10.1046 9 11 9.89543 11 11V13C11 14.1046 10.1046 15 9 15H7C5.89543 15 5 14.1046 5 13V11C5 9.89543 5.89543 9 7 9H9ZM7 13H9V11H7V13Z" fill="#E4F2F2"/>
<path fill-rule="evenodd" clip-rule="evenodd" d="M17 9C18.1046 9 19 9.89543 19 11V13C19 14.1046 18.1046 15 17 15H15C13.8954 15 13 14.1046 13 13V11C13 9.89543 13.8954 9 15 9H17ZM15 13H17V11H15V13Z" fill="#E4F2F2"/>
<path d="M17 5C17.5523 5 18 5.44772 18 6C18 6.55228 17.5523 7 17 7H7C6.44772 7 6 6.55228 6 6C6 5.44772 6.44772 5 7 5H17Z" fill="#E4F2F2"/>
<path fill-rule="evenodd" clip-rule="evenodd" d="M16 1C19.866 1 23 4.13401 23 8V16C23 19.866 19.866 23 16 23H8C4.13401 23 1 19.866 1 16V8C1 4.13401 4.13401 1 8 1H16ZM20.9023 16.9834C19.6373 18.2282 17.9056 19 16 19H8C6.09413 19 4.36179 18.2285 3.09668 16.9834C3.55351 19.2739 5.57518 21 8 21H16C18.4248 21 20.4454 19.2738 20.9023 16.9834ZM8 3C5.23858 3 3 5.23858 3 8V12C3 14.7477 5.25229 17 8 17H16C18.7477 17 21 14.7477 21 12V8C21 5.23858 18.7614 3 16 3H8Z" fill="#E4F2F2"/>
</svg>
