<svg width="24" height="24" viewBox="0 0 24 24" fill="none" xmlns="http://www.w3.org/2000/svg">
<path d="M12.102 15.0049C12.6062 15.0562 12.9995 15.4823 12.9995 16V18C12.9995 18.5523 12.5518 19 11.9995 19C11.4474 18.9998 10.9995 18.5522 10.9995 18V16.8643C10.7012 16.6912 10.4995 16.3697 10.4995 16C10.4995 15.4478 10.9474 15.0002 11.4995 15H11.9995L12.102 15.0049Z" fill="#E4F2F2"/>
<path fill-rule="evenodd" clip-rule="evenodd" d="M17.9995 1C18.4162 1.00002 18.828 1.0874 19.2085 1.25488C19.2721 1.27707 19.334 1.30678 19.394 1.34277C19.3976 1.34493 19.4012 1.34741 19.4048 1.34961C19.7433 1.52909 20.0447 1.77137 20.2915 2.06348L20.3999 2.2002L20.4009 2.20117L21.9985 4.33887C22.3522 4.80741 22.5608 5.36922 22.5981 5.95508C22.6355 6.54169 22.4996 7.12664 22.2075 7.63672L22.2056 7.64062L17.7593 15.3203C17.9145 15.8535 17.9995 16.4167 17.9995 17C17.9995 20.3137 15.3132 23 11.9995 23C8.68594 22.9998 5.99951 20.3136 5.99951 17C5.99951 16.4168 6.08454 15.8534 6.23975 15.3203L1.79443 7.64062C1.50024 7.13208 1.36143 6.5484 1.396 5.96191C1.43066 5.37525 1.63759 4.81131 1.98975 4.34082L1.99072 4.33887L3.60107 2.19922C3.86407 1.8489 4.20066 1.56073 4.58643 1.35449C4.5926 1.3506 4.59869 1.34655 4.60498 1.34277C4.6649 1.30682 4.72705 1.27706 4.79053 1.25488C5.17101 1.08729 5.5827 1.00006 5.99951 1H17.9995ZM11.9995 13C9.79051 13.0002 7.99951 14.791 7.99951 17C7.99951 19.209 9.79051 20.9998 11.9995 21C14.2086 21 15.9995 19.2091 15.9995 17C15.9995 14.7909 14.2086 13 11.9995 13ZM14.4507 11.5234C15.3158 11.9112 16.0718 12.4973 16.6616 13.2246L20.4741 6.63867C20.5699 6.46961 20.6144 6.276 20.6021 6.08203C20.5895 5.88666 20.5199 5.69915 20.4019 5.54297L20.3989 5.53906L19.0913 3.79004L14.4507 11.5234ZM3.58935 5.54102C3.47283 5.6974 3.40465 5.8844 3.39307 6.0791C3.38152 6.27455 3.42788 6.46917 3.52588 6.63867L7.3374 13.2236C7.92684 12.4968 8.68295 11.9111 9.54736 11.5234L4.90674 3.78906L3.58935 5.54102ZM11.5757 11.0166C11.7157 11.0068 11.857 11 11.9995 11C12.1416 11 12.2827 11.0069 12.4224 11.0166L14.2329 8H9.76611L11.5757 11.0166ZM8.56592 6H15.4331L17.2329 3H6.76611L8.56592 6Z" fill="#E4F2F2"/>
</svg>
