<svg width="24" height="24" viewBox="0 0 24 24" fill="none" xmlns="http://www.w3.org/2000/svg">
<path fill-rule="evenodd" clip-rule="evenodd" d="M19.8203 2.00732C20.1902 1.97398 20.5624 2.04439 20.8945 2.21045C21.2266 2.37647 21.5059 2.63202 21.7012 2.94775C21.8964 3.26363 22 3.62818 22 3.99951V15.9995C22 16.3709 21.8964 16.7354 21.7012 17.0513C21.5059 17.3671 21.2266 17.6225 20.8945 17.7886C20.5623 17.9547 20.1902 18.0251 19.8203 17.9917C19.4504 17.9583 19.0969 17.822 18.7998 17.5991C18.7931 17.5941 18.7859 17.5887 18.7793 17.5835C16.5893 15.8513 13.8638 14.9378 11.0732 14.9985C11.24 16.1547 11.6932 17.2567 12.4004 18.1997C12.8775 18.836 13.082 19.636 12.9697 20.4233C12.8572 21.2109 12.4363 21.9225 11.7998 22.3999C11.1634 22.877 10.3636 23.0816 9.57617 22.9692C8.78854 22.8567 8.07699 22.4358 7.59961 21.7993C6.11289 19.8168 5.22951 17.4565 5.04004 14.9995H5C4.20435 14.9995 3.44151 14.6832 2.87891 14.1206C2.31638 13.558 2 12.7951 2 11.9995V7.99951C2.00007 7.20396 2.31636 6.44097 2.87891 5.87842C3.4415 5.31589 4.20441 4.99951 5 4.99951H11.0254C13.8327 5.07183 16.5768 4.15767 18.7793 2.41553C18.7859 2.41032 18.7931 2.40495 18.7998 2.3999C19.0969 2.17712 19.4505 2.04068 19.8203 2.00732ZM7.04785 14.9995C7.23261 17.023 7.97325 18.9631 9.2002 20.5991C9.35929 20.8112 9.59591 20.9522 9.8584 20.9897C10.1209 21.0272 10.3875 20.9584 10.5996 20.7993C10.8117 20.6402 10.9527 20.4036 10.9902 20.1411C11.0276 19.8787 10.9588 19.612 10.7998 19.3999C9.83269 18.1104 9.23531 16.5896 9.05762 14.9995H7.04785ZM20 3.99951C17.5945 5.8952 14.6384 6.94656 11.5869 7.00147L10.9746 6.99951H9V12.9995H10.9746C14.2412 12.9155 17.4339 13.9773 20 15.9995V3.99951ZM5 6.99951C4.73485 6.99951 4.48049 7.10503 4.29297 7.29248C4.10549 7.47995 4.00007 7.73439 4 7.99951V11.9995C4 12.2647 4.10552 12.519 4.29297 12.7065C4.48051 12.8941 4.73478 12.9995 5 12.9995H7V6.99951H5Z" fill="#E4F2F2"/>
</svg>
