<svg width="24" height="24" viewBox="0 0 24 24" fill="none" xmlns="http://www.w3.org/2000/svg">
<path fill-rule="evenodd" clip-rule="evenodd" d="M1.29295 1.29297C1.68348 0.902445 2.31649 0.902445 2.70702 1.29297L14.9541 13.54C15.047 13.6056 15.1265 13.6863 15.1914 13.7773L22.707 21.293C23.0975 21.6835 23.0975 22.3165 22.707 22.707C22.3165 23.0975 21.6835 23.0975 21.293 22.707L13.8486 15.2627C12.9372 15.0674 12.0057 14.9787 11.0732 14.999C11.2401 16.1552 11.6932 17.2573 12.4004 18.2002C12.8775 18.8365 13.0821 19.6365 12.9697 20.4238C12.8572 21.2115 12.4363 21.923 11.7998 22.4004C11.1635 22.8775 10.3635 23.0821 9.57616 22.9697C8.78854 22.8572 8.07699 22.4363 7.5996 21.7998C6.11286 19.8174 5.22857 17.457 5.03905 15H4.99999C4.20437 15 3.44149 14.6837 2.87889 14.1211C2.3163 13.5585 2.00001 12.7956 1.99999 12V8C1.99999 7.20435 2.31628 6.44152 2.87889 5.87891C3.15337 5.60442 3.4758 5.38934 3.82616 5.24024L1.29295 2.70703C0.90243 2.31651 0.90243 1.68349 1.29295 1.29297ZM7.04784 15C7.23266 17.0235 7.97323 18.9636 9.20018 20.5996C9.35928 20.8117 9.59592 20.9527 9.85838 20.9902C10.1208 21.0277 10.3875 20.9588 10.5996 20.7998C10.8117 20.6407 10.9527 20.4041 10.9902 20.1416C11.0277 19.8792 10.9588 19.6125 10.7998 19.4004C9.83265 18.1109 9.23436 16.59 9.05663 15H7.04784ZM8.99999 13H10.9746C11.1781 12.9948 11.3816 12.9954 11.5849 12.999L8.99999 10.4141V13ZM4.99999 7C4.73477 7 4.48049 7.10543 4.29295 7.29297C4.10542 7.48051 3.99999 7.73478 3.99999 8V12L4.00487 12.0986C4.02757 12.3276 4.12883 12.5429 4.29295 12.707C4.48048 12.8945 4.73481 13 4.99999 13H6.99999V8.41406L5.58592 7H4.99999Z" fill="#E4F2F2"/>
<path d="M19.8203 2.00781C20.1901 1.97451 20.5624 2.0449 20.8945 2.21094C21.2266 2.37702 21.5059 2.63244 21.7012 2.94824C21.8964 3.26419 22 3.62858 22 4V15.3438C21.9999 15.8959 21.5521 16.3436 21 16.3438C20.4478 16.3437 20 15.8959 20 15.3438V4C17.6182 5.87665 14.6911 6.9299 11.6592 7C11.1072 7.01265 10.6487 6.57532 10.6357 6.02344C10.623 5.47148 11.0604 5.01303 11.6123 5C14.2184 4.93981 16.7346 4.03296 18.7793 2.41602C18.7859 2.41079 18.793 2.40545 18.7998 2.40039C19.0969 2.17757 19.4504 2.0412 19.8203 2.00781Z" fill="#E4F2F2"/>
</svg>
