<svg width="24" height="24" viewBox="0 0 24 24" fill="none" xmlns="http://www.w3.org/2000/svg">
<path d="M12.0098 15.0005C12.562 15.0006 13.0098 15.4483 13.0098 16.0005C13.0095 16.5525 12.5618 17.0004 12.0098 17.0005H12C11.4479 17.0005 11.0002 16.5526 11 16.0005C11 15.4482 11.4477 15.0005 12 15.0005H12.0098Z" fill="#E4F2F2"/>
<path d="M12 7.00048C12.5522 7.00058 13 7.44826 13 8.00048V12.0005C12.9997 12.5525 12.552 13.0004 12 13.0005C11.4479 13.0005 11.0002 12.5526 11 12.0005V8.00048C11 7.4482 11.4477 7.00048 12 7.00048Z" fill="#E4F2F2"/>
<path fill-rule="evenodd" clip-rule="evenodd" d="M5.60546 3.05029C7.71478 1.54343 10.289 0.829918 12.873 1.03564C15.4573 1.24149 17.8862 2.35339 19.7305 4.17529C21.5746 5.99707 22.7166 8.41136 22.9541 10.9927C23.1915 13.5741 22.5092 16.157 21.0283 18.2847C19.5472 20.4123 17.3617 21.9488 14.8584 22.6226C12.3745 23.2909 9.73577 23.0668 7.40038 21.9917C7.23748 21.9325 7.06232 21.9168 6.89159 21.9458L3.5371 22.9272C3.52934 22.9295 3.52147 22.932 3.51366 22.9341C3.1845 23.0214 2.83787 23.0228 2.5078 22.939C2.17783 22.8551 1.87446 22.6884 1.62694 22.4546C1.37937 22.2206 1.19521 21.9269 1.09276 21.602C0.990386 21.2773 0.97252 20.9316 1.041 20.5981L1.06932 20.4907L2.11229 17.269C2.14792 17.0851 2.13274 16.8952 2.06542 16.7202C0.962384 14.3985 0.705866 11.7633 1.34374 9.27197C1.98678 6.76081 3.49632 4.55723 5.60546 3.05029ZM12.7148 3.0288C10.6005 2.86041 8.49442 3.44434 6.76854 4.67724C5.0427 5.9102 3.8074 7.71334 3.28124 9.76806C2.78808 11.6943 2.94795 13.7257 3.7285 15.5464L3.89257 15.9077L3.92089 15.9741C4.14132 16.5304 4.1911 17.1398 4.06249 17.7241C4.0556 17.7554 4.04694 17.7865 4.0371 17.8169L3.00682 20.9976L6.38866 20.0093C6.41698 20.001 6.44663 19.9945 6.47557 19.9888C6.95813 19.8931 7.45582 19.9167 7.92479 20.0581L8.12401 20.1265L8.19139 20.1548C10.1132 21.0523 12.2907 21.2421 14.3389 20.6909C16.387 20.1397 18.1749 18.8829 19.3867 17.1421C20.5984 15.4013 21.1561 13.2883 20.9619 11.1763C20.7677 9.06425 19.834 7.08873 18.3252 5.59814C16.8163 4.10753 14.8292 3.19727 12.7148 3.0288Z" fill="#E4F2F2"/>
</svg>
