<svg width="24" height="24" viewBox="0 0 24 24" fill="none" xmlns="http://www.w3.org/2000/svg">
<path d="M12.0098 16.0005C12.562 16.0006 13.0098 16.4483 13.0098 17.0005C13.0095 17.5525 12.5618 18.0004 12.0098 18.0005H12C11.4479 18.0005 11.0003 17.5526 11 17.0005C11 16.4482 11.4477 16.0005 12 16.0005H12.0098Z" fill="#E4F2F2"/>
<path d="M9.89357 6.54736C10.7078 6.06888 11.6649 5.89364 12.5957 6.05322C13.5266 6.2129 14.3712 6.69695 14.9795 7.41943C15.5876 8.14182 15.9211 9.05625 15.9199 10.0005L15.9072 10.2808C15.7797 11.6553 14.7344 12.576 13.9746 13.0825C13.5392 13.3728 13.1105 13.5858 12.7949 13.7261C12.6357 13.7968 12.5009 13.8504 12.4043 13.8872C12.356 13.9056 12.3166 13.92 12.2881 13.9302C12.274 13.9352 12.2627 13.9399 12.2539 13.9429C12.2497 13.9443 12.2461 13.9458 12.2432 13.9468C12.2419 13.9472 12.2403 13.9474 12.2393 13.9477L12.2373 13.9487C11.7134 14.1234 11.1454 13.8398 10.9707 13.3159C10.7966 12.7927 11.079 12.2266 11.6016 12.0513H11.6035C11.6062 12.0504 11.6112 12.0489 11.6182 12.0464C11.6335 12.0409 11.659 12.0318 11.6924 12.019C11.7598 11.9934 11.8605 11.9531 11.9824 11.8989C12.2292 11.7892 12.5509 11.628 12.8653 11.4185C13.5546 10.9589 13.9197 10.4695 13.9199 10.0005V9.99853C13.9206 9.52629 13.7543 9.06881 13.4502 8.70751C13.146 8.34619 12.7233 8.10378 12.2578 8.02392C11.7924 7.94414 11.3134 8.03171 10.9063 8.27099C10.4992 8.51024 10.19 8.88614 10.0332 9.33154C9.84994 9.85248 9.27879 10.1271 8.75783 9.94384C8.23694 9.76059 7.96341 9.18936 8.1465 8.66845C8.45997 7.77734 9.07917 7.02599 9.89357 6.54736Z" fill="#E4F2F2"/>
<path fill-rule="evenodd" clip-rule="evenodd" d="M5.60549 3.05029C7.71481 1.54343 10.289 0.829918 12.8731 1.03564C15.4573 1.24149 17.8862 2.35339 19.7305 4.17529C21.5746 5.99707 22.7166 8.41136 22.9541 10.9927C23.1915 13.5741 22.5093 16.157 21.0283 18.2847C19.5473 20.4123 17.3617 21.9488 14.8584 22.6226C12.3745 23.2909 9.7358 23.0668 7.40041 21.9917C7.23752 21.9325 7.06235 21.9168 6.89162 21.9458L3.53713 22.9272C3.52937 22.9295 3.5215 22.932 3.51369 22.9341C3.18453 23.0214 2.8379 23.0228 2.50783 22.939C2.17786 22.8551 1.87449 22.6884 1.62697 22.4546C1.3794 22.2206 1.19524 21.9269 1.09279 21.602C0.990417 21.2773 0.972551 20.9316 1.04103 20.5981L1.06935 20.4907L2.11232 17.269C2.14795 17.0851 2.13277 16.8952 2.06545 16.7202C0.962415 14.3985 0.705896 11.7633 1.34377 9.27197C1.98681 6.76081 3.49636 4.55723 5.60549 3.05029ZM12.7149 3.0288C10.6005 2.86041 8.49445 3.44434 6.76857 4.67724C5.04273 5.9102 3.80743 7.71334 3.28127 9.76806C2.78811 11.6943 2.94799 13.7257 3.72853 15.5464L3.8926 15.9077L3.92092 15.9741C4.14135 16.5304 4.19113 17.1398 4.06252 17.7241C4.05563 17.7554 4.04697 17.7865 4.03713 17.8169L3.00685 20.9976L6.38869 20.0093C6.41701 20.001 6.44666 19.9945 6.4756 19.9888C6.95816 19.8931 7.45585 19.9167 7.92482 20.0581L8.12404 20.1265L8.19142 20.1548C10.1132 21.0523 12.2907 21.2421 14.3389 20.6909C16.387 20.1397 18.175 18.8829 19.3867 17.1421C20.5984 15.4013 21.1561 13.2883 20.9619 11.1763C20.7677 9.06425 19.834 7.08873 18.3252 5.59814C16.8163 4.10753 14.8292 3.19727 12.7149 3.0288Z" fill="#E4F2F2"/>
</svg>
