<svg width="24" height="24" viewBox="0 0 24 24" fill="none" xmlns="http://www.w3.org/2000/svg">
<path fill-rule="evenodd" clip-rule="evenodd" d="M1.29295 1.29297C1.68348 0.902445 2.31649 0.902445 2.70702 1.29297L5.62596 4.21191C5.62943 4.21528 5.63328 4.21826 5.6367 4.22168C5.64002 4.225 5.64321 4.22907 5.64647 4.23242L22.707 21.293C23.0975 21.6835 23.0975 22.3165 22.707 22.707C22.3165 23.0975 21.6835 23.0975 21.293 22.707L19.0371 20.4512C17.5676 21.6746 15.8006 22.4996 13.9062 22.833C11.7023 23.2207 9.43324 22.9255 7.40135 21.9902C7.23834 21.9308 7.06249 21.9154 6.89159 21.9443L3.53709 22.9258C3.52921 22.9281 3.52061 22.9305 3.51268 22.9326C3.18374 23.0198 2.83763 23.0213 2.5078 22.9375C2.1778 22.8536 1.87347 22.687 1.62596 22.4531C1.37856 22.2192 1.19515 21.9253 1.09276 21.6006C0.99045 21.2759 0.97249 20.9301 1.041 20.5967L1.06932 20.4893L2.11131 17.2666C2.14712 17.0809 2.13167 16.8893 2.06249 16.7129C1.09528 14.6732 0.777134 12.3848 1.15526 10.1582C1.48111 8.23966 2.31104 6.44928 3.54881 4.96289L1.29295 2.70703C0.90243 2.31651 0.90243 1.68349 1.29295 1.29297ZM4.96874 6.38281C4.0199 7.57046 3.38327 8.98387 3.12694 10.4932C2.834 12.2182 3.05137 13.9889 3.74706 15.5889L3.89256 15.9063L3.92088 15.9727C4.1413 16.5289 4.19106 17.1383 4.06249 17.7227C4.0556 17.7539 4.04694 17.785 4.03709 17.8154L3.00682 20.9961L6.38866 20.0078C6.41678 19.9996 6.44586 19.993 6.4746 19.9873C6.95688 19.8916 7.45505 19.9155 7.92381 20.0566L8.12303 20.125L8.19139 20.1533C9.86534 20.9351 11.74 21.1833 13.5596 20.8633C15.0491 20.6011 16.4427 19.9677 17.6162 19.0303L4.96874 6.38281Z" fill="#E4F2F2"/>
<path d="M7.98534 1.75879C9.97687 0.980957 12.1526 0.800528 14.2451 1.23926C16.3376 1.67809 18.2572 2.71714 19.7685 4.22949C21.2799 5.74202 22.3176 7.66284 22.7549 9.75586C23.192 11.8487 23.0098 14.0237 22.2305 16.0146C22.029 16.5286 21.4496 16.7821 20.9355 16.5811C20.4215 16.3797 20.1671 15.7993 20.3681 15.2852C21.0057 13.6562 21.1555 11.8764 20.7978 10.1641C20.4401 8.45184 19.5908 6.88096 18.3545 5.64356C17.1179 4.40607 15.5471 3.55536 13.8349 3.19629C12.1229 2.83731 10.3433 2.98572 8.71385 3.62207C8.19953 3.82274 7.61886 3.56798 7.41795 3.05371C7.21732 2.5396 7.47151 1.95996 7.98534 1.75879Z" fill="#E4F2F2"/>
</svg>
