<svg width="24" height="24" viewBox="0 0 24 24" fill="none" xmlns="http://www.w3.org/2000/svg">
<path fill-rule="evenodd" clip-rule="evenodd" d="M13.3798 7.04541C14.142 6.9251 14.9228 7.02801 15.6279 7.34131C16.3331 7.65475 16.933 8.16552 17.3545 8.81201C17.7759 9.45847 18.0016 10.2132 18.0039 10.9849C18.0071 12.0191 17.6093 13.0147 16.8945 13.7622L16.8935 13.7612L13.4492 17.3804C13.2623 17.5768 13.0372 17.7335 12.788 17.8403C12.5389 17.9471 12.2701 18.0016 11.999 18.0015C11.7279 18.0012 11.459 17.9465 11.2099 17.8394C10.9608 17.7322 10.7355 17.5752 10.5488 17.3784L7.10445 13.7603C6.39016 13.0127 5.99267 12.0178 5.99605 10.9839C5.99951 9.94962 6.40335 8.95623 7.123 8.21338C7.84269 7.47058 8.82277 7.03572 9.8564 6.99951C10.6124 6.9731 11.3537 7.16318 11.999 7.53662C12.4232 7.29085 12.891 7.12266 13.3798 7.04541ZM14.8154 9.16944C14.4628 9.01283 14.0724 8.96081 13.6914 9.021C13.3104 9.08125 12.955 9.2507 12.6679 9.5083C12.288 9.84919 11.712 9.84915 11.332 9.5083C10.9471 9.16296 10.4426 8.98046 9.92574 8.99854C9.40918 9.01677 8.91924 9.23378 8.55953 9.60498C8.19975 9.9764 7.99778 10.4736 7.99605 10.9907C7.99464 11.4429 8.14663 11.8803 8.42379 12.2329L8.55074 12.3794L8.55171 12.3804L11.999 16.0005L12 16.0015L15.4472 12.3813L15.4492 12.3804C15.8065 12.0067 16.0053 11.5087 16.0039 10.9917C16.0027 10.6059 15.8893 10.228 15.6787 9.90479C15.4679 9.58152 15.168 9.32616 14.8154 9.16944Z" fill="#E4F2F2"/>
<path fill-rule="evenodd" clip-rule="evenodd" d="M5.60543 3.05029C7.71475 1.54344 10.2889 0.829925 12.873 1.03565C15.4573 1.2415 17.8861 2.35339 19.7304 4.17529C21.5745 5.99707 22.7166 8.41137 22.9541 10.9927C23.1914 13.5741 22.5092 16.157 21.0283 18.2847C19.5472 20.4123 17.3617 21.9488 14.8584 22.6226C12.3745 23.2909 9.73574 23.0669 7.40035 21.9917C7.23745 21.9325 7.06229 21.9168 6.89156 21.9458L3.53707 22.9272C3.52931 22.9295 3.52144 22.932 3.51363 22.9341C3.18446 23.0214 2.83784 23.0228 2.50777 22.939C2.1778 22.8551 1.87443 22.6884 1.62691 22.4546C1.37934 22.2206 1.19518 21.9269 1.09273 21.6021C0.990356 21.2773 0.97249 20.9316 1.04097 20.5981L1.06929 20.4907L2.11226 17.269C2.14789 17.0852 2.13271 16.8952 2.06539 16.7202C0.962354 14.3985 0.705835 11.7634 1.34371 9.27197C1.98674 6.76082 3.49629 4.55724 5.60543 3.05029ZM12.7148 3.02881C10.6005 2.86042 8.49439 3.44435 6.76851 4.67725C5.04267 5.91021 3.80737 7.71335 3.28121 9.76807C2.78805 11.6943 2.94792 13.7257 3.72847 15.5464L3.89254 15.9077L3.92086 15.9741C4.14129 16.5304 4.19107 17.1398 4.06246 17.7241C4.05557 17.7554 4.04691 17.7865 4.03707 17.8169L3.00679 20.9976L6.38863 20.0093C6.41695 20.001 6.4466 19.9945 6.47554 19.9888C6.95809 19.8931 7.45579 19.9168 7.92476 20.0581L8.12398 20.1265L8.19136 20.1548C10.1132 21.0523 12.2907 21.2421 14.3388 20.6909C16.387 20.1397 18.1749 18.8829 19.3867 17.1421C20.5984 15.4013 21.1561 13.2883 20.9619 11.1763C20.7676 9.06426 19.8339 7.08874 18.3252 5.59815C16.8162 4.10754 14.8291 3.19727 12.7148 3.02881Z" fill="#E4F2F2"/>
</svg>
