<svg width="24" height="24" viewBox="0 0 24 24" fill="none" xmlns="http://www.w3.org/2000/svg">
<path d="M8.00972 11.0005C8.56192 11.0006 9.00972 11.4483 9.00972 12.0005C9.00947 12.5525 8.56177 13.0004 8.00972 13.0005H7.99996C7.44783 13.0005 7.00021 12.5526 6.99996 12.0005C6.99996 11.4482 7.44767 11.0005 7.99996 11.0005H8.00972Z" fill="#E4F2F2"/>
<path d="M12.0097 11.0005C12.5619 11.0006 13.0097 11.4483 13.0097 12.0005C13.0095 12.5525 12.5618 13.0004 12.0097 13.0005H12C11.4478 13.0005 11.0002 12.5526 11 12.0005C11 11.4482 11.4477 11.0005 12 11.0005H12.0097Z" fill="#E4F2F2"/>
<path d="M16.0097 11.0005C16.5619 11.0006 17.0097 11.4483 17.0097 12.0005C17.0095 12.5525 16.5618 13.0004 16.0097 13.0005H16C15.4478 13.0005 15.0002 12.5526 15 12.0005C15 11.4482 15.4477 11.0005 16 11.0005H16.0097Z" fill="#E4F2F2"/>
<path fill-rule="evenodd" clip-rule="evenodd" d="M5.60543 3.05029C7.71475 1.54344 10.2889 0.829925 12.873 1.03565C15.4573 1.2415 17.8861 2.35339 19.7304 4.17529C21.5745 5.99707 22.7166 8.41137 22.9541 10.9927C23.1914 13.5741 22.5092 16.157 21.0283 18.2847C19.5472 20.4123 17.3617 21.9488 14.8584 22.6226C12.3745 23.2909 9.73574 23.0669 7.40035 21.9917C7.23745 21.9325 7.06229 21.9168 6.89156 21.9458L3.53707 22.9272C3.52931 22.9295 3.52144 22.932 3.51363 22.9341C3.18446 23.0214 2.83784 23.0228 2.50777 22.939C2.1778 22.8551 1.87443 22.6884 1.62691 22.4546C1.37934 22.2206 1.19518 21.9269 1.09273 21.6021C0.990356 21.2773 0.97249 20.9316 1.04097 20.5981L1.06929 20.4907L2.11226 17.269C2.14789 17.0852 2.13271 16.8952 2.06539 16.7202C0.962354 14.3985 0.705835 11.7634 1.34371 9.27197C1.98674 6.76082 3.49629 4.55724 5.60543 3.05029ZM12.7148 3.02881C10.6005 2.86042 8.49439 3.44435 6.76851 4.67725C5.04267 5.91021 3.80737 7.71335 3.28121 9.76807C2.78805 11.6943 2.94792 13.7257 3.72847 15.5464L3.89254 15.9077L3.92086 15.9741C4.14129 16.5304 4.19107 17.1398 4.06246 17.7241C4.05557 17.7554 4.04691 17.7865 4.03707 17.8169L3.00679 20.9976L6.38863 20.0093C6.41695 20.001 6.4466 19.9945 6.47554 19.9888C6.95809 19.8931 7.45579 19.9168 7.92476 20.0581L8.12398 20.1265L8.19136 20.1548C10.1132 21.0523 12.2907 21.2421 14.3388 20.6909C16.387 20.1397 18.1749 18.8829 19.3867 17.1421C20.5984 15.4013 21.1561 13.2883 20.9619 11.1763C20.7676 9.06426 19.8339 7.08874 18.3252 5.59815C16.8162 4.10754 14.8291 3.19727 12.7148 3.02881Z" fill="#E4F2F2"/>
</svg>
