<svg width="24" height="24" viewBox="0 0 24 24" fill="none" xmlns="http://www.w3.org/2000/svg">
<path fill-rule="evenodd" clip-rule="evenodd" d="M1.29297 1.29297C1.68349 0.902445 2.31651 0.902445 2.70703 1.29297L3.80371 2.38965C3.86264 2.43611 3.91599 2.48992 3.96387 2.54981L22.707 21.293C23.0975 21.6835 23.0975 22.3165 22.707 22.707C22.3165 23.0975 21.6835 23.0975 21.293 22.707L18.5859 20H6.8291L6.72949 20.0049C6.50091 20.0277 6.28599 20.1292 6.12207 20.293L3.91992 22.4951L3.91894 22.4941C3.68631 22.7338 3.38838 22.9004 3.06152 22.9717C2.72306 23.0454 2.36986 23.0142 2.0498 22.8818C1.72959 22.7492 1.45691 22.5211 1.26953 22.2295C1.08885 21.9481 0.995116 21.62 0.999998 21.2861V5C1.00001 4.42076 1.16826 3.8532 1.4834 3.36719C1.54461 3.27284 1.61169 3.18303 1.68262 3.09668L1.29297 2.70703C0.902455 2.31652 0.902481 1.6835 1.29297 1.29297ZM3.11816 4.53223C3.04176 4.67617 3.00001 4.83623 3 5V20.5859L4.70703 18.8789C5.26945 18.3165 6.03271 18.0002 6.82812 18H16.5859L3.11816 4.53223Z" fill="#E4F2F2"/>
<path d="M20 2C20.7955 2.00007 21.5586 2.31643 22.1211 2.87891C22.6836 3.4415 23 4.20443 23 5V16.3438C23 16.8959 22.5521 17.3436 22 17.3438C21.4479 17.3436 21 16.8959 21 16.3438V5C21 4.73486 20.8945 4.48049 20.707 4.29297C20.5196 4.10557 20.2651 4.00007 20 4H8.65625C8.10399 4 7.65629 3.55225 7.65625 3C7.65625 2.44772 8.10396 2 8.65625 2H20Z" fill="#E4F2F2"/>
</svg>
