<svg width="24" height="24" viewBox="0 0 24 24" fill="none" xmlns="http://www.w3.org/2000/svg">
<path d="M2.03468 17.5107C2.20483 16.9853 2.76902 16.697 3.29445 16.8672C3.8193 17.0375 4.10771 17.6009 3.938 18.126L3.00636 20.998L5.88234 20.1572C6.41232 20.0024 6.96756 20.3069 7.12257 20.8369C7.27728 21.3667 6.97359 21.922 6.44386 22.0771L3.53761 22.9268C3.5299 22.929 3.52193 22.9315 3.51417 22.9336C3.18485 23.0211 2.8376 23.0233 2.50734 22.9395C2.1773 22.8555 1.87397 22.688 1.62648 22.4541C1.37889 22.2199 1.19458 21.9257 1.0923 21.6006C0.990135 21.2755 0.972533 20.9294 1.04152 20.5957L1.06984 20.4902L2.03468 17.5107Z" fill="#E4F2F2"/>
<path d="M13.7105 20.8369C14.2524 20.7323 14.7773 21.0861 14.8823 21.6279C14.9871 22.1699 14.6322 22.6946 14.0903 22.7998C12.7099 23.067 11.2901 23.0669 9.90968 22.7998C9.36778 22.6947 9.01386 22.1699 9.11867 21.6279C9.22382 21.086 9.74848 20.732 10.2905 20.8369C11.4198 21.0554 12.5812 21.0555 13.7105 20.8369Z" fill="#E4F2F2"/>
<path d="M19.4517 17.0498C19.7614 16.5927 20.3832 16.4727 20.8403 16.7822C21.2974 17.0919 21.4173 17.7137 21.1079 18.1709C20.3168 19.3384 19.3077 20.3431 18.1372 21.1299C17.6789 21.4377 17.0576 21.3166 16.7495 20.8584C16.4415 20.4001 16.5638 19.7789 17.022 19.4707C17.9795 18.8271 18.8044 18.0049 19.4517 17.0498Z" fill="#E4F2F2"/>
<path d="M1.19972 9.91016C1.30482 9.36817 1.82952 9.01428 2.3716 9.11914C2.91382 9.22408 3.26852 9.74879 3.16359 10.291C2.94516 11.4203 2.94505 12.5817 3.16359 13.7109C3.26804 14.2529 2.91357 14.7779 2.3716 14.8828C1.8297 14.9875 1.3049 14.6326 1.19972 14.0908C0.932583 12.7104 0.932641 11.2905 1.19972 9.91016Z" fill="#E4F2F2"/>
<path d="M21.6275 9.11914C22.1695 9.01424 22.6942 9.3682 22.7993 9.91016C23.0664 11.2905 23.0665 12.7104 22.7993 14.0908C22.6941 14.6326 22.1694 14.9876 21.6275 14.8828C21.0856 14.7778 20.732 14.2528 20.8364 13.7109C21.055 12.5817 21.0549 11.4203 20.8364 10.291C20.7315 9.74896 21.0855 9.2243 21.6275 9.11914Z" fill="#E4F2F2"/>
<path d="M16.7808 3.15918C17.0905 2.70241 17.7124 2.58233 18.1694 2.8916C19.337 3.68269 20.3416 4.69187 21.1284 5.86231C21.4364 6.32057 21.3151 6.94187 20.8569 7.25C20.3986 7.55805 19.7774 7.43581 19.4693 6.97754C18.8256 6.02006 18.0034 5.19506 17.0484 4.54785C16.5914 4.23811 16.4713 3.61631 16.7808 3.15918Z" fill="#E4F2F2"/>
<path d="M5.86378 2.87109C6.32208 2.56352 6.94352 2.6854 7.25148 3.14356C7.55908 3.60178 7.437 4.22321 6.97902 4.53125C6.02143 5.17494 5.19658 5.99697 4.54933 6.95215C4.23963 7.40923 3.61783 7.5282 3.16066 7.21875C2.70345 6.90896 2.5833 6.28729 2.89308 5.83008C3.68421 4.66253 4.69329 3.65787 5.86378 2.87109Z" fill="#E4F2F2"/>
<path d="M9.90968 1.2002C11.2901 0.933082 12.7099 0.933047 14.0903 1.2002C14.6322 1.30533 14.9871 1.83008 14.8823 2.37207C14.7774 2.91408 14.2525 3.26859 13.7105 3.16406C12.5812 2.94552 11.4199 2.9456 10.2905 3.16406C9.74834 3.26899 9.22363 2.91426 9.11867 2.37207C9.01377 1.82998 9.36768 1.3053 9.90968 1.2002Z" fill="#E4F2F2"/>
</svg>
