<svg width="24" height="24" viewBox="0 0 24 24" fill="none" xmlns="http://www.w3.org/2000/svg">
<path d="M12 7.00048C12.5522 7.00058 13 7.44826 13 8.00048V11.0005H16C16.5522 11.0006 17 11.4483 17 12.0005C16.9998 12.5525 16.5521 13.0004 16 13.0005H13V16.0005C12.9998 16.5525 12.5521 17.0004 12 17.0005C11.4479 17.0005 11.0003 16.5526 11 16.0005V13.0005H8.00002C7.44789 13.0005 7.00027 12.5526 7.00002 12.0005C7.00002 11.4482 7.44773 11.0005 8.00002 11.0005H11V8.00048C11 7.4482 11.4477 7.00048 12 7.00048Z" fill="#E4F2F2"/>
<path fill-rule="evenodd" clip-rule="evenodd" d="M5.60549 3.05029C7.71481 1.54343 10.289 0.829918 12.8731 1.03564C15.4573 1.24149 17.8862 2.35339 19.7305 4.17529C21.5746 5.99707 22.7166 8.41136 22.9541 10.9927C23.1915 13.5741 22.5093 16.157 21.0283 18.2847C19.5473 20.4123 17.3617 21.9488 14.8584 22.6226C12.3745 23.2909 9.7358 23.0668 7.40041 21.9917C7.23752 21.9325 7.06235 21.9168 6.89162 21.9458L3.53713 22.9272C3.52937 22.9295 3.5215 22.932 3.51369 22.9341C3.18453 23.0214 2.8379 23.0228 2.50783 22.939C2.17786 22.8551 1.87449 22.6884 1.62697 22.4546C1.3794 22.2206 1.19524 21.9269 1.09279 21.602C0.990417 21.2773 0.972551 20.9316 1.04103 20.5981L1.06935 20.4907L2.11232 17.269C2.14795 17.0851 2.13277 16.8952 2.06545 16.7202C0.962415 14.3985 0.705896 11.7633 1.34377 9.27197C1.98681 6.76081 3.49636 4.55723 5.60549 3.05029ZM12.7149 3.0288C10.6005 2.86041 8.49445 3.44434 6.76857 4.67724C5.04273 5.9102 3.80743 7.71334 3.28127 9.76806C2.78811 11.6943 2.94799 13.7257 3.72853 15.5464L3.8926 15.9077L3.92092 15.9741C4.14135 16.5304 4.19113 17.1398 4.06252 17.7241C4.05563 17.7554 4.04697 17.7865 4.03713 17.8169L3.00685 20.9976L6.38869 20.0093C6.41701 20.001 6.44666 19.9945 6.4756 19.9888C6.95816 19.8931 7.45585 19.9167 7.92482 20.0581L8.12404 20.1265L8.19142 20.1548C10.1132 21.0523 12.2907 21.2421 14.3389 20.6909C16.387 20.1397 18.175 18.8829 19.3867 17.1421C20.5984 15.4013 21.1561 13.2883 20.9619 11.1763C20.7677 9.06425 19.834 7.08873 18.3252 5.59814C16.8163 4.10753 14.8292 3.19727 12.7149 3.0288Z" fill="#E4F2F2"/>
</svg>
