<svg width="24" height="24" viewBox="0 0 24 24" fill="none" xmlns="http://www.w3.org/2000/svg">
<path d="M9.29299 8.29346C9.68351 7.90293 10.3165 7.90293 10.707 8.29346C11.0973 8.68401 11.0975 9.31711 10.707 9.70752L8.41408 12.0005L10.707 14.2935C11.0973 14.684 11.0975 15.3171 10.707 15.7075C10.3166 16.0978 9.68349 16.0977 9.29299 15.7075L6.29299 12.7075C5.90251 12.317 5.9026 11.684 6.29299 11.2935L9.29299 8.29346Z" fill="#E4F2F2"/>
<path d="M13.293 8.29346C13.6835 7.90293 14.3165 7.90293 14.707 8.29346L17.7071 11.2935C18.0973 11.684 18.0975 12.3171 17.7071 12.7075L14.707 15.7075C14.3166 16.0978 13.6835 16.0977 13.293 15.7075C12.9025 15.317 12.9026 14.684 13.293 14.2935L15.586 12.0005L13.293 9.70752C12.9025 9.31704 12.9026 8.68399 13.293 8.29346Z" fill="#E4F2F2"/>
<path fill-rule="evenodd" clip-rule="evenodd" d="M5.60549 3.05029C7.71481 1.54344 10.289 0.829925 12.8731 1.03565C15.4573 1.2415 17.8862 2.35339 19.7305 4.17529C21.5746 5.99707 22.7166 8.41137 22.9541 10.9927C23.1915 13.5741 22.5093 16.157 21.0283 18.2847C19.5473 20.4123 17.3617 21.9488 14.8584 22.6226C12.3745 23.2909 9.7358 23.0669 7.40041 21.9917C7.23752 21.9325 7.06235 21.9168 6.89162 21.9458L3.53713 22.9272C3.52937 22.9295 3.5215 22.932 3.51369 22.9341C3.18453 23.0214 2.8379 23.0228 2.50783 22.939C2.17786 22.8551 1.87449 22.6884 1.62697 22.4546C1.3794 22.2206 1.19524 21.9269 1.09279 21.6021C0.990417 21.2773 0.972551 20.9316 1.04103 20.5981L1.06935 20.4907L2.11232 17.269C2.14795 17.0852 2.13277 16.8952 2.06545 16.7202C0.962415 14.3985 0.705896 11.7634 1.34377 9.27197C1.98681 6.76082 3.49636 4.55724 5.60549 3.05029ZM12.7149 3.02881C10.6005 2.86042 8.49445 3.44435 6.76857 4.67725C5.04273 5.91021 3.80743 7.71335 3.28127 9.76807C2.78811 11.6943 2.94799 13.7257 3.72853 15.5464L3.8926 15.9077L3.92092 15.9741C4.14135 16.5304 4.19113 17.1398 4.06252 17.7241C4.05563 17.7554 4.04697 17.7865 4.03713 17.8169L3.00685 20.9976L6.38869 20.0093C6.41701 20.001 6.44666 19.9945 6.4756 19.9888C6.95816 19.8931 7.45585 19.9168 7.92482 20.0581L8.12404 20.1265L8.19142 20.1548C10.1132 21.0523 12.2907 21.2421 14.3389 20.6909C16.387 20.1397 18.175 18.8829 19.3867 17.1421C20.5984 15.4013 21.1561 13.2883 20.9619 11.1763C20.7677 9.06426 19.834 7.08874 18.3252 5.59815C16.8163 4.10754 14.8292 3.19727 12.7149 3.02881Z" fill="#E4F2F2"/>
</svg>
