<svg width="24" height="24" viewBox="0 0 24 24" fill="none" xmlns="http://www.w3.org/2000/svg">
<path fill-rule="evenodd" clip-rule="evenodd" d="M16 1C19.3137 1 22 3.68629 22 7C22 10.3137 19.3137 13 16 13C15.8182 13 15.6386 12.9895 15.4609 12.9736L7.84374 18.7881C7.45893 19.0822 6.98033 19.2263 6.49706 19.1943C6.27716 19.1797 6.06362 19.128 5.86327 19.0449C5.85352 19.256 5.87735 19.4968 5.95409 19.7588C6.15773 20.4533 6.62005 20.9202 7.16894 21.0146C7.80783 21.1244 8.49006 20.8291 9.5205 20.2588C9.9871 20.0005 10.5343 19.6851 11.0879 19.4453C11.6508 19.2015 12.2962 19 13 19C14.6355 19 15.9568 19.6021 17.0586 20.3447C17.5164 20.6533 17.6375 21.2745 17.3291 21.7324C17.0204 22.1903 16.3984 22.3116 15.9404 22.0029C15.0426 21.3979 14.1079 21 13 21C12.6749 21 12.3139 21.0935 11.8828 21.2803C11.4424 21.4711 11.0062 21.7227 10.4893 22.0088C9.55249 22.5273 8.26289 23.2315 6.83007 22.9854C5.3076 22.7235 4.38223 21.5056 4.03515 20.3223C3.78662 19.4746 3.77803 18.4313 4.20898 17.5732C3.9853 17.2721 3.84752 16.9131 3.81835 16.5352C3.7818 16.0593 3.91645 15.5853 4.19823 15.2002L10.0059 7.2627C10.0021 7.1756 9.99999 7.08802 9.99999 7C9.99999 3.6863 12.6863 1.00001 16 1ZM5.81249 16.3809L5.81347 16.3818L6.6289 17.1992L6.62988 17.1982L13.1055 12.2559C12.0644 11.6813 11.2134 10.8064 10.667 9.74805L5.81249 16.3809ZM16 3C13.7909 3.00001 12 4.79087 12 7C12 9.20913 13.7909 11 16 11C18.2091 11 20 9.20914 20 7C20 4.79086 18.2091 3 16 3Z" fill="#E4F2F2"/>
</svg>
