<svg width="24" height="24" viewBox="0 0 24 24" fill="none" xmlns="http://www.w3.org/2000/svg">
<path fill-rule="evenodd" clip-rule="evenodd" d="M1.29295 1.29297C1.68348 0.902445 2.31649 0.902445 2.70702 1.29297L22.707 21.293C23.0975 21.6835 23.0975 22.3165 22.707 22.707C22.3165 23.0975 21.6835 23.0975 21.293 22.707L16.9043 18.3184C15.9265 19.0772 14.7833 19.6034 13.5605 19.8467C13.3744 19.8837 13.1873 19.9129 13 19.9365V22C12.9999 22.5522 12.5522 23 12 23C11.4477 23 11 22.5522 11 22V19.9365C10.2953 19.8478 9.60171 19.6663 8.93846 19.3916C7.47661 18.7861 6.22668 17.76 5.34764 16.4443C4.52372 15.2109 4.06048 13.7743 4.00584 12.2959L3.99999 12V10C3.99999 9.44772 4.4477 9 4.99999 9C5.55224 9.00004 5.99999 9.44774 5.99999 10V12C5.99992 13.1867 6.35146 14.3472 7.01073 15.334C7.67001 16.3207 8.60773 17.0898 9.70409 17.5439C10.8004 17.998 12.0071 18.1163 13.1709 17.8848C14.0045 17.7189 14.7888 17.3776 15.4756 16.8896L14.0273 15.4414C13.6424 15.668 13.2219 15.833 12.7793 15.9209C12.0039 16.0749 11.2001 15.9957 10.4697 15.6934C9.73929 15.3909 9.11436 14.8788 8.67479 14.2217C8.23525 13.5646 8.00072 12.7915 7.99999 12.001V9.41406L1.29295 2.70703C0.90243 2.31651 0.90243 1.68349 1.29295 1.29297ZM9.99999 11.999L10.0058 12.1465C10.0315 12.4898 10.1455 12.8218 10.3379 13.1094C10.5577 13.4378 10.8702 13.6945 11.2353 13.8457C11.6004 13.9967 12.0022 14.036 12.3896 13.959C12.4318 13.9506 12.4733 13.9397 12.5146 13.9287L9.99999 11.4141V11.999Z" fill="#E4F2F2"/>
<path d="M19 9C19.5521 9.00019 20 9.44783 20 10V12.001C19.9996 12.4722 19.9572 12.9425 19.874 13.4063C19.7764 13.9498 19.2564 14.3114 18.7129 14.2139C18.1697 14.1161 17.808 13.597 17.9053 13.0537C17.9676 12.7061 17.9996 12.3532 18 12V10C18 9.44781 18.4478 9.00015 19 9Z" fill="#E4F2F2"/>
<path d="M10.3056 1.39453C11.1191 1.01431 12.0378 0.918364 12.9121 1.12305C13.7865 1.32786 14.5668 1.82143 15.1269 2.52344C15.6869 3.22533 15.9944 4.09532 16 4.99316V9.33984C15.9998 9.89184 15.552 10.3396 15 10.3398C14.448 10.3397 14.0002 9.89187 14 9.33984V5.00586L13.9922 4.83789C13.957 4.44911 13.8084 4.07758 13.5635 3.77051C13.2834 3.41956 12.8932 3.17273 12.456 3.07031C12.019 2.96805 11.5599 3.01606 11.1533 3.20606C10.7467 3.3962 10.4157 3.71818 10.2139 4.11914C9.96566 4.61238 9.36439 4.81054 8.87108 4.5625C8.37772 4.31432 8.17858 3.7131 8.42674 3.21973C8.8303 2.41786 9.49251 1.77488 10.3056 1.39453Z" fill="#E4F2F2"/>
</svg>
