<svg width="24" height="24" viewBox="0 0 24 24" fill="none" xmlns="http://www.w3.org/2000/svg">
<path d="M19 9C19.5523 9 20 9.44771 20 10V12C20 14.1217 19.1575 16.1569 17.6572 17.6572C16.3947 18.9198 14.7529 19.7137 13 19.9346V22C13 22.5523 12.5523 23 12 23C11.4477 23 11 22.5523 11 22V19.9346C9.24703 19.7138 7.60533 18.9198 6.34277 17.6572C4.9362 16.2507 4.10781 14.3739 4.00977 12.3965L4 12V10C4 9.44771 4.44772 9 5 9C5.55228 9 6 9.44771 6 10V12L6.00781 12.2979C6.08146 13.7807 6.703 15.1874 7.75781 16.2422C8.88303 17.3674 10.4087 18 12 18L12.2979 17.9922C13.7807 17.9185 15.1874 17.297 16.2422 16.2422C17.297 15.1874 17.9185 13.7807 17.9922 12.2979L18 12V10C18 9.44771 18.4477 9 19 9Z" fill="#E4F2F2"/>
<path fill-rule="evenodd" clip-rule="evenodd" d="M12 1C14.2091 1 16 2.79086 16 5V12C16 14.2091 14.2091 16 12 16C9.79086 16 8 14.2091 8 12V5C8 2.79086 9.79086 1 12 1ZM12 3C10.8954 3 10 3.89543 10 5V12C10 13.1046 10.8954 14 12 14C13.1046 14 14 13.1046 14 12V5C14 3.89543 13.1046 3 12 3Z" fill="#E4F2F2"/>
</svg>
