<svg width="24" height="24" viewBox="0 0 24 24" fill="none" xmlns="http://www.w3.org/2000/svg">
<path fill-rule="evenodd" clip-rule="evenodd" d="M12 2C12.5523 2 13 2.44772 13 3V5H17L17.2314 5.00879C17.7621 5.04982 18.2728 5.23279 18.7119 5.53809L18.7129 5.53711L22.1367 7.85449L22.1523 7.86523C22.4142 8.04976 22.6278 8.29477 22.7754 8.5791C22.923 8.86365 23 9.18043 23 9.50098C22.9999 9.82136 22.9229 10.1375 22.7754 10.4219C22.6278 10.7062 22.4142 10.9512 22.1523 11.1357C22.1472 11.1393 22.1419 11.143 22.1367 11.1465L18.7129 13.4629L18.7119 13.4619C18.2728 13.7672 17.7621 13.9502 17.2314 13.9912L17 14H13V21C13 21.5523 12.5523 22 12 22C11.4477 22 11 21.5523 11 21V14H4C3.46957 14 2.96101 13.7891 2.58594 13.4141C2.21086 13.039 2 12.5304 2 12V7C2 6.46957 2.21086 5.96101 2.58594 5.58594C2.96101 5.21087 3.46957 5 4 5H11V3C11 2.44772 11.4477 2 12 2ZM4 12H17C17.2062 12 17.4076 11.9362 17.5762 11.8174L17.5918 11.8066L21 9.50098L17.5918 7.19336C17.5867 7.18991 17.5812 7.18616 17.5762 7.18262C17.4076 7.06385 17.2062 6.99999 17 7H4V12Z" fill="#E4F2F2"/>
</svg>
