<svg width="24" height="24" viewBox="0 0 24 24" fill="none" xmlns="http://www.w3.org/2000/svg">
<path fill-rule="evenodd" clip-rule="evenodd" d="M1.29295 1.29297C1.68348 0.902482 2.3165 0.902457 2.70702 1.29297L22.707 21.293C23.0975 21.6835 23.0975 22.3165 22.707 22.707C22.3165 23.0975 21.6835 23.0975 21.293 22.707L18 19.4141V20C18 20.7956 17.6837 21.5585 17.1211 22.1211C16.5585 22.6837 15.7956 23 15 23H8.99999C8.20435 23 7.4415 22.6837 6.87889 22.1211C6.31628 21.5585 5.99999 20.7957 5.99999 20V10.2119C5.99986 9.42461 6.18806 8.65263 6.541 7.95508L1.29295 2.70703C0.90243 2.31651 0.90243 1.68349 1.29295 1.29297ZM9.49999 15.4971C8.99158 15.4971 8.48687 15.5691 7.99999 15.708V20C7.99999 20.2652 8.10542 20.5195 8.29295 20.707C8.48049 20.8945 8.73479 21 8.99999 21H15C15.2652 21 15.5195 20.8946 15.707 20.707C15.8945 20.5195 16 20.2652 16 20V17.4141L15.0664 16.4805C13.8898 16.5698 12.7061 16.3797 11.6133 15.9219C11.0276 15.6766 10.4043 15.5354 9.77147 15.5039L9.49999 15.4971ZM8.08592 9.5C8.02934 9.73188 7.99993 9.97076 7.99999 10.2119V13.6494C8.49237 13.5485 8.99498 13.4971 9.49999 13.4971L9.87108 13.5059C10.7353 13.5488 11.5869 13.7421 12.3867 14.0771C12.5297 14.137 12.6754 14.189 12.8223 14.2363L8.08592 9.5Z" fill="#E4F2F2"/>
<path d="M16 1C16.5522 1.00004 17 1.44774 17 2C17 2.51765 16.6066 2.94375 16.1025 2.99512L16 3V4.78906L16.0078 5.01074C16.0459 5.52496 16.2165 6.02203 16.5039 6.45312L17.1601 7.4375C17.7079 8.25908 18.0001 9.22448 18 10.2119V11.3428C18 11.895 17.5522 12.3427 17 12.3428C16.4477 12.3428 16 11.8951 16 11.3428V10.2119C16.0001 9.61938 15.8248 9.03988 15.4961 8.54688L14.8398 7.5625C14.2923 6.74119 14 5.77618 14 4.78906V3H9.99999V3.34277C9.99999 3.89503 9.55224 4.34273 8.99999 4.34277C8.4477 4.34277 7.99999 3.89506 7.99999 3.34277V3L7.89745 2.99512C7.39328 2.94382 6.99999 2.5177 6.99999 2C6.99999 1.44772 7.4477 1 7.99999 1H16Z" fill="#E4F2F2"/>
</svg>
