<svg width="24" height="24" viewBox="0 0 24 24" fill="none" xmlns="http://www.w3.org/2000/svg">
<path fill-rule="evenodd" clip-rule="evenodd" d="M16 1C16.5523 1 17 1.44772 17 2C17 2.55228 16.5523 3 16 3V4.78809L16.0078 5.00977C16.0458 5.5243 16.2163 6.02177 16.5039 6.45312L17.1602 7.4375C17.7077 8.25881 18 9.22382 18 10.2109V20C18 20.7957 17.6837 21.5585 17.1211 22.1211C16.5585 22.6837 15.7956 23 15 23H9C8.20441 23 7.44148 22.6837 6.87891 22.1211C6.31635 21.5585 6 20.7956 6 20V10.2119C5.99984 9.2245 6.29212 8.25907 6.83984 7.4375L7.49609 6.45312C7.82465 5.96035 7.99997 5.38133 8 4.78906V3C7.44779 2.99991 7 2.55223 7 2C7 1.44777 7.44779 1.00009 8 1H16ZM9.5 15.498C8.99149 15.4981 8.48697 15.57 8 15.709V20C8 20.2652 8.10548 20.5195 8.29297 20.707C8.48047 20.8945 8.73484 21 9 21H15C15.2652 21 15.5195 20.8945 15.707 20.707C15.8946 20.5195 16 20.2652 16 20V16.3486C15.6283 16.4249 15.251 16.4752 14.8711 16.4941L14.5 16.5029C13.509 16.5029 12.5273 16.3058 11.6133 15.9229C10.9439 15.6426 10.2256 15.498 9.5 15.498ZM10 4.78906L9.98633 5.1582C9.92285 6.01534 9.63924 6.84392 9.16016 7.5625L8.50391 8.54688C8.17523 9.03988 7.99987 9.61939 8 10.2119V13.6504C8.49246 13.5495 8.99495 13.4981 9.5 13.498C10.491 13.498 11.4726 13.6953 12.3867 14.0781C13.056 14.3584 13.7744 14.5029 14.5 14.5029L14.7715 14.4961C15.1879 14.4754 15.5999 14.4051 16 14.291V10.2109C16 9.61867 15.8246 9.03965 15.4961 8.54688L14.8398 7.5625C14.2921 6.74093 13.9998 5.7755 14 4.78809V3H10V4.78906Z" fill="#E4F2F2"/>
</svg>
