<svg width="24" height="24" viewBox="0 0 24 24" fill="none" xmlns="http://www.w3.org/2000/svg">
<path d="M9.99999 13C10.0586 13 10.116 13.0059 10.1719 13.0156C10.2119 13.0226 10.2519 13.0311 10.291 13.043C10.3401 13.0579 10.387 13.0777 10.4326 13.0996C10.4741 13.1196 10.5147 13.142 10.5537 13.168C10.6653 13.2424 10.7611 13.3382 10.8349 13.4502C10.8801 13.5186 10.9148 13.5917 10.9414 13.667C10.9461 13.6804 10.9519 13.6934 10.956 13.707C10.9622 13.7273 10.9668 13.748 10.9717 13.7686C10.9893 13.8429 11 13.9203 11 14V20C10.9999 20.5522 10.5522 21 9.99999 21C9.44773 21 9.00003 20.5522 8.99999 20V16.4141L3.70702 21.707C3.31652 22.0975 2.68348 22.0975 2.29295 21.707C1.90243 21.3165 1.90243 20.6835 2.29295 20.293L7.58592 15H3.99999C3.44773 15 3.00003 14.5523 2.99999 14C2.99999 13.4477 3.4477 13 3.99999 13H9.99999Z" fill="#E4F2F2"/>
<path d="M20.293 2.29297C20.6835 1.90245 21.3165 1.90245 21.707 2.29297C22.0975 2.6835 22.0975 3.31653 21.707 3.70703L16.414 9H20C20.5522 9.00004 21 9.44774 21 10C20.9999 10.5522 20.5522 11 20 11H14L13.8974 10.9951C13.876 10.9929 13.855 10.9879 13.834 10.9844C13.8236 10.9826 13.8131 10.9816 13.8027 10.9795C13.7912 10.9772 13.7799 10.9744 13.7685 10.9717C13.748 10.9668 13.7273 10.9623 13.707 10.9561C13.6934 10.9519 13.6804 10.9461 13.667 10.9414C13.6496 10.9353 13.6323 10.929 13.6152 10.9219C13.6063 10.9182 13.5976 10.9141 13.5889 10.9102C13.5413 10.8887 13.4946 10.8643 13.4502 10.835C13.3382 10.7611 13.2424 10.6653 13.168 10.5537C13.1419 10.5147 13.1195 10.4741 13.0996 10.4326C13.0777 10.387 13.0579 10.3401 13.043 10.291C13.0379 10.2743 13.0344 10.2572 13.0303 10.2402C13.0112 10.1632 13 10.0829 13 10V4C13 3.44772 13.4477 3 14 3C14.5522 3.00004 15 3.44774 15 4V7.58594L20.293 2.29297Z" fill="#E4F2F2"/>
</svg>
