<svg width="24" height="24" viewBox="0 0 24 24" fill="none" xmlns="http://www.w3.org/2000/svg">
<path fill-rule="evenodd" clip-rule="evenodd" d="M1.29297 1.29297C1.68349 0.902445 2.31651 0.902445 2.70703 1.29297L3.80371 2.38965C3.8626 2.43612 3.91602 2.48992 3.96387 2.54981L22.707 21.293C23.0975 21.6835 23.0975 22.3165 22.707 22.707C22.3165 23.0975 21.6835 23.0975 21.293 22.707L16.5859 18H13V20H16C16.5523 20 17 20.4477 17 21C17 21.5522 16.5523 22 16 22H8C7.44774 22 7.00004 21.5522 7 21C7 20.4477 7.44772 20 8 20H11V18H4C3.20439 18 2.44151 17.6836 1.87891 17.1211C1.31637 16.5585 1.00005 15.7956 1 15V5C1.00001 4.42076 1.16728 3.8532 1.48242 3.36719C1.54374 3.27263 1.61052 3.18221 1.68164 3.0957L1.29297 2.70703C0.902457 2.31652 0.902482 1.6835 1.29297 1.29297ZM3.11816 4.53223C3.04178 4.67613 3.00001 4.83623 3 5V15C3.00005 15.2651 3.1055 15.5195 3.29297 15.707C3.4805 15.8945 3.73482 16 4 16H14.5859L3.11816 4.53223Z" fill="#E4F2F2"/>
<path d="M20 2C20.7955 2.00007 21.5586 2.31643 22.1211 2.87891C22.6836 3.4415 23 4.20443 23 5V15C22.9999 15.5514 22.8479 16.0928 22.5605 16.5635C22.2728 17.0344 21.6577 17.1828 21.1865 16.8955C20.7151 16.6077 20.5657 15.9919 20.8535 15.5205C20.9253 15.4029 20.9725 15.2723 20.9912 15.1367L21 15V5C21 4.73486 20.8945 4.48049 20.707 4.29297C20.5196 4.10557 20.2651 4.00007 20 4H8.65625C8.10399 4 7.65629 3.55225 7.65625 3C7.65625 2.44772 8.10397 2 8.65625 2H20Z" fill="#E4F2F2"/>
</svg>
