<svg width="24" height="24" viewBox="0 0 24 24" fill="none" xmlns="http://www.w3.org/2000/svg">
<path d="M11 2C11.5522 2 11.9999 2.44781 12 3C12 3.55229 11.5523 4 11 4H4C3.73483 4 3.4805 4.1055 3.29297 4.29297C3.10548 4.48046 3.00005 4.73486 3 5V15C3 15.2652 3.10549 15.5195 3.29297 15.707C3.48051 15.8946 3.73478 16 4 16H20C20.2652 16 20.5195 15.8946 20.707 15.707C20.8945 15.5195 21 15.2652 21 15V13C21.0001 12.4478 21.4478 12 22 12C22.5522 12 22.9999 12.4478 23 13V15C23 15.7956 22.6836 16.5585 22.1211 17.1211C21.5585 17.6837 20.7957 18 20 18H13V20H16C16.5522 20 16.9999 20.4478 17 21C17 21.5523 16.5523 22 16 22H8C7.44772 22 7 21.5523 7 21C7.00011 20.4478 7.44778 20 8 20H11V18H4C3.20435 18 2.44151 17.6837 1.87891 17.1211C1.31636 16.5585 1 15.7956 1 15V5C1.00005 4.20443 1.31634 3.44147 1.87891 2.87891C2.44151 2.31636 3.2044 2 4 2H11Z" fill="#E4F2F2"/>
<path fill-rule="evenodd" clip-rule="evenodd" d="M18.6074 1.9209C18.8191 1.41119 19.4041 1.16868 19.9141 1.37989C20.4239 1.59135 20.6661 2.17654 20.4551 2.68653L20.4053 2.80469C20.7037 3.02965 20.9693 3.29545 21.1943 3.59375L21.3135 3.54493C21.8235 3.33388 22.4086 3.57608 22.6201 4.08594C22.8315 4.59594 22.5889 5.18092 22.0791 5.39258L21.96 5.44141C21.9855 5.62401 22 5.81037 22 6C22 6.18924 21.9854 6.37539 21.96 6.55762L22.0791 6.60743C22.5889 6.81904 22.8314 7.40408 22.6201 7.91407C22.4087 8.42407 21.8235 8.6662 21.3135 8.45508L21.1943 8.40528C20.969 8.70408 20.7032 8.97007 20.4043 9.19532L20.4541 9.31446C20.6648 9.82466 20.4222 10.4091 19.9121 10.6201C19.4019 10.831 18.8176 10.5882 18.6064 10.0781L18.5576 9.95997C18.3753 9.9854 18.1893 10 18 10C17.8104 10 17.624 9.98549 17.4414 9.95997L17.3926 10.0791C17.1808 10.5887 16.5958 10.8304 16.0859 10.6191C15.5761 10.4075 15.3337 9.82243 15.5449 9.3125L15.5928 9.19434C15.2945 8.96923 15.0286 8.70368 14.8037 8.40528L14.6875 8.45411C14.1774 8.665 13.5921 8.42304 13.3809 7.91309C13.1698 7.40301 13.412 6.81789 13.9219 6.60645L14.0391 6.55762C14.0137 6.37543 14 6.18919 14 6C14 5.81009 14.0135 5.62329 14.0391 5.44043L13.9219 5.39258C13.4122 5.18082 13.1696 4.5958 13.3809 4.08594C13.5925 3.57631 14.1777 3.33393 14.6875 3.54493L14.8047 3.59375C15.0297 3.29547 15.2954 3.02967 15.5938 2.80469L15.5449 2.68653C15.3339 2.17649 15.576 1.59129 16.0859 1.37989C16.5959 1.16855 17.1809 1.41109 17.3926 1.9209L17.4414 2.03907C17.624 2.01356 17.8104 2 18 2C18.1892 2 18.3754 2.01365 18.5576 2.03907L18.6074 1.9209ZM18 4C16.8955 4 16.0001 4.89553 16 6C16 7.10457 16.8954 8 18 8C19.1046 8 20 7.10457 20 6C19.9999 4.89553 19.1045 4 18 4Z" fill="#E4F2F2"/>
</svg>
