<svg width="24" height="24" viewBox="0 0 24 24" fill="none" xmlns="http://www.w3.org/2000/svg">
<path fill-rule="evenodd" clip-rule="evenodd" d="M11.581 2.01367C12.1852 2.02964 12.6375 2.40796 12.8476 2.84766C13.0627 3.29801 13.0619 3.86956 12.7617 4.34863L12.7607 4.34766C12.1619 5.30626 11.9063 6.44044 12.0342 7.56348C12.1622 8.68661 12.6675 9.73387 13.4668 10.5332C14.2662 11.3323 15.3134 11.8369 16.4365 11.9648C17.5597 12.0926 18.6937 11.8365 19.6523 11.2373L19.8349 11.1387C20.2703 10.941 20.7564 10.9622 21.1514 11.1504C21.6217 11.3748 22.0195 11.8758 21.9834 12.541C21.8791 14.4697 21.2182 16.3274 20.081 17.8887C18.9437 19.45 17.3781 20.649 15.5742 21.3398C13.7703 22.0306 11.8043 22.1844 9.91503 21.7822C8.02581 21.3799 6.29369 20.438 4.92772 19.0723C3.56177 17.7064 2.62035 15.9742 2.21776 14.085C1.81527 12.1956 1.96854 10.2298 2.65917 8.42578C3.34992 6.62166 4.54891 5.05644 6.11034 3.91895C7.67179 2.78149 9.529 2.11996 11.458 2.01562L11.581 2.01367ZM10.6211 4.12109C9.42056 4.33087 8.27892 4.81263 7.2871 5.53516C6.03819 6.44508 5.0799 7.69757 4.52733 9.14062C3.97483 10.5838 3.85185 12.1565 4.17382 13.668C4.49589 15.1794 5.24901 16.5655 6.34179 17.6582C7.43462 18.7508 8.82058 19.5043 10.332 19.8262C11.8435 20.1479 13.4162 20.0244 14.8594 19.4717C16.3025 18.9189 17.555 17.9601 18.4648 16.7109C19.187 15.7194 19.6672 14.578 19.8769 13.3779C18.7336 13.8931 17.4675 14.0953 16.21 13.9521C14.6373 13.7731 13.171 13.0664 12.0517 11.9473C10.9326 10.8281 10.226 9.36159 10.0469 7.78906C9.90371 6.53134 10.1057 5.26459 10.6211 4.12109Z" fill="#E4F2F2"/>
</svg>
