<svg width="24" height="24" viewBox="0 0 24 24" fill="none" xmlns="http://www.w3.org/2000/svg">
<path fill-rule="evenodd" clip-rule="evenodd" d="M19.9883 1.03225C20.5106 1.03018 21.025 1.16443 21.4795 1.4219C21.9338 1.67947 22.3135 2.05189 22.5801 2.501C22.8466 2.95031 22.9917 3.46203 23 3.9844C23.0001 3.98951 23 3.99492 23 4.00002C22.9999 4.95838 22.5166 5.69812 22.0078 6.20705C21.9977 6.21713 21.9871 6.22769 21.9766 6.23733L20.125 7.93557C20.7492 8.3002 21.2988 8.71653 21.7461 9.18166C22.4886 9.95392 22.9909 10.9057 22.999 11.9737C22.9993 11.9824 23 11.9912 23 12C23 14.9174 21.8412 17.7154 19.7783 19.7783C17.7154 21.8412 14.9174 23 12 23C9.08262 23 6.28458 21.8412 4.22168 19.7783C2.15879 17.7154 1 14.9174 1 12C1 11.9912 1.00075 11.9824 1.00098 11.9737C1.01425 10.1367 2.41094 8.68291 4.15625 7.72366C5.91472 6.75725 8.27623 6.13608 10.8721 6.00979L18.4863 1.44241L18.5 1.43459C18.9525 1.17331 19.4658 1.03441 19.9883 1.03225ZM19.9561 16.2051C19.8085 16.2878 19.6594 16.3696 19.5068 16.4453C17.5279 17.4279 14.8693 18 12 18C9.13072 18 6.47208 17.4279 4.49316 16.4453C4.3403 16.3694 4.19079 16.288 4.04297 16.2051C4.45938 16.9933 4.99386 17.7224 5.63574 18.3643C7.32357 20.0521 9.61305 21 12 21C14.3869 21 16.6764 20.0521 18.3643 18.3643C19.006 17.7225 19.5397 16.9931 19.9561 16.2051ZM8.3623 8.33498C7.10018 8.59819 5.99584 8.99474 5.11914 9.47659C3.59789 10.3127 3.00001 11.2495 3 12C3 12.8172 3.67877 13.8086 5.38184 14.6543C7.0279 15.4717 9.36937 16 12 16C14.6306 16 16.9721 15.4717 18.6182 14.6543C20.3212 13.8086 21 12.8172 21 12C21 11.5787 20.805 11.0898 20.3037 10.5684C19.8949 10.1433 19.3096 9.73085 18.5635 9.36916L14.6768 12.9375L14.6758 12.9365C13.985 13.6112 13.0411 13.9999 12 14C11.1193 14.0007 10.2625 13.7105 9.56348 13.1748C8.86418 12.6387 8.36088 11.8863 8.13281 11.0352C7.90485 10.1839 7.96496 9.28076 8.30273 8.46682C8.32124 8.42224 8.34226 8.37874 8.3623 8.33498ZM19.9961 3.03225C19.8235 3.03304 19.6537 3.07841 19.5039 3.16409L11.0146 8.25784C11.0096 8.26087 11.0041 8.26369 10.999 8.26662C10.6172 8.48646 10.3183 8.82646 10.1494 9.23342C9.98055 9.64037 9.95146 10.092 10.0654 10.5176C10.1795 10.9431 10.4306 11.3199 10.7803 11.5879C11.1299 11.8557 11.5586 12.0005 11.999 12C12.542 11.9999 12.9865 11.7996 13.293 11.4932C13.303 11.4832 13.3138 11.4735 13.3242 11.4639L20.6035 4.78127C20.8862 4.49489 20.9999 4.23809 21 4.00002C20.9946 3.83168 20.9463 3.66654 20.8604 3.52151C20.7716 3.37213 20.6452 3.24792 20.4941 3.16213C20.3427 3.07632 20.1702 3.03161 19.9961 3.03225Z" fill="#E4F2F2"/>
</svg>
