<svg width="24" height="24" viewBox="0 0 24 24" fill="none" xmlns="http://www.w3.org/2000/svg">
<path fill-rule="evenodd" clip-rule="evenodd" d="M10.2119 1.14057C11.8053 0.877769 13.4371 0.969281 14.9912 1.40814C16.5455 1.84709 17.9844 2.62299 19.2051 3.6806C20.4257 4.73819 21.3989 6.05138 22.0547 7.52728C22.7105 9.00325 23.0333 10.6059 23 12.2206V17.2001C23 17.618 22.8828 18.0732 22.7285 18.4589C22.574 18.8453 22.3355 19.2787 22.0069 19.6074L19.4073 22.207C19.3738 22.2404 19.3376 22.2714 19.2998 22.2997C18.9748 22.5435 18.5645 22.7242 18.1494 22.8144C17.7438 22.9025 17.2311 22.925 16.7393 22.7314L16.7344 22.7304C16.7325 22.7297 16.7304 22.7292 16.7285 22.7285L3.53909 17.6328L3.52835 17.6288C3.11235 17.4624 2.72732 17.1666 2.43069 16.8701C2.134 16.5734 1.8374 16.1876 1.67092 15.7714C1.66686 15.7613 1.66293 15.7505 1.6592 15.7402C1.10925 14.2218 0.900844 12.6004 1.04788 10.9921C1.19498 9.38392 1.69453 7.82798 2.51077 6.43451C3.3271 5.0409 4.44051 3.84353 5.77151 2.92865C7.10239 2.01397 8.61857 1.40339 10.2119 1.14057ZM14.4483 3.33295C13.1766 2.97381 11.841 2.89913 10.5371 3.1142C9.23348 3.32925 7.99321 3.8287 6.90432 4.57709C5.81532 5.32562 4.90426 6.30502 4.23635 7.44525C3.56845 8.58548 3.1594 9.85879 3.03909 11.1747C2.91954 12.4825 3.08843 13.8003 3.53225 15.0361C3.56889 15.122 3.67184 15.2821 3.84475 15.455C4.02305 15.6333 4.18772 15.7379 4.27151 15.7714L17.46 20.8671L17.4717 20.871C17.4748 20.872 17.4948 20.8784 17.5371 20.8798C17.5854 20.8814 17.6495 20.8766 17.7246 20.8603C17.8598 20.8309 17.9801 20.7755 18.0596 20.7255L20.2901 18.4951L10.9434 14.9345C10.2745 14.6855 9.71866 14.2036 9.36917 13.582C9.01812 12.9574 8.89519 12.228 9.01858 11.5224C9.14213 10.8164 9.50603 10.1721 10.0528 9.70795C10.5967 9.24623 11.2862 8.9941 12 9.00092L20.4854 8.99994C20.4068 8.77733 20.3228 8.55628 20.2266 8.33978C19.69 7.13225 18.8942 6.05762 17.8955 5.19232C16.8969 4.32707 15.7199 3.6921 14.4483 3.33295ZM11.9854 10.9999C11.757 10.9967 11.5302 11.0766 11.3467 11.2324C11.1626 11.3888 11.0328 11.613 10.9883 11.8671C10.9439 12.1215 10.9889 12.3829 11.1123 12.6025C11.2355 12.8215 11.4265 12.9813 11.6446 13.0615L11.6553 13.0654L21 16.6249V12.1796C21.0082 11.7845 20.9868 11.3907 20.9434 10.9999H11.9854Z" fill="#E4F2F2"/>
</svg>
