<svg width="24" height="24" viewBox="0 0 24 24" fill="none" xmlns="http://www.w3.org/2000/svg">
<path fill-rule="evenodd" clip-rule="evenodd" d="M16.1904 4.41308C16.5147 3.96613 17.1399 3.86634 17.5869 4.19043C18.871 5.12201 19.7344 6.52466 19.9873 8.09082C19.9958 8.14343 20 8.19671 20 8.25V9C20 9.5304 19.7891 10.039 19.4141 10.4141C19.0515 10.7767 18.564 10.9836 18.0527 10.9971L18.7236 13.0098C18.815 13.0035 18.9071 13 19 13C21.2091 13 23 14.7909 23 17C23 19.2091 21.2091 21 19 21C16.7909 21 15 19.2091 15 17C15 15.5924 15.7271 14.3545 16.8262 13.6416L16.0742 11.3857C15.4782 11.6346 14.9304 11.9992 14.4648 12.4648C13.5272 13.4025 13 14.6739 13 16C13 16.5304 12.7891 17.039 12.4141 17.4141C12.039 17.7891 11.5304 18 11 18H8.87402C8.42996 19.7252 6.86382 21 5 21C2.79088 21 1.00003 19.2091 1 17C1 14.7909 2.79086 13 5 13C6.86386 13 8.43001 14.2747 8.87402 16H11C11 14.1435 11.7371 12.3626 13.0498 11.0498C13.2853 10.8143 13.5355 10.5969 13.7988 10.3994C13.7613 10.3492 13.7188 10.3025 13.6719 10.2598C13.5108 10.1134 13.3069 10.0239 13.0918 10.0039L13 10H11C10.7348 10 10.4805 10.1054 10.293 10.293C10.1055 10.4805 10 10.7348 10 11C9.99998 11.3214 9.84569 11.6236 9.58496 11.8115C9.3242 11.9994 8.98852 12.0499 8.68359 11.9482L2.68359 9.94824C2.15986 9.77348 1.87718 9.20742 2.05176 8.68359C2.22652 8.15983 2.79256 7.87714 3.31641 8.05175L8.29395 9.71093C8.43951 9.40534 8.63499 9.12282 8.87891 8.8789C9.44151 8.31629 10.2043 8 11 8H13L13.2783 8.01269C13.9234 8.07298 14.5346 8.34105 15.0176 8.78027C15.231 8.97438 15.4129 9.19693 15.5605 9.43945C16.2274 9.19167 16.9326 9.0445 17.6533 9.00879L18 9V8.34082C17.8177 7.32461 17.2502 6.41695 16.4131 5.80957C15.9661 5.48533 15.8664 4.8601 16.1904 4.41308ZM5 15C3.89543 15 3 15.8954 3 17C3.00003 18.1045 3.89545 19 5 19C6.10455 19 6.99997 18.1045 7 17C7 15.8954 6.10457 15 5 15ZM19 15C17.8954 15 17 15.8954 17 17C17 18.1045 17.8955 19 19 19C20.1045 19 21 18.1045 21 17C21 15.8954 20.1046 15 19 15Z" fill="#E4F2F2"/>
</svg>
