<svg width="24" height="24" viewBox="0 0 24 24" fill="none" xmlns="http://www.w3.org/2000/svg">
<path fill-rule="evenodd" clip-rule="evenodd" d="M7.92871 2.00342C8.33207 1.97484 8.71368 2.19152 8.89453 2.55322L12.2734 9.31201L16.293 5.29346L16.3896 5.2085C16.6262 5.02614 16.9344 4.9573 17.2295 5.02686C17.5665 5.10654 17.8386 5.35554 17.9482 5.68408L22.9482 20.6841C23.0497 20.9889 22.9994 21.3248 22.8115 21.5854C22.6236 21.846 22.3213 22.0004 22 22.0005H1.99999C1.67872 22.0005 1.37644 21.846 1.18847 21.5854C1.00058 21.3248 0.95023 20.989 1.05175 20.6841L7.05175 2.68408L7.10937 2.54639C7.26678 2.23747 7.57578 2.02865 7.92871 2.00342ZM8.0166 15.0054C6.97005 14.9495 5.89025 15.22 4.76171 15.8735L3.38671 20.0005H20.6133L19.668 17.1655C18.5067 17.7384 17.3118 18.0283 16.0918 18.0005C14.4805 17.9638 12.9189 17.3758 11.4228 16.3169L11.2002 16.1636C10.0912 15.4258 9.03252 15.0597 8.0166 15.0054ZM5.61035 13.3257C6.43528 13.0727 7.27386 12.9629 8.12304 13.0083C9.659 13.0904 11.1467 13.6738 12.5762 14.6831C13.8197 15.5635 15.0045 15.9756 16.1377 16.0015C17.0684 16.0226 18.0288 15.7845 19.0273 15.2456L16.5625 7.85107L12.707 11.7075C12.4798 11.9347 12.157 12.0391 11.8398 11.9878C11.5227 11.9363 11.2493 11.735 11.1055 11.4478L8.18457 5.60596L5.61035 13.3257Z" fill="#E4F2F2"/>
</svg>
