<svg width="24" height="24" viewBox="0 0 24 24" fill="none" xmlns="http://www.w3.org/2000/svg">
<path fill-rule="evenodd" clip-rule="evenodd" d="M1.29296 1.29298C1.68348 0.902622 2.31655 0.902572 2.70703 1.29298L22.707 21.293C23.0975 21.6834 23.0974 22.3165 22.707 22.707C22.3165 23.0976 21.6835 23.0976 21.293 22.707L18.3955 19.8096C17.5963 20.8729 16.5397 21.7259 15.3164 22.2832C13.6846 23.0265 11.8497 23.2005 10.1074 22.7764C8.36525 22.3522 6.81653 21.3544 5.70898 19.9443C4.67054 18.6222 4.07629 17.0091 4.00683 15.335L4 15V9.00001C3.99964 7.96913 4.20129 6.95145 4.58593 6.00001L1.29296 2.70704C0.902512 2.31651 0.902464 1.68348 1.29296 1.29298ZM6.16796 7.58204C6.05584 8.04459 5.99979 8.52075 6 9.00001V15.001C5.9995 16.3456 6.45074 17.6515 7.28125 18.709C8.11193 19.7666 9.27437 20.5149 10.581 20.833C11.8876 21.151 13.2635 21.0213 14.4873 20.4639C15.492 20.0062 16.3463 19.2816 16.9619 18.376L6.16796 7.58204Z" fill="#E4F2F2"/>
<path d="M12.0596 0.99903C13.457 1.00951 14.8274 1.38607 16.0342 2.09083C17.2411 2.7958 18.2428 3.80526 18.9385 5.01758C19.634 6.22981 20.0003 7.60339 20 9.00098V13.3438C19.9997 13.8957 19.5519 14.3435 19 14.3438C18.4481 14.3436 18.0003 13.8957 18 13.3438V9.00001C18.0002 7.95187 17.7248 6.92181 17.2031 6.0127C16.6814 5.10356 15.9305 4.34705 15.0254 3.81837C14.1202 3.28973 13.0921 3.00685 12.0439 2.99903C10.9959 2.99134 9.96356 3.25839 9.05078 3.77344C8.56991 4.04438 7.95981 3.87426 7.68847 3.39356C7.41749 2.91278 7.58783 2.3027 8.06835 2.03126C9.28549 1.34455 10.6621 0.988668 12.0596 0.99903Z" fill="#E4F2F2"/>
<path d="M12 5.00001C12.5522 5.00005 12.9999 5.44785 13 6.00001V6.34278L12.9951 6.44532C12.9439 6.94953 12.5177 7.34274 12 7.34278C11.4822 7.34278 11.0561 6.94956 11.0049 6.44532L11 6.34278V6.00001C11.0001 5.44782 11.4478 5.00001 12 5.00001Z" fill="#E4F2F2"/>
</svg>
