<svg width="24" height="24" viewBox="0 0 24 24" fill="none" xmlns="http://www.w3.org/2000/svg">
<path fill-rule="evenodd" clip-rule="evenodd" d="M9.31934 8.00782C9.57294 7.97785 9.83041 8.01431 10.0674 8.11231L10.0684 8.11133L21.0684 12.6113C21.3251 12.7167 21.548 12.8915 21.7109 13.1143L21.7773 13.2129L21.835 13.3164C21.9607 13.5623 22.0166 13.8394 21.9951 14.1162C21.9704 14.4326 21.8459 14.7334 21.6396 14.9746C21.4335 15.2155 21.156 15.3835 20.8477 15.457L20.8486 15.458L16.499 16.499L15.459 20.8486C15.3857 21.1566 15.2169 21.4334 14.9766 21.6397C14.735 21.8469 14.4335 21.9724 14.1162 21.9971C13.799 22.0217 13.4816 21.9446 13.2109 21.7773C12.9406 21.6101 12.7301 21.3609 12.6104 21.0664L8.11133 10.0684L8.1123 10.0674C8.00009 9.79603 7.96835 9.49744 8.02441 9.20899L8.0498 9.10059C8.11827 8.84992 8.25089 8.6202 8.43555 8.43555L8.51758 8.36036C8.71446 8.19075 8.95266 8.07433 9.20898 8.02442L9.31934 8.00782ZM13.874 18.874L14.5537 16.0332L14.5547 16.0322C14.641 15.6734 14.8248 15.3448 15.0859 15.084C15.347 14.8233 15.6753 14.6395 16.0342 14.5537L18.873 13.8731L10.4121 10.4121L13.874 18.874Z" fill="#E4F2F2"/>
<path d="M5.27441 11.3115C5.65473 10.9112 6.28806 10.8952 6.68848 11.2754C7.08858 11.6558 7.10477 12.2882 6.72461 12.6885L4.82422 14.6885C4.44381 15.0886 3.81146 15.1049 3.41113 14.7246C3.01106 14.3443 2.99489 13.7119 3.375 13.3115L5.27441 11.3115Z" fill="#E4F2F2"/>
<path d="M1.23633 6.93457C1.38317 6.40226 1.9335 6.08963 2.46582 6.23633L5.36621 7.03614C5.89844 7.18312 6.2113 7.7343 6.06445 8.26661C5.9174 8.79863 5.36615 9.11055 4.83398 8.96387L1.93457 8.16407C1.4023 8.01723 1.08971 7.46686 1.23633 6.93457Z" fill="#E4F2F2"/>
<path d="M13.3115 3.375C13.7118 2.99489 14.3443 3.01106 14.7246 3.41114C15.1049 3.81146 15.0886 4.44381 14.6885 4.82422L12.6885 6.72461C12.2881 7.10478 11.6558 7.08859 11.2754 6.68848C10.8952 6.28806 10.9112 5.65473 11.3115 5.27442L13.3115 3.375Z" fill="#E4F2F2"/>
<path d="M6.93457 1.23633C7.46685 1.08971 8.01723 1.4023 8.16406 1.93457L8.96387 4.83399C9.11055 5.36616 8.79863 5.9174 8.2666 6.06446C7.73429 6.2113 7.18312 5.89845 7.03613 5.36621L6.23633 2.46582C6.08963 1.9335 6.40226 1.38318 6.93457 1.23633Z" fill="#E4F2F2"/>
</svg>
