<svg width="24" height="24" viewBox="0 0 24 24" fill="none" xmlns="http://www.w3.org/2000/svg">
<path fill-rule="evenodd" clip-rule="evenodd" d="M3.20654 2.02588C3.49407 1.9696 3.79214 1.99967 4.06299 2.11084L4.06396 2.10986L20.064 8.60986L20.0649 8.61084C20.3201 8.71483 20.5415 8.88675 20.7046 9.10693L20.771 9.20459L20.8296 9.30713C20.9561 9.55015 21.0138 9.82427 20.9956 10.0991C20.9747 10.4136 20.8548 10.7138 20.6538 10.9565C20.4528 11.1991 20.1804 11.3725 19.8755 11.4517L14.3022 12.8882L19.7065 18.2925C20.097 18.683 20.097 19.316 19.7065 19.7065C19.316 20.097 18.683 20.097 18.2925 19.7065L12.8882 14.3022L11.4517 19.8745L11.4497 19.8833C11.3686 20.1863 11.1941 20.4558 10.9517 20.6548C10.7092 20.8539 10.4103 20.9722 10.0972 20.9927C9.78431 21.013 9.47274 20.9347 9.20654 20.769C8.9405 20.6033 8.73261 20.3585 8.61279 20.0688L8.60986 20.063L2.10986 4.06396L2.11084 4.06299C1.99967 3.79214 1.9696 3.49407 2.02588 3.20654C2.08315 2.91475 2.22576 2.64631 2.43603 2.43603C2.64631 2.22576 2.91475 2.08315 3.20654 2.02588ZM9.89307 17.9067L11.0845 13.2915C11.2118 12.7672 11.4783 12.2866 11.856 11.9009L11.8784 11.8784C11.8859 11.8709 11.8942 11.8642 11.9019 11.8569C12.277 11.4896 12.7414 11.2255 13.2505 11.0942L17.9077 9.89307L4.40967 4.40967L9.89307 17.9067Z" fill="#E4F2F2"/>
</svg>
