<svg width="24" height="24" viewBox="0 0 24 24" fill="none" xmlns="http://www.w3.org/2000/svg">
<path fill-rule="evenodd" clip-rule="evenodd" d="M4.32275 3.00635C4.57433 2.97778 4.82921 3.01444 5.06397 3.11182L21.0649 9.61085C21.3203 9.71492 21.5424 9.88749 21.7056 10.1079L21.772 10.2056L21.8306 10.3071C21.9572 10.5504 22.0149 10.825 21.9966 11.1001C21.9756 11.4145 21.8557 11.7149 21.6548 11.9575C21.4538 12.2 21.1813 12.3735 20.8765 12.4526L14.7515 14.0327C14.5786 14.0772 14.4199 14.1674 14.2935 14.2935C14.167 14.4196 14.0766 14.5776 14.0317 14.7505L14.0308 14.7495L12.4526 20.8745V20.8765C12.3735 21.1813 12.2 21.4539 11.9575 21.6548C11.7148 21.8557 11.4145 21.9756 11.1001 21.9966C10.7859 22.0175 10.4727 21.9388 10.2056 21.772C9.93842 21.605 9.72977 21.3577 9.61084 21.0659L3.11084 5.06495L3.11182 5.06397C3.00008 4.79463 2.96835 4.49822 3.02295 4.21143L3.04834 4.10206C3.1163 3.85024 3.24873 3.61945 3.43408 3.43409L3.51709 3.35792C3.71481 3.18796 3.95404 3.07206 4.21143 3.02296L4.32275 3.00635ZM10.8931 18.9097L12.0952 14.2495C12.2297 13.7308 12.5011 13.256 12.8804 12.8774C13.2594 12.4993 13.7329 12.2297 14.2515 12.0962L18.9097 10.894L5.40869 5.4087L10.8931 18.9097Z" fill="#E4F2F2"/>
</svg>
