<svg width="24" height="24" viewBox="0 0 24 24" fill="none" xmlns="http://www.w3.org/2000/svg">
<path fill-rule="evenodd" clip-rule="evenodd" d="M16 9C19.866 9 23 12.134 23 16C23 19.8659 19.866 23 16 23C12.1341 22.9999 9.00005 19.8659 9 16C9 12.1341 12.1341 9.0001 16 9ZM11.8291 13.2432C11.3057 14.0336 11 14.981 11 16C11 18.7613 13.2387 20.9999 16 21C17.0189 21 17.9655 20.6933 18.7559 20.1699L11.8291 13.2432ZM16 11C14.9808 11 14.0326 11.3045 13.2422 11.8281L20.1709 18.7568C20.6944 17.9664 21 17.0191 21 16C21 13.2386 18.7614 11 16 11Z" fill="#E4F2F2"/>
<path fill-rule="evenodd" clip-rule="evenodd" d="M2.30273 1.01074C2.55288 0.978063 2.80808 1.00905 3.04395 1.10156L12.042 4.60058C12.2961 4.69897 12.5182 4.8652 12.6846 5.0791L12.7529 5.17382L12.8135 5.27343C12.9446 5.51038 13.0094 5.77967 13 6.05175C12.9891 6.3629 12.8814 6.66379 12.6924 6.91113C12.5032 7.15842 12.2408 7.33964 11.9434 7.43164L11.9443 7.43261L8.5 8.5L7.43359 11.9434C7.34162 12.2405 7.15913 12.5023 6.91211 12.6914C6.66476 12.8806 6.36397 12.9881 6.05273 12.999C5.74153 13.0098 5.43474 12.9234 5.17481 12.7519C4.91486 12.5804 4.71408 12.3324 4.60156 12.042L1.10254 3.04296L1.10352 3.04199C0.997947 2.77234 0.971904 2.47809 1.03027 2.19433L1.05566 2.08789C1.12522 1.84257 1.25634 1.61768 1.4375 1.43652L1.51758 1.3623C1.7106 1.19566 1.94436 1.08096 2.19531 1.02929L2.30273 1.01074ZM5.94629 9.98144L6.58887 7.9082C6.68502 7.5979 6.85622 7.31565 7.08594 7.08593C7.31572 6.85627 7.59787 6.68494 7.9082 6.58886L9.9834 5.94628L3.37793 3.37695L5.94629 9.98144Z" fill="#E4F2F2"/>
</svg>
