<svg width="24" height="24" viewBox="0 0 24 24" fill="none" xmlns="http://www.w3.org/2000/svg">
<path fill-rule="evenodd" clip-rule="evenodd" d="M21.293 1.29297C21.6835 0.902445 22.3165 0.902445 22.707 1.29297C23.0975 1.6835 23.0975 2.31653 22.707 2.70703L17.3232 8.08984L21.0645 9.61035L21.0654 9.61133C21.3206 9.71536 21.542 9.88718 21.7051 10.1074L21.7715 10.2051L21.8301 10.3076C21.9565 10.5507 22.0143 10.8248 21.9961 11.0996C21.9751 11.4139 21.8562 11.7144 21.6553 11.957C21.4544 12.1996 21.1817 12.3729 20.877 12.4521H20.875L14.751 14.0322C14.5781 14.0767 14.4194 14.167 14.293 14.293C14.1666 14.4191 14.0761 14.5772 14.0313 14.75L12.4521 20.875V20.877C12.3729 21.1817 12.1996 21.4544 11.957 21.6553C11.7144 21.8562 11.4139 21.9751 11.0996 21.9961C10.7854 22.017 10.4722 21.9384 10.2051 21.7715C9.93795 21.6045 9.73026 21.3571 9.61133 21.0654L9.61035 21.0645L8.08984 17.3232L2.70703 22.707C2.31653 23.0975 1.6835 23.0975 1.29297 22.707C0.902445 22.3165 0.902445 21.6835 1.29297 21.293L21.293 1.29297ZM9.62598 15.7871L10.8936 18.9082L12.0947 14.25V14.248C12.2292 13.7294 12.5007 13.2564 12.8799 12.8779C13.2589 12.4997 13.7324 12.2292 14.251 12.0957L18.9082 10.8936L15.7871 9.62598L9.62598 15.7871Z" fill="#E4F2F2"/>
<path d="M4.32227 3.00586C4.57387 2.97726 4.82869 3.01393 5.06348 3.11133L11.9043 5.88965C12.4159 6.09755 12.662 6.68074 12.4541 7.19238C12.2462 7.70395 11.663 7.95005 11.1514 7.74219L5.4082 5.4082L7.74219 11.1514C7.95005 11.663 7.70395 12.2462 7.19238 12.4541C6.68074 12.662 6.09755 12.4159 5.88965 11.9043L3.11035 5.06445L3.11133 5.06348C2.99958 4.79409 2.96782 4.49777 3.02246 4.21094L3.04785 4.10156C3.11582 3.84973 3.24823 3.61896 3.43359 3.43359L3.5166 3.35742C3.71432 3.18747 3.95356 3.07156 4.21094 3.02246L4.32227 3.00586Z" fill="#E4F2F2"/>
</svg>
