<svg width="24" height="24" viewBox="0 0 24 24" fill="none" xmlns="http://www.w3.org/2000/svg">
<path d="M12.0205 1.00098C12.0381 1.00133 12.0557 1.00165 12.0732 1.00293C12.1222 1.00648 12.17 1.01407 12.2168 1.02441C12.2279 1.02687 12.239 1.02939 12.25 1.03223C12.3173 1.04956 12.3814 1.07429 12.4424 1.10449C12.5377 1.15158 12.6277 1.21362 12.707 1.29297L16.707 5.29297C17.0975 5.68348 17.0975 6.31652 16.707 6.70703C16.3165 7.09754 15.6835 7.09752 15.293 6.70703L13 4.41406V19.5859L15.293 17.293C15.6835 16.9025 16.3165 16.9025 16.707 17.293C17.0975 17.6835 17.0975 18.3165 16.707 18.707L12.707 22.707C12.6605 22.7536 12.6086 22.7944 12.5537 22.8311C12.5146 22.8572 12.4743 22.8804 12.4326 22.9004C12.3871 22.9223 12.34 22.9412 12.291 22.9561C12.2743 22.9611 12.2572 22.9646 12.2402 22.9688C12.2246 22.9726 12.2092 22.9774 12.1933 22.9805C12.1862 22.9819 12.179 22.9822 12.1719 22.9834C12.1159 22.9931 12.0587 23 12 23C11.9433 23 11.888 22.9934 11.834 22.9844C11.8236 22.9826 11.8131 22.9816 11.8027 22.9795C11.7912 22.9772 11.7799 22.9744 11.7685 22.9717C11.748 22.9668 11.7273 22.9623 11.707 22.9561C11.6584 22.9412 11.6116 22.9222 11.5664 22.9004C11.5266 22.8812 11.4877 22.8597 11.4502 22.835C11.3935 22.7976 11.3408 22.7548 11.293 22.707L7.29295 18.707C6.90243 18.3165 6.90243 17.6835 7.29295 17.293C7.68348 16.9025 8.3165 16.9025 8.70702 17.293L11 19.5859V4.41406L8.70702 6.70703C8.3165 7.09754 7.68348 7.09752 7.29295 6.70703C6.90243 6.31651 6.90243 5.68349 7.29295 5.29297L11.293 1.29297C11.3501 1.2358 11.4148 1.18656 11.4844 1.14453C11.5043 1.13248 11.5243 1.12088 11.5449 1.11035C11.6072 1.07841 11.6731 1.05256 11.7422 1.03418C11.7587 1.02977 11.7752 1.02503 11.792 1.02148C11.8029 1.01917 11.8141 1.01758 11.8252 1.01562C11.8427 1.01252 11.8603 1.00998 11.8779 1.00781C11.8957 1.00565 11.9136 1.00415 11.9316 1.00293C11.9476 1.00184 11.9635 1.00131 11.9795 1.00098C11.9863 1.00084 11.9932 1 12 1C12.0068 1 12.0137 1.00084 12.0205 1.00098Z" fill="#E4F2F2"/>
</svg>
