<svg width="24" height="24" viewBox="0 0 24 24" fill="none" xmlns="http://www.w3.org/2000/svg">
<path d="M18.293 4.29297C18.6835 3.90245 19.3165 3.90245 19.707 4.29297C20.0975 4.6835 20.0975 5.31652 19.707 5.70703L7.41406 18H11C11.5523 18 12 18.4477 12 19C12 19.5523 11.5523 20 11 20H5C4.94334 20 4.88807 19.9934 4.83398 19.9844C4.82358 19.9826 4.81309 19.9816 4.80273 19.9795C4.79123 19.9772 4.77991 19.9744 4.76855 19.9717C4.74799 19.9668 4.72732 19.9623 4.70703 19.9561C4.6934 19.9519 4.68037 19.9461 4.66699 19.9414C4.64962 19.9353 4.63232 19.929 4.61523 19.9219C4.60634 19.9182 4.59763 19.9141 4.58887 19.9102C4.54128 19.8887 4.49462 19.8643 4.4502 19.835C4.33825 19.7611 4.24237 19.6653 4.16797 19.5537C4.14195 19.5147 4.11956 19.4741 4.09961 19.4326C4.07767 19.387 4.05788 19.3401 4.04297 19.291C4.0379 19.2743 4.03445 19.2572 4.03027 19.2402C4.01125 19.1632 4.00001 19.0829 4 19V13C4 12.4477 4.44772 12 5 12C5.55228 12 6 12.4477 6 13V16.5859L18.293 4.29297Z" fill="#E4F2F2"/>
</svg>
