<svg width="24" height="24" viewBox="0 0 24 24" fill="none" xmlns="http://www.w3.org/2000/svg">
<path d="M17.293 7.29297C17.6835 6.90245 18.3165 6.90245 18.707 7.29297L22.707 11.293C22.7548 11.3408 22.7976 11.3935 22.835 11.4502C22.8597 11.4877 22.8812 11.5266 22.9004 11.5664C22.9222 11.6116 22.9412 11.6584 22.9561 11.707C22.9623 11.7273 22.9668 11.748 22.9717 11.7686C22.9893 11.8429 23 11.9202 23 12C23 12.083 22.9878 12.1631 22.9688 12.2402C22.9646 12.2572 22.9611 12.2743 22.9561 12.291C22.9412 12.34 22.9223 12.3871 22.9004 12.4326C22.8804 12.4743 22.8572 12.5146 22.8311 12.5537C22.8185 12.5726 22.8048 12.5905 22.791 12.6084C22.7649 12.6422 22.738 12.676 22.707 12.707L18.707 16.707C18.3165 17.0975 17.6835 17.0975 17.293 16.707C16.9025 16.3165 16.9025 15.6835 17.293 15.293L19.5859 13H2C1.44774 13 1.00004 12.5523 1 12C1 11.4477 1.44772 11 2 11H19.5859L17.293 8.70703C16.9025 8.31652 16.9025 7.6835 17.293 7.29297Z" fill="#E4F2F2"/>
</svg>
