<svg width="24" height="24" viewBox="0 0 24 24" fill="none" xmlns="http://www.w3.org/2000/svg">
<path d="M19 4C19.0586 4 19.116 4.00593 19.1719 4.01562C19.179 4.01686 19.1863 4.01716 19.1933 4.01855C19.2092 4.02166 19.2246 4.02642 19.2402 4.03027C19.2571 4.03445 19.2743 4.0379 19.291 4.04297C19.3401 4.05788 19.387 4.07767 19.4326 4.09961C19.4741 4.11956 19.5147 4.14195 19.5537 4.16797C19.6653 4.24237 19.7611 4.33825 19.8349 4.4502C19.8801 4.51862 19.9148 4.5917 19.9414 4.66699C19.9461 4.68037 19.9519 4.6934 19.956 4.70703C19.9622 4.72732 19.9668 4.74799 19.9717 4.76855C19.9893 4.84293 20 4.92023 20 5V11C20 11.5523 19.5522 12 19 12C18.4477 12 18 11.5523 18 11V7.41406L5.70702 19.707C5.3165 20.0975 4.68348 20.0975 4.29295 19.707C3.90243 19.3165 3.90243 18.6835 4.29295 18.293L16.5859 6H13C12.4477 6 12 5.55228 12 5C12 4.44772 12.4477 4 13 4H19Z" fill="#E4F2F2"/>
</svg>
