<svg width="24" height="24" viewBox="0 0 24 24" fill="none" xmlns="http://www.w3.org/2000/svg">
<path d="M5.02051 2.00098C5.0381 2.00133 5.05569 2.00165 5.07324 2.00293C5.12221 2.00648 5.17004 2.01407 5.2168 2.02441C5.2279 2.02687 5.23897 2.02939 5.25 2.03223C5.31728 2.04956 5.38137 2.07429 5.44238 2.10449C5.53767 2.15158 5.62768 2.21362 5.70703 2.29297L8.70703 5.29297C9.09751 5.68348 9.09751 6.31652 8.70703 6.70703C8.31652 7.09754 7.6835 7.09752 7.29297 6.70703L6 5.41406V16.5859L10.293 12.293C10.6835 11.9025 11.3165 11.9025 11.707 12.293C12.0975 12.6835 12.0975 13.3165 11.707 13.707L7.41406 18H18.5859L17.293 16.707C16.9024 16.3165 16.9024 15.6835 17.293 15.293C17.6835 14.9025 18.3165 14.9025 18.707 15.293L21.707 18.293C21.7548 18.3408 21.7976 18.3935 21.835 18.4502C21.8801 18.5186 21.9148 18.5917 21.9414 18.667C21.9461 18.6804 21.9519 18.6934 21.9561 18.707C21.9623 18.7273 21.9668 18.748 21.9717 18.7686C21.9893 18.8429 22 18.9202 22 19C22 19.0563 21.9933 19.1112 21.9844 19.165C21.9772 19.2078 21.9687 19.2503 21.9561 19.292C21.9519 19.3056 21.9461 19.3186 21.9414 19.332C21.9243 19.3808 21.9038 19.4285 21.8789 19.4746C21.851 19.5262 21.8184 19.5745 21.7822 19.6201C21.7586 19.6498 21.7345 19.6796 21.707 19.707L18.707 22.707C18.3165 23.0975 17.6835 23.0975 17.293 22.707C16.9024 22.3165 16.9024 21.6835 17.293 21.293L18.5859 20H5C4.94336 20 4.88806 19.9934 4.83399 19.9844C4.82358 19.9826 4.81309 19.9816 4.80274 19.9795C4.79123 19.9772 4.77991 19.9744 4.76856 19.9717C4.74799 19.9668 4.72732 19.9623 4.70703 19.9561C4.65838 19.9412 4.61159 19.9222 4.56641 19.9004C4.52661 19.8812 4.48768 19.8597 4.4502 19.835C4.31254 19.7441 4.19888 19.6203 4.12012 19.4746C4.11269 19.4609 4.10635 19.4466 4.09961 19.4326C4.0778 19.3873 4.05784 19.3408 4.04297 19.292C4.0303 19.2503 4.02176 19.2077 4.01465 19.165C4.00571 19.1113 4 19.0563 4 19V5.41406L2.70703 6.70703C2.31652 7.09754 1.6835 7.09752 1.29297 6.70703C0.902445 6.31651 0.902445 5.68349 1.29297 5.29297L4.29297 2.29297C4.35014 2.2358 4.41478 2.18656 4.48438 2.14453C4.50432 2.13248 4.52436 2.12088 4.54492 2.11035C4.60726 2.07841 4.67312 2.05256 4.74219 2.03418C4.75876 2.02977 4.77526 2.02503 4.79199 2.02148C4.80296 2.01917 4.8141 2.01758 4.8252 2.01562C4.84271 2.01252 4.8603 2.00998 4.87793 2.00781C4.8957 2.00565 4.9136 2.00415 4.93164 2.00293C4.94758 2.00184 4.96353 2.00131 4.97949 2.00098C4.98629 2.00084 4.99317 2 5 2C5.00686 2 5.01368 2.00084 5.02051 2.00098Z" fill="#E4F2F2"/>
</svg>
