<svg width="24" height="24" viewBox="0 0 24 24" fill="none" xmlns="http://www.w3.org/2000/svg">
<path d="M4.29295 4.29297C4.68348 3.90245 5.31649 3.90245 5.70702 4.29297L18 16.5859V13C18 12.4477 18.4477 12 19 12C19.5522 12 20 12.4477 20 13V19C20 19.083 19.9878 19.1631 19.9687 19.2402C19.9646 19.2572 19.9611 19.2743 19.956 19.291C19.9522 19.3036 19.9476 19.3158 19.9433 19.3281C19.916 19.4068 19.8786 19.4825 19.831 19.5537C19.7577 19.6636 19.6636 19.7577 19.5537 19.8311C19.5076 19.8618 19.4596 19.8879 19.4101 19.9102C19.4016 19.914 19.3934 19.9183 19.3848 19.9219C19.366 19.9297 19.3472 19.9367 19.3281 19.9434C19.3158 19.9477 19.3036 19.9522 19.291 19.9561C19.2743 19.9611 19.2572 19.9646 19.2402 19.9688C19.2246 19.9726 19.2092 19.9774 19.1933 19.9805C19.1862 19.9819 19.179 19.9822 19.1719 19.9834C19.1489 19.9874 19.126 19.9927 19.1025 19.9951L19 20H13C12.4477 20 12 19.5523 12 19C12 18.4477 12.4477 18 13 18H16.5859L4.29295 5.70703C3.90243 5.31651 3.90243 4.68349 4.29295 4.29297Z" fill="#E4F2F2"/>
</svg>
