<svg width="24" height="24" viewBox="0 0 24 24" fill="none" xmlns="http://www.w3.org/2000/svg">
<path d="M5.29297 7.29297C5.68349 6.90245 6.31651 6.90245 6.70703 7.29297C7.09752 7.6835 7.09754 8.31652 6.70703 8.70703L4.41406 11H22C22.5523 11 23 11.4477 23 12C23 12.5523 22.5523 13 22 13H4.41406L6.70703 15.293C7.09752 15.6835 7.09754 16.3165 6.70703 16.707C6.31652 17.0975 5.68348 17.0975 5.29297 16.707L1.29297 12.707C1.26183 12.6759 1.23418 12.6424 1.20801 12.6084C1.19423 12.5905 1.18053 12.5726 1.16797 12.5537C1.14195 12.5147 1.11956 12.4741 1.09961 12.4326C1.07767 12.387 1.05788 12.3401 1.04297 12.291C1.0379 12.2743 1.03445 12.2572 1.03027 12.2402C1.01125 12.1632 1.00001 12.0829 1 12C1 11.9203 1.00974 11.8428 1.02734 11.7686C1.03221 11.748 1.03678 11.7273 1.04297 11.707C1.05787 11.6583 1.07777 11.6117 1.09961 11.5664C1.11877 11.5266 1.1403 11.4877 1.16504 11.4502C1.20242 11.3935 1.24516 11.3408 1.29297 11.293L5.29297 7.29297Z" fill="#E4F2F2"/>
</svg>
