<svg width="24" height="24" viewBox="0 0 24 24" fill="none" xmlns="http://www.w3.org/2000/svg">
<path d="M17.293 7.29297C17.6835 6.90245 18.3165 6.90245 18.707 7.29297L22.707 11.293C22.7548 11.3408 22.7976 11.3935 22.835 11.4502C22.8597 11.4877 22.8812 11.5266 22.9004 11.5664C22.9222 11.6116 22.9412 11.6584 22.9561 11.707C22.9623 11.7273 22.9668 11.748 22.9717 11.7686C22.9893 11.8429 23 11.9202 23 12C23 12.083 22.9878 12.1631 22.9688 12.2402C22.9646 12.2572 22.9611 12.2743 22.9561 12.291C22.9412 12.34 22.9223 12.3871 22.9004 12.4326C22.8804 12.4743 22.8572 12.5146 22.8311 12.5537C22.8185 12.5726 22.8048 12.5905 22.791 12.6084C22.7649 12.6422 22.738 12.676 22.707 12.707L18.707 16.707C18.3165 17.0975 17.6835 17.0975 17.293 16.707C16.9025 16.3165 16.9025 15.6835 17.293 15.293L19.5859 13H4.41406L6.70703 15.293C7.09752 15.6835 7.09754 16.3165 6.70703 16.707C6.31652 17.0975 5.68348 17.0975 5.29297 16.707L1.29297 12.707C1.26183 12.6759 1.23418 12.6424 1.20801 12.6084C1.19423 12.5905 1.18053 12.5726 1.16797 12.5537C1.14195 12.5147 1.11956 12.4741 1.09961 12.4326C1.07767 12.387 1.05788 12.3401 1.04297 12.291C1.0379 12.2743 1.03445 12.2572 1.03027 12.2402C1.01125 12.1632 1.00001 12.0829 1 12C1 11.9203 1.00974 11.8428 1.02734 11.7686C1.03221 11.748 1.03678 11.7273 1.04297 11.707C1.05787 11.6583 1.07777 11.6117 1.09961 11.5664C1.11877 11.5266 1.1403 11.4877 1.16504 11.4502C1.20242 11.3935 1.24516 11.3408 1.29297 11.293L5.29297 7.29297C5.68349 6.90245 6.31651 6.90245 6.70703 7.29297C7.09752 7.6835 7.09754 8.31652 6.70703 8.70703L4.41406 11H19.5859L17.293 8.70703C16.9025 8.31652 16.9025 7.6835 17.293 7.29297Z" fill="#E4F2F2"/>
</svg>
