<svg width="24" height="24" viewBox="0 0 24 24" fill="none" xmlns="http://www.w3.org/2000/svg">
<path d="M12.0205 1.00098C12.0381 1.00133 12.0557 1.00165 12.0732 1.00293C12.0909 1.00421 12.1085 1.00562 12.126 1.00781C12.1377 1.0093 12.1494 1.01177 12.1611 1.01367C12.1799 1.01671 12.1984 1.02034 12.2168 1.02441C12.2279 1.02687 12.239 1.02939 12.25 1.03223C12.3173 1.04956 12.3814 1.07429 12.4424 1.10449C12.5377 1.15158 12.6277 1.21362 12.707 1.29297L16.707 5.29297C17.0975 5.68348 17.0975 6.31652 16.707 6.70703C16.3165 7.09754 15.6835 7.09752 15.293 6.70703L13 4.41406V22C13 22.5523 12.5522 23 12 23C11.4477 23 11 22.5523 11 22V4.41406L8.70702 6.70703C8.3165 7.09754 7.68348 7.09752 7.29295 6.70703C6.90243 6.31651 6.90243 5.68349 7.29295 5.29297L11.293 1.29297C11.3501 1.2358 11.4148 1.18656 11.4844 1.14453C11.5043 1.13248 11.5243 1.12088 11.5449 1.11035C11.6072 1.07841 11.6731 1.05256 11.7422 1.03418C11.7587 1.02977 11.7752 1.02503 11.792 1.02148C11.8029 1.01917 11.8141 1.01758 11.8252 1.01562C11.8427 1.01252 11.8603 1.00998 11.8779 1.00781C11.8957 1.00565 11.9136 1.00415 11.9316 1.00293C11.9476 1.00184 11.9635 1.00131 11.9795 1.00098C11.9863 1.00084 11.9932 1 12 1C12.0068 1 12.0137 1.00084 12.0205 1.00098Z" fill="#E4F2F2"/>
</svg>
