<svg width="24" height="24" viewBox="0 0 24 24" fill="none" xmlns="http://www.w3.org/2000/svg">
<path d="M12 1C12.5523 1.00004 13 1.44774 13 2V19.5859L15.293 17.293C15.6835 16.9025 16.3165 16.9025 16.707 17.293C17.0975 17.6835 17.0975 18.3165 16.707 18.707L12.707 22.707C12.6605 22.7536 12.6086 22.7944 12.5537 22.8311C12.5146 22.8572 12.4743 22.8804 12.4326 22.9004C12.3871 22.9223 12.34 22.9412 12.291 22.9561C12.2743 22.9611 12.2572 22.9646 12.2402 22.9688C12.2246 22.9726 12.2092 22.9774 12.1934 22.9805C12.1863 22.9819 12.179 22.9822 12.1719 22.9834C12.1159 22.9931 12.0587 23 12 23L11.8975 22.9951C11.876 22.9929 11.855 22.9879 11.834 22.9844C11.8236 22.9826 11.8131 22.9816 11.8027 22.9795C11.7912 22.9772 11.7799 22.9744 11.7686 22.9717C11.748 22.9668 11.7273 22.9623 11.707 22.9561C11.6584 22.9412 11.6116 22.9222 11.5664 22.9004C11.5266 22.8812 11.4877 22.8597 11.4502 22.835C11.3935 22.7976 11.3408 22.7548 11.293 22.707L7.29297 18.707C6.90245 18.3165 6.90245 17.6835 7.29297 17.293C7.6835 16.9025 8.31652 16.9025 8.70703 17.293L11 19.5859V2C11 1.44772 11.4477 1 12 1Z" fill="#E4F2F2"/>
</svg>
