<svg width="24" height="24" viewBox="0 0 24 24" fill="none" xmlns="http://www.w3.org/2000/svg">
<path fill-rule="evenodd" clip-rule="evenodd" d="M18 7C19.3261 7 20.5975 7.52716 21.5352 8.46484C22.4728 9.40252 23 10.6739 23 12C23 13.3261 22.4728 14.5975 21.5352 15.5352C20.5975 16.4728 19.3261 17 18 17C18 18.3261 17.4728 19.5975 16.5352 20.5352C15.5975 21.4728 14.3261 22 13 22H7C5.67392 22 4.40253 21.4728 3.46484 20.5352C2.52716 19.5975 2 18.3261 2 17V8C2 7.44772 2.44772 7 3 7H18ZM4 17C4 17.7956 4.3163 18.5585 4.87891 19.1211C5.44152 19.6837 6.20435 20 7 20H13C13.7956 20 14.5585 19.6837 15.1211 19.1211C15.6837 18.5585 16 17.7956 16 17V9H4V17ZM18 15L18.2969 14.9854C18.9835 14.9171 19.6289 14.6133 20.1211 14.1211C20.6837 13.5585 21 12.7956 21 12C21 11.2044 20.6837 10.4415 20.1211 9.87891C19.6289 9.38671 18.9835 9.08291 18.2969 9.01465L18 9V15Z" fill="#E4F2F2"/>
<path d="M6 1C6.55228 1 7 1.44772 7 2C7 2.53043 6.78913 3.03899 6.41406 3.41406C6.03899 3.78914 5.53043 4 5 4C5 4.55228 4.55228 5 4 5C3.44772 5 3 4.55228 3 4C3 3.46957 3.21087 2.96101 3.58594 2.58594C3.91422 2.25765 4.34474 2.05515 4.80273 2.00977L5 2C5 1.44772 5.44772 1 6 1Z" fill="#E4F2F2"/>
<path d="M12 1C12.5523 1 13 1.44772 13 2C13 2.53043 12.7891 3.03899 12.4141 3.41406C12.039 3.78914 11.5304 4 11 4C11 4.55228 10.5523 5 10 5C9.44772 5 9 4.55228 9 4C9 3.46957 9.21087 2.96101 9.58594 2.58594C9.91422 2.25765 10.3447 2.05515 10.8027 2.00977L11 2C11 1.44772 11.4477 1 12 1Z" fill="#E4F2F2"/>
<path d="M18 1C18.5523 1 19 1.44772 19 2C19 2.53043 18.7891 3.03899 18.4141 3.41406C18.039 3.78914 17.5304 4 17 4C17 4.55228 16.5523 5 16 5C15.4477 5 15 4.55228 15 4C15 3.46957 15.2109 2.96101 15.5859 2.58594C15.9142 2.25765 16.3447 2.05515 16.8027 2.00977L17 2C17 1.44772 17.4477 1 18 1Z" fill="#E4F2F2"/>
</svg>
