<svg width="24" height="24" viewBox="0 0 24 24" fill="none" xmlns="http://www.w3.org/2000/svg">
<path fill-rule="evenodd" clip-rule="evenodd" d="M20.8359 2.01368C21.1258 1.96547 21.4223 2.04738 21.6465 2.23731C21.8706 2.42731 22 2.70618 22 3.00001V16L21.9951 16.2061C21.8878 18.3194 20.14 20 18 20C15.7909 20 14.0001 18.2091 14 16C14 13.7909 15.7909 12 18 12C18.7288 12 19.4115 12.1956 20 12.5361V4.17969L10 5.84669V18L9.99512 18.2061C9.88782 20.3194 8.13999 22 6 22C3.7909 22 2.00007 20.2091 2 18C2 15.7909 3.79086 14 6 14C6.72878 14 7.41154 14.1956 8 14.5361V5.00001C8 4.51118 8.35376 4.09405 8.83594 4.01368L20.8359 2.01368ZM6 16C4.89543 16 4 16.8954 4 18C4.00007 19.1045 4.89547 20 6 20C7.10453 20 7.99993 19.1045 8 18C8 16.8954 7.10457 16 6 16ZM18 14C16.8954 14 16 14.8954 16 16C16.0001 17.1045 16.8955 18 18 18C19.1045 18 19.9999 17.1045 20 16C20 14.8954 19.1046 14 18 14Z" fill="#E4F2F2"/>
</svg>
