<svg width="24" height="24" viewBox="0 0 24 24" fill="none" xmlns="http://www.w3.org/2000/svg">
<path fill-rule="evenodd" clip-rule="evenodd" d="M11.498 1.13477C11.8063 0.955946 12.1867 0.955032 12.4961 1.13184L19.4961 5.13184C19.9756 5.40584 20.1421 6.01659 19.8682 6.4961C19.5942 6.97561 18.9834 7.14218 18.5039 6.86817L13 3.72266V18C13 20.7614 10.7614 23 8 23C5.23858 23 3 20.7614 3 18C3.00005 15.2386 5.2386 13 8 13C9.12567 13 10.1643 13.3723 11 14V2L11.0088 1.86817C11.0493 1.56374 11.2282 1.29137 11.498 1.13477ZM8 15C6.34317 15 5.00005 16.3432 5 18C5 19.6569 6.34315 21 8 21C9.65685 21 11 19.6569 11 18C11 16.3432 9.65683 15 8 15Z" fill="#E4F2F2"/>
</svg>
