<svg width="24" height="24" viewBox="0 0 24 24" fill="none" xmlns="http://www.w3.org/2000/svg">
<path fill-rule="evenodd" clip-rule="evenodd" d="M8.81445 5.8599C9.5887 5.83492 10.3577 5.99925 11.0537 6.33939C11.4072 6.5122 11.7369 6.72782 12.0352 6.98001C12.33 6.75308 12.6514 6.56014 12.9922 6.40482C13.6785 6.09216 14.4279 5.94208 15.1816 5.96634C15.9355 5.99066 16.6741 6.1882 17.3389 6.54447C17.9964 6.89692 18.5642 7.39527 19 8.00052L19.5996 8.80033C19.6061 8.80899 19.6129 8.81783 19.6191 8.82669C20.0869 9.49493 20.8927 9.94147 21.8145 9.99466L22 10.0005L22.0996 10.0054C22.5911 10.0541 22.9799 10.4589 22.999 10.9624C23.0522 12.3699 22.6436 13.7565 21.835 14.9097C21.0261 16.0629 19.8611 16.9199 18.5195 17.3492C17.1779 17.7784 15.7324 17.757 14.4043 17.2876C13.4754 16.9593 12.6404 16.4235 11.957 15.729C11.2671 16.3569 10.4473 16.8346 9.5498 17.1226C8.25025 17.5394 6.8526 17.5395 5.55273 17.1236C4.25273 16.7075 3.11498 15.8954 2.29883 14.8013C1.48279 13.7073 1.02834 12.3856 1 11.021C0.994443 10.7524 1.09727 10.4923 1.28516 10.3003C1.4732 10.1083 1.73127 10.0006 2 10.0005C2.99858 10.0005 3.88186 9.53934 4.38086 8.82669L4.40039 8.80033L4.98731 8.01615C5.39895 7.38368 5.95569 6.85771 6.61133 6.48294C7.28384 6.09865 8.04029 5.88497 8.81445 5.8599ZM8.87891 7.85794C8.43079 7.8725 7.9928 7.99682 7.60352 8.21927C7.21416 8.44185 6.88452 8.75641 6.64453 9.13529C6.63052 9.1574 6.61532 9.17977 6.59961 9.20072L6 10.0005C5.31124 10.9692 4.2712 11.6215 3.11133 11.8775C3.25043 12.4994 3.51628 13.0897 3.90137 13.606C4.46831 14.366 5.25908 14.9303 6.16211 15.2193C7.065 15.5082 8.03579 15.5068 8.93848 15.2173C9.84125 14.9277 10.6319 14.3634 11.1982 13.6031L11.2764 13.5103C11.4707 13.3064 11.744 13.1924 12.0293 13.2007C12.3554 13.2103 12.6567 13.3783 12.8359 13.6509C13.3698 14.4629 14.1551 15.078 15.0713 15.4019C15.9874 15.7256 16.9847 15.7409 17.9102 15.4449C18.8357 15.1487 19.6392 14.5568 20.1973 13.7613C20.5906 13.2004 20.8431 12.5587 20.9473 11.8892C19.7639 11.6425 18.7003 10.9855 18 10.0005L17.4004 9.20072C17.3955 9.19423 17.3905 9.18682 17.3857 9.18021C17.1267 8.81676 16.7869 8.51799 16.3936 8.30716C16.0002 8.09638 15.5633 7.97976 15.1172 7.96537C14.6711 7.95102 14.2274 8.03913 13.8213 8.22415C13.4153 8.4092 13.0572 8.68582 12.7754 9.03177C12.5795 9.27214 12.2827 9.40838 11.9727 9.39994C11.6627 9.39139 11.3739 9.23951 11.1914 8.9888C10.9274 8.62609 10.5788 8.33329 10.1758 8.13626C9.77279 7.93927 9.32723 7.84348 8.87891 7.85794Z" fill="#E4F2F2"/>
</svg>
