<svg width="24" height="24" viewBox="0 0 24 24" fill="none" xmlns="http://www.w3.org/2000/svg">
<path fill-rule="evenodd" clip-rule="evenodd" d="M1.29295 1.29297C1.68348 0.902445 2.31649 0.902445 2.70702 1.29297L22.707 21.293C23.0975 21.6835 23.0975 22.3165 22.707 22.707C22.3165 23.0975 21.6835 23.0975 21.293 22.707L15.8662 17.2803L13.9043 21.4277C13.7236 21.8095 13.3217 22.0367 12.9014 21.9951C12.4811 21.9535 12.1327 21.6519 12.0303 21.2422L10.1758 13.8242L2.7578 11.9697C2.34798 11.8673 2.04643 11.518 2.00487 11.0977C1.9636 10.6775 2.19062 10.2763 2.57225 10.0957L6.71874 8.13281L1.29295 2.70703C0.90243 2.31651 0.90243 1.68349 1.29295 1.29297ZM13.291 18.0449L14.3642 15.7783L12.1777 13.5918L13.291 18.0449ZM5.95409 10.707L10.4053 11.8193L8.22069 9.63477L5.95409 10.707Z" fill="#E4F2F2"/>
<path d="M21.5713 1.09668C21.9532 0.91575 22.4082 0.994245 22.707 1.29297C23.0056 1.59173 23.084 2.04597 22.9033 2.42774L18.293 12.1582C18.0564 12.6571 17.4599 12.8702 16.9609 12.6338C16.4624 12.3972 16.2492 11.8006 16.4853 11.3018L19.8965 4.10156L12.6973 7.51367C12.1983 7.7496 11.6026 7.5369 11.3662 7.03809C11.1299 6.53912 11.343 5.94262 11.8418 5.70606L21.5713 1.09668Z" fill="#E4F2F2"/>
</svg>
