<svg width="24" height="24" viewBox="0 0 24 24" fill="none" xmlns="http://www.w3.org/2000/svg">
<path fill-rule="evenodd" clip-rule="evenodd" d="M1.29295 1.29297C1.68348 0.902483 2.31651 0.902457 2.70702 1.29297L22.707 21.293C23.0975 21.6835 23.0975 22.3165 22.707 22.707C22.3165 23.0975 21.6835 23.0975 21.293 22.707L19.9336 21.3477C19.8751 21.5048 19.7803 21.6493 19.6465 21.7627C19.3257 22.0343 18.8689 22.0766 18.5039 21.8682L12 18.1514L5.49608 21.8682C5.13115 22.0766 4.67428 22.0342 4.3535 21.7627C4.03302 21.4911 3.91617 21.0475 4.06151 20.6533L8.15038 9.56445L1.29295 2.70703C0.90243 2.31651 0.90243 1.68349 1.29295 1.29297ZM6.88866 18.7676L11.5039 16.1309L11.6221 16.0732C11.9043 15.9581 12.2272 15.9774 12.4961 16.1309L17.1094 18.7666L16.9668 18.3809L9.70702 11.1211L6.88866 18.7676Z" fill="#E4F2F2"/>
<path d="M12.001 1C12.4197 1.00044 12.7939 1.2622 12.9385 1.65527L15.4687 8.53516C15.6591 9.05337 15.3931 9.62774 14.875 9.81836C14.3568 10.0088 13.7826 9.74354 13.5918 9.22559L11.998 4.89258L11.7685 5.5166C11.5773 6.03455 11.0014 6.29951 10.4834 6.1084C9.96563 5.91712 9.70076 5.34211 9.89159 4.82422L11.0615 1.65332L11.1269 1.5127C11.3016 1.19958 11.6345 0.999782 12.001 1Z" fill="#E4F2F2"/>
</svg>
