<svg width="24" height="24" viewBox="0 0 24 24" fill="none" xmlns="http://www.w3.org/2000/svg">
<path fill-rule="evenodd" clip-rule="evenodd" d="M21.5723 1.09717C21.9542 0.916335 22.4082 0.994662 22.707 1.29346C23.0057 1.59226 23.0841 2.04639 22.9033 2.42823L13.9033 21.4282C13.7225 21.8098 13.3216 22.0372 12.9014 21.9956C12.4812 21.954 12.1328 21.6523 12.0303 21.2427L10.1758 13.8247L2.75781 11.9702C2.34819 11.8678 2.04666 11.5193 2.00488 11.0991C1.96327 10.6789 2.19063 10.278 2.57227 10.0972L21.5723 1.09717ZM5.95117 10.7075L11.2422 12.0308L11.373 12.0728C11.6677 12.1912 11.8914 12.4449 11.9697 12.7583L13.292 18.0483L19.8984 4.10108L5.95117 10.7075Z" fill="#E4F2F2"/>
</svg>
