<svg width="24" height="24" viewBox="0 0 24 24" fill="none" xmlns="http://www.w3.org/2000/svg">
<path d="M15.8735 1.13183C16.353 0.857923 16.9638 1.02452 17.2378 1.5039C19.0639 4.70058 20.0249 8.31848 20.0249 12C20.0249 15.6815 19.064 19.2994 17.2378 22.4961C16.9638 22.9755 16.353 23.1421 15.8735 22.8682C15.3942 22.5941 15.2276 21.9833 15.5015 21.5039C17.0517 18.7902 17.9126 15.7413 18.0142 12.624L18.0249 12C18.0249 8.66649 17.155 5.3906 15.5015 2.49609C15.2277 2.01664 15.3942 1.40584 15.8735 1.13183Z" fill="#E4F2F2"/>
<path d="M12.4126 3.23144C12.8917 2.95719 13.5032 3.1237 13.7778 3.60254C15.2419 6.15814 16.0122 9.0528 16.0142 11.998C16.016 14.9433 15.2484 17.8381 13.7876 20.3955C13.5136 20.875 12.9029 21.0415 12.4233 20.7676C11.9443 20.4934 11.7775 19.8826 12.0513 19.4033C13.3392 17.1483 14.0158 14.5959 14.0142 11.999C14.0125 9.40207 13.3324 6.85005 12.0415 4.59668C11.7675 4.11755 11.9336 3.50586 12.4126 3.23144Z" fill="#E4F2F2"/>
<path d="M8.96729 5.33984C9.44793 5.06796 10.0576 5.23722 10.3296 5.71777C11.4136 7.63413 11.9839 9.7983 11.9839 12C11.9839 14.2017 11.4136 16.3659 10.3296 18.2822C10.0576 18.7628 9.44793 18.932 8.96729 18.6602C8.48688 18.3882 8.31765 17.7784 8.58936 17.2978C9.50346 15.6819 9.98389 13.8566 9.98389 12C9.98388 10.1434 9.50345 8.31813 8.58936 6.70215C8.31766 6.22156 8.48685 5.61179 8.96729 5.33984Z" fill="#E4F2F2"/>
<path d="M5.5044 7.45117C5.98414 7.17788 6.59518 7.34551 6.86866 7.82519C7.59369 9.09704 7.97505 10.536 7.9751 12C7.97505 13.4641 7.59382 14.9038 6.86866 16.1758C6.59502 16.6553 5.98406 16.8223 5.5044 16.5488C5.02484 16.2753 4.85716 15.6643 5.13038 15.1846C5.68344 14.2144 5.97505 13.1167 5.9751 12C5.97505 10.8833 5.68347 9.78557 5.13038 8.81543C4.85715 8.33582 5.02501 7.72476 5.5044 7.45117Z" fill="#E4F2F2"/>
</svg>
