<svg width="24" height="24" viewBox="0 0 24 24" fill="none" xmlns="http://www.w3.org/2000/svg">
<path fill-rule="evenodd" clip-rule="evenodd" d="M1.29248 1.29297C1.68296 0.902492 2.31601 0.902588 2.70654 1.29297L6.47314 5.05957C6.48018 5.06617 6.48678 5.07325 6.49365 5.08008L12.6997 11.2861C12.7079 11.2942 12.7162 11.3022 12.7241 11.3105L22.7065 21.293C23.0971 21.6835 23.0971 22.3165 22.7065 22.707C22.316 23.0974 21.683 23.0975 21.2925 22.707L17.9399 19.3545C16.8875 20.522 15.5097 21.3634 13.9692 21.7559L13.9673 21.7568C13.6812 21.8291 13.4683 21.9454 13.3276 22.0859L12.7065 22.707C12.316 23.0974 11.683 23.0975 11.2925 22.707L10.6714 22.0859C10.5307 21.9454 10.3179 21.8291 10.0317 21.7568L10.0298 21.7559C8.3058 21.3171 6.77702 20.3165 5.68506 18.9121C4.6613 17.5954 4.07564 15.994 4.00635 14.333L3.99951 14V11.6562C3.97255 11.6657 3.94573 11.6766 3.91846 11.6855C3.34451 11.8748 2.75495 11.9547 2.06201 11.998C1.64423 12.0241 1.25371 11.7872 1.08447 11.4043C0.915413 11.0216 1.00296 10.5736 1.30322 10.2822C2.32675 9.28994 2.85235 8.46505 3.02978 7.75684C3.22032 6.9954 3.68833 6.30707 4.30127 5.71582L1.29248 2.70703C0.902146 2.31654 0.902146 1.68346 1.29248 1.29297ZM9.22217 11.8701C8.74594 12.2589 8.16335 12.5759 7.40674 12.9131C7.1013 13.0491 6.74793 13.0234 6.46533 12.8447C6.30047 12.7404 6.14658 12.6364 5.99951 12.5342V14L6.00439 14.25C6.05644 15.4957 6.49544 16.697 7.26318 17.6846C8.08168 18.7373 9.22797 19.4879 10.52 19.8174C11.025 19.9448 11.5563 20.183 11.9995 20.5918C12.3837 20.2374 12.8329 20.0107 13.2749 19.874L13.478 19.8174C14.6668 19.514 15.7276 18.8554 16.5249 17.9395L11.4233 12.8379C10.8045 12.5662 10.2879 12.2935 9.84424 11.9404C9.71871 11.8405 9.60145 11.7371 9.4917 11.6289C9.4069 11.7104 9.31816 11.7917 9.22217 11.8701ZM5.71728 7.13184C5.28478 7.54222 5.04741 7.92976 4.96924 8.24219C4.90072 8.5156 4.80532 8.78487 4.68799 9.0498C4.68927 9.04939 4.69061 9.04827 4.69189 9.04785C4.72904 9.03585 4.76724 9.02619 4.80615 9.01855C4.81812 9.01619 4.83024 9.01462 4.84228 9.0127C4.87025 9.00827 4.89856 9.00499 4.92725 9.00293C4.94187 9.00186 4.95651 9.0014 4.97119 9.00098C4.9806 9.00071 4.99003 9 4.99951 9C5.01678 9 5.03421 9.00109 5.05127 9.00195C5.0646 9.00264 5.07798 9.00269 5.09131 9.00391C5.13146 9.00755 5.17083 9.01421 5.20947 9.02246C5.21141 9.02288 5.2134 9.02301 5.21533 9.02344C5.22644 9.0259 5.23755 9.0294 5.24853 9.03223C5.26789 9.03719 5.28726 9.04178 5.30615 9.04785C5.31734 9.05146 5.32833 9.05558 5.33935 9.05957C5.36253 9.06794 5.38537 9.07692 5.40771 9.08691C5.41463 9.09001 5.42139 9.09343 5.42822 9.09668C5.44854 9.10633 5.46826 9.11698 5.48779 9.12793C5.49979 9.13466 5.51125 9.14221 5.52295 9.14941C5.54222 9.16129 5.56121 9.1734 5.57959 9.18652C5.58585 9.19099 5.59199 9.19558 5.59814 9.2002C5.61616 9.2137 5.63383 9.22753 5.65088 9.24219C5.66189 9.25166 5.6725 9.26153 5.6831 9.27148C5.69723 9.28473 5.71079 9.29846 5.72412 9.3125C5.73443 9.32337 5.74456 9.33436 5.75439 9.3457C5.76273 9.35531 5.77083 9.36507 5.77881 9.375C5.7913 9.39058 5.80335 9.40649 5.81494 9.42285C5.82868 9.44222 5.84164 9.46206 5.854 9.48242C5.85643 9.48643 5.85944 9.49009 5.86182 9.49414C6.10486 9.9082 6.30144 10.1706 6.52685 10.3955C6.67518 10.5434 6.85122 10.6883 7.08545 10.8545C7.4881 10.6538 7.75516 10.4856 7.95654 10.3213C8.12774 10.1815 8.26804 10.0283 8.41357 9.82812L5.71728 7.13184Z" fill="#E4F2F2"/>
<path d="M11.9995 1C12.5518 1 12.9995 1.44772 12.9995 2V3.03906C14.782 3.1755 16.4395 3.66657 17.7749 4.36328C19.3068 5.16257 20.6159 6.34439 20.9692 7.75781C21.1646 8.54075 21.5178 9.33547 22.6235 10.2188C22.9385 10.4704 23.0719 10.8867 22.9614 11.2744C22.8508 11.662 22.5179 11.9455 22.1177 11.9932C21.3832 12.0807 20.724 12.0716 20.0708 11.8496C20.0467 11.8414 20.0234 11.831 19.9995 11.8223V13.3428L19.9946 13.4453C19.9434 13.9495 19.5173 14.3428 18.9995 14.3428C18.4819 14.3426 18.0556 13.9495 18.0044 13.4453L17.9995 13.3428V12.6211C17.9668 12.6385 17.9351 12.6587 17.9019 12.6758C17.4109 12.9286 16.8071 12.736 16.5542 12.2451C16.3014 11.7543 16.4951 11.1514 16.9858 10.8984C17.3726 10.6992 17.5705 10.5445 17.6987 10.3984C17.8212 10.2589 17.9323 10.0667 18.0435 9.70605C18.0545 9.67019 18.0677 9.63559 18.0825 9.60156L18.0884 9.58691C18.0941 9.57433 18.1007 9.5621 18.1069 9.5498C18.1141 9.53561 18.1216 9.52161 18.1294 9.50781C18.1368 9.49481 18.1449 9.48235 18.1528 9.46973C18.1647 9.4508 18.1769 9.43211 18.1899 9.41406C18.1996 9.4007 18.2099 9.38785 18.2202 9.375C18.2273 9.36615 18.2343 9.35723 18.2417 9.34863C18.2509 9.33795 18.2594 9.32668 18.269 9.31641L18.2925 9.29297C18.3006 9.28482 18.3095 9.27739 18.3179 9.26953C18.3308 9.25744 18.3433 9.24479 18.3569 9.2334C18.3712 9.22143 18.3869 9.21136 18.4019 9.2002C18.4466 9.16681 18.4934 9.13601 18.5435 9.11035C18.5995 9.08154 18.6586 9.05795 18.7202 9.04004C18.7235 9.03909 18.7267 9.03803 18.73 9.03711C18.7351 9.03569 18.7405 9.03454 18.7456 9.0332C18.781 9.02392 18.8172 9.0171 18.854 9.01172C18.8612 9.01068 18.8683 9.00869 18.8755 9.00781C18.9161 9.00277 18.9575 9.00001 18.9995 9C19.0964 9 19.1902 9.01433 19.2788 9.04004C19.176 8.77248 19.0947 8.50643 19.0288 8.24219C18.8814 7.6558 18.191 6.83684 16.8491 6.13672C15.5564 5.46237 13.8405 5 11.9995 5C11.3208 5.00002 10.6589 5.06204 10.0269 5.17578C9.48343 5.27343 8.96357 4.91255 8.86572 4.36914C8.76795 3.82572 9.12901 3.30598 9.67236 3.20801C10.1039 3.13034 10.5475 3.07563 10.9995 3.04102V2C10.9995 1.44781 11.4474 1.00015 11.9995 1Z" fill="#E4F2F2"/>
</svg>
