<svg width="24" height="24" viewBox="0 0 24 24" fill="none" xmlns="http://www.w3.org/2000/svg">
<path fill-rule="evenodd" clip-rule="evenodd" d="M11.9995 1C12.5518 1 12.9995 1.44772 12.9995 2V3.03906C14.782 3.1755 16.4395 3.66657 17.7749 4.36328C19.3068 5.16257 20.6159 6.34439 20.9692 7.75781C21.1646 8.54075 21.5178 9.33547 22.6235 10.2188C22.9385 10.4704 23.0719 10.8867 22.9614 11.2744C22.8508 11.662 22.5179 11.9455 22.1177 11.9932C21.3832 12.0807 20.724 12.0716 20.0708 11.8496C20.0467 11.8414 20.0234 11.831 19.9995 11.8223V14L19.9927 14.333C19.9235 15.9939 19.3386 17.5954 18.3149 18.9121C17.2229 20.3166 15.6934 21.3173 13.9692 21.7559L13.9673 21.7568C13.6812 21.8291 13.4683 21.9454 13.3276 22.0859L12.7065 22.707C12.316 23.0974 11.683 23.0975 11.2925 22.707L10.6714 22.0859C10.5307 21.9454 10.3179 21.8291 10.0317 21.7568L10.0298 21.7559C8.3058 21.3171 6.77702 20.3165 5.68506 18.9121C4.6613 17.5954 4.07564 15.994 4.00635 14.333L3.99951 14V11.6562C3.97255 11.6657 3.94573 11.6766 3.91846 11.6855C3.34451 11.8748 2.75495 11.9547 2.06201 11.998C1.64423 12.0241 1.25371 11.7872 1.08447 11.4043C0.915413 11.0216 1.00296 10.5736 1.30322 10.2822C2.32675 9.28994 2.85235 8.46505 3.02978 7.75684C3.38338 6.34376 4.69255 5.16245 6.22412 4.36328C7.55946 3.66658 9.2171 3.17557 10.9995 3.03906V2C10.9995 1.44781 11.4474 1.00015 11.9995 1ZM14.48 11.5898C14.3685 11.6971 14.2512 11.801 14.1255 11.9014C13.6553 12.2768 13.1092 12.5805 12.4282 12.9033C12.1703 13.0255 11.8717 13.0324 11.6089 12.9209C10.906 12.6223 10.3318 12.3284 9.84424 11.9404C9.71871 11.8405 9.60145 11.7371 9.4917 11.6289C9.4069 11.7104 9.31816 11.7917 9.22217 11.8701C8.74594 12.2589 8.16335 12.5759 7.40674 12.9131C7.1013 13.0491 6.74793 13.0234 6.46533 12.8447C6.30047 12.7404 6.14658 12.6364 5.99951 12.5342V14L6.00439 14.25C6.05644 15.4957 6.49544 16.697 7.26318 17.6846C8.08168 18.7373 9.22797 19.4879 10.52 19.8174C11.025 19.9448 11.5563 20.183 11.9995 20.5918C12.4423 20.1834 12.9716 19.945 13.4761 19.8174L13.7173 19.751C14.9118 19.3936 15.968 18.6721 16.7358 17.6846C17.5549 16.631 17.9995 15.3345 17.9995 14V12.624C17.8128 12.7236 17.6169 12.8185 17.4126 12.9111C17.1562 13.0273 16.8625 13.0293 16.604 12.918C15.8998 12.6143 15.337 12.3166 14.856 11.9287C14.7215 11.8203 14.597 11.7072 14.48 11.5898ZM11.9995 5C10.1586 5.00005 8.44255 5.46234 7.1499 6.13672C5.80722 6.8373 5.11597 7.65575 4.96924 8.24219C4.90072 8.5156 4.80532 8.78487 4.68799 9.0498C4.68927 9.04939 4.69061 9.04827 4.69189 9.04785C4.72904 9.03585 4.76724 9.02619 4.80615 9.01855C4.81812 9.01619 4.83024 9.01462 4.84228 9.0127C4.87025 9.00827 4.89856 9.00499 4.92725 9.00293C4.94187 9.00186 4.95651 9.0014 4.97119 9.00098C4.9806 9.00071 4.99003 9 4.99951 9C5.01678 9 5.03421 9.00109 5.05127 9.00195C5.0646 9.00264 5.07798 9.00269 5.09131 9.00391C5.13146 9.00755 5.17083 9.01421 5.20947 9.02246C5.21141 9.02288 5.2134 9.02301 5.21533 9.02344C5.22644 9.0259 5.23755 9.0294 5.24853 9.03223C5.26789 9.03719 5.28726 9.04178 5.30615 9.04785C5.31734 9.05146 5.32833 9.05558 5.33935 9.05957C5.36253 9.06794 5.38537 9.07692 5.40771 9.08691C5.41463 9.09001 5.42139 9.09343 5.42822 9.09668C5.44854 9.10633 5.46826 9.11698 5.48779 9.12793C5.49979 9.13466 5.51125 9.14221 5.52295 9.14941C5.54222 9.16129 5.56121 9.1734 5.57959 9.18652C5.58585 9.19099 5.59199 9.19558 5.59814 9.2002C5.61783 9.21495 5.63723 9.22996 5.65576 9.24609C5.6641 9.25336 5.67207 9.26101 5.68017 9.26855C5.69536 9.28269 5.70984 9.29746 5.72412 9.3125C5.73443 9.32337 5.74456 9.33436 5.75439 9.3457C5.76273 9.35531 5.77083 9.36507 5.77881 9.375C5.7913 9.39058 5.80335 9.40649 5.81494 9.42285C5.82868 9.44222 5.84164 9.46206 5.854 9.48242C5.85643 9.48643 5.85944 9.49009 5.86182 9.49414C6.10486 9.9082 6.30144 10.1706 6.52685 10.3955C6.67518 10.5434 6.85122 10.6883 7.08545 10.8545C7.4881 10.6538 7.75516 10.4856 7.95654 10.3213C8.21467 10.1105 8.40753 9.87309 8.64404 9.48242L8.71826 9.375C8.90704 9.13897 9.19555 8.99926 9.50244 9C9.85303 9.00103 10.1778 9.18552 10.3579 9.48633C10.6138 9.91425 10.828 10.1679 11.0894 10.376C11.3007 10.5442 11.5723 10.7059 11.977 10.8955C12.3759 10.6905 12.6539 10.5173 12.8774 10.3389C13.1585 10.1144 13.391 9.85332 13.6714 9.43945L13.7476 9.34082C13.9387 9.12278 14.2172 8.99666 14.5112 9C14.847 9.00393 15.1585 9.17666 15.3403 9.45898C15.6204 9.89405 15.8443 10.1563 16.1118 10.3721C16.3231 10.5424 16.5911 10.7059 16.9868 10.8955C17.3091 10.7294 17.5011 10.5971 17.6333 10.4678C17.7883 10.3161 17.9155 10.1172 18.0425 9.70898C18.0543 9.67007 18.0692 9.63245 18.0854 9.5957L18.0894 9.58594L18.1206 9.52344C18.1245 9.51626 18.1283 9.50902 18.1323 9.50195C18.1377 9.49255 18.1442 9.48381 18.1499 9.47461C18.1627 9.45399 18.1757 9.43365 18.1899 9.41406C18.1996 9.4007 18.2099 9.38784 18.2202 9.375C18.2331 9.35895 18.2464 9.34334 18.2603 9.32812C18.2668 9.32096 18.2731 9.31361 18.2798 9.30664C18.2942 9.2917 18.3094 9.27769 18.3247 9.26367C18.3358 9.25356 18.3464 9.24301 18.3579 9.2334C18.4373 9.16683 18.5269 9.11177 18.6245 9.07227C18.6276 9.071 18.6311 9.07057 18.6343 9.06934C18.6633 9.05793 18.6929 9.04776 18.7231 9.03906C18.7257 9.03832 18.7284 9.03783 18.731 9.03711C18.7344 9.03614 18.7382 9.03511 18.7417 9.03418C18.7796 9.02408 18.8184 9.01636 18.8579 9.01074C18.8635 9.00995 18.8689 9.00851 18.8745 9.00781C18.9155 9.00269 18.9572 9.00001 18.9995 9C19.0964 9 19.1902 9.01433 19.2788 9.04004C19.176 8.77248 19.0947 8.50643 19.0288 8.24219C18.8814 7.6558 18.191 6.83684 16.8491 6.13672C15.5564 5.46237 13.8405 5 11.9995 5Z" fill="#E4F2F2"/>
</svg>
