<svg width="24" height="24" viewBox="0 0 24 24" fill="none" xmlns="http://www.w3.org/2000/svg">
<path d="M13.4004 6.2002C13.8422 5.86901 14.4685 5.95863 14.7998 6.40039C15.131 6.84219 15.0413 7.46847 14.5996 7.7998L13.666 8.5L14.5996 9.2002C15.0413 9.53153 15.131 10.1578 14.7998 10.5996C14.4685 11.0414 13.8422 11.131 13.4004 10.7998L12 9.74902L10.5996 10.7998C10.1578 11.131 9.53152 11.0414 9.20018 10.5996C8.86895 10.1578 8.9586 9.53153 9.40038 9.2002L10.334 8.5L9.40038 7.7998C8.9586 7.46847 8.86895 6.84221 9.20018 6.40039C9.53152 5.95865 10.1578 5.86897 10.5996 6.2002L12 7.25L13.4004 6.2002Z" fill="#E4F2F2"/>
<path fill-rule="evenodd" clip-rule="evenodd" d="M21.292 1.29297C21.6824 0.902523 22.3165 0.90268 22.707 1.29297C23.0972 1.68342 23.0972 2.31658 22.707 2.70703L20.0039 5.40918C21.2614 7.25931 22 9.54954 22 12C22 17.9734 17.6193 23 12 23C9.38283 23 7.03578 21.9082 5.27342 20.1396L2.70702 22.707C2.3165 23.0975 1.68348 23.0975 1.29295 22.707C0.90243 22.3165 0.90243 21.6835 1.29295 21.293L3.9951 18.5898C2.73804 16.7399 1.99999 14.45 1.99999 12C1.99999 6.02658 6.38064 1 12 1C14.6164 1.00002 16.9634 2.09072 18.7256 3.8584L21.292 1.29297ZM12 3C7.67821 3 3.99999 6.92772 3.99999 12C3.99999 13.9341 4.53517 15.7015 5.43651 17.1484L6.29295 16.293C6.68348 15.9025 7.31651 15.9025 7.70702 16.293C8.09749 16.6835 8.09749 17.3165 7.70702 17.707L6.68846 18.7246C8.11545 20.1471 9.9874 21 12 21C16.3217 21 20 17.0722 20 12C20 6.92775 16.3217 3.00005 12 3Z" fill="#E4F2F2"/>
</svg>
