<svg width="24" height="24" viewBox="0 0 24 24" fill="none" xmlns="http://www.w3.org/2000/svg">
<path fill-rule="evenodd" clip-rule="evenodd" d="M12 9.00001C13.6568 9.00005 15 10.3432 15 12C14.9999 13.6567 13.6567 15 12 15C10.3432 15 9.00013 13.6568 9.00001 12C9.00001 10.3432 10.3432 9.00001 12 9.00001ZM12 11C11.4477 11 11 11.4477 11 12C11.0001 12.5522 11.4478 13 12 13C12.5522 13 12.9999 12.5522 13 12C13 11.4478 12.5523 11.0001 12 11Z" fill="#E4F2F2"/>
<path fill-rule="evenodd" clip-rule="evenodd" d="M12 5.00001C15.866 5.00005 19 8.13404 19 12C18.9999 15.8659 15.8659 19 12 19C8.13409 19 5.00013 15.8659 5.00001 12C5.00001 8.13402 8.13401 5.00001 12 5.00001ZM12 7.00001C9.23858 7.00001 7.00001 9.23859 7.00001 12C7.00013 14.7613 9.23866 17 12 17C14.7613 17 16.9999 14.7613 17 12C17 9.23861 14.7614 7.00005 12 7.00001Z" fill="#E4F2F2"/>
<path fill-rule="evenodd" clip-rule="evenodd" d="M2.36915 1.22462C2.76157 0.904554 3.33989 0.926822 3.70606 1.292C3.71293 1.29836 3.72646 1.3101 3.74512 1.32618C3.78541 1.36088 3.85172 1.41562 3.94239 1.48048C4.12548 1.61141 4.40086 1.78066 4.75391 1.91993C5.44476 2.19235 6.45834 2.36303 7.73926 1.8672C10.0818 0.881307 12.6934 0.736743 15.1309 1.45899C17.5786 2.18442 19.6986 3.73887 21.126 5.85548C22.5532 7.97205 23.1999 10.5195 22.9551 13.0606C22.8217 14.4446 22.4268 15.7792 21.8047 17H22C22.5523 17.0001 23 17.4478 23 18C22.9999 18.5522 22.5522 19 22 19H20.4932C20.4812 19.0145 20.47 19.0295 20.458 19.044L21.707 20.293C22.0972 20.6835 22.0974 21.3166 21.707 21.707C21.3166 22.0974 20.6835 22.0971 20.293 21.707L19.044 20.458C19.0295 20.47 19.0145 20.4812 19 20.4932V22C18.9999 22.5522 18.5522 23 18 23C17.4478 23 17.0001 22.5522 17 22V21.8037C15.7791 22.4259 14.4447 22.8217 13.0606 22.9551C10.5195 23.1999 7.97205 22.5532 5.85548 21.126C3.7389 19.6986 2.18443 17.5785 1.45899 15.1309C0.736758 12.6935 0.882346 10.0818 1.86817 7.73927C2.36399 6.45839 2.19232 5.44476 1.91993 4.75392C1.78067 4.40088 1.61141 4.12548 1.48048 3.94239C1.41563 3.85173 1.36087 3.78541 1.32618 3.74513C1.3101 3.72647 1.29836 3.71293 1.292 3.70606C0.902478 3.31549 0.902857 2.68318 1.29298 2.29298L2.29298 1.29298L2.36915 1.22462ZM14.5625 3.37696C12.5599 2.78357 10.413 2.90493 8.49024 3.72071C8.48056 3.72482 8.47075 3.72864 8.46094 3.73243C6.64205 4.43652 5.10465 4.2078 4.02051 3.78028C3.86602 3.71935 3.72173 3.65315 3.58692 3.58692C3.65313 3.72171 3.71936 3.86604 3.78028 4.02052C4.20777 5.10465 4.4365 6.64209 3.73243 8.46095C3.72865 8.4707 3.72479 8.48062 3.72071 8.49024C2.905 10.413 2.78359 12.56 3.37696 14.5625C3.9705 16.5651 5.24191 18.2999 6.97364 19.4678C8.70538 20.6355 10.7901 21.1642 12.8691 20.9639C14.4902 20.8076 16.0284 20.2139 17.3281 19.2608C17.3805 19.2131 17.4374 19.1705 17.499 19.1348C17.804 18.8998 18.0954 18.6449 18.3701 18.3701C18.6459 18.0944 18.9011 17.8013 19.1367 17.4951C19.1725 17.4341 19.2143 17.3771 19.2617 17.3252C20.2139 16.026 20.8077 14.4892 20.9639 12.8692C21.1642 10.7901 20.6355 8.70538 19.4678 6.97364C18.2999 5.24188 16.5652 3.97049 14.5625 3.37696Z" fill="#E4F2F2"/>
</svg>
