<svg width="24" height="24" viewBox="0 0 24 24" fill="none" xmlns="http://www.w3.org/2000/svg">
<path fill-rule="evenodd" clip-rule="evenodd" d="M19 1.99999C20.6569 1.99999 22 3.34314 22 4.99999C22 5.57176 21.8362 6.10386 21.5586 6.55859C22.4973 8.20688 22.997 10.0734 23.001 11.9785C23.0054 14.1291 22.3784 16.2337 21.1992 18.0322C20.0199 19.8308 18.3394 21.2442 16.3652 22.0977C14.3911 22.951 12.2098 23.2071 10.0918 22.834C9.54834 22.7378 9.18548 22.2194 9.28125 21.6758C9.37729 21.1323 9.89588 20.7687 10.4395 20.8643C12.1723 21.1695 13.9572 20.9599 15.5723 20.2617C17.1873 19.5634 18.5626 18.407 19.5273 16.9355C20.492 15.4641 21.0046 13.7419 21.001 11.9824C20.9979 10.5328 20.6438 9.11078 19.9766 7.83398C19.6702 7.93954 19.3423 7.99999 19 7.99999C17.3432 7.99998 16.0001 6.65675 16 4.99999C16 3.34315 17.3432 2 19 1.99999ZM19 3.99999C18.4477 4 18 4.44772 18 4.99999C18.0001 5.55218 18.4478 5.99998 19 5.99999C19.5522 5.99999 19.9999 5.55219 20 4.99999C20 4.44771 19.5523 3.99999 19 3.99999Z" fill="#E4F2F2"/>
<path fill-rule="evenodd" clip-rule="evenodd" d="M7.63965 1.90038C9.61439 1.04781 11.796 0.792708 13.9141 1.16699C14.4576 1.26318 14.8203 1.78163 14.7246 2.32519C14.6285 2.8689 14.1101 3.23256 13.5664 3.13671C11.8334 2.83045 10.0483 3.03883 8.43262 3.73632C6.81699 4.43391 5.4411 5.59025 4.47559 7.06152C3.51009 8.53299 2.99681 10.2557 3 12.0156C3.00268 13.4653 3.35561 14.888 4.02246 16.165C4.32908 16.0593 4.65747 16 5 16C6.65686 16 8 17.3431 8 19C7.9999 20.6568 6.65679 22 5 22C3.34322 22 2.00011 20.6568 2 19C2 18.4279 2.16251 17.8944 2.44043 17.4394C1.50235 15.7911 1.00355 13.9244 1 12.0195C0.99609 9.86862 1.62284 7.76324 2.80274 5.96484C3.98283 4.16643 5.66485 2.75306 7.63965 1.90038ZM5 18C4.44773 18 4 18.4477 4 19C4.00011 19.5522 4.44779 20 5 20C5.55222 20 5.9999 19.5522 6 19C6 18.4477 5.55229 18 5 18Z" fill="#E4F2F2"/>
<path fill-rule="evenodd" clip-rule="evenodd" d="M12 7.99999C14.2091 7.99999 16 9.79086 16 12C15.9999 14.209 14.2091 16 12 16C9.79094 16 8.00011 14.209 8 12C8 9.79086 9.79087 8 12 7.99999ZM12 9.99999C10.8954 10 10 10.8954 10 12C10.0001 13.1045 10.8955 14 12 14C13.1045 14 13.9999 13.1045 14 12C14 10.8954 13.1046 9.99999 12 9.99999Z" fill="#E4F2F2"/>
</svg>
