<svg width="24" height="24" viewBox="0 0 24 24" fill="none" xmlns="http://www.w3.org/2000/svg">
<path fill-rule="evenodd" clip-rule="evenodd" d="M19.2974 2C19.7057 2.00013 20.1048 2.12516 20.4399 2.3584C20.7751 2.59183 21.0316 2.92264 21.1733 3.30566C21.3151 3.68873 21.3364 4.10656 21.2339 4.50195C21.1314 4.89734 20.9091 5.25159 20.5991 5.51758L16.5249 9.00879L21.4995 17.8564C21.7136 18.2376 21.7971 18.6793 21.7368 19.1123C21.6765 19.5452 21.4754 19.9457 21.1655 20.2539L21.1665 20.2549L20.7397 20.6787C20.7288 20.6908 20.7192 20.7042 20.7075 20.7158C20.695 20.7284 20.6805 20.7392 20.6675 20.751L19.9985 21.418C19.6237 21.7908 19.1161 21.9991 18.5874 21.999L6.35107 22C5.8969 22.0001 5.45579 21.8452 5.10107 21.5615L2.62549 19.5811C2.30095 19.3215 2.06566 18.967 1.95166 18.5674C1.8377 18.1678 1.85098 17.7423 1.98975 17.3506C2.12858 16.9591 2.38606 16.6204 2.72607 16.3818C3.06611 16.1433 3.47186 16.0159 3.88721 16.0186L5.61572 16.0293L3.8794 14.293C3.38719 13.8008 3.08347 13.1553 3.01514 12.4688L3.00049 12.1719V6.41016L3.00635 6.2627C3.03332 5.92054 3.14807 5.59 3.34033 5.30371C3.56019 4.97656 3.87265 4.72114 4.23682 4.57031C4.60083 4.41972 5.00162 4.3792 5.38818 4.45508C5.72643 4.52158 6.04132 4.67471 6.30225 4.89746L6.41065 4.99707L11.0005 9.58887V4C11.0005 3.58419 11.131 3.18281 11.3677 2.84766C11.39 2.81206 11.4149 2.77789 11.4419 2.74512C11.4532 2.73111 11.4654 2.71782 11.4771 2.7041C11.4819 2.69885 11.4868 2.69364 11.4917 2.68848C11.5221 2.65354 11.5535 2.61889 11.5864 2.58594C11.9615 2.21101 12.4702 2 13.0005 2H19.2974ZM5.00049 6.41895V12.1719L5.00537 12.2705C5.02813 12.4994 5.12934 12.7148 5.29346 12.8789L12.4146 20H18.5776L5.00342 6.41797H5.00147L5.00049 6.41895ZM6.35107 20H9.58643L7.6294 18.043L3.87451 18.0186L6.35107 20ZM13.0005 11.5898L19.1304 17.7236L13.0005 6.82031V11.5898ZM15.5259 7.23145L19.2974 4H13.7095L15.5259 7.23145Z" fill="#E4F2F2"/>
</svg>
