<svg width="24" height="24" viewBox="0 0 24 24" fill="none" xmlns="http://www.w3.org/2000/svg">
<path d="M8.00977 8C8.56205 8 9.00977 8.44772 9.00977 9C9.00977 9.55229 8.56205 10 8.00977 10H8C7.44772 10 7 9.55229 7 9C7 8.44772 7.44772 8 8 8H8.00977Z" fill="#E4F2F2"/>
<path d="M16.0098 8C16.5621 8 17.0098 8.44772 17.0098 9C17.0098 9.55229 16.5621 10 16.0098 10H16C15.4477 10 15 9.55229 15 9C15 8.44772 15.4477 8 16 8H16.0098Z" fill="#E4F2F2"/>
<path fill-rule="evenodd" clip-rule="evenodd" d="M12 1C16.7443 1 20.8308 4.32376 20.9922 8.72949C20.9971 8.81936 21 8.90954 21 9V21L20.9951 21.1016C20.9917 21.1353 20.9871 21.1685 20.9805 21.2012C20.9672 21.2662 20.9471 21.3289 20.9219 21.3887C20.9048 21.429 20.8843 21.4675 20.8623 21.5049C20.8354 21.5507 20.8061 21.5949 20.7725 21.6357C20.7113 21.7099 20.6395 21.7751 20.5596 21.8291C20.4798 21.883 20.3918 21.9258 20.2979 21.9551L20.2021 21.9795C20.1976 21.9804 20.193 21.9806 20.1885 21.9814C20.1274 21.9931 20.0645 22 20 22H16C15.6636 22 15.3302 21.9863 15 21.9609V22C14.9998 22.5521 14.5522 23 14 23C13.4478 23 13.0002 22.5521 13 22V21.6475C12.3108 21.4832 11.6425 21.2639 11 20.9941V22C10.9998 22.5521 10.5522 23 10 23C9.44785 23 9.00021 22.5521 9 22V19.9414C5.39766 17.6241 3 13.5796 3 9C3 8.90956 3.00197 8.81934 3.00684 8.72949C3.16823 4.32375 7.25569 1 12 1ZM7.45508 15.9023C9.47645 18.3968 12.5603 20 16 20H16.0508C15.4373 19.1644 15.0997 18.1498 15.0996 17.1006C15.0996 16.8971 15.1138 16.6949 15.1387 16.4951C14.1539 16.8215 13.0947 17 12 17C10.3618 17 8.80233 16.6026 7.45508 15.9023ZM19 14.3809C18.6094 14.5246 18.2492 14.7499 17.9492 15.0498C17.4055 15.5936 17.0996 16.3316 17.0996 17.1006C17.0998 17.8694 17.4056 18.6067 17.9492 19.1504C18.249 19.4502 18.6096 19.6736 19 19.8174V14.3809ZM16 6C15.2044 6 14.4415 6.3163 13.8789 6.87891C13.3163 7.44152 13 8.20435 13 9V10C13 10.5523 12.5523 11 12 11C11.4477 11 11 10.5523 11 10V9C11 8.20435 10.6837 7.44152 10.1211 6.87891C9.6289 6.38671 8.98351 6.08291 8.29688 6.01465L8 6C7.20435 6 6.44152 6.3163 5.87891 6.87891C5.3163 7.44152 5 8.20435 5 9C5 12.1925 8.0044 15 12 15C15.9956 15 19 12.1925 19 9C19 8.20435 18.6837 7.44152 18.1211 6.87891C17.6289 6.38671 16.9835 6.08291 16.2969 6.01465L16 6ZM12 3C10.5436 3 9.21955 3.37422 8.12402 4.00293L8.24805 4.00586C9.48382 4.06719 10.6561 4.58579 11.5352 5.46484C11.7036 5.63332 11.8587 5.81256 12 6.00098C12.1413 5.81256 12.2964 5.63332 12.4648 5.46484C13.373 4.55667 14.5943 4.03496 15.875 4.00293C14.7796 3.37447 13.4561 3 12 3Z" fill="#E4F2F2"/>
</svg>
