<svg width="24" height="24" viewBox="0 0 24 24" fill="none" xmlns="http://www.w3.org/2000/svg">
<path fill-rule="evenodd" clip-rule="evenodd" d="M8.02832 1.73342C10.1037 0.935377 12.3726 0.784606 14.5352 1.30178C16.6976 1.819 18.6529 2.97932 20.1426 4.62991C20.512 5.03941 20.4801 5.67083 20.0713 6.04104L13.4893 12L20.0713 17.959C20.4799 18.3293 20.5121 18.9607 20.1426 19.3701C18.6528 21.0207 16.6976 22.1811 14.5352 22.6983C12.3726 23.2154 10.1037 23.0646 8.02832 22.2666C5.95313 21.4686 4.16802 20.0602 2.90918 18.2276C1.65043 16.3948 0.976609 14.2234 0.976562 12C0.976563 9.77659 1.65042 7.60529 2.90918 5.77249C4.16802 3.93971 5.95304 2.53152 8.02832 1.73342ZM14.0703 3.2471C12.3009 2.82395 10.4441 2.94669 8.74609 3.59964C7.04811 4.25262 5.5876 5.40476 4.55762 6.90432C3.52763 8.40393 2.97656 10.1808 2.97656 12C2.97661 13.8192 3.52764 15.5962 4.55762 17.0957C5.58759 18.5952 7.0482 19.7475 8.74609 20.4004C10.4441 21.0533 12.301 21.1761 14.0703 20.753C15.5137 20.4077 16.8434 19.7112 17.9463 18.7334L11.3291 12.7412C11.1198 12.5517 11.0001 12.2824 11 12C11 11.7176 11.1197 11.4484 11.3291 11.2588L17.9463 5.26565C16.8435 4.28808 15.5135 3.59235 14.0703 3.2471Z" fill="#E4F2F2"/>
<path d="M18.0098 11C18.562 11 19.0098 11.4477 19.0098 12C19.0096 12.5522 18.562 13 18.0098 13H18C17.4478 13 17.0001 12.5522 17 12C17 11.4477 17.4477 11 18 11H18.0098Z" fill="#E4F2F2"/>
<path d="M22.0098 11C22.562 11 23.0098 11.4477 23.0098 12C23.0096 12.5522 22.562 13 22.0098 13H22C21.4478 13 21.0001 12.5522 21 12C21 11.4477 21.4477 11 22 11H22.0098Z" fill="#E4F2F2"/>
</svg>
