<svg width="24" height="24" viewBox="0 0 24 24" fill="none" xmlns="http://www.w3.org/2000/svg">
<path fill-rule="evenodd" clip-rule="evenodd" d="M12 1.00195C12.5249 1.00195 13.0401 1.14067 13.4951 1.40234L13.4961 1.40137L20.4961 5.40137L20.5 5.4043L20.667 5.50781C21.0483 5.76265 21.3673 6.10243 21.5977 6.50098C21.8608 6.95632 21.9994 7.47313 22 7.99902V10C21.9999 10.5522 21.5523 11 21 11C20.4477 11 20.0001 10.5522 20 10V8.56055L17.0488 10.2539C17.0131 10.2773 16.9766 10.2988 16.9385 10.3174L13 12.5781V20.5781L14.5049 19.7207C14.9846 19.4475 15.5957 19.6151 15.8691 20.0947C16.1425 20.5745 15.9748 21.1855 15.4951 21.459L13.4951 22.5986L13.4941 22.5977C13.0704 22.8412 12.5947 22.9765 12.1074 22.9941C12.0721 22.9979 12.0363 23 12 23C11.9634 23 11.9272 22.998 11.8916 22.9941C11.4041 22.9764 10.9277 22.8415 10.5039 22.5977L3.50391 18.5986L3.5 18.5957C3.04446 18.3327 2.66559 17.9544 2.40234 17.499C2.1392 17.0436 2.00055 16.5269 2 16.001V7.99902L2.00684 7.80176C2.03743 7.34452 2.1722 6.89927 2.40234 6.50098C2.66559 6.0456 3.0445 5.66732 3.5 5.4043L3.50391 5.40137L10.5039 1.40137C10.9591 1.13942 11.4748 1.00195 12 1.00195ZM4 15.999L4.00879 16.1299C4.02601 16.2591 4.06818 16.3844 4.13379 16.498C4.22076 16.6485 4.34604 16.7738 4.49609 16.8613L11 20.5771V12.5781L4 8.56055V15.999ZM5.0166 6.83789L12 10.8467L14.4863 9.41895L7.49805 5.4209L5.0166 6.83789ZM12 3.00195C11.8245 3.00195 11.652 3.04802 11.5 3.13574L11.4961 3.1377L9.51367 4.26953L16.4961 8.26465L18.9814 6.83789L12.5039 3.1377L12.5 3.13574C12.348 3.04802 12.1755 3.00195 12 3.00195Z" fill="#E4F2F2"/>
<path d="M19 12C19.5523 12 20 12.4477 20 13V15H22C22.5523 15 23 15.4477 23 16C23 16.5523 22.5523 17 22 17H20V19C20 19.5523 19.5523 20 19 20C18.4477 20 18 19.5523 18 19V17H16C15.4477 17 15 16.5523 15 16C15 15.4477 15.4477 15 16 15H18V13C18 12.4477 18.4477 12 19 12Z" fill="#E4F2F2"/>
</svg>
