<svg width="24" height="24" viewBox="0 0 24 24" fill="none" xmlns="http://www.w3.org/2000/svg">
<path fill-rule="evenodd" clip-rule="evenodd" d="M16.7598 2.00098C17.3165 1.99835 17.8628 2.15011 18.3379 2.44043C18.7554 2.69556 19.1036 3.04807 19.3525 3.4668L19.4531 3.65039L19.4551 3.6543L21.6855 8.13379C21.8923 8.54881 21.9997 9.00606 22 9.46973V19C22 19.7956 21.6837 20.5585 21.1211 21.1211C20.5585 21.6837 19.7956 22 19 22H5C4.20436 22 3.44151 21.6837 2.87891 21.1211C2.31632 20.5585 2.00001 19.7956 2 19V9.47168C2.00008 9.0063 2.10835 8.54715 2.31641 8.13086L4.55566 3.65332L4.55664 3.65039C4.80702 3.1535 5.19103 2.73572 5.66504 2.44434C6.13872 2.15325 6.68428 1.99923 7.24023 2L16.7598 2.00098ZM4 10.0127V19C4.00001 19.2652 4.10546 19.5195 4.29297 19.707C4.4805 19.8946 4.7348 20 5 20H19C19.2652 20 19.5195 19.8946 19.707 19.707C19.8945 19.5195 20 19.2652 20 19V10.0127H4ZM7.23828 4C7.05281 3.99964 6.87092 4.05136 6.71289 4.14844C6.55598 4.24487 6.42726 4.38182 6.34375 4.5459L6.34473 4.54688L4.61133 8.0127H11V4H7.23828ZM13 8.0127H19.3906L17.667 4.54981L17.5957 4.43067C17.5167 4.31659 17.4142 4.21938 17.2949 4.14649C17.136 4.04948 16.9528 3.99871 16.7666 4H13V8.0127Z" fill="#E4F2F2"/>
</svg>
