<svg width="24" height="24" viewBox="0 0 24 24" fill="none" xmlns="http://www.w3.org/2000/svg">
<path fill-rule="evenodd" clip-rule="evenodd" d="M20 1C20.6511 1 21.2665 1.16015 21.6914 1.30176C21.9094 1.37444 22.0919 1.44731 22.2217 1.50293C22.2867 1.53079 22.3399 1.55452 22.3779 1.57227C22.3966 1.58098 22.4123 1.58818 22.4238 1.59375C22.4295 1.59649 22.4347 1.59965 22.4385 1.60156C22.4401 1.60237 22.4421 1.60292 22.4434 1.60352L22.4453 1.60449L22.4463 1.60547L22.5361 1.65625C22.9643 1.92756 23.1261 2.48416 22.8945 2.94727C22.6478 3.44049 22.0483 3.64097 21.5547 3.39551L21.5537 3.39453C21.5501 3.39276 21.542 3.38932 21.5322 3.38477C21.5117 3.37519 21.4784 3.35961 21.4346 3.34082C21.3457 3.30276 21.215 3.25037 21.0586 3.19824C20.7336 3.08997 20.3485 3 20 3C19.5641 3.00008 19.1897 3.14787 18.8711 3.36426C19.4882 3.61352 20.0554 3.98514 20.5352 4.46484C21.4728 5.40253 22 6.67392 22 8C22 8.55228 21.5523 9 21 9C20.4479 8.9998 20 8.55216 20 8C20 7.20435 19.6837 6.44152 19.1211 5.87891C18.8018 5.55962 18.4177 5.32067 18 5.17285V6C18 8.56648 17.7429 10.6265 17.4834 12.0537C17.3646 12.7072 17.2432 13.2278 17.1475 13.6045C18.7285 14.7072 19.9088 16.2841 20.5234 18.1006C20.8637 18.1714 21.1687 18.2769 21.4482 18.4121C21.9616 18.6605 22.35 18.9893 22.6406 19.2314C23.0648 19.585 23.1221 20.2164 22.7686 20.6406C22.415 21.0647 21.7836 21.122 21.3594 20.7686C21.0503 20.511 20.8385 20.3394 20.5772 20.2129C20.3359 20.0962 20.011 20 19.5 20C19.0203 20 18.6996 20.0932 18.4482 20.2139C18.1757 20.3448 17.9474 20.5233 17.625 20.7812C17.3226 21.0232 16.9254 21.3448 16.417 21.5889C15.8872 21.8431 15.27 22 14.5 22C13.7114 22 13.0854 21.8461 12.5518 21.5879C12.0384 21.3394 11.6499 21.0107 11.3594 20.7686C11.0503 20.511 10.8385 20.3394 10.5772 20.2129C10.3359 20.0962 10.011 20 9.5 20C9.02032 20 8.6996 20.0932 8.44825 20.2139C8.17567 20.3448 7.9474 20.5233 7.625 20.7812C7.32255 21.0232 6.9254 21.3448 6.417 21.5889C5.88724 21.8431 5.26996 22 4.5 22C4.37799 22 4.25999 21.9945 4.14551 21.9873C4.09865 21.9941 4.05069 21.9999 4.00196 22C3.87144 22.0002 3.74721 21.974 3.63282 21.9287C3.22892 21.8597 2.87335 21.7435 2.55176 21.5879C2.03844 21.3394 1.64993 21.0107 1.35938 20.7686C0.935444 20.415 0.878137 19.7835 1.23145 19.3594C1.58497 18.9353 2.21639 18.8781 2.64063 19.2314C2.81956 19.3806 2.96726 19.4993 3.10938 19.5986C3.37141 17.9171 4.10489 16.3334 5.24122 15.041C6.68965 13.3939 8.69028 12.3321 10.8662 12.0557C12.3878 11.8624 13.9217 12.0645 15.3272 12.624C15.3866 12.3607 15.4522 12.0508 15.5166 11.6963C15.7571 10.3735 16 8.43347 16 6V5.1748C15.5827 5.32267 15.198 5.55986 14.8789 5.87891C14.3164 6.4415 14 7.20444 14 8C14 8.55228 13.5523 9 13 9C12.4479 8.9998 12 8.55216 12 8C12 6.674 12.5273 5.40251 13.4648 4.46484C13.9445 3.98521 14.512 3.61346 15.1289 3.36426C14.8103 3.148 14.4358 3 14 3C13.6515 3.00006 13.2663 3.08996 12.9414 3.19824C12.785 3.25039 12.6542 3.30277 12.5654 3.34082C12.5215 3.35964 12.4882 3.37523 12.4678 3.38477C12.4577 3.38946 12.4498 3.39285 12.4463 3.39453C12.4454 3.39498 12.4445 3.39542 12.4443 3.39551C11.9508 3.64077 11.3521 3.4405 11.1055 2.94727C10.8586 2.45341 11.059 1.85252 11.5527 1.60547L11.5566 1.60352C11.5579 1.60288 11.5599 1.60234 11.5615 1.60156C11.5653 1.59969 11.5705 1.59652 11.5762 1.59375C11.5877 1.58819 11.6034 1.58099 11.6221 1.57227C11.6601 1.55453 11.7133 1.5308 11.7783 1.50293C11.9081 1.44732 12.0906 1.37446 12.3086 1.30176C12.7334 1.16015 13.3489 1.00006 14 1C15.3586 1 16.348 1.68402 16.957 2.29297C16.9717 2.30765 16.9857 2.32323 17 2.33789C17.0144 2.32316 17.0282 2.30772 17.043 2.29297C17.6519 1.68403 18.6414 1.00012 20 1ZM15.9346 15.1953C14.5235 14.2364 12.8107 13.8251 11.1182 14.04C9.42574 14.255 7.86972 15.0811 6.74317 16.3623C5.85095 17.3771 5.27773 18.6226 5.07911 19.9443C5.2651 19.9056 5.41824 19.8502 5.55176 19.7861C5.82441 19.6553 6.05261 19.4767 6.375 19.2188C6.67743 18.9768 7.07463 18.6552 7.58301 18.4111C8.11275 18.1569 8.73007 18 9.5 18C10.2886 18 10.9146 18.1539 11.4482 18.4121C11.9616 18.6605 12.35 18.9893 12.6406 19.2314C12.9497 19.489 13.1616 19.6606 13.4229 19.7871C13.664 19.9038 13.989 20 14.5 20C14.9797 20 15.3004 19.9067 15.5518 19.7861C15.8244 19.6553 16.0526 19.4767 16.375 19.2188C16.6774 18.9768 17.0746 18.6552 17.583 18.4111C17.8299 18.2926 18.0963 18.1961 18.3877 18.126C17.8603 16.9476 17.0152 15.9297 15.9346 15.1953Z" fill="#E4F2F2"/>
<path fill-rule="evenodd" clip-rule="evenodd" d="M6 3C8.20914 3 10 4.79086 10 7C10 9.20914 8.20914 11 6 11C3.79103 10.9998 2 9.20902 2 7C2 4.79098 3.79103 3.0002 6 3ZM6 5C4.8956 5.0002 4 5.89555 4 7C4 8.10445 4.8956 8.9998 6 9C7.10457 9 8 8.10457 8 7C8 5.89543 7.10457 5 6 5Z" fill="#E4F2F2"/>
</svg>
