<svg width="24" height="24" viewBox="0 0 24 24" fill="none" xmlns="http://www.w3.org/2000/svg">
<path fill-rule="evenodd" clip-rule="evenodd" d="M12 1C14.8693 1 17.5279 1.5721 19.5068 2.55469C21.4285 3.5089 23 5.01725 23 7C23 7.94603 22.6387 8.7808 22.0664 9.49316C22.6308 10.2132 23 11.0752 23 12C23 12.9453 22.6391 13.7793 22.0645 14.4912C22.63 15.2116 23 16.0743 23 17C23 18.9827 21.4285 20.4911 19.5068 21.4453C17.5279 22.4279 14.8693 23 12 23C9.13072 23 6.47208 22.4279 4.49316 21.4453C2.57149 20.4911 1 18.9827 1 17C1 16.075 1.36877 15.2123 1.93359 14.4922C1.3562 13.7734 1 12.941 1 12C1 11.0727 1.37126 10.2085 1.93848 9.4873C1.36112 8.76741 1 7.93476 1 7C1 5.01725 2.57149 3.5089 4.49316 2.55469C6.47208 1.5721 9.13072 1 12 1ZM20.5605 15.8213C19.4929 16.5249 18.1373 17.0718 16.6211 17.4531C16.4867 17.6955 16.3206 17.9216 16.1211 18.1211C15.5585 18.6837 14.7957 19 14 19C13.2043 19 12.4415 18.6837 11.8789 18.1211C11.839 18.0812 11.803 18.0379 11.7656 17.9961C8.98617 17.9658 6.41808 17.4011 4.49316 16.4453C4.12294 16.2615 3.76616 16.0564 3.43066 15.832C3.14039 16.2363 3 16.644 3 17C3 17.8172 3.67876 18.8085 5.38184 19.6543C7.0279 20.4717 9.36937 21 12 21C14.6306 21 16.9721 20.4717 18.6182 19.6543C20.3212 18.8085 21 17.8172 21 17C21 16.6407 20.8564 16.2292 20.5605 15.8213ZM12 7C10.742 7 9.67775 7.29385 8.96289 7.7207C8.23807 8.15358 8 8.62829 8 9C8 9.24743 8.12273 9.57392 8.50586 9.92969C8.88775 10.2842 9.48156 10.6168 10.2588 10.834C11.7025 11.1318 13 12.3523 13 14V16C13 16.1245 13.0234 16.2465 13.0674 16.3604C13.1366 16.4433 13.1928 16.5372 13.2324 16.6396C13.2517 16.6628 13.2715 16.6856 13.293 16.707C13.4805 16.8946 13.7348 17 14 17C14.2652 17 14.5195 16.8946 14.707 16.707C14.8022 16.6119 14.875 16.4991 14.9248 16.377C14.937 16.3241 14.9533 16.2725 14.9736 16.2227C14.9902 16.1501 15 16.0756 15 16V11.7998C15 11.7619 15.0027 11.7242 15.0049 11.6865C14.99 11.5173 15.0185 11.352 15.083 11.2031C15.1484 10.9515 15.2423 10.7205 15.3281 10.5332C15.4793 10.2034 15.6644 9.88606 15.8115 9.63965C15.9678 9.32507 16 9.18487 16 9C16 8.62829 15.7619 8.15358 15.0371 7.7207C14.3222 7.29385 13.258 7 12 7ZM3.43066 10.832C3.14039 11.2363 3 11.644 3 12C3 12.8172 3.67876 13.8085 5.38184 14.6543C6.81614 15.3665 8.77847 15.8586 11 15.9736V14C11 13.6303 10.7715 13.2409 10.3809 12.998C10.3592 12.9976 10.3373 12.998 10.3154 12.9961C7.85376 12.7866 5.60125 12.13 3.93164 11.1504C3.76028 11.0498 3.59364 10.9426 3.43066 10.832ZM20.5664 10.8281C19.583 11.4817 18.3586 12.0013 17 12.377V15.2695C18.1129 14.9176 19.0323 14.4762 19.709 13.9805C20.6408 13.2978 21 12.6122 21 12C21 11.6428 20.8584 11.2338 20.5664 10.8281ZM12 3C9.36937 3 7.0279 3.52835 5.38184 4.3457C3.67876 5.19146 3 6.1828 3 7C3 7.72059 3.54834 8.60617 4.94336 9.4248C5.31698 9.64403 5.73602 9.84692 6.19336 10.0312C6.06996 9.7091 6 9.364 6 9C6 7.67171 6.86232 6.64603 7.9375 6.00391C9.02261 5.35591 10.4582 5 12 5C13.5418 5 14.9774 5.35591 16.0625 6.00391C17.1377 6.64603 18 7.67171 18 9C18 9.37605 17.9358 9.69355 17.832 9.99316C18.5776 9.69679 19.2141 9.35693 19.7168 8.98438C20.6389 8.30095 21 7.61402 21 7C21 6.1828 20.3212 5.19146 18.6182 4.3457C16.9721 3.52835 14.6306 3 12 3Z" fill="#E4F2F2"/>
</svg>
