<svg width="24" height="24" viewBox="0 0 24 24" fill="none" xmlns="http://www.w3.org/2000/svg">
<path d="M12.7505 16.25C13.1548 16.2501 13.5196 16.4937 13.6743 16.8672C13.8289 17.2408 13.7434 17.6711 13.4575 17.957L12.7075 18.707C12.3171 19.0975 11.684 19.0973 11.2935 18.707L10.5435 17.957C10.2575 17.671 10.1719 17.2408 10.3267 16.8672C10.4815 16.4936 10.8461 16.25 11.2505 16.25H12.7505Z" fill="#E4F2F2"/>
<path d="M8.29346 11.293C8.68399 10.9025 9.31702 10.9025 9.70753 11.293C10.0978 11.6835 10.0979 12.3166 9.70753 12.707L7.70753 14.707C7.31709 15.0975 6.68401 15.0973 6.29346 14.707C5.90294 14.3165 5.90294 13.6835 6.29346 13.293L8.29346 11.293Z" fill="#E4F2F2"/>
<path d="M14.2935 11.293C14.684 10.9025 15.317 10.9025 15.7075 11.293L17.7075 13.293C18.0978 13.6835 18.0979 14.3166 17.7075 14.707C17.3171 15.0975 16.684 15.0973 16.2935 14.707L14.2935 12.707C13.9029 12.3165 13.9029 11.6835 14.2935 11.293Z" fill="#E4F2F2"/>
<path d="M6.6128 5.00586C7.11624 5.0623 7.50554 5.4923 7.50049 6.00977C7.49632 6.41177 7.25443 6.75488 6.91065 6.91016C6.75542 7.25398 6.41227 7.49578 6.01026 7.5C5.45827 7.50538 5.00623 7.06177 5.00049 6.50977C4.99853 6.31106 5.03672 6.11367 5.11182 5.92969L5.17432 5.79492C5.24388 5.66365 5.33255 5.54294 5.43799 5.4375L5.54835 5.33789C5.66327 5.24384 5.7922 5.1677 5.93018 5.11133L6.07081 5.06152C6.21306 5.01941 6.36136 4.99853 6.51026 5L6.6128 5.00586Z" fill="#E4F2F2"/>
<path d="M17.5005 5C17.8982 5.00009 18.2798 5.15823 18.561 5.43945C18.8422 5.72073 19.0005 6.10231 19.0005 6.5C19.0004 7.05208 18.5526 7.49982 18.0005 7.5C17.595 7.5 17.2463 7.25805 17.0894 6.91113C16.7423 6.7543 16.5006 6.40555 16.5005 6C16.5005 5.44772 16.9482 5 17.5005 5Z" fill="#E4F2F2"/>
<path fill-rule="evenodd" clip-rule="evenodd" d="M16.5054 1.08203C17.2709 0.940439 18.0578 0.963277 18.814 1.14844C19.5701 1.33361 20.2787 1.677 20.8921 2.15625C21.5055 2.6355 22.01 3.23992 22.3726 3.92871C22.7351 4.61753 22.9478 5.37541 22.9956 6.15234C23.0434 6.92928 22.9252 7.70746 22.6499 8.43555C22.4633 8.9289 22.205 9.39013 21.8882 9.80859C22.5871 11.2948 23.0005 12.9085 23.0005 14.5C23.0004 17.3326 21.7021 19.5065 19.6392 20.9355C17.6135 22.3385 14.8955 22.9999 12.0005 23C9.10526 23 6.38659 22.3387 4.36085 20.9355C2.29784 19.5065 1.00057 17.3326 1.00049 14.5C1.0005 12.9088 1.41956 11.2975 2.11671 9.81641C1.79735 9.39606 1.53776 8.93172 1.3501 8.43555C1.0748 7.70748 0.957554 6.92926 1.00538 6.15234C1.05321 5.37547 1.26496 4.61748 1.62745 3.92871C1.99007 3.23984 2.49542 2.63552 3.10889 2.15625C3.7222 1.67714 4.43013 1.33362 5.18604 1.14844C5.94207 0.963313 6.72925 0.940508 7.49464 1.08203C8.26014 1.22364 8.98756 1.52633 9.62745 1.96973C10.0758 2.28047 10.4726 2.65689 10.8091 3.08301C11.5996 2.98146 12.3994 2.98157 13.1899 3.08301C13.5266 2.65653 13.9248 2.28066 14.3735 1.96973C15.0134 1.52638 15.7399 1.22362 16.5054 1.08203ZM18.3384 3.09082C17.8573 2.97303 17.3566 2.95881 16.8696 3.04883C16.3825 3.13894 15.9194 3.33113 15.5122 3.61328C15.1051 3.89542 14.7628 4.26113 14.5073 4.68555C14.2894 5.04765 13.8669 5.23384 13.4526 5.15039C12.494 4.95716 11.506 4.95716 10.5474 5.15039C10.1333 5.23365 9.71156 5.04741 9.49366 4.68555C9.2382 4.26109 8.895 3.89544 8.4878 3.61328C8.0807 3.33124 7.61834 3.13893 7.13135 3.04883C6.64435 2.95874 6.14367 2.97308 5.6626 3.09082C5.18149 3.20863 4.73069 3.4275 4.34034 3.73242C3.94995 4.03741 3.62872 4.42198 3.39796 4.86035C3.16724 5.29869 3.03191 5.78098 3.00147 6.27539C2.97106 6.7698 3.04597 7.2652 3.2212 7.72852C3.39644 8.19178 3.66811 8.61238 4.01807 8.96289C4.32937 9.27467 4.4 9.75424 4.1919 10.1426C3.43368 11.5574 3.0005 13.076 3.00049 14.5C3.00056 16.637 3.9428 18.2126 5.49952 19.291C7.09377 20.3953 9.37576 21 12.0005 21C14.6251 20.9999 16.9063 20.3953 18.5005 19.291C20.0573 18.2126 21.0004 16.6371 21.0005 14.5C21.0005 13.1052 20.5936 11.6236 19.8696 10.2402C19.5981 9.85058 19.6356 9.31079 19.9829 8.96289C20.3328 8.6124 20.6046 8.19171 20.7798 7.72852C20.955 7.26522 21.0299 6.76978 20.9995 6.27539C20.9691 5.78107 20.8337 5.29863 20.603 4.86035C20.3723 4.42205 20.0509 4.03739 19.6607 3.73242C19.2703 3.42747 18.8195 3.20866 18.3384 3.09082Z" fill="#E4F2F2"/>
</svg>
