<svg width="24" height="24" viewBox="0 0 24 24" fill="none" xmlns="http://www.w3.org/2000/svg">
<path d="M16.001 1C17.3268 1.00012 18.5986 1.52738 19.5361 2.46484C20.4736 3.40241 21.0008 4.67415 21.001 6C21.001 7.32602 20.4737 8.59845 19.5361 9.53613L19.5352 9.53516L11.1289 18.1143L11.1221 18.1221C10.5595 18.6845 9.79647 19.0009 9.00097 19.001C8.20531 19.001 7.44156 18.6846 6.8789 18.1221C6.31635 17.5594 6 16.7957 6 16C6.00013 15.2077 6.3139 14.4476 6.87207 13.8857L15.2861 5.2998C15.6726 4.90571 16.3058 4.89891 16.7002 5.28516C17.0946 5.67165 17.1002 6.30476 16.7139 6.69922L8.2998 15.2852L8.29297 15.293C8.1056 15.4804 8.00013 15.735 8 16C8 16.2651 8.10569 16.5195 8.29297 16.707C8.48057 16.8946 8.73566 17.001 9.00097 17.001C9.23293 17.0009 9.45687 16.9201 9.63476 16.7744L9.708 16.707L18.1152 8.12891L18.1221 8.12109C18.6844 7.55851 19.001 6.79546 19.001 6C19.0008 5.20458 18.6845 4.4414 18.1221 3.87891C17.5596 3.31652 16.7964 3.00012 16.001 3C15.2054 3.00001 14.4415 3.3164 13.8789 3.87891L5.50683 12.4229C5.50275 12.427 5.49829 12.4315 5.49414 12.4355C5.02391 12.8982 4.64982 13.4498 4.39355 14.0576C4.1373 14.6657 4.00371 15.3196 4.00097 15.9795C3.99831 16.6393 4.12676 17.2932 4.37793 17.9033C4.62923 18.5135 4.9992 19.0685 5.46582 19.5352C5.9324 20.0017 6.48659 20.3717 7.09668 20.623C7.70697 20.8744 8.36146 21.0027 9.02148 21C9.68139 20.9973 10.3342 20.8636 10.9424 20.6074C11.5506 20.3511 12.1026 19.9763 12.5654 19.5059L20.9424 10.957C21.3288 10.5629 21.962 10.5563 22.3564 10.9424C22.7509 11.3289 22.7574 11.962 22.3711 12.3564L13.9922 20.9072L13.9912 20.9092C13.3432 21.5679 12.5702 22.0914 11.7187 22.4502C10.8673 22.8089 9.95321 22.9962 9.02929 23C8.10532 23.0037 7.18932 22.8245 6.33496 22.4727C5.48067 22.1208 4.70409 21.6025 4.05078 20.9492C3.39763 20.2959 2.8801 19.5192 2.52832 18.665C2.17659 17.8108 1.99721 16.8945 2.00097 15.9707C2.00485 15.0469 2.19206 14.1325 2.55078 13.2812C2.9096 12.43 3.43326 11.6577 4.09179 11.0098L12.458 2.47168L12.4648 2.46484C13.4025 1.52726 14.675 1.00001 16.001 1Z" fill="#E4F2F2"/>
</svg>
