<svg width="24" height="24" viewBox="0 0 24 24" fill="none" xmlns="http://www.w3.org/2000/svg">
<path d="M7.40039 2.20068C7.84221 1.86944 8.46847 1.9591 8.7998 2.40087C9.1308 2.84258 9.04105 3.46796 8.59961 3.79931L8.60059 3.80029L8.60254 3.79833C8.60218 3.79853 8.60192 3.79925 8.60059 3.80029C8.59702 3.80306 8.59016 3.80882 8.58008 3.81689C8.55922 3.83357 8.52418 3.86075 8.47852 3.8999C8.38693 3.97841 8.24988 4.10217 8.08203 4.27001C7.74569 4.60637 7.28971 5.11865 6.83203 5.80517C5.91916 7.17454 5 9.23492 5 12.0005C5.00006 14.766 5.91915 16.8265 6.83203 18.1958C7.28973 18.8823 7.7457 19.3946 8.08203 19.7309C8.2499 19.8988 8.38695 20.0226 8.47852 20.1011C8.52421 20.1402 8.55926 20.1674 8.58008 20.1841C8.59021 20.1922 8.59708 20.198 8.60059 20.2007C9.04224 20.532 9.131 21.1583 8.7998 21.6001C8.46847 22.0417 7.84214 22.1314 7.40039 21.8003L8 21.0005C7.41753 21.7771 7.40127 21.7999 7.40039 21.8003L7.39648 21.7974C7.39503 21.7963 7.39257 21.7949 7.39062 21.7934C7.38678 21.7905 7.38157 21.787 7.37598 21.7827C7.36433 21.7737 7.34885 21.7616 7.33008 21.7466C7.29235 21.7164 7.24128 21.6731 7.17773 21.6186C7.0506 21.5097 6.87498 21.352 6.66797 21.145C6.25436 20.7314 5.71019 20.1185 5.16797 19.3052C4.08091 17.6746 3.00006 15.2346 3 12.0005C3 8.7663 4.08092 6.32643 5.16797 4.69579C5.71017 3.8825 6.25435 3.26959 6.66797 2.85595C6.87496 2.64896 7.05059 2.49131 7.17773 2.38232C7.24127 2.32786 7.29234 2.28458 7.33008 2.25439C7.34883 2.23938 7.36432 2.22728 7.37598 2.21825C7.38156 2.21393 7.38676 2.21045 7.39062 2.20751C7.39254 2.20605 7.39499 2.20471 7.39648 2.20361L7.40039 2.20068C7.40265 2.203 7.43174 2.24288 7.8916 2.85595L7.40039 2.20068Z" fill="#E4F2F2"/>
<path d="M15.2002 2.40087C15.5315 1.9591 16.1578 1.86944 16.5996 2.20068L16.1084 2.85595C16.5683 2.24288 16.5973 2.203 16.5996 2.20068L16.6035 2.20361C16.605 2.20471 16.6075 2.20605 16.6094 2.20751C16.6132 2.21045 16.6184 2.21393 16.624 2.21825C16.6357 2.22728 16.6512 2.23938 16.6699 2.25439C16.7077 2.28458 16.7587 2.32786 16.8223 2.38232C16.9494 2.49131 17.125 2.64896 17.332 2.85595C17.7457 3.26959 18.2898 3.8825 18.832 4.69579C19.9191 6.32643 21 8.7663 21 12.0005C20.9999 15.2346 19.9191 17.6746 18.832 19.3052C18.2898 20.1185 17.7456 20.7314 17.332 21.145C17.125 21.352 16.9494 21.5097 16.8223 21.6186C16.7587 21.6731 16.7076 21.7164 16.6699 21.7466C16.6512 21.7616 16.6357 21.7737 16.624 21.7827C16.6184 21.787 16.6132 21.7905 16.6094 21.7934C16.6074 21.7949 16.605 21.7963 16.6035 21.7974L16.6006 21.8003C16.5997 21.7999 16.5825 21.7771 16 21.0005L16.6006 21.8003C16.1588 22.1314 15.5315 22.0417 15.2002 21.6001C14.869 21.1583 14.9587 20.532 15.4004 20.2007L15.3975 20.2026C15.3975 20.2026 15.3988 20.2019 15.4004 20.2007C15.4039 20.198 15.4098 20.1922 15.4199 20.1841C15.4407 20.1674 15.4758 20.1402 15.5215 20.1011C15.613 20.0226 15.7501 19.8988 15.918 19.7309C16.2543 19.3946 16.7103 18.8823 17.168 18.1958C18.0808 16.8265 18.9999 14.766 19 12.0005C19 9.23492 18.0808 7.17454 17.168 5.80517C16.7103 5.11865 16.2543 4.60637 15.918 4.27001C15.7501 4.10217 15.6131 3.97841 15.5215 3.8999C15.4758 3.86075 15.4408 3.83357 15.4199 3.81689C15.4098 3.80882 15.403 3.80306 15.3994 3.80029C15.3981 3.79925 15.3968 3.79853 15.3965 3.79833L15.3994 3.80029L15.4004 3.79931C14.9589 3.46796 14.8692 2.84258 15.2002 2.40087Z" fill="#E4F2F2"/>
</svg>
