<svg width="24" height="24" viewBox="0 0 24 24" fill="none" xmlns="http://www.w3.org/2000/svg">
<path d="M12.0005 11C12.5526 11.0002 13.0005 11.4478 13.0005 12V14L13.1021 14.0049C13.6065 14.0559 14.0005 14.4821 14.0005 15C14.0005 15.5522 13.5526 15.9998 13.0005 16H11.0005C10.4482 16 10.0005 15.5523 10.0005 15C10.0005 14.4822 10.3937 14.0561 10.898 14.0049L11.0005 14V12C11.0005 11.4477 11.4482 11 12.0005 11Z" fill="#E4F2F2"/>
<path d="M12.0005 5C13.0612 5.00009 14.0786 5.42181 14.8286 6.17188C15.5787 6.922 16.0005 7.93921 16.0005 9C16.0005 9.55217 15.5526 9.99982 15.0005 10C14.4482 10 14.0005 9.55229 14.0005 9C14.0005 8.46964 13.7895 7.96099 13.4146 7.58594C13.0396 7.21094 12.5308 7.00009 12.0005 7C11.4701 7 10.9615 7.21097 10.5864 7.58594C10.2114 7.96101 10.0005 8.46957 10.0005 9C10.0005 9.55217 9.55263 9.99982 9.0005 10C8.44821 10 8.0005 9.55229 8.0005 9C8.0005 7.93913 8.42223 6.92202 9.17237 6.17188C9.9225 5.42183 10.9397 5 12.0005 5Z" fill="#E4F2F2"/>
<path fill-rule="evenodd" clip-rule="evenodd" d="M12.0005 1C13.2801 1.00005 14.5418 1.3073 15.6782 1.89551C16.8144 2.48374 17.793 3.3363 18.5317 4.38086C19.2705 5.42562 19.7484 6.63296 19.9243 7.90039C20.1001 9.16775 19.9698 10.4596 19.5435 11.666L17.1773 18.6396C17.0433 19.0361 16.7888 19.382 16.4487 19.626C16.1089 19.8696 15.7008 20 15.2827 20H13.0005V22C13.0005 22.5522 12.5526 22.9998 12.0005 23C11.4482 23 11.0005 22.5523 11.0005 22V20H8.71827C8.30022 20.0001 7.89206 19.8695 7.55226 19.626C7.21227 19.3821 6.95677 19.037 6.82276 18.6406L4.45753 11.666L4.31202 11.209C4.00386 10.1364 3.92284 9.00926 4.07667 7.90039C4.25262 6.63284 4.73035 5.42569 5.46925 4.38086C6.20809 3.33617 7.18644 2.48374 8.32276 1.89551C9.45927 1.30728 10.7208 1 12.0005 1ZM12.0005 3C11.0407 3 10.0951 3.23072 9.24268 3.67188C8.39044 4.113 7.65623 4.7517 7.10206 5.53516C6.54793 6.31872 6.18912 7.22422 6.05714 8.1748C5.92525 9.12533 6.02355 10.0942 6.34327 10.999L6.34718 11.0107L8.71729 17.999L8.71827 18H15.2827L15.2837 17.999L17.6538 11.0107L17.6577 10.999C17.9774 10.0942 18.0757 9.12531 17.9439 8.1748C17.8119 7.22434 17.4529 6.31865 16.8989 5.53516C16.3449 4.75183 15.6104 4.11299 14.7583 3.67188C13.906 3.23073 12.9602 3.00005 12.0005 3Z" fill="#E4F2F2"/>
</svg>
