<svg width="24" height="24" viewBox="0 0 24 24" fill="none" xmlns="http://www.w3.org/2000/svg">
<path fill-rule="evenodd" clip-rule="evenodd" d="M6.85352 9.6914C7.38098 9.68819 7.93185 9.82599 8.45899 10.0371C9.51706 10.4609 10.6699 11.2559 11.707 12.293C12.7442 13.3301 13.5391 14.4829 13.9629 15.541C14.174 16.0682 14.3118 16.619 14.3086 17.1465C14.3053 17.6801 14.1537 18.2614 13.707 18.708C13.5677 18.8472 13.4138 18.9547 13.2539 19.041C13.1867 19.0858 13.1138 19.1241 13.0342 19.1523L2.33399 22.9424C1.97064 23.0711 1.56555 22.9795 1.29297 22.707C1.02053 22.4342 0.928586 22.0284 1.05762 21.665L4.79688 11.1338C4.88787 10.833 5.04325 10.5418 5.292 10.293L5.46582 10.1396C5.8834 9.81127 6.38657 9.69434 6.85352 9.6914ZM3.64454 20.3564L9.33008 18.3418C8.64007 17.9136 7.94287 17.3589 7.292 16.708C6.64284 16.0588 6.0889 15.364 5.66114 14.6758L3.64454 20.3564ZM6.86524 11.6914C6.78527 11.692 6.73889 11.7013 6.71485 11.709L6.70118 11.748C6.69602 11.7748 6.69078 11.8133 6.69043 11.8662C6.68935 12.0523 6.74148 12.3385 6.89258 12.7158C7.19376 13.4677 7.81428 14.4002 8.70704 15.293C9.59977 16.1857 10.5323 16.8062 11.2842 17.1074C11.6615 17.2585 11.9477 17.3106 12.1338 17.3096C12.218 17.309 12.2651 17.2969 12.2881 17.2891C12.2959 17.2663 12.308 17.2194 12.3086 17.1348C12.3097 16.9487 12.2576 16.6627 12.1064 16.2852C11.8053 15.5333 11.1848 14.6009 10.292 13.708C9.39918 12.8152 8.4667 12.1947 7.71485 11.8936C7.33744 11.7425 7.05129 11.6903 6.86524 11.6914Z" fill="#E4F2F2"/>
<path d="M22.0098 19C22.562 19 23.0097 19.4478 23.0098 20C23.0098 20.5523 22.562 21 22.0098 21H22C21.4477 21 21 20.5523 21 20C21.0001 19.4478 21.4478 19 22 19H22.0098Z" fill="#E4F2F2"/>
<path d="M18.2148 13.6064C18.4759 12.1238 19.9971 11.2237 21.4111 11.6904L21.5479 11.7402L21.5537 11.7422L22.3731 12.0723C22.8852 12.2784 23.1336 12.8608 22.9277 13.373C22.7216 13.8853 22.1392 14.1337 21.627 13.9277L20.8086 13.5986C20.5409 13.4955 20.2353 13.6655 20.1846 13.9531L20.1836 13.9521C19.9896 15.1319 18.9638 16 17.7695 16H17C16.4477 16 16 15.5523 16 15C16.0002 14.4478 16.4478 14 17 14H17.7695C17.9893 14 18.1786 13.8363 18.2119 13.625L18.2148 13.6064Z" fill="#E4F2F2"/>
<path d="M21.6826 1.05176C22.2062 0.876564 22.7728 1.15909 22.9482 1.68262C23.1235 2.20626 22.841 2.77286 22.3174 2.94824L20.0772 3.69824L20.0762 3.69922C19.6586 3.83832 19.3016 4.11758 19.0674 4.49023C18.8625 4.81645 18.7627 5.19673 18.7783 5.5791L18.793 5.75488C18.9609 7.20083 17.8355 8.49998 16.3496 8.5H15.9697C15.5782 8.50012 15.2605 8.7705 15.1924 9.12695L15.1914 9.13476L14.9805 10.1943C14.8731 10.736 14.3474 11.0878 13.8057 10.9805C13.264 10.8731 12.9122 10.3474 13.0195 9.80566L13.2285 8.75293C13.4806 7.42986 14.6417 6.50013 15.9697 6.5H16.3496C16.6236 6.49998 16.8385 6.25924 16.8066 5.98535C16.6953 5.09307 16.8956 4.1884 17.374 3.42676C17.8548 2.66152 18.5869 2.08638 19.4443 1.80078L21.6826 1.05176Z" fill="#E4F2F2"/>
<path d="M22.0098 7C22.562 7.00002 23.0097 7.44783 23.0098 8C23.0098 8.55227 22.562 8.99998 22.0098 9H22C21.4477 9 21 8.55228 21 8C21.0001 7.44781 21.4478 7 22 7H22.0098Z" fill="#E4F2F2"/>
<path d="M10.627 1.07226C11.1392 0.866368 11.7215 1.11484 11.9277 1.62695L12.2578 2.44629L12.2598 2.45215C12.8335 3.90331 11.9242 5.51578 10.3936 5.78515C10.383 5.78701 10.3719 5.78853 10.3613 5.79004C10.1726 5.81706 10.0001 5.99933 10 6.23047V7C10 7.55227 9.55227 7.99998 9 8C8.44772 8 8 7.55228 8 7V6.23047C8.00011 5.05227 8.85243 4.00226 10.0469 3.81543L10.1494 3.78418C10.3723 3.6882 10.4911 3.42694 10.4023 3.19336L10.0723 2.37305C9.8664 1.8608 10.1148 1.2784 10.627 1.07226Z" fill="#E4F2F2"/>
<path d="M4.00977 2C4.56196 2.00002 5.00965 2.44783 5.00977 3C5.00977 3.55227 4.56204 3.99998 4.00977 4H4C3.44772 4 3 3.55228 3 3C3.00012 2.44781 3.44779 2 4 2H4.00977Z" fill="#E4F2F2"/>
<path d="M15.0098 0.999998C15.562 1.00002 16.0097 1.44783 16.0098 2C16.0098 2.55227 15.562 2.99998 15.0098 3H15C14.4477 3 14 2.55228 14 2C14.0001 1.44781 14.4478 0.999998 15 0.999998H15.0098Z" fill="#E4F2F2"/>
</svg>
