<svg width="24" height="24" viewBox="0 0 24 24" fill="none" xmlns="http://www.w3.org/2000/svg">
<path fill-rule="evenodd" clip-rule="evenodd" d="M9.29541 9.00684C9.98238 9.04071 10.6596 9.19326 11.2964 9.45703C12.0242 9.75856 12.6856 10.2008 13.2427 10.7578C13.7997 11.3149 14.242 11.9763 14.5435 12.7041C14.8449 13.432 15.0005 14.2122 15.0005 15V18.5C15.0001 19.5754 14.6143 20.6159 13.9136 21.4316C13.2129 22.2471 12.2429 22.7847 11.1802 22.9473C10.1172 23.1097 9.03097 22.8855 8.11865 22.3164C7.20627 21.7471 6.52703 20.87 6.20557 19.8438L6.20459 19.8408C5.87521 18.7783 5.22111 18.1236 4.16357 17.7949L4.16162 17.7939C3.13595 17.4727 2.25829 16.7954 1.68897 15.8838C1.11964 14.972 0.895551 13.8859 1.05713 12.8232C1.21875 11.7608 1.75548 10.7911 2.56983 10.0898C3.38438 9.38863 4.42373 9.00188 5.49854 9H9.00049L9.29541 9.00684ZM5.27881 11.0107C4.76242 11.0579 4.2713 11.2648 3.87549 11.6055C3.423 11.9951 3.12447 12.5337 3.03467 13.124C2.9449 13.7144 3.06994 14.3177 3.38623 14.8242C3.70201 15.3297 4.18784 15.706 4.75635 15.8848C6.44404 16.4092 7.59044 17.5572 8.11475 19.2461L8.19092 19.4561C8.38965 19.9355 8.73383 20.3435 9.17725 20.6201C9.68393 20.936 10.2872 21.0598 10.8774 20.9697C11.4679 20.8794 12.0077 20.581 12.397 20.1279C12.7374 19.7315 12.9433 19.2395 12.9897 18.7227L13.0005 18.5V15C13.0005 14.4749 12.8967 13.9549 12.6958 13.4697C12.4948 12.9846 12.1999 12.5432 11.8286 12.1719C11.4573 11.8005 11.0159 11.5057 10.5308 11.3047C10.1062 11.1289 9.65476 11.0275 9.19678 11.0049L9.00049 11H5.50244L5.27881 11.0107Z" fill="#E4F2F2"/>
<path fill-rule="evenodd" clip-rule="evenodd" d="M19.9995 13C21.6564 13 22.9995 14.3431 22.9995 16C22.9995 17.6569 21.6564 19 19.9995 19C18.3428 18.9998 16.9995 17.6567 16.9995 16C16.9995 14.3433 18.3428 13.0002 19.9995 13ZM19.9995 15C19.4474 15.0002 18.9995 15.4478 18.9995 16C18.9995 16.5522 19.4474 16.9998 19.9995 17C20.5518 17 20.9995 16.5523 20.9995 16C20.9995 15.4477 20.5518 15 19.9995 15Z" fill="#E4F2F2"/>
<path fill-rule="evenodd" clip-rule="evenodd" d="M17.9995 5C19.6564 5 20.9995 6.34315 20.9995 8C20.9995 9.65685 19.6564 11 17.9995 11C16.3428 10.9998 14.9995 9.65674 14.9995 8C14.9995 6.34326 16.3428 5.00019 17.9995 5ZM17.9995 7C17.4474 7.00019 16.9995 7.44783 16.9995 8C16.9995 8.55217 17.4474 8.99981 17.9995 9C18.5518 9 18.9995 8.55228 18.9995 8C18.9995 7.44772 18.5518 7 17.9995 7Z" fill="#E4F2F2"/>
<path fill-rule="evenodd" clip-rule="evenodd" d="M10.9995 1C12.6564 1 13.9995 2.34315 13.9995 4C13.9995 5.65685 12.6564 7 10.9995 7C9.34282 6.99981 7.99951 5.65674 7.99951 4C7.99951 2.34326 9.34282 1.00019 10.9995 1ZM10.9995 3C10.4474 3.00019 9.99951 3.44783 9.99951 4C9.99951 4.55217 10.4474 4.99981 10.9995 5C11.5518 5 11.9995 4.55228 11.9995 4C11.9995 3.44772 11.5518 3 10.9995 3Z" fill="#E4F2F2"/>
</svg>
