<svg width="24" height="24" viewBox="0 0 24 24" fill="none" xmlns="http://www.w3.org/2000/svg">
<path fill-rule="evenodd" clip-rule="evenodd" d="M12 1C18.0751 1 23 5.92487 23 12C23 14.9282 21.853 17.5865 19.9873 19.5576C19.9411 19.6471 19.8817 19.7316 19.8066 19.8066C19.7316 19.8817 19.6471 19.9411 19.5576 19.9873C17.5865 21.853 14.9282 23 12 23C5.92487 23 1 18.0751 1 12C1 5.92487 5.92487 1 12 1ZM6.38281 19.0303C7.6776 20.0662 9.26404 20.7504 11 20.9424V14.4141L6.38281 19.0303ZM13 20.9424C14.7357 20.7505 16.3215 20.0659 17.6162 19.0303L13 14.4141V20.9424ZM11 3.05664C6.50014 3.55417 3 7.36751 3 12C3 14.1247 3.7374 16.0766 4.96875 17.6162L11 11.5859V3.05664ZM13 11.5859L19.0303 17.6162C20.2619 16.0766 21 14.125 21 12C21 7.36751 17.4999 3.55417 13 3.05664V11.5859Z" fill="#E4F2F2"/>
</svg>
