<svg width="24" height="24" viewBox="0 0 24 24" fill="none" xmlns="http://www.w3.org/2000/svg">
<path fill-rule="evenodd" clip-rule="evenodd" d="M14 1C14.5523 1 15 1.44772 15 2C15 2.55228 14.5523 3 14 3C13.7348 3 13.4805 3.10543 13.293 3.29297C13.1054 3.48051 13 3.73478 13 4V4.64844C13.6081 4.35967 14.2575 4.15771 14.9297 4.05371C16.2678 3.84677 17.6383 4.03228 18.873 4.58789C20.1076 5.14349 21.1542 6.04607 21.8867 7.18457C22.6185 8.32206 23.0054 9.64755 23 11L22.9863 11.6113C22.6954 17.8975 17.9453 23 12 23C6.05469 23 1.30462 17.8975 1.01367 11.6113L1 11C1.0001 9.14372 1.73727 7.36245 3.0498 6.0498C4.36254 4.73717 6.14358 4 8 4C9.04791 4 10.0712 4.23583 11 4.67676V4C11 3.20435 11.3163 2.44151 11.8789 1.87891C12.4415 1.3163 13.2044 1 14 1ZM18.0518 6.41211C17.17 6.01537 16.1919 5.88259 15.2363 6.03027C14.6157 6.12626 14.0219 6.33929 13.4844 6.65234C14.4601 7.88322 14.9999 9.41372 15 11C14.9998 11.5521 14.5522 12 14 12C13.4478 12 13.0002 11.5521 13 11C12.9999 9.67406 12.4727 8.40146 11.5352 7.46387C10.6562 6.58511 9.48359 6.06718 8.24805 6.00586L8 6C6.67415 6 5.40248 6.52649 4.46484 7.46387C3.52725 8.40146 3.0001 9.67406 3 11L3.01172 11.5244C3.25907 16.9046 7.28906 21 12 21C16.8629 21 20.9998 16.6363 21 11V10.9951C21.0044 10.0281 20.7283 9.07992 20.2051 8.2666C19.6818 7.45332 18.9337 6.80896 18.0518 6.41211Z" fill="#E4F2F2"/>
</svg>
