<svg width="24" height="24" viewBox="0 0 24 24" fill="none" xmlns="http://www.w3.org/2000/svg">
<path fill-rule="evenodd" clip-rule="evenodd" d="M15.7148 1.14459C16.8889 0.874243 18.1179 0.967284 19.2383 1.41022C19.685 1.58685 20.1056 1.81688 20.4932 2.09186L21.293 1.29303C21.6835 0.902616 22.3165 0.902636 22.707 1.29303C23.0975 1.68353 23.0975 2.31656 22.707 2.70709L21.9062 3.5069C21.9343 3.54652 21.9631 3.58566 21.9902 3.62604C22.6597 4.62297 23.0114 5.79942 23 7.00006L22.9922 7.31647C22.9078 8.8877 22.1991 10.3155 21.1074 11.4073C21.0919 11.4228 21.0751 11.4377 21.0586 11.4522C20.2201 12.1859 19.8966 12.4691 19.6357 12.9366C19.3591 13.4327 19.1327 14.1851 18.7793 15.9014L18.7783 15.9073C18.442 17.4963 17.6814 18.9652 16.5781 20.1573C15.4747 21.3493 14.0691 22.2208 12.5107 22.6788C10.9522 23.1367 9.29851 23.1645 7.72559 22.7588C6.15261 22.3531 4.71877 21.5288 3.57617 20.3741C2.43356 19.2193 1.62446 17.7765 1.23535 16.1993C0.846346 14.6221 0.89181 12.9687 1.36621 11.4151C1.84069 9.86163 2.72699 8.46477 3.93066 7.37408C5.12609 6.29107 6.59092 5.54966 8.1709 5.22662L9.29199 4.95221C10.2509 4.70501 10.7591 4.52794 11.1318 4.3233C11.4819 4.13099 11.7291 3.90876 12.1631 3.45514L12.6709 2.91607C13.4836 2.03235 14.5447 1.41415 15.7148 1.14459ZM18.5029 3.26959C17.7592 2.97559 16.9434 2.9144 16.1641 3.09381C15.3848 3.27332 14.6779 3.68577 14.1377 4.27545L14.1299 4.28424C13.419 5.04257 12.9012 5.63284 12.0938 6.07623C11.3158 6.50331 10.3019 6.77926 8.62891 7.17291C8.61837 7.17539 8.60729 7.17857 8.59668 7.18072C7.35812 7.42922 6.20959 8.00834 5.27344 8.8565C4.33726 9.70481 3.64737 10.7908 3.27832 11.9991C2.90934 13.2074 2.87516 14.4941 3.17774 15.7208C3.48041 16.9473 4.10948 18.0688 4.99805 18.9669C5.88675 19.865 7.00212 20.5057 8.22559 20.8213C9.44892 21.1368 10.7351 21.116 11.9473 20.7598C13.1591 20.4036 14.2523 19.7258 15.1104 18.7989C15.9684 17.8717 16.5607 16.7291 16.8223 15.4932C17.1683 13.813 17.4418 12.766 17.8896 11.9629C18.3475 11.1421 18.9636 10.6269 19.7109 9.97369C20.5346 9.14144 21 8.09589 21 7.00006V6.98834C21.0081 6.27188 20.8195 5.56932 20.46 4.95318L19.707 5.70709C19.3165 6.09761 18.6835 6.09761 18.293 5.70709C17.9026 5.31656 17.9025 4.68352 18.293 4.29303L19.0488 3.53619C18.8746 3.43399 18.6923 3.34447 18.5029 3.26959Z" fill="#E4F2F2"/>
</svg>
