<svg width="24" height="24" viewBox="0 0 24 24" fill="none" xmlns="http://www.w3.org/2000/svg">
<path fill-rule="evenodd" clip-rule="evenodd" d="M2.4585 1.07421C2.74711 0.993134 3.05 0.978812 3.34424 1.03027L3.46924 1.05566L3.48877 1.06054L16.1323 4.38281C16.4957 4.47414 16.8255 4.66535 17.0854 4.93554C17.3497 5.21047 17.5301 5.55574 17.605 5.92968L18.7065 11.4375C18.803 11.4232 18.9008 11.4141 18.9995 11.4141C19.5297 11.4141 20.0386 11.6252 20.4136 12L21.9995 13.5859L22.1323 13.7324C22.4239 14.0883 22.5854 14.5359 22.5854 15C22.5854 15.4641 22.4239 15.9117 22.1323 16.2676L21.9995 16.4141L16.4136 22C16.0386 22.3748 15.5297 22.5859 14.9995 22.5859C14.5356 22.5858 14.0877 22.4243 13.7319 22.1328L13.5854 22L11.9995 20.4141C11.6248 20.0391 11.4136 19.5302 11.4136 19C11.4136 18.9013 11.4227 18.8035 11.437 18.707L5.9292 17.6055C5.55535 17.5306 5.20993 17.3502 4.93506 17.0859C4.66488 16.826 4.47365 16.4952 4.38232 16.1318L1.06006 3.48925C1.05839 3.48292 1.05671 3.47609 1.05517 3.46972C0.974765 3.13688 0.981151 2.78864 1.07373 2.45898C1.16647 2.12912 1.3432 1.82825 1.58545 1.58593C1.82773 1.34365 2.12866 1.16701 2.4585 1.07421ZM13.4136 19L14.9995 20.5859L20.5854 15L18.9995 13.4141L13.4136 19ZM9.7085 8.29492C10.0999 8.10774 10.5367 8.00004 10.9995 8C12.6564 8 13.9995 9.34314 13.9995 11C13.9994 12.6568 12.6563 14 10.9995 14C9.34283 13.9998 7.99957 12.6567 7.99951 11C7.99951 10.5373 8.10736 10.1003 8.29443 9.70898L3.50342 4.91796L6.31689 15.625L6.32178 15.6445L12.6704 16.9141L16.9136 12.6709L15.644 6.32226C15.6376 6.32072 15.6309 6.31905 15.6245 6.31738L4.91748 3.5039L9.7085 8.29492ZM10.9995 10C10.4474 10.0002 9.99951 10.4478 9.99951 11C9.99957 11.5521 10.4474 11.9998 10.9995 12C11.5518 12 11.9994 11.5522 11.9995 11C11.9995 10.4477 11.5518 10 10.9995 10Z" fill="#E4F2F2"/>
</svg>
