<svg width="24" height="24" viewBox="0 0 24 24" fill="none" xmlns="http://www.w3.org/2000/svg">
<path fill-rule="evenodd" clip-rule="evenodd" d="M1.29297 1.29297C1.6835 0.902526 2.31653 0.902472 2.70703 1.29297L14.5898 13.1758C14.6303 13.2055 14.6695 13.2379 14.7061 13.2744C14.7426 13.3109 14.775 13.3503 14.8047 13.3906L22.707 21.293C23.0974 21.6835 23.0974 22.3165 22.707 22.707C22.3165 23.0975 21.6835 23.0975 21.293 22.707L13.9902 15.4043L8.53809 20.8613C8.19091 21.2095 7.764 21.4681 7.29395 21.6123L7.29102 21.6133L2.93262 22.9355L2.92969 22.9365C2.67001 23.0143 2.39363 23.0206 2.13086 22.9541C1.86812 22.8875 1.62788 22.7506 1.43652 22.5586C1.24531 22.3666 1.1096 22.1262 1.04395 21.8633C0.978307 21.6003 0.984868 21.3239 1.06348 21.0645L2.38574 16.7051C2.52922 16.2333 2.78692 15.8026 3.13574 15.4541L8.58496 9.99902L1.29297 2.70703C0.902445 2.31651 0.902445 1.68349 1.29297 1.29297ZM4.5498 16.8691C4.43383 16.9851 4.34767 17.1283 4.2998 17.2852L3.24902 20.749L6.70996 19.6992C6.86549 19.6511 7.00703 19.5654 7.12207 19.4502L12.5762 13.9902L10 11.4141L4.5498 16.8691Z" fill="#E4F2F2"/>
<path d="M19.1807 1C19.682 1.00003 20.1794 1.09915 20.6426 1.29102C21.1056 1.48284 21.5264 1.76386 21.8809 2.11816C22.2354 2.47267 22.5171 2.89426 22.709 3.35742C22.9008 3.82047 22.9999 4.31718 23 4.81836C23 5.31963 22.9007 5.81713 22.709 6.28027C22.5172 6.74325 22.2352 7.16415 21.8809 7.51855L17.5283 11.8721C17.1379 12.2623 16.5048 12.2622 16.1143 11.8721C15.7238 11.4815 15.7238 10.8475 16.1143 10.457L20.4668 6.10449C20.6355 5.93573 20.77 5.73507 20.8613 5.51465C20.9526 5.29416 21 5.057 21 4.81836C20.9999 4.57991 20.9525 4.34336 20.8613 4.12305C20.7699 3.90254 20.6356 3.70101 20.4668 3.53223C20.298 3.36357 20.0974 3.22999 19.877 3.13867C19.6564 3.04732 19.4194 3.00004 19.1807 3C18.9422 3.00006 18.7057 3.04746 18.4854 3.13867C18.265 3.22993 18.0642 3.3637 17.8955 3.53223L17.8945 3.5332L13.5352 7.87988C13.1441 8.26965 12.511 8.26875 12.1211 7.87793C11.7313 7.48681 11.732 6.8528 12.123 6.46289L16.4824 2.11719C16.8366 1.76346 17.2573 1.48261 17.7197 1.29102C18.1828 1.09928 18.6795 1.00006 19.1807 1Z" fill="#E4F2F2"/>
</svg>
