<svg width="24" height="24" viewBox="0 0 24 24" fill="none" xmlns="http://www.w3.org/2000/svg">
<path fill-rule="evenodd" clip-rule="evenodd" d="M19.1816 1C20.1944 1.00019 21.1658 1.40293 21.8818 2.11914C22.5977 2.83536 23.0001 3.80671 23 4.81934C22.9998 5.7688 22.6461 6.68243 22.0117 7.38281L21.8809 7.51953L8.5332 20.8691C8.18553 21.2156 7.7577 21.4724 7.28808 21.6152L2.93457 22.9355L2.93164 22.9365C2.67258 23.0143 2.39709 23.02 2.13476 22.9541C1.87239 22.8881 1.63197 22.7526 1.44043 22.5615C1.24888 22.3703 1.11237 22.1296 1.0459 21.8672C0.979613 21.605 0.985194 21.3294 1.0625 21.0703L1.06445 21.0664L2.38476 16.7139L2.38574 16.7109C2.5299 16.2409 2.78763 15.813 3.13574 15.4658L16.4805 2.11816C17.1967 1.40208 18.1688 0.999881 19.1816 1ZM19.1816 3C18.6995 2.99995 18.2366 3.19145 17.8955 3.53223L4.54785 16.8828C4.43197 16.9985 4.34585 17.1413 4.29785 17.2979L3.24902 20.749L6.70605 19.7012L6.82031 19.6592C6.9319 19.6097 7.03413 19.5398 7.12109 19.4531L20.4668 6.10547L20.5879 5.97168C20.8529 5.64823 20.9998 5.24116 21 4.81934C21.0001 4.33702 20.8078 3.87434 20.4668 3.5332C20.1259 3.19221 19.6638 3.00019 19.1816 3Z" fill="#E4F2F2"/>
</svg>
