<svg width="24" height="24" viewBox="0 0 24 24" fill="none" xmlns="http://www.w3.org/2000/svg">
<path fill-rule="evenodd" clip-rule="evenodd" d="M12 1C13.0606 1.0001 14.0781 1.42194 14.8281 2.17188C15.5781 2.922 16 3.93923 16 5V9C16 9.44192 16.1087 9.84954 16.2822 10.1943C16.5254 10.5176 16.6981 10.5913 16.7783 10.6133C16.9603 10.6629 17.2092 10.6265 17.8086 10.4268C18.3141 10.2583 19.0931 9.96357 19.9463 9.98438C20.8774 10.0071 21.8009 10.3868 22.707 11.293C23.0976 11.6835 23.0976 12.3165 22.707 12.707C22.3165 13.0976 21.6835 13.0976 21.293 12.707C20.6991 12.1132 20.2476 11.9929 19.8975 11.9844C19.4695 11.9739 19.0607 12.1168 18.4414 12.3232C18.3212 12.3633 18.1854 12.4069 18.0381 12.4502C18.3421 12.9734 18.5759 13.5356 18.7334 14.123C19.2209 14.296 19.5247 14.6106 19.707 14.793C19.9458 15.0318 19.9401 15.0001 20 15C20.5271 15.0001 21.0449 15.1807 21.4326 15.5684C21.8201 15.9561 22 16.473 22 17C22 17.0603 21.9677 17.0537 22.207 17.293C22.4676 17.5535 23 18.0605 23 19C23 19.3653 22.9079 19.7584 22.6592 20.1006C22.4353 20.4084 22.127 20.6152 21.7842 20.7285L18.3779 22.5791C18.3738 22.5813 18.3685 22.5837 18.3643 22.5859C17.7981 22.8826 17.1514 22.9908 16.5195 22.8945C15.9933 22.8143 15.5012 22.5936 15.0898 22.2617C14.1301 22.7284 13.0745 22.9756 12 22.9756C10.9253 22.9756 9.86908 22.7285 8.90918 22.2617C8.49776 22.5932 8.00638 22.8144 7.48047 22.8945C6.84841 22.9908 6.20201 22.8828 5.63574 22.5859C5.63155 22.5837 5.62721 22.5814 5.62305 22.5791L2.21582 20.7285C1.87298 20.6152 1.56467 20.4084 1.34082 20.1006C1.09209 19.7584 1 19.3653 1 19C1 18.0603 1.53246 17.5535 1.79297 17.293C2.03246 17.0535 2 17.0603 2 17C2 16.4728 2.18058 15.9561 2.56836 15.5684C2.95614 15.1806 3.47275 15 4 15C4.06031 15 4.05347 15.0325 4.29297 14.793C4.48031 14.6056 4.79513 14.2779 5.30664 14.1084C5.47757 13.5333 5.72002 12.983 6.02637 12.4697C5.85376 12.421 5.69615 12.3691 5.55859 12.3232C4.93929 12.1168 4.53052 11.9739 4.10254 11.9844C3.75242 11.9929 3.30087 12.1132 2.70703 12.707C2.31651 13.0976 1.68349 13.0976 1.29297 12.707C0.902444 12.3165 0.902444 11.6835 1.29297 11.293C2.19912 10.3868 3.12259 10.0071 4.05371 9.98438C4.9069 9.96357 5.68589 10.2583 6.19141 10.4268C6.79082 10.6265 7.03966 10.6629 7.22168 10.6133C7.31015 10.5891 7.51263 10.5033 7.7959 10.0879C7.93475 9.74729 8.00535 9.38275 8 9.01465V5C8 3.93936 8.42106 2.92197 9.1709 2.17188C9.92095 1.42182 10.9393 1.0001 12 1ZM14.5928 11.2764C13.9954 12.1184 13.2365 13.1327 12.6689 13.6436C12.2887 13.9857 11.7113 13.9857 11.3311 13.6436C10.7704 13.139 10.0226 12.1434 9.42871 11.3076C9.18812 11.7512 8.87828 12.1546 8.50977 12.502L8.51074 12.5029C7.96156 13.0584 7.54791 13.7283 7.29492 14.46C7.40293 14.5487 7.50141 14.6465 7.58887 14.752L7.73242 14.9453L7.7793 15.0225L9.67871 18.5225C9.68101 18.5267 9.68331 18.5319 9.68555 18.5361C9.98237 19.1024 10.0905 19.7488 9.99414 20.3809C9.98572 20.4361 9.97335 20.4905 9.96191 20.5449C10.6019 20.8261 11.2951 20.9756 12 20.9756C12.7046 20.9756 13.3972 20.8257 14.0371 20.5449C14.0257 20.4905 14.0143 20.436 14.0059 20.3809C13.9095 19.7488 14.0177 19.1024 14.3145 18.5361L14.3213 18.5225L16.2217 15.0225L16.2686 14.9453C16.3959 14.7543 16.5543 14.5787 16.7412 14.4316C16.5007 13.6717 16.0768 12.9782 15.501 12.416L15.4922 12.4072L15.293 12.207C15.0225 11.9366 14.7873 11.6222 14.5928 11.2764ZM18 16C17.9881 16 17.981 16.0005 17.9785 16.001L17.9766 16.0039C17.9747 16.0054 17.9707 16.0079 17.9668 16.0117C17.9618 16.0166 17.9558 16.0244 17.9482 16.0342L16.083 19.4688C15.9859 19.6564 15.9516 19.8702 15.9834 20.0791C15.9987 20.1795 16.0294 20.276 16.0732 20.3662C16.0965 20.3947 16.1192 20.4244 16.1396 20.4561C16.16 20.4875 16.1779 20.52 16.1943 20.5527C16.2169 20.5809 16.2389 20.61 16.2646 20.6357C16.4154 20.7864 16.6106 20.8849 16.8213 20.917C17.0317 20.9489 17.247 20.9132 17.4355 20.8145L20.9229 18.9209C20.9375 18.913 20.9537 18.9066 20.9688 18.8994C20.9408 18.8624 20.89 18.8041 20.793 18.707C20.5324 18.4465 20 17.9395 20 17C19.0608 16.9999 18.5535 16.4676 18.293 16.207C18.0542 15.9682 18.0599 15.9999 18 16ZM5.85254 16.0674C5.81772 16.0984 5.77116 16.1429 5.70703 16.207C5.44653 16.4675 4.93969 17 4 17C4 17.9397 3.46754 18.4465 3.20703 18.707C3.10931 18.8048 3.05813 18.8624 3.03027 18.8994C3.04577 18.9068 3.06203 18.9127 3.07715 18.9209L6.56445 20.8145L6.71094 20.877C6.86092 20.9272 7.02181 20.9411 7.17969 20.917C7.3902 20.8848 7.58473 20.7863 7.73535 20.6357C7.76112 20.61 7.78298 20.581 7.80566 20.5527C7.82214 20.5199 7.84088 20.4876 7.86133 20.4561C7.88163 20.4248 7.90272 20.3945 7.92578 20.3662C7.97001 20.2759 8.00225 20.1797 8.01758 20.0791C8.04938 19.87 8.01332 19.6565 7.91602 19.4688L6.08594 16.0986C6.03415 16.0978 5.98135 16.0941 5.92871 16.085C5.9028 16.0805 5.8776 16.0738 5.85254 16.0674ZM12.918 9.16602C12.2119 9.01701 11.3579 8.98263 10.4639 9.29395C10.6087 9.50678 10.7705 9.74326 10.9424 9.9873C11.2993 10.4941 11.6719 10.9976 12 11.4072C12.3281 10.9976 12.7007 10.4941 13.0576 9.9873C13.2202 9.75645 13.373 9.53175 13.5117 9.32812C13.3322 9.26902 13.133 9.21142 12.918 9.16602ZM12 3C11.4697 3.0001 10.9599 3.21096 10.585 3.58594C10.2102 3.96096 10 4.4698 10 5V7.34277C11.238 6.95624 12.4069 7.01367 13.332 7.20898C13.5706 7.25937 13.7937 7.32104 14 7.38477V5C14 4.46966 13.789 3.96099 13.4141 3.58594C13.0391 3.21108 12.5302 3.0001 12 3Z" fill="#E4F2F2"/>
</svg>
