<svg width="24" height="24" viewBox="0 0 24 24" fill="none" xmlns="http://www.w3.org/2000/svg">
<path fill-rule="evenodd" clip-rule="evenodd" d="M16.2969 1.01465C16.9835 1.08291 17.6289 1.38671 18.1211 1.87891C18.6837 2.44151 19 3.20435 19 4V6C21.2523 6 23 7.74771 23 10C23 17.1523 17.1523 23 10 23C7.60268 23 5.38774 22.2654 3.75 21.0371C2.11316 19.8094 1 18.0378 1 16V15.5996L1.01172 15.4463C1.06657 15.093 1.30804 14.7908 1.65039 14.6631C2.04154 14.5172 2.48244 14.6298 2.75586 14.9453C3.89492 16.2595 5.33168 17 7 17C10.2222 17 13 13.9822 13 10C13 7.74771 14.7477 6 17 6V4C17 3.73478 16.8946 3.48051 16.707 3.29297C16.5429 3.12883 16.3276 3.02757 16.0986 3.00488L16 3C15.7348 3 15.4805 3.10543 15.293 3.29297C15.1054 3.48051 15 3.73478 15 4C15 4.55228 14.5523 5 14 5C13.4477 5 13 4.55228 13 4C13 3.20435 13.3163 2.44151 13.8789 1.87891C14.4415 1.3163 15.2044 1 16 1L16.2969 1.01465ZM14.9268 11.1963C14.4155 15.4895 11.1939 19 7 19C5.81996 19 4.7347 18.7278 3.76074 18.2412C4.06902 18.6717 4.4673 19.0753 4.9502 19.4375C6.21244 20.3841 7.99738 21 10 21C15.6258 21 20.3015 16.7143 20.9268 11.248C20.3203 11.4703 19.5206 11.8934 18.707 12.707C18.3165 13.0976 17.6835 13.0976 17.293 12.707C16.4151 11.8292 15.5539 11.405 14.9336 11.1982C14.9313 11.1975 14.929 11.197 14.9268 11.1963ZM17 8C16.148 8 15.4597 8.47008 15.1611 9.18164C15.2883 9.21543 15.424 9.2543 15.5664 9.30176C16.2613 9.53343 17.1177 9.94185 18 10.6562C18.8823 9.94185 19.7387 9.53343 20.4336 9.30176C20.5756 9.25441 20.711 9.21538 20.8379 9.18164C20.5392 8.47027 19.8519 8 19 8H17Z" fill="#E4F2F2"/>
</svg>
