<svg width="24" height="24" viewBox="0 0 24 24" fill="none" xmlns="http://www.w3.org/2000/svg">
<path d="M17.6836 7.05176C18.2074 6.87723 18.7735 7.15988 18.9482 7.68359C19.1228 8.20739 18.8401 8.77344 18.3164 8.94824L13 10.7197V13.7637L15.8945 19.5527C16.1414 20.0467 15.9411 20.6475 15.4473 20.8945C14.9533 21.1415 14.3525 20.9412 14.1055 20.4473L12 16.2363L9.89452 20.4473C9.64755 20.9412 9.04668 21.1414 8.55272 20.8945C8.05874 20.6475 7.85847 20.0467 8.10546 19.5527L11 13.7637V10.7197L5.68358 8.94824C5.15982 8.77348 4.87713 8.20744 5.05174 7.68359C5.22652 7.15986 5.79256 6.87715 6.31639 7.05176L12 8.94629L17.6836 7.05176Z" fill="#E4F2F2"/>
<path d="M12 3C13.1045 3.00007 14 3.89548 14 5C14 6.10452 13.1045 6.99993 12 7C10.8954 7 9.99999 6.10457 9.99999 5C9.99999 3.89543 10.8954 3 12 3Z" fill="#E4F2F2"/>
</svg>
