<svg width="24" height="24" viewBox="0 0 24 24" fill="none" xmlns="http://www.w3.org/2000/svg">
<path fill-rule="evenodd" clip-rule="evenodd" d="M7.10646 0.653811C8.9777 0.231844 10.939 0.50712 12.6211 1.4292C14.2782 2.33769 15.5504 3.81265 16.21 5.58155C16.6543 6.44485 17.5112 7.00049 18.501 7.00049C20.9529 7.00091 23.001 9.04845 23.001 11.5005V20.0005C23.0009 20.7959 22.6845 21.5591 22.1221 22.1216C21.5597 22.684 20.7964 23.0003 20.001 23.0005H4.00099C3.20544 23.0005 2.44151 22.6841 1.87892 22.1216C1.31648 21.5591 1.0011 20.7959 1.00099 20.0005V14.0171C1.0009 14.0116 1.00002 14.006 1.00001 14.0005C1.00001 13.9948 1.0009 13.9886 1.00099 13.9829V9.04444C0.82865 7.15289 1.34597 5.26177 2.459 3.72119C3.58245 2.16646 5.23529 1.07588 7.10646 0.653811ZM3.00099 20.0005C3.0011 20.2655 3.10562 20.5201 3.29298 20.7075C3.4805 20.8949 3.73588 21.0005 4.00099 21.0005H20.001C20.2659 21.0003 20.5207 20.8949 20.708 20.7075C20.8954 20.5201 21.0009 20.2655 21.001 20.0005V15.0005H19V18.0005C18.9998 18.5526 18.5522 19.0005 18 19.0005C17.448 19.0004 17.0002 18.5525 17 18.0005V15.0005H15V18.0005C14.9998 18.5526 14.5522 19.0005 14 19.0005C13.448 19.0004 13.0002 18.5525 13 18.0005V15.0005H11V18.0005C10.9998 18.5526 10.5522 19.0005 10 19.0005C9.44798 19.0004 9.00025 18.5525 9.00002 18.0005V15.0005H7.00001V18.0005C6.99978 18.5526 6.55216 19.0005 6.00001 19.0005C5.44798 19.0004 5.00025 18.5525 5.00001 18.0005V15.0005H3.00099V20.0005ZM11.6592 3.18311C10.4046 2.49543 8.94157 2.28926 7.54591 2.60401C6.15022 2.91887 4.91801 3.73333 4.08009 4.89307C3.24214 6.05291 2.85662 7.47878 2.99611 8.90283C2.99926 8.93513 3.00099 8.96804 3.00099 9.00049V13.0005H21.001V11.5005C21.001 10.153 19.8484 9.00092 18.501 9.00049C16.702 9.00049 15.1664 7.96759 14.4063 6.44776C14.3888 6.41276 14.3727 6.37617 14.3594 6.33936C13.8741 4.99348 12.9137 3.8709 11.6592 3.18311Z" fill="#E4F2F2"/>
</svg>
