<svg width="24" height="24" viewBox="0 0 24 24" fill="none" xmlns="http://www.w3.org/2000/svg">
<path fill-rule="evenodd" clip-rule="evenodd" d="M5.66309 1.40185C7.49747 0.951766 9.40473 0.878006 11.2686 1.18408C12.8661 1.44646 14.4039 1.98397 15.8145 2.77001L15.9404 2.64501L16.1025 2.49853C16.4949 2.17717 16.9884 1.99953 17.5 1.9995C18.0846 1.99953 18.6451 2.23177 19.0586 2.64501L21.3555 4.94091L21.502 5.10302C21.8232 5.49533 22.001 5.98896 22.001 6.50048C22.0009 7.08492 21.7686 7.64569 21.3555 8.05907L21.2295 8.18407C22.021 9.60348 22.5613 11.1514 22.8223 12.7593C23.1234 14.6153 23.0478 16.5133 22.5996 18.3393C22.4606 18.9057 22.1469 19.3772 21.6836 19.6782C21.2299 19.9729 20.7099 20.0537 20.2334 19.9907C19.2943 19.8664 18.4137 19.1778 18.0742 18.1313C17.5467 16.5029 16.7997 14.9556 15.8574 13.5308C15.4716 13.8327 14.995 14.0014 14.5 14.0015C14.4722 14.0015 14.4446 13.9976 14.417 13.9966L6.32617 22.0874C6.0364 22.3772 5.69209 22.6072 5.31348 22.7642C4.93491 22.921 4.52892 23.0023 4.11914 23.0024C3.29153 23.0025 2.49755 22.6733 1.91211 22.0884C1.32675 21.5032 0.99739 20.709 0.99707 19.8813C0.996932 19.0535 1.32584 18.2589 1.91113 17.6733L10.0029 9.58154C10.0019 9.55455 9.99903 9.52758 9.99902 9.50048C9.99902 9.00493 10.1663 8.52632 10.4688 8.14013C9.04469 7.19826 7.49756 6.45282 5.87012 5.92529C4.82375 5.58615 4.13564 4.70495 4.01172 3.76611C3.94893 3.28969 4.02932 2.76933 4.32422 2.31591C4.62524 1.85314 5.09726 1.54061 5.66309 1.40185ZM3.3252 19.0874C3.11505 19.2977 2.99711 19.5831 2.99707 19.8804C2.99722 20.1777 3.11587 20.4631 3.32617 20.6733C3.53653 20.8835 3.8218 21.0025 4.11914 21.0024C4.26622 21.0023 4.41197 20.9728 4.54785 20.9165C4.68387 20.8601 4.808 20.7775 4.91211 20.6733L12.585 13.0005L10.999 11.4136L3.3252 19.0874ZM17.3086 12.105C18.4537 13.7684 19.3532 15.5901 19.9766 17.5142L20.0215 17.6274C20.1414 17.872 20.3503 17.9889 20.4951 18.0083C20.5324 18.0132 20.559 18.0103 20.5742 18.0073C20.5885 18.0044 20.5944 18.0017 20.5947 18.0015C20.5953 18.001 20.5962 17.9999 20.5977 17.9985C20.5995 17.9967 20.6033 17.9923 20.6084 17.9849C20.6185 17.9699 20.6399 17.9333 20.6572 17.8628C21.0414 16.2976 21.1058 14.6704 20.8477 13.0796C20.6546 11.8901 20.2839 10.7388 19.75 9.66357L17.3086 12.105ZM17.5 3.9995C17.4459 3.99953 17.3938 4.02097 17.3555 4.05908L12.0586 9.35595L12.0576 9.35497C12.0196 9.39336 11.999 9.44643 11.999 9.50048C11.9991 9.55454 12.0205 9.60669 12.0586 9.64501L14.3555 11.9409C14.3939 11.9793 14.4457 12.0014 14.5 12.0015C14.5542 12.0014 14.6061 11.9792 14.6445 11.9409L19.9404 6.64501C19.9788 6.60665 20.0009 6.55472 20.001 6.50048C20.001 6.44615 19.9788 6.39341 19.9404 6.35497L17.6445 4.05908C17.6061 4.0209 17.5541 3.99953 17.5 3.9995ZM10.9443 3.15673C9.44662 2.91079 7.91648 2.95196 6.43555 3.27587L6.13965 3.34423C6.06936 3.36145 6.03253 3.38198 6.01758 3.39208C6.01023 3.39707 6.00577 3.40096 6.00391 3.40283C6.00219 3.40459 6.00131 3.40621 6.00098 3.40673C6.00041 3.4076 5.99682 3.41296 5.99414 3.42626C5.99113 3.44131 5.98932 3.46747 5.99414 3.50439C6.01592 3.66936 6.16557 3.91872 6.4873 4.02294C8.41052 4.64637 10.2318 5.54521 11.8945 6.68993L14.334 4.25048C13.2667 3.7208 12.1247 3.35058 10.9443 3.15673Z" fill="#E4F2F2"/>
</svg>
