<svg width="24" height="24" viewBox="0 0 24 24" fill="none" xmlns="http://www.w3.org/2000/svg">
<path fill-rule="evenodd" clip-rule="evenodd" d="M12 10.0005C15.7651 10.0005 18.2512 11.3543 19.7979 12.7603C20.5629 13.4558 21.087 14.1539 21.4229 14.6841C21.4967 14.8007 21.5606 14.9101 21.6172 15.0093C21.7077 15.0035 21.8021 15.0005 21.9004 15.0005C22.4525 15.0007 22.9004 15.4484 22.9004 16.0005C22.9002 16.5525 22.4524 17.0003 21.9004 17.0005C21.8348 17.0005 21.7743 17.0023 21.7178 17.0064L20.249 21.4165C20.2428 21.435 20.2358 21.4541 20.2285 21.4722C20.0393 21.9449 19.6896 22.315 19.3271 22.563C18.9674 22.8092 18.4989 23.0005 18 23.0005H6C4.94355 23.0005 4.10493 22.3053 3.77148 21.4722C3.76424 21.4541 3.75715 21.435 3.75098 21.4165L2.28418 17.0161C2.20205 17.0072 2.10829 17.0005 2 17.0005C1.44781 17.0005 1.00015 16.5527 1 16.0005C1 15.4482 1.44772 15.0005 2 15.0005C2.13186 15.0005 2.25762 15.0047 2.37793 15.0142C2.43526 14.9134 2.50186 14.803 2.57715 14.6841C2.91296 14.1539 3.4371 13.4558 4.20215 12.7603C5.74877 11.3543 8.23494 10.0005 12 10.0005ZM7.77246 17.2115C7.68722 17.2563 7.60129 17.3073 7.50684 17.3628C7.02739 17.6448 6.41548 18.0005 5.2998 18.0005C5.08723 18.0005 4.89073 17.9866 4.70703 17.9624L5.63184 20.7349C5.66146 20.8053 5.71476 20.8764 5.78516 20.9273C5.85417 20.9771 5.92742 21.0005 6 21.0005H8.71973L7.77246 17.2115ZM15.2803 21.0005H18C17.9943 21.0005 18.0134 21.0006 18.0557 20.9859C18.0969 20.9715 18.1475 20.9473 18.1982 20.9126C18.3055 20.8392 18.3545 20.7621 18.3682 20.732L19.2959 17.9468C19.0875 17.9795 18.8571 18.0005 18.5996 18.0005C18.0708 18.0005 17.6406 17.9219 17.2627 17.7837C16.8961 17.6496 16.6146 17.4698 16.4199 17.3482C16.3446 17.3011 16.2803 17.2625 16.2227 17.229L15.2803 21.0005ZM10.7803 21.0005H13.2197L14.1182 17.4058C13.6527 17.6839 13.0498 18.0005 12 18.0005C11.4712 18.0005 11.041 17.9219 10.6631 17.7837C10.329 17.6615 10.0664 17.4999 9.875 17.3804L10.7803 21.0005ZM12 12.0005C8.7651 12.0005 6.75123 13.1468 5.54785 14.2408C4.95597 14.7789 4.54926 15.3149 4.29004 15.7183C4.43253 15.8052 4.53169 15.8617 4.64941 15.9048C4.78388 15.954 4.97908 16.0005 5.2998 16.0005C5.88374 16.0005 6.12274 15.8561 6.49316 15.6382C6.91831 15.3881 7.4475 15.0798 8.33984 15.0132C8.41471 15.001 8.48934 14.9979 8.5625 15.0025C8.60753 15.0013 8.65342 15.0005 8.7002 15.0005C9.22905 15.0005 9.65922 15.0791 10.0371 15.2173C10.4037 15.3515 10.6852 15.5312 10.8799 15.6529C11.085 15.781 11.204 15.8515 11.3496 15.9048C11.4841 15.954 11.6792 16.0005 12 16.0005C12.5838 16.0005 12.8215 15.8556 13.1689 15.6451C13.623 15.3699 14.2182 15.0006 15.2998 15.0005C15.3401 15.0005 15.3798 15.0035 15.4189 15.0044C15.4968 14.9981 15.5763 15.0005 15.6562 15.0132C16.0279 15.0406 16.3483 15.1114 16.6377 15.2173C17.0042 15.3514 17.2859 15.5312 17.4805 15.6529C17.6854 15.781 17.8045 15.8515 17.9502 15.9048C18.0846 15.954 18.2792 16.0005 18.5996 16.0005C19.1386 16.0005 19.3826 15.8756 19.6904 15.691C19.4305 15.291 19.0303 14.7664 18.4521 14.2408C17.2488 13.1468 15.2349 12.0005 12 12.0005Z" fill="#E4F2F2"/>
<path d="M6.2002 1.40091C6.53157 0.959095 7.15876 0.869348 7.60059 1.20072C8.04174 1.53209 8.13161 2.15853 7.80078 2.60013C7.56394 2.91592 7.55753 3.10229 7.57227 3.23001C7.59558 3.4306 7.69159 3.64737 7.89453 4.05325C8.06631 4.3968 8.34546 4.93106 8.41602 5.54251C8.4948 6.2269 8.3135 6.91631 7.80078 7.60013C7.46951 8.04183 6.8422 8.13136 6.40039 7.80033C5.95876 7.46902 5.86915 6.84269 6.2002 6.40091C6.43683 6.08539 6.4434 5.89874 6.42871 5.77103C6.40547 5.57042 6.30934 5.3536 6.10645 4.94779C5.93471 4.60431 5.6556 4.07008 5.58496 3.45853C5.50607 2.77399 5.68733 2.08488 6.2002 1.40091Z" fill="#E4F2F2"/>
<path d="M11.2002 1.40091C11.5316 0.959095 12.1588 0.869348 12.6006 1.20072C13.0417 1.53209 13.1316 2.15853 12.8008 2.60013C12.5639 2.91592 12.5575 3.10229 12.5723 3.23001C12.5956 3.4306 12.6916 3.64737 12.8945 4.05325C13.0663 4.3968 13.3455 4.93106 13.416 5.54251C13.4948 6.2269 13.3135 6.91631 12.8008 7.60013C12.4695 8.04183 11.8422 8.13135 11.4004 7.80033C10.9588 7.46902 10.8692 6.84269 11.2002 6.40091C11.4368 6.08539 11.4434 5.89874 11.4287 5.77103C11.4055 5.57042 11.3093 5.3536 11.1064 4.94779C10.9347 4.60431 10.6556 4.07008 10.585 3.45853C10.5061 2.77399 10.6873 2.08488 11.2002 1.40091Z" fill="#E4F2F2"/>
<path d="M16.2002 1.40091C16.5316 0.959095 17.1588 0.869348 17.6006 1.20072C18.0417 1.53209 18.1316 2.15853 17.8008 2.60013C17.5639 2.91592 17.5575 3.10229 17.5723 3.23001C17.5956 3.4306 17.6916 3.64737 17.8945 4.05325C18.0663 4.3968 18.3455 4.93106 18.416 5.54251C18.4948 6.2269 18.3135 6.91631 17.8008 7.60013C17.4695 8.04183 16.8422 8.13136 16.4004 7.80033C15.9588 7.46902 15.8692 6.84269 16.2002 6.40091C16.4368 6.08539 16.4434 5.89874 16.4287 5.77103C16.4055 5.57042 16.3093 5.3536 16.1064 4.94779C15.9347 4.60431 15.6556 4.07008 15.585 3.45853C15.5061 2.77399 15.6873 2.08488 16.2002 1.40091Z" fill="#E4F2F2"/>
</svg>
