<svg width="24" height="24" viewBox="0 0 24 24" fill="none" xmlns="http://www.w3.org/2000/svg">
<path d="M10.0098 17C10.5621 17 11.0098 17.4477 11.0098 18C11.0098 18.5523 10.5621 19 10.0098 19H10C9.44771 19 9 18.5523 9 18C9 17.4477 9.44771 17 10 17H10.0098Z" fill="#E4F2F2"/>
<path d="M14.0098 17C14.5621 17 15.0098 17.4477 15.0098 18C15.0098 18.5523 14.5621 19 14.0098 19H14C13.4477 19 13 18.5523 13 18C13 17.4477 13.4477 17 14 17H14.0098Z" fill="#E4F2F2"/>
<path fill-rule="evenodd" clip-rule="evenodd" d="M5 2C6.35561 2 7.55857 2.66251 8.27441 3.72559C9.46717 3.29623 10.7275 3.0752 12 3.0752C13.2722 3.0752 14.5321 3.29643 15.7246 3.72559C16.4404 2.66224 17.6442 2 19 2H22C22.5523 2 23 2.44772 23 3V4.90039C22.9999 6.42466 22.2064 7.71671 20.958 8.41504C21.6487 9.77091 22 11.2191 22 12.7998C22 14.2582 21.6617 15.4987 21.0225 16.5186C20.5006 17.351 19.8006 17.9936 18.998 18.4844C18.9819 18.6508 18.9597 18.8168 18.9268 18.9814C18.7757 19.736 18.4525 20.4455 17.9824 21.0547C17.5122 21.6639 16.9075 22.1568 16.2158 22.4941C15.526 22.8305 14.7674 23.0027 14 22.999L10 23C9.23248 23.0037 8.47411 22.8306 7.78418 22.4941C7.09252 22.1568 6.48775 21.6639 6.01758 21.0547C5.5475 20.4455 5.22429 19.7359 5.07324 18.9814C5.0403 18.8168 5.01719 18.6508 5.00098 18.4844C4.19868 17.9936 3.49922 17.3508 2.97754 16.5186C2.33826 15.4987 2 14.2582 2 12.7998C2.00003 11.2535 2.33579 9.75441 3.01953 8.41699C2.6259 8.19273 2.26998 7.90201 1.96973 7.55371C1.36116 6.84777 1.0181 5.9514 1 5.01953V3C1 2.44772 1.44772 2 2 2H5ZM13.8115 15.0078C13.3511 15.0405 12.904 15.1786 12.5059 15.4121C12.1935 15.5953 11.8065 15.5953 11.4941 15.4121C11.0959 15.1785 10.6481 15.0405 10.1875 15.0078C9.72711 14.9753 9.26497 15.0486 8.83789 15.2236C8.41068 15.3988 8.02977 15.6711 7.72461 16.0176C7.41944 16.3641 7.19785 16.7767 7.07812 17.2227C7.03209 17.3942 7.00228 17.5692 6.9873 17.7451C7.00591 17.8627 7.00249 17.9837 6.97754 18.1035C6.98317 18.2661 7.00208 18.4284 7.03418 18.5889C7.1248 19.0415 7.31857 19.4675 7.60059 19.833C7.88257 20.1984 8.24538 20.4939 8.66016 20.6963C9.07514 20.8987 9.53244 21.0027 9.99414 21H14.0059C14.4675 21.0028 14.9239 20.8986 15.3389 20.6963C15.7538 20.4939 16.1164 20.1984 16.3984 19.833C16.6806 19.4674 16.8752 19.0416 16.9658 18.5889C16.9979 18.4284 17.016 18.2661 17.0215 18.1035C16.9966 17.9839 16.9931 17.8626 17.0117 17.7451C16.9966 17.5692 16.9669 17.3942 16.9209 17.2227C16.8012 16.7768 16.5804 16.364 16.2754 16.0176C15.9702 15.6711 15.5884 15.3987 15.1611 15.2236C14.734 15.0487 14.2719 14.9752 13.8115 15.0078ZM3 4.98047L3.01074 5.1543C3.05376 5.55709 3.2181 5.93916 3.48438 6.24805C3.78858 6.60089 4.20667 6.8364 4.66602 6.91406C5.00589 6.97144 5.29226 7.19997 5.42383 7.51855C5.55536 7.83712 5.51381 8.20098 5.31348 8.48145C4.44739 9.69409 4.00004 11.1856 4 12.7998C4 13.9411 4.26135 14.801 4.67188 15.4561C4.84834 15.7376 5.061 15.9904 5.30469 16.2197C5.5173 15.6621 5.82756 15.1451 6.22363 14.6953C6.73223 14.1179 7.36713 13.6649 8.0791 13.373C8.37717 13.2509 8.68603 13.16 9 13.0977V12C9 11.4477 9.44771 11 10 11C10.5523 11 11 11.4477 11 12V13.1074C11.3432 13.1797 11.6781 13.2876 11.999 13.4297C12.3205 13.2873 12.6562 13.1797 13 13.1074V12C13 11.4477 13.4477 11 14 11C14.5523 11 15 11.4477 15 12V13.0977C15.3137 13.16 15.6221 13.251 15.9199 13.373C16.632 13.6649 17.2677 14.1178 17.7764 14.6953C18.1724 15.145 18.482 15.6622 18.6943 16.2197C18.9382 15.9903 19.1515 15.7378 19.3281 15.4561C19.7386 14.801 20 13.9411 20 12.7998C20 11.2036 19.5618 9.79593 18.668 8.45508C18.483 8.17756 18.4486 7.82575 18.5762 7.51758C18.7038 7.20938 18.9766 6.98439 19.3037 6.91895C20.3498 6.70973 20.9998 5.90974 21 4.90039V4H19C18.1274 4 17.4114 4.52763 17.1484 5.31641C17.0584 5.58629 16.8578 5.80511 16.5967 5.91797C16.3354 6.03083 16.0386 6.02672 15.7803 5.90723C14.5955 5.35894 13.3054 5.0752 12 5.0752C10.6946 5.0752 9.40445 5.35894 8.21973 5.90723C7.96145 6.02672 7.66457 6.03083 7.40332 5.91797C7.14215 5.80511 6.9416 5.58629 6.85156 5.31641C6.58864 4.52763 5.87262 4 5 4H3V4.98047Z" fill="#E4F2F2"/>
</svg>
