<svg width="24" height="24" viewBox="0 0 24 24" fill="none" xmlns="http://www.w3.org/2000/svg">
<path d="M16.0098 10.0004C16.562 10.0004 17.0098 10.4482 17.0098 11.0004C17.0096 11.5526 16.5619 12.0004 16.0098 12.0004H16C15.4479 12.0004 15.0002 11.5525 15 11.0004C15 10.4482 15.4478 10.0005 16 10.0004H16.0098Z" fill="#E4F2F2"/>
<path fill-rule="evenodd" clip-rule="evenodd" d="M15.6475 3.22798C16.9226 2.85708 18.2922 2.99596 19.4668 3.61567C19.7059 3.74186 19.884 3.95976 19.96 4.21919C20.0358 4.47851 20.0032 4.7575 19.8701 4.99263L18.5986 7.23579C19.1983 7.73809 19.7336 8.31663 20.124 9.00044H22C22.5523 9.00044 23 9.44819 23 10.0004V13.0004C22.9999 13.5275 22.8193 14.0444 22.4316 14.4321C22.0439 14.8197 21.5271 15.0004 21 15.0004H20.1367C19.8358 15.5521 19.4492 16.0156 19 16.4418V20.0004C18.9998 20.5525 18.5521 21.0004 18 21.0004H15C14.4729 21.0004 13.9561 20.8197 13.5684 20.4321C13.1808 20.0444 13.0001 19.5275 13 19.0004V18.9243C12.3342 18.9745 11.6658 18.9745 11 18.9243V20.0004C10.9998 20.5525 10.5521 21.0004 10 21.0004H8C7.2045 21.0004 6.44146 20.684 5.8789 20.1215C5.31647 19.559 5.0001 18.7959 5 18.0004V16.4223C3.83433 15.2384 3.00013 13.7115 3 12.0004C3 11.5884 3.04665 11.1873 3.13281 10.7993C3.0991 10.7883 3.06463 10.7792 3.03125 10.767C2.49077 10.5696 2.01869 10.2206 1.6709 9.76216C1.32308 9.30368 1.11385 8.75485 1.06933 8.1811C1.02487 7.60736 1.14697 7.03243 1.41992 6.52583C1.68201 6.03984 2.28832 5.85859 2.77441 6.12055C3.26044 6.38262 3.44262 6.98894 3.18066 7.47505C3.08976 7.64386 3.04866 7.83564 3.06347 8.0268C3.07838 8.2179 3.14782 8.40144 3.26367 8.55415C3.37959 8.70683 3.5377 8.82334 3.71777 8.88911C3.77957 8.91165 3.84376 8.92504 3.9082 8.93501C4.37953 8.1838 5.01053 7.51696 5.75 6.96235C7.3877 5.73411 9.60279 5.00047 12 5.00044C12.3014 5.00044 12.647 5.00212 13.0127 5.03071C13.6726 4.16908 14.594 3.53447 15.6475 3.22798ZM17.5322 5.06001C17.0927 4.9952 16.6405 5.02156 16.2061 5.1479C15.429 5.37399 14.7696 5.89343 14.3682 6.59614C14.1546 6.96985 13.7258 7.16493 13.3037 7.08052C12.9166 7.00315 12.5153 7.00044 12 7.00044C9.99738 7.00047 8.21242 7.61627 6.95019 8.56294C5.68725 9.5102 5.00003 10.7384 5 12.0004C5.00014 13.1337 5.60903 14.2852 6.67578 15.2631C6.88229 15.4525 6.99997 15.7202 7 16.0004V18.0004C7.0001 18.2655 7.1056 18.52 7.29297 18.7075C7.48045 18.8948 7.73493 19.0004 8 19.0004H9V17.8002C9.00002 17.5067 9.12884 17.2275 9.35254 17.0375C9.57637 16.8476 9.87341 16.7653 10.1631 16.8129C11.3795 17.0134 12.6205 17.0133 13.8369 16.8129C14.1266 16.7652 14.4236 16.8476 14.6475 17.0375C14.8712 17.2275 15 17.5067 15 17.8002V19.0004H17V16.0004C17 15.7086 17.128 15.4306 17.3496 15.2407C17.9728 14.7065 18.3427 14.2377 18.5635 13.6489C18.7098 13.2586 19.0832 13.0005 19.5 13.0004H21V11.0004H19.5C19.0912 11.0004 18.7231 10.7511 18.5713 10.3715C18.2744 9.62951 17.6527 8.96713 16.7266 8.3188C16.3046 8.02319 16.1759 7.45557 16.4297 7.00727L17.5322 5.06001Z" fill="#E4F2F2"/>
</svg>
