<svg width="24" height="24" viewBox="0 0 24 24" fill="none" xmlns="http://www.w3.org/2000/svg">
<path d="M5.29246 13.293C5.68291 12.9025 6.31598 12.9027 6.70652 13.293C7.09704 13.6835 7.09704 14.3165 6.70652 14.707L4.41355 17H21.9995C22.5518 17 22.9995 17.4477 22.9995 18C22.9995 18.5523 22.5518 19 21.9995 19H4.41355L6.70652 21.293C7.09704 21.6835 7.09704 22.3165 6.70652 22.707C6.31598 23.0973 5.68291 23.0975 5.29246 22.707L1.29246 18.707C1.23644 18.651 1.18981 18.589 1.14988 18.5244C1.14528 18.517 1.14062 18.5096 1.13621 18.502C1.11493 18.4654 1.09582 18.4281 1.07957 18.3896C1.07857 18.3873 1.07664 18.3852 1.07566 18.3828C1.07314 18.3767 1.07122 18.3704 1.06882 18.3643C1.05531 18.3297 1.04416 18.2944 1.03464 18.2588C1.03132 18.2464 1.02771 18.2341 1.02488 18.2217C1.00591 18.1379 0.998617 18.0522 1.00144 17.9668C1.00179 17.9564 1.00174 17.9459 1.00242 17.9355C1.00801 17.8485 1.02494 17.7622 1.0532 17.6787C1.05631 17.6695 1.05959 17.6604 1.06296 17.6514C1.09253 17.5718 1.13255 17.4953 1.18308 17.4238C1.19125 17.4123 1.19978 17.4009 1.20847 17.3896C1.23428 17.3563 1.26185 17.3236 1.29246 17.293L5.29246 13.293Z" fill="#E4F2F2"/>
<path fill-rule="evenodd" clip-rule="evenodd" d="M19.9995 2C20.5518 2 20.9995 2.44772 20.9995 3C20.9995 3.55228 20.5518 4 19.9995 4H18.9995V14C18.9995 14.5523 18.5518 15 17.9995 15C17.4474 14.9998 16.9995 14.5521 16.9995 14V4H14.9995V14C14.9995 14.5523 14.5518 15 13.9995 15C13.4474 14.9998 12.9995 14.5521 12.9995 14V10H10.9995C9.93879 9.99988 8.9214 9.57816 8.17136 8.82812C7.42136 8.078 6.99949 7.06076 6.99949 6C6.99949 4.93924 7.42136 3.922 8.17136 3.17188C8.9214 2.42184 9.93879 2.00012 10.9995 2H19.9995ZM10.9995 4C10.4692 4.00012 9.96039 4.21097 9.58543 4.58594C9.2105 4.96099 8.99949 5.46967 8.99949 6C8.99949 6.53033 9.2105 7.03901 9.58543 7.41406C9.96039 7.78903 10.4692 7.99988 10.9995 8H12.9995V4H10.9995Z" fill="#E4F2F2"/>
</svg>
