<svg width="24" height="24" viewBox="0 0 24 24" fill="none" xmlns="http://www.w3.org/2000/svg">
<path d="M17.293 13.293C17.6835 12.9024 18.3165 12.9024 18.707 13.293L22.707 17.293C22.7375 17.3235 22.7643 17.3564 22.79 17.3896C22.7992 17.4015 22.8078 17.4136 22.8164 17.4258C22.8665 17.4969 22.9071 17.5722 22.9365 17.6514C22.9398 17.6601 22.9423 17.669 22.9453 17.6777C22.973 17.7591 22.99 17.8429 22.9961 17.9277C22.9971 17.9417 22.9976 17.9557 22.998 17.9697C23.0006 18.056 22.9922 18.1421 22.9727 18.2266C22.9708 18.2344 22.9688 18.2422 22.9668 18.25C22.9445 18.3365 22.91 18.4199 22.8643 18.499C22.858 18.5098 22.8523 18.5208 22.8457 18.5312C22.8261 18.5625 22.8047 18.5927 22.7812 18.6221C22.7716 18.6342 22.7612 18.6456 22.751 18.6572C22.7365 18.6738 22.7228 18.6912 22.707 18.707L18.707 22.707C18.3165 23.0976 17.6835 23.0976 17.293 22.707C16.9024 22.3165 16.9024 21.6835 17.293 21.293L19.5859 19H2C1.44772 19 1 18.5523 1 18C1 17.4477 1.44772 17 2 17H19.5859L17.293 14.707C16.9024 14.3165 16.9024 13.6835 17.293 13.293Z" fill="#E4F2F2"/>
<path fill-rule="evenodd" clip-rule="evenodd" d="M15 2C15.5523 2 16 2.44772 16 3C16 3.55228 15.5523 4 15 4V14C15 14.5523 14.5523 15 14 15C13.4477 15 13 14.5523 13 14V4H11V14C11 14.5523 10.5523 15 10 15C9.44771 15 9 14.5523 9 14V10H7C5.93913 10 4.92202 9.57827 4.17188 8.82812C3.46859 8.12484 3.0539 7.18693 3.00488 6.19824L3 6C3 4.93913 3.42173 3.92202 4.17188 3.17188C4.92202 2.42173 5.93913 2 7 2H15ZM7 4C6.46957 4 5.96101 4.21086 5.58594 4.58594C5.21086 4.96101 5 5.46957 5 6L5.00977 6.19727C5.05515 6.65526 5.25765 7.08578 5.58594 7.41406C5.96101 7.78913 6.46957 8 7 8H9V4H7Z" fill="#E4F2F2"/>
</svg>
