<svg width="24" height="24" viewBox="0 0 24 24" fill="none" xmlns="http://www.w3.org/2000/svg">
<path fill-rule="evenodd" clip-rule="evenodd" d="M17.0048 1.01465C17.7912 1.01068 18.5715 1.16282 19.2988 1.46191C20.0259 1.76101 20.6862 2.20186 21.2421 2.75781C21.7981 3.31378 22.2389 3.97403 22.538 4.70117C22.8371 5.42847 22.9893 6.20873 22.9853 6.99512C22.9813 7.78138 22.821 8.55908 22.5146 9.2832C22.2095 10.0043 21.7643 10.6571 21.206 11.2061L21.207 11.207L11.207 21.207C10.658 21.7653 10.0043 22.2095 9.28316 22.5146C8.55904 22.821 7.78133 22.9813 6.99507 22.9854C6.20868 22.9893 5.42842 22.8372 4.70113 22.5381C3.97399 22.239 3.31373 21.7982 2.75777 21.2422C2.20181 20.6862 1.76097 20.026 1.46187 19.2988C1.16278 18.5715 1.01063 17.7913 1.0146 17.0049C1.01864 16.2186 1.17892 15.4409 1.48531 14.7168C1.79169 13.9927 2.23828 13.3365 2.79976 12.7861L12.7929 2.79297C13.3419 2.23473 13.9957 1.79048 14.7168 1.48535C15.4409 1.17897 16.2186 1.01868 17.0048 1.01465ZM4.20015 14.2139C3.82732 14.5792 3.53054 15.0154 3.3271 15.4961C3.12367 15.9769 3.01725 16.4936 3.0146 17.0156C3.01199 17.5376 3.11296 18.0553 3.31148 18.5381C3.51003 19.0208 3.80278 19.4591 4.17183 19.8281C4.54089 20.1972 4.97918 20.4899 5.46187 20.6885C5.94462 20.887 6.46236 20.9879 6.98433 20.9854C7.50639 20.9827 8.02306 20.8763 8.50386 20.6729C8.98461 20.4694 9.42071 20.1726 9.78609 19.7998L14.0859 15.5L8.49995 9.91406L4.20015 14.2139ZM17.0156 3.01465C16.4935 3.01729 15.9768 3.12372 15.496 3.32715C15.0153 3.53058 14.5792 3.82737 14.2138 4.20019L9.91402 8.5L15.5 14.0859L19.7998 9.78613C20.1726 9.42075 20.4694 8.98466 20.6728 8.50391C20.8762 8.0231 20.9827 7.50643 20.9853 6.98437C20.9879 6.4624 20.887 5.94466 20.6884 5.46191C20.4899 4.97923 20.1971 4.54094 19.8281 4.17187C19.459 3.80282 19.0207 3.51008 18.538 3.31152C18.0553 3.113 17.5375 3.01204 17.0156 3.01465Z" fill="#E4F2F2"/>
</svg>
