<svg width="24" height="24" viewBox="0 0 24 24" fill="none" xmlns="http://www.w3.org/2000/svg">
<path fill-rule="evenodd" clip-rule="evenodd" d="M19.7236 2.96636C20.1498 2.92171 20.5818 2.96919 20.9883 3.10503C21.3945 3.24094 21.7675 3.46257 22.0811 3.75444C22.3946 4.04645 22.6421 4.40277 22.8066 4.79839C22.9711 5.194 23.0492 5.6202 23.0352 6.04839C23.021 6.47682 22.9149 6.89768 22.7246 7.28179C22.6415 7.44951 22.5418 7.60783 22.4297 7.75639C23.2467 10.5261 23.2465 13.473 22.4297 16.2427C22.542 16.3914 22.6414 16.5504 22.7246 16.7183C22.9149 17.1024 23.021 17.5233 23.0352 17.9517C23.0493 18.3801 22.9712 18.8069 22.8066 19.2027C22.6421 19.5984 22.3947 19.9546 22.0811 20.2466C21.7674 20.5385 21.3946 20.7601 20.9883 20.896C20.5818 21.0319 20.1499 21.0794 19.7236 21.0347C19.2977 20.99 18.8858 20.8542 18.5166 20.6373C18.3688 20.5504 18.2288 20.4505 18.0986 20.3404C16.5329 20.7697 14.3075 21.0005 12 21.0005C9.66314 21.0005 7.5086 20.7642 5.90625 20.3345C5.77445 20.4466 5.63338 20.5491 5.4834 20.6373C5.11412 20.8542 4.70233 20.99 4.27637 21.0347C3.85015 21.0793 3.41814 21.0319 3.01172 20.896C2.60545 20.7601 2.23251 20.5385 1.91895 20.2466C1.60538 19.9546 1.3579 19.5983 1.19336 19.2027C1.02883 18.8069 0.950713 18.3801 0.964845 17.9517C0.978982 17.5233 1.08512 17.1024 1.27539 16.7183C1.35863 16.5504 1.45798 16.3914 1.57031 16.2427C0.753538 13.473 0.753297 10.526 1.57031 7.75639C1.45819 7.60785 1.35849 7.44948 1.27539 7.28179C1.08513 6.89773 0.978979 6.47675 0.964845 6.04839C0.950768 5.62023 1.02895 5.19397 1.19336 4.79839C1.35786 4.40276 1.60542 4.04647 1.91895 3.75444C2.23248 3.46253 2.60548 3.24098 3.01172 3.10503C3.41814 2.96914 3.85016 2.92176 4.27637 2.96636C4.70241 3.01106 5.11407 3.14678 5.4834 3.36382C5.63332 3.45194 5.7745 3.55353 5.90625 3.66557C7.50859 3.23587 9.66317 3.00056 12 3.00054C14.3079 3.00054 16.5339 3.23029 18.0996 3.65971C18.2295 3.54982 18.3691 3.45054 18.5166 3.36382C18.8859 3.14674 19.2976 3.0111 19.7236 2.96636ZM19.9326 4.95561C19.7908 4.97052 19.6532 5.01525 19.5303 5.08745C19.4074 5.15974 19.3008 5.25794 19.2188 5.37456C18.9602 5.74253 18.487 5.89301 18.0635 5.74175C16.8232 5.29894 14.5575 5.00054 12 5.00054C9.45511 5.00057 7.27387 5.29596 5.91602 5.74858C5.49687 5.8881 5.03518 5.73608 4.78125 5.37456C4.69919 5.25793 4.59267 5.15972 4.46973 5.08745C4.34672 5.01527 4.20923 4.97047 4.06738 4.95561C3.92549 4.94082 3.7818 4.9563 3.64649 5.00151C3.5111 5.04683 3.38672 5.12102 3.28223 5.21831C3.17777 5.31563 3.09486 5.43413 3.04004 5.56596C2.98525 5.69783 2.95917 5.84024 2.96387 5.98296C2.96861 6.12562 3.00404 6.26617 3.06738 6.39409C3.13077 6.52189 3.22147 6.63499 3.33203 6.72514C3.65559 6.98901 3.7807 7.42644 3.64649 7.82182C2.72682 10.5315 2.72677 13.4696 3.64649 16.1792C3.78051 16.5745 3.6554 17.0111 3.33203 17.2749C3.22136 17.3652 3.13078 17.479 3.06738 17.607C3.00406 17.7349 2.96858 17.8754 2.96387 18.0181C2.95923 18.1606 2.98539 18.3025 3.04004 18.4341C3.09486 18.566 3.17776 18.6854 3.28223 18.7828C3.38665 18.8799 3.51123 18.9533 3.64649 18.9986C3.7818 19.0438 3.92549 19.0602 4.06738 19.0455C4.20929 19.0306 4.34668 18.9849 4.46973 18.9126C4.59276 18.8403 4.69916 18.7423 4.78125 18.6255L4.88574 18.4996C5.14981 18.2302 5.54928 18.1295 5.91602 18.2515C7.27387 18.7041 9.45511 19.0005 12 19.0005C14.5575 19.0005 16.8232 18.7012 18.0635 18.2583C18.487 18.1071 18.9602 18.2576 19.2188 18.6255C19.3008 18.7422 19.4073 18.8403 19.5303 18.9126C19.6533 18.9849 19.7908 19.0305 19.9326 19.0455C20.0745 19.0603 20.2182 19.0438 20.3535 18.9986C20.4888 18.9533 20.6133 18.8799 20.7178 18.7828C20.8223 18.6854 20.9051 18.566 20.96 18.4341C21.0147 18.3024 21.0408 18.1606 21.0361 18.0181C21.0314 17.8754 20.996 17.7349 20.9326 17.607C20.8692 17.479 20.7787 17.3652 20.668 17.2749C20.3448 17.0112 20.2187 16.5743 20.3525 16.1792C21.2724 13.4695 21.2723 10.5316 20.3525 7.82182C20.2184 7.42655 20.3446 6.989 20.668 6.72514C20.7786 6.63498 20.8692 6.52195 20.9326 6.39409C20.996 6.26612 21.0314 6.12569 21.0361 5.98296C21.0408 5.8402 21.0148 5.69786 20.96 5.56596C20.9051 5.43414 20.8223 5.31562 20.7178 5.21831C20.6132 5.12105 20.4889 5.04679 20.3535 5.00151C20.2182 4.95634 20.0745 4.94078 19.9326 4.95561Z" fill="#E4F2F2"/>
</svg>
