<svg width="24" height="24" viewBox="0 0 24 24" fill="none" xmlns="http://www.w3.org/2000/svg">
<path fill-rule="evenodd" clip-rule="evenodd" d="M14.3926 2.49363C16.3831 0.503101 19.5163 0.503101 21.5068 2.49363C23.518 4.40386 23.4768 7.63796 21.5068 9.60788L18.707 12.4077C18.331 12.7835 17.7263 12.7993 17.3311 12.4438L17.8916 11.8198L17.3301 12.4428L17.3291 12.4419L17.3271 12.4409C17.3258 12.4396 17.324 12.4376 17.3223 12.436C17.3188 12.4328 17.3144 12.4288 17.3096 12.4243C17.3052 12.4203 17.3003 12.4157 17.2949 12.4106L8.1377 21.479C7.40509 22.405 6.2725 23.0005 5 23.0005C2.79097 23.0005 1.00017 21.2095 1 19.0005C1 17.7283 1.59385 16.5944 2.51953 15.8618L11.5889 6.70359C11.5844 6.6988 11.5798 6.69483 11.5762 6.69089C11.5718 6.6862 11.5676 6.68162 11.5645 6.6782L11.5576 6.67136C11.5573 6.67098 11.5565 6.66881 12.1709 6.1157L12.1738 6.11277L11.5566 6.66941C11.2009 6.27417 11.2169 5.66953 11.5928 5.29343L14.3926 2.49363ZM5 17.0005C4.56888 17.0005 4.17035 17.1376 3.84375 17.3696L3.61133 17.604C3.56192 17.6539 3.50751 17.6966 3.45117 17.7339C3.16893 18.0787 3 18.5201 3 19.0005C3.00017 20.1049 3.89554 21.0005 5 21.0005C5.47955 21.0005 5.91912 20.8307 6.26367 20.5493C6.30111 20.4925 6.34529 20.4389 6.39551 20.3891L6.62695 20.1587C6.8603 19.8316 6.99993 19.4329 7 19.0005C7 17.8959 6.10457 17.0005 5 17.0005ZM6.0498 15.1401C7.41443 15.5104 8.48854 16.5843 8.85938 17.9487L16.1182 10.7602C16.0517 10.6186 15.9887 10.4691 15.9326 10.312C15.7277 9.73819 15.606 9.05365 15.6982 8.30124C14.9461 8.39334 14.2621 8.27174 13.6885 8.06687C13.5309 8.01058 13.3812 7.94699 13.2393 7.88034L6.0498 15.1401ZM20.0928 3.90769C18.8833 2.69821 17.0161 2.69821 15.8066 3.90769L13.8125 5.89988C13.8271 5.91479 13.841 5.93019 13.8545 5.94577C14.0092 6.0339 14.1784 6.11872 14.3613 6.18406C14.7499 6.32279 15.1799 6.38329 15.6396 6.28757C16.096 6.1925 16.659 5.92727 17.293 5.29343C17.6835 4.903 18.3165 4.90294 18.707 5.29343C19.0974 5.68394 19.0974 6.31701 18.707 6.70749C18.0732 7.34141 17.808 7.90446 17.7129 8.36081C17.6172 8.8206 17.6776 9.25057 17.8164 9.63913C17.8814 9.82095 17.9653 9.98913 18.0527 10.143C18.0687 10.1568 18.0844 10.1711 18.0996 10.186L20.0928 8.19382C21.3152 6.97137 21.2814 5.02286 20.1162 3.93015C20.1084 3.92285 20.1003 3.91523 20.0928 3.90769ZM13.042 5.33054L13.041 5.32859L13.0391 5.32761C13.0396 5.32816 13.0408 5.32924 13.042 5.33054Z" fill="#E4F2F2"/>
</svg>
