<svg width="24" height="24" viewBox="0 0 24 24" fill="none" xmlns="http://www.w3.org/2000/svg">
<path fill-rule="evenodd" clip-rule="evenodd" d="M1.29295 1.29297C1.68348 0.902482 2.3165 0.902457 2.70702 1.29297L22.707 21.293C23.0975 21.6835 23.0975 22.3165 22.707 22.707C22.3165 23.0975 21.6835 23.0975 21.293 22.707L16.5859 18H13V22C13 22.5523 12.5522 23 12 23C11.4477 23 11 22.5523 11 22V18H5.99999C5.46957 18 4.96099 17.7891 4.58592 17.4141C4.21085 17.039 3.99999 16.5304 3.99999 16V15.2393L4.0078 15.0312C4.04181 14.5461 4.19281 14.0753 4.45018 13.6602C4.74431 13.1859 5.16524 12.803 5.66502 12.5547L7.43846 11.6572L7.4453 11.6543C7.61165 11.5715 7.75163 11.444 7.8496 11.2861C7.92304 11.1677 7.97092 11.0354 7.99022 10.8984L7.99999 10.7598V9.41406L1.29295 2.70703C0.90243 2.31651 0.90243 1.68349 1.29295 1.29297ZM9.93846 11.3525C9.86819 11.7006 9.73854 12.0354 9.54979 12.3398C9.25675 12.8124 8.8372 13.193 8.33983 13.4414L8.34081 13.4424L6.56151 14.3428L6.55467 14.3457C6.38831 14.4284 6.24835 14.556 6.15038 14.7139C6.05238 14.8719 6.00014 15.0543 5.99999 15.2402V16H14.5859L9.93846 11.3525Z" fill="#E4F2F2"/>
<path d="M16 1C16.7954 1.00009 17.5586 1.31647 18.1211 1.87891C18.6836 2.4415 19 3.20443 19 4C19 4.79557 18.6836 5.5585 18.1211 6.12109C17.5586 6.68353 16.7954 6.99991 16 7V9.33984C16 9.89201 15.5521 10.3397 15 10.3398C14.4478 10.3397 14 9.89204 14 9.33984V7C14 6.46978 14.2102 5.96097 14.5849 5.58594C14.9132 5.25771 15.3447 5.05522 15.8027 5.00977L16.0986 4.99512C16.3276 4.97241 16.5429 4.87108 16.707 4.70703C16.8944 4.51951 17 4.26513 17 4C17 3.73487 16.8944 3.48049 16.707 3.29297C16.5196 3.1056 16.265 3.00009 16 3H7.88963C7.33748 2.99985 6.88963 2.55219 6.88963 2C6.88963 1.44781 7.33748 1.00015 7.88963 1H16Z" fill="#E4F2F2"/>
</svg>
