<svg width="24" height="24" viewBox="0 0 24 24" fill="none" xmlns="http://www.w3.org/2000/svg">
<path fill-rule="evenodd" clip-rule="evenodd" d="M14.3926 2.49315C16.3831 0.502655 19.5163 0.502714 21.5068 2.49315C23.518 4.40338 23.4768 7.63746 21.5068 9.60741L18.707 12.4072C18.331 12.7831 17.7263 12.799 17.3311 12.4433L17.8838 11.8281L17.3301 12.4424L17.3291 12.4414L17.3271 12.4404C17.3258 12.4391 17.324 12.4371 17.3223 12.4355C17.3188 12.4324 17.3144 12.4283 17.3096 12.4238C17.3054 12.4199 17.3011 12.415 17.2959 12.4101L8.13574 21.4814C7.40307 22.406 6.27133 23 5 23C2.79087 23 1.00001 21.2091 1 19C1 18.475 1.10225 17.974 1.28613 17.5146C1.29643 17.4802 1.30898 17.446 1.32324 17.4121C2.652 14.2591 4.34219 10.3064 5.69922 7.14354C6.37782 5.56192 6.97343 4.17683 7.39941 3.18749C7.61241 2.69281 7.78304 2.29659 7.90039 2.0244C7.95903 1.88838 8.00447 1.78305 8.03516 1.7119C8.05046 1.67641 8.06248 1.649 8.07031 1.63084C8.07414 1.62197 8.07715 1.61486 8.0791 1.61034C8.08001 1.60824 8.08058 1.60655 8.08105 1.60545L8.08203 1.60448C8.30088 1.09742 8.88942 0.863177 9.39648 1.08202C9.87181 1.28732 10.1071 1.81749 9.9541 2.30077L9.91797 2.39647V2.39842C9.91748 2.39956 9.91596 2.40118 9.91504 2.40331C9.91307 2.40787 9.91008 2.41493 9.90625 2.42381C9.89846 2.44186 9.88721 2.46879 9.87207 2.50389C9.84143 2.57493 9.7959 2.68048 9.7373 2.81639C9.62007 3.08833 9.44919 3.48414 9.23633 3.9785C8.81062 4.96722 8.21526 6.35103 7.53711 7.93163C6.60728 10.0988 5.52357 12.6357 4.50586 15.0303C4.66778 15.0103 4.83269 15 5 15C6.8454 15 8.39783 16.2499 8.85938 17.9492L16.1182 10.7607C16.0515 10.6189 15.9888 10.4689 15.9326 10.3115C15.7277 9.73765 15.6059 9.05327 15.6982 8.30077C14.946 8.39287 14.2621 8.27127 13.6885 8.06639C13.0338 7.83252 12.5089 7.48773 12.1533 7.20995C11.9735 7.06945 11.8305 6.9413 11.7305 6.84569C11.6805 6.79788 11.6404 6.75764 11.6113 6.72752C11.597 6.71271 11.5853 6.70017 11.5762 6.69041C11.5718 6.68572 11.5676 6.68113 11.5645 6.67772L11.5576 6.67088C11.5575 6.67028 11.5698 6.65703 12.2998 5.99999L11.5566 6.66893C11.201 6.27364 11.2168 5.66902 11.5928 5.29295L14.3926 2.49315ZM5 17C3.89543 17 3 17.8954 3 19C3.00001 20.1045 3.89544 21 5 21C5.48011 21 5.91992 20.8298 6.26465 20.5478C6.30181 20.4917 6.34583 20.4389 6.39551 20.3896L6.625 20.1611C6.85956 19.8334 7 19.4337 7 19C7 17.8954 6.10457 17 5 17ZM20.0928 3.90721C18.8833 2.69783 17.0161 2.69777 15.8066 3.90721L13.7979 5.91502C13.967 6.01504 14.1563 6.11033 14.3613 6.18358C14.7499 6.32232 15.1798 6.38284 15.6396 6.28709C16.096 6.19201 16.659 5.9269 17.293 5.29295C17.6835 4.90256 18.3165 4.90255 18.707 5.29295C19.0974 5.68345 19.0974 6.31652 18.707 6.70702C18.0731 7.341 17.808 7.90395 17.7129 8.36034C17.6171 8.82021 17.6776 9.25002 17.8164 9.63866C17.8813 9.82047 17.9653 9.98865 18.0527 10.1426C18.0685 10.1562 18.0835 10.1708 18.0986 10.1855L20.0928 8.19334C21.3152 6.97087 21.2815 5.02238 20.1162 3.92967C20.1084 3.92238 20.1003 3.91475 20.0928 3.90721ZM13.042 5.33006L13.041 5.32811L13.0391 5.32713C13.0396 5.32766 13.0407 5.32875 13.042 5.33006Z" fill="#E4F2F2"/>
</svg>
