<svg width="24" height="24" viewBox="0 0 24 24" fill="none" xmlns="http://www.w3.org/2000/svg">
<path fill-rule="evenodd" clip-rule="evenodd" d="M12 7C12.9983 7 13.9471 7.26817 14.6758 7.75391C15.3975 8.23502 16 9.00933 16 10C16 10.9907 15.3975 11.765 14.6758 12.2461C13.9471 12.7318 12.9983 13 12 13C11.0017 13 10.0529 12.7318 9.32422 12.2461C8.60254 11.765 8 10.9907 8 10C8 9.00933 8.60254 8.23502 9.32422 7.75391C10.0529 7.26817 11.0017 7 12 7ZM12 9C11.3415 9 10.7907 9.17992 10.4336 9.41797C10.0695 9.66071 10 9.8861 10 10C10 10.1139 10.0695 10.3393 10.4336 10.582C10.7907 10.8201 11.3415 11 12 11C12.6585 11 13.2093 10.8201 13.5664 10.582C13.9305 10.3393 14 10.1139 14 10C14 9.8861 13.9305 9.66071 13.5664 9.41797C13.2093 9.17992 12.6585 9 12 9Z" fill="#E4F2F2"/>
<path fill-rule="evenodd" clip-rule="evenodd" d="M12 1C17.8554 1 23 4.83274 23 10V14C23 19.149 17.8325 23 12 23C6.16748 23 1 19.149 1 14V10C1 4.83274 6.14463 1 12 1ZM8 20.2676C8.91284 20.6244 9.92117 20.8646 11 20.957V18.9609C9.95948 18.883 8.95136 18.683 8 18.3789V20.2676ZM20.8086 15.4033C18.9602 17.4084 16.1227 18.7269 13 18.9609V20.957C17.0057 20.6139 20.0402 18.2345 20.8086 15.4033ZM3.19043 15.4033C3.58563 16.8597 4.58131 18.1947 6 19.1963V17.542C4.92278 16.9707 3.96896 16.248 3.19043 15.4033ZM12 3C10.2859 3 8.72293 3.36462 7.39746 3.9834L8.20703 4.79297C8.59756 5.18349 8.59756 5.81651 8.20703 6.20703C7.81651 6.59756 7.18349 6.59756 6.79297 6.20703L5.6416 5.05566C3.98784 6.35332 3 8.13229 3 10C3 12.2002 4.37006 14.2782 6.58594 15.5898L7.10547 14.5527C7.35246 14.0588 7.95329 13.8585 8.44727 14.1055C8.94124 14.3525 9.14152 14.9533 8.89453 15.4473L8.40625 16.4219C9.20838 16.6944 10.0779 16.879 11 16.957V16C11 15.4477 11.4477 15 12 15C12.5523 15 13 15.4477 13 16V16.957C17.2131 16.6006 20.3318 14.0186 20.9043 11H19C18.4477 11 18 10.5523 18 10C18 9.44771 18.4477 9 19 9H20.9043C20.5499 7.13163 19.2201 5.43118 17.2588 4.32129L16.2998 5.60059C15.9685 6.0418 15.342 6.13148 14.9004 5.80078C14.4586 5.46947 14.369 4.8422 14.7002 4.40039L15.3701 3.50586C14.3419 3.18242 13.2087 3 12 3Z" fill="#E4F2F2"/>
</svg>
