<svg width="24" height="24" viewBox="0 0 24 24" fill="none" xmlns="http://www.w3.org/2000/svg">
<path fill-rule="evenodd" clip-rule="evenodd" d="M19.8994 0.978516C20.7272 0.978516 21.522 1.30729 22.1074 1.89258C22.6926 2.47783 23.0214 3.272 23.0215 4.09961C23.0215 4.92723 22.6925 5.72132 22.1074 6.30664L19.3916 9.02148C19.5499 9.23155 19.682 9.46098 19.7832 9.70508C19.94 10.0836 20.0214 10.4897 20.0215 10.8994C20.0215 11.3093 19.94 11.7161 19.7832 12.0947C19.6263 12.4732 19.3971 12.8177 19.1074 13.1074C18.8177 13.3971 18.4732 13.6263 18.0947 13.7832C17.716 13.9401 17.3093 14.0215 16.8994 14.0215C16.4896 14.0214 16.0836 13.94 15.705 13.7832C15.4608 13.682 15.2308 13.5508 15.0205 13.3926L7.29294 21.1211C6.80083 21.6133 6.15527 21.917 5.46872 21.9854L5.17184 22H3.82809C3.59608 22.0001 3.37218 22.0807 3.19431 22.2266L3.12106 22.293L2.707 22.707C2.31649 23.0975 1.68346 23.0975 1.29294 22.707C0.902425 22.3165 0.902446 21.6835 1.29294 21.293L1.707 20.8789L1.77341 20.8057C1.91924 20.6278 1.9999 20.4039 1.99997 20.1719V18.8281C2.00014 18.0326 2.31635 17.2695 2.87888 16.707L10.6074 8.97754C10.202 8.43942 9.97849 7.78108 9.97849 7.09961C9.97854 6.68986 10.059 6.28384 10.2158 5.90527C10.3727 5.52662 10.6027 5.18239 10.8925 4.89258C11.1824 4.60276 11.5266 4.37267 11.9052 4.21582C12.2838 4.05901 12.6898 3.97855 13.0996 3.97852C13.7811 3.97852 14.4394 4.20207 14.9775 4.60742L17.6924 1.89258C18.2776 1.30736 19.0718 0.978642 19.8994 0.978516ZM4.29294 18.1211C4.10541 18.3086 4.00005 18.563 3.99997 18.8281V20H5.17184L5.27048 19.9951C5.49938 19.9723 5.71482 19.8711 5.87888 19.707L13.5849 12L11.999 10.4141L4.29294 18.1211ZM19.8994 2.97852C19.6024 2.97864 19.3175 3.09674 19.1074 3.30664L15.707 6.70703C15.5195 6.89453 15.2651 6.99996 15 7C14.7349 6.99998 14.4804 6.89445 14.2929 6.70703L13.8925 6.30664C13.6823 6.09656 13.3968 5.97852 13.0996 5.97852C12.9525 5.97855 12.8067 6.00724 12.6709 6.06348C12.5348 6.11982 12.4107 6.20254 12.3066 6.30664C12.2025 6.41073 12.1198 6.5349 12.0634 6.6709C12.0072 6.80674 11.9785 6.95259 11.9785 7.09961C11.9785 7.39684 12.0965 7.68232 12.3066 7.89258L16.1074 11.6924C16.2114 11.7964 16.3347 11.8792 16.4707 11.9355C16.6066 11.9918 16.7523 12.0214 16.8994 12.0215C17.0466 12.0215 17.193 11.9919 17.3291 11.9355C17.465 11.8792 17.5883 11.7964 17.6924 11.6924C17.7964 11.5883 17.8792 11.465 17.9355 11.3291C17.9918 11.1931 18.0215 11.0466 18.0215 10.8994C18.0214 10.7524 17.9918 10.6066 17.9355 10.4707C17.8792 10.3348 17.7964 10.2115 17.6924 10.1074L17.2929 9.70703C16.9025 9.3165 16.9025 8.68346 17.2929 8.29297L20.6924 4.89258C20.9026 4.68229 21.0215 4.39698 21.0215 4.09961C21.0214 3.80236 20.9025 3.51684 20.6924 3.30664C20.4821 3.09662 20.1966 2.97852 19.8994 2.97852Z" fill="#E4F2F2"/>
</svg>
