<svg width="24" height="24" viewBox="0 0 24 24" fill="none" xmlns="http://www.w3.org/2000/svg">
<path d="M11.293 13.2935C11.6835 12.9029 12.3165 12.9029 12.707 13.2935C13.0974 13.684 13.0975 14.317 12.707 14.7075L11.707 15.7075C11.3165 16.0979 10.6835 16.0979 10.293 15.7075C9.90246 15.317 9.90254 14.684 10.293 14.2935L11.293 13.2935Z" fill="#E4F2F2"/>
<path fill-rule="evenodd" clip-rule="evenodd" d="M16.2412 1.01513C16.5019 1.04679 16.7546 1.12926 16.9834 1.2583C17.2121 1.38733 17.4133 1.56036 17.5752 1.76708C17.7371 1.97391 17.8563 2.21127 17.9267 2.46435L19.7158 8.90185C19.7347 8.94541 19.7518 8.99045 19.7646 9.03759C19.7763 9.08044 19.7832 9.12365 19.789 9.1665L22.9277 20.4643C23.0228 20.8055 23.0253 21.1657 22.9355 21.5083C22.8455 21.8512 22.6657 22.1648 22.415 22.4155C22.1643 22.6662 21.8507 22.846 21.5078 22.936C21.1653 23.0258 20.8049 23.0223 20.4639 22.9272L2.46385 17.9282C2.21082 17.8577 1.97337 17.7376 1.76658 17.5757C1.55988 17.4138 1.38683 17.2126 1.2578 16.9839C1.12874 16.7551 1.04629 16.5025 1.01463 16.2417C0.983012 15.981 1.00268 15.7163 1.07323 15.4634C2.0277 12.0279 3.85474 8.89772 6.37596 6.37646C8.89713 3.85529 12.0276 2.02922 15.4629 1.0747C15.7158 1.00416 15.9805 0.983542 16.2412 1.01513ZM17.0703 6.85497C14.6367 7.53086 12.4127 8.82443 10.6191 10.6177C8.825 12.4116 7.53151 14.6372 6.85545 17.0718L12.1572 18.5444L12.999 17.5893C13.3639 17.1748 13.9966 17.1346 14.4111 17.4995C14.8255 17.8645 14.8658 18.4971 14.501 18.9116L14.2998 19.1392L20.999 21.0005L21.001 21.0015L21 20.9995L20.2021 18.1284C19.2235 18.1974 18.2383 17.9768 17.374 17.4829C16.2249 16.8262 15.3834 15.7402 15.0351 14.4634C14.6869 13.1865 14.86 11.8235 15.5166 10.6743C16.0026 9.82384 16.7241 9.14181 17.584 8.70361L17.0703 6.85497ZM15.999 3.00048C12.8955 3.86261 10.0676 5.51294 7.79002 7.79052C5.51245 10.0681 3.86209 12.896 2.99998 15.9995L2.99901 16.0005L4.92869 16.5366C5.69683 13.7704 7.16653 11.242 9.20506 9.20361C11.243 7.16604 13.77 5.69718 16.5351 4.92919L15.999 3.00048ZM18.1387 10.7017C17.7798 10.9525 17.4753 11.2791 17.2539 11.6665C16.8604 12.3551 16.7562 13.1718 16.9648 13.937C17.1735 14.7021 17.6776 15.3531 18.3662 15.7466C18.7619 15.9727 19.2002 16.0988 19.6465 16.1294L18.1387 10.7017Z" fill="#E4F2F2"/>
</svg>
