<svg width="24" height="24" viewBox="0 0 24 24" fill="none" xmlns="http://www.w3.org/2000/svg">
<path fill-rule="evenodd" clip-rule="evenodd" d="M12 3C13.9828 3 15.8145 3.64315 17.3018 4.72949C18.3462 4.53754 19.3296 4.47967 20.1748 4.59668C21.1164 4.72707 22.0678 5.10619 22.5947 5.96582C23.1186 6.79543 23.0558 7.75842 22.7568 8.61523C22.457 9.47415 21.8798 10.367 21.1357 11.2373C21.085 11.2966 21.0311 11.3546 20.9785 11.4141C20.991 11.6078 21 11.8031 21 12C21 16.9706 16.9706 21 12 21C10.0436 21 8.23431 20.3737 6.75781 19.3135C6.74017 19.3165 6.72267 19.3203 6.70508 19.3232C5.57213 19.5154 4.5103 19.5585 3.61719 19.3936C2.75992 19.2352 1.91867 18.8529 1.43067 18.0732L1.32031 17.9004C0.813446 17.0272 0.969944 16.0173 1.32813 15.1631C1.67342 14.3399 2.27216 13.4798 3.02442 12.6377C3.00966 12.427 3 12.2144 3 12C3 7.02949 7.02951 3.00008 12 3ZM18.8477 13.4531C17.6122 14.4762 16.1508 15.4769 14.5361 16.374C12.8557 17.3076 11.171 18.0494 9.59864 18.5762C10.3477 18.8498 11.1562 19 12 19C15.3676 19 18.1786 16.6216 18.8477 13.4531ZM3.5791 15.1807C3.40516 15.4514 3.27003 15.7049 3.17285 15.9365C2.90556 16.5739 3.00679 16.836 3.06934 16.9258C3.08571 16.9492 3.10092 16.9743 3.11524 16.999C3.18517 17.1197 3.39263 17.3182 3.98047 17.4268C4.23507 17.4738 4.53372 17.4955 4.87403 17.4932C4.3357 16.7958 3.89585 16.0188 3.5791 15.1807ZM12 5C8.13408 5.00008 5 8.13406 5 12C5 14.0453 5.87773 15.8852 7.27637 17.165C9.11746 16.7299 11.3197 15.8721 13.5645 14.625C15.7431 13.4146 17.5754 12.0323 18.8818 10.7246C18.5787 9.07825 17.7014 7.63356 16.4629 6.60742C16.4355 6.58754 16.4091 6.56654 16.3838 6.54395C15.1839 5.5787 13.6598 5 12 5ZM19.1514 6.53809C19.6831 7.23317 20.1161 8.00726 20.4287 8.84082C20.6301 8.51634 20.7762 8.21955 20.8682 7.95605C21.0564 7.4164 20.9812 7.15341 20.9053 7.0332C20.9012 7.02684 20.8964 7.02012 20.8926 7.01367C20.8165 6.88747 20.5753 6.67158 19.9004 6.57812C19.678 6.54734 19.4275 6.5342 19.1514 6.53809Z" fill="#E4F2F2"/>
</svg>
