<svg width="24" height="24" viewBox="0 0 24 24" fill="none" xmlns="http://www.w3.org/2000/svg">
<path d="M22 21C22.5523 21 23 21.4477 23 22C22.9999 22.5522 22.5522 23 22 23H2C1.44785 22.9999 1.00008 22.5522 1 22C1 21.4478 1.4478 21.0001 2 21H22Z" fill="#E4F2F2"/>
<path fill-rule="evenodd" clip-rule="evenodd" d="M10.6855 1.55078C10.9378 1.46722 11.2129 1.48777 11.4502 1.60742L12.4951 2.13574C12.9328 2.35375 13.3117 2.67488 13.5967 3.07226C13.8459 3.41988 14.0173 3.81626 14.1006 4.23437L14.1309 4.41503V4.41796L14.8516 9.81738C14.8739 9.97791 14.9348 10.131 15.0293 10.2627C15.1242 10.395 15.2498 10.5026 15.3955 10.5752H15.3975L19.7969 12.7754C19.8025 12.7782 19.8089 12.7813 19.8145 12.7842C20.386 13.0836 20.8973 13.5433 21.2324 14.1406L21.8242 15.1562L21.834 15.1738C22.662 16.6615 21.7401 18.5408 20.0254 18.751L20.0264 18.7519L20.0195 18.7529L20.0186 18.7519L18.8457 18.9014L18.8467 18.9023C18.1888 18.9863 17.5084 18.8759 16.9033 18.5635L3.83789 12.042C3.55085 11.8964 3.28889 11.7053 3.0625 11.4766L1.29297 9.70703C1.00046 9.41449 0.918005 8.9718 1.08594 8.59374L3.08594 4.09374C3.1968 3.8443 3.40521 3.65086 3.66211 3.55859C3.91913 3.46638 4.20302 3.48337 4.44727 3.60546L5.54688 4.15527L5.55371 4.15917C6.42986 4.60529 7 5.50392 7 6.49999C7.00005 6.7237 7.13001 6.94465 7.35352 7.05859L7.55273 7.1582L10.1055 2.05273L10.1543 1.96679C10.2773 1.77168 10.4647 1.62399 10.6855 1.55078ZM8.89453 8.94726C8.77595 9.18429 8.56781 9.36435 8.31641 9.44824C8.06486 9.53202 7.78988 9.5131 7.55273 9.39453L6.45313 8.84472L6.44629 8.84081C5.57023 8.3947 5.00005 7.49598 5 6.49999C5 6.304 4.90055 6.10995 4.72559 5.98828L4.64649 5.9414L4.48828 5.8623L3.19238 8.77831L4.47754 10.0625L4.48242 10.0684C4.55782 10.1448 4.6455 10.2081 4.74121 10.2568L17.8145 16.7842C18.045 16.9048 18.318 16.9531 18.5938 16.918L19.7734 16.7676H19.7812C20.0621 16.7336 20.2364 16.4168 20.0859 16.1465L19.4961 15.1338C19.4934 15.1291 19.4909 15.1238 19.4883 15.1191C19.364 14.8976 19.1562 14.698 18.8896 14.5576L14.5039 12.3643C14.0665 12.1462 13.6881 11.8249 13.4033 11.4277C13.1185 11.0305 12.9352 10.5693 12.8691 10.085V10.082L12.1484 4.68261C12.126 4.52239 12.065 4.3688 11.9707 4.2373C11.8758 4.10499 11.7502 3.99742 11.6045 3.9248L11.5996 3.92285L11.4453 3.84472L8.89453 8.94726Z" fill="#E4F2F2"/>
</svg>
