<svg width="24" height="24" viewBox="0 0 24 24" fill="none" xmlns="http://www.w3.org/2000/svg">
<path d="M21.9995 21C22.5518 21 22.9995 21.4477 22.9995 22C22.9995 22.5523 22.5518 23 21.9995 23H1.99952C1.44736 22.9999 0.999532 22.5522 0.999515 22C0.999515 21.4478 1.44735 21.0002 1.99952 21H21.9995Z" fill="#E4F2F2"/>
<path fill-rule="evenodd" clip-rule="evenodd" d="M7.06787 4.35841C7.61894 4.41114 8.14429 4.61627 8.58643 4.94923L8.58741 4.94825L12.6079 7.94825L12.6147 7.95411C12.7629 8.06686 12.9402 8.13655 13.1255 8.15431C13.3109 8.17197 13.4986 8.13743 13.6655 8.0547L13.6685 8.05274L17.8491 5.99708C18.5121 5.66288 19.2637 5.55596 19.9888 5.68653L20.2974 5.75685L20.3071 5.75978L21.2769 6.03907C21.6169 6.1349 21.9308 6.30459 22.1978 6.53614C22.467 6.76984 22.6809 7.06102 22.8237 7.3877C22.9665 7.71427 23.0352 8.06858 23.0239 8.42481C23.0127 8.77703 22.9229 9.12251 22.7632 9.43653L22.3843 10.1973C22.0605 10.8447 21.5378 11.382 20.8745 11.7207L20.8638 11.7256L8.02393 18.0957L8.02295 18.0967C7.52807 18.3416 6.97625 18.4446 6.4292 18.3965C6.35102 18.4019 6.27163 18.3991 6.19287 18.3858L3.83252 17.9863C3.51814 17.933 3.2476 17.7325 3.10498 17.4473L1.10498 13.4473C0.858117 12.9534 1.0585 12.3525 1.55225 12.1055L2.65186 11.5557C3.06987 11.3455 3.53162 11.2364 3.99952 11.2363C4.46817 11.2363 4.93056 11.3459 5.34912 11.5567C5.36842 11.5664 5.38811 11.5769 5.40674 11.5879L5.53565 11.6641C5.67087 11.7293 5.81898 11.7636 5.96924 11.7637C6.1254 11.7637 6.27996 11.7274 6.41944 11.6572L6.43213 11.6514L6.65284 11.543L4.10498 6.44728C3.98645 6.21015 3.9675 5.93512 4.05127 5.6836C4.13517 5.43227 4.31529 5.22405 4.55225 5.10548L5.4585 4.65235C5.95723 4.40713 6.51463 4.30556 7.06787 4.35841ZM6.87745 6.34962C6.69317 6.33206 6.50744 6.36563 6.34131 6.44728L8.89405 11.5527C9.01344 11.7915 9.03251 12.0685 8.94678 12.3213C8.86094 12.5741 8.67708 12.7826 8.43702 12.8994L7.31885 13.4424C6.90024 13.6532 6.43795 13.7637 5.96924 13.7637C5.5006 13.7636 5.03816 13.6542 4.61963 13.4434C4.60034 13.4336 4.58063 13.4231 4.56202 13.4121L4.42725 13.333C4.29359 13.2697 4.1476 13.2363 3.99952 13.2363C3.84331 13.2364 3.68882 13.2725 3.54932 13.3428L3.54639 13.3447L3.34131 13.4473L4.66651 16.0986L6.33643 16.3818C6.39922 16.3804 6.46292 16.383 6.52588 16.3936C6.73341 16.4285 6.94664 16.397 7.13526 16.3037L19.9644 9.93946C20.2409 9.79827 20.459 9.57506 20.5952 9.30274L20.9751 8.54298L20.98 8.53224C21.0071 8.4795 21.023 8.42061 21.0249 8.36134C21.0267 8.3021 21.0154 8.2428 20.9917 8.18849C20.9679 8.13412 20.932 8.08578 20.8872 8.04688C20.8424 8.00798 20.7891 7.97977 20.7319 7.96388L20.7222 7.96095L19.7622 7.6836L19.6343 7.65431C19.3345 7.60036 19.0236 7.64505 18.7495 7.78321L18.7407 7.78712L14.5503 9.84767C14.0504 10.0948 13.4912 10.1974 12.936 10.1445C12.3828 10.0918 11.8549 9.88681 11.4116 9.55177L7.39112 6.55177L7.38623 6.54786C7.23845 6.43601 7.06194 6.36727 6.87745 6.34962Z" fill="#E4F2F2"/>
</svg>
