<svg width="24" height="24" viewBox="0 0 24 24" fill="none" xmlns="http://www.w3.org/2000/svg">
<path fill-rule="evenodd" clip-rule="evenodd" d="M18.6435 2.04393C19.5186 1.77472 20.492 1.70228 21.29 2.03417L21.4473 2.10546L21.5849 2.18944C21.7152 2.28346 21.822 2.40763 21.8945 2.55272C22.307 3.37771 22.2432 4.42313 21.956 5.35643C21.6576 6.32643 21.0711 7.34292 20.207 8.20702L17.0937 11.3193L18.7764 18.9853C18.7777 18.9914 18.779 18.9978 18.7803 19.0039C18.9698 19.952 18.5463 20.7157 17.9004 21.2002C17.8303 21.2527 17.7532 21.2955 17.6719 21.3281L17.1719 21.5283C16.3405 21.8608 15.3247 21.7326 14.7002 20.9004C14.6882 20.8844 14.677 20.8672 14.666 20.8506L11.7187 16.3887L9.99999 17.5351V20C9.99996 20.2652 9.89453 20.5195 9.70702 20.707L8.70702 21.707C8.49518 21.9188 8.19946 22.0246 7.90135 21.9951C7.60329 21.9656 7.33413 21.8039 7.16795 21.5547L5.27831 18.7207L2.4453 16.832C2.19608 16.6659 2.03444 16.3967 2.00487 16.0986C1.97535 15.8005 2.08114 15.5048 2.29295 15.293L3.29295 14.293L3.3662 14.2266C3.54415 14.0807 3.76789 14 3.99999 14H6.46483L7.61034 12.2803L3.1494 9.33397C3.13277 9.32299 3.11554 9.31175 3.0996 9.29979C2.26732 8.67533 2.13917 7.65944 2.47167 6.82811C2.49142 6.77879 2.51562 6.7311 2.54295 6.68554L2.84276 6.18554C3.24289 5.45256 4.00344 5.08949 4.82616 5.1914L4.99608 5.21972L5.01463 5.22362L12.6797 6.90526L15.793 3.79296C16.6571 2.92884 17.6735 2.3424 18.6435 2.04393ZM20.1826 3.8164C19.9496 3.80371 19.6298 3.83346 19.2314 3.95604C18.5765 4.1576 17.8428 4.57122 17.207 5.20702L13.707 8.70702C13.4659 8.94809 13.1182 9.04964 12.7851 8.97655L4.6035 7.18065L4.57713 7.17772C4.5705 7.18991 4.56474 7.20294 4.5576 7.21483L4.31542 7.61815C4.30356 7.659 4.30017 7.68498 4.30077 7.69823L9.55077 11.166C9.77267 11.3126 9.92773 11.5411 9.98045 11.8017C10.0331 12.0624 9.97952 12.3334 9.83202 12.5547L7.83202 15.5547C7.64655 15.8328 7.33431 16 6.99999 16H4.80272L6.55467 17.168L6.63377 17.2266C6.71015 17.2891 6.77704 17.3628 6.83202 17.4453L7.99999 19.1973V17C7.99999 16.6657 8.16712 16.3534 8.4453 16.168L11.4453 14.168L11.5303 14.1172C11.734 14.0088 11.9701 13.9734 12.1982 14.0195C12.4589 14.0723 12.6874 14.2273 12.834 14.4492L16.3008 19.6992C16.3179 19.7001 16.3602 19.6993 16.4287 19.6719L16.7715 19.5342C16.805 19.5002 16.8186 19.4806 16.8213 19.4746C16.8231 19.4704 16.8245 19.4663 16.8252 19.4599C16.8259 19.4527 16.8265 19.4324 16.8193 19.3965L15.0234 11.2148C14.9503 10.8818 15.0519 10.5341 15.293 10.293L18.793 6.79296C19.4287 6.15718 19.8424 5.42345 20.0439 4.76854C20.1667 4.36964 20.1954 4.04944 20.1826 3.8164Z" fill="#E4F2F2"/>
</svg>
