<svg width="24" height="24" viewBox="0 0 24 24" fill="none" xmlns="http://www.w3.org/2000/svg">
<path fill-rule="evenodd" clip-rule="evenodd" d="M7.00977 1.99901C7.53753 2.0008 8.05587 2.14224 8.51172 2.40819L20.5059 9.40428C20.9599 9.66774 21.3384 10.0462 21.6006 10.501C21.8628 10.9557 22.0005 11.4721 22.001 11.9971C22.0014 12.5219 21.8638 13.0379 21.6025 13.4931C21.3738 13.8915 21.0572 14.2315 20.6777 14.4873L20.5117 14.5918L8.51172 21.5918C8.0559 21.8577 7.53746 21.9982 7.00977 22C6.48212 22.0017 5.9634 21.8643 5.50586 21.6015C5.0483 21.3387 4.66764 20.9597 4.40332 20.5029C4.13907 20.0461 3.99984 19.5268 4 18.999V4.99999C3.99991 4.4724 4.13916 3.95375 4.40332 3.49706C4.66767 3.04029 5.04825 2.66033 5.50586 2.39745C5.96334 2.13474 6.48223 1.99729 7.00977 1.99901ZM7.00293 3.99901C6.82724 3.99849 6.65432 4.04435 6.50195 4.13182C6.34957 4.21936 6.22287 4.34599 6.13477 4.49803C6.04676 4.65013 6.00007 4.82329 6 4.99901V19C5.99996 19.1758 6.04677 19.3488 6.13477 19.501C6.22285 19.6532 6.3495 19.7796 6.50195 19.8672C6.65439 19.9547 6.82714 20.0005 7.00293 20C7.1788 19.9994 7.35199 19.9528 7.50391 19.8642L19.5039 12.8642L19.5049 12.8633C19.6559 12.7752 19.7811 12.6487 19.8682 12.4971C19.9551 12.3455 20.0011 12.1737 20.001 11.999C20.0008 11.8241 19.9545 11.6515 19.8672 11.5C19.7798 11.3486 19.6541 11.2225 19.5029 11.1348L19.501 11.1338L7.50391 4.13573C7.35198 4.04711 7.17882 3.99961 7.00293 3.99901Z" fill="#E4F2F2"/>
</svg>
