<svg width="24" height="24" viewBox="0 0 24 24" fill="none" xmlns="http://www.w3.org/2000/svg">
<path fill-rule="evenodd" clip-rule="evenodd" d="M9.29297 10.293C9.68349 9.90243 10.3165 9.90243 10.707 10.293C11.0975 10.6835 11.0975 11.3165 10.707 11.707L8.91406 13.5L10.5 15.0859L12.293 13.293C12.6835 12.9024 13.3165 12.9024 13.707 13.293C14.0975 13.6835 14.0975 14.3165 13.707 14.707L11.9141 16.5L12.707 17.293C12.8945 17.4805 13 17.7348 13 18C13 18.2652 12.8945 18.5195 12.707 18.707L10.4072 21.0068C10.0916 21.3233 9.71651 21.5747 9.30371 21.7461C8.89053 21.9176 8.44738 22.0058 8 22.0058C7.55262 22.0058 7.10948 21.9176 6.69629 21.7461C6.2835 21.5747 5.90842 21.3233 5.59277 21.0068L5 20.414L2.70703 22.707C2.31653 23.0975 1.6835 23.0975 1.29297 22.707C0.902445 22.3165 0.902445 21.6835 1.29297 21.293L3.58594 19L2.99316 18.4072L2.99414 18.4062C2.67769 18.0906 2.42532 17.7165 2.25391 17.3037C2.10386 16.9423 2.01735 16.558 1.99805 16.168L1.99414 16C1.99414 15.5526 2.08236 15.1095 2.25391 14.6963C2.4255 14.283 2.6772 13.9076 2.99414 13.5918L5.29297 11.293L5.36621 11.2265C5.54416 11.0807 5.76792 11 6 11C6.26517 11 6.51952 11.1055 6.70703 11.293L7.5 12.0859L9.29297 10.293ZM4.40723 15.0068L4.40625 15.0088C4.27585 15.1387 4.17221 15.2929 4.10156 15.4629C4.03091 15.633 3.99414 15.8157 3.99414 16L4.00098 16.1377C4.01453 16.2747 4.04858 16.4095 4.10156 16.5371C4.15456 16.6646 4.22603 16.7834 4.31348 16.8896L4.40625 16.9912L4.40723 16.9931L7.00684 19.5928L7.00879 19.5937C7.13874 19.7241 7.29292 19.8278 7.46289 19.8984C7.63302 19.969 7.81579 20.0058 8 20.0058C8.18422 20.0058 8.36697 19.9691 8.53711 19.8984C8.70713 19.8278 8.86222 19.7242 8.99219 19.5937L10.5859 18L6 13.414L4.40723 15.0068Z" fill="#E4F2F2"/>
<path d="M17.293 2.29295C17.6835 1.90243 18.3165 1.90243 18.707 2.29295C19.0975 2.68348 19.0975 3.31652 18.707 3.70702L16.4141 5.99999H20C20.4044 6.00002 20.769 6.24359 20.9238 6.61717C21.0786 6.99083 20.993 7.42104 20.707 7.70702L16.707 11.707C16.3165 12.0975 15.6835 12.0975 15.293 11.707C14.9024 11.3165 14.9024 10.6835 15.293 10.293L17.5859 7.99999H14C13.5956 7.99999 13.231 7.75635 13.0762 7.3828C12.9214 7.00912 13.007 6.57895 13.293 6.29295L17.293 2.29295Z" fill="#E4F2F2"/>
</svg>
