<svg width="24" height="24" viewBox="0 0 24 24" fill="none" xmlns="http://www.w3.org/2000/svg">
<path d="M15.293 9.29297C15.6835 8.90244 16.3165 8.90244 16.707 9.29297C17.0976 9.68349 17.0976 10.3165 16.707 10.707L12.707 14.707C12.3165 15.0976 11.6835 15.0976 11.293 14.707L7.29297 10.707C6.90244 10.3165 6.90244 9.68349 7.29297 9.29297C7.68349 8.90244 8.31651 8.90244 8.70703 9.29297L12 12.5859L15.293 9.29297Z" fill="#E4F2F2"/>
<path fill-rule="evenodd" clip-rule="evenodd" d="M20 2C20.7957 2 21.5585 2.3163 22.1211 2.87891C22.6837 3.44151 23 4.20435 23 5V11C23 13.9174 21.8412 16.7154 19.7783 18.7783C17.8445 20.7122 15.2645 21.8513 12.5459 21.9863L12 22C9.08262 22 6.28458 20.8412 4.22168 18.7783C2.15878 16.7154 1 13.9174 1 11V5C1 4.20435 1.3163 3.44152 1.87891 2.87891C2.44152 2.3163 3.20435 2 4 2H20ZM4 4C3.73478 4 3.4805 4.10543 3.29297 4.29297C3.10543 4.4805 3 4.73478 3 5V11C3 13.3869 3.94791 15.6764 5.63574 17.3643C7.32357 19.0521 9.61305 20 12 20L12.4463 19.9893C14.6708 19.8789 16.7819 18.9466 18.3643 17.3643C20.0521 15.6764 21 13.3869 21 11V5C21 4.73478 20.8946 4.48051 20.707 4.29297C20.5195 4.10543 20.2652 4 20 4H4Z" fill="#E4F2F2"/>
</svg>
