<svg width="24" height="24" viewBox="0 0 24 24" fill="none" xmlns="http://www.w3.org/2000/svg">
<path d="M12 15C12.5304 15 13.039 15.2109 13.4141 15.5859C13.7891 15.961 14 16.4696 14 17C14 17.0369 13.9982 17.0737 13.9941 17.1104L13.4941 21.6104C13.4678 21.9677 13.3156 22.3054 13.0605 22.5605C12.7793 22.8418 12.3978 23 12 23C11.6022 23 11.2207 22.8418 10.9394 22.5605C10.6843 22.3054 10.5322 21.9678 10.5059 21.6104L10.0059 17.1104C10.0018 17.0737 10 17.0369 10 17C10 16.4696 10.2109 15.961 10.5859 15.5859C10.961 15.2109 11.4696 15 12 15Z" fill="#E4F2F2"/>
<path d="M12 0.999023C14.1623 0.999059 16.2667 1.70033 17.9971 2.99707C19.7271 4.29375 20.9906 6.11632 21.5977 8.19141C22.2045 10.2666 22.1229 12.4832 21.3643 14.5078C20.6054 16.5326 19.2101 18.2576 17.3887 19.4229C16.9236 19.7202 16.3055 19.584 16.0078 19.1191C15.7102 18.6539 15.8464 18.0359 16.3115 17.7383C17.7685 16.8061 18.8841 15.4263 19.4912 13.8066C20.0982 12.1869 20.1642 10.4132 19.6787 8.75293C19.1931 7.09291 18.1818 5.63502 16.7978 4.59766C15.4136 3.56027 13.7299 2.99906 12 2.99902C10.2701 2.99902 8.58647 3.56024 7.20215 4.59766C5.8181 5.63503 4.80688 7.09282 4.32129 8.75293C3.83575 10.4132 3.90175 12.1869 4.50879 13.8066C5.11588 15.4262 6.2315 16.8062 7.68847 17.7383C8.15345 18.036 8.28971 18.654 7.99218 19.1191C7.69461 19.584 7.07643 19.72 6.61132 19.4229C4.7899 18.2576 3.39461 16.5325 2.63574 14.5078C1.87711 12.4832 1.79544 10.2666 2.40234 8.19141C3.00939 6.11624 4.27278 4.29377 6.00293 2.99707C7.73334 1.7003 9.8376 0.999024 12 0.999023Z" fill="#E4F2F2"/>
<path d="M12 5C13.1142 5.00003 14.2065 5.31071 15.1543 5.89648C16.1019 6.48221 16.8679 7.32002 17.3662 8.31641C17.8645 9.31302 18.0756 10.4293 17.9756 11.5391C17.8755 12.6486 17.4682 13.7083 16.7998 14.5996C16.4685 15.0414 15.8422 15.1309 15.4004 14.7998C14.9586 14.4685 14.869 13.8422 15.2002 13.4004C15.6458 12.8062 15.9167 12.0991 15.9834 11.3594C16.0501 10.6196 15.9103 9.87534 15.5781 9.21094C15.2459 8.54656 14.7344 7.98819 14.1025 7.59766C13.4707 7.20721 12.7427 7.00003 12 7C11.2573 7 10.5293 7.20723 9.89746 7.59766C9.26557 7.98818 8.75408 8.54654 8.42187 9.21094C8.08966 9.87536 7.94989 10.6195 8.0166 11.3594C8.08334 12.0991 8.35413 12.8062 8.7998 13.4004C9.13094 13.8422 9.04126 14.4685 8.59961 14.7998C8.15781 15.131 7.53154 15.0413 7.20019 14.5996C6.53175 13.7083 6.12451 12.6487 6.02441 11.5391C5.92434 10.4293 6.13547 9.31304 6.63379 8.31641C7.13209 7.32001 7.89804 6.4822 8.8457 5.89648C9.79353 5.31073 10.8858 5 12 5Z" fill="#E4F2F2"/>
<path d="M12 9C13.1045 9.00009 14 9.89548 14 11C14 12.1045 13.1045 12.9999 12 13C10.8954 13 10 12.1046 10 11C10 9.89543 10.8954 9 12 9Z" fill="#E4F2F2"/>
</svg>
