<svg width="24" height="24" viewBox="0 0 24 24" fill="none" xmlns="http://www.w3.org/2000/svg">
<path fill-rule="evenodd" clip-rule="evenodd" d="M8.29688 1.01465C8.9835 1.08291 9.6289 1.38673 10.1211 1.87891C10.6837 2.44151 11 3.20435 11 4V6.1748C11.3185 6.062 11.6557 6.00001 12 6L12.2969 6.01465C12.9835 6.08291 13.6289 6.38673 14.1211 6.87891C14.2765 7.03428 14.411 7.20628 14.5273 7.38867C14.9731 7.13716 15.4791 7.00001 16 7L16.2969 7.01465C16.9835 7.08291 17.6289 7.38673 18.1211 7.87891C18.2765 8.03428 18.411 8.20628 18.5273 8.38867C18.9731 8.13718 19.4791 8.00002 20 8C20.7956 8.00001 21.5585 8.31634 22.1211 8.87891C22.6837 9.44151 23 10.2044 23 11V14C23 16.3869 22.0521 18.6764 20.3643 20.3643C18.6764 22.0521 16.3869 23 14 23H12C8.93126 23 6.97958 22.0318 5.30567 20.3691L5.30274 20.3672L1.70313 16.7676C1.69118 16.7556 1.67929 16.743 1.66797 16.7305C1.15188 16.1589 0.875217 15.4104 0.895509 14.6406C0.915814 13.8708 1.23183 13.1383 1.77734 12.5947C2.32284 12.0512 3.05634 11.7383 3.82617 11.7207C4.23135 11.7115 4.62997 11.785 5 11.9316V4C5 3.20437 5.31632 2.44151 5.87891 1.87891C6.4415 1.31631 7.20438 1.00002 8 1L8.29688 1.01465ZM8 3C7.73481 3.00002 7.48049 3.10545 7.29297 3.29297C7.10545 3.4805 7 3.7348 7 4V13.5859L7.70703 14.293C8.09753 14.6835 8.09753 15.3165 7.70703 15.707C7.31651 16.0975 6.68348 16.0975 6.29297 15.707L4.55664 13.9707C4.36819 13.8041 4.12388 13.7141 3.87207 13.7197C3.61544 13.7256 3.37031 13.8305 3.18848 14.0117C3.00683 14.1929 2.9013 14.4369 2.89453 14.6934C2.8879 14.9453 2.97752 15.1898 3.14356 15.3789L6.71387 18.9502C8.01991 20.2475 9.46889 21 12 21H14C14.1159 21 14.2315 20.9969 14.3467 20.9912C14.5774 20.9798 14.8064 20.9567 15.0332 20.9229C15.26 20.889 15.4846 20.8447 15.7061 20.7891C15.8169 20.7612 15.9269 20.7305 16.0361 20.6973C16.4723 20.5647 16.8947 20.3904 17.2969 20.1758C17.4979 20.0685 17.6936 19.951 17.8838 19.8242C18.0741 19.6974 18.2586 19.5608 18.4365 19.415C18.6145 19.2692 18.7861 19.1143 18.9502 18.9502C20.0934 17.807 20.7994 16.3088 20.9629 14.7148C20.9656 14.6885 20.9683 14.6621 20.9707 14.6357C20.9899 14.4252 21 14.2131 21 14V11C21 10.7348 20.8946 10.4805 20.707 10.293C20.5195 10.1055 20.2652 10 20 10C19.7348 10 19.4805 10.1055 19.293 10.293C19.1066 10.4793 19.0013 10.7317 19 10.9951V11C19 11.5523 18.5523 12 18 12C17.7239 12 17.4739 11.888 17.293 11.707C17.2025 11.6166 17.1287 11.5092 17.0781 11.3896C17.0402 11.3 17.0151 11.2034 17.0049 11.1025C17.0014 11.0688 17 11.0346 17 11V10C17 9.73478 16.8946 9.48051 16.707 9.29297C16.5429 9.12884 16.3276 9.02757 16.0986 9.00488L16 9C15.7348 9.00002 15.4805 9.10545 15.293 9.29297C15.1055 9.4805 15 9.7348 15 10C15 10.5523 14.5523 11 14 11C13.4477 11 13 10.5523 13 10V9C13 8.73478 12.8946 8.48051 12.707 8.29297C12.5429 8.12885 12.3276 8.02757 12.0986 8.00488L12 8C11.7348 8.00002 11.4805 8.10545 11.293 8.29297C11.1055 8.4805 11 8.7348 11 9V10C11 10.5523 10.5523 11 10 11C9.44775 11 9 10.5523 9 10V4C9 3.73478 8.89457 3.48051 8.70703 3.29297C8.54289 3.12884 8.32762 3.02757 8.09863 3.00488L8 3Z" fill="#E4F2F2"/>
</svg>
