<svg width="24" height="24" viewBox="0 0 24 24" fill="none" xmlns="http://www.w3.org/2000/svg">
<path fill-rule="evenodd" clip-rule="evenodd" d="M1.29297 1.29298C1.68347 0.902471 2.3165 0.902511 2.70703 1.29298L20.3535 18.9395C20.357 18.9428 20.3608 18.9458 20.3643 18.9492C20.3676 18.9526 20.3707 18.9566 20.374 18.96L22.707 21.293C23.0976 21.6835 23.0976 22.3165 22.707 22.707C22.3165 23.0974 21.6834 23.0975 21.293 22.707L19.6162 21.0303C18.957 21.5566 18.2268 21.9904 17.4443 22.3145C16.3525 22.7666 15.1818 23 14 23H12.0068C10.7758 23.0686 9.54327 22.877 8.3916 22.4356C7.22297 21.9875 6.16341 21.2931 5.28613 20.4004L1.69824 16.7617C1.69171 16.7551 1.68505 16.748 1.67871 16.7412C1.15333 16.1773 0.864265 15.4328 0.873047 14.6621C0.8819 13.8914 1.18741 13.1533 1.72559 12.6016C2.26383 12.0498 2.99436 11.7262 3.76465 11.6982C4.19104 11.6828 4.61167 11.7594 5 11.917V6.41407L1.29297 2.70704C0.902549 2.31655 0.902599 1.68349 1.29297 1.29298ZM7 13.585L7.70703 14.293C8.09737 14.6835 8.09749 15.3166 7.70703 15.707C7.31656 16.0974 6.68346 16.0973 6.29297 15.707L4.52539 13.9395C4.33459 13.7751 4.08892 13.6882 3.83691 13.6973C3.58023 13.7067 3.33659 13.8142 3.15723 13.9981C2.97796 14.1819 2.87609 14.4278 2.87305 14.6846C2.87014 14.9389 2.96495 15.1848 3.13672 15.3721L6.71191 18.9981L6.71289 18.999C7.38939 19.6874 8.20625 20.2228 9.10742 20.5684C10.0086 20.9138 10.9742 21.0616 11.9375 21.002L12 21H14C14.9191 21 15.8295 20.8185 16.6787 20.4668C17.2179 20.2435 17.7249 19.9524 18.1904 19.6045L7 8.41407V13.585Z" fill="#E4F2F2"/>
<path d="M11.6943 6.78028C11.8737 6.25831 12.4427 5.97931 12.9648 6.15821C13.41 6.31096 13.8133 6.56698 14.1416 6.9043C14.2861 7.05286 14.413 7.2167 14.5234 7.39063C14.6906 7.29613 14.8668 7.21667 15.0508 7.15528C15.6541 6.95402 16.3062 6.94929 16.9121 7.14259C17.518 7.33589 18.0466 7.7171 18.4219 8.23048C18.4594 8.28187 18.4942 8.33525 18.5283 8.38868C18.974 8.13753 19.4794 8.00004 20 8.00001C20.7956 8.00001 21.5585 8.31636 22.1211 8.87891C22.6837 9.44151 23 10.2044 23 11V13.9961C23.0031 14.8327 22.8901 15.6664 22.6631 16.4717C22.5131 17.0031 21.9602 17.3119 21.4287 17.1621C20.8974 17.0122 20.5876 16.4601 20.7373 15.9287C20.9138 15.3025 21.0024 14.6546 21 14.0039V11C21 10.7348 20.8945 10.4805 20.707 10.293C20.5195 10.1055 20.2652 10 20 10C19.7349 10.0001 19.4805 10.1055 19.293 10.293C19.1055 10.4805 19 10.7349 19 11C18.9999 11.5522 18.5522 12 18 12C17.4478 11.9999 17.0001 11.5522 17 11V10.001L16.9873 9.84278C16.9624 9.68747 16.9013 9.53936 16.8076 9.41114C16.6825 9.23998 16.5057 9.11229 16.3037 9.04786C16.1019 8.98357 15.8846 8.9857 15.6836 9.05274C15.4826 9.11986 15.3083 9.24918 15.1855 9.42188C14.8656 9.87175 14.241 9.97694 13.791 9.65723C13.6593 9.56361 13.558 9.44334 13.4873 9.30958C13.2372 9.19608 13.0348 8.98096 12.9463 8.69825C12.8994 8.54856 12.8174 8.41125 12.708 8.29884C12.5988 8.18664 12.4645 8.10168 12.3164 8.05079C11.7941 7.87164 11.5154 7.3026 11.6943 6.78028Z" fill="#E4F2F2"/>
<path d="M7.38477 1.06348C7.82106 0.972103 8.27281 0.979135 8.70605 1.08399C9.13928 1.18899 9.5445 1.39002 9.89062 1.67091C10.2367 1.95196 10.5162 2.30748 10.708 2.70997C10.8997 3.11251 10.9998 3.55316 11 3.99903V4.49903C11 5.05126 10.5522 5.49895 10 5.49903C9.44788 5.49884 9 5.0512 9 4.49903V4.00001L8.99316 3.88868C8.98078 3.77862 8.95017 3.67078 8.90234 3.57032C8.83841 3.43628 8.74517 3.31726 8.62988 3.22364C8.5146 3.13019 8.37958 3.06328 8.23535 3.02833C8.09098 2.9934 7.94031 2.99104 7.79492 3.02149C7.25445 3.13455 6.72453 2.78755 6.61133 2.24708C6.49866 1.7069 6.84465 1.17676 7.38477 1.06348Z" fill="#E4F2F2"/>
</svg>
