<svg width="24" height="24" viewBox="0 0 24 24" fill="none" xmlns="http://www.w3.org/2000/svg">
<path fill-rule="evenodd" clip-rule="evenodd" d="M4 2C4.55228 2 5 2.44772 5 3V4.17383C6.16468 4.58594 7 5.69415 7 7V10C7 11.3057 6.16452 12.413 5 12.8252V22C5 22.5523 4.55228 23 4 23C3.44772 23 3 22.5523 3 22V12.8252C1.83548 12.413 1 11.3057 1 10V7C1 5.69415 1.83532 4.58594 3 4.17383V3C3 2.44772 3.44772 2 4 2ZM4 6C3.44772 6 3 6.44772 3 7V10C3 10.5523 3.44772 11 4 11C4.55228 11 5 10.5523 5 10V7C5 6.44772 4.55228 6 4 6Z" fill="#E4F2F2"/>
<path fill-rule="evenodd" clip-rule="evenodd" d="M12 1C12.5523 1 13 1.44772 13 2V3.17383C14.1647 3.58594 15 4.69415 15 6V9C15 10.3057 14.1645 11.413 13 11.8252V14.1406C13.644 14.0487 14.3152 14 15 14C17.0271 14 18.9351 14.4251 20.3721 15.1436C21.7378 15.8265 23 16.9568 23 18.5C23 19.5628 22.3864 20.4472 21.5732 21.0947C20.7544 21.7467 19.6355 22.2471 18.3428 22.5703C18.002 22.6555 17.641 22.555 17.3926 22.3066L16 20.9141V22C16 22.5523 15.5523 23 15 23C12.9729 23 11.0649 22.5749 9.62793 21.8564C8.26217 21.1735 7 20.0432 7 18.5C7 16.9568 8.26217 15.8265 9.62793 15.1436C10.0479 14.9336 10.5083 14.7493 11 14.5928V11.8252C9.83548 11.413 9 10.3057 9 9V6C9 4.69415 9.83532 3.58594 11 3.17383V2C11 1.44772 11.4477 1 12 1ZM15 16C13.2273 16 11.6355 16.3752 10.5225 16.9316C9.33825 17.5237 9 18.1432 9 18.5C9 18.8568 9.33825 19.4763 10.5225 20.0684C11.4215 20.5178 12.6331 20.8482 14 20.959V18.5C14 18.0956 14.2436 17.731 14.6172 17.5762C14.9909 17.4214 15.421 17.507 15.707 17.793L18.3916 20.4775C19.2349 20.2152 19.8853 19.8821 20.3271 19.5303C20.8639 19.1028 21 18.7371 21 18.5C21 18.1432 20.6618 17.5237 19.4775 16.9316C18.3645 16.3752 16.7727 16 15 16ZM12 5C11.4477 5 11 5.44772 11 6V9C11 9.55229 11.4477 10 12 10C12.5523 10 13 9.55229 13 9V6C13 5.44772 12.5523 5 12 5Z" fill="#E4F2F2"/>
</svg>
