<svg width="24" height="24" viewBox="0 0 24 24" fill="none" xmlns="http://www.w3.org/2000/svg">
<path fill-rule="evenodd" clip-rule="evenodd" d="M15.9995 1C16.795 1 17.558 1.31645 18.1206 1.87891C18.4725 2.23081 18.7276 2.66123 18.8696 3.12891C19.3377 3.27078 19.7684 3.5268 20.1206 3.87891C20.6832 4.44151 20.9995 5.20435 20.9995 6C20.9995 6.40323 20.9175 6.79752 20.7642 7.16211C20.9967 7.26639 21.2097 7.42046 21.3843 7.62402C21.7461 8.04628 21.88 8.6031 21.7866 9.16406C21.784 9.17988 21.7812 9.19624 21.7778 9.21191L19.1782 21.2119L19.1763 21.2109C19.065 21.7436 18.7285 22.1747 18.3911 22.4561C18.0522 22.7384 17.5575 22.9998 17.0005 23H7.00049C5.95125 23 5.0264 22.2906 4.82373 21.2109L4.82275 21.2119L2.22314 9.21191C2.21975 9.19623 2.21699 9.17989 2.21435 9.16406C2.12092 8.60297 2.25472 8.04633 2.6167 7.62402C2.79153 7.42024 3.00392 7.26538 3.23682 7.16113C3.12142 6.88673 3.04392 6.59624 3.01416 6.29688L2.99951 6C2.99951 5.20447 3.31596 4.44149 3.87842 3.87891C4.23002 3.5273 4.66023 3.27194 5.12744 3.12988L5.12939 3.12793C5.27139 2.66065 5.52683 2.23058 5.87842 1.87891C6.44091 1.31641 7.20404 1.00013 7.99951 1L8.29639 1.01465C8.92907 1.07754 9.52441 1.34359 9.99951 1.76953C10.5483 1.27742 11.2586 1.00012 11.9995 1C12.7405 1 13.4507 1.27746 13.9995 1.76953C14.5483 1.27742 15.2586 1.00012 15.9995 1ZM15.0728 21H16.9761C16.9798 20.9988 16.986 20.997 16.9927 20.9941C17.0232 20.981 17.0655 20.9559 17.1099 20.9189C17.1544 20.8818 17.189 20.8432 17.2095 20.8125C17.217 20.8011 17.2201 20.7923 17.2222 20.7881L19.7769 9H15.9302L15.0728 21ZM10.9302 21H13.0688L13.9263 9H10.0728L10.9302 21ZM6.77783 20.7881L6.78662 20.8359C6.79701 20.8978 6.82334 20.9319 6.84912 20.9531C6.87706 20.9759 6.92557 21 7.00049 21H8.92627L8.06885 9H4.22412L6.77783 20.7881ZM15.9995 3C15.7345 3.00013 15.4799 3.10555 15.2925 3.29297C15.1051 3.48048 14.9995 3.7349 14.9995 4C14.9995 4.55228 14.5518 5 13.9995 5C13.4474 4.99974 12.9995 4.55212 12.9995 4C12.9995 3.73478 12.8941 3.48051 12.7065 3.29297C12.5424 3.12897 12.327 3.02756 12.0981 3.00488L11.9995 3C11.7345 3.00013 11.4799 3.10555 11.2925 3.29297C11.1051 3.48048 10.9995 3.7349 10.9995 4C10.9995 4.55228 10.5518 5 9.99951 5C9.44745 4.99974 8.99951 4.55212 8.99951 4C8.99951 3.73478 8.89408 3.48051 8.70654 3.29297C8.54243 3.12897 8.32703 3.02756 8.09814 3.00488L7.99951 3C7.73447 3.00013 7.4799 3.10555 7.29248 3.29297C7.10509 3.48048 6.99951 3.7349 6.99951 4C6.99951 4.55228 6.5518 5 5.99951 5C5.73447 5.00013 5.4799 5.10555 5.29248 5.29297C5.10509 5.48048 4.99951 5.7349 4.99951 6L5.00439 6.09863C5.02707 6.32752 5.12848 6.54292 5.29248 6.70703C5.4799 6.89445 5.73447 6.99987 5.99951 7H17.9995C18.2646 7 18.519 6.89442 18.7065 6.70703C18.8941 6.51949 18.9995 6.26522 18.9995 6C18.9995 5.73478 18.8941 5.48051 18.7065 5.29297C18.519 5.10558 18.2646 5 17.9995 5C17.4474 4.99974 16.9995 4.55212 16.9995 4C16.9995 3.73478 16.8941 3.48051 16.7065 3.29297C16.519 3.10558 16.2646 3 15.9995 3Z" fill="#E4F2F2"/>
</svg>
