<svg width="24" height="24" viewBox="0 0 24 24" fill="none" xmlns="http://www.w3.org/2000/svg">
<path d="M12.5 6C13.4283 6 14.3182 6.36901 14.9746 7.02539C15.631 7.68177 16 8.57174 16 9.5C16 10.0523 15.5523 10.5 15 10.5C14.4477 10.5 14 10.0523 14 9.5C14 9.10218 13.8419 8.72076 13.5605 8.43945C13.2792 8.15815 12.8978 8 12.5 8C12.1022 8 11.7208 8.15815 11.4395 8.43945C11.1581 8.72076 11 9.10218 11 9.5V12H13C13.5523 12 14 12.4477 14 13C14 13.5523 13.5523 14 13 14H11V16H15C15.5523 16 16 16.4477 16 17C16 17.5523 15.5523 18 15 18H8C7.44772 18 7 17.5523 7 17C7 16.4477 7.44772 16 8 16H9V14H8C7.44772 14 7 13.5523 7 13C7 12.4477 7.44772 12 8 12H9V9.5C9 8.57174 9.36901 7.68177 10.0254 7.02539C10.6818 6.36901 11.5717 6 12.5 6Z" fill="#E4F2F2"/>
<path fill-rule="evenodd" clip-rule="evenodd" d="M12 1C18.0751 1 23 5.92487 23 12C23 18.0751 18.0751 23 12 23C5.92487 23 1 18.0751 1 12C1 5.92487 5.92487 1 12 1ZM12 3C7.02944 3 3 7.02944 3 12C3 16.9706 7.02944 21 12 21C16.9706 21 21 16.9706 21 12C21 7.02944 16.9706 3 12 3Z" fill="#E4F2F2"/>
</svg>
