<svg width="24" height="24" viewBox="0 0 24 24" fill="none" xmlns="http://www.w3.org/2000/svg">
<path d="M12.5 6C13.4283 6 14.3182 6.36901 14.9746 7.02539C15.631 7.68177 16 8.57174 16 9.5C16 10.0523 15.5523 10.5 15 10.5C14.4477 10.5 14 10.0523 14 9.5C14 9.10218 13.8419 8.72076 13.5605 8.43945C13.2792 8.15815 12.8978 8 12.5 8C12.1022 8 11.7208 8.15815 11.4395 8.43945C11.1581 8.72076 11 9.10218 11 9.5V12H13C13.5523 12 14 12.4477 14 13C14 13.5523 13.5523 14 13 14H11V16H15C15.5523 16 16 16.4477 16 17C16 17.5523 15.5523 18 15 18H8C7.44772 18 7 17.5523 7 17C7 16.4477 7.44772 16 8 16H9V14H8C7.44772 14 7 13.5523 7 13C7 12.4477 7.44772 12 8 12H9V9.5C9 8.57174 9.36901 7.68177 10.0254 7.02539C10.6818 6.36901 11.5717 6 12.5 6Z" fill="#E4F2F2"/>
<path fill-rule="evenodd" clip-rule="evenodd" d="M19 2C20.6569 2 22 3.34315 22 5V19C22 20.6569 20.6569 22 19 22H5C3.34315 22 2 20.6569 2 19V5C2 3.34315 3.34315 2 5 2H19ZM5 4C4.44772 4 4 4.44772 4 5V19C4 19.5523 4.44772 20 5 20H19C19.5523 20 20 19.5523 20 19V5C20 4.44772 19.5523 4 19 4H5Z" fill="#E4F2F2"/>
</svg>
