<svg width="24" height="24" viewBox="0 0 24 24" fill="none" xmlns="http://www.w3.org/2000/svg">
<path d="M17.6924 5.89258C18.0828 5.5023 18.716 5.50249 19.1064 5.89258C20.5025 7.28919 21.4542 9.06838 21.8408 11.0049C22.2274 12.9416 22.0313 14.9497 21.2783 16.7754C20.5252 18.6011 19.249 20.1636 17.6094 21.2646C15.9698 22.3656 14.0404 22.9557 12.0654 22.9619C10.0907 22.968 8.15803 22.3894 6.51172 21.2988C4.86549 20.2081 3.57793 18.6538 2.81348 16.833C2.0493 15.0123 1.84148 13.0052 2.21582 11.0664C2.5903 9.1275 3.53067 7.34285 4.91797 5.9375C5.30582 5.54462 5.93897 5.54019 6.33203 5.92773C6.72504 6.3157 6.72872 6.94875 6.34082 7.3418C5.23105 8.46599 4.47932 9.89431 4.17969 11.4453C3.8802 12.9965 4.04676 14.6029 4.65821 16.0596C5.26977 17.516 6.29939 18.7593 7.61621 19.6318C8.93322 20.5042 10.4798 20.9668 12.0596 20.9619C13.6394 20.9569 15.1826 20.4842 16.4941 19.6035C17.8057 18.7227 18.8272 17.4732 19.4297 16.0127C20.032 14.5522 20.1891 12.9458 19.8799 11.3965C19.5706 9.84733 18.8092 8.42392 17.6924 7.30664C17.3024 6.91605 17.3021 6.2829 17.6924 5.89258Z" fill="#E4F2F2"/>
<path d="M12 1C12.5522 1.00011 13 1.44779 13 2V12C13 12.5522 12.5522 12.9999 12 13C11.4477 13 11 12.5523 11 12V2C11 1.44772 11.4477 1 12 1Z" fill="#E4F2F2"/>
</svg>
