<svg width="24" height="24" viewBox="0 0 24 24" fill="none" xmlns="http://www.w3.org/2000/svg">
<path fill-rule="evenodd" clip-rule="evenodd" d="M1.29297 1.29297C1.6835 0.902482 2.31652 0.902457 2.70703 1.29297L6.84863 5.43457C6.85496 5.44059 6.86099 5.44692 6.86719 5.45312L19.5459 18.1318C19.5521 18.138 19.5584 18.1441 19.5645 18.1504L22.707 21.293C23.0975 21.6835 23.0975 22.3165 22.707 22.707C22.3165 23.0975 21.6835 23.0975 21.293 22.707L18.8604 20.2744C18.1245 20.9788 17.2857 21.5704 16.3682 22.0225C15.1246 22.6352 13.7668 22.9818 12.3818 23.042C10.9971 23.1021 9.61504 22.8736 8.32324 22.3711C7.03131 21.8685 5.85719 21.1033 4.87695 20.123C3.89688 19.143 3.1315 17.9694 2.62891 16.6777C2.12635 15.3858 1.89791 14.0031 1.95801 12.6182C2.01816 11.2332 2.36486 9.87535 2.97754 8.63184C3.42964 7.71428 4.01921 6.87357 4.72363 6.1377L1.29297 2.70703C0.902445 2.31651 0.902445 1.68349 1.29297 1.29297ZM6.13867 7.55273C5.58887 8.13381 5.1276 8.79498 4.77246 9.51562C4.28233 10.5104 4.00417 11.5971 3.95606 12.7051C3.90801 13.8129 4.09022 14.9188 4.49219 15.9521C4.89426 16.9856 5.50688 17.9248 6.29102 18.709C7.0752 19.4931 8.01431 20.1058 9.04785 20.5078C10.0813 20.9098 11.1871 21.092 12.2949 21.0439C13.4029 20.9958 14.4896 20.7187 15.4844 20.2285C16.2052 19.8733 16.8652 19.4105 17.4463 18.8604L6.13867 7.55273Z" fill="#E4F2F2"/>
<path d="M17.6533 5.93262C18.0439 5.54263 18.6771 5.5423 19.0674 5.93262C20.2625 7.12828 21.1352 8.60808 21.6035 10.2324C22.0717 11.8566 22.1202 13.5735 21.7451 15.2217C21.6225 15.7599 21.087 16.0967 20.5488 15.9746C20.0103 15.852 19.6723 15.3159 19.7949 14.7773C20.0949 13.4588 20.0562 12.0855 19.6816 10.7861C19.307 9.48676 18.6093 8.30317 17.6533 7.34668C17.2629 6.95612 17.2629 6.32306 17.6533 5.93262Z" fill="#E4F2F2"/>
<path d="M12 1C12.5523 1.00004 13 1.44774 13 2V6C13 6.55226 12.5523 6.99996 12 7C11.4477 7 11 6.55228 11 6V2C11 1.44772 11.4477 1 12 1Z" fill="#E4F2F2"/>
</svg>
