<svg width="24" height="24" viewBox="0 0 24 24" fill="none" xmlns="http://www.w3.org/2000/svg">
<path fill-rule="evenodd" clip-rule="evenodd" d="M13.0127 0.999953C15.3233 1.02847 17.5318 1.93712 19.1963 3.53316C19.2315 3.55338 19.2665 3.57556 19.2998 3.60054C19.416 3.68774 19.5071 3.7957 19.5732 3.91499C21.1035 5.56594 21.9721 7.72819 22 9.98726V11C22 13.2522 20.2522 14.9998 18 15H14.5L16.1016 17.1357C16.3851 17.0469 16.6872 17 17 17C18.6567 17.0001 20 18.3432 20 20C20 21.6567 18.6567 22.9998 17 23C15.3431 23 14 21.6568 14 20C14 19.3849 14.1844 18.8128 14.5019 18.3369L11.999 15L9.49609 18.3369C9.81389 18.8129 9.99998 19.3846 9.99999 20C9.99999 21.6567 8.65674 22.9998 6.99999 23C5.34314 23 3.99999 21.6568 3.99999 20C4.00003 18.3431 5.34316 17 6.99999 17C7.31263 17 7.61408 17.0479 7.89745 17.1367L9.49999 15H5.99999C3.74771 15 1.99999 13.2522 1.99999 11V9.99995C2.00003 9.4477 2.44773 8.99995 2.99999 8.99995H7.49902L4.7998 5.40034C4.7775 5.3706 4.75614 5.33863 4.7373 5.30659C4.62813 5.12136 4.45817 4.97875 4.25683 4.90327C4.05546 4.82799 3.83384 4.82357 3.62988 4.89156C3.42581 4.95967 3.25061 5.09601 3.13476 5.2773C3.01894 5.45862 2.96919 5.67481 2.99316 5.88863C3.05464 6.43728 2.65991 6.93233 2.11132 6.99409C1.56262 7.05546 1.06741 6.66001 1.00585 6.11128C0.930863 5.44233 1.08773 4.76737 1.45019 4.20015C1.8127 3.63309 2.35957 3.207 2.99804 2.99409C3.63648 2.78142 4.32882 2.7951 4.95898 3.0312C5.55948 3.2563 6.06709 3.67245 6.40917 4.21284L9.99999 8.99995H12V1.99995C12 1.73264 12.1067 1.4759 12.2969 1.28804C12.487 1.10029 12.7455 0.996674 13.0127 0.999953ZM6.99999 19C6.44773 19 6.00003 19.4477 5.99999 20C5.99999 20.5522 6.44771 21 6.99999 21C7.55217 20.9998 7.99999 20.5522 7.99999 20C7.99995 19.4478 7.55214 19.0001 6.99999 19ZM17 19C16.4477 19 16 19.4477 16 20C16 20.5522 16.4477 21 17 21C17.5522 20.9998 18 20.5522 18 20C18 19.4478 17.5521 19.0001 17 19ZM3.99999 11C3.99999 12.1477 4.85228 13 5.99999 13H10.499L8.99902 11H3.99999ZM13 13H18C19.1476 12.9998 20 12.1476 20 11H11.5L13 13ZM14 8.99995L17.334 4.55464C16.3684 3.78247 15.2189 3.27598 14 3.08491V8.99995ZM16.5 8.99995H19.915C19.7479 7.9335 19.3384 6.92062 18.7217 6.03706L16.5 8.99995Z" fill="#E4F2F2"/>
</svg>
