<svg width="24" height="24" viewBox="0 0 24 24" fill="none" xmlns="http://www.w3.org/2000/svg">
<path fill-rule="evenodd" clip-rule="evenodd" d="M17 3C18.5913 3 20.117 3.63259 21.2422 4.75781C22.3674 5.88303 23 7.4087 23 9C23 11.9174 21.8412 14.7154 19.7783 16.7783C19.6804 16.8762 19.5787 16.9697 19.4775 17.0635L20.707 18.293C21.0976 18.6835 21.0976 19.3165 20.707 19.707C20.3165 20.0976 19.6835 20.0976 19.293 19.707L17.8789 18.293C16.285 19.3013 14.4505 19.8918 12.5459 19.9863L12 20C9.90126 20 7.86603 19.3976 6.12012 18.293L4.70703 19.707C4.31651 20.0976 3.68349 20.0976 3.29297 19.707C2.90244 19.3165 2.90244 18.6835 3.29297 18.293L4.52148 17.0635C4.42053 16.9698 4.3194 16.876 4.22168 16.7783C2.15878 14.7154 1 11.9174 1 9C1 7.4087 1.63259 5.88303 2.75781 4.75781C3.88303 3.63259 5.4087 3 7 3C8.5913 3 10.117 3.63259 11.2422 4.75781C11.5268 5.04246 11.7807 5.35209 12 5.68262C12.2193 5.35209 12.4732 5.04246 12.7578 4.75781C13.883 3.63259 15.4087 3 17 3ZM11.9951 12.249C11.7618 12.5953 11.4977 12.9164 11.207 13.207L7.57715 16.8359C8.9154 17.5912 10.4362 18 12 18L12.4463 17.9893C13.8522 17.9195 15.2115 17.5189 16.4219 16.8359L12.793 13.207C12.4932 12.9163 12.226 12.5945 11.9951 12.249ZM7 5C5.93913 5 4.92202 5.42173 4.17188 6.17188C3.42173 6.92202 3 7.93913 3 9C3 11.3869 3.94791 13.6764 5.63574 15.3643C5.7335 15.462 5.83386 15.5567 5.93555 15.6494L9.79297 11.793C10.5344 11.0515 11 10.0964 11 9L10.9951 8.80176C10.9461 7.81307 10.5314 6.87516 9.82812 6.17188C9.07798 5.42173 8.06087 5 7 5ZM17 5C15.9391 5 14.922 5.42173 14.1719 6.17188C13.4217 6.92202 13 7.93913 13 9C13.0038 9.51852 13.1112 10.0312 13.3154 10.5078C13.4949 10.9264 13.7455 11.3103 14.0566 11.6416L14.1943 11.7803L18.0635 15.6494C18.1653 15.5565 18.2663 15.4622 18.3643 15.3643C20.0521 13.6764 21 11.3869 21 9C21 7.93913 20.5783 6.92202 19.8281 6.17188C19.078 5.42173 18.0609 5 17 5Z" fill="#E4F2F2"/>
</svg>
