<svg width="24" height="24" viewBox="0 0 24 24" fill="none" xmlns="http://www.w3.org/2000/svg">
<path d="M17.293 14.293C17.6835 13.9025 18.3165 13.9025 18.707 14.293C19.0975 14.6835 19.0975 15.3166 18.707 15.7071L16.707 17.7071C16.3165 18.0976 15.6835 18.0976 15.293 17.7071L14 16.4141L12.707 17.7071C12.3165 18.0976 11.6835 18.0976 11.293 17.7071L10 16.4141L8.70703 17.7071C8.31652 18.0976 7.68348 18.0976 7.29297 17.7071L5.29297 15.7071C4.90246 15.3166 4.90248 14.6835 5.29297 14.293C5.68349 13.9025 6.31651 13.9025 6.70703 14.293L8 15.586L9.29297 14.293L9.36914 14.2247C9.76191 13.9043 10.3409 13.9269 10.707 14.293L12 15.586L13.293 14.293L13.3691 14.2247C13.7619 13.9043 14.3409 13.9269 14.707 14.293L16 15.586L17.293 14.293Z" fill="#E4F2F2"/>
<path d="M7.36914 8.22466C7.76191 7.90431 8.34092 7.9269 8.70703 8.29302L10.707 10.293C11.0975 10.6835 11.0975 11.3166 10.707 11.7071C10.3165 12.0976 9.68348 12.0976 9.29297 11.7071L8 10.4141L6.70703 11.7071C6.31652 12.0976 5.68348 12.0976 5.29297 11.7071C4.90246 11.3166 4.90248 10.6835 5.29297 10.293L7.29297 8.29302L7.36914 8.22466Z" fill="#E4F2F2"/>
<path d="M15.3691 8.22466C15.7619 7.90431 16.3409 7.9269 16.707 8.29302L18.707 10.293C19.0975 10.6835 19.0975 11.3166 18.707 11.7071C18.3165 12.0976 17.6835 12.0976 17.293 11.7071L16 10.4141L14.707 11.7071C14.3165 12.0976 13.6835 12.0976 13.293 11.7071C12.9025 11.3166 12.9025 10.6835 13.293 10.293L15.293 8.29302L15.3691 8.22466Z" fill="#E4F2F2"/>
<path fill-rule="evenodd" clip-rule="evenodd" d="M12.293 1.29302C12.6835 0.902491 13.3165 0.902491 13.707 1.29302C14.0975 1.68354 14.0975 2.31657 13.707 2.70708C13.515 2.89913 13.3749 3.08646 13.2734 3.25688C13.4478 3.31076 13.6192 3.3754 13.7861 3.45122C14.033 3.56334 14.2669 3.70019 14.4873 3.85552C15.2352 3.29638 16.1062 3.00005 17 3.00005C18.923 3.00005 20.4425 4.367 21.4248 6.14067C22.4228 7.94263 23 10.3668 23 13C23 15.6333 22.4228 18.0575 21.4248 19.8594C20.4425 21.6331 18.923 23 17 23C16.1062 23 15.2352 22.7037 14.4873 22.1446C14.2669 22.2999 14.033 22.4368 13.7861 22.5489C13.2251 22.8036 12.6161 22.9356 12 22.9356C11.3839 22.9356 10.7749 22.8036 10.2139 22.5489C9.96677 22.4366 9.73228 22.3001 9.51172 22.1446C8.76396 22.7034 7.89353 23 7 23C5.07699 23 3.55754 21.6331 2.5752 19.8594C1.57722 18.0575 1.00001 15.6333 1 13C1 10.3668 1.57723 7.94263 2.5752 6.14067C3.55753 4.367 5.07696 3.00005 7 3.00005C7.89354 3.00005 8.76396 3.29669 9.51172 3.85552C9.73229 3.7 9.96676 3.56345 10.2139 3.45122C10.5137 3.31505 10.8274 3.21407 11.1484 3.14946C11.1575 3.11981 11.1665 3.08938 11.1768 3.05864C11.345 2.55399 11.671 1.91505 12.293 1.29302ZM17 5.00005C16.4084 5.00005 15.7766 5.26012 15.2529 5.85845C15.063 6.07544 14.7883 6.20024 14.5 6.20024C14.2117 6.20015 13.9369 6.07548 13.7471 5.85845C13.5293 5.60925 13.2603 5.40936 12.959 5.27251C12.7331 5.16993 12.4927 5.10449 12.2471 5.07817L12 5.0645C11.6691 5.0645 11.3423 5.13573 11.041 5.27251C10.7397 5.40936 10.4707 5.60925 10.2529 5.85845C10.0631 6.07548 9.78834 6.20015 9.5 6.20024C9.21166 6.20024 8.93696 6.07544 8.74707 5.85845C8.22343 5.26012 7.59158 5.00005 7 5.00005C6.12309 5.00005 5.14283 5.63328 4.3252 7.10942C3.52323 8.55744 3 10.6334 3 13C3.00001 15.3667 3.52322 17.4427 4.3252 18.8907C5.14282 20.3668 6.1231 21 7 21C7.59156 21 8.22344 20.7399 8.74707 20.1416L8.82227 20.0645C9.00594 19.8952 9.24765 19.7999 9.5 19.7999C9.78836 19.7999 10.0631 19.9246 10.2529 20.1416C10.4707 20.3908 10.7397 20.5907 11.041 20.7276C11.3423 20.8644 11.6692 20.9356 12 20.9356C12.3308 20.9356 12.6577 20.8644 12.959 20.7276C13.2603 20.5907 13.5293 20.3908 13.7471 20.1416L13.8223 20.0645C14.0058 19.8953 14.2478 19.7999 14.5 19.7999C14.7884 19.7999 15.063 19.9246 15.2529 20.1416C15.7766 20.7399 16.4084 21 17 21C17.8769 21 18.8572 20.3668 19.6748 18.8907C20.4768 17.4427 21 15.3667 21 13C21 10.6334 20.4768 8.55744 19.6748 7.10942C18.8572 5.63328 17.8769 5.00005 17 5.00005Z" fill="#E4F2F2"/>
</svg>
