<svg width="24" height="24" viewBox="0 0 24 24" fill="none" xmlns="http://www.w3.org/2000/svg">
<path fill-rule="evenodd" clip-rule="evenodd" d="M18.5508 1.13037C19.1495 0.961649 19.7829 0.955689 20.3848 1.11279C20.9866 1.26994 21.5358 1.58509 21.9756 2.0249C22.4154 2.46487 22.7307 3.01473 22.8877 3.6167C23.0446 4.21856 23.038 4.85208 22.8691 5.45068C22.7001 6.0492 22.3742 6.59195 21.9258 7.02295C21.4773 7.45391 20.9222 7.75768 20.3174 7.90283L22 9.58545L22.1162 9.70752C22.3788 9.99742 22.5902 10.3307 22.7402 10.6929C22.9118 11.107 23 11.5513 23 11.9995C23 12.4478 22.9118 12.892 22.7402 13.3061C22.5687 13.7203 22.3169 14.0966 22 14.4136L20.3174 16.0972L20.3164 16.0962C20.0652 16.3475 19.752 16.5278 19.4082 16.6177C19.0641 16.7075 18.7017 16.7045 18.3594 16.6079C18.0171 16.5113 17.7064 16.3253 17.46 16.0688C17.2135 15.8123 17.0398 15.4939 16.957 15.1479C16.8945 14.8896 16.7643 14.6511 16.5801 14.4595C16.3954 14.2675 16.1626 14.1285 15.9062 14.0561C15.6497 13.9838 15.378 13.981 15.1201 14.0483C14.8623 14.1157 14.6269 14.2506 14.4385 14.439C14.2501 14.6274 14.1152 14.8629 14.0478 15.1206C13.9806 15.3785 13.9833 15.6502 14.0557 15.9067C14.1281 16.1633 14.2678 16.3958 14.46 16.5806C14.6522 16.7653 14.8901 16.8963 15.1494 16.9585C15.4951 17.0412 15.8119 17.2142 16.0684 17.4604C16.3248 17.7068 16.5118 18.0176 16.6084 18.3599C16.705 18.7021 16.708 19.0646 16.6182 19.4087C16.5395 19.7098 16.3918 19.988 16.1875 20.2212L16.0967 20.3179L14.4141 21.9995C14.0971 22.3164 13.7207 22.5682 13.3066 22.7397C12.8925 22.9113 12.4483 22.9995 12 22.9995C11.5517 22.9995 11.1076 22.9113 10.6934 22.7397C10.2791 22.5682 9.90295 22.3165 9.58593 21.9995L7.90234 20.3169C7.75703 20.9218 7.45268 21.4779 7.02148 21.9263C6.59029 22.3745 6.04686 22.6999 5.44824 22.8687C4.8497 23.0373 4.21693 23.0432 3.61523 22.8862C3.01326 22.729 2.46329 22.4141 2.02343 21.9741C1.58367 21.5341 1.26927 20.9843 1.1123 20.3823C0.955487 19.7805 0.961989 19.1478 1.13086 18.5493C1.29984 17.9507 1.62481 17.4071 2.07324 16.9761C2.52177 16.545 3.07769 16.2413 3.68261 16.0962L2 14.4136C1.68299 14.0966 1.43134 13.7203 1.25976 13.3061C1.08822 12.892 0.999997 12.4478 0.999997 11.9995C1.00003 11.5513 1.08822 11.107 1.25976 10.6929C1.43134 10.2788 1.68306 9.90236 2 9.58545L3.68261 7.90283L3.77929 7.81201C4.01249 7.60774 4.29068 7.46001 4.59179 7.38134C4.93593 7.2915 5.29832 7.29453 5.64062 7.39111C5.9829 7.48771 6.29364 7.67469 6.54004 7.93115C6.78603 8.18736 6.95915 8.5047 7.04199 8.85009L7.10156 9.04052C7.17313 9.22566 7.28142 9.39553 7.41992 9.53955C7.60472 9.73161 7.83722 9.87154 8.09375 9.94384C8.35034 10.0161 8.62194 10.018 8.87988 9.95068C9.13771 9.88328 9.37311 9.74853 9.56152 9.56006C9.74987 9.37158 9.88486 9.13624 9.95215 8.87842C10.0194 8.62049 10.0167 8.34881 9.94433 8.09228C9.87191 7.83577 9.73219 7.60317 9.54004 7.41845C9.34801 7.23391 9.11049 7.1028 8.85156 7.04052C8.50561 6.95773 8.18719 6.78501 7.93066 6.53857C7.6742 6.29215 7.48818 5.98146 7.3916 5.63916C7.29506 5.29686 7.29196 4.93445 7.38183 4.59033C7.47177 4.2464 7.65181 3.9324 7.90332 3.68115L9.58593 1.99951L9.70703 1.8833C9.99707 1.6205 10.331 1.40938 10.6934 1.25927C11.1075 1.08775 11.5517 0.999509 12 0.999509C12.4483 0.999541 12.8925 1.08772 13.3066 1.25927C13.7208 1.43085 14.0971 1.68254 14.4141 1.99951L16.0977 3.6831C16.243 3.07824 16.5473 2.52209 16.9785 2.07373C17.4097 1.62547 17.9521 1.29915 18.5508 1.13037ZM12 2.99951C11.8145 2.99951 11.6304 3.03599 11.459 3.10693C11.2875 3.17796 11.1313 3.28236 11 3.41357L9.3164 5.09619C9.92117 5.24132 10.4773 5.54514 10.9258 5.97607C11.3743 6.40716 11.7001 6.95061 11.8691 7.54931C12.038 8.14777 12.0445 8.7806 11.8877 9.38232C11.7307 9.98428 11.4154 10.5341 10.9756 10.9741C10.5358 11.414 9.98658 11.7291 9.38476 11.8862C8.78288 12.0433 8.14951 12.0374 7.55078 11.8686C6.95228 11.6999 6.40965 11.3744 5.97851 10.9263C5.54726 10.4779 5.24298 9.92181 5.09765 9.31689L3.41406 10.9995C3.2828 11.1308 3.17848 11.287 3.10742 11.4585C3.0364 11.63 3.00003 11.8139 3 11.9995C3 12.1851 3.03644 12.3691 3.10742 12.5405C3.17848 12.7121 3.28277 12.8682 3.41406 12.9995L5.09668 14.6811L5.1875 14.7778C5.3918 15.011 5.53945 15.2892 5.61816 15.5903C5.70802 15.9344 5.70491 16.2969 5.6084 16.6392C5.51182 16.9814 5.3248 17.2922 5.06836 17.5386C4.81192 17.7848 4.4942 17.9587 4.14843 18.0415C3.88954 18.1038 3.65198 18.234 3.45996 18.4185C3.26777 18.6032 3.1281 18.8358 3.05566 19.0923C2.98325 19.3488 2.98061 19.6205 3.04785 19.8784C3.11515 20.1363 3.25007 20.3716 3.43847 20.5601C3.62696 20.7486 3.86218 20.8833 4.12011 20.9507C4.37809 21.018 4.64963 21.0162 4.90625 20.9438C5.16273 20.8715 5.39533 20.7316 5.58008 20.5395C5.76457 20.3477 5.89466 20.1098 5.95703 19.8511L5.99219 19.7222C6.08422 19.4264 6.24456 19.1555 6.45996 18.9312C6.70637 18.6747 7.01708 18.4877 7.35937 18.3911C7.70164 18.2946 8.06413 18.2915 8.4082 18.3813C8.75217 18.4713 9.0661 18.6513 9.31738 18.9028L11 20.5854C11.1313 20.7168 11.2874 20.821 11.459 20.8921C11.6305 20.9631 11.8144 20.9995 12 20.9995C12.1856 20.9995 12.3695 20.9631 12.541 20.8921C12.7125 20.821 12.8687 20.7167 13 20.5854L14.6826 18.9028L14.458 18.8413C13.9403 18.68 13.4657 18.4002 13.0732 18.0229C12.625 17.592 12.2998 17.0491 12.1309 16.4507C11.9619 15.852 11.9554 15.2186 12.1123 14.6167C12.2693 14.0148 12.5837 13.4648 13.0234 13.0249C13.4633 12.585 14.0133 12.27 14.6152 12.1128C15.2169 11.9558 15.8498 11.9618 16.4482 12.1304C17.047 12.2992 17.5902 12.6253 18.0215 13.0737C18.3987 13.466 18.6784 13.94 18.8398 14.4575L18.9023 14.6821L20.5859 12.9995C20.7171 12.8682 20.8216 12.712 20.8926 12.5405C20.9635 12.3691 21 12.185 21 11.9995C21 11.8139 20.9636 11.6299 20.8926 11.4585C20.8393 11.3299 20.7667 11.2103 20.6787 11.103L20.5859 10.9995L18.9033 9.31787C18.6517 9.06653 18.4717 8.75275 18.3818 8.40869C18.292 8.06456 18.295 7.70217 18.3916 7.35986C18.4882 7.01763 18.6742 6.7068 18.9307 6.46045C19.187 6.21423 19.5049 6.04133 19.8506 5.95849L20.041 5.89892C20.2262 5.82741 20.396 5.71902 20.54 5.58056C20.7321 5.39585 20.872 5.1632 20.9443 4.90674C21.0166 4.65025 21.0194 4.37847 20.9521 4.1206C20.8848 3.86283 20.7499 3.62739 20.5615 3.43896C20.3731 3.25051 20.1377 3.11571 19.8799 3.04834C19.6219 2.98098 19.3503 2.98385 19.0937 3.05615C18.8374 3.12843 18.6047 3.26756 18.4199 3.45947C18.2352 3.65155 18.1043 3.88982 18.042 4.14892C17.9592 4.49456 17.7862 4.8125 17.54 5.06884C17.2937 5.3253 16.9829 5.51129 16.6406 5.60791C16.2983 5.70449 15.936 5.70754 15.5918 5.61767C15.2477 5.52777 14.934 5.34778 14.6826 5.09619L13 3.41357C12.8687 3.28229 12.7125 3.17799 12.541 3.10693C12.3695 3.03591 12.1856 2.99954 12 2.99951Z" fill="#E4F2F2"/>
</svg>
