<svg width="24" height="24" viewBox="0 0 24 24" fill="none" xmlns="http://www.w3.org/2000/svg">
<path fill-rule="evenodd" clip-rule="evenodd" d="M12 1C12.0463 1 12.0921 1.00367 12.1367 1.00977C12.4113 1.02855 12.6799 1.1009 12.9248 1.22852C13.2101 1.37733 13.4554 1.59363 13.6397 1.85742L13.6426 1.86035L22.6426 14.8711C22.7998 15.097 22.9082 15.3531 22.9619 15.623C23.016 15.8951 23.0133 16.1765 22.9531 16.4473C22.8929 16.718 22.7765 16.9737 22.6123 17.1973C22.4481 17.4207 22.2393 17.6077 21.999 17.7461L21.9961 17.748L13.4854 22.6084C13.0331 22.866 12.5205 23.0019 12 23.002C11.4794 23.0019 10.967 22.8661 10.5147 22.6084L2.00391 17.748L1.99512 17.7432L1.9961 17.7422C1.75886 17.6036 1.55184 17.4181 1.38966 17.1963C1.22757 16.9744 1.1118 16.7212 1.05176 16.4531C0.991835 16.185 0.987952 15.9065 1.04005 15.6367C1.09228 15.3668 1.19975 15.1094 1.35548 14.8828L1.35743 14.8809L10.3574 1.86133L10.3594 1.85742C10.5436 1.59345 10.7898 1.37741 11.0752 1.22852C11.32 1.10091 11.5888 1.02866 11.8633 1.00977C11.908 1.00364 11.9536 1.00001 12 1ZM3.00391 16.0146L11 20.582V4.44629L3.00391 16.0146ZM13 20.582L21 16.0117L20.9971 16.0088L13 4.44727V20.582Z" fill="#E4F2F2"/>
</svg>
