<svg width="24" height="24" viewBox="0 0 24 24" fill="none" xmlns="http://www.w3.org/2000/svg">
<path d="M18.0097 11C18.562 11 19.0097 11.4477 19.0097 12C19.0097 12.5523 18.562 13 18.0097 13H18C17.4478 12.9999 17 12.5522 17 12C17 11.4478 17.4478 11.0001 18 11H18.0097Z" fill="#E4F2F2"/>
<path fill-rule="evenodd" clip-rule="evenodd" d="M18.2969 1.01465C18.9834 1.0829 19.6289 1.38676 20.1211 1.87891C20.6837 2.44151 21 3.20435 21 4V8.11328C22.2356 9.37637 22.9999 11.1024 23 13V14C22.9999 14.7955 22.6836 15.5596 22.1211 16.1221C21.5585 16.6843 20.7954 17 20 17H19C18.4697 17 17.9609 17.211 17.5859 17.5859C17.2198 17.9522 17.0105 18.446 17.001 18.9629C17.0029 19.18 16.9897 19.3979 16.956 19.6143C16.9358 19.7446 16.9068 19.873 16.874 20H18C18.5521 20 18.9998 20.4479 19 21C18.9998 21.5521 18.5521 22 18 22H9.99998C8.67415 22 7.40242 21.4735 6.46482 20.5361C5.76534 19.8366 5.29474 18.9505 5.10056 17.9951C4.76996 18.0034 4.43781 17.9745 4.11228 17.9004C3.36936 17.7313 2.68977 17.3535 2.15427 16.8115C1.6187 16.2694 1.24888 15.5849 1.08884 14.8398C0.928892 14.0949 0.98539 13.3196 1.25095 12.6055C1.5167 11.8913 1.98175 11.2669 2.58982 10.8076C3.19786 10.3486 3.92507 10.0729 4.68455 10.0127C5.44404 9.95261 6.20519 10.1102 6.87791 10.4678C7.16758 10.6218 7.43439 10.8118 7.67576 11.0293C8.64018 10.1692 9.79302 9.56054 11.0312 9.24609L8.89256 7.10742C8.61602 6.83083 8.39676 6.50196 8.24705 6.14062C8.09736 5.77923 8.02054 5.39116 8.02048 5C8.02059 4.2101 8.33417 3.45224 8.89256 2.89355C9.45136 2.33475 10.2097 2.02055 11 2.02051L11.292 2.03516C11.5831 2.06383 11.8693 2.1347 12.1406 2.24707C12.5021 2.39682 12.8307 2.61688 13.1074 2.89355L15 4.78613V4C15 3.20439 15.3163 2.44151 15.8789 1.87891C16.4415 1.31634 17.2044 1.00004 18 1L18.2969 1.01465ZM11 4.02051C10.7402 4.02055 10.4903 4.12389 10.3066 4.30762C10.1233 4.49123 10.0206 4.74053 10.0205 5C10.0205 5.12843 10.0456 5.25633 10.0947 5.375C10.1439 5.49368 10.2158 5.60248 10.3066 5.69336L13.9072 9.29297C14.193 9.57889 14.2786 10.0093 14.124 10.3828C13.9691 10.7562 13.6044 10.9999 13.2002 11H13C11.4088 11 9.88295 11.6328 8.75779 12.7578C7.69575 13.82 7.07327 15.2392 7.00681 16.7334C7.01436 16.8154 7.01327 16.897 7.00095 16.9766C7.00092 16.9842 6.99998 16.9923 6.99998 17C7.00008 17.7955 7.31637 18.5596 7.87888 19.1221C8.44141 19.6844 9.20458 20 9.99998 20H14.7353C14.8583 19.7871 14.9423 19.5528 14.9804 19.3076C14.9936 19.223 14.9997 19.1378 15.0019 19.0527C15.001 19.0353 15 19.0177 15 19C15 18.9783 15.0006 18.9562 15.001 18.9346C14.9923 18.6762 14.9357 18.4206 14.8291 18.1826C14.6711 17.8301 14.4142 17.5301 14.0898 17.3203C13.7656 17.1107 13.3871 16.9995 13.001 17C12.4489 17.0005 12.0007 16.5531 12 16.001C11.9994 15.4489 12.4469 15.0008 12.999 15C13.7715 14.9991 14.5281 15.2221 15.1767 15.6416C15.4846 15.8408 15.7607 16.0815 16.001 16.3535C16.0558 16.2913 16.1129 16.2309 16.1719 16.1719C16.9219 15.4219 17.9393 15 19 15H20C20.2651 15 20.5195 14.8944 20.707 14.707C20.8943 14.5196 20.9999 14.265 21 14V13C20.9998 10.2525 18.7476 8 16 8H15.7998C15.5348 7.9999 15.2802 7.89441 15.0928 7.70703L11.6933 4.30762C11.6023 4.21663 11.4939 4.14397 11.375 4.09473C11.2857 4.05777 11.1915 4.03479 11.0957 4.02539L11 4.02051ZM4.84177 12.0059C4.46208 12.036 4.09886 12.1748 3.7949 12.4043C3.49094 12.6339 3.25881 12.9457 3.12595 13.3027C2.99316 13.6598 2.96491 14.0474 3.0449 14.4199C3.12491 14.7923 3.30947 15.1343 3.57713 15.4053C3.84489 15.6763 4.18512 15.8656 4.55662 15.9502C4.72417 15.9883 4.89532 16.0026 5.06541 15.9971C5.22226 14.7558 5.66593 13.5704 6.36131 12.5361C6.2348 12.4184 6.09347 12.3163 5.93943 12.2344C5.603 12.0555 5.22161 11.9758 4.84177 12.0059ZM18 3C17.7348 3.00004 17.4804 3.10547 17.2929 3.29297C17.1055 3.4805 17 3.73482 17 4V6.07422C17.7057 6.17607 18.3777 6.38442 19 6.68164V4C19 3.73478 18.8945 3.48051 18.707 3.29297C18.5429 3.12887 18.3276 3.02757 18.0986 3.00488L18 3Z" fill="#E4F2F2"/>
</svg>
