<svg width="24" height="24" viewBox="0 0 24 24" fill="none" xmlns="http://www.w3.org/2000/svg">
<path d="M20.9448 7.41943C21.4588 7.21781 22.0389 7.47087 22.2407 7.98486C22.8727 9.5948 23.1165 11.3316 22.9516 13.0532C22.7867 14.7748 22.2175 16.4334 21.2915 17.894C20.3654 19.3546 19.1082 20.5769 17.6216 21.4604C16.1348 22.344 14.4595 22.8648 12.7339 22.98C11.0084 23.0951 9.27982 22.8015 7.68894 22.1235C6.09785 21.4454 4.6887 20.4013 3.57664 19.0767C2.4647 17.7521 1.68088 16.1838 1.28855 14.4995C0.896264 12.8151 0.906509 11.061 1.31882 9.38135C1.45059 8.84541 1.99178 8.5177 2.52781 8.64893C3.06416 8.78061 3.39289 9.32253 3.26121 9.85889C2.92397 11.2329 2.91496 12.6674 3.23582 14.0454C3.55681 15.4236 4.19803 16.7077 5.10789 17.7915C6.01775 18.8753 7.17134 19.7289 8.47312 20.2837C9.77481 20.8384 11.1892 21.0791 12.601 20.9849C14.0129 20.8906 15.3827 20.4636 16.5991 19.7407C17.8155 19.0178 18.8453 18.0178 19.603 16.8228C20.3605 15.6277 20.8255 14.2702 20.9604 12.8618C21.0952 11.4533 20.8964 10.0325 20.3794 8.71533C20.1776 8.20137 20.431 7.62138 20.9448 7.41943Z" fill="#E4F2F2"/>
<path d="M12.0102 16.9995C12.5623 16.9997 13.0101 17.4475 13.0102 17.9995C13.0102 18.5517 12.5624 18.9993 12.0102 18.9995H12.0005C11.4482 18.9995 11.0005 18.5518 11.0005 17.9995C11.0006 17.4474 11.4483 16.9995 12.0005 16.9995H12.0102Z" fill="#E4F2F2"/>
<path fill-rule="evenodd" clip-rule="evenodd" d="M6.48875 2.47412C8.58676 1.26117 11.0275 0.775187 13.4302 1.09131C15.8328 1.40756 18.065 2.50871 19.7778 4.22314C19.8506 4.29614 19.9099 4.37758 19.9555 4.46435C19.971 4.49366 19.9843 4.52381 19.9966 4.5542C20.1386 4.90506 20.0733 5.31913 19.8012 5.61084C19.7933 5.6194 19.7861 5.62886 19.7778 5.63721L14.7046 10.7095C14.8916 11.1007 15.0004 11.537 15.0005 11.9995C15.0005 13.6563 13.6572 14.9993 12.0005 14.9995C10.3436 14.9995 9.00046 13.6564 9.00046 11.9995C9.00063 10.3428 10.3437 8.99951 12.0005 8.99951C12.4632 8.99956 12.9001 9.1073 13.2915 9.29443L14.7573 7.82861C14.472 7.63854 14.1669 7.47744 13.8471 7.34912C13.216 7.09594 12.5387 6.97462 11.8589 6.9917C11.1791 7.00888 10.5096 7.16415 9.89207 7.44873C9.27442 7.7334 8.72077 8.14121 8.26609 8.64697C7.81159 9.15259 7.46507 9.74601 7.24753 10.3901C7.03004 11.0345 6.94637 11.7172 7.00144 12.395C7.05657 13.0728 7.24919 13.7328 7.56785 14.3335C7.8866 14.9342 8.3256 15.4635 8.85593 15.8892C9.28664 16.2348 9.35484 16.8647 9.00925 17.2954C8.66361 17.7258 8.03463 17.7951 7.60398 17.4497C6.86144 16.8538 6.24754 16.112 5.80125 15.271C5.35504 14.43 5.08546 13.5061 5.00828 12.5571C4.93115 11.6082 5.04752 10.6526 5.35203 9.75049C5.65656 8.84855 6.14238 8.01804 6.77878 7.31006C7.41538 6.60194 8.19037 6.03087 9.05515 5.63232C9.91989 5.23383 10.8572 5.01566 11.8091 4.9917C12.7608 4.96779 13.7077 5.13919 14.5913 5.49365C15.1629 5.72301 15.6998 6.02781 16.1899 6.396L17.6157 4.97021C16.3389 3.94885 14.803 3.28974 13.1694 3.07471C11.2037 2.81606 9.20717 3.21336 7.4907 4.20557C7.01271 4.48154 6.39989 4.31815 6.12351 3.84033C5.84767 3.36251 6.01133 2.75062 6.48875 2.47412ZM12.0005 10.9995C11.4483 10.9995 11.0006 11.4474 11.0005 11.9995C11.0005 12.5518 11.4482 12.9995 12.0005 12.9995C12.5526 12.9993 13.0005 12.5517 13.0005 11.9995C13.0004 11.7461 12.9049 11.5155 12.7495 11.3394C12.734 11.3257 12.7184 11.3121 12.7036 11.2974C12.6883 11.2821 12.6737 11.2655 12.6596 11.2495C12.4836 11.0946 12.2534 10.9996 12.0005 10.9995Z" fill="#E4F2F2"/>
<path d="M17.9331 10.6616C18.4843 10.6302 18.9571 11.0518 18.9887 11.603C19.0521 12.7128 18.8502 13.8221 18.3999 14.8384C17.9495 15.8547 17.2627 16.7492 16.3979 17.4478C15.9683 17.7945 15.3386 17.7278 14.9917 17.2983C14.6448 16.8687 14.7125 16.2391 15.1421 15.8921C15.7597 15.3931 16.2491 14.7537 16.5708 14.0278C16.8925 13.3018 17.037 12.5091 16.9917 11.7163C16.9605 11.1652 17.382 10.6932 17.9331 10.6616Z" fill="#E4F2F2"/>
<path d="M4.01023 4.99951C4.56227 4.99969 5.01007 5.44747 5.01023 5.99951C5.01023 6.55169 4.56237 6.99934 4.01023 6.99951H4.00046C3.44818 6.99951 3.00046 6.5518 3.00046 5.99951C3.00063 5.44736 3.44828 4.99951 4.00046 4.99951H4.01023Z" fill="#E4F2F2"/>
</svg>
