<svg width="24" height="24" viewBox="0 0 24 24" fill="none" xmlns="http://www.w3.org/2000/svg">
<path fill-rule="evenodd" clip-rule="evenodd" d="M11.4492 1.01465C14.1722 0.877889 16.8495 1.75745 18.9609 3.48242C21.0722 5.20736 22.4679 7.65516 22.877 10.3506C23.2488 12.8014 22.7775 15.2973 21.5586 17.4395C21.8368 17.8945 22 18.4276 22 19C22 20.6569 20.6569 22 19 22C18.4276 22 17.8945 21.8368 17.4395 21.5586C15.2973 22.7775 12.8014 23.2488 10.3506 22.877C7.65516 22.4679 5.20736 21.0722 3.48242 18.9609C1.75745 16.8495 0.877889 14.1722 1.01465 11.4492C1.15146 8.72615 2.29473 6.15059 4.22266 4.22266C6.15059 2.29473 8.72615 1.15146 11.4492 1.01465ZM11.5498 3.01269C9.32185 3.12464 7.21411 4.05933 5.63672 5.63672C4.05933 7.21411 3.12464 9.32185 3.01269 11.5498C2.90087 13.7776 3.61998 15.9679 5.03125 17.6953C6.44263 19.4228 8.44586 20.5648 10.6514 20.8994C12.5485 21.1872 14.4782 20.8574 16.165 19.9766C16.0596 19.6703 16 19.3421 16 19C16 18.5373 16.1078 18.1003 16.2949 17.709L13.29 14.7041C12.8988 14.8911 12.4626 15 12 15C10.3432 14.9999 9 13.6568 9 12C9.0001 10.3433 10.3433 9.0001 12 9C13.6568 9 14.9999 10.3432 15 12C15 12.4626 14.8911 12.8988 14.7041 13.29L17.709 16.2949C18.1003 16.1078 18.5373 16 19 16C19.3421 16 19.6703 16.0596 19.9766 16.165C20.8574 14.4782 21.1872 12.5485 20.8994 10.6514C20.5648 8.44586 19.4228 6.44263 17.6953 5.03125C15.9679 3.61998 13.7776 2.90087 11.5498 3.01269ZM19 18C18.7431 18 18.5091 18.0976 18.332 18.2568C18.3202 18.27 18.3095 18.2842 18.2969 18.2969C18.2842 18.3095 18.27 18.3202 18.2568 18.332C18.0976 18.5091 18 18.7431 18 19C18 19.2382 18.0836 19.4571 18.2227 19.6289C18.248 19.654 18.272 19.6808 18.2949 19.709C18.4757 19.8889 18.7248 20 19 20C19.5523 20 20 19.5523 20 19C20 18.7248 19.8889 18.4757 19.709 18.2949C19.6808 18.272 19.654 18.248 19.6289 18.2227C19.4571 18.0836 19.2382 18 19 18ZM12 11C11.4479 11.0001 11.0001 11.4479 11 12C11 12.5522 11.4478 12.9999 12 13C12.2557 13 12.4882 12.903 12.665 12.7451C12.6776 12.7311 12.6897 12.7166 12.7031 12.7031C12.7166 12.6897 12.7311 12.6776 12.7451 12.665C12.903 12.4882 13 12.2557 13 12C12.9999 11.4478 12.5522 11 12 11Z" fill="#E4F2F2"/>
</svg>
