<svg width="24" height="24" viewBox="0 0 24 24" fill="none" xmlns="http://www.w3.org/2000/svg">
<path fill-rule="evenodd" clip-rule="evenodd" d="M13.5908 14.5508C14.0529 14.3432 14.6062 14.516 14.8652 14.9639L17.3379 19.2461C17.4784 19.4896 17.5657 19.7604 17.5947 20.04C17.6237 20.3198 17.5936 20.6029 17.5059 20.8701C17.4181 21.1372 17.275 21.3828 17.0859 21.5908C16.8967 21.799 16.665 21.9653 16.4072 22.0781C15.0174 22.6859 13.5169 23 12 23C10.483 23 8.98164 22.686 7.59179 22.0781C7.33419 21.9654 7.10324 21.7989 6.91406 21.5908C6.72498 21.3828 6.58092 21.1372 6.49316 20.8701C6.40548 20.603 6.37537 20.3197 6.40429 20.04C6.43327 19.7605 6.52065 19.4896 6.66113 19.2461L9.13378 14.9639L9.18945 14.8779C9.48587 14.4671 10.0517 14.3391 10.5 14.5977C10.9559 14.8609 11.4736 15 12 15C12.5265 14.9999 13.0441 14.8609 13.5 14.5977L13.5908 14.5508ZM13.582 16.7412C13.0739 16.9108 12.54 17 12 17C11.4595 17 10.9245 16.9111 10.416 16.7412L8.39355 20.2461L8.82421 20.4209C9.83788 20.8031 10.9141 21 12 21C13.2409 21 14.4685 20.7432 15.6055 20.2461L13.582 16.7412Z" fill="#E4F2F2"/>
<path fill-rule="evenodd" clip-rule="evenodd" d="M6.23535 2.79981C6.51028 2.73982 6.79484 2.73843 7.07031 2.79591C7.34591 2.85349 7.60692 2.96867 7.83496 3.1338C8.06273 3.29877 8.25292 3.51037 8.39355 3.75391L10.8662 8.03614C11.1422 8.51441 10.9782 9.12624 10.5 9.40235C10.0441 9.66557 9.66562 10.0442 9.40234 10.5C9.13912 10.9559 9.00006 11.4735 9 12C8.99991 12.5522 8.55221 13 8 13H3C2.98146 13 2.96284 13.0001 2.94433 12.999C2.67262 12.9839 2.40663 12.9134 2.16308 12.792C1.91948 12.6705 1.70296 12.5 1.52734 12.292C1.35183 12.0841 1.22054 11.8424 1.1416 11.582C1.06266 11.3215 1.03774 11.0469 1.06836 10.7764C1.23697 9.26962 1.7157 7.81411 2.47363 6.50098C3.2319 5.18735 4.25356 4.04436 5.47461 3.14454L5.65039 3.02833C5.8317 2.92206 6.02916 2.84482 6.23535 2.79981ZM6.66113 4.75391C5.66203 5.49014 4.82552 6.42517 4.20507 7.50001C3.58469 8.57479 3.1935 9.76671 3.05566 11H7.10253C7.20977 10.475 7.39983 9.96783 7.66992 9.50001C7.93999 9.03231 8.28362 8.61409 8.68457 8.2588L6.66113 4.75391Z" fill="#E4F2F2"/>
<path d="M12.0098 11C12.562 11 13.0097 11.4478 13.0098 12C13.0098 12.5523 12.562 13 12.0098 13H12C11.4477 13 11 12.5523 11 12C11.0001 11.4478 11.4478 11 12 11H12.0098Z" fill="#E4F2F2"/>
<path fill-rule="evenodd" clip-rule="evenodd" d="M16.9297 2.79591C17.2052 2.73843 17.4897 2.73982 17.7646 2.79981C18.0396 2.85984 18.2989 2.97746 18.5254 3.14454L18.9736 3.49317C19.9976 4.33266 20.8629 5.35151 21.5264 6.50098C22.2843 7.81411 22.763 9.26963 22.9316 10.7764C22.9623 11.0469 22.9373 11.3215 22.8584 11.582C22.7794 11.8424 22.6482 12.0841 22.4727 12.292C22.297 12.5 22.0805 12.6705 21.8369 12.792C21.5934 12.9134 21.3274 12.9839 21.0557 12.999C21.0371 13.0001 21.0186 13 21 13H16C15.4478 13 15.0001 12.5522 15 12C14.9999 11.4736 14.8609 10.9559 14.5977 10.5C14.3344 10.0442 13.9559 9.66557 13.5 9.40235C13.0217 9.12624 12.8577 8.51442 13.1338 8.03614L15.6055 3.75391C15.7461 3.51018 15.9371 3.29887 16.165 3.1338C16.3931 2.96865 16.6541 2.85349 16.9297 2.79591ZM15.3144 8.2588C15.7156 8.61419 16.0599 9.03211 16.3301 9.50001C16.6002 9.96782 16.7902 10.475 16.8975 11H20.9443C20.8065 9.76672 20.4153 8.57478 19.7949 7.50001C19.1745 6.42519 18.3379 5.49013 17.3389 4.75391L15.3144 8.2588Z" fill="#E4F2F2"/>
</svg>
