<svg width="24" height="24" viewBox="0 0 24 24" fill="none" xmlns="http://www.w3.org/2000/svg">
<path d="M4.21777 4.22607C4.60809 3.83571 5.24121 3.83593 5.63184 4.22607C6.02219 4.61638 6.02294 5.24951 5.63281 5.64013C3.94729 7.32765 3 9.61538 3 12.0005C3.00012 14.3855 3.94735 16.6734 5.63281 18.3608C6.02268 18.7516 6.02244 19.3847 5.63184 19.7749C5.24117 20.165 4.60806 20.1644 4.21777 19.7739C2.15774 17.7115 1.00012 14.9155 1 12.0005C1 9.08534 2.15767 6.2886 4.21777 4.22607Z" fill="#E4F2F2"/>
<path d="M18.3682 4.22607C18.7588 3.83597 19.3919 3.83575 19.7822 4.22607C21.8423 6.28859 23 9.08536 23 12.0005C22.9999 14.9155 21.8422 17.7115 19.7822 19.7739C19.3919 20.1643 18.7588 20.165 18.3682 19.7749C17.9774 19.3846 17.9779 18.7516 18.3682 18.3608C20.0536 16.6734 20.9999 14.3854 21 12.0005C21 9.61558 20.0534 7.32761 18.3682 5.64013C17.978 5.24952 17.9778 4.6164 18.3682 4.22607Z" fill="#E4F2F2"/>
<path d="M7.04492 7.05517C7.43501 6.66442 8.0681 6.66334 8.45898 7.05322C8.84969 7.44325 8.85066 8.07639 8.46094 8.46728C7.52525 9.40469 6.99902 10.676 6.99902 12.0005C6.99914 13.3249 7.52524 14.5954 8.46094 15.5327C8.8509 15.9236 8.84977 16.5567 8.45898 16.9468C8.0681 17.3367 7.43502 17.3366 7.04492 16.9458C5.7349 15.6335 4.99914 13.8547 4.99902 12.0005C4.99902 10.1463 5.73508 8.36753 7.04492 7.05517Z" fill="#E4F2F2"/>
<path d="M15.541 7.05322C15.9319 6.6634 16.565 6.66444 16.9551 7.05517C18.2649 8.36753 19.001 10.1463 19.001 12.0005C19.0009 13.8547 18.2651 15.6335 16.9551 16.9458C16.565 17.3365 15.9319 17.3367 15.541 16.9468C15.1502 16.5567 15.1491 15.9236 15.5391 15.5327C16.4748 14.5954 17.0009 13.3249 17.001 12.0005C17.001 10.676 16.4748 9.4047 15.5391 8.46728C15.1493 8.07641 15.1503 7.44329 15.541 7.05322Z" fill="#E4F2F2"/>
<path fill-rule="evenodd" clip-rule="evenodd" d="M12 9.00048C13.6569 9.00048 15 10.3436 15 12.0005C14.9998 13.6571 13.6567 15.0005 12 15.0005C10.3433 15.0005 9.00025 13.6571 9 12.0005C9 10.3436 10.3431 9.00048 12 9.00048ZM12 11.0005C11.4477 11.0005 11 11.4482 11 12.0005C11.0002 12.5526 11.4479 13.0005 12 13.0005C12.5521 13.0005 12.9998 12.5526 13 12.0005C13 11.4482 12.5523 11.0005 12 11.0005Z" fill="#E4F2F2"/>
</svg>
