<svg width="24" height="24" viewBox="0 0 24 24" fill="none" xmlns="http://www.w3.org/2000/svg">
<path fill-rule="evenodd" clip-rule="evenodd" d="M12 6.00001C13.6568 6.00008 15 7.3432 15 9.00001C15 10.1842 14.3119 11.2046 13.3154 11.6924L16.9395 21.6582C17.1281 22.1771 16.8606 22.7507 16.3418 22.9395C15.8229 23.1282 15.2494 22.8606 15.0606 22.3418L13.8457 19H10.1543L8.93946 22.3418C8.75066 22.8606 8.17713 23.1281 7.65821 22.9395C7.13931 22.7507 6.87189 22.1772 7.06056 21.6582L10.6836 11.6924C9.68746 11.2045 9.00006 10.184 9.00001 9.00001C9.00001 7.34316 10.3432 6.00001 12 6.00001ZM10.8818 17H13.1182L12 13.9248L10.8818 17ZM12 8.00001C11.4477 8.00001 11 8.44773 11 9.00001C11.0001 9.55224 11.4478 10 12 10C12.5522 9.99994 12.9999 9.5522 13 9.00001C13 8.44777 12.5522 8.00008 12 8.00001Z" fill="#E4F2F2"/>
<path d="M4.19239 1.19239C4.58277 0.802121 5.21593 0.802364 5.60646 1.19239C5.99695 1.58289 5.99688 2.21592 5.60646 2.60646C2.0972 6.11582 2.09738 11.8831 5.60646 15.3926C5.99695 15.7831 5.99688 16.4161 5.60646 16.8067C5.21592 17.197 4.58285 17.1971 4.19239 16.8067C-0.097734 12.5161 -0.0979114 5.48281 4.19239 1.19239Z" fill="#E4F2F2"/>
<path d="M18.3916 1.19337C18.7815 0.802749 19.4147 0.801942 19.8057 1.19142C20.8256 2.2093 21.6353 3.41903 22.1875 4.75001C22.7396 6.081 23.0243 7.50828 23.0244 8.94923C23.0244 10.3902 22.7396 11.8174 22.1875 13.1484C21.6353 14.4796 20.8257 15.689 19.8057 16.707C19.4148 17.0971 18.7817 17.0969 18.3916 16.7061C18.0019 16.3151 18.0028 15.682 18.3936 15.292C19.2274 14.4599 19.8884 13.4709 20.3399 12.3828C20.7912 11.2946 21.0244 10.1273 21.0244 8.94923C21.0243 7.7713 20.7912 6.60466 20.3399 5.51661C19.8885 4.42864 19.2273 3.43951 18.3936 2.60743C18.0031 2.21736 18.0019 1.58419 18.3916 1.19337Z" fill="#E4F2F2"/>
<path d="M15.4932 4.09278C15.8837 3.70246 16.5168 3.70233 16.9072 4.09278C19.254 6.43964 19.5402 10.0646 17.8506 12.7959C17.5601 13.2655 16.9433 13.4105 16.4736 13.1201C16.0044 12.8296 15.8593 12.2136 16.1494 11.7442C17.3795 9.75564 17.1461 7.15989 15.4932 5.50685C15.1027 5.11632 15.1027 4.48331 15.4932 4.09278Z" fill="#E4F2F2"/>
<path d="M7.08107 4.00587C7.46451 3.60875 8.09679 3.59732 8.49415 3.98048C8.89125 4.36404 8.90298 4.99725 8.51954 5.39454C7.72539 6.21741 7.22873 7.28182 7.10743 8.41896C6.98623 9.55588 7.24709 10.7011 7.84962 11.6729C8.14036 12.1421 7.99638 12.7587 7.52735 13.0498C7.0582 13.3408 6.44164 13.1964 6.1504 12.7276C5.31322 11.3776 4.94982 9.78652 5.11818 8.20704C5.28667 6.62741 5.97787 5.14894 7.08107 4.00587Z" fill="#E4F2F2"/>
</svg>
