<svg width="24" height="24" viewBox="0 0 24 24" fill="none" xmlns="http://www.w3.org/2000/svg">
<path d="M9.29297 3.29295C9.68349 2.90243 10.3165 2.90243 10.707 3.29295L15.4141 7.99999H19C19.5523 7.99999 20 8.4477 20 8.99999C20 9.55224 19.5523 9.99999 19 9.99999H15.4141L11.4141 14H19C19.5523 14 20 14.4477 20 15C20 15.5522 19.5523 16 19 16H11.4141L14.707 19.293C15.0975 19.6835 15.0975 20.3165 14.707 20.707C14.3165 21.0975 13.6835 21.0975 13.293 20.707L8.58594 16H5C4.44774 16 4.00004 15.5522 4 15C4 14.4477 4.44772 14 5 14H8.58594L12.5859 9.99999H5C4.44774 9.99999 4.00004 9.55224 4 8.99999C4 8.4477 4.44772 7.99999 5 7.99999H12.5859L9.29297 4.70702C8.90246 4.3165 8.90248 3.68348 9.29297 3.29295Z" fill="#E4F2F2"/>
</svg>
