<svg width="24" height="24" viewBox="0 0 24 24" fill="none" xmlns="http://www.w3.org/2000/svg">
<path d="M16.0098 8.0005C16.5621 8.0005 17.0098 8.44822 17.0098 9.0005C17.0096 9.55263 16.5619 10.0005 16.0098 10.0005H16C15.4478 10.0005 15.0002 9.55263 15 9.0005C15 8.44822 15.4477 8.0005 16 8.0005H16.0098Z" fill="#E4F2F2"/>
<path fill-rule="evenodd" clip-rule="evenodd" d="M12.5322 1.2798C13.1374 1.04107 13.7918 0.953644 14.4385 1.02491C15.0851 1.09623 15.7045 1.32413 16.2432 1.68898C16.5686 1.90941 16.8582 2.17618 17.1045 2.47902C17.2562 2.39729 17.4134 2.32494 17.5752 2.2632C18.1374 2.04876 18.7413 1.96405 19.3408 2.01515C19.9404 2.06631 20.5213 2.25159 21.0391 2.55812C21.5568 2.86468 21.9989 3.28463 22.332 3.78566C22.6651 4.28668 22.8815 4.85668 22.9639 5.45265C23.0462 6.0487 22.9924 6.65637 22.8076 7.22902C22.6228 7.80158 22.3117 8.32579 21.8965 8.76124C21.7724 8.89132 21.6386 9.01088 21.499 9.12257L22.6904 10.8208C22.7279 10.8743 22.7607 10.932 22.7871 10.9917C22.9622 11.3887 23.0307 11.8248 22.9863 12.2564C22.9419 12.6879 22.7863 13.1006 22.5342 13.4536C22.282 13.8067 21.9418 14.0881 21.5479 14.27C21.154 14.4519 20.7194 14.5286 20.2871 14.4917C20.2637 14.4897 20.24 14.4866 20.2168 14.4829L17.3447 14.0298L17.334 14.0288C17.0451 13.98 16.7482 13.9945 16.4658 14.0728C16.1833 14.1511 15.9209 14.2911 15.6982 14.4819C15.4757 14.6728 15.2974 14.9101 15.1768 15.1773C15.0561 15.4445 14.9959 15.7357 15 16.0288C15.0005 16.0651 14.9984 16.1009 14.9951 16.1362C14.9895 16.3004 14.9762 16.4651 14.9502 16.6284C14.9302 16.7542 14.9018 16.8779 14.8701 17.0005H16C16.5523 17.0005 17 17.4482 17 18.0005C16.9998 18.5526 16.5522 19.0005 16 19.0005H4C3.73478 19.0005 3.48051 19.1059 3.29297 19.2935C3.10554 19.481 3 19.7354 3 20.0005C3.00009 20.2656 3.10551 20.5201 3.29297 20.7075C3.48049 20.895 3.73486 21.0005 4 21.0005H13C13.5523 21.0005 14 21.4482 14 22.0005C13.9998 22.5526 13.5522 23.0005 13 23.0005H4C3.20443 23.0005 2.4415 22.6841 1.87891 22.1216C1.31638 21.5591 1.00009 20.796 1 20.0005C1 19.2049 1.3164 18.442 1.87891 17.8794C2.37109 17.3872 3.01655 17.0835 3.70312 17.0151L4 17.0005C3.35857 16.1452 3.0041 15.1007 3 14.0191C2.99664 12.8894 3.23267 11.7707 3.69238 10.7388C4.15208 9.70692 4.82496 8.78379 5.66699 8.03077C6.50908 7.27777 7.50148 6.71163 8.57812 6.36964C9.08703 6.20801 9.60979 6.09974 10.1377 6.04249C10.1372 6.04061 10.1372 6.03851 10.1367 6.03663C9.96823 5.40815 9.95527 4.74727 10.0996 4.1128C10.244 3.47848 10.5411 2.88868 10.9648 2.39503C11.3886 1.90137 11.927 1.51862 12.5322 1.2798ZM14.2188 3.01222C13.8955 2.97667 13.5681 3.02079 13.2656 3.14015C12.9631 3.25956 12.6942 3.45102 12.4824 3.69777C12.2705 3.94462 12.122 4.23993 12.0498 4.55714C11.9777 4.87417 11.9842 5.20403 12.0684 5.51808C12.1526 5.8322 12.3122 6.12134 12.5332 6.35987C12.8176 6.66664 12.8812 7.11849 12.6924 7.49171C12.5033 7.86501 12.1013 8.08152 11.6855 8.0337C10.8439 7.9369 9.99107 8.01943 9.18359 8.27589C8.37613 8.53238 7.63155 8.95725 7 9.52198C6.36873 10.0866 5.86425 10.7786 5.51953 11.5523C5.17486 12.3259 4.99761 13.1643 5 14.0112C5.00298 14.8049 5.32054 15.5653 5.88281 16.1255C6.44508 16.6856 7.20637 17.0005 8 17.0005H12.7314C12.8534 16.7894 12.9369 16.5569 12.9756 16.314C13.0358 15.9349 12.9855 15.5462 12.8311 15.1948C12.6764 14.8434 12.4238 14.5433 12.1035 14.3316C11.7832 14.1198 11.4083 14.0052 11.0244 14.0005C10.4724 13.9939 10.0298 13.5408 10.0361 12.9888C10.0427 12.4366 10.4957 11.994 11.0479 12.0005C11.8159 12.0097 12.5653 12.24 13.2061 12.6636C13.5016 12.859 13.7671 13.0928 13.999 13.356C14.122 13.2164 14.2546 13.0851 14.3965 12.9634C14.8417 12.5818 15.3657 12.3028 15.9307 12.146C16.4919 11.9904 17.0808 11.9588 17.6553 12.0542L20.4805 12.4995C20.5592 12.5025 20.6383 12.4877 20.71 12.4546C20.7885 12.4182 20.8569 12.362 20.9072 12.2915C20.9575 12.2211 20.9881 12.1383 20.9971 12.0523C21.0035 11.9896 20.9974 11.926 20.9805 11.8657L19.2383 9.38234C19.061 9.12936 19.0104 8.80836 19.1016 8.5132C19.1928 8.21786 19.4158 7.98144 19.7051 7.87257C19.9866 7.76665 20.2407 7.59808 20.4482 7.38038C20.6558 7.16269 20.8119 6.901 20.9043 6.61476C20.9966 6.32862 21.0235 6.02491 20.9824 5.72706C20.9412 5.42919 20.8334 5.14352 20.667 4.89308C20.5004 4.64262 20.2783 4.43307 20.0195 4.2798C19.7607 4.12663 19.4705 4.03293 19.1709 4.00734C18.8712 3.98181 18.5691 4.02418 18.2881 4.13136C18.1654 4.17815 18.049 4.23858 17.9385 4.30812C17.9775 4.5306 17.9991 4.75652 18 4.9839C18.0023 5.53617 17.5562 5.9855 17.0039 5.9878C16.4519 5.98995 16.0025 5.54466 16 4.99269C15.9986 4.66744 15.9176 4.3471 15.7646 4.06007C15.6116 3.773 15.3914 3.52671 15.1221 3.34425C14.8527 3.16179 14.5421 3.04786 14.2188 3.01222Z" fill="#E4F2F2"/>
</svg>
