<svg width="24" height="24" viewBox="0 0 24 24" fill="none" xmlns="http://www.w3.org/2000/svg">
<path fill-rule="evenodd" clip-rule="evenodd" d="M12.293 1.29296C12.6835 0.902538 13.3165 0.90248 13.707 1.29296C14.0974 1.68346 14.0974 2.31652 13.707 2.70702L12.1064 4.30663C11.6972 4.71609 11.697 5.28394 12.1064 5.69335L18.3066 11.8926C18.7161 12.302 19.2829 12.3019 19.6924 11.8926L21.293 10.293C21.6835 9.90254 22.3165 9.90248 22.707 10.293C23.0974 10.6835 23.0974 11.3165 22.707 11.707L21.1064 13.3066C19.9259 14.487 18.1139 14.4967 16.9229 13.3359C16.0871 13.8704 15.121 14.1074 14.1777 14.0361L6.10742 22.1064C5.54868 22.6652 4.79017 22.9794 4 22.9795C3.20987 22.9794 2.45229 22.6651 1.89355 22.1064C1.33481 21.5477 1.02061 20.7902 1.02051 20C1.02057 19.2098 1.33477 18.4514 1.89355 17.8926L10.084 9.70116C10.0249 8.80729 10.218 7.90042 10.6865 7.10058C9.50241 5.90995 9.50416 4.08098 10.6924 2.89257L12.293 1.29296ZM3.30762 19.3066C3.1239 19.4903 3.02057 19.7402 3.02051 20C3.02061 20.2597 3.12395 20.5087 3.30762 20.6924C3.49128 20.876 3.74031 20.9794 4 20.9795C4.25974 20.9794 4.50969 20.876 4.69336 20.6924L12.085 13.3008C11.83 13.1251 11.5886 12.9191 11.3672 12.6807C11.1316 12.4269 10.9279 12.1502 10.7549 11.8584L3.30762 19.3066ZM12.1963 8.61132C11.9144 9.50547 12.124 10.5566 12.832 11.3193C13.5005 12.0392 14.5387 12.2402 15.4482 11.8623L12.1963 8.61132Z" fill="#E4F2F2"/>
<path d="M15.0928 4.09277C15.4833 3.70228 16.1163 3.70235 16.5068 4.09277L19.9072 7.49316C20.2974 7.88371 20.2976 8.51682 19.9072 8.90722C19.5168 9.29753 18.8837 9.29732 18.4932 8.90722L15.0928 5.50683C14.7024 5.11632 14.7024 4.48326 15.0928 4.09277Z" fill="#E4F2F2"/>
</svg>
