<svg width="24" height="24" viewBox="0 0 24 24" fill="none" xmlns="http://www.w3.org/2000/svg">
<path fill-rule="evenodd" clip-rule="evenodd" d="M12 9C13.3059 9 14.4141 9.83532 14.8262 11H17C17 10.4477 17.4477 10 18 10C18.5523 10 19 10.4477 19 11V13C19 13.5523 18.5523 14 18 14C17.4477 14 17 13.5523 17 13H14.8262C14.4141 14.1647 13.3059 15 12 15C10.6941 15 9.58594 14.1647 9.17383 13H7C7 13.5523 6.55228 14 6 14C5.44772 14 5 13.5523 5 13V11C5 10.4477 5.44772 10 6 10C6.55228 10 7 10.4477 7 11H9.17383C9.58594 9.83532 10.6941 9 12 9ZM12 11C11.4477 11 11 11.4477 11 12C11 12.5523 11.4477 13 12 13C12.5523 13 13 12.5523 13 12C13 11.4477 12.5523 11 12 11Z" fill="#E4F2F2"/>
<path fill-rule="evenodd" clip-rule="evenodd" d="M20 5C20.5523 5 21 5.44772 21 6V7H22L22.1025 7.00488C22.6067 7.05621 23 7.48232 23 8V16C23 16.5523 22.5523 17 22 17H21V18C21 18.5523 20.5523 19 20 19H4C3.44772 19 3 18.5523 3 18V17H2C1.44772 17 1 16.5523 1 16V8C1 7.44772 1.44772 7 2 7H3V6L3.00488 5.89746C3.05621 5.39333 3.48232 5 4 5H20ZM5 8L4.99512 8.10254C4.94379 8.60667 4.51768 9 4 9H3V15H4L4.10254 15.0049C4.60667 15.0562 5 15.4823 5 16V17H19V16C19 15.4477 19.4477 15 20 15H21V9H20C19.4477 9 19 8.55228 19 8V7H5V8Z" fill="#E4F2F2"/>
</svg>
