<svg width="24" height="24" viewBox="0 0 24 24" fill="none" xmlns="http://www.w3.org/2000/svg">
<path d="M12.5 6.00001C13.4283 6.00001 14.3182 6.36902 14.9746 7.0254C15.631 7.68177 16 8.57175 16 9.50001C16 10.0523 15.5523 10.5 15 10.5C14.4477 10.5 14 10.0523 14 9.50001C14 9.10219 13.8418 8.72076 13.5605 8.43946C13.2792 8.15816 12.8978 8.00001 12.5 8.00001C12.1022 8.00001 11.7208 8.15816 11.4395 8.43946C11.1582 8.72076 11 9.10219 11 9.50001V12H13C13.5523 12 14 12.4477 14 13C14 13.5523 13.5523 14 13 14H11V16H15C15.5523 16 16 16.4477 16 17C16 17.5523 15.5523 18 15 18H8C7.44772 18 7 17.5523 7 17C7 16.4477 7.44772 16 8 16H9V14H8C7.44772 14 7 13.5523 7 13C7 12.4477 7.44772 12 8 12H9V9.50001C9 8.57175 9.36902 7.68177 10.0254 7.0254C10.6818 6.36902 11.5717 6.00001 12.5 6.00001Z" fill="#E4F2F2"/>
<path fill-rule="evenodd" clip-rule="evenodd" d="M19.5527 1.10548C19.8626 0.950522 20.2306 0.967344 20.5254 1.14942C20.8202 1.33163 21 1.65343 21 2.00001V22C21 22.3466 20.8202 22.6684 20.5254 22.8506C20.2306 23.0327 19.8626 23.0495 19.5527 22.8945L18 22.1182L16.4473 22.8945C16.1657 23.0353 15.8343 23.0353 15.5527 22.8945L14 22.1182L12.4473 22.8945C12.1657 23.0353 11.8343 23.0353 11.5527 22.8945L10 22.1182L8.44727 22.8945C8.16574 23.0353 7.83426 23.0353 7.55273 22.8945L6 22.1182L4.44727 22.8945C4.13735 23.0495 3.76939 23.0327 3.47461 22.8506C3.1798 22.6684 3 22.3466 3 22V2.00001C3 1.65343 3.1798 1.33163 3.47461 1.14942C3.76939 0.967344 4.13736 0.950522 4.44727 1.10548L6 1.88184L7.55273 1.10548L7.66016 1.05958C7.91613 0.967056 8.20081 0.982251 8.44727 1.10548L10 1.88184L11.5527 1.10548L11.6602 1.05958C11.9161 0.967056 12.2008 0.982251 12.4473 1.10548L14 1.88184L15.5527 1.10548L15.6602 1.05958C15.9161 0.967056 16.2008 0.982251 16.4473 1.10548L18 1.88184L19.5527 1.10548ZM14.4473 3.89454C14.1657 4.0353 13.8343 4.0353 13.5527 3.89454L12 3.11817L10.4473 3.89454C10.1657 4.0353 9.83426 4.0353 9.55273 3.89454L8 3.11817L6.44727 3.89454C6.16574 4.0353 5.83426 4.0353 5.55273 3.89454L5 3.61817V20.3818L5.55273 20.1055C5.83426 19.9647 6.16574 19.9647 6.44727 20.1055L8 20.8818L9.55273 20.1055C9.83426 19.9647 10.1657 19.9647 10.4473 20.1055L12 20.8818L13.5527 20.1055C13.8343 19.9647 14.1657 19.9647 14.4473 20.1055L16 20.8818L17.5527 20.1055C17.8343 19.9647 18.1657 19.9647 18.4473 20.1055L19 20.3818V3.61817L18.4473 3.89454C18.1657 4.0353 17.8343 4.0353 17.5527 3.89454L16 3.11817L14.4473 3.89454Z" fill="#E4F2F2"/>
</svg>
