<svg width="24" height="24" viewBox="0 0 24 24" fill="none" xmlns="http://www.w3.org/2000/svg">
<path fill-rule="evenodd" clip-rule="evenodd" d="M12 5.50001C12.5523 5.50001 13 5.94773 13 6.50001V7.00001H16C16.5523 7.00001 17 7.44773 17 8.00001C17 8.55229 16.5523 9.00001 16 9.00001H13V11H14C14.7956 11 15.5585 11.3163 16.1211 11.8789C16.6837 12.4415 17 13.2044 17 14C17 14.7957 16.6837 15.5585 16.1211 16.1211C15.5585 16.6837 14.7957 17 14 17H13V17.5C13 18.0523 12.5523 18.5 12 18.5C11.4477 18.5 11 18.0523 11 17.5V17H8C7.44772 17 7 16.5523 7 16C7 15.4477 7.44772 15 8 15H11V13H10C9.20435 13 8.44151 12.6837 7.87891 12.1211C7.38671 11.6289 7.08291 10.9835 7.01465 10.2969L7 10C7 9.20436 7.3163 8.44152 7.87891 7.87891C8.44151 7.31631 9.20435 7.00001 10 7.00001H11V6.50001C11 5.94773 11.4477 5.50001 12 5.50001ZM13 15H14C14.2652 15 14.5195 14.8946 14.707 14.707C14.8946 14.5195 15 14.2652 15 14C15 13.7348 14.8946 13.4805 14.707 13.293C14.5195 13.1054 14.2652 13 14 13H13V15ZM10 9.00001C9.73479 9.00001 9.4805 9.10544 9.29297 9.29298C9.10543 9.48051 9 9.73479 9 10L9.00488 10.0986C9.02757 10.3276 9.12883 10.5429 9.29297 10.707C9.48051 10.8946 9.73478 11 10 11H11V9.00001H10Z" fill="#E4F2F2"/>
<path fill-rule="evenodd" clip-rule="evenodd" d="M19.5527 1.10548C19.8626 0.950522 20.2306 0.967344 20.5254 1.14942C20.8202 1.33163 21 1.65343 21 2.00001V22C21 22.3466 20.8202 22.6684 20.5254 22.8506C20.2306 23.0327 19.8626 23.0495 19.5527 22.8945L18 22.1182L16.4473 22.8945C16.1657 23.0353 15.8343 23.0353 15.5527 22.8945L14 22.1182L12.4473 22.8945C12.1657 23.0353 11.8343 23.0353 11.5527 22.8945L10 22.1182L8.44727 22.8945C8.16574 23.0353 7.83426 23.0353 7.55273 22.8945L6 22.1182L4.44727 22.8945C4.13735 23.0495 3.76939 23.0327 3.47461 22.8506C3.1798 22.6684 3 22.3466 3 22V2.00001C3 1.65343 3.1798 1.33163 3.47461 1.14942C3.76939 0.967344 4.13736 0.950522 4.44727 1.10548L6 1.88184L7.55273 1.10548L7.66016 1.05958C7.91613 0.967056 8.20081 0.982251 8.44727 1.10548L10 1.88184L11.5527 1.10548L11.6602 1.05958C11.9161 0.967056 12.2008 0.982251 12.4473 1.10548L14 1.88184L15.5527 1.10548L15.6602 1.05958C15.9161 0.967056 16.2008 0.982251 16.4473 1.10548L18 1.88184L19.5527 1.10548ZM14.4473 3.89454C14.1657 4.0353 13.8343 4.0353 13.5527 3.89454L12 3.11817L10.4473 3.89454C10.1657 4.0353 9.83426 4.0353 9.55273 3.89454L8 3.11817L6.44727 3.89454C6.16574 4.0353 5.83426 4.0353 5.55273 3.89454L5 3.61817V20.3818L5.55273 20.1055C5.83426 19.9647 6.16574 19.9647 6.44727 20.1055L8 20.8818L9.55273 20.1055C9.83426 19.9647 10.1657 19.9647 10.4473 20.1055L12 20.8818L13.5527 20.1055C13.8343 19.9647 14.1657 19.9647 14.4473 20.1055L16 20.8818L17.5527 20.1055C17.8343 19.9647 18.1657 19.9647 18.4473 20.1055L19 20.3818V3.61817L18.4473 3.89454C18.1657 4.0353 17.8343 4.0353 17.5527 3.89454L16 3.11817L14.4473 3.89454Z" fill="#E4F2F2"/>
</svg>
