<svg width="24" height="24" viewBox="0 0 24 24" fill="none" xmlns="http://www.w3.org/2000/svg">
<path d="M11.2275 7.40919C12.1862 7.05514 13.2308 7.00337 14.2197 7.26075C15.2087 7.51823 16.0955 8.07311 16.7598 8.84962C17.1187 9.26931 17.0691 9.9008 16.6494 10.2598C16.2298 10.6185 15.5992 10.5689 15.2402 10.1494C14.8417 9.6836 14.3091 9.35077 13.7158 9.1963C13.1226 9.04194 12.4959 9.07287 11.9209 9.28516C11.3457 9.49762 10.8486 9.88171 10.498 10.3848C10.364 10.5773 10.254 10.7841 10.1689 11H13C13.5523 11 14 11.4477 14 12C14 12.5523 13.5523 13 13 13H10.0977C10.1883 13.2886 10.3232 13.5633 10.498 13.8145C10.8485 14.3175 11.3458 14.7016 11.9209 14.9141C12.496 15.1264 13.1226 15.1573 13.7158 15.0029C14.3093 14.8484 14.8416 14.5158 15.2402 14.0498C15.5991 13.6305 16.2298 13.5811 16.6494 13.9395C17.0691 14.2984 17.1186 14.9299 16.7598 15.3496C16.0954 16.1263 15.2088 16.681 14.2197 16.9385C13.2307 17.1959 12.1862 17.1441 11.2275 16.79C10.269 16.4359 9.44157 15.7964 8.85742 14.958C8.44682 14.3685 8.17305 13.6999 8.04492 13H8C7.44772 13 7 12.5523 7 12C7 11.4477 7.44772 11 8 11H8.08398C8.22547 10.3727 8.48591 9.77447 8.85742 9.24122C9.44162 8.4028 10.269 7.76327 11.2275 7.40919Z" fill="#E4F2F2"/>
<path fill-rule="evenodd" clip-rule="evenodd" d="M19.5527 1.10548C19.8626 0.950522 20.2306 0.967344 20.5254 1.14942C20.8202 1.33163 21 1.65343 21 2.00001V22C21 22.3466 20.8202 22.6684 20.5254 22.8506C20.2306 23.0327 19.8626 23.0495 19.5527 22.8945L18 22.1182L16.4473 22.8945C16.1657 23.0353 15.8343 23.0353 15.5527 22.8945L14 22.1182L12.4473 22.8945C12.1657 23.0353 11.8343 23.0353 11.5527 22.8945L10 22.1182L8.44727 22.8945C8.16574 23.0353 7.83426 23.0353 7.55273 22.8945L6 22.1182L4.44727 22.8945C4.13735 23.0495 3.76939 23.0327 3.47461 22.8506C3.1798 22.6684 3 22.3466 3 22V2.00001C3 1.65343 3.1798 1.33163 3.47461 1.14942C3.76939 0.967344 4.13736 0.950522 4.44727 1.10548L6 1.88184L7.55273 1.10548L7.66016 1.05958C7.91613 0.967056 8.20081 0.982251 8.44727 1.10548L10 1.88184L11.5527 1.10548L11.6602 1.05958C11.9161 0.967056 12.2008 0.982251 12.4473 1.10548L14 1.88184L15.5527 1.10548L15.6602 1.05958C15.9161 0.967056 16.2008 0.982251 16.4473 1.10548L18 1.88184L19.5527 1.10548ZM14.4473 3.89454C14.1657 4.0353 13.8343 4.0353 13.5527 3.89454L12 3.11817L10.4473 3.89454C10.1657 4.0353 9.83426 4.0353 9.55273 3.89454L8 3.11817L6.44727 3.89454C6.16574 4.0353 5.83426 4.0353 5.55273 3.89454L5 3.61817V20.3818L5.55273 20.1055C5.83426 19.9647 6.16574 19.9647 6.44727 20.1055L8 20.8818L9.55273 20.1055C9.83426 19.9647 10.1657 19.9647 10.4473 20.1055L12 20.8818L13.5527 20.1055C13.8343 19.9647 14.1657 19.9647 14.4473 20.1055L16 20.8818L17.5527 20.1055C17.8343 19.9647 18.1657 19.9647 18.4473 20.1055L19 20.3818V3.61817L18.4473 3.89454C18.1657 4.0353 17.8343 4.0353 17.5527 3.89454L16 3.11817L14.4473 3.89454Z" fill="#E4F2F2"/>
</svg>
