<svg width="24" height="24" viewBox="0 0 24 24" fill="none" xmlns="http://www.w3.org/2000/svg">
<path d="M16 6.00001C16.5523 6.00001 17 6.44773 17 7.00001C17 7.55229 16.5523 8.00001 16 8.00001H12.999C13.4439 8.59282 13.7506 9.27624 13.8984 10H16C16.5523 10 17 10.4477 17 11C17 11.5523 16.5523 12 16 12H13.8984C13.7036 12.9533 13.2335 13.8368 12.5352 14.5352C12.0606 15.0098 11.5001 15.3779 10.8906 15.627L12.5303 16.6524C12.9983 16.9451 13.1403 17.5621 12.8477 18.0303C12.5549 18.4983 11.9379 18.6403 11.4697 18.3477L7.46973 15.8477C7.09173 15.6112 6.91622 15.1533 7.03906 14.7246C7.16205 14.2958 7.55389 14 8 14H9L9.29688 13.9854C9.98351 13.9171 10.6289 13.6133 11.1211 13.1211C11.4403 12.8019 11.6783 12.4175 11.8262 12H8C7.44772 12 7 11.5523 7 11C7 10.4477 7.44772 10 8 10H11.8242C11.6764 9.5827 11.4401 9.19797 11.1211 8.87891C10.5585 8.31631 9.79565 8.00001 9 8.00001H8C7.44772 8.00001 7 7.55229 7 7.00001C7 6.44773 7.44772 6.00001 8 6.00001H16Z" fill="#E4F2F2"/>
<path fill-rule="evenodd" clip-rule="evenodd" d="M19.5527 1.10548C19.8626 0.950522 20.2306 0.967344 20.5254 1.14942C20.8202 1.33163 21 1.65343 21 2.00001V22C21 22.3466 20.8202 22.6684 20.5254 22.8506C20.2306 23.0327 19.8626 23.0495 19.5527 22.8945L18 22.1182L16.4473 22.8945C16.1657 23.0353 15.8343 23.0353 15.5527 22.8945L14 22.1182L12.4473 22.8945C12.1657 23.0353 11.8343 23.0353 11.5527 22.8945L10 22.1182L8.44727 22.8945C8.16574 23.0353 7.83426 23.0353 7.55273 22.8945L6 22.1182L4.44727 22.8945C4.13735 23.0495 3.76939 23.0327 3.47461 22.8506C3.1798 22.6684 3 22.3466 3 22V2.00001C3 1.65343 3.1798 1.33163 3.47461 1.14942C3.76939 0.967344 4.13736 0.950522 4.44727 1.10548L6 1.88184L7.55273 1.10548L7.66016 1.05958C7.91613 0.967056 8.20081 0.982251 8.44727 1.10548L10 1.88184L11.5527 1.10548L11.6602 1.05958C11.9161 0.967056 12.2008 0.982251 12.4473 1.10548L14 1.88184L15.5527 1.10548L15.6602 1.05958C15.9161 0.967056 16.2008 0.982251 16.4473 1.10548L18 1.88184L19.5527 1.10548ZM14.4473 3.89454C14.1657 4.0353 13.8343 4.0353 13.5527 3.89454L12 3.11817L10.4473 3.89454C10.1657 4.0353 9.83426 4.0353 9.55273 3.89454L8 3.11817L6.44727 3.89454C6.16574 4.0353 5.83426 4.0353 5.55273 3.89454L5 3.61817V20.3818L5.55273 20.1055C5.83426 19.9647 6.16574 19.9647 6.44727 20.1055L8 20.8818L9.55273 20.1055C9.83426 19.9647 10.1657 19.9647 10.4473 20.1055L12 20.8818L13.5527 20.1055C13.8343 19.9647 14.1657 19.9647 14.4473 20.1055L16 20.8818L17.5527 20.1055C17.8343 19.9647 18.1657 19.9647 18.4473 20.1055L19 20.3818V3.61817L18.4473 3.89454C18.1657 4.0353 17.8343 4.0353 17.5527 3.89454L16 3.11817L14.4473 3.89454Z" fill="#E4F2F2"/>
</svg>
