<svg width="24" height="24" viewBox="0 0 24 24" fill="none" xmlns="http://www.w3.org/2000/svg">
<path fill-rule="evenodd" clip-rule="evenodd" d="M12 5.50001C12.5523 5.50001 13 5.94773 13 6.50001V7.11231C13.0733 7.1279 13.147 7.1422 13.2197 7.16114C14.2088 7.41865 15.0954 7.97338 15.7598 8.75001C16.1187 9.16971 16.0691 9.8012 15.6494 10.1602C15.2298 10.5187 14.5991 10.4693 14.2402 10.0498C13.9065 9.65967 13.4786 9.36438 13 9.18751V14.8115C13.4785 14.6346 13.9066 14.3403 14.2402 13.9502C14.5991 13.5308 15.2298 13.4813 15.6494 13.8399C16.0691 14.1988 16.1187 14.8303 15.7598 15.25C15.0954 16.0266 14.2088 16.5814 13.2197 16.8389C13.147 16.8578 13.0732 16.8711 13 16.8867V17.5C13 18.0523 12.5523 18.5 12 18.5C11.4477 18.5 11 18.0523 11 17.5V16.9053C10.7385 16.8541 10.4797 16.7836 10.2275 16.6904C9.26897 16.3363 8.4416 15.6968 7.85742 14.8584C7.27323 14.0198 6.95996 13.022 6.95996 12C6.95996 10.978 7.27323 9.98019 7.85742 9.14161C8.4416 8.30316 9.26897 7.66369 10.2275 7.30958C10.4798 7.21641 10.7384 7.14495 11 7.09376V6.50001C11 5.94773 11.4477 5.50001 12 5.50001ZM10.9209 9.18555C10.3458 9.39804 9.84855 9.78207 9.49805 10.2852C9.14766 10.7882 8.95996 11.3869 8.95996 12C8.95996 12.6131 9.14767 13.2118 9.49805 13.7149C9.84854 14.2179 10.3458 14.602 10.9209 14.8145C10.9468 14.824 10.9739 14.831 11 14.8399V9.15919C10.9738 9.16805 10.9469 9.17595 10.9209 9.18555Z" fill="#E4F2F2"/>
<path fill-rule="evenodd" clip-rule="evenodd" d="M19.5527 1.10548C19.8626 0.950522 20.2306 0.967344 20.5254 1.14942C20.8202 1.33163 21 1.65343 21 2.00001V22C21 22.3466 20.8202 22.6684 20.5254 22.8506C20.2306 23.0327 19.8626 23.0495 19.5527 22.8945L18 22.1182L16.4473 22.8945C16.1657 23.0353 15.8343 23.0353 15.5527 22.8945L14 22.1182L12.4473 22.8945C12.1657 23.0353 11.8343 23.0353 11.5527 22.8945L10 22.1182L8.44727 22.8945C8.16574 23.0353 7.83426 23.0353 7.55273 22.8945L6 22.1182L4.44727 22.8945C4.13735 23.0495 3.76939 23.0327 3.47461 22.8506C3.1798 22.6684 3 22.3466 3 22V2.00001C3 1.65343 3.1798 1.33163 3.47461 1.14942C3.76939 0.967344 4.13736 0.950522 4.44727 1.10548L6 1.88184L7.55273 1.10548L7.66016 1.05958C7.91613 0.967056 8.20081 0.982251 8.44727 1.10548L10 1.88184L11.5527 1.10548L11.6602 1.05958C11.9161 0.967056 12.2008 0.982251 12.4473 1.10548L14 1.88184L15.5527 1.10548L15.6602 1.05958C15.9161 0.967056 16.2008 0.982251 16.4473 1.10548L18 1.88184L19.5527 1.10548ZM14.4473 3.89454C14.1657 4.0353 13.8343 4.0353 13.5527 3.89454L12 3.11817L10.4473 3.89454C10.1657 4.0353 9.83426 4.0353 9.55273 3.89454L8 3.11817L6.44727 3.89454C6.16574 4.0353 5.83426 4.0353 5.55273 3.89454L5 3.61817V20.3818L5.55273 20.1055C5.83426 19.9647 6.16574 19.9647 6.44727 20.1055L8 20.8818L9.55273 20.1055C9.83426 19.9647 10.1657 19.9647 10.4473 20.1055L12 20.8818L13.5527 20.1055C13.8343 19.9647 14.1657 19.9647 14.4473 20.1055L16 20.8818L17.5527 20.1055C17.8343 19.9647 18.1657 19.9647 18.4473 20.1055L19 20.3818V3.61817L18.4473 3.89454C18.1657 4.0353 17.8343 4.0353 17.5527 3.89454L16 3.11817L14.4473 3.89454Z" fill="#E4F2F2"/>
</svg>
