<svg width="24" height="24" viewBox="0 0 24 24" fill="none" xmlns="http://www.w3.org/2000/svg">
<path d="M19.0322 13.3496C19.5101 13.0733 20.1218 13.2362 20.3984 13.7139L21.625 15.834L21.627 15.8369C21.8687 16.2584 21.9951 16.7368 21.9951 17.2227C21.9951 17.7084 21.8686 18.186 21.627 18.6074C21.6239 18.6127 21.6203 18.6179 21.6172 18.6231C21.3679 19.0396 21.0151 19.385 20.5937 19.626C20.1724 19.867 19.6963 19.9962 19.2109 20H13.4141L14.707 21.293C15.0976 21.6835 15.0976 22.3165 14.707 22.707C14.3165 23.0976 13.6835 23.0976 13.293 22.707L10.293 19.707C10.2654 19.6794 10.2405 19.65 10.2168 19.6201C10.1807 19.5745 10.148 19.5262 10.1201 19.4746C10.0919 19.4223 10.069 19.368 10.0508 19.3125C10.0484 19.3053 10.0452 19.2983 10.043 19.291C10.0343 19.2624 10.0275 19.2333 10.0215 19.2041C10.0078 19.1382 10 19.0699 10 19C10 18.922 10.0095 18.8463 10.0264 18.7734C10.0383 18.7218 10.0539 18.6707 10.0742 18.6211C10.0806 18.6056 10.0876 18.5903 10.0947 18.5752C10.1157 18.5305 10.14 18.4871 10.168 18.4453C10.2046 18.3905 10.2465 18.3394 10.293 18.293L13.293 15.293C13.6835 14.9025 14.3165 14.9025 14.707 15.293C15.0976 15.6835 15.0976 16.3165 14.707 16.707L13.4141 18H19.1953C19.3375 17.9989 19.4771 17.9612 19.6006 17.8906C19.7205 17.822 19.8209 17.7238 19.8936 17.6065C19.9596 17.4892 19.9951 17.3573 19.9951 17.2227C19.9951 17.0872 19.9603 16.9537 19.8936 16.8359L18.667 14.7158C18.3907 14.2378 18.5544 13.6262 19.0322 13.3496Z" fill="#E4F2F2"/>
<path d="M7.17285 8.50098C7.27365 8.49861 7.37517 8.51201 7.47461 8.54102C7.51332 8.55226 7.55157 8.56512 7.58887 8.58106C7.59463 8.58353 7.60071 8.58531 7.60644 8.5879C7.63674 8.60152 7.66628 8.61706 7.69531 8.63379C7.73039 8.65405 7.76385 8.67708 7.7959 8.70118C7.98393 8.842 8.11035 9.03957 8.16504 9.25586L9.25879 13.3369C9.40162 13.8702 9.08492 14.4184 8.55176 14.5615C8.01839 14.7042 7.46902 14.3879 7.32617 13.8545L6.85254 12.0889L4.10742 16.832C4.03891 16.9514 4.0036 17.0879 4.00391 17.2256C4.00426 17.3594 4.03911 17.4908 4.10449 17.6074C4.17833 17.7264 4.28113 17.8249 4.40332 17.8936C4.52791 17.9635 4.66866 18.0003 4.81152 18H7C7.55218 18.0001 8 18.4478 8 19C8 19.5522 7.55218 19.9999 7 20H4.81445C4.32786 20.0008 3.84919 19.8758 3.4248 19.6377C2.9995 19.399 2.64257 19.0547 2.38965 18.6377C2.38635 18.6323 2.38307 18.6266 2.37988 18.6211C2.13483 18.1985 2.005 17.718 2.00391 17.2295C2.00286 16.7411 2.12993 16.2605 2.37305 15.8369L2.375 15.834L5.11914 11.0908L3.3584 11.5635C2.82507 11.7062 2.27675 11.3898 2.13379 10.8565C1.99117 10.3233 2.30777 9.77495 2.84082 9.63184L6.93652 8.53418C6.95154 8.53016 6.96729 8.52773 6.98242 8.52442C7.00832 8.51876 7.03425 8.51337 7.06055 8.50977C7.09791 8.50466 7.13537 8.50185 7.17285 8.50098Z" fill="#E4F2F2"/>
<path d="M11.9824 2C12.4707 1.99909 12.9516 2.12696 13.375 2.37012C13.7453 2.58289 14.0614 2.8774 14.2988 3.23047L14.3955 3.38575L14.3975 3.38868L17.1318 8.13575L17.6045 6.37598C17.7474 5.84267 18.2967 5.52618 18.8301 5.66895C19.3632 5.812 19.6798 6.36029 19.5371 6.89356L18.4404 10.9844C18.375 11.2341 18.2139 11.4587 17.9727 11.5977C17.865 11.6596 17.7505 11.6979 17.6348 11.7168C17.623 11.7187 17.6114 11.7212 17.5996 11.7227C17.586 11.7244 17.5722 11.7244 17.5586 11.7256C17.5394 11.7272 17.5203 11.729 17.501 11.7295C17.4505 11.7308 17.4004 11.7279 17.3506 11.7217C17.3376 11.7201 17.3244 11.7199 17.3115 11.7178L17.2139 11.6963C17.2122 11.6958 17.2107 11.6948 17.209 11.6943L13.1191 10.5986C12.5858 10.4556 12.2692 9.90739 12.4121 9.37403C12.5552 8.84078 13.1034 8.52417 13.6367 8.667L15.4023 9.13965L12.666 4.39063L12.6084 4.30469C12.5459 4.2239 12.468 4.15574 12.3789 4.1045C12.2627 4.03781 12.1309 4.00154 11.9971 4C11.8573 4.0046 11.7209 4.04479 11.6006 4.11622C11.4777 4.18924 11.3749 4.29297 11.3037 4.417L11.3027 4.41895L10.21 6.31153C9.93366 6.78956 9.32189 6.9529 8.84375 6.67676C8.36571 6.40046 8.2014 5.78869 8.47754 5.31055L9.57129 3.41895C9.81381 2.99724 10.1608 2.64495 10.5791 2.39649C10.9984 2.14758 11.4754 2.0106 11.9629 2H11.9824Z" fill="#E4F2F2"/>
</svg>
