<svg width="24" height="24" viewBox="0 0 24 24" fill="none" xmlns="http://www.w3.org/2000/svg">
<path d="M14.293 3.29295C14.6835 2.90243 15.3165 2.90243 15.707 3.29295L20.707 8.29295C20.7548 8.34077 20.7976 8.39352 20.835 8.45018C20.8597 8.48767 20.8812 8.5266 20.9004 8.56639C20.9222 8.61158 20.9412 8.65836 20.9561 8.70702C20.962 8.72632 20.966 8.74605 20.9707 8.76561C20.9888 8.84088 21 8.91916 21 8.99999C21 9.08298 20.9878 9.16311 20.9688 9.24022C20.9646 9.25716 20.9611 9.27426 20.9561 9.291C20.9412 9.34 20.9223 9.38711 20.9004 9.4326C20.8804 9.47427 20.8572 9.51457 20.8311 9.5537C20.8185 9.57254 20.8048 9.59047 20.791 9.60838C20.7649 9.64219 20.738 9.67603 20.707 9.70702L15.707 14.707C15.3165 15.0975 14.6835 15.0975 14.293 14.707C13.9025 14.3165 13.9025 13.6835 14.293 13.293L17.5859 9.99999H9.5C8.30653 9.99999 7.16227 10.4744 6.31836 11.3183C5.47447 12.1623 5 13.3065 5 14.5L5.00586 14.7217C5.03128 15.2368 5.14503 15.7442 5.34277 16.2217C5.56892 16.7676 5.90051 17.2638 6.31836 17.6816C7.16227 18.5255 8.30654 19 9.5 19H13C13.5523 19 14 19.4477 14 20C14 20.5522 13.5523 21 13 21H9.5C7.77611 21 6.1223 20.3156 4.90332 19.0967C4.29976 18.4931 3.82177 17.7759 3.49512 16.9873C3.20927 16.2972 3.04444 15.5638 3.00781 14.8193L3 14.5C3 12.7761 3.68436 11.1223 4.90332 9.90331C6.12231 8.68432 7.77609 7.99999 9.5 7.99999H17.5859L14.293 4.70702C13.9025 4.3165 13.9025 3.68348 14.293 3.29295Z" fill="#E4F2F2"/>
</svg>
