<svg width="24" height="24" viewBox="0 0 24 24" fill="none" xmlns="http://www.w3.org/2000/svg">
<path fill-rule="evenodd" clip-rule="evenodd" d="M18.5117 1C18.9918 1.00576 19.4599 1.15031 19.8604 1.41504C20.2607 1.67971 20.5762 2.05397 20.7696 2.49316C20.9628 2.93245 21.0265 3.41861 20.9512 3.89258C20.8758 4.36658 20.6648 4.80927 20.3448 5.16699C20.3253 5.18871 20.3045 5.20955 20.2832 5.22949L19 6.43262V8.10059C19.9533 8.29536 20.8369 8.76652 21.5352 9.46484C22.4728 10.4025 23 11.674 23 13V16C23 16.5522 22.5522 16.9998 22 17C21.4477 17 21 16.5523 21 16V13C21 12.2044 20.6836 11.4415 20.1211 10.8789C19.8018 10.5596 19.4178 10.3201 19 10.1729V17.5459L20.2578 18.6475L20.2862 18.6729C20.6534 19.02 20.9047 19.4725 21.0049 19.9678C21.1051 20.4632 21.0493 20.9778 20.8457 21.4404C20.6422 21.9029 20.3009 22.2909 19.8682 22.5518C19.4559 22.8002 18.9799 22.9197 18.5 22.8994L5.48733 22.9004C5.00744 22.8946 4.53906 22.75 4.1387 22.4854C3.73847 22.2207 3.42283 21.8464 3.22952 21.4072C3.03621 20.9679 2.97353 20.4819 3.04886 20.0078C3.12422 19.5337 3.33431 19.0912 3.65433 18.7334L3.74124 18.6475L5.00003 17.5449V6.4541L3.74124 5.35254C3.73469 5.34681 3.72811 5.34086 3.72171 5.33496C3.34353 4.98592 3.08232 4.52842 2.97366 4.02539C2.86514 3.52256 2.91402 2.99823 3.11429 2.52441C3.3148 2.05047 3.65719 1.64937 4.09378 1.37695C4.51501 1.1142 5.00466 0.985485 5.50003 1.00195V1H18.5117ZM6.37601 19L5.12015 20.0977C5.07035 20.1631 5.03649 20.2397 5.02347 20.3213C5.0084 20.4161 5.02096 20.5137 5.0596 20.6016C5.09826 20.6894 5.16214 20.7644 5.24222 20.8174C5.32222 20.8702 5.41589 20.8992 5.51175 20.9004H18.5L18.5713 20.9023C18.6639 20.909 18.7565 20.8868 18.836 20.8389C18.9154 20.791 18.9783 20.7196 19.0157 20.6348C19.053 20.5499 19.0633 20.4552 19.045 20.3643C19.0268 20.2746 18.9809 20.1932 18.9151 20.1299L17.6231 19H6.37601ZM7.00003 15.6172V17H7.7637L17 12.3818V10.6172L7.00003 15.6172ZM12.2364 17H17V14.6182L12.2364 17ZM7.00003 11.6182V13.3818L17 8.38184V7H16.2364L7.00003 11.6182ZM7.00003 9.38184L11.7637 7H7.00003V9.38184ZM5.44437 2.99902C5.34166 2.9934 5.23965 3.01978 5.15237 3.07422C5.06521 3.1287 4.99614 3.20904 4.95608 3.30371C4.91628 3.39829 4.90709 3.5032 4.92874 3.60352C4.95022 3.70266 5.00129 3.79293 5.07523 3.8623L6.37503 5H17.6035L18.8701 3.8125C18.9245 3.74494 18.9618 3.66499 18.9756 3.5791C18.9907 3.48437 18.9781 3.38665 18.9395 3.29883C18.9009 3.21106 18.8378 3.13595 18.7578 3.08301C18.6777 3.03006 18.5833 3.00115 18.4873 3H5.50003C5.48167 3 5.4627 3.00004 5.44437 2.99902Z" fill="#E4F2F2"/>
</svg>
