<svg width="24" height="24" viewBox="0 0 24 24" fill="none" xmlns="http://www.w3.org/2000/svg">
<path d="M1.29297 1.29295C1.68349 0.90243 2.31651 0.90243 2.70703 1.29295L6.34082 4.92674C6.34426 4.93013 6.34816 4.93306 6.35156 4.93651C6.35429 4.93926 6.35669 4.94252 6.35938 4.9453L22.707 21.293C23.0975 21.6835 23.0975 22.3165 22.707 22.707C22.3165 23.0975 21.6835 23.0975 21.293 22.707L18.3271 19.7412C16.6068 21.1595 14.4016 22 12 22H11.9961C9.39528 21.9902 6.89241 21.0379 4.94629 19.3301L4.55274 18.9668L4 18.414V21C3.99996 21.5522 3.55223 21.9999 3 22C2.44774 22 2.00004 21.5522 2 21V16C2 15.9203 2.00974 15.8428 2.02734 15.7685C2.03221 15.748 2.03678 15.7273 2.04297 15.707C2.05787 15.6583 2.07777 15.6117 2.09961 15.5664C2.11878 15.5266 2.1403 15.4877 2.16504 15.4502C2.25571 15.3128 2.37902 15.1988 2.52441 15.1201C2.53816 15.1127 2.5524 15.1063 2.56641 15.0996C2.61168 15.0778 2.65828 15.0579 2.70703 15.043C2.7273 15.0368 2.748 15.0322 2.76856 15.0273C2.7799 15.0246 2.79124 15.0218 2.80274 15.0195L2.80859 15.0185L2.89746 15.0049C2.93114 15.0014 2.96542 15 3 15H8C8.55225 15 9 15.4477 9 16C8.99996 16.5522 8.55223 16.9999 8 17H5.41406L5.95508 17.541L6.26563 17.8271C7.84921 19.2167 9.88575 19.9906 12.002 19.999C13.8575 19.9986 15.5561 19.3735 16.9033 18.3174L5.68164 7.09569C4.62482 8.44337 4.00006 10.1436 4 12C3.99981 12.5521 3.55213 12.9999 3 13C2.44783 13 2.00019 12.5521 2 12C2.00007 9.59862 2.83965 7.39228 4.25781 5.67186L1.29297 2.70702C0.902445 2.31649 0.902445 1.68348 1.29297 1.29295Z" fill="#E4F2F2"/>
<path d="M21 11C21.5521 11.0002 22 11.4478 22 12C22 13.1062 21.823 14.1865 21.4756 15.1953C21.2958 15.7172 20.7271 15.9948 20.2051 15.8154C19.6829 15.6356 19.4051 15.0661 19.585 14.5439C19.8573 13.753 20 12.8934 20 12C20 11.4478 20.4478 11.0001 21 11Z" fill="#E4F2F2"/>
<path d="M12.5225 2.01463C14.9359 2.14028 17.2373 3.07583 19.0537 4.66991L19.4473 5.03319L20 5.58592V2.99999C20 2.4477 20.4477 1.99999 21 1.99999C21.5522 2.00003 22 2.44773 22 2.99999V7.99999C22 8.08298 21.9878 8.16312 21.9688 8.24022C21.9646 8.25716 21.9611 8.27426 21.9561 8.291C21.9522 8.30355 21.9476 8.31578 21.9434 8.32811C21.916 8.40684 21.8786 8.48246 21.8311 8.5537C21.7577 8.66356 21.6636 8.75769 21.5537 8.83104C21.5077 8.8618 21.4596 8.88785 21.4102 8.91014C21.4017 8.91398 21.3934 8.91826 21.3848 8.92186C21.3618 8.93141 21.3389 8.94045 21.3154 8.94823C21.3083 8.9506 21.3011 8.95285 21.2939 8.95506C21.2714 8.96199 21.2485 8.96735 21.2256 8.97264C21.2158 8.9749 21.2062 8.97751 21.1963 8.97948C21.1859 8.98154 21.1754 8.98263 21.165 8.98436C21.1443 8.98781 21.1237 8.99295 21.1025 8.9951L21 8.99999H16C15.4477 8.99999 15 8.55224 15 7.99999C15 7.4477 15.4477 6.99999 16 6.99999H18.5859L18.0449 6.45897L17.7344 6.17284C16.1506 4.78299 14.1137 4.00818 11.9971 3.99999C11.1045 4.00029 10.2453 4.14282 9.45508 4.41502C8.9331 4.59461 8.36451 4.31774 8.18457 3.79588C8.00472 3.27373 8.28255 2.70428 8.80469 2.5244C9.81344 2.177 10.8938 1.99999 12 1.99999H12.0039L12.5225 2.01463Z" fill="#E4F2F2"/>
</svg>
