<svg width="24" height="24" viewBox="0 0 24 24" fill="none" xmlns="http://www.w3.org/2000/svg">
<path d="M9.00977 13C9.56205 13 10.0098 13.4477 10.0098 14C10.0098 14.5523 9.56205 15 9.00977 15H9C8.44772 15 8 14.5523 8 14C8 13.4477 8.44772 13 9 13H9.00977Z" fill="#E4F2F2"/>
<path d="M9.00977 5C9.56205 5 10.0098 5.44772 10.0098 6C10.0098 6.55228 9.56205 7 9.00977 7H9C8.44772 7 8 6.55228 8 6C8 5.44772 8.44772 5 9 5H9.00977Z" fill="#E4F2F2"/>
<path fill-rule="evenodd" clip-rule="evenodd" d="M17 1C18.6569 1 20 2.34315 20 4V20C20 21.6569 18.6569 23 17 23H7C5.34315 23 4 21.6569 4 20V4C4 2.34315 5.34315 1 7 1H17ZM6 20C6 20.5523 6.44772 21 7 21H17C17.5523 21 18 20.5523 18 20V11H6V20ZM7 3C6.44772 3 6 3.44772 6 4V9H18V4C18 3.44772 17.5523 3 17 3H7Z" fill="#E4F2F2"/>
</svg>
