<svg width="24" height="24" viewBox="0 0 24 24" fill="none" xmlns="http://www.w3.org/2000/svg">
<path d="M17 6C17.5523 6 18 6.44772 18 7V9C18 9.55228 17.5523 10 17 10C16.4477 10 16 9.55228 16 9V8H13.6182L9.61816 16H10C10.5523 16 11 16.4477 11 17C11 17.5523 10.5523 18 10 18H7C6.44772 18 6 17.5523 6 17C6 16.4477 6.44772 16 7 16H7.38184L11.3818 8H8V9C8 9.55228 7.55228 10 7 10C6.44772 10 6 9.55228 6 9V7C6 6.44772 6.44772 6 7 6H17Z" fill="#E4F2F2"/>
<path d="M16.293 13.293C16.6835 12.9024 17.3165 12.9024 17.707 13.293C18.0976 13.6835 18.0976 14.3165 17.707 14.707L16.9141 15.5L17.707 16.293C18.0976 16.6835 18.0976 17.3165 17.707 17.707C17.3165 18.0976 16.6835 18.0976 16.293 17.707L15.5 16.9141L14.707 17.707C14.3165 18.0976 13.6835 18.0976 13.293 17.707C12.9024 17.3165 12.9024 16.6835 13.293 16.293L14.0859 15.5L13.293 14.707C12.9024 14.3165 12.9024 13.6835 13.293 13.293C13.6835 12.9024 14.3165 12.9024 14.707 13.293L15.5 14.0859L16.293 13.293Z" fill="#E4F2F2"/>
<path fill-rule="evenodd" clip-rule="evenodd" d="M19 2C20.6569 2 22 3.34315 22 5V19C22 20.6569 20.6569 22 19 22H5C3.34315 22 2 20.6569 2 19V5C2 3.34315 3.34315 2 5 2H19ZM5 4C4.44772 4 4 4.44772 4 5V19C4 19.5523 4.44772 20 5 20H19C19.5523 20 20 19.5523 20 19V5C20 4.44772 19.5523 4 19 4H5Z" fill="#E4F2F2"/>
</svg>
