<svg width="24" height="24" viewBox="0 0 24 24" fill="none" xmlns="http://www.w3.org/2000/svg">
<path d="M5.02049 5.00098C5.03808 5.00133 5.05567 5.00165 5.07323 5.00293C5.09093 5.00421 5.10853 5.00562 5.12596 5.00781C5.13774 5.0093 5.14939 5.01177 5.16112 5.01367C5.17987 5.01671 5.19839 5.02034 5.21678 5.02441C5.22788 5.02687 5.23896 5.02939 5.24999 5.03223C5.31726 5.04956 5.38136 5.07429 5.44237 5.10449C5.53766 5.15158 5.62767 5.21362 5.70702 5.29297L8.70702 8.29297C9.09749 8.68348 9.09749 9.31652 8.70702 9.70703C8.31651 10.0975 7.68348 10.0975 7.29295 9.70703L5.99999 8.41406V16L6.00487 16.0986C6.02756 16.3276 6.12881 16.5429 6.29295 16.707C6.48049 16.8945 6.73479 17 6.99999 17H13C13.5522 17 14 17.4477 14 18C14 18.5523 13.5522 19 13 19H6.99999C6.20435 19 5.4415 18.6837 4.87889 18.1211C4.31628 17.5585 3.99999 16.7956 3.99999 16V8.41406L2.70702 9.70703C2.3165 10.0975 1.68348 10.0975 1.29295 9.70703C0.90243 9.31651 0.90243 8.68349 1.29295 8.29297L4.29295 5.29297C4.35012 5.2358 4.41476 5.18656 4.48436 5.14453C4.50431 5.13248 4.52434 5.12088 4.54491 5.11035C4.60725 5.07841 4.6731 5.05256 4.74217 5.03418C4.75875 5.02977 4.77524 5.02503 4.79198 5.02148C4.80295 5.01917 4.81408 5.01758 4.82518 5.01562C4.8427 5.01252 4.86029 5.00998 4.87792 5.00781C4.89568 5.00565 4.91358 5.00415 4.93163 5.00293C4.94756 5.00184 4.96351 5.00131 4.97948 5.00098C4.98628 5.00084 4.99315 5 4.99999 5C5.00684 5 5.01367 5.00084 5.02049 5.00098Z" fill="#E4F2F2"/>
<path d="M17 5C17.7956 5.00002 18.5585 5.31631 19.1211 5.87891C19.6837 6.44151 20 7.20437 20 8V15.5859L21.293 14.293C21.6835 13.9025 22.3165 13.9025 22.707 14.293C23.0975 14.6835 23.0975 15.3165 22.707 15.707L19.707 18.707C19.6605 18.7536 19.6086 18.7944 19.5537 18.8311C19.5146 18.8572 19.4743 18.8804 19.4326 18.9004C19.3871 18.9223 19.34 18.9412 19.291 18.9561C19.2743 18.9611 19.2572 18.9646 19.2402 18.9688C19.2246 18.9726 19.2092 18.9774 19.1933 18.9805C19.1862 18.9819 19.179 18.9822 19.1719 18.9834C19.1159 18.9931 19.0587 19 19 19L18.8974 18.9951C18.876 18.9929 18.855 18.9879 18.834 18.9844C18.8236 18.9826 18.8131 18.9816 18.8027 18.9795C18.7912 18.9772 18.7799 18.9744 18.7685 18.9717C18.748 18.9668 18.7273 18.9623 18.707 18.9561C18.6584 18.9412 18.6116 18.9222 18.5664 18.9004C18.5266 18.8812 18.4877 18.8597 18.4502 18.835C18.3935 18.7976 18.3408 18.7548 18.293 18.707L15.293 15.707C14.9024 15.3165 14.9024 14.6835 15.293 14.293C15.6835 13.9025 16.3165 13.9025 16.707 14.293L18 15.5859V8C18 7.7348 17.8945 7.4805 17.707 7.29297C17.5429 7.12884 17.3276 7.02759 17.0986 7.00488L17 7H11C10.4477 7 9.99999 6.55228 9.99999 6C9.99999 5.44772 10.4477 5 11 5H17Z" fill="#E4F2F2"/>
</svg>
