<svg width="24" height="24" viewBox="0 0 24 24" fill="none" xmlns="http://www.w3.org/2000/svg">
<path d="M21 12C21.5523 12 22 12.4477 22 13V14C22 15.326 21.4728 16.5975 20.5352 17.5351C19.5975 18.4728 18.3261 19 17 19H5.41406L7.70703 21.293C8.09752 21.6835 8.09754 22.3165 7.70703 22.707C7.31652 23.0975 6.68348 23.0975 6.29297 22.707L2.29297 18.707C2.26183 18.6759 2.23418 18.6424 2.20801 18.6084C2.19423 18.5905 2.18053 18.5725 2.16797 18.5537C2.14195 18.5147 2.11956 18.4741 2.09961 18.4326C2.07753 18.3867 2.05793 18.3394 2.04297 18.29C2.038 18.2736 2.03438 18.2568 2.03027 18.2402C2.01125 18.1632 2.00001 18.0829 2 18C2 17.9203 2.00974 17.8428 2.02734 17.7685C2.03231 17.7476 2.03762 17.7267 2.04395 17.706C2.05879 17.6577 2.07795 17.6113 2.09961 17.5664C2.11877 17.5266 2.1403 17.4877 2.16504 17.4502C2.20242 17.3935 2.24516 17.3408 2.29297 17.293L6.29297 13.293C6.68349 12.9024 7.31651 12.9024 7.70703 13.293C8.09752 13.6835 8.09754 14.3165 7.70703 14.707L5.41406 17H17C17.7956 17 18.5585 16.6837 19.1211 16.1211C19.6837 15.5585 20 14.7956 20 14V13C20 12.4477 20.4477 12 21 12Z" fill="#E4F2F2"/>
<path d="M12.1025 9.00487C12.6067 9.0562 13 9.48231 13 9.99999V14C13 14.5522 12.5523 15 12 15C11.4477 15 11 14.5522 11 14V11C10.4477 11 10 10.5522 10 9.99999C10 9.4477 10.4477 8.99999 11 8.99999H12L12.1025 9.00487Z" fill="#E4F2F2"/>
<path d="M16.293 1.29295C16.6835 0.90243 17.3165 0.90243 17.707 1.29295L21.707 5.29295C21.7548 5.34077 21.7976 5.39352 21.835 5.45018C21.8597 5.48767 21.8812 5.5266 21.9004 5.56639C21.9222 5.61158 21.9412 5.65836 21.9561 5.70702C21.9623 5.7273 21.9668 5.74797 21.9717 5.76854C21.9893 5.8429 22 5.92023 22 5.99999C22 6.08298 21.9878 6.16311 21.9688 6.24022C21.9646 6.25716 21.9611 6.27426 21.9561 6.291C21.9412 6.34 21.9223 6.38711 21.9004 6.4326C21.8804 6.47427 21.8572 6.51457 21.8311 6.5537C21.7944 6.60863 21.7536 6.66049 21.707 6.70702L17.707 10.707C17.3165 11.0975 16.6835 11.0975 16.293 10.707C15.9025 10.3165 15.9025 9.68348 16.293 9.29295L18.5859 6.99999H7C6.20435 6.99999 5.44152 7.31628 4.87891 7.87889C4.31632 8.4415 4 9.20435 4 9.99999V11C3.99996 11.5522 3.55226 12 3 12C2.44774 12 2.00004 11.5522 2 11V9.99999C2 8.67392 2.52719 7.40251 3.46484 6.46483C4.40253 5.52715 5.67392 4.99999 7 4.99999H18.5859L16.293 2.70702C15.9025 2.3165 15.9025 1.68348 16.293 1.29295Z" fill="#E4F2F2"/>
</svg>
