<svg width="24" height="24" viewBox="0 0 24 24" fill="none" xmlns="http://www.w3.org/2000/svg">
<path d="M8.29297 6.29295C8.68349 5.90243 9.31651 5.90243 9.70703 6.29295C10.0975 6.68348 10.0975 7.3165 9.70703 7.70702L6.41406 11H16C17.3261 11 18.5975 11.5271 19.5352 12.4648C20.4728 13.4025 21 14.6739 21 16V18C21 18.5522 20.5523 19 20 19C19.4477 19 19 18.5522 19 18V16C19 15.2044 18.6837 14.4415 18.1211 13.8789C17.6289 13.3867 16.9835 13.0829 16.2969 13.0146L16 13H6.41406L9.70703 16.293C10.0975 16.6835 10.0975 17.3165 9.70703 17.707C9.31652 18.0975 8.68348 18.0975 8.29297 17.707L3.29297 12.707C3.24631 12.6604 3.20472 12.6088 3.16797 12.5537C3.14195 12.5147 3.11956 12.4741 3.09961 12.4326C3.07767 12.387 3.05788 12.3401 3.04297 12.291C3.0379 12.2743 3.03445 12.2571 3.03027 12.2402C3.01125 12.1632 3.00001 12.0829 3 12C3 11.9203 3.00974 11.8428 3.02734 11.7685C3.03221 11.748 3.03678 11.7273 3.04297 11.707C3.05787 11.6583 3.07777 11.6117 3.09961 11.5664C3.11877 11.5266 3.1403 11.4877 3.16504 11.4502C3.20242 11.3935 3.24516 11.3408 3.29297 11.293L8.29297 6.29295Z" fill="#E4F2F2"/>
</svg>
