<svg width="24" height="24" viewBox="0 0 24 24" fill="none" xmlns="http://www.w3.org/2000/svg">
<path d="M11.293 6.29295C11.6835 5.90243 12.3165 5.90243 12.707 6.29295C13.0975 6.68348 13.0975 7.31652 12.707 7.70702L9.41405 11H18C19.326 11 20.5975 11.5272 21.5351 12.4648C22.4728 13.4025 23 14.6739 23 16V18C22.9999 18.5522 22.5522 18.9999 22 19C21.4477 19 21 18.5522 21 18V16C21 15.2044 20.6836 14.4415 20.1211 13.8789C19.6289 13.3867 18.9835 13.0829 18.2969 13.0146L18 13H9.41405L12.707 16.293C13.0975 16.6835 13.0975 17.3165 12.707 17.707C12.3165 18.0975 11.6835 18.0975 11.293 17.707L6.29295 12.707C6.24629 12.6604 6.20471 12.6088 6.16795 12.5537C6.14194 12.5147 6.11955 12.4741 6.0996 12.4326C6.07765 12.387 6.05787 12.3401 6.04295 12.291C6.03788 12.2743 6.03444 12.2571 6.03026 12.2402C6.01123 12.1632 5.99999 12.0829 5.99999 12C5.99999 11.9203 6.00972 11.8428 6.02733 11.7685C6.0322 11.748 6.03677 11.7273 6.04295 11.707C6.05786 11.6583 6.07775 11.6117 6.0996 11.5664C6.11876 11.5266 6.14028 11.4877 6.16502 11.4502C6.20241 11.3935 6.24514 11.3408 6.29295 11.293L11.293 6.29295Z" fill="#E4F2F2"/>
<path d="M6.29295 6.29295C6.68348 5.90243 7.31649 5.90243 7.70702 6.29295C8.09747 6.68348 8.09752 7.31652 7.70702 7.70702L3.41405 12L7.70702 16.293C8.09747 16.6835 8.09752 17.3165 7.70702 17.707C7.31652 18.0975 6.68349 18.0975 6.29295 17.707L1.29295 12.707C0.90243 12.3165 0.90243 11.6835 1.29295 11.293L6.29295 6.29295Z" fill="#E4F2F2"/>
</svg>
