<svg width="24" height="24" viewBox="0 0 24 24" fill="none" xmlns="http://www.w3.org/2000/svg">
<path fill-rule="evenodd" clip-rule="evenodd" d="M19.4141 3.0576C19.9958 2.94193 20.5995 3.00166 21.1475 3.2285C21.6954 3.45545 22.1645 3.83996 22.4941 4.33299C22.8236 4.826 22.9997 5.40606 23 5.99901V18C22.9998 18.593 22.8236 19.1729 22.4941 19.666C22.1645 20.1592 21.6955 20.5435 21.1475 20.7705C20.5994 20.9974 19.9958 21.0571 19.4141 20.9414C18.8327 20.8256 18.2982 20.5401 17.8789 20.1211L13 15.2422V18C12.9998 18.593 12.8236 19.1729 12.4941 19.666C12.1645 20.1592 11.6955 20.5435 11.1475 20.7705C10.5994 20.9974 9.99583 21.0571 9.41406 20.9414C8.8327 20.8256 8.2982 20.5401 7.87891 20.1211L1.87793 14.1201C1.31613 13.5577 1.00011 12.7949 1 12C1.00008 11.2048 1.31586 10.4414 1.87793 9.87889L7.87891 3.87889C8.29822 3.45985 8.83267 3.17337 9.41406 3.0576C9.99575 2.94193 10.5995 3.00166 11.1475 3.2285C11.6954 3.45545 12.1645 3.83997 12.4941 4.33299C12.8236 4.826 12.9997 5.40606 13 5.99901V8.7578L17.8789 3.87889C18.2982 3.45985 18.8327 3.17337 19.4141 3.0576ZM9.80469 5.01952C9.61092 5.05812 9.43272 5.15329 9.29297 5.29296L3.29297 11.293C3.10567 11.4804 3.00008 11.735 3 12C3.00011 12.2645 3.10526 12.5187 3.29199 12.706L9.29297 18.706C9.4327 18.8457 9.61094 18.9409 9.80469 18.9795C9.99844 19.018 10.1993 18.9983 10.3818 18.9228C10.5645 18.8472 10.7212 18.7191 10.8311 18.5547C10.9408 18.3905 10.9998 18.1975 11 18V5.99999C10.9999 5.80236 10.9409 5.60863 10.8311 5.44432C10.7212 5.28011 10.5644 5.15177 10.3818 5.07616C10.1994 5.00077 9.99834 4.98103 9.80469 5.01952ZM19.8047 5.01952C19.6109 5.05812 19.4327 5.15329 19.293 5.29296L13.293 11.293C13.1057 11.4804 13.0001 11.735 13 12C13.0001 12.2645 13.1053 12.5187 13.292 12.706L19.293 18.706C19.4327 18.8457 19.6109 18.9409 19.8047 18.9795C19.9984 19.018 20.1993 18.9983 20.3818 18.9228C20.5645 18.8472 20.7212 18.7191 20.8311 18.5547C20.9408 18.3905 20.9998 18.1975 21 18V5.99999C20.9999 5.80236 20.9409 5.60863 20.8311 5.44432C20.7212 5.28011 20.5644 5.15177 20.3818 5.07616C20.1994 5.00077 19.9983 4.98103 19.8047 5.01952Z" fill="#E4F2F2"/>
</svg>
