<svg width="24" height="24" viewBox="0 0 24 24" fill="none" xmlns="http://www.w3.org/2000/svg">
<path fill-rule="evenodd" clip-rule="evenodd" d="M12.0005 1C13.8039 1.00006 15.5624 1.59557 16.8833 2.69629C18.2094 3.80149 19.0005 5.34381 19.0005 7V7.00195C18.9992 7.78745 18.9013 8.51086 18.7339 9.18457C18.7267 9.22463 18.7156 9.26379 18.7036 9.30273C18.1564 11.3844 16.9412 12.989 15.8276 14.4814L18.9136 18.4092L19.0307 18.5742C19.1386 18.7444 19.2205 18.9306 19.2729 19.126C19.3429 19.3865 19.3587 19.6587 19.3208 19.9258C19.2829 20.1929 19.1919 20.4499 19.0522 20.6807C18.9125 20.9114 18.7274 21.1121 18.5083 21.2695L16.6138 22.6289L16.6128 22.6299C16.1871 22.9349 15.6586 23.0608 15.1411 22.9805C14.6237 22.9001 14.1584 22.6198 13.8452 22.2002L13.8403 22.1943L11.9936 19.6807L10.1235 22.1885C9.80957 22.611 9.3421 22.8938 8.82176 22.9736C8.3663 23.0434 7.90255 22.9534 7.50829 22.7227L7.34423 22.6152L5.47899 21.2627C5.26215 21.1053 5.07923 20.9052 4.94091 20.6758C4.80273 20.4465 4.71221 20.1918 4.6743 19.9268C4.63644 19.6615 4.65164 19.3909 4.7202 19.1318C4.78879 18.8728 4.90858 18.6297 5.07274 18.418L8.10106 14.5088C7.01496 13.0123 5.83934 11.4127 5.30126 9.35156C5.27953 9.29033 5.26391 9.2272 5.25438 9.16309C5.11793 8.59137 5.02871 7.98485 5.00634 7.33496L5.00048 7C5.00048 5.34374 5.79141 3.8015 7.11766 2.69629C8.43858 1.59559 10.197 1 12.0005 1ZM13.2407 17.999L15.4477 21.0029L17.3413 19.6445L14.5962 16.1523L13.2407 17.999ZM15.0005 8L14.9956 8.15332C14.9495 8.9126 14.5689 9.57504 14.189 10.1084C13.8074 10.6439 13.2874 11.2293 12.8393 11.7637C12.8214 11.7914 12.8018 11.8184 12.7807 11.8447L10.146 15.1328C10.1438 15.1357 10.1433 15.1397 10.1411 15.1426L6.6538 19.6436L8.51903 20.9961L8.52001 20.9951L11.1987 17.4023L11.2016 17.3984L13.7641 13.9082C13.7651 13.9069 13.7661 13.9056 13.7671 13.9043C14.9911 12.2266 16.1038 10.8674 16.6479 9.20703C16.1861 8.64091 15.6242 8.16465 14.9897 7.7998C14.9942 7.86632 15.0005 7.93292 15.0005 8ZM9.01024 7.79883C8.37074 8.16653 7.80521 8.6478 7.3413 9.21973C7.7557 10.5223 8.51032 11.6422 9.39305 12.874L10.7075 11.2324C10.3897 10.8541 10.0672 10.4665 9.81102 10.1064C9.40778 9.53962 9.00048 8.82426 9.00048 8C9.00048 7.9326 9.00574 7.86565 9.01024 7.79883ZM12.0005 7C11.7353 7 11.481 7.10551 11.2934 7.29297C11.1059 7.48051 11.0005 7.73478 11.0005 8C11.0005 8.17569 11.0934 8.45914 11.4399 8.94629C11.6055 9.17903 11.7914 9.40963 11.9985 9.6582C12.2075 9.40904 12.3963 9.1795 12.561 8.94824C12.9075 8.46184 13.0005 8.17632 13.0005 8L12.9956 7.90137C12.9729 7.67243 12.8716 7.4571 12.7075 7.29297C12.5434 7.12889 12.328 7.02762 12.0991 7.00488L12.0005 7ZM12.0005 3C10.6215 3 9.32743 3.45795 8.39794 4.23242C7.55202 4.93736 7.08444 5.83619 7.01122 6.74707C7.40691 6.43139 7.83232 6.15185 8.28368 5.91504C9.42819 5.31461 10.7012 5.00009 11.9936 4.99902C13.2861 4.99808 14.5601 5.31055 15.7056 5.90918C16.1611 6.14733 16.5898 6.42955 16.9888 6.74805C16.9158 5.83692 16.4491 4.93758 15.603 4.23242C14.6736 3.45792 13.3794 3.00006 12.0005 3Z" fill="#E4F2F2"/>
</svg>
