<svg width="24" height="24" viewBox="0 0 24 24" fill="none" xmlns="http://www.w3.org/2000/svg">
<path fill-rule="evenodd" clip-rule="evenodd" d="M6.0029 14.9888C6.68843 15.01 7.34634 15.2515 7.87986 15.6743L8.10056 15.8667L8.11228 15.8784C9.30025 17.0514 9.28464 18.9329 8.26462 20.1421L8.2656 20.1431C7.82287 20.6701 7.21262 21.0567 6.62595 21.3433C6.02783 21.6354 5.3825 21.8581 4.80271 22.0239C4.21993 22.1906 3.68208 22.3061 3.29099 22.3804C3.09476 22.4176 2.93283 22.4454 2.81931 22.4634C2.76288 22.4723 2.71809 22.4793 2.6865 22.4839C2.67068 22.4862 2.65742 22.4875 2.64841 22.4888C2.64411 22.4894 2.64032 22.4903 2.63767 22.4907H2.63279C2.32397 22.532 2.01327 22.4268 1.79294 22.2065C1.57282 21.9863 1.46763 21.6763 1.50876 21.3677V21.3657C1.50888 21.3648 1.50954 21.3632 1.50974 21.3618C1.51011 21.3591 1.51011 21.3555 1.51072 21.3511C1.51196 21.3421 1.51429 21.3296 1.51657 21.314C1.52118 21.2823 1.52808 21.2369 1.53708 21.1802C1.55507 21.0667 1.58188 20.9056 1.61911 20.7095C1.69336 20.3185 1.80887 19.7806 1.97556 19.1977C2.14142 18.6179 2.36404 17.9717 2.65622 17.3735C2.94279 16.7869 3.32944 16.1766 3.85642 15.7339C4.45555 15.2294 5.22004 14.9646 6.0029 14.9888ZM5.94138 16.9878C5.65078 16.9788 5.36687 17.0769 5.1445 17.2642L5.14353 17.2651C4.92062 17.4524 4.68213 17.7826 4.4531 18.2515C4.22967 18.7089 4.04603 19.2349 3.89939 19.7475C3.85228 19.9122 3.80982 20.0735 3.77146 20.228C3.92609 20.1896 4.08812 20.1482 4.2529 20.1011C4.76539 19.9545 5.29073 19.7697 5.74802 19.5464C6.2168 19.3174 6.54709 19.0798 6.73435 18.8569L6.7363 18.854C7.13318 18.3842 7.09851 17.6909 6.70993 17.3042C6.50078 17.109 6.22763 16.9967 5.94138 16.9878Z" fill="#E4F2F2"/>
<path fill-rule="evenodd" clip-rule="evenodd" d="M22.0058 0.999502C22.5556 1.00294 22.9998 1.44978 23 1.9995C23 4.80972 22.2101 9.70562 17.1465 13.4145C17.2317 13.7723 17.3293 14.2433 17.3965 14.7642C17.4696 15.3314 17.5108 15.9848 17.4511 16.6274C17.3922 17.2614 17.2285 17.9593 16.832 18.5542L16.831 18.5552C16.1522 19.5699 14.872 20.1584 13.9775 20.4829C13.4969 20.6572 13.0526 20.7817 12.7295 20.8618C12.5674 20.902 12.4337 20.9316 12.3388 20.9517C12.2914 20.9617 12.2526 20.9688 12.2256 20.9741C12.2123 20.9767 12.2012 20.9795 12.1933 20.9809C12.1896 20.9816 12.186 20.9824 12.1836 20.9829H12.1787C11.887 21.0358 11.5869 20.957 11.3593 20.7671C11.1318 20.5771 11 20.2959 11 19.9995V15.4136L8.58689 13.0005H3.99997C3.70365 13.0005 3.42239 12.8685 3.2324 12.6411C3.04254 12.4137 2.96288 12.1133 3.0156 11.8218L3.99997 12.0005L3.01657 11.8208V11.8159C3.01703 11.8134 3.0178 11.81 3.01853 11.8061C3.02002 11.7982 3.02274 11.7873 3.02536 11.7739C3.03063 11.7469 3.03786 11.7089 3.04782 11.6616C3.06781 11.5668 3.09748 11.433 3.13767 11.271C3.21781 10.9479 3.34226 10.5035 3.51658 10.0229C3.84102 9.12848 4.42944 7.8474 5.44431 7.16845C6.03929 6.77179 6.73799 6.60726 7.37204 6.54833C8.01471 6.4886 8.66796 6.5299 9.23532 6.60302C9.76093 6.67076 10.2358 6.77 10.5947 6.85595C11.8057 5.14662 13.39 3.73008 15.2314 2.71728C17.3061 1.57633 19.6382 0.984875 22.0058 0.999502ZM15.3388 14.5493C14.5807 14.9677 13.8002 15.3444 13 15.6763V18.7036C13.0958 18.6723 13.1948 18.6393 13.2949 18.603C14.1577 18.29 14.8778 17.8788 15.1689 17.4438C15.3118 17.2288 15.4177 16.8963 15.4599 16.4419C15.5014 15.9954 15.4749 15.4998 15.4131 15.02C15.3921 14.8571 15.3654 14.6994 15.3388 14.5493ZM20.958 3.03954C19.2911 3.17499 17.6675 3.66055 16.1953 4.47021C14.4195 5.44689 12.9223 6.86133 11.8476 8.57958L11.8418 8.58935C11.1965 9.59718 10.639 10.6581 10.1748 11.7602L12.2412 13.8267C13.3566 13.3635 14.4312 12.8068 15.4531 12.1616C19.6781 9.32381 20.7535 5.61369 20.958 3.03954ZM7.55759 8.54052C7.10228 8.58284 6.76967 8.68917 6.55466 8.83251C6.1202 9.12424 5.70911 9.84272 5.39646 10.7046C5.36004 10.805 5.32629 10.9043 5.2949 11.0005H8.32615C8.6625 10.2002 9.04335 9.41951 9.46775 8.66259C9.31245 8.63488 9.14865 8.60822 8.97947 8.58642C8.49955 8.52458 8.00411 8.49906 7.55759 8.54052Z" fill="#E4F2F2"/>
</svg>
