<svg width="24" height="24" viewBox="0 0 24 24" fill="none" xmlns="http://www.w3.org/2000/svg">
<path fill-rule="evenodd" clip-rule="evenodd" d="M3.22509 1.03858C3.75601 0.887112 4.30974 1.19517 4.46142 1.72608L7.25439 11.5005H9.47705C9.49039 11.5002 9.50371 11.5003 9.51709 11.5005H17.9995C18.5518 11.5005 18.9995 11.9482 18.9995 12.5005C18.9992 13.0526 18.5516 13.5005 17.9995 13.5005H16.5698L18.9644 18.6323C19.5241 18.2331 20.0522 17.7889 20.5376 17.2974C20.9257 16.9044 21.5597 16.9005 21.9526 17.2886C22.3455 17.6766 22.3495 18.3107 21.9614 18.7036C20.6593 20.0221 19.1077 21.0692 17.3979 21.7837C15.6881 22.4982 13.8526 22.8657 11.9995 22.8657C10.1463 22.8657 8.31095 22.4983 6.60107 21.7837C4.89122 21.0691 3.33973 20.0222 2.03759 18.7036C1.6497 18.3108 1.65391 17.6767 2.04638 17.2886C2.43934 16.9005 3.07336 16.9044 3.46142 17.2974C3.95937 17.8016 4.50267 18.2556 5.07861 18.6626L7.83252 13.5005H6.49951C6.05331 13.5003 5.66033 13.2039 5.53759 12.7749L2.53759 2.2749C2.38618 1.74415 2.69449 1.19047 3.22509 1.03858ZM6.80322 19.6812C6.99069 19.7712 7.18021 19.8576 7.37256 19.938C8.83815 20.5505 10.4111 20.8657 11.9995 20.8657C13.5879 20.8657 15.1609 20.5504 16.6265 19.938C16.8328 19.8518 17.0361 19.758 17.2368 19.6606L14.3628 13.5005H10.1001L6.80322 19.6812Z" fill="#E4F2F2"/>
</svg>
