<svg width="24" height="24" viewBox="0 0 24 24" fill="none" xmlns="http://www.w3.org/2000/svg">
<path fill-rule="evenodd" clip-rule="evenodd" d="M15.0249 1.0957C15.9946 0.902919 17.0002 1.00255 17.9136 1.38085C18.8269 1.75925 19.6084 2.39972 20.1577 3.22167C20.707 4.04385 21.0005 5.01119 21.0005 5.99999C21.0686 6.05107 21.136 6.10347 21.2017 6.1582C22.1004 6.90685 22.7083 7.94718 22.9194 9.09765C23.1305 10.2483 22.9315 11.437 22.3569 12.456C21.8182 13.4115 20.9809 14.1609 19.9771 14.5928L19.7749 14.6748L17.4849 15.5439C15.8629 16.1611 14.0695 16.1549 12.4526 15.5244C11.275 15.0652 10.2534 14.2984 9.48487 13.3164C8.36106 14.0152 7.40148 14.8801 6.59131 15.8018C8.34108 15.8066 9.60092 16.2731 10.5884 16.9912C11.9523 17.9833 12.7348 19.6395 13.2495 21.1836C13.3402 21.4556 13.3093 21.7539 13.1655 22.0019C13.0216 22.2499 12.7776 22.4241 12.4966 22.4805C10.4388 22.892 8.65919 22.9465 7.05323 22.0928V22.0947C5.96115 21.5487 5.0154 20.5814 4.28955 19.1621C3.86335 19.9605 3.54962 20.6793 3.3335 21.2266C3.2019 21.5598 3.10726 21.8287 3.04639 22.0107C3.01607 22.1014 2.99386 22.1709 2.97998 22.2158L2.9624 22.2744L2.9292 22.3721C2.74143 22.8424 2.22357 23.1036 1.72608 22.9619C1.19517 22.8102 0.887112 22.2565 1.03858 21.7256L2.00049 22C1.12702 21.7504 1.04678 21.727 1.03955 21.7246V21.7217C1.04003 21.72 1.04082 21.7172 1.04151 21.7148C1.04294 21.7099 1.04502 21.7032 1.04737 21.6953C1.05231 21.6787 1.05984 21.6552 1.06885 21.626C1.08708 21.5669 1.11345 21.4821 1.14893 21.376C1.21998 21.1635 1.32728 20.8616 1.47315 20.4922C1.76468 19.7539 2.21548 18.7397 2.85498 17.6269C4.01145 15.6148 5.82189 13.2153 8.4878 11.5771C7.92824 10.1628 7.84114 8.59871 8.25244 7.12304C8.7184 5.4516 9.78866 4.01204 11.2554 3.08495L13.3247 1.77538C13.3407 1.76528 13.3572 1.75616 13.3735 1.74706C13.8782 1.43509 14.4369 1.21266 15.0249 1.0957ZM9.4126 18.6084C8.72057 18.1051 7.69656 17.686 5.86865 17.8291C6.42948 19.1066 7.12055 19.8323 7.78174 20.2158L7.94776 20.3057L7.97412 20.3193C8.74335 20.7334 9.64936 20.8559 10.9253 20.708C10.5144 19.7814 10.0222 19.0518 9.4126 18.6084ZM11.0024 5.99413C10.6296 6.48916 10.3484 7.05313 10.1792 7.66015C9.84642 8.85418 9.96876 10.1295 10.523 11.2383C11.0773 12.3471 12.0243 13.2107 13.1792 13.6611C14.3342 14.1115 15.6163 14.1167 16.7749 13.6758L19.0649 12.8057C19.7212 12.5567 20.27 12.085 20.6147 11.4736C20.9594 10.8623 21.0783 10.1493 20.9517 9.45898C20.8305 8.79886 20.4907 8.20082 19.9897 7.75683C19.9962 7.83705 20.0005 7.91812 20.0005 7.99999C20.0005 9.60493 18.7397 10.9155 17.1548 10.9961L17.0005 11H16.0005C15.0117 11 14.0444 10.7065 13.2222 10.1572C12.4001 9.60783 11.7597 8.82656 11.3814 7.91308C11.1281 7.30173 11.0019 6.64951 11.0024 5.99413ZM17.0005 6.99999C16.4483 6.99999 16.0006 7.4478 16.0005 7.99999C16.0005 8.55228 16.4482 8.99999 17.0005 8.99999C17.5526 8.99973 18.0005 8.55212 18.0005 7.99999C18.0004 7.44796 17.5525 7.00026 17.0005 6.99999ZM17.1489 3.22851C16.601 3.00155 15.9972 2.94207 15.4155 3.05761C14.8337 3.17334 14.2989 3.45953 13.8794 3.8789C13.4599 4.29839 13.1739 4.8332 13.0581 5.41503C12.9424 5.99688 13.002 6.60035 13.229 7.14843C13.4036 7.56971 13.6718 7.9429 14.0103 8.24316C14.0038 8.163 14.0005 8.08181 14.0005 7.99999C14.0006 6.34404 15.3419 5.00131 16.9976 4.99999H17.9995L18.2183 5.00488C18.4311 5.01412 18.6427 5.03634 18.8511 5.07226C18.7664 4.81222 18.6482 4.56279 18.4946 4.333C18.1651 3.84003 17.6967 3.45556 17.1489 3.22851Z" fill="#E4F2F2"/>
</svg>
