<svg width="24" height="24" viewBox="0 0 24 24" fill="none" xmlns="http://www.w3.org/2000/svg">
<path fill-rule="evenodd" clip-rule="evenodd" d="M12 1C13.3887 1 14.5587 1.79792 15.4385 2.90332C16.2272 3.89442 16.8506 5.2119 17.2852 6.70996C17.7994 6.85893 18.2889 7.02954 18.749 7.21973C20.5787 7.976 22.115 9.11858 22.7266 10.624C22.9341 11.1355 22.6881 11.7189 22.1768 11.9268C21.6651 12.1346 21.0809 11.8877 20.873 11.376C20.5574 10.5996 19.6129 9.74145 17.9844 9.06836C16.3939 8.41106 14.3085 8 12 8C10.6985 8 9.46967 8.13036 8.36133 8.36133C8.13036 9.46967 8 10.6985 8 12C8 13.3011 8.13048 14.5296 8.36133 15.6377C9.46972 15.8687 10.6984 16 12 16C13.6362 16 15.1572 15.7933 16.4688 15.4404L14.7559 14.6055C14.2597 14.3633 14.0539 13.7649 14.2959 13.2686C14.5381 12.7724 15.1365 12.5666 15.6328 12.8086L19.4463 14.668C19.9423 14.9101 20.1489 15.5087 19.9072 16.0049L18.0469 19.8193C17.8048 20.3155 17.2063 20.522 16.71 20.2803C16.2136 20.0382 16.0079 19.4388 16.25 18.9424L17.0195 17.3633C15.5078 17.7731 13.7979 18 12 18C10.9594 18 9.94806 17.9227 8.9873 17.7793C9.1036 18.0776 9.22736 18.36 9.35938 18.624C10.2111 20.3272 11.2024 21 12 21C12.2049 21 12.4125 20.9588 12.624 20.873C13.1357 20.6655 13.7191 20.9122 13.9268 21.4238C14.1343 21.9356 13.8877 22.5189 13.376 22.7266C12.9415 22.9028 12.4791 23 12 23C10.0367 23 8.52833 21.4344 7.57031 19.5186C7.23476 18.8475 6.94794 18.097 6.71289 17.2861C5.90251 17.0511 5.15219 16.7651 4.48145 16.4297C2.56565 15.4717 1 13.9633 1 12C1 10.0367 2.56565 8.52833 4.48145 7.57031C5.15226 7.23488 5.90241 6.9479 6.71289 6.71289C6.9479 5.90241 7.23488 5.15226 7.57031 4.48145C8.52833 2.56565 10.0367 1 12 1ZM6.21973 8.9873C5.92169 9.10351 5.63974 9.22748 5.37598 9.35938C3.67279 10.2111 3 11.2024 3 12C3 12.7976 3.67279 13.7889 5.37598 14.6406C5.63964 14.7725 5.92182 14.8956 6.21973 15.0117C6.07641 14.0513 6 13.0402 6 12C6 10.9594 6.07631 9.94802 6.21973 8.9873ZM12 3C11.2024 3 10.2111 3.67279 9.35938 5.37598C9.22748 5.63974 9.10351 5.92169 8.9873 6.21973C9.94802 6.07631 10.9594 6 12 6C13.0412 6 14.0521 6.07662 15.0117 6.21973C14.684 5.37906 14.2959 4.67958 13.874 4.14941C13.2146 3.32077 12.5631 3 12 3Z" fill="#E4F2F2"/>
</svg>
