<svg width="24" height="24" viewBox="0 0 24 24" fill="none" xmlns="http://www.w3.org/2000/svg">
<path d="M21 2C21.5522 2.00003 22 2.44773 22 3V8C22 8.04744 21.9956 8.09397 21.9892 8.13965C21.982 8.19105 21.9712 8.242 21.956 8.29199C21.9518 8.30563 21.9461 8.31865 21.9414 8.33203C21.9352 8.34942 21.9289 8.36669 21.9218 8.38379C21.9181 8.39269 21.9141 8.40138 21.9101 8.41016C21.9003 8.43188 21.8903 8.45348 21.8789 8.47461C21.801 8.61853 21.6891 8.7406 21.5537 8.83105C21.5145 8.85719 21.4742 8.88036 21.4326 8.90039C21.3871 8.92229 21.34 8.94116 21.291 8.95605C21.2742 8.96114 21.2571 8.96457 21.2402 8.96875C21.2246 8.97261 21.2092 8.97735 21.1933 8.98047C21.1862 8.98186 21.1789 8.98216 21.1718 8.9834C21.1489 8.98739 21.126 8.99273 21.1025 8.99512L21 9H15.9999C15.4477 9 14.9999 8.55228 14.9999 8C14.9999 7.44772 15.4477 7 15.9999 7H18.5859L18.0468 6.46094L17.7353 6.1748C16.147 4.78617 14.1132 4.00001 11.9999 4C10.4177 4 8.8712 4.4696 7.55561 5.34863C6.2401 6.22764 5.21483 7.47677 4.60932 8.93848C4.00386 10.4002 3.84465 12.0088 4.15327 13.5605C4.46195 15.1124 5.22391 16.5384 6.34272 17.6572C7.46154 18.776 8.88757 19.538 10.4394 19.8467C11.9912 20.1553 13.5998 19.9961 15.0615 19.3906C16.5232 18.7851 17.7723 17.7598 18.6513 16.4443C19.5304 15.1287 20 13.5822 20 12C20 11.4477 20.4477 11 21 11C21.5522 11 22 11.4477 22 12C22 13.9778 21.4132 15.9112 20.3144 17.5557C19.2156 19.2001 17.6543 20.4824 15.8271 21.2393C13.9999 21.9961 11.9886 22.1935 10.0488 21.8076C8.1091 21.4217 6.32711 20.4697 4.92866 19.0713C3.53021 17.6728 2.57822 15.8909 2.19233 13.9512C1.80648 12.0114 2.00382 10.0001 2.76069 8.17285C3.51756 6.34568 4.79987 4.78433 6.44429 3.68555C8.08877 2.58675 10.0222 2 11.9999 2C14.6116 2.00001 17.1093 2.97158 19.0517 4.66992L19.4326 5.01953L19.4472 5.0332L20 5.58594V3C20 2.44772 20.4477 2 21 2Z" fill="#E4F2F2"/>
</svg>
