<svg width="24" height="24" viewBox="0 0 24 24" fill="none" xmlns="http://www.w3.org/2000/svg">
<path d="M8 3.99999C8.55228 3.99999 9 4.4477 9 4.99999C8.99996 5.55224 8.55226 5.99999 8 5.99999H6C5.73478 5.99999 5.4805 6.10542 5.29297 6.29295C5.10546 6.48049 5 6.73479 5 6.99999V18L5.00488 18.0986C5.02759 18.3276 5.12884 18.5429 5.29297 18.707C5.4805 18.8945 5.7348 19 6 19H18C18.2652 19 18.5195 18.8945 18.707 18.707C18.8946 18.5195 19 18.2652 19 18V13C19 12.4477 19.4477 12 20 12C20.5523 12 21 12.4477 21 13V18C21 18.7956 20.6837 19.5585 20.1211 20.1211C19.5585 20.6837 18.7956 21 18 21H6C5.20437 21 4.44151 20.6837 3.87891 20.1211C3.31631 19.5585 3.00002 18.7956 3 18V6.99999C3 6.20435 3.31632 5.4415 3.87891 4.87889C4.44152 4.31628 5.20435 3.99999 6 3.99999H8Z" fill="#E4F2F2"/>
<path d="M14.293 1.29295C14.6835 0.90243 15.3165 0.90243 15.707 1.29295C16.0975 1.68348 16.0975 2.3165 15.707 2.70702L14.4141 3.99999H18C18.7956 3.99999 19.5585 4.31628 20.1211 4.87889C20.6837 5.4415 21 6.20435 21 6.99999V8.99999C21 9.55224 20.5523 9.99999 20 9.99999C19.4477 9.99999 19 9.55224 19 8.99999V6.99999C19 6.73479 18.8945 6.48049 18.707 6.29295C18.5429 6.12881 18.3276 6.02756 18.0986 6.00487L18 5.99999H14.4141L15.707 7.29295C16.0975 7.68348 16.0975 8.31651 15.707 8.70702C15.3165 9.09749 14.6835 9.09749 14.293 8.70702L11.293 5.70702C11.2618 5.67588 11.2342 5.64236 11.208 5.60838C11.1942 5.59048 11.1805 5.57254 11.168 5.5537C11.142 5.51471 11.1196 5.47411 11.0996 5.4326C11.0777 5.38703 11.0579 5.3401 11.043 5.291C11.0379 5.27428 11.0345 5.25714 11.0303 5.24022C11.0112 5.16318 11 5.0829 11 4.99999C11 4.92031 11.0097 4.84283 11.0273 4.76854C11.0322 4.74799 11.0368 4.72729 11.043 4.70702C11.0579 4.65827 11.0778 4.61166 11.0996 4.56639C11.1188 4.5266 11.1403 4.48767 11.165 4.45018C11.2024 4.39352 11.2452 4.34077 11.293 4.29295L14.293 1.29295Z" fill="#E4F2F2"/>
</svg>
