<svg width="24" height="24" viewBox="0 0 24 24" fill="none" xmlns="http://www.w3.org/2000/svg">
<path d="M18 3.99999C18.7956 3.99999 19.5585 4.31628 20.1211 4.87889C20.6837 5.4415 21 6.20435 21 6.99999V18C21 18.7956 20.6837 19.5585 20.1211 20.1211C19.5585 20.6837 18.7956 21 18 21H6C5.20437 21 4.44151 20.6837 3.87891 20.1211C3.31631 19.5585 3.00002 18.7956 3 18V14C3 13.4477 3.44772 13 4 13C4.55228 13 5 13.4477 5 14V18L5.00488 18.0986C5.02759 18.3276 5.12884 18.5429 5.29297 18.707C5.4805 18.8945 5.7348 19 6 19H18C18.2652 19 18.5195 18.8945 18.707 18.707C18.8946 18.5195 19 18.2652 19 18V6.99999C19 6.73479 18.8945 6.48049 18.707 6.29295C18.5429 6.12881 18.3276 6.02756 18.0986 6.00487L18 5.99999H16C15.4477 5.99999 15 5.55224 15 4.99999C15 4.4477 15.4477 3.99999 16 3.99999H18Z" fill="#E4F2F2"/>
<path d="M8.29297 1.29295C8.68349 0.90243 9.31651 0.90243 9.70703 1.29295L12.707 4.29295C12.7548 4.34077 12.7976 4.39352 12.835 4.45018C12.8597 4.48767 12.8812 4.5266 12.9004 4.56639C12.9222 4.61158 12.9412 4.65836 12.9561 4.70702C12.9623 4.7273 12.9668 4.74797 12.9717 4.76854C12.9893 4.8429 13 4.92023 13 4.99999C13 5.08298 12.9878 5.16311 12.9688 5.24022C12.9646 5.25716 12.9611 5.27426 12.9561 5.291C12.9412 5.34 12.9223 5.38711 12.9004 5.4326C12.8804 5.47427 12.8572 5.51457 12.8311 5.5537C12.8185 5.57254 12.8048 5.59047 12.791 5.60838C12.7649 5.64219 12.738 5.67603 12.707 5.70702L9.70703 8.70702C9.31652 9.09749 8.68348 9.09749 8.29297 8.70702C7.90246 8.31651 7.90248 7.68348 8.29297 7.29295L9.58594 5.99999H6C5.73478 5.99999 5.4805 6.10542 5.29297 6.29295C5.10546 6.48049 5 6.73479 5 6.99999V9.99999C4.99996 10.5522 4.55226 11 4 11C3.44774 11 3.00004 10.5522 3 9.99999V6.99999C3 6.20435 3.31632 5.4415 3.87891 4.87889C4.44152 4.31628 5.20435 3.99999 6 3.99999H9.58594L8.29297 2.70702C7.90246 2.3165 7.90248 1.68348 8.29297 1.29295Z" fill="#E4F2F2"/>
</svg>
