<svg width="24" height="24" viewBox="0 0 24 24" fill="none" xmlns="http://www.w3.org/2000/svg">
<path fill-rule="evenodd" clip-rule="evenodd" d="M1.29295 1.29297C1.68348 0.902482 2.3165 0.902457 2.70702 1.29297L5.89452 4.48047C5.90115 4.48685 5.90758 4.49342 5.91405 4.5L22.707 21.293C23.0975 21.6835 23.0975 22.3165 22.707 22.707C22.3165 23.0975 21.6835 23.0975 21.293 22.707L18.4775 19.8916C18.1633 19.951 17.8191 20 17.5 20H9.87401C9.42998 21.7252 7.8638 23 5.99999 23C3.79085 23 1.99999 21.2091 1.99999 19C1.99999 16.7909 3.79085 15 5.99999 15C7.8638 15 9.42998 16.2748 9.87401 18H16.5859L11.5859 13H6.4951C5.45136 12.9945 4.44281 12.6237 3.64159 11.9531C2.84055 11.2826 2.29609 10.3537 2.09959 9.32617C1.90322 8.29877 2.06628 7.23424 2.56151 6.31348C2.82841 5.8173 3.1829 5.37909 3.60448 5.01855L1.29295 2.70703C0.90243 2.31651 0.90243 1.68349 1.29295 1.29297ZM5.99999 17C4.89542 17 3.99999 17.8954 3.99999 19C3.99999 20.1046 4.89542 21 5.99999 21C7.10452 21 7.99999 20.1045 7.99999 19C7.99999 17.8955 7.10452 17 5.99999 17ZM5.02538 6.43945C4.73753 6.65644 4.49768 6.93646 4.32323 7.26074C4.04591 7.77629 3.95411 8.37408 4.06444 8.95117C4.17485 9.52787 4.47934 10.047 4.92479 10.4199C5.37023 10.7927 5.92964 10.997 6.50585 11H9.58592L5.02538 6.43945Z" fill="#E4F2F2"/>
<path d="M17.7558 11.002C18.8609 11.0636 19.9048 11.5299 20.6875 12.3125C21.4701 13.0952 21.9374 14.139 21.999 15.2441C22.0297 15.7955 21.6069 16.268 21.0556 16.2988C20.5043 16.3294 20.0326 15.9068 20.0019 15.3555C19.9677 14.7415 19.7082 14.1614 19.2734 13.7266C18.8386 13.2918 18.2584 13.0323 17.6445 12.998C17.0931 12.9673 16.6714 12.4957 16.7021 11.9443C16.7329 11.393 17.2044 10.9713 17.7558 11.002Z" fill="#E4F2F2"/>
<path fill-rule="evenodd" clip-rule="evenodd" d="M18 1C20.2091 1.00004 22 2.79089 22 5C22 7.20911 20.2091 8.99996 18 9C16.1361 9 14.57 7.72522 14.126 6H10.7002C10.1479 6 9.70018 5.55228 9.70018 5C9.70018 4.44772 10.1479 4 10.7002 4H14.126C14.57 2.27478 16.1361 1 18 1ZM18 3C16.8954 3 16 3.89543 16 5C16 6.10457 16.8954 7 18 7C19.1045 6.99996 20 6.10454 20 5C20 3.89546 19.1045 3.00004 18 3Z" fill="#E4F2F2"/>
</svg>
