<svg width="24" height="24" viewBox="0 0 24 24" fill="none" xmlns="http://www.w3.org/2000/svg">
<path fill-rule="evenodd" clip-rule="evenodd" d="M20 0.999976C20.5523 0.999976 20.9999 1.44774 21 1.99998V15C22.1045 15 22.9999 15.8955 23 17V21C23 22.1045 22.1046 23 21 23H19C17.8954 23 17 22.1045 17 21V17C17.0001 15.8955 17.8955 15 19 15V13H5V15C6.10454 15 6.99995 15.8955 7 17V21C7 22.1045 6.10457 23 5 23H3C1.89543 23 1 22.1045 1 21V17C1.00005 15.8955 1.89546 15 3 15V1.99998C3.00005 1.44774 3.44775 0.999976 4 0.999976C4.55225 0.999976 4.99995 1.44774 5 1.99998V11H19V1.99998C19.0001 1.44774 19.4477 0.999976 20 0.999976ZM3 21H5V17H3V21ZM19 21H21V17H19V21Z" fill="#E4F2F2"/>
<path fill-rule="evenodd" clip-rule="evenodd" d="M13.876 1.00779C14.3885 0.943781 14.875 0.97436 15.2793 1.05857C15.4815 1.10071 15.6782 1.15971 15.8555 1.23533C15.9767 1.28705 16.1264 1.36237 16.2686 1.47166L16.4072 1.59275L16.4951 1.69333C16.5753 1.7984 16.6344 1.91909 16.668 2.04783C16.8645 2.80095 16.9025 3.58708 16.7783 4.35544C16.6541 5.12386 16.3701 5.85781 15.9463 6.51072C15.5226 7.16349 14.9675 7.72119 14.3164 8.14744C13.6652 8.5736 12.9318 8.86015 12.1641 8.98728C12.1512 8.98941 12.137 8.99056 12.124 8.99216C11.1121 9.11855 10.2663 8.87875 9.74609 8.5322C9.54224 8.3963 9.39502 8.19011 9.33301 7.9531C9.13646 7.20004 9.09856 6.41381 9.22266 5.64548C9.34685 4.87699 9.63084 4.14219 10.0547 3.48923C10.4785 2.83649 11.0334 2.2787 11.6846 1.85251C12.3358 1.42638 13.0691 1.14073 13.8369 1.01365C13.8497 1.01154 13.8632 1.0094 13.876 1.00779ZM14.1484 2.99021C13.6605 3.07312 13.1945 3.25531 12.7803 3.52634C12.3616 3.80035 12.0039 4.15843 11.7314 4.5781C11.459 4.99778 11.2771 5.46991 11.1973 5.96384C11.1426 6.30242 11.1373 6.64659 11.1797 6.98533C11.348 7.02152 11.5766 7.04245 11.8604 7.00876C12.3453 6.9252 12.8088 6.7441 13.2207 6.47459C13.6393 6.20056 13.9971 5.84152 14.2695 5.42185C14.5419 5.0022 14.7239 4.52997 14.8037 4.03611C14.8588 3.69516 14.8627 3.34882 14.8193 3.00779C14.636 2.97518 14.4017 2.96115 14.1484 2.99021Z" fill="#E4F2F2"/>
</svg>
