<svg width="24" height="24" viewBox="0 0 24 24" fill="none" xmlns="http://www.w3.org/2000/svg">
<path fill-rule="evenodd" clip-rule="evenodd" d="M13 6C13.7956 6 14.5585 6.3163 15.1211 6.87891C15.6837 7.44151 16 8.20435 16 9C16 9.79565 15.6837 10.5585 15.1211 11.1211C14.5585 11.6837 13.7957 12 13 12H11V14H13C13.5523 14 14 14.4477 14 15C14 15.5523 13.5523 16 13 16H11V17C11 17.5523 10.5523 18 10 18C9.44772 18 9 17.5523 9 17V16H8C7.44772 16 7 15.5523 7 15C7 14.4477 7.44772 14 8 14H9V12H8C7.44772 12 7 11.5523 7 11C7 10.4477 7.44772 10 8 10H9V7L9.00488 6.89746C9.05621 6.39333 9.48232 6 10 6H13ZM11 10H13C13.2652 10 13.5195 9.89457 13.707 9.70703C13.8946 9.51949 14 9.26522 14 9C14 8.73478 13.8946 8.48051 13.707 8.29297C13.5429 8.12883 13.3276 8.02757 13.0986 8.00488L13 8H11V10Z" fill="#E4F2F2"/>
<path fill-rule="evenodd" clip-rule="evenodd" d="M19 2C20.6569 2 22 3.34315 22 5V19C22 20.6569 20.6569 22 19 22H5C3.34315 22 2 20.6569 2 19V5C2 3.34315 3.34315 2 5 2H19ZM5 4C4.44772 4 4 4.44772 4 5V19C4 19.5523 4.44772 20 5 20H19C19.5523 20 20 19.5523 20 19V5C20 4.44772 19.5523 4 19 4H5Z" fill="#E4F2F2"/>
</svg>
