<svg width="24" height="24" viewBox="0 0 24 24" fill="none" xmlns="http://www.w3.org/2000/svg">
<path fill-rule="evenodd" clip-rule="evenodd" d="M13 6C13.7956 6 14.5585 6.3163 15.1211 6.87891C15.6837 7.44151 16 8.20435 16 9C16 9.79565 15.6837 10.5585 15.1211 11.1211C14.5585 11.6837 13.7957 12 13 12H11V14H13C13.5523 14 14 14.4477 14 15C14 15.5523 13.5523 16 13 16H11V17C11 17.5523 10.5523 18 10 18C9.44771 18 9 17.5523 9 17V16H8C7.44772 16 7 15.5523 7 15C7 14.4477 7.44772 14 8 14H9V12H8C7.44772 12 7 11.5523 7 11C7 10.4477 7.44772 10 8 10H9V7L9.00488 6.89746C9.05621 6.39333 9.48232 6 10 6H13ZM11 10H13C13.2652 10 13.5195 9.89457 13.707 9.70703C13.8946 9.51949 14 9.26522 14 9C14 8.73478 13.8946 8.48051 13.707 8.29297C13.5429 8.12883 13.3276 8.02757 13.0986 8.00488L13 8H11V10Z" fill="#E4F2F2"/>
<path fill-rule="evenodd" clip-rule="evenodd" d="M12 1C18.0751 1 23 5.92487 23 12C23 18.0751 18.0751 23 12 23C5.92487 23 1 18.0751 1 12C1 5.92487 5.92487 1 12 1ZM12 3C7.02944 3 3 7.02944 3 12C3 16.9706 7.02944 21 12 21C16.9706 21 21 16.9706 21 12C21 7.02944 16.9706 3 12 3Z" fill="#E4F2F2"/>
</svg>
