<svg width="24" height="24" viewBox="0 0 24 24" fill="none" xmlns="http://www.w3.org/2000/svg">
<path fill-rule="evenodd" clip-rule="evenodd" d="M19.3359 2.32324C20.166 2.3729 20.9501 2.72548 21.5381 3.31347C22.1257 3.90145 22.4778 4.68484 22.5273 5.51465C22.5625 6.10392 22.4405 6.68687 22.1846 7.20996C22.3072 7.47365 22.3973 7.75286 22.4492 8.04101C22.5434 8.5643 22.5138 9.10363 22.3623 9.61328C22.2107 10.1228 21.9409 10.5898 21.5762 10.9766C21.5339 11.0213 21.4898 11.0642 21.4453 11.1064C21.541 11.1541 21.63 11.2159 21.707 11.293C21.8946 11.4805 22 11.7348 22 12C22 14.6521 20.9466 17.1959 19.0713 19.0713C18.6336 19.509 18.1587 19.9009 17.6553 20.2461C17.866 20.4294 18 20.6987 18 21C18 21.5523 17.5523 22 17 22H7C6.44772 22 6 21.5523 6 21C6.00002 20.6985 6.13369 20.4284 6.34473 20.2451C5.84148 19.9 5.36629 19.5089 4.92871 19.0713C3.05337 17.1959 2 14.6521 2 12C2.00002 11.7348 2.10545 11.4805 2.29297 11.293C2.4805 11.1054 2.7348 11 3 11H3.10352C3.05921 10.7852 3.02713 10.5654 3.01172 10.3408L3 10C2.99604 8.99936 3.29314 8.02019 3.85254 7.19043C4.41306 6.35914 5.21123 5.71593 6.14258 5.34472C7.07394 4.97354 8.09557 4.89153 9.07422 5.10937C9.44733 5.19245 9.80747 5.31773 10.1484 5.48144C10.3484 4.96104 10.6729 4.49688 11.0957 4.13086C11.561 3.7281 12.1273 3.45895 12.7334 3.35254C13.0898 3.29002 13.4526 3.28657 13.8076 3.33789C13.9607 3.18553 14.1285 3.04794 14.3086 2.92675C14.6979 2.66487 15.137 2.48619 15.5986 2.40234C16.0603 2.31857 16.5347 2.33112 16.9912 2.43945C17.2156 2.49274 17.4337 2.56914 17.6416 2.66601C18.1646 2.41038 18.7469 2.2881 19.3359 2.32324ZM4.06543 13C4.28631 14.7529 5.08024 16.3947 6.34277 17.6572C7.84306 19.1575 9.87827 20 12 20L12.3965 19.9902C14.3739 19.8922 16.2507 19.0638 17.6572 17.6572C18.9198 16.3947 19.7137 14.7529 19.9346 13H4.06543ZM8.63965 7.06152C8.05324 6.931 7.44088 6.9807 6.88281 7.20312C6.32488 7.42558 5.84653 7.81057 5.51074 8.30859C5.17503 8.8066 4.99701 9.39452 5 9.99511V10C5.00005 10.3501 5.06214 10.6857 5.1748 11H8.2627C8.10437 10.65 8.00243 10.2741 7.96973 9.88476C7.89803 9.02981 8.15256 8.1793 8.68164 7.5039C8.77636 7.383 8.87833 7.26901 8.9873 7.16308C8.87376 7.12287 8.75807 7.08789 8.63965 7.06152ZM19.2168 4.32031C18.8751 4.29993 18.5377 4.40482 18.2686 4.61621C17.912 4.89643 17.4111 4.90155 17.0488 4.6289C16.8946 4.51271 16.7172 4.42942 16.5293 4.38476C16.3415 4.34022 16.146 4.33567 15.9561 4.37011C15.766 4.40464 15.5851 4.47811 15.4248 4.58593C15.2645 4.69381 15.128 4.83395 15.0244 4.99707C14.7693 5.39819 14.2662 5.56446 13.8223 5.39453C13.5857 5.30387 13.3286 5.27853 13.0791 5.32226C12.8297 5.36607 12.5968 5.4769 12.4053 5.64258C12.2137 5.80844 12.0703 6.02388 11.9912 6.26465C11.9123 6.50518 11.9003 6.76281 11.9561 7.00976C12.0168 7.2791 11.9634 7.56235 11.8086 7.79101C11.6619 8.00752 11.4357 8.1557 11.1807 8.208C11.1273 8.2236 11.0733 8.23469 11.0186 8.24121C10.7173 8.31643 10.4487 8.4911 10.2559 8.7373C10.0381 9.01538 9.93337 9.36579 9.96289 9.71777C9.99256 10.0696 10.154 10.3979 10.415 10.6357C10.6709 10.8687 11.0041 10.998 11.3496 11H12.5859L16.293 7.29297C16.6835 6.90248 17.3165 6.90248 17.707 7.29297C18.0975 7.68348 18.0975 8.3165 17.707 8.70703L15.4141 11H18.9258C18.8804 10.5508 19.1441 10.1179 19.5801 9.95996C19.7857 9.88539 19.971 9.76356 20.1211 9.60449C20.2713 9.44523 20.3829 9.25278 20.4453 9.04297C20.5077 8.83321 20.5192 8.61088 20.4805 8.3955C20.4417 8.18029 20.3531 7.97652 20.2217 7.80175C19.9489 7.43946 19.9542 6.93859 20.2344 6.58203C20.4457 6.31296 20.5515 5.97532 20.5312 5.63379C20.5108 5.29217 20.3649 4.96961 20.123 4.72754C19.881 4.48555 19.5584 4.34081 19.2168 4.32031Z" fill="#E4F2F2"/>
</svg>
