<svg width="24" height="24" viewBox="0 0 24 24" fill="none" xmlns="http://www.w3.org/2000/svg">
<path fill-rule="evenodd" clip-rule="evenodd" d="M3.87207 9.00781C4.17929 8.96833 4.48797 9.07398 4.70703 9.29297L9 13.5859L11.293 11.293C11.6835 10.9025 12.3165 10.9025 12.707 11.293C13.0975 11.6835 13.0975 12.3165 12.707 12.707L10.4141 15L14.707 19.293C14.9261 19.5121 15.0318 19.8206 14.9922 20.1279C14.9526 20.4352 14.7723 20.7068 14.5049 20.8633C12.9192 21.7903 11.0707 22.1653 9.24902 21.9307C7.42716 21.6958 5.73352 20.8643 4.43457 19.5654C3.13577 18.2666 2.30425 16.5737 2.06934 14.752C1.83449 12.93 2.2096 11.081 3.13672 9.49512L3.20117 9.39941C3.3621 9.18536 3.60329 9.04253 3.87207 9.00781ZM4.31348 11.7275C4.02348 12.6142 3.93206 13.5599 4.05274 14.4961C4.2311 15.8795 4.86332 17.1651 5.84961 18.1514C6.83578 19.1373 8.12087 19.7689 9.50391 19.9473C10.4398 20.0678 11.3852 19.9753 12.2715 19.6855L4.31348 11.7275Z" fill="#E4F2F2"/>
<path d="M11 6C12.8565 6.00003 14.6375 6.73708 15.9502 8.0498C17.2629 9.36255 18 11.1435 18 13C18 13.5522 17.5522 13.9999 17 14C16.4477 14 16 13.5523 16 13C16 11.6739 15.4728 10.4025 14.5352 9.46484C13.5975 8.52719 12.326 8.00003 11 8C10.4477 8 10 7.55228 10 7C10 6.44772 10.4477 6 11 6Z" fill="#E4F2F2"/>
<path d="M11 2C13.9173 2.00003 16.7154 3.15881 18.7783 5.22168C20.8412 7.28457 22 10.0826 22 13C22 13.5522 21.5522 13.9999 21 14C20.4477 14 20 13.5523 20 13C20 10.6131 19.052 8.32356 17.3643 6.63574C15.6765 4.94794 13.3869 4.00003 11 4C10.4477 4 10 3.55228 10 3C10 2.44772 10.4477 2 11 2Z" fill="#E4F2F2"/>
</svg>
