<svg width="24" height="24" viewBox="0 0 24 24" fill="none" xmlns="http://www.w3.org/2000/svg">
<path d="M19.7871 18.5234C20.3266 18.406 20.8589 18.7477 20.9766 19.2871C21.0941 19.8265 20.7523 20.3587 20.2129 20.4766L14.7129 21.6768C14.1734 21.7943 13.6412 21.4526 13.5234 20.9131C13.4057 20.3735 13.7475 19.8404 14.2871 19.7227L19.7871 18.5234Z" fill="#E4F2F2"/>
<path d="M10 1C10.5521 1.00025 11 1.44787 11 2V10.9453L13.5 10.3984V4C13.5 3.44772 13.9477 3 14.5 3C15.0522 3.00013 15.5 3.44779 15.5 4V9.96094L19.7861 9.02344C20.3255 8.90558 20.8585 9.24682 20.9766 9.78613C21.0945 10.3255 20.7531 10.8583 20.2139 10.9766L15.5 12.0068V15.2197L15.5156 15.2158L19.7734 14.2256C20.3113 14.1007 20.8486 14.4358 20.9736 14.9736C21.0986 15.5114 20.7643 16.0486 20.2266 16.1738L15.9688 17.1641L15.9678 17.1631C15.678 17.2328 15.3757 17.2377 15.084 17.1758C14.7871 17.1126 14.5078 16.9827 14.2686 16.7959C14.0293 16.609 13.8353 16.3696 13.7021 16.0967C13.5691 15.8239 13.5001 15.5242 13.5 15.2207V12.4443L11 12.9912V16C11.0129 16.6627 10.8061 17.3117 10.4111 17.8447C10.0104 18.3854 9.4393 18.776 8.79004 18.9531C8.78194 18.9553 8.77278 18.957 8.76465 18.959L3.21582 20.3223C2.67977 20.4537 2.1387 20.1258 2.00684 19.5898C1.87515 19.0536 2.20306 18.5117 2.73926 18.3799L8.27051 17.0205C8.48395 16.9606 8.67162 16.8315 8.80371 16.6533C8.93717 16.4731 9.00654 16.2535 9 16.0293V13.4287L4.21387 14.4766C3.67443 14.5946 3.14158 14.2532 3.02344 13.7139C2.90543 13.1744 3.24674 12.6416 3.78613 12.5234L9 11.3828V2C9 1.44779 9.44782 1.00012 10 1Z" fill="#E4F2F2"/>
</svg>
