<svg width="24" height="24" viewBox="0 0 24 24" fill="none" xmlns="http://www.w3.org/2000/svg">
<path fill-rule="evenodd" clip-rule="evenodd" d="M5 1C7.36379 1 9.70481 1.46553 11.8887 2.37012C14.0724 3.2747 16.0562 4.60108 17.7275 6.27246C19.3989 7.94384 20.7253 9.92759 21.6299 12.1113C22.5345 14.2952 23 16.6362 23 19C23 20.0609 22.5783 21.078 21.8281 21.8281C21.1248 22.5314 20.1869 22.9461 19.1982 22.9951L19 23C17.9391 23 16.922 22.5783 16.1719 21.8281C15.4217 21.078 15 20.0609 15 19C15 18.2142 14.9045 17.4387 14.7256 16.6865L13.4062 18.0068C13.3967 18.0164 13.3869 18.026 13.377 18.0352C12.62 18.7321 11.6286 19.1191 10.5996 19.1191C9.57073 19.119 8.57911 18.7321 7.82227 18.0352C7.8123 18.026 7.80157 18.0164 7.79199 18.0068L7.59863 17.8135L2.70703 22.707C2.31653 23.0974 1.68347 23.0974 1.29297 22.707C0.902575 22.3165 0.902575 21.6835 1.29297 21.293L6.18457 16.3994L5.99219 16.207C5.98263 16.1974 5.97303 16.1867 5.96387 16.1768C5.26714 15.4199 4.87988 14.4282 4.87988 13.3994C4.88003 12.3706 5.26698 11.3789 5.96387 10.6221C5.97303 10.6121 5.98263 10.6023 5.99219 10.5928L7.31348 9.27051C6.72035 9.12953 6.11201 9.04327 5.49609 9.0127L5 9C3.93913 9 2.92202 8.57827 2.17188 7.82812C1.46859 7.12484 1.0539 6.18693 1.00488 5.19824L1 5C1 3.93913 1.42173 2.92202 2.17188 2.17188C2.92202 1.42173 3.93913 1 5 1ZM5 3C4.46957 3 3.96101 3.21086 3.58594 3.58594C3.21086 3.96101 3 4.46957 3 5L3.00977 5.19727C3.05515 5.65526 3.25765 6.08578 3.58594 6.41406C3.96101 6.78914 4.46957 7 5 7C6.49153 7 7.95319 7.2809 9.31836 7.80762C9.4944 7.82856 9.66553 7.89638 9.8125 8.01074C11.0886 8.56954 12.267 9.3508 13.291 10.3301C13.3681 10.3737 13.4412 10.4275 13.5068 10.4932C13.5722 10.5585 13.6255 10.6313 13.6689 10.708C14.6484 11.7319 15.4293 12.9105 15.9883 14.1865C16.1029 14.3334 16.1703 14.5046 16.1914 14.6807C16.7184 16.0462 17 17.508 17 19L17.0098 19.1973C17.0551 19.6553 17.2577 20.0858 17.5859 20.4141C17.961 20.7891 18.4696 21 19 21L19.1973 20.9902C19.6553 20.9449 20.0858 20.7423 20.4141 20.4141C20.7423 20.0858 20.9449 19.6553 20.9902 19.1973L21 19C21 16.8989 20.5863 14.8182 19.7822 12.877C18.9782 10.9358 17.7992 9.17225 16.3135 7.68652C14.8277 6.2008 13.0642 5.02185 11.123 4.21777C9.18184 3.4137 7.10115 3 5 3ZM9.01367 16.3994L9.1875 16.5732C9.57377 16.9243 10.0773 17.119 10.5996 17.1191C11.1217 17.1191 11.6245 16.924 12.0107 16.5732L13.9795 14.6045C13.6436 13.9182 13.2306 13.2684 12.7422 12.6709L9.01367 16.3994ZM7.43555 11.9775L7.30859 12.1279C7.03163 12.4919 6.88001 12.9385 6.87988 13.3994C6.87988 13.9259 7.07822 14.4337 7.43457 14.8213L7.59863 14.9854L11.3271 11.2578C10.7293 10.7693 10.0803 10.3543 9.39355 10.0186L7.43555 11.9775Z" fill="#E4F2F2"/>
</svg>
