<svg width="35" height="24" viewBox="0 0 35 24" fill="none" xmlns="http://www.w3.org/2000/svg">
<path fill-rule="evenodd" clip-rule="evenodd" d="M1.29297 1.29295C1.68349 0.90243 2.31651 0.90243 2.70703 1.29295L21.1055 19.6914C21.1086 19.6944 21.1121 19.6971 21.1152 19.7002C21.1167 19.7016 21.1177 19.7036 21.1191 19.7051L22.707 21.293C23.0975 21.6835 23.0975 22.3165 22.707 22.707C22.3165 23.0975 21.6835 23.0975 21.293 22.707L20.2871 21.7012C19.8896 21.8918 19.453 21.9981 19.0039 22H5C4.20439 22 3.44151 21.6836 2.87891 21.1211C2.31634 20.5585 2.00004 19.7956 2 19V4.99608L2.01563 4.6992C2.05139 4.35384 2.14602 4.01878 2.29492 3.70897L1.29297 2.70702C0.902445 2.31649 0.902445 1.68348 1.29297 1.29295ZM4 19C4.00004 19.2651 4.10547 19.5195 4.29297 19.707C4.4805 19.8945 4.73482 20 5 20H6V14C6 13.4696 6.21087 12.961 6.58594 12.5859C6.96101 12.2109 7.46957 12 8 12H10.5859L4 5.41405V19ZM8 20H16V17.414L12.5859 14H8V20ZM18 20H18.5859L18 19.414V20Z" fill="#E4F2F2"/>
<path d="M28.793 10.793C29.1835 10.4024 29.8165 10.4024 30.207 10.793L30.2656 10.8515C30.3028 10.889 30.3567 10.9436 30.4248 11.0127C30.5614 11.1513 30.7554 11.349 30.9844 11.5859C31.4418 12.0591 32.0447 12.6939 32.6182 13.331C33.1835 13.9592 33.7505 14.623 34.1162 15.1455C34.2815 15.3817 34.4816 15.6926 34.5732 15.998C34.6105 16.1224 34.7113 16.4969 34.5146 16.8906C34.2574 17.4052 33.7554 17.5 33.5 17.5C32.9477 17.5 32.5 17.0522 32.5 16.5C32.5 16.4478 32.505 16.3967 32.5127 16.3467C32.5013 16.3299 32.4906 16.3107 32.4775 16.292C32.187 15.877 31.6913 15.2906 31.1318 14.6689C30.5805 14.0563 29.9957 13.4408 29.5469 12.9765C29.3231 12.745 29.1338 12.5518 29.001 12.417C28.9346 12.3497 28.8822 12.2965 28.8467 12.2607C28.829 12.2429 28.8147 12.2298 28.8057 12.2207C28.8012 12.2162 28.7981 12.2122 28.7959 12.2099L28.793 12.207C28.4024 11.8165 28.4024 11.1835 28.793 10.793Z" fill="#E4F2F2"/>
<path d="M15.2139 1.99999C16.0016 2.01123 16.7525 2.33303 17.3057 2.89354L17.3066 2.89256L21.1074 6.69335C21.6682 7.24658 21.9888 7.99818 22 8.78612V15C22 15.5522 21.5522 15.9999 21 16C20.4477 16 20 15.5522 20 15V8.81444L19.9941 8.71581C19.9684 8.48854 19.8649 8.27574 19.7002 8.11424L19.6924 8.10741L15.8857 4.29979C15.7243 4.13502 15.5115 4.03162 15.2842 4.00584L15.1855 3.99999H9C8.44774 3.99999 8.00004 3.55224 8 2.99999C8 2.4477 8.44772 1.99999 9 1.99999H15.2139Z" fill="#E4F2F2"/>
<path d="M15 6.99999C15.5523 7.00003 16 7.44773 16 7.99999C16 8.55221 15.5522 8.99994 15 8.99999H14C13.4477 8.99999 13 8.55224 13 7.99999C13 7.4477 13.4477 6.99999 14 6.99999H15Z" fill="#E4F2F2"/>
</svg>
