<svg width="24" height="24" viewBox="0 0 24 24" fill="none" xmlns="http://www.w3.org/2000/svg">
<path fill-rule="evenodd" clip-rule="evenodd" d="M12 2C12.5523 2 13 2.44772 13 3V4.38477C15.1788 5.44513 17.5717 5.99998 20 6H21C21.5523 6 22 6.44772 22 7C22 7.55228 21.5523 8 21 8H20.0684L22.9365 15.6484C23.0925 16.0643 22.9549 16.5333 22.5996 16.7998C21.5611 17.5786 20.2981 18 19 18C17.7019 18 16.4389 17.5786 15.4004 16.7998C15.0452 16.5333 14.9076 16.0642 15.0635 15.6484L17.9746 7.88379C16.2632 7.68985 14.588 7.25156 13 6.58105V20H17C17.5523 20 18 20.4477 18 21C18 21.5523 17.5523 22 17 22H7C6.44779 21.9999 6 21.5522 6 21C6 20.4478 6.44779 20.0001 7 20H11V6.58105C9.41162 7.25164 7.73623 7.69099 6.02441 7.88477L8.93652 15.6484C9.09246 16.0643 8.95489 16.5333 8.59961 16.7998C7.56108 17.5786 6.29811 18 5 18C3.7019 18 2.4389 17.5786 1.40039 16.7998C1.0452 16.5333 0.907589 16.0642 1.06348 15.6484L3.93164 8H3C2.44779 7.99992 2 7.55223 2 7C2 6.44777 2.44779 6.00008 3 6H4C6.42827 6 8.82118 5.44507 11 4.38477V3C11 2.44777 11.4478 2.00008 12 2ZM3.22461 15.5811C3.77391 15.8534 4.38038 16 5 16C5.61933 16 6.22531 15.8531 6.77441 15.5811L5 10.8486L3.22461 15.5811ZM17.2246 15.5811C17.7739 15.8534 18.3804 16 19 16C19.6193 16 20.2253 15.8531 20.7744 15.5811L19 10.8486L17.2246 15.5811Z" fill="#E4F2F2"/>
</svg>
