<svg width="24" height="24" viewBox="0 0 24 24" fill="none" xmlns="http://www.w3.org/2000/svg">
<path fill-rule="evenodd" clip-rule="evenodd" d="M18.6582 1.00586C19.421 1.05963 20.175 1.49847 20.5517 2.1748L22.5322 5.14551C22.8527 5.60351 23.021 6.14978 22.9912 6.71582C22.9608 7.29293 22.7278 7.82899 22.3535 8.25781C22.337 8.27672 22.3196 8.29489 22.3017 8.3125L22 8.60938V20L21.9951 20.1025C21.9438 20.6067 21.5177 21 21 21C20.4825 20.9998 20.0562 20.6066 20.0049 20.1025L20 20V19H18V22C17.9998 22.5521 17.5521 23 17 23C16.448 22.9998 16.0002 22.552 16 22V21H14V22C14 22.5523 13.5523 23 13 23C12.4479 22.9998 12 22.5522 12 22V21H9.99999V22C9.99999 22.5523 9.55227 23 8.99999 23C8.44787 22.9998 7.99999 22.5522 7.99999 22V20.3262L5.99413 17.5918C5.60012 17.0764 5.51489 16.4252 5.56737 15.9004C5.62209 15.3533 5.8432 14.7428 6.29296 14.293L7.07421 13.5107L1.80565 8.41895L1.80174 8.41504C1.36916 7.99257 1.08171 7.43932 1.02049 6.82715C0.960242 6.2242 1.12794 5.63547 1.46971 5.14551H1.46776L3.45311 2.16699C3.85742 1.44862 4.68829 1.00013 5.49999 1H18.5L18.6582 1.00586ZM11.4424 19H16V14.5137L11.4424 19ZM16.7217 6.68945C16.7134 6.69812 16.7058 6.70746 16.6973 6.71582L12.7168 10.6953C12.7133 10.6989 12.7106 10.7035 12.707 10.707C12.7036 10.7105 12.6997 10.7134 12.6963 10.7168L9.22557 14.1875C9.22336 14.1898 9.22195 14.193 9.21971 14.1953C9.21589 14.1993 9.21088 14.2022 9.20702 14.2061L7.70702 15.707C7.65691 15.7573 7.57786 15.897 7.5576 16.0996C7.54841 16.1917 7.55481 16.2699 7.56737 16.3252C7.5803 16.3821 7.59413 16.3914 7.58104 16.375C7.58967 16.3858 7.59825 16.3971 7.60643 16.4082L9.12206 18.4756L16.1748 11.5342C16.2477 11.4281 16.3409 11.3368 16.4482 11.2656L20.8574 6.92773C20.9497 6.8168 20.9881 6.70631 20.9932 6.61035C20.9984 6.51124 20.9709 6.39854 20.8887 6.28418C20.8817 6.27454 20.8747 6.26476 20.8682 6.25488L19.3838 4.0293L16.7217 6.68945ZM18 12.5459V17H20V10.5771L18 12.5459ZM3.1328 6.25488C3.12663 6.26413 3.11974 6.27319 3.11327 6.28223C3.02659 6.40334 3.00032 6.52295 3.01073 6.62793C3.02141 6.73476 3.07443 6.86254 3.19921 6.98438L8.48729 12.0977L10.5849 9.99902L4.61522 4.0293L3.1328 6.25488ZM11.999 8.58496L13.5849 7H10.414L11.999 8.58496ZM8.41405 5H15.5849L17.5859 3H6.41405L8.41405 5Z" fill="#E4F2F2"/>
</svg>
