<svg width="24" height="24" viewBox="0 0 24 24" fill="none" xmlns="http://www.w3.org/2000/svg">
<path fill-rule="evenodd" clip-rule="evenodd" d="M12 6C13.6569 6 15 7.34315 15 9C15 10.6569 13.6569 12 12 12C10.3431 12 9 10.6569 9 9C9 7.34315 10.3431 6 12 6ZM12 8C11.4477 8 11 8.44772 11 9C11 9.55229 11.4477 10 12 10C12.5523 10 13 9.55229 13 9C13 8.44772 12.5523 8 12 8Z" fill="#E4F2F2"/>
<path fill-rule="evenodd" clip-rule="evenodd" d="M12 0.999023C12.4654 0.999023 12.9245 1.10741 13.3408 1.31543C13.3486 1.31931 13.3566 1.32307 13.3643 1.32715L20.4707 5.11719C20.958 5.37707 21.1426 5.98342 20.8828 6.4707C20.6229 6.95801 20.0166 7.14174 19.5293 6.88184L19 6.59863V10.4385L22.041 12.293C22.3338 12.4712 22.5751 12.7218 22.7432 13.0205C22.9112 13.3192 22.9996 13.6563 23 13.999V19C23 19.7957 22.6837 20.5585 22.1211 21.1211C21.5585 21.6837 20.7957 22 20 22H4C3.20435 22 2.44151 21.6837 1.87891 21.1211C1.3163 20.5585 1 19.7957 1 19V14.001C1.00006 13.6579 1.08873 13.3206 1.25684 13.0215C1.42495 12.7224 1.66691 12.4714 1.95996 12.293L5 10.4385V6.59863L4.4707 6.88184C3.9834 7.14174 3.37709 6.95801 3.11719 6.4707C2.85737 5.98342 3.04203 5.37707 3.5293 5.11719L10.6357 1.32715L10.6592 1.31543C11.0755 1.10741 11.5346 0.999023 12 0.999023ZM3.00098 14.001L3 19L3.00488 19.0986C3.02757 19.3276 3.12883 19.5429 3.29297 19.707C3.48051 19.8946 3.73478 20 4 20H5V12.7812L3.00098 14.001ZM12 2.99902C11.8474 2.99902 11.6965 3.03344 11.5596 3.10059L7 5.53223V20H9V18C9 17.2043 9.3163 16.4415 9.87891 15.8789C10.4415 15.3163 11.2043 15 12 15L12.2969 15.0146C12.9835 15.0829 13.6289 15.3867 14.1211 15.8789C14.6837 16.4415 15 17.2043 15 18V20H17V5.53223L12.4395 3.10059C12.3376 3.05079 12.2283 3.01897 12.1162 3.00586L12 2.99902ZM12 17C11.7348 17 11.4805 17.1054 11.293 17.293C11.1054 17.4805 11 17.7348 11 18V20H13V18C13 17.7348 12.8946 17.4805 12.707 17.293C12.5429 17.1288 12.3276 17.0276 12.0986 17.0049L12 17ZM19 20H20C20.2652 20 20.5195 19.8946 20.707 19.707C20.8946 19.5195 21 19.2652 21 19V14.001L19 12.7812V20Z" fill="#E4F2F2"/>
</svg>
