<svg width="24" height="24" viewBox="0 0 24 24" fill="none" xmlns="http://www.w3.org/2000/svg">
<path fill-rule="evenodd" clip-rule="evenodd" d="M1.29297 9.29297C1.68349 8.90244 2.31651 8.90244 2.70703 9.29297L10.709 17.2949C11.1004 17.1078 11.5372 17 12 17C13.6569 17 15 18.3431 15 20C15 21.6569 13.6569 23 12 23C10.3431 23 9 21.6569 9 20C9 19.5372 9.10779 19.1004 9.29492 18.709L7.99902 17.4131L6.7041 18.709C6.89135 19.1005 7 19.5371 7 20C7 21.6569 5.65685 23 4 23C2.34315 23 1 21.6569 1 20C1 18.3431 2.34315 17 4 17C4.46245 17 4.89885 17.108 5.29004 17.2949L6.58496 15.999L1.29297 10.707C0.902444 10.3165 0.902444 9.68349 1.29297 9.29297ZM4 19C3.44772 19 3 19.4477 3 20C3 20.5523 3.44772 21 4 21C4.55228 21 5 20.5523 5 20C5 19.7712 4.92224 19.5611 4.79297 19.3926C4.75857 19.3662 4.72486 19.3381 4.69336 19.3066C4.66147 19.2747 4.63215 19.2409 4.60547 19.2061C4.43725 19.0776 4.22802 19 4 19ZM12 19C11.7709 19 11.5602 19.0775 11.3916 19.207C11.3653 19.2412 11.338 19.2753 11.3066 19.3066C11.2753 19.338 11.2412 19.3653 11.207 19.3916C11.0775 19.5602 11 19.7709 11 20C11 20.5523 11.4477 21 12 21C12.5523 21 13 20.5523 13 20C13 19.4477 12.5523 19 12 19Z" fill="#E4F2F2"/>
<path d="M20 1C20.7957 1 21.5585 1.3163 22.1211 1.87891C22.6837 2.44151 23 3.20435 23 4V20C23 20.7957 22.6837 21.5585 22.1211 22.1211C21.5585 22.6837 20.7957 23 20 23H18C17.4477 23 17 22.5523 17 22C17 21.4477 17.4477 21 18 21H20C20.2652 21 20.5195 20.8946 20.707 20.707C20.8946 20.5195 21 20.2652 21 20V19H18C17.4477 19 17 18.5523 17 18C17 17.4477 17.4477 17 18 17H21V15H18C17.4477 15 17 14.5523 17 14C17 13.4477 17.4477 13 18 13H21V11H18C17.4477 11 17 10.5523 17 10C17 9.44771 17.4477 9 18 9H21V7H18C17.4477 7 17 6.55228 17 6C17 5.44772 17.4477 5 18 5H21V4C21 3.73478 20.8946 3.48051 20.707 3.29297C20.5429 3.12883 20.3276 3.02757 20.0986 3.00488L20 3H18C17.4477 3 17 2.55228 17 2C17 1.44772 17.4477 1 18 1H20Z" fill="#E4F2F2"/>
<path d="M13.293 9.29297C13.6835 8.90258 14.3165 8.90258 14.707 9.29297C15.0974 9.68347 15.0974 10.3165 14.707 10.707L11.5068 13.9072C11.1163 14.2975 10.4832 14.2976 10.0928 13.9072C9.70241 13.5168 9.70248 12.8837 10.0928 12.4932L13.293 9.29297Z" fill="#E4F2F2"/>
<path d="M5.05078 1.68359C5.22541 1.15992 5.79169 0.877529 6.31543 1.05176C6.83937 1.22641 7.12289 1.79246 6.94824 2.31641C6.73129 2.96736 6.69477 3.39904 6.71582 3.71484C6.73752 4.04023 6.82161 4.30368 6.94824 4.68359C7.07154 5.05348 7.23752 5.54037 7.27832 6.15234C7.31975 6.77396 7.23118 7.46758 6.94824 8.31641C6.77349 8.84014 6.20742 9.12282 5.68359 8.94824C5.15991 8.77347 4.87625 8.20739 5.05078 7.68359C5.26779 7.03253 5.30426 6.60099 5.2832 6.28516C5.26149 5.95974 5.17745 5.6964 5.05078 5.31641C4.92749 4.94653 4.7615 4.45958 4.7207 3.84766C4.67928 3.22607 4.76788 2.53235 5.05078 1.68359Z" fill="#E4F2F2"/>
<path d="M9.05078 1.68359C9.22541 1.15992 9.79169 0.877529 10.3154 1.05176C10.8394 1.22641 11.1229 1.79246 10.9482 2.31641C10.7313 2.96736 10.6948 3.39904 10.7158 3.71484C10.7375 4.04023 10.8216 4.30368 10.9482 4.68359C11.0715 5.05348 11.2375 5.54037 11.2783 6.15234C11.3197 6.77396 11.2312 7.46758 10.9482 8.31641C10.7735 8.84014 10.2074 9.12282 9.68359 8.94824C9.15991 8.77347 8.87625 8.20739 9.05078 7.68359C9.26779 7.03253 9.30426 6.60099 9.2832 6.28516C9.26149 5.95974 9.17745 5.6964 9.05078 5.31641C8.92749 4.94653 8.7615 4.45958 8.7207 3.84766C8.67928 3.22607 8.76788 2.53235 9.05078 1.68359Z" fill="#E4F2F2"/>
</svg>
