<svg width="24" height="24" viewBox="0 0 24 24" fill="none" xmlns="http://www.w3.org/2000/svg">
<path fill-rule="evenodd" clip-rule="evenodd" d="M21.728 1.01416L21.8325 1.03369L21.9351 1.06006C22.1384 1.12085 22.3265 1.22469 22.4868 1.36377L22.5649 1.43604L22.6372 1.51318C22.7762 1.67341 22.8792 1.86175 22.9399 2.06494L22.9673 2.16846L22.9868 2.27295C23.0224 2.51176 22.9981 2.756 22.9185 2.98486L22.9194 2.98584L16.4194 21.9858C16.3202 22.2751 16.1346 22.5285 15.8882 22.7095C15.6415 22.8905 15.3444 22.9916 15.0386 22.9995C14.7329 23.0073 14.4318 22.9214 14.1763 22.7534C13.9206 22.5852 13.7219 22.3422 13.6079 22.0581L10.4282 14.1274L10.3862 14.0356C10.3402 13.9479 10.2805 13.868 10.2105 13.7974L10.2017 13.7886C10.1073 13.6958 9.99548 13.622 9.87256 13.5728L1.9419 10.3921C1.65801 10.2782 1.41574 10.0802 1.24756 9.82471C1.07937 9.569 0.993633 9.26739 1.00147 8.96143C1.00938 8.6556 1.11052 8.35945 1.29151 8.11279L1.36182 8.02295C1.53535 7.82081 1.76087 7.66841 2.01416 7.58154L21.0142 1.08057C21.2436 1.00059 21.4887 0.978362 21.728 1.01416ZM12.2056 13.2075C12.2328 13.2645 12.26 13.3216 12.2837 13.3804L12.2847 13.3823L14.9624 20.063L19.9605 5.45361L12.2056 13.2075ZM3.93604 9.03662L10.6148 11.7153C10.6741 11.7391 10.733 11.766 10.7905 11.7935L18.5474 4.0376L3.93604 9.03662Z" fill="#E4F2F2"/>
</svg>
