<svg width="24" height="24" viewBox="0 0 24 24" fill="none" xmlns="http://www.w3.org/2000/svg">
<path fill-rule="evenodd" clip-rule="evenodd" d="M3.2793 2.0127C3.57701 1.96945 3.88195 2.01659 4.15235 2.14844L4.15137 2.14942L22.1406 10.6436L22.2354 10.6924C22.4201 10.7964 22.5811 10.9388 22.707 11.1094L22.7666 11.1973L22.8203 11.2891C22.9195 11.4733 22.977 11.6771 22.9932 11.8857C22.9974 11.9229 23 11.9607 23 11.999C22.9999 12.283 22.9185 12.5619 22.7666 12.8018C22.6336 13.0118 22.4511 13.1852 22.2354 13.3066L22.1406 13.3555L4.14844 21.8506L4.14942 21.8516C3.87911 21.9825 3.57549 22.0291 3.27832 21.9854C2.98121 21.9416 2.70352 21.8097 2.48242 21.6065C2.26141 21.4031 2.10656 21.1372 2.03809 20.8447C1.96977 20.5524 1.99085 20.246 2.09864 19.9658L4.93653 12.3486C5.02027 12.1236 5.02033 11.8754 4.93653 11.6504L2.09766 4.03516L2.06153 3.92872C1.98578 3.67799 1.97626 3.41063 2.03614 3.1543L2.06641 3.04493C2.14514 2.79522 2.28858 2.56956 2.48242 2.39161C2.70399 2.18828 2.98174 2.05608 3.2793 2.0127ZM6.82617 13C6.82069 13.0155 6.8163 13.0314 6.81055 13.0469L4.39746 19.5215L18.207 13H6.82617ZM6.81055 10.9522C6.81635 10.9677 6.82064 10.9844 6.82617 11H18.2119L4.39649 4.47657L6.81055 10.9522Z" fill="#E4F2F2"/>
</svg>
