<svg width="24" height="24" viewBox="0 0 24 24" fill="none" xmlns="http://www.w3.org/2000/svg">
<path d="M12 2C12.5522 2.00004 13 2.44774 13 3V21C13 21.5523 12.5522 22 12 22C11.4477 22 11 21.5523 11 21V3C11 2.44772 11.4477 2 12 2Z" fill="#E4F2F2"/>
<path d="M7.29295 7.29297C7.68348 6.90248 8.31651 6.90246 8.70702 7.29297C9.09749 7.68348 9.09749 8.31652 8.70702 8.70703L5.41405 12L8.70702 15.293C9.09749 15.6835 9.09749 16.3165 8.70702 16.707C8.31651 17.0975 7.68348 17.0975 7.29295 16.707L3.29295 12.707C2.90243 12.3165 2.90243 11.6835 3.29295 11.293L7.29295 7.29297Z" fill="#E4F2F2"/>
<path d="M15.293 7.29297C15.6835 6.90248 16.3165 6.90246 16.707 7.29297L20.707 11.293C21.0975 11.6835 21.0975 12.3165 20.707 12.707L16.707 16.707C16.3165 17.0975 15.6835 17.0975 15.293 16.707C14.9024 16.3165 14.9024 15.6835 15.293 15.293L18.5859 12L15.293 8.70703C14.9024 8.31651 14.9024 7.68349 15.293 7.29297Z" fill="#E4F2F2"/>
</svg>
