<svg width="24" height="24" viewBox="0 0 24 24" fill="none" xmlns="http://www.w3.org/2000/svg">
<path d="M15.293 15.293C15.6835 14.9025 16.3165 14.9025 16.707 15.293C17.0974 15.6835 17.0975 16.3166 16.707 16.707L12.707 20.707C12.3165 21.0974 11.6835 21.0974 11.293 20.707L7.29297 16.707C6.90248 16.3166 6.90256 15.6835 7.29297 15.293C7.68349 14.9025 8.31651 14.9025 8.70703 15.293L12 18.5859L15.293 15.293Z" fill="#E4F2F2"/>
<path d="M21 11C21.5523 11 22 11.4477 22 12C21.9999 12.5522 21.5522 13 21 13H3C2.44779 13 2.00013 12.5522 2 12C2 11.4477 2.44772 11 3 11H21Z" fill="#E4F2F2"/>
<path d="M11.3691 3.22462C11.7619 2.90427 12.3409 2.92686 12.707 3.29298L16.707 7.29298C17.0974 7.68351 17.0975 8.31656 16.707 8.70704C16.3165 9.09741 15.6835 9.09741 15.293 8.70704L12 5.41407L8.70703 8.70704C8.31654 9.09741 7.68346 9.09741 7.29297 8.70704C6.90248 8.31656 6.90256 7.68351 7.29297 7.29298L11.293 3.29298L11.3691 3.22462Z" fill="#E4F2F2"/>
</svg>
