<svg width="24" height="24" viewBox="0 0 24 24" fill="none" xmlns="http://www.w3.org/2000/svg">
<path d="M6.00977 17C6.56205 17 7.00977 17.4477 7.00977 18C7.00977 18.5523 6.56205 19 6.00977 19H6C5.44773 19 5 18.5523 5 18C5 17.4477 5.44773 17 6 17H6.00977Z" fill="#E4F2F2"/>
<path fill-rule="evenodd" clip-rule="evenodd" d="M1.29297 1.29297C1.68349 0.902449 2.31651 0.902459 2.70703 1.29297L22.707 21.293C23.0976 21.6835 23.0976 22.3165 22.707 22.707C22.6091 22.805 22.4958 22.878 22.375 22.9268C22.3067 22.9544 22.2359 22.9735 22.1641 22.9854C22.1104 22.9942 22.0562 22.999 22.002 22.999C21.9928 22.999 21.9837 22.9983 21.9746 22.998C21.9534 22.9975 21.9322 22.998 21.9111 22.9961L21.8086 22.9814C21.6652 22.9536 21.5277 22.8928 21.4053 22.8018C21.3967 22.7954 21.3873 22.7899 21.3789 22.7832L21.3691 22.7754C21.3463 22.7567 21.3242 22.7368 21.3027 22.7158L20.9473 22.8945C20.8084 22.964 20.6552 23 20.5 23H4C3.20436 23 2.44151 22.6837 1.87891 22.1211C1.31631 21.5585 1 20.7956 1 20V16C1 15.2044 1.31631 14.4415 1.87891 13.8789C2.44151 13.3163 3.20436 13 4 13H11.5859L9.58594 11H4C3.20458 11 2.44146 10.6844 1.87891 10.1221C1.31639 9.55956 1.00011 8.7955 1 8V5C0.999999 3.81077 0.996141 2.94161 1.07617 2.46094C1.07899 2.44404 1.0834 2.42598 1.08691 2.40723C0.923175 2.03994 0.991624 1.59433 1.29297 1.29297ZM4 15C3.73479 15 3.4805 15.1054 3.29297 15.293C3.10544 15.4805 3 15.7348 3 16V20L3.00488 20.0986C3.02757 20.3276 3.12883 20.5429 3.29297 20.707C3.4805 20.8946 3.73479 21 4 21H19.5859L13.5859 15H4ZM3 5V8C3.00011 8.26497 3.10565 8.51961 3.29297 8.70703C3.48048 8.89444 3.73488 8.99999 4 9H7.58594L3.00293 4.41699C3.00256 4.59439 3 4.78855 3 5Z" fill="#E4F2F2"/>
<path d="M20 13C20.7956 13 21.5585 13.3163 22.1211 13.8789C22.6837 14.4415 23 15.2043 23 16V17C23 17.5523 22.5523 18 22 18C21.4477 18 21 17.5523 21 17V16C21 15.7348 20.8946 15.4805 20.707 15.293C20.5195 15.1054 20.2652 15 20 15H19C18.4477 15 18 14.5523 18 14C18 13.4477 18.4477 13 19 13H20Z" fill="#E4F2F2"/>
<path d="M20 1C20.7956 1 21.5585 1.31631 22.1211 1.87891C22.6837 2.44151 23 3.20435 23 4V8C23 8.79565 22.6837 9.55849 22.1211 10.1211C21.5585 10.6837 20.7956 11 20 11H15C14.4477 11 14 10.5523 14 10C14 9.44773 14.4477 9.00002 15 9H20C20.2652 9 20.5195 8.89456 20.707 8.70703C20.8946 8.51949 21 8.26522 21 8V4C21 3.73478 20.8946 3.48051 20.707 3.29297C20.5195 3.10544 20.2652 3 20 3H7C6.44773 2.99998 6 2.55227 6 2C6 1.44773 6.44773 1.00002 7 1H20Z" fill="#E4F2F2"/>
</svg>
