<svg width="24" height="24" viewBox="0 0 24 24" fill="none" xmlns="http://www.w3.org/2000/svg">
<path fill-rule="evenodd" clip-rule="evenodd" d="M12 8C14.2091 8.00001 16 9.79087 16 12C16 14.2091 14.2091 16 12 16C9.79086 16 8 14.2091 8 12C8 9.79086 9.79086 8 12 8ZM12 10C10.8954 10 10 10.8954 10 12C10 13.1046 10.8954 14 12 14C13.1046 14 14 13.1046 14 12C14 10.8954 13.1046 10 12 10Z" fill="#E4F2F2"/>
<path fill-rule="evenodd" clip-rule="evenodd" d="M12.001 1.01758C12.8319 1.0177 13.6333 1.32765 14.2481 1.88672C14.7859 2.37599 15.1476 3.0255 15.2822 3.73438L15.3262 4.04199V4.04785C15.3452 4.26209 15.4156 4.46903 15.5313 4.65039C15.647 4.83171 15.8049 4.98329 15.9912 5.09082C16.1776 5.19826 16.3877 5.25914 16.6025 5.26855C16.8174 5.27789 17.0316 5.23528 17.2266 5.14453L17.2363 5.14062C17.9914 4.79799 18.8472 4.74777 19.6367 5.00098C20.4263 5.25431 21.0939 5.79275 21.5088 6.51074C21.9236 7.22882 22.0568 8.07613 21.8818 8.88672C21.7068 9.69736 21.2357 10.4145 20.5615 10.8975L20.5537 10.9023C20.3776 11.0259 20.234 11.1909 20.1348 11.3818C20.0355 11.5727 19.9834 11.7849 19.9834 12C19.9835 12.215 20.0356 12.4274 20.1348 12.6182C20.2091 12.761 20.3086 12.889 20.4277 12.9961L20.5537 13.0967L20.5615 13.1025C21.2356 13.5855 21.7068 14.3018 21.8818 15.1123C22.0568 15.9229 21.9236 16.7702 21.5088 17.4883C21.0939 18.2064 20.4264 18.7447 19.6367 18.998C18.8471 19.2513 17.9914 19.201 17.2363 18.8584L17.2266 18.8545C17.0316 18.7638 16.8173 18.7211 16.6025 18.7305C16.3876 18.7399 16.1776 18.8007 15.9912 18.9082C15.8048 19.0158 15.647 19.1672 15.5313 19.3486C15.4155 19.5301 15.3451 19.7368 15.3262 19.9512V19.958C15.2475 20.7851 14.8627 21.5532 14.2481 22.1123C13.6333 22.6714 12.8319 22.9813 12.001 22.9814C11.17 22.9814 10.3687 22.6713 9.75391 22.1123C9.13916 21.5532 8.75452 20.7852 8.67579 19.958L8.67481 19.9512C8.65589 19.7368 8.58539 19.5301 8.46973 19.3486C8.35399 19.1672 8.19617 19.0158 8.00977 18.9082C7.82335 18.8007 7.61344 18.7399 7.39844 18.7305C7.18352 18.7211 6.96942 18.7637 6.77442 18.8545L6.76465 18.8584C6.00965 19.2012 5.15385 19.2511 4.36426 18.998C3.57461 18.7448 2.90712 18.2063 2.49219 17.4883C2.07729 16.7701 1.94411 15.923 2.11914 15.1123C2.29424 14.3017 2.76523 13.5855 3.43946 13.1025L3.44727 13.0967C3.6232 12.9732 3.76701 12.8089 3.86621 12.6182C3.96541 12.4274 4.0175 12.215 4.01758 12C4.01758 11.785 3.9653 11.5726 3.86621 11.3818C3.767 11.191 3.62328 11.0259 3.44727 10.9023L3.43848 10.8965C2.76521 10.4133 2.29577 9.69681 2.1211 8.88672C1.94647 8.07655 2.07871 7.2304 2.49317 6.5127C2.90764 5.795 3.57429 5.25662 4.36329 5.00293C5.0534 4.78112 5.79454 4.79085 6.47461 5.02539L6.7627 5.13965L6.77247 5.14453C6.96738 5.23526 7.18169 5.27787 7.39649 5.26855C7.61134 5.25911 7.82152 5.19825 8.00782 5.09082C8.19419 4.98324 8.35204 4.83182 8.46778 4.65039C8.58349 4.46896 8.65388 4.2622 8.67286 4.04785C8.67654 4.00633 8.68291 3.96554 8.69141 3.92578C8.79355 3.14283 9.16791 2.41966 9.75391 1.88672C10.3687 1.32767 11.17 1.01758 12.001 1.01758ZM12.001 3.01758C11.6677 3.01758 11.3462 3.14206 11.0996 3.36621C10.853 3.59048 10.6986 3.89865 10.667 4.23047C10.6638 4.26378 10.6586 4.29694 10.6523 4.3291C10.5925 4.82586 10.4239 5.30397 10.1543 5.72656C9.86579 6.17877 9.47242 6.55513 9.00782 6.82324C8.54319 7.09132 8.02028 7.2431 7.48438 7.2666C6.94845 7.29003 6.41403 7.18447 5.92774 6.95801C5.62752 6.82527 5.28836 6.80676 4.97559 6.90723C4.65917 7.00897 4.39189 7.22493 4.22559 7.5127C4.05931 7.80064 4.00611 8.14078 4.07618 8.46582C4.14635 8.79057 4.33456 9.07775 4.6045 9.27148C5.03979 9.5789 5.39475 9.98609 5.64063 10.459C5.88795 10.9348 6.01758 11.4637 6.01758 12C6.0175 12.5361 5.88788 13.0644 5.64063 13.54C5.39463 14.0132 5.03814 14.4201 4.60254 14.7275L4.60352 14.7285C4.33327 14.9222 4.14451 15.2092 4.07422 15.5342C4.00401 15.8594 4.05719 16.2002 4.22364 16.4883C4.39012 16.7761 4.65797 16.9922 4.97461 17.0938C5.2912 17.1952 5.63475 17.1754 5.9375 17.0381C6.42154 16.8141 6.9524 16.7093 7.48536 16.7324C8.02135 16.7558 8.54403 16.9078 9.00879 17.1758C9.47356 17.4439 9.86767 17.8201 10.1563 18.2725C10.4436 18.723 10.618 19.2364 10.666 19.7686C10.6976 20.1004 10.853 20.4085 11.0996 20.6328C11.3462 20.857 11.6677 20.9814 12.001 20.9814C12.3342 20.9813 12.6558 20.857 12.9023 20.6328C13.1489 20.4085 13.3034 20.1004 13.335 19.7686C13.3831 19.2365 13.5584 18.7239 13.8457 18.2734C14.1343 17.8211 14.5275 17.4449 14.9922 17.1768C15.4569 16.9087 15.9796 16.7559 16.5156 16.7324C17.0482 16.7092 17.5787 16.8144 18.0625 17.0381L18.1777 17.084C18.4507 17.1785 18.7492 17.1827 19.0264 17.0938C19.3429 16.9921 19.611 16.7761 19.7773 16.4883C19.9438 16.2002 19.9969 15.8594 19.9268 15.5342C19.8565 15.2094 19.6674 14.9222 19.3975 14.7285C18.9621 14.4211 18.6063 14.013 18.3604 13.54C18.113 13.0643 17.9835 12.5362 17.9834 12C17.9834 11.4636 18.1129 10.9349 18.3604 10.459C18.6078 9.98311 18.9662 9.5737 19.4053 9.26562C19.6713 9.07198 19.8572 8.78672 19.9268 8.46484C19.9969 8.1398 19.9435 7.79972 19.7773 7.51172C19.611 7.22386 19.3428 7.00799 19.0264 6.90625C18.7096 6.80465 18.3654 6.82444 18.0625 6.96191C17.5788 7.18549 17.0481 7.28978 16.5156 7.2666C15.9798 7.24318 15.4568 7.0912 14.9922 6.82324C14.5276 6.55521 14.1342 6.17866 13.8457 5.72656C13.5572 5.27435 13.3813 4.7589 13.334 4.22461C13.3009 3.89551 13.1471 3.58892 12.9023 3.36621C12.6558 3.142 12.3342 3.0177 12.001 3.01758Z" fill="#E4F2F2"/>
</svg>
