<svg width="24" height="24" viewBox="0 0 24 24" fill="none" xmlns="http://www.w3.org/2000/svg">
<path d="M20 11C20.5523 11 21 11.4477 21 12V20C21 20.7957 20.6837 21.5585 20.1211 22.1211C19.5585 22.6837 18.7957 23 18 23H6C5.20435 23 4.44151 22.6837 3.87891 22.1211C3.3163 21.5585 3 20.7957 3 20V12C3 11.4477 3.44772 11 4 11C4.55228 11 5 11.4477 5 12V20L5.00488 20.0986C5.02757 20.3276 5.12883 20.5429 5.29297 20.707C5.48051 20.8946 5.73478 21 6 21H18C18.2652 21 18.5195 20.8946 18.707 20.707C18.8946 20.5195 19 20.2652 19 20V12C19 11.4477 19.4477 11 20 11Z" fill="#E4F2F2"/>
<path d="M12.0205 1.00098C12.0381 1.00133 12.0557 1.00165 12.0732 1.00293C12.1225 1.0065 12.1707 1.01396 12.2178 1.02441C12.2269 1.02645 12.236 1.02895 12.2451 1.03125C12.3141 1.04866 12.3799 1.07357 12.4424 1.10449C12.4746 1.12042 12.5064 1.13761 12.5371 1.15723C12.5714 1.17913 12.6045 1.20271 12.6357 1.22852C12.6602 1.24873 12.6841 1.27007 12.707 1.29297L16.707 5.29297C17.0976 5.68349 17.0976 6.31651 16.707 6.70703C16.3165 7.09756 15.6835 7.09756 15.293 6.70703L13 4.41406V15C13 15.5523 12.5523 16 12 16C11.4477 16 11 15.5523 11 15V4.41406L8.70703 6.70703C8.31651 7.09756 7.68349 7.09756 7.29297 6.70703C6.90244 6.31651 6.90244 5.68349 7.29297 5.29297L11.293 1.29297C11.3548 1.23117 11.4248 1.17778 11.501 1.13379C11.5154 1.12546 11.5302 1.1179 11.5449 1.11035C11.6073 1.0784 11.6731 1.05257 11.7422 1.03418C11.7588 1.02976 11.7753 1.02503 11.792 1.02148C11.803 1.01916 11.8141 1.01758 11.8252 1.01562C11.8427 1.01252 11.8603 1.00998 11.8779 1.00781C11.8957 1.00565 11.9136 1.00415 11.9316 1.00293C11.9476 1.00184 11.9635 1.00131 11.9795 1.00098C11.9863 1.00084 11.9931 1 12 1C12.0069 1 12.0137 1.00084 12.0205 1.00098Z" fill="#E4F2F2"/>
</svg>
