<svg width="24" height="24" viewBox="0 0 24 24" fill="none" xmlns="http://www.w3.org/2000/svg">
<path fill-rule="evenodd" clip-rule="evenodd" d="M2.00002 1C3.84244 1 5.63725 1.43196 7.20509 2.39941C8.63892 1.53102 10.2452 1.09961 12 1.09961H21C21.5272 1.09961 22.0439 1.28033 22.4317 1.66797C22.8193 2.05565 22.9999 2.5725 23 3.09961C23 5.51449 21.5042 7.46231 20.1924 8.72168C19.5195 9.36762 18.85 9.87541 18.3506 10.2217C18.1001 10.3954 17.8902 10.5305 17.7403 10.623C17.6653 10.6693 17.6052 10.7054 17.5625 10.7305C17.5412 10.743 17.5241 10.7527 17.5117 10.7598C17.5056 10.7633 17.4999 10.7664 17.4961 10.7686H17.4942L11.5039 14.2637C11.3952 14.3282 11.2998 14.4137 11.2236 14.5146C11.1469 14.6165 11.0906 14.733 11.0586 14.8564C11.0267 14.9798 11.0195 15.1082 11.0371 15.2344C11.0548 15.3608 11.0974 15.4827 11.1621 15.5928C11.2268 15.7027 11.3123 15.7991 11.4141 15.876C11.516 15.9528 11.6323 16.009 11.7559 16.041C11.8795 16.0731 12.0083 16.0802 12.1348 16.0625C12.2612 16.0448 12.3832 16.0032 12.4932 15.9385L12.502 15.9326L20.502 11.333C20.8191 11.1508 21.2106 11.1567 21.5225 11.3477C21.8343 11.5388 22.0173 11.8847 21.999 12.25C21.904 14.1504 21.2436 15.8651 20.3223 17.3291C21.1222 18.1251 21.7214 19.0703 22.1328 19.8418C22.4017 20.3459 22.6025 20.7993 22.7373 21.1279C22.8049 21.2927 22.8565 21.4281 22.8916 21.5234C22.9091 21.571 22.9232 21.6087 22.9326 21.6357C22.9373 21.6491 22.9406 21.66 22.9434 21.668C22.9447 21.672 22.9464 21.6761 22.9473 21.6787C22.9476 21.6798 22.948 21.6809 22.9483 21.6816V21.6836L22.9795 21.7998C23.0351 22.0717 22.9759 22.3569 22.8115 22.585C22.6236 22.8457 22.3214 23 22 23C20.3409 23 18.5459 22.5361 17.2139 22.1006C16.5378 21.8796 15.9599 21.6582 15.5498 21.4922C15.4421 21.4486 15.3464 21.4073 15.2627 21.3721C14.1387 21.7449 12.9573 21.9187 11.7715 21.8809C10.4475 21.8385 9.1442 21.5349 7.93752 20.9883C6.73099 20.4417 5.64418 19.6626 4.73927 18.6953C3.99504 17.8997 3.38906 16.9881 2.93752 16H2.00002C1.69209 16 1.40143 15.8579 1.21193 15.6152C1.02251 15.3726 0.955705 15.0565 1.03029 14.7578L2.00002 15C1.03237 14.7581 1.03013 14.7565 1.03029 14.7559C1.03051 14.755 1.03102 14.7529 1.03127 14.752C1.03183 14.7498 1.03252 14.7468 1.03322 14.7441C1.03459 14.7389 1.03617 14.7327 1.0381 14.7256C1.0421 14.711 1.04717 14.692 1.05373 14.6699C1.06682 14.6259 1.08546 14.5674 1.11037 14.4961C1.16029 14.3533 1.23635 14.1585 1.3467 13.9268C1.50528 13.5937 1.73534 13.1816 2.06252 12.7344C1.84741 10.5713 2.24254 8.39127 3.20314 6.44238C2.80536 5.45924 2.33443 4.54165 1.94045 3.83887C1.71744 3.44108 1.52164 3.11646 1.38283 2.89258C1.31353 2.7808 1.25877 2.69423 1.2217 2.63672C1.20316 2.60797 1.18877 2.58609 1.1797 2.57227L1.16799 2.55469C0.963466 2.2479 0.944287 1.85343 1.11818 1.52832C1.2922 1.20317 1.63123 1.00001 2.00002 1ZM17.6201 7C16.7289 7.00001 15.204 7.43158 14.2686 7.88379L9.50392 10.6641C9.40859 10.7197 9.30451 10.7586 9.19631 10.7803C6.41265 11.337 4.85921 12.5235 4.0049 13.5059C3.85734 13.6756 3.73191 13.8431 3.62111 14H6.00002C6.5523 14 7.00002 14.4477 7.00002 15C7.00002 15.5523 6.5523 16 6.00002 16H5.19338C5.48162 16.4752 5.81772 16.9213 6.19924 17.3291C6.92446 18.1043 7.79573 18.7289 8.76271 19.167C9.72974 19.605 10.7739 19.8479 11.835 19.8818C12.896 19.9157 13.9533 19.7396 14.9463 19.3643C15.1966 19.2697 15.4747 19.2799 15.7178 19.3916L15.7236 19.3945C15.7292 19.3971 15.7387 19.4008 15.751 19.4062C15.7756 19.4173 15.8135 19.4344 15.8633 19.4561C15.9633 19.4995 16.1117 19.5625 16.2998 19.6387C16.6772 19.7914 17.2122 19.9953 17.836 20.1992C18.621 20.4559 19.5161 20.7016 20.4024 20.8516C20.3906 20.8291 20.3793 20.8059 20.3672 20.7832C19.8944 19.8966 19.2285 18.9209 18.4004 18.2998C17.962 17.971 17.8693 17.3502 18.1934 16.9082C18.8117 16.065 19.314 15.1349 19.6328 14.1387L13.4981 17.667L13.4971 17.666C13.1631 17.8609 12.7951 17.9903 12.4121 18.0439C12.0256 18.098 11.6318 18.0755 11.2539 17.9775C10.8762 17.8796 10.5215 17.7077 10.21 17.4727C9.89854 17.2377 9.63636 16.9437 9.43849 16.6074C9.24059 16.271 9.11075 15.8983 9.05666 15.5117C9.00261 15.1253 9.02519 14.7322 9.12306 14.3545C9.22102 13.9767 9.39189 13.6212 9.62697 13.3096C9.86206 12.998 10.1567 12.736 10.4932 12.5381L10.4961 12.5361L16.4961 9.03613C16.501 9.03327 16.5058 9.03012 16.5108 9.02734C16.5118 9.02675 16.5145 9.0262 16.5176 9.02441C16.5241 9.02066 16.5348 9.01372 16.5498 9.00488C16.5803 8.98698 16.6279 8.9589 16.6895 8.9209C16.8129 8.84471 16.9939 8.72932 17.2119 8.57812C17.6499 8.27445 18.2308 7.83212 18.8076 7.27832C18.902 7.18775 18.9943 7.09442 19.086 7H17.6201ZM12 3.09961C10.3982 3.09961 9.0035 3.54104 7.78127 4.41406C7.42984 4.66497 6.95664 4.66161 6.60842 4.40625C5.79262 3.80805 4.86588 3.40723 3.8633 3.19141C4.30473 4.00367 4.82076 5.0403 5.23634 6.14844C5.33827 6.42024 5.31659 6.72359 5.17775 6.97852C4.53245 8.16351 4.14863 9.46408 4.03908 10.7939C5.1513 9.99396 6.64368 9.277 8.63185 8.85645L12.294 6.71973L12.2188 6.625C11.8738 6.19374 11.9438 5.56376 12.375 5.21875C12.8063 4.87374 13.4363 4.94375 13.7813 5.375L14.1055 5.78125C15.1883 5.36032 16.5809 5.00001 17.6201 5H20.5342C20.824 4.39799 21 3.7606 21 3.09961H12Z" fill="#E4F2F2"/>
</svg>
