<svg width="24" height="24" viewBox="0 0 24 24" fill="none" xmlns="http://www.w3.org/2000/svg">
<path d="M14 18C14.5523 18 15 18.4477 15 19V21C15 21.5523 14.5523 22 14 22C13.4477 22 13 21.5523 13 21V19C13 18.4477 13.4477 18 14 18Z" fill="#E4F2F2"/>
<path d="M10 2C10.5523 2 11 2.44772 11 3C11 3.55228 10.5523 4 10 4H4V13C4 14.5913 4.63259 16.117 5.75781 17.2422C6.88303 18.3674 8.4087 19 10 19C10.5523 19 11 19.4477 11 20C11 20.5523 10.5523 21 10 21C7.87827 21 5.84306 20.1575 4.34277 18.6572C2.84248 17.1569 2 15.1217 2 13V4C2 3.47275 2.18058 2.95614 2.56836 2.56836C2.95614 2.18058 3.47275 2 4 2H10Z" fill="#E4F2F2"/>
<path d="M17.293 16.293C17.6835 15.9024 18.3165 15.9024 18.707 16.293L20.207 17.793C20.5976 18.1835 20.5976 18.8165 20.207 19.207C19.8165 19.5976 19.1835 19.5976 18.793 19.207L17.293 17.707C16.9024 17.3165 16.9024 16.6835 17.293 16.293Z" fill="#E4F2F2"/>
<path d="M21 2C21.5523 2 22 2.44772 22 3C22 3.55228 21.5523 4 21 4H15V13C15 13.5523 14.5523 14 14 14H11C10.4477 14 10 13.5523 10 13C10 12.4477 10.4477 12 11 12H13V4C13 3.47275 13.1806 2.95614 13.5684 2.56836C13.9561 2.18058 14.4728 2 15 2H21Z" fill="#E4F2F2"/>
<path d="M21 12C21.5523 12 22 12.4477 22 13C22 13.5523 21.5523 14 21 14H19C18.4477 14 18 13.5523 18 13C18 12.4477 18.4477 12 19 12H21Z" fill="#E4F2F2"/>
<path d="M7.00977 6C7.56205 6 8.00977 6.44772 8.00977 7C8.00977 7.55228 7.56205 8 7.00977 8H7C6.44772 8 6 7.55228 6 7C6 6.44772 6.44772 6 7 6H7.00977Z" fill="#E4F2F2"/>
<path d="M18.0098 6C18.562 6 19.0098 6.44772 19.0098 7C19.0098 7.55228 18.562 8 18.0098 8H18C17.4477 8 17 7.55228 17 7C17 6.44772 17.4477 6 18 6H18.0098Z" fill="#E4F2F2"/>
</svg>
