<svg width="24" height="24" viewBox="0 0 24 24" fill="none" xmlns="http://www.w3.org/2000/svg">
<path fill-rule="evenodd" clip-rule="evenodd" d="M5.60157 1.94092C6.00573 1.87627 6.41878 1.89464 6.81543 1.99561C7.21227 2.0967 7.58505 2.27756 7.90918 2.52784C8.23315 2.77801 8.50205 3.09253 8.7002 3.45069C8.73693 3.51713 8.77026 3.58598 8.80176 3.65479C10.3118 2.58618 12.1254 2.0005 14 2.00049C16.387 2.00049 18.6764 2.94841 20.3643 4.63624C22.052 6.32405 23 8.61361 23 11.0005C22.9999 13.9178 21.8412 16.716 19.7783 18.7788C17.7154 20.8416 14.9173 22.0005 12 22.0005C9.0827 22.0005 6.28457 20.8416 4.22168 18.7788C2.28766 16.8448 1.1485 14.2643 1.01368 11.5454L1 11.0005C0.996302 8.17615 1.91778 5.42774 3.62305 3.17628C3.84846 2.85611 4.13425 2.58203 4.46485 2.37159C4.81021 2.15185 5.19736 2.00562 5.60157 1.94092ZM6.32227 3.93409C6.18998 3.90039 6.05179 3.89396 5.917 3.91553C5.78233 3.93714 5.65315 3.98585 5.53809 4.05909C5.42317 4.13229 5.32457 4.22858 5.24805 4.34131C5.23828 4.35572 5.22731 4.37041 5.2168 4.38428C3.77528 6.28763 2.99673 8.61093 3 10.9985V11.0005C3.00008 13.3873 3.94799 15.677 5.63575 17.3648C7.32356 19.0525 9.61313 20.0005 12 20.0005C14.3869 20.0005 16.6764 19.0525 18.3643 17.3648C20.052 15.677 20.9999 13.3873 21 11.0005C21 9.14405 20.2629 7.36304 18.9502 6.0503C17.6374 4.73754 15.8565 4.00049 14 4.00049C12.1435 4.0005 10.3626 4.73755 9.04981 6.0503C7.73715 7.36304 7 9.14405 7 11.0005C7.00008 12.3265 7.52724 13.598 8.46485 14.5357C9.40251 15.4732 10.674 16.0005 12 16.0005C13.326 16.0005 14.5975 15.4732 15.5352 14.5357C16.4728 13.598 16.9999 12.3265 17 11.0005C17 10.2049 16.6836 9.44199 16.1211 8.8794C15.5585 8.31679 14.7957 8.00049 14 8.00049C13.2044 8.0005 12.4415 8.31679 11.8789 8.8794C11.3164 9.44199 11 10.2049 11 11.0005C11.0001 11.2656 11.1055 11.5201 11.293 11.7075C11.4805 11.895 11.7349 12.0005 12 12.0005C12.2651 12.0005 12.5195 11.895 12.707 11.7075C12.8945 11.5201 12.9999 11.2656 13 11.0005C13 10.4482 13.4477 10.0005 14 10.0005C14.5523 10.0005 15 10.4482 15 11.0005C14.9999 11.796 14.6836 12.5591 14.1211 13.1216C13.5585 13.6841 12.7956 14.0005 12 14.0005C11.2044 14.0005 10.4415 13.6841 9.87891 13.1216C9.31637 12.5591 9.00008 11.796 9 11.0005C9 9.67449 9.52726 8.403 10.4648 7.46534C11.4025 6.52766 12.6739 6.0005 14 6.00049C15.3261 6.00049 16.5975 6.52766 17.5352 7.46534C18.4728 8.40301 19 9.67448 19 11.0005C18.9999 12.8567 18.2626 14.6371 16.9502 15.9497C15.6375 17.2624 13.8565 18.0005 12 18.0005C10.1435 18.0005 8.36255 17.2624 7.04981 15.9497C5.73741 14.6371 5.00008 12.8567 5 11.0005C5 9.08558 5.61081 7.23366 6.72364 5.7046C6.75364 5.65492 6.78857 5.6072 6.82813 5.56202C6.91802 5.45937 6.98556 5.33838 7.02735 5.2085C7.069 5.07878 7.08346 4.94177 7.07032 4.80616C7.0571 4.67035 7.0162 4.53788 6.9502 4.41846C6.88418 4.29923 6.79439 4.19416 6.68653 4.11085C6.57859 4.02755 6.45439 3.96777 6.32227 3.93409Z" fill="#E4F2F2"/>
</svg>
