<svg width="24" height="24" viewBox="0 0 24 24" fill="none" xmlns="http://www.w3.org/2000/svg">
<path fill-rule="evenodd" clip-rule="evenodd" d="M1.29295 1.29297C1.68348 0.902482 2.3165 0.902457 2.70702 1.29297L18.9385 17.5244C18.9444 17.5302 18.9503 17.5361 18.956 17.542L22.707 21.293C23.0975 21.6835 23.0975 22.3165 22.707 22.707C22.3165 23.0975 21.6835 23.0975 21.293 22.707L18.2676 19.6816C16.7385 21.1689 14.7405 22.172 12.6699 22.8945L12.6611 22.8975C12.233 23.0425 11.7688 23.0364 11.3437 22.8838C9.18648 22.1388 7.10495 21.0906 5.55565 19.5039C3.97911 17.8893 2.99999 15.7641 2.99999 13V6C2.99999 5.56823 3.14123 5.15215 3.39549 4.80957L1.29295 2.70703C0.90243 2.31651 0.90243 1.68349 1.29295 1.29297ZM4.99999 13C4.99999 15.2358 5.77046 16.8611 6.98631 18.1064C8.07405 19.2205 9.55299 20.0645 11.2539 20.7236L11.9961 20.9951L12.0185 21.002C13.9462 20.3285 15.6241 19.453 16.8525 18.2666L4.99999 6.41406V13Z" fill="#E4F2F2"/>
<path d="M12 1C12.452 1.00008 12.891 1.1413 13.2568 1.40137L13.4092 1.52051L13.418 1.52734C15.0574 2.96064 17.3229 3.99986 19 4C19.5303 4.00011 20.0391 4.21097 20.414 4.58594C20.789 4.9609 20.9999 5.46976 21 6V12.999L20.9941 13.3477C20.9834 13.6966 20.9557 14.0452 20.9111 14.3916C20.8404 14.9391 20.3396 15.3263 19.792 15.2559C19.2445 15.1853 18.8575 14.6842 18.9277 14.1367C18.9761 13.7606 19.0006 13.3812 19 13.002V6C16.6807 5.99987 13.9705 4.66322 12.1103 3.04004C12.0797 3.01383 12.0403 3.0001 12 3C11.9597 3.00008 11.9203 3.01487 11.8896 3.04102L11.8887 3.04004C11.2438 3.59875 10.5467 4.09487 9.80663 4.51953C9.32782 4.79395 8.7163 4.62892 8.44139 4.15039C8.16667 3.67161 8.33208 3.06023 8.81053 2.78516C9.44069 2.42358 10.0351 2.00142 10.584 1.52539L10.5898 1.52051C10.9827 1.18488 11.4833 1.00008 12 1Z" fill="#E4F2F2"/>
</svg>
