<svg width="24" height="24" viewBox="0 0 24 24" fill="none" xmlns="http://www.w3.org/2000/svg">
<path fill-rule="evenodd" clip-rule="evenodd" d="M12 1C12.5168 1 13.0163 1.18483 13.4092 1.52051L13.418 1.52734C15.0575 2.96065 17.323 4 19 4C19.5303 4 20.039 4.21101 20.4141 4.58594C20.7889 4.96088 20.9999 5.46984 21 6V13C20.9999 15.7639 20.0209 17.8894 18.4463 19.5049C18.4195 19.5324 18.3904 19.5578 18.3633 19.585C18.3393 19.6113 18.314 19.6363 18.2871 19.6602C16.7576 21.1602 14.7484 22.1697 12.6689 22.8945L12.6611 22.8975C12.2331 23.0425 11.7687 23.0373 11.3438 22.8848C11.3379 22.8827 11.332 22.8809 11.3262 22.8789C11.3247 22.8784 11.3228 22.8784 11.3213 22.8779C9.24133 22.1574 7.23466 21.1505 5.70801 19.6533C5.68375 19.6315 5.66051 19.6089 5.63867 19.585C5.61133 19.5576 5.58268 19.5316 5.55566 19.5039C4.07791 17.9904 3.12526 16.0281 3.01172 13.5117L3 13V6C3.00012 5.46983 3.21111 4.96088 3.58594 4.58594C3.96099 4.21101 4.46967 4 5 4L5.32129 3.98828C6.95839 3.86777 9.05354 2.86248 10.582 1.52734L10.5908 1.52051C10.9837 1.18483 11.4832 1 12 1ZM12.001 16.001C10.9806 16.0008 9.98441 16.3132 9.14648 16.8955C8.49 17.3518 7.95674 17.9576 7.58496 18.6582C8.76644 19.651 10.2876 20.4051 11.9961 20.9951C12.0033 20.9976 12.0114 20.9993 12.0186 21.002C13.7203 20.4081 15.2363 19.6527 16.415 18.6602C16.0436 17.9595 15.5116 17.353 14.8555 16.8965C14.0178 16.3137 13.0215 16.0012 12.001 16.001ZM12 3C11.9595 3 11.9204 3.01472 11.8896 3.04102L11.8887 3.04004C10.0393 4.65235 7.31999 6 5 6V13L5.00879 13.4121C5.07455 14.9066 5.50057 16.115 6.17676 17.1152C6.66126 16.3892 7.28035 15.7565 8.00488 15.2529C8.24515 15.086 8.49469 14.9345 8.75195 14.7998C7.68013 13.8828 7 12.5212 7 11C7 8.23858 9.23858 6 12 6C14.7614 6 17 8.23858 17 11C17 12.5215 16.3192 13.8827 15.2471 14.7998C15.5057 14.9352 15.7566 15.0869 15.998 15.2549C16.7216 15.7584 17.3384 16.3917 17.8223 17.1172C18.5598 16.0256 18.9999 14.6869 19 13V6C16.6806 6 13.9706 4.66332 12.1104 3.04004C12.0796 3.01395 12.0403 3 12 3ZM12 8C10.3431 8 9 9.34315 9 11C9 12.6569 10.3431 14 12 14C13.6569 14 15 12.6569 15 11C15 9.34315 13.6569 8 12 8Z" fill="#E4F2F2"/>
</svg>
