<svg width="24" height="24" viewBox="0 0 24 24" fill="none" xmlns="http://www.w3.org/2000/svg">
<path fill-rule="evenodd" clip-rule="evenodd" d="M11.9995 1C12.5518 1 12.9995 1.44772 12.9995 2V4H16.9995C17.7951 4 18.558 4.31641 19.1206 4.87891C19.6832 5.44151 19.9995 6.20435 19.9995 7V12.4609L21.4058 13.0859L21.5347 13.1543C21.8194 13.3342 21.9978 13.6489 22.0005 13.9922C22.014 15.7916 21.6396 17.5668 20.9136 19.2012C21.1022 19.2602 21.2796 19.3308 21.4478 19.4121C21.9611 19.6605 22.3496 19.9893 22.6401 20.2314C23.0643 20.585 23.1216 21.2164 22.7681 21.6406C22.4145 22.0647 21.7831 22.122 21.3589 21.7686C21.0498 21.511 20.838 21.3394 20.5767 21.2129C20.3355 21.0962 20.0105 21 19.4995 21C19.0198 21 18.6991 21.0932 18.4478 21.2139C18.1752 21.3448 17.9469 21.5233 17.6245 21.7812C17.3221 22.0232 16.9249 22.3448 16.4165 22.5889C15.8868 22.8431 15.2695 23 14.4995 23C13.7109 23 13.085 22.8461 12.5513 22.5879C12.038 22.3394 11.6494 22.0107 11.3589 21.7686C11.0498 21.511 10.838 21.3394 10.5767 21.2129C10.3355 21.0962 10.0105 21 9.49952 21C9.01984 21 8.69912 21.0932 8.44776 21.2139C8.17518 21.3448 7.94691 21.5233 7.62452 21.7812C7.32206 22.0232 6.92491 22.3448 6.41651 22.5889C5.88675 22.8431 5.26948 23 4.49952 23C3.7109 23 3.08495 22.8461 2.55127 22.5879C2.03796 22.3394 1.64944 22.0107 1.35889 21.7686C0.934956 21.415 0.877648 20.7835 1.23096 20.3594C1.58448 19.9353 2.2159 19.8781 2.64014 20.2314C2.94925 20.489 3.16114 20.6606 3.42237 20.7871C3.5679 20.8575 3.74424 20.9201 3.97315 20.959C2.65375 18.8882 1.9601 16.4647 2.00049 13.9834C2.00696 13.5943 2.2386 13.244 2.59424 13.0859L3.99952 12.4609V7C3.99952 6.20444 4.31593 5.4415 4.87842 4.87891C5.44095 4.31638 6.204 4.0001 6.99952 4H10.9995V2C10.9995 1.44784 11.4474 1.0002 11.9995 1ZM12.9995 14C12.9993 14.5521 12.5517 15 11.9995 15C11.4475 14.9998 10.9998 14.552 10.9995 14V11.5381L4.01026 14.6436C4.10052 16.7453 4.81353 18.7718 6.05713 20.4648C6.15468 20.3915 6.25917 20.311 6.37452 20.2188C6.67694 19.9768 7.07414 19.6552 7.58252 19.4111C8.11226 19.1569 8.72958 19 9.49952 19C10.2882 19 10.9141 19.1539 11.4478 19.4121C11.9611 19.6605 12.3496 19.9893 12.6401 20.2314C12.9493 20.489 13.1611 20.6606 13.4224 20.7871C13.6636 20.9038 13.9885 21 14.4995 21C14.9792 21 15.2999 20.9067 15.5513 20.7861C15.8239 20.6553 16.0521 20.4767 16.3745 20.2188C16.6769 19.9768 17.0741 19.6552 17.5825 19.4111C17.9317 19.2435 18.3194 19.1196 18.7632 19.0537C19.4867 17.689 19.903 16.1831 19.9839 14.6416L12.9995 11.5381V14ZM6.99952 6C6.73443 6.0001 6.47994 6.10552 6.29248 6.29297C6.10506 6.48049 5.99952 6.73487 5.99952 7V11.5723L10.7817 9.44727C11.1651 9.27698 11.581 9.18848 12.0005 9.18848C12.4199 9.18856 12.835 9.27699 13.2183 9.44727L17.9995 11.5713V7C17.9995 6.73478 17.8941 6.48051 17.7065 6.29297C17.5424 6.12893 17.3271 6.02756 17.0981 6.00488L16.9995 6H6.99952Z" fill="#E4F2F2"/>
</svg>
