<svg width="24" height="24" viewBox="0 0 24 24" fill="none" xmlns="http://www.w3.org/2000/svg">
<path fill-rule="evenodd" clip-rule="evenodd" d="M15.418 1.18652C15.6805 0.998768 16.0178 0.949415 16.3232 1.0537L20.4229 2.45409C21.9792 2.91178 23 4.5269 23 5.99999V9.99999C23 10.5272 22.8194 11.0439 22.4316 11.4316C22.0439 11.8194 21.5272 12 21 12H19V21C19 21.5272 18.8194 22.0439 18.4316 22.4316C18.0439 22.8194 17.5272 23 17 23H7C6.47275 23 5.95614 22.8194 5.56836 22.4316C5.18058 22.0439 5 21.5272 5 21V12H3C2.47275 12 1.95614 11.8194 1.56836 11.4316C1.18058 11.0439 1 10.5272 1 9.99999V5.99999C1 4.52718 2.02134 2.91214 3.57715 2.45409L7.67676 1.0537C7.98217 0.949415 8.31953 0.998768 8.58203 1.18652C8.84445 1.37427 9 1.67732 9 1.99999C9 2.71609 9.53524 3.72802 10.3691 4.65722C10.7635 5.0966 11.1767 5.46245 11.5283 5.70995C11.7045 5.83394 11.8494 5.91675 11.9551 5.96484C11.972 5.97255 11.9875 5.97738 12 5.98241C12.0125 5.97738 12.028 5.97255 12.0449 5.96484C12.1506 5.91675 12.2955 5.83394 12.4717 5.70995C12.8233 5.46245 13.2365 5.0966 13.6309 4.65722C14.4648 3.72802 15 2.71609 15 1.99999C15 1.67732 15.1556 1.37427 15.418 1.18652ZM16.7666 3.31835C16.4258 4.33103 15.7614 5.27744 15.1191 5.99316C14.6387 6.52853 14.114 6.9995 13.6221 7.3457C13.3766 7.51846 13.1228 7.67152 12.873 7.78515C12.6401 7.89113 12.3319 7.99999 12 7.99999C11.6681 7.99999 11.3599 7.89113 11.127 7.78515C10.8772 7.67152 10.6234 7.51846 10.3779 7.3457C9.88597 6.9995 9.36135 6.52853 8.88086 5.99316C8.23849 5.27737 7.57322 4.33114 7.23242 3.31835L4.22266 4.34667C4.20302 4.35336 4.1831 4.35977 4.16309 4.36523C3.5528 4.53177 3 5.29179 3 5.99999V9.99999H5V7.99999C5 7.44771 5.44772 6.99999 6 6.99999C6.55228 6.99999 7 7.44771 7 7.99999V21H17V7.99999C17 7.44771 17.4477 6.99999 18 6.99999C18.5523 6.99999 19 7.44771 19 7.99999V9.99999H21V5.99999C21 5.29179 20.4472 4.53177 19.8369 4.36523C19.8169 4.35977 19.797 4.35336 19.7773 4.34667L16.7666 3.31835Z" fill="#E4F2F2"/>
</svg>
