<svg width="24" height="24" viewBox="0 0 24 24" fill="none" xmlns="http://www.w3.org/2000/svg">
<path fill-rule="evenodd" clip-rule="evenodd" d="M15.418 1.18652C15.6805 0.998768 16.0178 0.949415 16.3232 1.0537L20.4229 2.45409C21.9792 2.91178 23 4.5269 23 5.99999V9.99999C23 10.5272 22.8194 11.0439 22.4316 11.4316C22.0439 11.8194 21.5272 12 21 12H19V21C19 21.5272 18.8194 22.0439 18.4316 22.4316C18.0439 22.8194 17.5272 23 17 23H7C6.47275 23 5.95614 22.8194 5.56836 22.4316C5.18058 22.0439 5 21.5272 5 21V12H3C2.47275 12 1.95614 11.8194 1.56836 11.4316C1.18058 11.0439 1 10.5272 1 9.99999V5.99999C1 4.52718 2.02134 2.91214 3.57715 2.45409L7.67676 1.0537C7.98217 0.949415 8.31953 0.998768 8.58203 1.18652C8.84445 1.37427 9 1.67732 9 1.99999C9 2.79564 9.3163 3.55848 9.87891 4.12109C10.4415 4.68369 11.2044 4.99999 12 4.99999C12.7956 4.99999 13.5585 4.68369 14.1211 4.12109C14.6837 3.55848 15 2.79564 15 1.99999C15 1.67732 15.1556 1.37427 15.418 1.18652ZM16.8164 3.33495C16.5878 4.15953 16.1509 4.91945 15.5352 5.53515C14.5975 6.47283 13.3261 6.99999 12 6.99999C10.6739 6.99999 9.40252 6.47283 8.46484 5.53515C7.84908 4.91938 7.41117 4.15963 7.18262 3.33495L4.22266 4.34667C4.20302 4.35336 4.1831 4.35977 4.16309 4.36523C3.5528 4.53177 3 5.29179 3 5.99999V9.99999H5V7.99999C5 7.44771 5.44772 6.99999 6 6.99999C6.55228 6.99999 7 7.44771 7 7.99999V21H17V7.99999C17 7.44771 17.4477 6.99999 18 6.99999C18.5523 6.99999 19 7.44771 19 7.99999V9.99999H21V5.99999C21 5.29179 20.4472 4.53177 19.8369 4.36523C19.8169 4.35977 19.797 4.35336 19.7773 4.34667L16.8164 3.33495Z" fill="#E4F2F2"/>
</svg>
