<svg width="24" height="24" viewBox="0 0 24 24" fill="none" xmlns="http://www.w3.org/2000/svg">
<path d="M10.0098 14C10.5621 14 11.0098 14.4477 11.0098 15C11.0098 15.5523 10.5621 16 10.0098 16H10C9.44772 16 9 15.5523 9 15C9 14.4477 9.44772 14 10 14H10.0098Z" fill="#E4F2F2"/>
<path d="M10.0098 10C10.5621 10 11.0098 10.4477 11.0098 11C11.0098 11.5523 10.5621 12 10.0098 12H10C9.44772 12 9 11.5523 9 11C9 10.4477 9.44772 10 10 10H10.0098Z" fill="#E4F2F2"/>
<path fill-rule="evenodd" clip-rule="evenodd" d="M16 2C16.5272 2 17.0439 2.18058 17.4316 2.56836C17.8194 2.95614 18 3.47275 18 4V5H20C20.5272 5 21.0439 5.18058 21.4316 5.56836C21.8194 5.95614 22 6.47275 22 7V19C22 19.7957 21.6837 20.5585 21.1211 21.1211C20.5585 21.6837 19.7957 22 19 22H5C4.20435 22 3.44151 21.6837 2.87891 21.1211C2.3163 20.5585 2 19.7957 2 19V4C2 3.47275 2.18058 2.95614 2.56836 2.56836C2.95614 2.18058 3.47275 2 4 2H16ZM4 19C4 19.2652 4.10543 19.5195 4.29297 19.707C4.48051 19.8946 4.73478 20 5 20H16.1758C16.063 19.6814 16 19.3444 16 19V4H14C14 5.06087 13.5783 6.07798 12.8281 6.82812C12.078 7.57827 11.0609 8 10 8C8.93913 8 7.92202 7.57827 7.17188 6.82812C6.42173 6.07798 6 5.06087 6 4H4V19ZM18 19C18 19.2652 18.1054 19.5195 18.293 19.707C18.4805 19.8946 18.7348 20 19 20C19.2652 20 19.5195 19.8946 19.707 19.707C19.8946 19.5195 20 19.2652 20 19V7H18V19ZM8 4C8 4.53043 8.21086 5.03899 8.58594 5.41406C8.96101 5.78914 9.46957 6 10 6C10.5304 6 11.039 5.78913 11.4141 5.41406C11.7891 5.03899 12 4.53043 12 4H8Z" fill="#E4F2F2"/>
</svg>
