<svg width="24" height="24" viewBox="0 0 24 24" fill="none" xmlns="http://www.w3.org/2000/svg">
<path fill-rule="evenodd" clip-rule="evenodd" d="M15.4146 1.18896C15.6752 1.00114 16.0111 0.950763 16.3159 1.05224L20.6958 2.5122C21.3745 2.73845 21.9504 3.19975 22.3189 3.81299C22.6873 4.42632 22.8246 5.15138 22.7056 5.85693L22.1255 9.31982C22.0493 9.78951 21.8087 10.218 21.4458 10.5259C21.0837 10.8328 20.6237 11.0003 20.1489 10.9995L18.9995 11.0005V20.0005C18.9995 20.796 18.6831 21.559 18.1206 22.1216C17.5581 22.6839 16.7949 23.0004 15.9995 23.0005H7.99954C6.34756 23.0002 4.99968 21.6525 4.99954 20.0005V11.0005H3.84914C3.37447 11.001 2.91428 10.833 2.55227 10.5259C2.19063 10.219 1.95151 9.79263 1.87454 9.3247L1.87258 9.32568L1.29348 5.85693L1.26028 5.59131C1.21193 4.97169 1.35793 4.34953 1.6802 3.81299C2.04867 3.19979 2.6246 2.73847 3.30325 2.5122L7.68313 1.05224C7.988 0.950619 8.32375 1.00112 8.5845 1.18896C8.84516 1.37692 8.99954 1.67911 8.99954 2.00049C8.99961 2.79599 9.31596 3.55904 9.87844 4.12158C10.4409 4.68401 11.2041 5.00036 11.9995 5.00049C12.7949 5.00043 13.5581 4.68391 14.1206 4.12158C14.6831 3.55904 14.9995 2.79599 14.9995 2.00049C14.9995 1.67922 15.1541 1.37694 15.4146 1.18896ZM16.8179 3.32666C16.59 4.15442 16.1524 4.91788 15.5347 5.53564C14.5971 6.47304 13.3254 7.00043 11.9995 7.00049C10.6736 7.00036 9.40097 6.47321 8.4634 5.53564C7.84572 4.91779 7.40704 4.15449 7.17922 3.32666L3.93508 4.40869C3.70918 4.4842 3.51676 4.63908 3.39407 4.84326C3.27162 5.04746 3.22565 5.28912 3.26516 5.52392L3.26614 5.52588L3.84524 8.9956L3.84621 9.00049H5.99954C6.55173 9.0006 6.99954 9.44827 6.99954 10.0005V20.0005C6.99968 20.5479 7.45212 21.0002 7.99954 21.0005H15.9995C16.2645 21.0004 16.5191 20.8948 16.7066 20.7075C16.894 20.5201 16.9995 20.2656 16.9995 20.0005V10.0005C16.9995 9.44836 17.4475 9.00074 17.9995 9.00049H20.1519L20.1529 8.9956L20.7329 5.52588V5.52392C20.7725 5.28883 20.7268 5.04762 20.604 4.84326C20.4812 4.6388 20.2893 4.48506 20.063 4.40967L16.8179 3.32666Z" fill="#E4F2F2"/>
</svg>
