<svg width="24" height="24" viewBox="0 0 24 24" fill="none" xmlns="http://www.w3.org/2000/svg">
<path fill-rule="evenodd" clip-rule="evenodd" d="M15.418 1.18652C15.6805 0.998768 16.0178 0.949415 16.3232 1.0537L20.4229 2.45409C21.9792 2.91178 23 4.5269 23 5.99999V9.99999C23 10.5272 22.8194 11.0439 22.4316 11.4316C22.0439 11.8194 21.5272 12 21 12H19V15H20C21.6569 15 23 16.3431 23 18V20C23 21.6568 21.6569 23 20 23H4C2.34315 23 1 21.6568 1 20V18C1 16.3431 2.34315 15 4 15H5V12H3C2.47275 12 1.95614 11.8194 1.56836 11.4316C1.18058 11.0439 1 10.5272 1 9.99999V5.99999C1 4.52718 2.02134 2.91214 3.57715 2.45409L7.67676 1.0537C7.98217 0.949415 8.31953 0.998768 8.58203 1.18652C8.84445 1.37427 9 1.67732 9 1.99999C9 2.79564 9.3163 3.55848 9.87891 4.12109C10.4415 4.68369 11.2044 4.99999 12 4.99999C12.7956 4.99999 13.5585 4.68369 14.1211 4.12109C14.6837 3.55848 15 2.79564 15 1.99999C15 1.67732 15.1556 1.37427 15.418 1.18652ZM4 17C3.44772 17 3 17.4477 3 18V20C3 20.5523 3.44772 21 4 21H20C20.5523 21 21 20.5523 21 20V18C21 17.4477 20.5523 17 20 17H19V18C19 18.5523 18.5523 19 18 19C17.4477 19 17 18.5523 17 18V17H15V18C15 18.5523 14.5523 19 14 19C13.4477 19 13 18.5523 13 18V17H11V18C11 18.5523 10.5523 19 10 19C9.44772 19 9 18.5523 9 18V17H7V18C7 18.5523 6.55228 19 6 19C5.44772 19 5 18.5523 5 18V17H4ZM16.8164 3.33495C16.5878 4.15953 16.1509 4.91945 15.5352 5.53515C14.5975 6.47283 13.3261 6.99999 12 6.99999C10.6739 6.99999 9.40252 6.47283 8.46484 5.53515C7.84908 4.91938 7.41117 4.15963 7.18262 3.33495L4.22266 4.34667C4.20302 4.35336 4.1831 4.35977 4.16309 4.36523C3.5528 4.53177 3 5.29179 3 5.99999V9.99999H5V7.99999C5 7.44771 5.44772 6.99999 6 6.99999C6.55228 6.99999 7 7.44771 7 7.99999V15H17V7.99999C17 7.44771 17.4477 6.99999 18 6.99999C18.5523 6.99999 19 7.44771 19 7.99999V9.99999H21V5.99999C21 5.29179 20.4472 4.53177 19.8369 4.36523C19.8169 4.35977 19.797 4.35336 19.7773 4.34667L16.8164 3.33495Z" fill="#E4F2F2"/>
</svg>
