<svg width="24" height="24" viewBox="0 0 24 24" fill="none" xmlns="http://www.w3.org/2000/svg">
<path fill-rule="evenodd" clip-rule="evenodd" d="M14.5039 3.13184C14.9834 2.85788 15.5941 3.02446 15.8682 3.50391L19.5801 10H22C22.5523 10 22.9999 10.4478 23 11C23 11.5523 22.5523 12 22 12H21.3955L19.875 18.624L19.873 18.623C19.7291 19.3013 19.3562 19.9093 18.8145 20.3428C18.2716 20.777 17.595 21.0083 16.9004 20.999L7.09961 21C6.40496 21.0093 5.72835 20.777 5.18555 20.3428C4.6375 19.9043 4.26035 19.2874 4.12012 18.5996L2.69336 12H2C1.44772 12 1 11.5523 1 11C1.00005 10.4478 1.44775 10 2 10H4.41992L8.13184 3.50391C8.40586 3.02446 9.01661 2.85788 9.49609 3.13184C9.97559 3.40583 10.1421 4.01659 9.86816 4.4961L6.72266 10H17.2773L14.1318 4.4961C13.8579 4.01659 14.0244 3.40583 14.5039 3.13184ZM10.8955 19H13.1045L13.3828 16.5H10.6172L10.8955 19ZM15.1172 19H16.9199C17.1539 19.0047 17.3827 18.9274 17.5654 18.7813C17.748 18.6351 17.8732 18.4293 17.9199 18.2002C17.9216 18.1922 17.9239 18.1838 17.9258 18.1758L18.3105 16.5H15.3955L15.1172 19ZM6.07715 18.1885L6.08008 18.2002L6.10059 18.2852C6.15842 18.48 6.27486 18.6534 6.43457 18.7813C6.61729 18.9274 6.84613 19.0047 7.08008 19H8.88281L8.60449 16.5H5.71191L6.07715 18.1885ZM10.3955 14.5H13.6045L13.8828 12H10.1172L10.3955 14.5ZM15.6172 14.5H18.7695L19.3438 12H15.8955L15.6172 14.5ZM5.2793 14.5H8.38281L8.10449 12H4.73926L5.2793 14.5Z" fill="#E4F2F2"/>
</svg>
