<svg width="24" height="24" viewBox="0 0 24 24" fill="none" xmlns="http://www.w3.org/2000/svg">
<path fill-rule="evenodd" clip-rule="evenodd" d="M21 3C21.5272 3 22.0439 3.18058 22.4316 3.56836C22.8194 3.95614 23 4.47275 23 5V18C23 18.7957 22.6837 19.5585 22.1211 20.1211C21.5585 20.6837 20.7957 21 20 21H15C14.5926 21 14.2261 20.7526 14.0732 20.375L12.6875 16.9521C12.5422 16.9723 12.3956 16.9868 12.248 16.9941L12 17C11.7686 17 11.5391 16.9827 11.3125 16.9512L9.92676 20.375C9.7739 20.7526 9.40741 21 9 21H4C3.20435 21 2.44151 20.6837 1.87891 20.1211C1.3163 19.5585 1 18.7956 1 18V5C1 4.47275 1.18058 3.95614 1.56836 3.56836C1.95614 3.18058 2.47275 3 3 3H21ZM3 18C3 18.2652 3.10543 18.5195 3.29297 18.707C3.48051 18.8946 3.73478 19 4 19H8.32617L9.4248 16.2842C9.07849 16.0759 8.75538 15.8257 8.46484 15.5352C7.52716 14.5975 7 13.3261 7 12V9H3V18ZM17 12C17 13.3261 16.4728 14.5975 15.5352 15.5352C15.2444 15.8259 14.9208 16.0758 14.5742 16.2842L15.6738 19H20C20.2652 19 20.5195 18.8946 20.707 18.707C20.8946 18.5195 21 18.2652 21 18V9H17V12ZM9 12L9.01465 12.2969C9.08291 12.9835 9.38671 13.6289 9.87891 14.1211C10.4415 14.6837 11.2044 15 12 15L12.2969 14.9854C12.9835 14.9171 13.6289 14.6133 14.1211 14.1211C14.6133 13.6289 14.9171 12.9835 14.9854 12.2969L15 12V9H9V12ZM3 7H21V5H3V7Z" fill="#E4F2F2"/>
</svg>
