<svg width="24" height="24" viewBox="0 0 24 24" fill="none" xmlns="http://www.w3.org/2000/svg">
<path fill-rule="evenodd" clip-rule="evenodd" d="M21 3C21.5272 3 22.0439 3.18058 22.4316 3.56836C22.8194 3.95614 23 4.47275 23 5V18C23 18.7957 22.6837 19.5585 22.1211 20.1211C21.5585 20.6837 20.7957 21 20 21H15C14.6488 21 14.3233 20.8158 14.1426 20.5146L12 16.9434L9.85742 20.5146C9.67668 20.8158 9.35121 21 9 21H4C3.20435 21 2.44151 20.6837 1.87891 20.1211C1.3163 19.5585 1 18.7956 1 18V5C1 4.47275 1.18058 3.95614 1.56836 3.56836C1.95614 3.18058 2.47275 3 3 3H21ZM3 13.1309L4.44531 12.168C4.90484 11.8616 5.52568 11.9858 5.83203 12.4453C6.13838 12.9048 6.01422 13.5257 5.55469 13.832L3 15.5352V18C3 18.2652 3.10543 18.5195 3.29297 18.707C3.48051 18.8946 3.73478 19 4 19H8.43359L11.1426 14.4854L11.2168 14.3779C11.405 14.1409 11.6927 14 12 14C12.3512 14 12.6767 14.1842 12.8574 14.4854L15.5664 19H20C20.2652 19 20.5195 18.8946 20.707 18.707C20.8946 18.5195 21 18.2652 21 18V15.5352L18.4453 13.832C17.9858 13.5257 17.8616 12.9048 18.168 12.4453C18.4743 11.9858 19.0952 11.8616 19.5547 12.168L21 13.1309V9H16V12C16 12.5523 15.5523 13 15 13C14.4477 13 14 12.5523 14 12V9H10V12C10 12.5523 9.55229 13 9 13C8.44772 13 8 12.5523 8 12V9H3V13.1309ZM3 7H21V5H3V7Z" fill="#E4F2F2"/>
</svg>
