<svg width="24" height="24" viewBox="0 0 24 24" fill="none" xmlns="http://www.w3.org/2000/svg">
<path fill-rule="evenodd" clip-rule="evenodd" d="M15 1C15.5523 1 16 1.44772 16 2V3.5C16 5.40545 14.749 6.94944 13 7.37988V15H14L14.2969 15.0146C14.9835 15.0829 15.6289 15.3867 16.1211 15.8789C16.6837 16.4415 17 17.2043 17 18V21H18C18.5523 21 19 21.4477 19 22C19 22.5523 18.5523 23 18 23H6C5.44772 23 5 22.5523 5 22C5 21.4477 5.44772 21 6 21H7V18C7 17.2043 7.3163 16.4415 7.87891 15.8789C8.44151 15.3163 9.20435 15 10 15H11V7.37988C9.25096 6.94944 8 5.40545 8 3.5V2C8 1.44772 8.44772 1 9 1H15ZM10 17C9.73478 17 9.48051 17.1054 9.29297 17.293C9.10543 17.4805 9 17.7348 9 18V21H15V18C15 17.7348 14.8946 17.4805 14.707 17.293C14.5195 17.1054 14.2652 17 14 17H10ZM10 3.5C10 4.64772 10.8523 5.5 12 5.5C13.1477 5.5 14 4.64772 14 3.5V3H10V3.5Z" fill="#E4F2F2"/>
</svg>
