<svg width="24" height="24" viewBox="0 0 24 24" fill="none" xmlns="http://www.w3.org/2000/svg">
<path d="M11 19C11.5522 19 12 19.4477 12 20V20.0098C11.9999 20.562 11.5522 21.0097 11 21.0098C10.4477 21.0098 10 20.562 9.99999 20.0098V20C9.99999 19.4477 10.4477 19 11 19Z" fill="#E4F2F2"/>
<path d="M14 16C14.5522 16 15 16.4477 15 17V17.0098C14.9999 17.562 14.5522 18.0097 14 18.0098C13.4477 18.0098 13 17.562 13 17.0098V17C13 16.4477 13.4477 16 14 16Z" fill="#E4F2F2"/>
<path d="M9.99999 15C10.5522 15 11 15.4477 11 16V16.0098C10.9999 16.562 10.5522 17.0097 9.99999 17.0098C9.44773 17.0098 9.00003 16.562 8.99999 16.0098V16C8.99999 15.4477 9.4477 15 9.99999 15Z" fill="#E4F2F2"/>
<path fill-rule="evenodd" clip-rule="evenodd" d="M3.29295 3.29295C3.68348 2.90243 4.31649 2.90243 4.70702 3.29295L6.59667 5.1826C7.58713 4.48051 8.77481 4.09123 10.0049 4.08495C11.238 4.07872 12.4334 4.45711 13.4326 5.15233L14.293 4.29295C14.6835 3.90243 15.3165 3.90243 15.707 4.29295C16.0975 4.68348 16.0975 5.31652 15.707 5.70702L5.70702 15.707C5.31652 16.0975 4.68348 16.0975 4.29295 15.707C3.90243 15.3165 3.90243 14.6835 4.29295 14.293L5.15233 13.4326C4.45711 12.4334 4.07872 11.238 4.08495 10.0049C4.09123 8.77481 4.48051 7.58713 5.1826 6.59667L3.29295 4.70702C2.90243 4.31649 2.90243 3.68348 3.29295 3.29295ZM10.0146 6.08495C8.9742 6.09038 7.97789 6.50645 7.24217 7.24217C6.50645 7.97789 6.09038 8.9742 6.08495 10.0146C6.08143 10.7107 6.26279 11.389 6.60057 11.9844L11.9844 6.60057C11.389 6.26279 10.7107 6.08143 10.0146 6.08495Z" fill="#E4F2F2"/>
<path d="M17 13C17.5522 13 18 13.4477 18 14V14.0098C17.9999 14.562 17.5522 15.0097 17 15.0098C16.4477 15.0098 16 14.562 16 14.0098V14C16 13.4477 16.4477 13 17 13Z" fill="#E4F2F2"/>
<path d="M13 12C13.5522 12 14 12.4477 14 13V13.0098C13.9999 13.562 13.5522 14.0097 13 14.0098C12.4477 14.0098 12 13.562 12 13.0098V13C12 12.4477 12.4477 12 13 12Z" fill="#E4F2F2"/>
<path d="M20 9.99999C20.5522 10 21 10.4477 21 11V11.0098C20.9999 11.562 20.5522 12.0097 20 12.0098C19.4477 12.0098 19 11.562 19 11.0098V11C19 10.4477 19.4477 9.99999 20 9.99999Z" fill="#E4F2F2"/>
<path d="M16 8.99999C16.5522 9.00003 17 9.44773 17 9.99999V10.0098C16.9999 10.562 16.5522 11.0097 16 11.0098C15.4477 11.0098 15 10.562 15 10.0098V9.99999C15 9.4477 15.4477 8.99999 16 8.99999Z" fill="#E4F2F2"/>
</svg>
