<svg width="24" height="24" viewBox="0 0 24 24" fill="none" xmlns="http://www.w3.org/2000/svg">
<path fill-rule="evenodd" clip-rule="evenodd" d="M12 1C12.7956 1 13.5585 1.3163 14.1211 1.87891C14.6837 2.44151 15 3.20435 15 4V5H17C17.7956 5 18.5585 5.3163 19.1211 5.87891C19.6837 6.44151 20 7.20435 20 8V9H21C21.5523 9 22 9.44771 22 10C22 10.5523 21.5523 11 21 11H7C6.44772 11 6 10.5523 6 10C6 9.44771 6.44772 9 7 9H8V8C8 7.20435 8.3163 6.44151 8.87891 5.87891C9.44152 5.3163 10.2044 5 11 5H13V4C13 3.73478 12.8946 3.48051 12.707 3.29297C12.5195 3.10543 12.2652 3 12 3H5C4.73478 3 4.4805 3.10543 4.29297 3.29297C4.10543 3.4805 4 3.73478 4 4V22C4 22.5523 3.55228 23 3 23C2.44772 23 2 22.5523 2 22V4C2 3.20435 2.3163 2.44152 2.87891 1.87891C3.44152 1.3163 4.20435 1 5 1H12ZM11 7C10.7348 7 10.4805 7.10543 10.293 7.29297C10.1054 7.48051 10 7.73478 10 8V9H18V8C18 7.73478 17.8946 7.48051 17.707 7.29297C17.5429 7.12883 17.3276 7.02757 17.0986 7.00488L17 7H11Z" fill="#E4F2F2"/>
<path d="M8.00977 21C8.56205 21 9.00977 21.4477 9.00977 22C9.00977 22.5523 8.56205 23 8.00977 23H8C7.44772 23 7 22.5523 7 22C7 21.4477 7.44772 21 8 21H8.00977Z" fill="#E4F2F2"/>
<path d="M14.0098 21C14.5621 21 15.0098 21.4477 15.0098 22C15.0098 22.5523 14.5621 23 14.0098 23H14C13.4477 23 13 22.5523 13 22C13 21.4477 13.4477 21 14 21H14.0098Z" fill="#E4F2F2"/>
<path d="M20.0098 21C20.562 21 21.0098 21.4477 21.0098 22C21.0098 22.5523 20.562 23 20.0098 23H20C19.4477 23 19 22.5523 19 22C19 21.4477 19.4477 21 20 21H20.0098Z" fill="#E4F2F2"/>
<path d="M9.00977 17C9.56205 17 10.0098 17.4477 10.0098 18C10.0098 18.5523 9.56205 19 9.00977 19H9C8.44772 19 8 18.5523 8 18C8 17.4477 8.44772 17 9 17H9.00977Z" fill="#E4F2F2"/>
<path d="M14.0098 17C14.5621 17 15.0098 17.4477 15.0098 18C15.0098 18.5523 14.5621 19 14.0098 19H14C13.4477 19 13 18.5523 13 18C13 17.4477 13.4477 17 14 17H14.0098Z" fill="#E4F2F2"/>
<path d="M19.0098 17C19.562 17 20.0098 17.4477 20.0098 18C20.0098 18.5523 19.562 19 19.0098 19H19C18.4477 19 18 18.5523 18 18C18 17.4477 18.4477 17 19 17H19.0098Z" fill="#E4F2F2"/>
<path d="M10.0098 13C10.5621 13 11.0098 13.4477 11.0098 14C11.0098 14.5523 10.5621 15 10.0098 15H10C9.44772 15 9 14.5523 9 14C9 13.4477 9.44772 13 10 13H10.0098Z" fill="#E4F2F2"/>
<path d="M14.0098 13C14.5621 13 15.0098 13.4477 15.0098 14C15.0098 14.5523 14.5621 15 14.0098 15H14C13.4477 15 13 14.5523 13 14C13 13.4477 13.4477 13 14 13H14.0098Z" fill="#E4F2F2"/>
<path d="M18.0098 13C18.562 13 19.0098 13.4477 19.0098 14C19.0098 14.5523 18.562 15 18.0098 15H18C17.4477 15 17 14.5523 17 14C17 13.4477 17.4477 13 18 13H18.0098Z" fill="#E4F2F2"/>
</svg>
