<svg width="24" height="24" viewBox="0 0 24 24" fill="none" xmlns="http://www.w3.org/2000/svg">
<path d="M11.0103 10.9995C11.5622 10.9997 12.0101 11.4475 12.0103 11.9995C12.0103 12.5517 11.5624 12.9993 11.0103 12.9995H11.0005C10.4482 12.9995 10.0005 12.5518 10.0005 11.9995C10.0007 11.4474 10.4483 10.9995 11.0005 10.9995H11.0103Z" fill="#E4F2F2"/>
<path fill-rule="evenodd" clip-rule="evenodd" d="M13.106 1.55127C13.3534 1.05808 13.9542 0.858139 14.4478 1.10498C14.9414 1.35226 15.1411 1.95404 14.8941 2.44776C14.5091 3.21617 13.9016 3.85163 13.1509 4.27002C12.4 4.68835 11.5402 4.87043 10.6841 4.79346L4.51319 4.23194H4.50733C4.32042 4.21399 4.13152 4.2344 3.95264 4.29151C3.77366 4.34873 3.60729 4.44183 3.46534 4.56494C3.32354 4.68804 3.20833 4.83931 3.12647 5.0083C3.04467 5.17736 2.99738 5.36171 2.98878 5.54932C2.98026 5.73706 3.0105 5.92518 3.07667 6.10108C3.14291 6.27705 3.24426 6.43813 3.37452 6.57373C3.50477 6.70928 3.66134 6.81691 3.83448 6.89014C4.00765 6.96335 4.19433 7.0005 4.38233 6.99951H15.5005C17.4893 6.99962 19.3968 7.78966 20.8032 9.1958C22.2097 10.6022 23.0004 12.5105 23.0005 14.4995C23.0005 16.4885 22.2096 18.3967 20.8032 19.8032C19.4386 21.1677 17.602 21.9492 15.6773 21.9946C15.6186 21.9976 15.5595 21.9995 15.5005 21.9995L15.2983 22.0044C14.8514 22.0253 14.5595 22.1147 14.354 22.2134C14.1146 22.3285 13.9281 22.486 13.7075 22.7065C13.317 23.0971 12.684 23.097 12.2935 22.7065C11.9029 22.316 11.9029 21.683 12.2935 21.2925C12.3866 21.1993 12.4929 21.1013 12.6099 20.9995C12.4928 20.8976 12.3867 20.7998 12.2935 20.7065C11.9029 20.316 11.9029 19.683 12.2935 19.2925C12.684 18.9023 13.3171 18.9021 13.7075 19.2925C13.9283 19.5132 14.1144 19.6705 14.354 19.7856C14.5889 19.8985 14.937 19.9995 15.5005 19.9995C15.8982 19.9994 16.2798 19.8413 16.561 19.5601C16.8421 19.2788 17.0005 18.8972 17.0005 18.4995C17.0004 18.1018 16.8422 17.7202 16.561 17.439C16.2798 17.1578 15.8982 16.9996 15.5005 16.9995H14.023C14.0096 16.9998 13.9963 16.9997 13.9829 16.9995H12.0005C9.8788 16.9995 7.84355 16.157 6.34327 14.6567C4.843 13.1565 4.0005 11.1212 4.0005 8.99951V8.97705C3.67605 8.94096 3.35712 8.85961 3.05518 8.73194C2.63244 8.5531 2.25016 8.29047 1.93214 7.95948C1.61407 7.62839 1.36637 7.23582 1.2046 6.80615C1.04292 6.37656 0.97096 5.91802 0.991707 5.45948C1.01255 5.00087 1.12574 4.55045 1.32569 4.13721C1.52569 3.72401 1.80809 3.3551 2.15479 3.0542C2.50148 2.75344 2.90611 2.526 3.34327 2.38623C3.78043 2.24652 4.24189 2.19684 4.69874 2.24073L10.8638 2.80127C11.3199 2.8423 11.7772 2.74487 12.1773 2.52198C12.5771 2.29904 12.901 1.96063 13.106 1.55127ZM20.6509 12.5767C20.4275 13.1677 20.1271 13.7555 19.7769 14.2944C19.3268 14.9868 18.7739 15.6369 18.1646 16.1245C18.1464 16.139 18.1264 16.1521 18.1079 16.1665C18.6806 16.8064 19.0004 17.6363 19.0005 18.4995C19.0005 18.5835 18.9957 18.6673 18.9898 18.7505C19.128 18.6369 19.2615 18.5158 19.3892 18.3882C20.4204 17.3568 21.0005 15.958 21.0005 14.4995C21.0005 13.8363 20.8786 13.1862 20.6509 12.5767ZM15.5132 8.99951C15.834 9.96378 16.0005 10.9764 16.0005 11.9995C16.0005 13.0225 15.8339 14.0353 15.5132 14.9995C15.6183 14.9999 15.7229 15.0054 15.8267 15.0151C15.883 15.0053 15.9413 14.9995 16.0005 14.9995C16.1787 14.9994 16.4926 14.8996 16.9146 14.562C17.3205 14.2372 17.7369 13.7618 18.0991 13.2046C18.4601 12.6491 18.7453 12.0481 18.9097 11.4956C19.0688 10.9607 19.0899 10.5522 19.0396 10.2925C18.0555 9.46452 16.8089 9.0026 15.5132 8.99951ZM6.0005 8.99951C6.0005 10.5906 6.63239 12.1165 7.75733 13.2417C8.88255 14.3669 10.4092 14.9995 12.0005 14.9995H13.3706C13.7831 14.055 14.0005 13.0344 14.0005 11.9995C14.0004 10.9646 13.7832 9.9441 13.3706 8.99951H6.0005Z" fill="#E4F2F2"/>
</svg>
