<svg width="24" height="24" viewBox="0 0 24 24" fill="none" xmlns="http://www.w3.org/2000/svg">
<path d="M8.99999 14C9.55224 14 9.99999 14.4477 9.99999 15V19.7998C9.99994 20.352 9.55221 20.7997 8.99999 20.7998C8.44773 20.7998 8.00003 20.352 7.99999 19.7998V17.414L3.70702 21.707C3.31652 22.0975 2.68348 22.0975 2.29295 21.707C1.90243 21.3165 1.90243 20.6835 2.29295 20.293L6.58592 16H4.20018C3.64792 16 3.20022 15.5522 3.20018 15C3.20018 14.4477 3.6479 14 4.20018 14H8.99999Z" fill="#E4F2F2"/>
<path d="M19.7998 14C20.352 14 20.7998 14.4477 20.7998 15C20.7997 15.5522 20.352 15.9999 19.7998 16H17.414L21.707 20.293C22.0975 20.6835 22.0975 21.3165 21.707 21.707C21.3165 22.0975 20.6835 22.0975 20.293 21.707L16 17.414V19.7998C15.9999 20.352 15.5522 20.7997 15 20.7998C14.4477 20.7998 14 20.352 14 19.7998V15C14 14.4477 14.4477 14 15 14H19.7998Z" fill="#E4F2F2"/>
<path d="M2.29295 2.29295C2.68348 1.90243 3.31649 1.90243 3.70702 2.29295L7.99999 6.58592V4.20018C7.99999 3.6479 8.4477 3.20018 8.99999 3.20018C9.55224 3.20022 9.99999 3.64792 9.99999 4.20018V8.99999C9.99994 9.55221 9.55221 9.99994 8.99999 9.99999H4.20018C3.64792 9.99999 3.20022 9.55224 3.20018 8.99999C3.20018 8.4477 3.6479 7.99999 4.20018 7.99999H6.58592L2.29295 3.70702C1.90243 3.31649 1.90243 2.68348 2.29295 2.29295Z" fill="#E4F2F2"/>
<path d="M20.293 2.29295C20.6835 1.90243 21.3165 1.90243 21.707 2.29295C22.0975 2.68348 22.0975 3.31652 21.707 3.70702L17.414 7.99999H19.7998C20.352 8.00003 20.7998 8.44773 20.7998 8.99999C20.7997 9.55221 20.352 9.99994 19.7998 9.99999H15C14.4477 9.99999 14 9.55224 14 8.99999V4.20018C14 3.6479 14.4477 3.20018 15 3.20018C15.5522 3.20022 16 3.64792 16 4.20018V6.58592L20.293 2.29295Z" fill="#E4F2F2"/>
</svg>
