<svg width="24" height="24" viewBox="0 0 24 24" fill="none" xmlns="http://www.w3.org/2000/svg">
<path fill-rule="evenodd" clip-rule="evenodd" d="M11.9995 2C13.5908 2 15.1175 2.63264 16.2427 3.75781C17.3677 4.88299 17.9995 6.4089 17.9995 8V8.24902C19.1148 9.02159 19.9849 10.1052 20.4986 11.3701C21.0869 12.819 21.1733 14.4232 20.7437 15.9268C20.3141 17.4303 19.3933 18.7467 18.1285 19.666C16.873 20.5784 15.35 21.0464 13.7994 20.999L12.9995 21V22C12.9995 22.5523 12.5518 23 11.9995 23C11.4474 22.9998 10.9995 22.5522 10.9995 22V21H9.99955C9.97713 21 9.95454 20.9996 9.93217 20.998C8.35023 20.8906 6.84248 20.2842 5.6265 19.2666C4.41061 18.249 3.54816 16.8722 3.16361 15.334C2.77909 13.7958 2.89192 12.1751 3.48588 10.7051C4.01263 9.40155 4.89419 8.27559 6.02494 7.45215C6.15237 6.06185 6.7621 4.75314 7.75736 3.75781C8.88251 2.63266 10.4084 2.00008 11.9995 2ZM11.9995 4C10.9388 4.00008 9.9215 4.4218 9.17142 5.17188C8.42137 5.92201 7.99955 6.9392 7.99955 8C7.99955 8.34509 7.82164 8.66598 7.52885 8.84863C6.54243 9.46406 5.77599 10.3761 5.34037 11.4541C4.90477 12.5321 4.82212 13.7207 5.10404 14.8486C5.38605 15.9767 6.01898 16.9862 6.91068 17.7324C7.79673 18.4739 8.89344 18.9171 10.0454 19H10.9995V16.8281C10.9995 16.563 10.8941 16.3086 10.7066 16.1211L8.79252 14.207C8.40219 13.8165 8.40219 13.1835 8.79252 12.793C9.18299 12.4025 9.81604 12.4026 10.2066 12.793L12.1206 14.707L12.3199 14.9268C12.3709 14.9891 12.4197 15.0532 12.4654 15.1191L13.7925 13.793C14.183 13.4025 14.816 13.4026 15.2066 13.793C15.5971 14.1835 15.5971 14.8165 15.2066 15.207L12.9995 17.4141V19H13.7994C13.8112 19 13.8237 19.0006 13.8355 19.001C14.9516 19.0406 16.0492 18.7054 16.9527 18.0488C17.8562 17.3921 18.514 16.4509 18.8208 15.377C19.1275 14.3033 19.066 13.1577 18.646 12.123C18.2258 11.0882 17.4702 10.223 16.5015 9.66699C16.1912 9.48862 15.9995 9.15777 15.9995 8.7998V8C15.9995 6.93913 15.5778 5.92202 14.8277 5.17188C14.0775 4.42182 13.0603 4 11.9995 4Z" fill="#E4F2F2"/>
</svg>
