<svg width="24" height="24" viewBox="0 0 24 24" fill="none" xmlns="http://www.w3.org/2000/svg">
<path d="M17.293 13.293C17.6835 12.9024 18.3165 12.9024 18.707 13.293L22.707 17.293C22.8212 17.4071 22.9076 17.5487 22.9561 17.707C22.9623 17.7273 22.9668 17.748 22.9717 17.7685C22.9893 17.8429 23 17.9202 23 18C23 18.0823 22.9885 18.1618 22.9697 18.2383C22.9654 18.2559 22.9613 18.2736 22.9561 18.291C22.9247 18.3939 22.8771 18.4893 22.8164 18.5752C22.7839 18.6212 22.7482 18.6659 22.707 18.707L18.707 22.707C18.3165 23.0975 17.6835 23.0975 17.293 22.707C16.9025 22.3165 16.9025 21.6835 17.293 21.293L19.5859 19H15.9482C15.1292 18.9915 14.3246 18.7819 13.6055 18.3896C12.9042 18.0071 12.3065 17.461 11.8594 16.7998L11.5186 16.374C11.1743 15.9425 11.2446 15.3133 11.6758 14.9687C12.1073 14.6244 12.7365 14.6947 13.0811 15.126L13.4404 15.5762L13.4941 15.6504C13.7645 16.0608 14.1321 16.3984 14.5635 16.6338C14.9948 16.869 15.4774 16.9949 15.9688 17H19.5859L17.293 14.707C16.9025 14.3165 16.9025 13.6835 17.293 13.293Z" fill="#E4F2F2"/>
<path d="M17.293 1.29295C17.6835 0.90243 18.3165 0.90243 18.707 1.29295L22.707 5.29295C22.7548 5.34077 22.7976 5.39352 22.835 5.45018C22.8573 5.48396 22.8768 5.519 22.8945 5.55467C22.919 5.60371 22.9398 5.65478 22.9561 5.70799C22.9611 5.72442 22.9646 5.74118 22.9688 5.7578C22.9881 5.83542 23 5.91639 23 5.99999C23 6.07943 22.9892 6.15636 22.9717 6.23045C22.9669 6.25073 22.9621 6.271 22.9561 6.291C22.9421 6.33688 22.9244 6.38099 22.9043 6.42381C22.8833 6.46853 22.859 6.51185 22.8311 6.5537C22.7944 6.60862 22.7536 6.66049 22.707 6.70702L18.707 10.707C18.3165 11.0975 17.6835 11.0975 17.293 10.707C16.9025 10.3165 16.9025 9.68348 17.293 9.29295L19.5859 6.99999H16.0205C15.5357 6.99667 15.057 7.11099 14.626 7.33299C14.198 7.5535 13.8289 7.87368 13.5508 8.26659L8.11719 16.8359C8.10881 16.8491 8.0998 16.8622 8.09082 16.875C7.62618 17.5361 7.00837 18.0753 6.29004 18.4453C5.57361 18.8143 4.77847 19.0035 3.97266 18.999L2 19C1.44777 19 1.00009 18.5522 1 18C1.00005 17.4477 1.44775 17 2 17H3.97949C4.4643 17.0033 4.94302 16.889 5.37402 16.667C5.80005 16.4475 6.16667 16.1287 6.44434 15.7383L11.8828 7.16405L11.9092 7.12499C12.3738 6.46393 12.9917 5.92472 13.71 5.55467C14.4264 5.18565 15.2215 4.9965 16.0273 5.00096L19.5859 4.99999L17.293 2.70702C16.9025 2.3165 16.9025 1.68348 17.293 1.29295Z" fill="#E4F2F2"/>
<path d="M3.97168 5.00096C4.90121 4.99573 5.81418 5.24863 6.60742 5.73338C7.40239 6.21926 8.04557 6.91797 8.46484 7.74999C8.71316 8.24299 8.51524 8.8441 8.02246 9.09276C7.52936 9.34117 6.9273 9.14335 6.67871 8.65038C6.4272 8.15121 6.04135 7.73195 5.56445 7.44042C5.08738 7.14887 4.53761 6.99609 3.97852 6.99999H2C1.44777 6.99999 1.00009 6.55219 1 5.99999C1.00005 5.44775 1.44775 4.99999 2 4.99999L3.97168 5.00096Z" fill="#E4F2F2"/>
</svg>
