<svg width="24" height="24" viewBox="0 0 24 24" fill="none" xmlns="http://www.w3.org/2000/svg">
<path d="M17 3C17.5304 3 18.039 3.21093 18.4141 3.58594C18.7891 3.96101 19 4.46957 19 5V7C19 7.55228 18.5523 8 18 8C17.4478 7.99989 17 7.55222 17 7V5H7.50001L11.4004 10.2002C11.7897 10.7194 12 11.351 12 12C12 12.649 11.7897 13.2806 11.4004 13.7998L7.50001 19H17V17C17 16.4478 17.4478 16.0001 18 16C18.5523 16 19 16.4477 19 17V19C19 19.5304 18.7891 20.039 18.4141 20.4141C18.039 20.7891 17.5304 21 17 21H6.50001C6.22151 21 5.94786 20.9228 5.71095 20.7764C5.47412 20.6299 5.28274 20.4199 5.15821 20.1709C5.03367 19.9218 4.98086 19.6426 5.00587 19.3652L5.03907 19.1602C5.08607 18.9581 5.17447 18.7668 5.29982 18.5996L9.79982 12.5996C9.92956 12.4265 10 12.2163 10 12C10 11.7837 9.92956 11.5735 9.79982 11.4004L5.29982 5.40039C5.13273 5.17757 5.03089 4.91215 5.00587 4.63477C4.98086 4.35736 5.03367 4.07823 5.15821 3.8291L5.26368 3.65039C5.38117 3.47942 5.53324 3.33352 5.71095 3.22363L5.89552 3.12695C6.08524 3.04343 6.29122 3.00003 6.50001 3H17Z" fill="#E4F2F2"/>
</svg>
