<svg width="24" height="24" viewBox="0 0 24 24" fill="none" xmlns="http://www.w3.org/2000/svg">
<path fill-rule="evenodd" clip-rule="evenodd" d="M12.2969 1.01465C12.9835 1.08292 13.6289 1.38673 14.1211 1.87891C14.6837 2.44151 15 3.20437 15 4H20L20.0986 4.00488C20.3276 4.02759 20.5429 4.12884 20.707 4.29297L22.707 6.29297C23.0975 6.68348 23.0975 7.31652 22.707 7.70703L20.707 9.70703C20.5195 9.89455 20.2652 9.99998 20 10H15V21H16C16.5522 21 17 21.4477 17 22C17 22.5523 16.5522 23 16 23H7.99999C7.4477 23 6.99999 22.5523 6.99999 22C6.99999 21.4477 7.4477 21 7.99999 21H8.99999V10H3.99999C3.73479 10 3.48049 9.89454 3.29295 9.70703L1.29295 7.70703C0.90243 7.31651 0.90243 6.68349 1.29295 6.29297L3.29295 4.29297L3.3662 4.22656C3.54415 4.08075 3.76791 4 3.99999 4H8.99999C8.99999 3.20435 9.31628 2.44151 9.87889 1.87891C10.4415 1.31632 11.2044 1 12 1L12.2969 1.01465ZM12 3C11.7348 3 11.4805 3.10546 11.293 3.29297C11.1054 3.48051 11 3.73478 11 4V21H13V4C13 3.7348 12.8945 3.4805 12.707 3.29297C12.5429 3.12884 12.3276 3.02759 12.0986 3.00488L12 3ZM3.41405 7L4.41405 8H8.99999V6H4.41405L3.41405 7ZM15 8H19.5859L20.5859 7L19.5859 6H15V8Z" fill="#E4F2F2"/>
</svg>
