<svg width="24" height="24" viewBox="0 0 24 24" fill="none" xmlns="http://www.w3.org/2000/svg">
<path fill-rule="evenodd" clip-rule="evenodd" d="M12 2C12.5523 2 13 2.44772 13 3V5H18L18.29 5.01367C18.9602 5.07895 19.5922 5.36869 20.0811 5.83984L20.0801 5.84082L22.3877 8.05957C22.5813 8.24614 22.7357 8.47036 22.8408 8.71777C22.9459 8.96515 23 9.23121 23 9.5C23 9.76879 22.9459 10.0349 22.8408 10.2822C22.762 10.4677 22.6552 10.6398 22.5254 10.793L22.3877 10.9404L20.0801 13.1592C19.5912 13.6303 18.9602 13.921 18.29 13.9863L18 14H13V21C13 21.5523 12.5523 22 12 22C11.4477 22 11 21.5523 11 21V14H6C5.22397 13.9996 4.47769 13.6987 3.91895 13.1602L1.61328 10.9404C1.41972 10.7539 1.26532 10.5296 1.16016 10.2822C1.05504 10.0349 1.00098 9.76878 1.00098 9.5C1.00098 9.23122 1.05504 8.96515 1.16016 8.71777C1.26532 8.47036 1.41972 8.24614 1.61328 8.05957L3.91895 5.84082C4.4777 5.30227 5.22396 5.00037 6 5H11V3C11 2.44772 11.4477 2 12 2ZM6 7C5.77381 7.00022 5.55565 7.07741 5.37988 7.2168L5.30664 7.28027L3.00098 9.5L5.30664 11.7197C5.49278 11.8991 5.74149 11.9998 6 12H18L18.0957 11.9951C18.3192 11.9734 18.5303 11.8769 18.6934 11.7197L21 9.5L18.6934 7.28027C18.5303 7.12314 18.3192 7.02658 18.0957 7.00488L18 7H6Z" fill="#E4F2F2"/>
</svg>
