<svg width="24" height="24" viewBox="0 0 24 24" fill="none" xmlns="http://www.w3.org/2000/svg">
<path d="M21 20C21.5523 20 22 20.4477 22 21C21.9999 21.5522 21.5522 22 21 22H3C2.44779 22 2.00012 21.5522 2 21C2 20.4477 2.44772 20 3 20H21Z" fill="#E4F2F2"/>
<path fill-rule="evenodd" clip-rule="evenodd" d="M12.8428 1.06348C13.4013 0.956899 13.9777 0.98725 14.5215 1.15332C15.0652 1.31944 15.5602 1.61615 15.9639 2.0166C16.3675 2.41707 16.6675 2.90972 16.8379 3.45215C17.0083 3.99463 17.0436 4.57055 16.9414 5.12989C16.8392 5.6893 16.6023 6.21587 16.251 6.66309C15.8997 7.11021 15.445 7.46546 14.9258 7.69727C14.4215 7.92238 13.8296 7.69569 13.6045 7.19141C13.3795 6.68719 13.6062 6.09627 14.1104 5.8711C14.3329 5.77173 14.5282 5.6194 14.6787 5.42774C14.8292 5.23608 14.9308 5.01025 14.9746 4.77051C15.0184 4.53087 15.0027 4.28418 14.9297 4.05176C14.8567 3.81942 14.7285 3.60811 14.5557 3.43653C14.3826 3.26487 14.1696 3.1376 13.9365 3.06641C13.7036 2.99534 13.457 2.98174 13.2178 3.02735C12.9784 3.07305 12.753 3.17705 12.5625 3.3291C12.3722 3.48111 12.2216 3.67725 12.124 3.90039C12.0455 4.08041 11.9477 4.4155 11.832 4.93164C11.7201 5.43134 11.6048 6.03616 11.4766 6.72266C11.2226 8.08167 10.9228 9.73591 10.5195 11.3232C10.4925 11.4298 10.4628 11.5359 10.4346 11.6426C10.9325 11.7844 11.403 11.9504 11.8389 12.1397C13.5142 12.8673 15 14.113 15 16H17V15.5C16.999 15.209 17.083 14.9241 17.2412 14.6797L17.3037 14.5889C17.4586 14.3843 17.6641 14.2222 17.9004 14.1191C18.1367 14.0161 18.3951 13.9762 18.6504 14.002L18.7598 14.0176L18.8672 14.04C19.1013 14.0991 19.3174 14.2148 19.498 14.376L21.6553 16.2441C22.0723 16.6058 22.1172 17.237 21.7559 17.6543C21.3942 18.0717 20.7621 18.1175 20.3447 17.7559L18.9268 16.5264C18.8359 16.8589 18.6621 17.1661 18.4141 17.4141C18.039 17.7891 17.5304 18 17 18H15C14.4696 18 13.961 17.7891 13.5859 17.4141C13.2109 17.039 13.0001 16.5304 13 16C13 15.3421 12.4902 14.6023 11.043 13.9736C10.6818 13.8168 10.2815 13.677 9.84961 13.5557C9.56995 14.3393 9.24716 15.0775 8.86621 15.7139C8.14496 16.9186 7.0659 18 5.5 18C4.5718 18 3.68176 17.6309 3.02539 16.9746C2.36907 16.3183 2.00006 15.4282 2 14.5C2 13.5717 2.36901 12.6808 3.02539 12.0244C3.68173 11.3683 4.57192 11 5.5 11H5.50684C6.52294 11.0068 7.52586 11.081 8.47656 11.2246C8.51151 11.0944 8.54731 10.9629 8.58105 10.8301C8.9652 9.31813 9.25308 7.73434 9.51074 6.35547C9.63822 5.67329 9.75992 5.03402 9.88086 4.49414C9.99804 3.97107 10.1298 3.47091 10.292 3.09961C10.5197 2.57853 10.871 2.12042 11.3154 1.76563C11.7598 1.41091 12.2843 1.17011 12.8428 1.06348ZM5.49805 13C5.10093 13.0005 4.7203 13.1586 4.43945 13.4395C4.15822 13.7207 4 14.1022 4 14.5C4.00006 14.8977 4.1582 15.2793 4.43945 15.5605C4.72075 15.8418 5.10223 16 5.5 16C6.0106 16 6.56252 15.6685 7.15039 14.6865C7.4109 14.2514 7.64638 13.734 7.86426 13.1582C7.11706 13.0598 6.32118 13.0057 5.49805 13Z" fill="#E4F2F2"/>
</svg>
