<svg width="24" height="24" viewBox="0 0 24 24" fill="none" xmlns="http://www.w3.org/2000/svg">
<path fill-rule="evenodd" clip-rule="evenodd" d="M5.03809 2.99999C5.56882 3.00673 6.0888 3.15466 6.54395 3.42773L16.5439 9.42773C16.9883 9.69442 17.3561 10.0723 17.6113 10.5234C17.8665 10.9746 18.0004 11.4846 18 12.0029C17.9995 12.5213 17.8644 13.0307 17.6084 13.4814C17.3524 13.9322 16.9841 14.3092 16.5391 14.5752L16.5381 14.5742L6.54395 20.5723C6.08878 20.8454 5.56886 20.9933 5.03809 21C4.50724 21.0067 3.98347 20.8719 3.52148 20.6103C3.05974 20.3488 2.67548 19.9692 2.4082 19.5107C2.14095 19.0522 1.99999 18.5308 2 18V5.99999C2.00004 5.46924 2.14092 4.9478 2.4082 4.48925C2.67549 4.03081 3.05974 3.65117 3.52148 3.38964C3.98344 3.12811 4.50727 2.9933 5.03809 2.99999ZM5.0127 4.99999C4.83578 4.99776 4.66081 5.04272 4.50684 5.12988C4.35309 5.21702 4.22479 5.34343 4.13574 5.49609C4.04666 5.6489 4.00004 5.82311 4 5.99999V18C4 18.1769 4.04668 18.3511 4.13574 18.5039C4.22477 18.6566 4.35307 18.7829 4.50684 18.8701C4.66083 18.9573 4.83575 19.0022 5.0127 19C5.18962 18.9977 5.36293 18.9485 5.51465 18.8574L15.5117 12.8594L15.5127 12.8584C15.661 12.7697 15.7848 12.6444 15.8701 12.4941C15.9554 12.3439 15.9998 12.1737 16 12.001C16.0001 11.8282 15.9552 11.6582 15.8701 11.5078C15.785 11.3575 15.6628 11.2314 15.5146 11.1426L5.51465 5.14257C5.36295 5.05157 5.18958 5.00224 5.0127 4.99999Z" fill="#E4F2F2"/>
<path d="M21 2.99999C21.5522 2.99999 21.9999 3.44782 22 3.99999V20C22 20.5523 21.5523 21 21 21C20.4477 21 20 20.5523 20 20V3.99999C20.0001 3.44782 20.4478 2.99999 21 2.99999Z" fill="#E4F2F2"/>
</svg>
