<svg width="24" height="24" viewBox="0 0 24 24" fill="none" xmlns="http://www.w3.org/2000/svg">
<path d="M3 2.99999C3.55221 2.99999 3.99987 3.44781 4 3.99999V20C4 20.5523 3.55228 21 3 21C2.44772 21 2 20.5523 2 20V3.99999C2.00013 3.44781 2.44779 2.99999 3 2.99999Z" fill="#E4F2F2"/>
<path fill-rule="evenodd" clip-rule="evenodd" d="M18.9619 2.99999C19.4927 2.99333 20.0166 3.1281 20.4785 3.38964C20.9403 3.65119 21.3245 4.03074 21.5918 4.48925C21.8591 4.94782 22 5.4692 22 5.99999V18C22 18.5308 21.859 19.0522 21.5918 19.5107C21.3245 19.9692 20.9403 20.3488 20.4785 20.6103C20.0166 20.8719 19.4927 21.0067 18.9619 21C18.4313 20.9932 17.9121 20.8453 17.457 20.5723L7.46094 14.5742C7.01596 14.3083 6.64764 13.9322 6.3916 13.4814C6.13562 13.0307 6.00049 12.5213 6 12.0029C5.99958 11.4846 6.13353 10.9746 6.38867 10.5234C6.64399 10.0722 7.01242 9.69442 7.45703 9.42773L17.457 3.42773C17.912 3.15481 18.4314 3.00676 18.9619 2.99999ZM18.9873 4.99999C18.8105 5.00227 18.637 5.05166 18.4854 5.14257L8.48535 11.1426C8.33731 11.2314 8.21495 11.3576 8.12988 11.5078C8.04481 11.6582 7.99989 11.8282 8 12.001C8.00015 12.1738 8.04552 12.3439 8.13086 12.4941C8.19486 12.6067 8.2798 12.7054 8.38086 12.7851L8.4873 12.8584L8.48828 12.8594L18.4854 18.8574C18.637 18.9484 18.8105 18.9977 18.9873 19C19.1642 19.0022 19.3392 18.9573 19.4932 18.8701C19.6469 18.7829 19.7752 18.6566 19.8643 18.5039C19.9533 18.3511 20 18.1769 20 18V5.99999C20 5.8231 19.9533 5.6489 19.8643 5.49609C19.7752 5.3434 19.647 5.21702 19.4932 5.12987C19.3392 5.04272 19.1642 4.9978 18.9873 4.99999Z" fill="#E4F2F2"/>
</svg>
