<svg width="24" height="24" viewBox="0 0 24 24" fill="none" xmlns="http://www.w3.org/2000/svg">
<path fill-rule="evenodd" clip-rule="evenodd" d="M18 2C18.5523 2 19 2.44772 19 3V7C19 8.56182 19.371 9.99148 19.8779 10.9209C20.4803 12.0252 21.2317 13.4291 21.832 14.5547C22.1324 15.1178 22.3953 15.6123 22.583 15.9658C22.6767 16.1423 22.7521 16.2835 22.8037 16.3809C22.8295 16.4296 22.8498 16.4676 22.8633 16.4932C22.87 16.5059 22.8755 16.5159 22.8789 16.5225C22.8805 16.5255 22.882 16.5277 22.8828 16.5293L22.8838 16.5312C23.1088 16.9563 22.9982 17.4774 22.6318 17.7754L22.5547 17.832L22.5537 17.833L22.5508 17.834C22.5492 17.8351 22.5474 17.8372 22.5449 17.8389C22.5399 17.8422 22.5328 17.8461 22.5244 17.8516C22.5074 17.8626 22.4836 17.8781 22.4531 17.8975C22.392 17.9362 22.3041 17.991 22.1914 18.0586C21.9656 18.1941 21.6391 18.3826 21.2266 18.5986C20.6313 18.9104 19.8523 19.2823 18.9336 19.6426C19.0225 19.875 19.022 20.1335 18.9297 20.3672C18.8253 20.6313 18.6139 20.8388 18.3477 20.9375L18.3467 20.9385L18.334 20.9424C18.3268 20.945 18.316 20.9487 18.3037 20.9531C18.2791 20.9619 18.2444 20.9742 18.2002 20.9893C18.1111 21.0196 17.9827 21.0623 17.8203 21.1123C17.4958 21.2121 17.0318 21.3436 16.4619 21.4746C15.3248 21.736 13.7465 22 12 22C10.2535 22 8.67516 21.736 7.53809 21.4746C6.96815 21.3436 6.50421 21.2121 6.17969 21.1123C6.0173 21.0623 5.88888 21.0196 5.79981 20.9893C5.75561 20.9742 5.72093 20.9619 5.69629 20.9531C5.68396 20.9487 5.67322 20.945 5.66602 20.9424L5.6543 20.9385L5.65332 20.9375C5.38708 20.8387 5.17466 20.6313 5.07032 20.3672C4.97807 20.1336 4.97665 19.8749 5.06543 19.6426C4.14711 19.2824 3.36852 18.9103 2.77344 18.5986C2.36093 18.3826 2.03435 18.194 1.8086 18.0586C1.69592 17.991 1.60795 17.9362 1.54688 17.8975C1.51639 17.8781 1.49256 17.8626 1.47559 17.8516C1.46719 17.8461 1.46009 17.8422 1.45508 17.8389C1.45261 17.8372 1.45084 17.8351 1.44922 17.834L1.44629 17.833L1.44532 17.832C1.01839 17.5474 0.876193 16.9857 1.11622 16.5322L1.11719 16.5293C1.11803 16.5277 1.1195 16.5255 1.1211 16.5225C1.12455 16.5159 1.12999 16.5059 1.13672 16.4932C1.15024 16.4676 1.17047 16.4296 1.19629 16.3809C1.24792 16.2835 1.32331 16.1423 1.417 15.9658C1.6047 15.6123 1.86765 15.1178 2.16797 14.5547C2.76826 13.4291 3.51973 12.0252 4.12207 10.9209C4.62898 9.99148 5 8.56183 5 7V3C5 2.44774 5.44775 2.00004 6 2H18ZM6.95801 8C6.83421 9.46947 6.44411 10.8409 5.87793 11.8789C5.28037 12.9744 4.53227 14.3708 3.93262 15.4951C3.70516 15.9216 3.49897 16.309 3.33106 16.625C3.44379 16.6873 3.56654 16.7566 3.70118 16.8271C4.27877 17.1297 5.0485 17.4954 5.95899 17.8438L7.10547 15.5527C7.35245 15.0588 7.9533 14.8585 8.44727 15.1055C8.94125 15.3525 9.14153 15.9533 8.89454 16.4473L7.48438 19.2637C7.4772 19.3065 7.46714 19.349 7.45411 19.3916C7.61683 19.4343 7.79431 19.4812 7.98633 19.5254C9.02423 19.764 10.4465 20 12 20C13.5535 20 14.9758 19.764 16.0137 19.5254C16.2053 19.4813 16.3825 19.4342 16.5449 19.3916C16.5324 19.3507 16.5227 19.3097 16.5156 19.2686L15.1055 16.4473C14.8585 15.9533 15.0588 15.3525 15.5527 15.1055C16.0467 14.8585 16.6475 15.0588 16.8945 15.5527L18.04 17.8438C18.9509 17.4953 19.721 17.1298 20.2988 16.8271C20.4332 16.7568 20.5554 16.6872 20.668 16.625C20.5001 16.3091 20.2948 15.9214 20.0674 15.4951C19.4677 14.3708 18.7196 12.9744 18.1221 11.8789C17.5559 10.8409 17.1658 9.46946 17.042 8H6.95801ZM7 6H17V4H7V6Z" fill="#E4F2F2"/>
</svg>
