<svg width="24" height="24" viewBox="0 0 24 24" fill="none" xmlns="http://www.w3.org/2000/svg">
<path d="M9.05567 1.67047C9.23807 1.14932 9.80891 0.874035 10.3301 1.05621C10.8511 1.23871 11.1265 1.80953 10.9443 2.33062L7.55957 11.9996L10.9443 21.6705C11.1262 22.1915 10.8511 22.7625 10.3301 22.9449C9.80905 23.127 9.23823 22.8515 9.05567 22.3306L6.5 15.0279L4.80078 19.8804L5.31641 20.0523C5.84 20.2272 6.12283 20.7932 5.94824 21.3169C5.77338 21.8404 5.20725 22.1232 4.68359 21.9488L4.14063 21.7671L3.94434 22.3306C3.76183 22.8515 3.19091 23.1268 2.66992 22.9449C2.14889 22.7625 1.87373 22.1915 2.05566 21.6705L2.24219 21.1343L1.68359 20.9488C1.15995 20.7741 0.877385 20.2079 1.05176 19.6841C1.22652 19.1604 1.79256 18.8777 2.31641 19.0523L2.90332 19.2476L5.43945 12.0005L2.90332 4.7525L2.31641 4.94879C1.79271 5.12335 1.22669 4.84043 1.05176 4.31695C0.877144 3.79311 1.15984 3.22707 1.68359 3.0523L2.24219 2.86578L2.05566 2.33062C1.87349 1.80945 2.14878 1.23862 2.66992 1.05621C3.1911 0.874035 3.76193 1.14932 3.94434 1.67047L4.14063 2.23297L4.68359 2.0523C5.20744 1.87769 5.77348 2.16038 5.94824 2.68414C6.12256 3.20786 5.84002 3.77407 5.31641 3.94879L4.80176 4.11968L6.5 8.97125L9.05567 1.67047Z" fill="#E4F2F2"/>
<path fill-rule="evenodd" clip-rule="evenodd" d="M19.4043 1.19683C19.7825 0.916025 20.3124 0.936484 20.6689 1.25738L20.6738 1.26226C20.6759 1.26411 20.6788 1.26647 20.6816 1.2691C20.6878 1.27478 20.6964 1.28247 20.7061 1.29156C20.7257 1.31 20.7525 1.33581 20.7852 1.36773C20.8507 1.43184 20.9407 1.5232 21.0469 1.63824C21.2587 1.86772 21.5408 2.19841 21.8232 2.60797C22.3748 3.40785 23 4.60934 23 6.00054V22.0005C22.9998 22.5526 22.5521 23.0005 22 23.0005H14C13.4479 23.0005 13.0002 22.5526 13 22.0005V6.00054C13 4.60927 13.6252 3.40785 14.1768 2.60797C14.4593 2.19833 14.7413 1.86773 14.9531 1.63824C15.0594 1.52312 15.1493 1.43184 15.2148 1.36773C15.2475 1.33573 15.2743 1.31001 15.2939 1.29156C15.3037 1.2824 15.3122 1.27479 15.3184 1.2691C15.3213 1.26641 15.3241 1.26415 15.3262 1.26226L15.3311 1.25738L15.4043 1.19683C15.7825 0.916025 16.3124 0.936484 16.6689 1.25738L16.6738 1.26226C16.6759 1.26411 16.6788 1.26647 16.6816 1.2691C16.6878 1.27478 16.6964 1.28247 16.7061 1.29156C16.7257 1.31 16.7525 1.33581 16.7852 1.36773C16.8507 1.43184 16.9407 1.5232 17.0469 1.63824C17.2587 1.86772 17.5408 2.19841 17.8232 2.60797C17.8817 2.6928 17.9407 2.78291 18 2.87652C18.0593 2.78286 18.1182 2.69284 18.1768 2.60797C18.4593 2.19833 18.7413 1.86773 18.9531 1.63824C19.0594 1.52312 19.1493 1.43184 19.2148 1.36773C19.2475 1.33573 19.2743 1.31001 19.2939 1.29156C19.3037 1.2824 19.3122 1.27479 19.3184 1.2691C19.3213 1.26641 19.3241 1.26415 19.3262 1.26226L19.3311 1.25738L19.4043 1.19683ZM19.8232 3.74371C19.375 4.39373 19 5.19223 19 6.00054V21.0005H21V6.00054C21 5.19228 20.6249 4.39371 20.1768 3.74371C20.1175 3.65784 20.0582 3.57535 20 3.49859C19.9417 3.57539 19.8825 3.65779 19.8232 3.74371ZM15.8232 3.74371C15.375 4.39373 15 5.19223 15 6.00054V21.0005H17V6.00054C17 5.19228 16.6249 4.39371 16.1768 3.74371C16.1175 3.65784 16.0582 3.57535 16 3.49859C15.9417 3.57539 15.8825 3.65779 15.8232 3.74371Z" fill="#E4F2F2"/>
</svg>
