<svg width="24" height="24" viewBox="0 0 24 24" fill="none" xmlns="http://www.w3.org/2000/svg">
<path d="M12.0005 15C12.3791 15.0001 12.7257 15.214 12.895 15.5527L13.395 16.5527C13.5499 16.8626 13.5331 17.2307 13.3511 17.5254C13.1689 17.8201 12.847 17.9999 12.5005 18H11.5005C11.154 18 10.8321 17.8201 10.6499 17.5254C10.4678 17.2306 10.451 16.8626 10.606 16.5527L11.106 15.5527L11.1772 15.4316C11.3622 15.1638 11.6691 15 12.0005 15Z" fill="#E4F2F2"/>
<path d="M9.00048 10C10.1049 10.0001 11.0005 10.8955 11.0005 12C11.0005 13.1045 10.1049 13.9999 9.00048 14C7.89591 14 7.00048 13.1046 7.00048 12C7.00048 10.8954 7.89591 10 9.00048 10Z" fill="#E4F2F2"/>
<path d="M15.0005 10C16.1049 10.0001 17.0005 10.8955 17.0005 12C17.0005 13.1045 16.1049 13.9999 15.0005 14C13.8959 14 13.0005 13.1046 13.0005 12C13.0005 10.8954 13.8959 10 15.0005 10Z" fill="#E4F2F2"/>
<path fill-rule="evenodd" clip-rule="evenodd" d="M12.0005 1.99805C13.7934 1.9981 15.5462 2.5337 17.0327 3.53613C18.5191 4.5386 19.6722 5.96287 20.3442 7.625C21.0161 9.28719 21.1763 11.1124 20.8042 12.8662C20.486 14.3655 19.7899 15.7533 18.7895 16.9033C18.8845 17.145 18.9502 17.3987 18.98 17.6592C19.0441 18.2204 18.948 18.7886 18.7036 19.2979C18.4591 19.8071 18.0761 20.238 17.5981 20.5391C17.4096 20.6578 17.2085 20.7535 17.0005 20.8271V21C17.0004 21.5303 16.7895 22.039 16.4145 22.4141C16.0395 22.7891 15.5308 22.9999 15.0005 23H9.00048C8.47015 23 7.96147 22.789 7.58642 22.4141C7.21142 22.039 7.00052 21.5304 7.00048 21V20.8271C6.79248 20.7535 6.59133 20.6577 6.40283 20.5391C5.92482 20.238 5.54185 19.8071 5.29736 19.2979C5.05297 18.7886 4.95686 18.2204 5.02099 17.6592C5.05078 17.3987 5.1155 17.145 5.21044 16.9033C4.21033 15.7534 3.51492 14.3653 3.19677 12.8662C2.82462 11.1123 2.98476 9.28724 3.65673 7.625C4.32877 5.96278 5.48176 4.53861 6.96826 3.53613C8.45485 2.53371 10.2075 1.99805 12.0005 1.99805ZM12.0005 3.99805C10.6059 3.99805 9.24265 4.41469 8.08642 5.19434C6.9304 5.97397 6.03393 7.08136 5.51122 8.37402C4.9885 9.66694 4.86336 11.087 5.15283 12.4512C5.44233 13.8152 6.13263 15.0621 7.13525 16.0312C7.50615 16.39 7.5436 16.9721 7.22119 17.375C7.10347 17.522 7.02968 17.6996 7.0083 17.8867C6.98697 18.0737 7.01871 18.263 7.10009 18.4326C7.1816 18.6023 7.30991 18.7464 7.46923 18.8467C7.62847 18.9468 7.81337 18.9999 8.00146 19C8.55317 19.0007 9.00042 19.4482 9.00048 20V21H15.0005V20C15.0005 19.4481 15.4477 19.0005 15.9995 19C16.1876 18.9998 16.3725 18.9468 16.5317 18.8467C16.6911 18.7463 16.8194 18.6024 16.9009 18.4326C16.9822 18.263 17.014 18.0737 16.9927 17.8867C16.9713 17.6997 16.8974 17.522 16.7798 17.375C16.4573 16.972 16.4946 16.39 16.8657 16.0312C17.8683 15.0621 18.5587 13.8152 18.8481 12.4512C19.1376 11.087 19.0124 9.66689 18.4897 8.37402C17.9671 7.08145 17.0704 5.97396 15.9145 5.19434C14.7584 4.41468 13.395 3.9981 12.0005 3.99805Z" fill="#E4F2F2"/>
</svg>
