<svg width="24" height="24" viewBox="0 0 24 24" fill="none" xmlns="http://www.w3.org/2000/svg">
<path fill-rule="evenodd" clip-rule="evenodd" d="M9.5 13C10.8807 13 12 14.1193 12 15.5V20.5C12 21.8807 10.8807 23 9.5 23C8.11931 23 7 21.8807 7 20.5V15.5C7.00002 14.1193 8.11932 13 9.5 13ZM9.5 15C9.22389 15 9.00002 15.2239 9 15.5V20.5C9 20.7761 9.22388 21 9.5 21C9.77614 21 10 20.7761 10 20.5V15.5C9.99998 15.2239 9.77613 15 9.5 15Z" fill="#E4F2F2"/>
<path fill-rule="evenodd" clip-rule="evenodd" d="M15.5 18C15.9943 18 16.4776 18.1464 16.8887 18.4209C17.2997 18.6955 17.6203 19.0863 17.8096 19.543C17.9987 19.9996 18.0485 20.5025 17.9522 20.9873C17.8557 21.4723 17.6172 21.918 17.2676 22.2676C16.918 22.6172 16.4723 22.8557 15.9873 22.9522C15.5025 23.0485 14.9996 22.9987 14.543 22.8096C14.0863 22.6203 13.6955 22.2997 13.4209 21.8887C13.1807 21.529 13.0386 21.1139 13.0068 20.6846L13 20.5V19C13 18.4478 13.4478 18 14 18H15.5ZM15 20.5C15 20.5987 15.0293 20.6952 15.084 20.7773C15.1389 20.8595 15.2173 20.9241 15.3086 20.9619C15.4 20.9998 15.5007 21.0095 15.5977 20.9902C15.6946 20.9709 15.7836 20.9234 15.8535 20.8535C15.9234 20.7836 15.9709 20.6946 15.9902 20.5977C16.0095 20.5007 15.9998 20.4 15.9619 20.3086C15.9241 20.2173 15.8595 20.1389 15.7773 20.084C15.6952 20.0293 15.5987 20 15.5 20H15V20.5Z" fill="#E4F2F2"/>
<path fill-rule="evenodd" clip-rule="evenodd" d="M5 13C5.55227 13 5.99998 13.4477 6 14V15.5C6 15.9943 5.85364 16.4776 5.5791 16.8887C5.30446 17.2997 4.91371 17.6203 4.45703 17.8096C4.00036 17.9987 3.49751 18.0485 3.0127 17.9522C2.52776 17.8557 2.08204 17.6172 1.73242 17.2676C1.38282 16.918 1.14431 16.4722 1.04785 15.9873C0.951522 15.5025 1.00128 14.9996 1.19043 14.543C1.37967 14.0863 1.70031 13.6955 2.11133 13.4209C2.52236 13.1464 3.00571 13 3.5 13H5ZM3.5 15C3.4013 15 3.30478 15.0292 3.22266 15.084C3.14046 15.1389 3.07594 15.2173 3.03809 15.3086C3.00025 15.3999 2.99049 15.5007 3.00977 15.5977C3.02907 15.6946 3.07661 15.7836 3.14649 15.8535C3.21637 15.9234 3.30543 15.9709 3.40235 15.9902C3.49933 16.0095 3.60005 15.9998 3.69141 15.9619C3.78275 15.9241 3.86109 15.8596 3.91602 15.7773C3.97077 15.6952 4 15.5987 4 15.5V15H3.5Z" fill="#E4F2F2"/>
<path fill-rule="evenodd" clip-rule="evenodd" d="M20.5 12C21.8807 12 23 13.1193 23 14.5C23 15.8807 21.8807 17 20.5 17H15.5C14.1193 17 13 15.8807 13 14.5C13 13.1193 14.1193 12 15.5 12H20.5ZM15.5 14C15.2239 14 15 14.2239 15 14.5C15 14.7761 15.2239 15 15.5 15H20.5C20.7761 15 21 14.7761 21 14.5C21 14.2239 20.7761 14 20.5 14H15.5Z" fill="#E4F2F2"/>
<path fill-rule="evenodd" clip-rule="evenodd" d="M8.5 7C9.8807 7 11 8.11931 11 9.5C11 10.8807 9.88071 12 8.5 12H3.5C2.11931 12 1 10.8807 1 9.5C1.00002 8.11932 2.11932 7.00003 3.5 7H8.5ZM3.5 9C3.22389 9.00003 3.00002 9.22389 3 9.5C3 9.77613 3.22388 9.99998 3.5 10H8.5C8.77615 10 9 9.77615 9 9.5C8.99998 9.22388 8.77613 9 8.5 9H3.5Z" fill="#E4F2F2"/>
<path fill-rule="evenodd" clip-rule="evenodd" d="M14.5 1C15.8807 1 17 2.11931 17 3.5V8.5C17 9.88072 15.8807 11 14.5 11C13.1193 11 12 9.8807 12 8.5V3.5C12 2.11932 13.1193 1.00003 14.5 1ZM14.5 3C14.2239 3.00003 14 3.22389 14 3.5V8.5C14 8.77613 14.2239 8.99998 14.5 9C14.7761 9 15 8.77615 15 8.5V3.5C15 3.22388 14.7761 3 14.5 3Z" fill="#E4F2F2"/>
<path fill-rule="evenodd" clip-rule="evenodd" d="M19.543 6.19043C19.9996 6.00128 20.5025 5.95152 20.9873 6.04786C21.4722 6.14432 21.918 6.38282 22.2676 6.73243C22.6172 7.08205 22.8557 7.52776 22.9522 8.0127C23.0485 8.49751 22.9987 9.00037 22.8096 9.45704C22.6203 9.91371 22.2997 10.3045 21.8887 10.5791C21.4776 10.8536 20.9943 11 20.5 11H19C18.4477 11 18 10.5523 18 10V8.5C18 8.00571 18.1464 7.52236 18.4209 7.11133C18.6955 6.70032 19.0863 6.37967 19.543 6.19043ZM20.5977 8.00977C20.5007 7.99049 20.3999 8.00025 20.3086 8.03809C20.2173 8.07594 20.1389 8.14047 20.084 8.22266C20.0292 8.30478 20 8.4013 20 8.5V9H20.5C20.5987 9 20.6952 8.97077 20.7773 8.91602C20.8596 8.86109 20.9241 8.78275 20.9619 8.69141C20.9998 8.60005 21.0095 8.49933 20.9902 8.40235C20.9709 8.30543 20.9234 8.21637 20.8535 8.14649C20.7836 8.07662 20.6946 8.02908 20.5977 8.00977Z" fill="#E4F2F2"/>
<path fill-rule="evenodd" clip-rule="evenodd" d="M8.0127 1.04786C8.4975 0.951514 9.00037 1.00129 9.45703 1.19043C9.91369 1.37966 10.3045 1.70033 10.5791 2.11133C10.8536 2.52236 11 3.00572 11 3.5V5C11 5.55229 10.5523 6 10 6H8.5C8.00571 6 7.52236 5.85364 7.11133 5.57911C6.70033 5.30447 6.37966 4.9137 6.19043 4.45704C6.00129 4.00037 5.95151 3.4975 6.04785 3.0127C6.14432 2.52776 6.3828 2.08205 6.73242 1.73243C7.08205 1.3828 7.52776 1.14432 8.0127 1.04786ZM8.40235 3.00977C8.30542 3.02908 8.21637 3.0766 8.14649 3.14649C8.0766 3.21637 8.02908 3.30542 8.00977 3.40235C7.99048 3.49932 8.00026 3.60006 8.03809 3.69141C8.07593 3.78273 8.14048 3.86109 8.22266 3.91602C8.30478 3.97077 8.4013 4 8.5 4H9V3.5C9 3.4013 8.97076 3.30478 8.91602 3.22266C8.86109 3.14048 8.78273 3.07593 8.69141 3.03809C8.60006 3.00026 8.49932 2.99048 8.40235 3.00977Z" fill="#E4F2F2"/>
</svg>
