<svg width="24" height="24" viewBox="0 0 24 24" fill="none" xmlns="http://www.w3.org/2000/svg">
<path fill-rule="evenodd" clip-rule="evenodd" d="M19.8701 2.00879C20.6979 2.00883 21.4918 2.33756 22.0772 2.92285C22.6624 3.50815 22.9912 4.30218 22.9912 5.12988C22.9912 5.95759 22.6624 6.75159 22.0772 7.33691L12.4141 17C12.2898 17.1242 12.1496 17.2289 12 17.3154V19C12 19.5304 11.7891 20.039 11.4141 20.4141C11.039 20.7891 10.5304 21 10 21H2C1.59559 21 1.23099 20.7564 1.07617 20.3828C0.921398 20.0092 1.007 19.579 1.29297 19.293L17.6631 2.92285C18.2484 2.3376 19.0424 2.00879 19.8701 2.00879ZM4.41406 19H10V17.3154C9.90672 17.2615 9.81644 17.2017 9.73242 17.1328L9.58594 17L8 15.4141L4.41406 19ZM19.8701 4.00879C19.5728 4.00879 19.2874 4.12673 19.0772 4.33691L9.41406 14L11 15.5859L20.6631 5.92285C20.8732 5.71261 20.9912 5.42716 20.9912 5.12988C20.9912 4.83261 20.8733 4.54714 20.6631 4.33691C20.4528 4.1267 20.1674 4.00883 19.8701 4.00879Z" fill="#E4F2F2"/>
</svg>
