<svg width="24" height="24" viewBox="0 0 24 24" fill="none" xmlns="http://www.w3.org/2000/svg">
<path fill-rule="evenodd" clip-rule="evenodd" d="M20 4C20.7957 4 21.5585 4.3163 22.1211 4.87891C22.6837 5.44151 23 6.20435 23 7V11C23 11.7957 22.6837 12.5585 22.1211 13.1211C21.5585 13.6837 20.7957 14 20 14H18V17.2998C18 18.8862 16.5078 20 15 20H9C7.53315 20 6 19.0209 6 17.2998V14H4C3.20435 14 2.44151 13.6837 1.87891 13.1211C1.3163 12.5585 1 11.7956 1 11V7C1 6.20435 1.3163 5.44152 1.87891 4.87891C2.44152 4.3163 3.20435 4 4 4H20ZM12 18H15C15.6922 18 16 17.5134 16 17.2998V10H12V18ZM8 17.2998C8 17.476 8.07112 17.6278 8.22461 17.7549C8.38858 17.8906 8.65655 18 9 18H10V10H8V17.2998ZM4 6C3.73478 6 3.4805 6.10543 3.29297 6.29297C3.10543 6.4805 3 6.73478 3 7V11L3.00488 11.0986C3.02757 11.3276 3.12883 11.5429 3.29297 11.707C3.48051 11.8946 3.73478 12 4 12H6V10C5.44772 10 5 9.55228 5 9C5 8.44772 5.44772 8 6 8H18C18.5523 8 19 8.44772 19 9C19 9.55228 18.5523 10 18 10V12H20C20.2652 12 20.5195 11.8946 20.707 11.707C20.8946 11.5195 21 11.2652 21 11V7C21 6.73478 20.8946 6.48051 20.707 6.29297C20.5195 6.10543 20.2652 6 20 6H4Z" fill="#E4F2F2"/>
</svg>
