<svg width="24" height="24" viewBox="0 0 24 24" fill="none" xmlns="http://www.w3.org/2000/svg">
<path fill-rule="evenodd" clip-rule="evenodd" d="M12 12.5C12.8284 12.5 13.5 13.1716 13.5 14C13.5 14.8284 12.8284 15.5 12 15.5C11.1716 15.5 10.5 14.8284 10.5 14C10.5 13.1716 11.1716 12.5 12 12.5ZM12 13.5C11.7239 13.5 11.5 13.7239 11.5 14C11.5 14.2761 11.7239 14.5 12 14.5C12.2761 14.5 12.5 14.2761 12.5 14C12.5 13.7239 12.2761 13.5 12 13.5Z" fill="#E4F2F2"/>
<path fill-rule="evenodd" clip-rule="evenodd" d="M20 4C20.7957 4 21.5585 4.3163 22.1211 4.87891C22.6837 5.44151 23 6.20435 23 7V11C23 11.7957 22.6837 12.5585 22.1211 13.1211C21.5585 13.6837 20.7957 14 20 14H19.0684C19.0776 14.7056 18.9819 15.4132 18.7793 16.0986C18.3469 17.5613 17.4533 18.8448 16.2314 19.7578C15.0096 20.6707 13.5252 21.165 12 21.165C10.4747 21.165 8.98945 20.6708 7.76758 19.7578C6.54594 18.8448 5.65204 17.5612 5.21973 16.0986C5.01714 15.4132 4.92312 14.7056 4.93262 14H4C3.20435 14 2.44151 13.6837 1.87891 13.1211C1.3163 12.5585 1 11.7956 1 11V7C1 6.20435 1.3163 5.44152 1.87891 4.87891C2.44152 4.3163 3.20435 4 4 4H20ZM9.01172 10C8.20763 10.5869 7.59093 11.3985 7.24414 12.3359C6.86488 13.3616 6.82784 14.4826 7.1377 15.5312C7.44773 16.5802 8.08867 17.5015 8.96484 18.1562C9.84104 18.8109 10.9062 19.165 12 19.165C13.0936 19.165 14.1581 18.8107 15.0342 18.1562C15.9104 17.5015 16.5513 16.5802 16.8613 15.5312C17.1713 14.4824 17.1342 13.3617 16.7549 12.3359C16.4081 11.3986 15.7922 10.5869 14.9883 10H9.01172ZM4 6C3.73478 6 3.4805 6.10543 3.29297 6.29297C3.10543 6.4805 3 6.73478 3 7V11L3.00488 11.0986C3.02757 11.3276 3.12883 11.5429 3.29297 11.707C3.48051 11.8946 3.73478 12 4 12H5.24902C5.2863 11.8799 5.32533 11.76 5.36914 11.6416C5.58628 11.0547 5.88023 10.5037 6.23828 10H6C5.44772 10 5 9.55228 5 9C5 8.44772 5.44772 8 6 8H18C18.5523 8 19 8.44772 19 9C19 9.55228 18.5523 10 18 10H17.7627C18.1207 10.5037 18.4138 11.0548 18.6309 11.6416C18.6747 11.7601 18.7147 11.8798 18.752 12H20C20.2652 12 20.5195 11.8946 20.707 11.707C20.8946 11.5195 21 11.2652 21 11V7C21 6.73478 20.8946 6.48051 20.707 6.29297C20.5195 6.10543 20.2652 6 20 6H4Z" fill="#E4F2F2"/>
</svg>
