<svg width="24" height="24" viewBox="0 0 24 24" fill="none" xmlns="http://www.w3.org/2000/svg">
<path d="M19.4131 3.23242C19.8923 2.95805 20.5038 3.12437 20.7783 3.60351C22.2423 6.15915 23.0128 9.05376 23.0146 11.999C23.0164 14.9442 22.2489 17.8391 20.7881 20.3965C20.5141 20.8757 19.9033 21.0422 19.4238 20.7685C18.9446 20.4945 18.7781 19.8837 19.0518 19.4043C20.3398 17.1493 21.0162 14.5969 21.0146 12C21.013 9.40302 20.3329 6.85106 19.042 4.59765C18.7676 4.11848 18.934 3.50692 19.4131 3.23242Z" fill="#E4F2F2"/>
<path fill-rule="evenodd" clip-rule="evenodd" d="M8 4.99999C9.10449 4.99999 9.99987 5.89553 10 6.99999V17C10 18.1046 9.10457 19 8 19H3C1.89543 19 1 18.1046 1 17V6.99999C1.00013 5.89553 1.89551 4.99999 3 4.99999H8ZM3 17H8V6.99999H3V17Z" fill="#E4F2F2"/>
<path d="M15.9678 5.33984C16.4484 5.06804 17.0581 5.23726 17.3301 5.71777C18.414 7.63406 18.9843 9.79837 18.9844 12C18.9844 14.2016 18.414 16.3659 17.3301 18.2822C17.0582 18.7629 16.4485 18.932 15.9678 18.6601C15.4872 18.3882 15.318 17.7785 15.5898 17.2978C16.5039 15.6819 16.9844 13.8565 16.9844 12C16.9843 10.1435 16.5039 8.31806 15.5898 6.70214C15.3181 6.22147 15.4871 5.61171 15.9678 5.33984Z" fill="#E4F2F2"/>
<path d="M12.5049 7.45117C12.9846 7.17787 13.5957 7.34551 13.8691 7.82519C14.5942 9.09705 14.9755 10.536 14.9756 12C14.9756 13.4642 14.5943 14.9038 13.8691 16.1758C13.5956 16.6555 12.9846 16.8223 12.5049 16.5488C12.0251 16.2753 11.8574 15.6643 12.1309 15.1846C12.684 14.2144 12.9756 13.1168 12.9756 12C12.9755 10.8833 12.684 9.78557 12.1309 8.81542C11.8576 8.33569 12.0252 7.72466 12.5049 7.45117Z" fill="#E4F2F2"/>
</svg>
