<svg width="24" height="24" viewBox="0 0 24 24" fill="none" xmlns="http://www.w3.org/2000/svg">
<path d="M6.71876 2.30077C8.66617 1.23496 10.8907 0.782964 13.0996 1.00487C13.649 1.06015 14.0503 1.55113 13.9951 2.10058C13.9398 2.64993 13.4488 3.05026 12.8994 2.99511C11.0922 2.8136 9.272 3.18365 7.67872 4.05566C6.08545 4.92778 4.7928 6.26167 3.97169 7.88183C3.15063 9.50206 2.8393 11.3332 3.07813 13.1338C3.31701 14.9345 4.09541 16.6205 5.31055 17.9707C6.52573 19.3209 8.12102 20.2717 9.88672 20.6982C11.6524 21.1248 13.5056 21.0069 15.2031 20.3603C16.9006 19.7138 18.3629 18.5692 19.3975 17.0762C20.4311 15.5844 20.99 13.8148 21 12V11C21.0002 10.4479 21.4478 9.99999 22 9.99999C22.5521 10.0001 22.9998 10.448 23 11V12.0049C22.9889 14.2248 22.3062 16.3901 21.042 18.2148C19.7775 20.0397 17.9898 21.4393 15.915 22.2295C13.8403 23.0197 11.5751 23.1639 9.417 22.6426C7.25895 22.1212 5.30943 20.9588 3.82422 19.3086C2.339 17.6583 1.38764 15.5974 1.09571 13.3965C0.803812 11.1956 1.18486 8.95786 2.18848 6.97753C3.19213 4.99728 4.7713 3.36666 6.71876 2.30077Z" fill="#E4F2F2"/>
<path d="M7.4004 13.2002C7.84205 12.8694 8.4675 12.9591 8.79883 13.4004L8.79981 13.3994L8.80176 13.4014C8.8077 13.4089 8.81848 13.4237 8.83497 13.4434C8.86805 13.4828 8.92212 13.5439 8.99512 13.6201C9.1424 13.7738 9.36386 13.983 9.6504 14.1914C10.2275 14.6111 11.0255 15 12 15C12.9744 14.9999 13.7726 14.611 14.3496 14.1914C14.636 13.9831 14.8577 13.7737 15.0049 13.6201C15.0778 13.544 15.132 13.4827 15.165 13.4434C15.1814 13.4238 15.1923 13.4088 15.1982 13.4014L15.2012 13.3975L15.2002 13.4004C15.5316 12.9589 16.1579 12.8691 16.5996 13.2002C17.0413 13.5314 17.1307 14.1578 16.7998 14.5996L16 14C16.7607 14.5705 16.7982 14.5979 16.7998 14.5996L16.7979 14.6025C16.7971 14.6035 16.7959 14.6052 16.7949 14.6064C16.793 14.609 16.7907 14.6127 16.7881 14.6162C16.7826 14.6233 16.7751 14.6329 16.7666 14.6435C16.7494 14.6652 16.7254 14.6938 16.6963 14.7285C16.6377 14.7983 16.5546 14.8939 16.4482 15.0049C16.2362 15.2261 15.9259 15.5173 15.5254 15.8086C14.7275 16.3889 13.5254 16.9999 12 17C10.4745 17 9.27255 16.3889 8.47462 15.8086C8.07398 15.5172 7.76382 15.2261 7.55176 15.0049C7.44535 14.8938 7.36235 14.7984 7.30372 14.7285C7.27451 14.6937 7.25061 14.6653 7.2334 14.6435C7.22486 14.6328 7.21746 14.6234 7.21192 14.6162C7.2092 14.6127 7.20707 14.6091 7.20508 14.6064C7.2041 14.6051 7.20294 14.6036 7.20215 14.6025L7.2002 14.6006C7.20424 14.5971 7.26052 14.5546 8.00001 14L7.2002 14.6006C6.86909 14.1588 6.95867 13.5315 7.4004 13.2002Z" fill="#E4F2F2"/>
<path d="M9.00977 7.99999C9.56182 8.00012 10.0096 8.44796 10.0098 8.99999C10.0098 9.5522 9.56195 9.99987 9.00977 9.99999H9.00001C8.44772 9.99999 8.00001 9.55228 8.00001 8.99999C8.00021 8.44789 8.44785 7.99999 9.00001 7.99999H9.00977Z" fill="#E4F2F2"/>
<path d="M15.0098 7.99999C15.5618 8.00012 16.0096 8.44796 16.0098 8.99999C16.0098 9.5522 15.5619 9.99987 15.0098 9.99999H15C14.4477 9.99999 14 9.55228 14 8.99999C14.0002 8.44789 14.4478 7.99999 15 7.99999H15.0098Z" fill="#E4F2F2"/>
<path d="M19 0.999992C19.5521 1.00012 19.9998 1.44796 20 1.99999V3.99999H22C22.5521 4.00012 22.9998 4.44796 23 4.99999C23 5.5522 22.5522 5.99986 22 5.99999H20V7.99999C20 8.5522 19.5522 8.99987 19 8.99999C18.4477 8.99999 18 8.55228 18 7.99999V5.99999H16C15.4477 5.99999 15 5.55228 15 4.99999C15.0002 4.44788 15.4478 3.99999 16 3.99999H18V1.99999C18.0002 1.44788 18.4478 0.999992 19 0.999992Z" fill="#E4F2F2"/>
</svg>
