<svg width="24" height="24" viewBox="0 0 24 24" fill="none" xmlns="http://www.w3.org/2000/svg">
<path fill-rule="evenodd" clip-rule="evenodd" d="M21.1064 2.55273C21.3536 2.05933 21.9536 1.85883 22.4473 2.10547C22.941 2.35245 23.1412 2.95342 22.8945 3.44726L22.1582 4.91992C22.6966 5.47841 22.9999 6.22283 23 7V13C23 17.9523 18.9523 22 14 22H2C1.44772 22 1 21.5523 1 21C1.00017 20.4479 1.44782 20 2 20H4.34473C2.3051 18.3501 1 15.8278 1 13C1.00017 8.02958 5.02954 4 10 4C12.8278 4 15.3501 5.30512 17 7.34472V7C17.0001 6.2226 17.3031 5.47749 17.8418 4.91894L17.1055 3.44726C16.8587 2.95333 17.0588 2.35241 17.5527 2.10547C18.0466 1.85862 18.6475 2.05898 18.8945 2.55273L19.6299 4.02539C19.7521 4.01017 19.8755 4 20 4L20.2969 4.01465C20.3211 4.01705 20.3451 4.02142 20.3691 4.02441L21.1064 2.55273ZM10 6C6.13411 6 3.00017 9.13415 3 13C3 13.6564 3.12971 14.3066 3.38086 14.9131C3.6321 15.5196 4.00062 16.0709 4.46484 16.5352C4.92911 16.9994 5.48033 17.3679 6.08691 17.6191C6.69349 17.8704 7.34346 18 8 18C8.65654 18 9.30651 17.8704 9.91309 17.6191C10.5197 17.3679 11.0709 16.9994 11.5352 16.5352C11.9994 16.0709 12.3679 15.5196 12.6191 14.9131C12.8703 14.3066 13 13.6564 13 13C12.9999 12.2045 12.6836 11.4414 12.1211 10.8789C11.6289 10.3868 10.9834 10.0829 10.2969 10.0146L10 10C9.20442 10 8.4415 10.3164 7.87891 10.8789C7.31637 11.4414 7.00008 12.2045 7 13L7.00488 13.0986C7.02757 13.3276 7.12892 13.5429 7.29297 13.707C7.48051 13.8946 7.73478 14 8 14C8.26522 14 8.51949 13.8946 8.70703 13.707C8.89447 13.5195 9 13.2651 9 13C9.00017 12.4479 9.44782 12 10 12C10.5522 12 10.9998 12.4479 11 13C11 13.7956 10.6836 14.5585 10.1211 15.1211C9.55849 15.6837 8.79565 16 8 16C7.20435 16 6.44151 15.6837 5.87891 15.1211C5.3868 14.6289 5.0829 13.9834 5.01465 13.2969L5 13C5.00008 11.674 5.52724 10.4025 6.46484 9.46484C7.40251 8.52726 8.67399 8 10 8L10.248 8.00586C11.4838 8.06718 12.6561 8.58588 13.5352 9.46484C14.4728 10.4025 14.9999 11.674 15 13L14.9912 13.3437C14.9518 14.1455 14.7746 14.9355 14.4668 15.6787C14.115 16.5279 13.6001 17.3002 12.9502 17.9502C12.3002 18.6002 11.5279 19.115 10.6787 19.4668C10.139 19.6903 9.57461 19.8446 8.99902 19.9277C9.32601 19.9746 9.66006 20 10 20C13.866 20 17 16.866 17 13C16.9998 9.13415 13.8659 6 10 6ZM20 6C19.7349 6 19.4805 6.10553 19.293 6.29297C19.1055 6.48043 19.0001 6.73489 19 7V13C19 15.6636 17.8419 18.0562 16.0029 19.7041C18.8836 18.8364 21 16.1523 21 13V7C20.9999 6.73489 20.8945 6.48043 20.707 6.29297C20.5429 6.12892 20.3276 6.02756 20.0986 6.00488L20 6Z" fill="#E4F2F2"/>
</svg>
