<svg width="24" height="24" viewBox="0 0 24 24" fill="none" xmlns="http://www.w3.org/2000/svg">
<path fill-rule="evenodd" clip-rule="evenodd" d="M2.30762 4.84667C2.66054 4.73977 3.03703 4.73756 3.3916 4.83886L3.56641 4.89746L3.73535 4.97363C4.0541 5.1359 4.31973 5.3849 4.50488 5.69042C4.50856 5.69402 4.51276 5.6974 4.5166 5.70117C4.58709 5.77015 4.68685 5.8657 4.80078 5.97363C5.02498 6.18602 5.28744 6.42604 5.49902 6.59765C5.93597 6.90391 6.45936 7.06349 6.99317 7.05078C7.53402 7.03784 8.05655 6.84955 8.48145 6.51464L8.56445 6.45605C8.5931 6.43787 8.62294 6.42046 8.65332 6.40527C8.79144 6.33603 8.99343 6.16739 9.19922 5.95019C9.29218 5.85207 9.3703 5.76051 9.42481 5.69433C9.45161 5.66178 9.47235 5.63575 9.48535 5.61914C9.49169 5.61104 9.49652 5.60483 9.49903 5.60156L9.50098 5.59863C9.5576 5.5234 9.62488 5.45689 9.7002 5.40039C10.289 4.95878 11.2778 4.64213 12.1602 5.27343L12.1611 5.27246L18.3613 9.47167L18.4404 9.53222C18.8045 9.83544 19.3488 9.99998 20 9.99999C20.7956 10 21.5585 10.3164 22.1211 10.8789C22.6837 11.4415 23 12.2044 23 13C23 16.3522 20.3522 19 17 19H4C3.20441 19 2.44149 18.6836 1.87891 18.1211C1.31636 17.5585 1.00002 16.7956 1 16V7.13769C0.900812 6.72956 0.936446 6.29809 1.10742 5.91015C1.3073 5.45674 1.67467 5.09794 2.13281 4.90917L2.30762 4.84667ZM11.0098 6.93456C10.9999 6.9388 10.99 6.94604 10.9785 6.95214C10.9751 6.95629 10.9723 6.96153 10.9688 6.96581C10.8921 7.05891 10.783 7.18619 10.6514 7.32519C10.4226 7.5667 10.0564 7.91441 9.63086 8.14746C8.88206 8.70913 7.97857 9.02737 7.04102 9.0498C6.06736 9.07298 5.11207 8.77964 4.31934 8.21386C4.30449 8.20326 4.28964 8.19206 4.27539 8.18066C3.99129 7.95336 3.66622 7.65448 3.42481 7.42578C3.30137 7.30883 3.19452 7.2046 3.11817 7.12988C3.07998 7.0925 3.0487 7.06216 3.02735 7.04101L3 7.01367V11C3.00001 12.1477 3.8523 13 5 13H12C12.5523 13 13 13.4477 13 14C13 14.5523 12.5523 15 12 15H5C4.26494 15 3.58436 14.8125 3 14.4834V16C3.00002 16.2652 3.10549 16.5195 3.29297 16.707C3.48048 16.8945 3.73485 17 4 17H17C19.2477 17 21 15.2477 21 13C21 12.7348 20.8945 12.4805 20.707 12.293C20.5195 12.1055 20.2652 12 20 12C19.2347 12 18.4008 11.8451 17.668 11.4199L16.8047 12.5928C16.4771 13.0372 15.8518 13.132 15.4072 12.8047C14.9628 12.477 14.8677 11.8508 15.1953 11.4062L16.0117 10.2969L14.376 9.18749L13.2959 10.6064C12.9612 11.0455 12.3328 11.1304 11.8936 10.7959C11.4546 10.4613 11.37 9.83373 11.7041 9.39453L12.7168 8.06445L11.0391 6.92773L11.0361 6.92578C11.029 6.92808 11.0199 6.93023 11.0098 6.93456Z" fill="#E4F2F2"/>
</svg>
