<svg width="24" height="24" viewBox="0 0 24 24" fill="none" xmlns="http://www.w3.org/2000/svg">
<path fill-rule="evenodd" clip-rule="evenodd" d="M16.4785 1.33593C17.4683 1.01964 18.5326 1.01975 19.5225 1.33593C20.5122 1.65216 21.3789 2.26911 22.002 3.10058C22.6249 3.93204 22.9735 4.93696 22.999 5.97558C22.9992 5.98356 23 5.99202 23 6C22.9999 7.65463 22.116 9.14943 20.873 10.0195L20.8721 10.0186C17.9797 12.1133 16.3169 13.397 14.8564 14.8574C13.3959 16.3181 12.1129 17.9817 10.0176 20.875C9.62626 21.4963 9.10407 22.0255 8.48535 22.4219C7.84883 22.8295 7.12757 23.0877 6.37695 23.1768C5.62623 23.2657 4.86467 23.1832 4.15039 22.9355C3.43621 22.6879 2.78746 22.2815 2.25293 21.7471C1.71842 21.2126 1.31113 20.5638 1.06348 19.8496C0.815895 19.1354 0.734312 18.3737 0.823242 17.623C0.912248 16.8724 1.17045 16.1512 1.57813 15.5146C1.97497 14.8952 2.50371 14.371 3.12598 13.9795C6.01799 11.885 7.68227 10.6038 9.14258 9.14355C10.6052 7.6809 11.8889 6.01377 13.9893 3.11328C13.9923 3.10908 13.9959 3.10472 13.999 3.10058C14.622 2.26912 15.4889 1.65229 16.4785 1.33593ZM6.47461 14C5.81863 14.4929 5.09621 15.0237 4.28613 15.6103C4.26535 15.6254 4.24356 15.6399 4.22168 15.6533C3.83497 15.8902 3.50633 16.2119 3.26172 16.5937C3.01728 16.9756 2.86198 17.4082 2.80859 17.8584C2.75527 18.3087 2.80462 18.7659 2.95313 19.1943C3.10172 19.6228 3.3463 20.0123 3.66699 20.333C3.98771 20.6537 4.37717 20.8973 4.80566 21.0459C5.23419 21.1944 5.69122 21.2438 6.1416 21.1904C6.59175 21.137 7.0245 20.9827 7.40625 20.7383C7.78806 20.4937 8.10985 20.165 8.34668 19.7783L8.38965 19.7139C8.9761 18.904 9.50621 18.1812 9.99902 17.5254V14H6.47461ZM18.9141 3.24121C18.3202 3.05153 17.6817 3.05151 17.0879 3.24121C16.4966 3.43024 15.9769 3.7972 15.6035 4.29297C13.507 7.18796 12.1426 8.97165 10.5566 10.5576C10.0632 11.0511 9.5484 11.5206 8.98926 12H10.999C11.5513 12 11.999 12.4477 11.999 13V15.0107C12.4786 14.4514 12.9488 13.937 13.4424 13.4434C15.0296 11.8562 16.8139 10.4899 19.7129 8.39062L19.7256 8.38086C20.4785 7.8538 20.9937 6.95448 20.999 6.01465C20.9817 5.39509 20.7731 4.79596 20.4014 4.2998C20.0276 3.80101 19.5078 3.43098 18.9141 3.24121Z" fill="#E4F2F2"/>
</svg>
