<svg width="24" height="24" viewBox="0 0 24 24" fill="none" xmlns="http://www.w3.org/2000/svg">
<path d="M12.0098 17C12.5621 17 13.0098 17.4477 13.0098 18C13.0098 18.5523 12.5621 19 12.0098 19H12C11.4477 19 11 18.5523 11 18C11 17.4477 11.4477 17 12 17H12.0098Z" fill="#E4F2F2"/>
<path d="M12.0098 13C12.5621 13 13.0098 13.4477 13.0098 14C13.0098 14.5523 12.5621 15 12.0098 15H12C11.4477 15 11 14.5523 11 14C11 13.4477 11.4477 13 12 13H12.0098Z" fill="#E4F2F2"/>
<path fill-rule="evenodd" clip-rule="evenodd" d="M12 1C14.7614 1 17 3.23858 17 6C17 6.85081 16.786 7.65118 16.4111 8.35254C16.9582 8.71419 17.4574 9.14062 17.8984 9.62207L19 8.57129V7C19 6.44772 19.4477 6 20 6C20.5523 6 21 6.44772 21 7V8H22C22.5523 8 23 8.44772 23 9C23 9.55229 22.5523 10 22 10H20.4004L19.0654 11.2734C19.1089 11.3553 19.1517 11.4379 19.1924 11.5215C19.9876 13.1544 20.2036 15.0103 19.8047 16.7822C19.4366 18.4168 18.5647 19.8906 17.3184 21H19C19.5523 21 20 21.4477 20 22C20 22.5523 19.5523 23 19 23H12.6006C12.4013 23.015 12.201 23.0244 12 23.0244C11.799 23.0244 11.5987 23.015 11.3994 23H5C4.44772 23 4 22.5523 4 22C4 21.4477 4.44772 21 5 21H6.68164C5.43529 19.8906 4.56343 18.4168 4.19531 16.7822C3.79636 15.0103 4.01236 13.1545 4.80762 11.5215C4.84015 11.4547 4.87488 11.3889 4.90918 11.3232L3.58594 10H2C1.44772 10 1 9.55229 1 9C1 8.44772 1.44772 8 2 8H3V7C3 6.44772 3.44772 6 4 6C4.55228 6 5 6.44772 5 7V8.58594L6.07031 9.65625C6.51879 9.16097 7.02814 8.72265 7.58789 8.35254C7.21319 7.65127 7 6.85065 7 6C7 3.23858 9.23858 1 12 1ZM15.123 9.90234C14.2672 10.5882 13.1821 11 12 11C10.8176 11 9.73196 10.5885 8.87598 9.90234C8.35445 10.2204 7.8864 10.6155 7.48633 11.0723L7.70703 11.293C8.09756 11.6835 8.09756 12.3165 7.70703 12.707C7.35682 13.0572 6.81235 13.0924 6.42188 12.8145C5.97883 13.9328 5.88074 15.1625 6.14648 16.3428C6.44573 17.6716 7.18835 18.8591 8.25195 19.71C9.17552 20.4487 10.2937 20.8951 11.4639 21H12.5361C13.7063 20.8951 14.8245 20.4487 15.748 19.71C16.8117 18.8591 17.5543 17.6716 17.8535 16.3428C18.1527 15.0138 17.991 13.6222 17.3945 12.3975C16.8901 11.3616 16.0994 10.4976 15.123 9.90234ZM12 3C10.3431 3 9 4.34315 9 6C9 7.65685 10.3431 9 12 9C13.6569 9 15 7.65685 15 6C15 4.34315 13.6569 3 12 3Z" fill="#E4F2F2"/>
</svg>
