<svg width="24" height="24" viewBox="0 0 24 24" fill="none" xmlns="http://www.w3.org/2000/svg">
<path fill-rule="evenodd" clip-rule="evenodd" d="M16.1055 2.55273C16.3525 2.05898 16.9534 1.85862 17.4473 2.10547C17.9412 2.35241 18.1413 2.95333 17.8945 3.44726L17.0381 5.1582L17.8213 5.0166C18.3645 4.91791 18.8845 5.27813 18.9834 5.82129C19.0821 6.36461 18.722 6.88458 18.1787 6.9834L15.9209 7.39355L15.1182 9L16.1182 11H18.001L19.2002 9.40039C19.5315 8.95884 20.1579 8.86914 20.5996 9.20019C21.0413 9.53148 21.1309 10.1578 20.7998 10.5996L20.499 11H22C22.5522 11 22.9998 11.4479 23 12C23 12.5523 22.5523 13 22 13H20.499L20.7998 13.4004C21.131 13.8422 21.0413 14.4684 20.5996 14.7998C20.1578 15.131 19.5315 15.0414 19.2002 14.5996L18.001 13H16.1182L15.1182 15L15.9209 16.6055L18.1787 17.0166C18.722 17.1154 19.082 17.6355 18.9834 18.1787C18.8846 18.7221 18.3646 19.0821 17.8213 18.9834L17.0381 18.8408L17.8945 20.5527C18.1415 21.0467 17.9412 21.6475 17.4473 21.8945C16.9533 22.1415 16.3525 21.9412 16.1055 21.4473L15.249 19.7353L14.8945 20.4473C14.6475 20.9412 14.0467 21.1415 13.5527 20.8945C13.0588 20.6475 12.8585 20.0467 13.1055 19.5527L14.1318 17.5L13.3818 16H10.6182L9.86816 17.5L10.8945 19.5527C11.1415 20.0467 10.9412 20.6475 10.4473 20.8945C9.95329 21.1415 9.35246 20.9412 9.10547 20.4473L8.75 19.7353L7.89453 21.4473C7.64754 21.9412 7.04671 22.1415 6.55273 21.8945C6.05885 21.6475 5.8585 21.0467 6.10547 20.5527L6.96094 18.8408L6.17871 18.9834C5.63537 19.0821 5.11539 18.7221 5.0166 18.1787C4.91805 17.6355 5.27804 17.1154 5.82129 17.0166L8.07812 16.6055L8.88184 15L7.88184 13H5.99902L4.7998 14.5996C4.46847 15.0414 3.84221 15.131 3.40039 14.7998C2.95874 14.4684 2.869 13.8422 3.2002 13.4004L3.5 13H2C1.44772 13 1 12.5523 1 12C1.00017 11.4479 1.44782 11 2 11H3.5L3.2002 10.5996C2.86914 10.1578 2.95868 9.53148 3.40039 9.20019C3.84213 8.86914 4.46847 8.95884 4.7998 9.40039L5.99902 11H7.88184L8.88184 9L8.07812 7.39355L5.82129 6.9834C5.27797 6.88458 4.91786 6.36461 5.0166 5.82129C5.11553 5.27813 5.63549 4.91791 6.17871 5.0166L6.96094 5.1582L6.10547 3.44726C5.85867 2.95333 6.05884 2.35241 6.55273 2.10547C7.04661 1.85862 7.64749 2.05898 7.89453 2.55273L8.74902 4.26269L9.10547 3.55273C9.35252 3.05898 9.95339 2.85862 10.4473 3.10547C10.9412 3.35241 11.1413 3.95333 10.8945 4.44726L9.86816 6.5L10.6182 8H13.3818L14.1318 6.5L13.1055 4.44726C12.8587 3.95333 13.0588 3.35241 13.5527 3.10547C14.0466 2.85862 14.6475 3.05898 14.8945 3.55273L15.249 4.26367L16.1055 2.55273ZM10.6182 10L9.61816 12L10.6182 14H13.3818L14.3818 12L13.3818 10H10.6182Z" fill="#E4F2F2"/>
</svg>
