<svg width="24" height="24" viewBox="0 0 24 24" fill="none" xmlns="http://www.w3.org/2000/svg">
<path fill-rule="evenodd" clip-rule="evenodd" d="M17.5 20C18.3284 20.0001 19 20.6716 19 21.5C18.9999 22.3283 18.3283 22.9999 17.5 23C16.6716 23 16.0001 22.3284 16 21.5C16 20.6716 16.6716 20 17.5 20ZM17.5 21C17.2239 21 17 21.2239 17 21.5C17.0001 21.7761 17.2239 22 17.5 22C17.776 21.9999 17.9999 21.7761 18 21.5C18 21.2239 17.7761 21.0001 17.5 21Z" fill="#E4F2F2"/>
<path d="M22.0098 21C22.562 21.0001 23.0098 21.4478 23.0098 22C23.0097 22.5522 22.562 22.9999 22.0098 23H22C21.4478 23 21.0001 22.5522 21 22C21 21.4477 21.4477 21 22 21H22.0098Z" fill="#E4F2F2"/>
<path fill-rule="evenodd" clip-rule="evenodd" d="M12.3691 6.22462C12.7619 5.90428 13.3409 5.92687 13.707 6.29298L16.707 9.29298C17.0974 9.68351 17.0975 10.3166 16.707 10.707L10.707 16.707C10.3166 17.0975 9.68351 17.0974 9.29297 16.707L6.29297 13.707C5.90245 13.3165 5.90245 12.6835 6.29297 12.293L12.293 6.29298L12.3691 6.22462ZM8.41407 13L10 14.5859L14.5859 10L13 8.41407L8.41407 13Z" fill="#E4F2F2"/>
<path fill-rule="evenodd" clip-rule="evenodd" d="M10.5928 1.9922C11.8831 0.702186 14.1157 0.702429 15.4063 1.9922L21.0068 7.59278C22.2969 8.88327 22.2969 11.1158 21.0068 12.4063L12.4063 21.0068C11.1158 22.2969 8.88326 22.2969 7.59278 21.0068L1.99219 15.4063C0.702421 14.1157 0.702178 11.8831 1.99219 10.5928L10.5928 1.9922ZM13.9922 3.40626C13.4826 2.89754 12.5162 2.8973 12.0068 3.40626L3.40625 12.0068C2.89729 12.5162 2.89753 13.4826 3.40625 13.9922L9.00684 19.5928C9.51632 20.1018 10.4828 20.1018 10.9922 19.5928L19.5928 10.9922C20.1018 10.4828 20.1018 9.51633 19.5928 9.00685L13.9922 3.40626Z" fill="#E4F2F2"/>
<path fill-rule="evenodd" clip-rule="evenodd" d="M20.5 16C21.3284 16.0001 22 16.6716 22 17.5C21.9999 18.3283 21.3283 18.9999 20.5 19C19.6716 19 19.0001 18.3284 19 17.5C19 16.6716 19.6716 16 20.5 16ZM20.5 17C20.2239 17 20 17.2239 20 17.5C20.0001 17.7761 20.2239 18 20.5 18C20.776 17.9999 20.9999 17.7761 21 17.5C21 17.2239 20.7761 17.0001 20.5 17Z" fill="#E4F2F2"/>
</svg>
