<svg width="24" height="24" viewBox="0 0 24 24" fill="none" xmlns="http://www.w3.org/2000/svg">
<path fill-rule="evenodd" clip-rule="evenodd" d="M12 1C18.0751 1 23 5.92487 23 12C23 18.0751 18.0751 23 12 23C5.92487 23 1 18.0751 1 12C1 5.99339 5.81445 1.11426 11.7949 1.00488C11.8294 1.00128 11.8649 1 11.9004 1C11.9118 1 11.9232 1.00059 11.9346 1.00098C11.9564 1.00085 11.9782 1 12 1ZM9.30273 17.3193C9.10887 17.5904 8.84077 17.963 8.54395 18.3672C8.21199 18.8192 7.83099 19.3258 7.47559 19.7793C8.80511 20.5542 10.3502 21 12 21C13.6081 21 15.1163 20.5758 16.4229 19.8369C16.0334 19.3662 15.6237 18.8394 15.2754 18.375C14.9707 17.9687 14.6973 17.5946 14.501 17.3223C14.4991 17.3196 14.497 17.3171 14.4951 17.3145C13.0704 17.5498 11.7068 17.5385 10.6631 17.46C10.1238 17.4194 9.66228 17.3579 9.3125 17.3047C9.30911 17.3094 9.30617 17.3145 9.30273 17.3193ZM20.7656 9.96484C20.2217 10.1215 19.5757 10.3569 18.959 10.6035C18.5427 10.77 18.1631 10.932 17.874 11.0586C17.7629 12.693 17.31 14.0438 16.8574 15.0205C16.6211 15.5304 16.3824 15.9412 16.1904 16.2422C16.3745 16.4968 16.6121 16.8243 16.875 17.1748C17.2607 17.6891 17.6809 18.2269 18.0479 18.665C19.8613 17.0186 21 14.6423 21 12C21 11.2998 20.9169 10.619 20.7656 9.96484ZM3.24219 9.92773C3.08532 10.5932 3 11.2866 3 12C3 14.6008 4.1042 16.9429 5.86816 18.5859C6.20297 18.1595 6.58237 17.6582 6.93164 17.1826C7.18598 16.8363 7.41863 16.5126 7.60059 16.2588C6.7886 15.0459 6.37385 13.6669 6.15723 12.584C6.0333 11.9643 5.96958 11.4173 5.93652 11.0166C5.65951 10.8935 5.31335 10.742 4.93848 10.585C4.36534 10.3449 3.76122 10.1059 3.24219 9.92773ZM11.8516 7.83203C11.559 7.97977 11.1455 8.20079 10.6729 8.49023C9.8277 9.00789 8.82597 9.72588 7.97754 10.6074C7.96521 10.6655 7.94712 10.7227 7.92383 10.7793C7.92472 10.7923 7.92569 10.8058 7.92676 10.8193C7.95403 11.1623 8.00874 11.6442 8.11816 12.1914C8.32078 13.2044 8.69627 14.3602 9.36133 15.2881C9.40168 15.295 9.44544 15.304 9.49219 15.3115C9.80801 15.3625 10.2643 15.4245 10.8125 15.4658C11.8242 15.5419 13.1185 15.5417 14.4189 15.2959C14.4318 15.2767 14.4471 15.2575 14.4609 15.2363C14.6162 14.9993 14.8288 14.6418 15.043 14.1797C15.434 13.3359 15.8225 12.1554 15.8887 10.7246C15.8721 10.7082 15.8554 10.6911 15.8389 10.6748C15.6136 10.4525 15.288 10.1382 14.875 9.78418C14.126 9.14221 13.1058 8.38466 11.9062 7.80469C11.8886 7.81349 11.8702 7.82262 11.8516 7.83203ZM16.3281 9.47949C16.2191 9.55314 16.1383 9.64134 16.0771 9.73242C16.1452 9.63402 16.2301 9.54798 16.3281 9.47949ZM12.9004 6.0625C14.2533 6.73416 15.3739 7.57834 16.1758 8.26562C16.5953 8.62521 16.9322 8.94682 17.1729 9.18262C17.462 9.05687 17.8232 8.90352 18.2168 8.74609C18.7803 8.52071 19.4568 8.26719 20.1006 8.07617C18.7669 5.32799 16.0772 3.36049 12.9004 3.04492V6.0625ZM10.9004 3.06934C7.82259 3.44438 5.22464 5.37056 3.91406 8.04492C4.51636 8.25204 5.16188 8.51023 5.71094 8.74023C6.04501 8.88019 6.35642 9.01572 6.61914 9.13184C7.60981 8.1234 8.72935 7.33555 9.62793 6.78516C10.1295 6.47794 10.5724 6.23931 10.9004 6.07227V3.06934Z" fill="#E4F2F2"/>
</svg>
