<svg width="24" height="24" viewBox="0 0 24 24" fill="none" xmlns="http://www.w3.org/2000/svg">
<path fill-rule="evenodd" clip-rule="evenodd" d="M21 4C21.5272 4 22.0439 4.18058 22.4316 4.56836C22.8194 4.95614 23 5.47275 23 6V18C23 18.5272 22.8194 19.0439 22.4316 19.4316C22.0439 19.8194 21.5272 20 21 20H3C2.47275 20 1.95614 19.8194 1.56836 19.4316C1.18058 19.0439 1 18.5272 1 18V6C1 5.47275 1.18058 4.95614 1.56836 4.56836C1.95614 4.18058 2.47275 4 3 4H21ZM3 8H6C6.55228 8 7 8.44772 7 9V15C7 15.5523 6.55228 16 6 16H3V18H11V14.8252C9.83548 14.413 9 13.3057 9 12C9 10.6941 9.83532 9.58594 11 9.17383V6H3V8ZM13 9.17383C14.1647 9.58594 15 10.6941 15 12C15 13.3057 14.1645 14.413 13 14.8252V18H21V16H18C17.4477 16 17 15.5523 17 15V9C17 8.44772 17.4477 8 18 8H21V6H13V9.17383ZM19 10V14H21V10H19ZM3 14H5V10H3V14ZM12 11C11.4477 11 11 11.4477 11 12C11 12.5523 11.4477 13 12 13C12.5523 13 13 12.5523 13 12C13 11.4477 12.5523 11 12 11Z" fill="#E4F2F2"/>
</svg>
