<svg width="24" height="24" viewBox="0 0 24 24" fill="none" xmlns="http://www.w3.org/2000/svg">
<path d="M10 14C10.5523 14 11 14.4477 11 15C11 15.5523 10.5523 16 10 16H8C7.44772 16 7 15.5523 7 15C7 14.4477 7.44772 14 8 14H10Z" fill="#E4F2F2"/>
<path d="M16 14C16.5523 14 17 14.4477 17 15C17 15.5523 16.5523 16 16 16H14C13.4477 16 13 15.5523 13 15C13 14.4477 13.4477 14 14 14H16Z" fill="#E4F2F2"/>
<path d="M12 7C12.5523 7 13 7.44772 13 8V10C13 10.5523 12.5523 11 12 11C11.4477 11 11 10.5523 11 10V8C11 7.44772 11.4477 7 12 7Z" fill="#E4F2F2"/>
<path fill-rule="evenodd" clip-rule="evenodd" d="M20 1C21.6569 1 23 2.34315 23 4V20C23 21.6569 21.6569 23 20 23H4C2.34315 23 1 21.6569 1 20V4C1 2.34315 2.34315 1 4 1H20ZM4 3C3.44772 3 3 3.44772 3 4V20C3 20.5523 3.44772 21 4 21H20C20.5523 21 21 20.5523 21 20V4C21 3.44772 20.5523 3 20 3H4Z" fill="#E4F2F2"/>
</svg>
