<svg width="24" height="24" viewBox="0 0 24 24" fill="none" xmlns="http://www.w3.org/2000/svg">
<path fill-rule="evenodd" clip-rule="evenodd" d="M20 1C20.5271 1.00005 21.0439 1.18071 21.4316 1.56836C21.8193 1.95613 22 2.4728 22 3V13.0068C21.9895 14.6191 21.3464 16.163 20.209 17.3057L20.1992 17.3154L15.6992 21.7148C15.2864 22.1257 14.7969 22.4518 14.2588 22.6748C13.7172 22.8991 13.1361 23.0146 12.5498 23.0146C11.9635 23.0146 11.3825 22.8992 10.8408 22.6748C10.3662 22.4781 9.92951 22.201 9.5498 21.8564C8.73034 22.6 7.66146 23.0146 6.5498 23.0146C5.36574 23.0146 4.22984 22.5443 3.39258 21.707C2.55538 20.8697 2.08496 19.7339 2.08496 18.5498C2.08501 17.3658 2.55537 16.2298 3.39258 15.3926L6.84863 11.9355C7.54419 11.0546 8 10.0825 8 9V3C8 2.47297 8.17994 1.95608 8.56738 1.56836C8.95511 1.18063 9.47283 1.00005 10 1H20ZM10 7V9C10 10.7014 9.26785 12.1158 8.38086 13.2246C8.35787 13.2533 8.33266 13.2806 8.30664 13.3066L4.80664 16.8066C4.34451 17.2688 4.08501 17.8962 4.08496 18.5498C4.08496 19.2034 4.34452 19.8307 4.80664 20.293C5.26883 20.7552 5.89617 21.0146 6.5498 21.0146C7.20346 21.0146 7.83074 20.7551 8.29297 20.293L8.39746 20.1875C8.19187 19.6661 8.08496 19.1107 8.08496 18.5498C8.08499 17.9637 8.20057 17.3833 8.4248 16.8418C8.64916 16.3001 8.97803 15.8072 9.39258 15.3926L12.8486 11.9355C13.5442 11.0546 14 10.0825 14 9V7H10ZM16 7V9C16 10.7014 15.2679 12.1158 14.3809 13.2246C14.3579 13.2533 14.3327 13.2806 14.3066 13.3066L10.8066 16.8066C10.5779 17.0354 10.3963 17.3075 10.2725 17.6064C10.1486 17.9054 10.085 18.2262 10.085 18.5498C10.085 18.8734 10.1486 19.1942 10.2725 19.4932C10.3963 19.7921 10.5779 20.0641 10.8066 20.293C11.0354 20.5218 11.3075 20.7033 11.6064 20.8271C11.9054 20.951 12.2262 21.0146 12.5498 21.0146C12.8734 21.0146 13.1942 20.951 13.4932 20.8271C13.7921 20.7033 14.0641 20.5218 14.293 20.293L14.3008 20.2852L18.7949 15.8906C19.5586 15.1214 19.9913 14.0839 20 13V7H16ZM10 5H14V3H10V5ZM16 5H20V3H16V5Z" fill="#E4F2F2"/>
</svg>
