<svg width="24" height="24" viewBox="0 0 24 24" fill="none" xmlns="http://www.w3.org/2000/svg">
<path fill-rule="evenodd" clip-rule="evenodd" d="M20.1309 13.0039C20.4372 13.0239 20.7361 13.1143 21.0029 13.2686C21.3076 13.4449 21.561 13.6986 21.7363 14.0039C21.9115 14.3092 22.0023 14.6558 22.001 15.0078C21.9995 15.356 21.9063 15.6976 21.7324 15.999L21.7334 16L20.5459 18.0811L21.9316 21.6367C22.1321 22.1513 21.8769 22.7312 21.3623 22.9316C20.8479 23.1317 20.2678 22.8776 20.0674 22.3633L19.2705 20.3174L18.6299 21.4424L18.6309 21.4434C18.3722 21.9145 17.9918 22.3082 17.5293 22.582C17.1244 22.8217 16.6688 22.9618 16.2012 22.9932L16 23H3.99999C3.64821 23 3.30251 22.9067 2.99804 22.7305C2.69322 22.5539 2.43982 22.2998 2.26464 21.9941C2.08962 21.6886 1.99827 21.3423 1.99999 20.9902C2.00177 20.642 2.09523 20.3003 2.26952 19.999L3.67382 17.5312C3.67964 17.5203 3.68617 17.5097 3.69238 17.499L5.37695 14.5449C5.6352 14.0795 6.01257 13.6904 6.4707 13.4189C6.93356 13.1448 7.46202 13.001 7.99999 13.001L20 13L20.1309 13.0039ZM4.00585 20.9893L3.99999 21H9.13867L10.2783 19H5.13964L4.00585 20.9893ZM11.4414 21H16.001C16.18 20.9999 16.3566 20.9515 16.5107 20.8604C16.6646 20.7691 16.7918 20.6383 16.8779 20.4814L16.8857 20.4668L17.7217 19H12.581L11.4414 21ZM7.99999 15C7.82075 15 7.64446 15.0483 7.49023 15.1396C7.33605 15.231 7.20918 15.3624 7.12304 15.5195C7.12031 15.5245 7.11708 15.5302 7.11425 15.5352L6.27929 17H11.4189L12.5586 15H7.99999ZM13.7207 17H18.8613L19.9961 15.0098L20.001 15H14.8603L13.7207 17Z" fill="#E4F2F2"/>
<path d="M2.99999 9C3.55228 9 3.99999 9.44771 3.99999 10V12C3.99999 12.5523 3.55228 13 2.99999 13C2.44772 13 1.99999 12.5523 1.99999 12V10C1.99999 9.44772 2.44772 9.00001 2.99999 9Z" fill="#E4F2F2"/>
<path d="M7.95312 6.95312C8.34364 6.5626 8.97666 6.5626 9.36718 6.95312L10.7773 8.36328C11.1676 8.75383 11.1678 9.38692 10.7773 9.77734C10.3869 10.1678 9.75382 10.1676 9.36327 9.77734L7.95312 8.36719C7.5626 7.97667 7.56261 7.34365 7.95312 6.95312Z" fill="#E4F2F2"/>
<path d="M6.99999 1C7.55228 1 7.99999 1.44772 7.99999 2C7.99999 3.32608 7.47283 4.59747 6.53515 5.53516C5.59747 6.47283 4.32607 7 2.99999 7C2.44772 6.99999 1.99999 6.55228 1.99999 6C1.99999 5.44772 2.44772 5.00001 2.99999 5C3.79564 5 4.55848 4.6837 5.12109 4.12109C5.6837 3.55848 5.99999 2.79565 5.99999 2C5.99999 1.44772 6.44772 1.00001 6.99999 1Z" fill="#E4F2F2"/>
<path d="M13 1C13.5523 1 14 1.44772 14 2C14 2.55228 13.5523 3 13 3H11C10.4477 2.99999 9.99999 2.55228 9.99999 2C9.99999 1.44772 10.4477 1.00001 11 1H13Z" fill="#E4F2F2"/>
</svg>
