<svg width="24" height="24" viewBox="0 0 24 24" fill="none" xmlns="http://www.w3.org/2000/svg">
<path fill-rule="evenodd" clip-rule="evenodd" d="M21.0771 5.61522C21.2896 5.10556 21.875 4.86475 22.3848 5.07713C22.8943 5.28967 23.1352 5.87506 22.9229 6.38475L21 11L21.0986 11.0049C21.3276 11.0276 21.5429 11.1288 21.707 11.293C21.8945 11.4805 22 11.7349 22 12C21.9999 14.652 20.9466 17.196 19.0713 19.0713C18.6336 19.509 18.1587 19.9009 17.6553 20.2461C17.8659 20.4294 18 20.6988 18 21C17.9998 21.5521 17.5522 22 17 22H7C6.44783 22 6.00019 21.5521 6 21C6 20.6983 6.13351 20.4275 6.34473 20.2441C5.84165 19.8991 5.36617 19.5087 4.92871 19.0713C3.05343 17.196 2.00009 14.652 2 12C2 11.7349 2.10554 11.4805 2.29297 11.293C2.48051 11.1054 2.73478 11 3 11H18.833L21.0771 5.61522ZM4.06543 13C4.28637 14.7527 5.08031 16.3947 6.34277 17.6572C7.84305 19.1574 9.87835 20 12 20L12.3965 19.9902C14.3738 19.8922 16.2507 19.0637 17.6572 17.6572C18.9197 16.3947 19.7136 14.7527 19.9346 13H4.06543Z" fill="#E4F2F2"/>
<path d="M5.3125 2.65233C5.5044 2.13458 6.07983 1.8707 6.59766 2.06249C7.21209 2.29031 8.07952 3.08186 7.99902 4.41991L7.99805 4.43163C7.94291 5.19284 7.50271 5.7209 7.29199 5.99022C7.03565 6.31784 7.00483 6.39351 6.99805 6.45995C6.98873 6.64555 7.02718 6.7648 7.08008 6.86229C7.14516 6.98192 7.2508 7.10635 7.42871 7.27538C7.8286 7.65569 7.84572 8.28817 7.46582 8.68846C7.08556 9.08873 6.45219 9.10459 6.05176 8.7246C5.58665 8.28272 4.92415 7.5494 5.00293 6.31639L5.00391 6.29491C5.06811 5.54284 5.51232 5.01913 5.7168 4.7578C5.96667 4.43844 5.99498 4.36013 6.00098 4.29295C6.00571 4.20249 5.99617 4.13815 5.9834 4.09471C5.97008 4.04971 5.95074 4.01507 5.93164 3.98827C5.91183 3.96056 5.89093 3.9404 5.87598 3.9287C5.85705 3.91402 5.86162 3.92204 5.90332 3.93749C5.38547 3.74569 5.1208 3.17019 5.3125 2.65233Z" fill="#E4F2F2"/>
<path d="M10.3125 2.65233C10.4925 2.16696 11.0094 1.90402 11.5 2.03124L11.5977 2.06249L11.7148 2.11131C12.3147 2.39013 13.0724 3.16408 12.9873 4.41893L12.9883 4.41991C12.9419 5.18826 12.4963 5.72198 12.2891 5.98827C12.0286 6.32298 12.0112 6.38585 12.0078 6.44042C12.0075 6.44561 12.0072 6.45186 12.0068 6.45702C11.9922 6.64924 12.0312 6.7702 12.084 6.86913C12.1478 6.98859 12.2511 7.11207 12.4277 7.28417C12.823 7.66961 12.8316 8.30277 12.4463 8.69823C12.0609 9.09339 11.4277 9.10092 11.0322 8.71581C10.5849 8.2799 9.91776 7.54182 10.0127 6.3037C10.0644 5.54695 10.5087 5.0196 10.7109 4.75975C10.9682 4.4292 10.9884 4.36116 10.9922 4.29979V4.28807C10.9989 4.19474 10.9888 4.12958 10.9766 4.0869C10.9642 4.04363 10.9458 4.01085 10.9277 3.98534C10.9088 3.95872 10.8894 3.93897 10.875 3.92772L10.9023 3.93749C10.3848 3.74555 10.1209 3.17002 10.3125 2.65233Z" fill="#E4F2F2"/>
<path d="M15.3125 2.65233C15.5044 2.13458 16.0798 1.8707 16.5977 2.06249C17.2121 2.29031 18.0795 3.08186 17.999 4.41991L17.998 4.43163C17.9429 5.19284 17.5027 5.7209 17.292 5.99022C17.0357 6.31784 17.0048 6.39351 16.998 6.45995C16.9887 6.64588 17.0275 6.76676 17.0811 6.8662C17.1467 6.98789 17.2526 7.11253 17.4287 7.28417C17.8235 7.66965 17.8314 8.30293 17.4463 8.69823C17.061 9.09328 16.4277 9.10071 16.0322 8.71581C15.5844 8.2794 14.9243 7.54666 15.0029 6.31639L15.0039 6.29491C15.0681 5.54284 15.5123 5.01913 15.7168 4.7578C15.9667 4.43844 15.995 4.36013 16.001 4.29295C16.0057 4.20249 15.9962 4.13815 15.9834 4.09471C15.9701 4.04971 15.9507 4.01507 15.9316 3.98827C15.9118 3.96056 15.8909 3.9404 15.876 3.9287C15.857 3.91402 15.8616 3.92204 15.9033 3.93749C15.3855 3.74569 15.1208 3.17019 15.3125 2.65233Z" fill="#E4F2F2"/>
</svg>
