<svg width="24" height="24" viewBox="0 0 24 24" fill="none" xmlns="http://www.w3.org/2000/svg">
<path fill-rule="evenodd" clip-rule="evenodd" d="M12.0195 2.00098C12.445 2.00387 12.8653 2.09773 13.252 2.2754C13.6209 2.445 13.9505 2.68843 14.2227 2.98926L19.6953 8.28126L19.707 8.29297C21.1931 9.77901 22.9999 11.7549 23 14.5L22.9951 14.7461C22.9484 15.9747 22.5541 17.1668 21.8555 18.1826C21.1103 19.2659 20.0539 20.0978 18.8262 20.5684C17.5982 21.0389 16.2559 21.1264 14.9775 20.8184C14.2719 20.6484 13.6046 20.3614 13 19.9746V22C13 22.5523 12.5523 23 12 23C11.4477 23 11 22.5523 11 22V19.9736C10.3955 20.3605 9.7281 20.6474 9.02246 20.8174C7.74405 21.1254 6.40176 21.0379 5.17383 20.5674C3.9461 20.0968 2.8897 19.2649 2.14453 18.1816C1.44587 17.1659 1.05162 15.9737 1.00488 14.7451L1 14.499C1.00006 11.7434 2.80782 9.77715 4.29297 8.292L4.30469 8.28028L9.8125 2.94922C10.0868 2.65686 10.4163 2.42152 10.7832 2.25879C11.1723 2.08626 11.5939 1.99814 12.0195 2.00098ZM12.0059 4.00098C11.864 4.00004 11.7234 4.02941 11.5938 4.08692C11.4641 4.14443 11.3484 4.22922 11.2539 4.33497C11.2379 4.35291 11.2204 4.36999 11.2031 4.38672L5.69531 9.71778C4.1861 11.2282 3.00006 12.6596 3 14.499L3.0127 14.8389C3.07273 15.6292 3.34049 16.3925 3.79199 17.0488C4.30791 17.7988 5.03966 18.3745 5.88965 18.7002C6.73966 19.0259 7.66875 19.0862 8.55371 18.8731C9.43876 18.6598 10.2392 18.183 10.8477 17.5059L10.9102 17.4414C11.1394 17.2284 11.4248 17.0892 11.7295 17.0371C11.8155 17.013 11.9063 17 12 17C12.0878 17 12.1728 17.012 12.2539 17.0332C12.5165 17.0756 12.7651 17.1836 12.9766 17.3467L13.0918 17.4443L13.1523 17.5068C13.7608 18.184 14.5612 18.6608 15.4463 18.874C16.3312 19.0872 17.2603 19.0269 18.1104 18.7012C18.9603 18.3754 19.6921 17.7998 20.208 17.0498C20.6595 16.3934 20.9273 15.6302 20.9873 14.8398L21 14.5C20.9999 12.67 19.813 11.2284 18.3047 9.71876L12.8125 4.40723C12.792 4.38739 12.7726 4.36626 12.7539 4.34473C12.6609 4.23782 12.5457 4.15201 12.417 4.09278C12.2881 4.03354 12.1477 4.00193 12.0059 4.00098Z" fill="#E4F2F2"/>
</svg>
