<svg width="24" height="24" viewBox="0 0 24 24" fill="none" xmlns="http://www.w3.org/2000/svg">
<path d="M7.46238 1.84278C9.16798 1.85083 10.8009 2.53645 12.0014 3.74805C13.2008 4.95866 13.8713 6.59582 13.8647 8.29981V14C13.8647 14.0283 13.8632 14.0568 13.8608 14.085C13.7929 14.8768 13.4408 15.6184 12.8706 16.1719C12.3004 16.725 11.5495 17.0544 10.7563 17.0986C10.7032 17.1016 10.6491 17.1003 10.5962 17.0947L9.80027 17.0107V20C9.80018 20.5521 9.35229 20.9998 8.80027 21C8.24813 20.9999 7.80036 20.5521 7.80027 20V15.8994C7.80046 15.6162 7.92084 15.3457 8.13133 15.1563C8.34182 14.967 8.62325 14.8758 8.90476 14.9053L10.7075 15.0947C10.9966 15.0645 11.2685 14.9396 11.478 14.7363C11.6972 14.5235 11.8335 14.24 11.8647 13.9365V8.29493C11.87 7.11973 11.4077 5.99013 10.5805 5.15528C9.75333 4.3205 8.62782 3.84831 7.45262 3.84278C6.27743 3.83744 5.14786 4.2999 4.31297 5.12696C3.47818 5.95422 3.00594 7.07964 3.00047 8.25489C3.00086 9.56204 3.15279 10.2114 3.31687 10.6875C3.41107 10.9608 3.50195 11.1611 3.62937 11.4834C3.74745 11.7821 3.86811 12.1226 3.96824 12.5508C4.24089 13.6105 4.25359 14.7209 4.0034 15.7861L4.00242 15.7852L2.97508 20.2256C2.85047 20.7635 2.31279 21.098 1.77488 20.9736C1.23696 20.849 0.901438 20.3123 1.02586 19.7744L2.05516 15.332L2.05613 15.3291C2.2325 14.5784 2.22388 13.7956 2.03172 13.0488C2.02965 13.0408 2.02773 13.0325 2.02586 13.0244C1.95508 12.7167 1.86837 12.4701 1.76902 12.2188C1.67679 11.9855 1.53894 11.6667 1.42625 11.3399C1.17663 10.6157 1.00048 9.7389 1.00047 8.25001V8.24512L1.01023 7.92676C1.09638 6.33732 1.76966 4.83174 2.90574 3.70606C4.11748 2.50566 5.75672 1.83493 7.46238 1.84278Z" fill="#E4F2F2"/>
<path d="M19.0962 6.48926C19.4869 6.09903 20.1209 6.09949 20.5112 6.49024C22.1034 8.08456 22.9972 10.2468 22.9966 12.5C22.9958 14.7531 22.1004 16.9145 20.5073 18.5078C20.1169 18.8979 19.4837 18.8978 19.0932 18.5078C18.7027 18.1173 18.7027 17.4833 19.0932 17.0928C20.3114 15.8743 20.996 14.222 20.9966 12.499C20.997 10.7762 20.3134 9.12343 19.0962 7.9043C18.7059 7.51354 18.7054 6.87955 19.0962 6.48926Z" fill="#E4F2F2"/>
<path d="M16.2612 9.3252C16.6478 8.93108 17.2809 8.9251 17.6753 9.31153C18.0998 9.72767 18.4377 10.224 18.6694 10.7715C18.9011 11.3192 19.0229 11.9082 19.0259 12.5029C19.0288 13.0976 18.9132 13.6874 18.687 14.2373C18.4607 14.7872 18.128 15.2876 17.7075 15.708C17.317 16.0983 16.6829 16.0974 16.2925 15.707C15.9024 15.3165 15.9031 14.6833 16.2934 14.293C16.5268 14.0595 16.7117 13.7818 16.8374 13.4766C16.9631 13.1711 17.0275 12.8431 17.0259 12.5127C17.0242 12.1824 16.9563 11.855 16.8276 11.5508C16.6989 11.2467 16.5107 10.9704 16.2749 10.7393C15.8808 10.3527 15.8749 9.71957 16.2612 9.3252Z" fill="#E4F2F2"/>
</svg>
