<svg width="24" height="24" viewBox="0 0 24 24" fill="none" xmlns="http://www.w3.org/2000/svg">
<path d="M21.2925 17.293C21.683 16.9025 22.316 16.9026 22.7066 17.293C23.0971 17.6835 23.0971 18.3165 22.7066 18.707L18.7066 22.707C18.316 23.0974 17.683 23.0975 17.2925 22.707L15.2925 20.707C14.9022 20.3165 14.9022 19.6835 15.2925 19.293C15.683 18.9025 16.316 18.9026 16.7066 19.293L17.9995 20.5859L21.2925 17.293Z" fill="#E4F2F2"/>
<path fill-rule="evenodd" clip-rule="evenodd" d="M11.9995 3C12.3783 3 12.7247 3.21402 12.8941 3.55273L18.8941 15.5527C19.1411 16.0467 18.9408 16.6475 18.4468 16.8945C17.9529 17.1413 17.352 16.9412 17.105 16.4473L15.3814 13H8.6177L6.89407 16.4473C6.64704 16.9412 6.04621 17.1415 5.55227 16.8945C5.05852 16.6475 4.85816 16.0466 5.10501 15.5527L11.105 3.55273L11.1763 3.43164C11.3612 3.16376 11.6682 3.0001 11.9995 3ZM9.6177 11H14.3814L11.9995 6.23633L9.6177 11Z" fill="#E4F2F2"/>
</svg>
