<svg width="24" height="24" viewBox="0 0 24 24" fill="none" xmlns="http://www.w3.org/2000/svg">
<path fill-rule="evenodd" clip-rule="evenodd" d="M12.0351 1.00098C12.0488 1.00143 12.0625 1.00191 12.0762 1.00293C12.0969 1.00448 12.1173 1.00697 12.1377 1.00977C12.1537 1.01196 12.1696 1.0146 12.1855 1.01758C12.2043 1.0211 12.2228 1.02571 12.2412 1.03027C12.2542 1.03349 12.2673 1.03629 12.2803 1.04004C12.3018 1.04631 12.3228 1.05387 12.3437 1.06152C12.3557 1.0659 12.368 1.06937 12.3799 1.07422C12.3966 1.08109 12.4124 1.08992 12.4287 1.09766C12.4426 1.10426 12.457 1.1099 12.4707 1.11719L20.9609 5.64551L21.498 5.33496C21.9757 5.05789 22.5881 5.22057 22.8652 5.69824C23.1423 6.17595 22.9796 6.78832 22.5019 7.06543L22 7.35645V16.6436L22.5019 16.9355C22.9794 17.2127 23.1421 17.8242 22.8652 18.3018C22.5881 18.7793 21.9757 18.9421 21.498 18.665L20.9609 18.3535L12.4707 22.8828C12.4609 22.888 12.4503 22.8916 12.4404 22.8965C12.418 22.9075 12.3954 22.9184 12.3721 22.9277C12.3588 22.933 12.3454 22.9377 12.332 22.9424C12.3093 22.9504 12.2862 22.9575 12.2627 22.9639C12.2497 22.9674 12.2367 22.9706 12.2236 22.9736C12.2002 22.979 12.1764 22.9827 12.1523 22.9863C12.1386 22.9884 12.1251 22.9916 12.1113 22.9932C12.0748 22.9972 12.0375 23 12 23C11.9627 23 11.9259 22.9972 11.8896 22.9932C11.8743 22.9915 11.859 22.9888 11.8437 22.9863C11.8213 22.9828 11.7992 22.9786 11.7773 22.9736C11.7639 22.9706 11.7506 22.9675 11.7373 22.9639C11.7138 22.9575 11.6907 22.9504 11.668 22.9424C11.6546 22.9377 11.6411 22.933 11.6279 22.9277C11.6053 22.9186 11.5833 22.9081 11.5615 22.8975C11.551 22.8923 11.5396 22.8883 11.5293 22.8828L3.03807 18.3535L2.50194 18.665C2.02425 18.9419 1.41179 18.7794 1.13475 18.3018C0.857953 17.8243 1.02086 17.2128 1.49804 16.9355L1.99999 16.6436V7.35645L1.49804 7.06543C1.02055 6.78833 0.857926 6.17587 1.13475 5.69824C1.41184 5.22061 2.02425 5.05799 2.50194 5.33496L3.03807 5.64551L11.5293 1.11719L11.5547 1.10547C11.5817 1.09197 11.6093 1.07941 11.6377 1.06836L11.6426 1.06641C11.646 1.06508 11.6498 1.06379 11.6533 1.0625C11.6786 1.05313 11.7042 1.04444 11.7305 1.03711C11.7418 1.03393 11.7532 1.0311 11.7646 1.02832C11.7868 1.02296 11.8093 1.0185 11.832 1.01465C11.8427 1.01281 11.8535 1.01125 11.8642 1.00977C11.8868 1.00669 11.9096 1.00447 11.9326 1.00293C11.9469 1.00194 11.9612 1.00135 11.9756 1.00098C11.9837 1.00078 11.9918 1 12 1C12.0117 1 12.0236 1.00058 12.0351 1.00098ZM5.07421 17.1719L11 20.3311V18.1064L7.0244 16.0391L5.07421 17.1719ZM13 18.1064V20.3311L18.9248 17.1719L16.9736 16.04L13 18.1064ZM9.07421 14.8506L11 15.8516V13.7344L9.07421 14.8506ZM13 15.8516L14.9238 14.8506L13 13.7354V15.8516ZM3.99999 15.4834L5.99999 14.3223V9.6748L3.99999 8.51562V15.4834ZM18 9.6748V14.3232L20 15.4834V8.51562L18 9.6748ZM13.9922 11.999L16 13.1631V10.834L13.9922 11.999ZM7.99999 13.1621L10.0058 11.999L7.99999 10.835V13.1621ZM9.07616 9.14648L11 10.2627V8.14648L9.07616 9.14648ZM13 10.2617L14.9228 9.14648L13 8.14648V10.2617ZM5.07323 6.82617L7.02636 7.95898L11 5.89258V3.66602L5.07323 6.82617ZM13 5.89258L16.9717 7.95801L18.9258 6.82617L13 3.66602V5.89258Z" fill="#E4F2F2"/>
</svg>
