<svg width="24" height="24" viewBox="0 0 24 24" fill="none" xmlns="http://www.w3.org/2000/svg">
<path fill-rule="evenodd" clip-rule="evenodd" d="M16.6484 1.06301C17.1653 0.869196 17.7423 1.13141 17.9365 1.64797L19.4365 5.64797C19.5522 5.95651 19.5082 6.30277 19.3193 6.57278L16.3262 10.8472C16.3365 10.858 16.3471 10.8685 16.3574 10.8794L19.3818 10.1236L21.168 7.44485C21.4742 6.98559 22.0952 6.86159 22.5547 7.1675C23.0142 7.47382 23.1383 8.09471 22.832 8.55422L20.832 11.5542C20.694 11.7612 20.4835 11.9089 20.2422 11.9693L17.5185 12.6499C17.7034 13.084 17.8348 13.5369 17.9131 13.9995H20C20.3036 13.9995 20.5915 14.1376 20.7812 14.3745L22.7812 16.8745C23.1263 17.3058 23.0563 17.9358 22.625 18.2808C22.1937 18.6258 21.5637 18.5558 21.2187 18.1245L19.5185 15.9995H17.9141C17.8668 16.2786 17.7987 16.5525 17.7129 16.8208L19.7773 19.3697C20.0241 19.6744 20.0697 20.096 19.8945 20.4468L18.8945 22.4468C18.6475 22.9407 18.0467 23.141 17.5527 22.8941C17.0592 22.6469 16.8587 22.0461 17.1055 21.5523L17.8174 20.1275L16.6982 18.7466C16.6376 18.8325 16.5581 18.9448 16.4609 19.0767C16.2314 19.3881 15.9034 19.8145 15.5088 20.2749C14.7446 21.1665 13.6367 22.2993 12.4473 22.8941C12.1658 23.0348 11.8342 23.0348 11.5527 22.8941C10.3634 22.2993 9.2553 21.1664 8.49121 20.2749C8.09673 19.8147 7.76849 19.3881 7.53906 19.0767C7.43992 18.9421 7.35882 18.8283 7.29785 18.7417L6.18164 20.1265L6.89453 21.5523C7.14152 22.0462 6.94124 22.6471 6.44726 22.8941C5.95331 23.141 5.35243 22.9407 5.10546 22.4468L4.10546 20.4468C3.93068 20.0967 3.97598 19.6762 4.22167 19.3716L6.28417 16.814C6.19952 16.5479 6.13277 16.2761 6.08593 15.9995H4.48144L2.78124 18.1245C2.43624 18.5558 1.80626 18.6258 1.37499 18.2808C0.944142 17.9357 0.873857 17.3056 1.21874 16.8745L3.21874 14.3745L3.29492 14.2905C3.48109 14.1054 3.73441 13.9996 3.99999 13.9995H6.08789C6.16616 13.537 6.29667 13.0839 6.48144 12.6499L3.75781 11.9693C3.51667 11.9089 3.30586 11.7611 3.16796 11.5542L1.16796 8.55422C0.862043 8.09476 0.985991 7.47376 1.44531 7.1675C1.90467 6.86126 2.52556 6.98572 2.83203 7.44485L4.61718 10.1236L7.64257 10.8784C7.65238 10.8681 7.66296 10.8585 7.67285 10.8482L4.68066 6.57278C4.49202 6.30282 4.44782 5.95637 4.56347 5.64797L6.06347 1.64797C6.25755 1.13141 6.83476 0.869513 7.35156 1.06301C7.86837 1.25701 8.1302 1.83415 7.93652 2.3511L6.62109 5.85696L8.99999 9.25539V7.99953C9.00006 7.54846 9.10428 7.10895 9.29492 6.70949C9.11276 6.52837 8.99999 6.2767 8.99999 5.99953V4.99953C9.00024 4.44759 9.44804 3.99974 9.99999 3.99953C10.5521 3.99953 10.9997 4.44746 11 4.99953V5.17434C11.3184 5.06153 11.6557 4.99958 12 4.99953L12.2969 5.01418C12.5379 5.03814 12.774 5.09241 13 5.17239V4.99953C13.0002 4.44759 13.448 3.99974 14 3.99953C14.5521 3.99953 14.9997 4.44746 15 4.99953V5.99953C15 6.27715 14.8868 6.52831 14.7041 6.70949C14.8949 7.10913 14.9999 7.5482 15 7.99953V9.25442L17.3779 5.85696L16.0635 2.3511C15.87 1.83428 16.1318 1.25705 16.6484 1.06301ZM12 10.9995C11.2573 10.9996 10.5292 11.2068 9.89746 11.5972C9.26565 11.9877 8.75407 12.5462 8.42187 13.2105C8.08973 13.8747 7.94999 14.6192 8.0166 15.3589C8.05469 15.7811 8.16058 16.1927 8.32617 16.5786C8.33355 16.5945 8.34114 16.6103 8.34765 16.6265C8.43138 16.8148 8.5282 16.9975 8.64062 17.1714L8.7998 17.3999L8.83203 17.4448L8.83496 17.4497C8.83782 17.454 8.84327 17.461 8.8496 17.4702C8.86271 17.4895 8.88324 17.5196 8.91015 17.5581C8.96428 17.6357 9.04488 17.7506 9.14843 17.8911C9.35635 18.1733 9.65365 18.5598 10.0088 18.9741C10.6105 19.6761 11.3195 20.381 12 20.8374C12.6807 20.381 13.3894 19.6763 13.9912 18.9741C14.3465 18.5596 14.6436 18.1734 14.8516 17.8911C14.9552 17.7504 15.0357 17.6358 15.0898 17.5581C15.1169 17.5194 15.1372 17.4895 15.1504 17.4702C15.1568 17.4608 15.1621 17.454 15.165 17.4497L15.168 17.4448L15.2002 17.3999C15.3592 17.1879 15.4952 16.9613 15.6084 16.7241C15.6316 16.6429 15.6662 16.5647 15.71 16.4907C15.8546 16.1303 15.9482 15.7493 15.9834 15.3589C16.05 14.6192 15.9103 13.8748 15.5781 13.2105C15.2459 12.5463 14.7343 11.9876 14.1025 11.5972C13.4708 11.2069 12.7426 10.9995 12 10.9995ZM12 6.99953C11.7349 6.99964 11.4804 7.10508 11.293 7.2925C11.1055 7.47993 11.0001 7.73448 11 7.99953V9.08742C11.3292 9.03166 11.6633 8.99956 12 8.99953C12.3365 8.99953 12.6709 9.03172 13 9.08742V7.99953C12.9999 7.73448 12.8945 7.47993 12.707 7.2925C12.5429 7.12861 12.3274 7.02709 12.0986 7.00442L12 6.99953Z" fill="#E4F2F2"/>
</svg>
