<svg width="24" height="24" viewBox="0 0 24 24" fill="none" xmlns="http://www.w3.org/2000/svg">
<path fill-rule="evenodd" clip-rule="evenodd" d="M19.0308 2C19.7486 2.00942 20.44 2.27577 20.9781 2.75098C21.516 3.22614 21.8653 3.87882 21.9634 4.58984C22.0614 5.3009 21.9015 6.02393 21.5122 6.62695C21.1228 7.22994 20.5298 7.67368 19.8413 7.87695L19.8365 7.87891L18.0005 8.41113V14.8379C18.0005 15.0545 18.0707 15.2652 18.2007 15.4385C18.3301 15.6108 18.5115 15.7371 18.7183 15.7979L19.8335 16.1182L19.8365 16.1191C20.5306 16.3203 21.1288 16.7651 21.521 17.3721C21.9133 17.9791 22.073 18.7073 21.9712 19.4229C21.8694 20.1382 21.5132 20.7931 20.9673 21.2666C20.4215 21.7398 19.7229 22.0002 19.0005 22H4.96926C4.25145 21.9906 3.56007 21.7242 3.022 21.249C2.48407 20.7739 2.13474 20.1212 2.03665 19.4102C1.93865 18.6991 2.09855 17.9761 2.48782 17.373C2.87722 16.7701 3.47032 16.3263 4.15872 16.123L4.1636 16.1221L5.99954 15.5889V9.16211C5.99959 8.94549 5.9294 8.73476 5.79934 8.56152C5.66965 8.38888 5.48801 8.26174 5.28079 8.20117L4.16653 7.88184H4.1636C3.46944 7.68067 2.8713 7.23494 2.47903 6.62793C2.08685 6.02092 1.92702 5.29262 2.02883 4.57715C2.13069 3.86179 2.48689 3.20685 3.03274 2.7334C3.57848 2.26017 4.27723 1.99981 4.99954 2H19.0308ZM7.3052 17.293C7.29716 17.2955 7.28891 17.2974 7.28079 17.2998L4.72024 18.043L4.71926 18.042C4.49221 18.1105 4.29721 18.2587 4.16848 18.458C4.03876 18.659 3.98545 18.8997 4.01809 19.1367C4.05079 19.3737 4.16689 19.5916 4.34622 19.75C4.52555 19.9084 4.75639 19.9968 4.99563 20H19.0005C19.2414 20.0002 19.4748 19.9136 19.6568 19.7559C19.8387 19.5981 19.9578 19.3791 19.9917 19.1406C20.0255 18.9023 19.972 18.6592 19.8413 18.457C19.7106 18.2549 19.5111 18.1071 19.2798 18.04L18.1675 17.7207L18.1646 17.7197C17.5402 17.5387 16.9915 17.1595 16.6011 16.6396C16.2108 16.1198 16.0003 15.4869 16.0005 14.8369V14.7705L7.3052 17.293ZM7.99954 11.3105V15.0088L16.0005 12.6885V8.99023L7.99954 11.3105ZM4.99954 4C4.75871 3.99987 4.52526 4.08638 4.34329 4.24414C4.16132 4.40198 4.04227 4.62089 4.00833 4.85938C3.97448 5.09777 4.02804 5.34072 4.15872 5.54297C4.28891 5.74435 4.48726 5.89252 4.71731 5.95996L5.83255 6.28027H5.83547C6.45981 6.46131 7.00859 6.84057 7.39895 7.36035C7.78924 7.88019 7.9998 8.51305 7.99954 9.16309V9.22852L19.2749 5.95898L19.3589 5.92969C19.5524 5.8533 19.7179 5.71797 19.8316 5.54199C19.9613 5.34098 20.0146 5.1003 19.982 4.86328C19.9493 4.62625 19.8332 4.4084 19.6538 4.25C19.497 4.11152 19.3009 4.02617 19.0943 4.00488L19.0044 4H4.99954Z" fill="#E4F2F2"/>
</svg>
