<svg width="24" height="24" viewBox="0 0 24 24" fill="none" xmlns="http://www.w3.org/2000/svg">
<path d="M15.0176 18.6006C15.5478 18.4475 16.1023 18.7541 16.2559 19.2842L16.9609 21.7217C17.1143 22.2522 16.8079 22.8065 16.2774 22.96C15.7469 23.1131 15.1925 22.8078 15.0391 22.2773L14.334 19.8389C14.1812 19.3086 14.4874 18.7539 15.0176 18.6006Z" fill="#E4F2F2"/>
<path d="M16.127 15.5127C16.3961 15.0305 17.0051 14.8579 17.4873 15.127L21.2451 17.2246C21.7274 17.4938 21.9001 18.1037 21.6309 18.5859C21.3615 19.0677 20.7526 19.2398 20.2705 18.9707L16.5127 16.873C16.0306 16.6038 15.8579 15.9949 16.127 15.5127Z" fill="#E4F2F2"/>
<path fill-rule="evenodd" clip-rule="evenodd" d="M8.00001 1C8.55229 1 9.00001 1.44772 9.00001 2V5.89746L14.9639 9.01172C15.4307 9.25019 15.7853 9.66242 15.9512 10.1602C16.1186 10.6628 16.0794 11.2115 15.8428 11.6855L12.7363 17.8975C12.6189 18.1323 12.4562 18.3417 12.2578 18.5137C12.0594 18.6857 11.8283 18.8174 11.5791 18.9004C11.3301 18.9833 11.0665 19.0167 10.8047 18.998C10.5429 18.9793 10.2874 18.9085 10.0527 18.791C10.0477 18.7885 10.0421 18.7858 10.0371 18.7832L3.14747 15.1865L3.13673 15.1807C2.23693 14.6973 1.55566 13.8882 1.23341 12.9189C0.911189 11.9497 0.972015 10.8937 1.40333 9.96777L1.41407 9.94629L2.79395 7.15625L2.8086 7.12793C3.29205 6.22481 4.10388 5.54124 5.07618 5.21875C5.70093 5.01162 6.36162 4.9637 7.00001 5.07129V2C7.00001 1.44776 7.44779 1.00008 8.00001 1ZM7.00001 7.12891C6.58356 6.98219 6.12767 6.97705 5.70509 7.11719C5.21905 7.2785 4.81295 7.62074 4.5713 8.07227L3.21583 10.8115C3.00016 11.2745 2.97071 11.8034 3.13184 12.2881C3.2918 12.769 3.62837 13.1708 4.07325 13.4131L10.9473 17.002L14.0537 10.792C14.0487 10.7895 14.0431 10.7868 14.0381 10.7842L9.00001 8.15234V9C9.00001 9.55229 8.55229 10 8.00001 10C7.44779 9.99992 7.00001 9.55224 7.00001 9V7.12891Z" fill="#E4F2F2"/>
<path d="M21.832 10.9209C22.3737 10.8139 22.8996 11.1665 23.0068 11.708C23.1137 12.2497 22.7614 12.7767 22.2197 12.8838L19.1943 13.4814C18.6527 13.5884 18.1258 13.2359 18.0186 12.6943C17.9115 12.1528 18.2643 11.6269 18.8057 11.5195L21.832 10.9209Z" fill="#E4F2F2"/>
</svg>
