<svg width="24" height="24" viewBox="0 0 24 24" fill="none" xmlns="http://www.w3.org/2000/svg">
<path d="M19 2C19.0349 2 19.0695 2.00139 19.1035 2.00488C19.8615 2.03107 20.583 2.34077 21.1211 2.87891C21.659 3.4168 21.9677 4.13787 21.9941 4.89551C21.9977 4.92987 22 4.9647 22 5V19C22 19.7957 21.6837 20.5585 21.1211 21.1211C20.5585 21.6837 19.7957 22 19 22C18.4477 22 18 21.5523 18 21C18 20.4477 18.4477 20 19 20C19.2652 20 19.5195 19.8946 19.707 19.707C19.8946 19.5195 20 19.2652 20 19V5C20 4.73478 19.8946 4.48051 19.707 4.29297C19.5195 4.10543 19.2652 4 19 4H5C4.73478 4 4.4805 4.10543 4.29297 4.29297C4.10543 4.4805 4 4.73478 4 5V19C4 19.2652 4.10543 19.5195 4.29297 19.707C4.48051 19.8946 4.73478 20 5 20C5.55228 20 6 20.4477 6 21C6 21.5523 5.55228 22 5 22C4.20435 22 3.44151 21.6837 2.87891 21.1211C2.3163 20.5585 2 19.7957 2 19V5C2 4.96473 2.00132 4.92984 2.00488 4.89551C2.03131 4.13786 2.341 3.41681 2.87891 2.87891C3.41681 2.341 4.13786 2.03131 4.89551 2.00488C4.92984 2.00132 4.96473 2 5 2H19Z" fill="#E4F2F2"/>
<path d="M10 20C10.5523 20 11 20.4477 11 21C11 21.5523 10.5523 22 10 22H9C8.44772 22 8 21.5523 8 21C8 20.4477 8.44772 20 9 20H10Z" fill="#E4F2F2"/>
<path d="M15 20C15.5523 20 16 20.4477 16 21C16 21.5523 15.5523 22 15 22H14C13.4477 22 13 21.5523 13 21C13 20.4477 13.4477 20 14 20H15Z" fill="#E4F2F2"/>
<path fill-rule="evenodd" clip-rule="evenodd" d="M16.293 6.29297C16.6835 5.90252 17.3165 5.90252 17.707 6.29297C18.0975 6.68348 18.0975 7.31652 17.707 7.70703L10.8252 14.5879C10.9362 14.8708 11 15.1777 11 15.5C11 16.8807 9.88071 18 8.5 18C7.11929 18 6 16.8807 6 15.5C6 14.1193 7.11929 13 8.5 13C8.82183 13 9.12857 13.0631 9.41113 13.1738L10.5859 12L9.41113 10.8252C9.12848 10.936 8.82196 11 8.5 11C7.11929 11 6 9.88071 6 8.5C6 7.11929 7.11929 6 8.5 6C9.88071 6 11 7.11929 11 8.5C11 8.82196 10.936 9.12848 10.8252 9.41113L12 10.5859L16.293 6.29297ZM8.5 15C8.22386 15 8 15.2239 8 15.5C8 15.7761 8.22386 16 8.5 16C8.77614 16 9 15.7761 9 15.5C9 15.2239 8.77614 15 8.5 15ZM8.5 8C8.22386 8 8 8.22386 8 8.5C8 8.77614 8.22386 9 8.5 9C8.77614 9 9 8.77614 9 8.5C9 8.22386 8.77614 8 8.5 8Z" fill="#E4F2F2"/>
<path d="M14.1133 14.1133C14.5038 13.7228 15.1368 13.7228 15.5273 14.1133L17.707 16.293C18.0972 16.6835 18.0975 17.3166 17.707 17.707C17.3166 18.0975 16.6835 18.0972 16.293 17.707L14.1133 15.5273C13.7228 15.1368 13.7228 14.5038 14.1133 14.1133Z" fill="#E4F2F2"/>
</svg>
