<svg width="24" height="24" viewBox="0 0 24 24" fill="none" xmlns="http://www.w3.org/2000/svg">
<path d="M15.293 7.29297C15.6835 6.90244 16.3165 6.90244 16.707 7.29297C17.0976 7.68349 17.0976 8.31651 16.707 8.70703L10.4141 15H16C16.5523 15 17 15.4477 17 16C17 16.5523 16.5523 17 16 17H8C7.94333 17 7.88808 16.9934 7.83398 16.9844C7.82358 16.9826 7.81309 16.9816 7.80273 16.9795C7.79123 16.9772 7.77991 16.9744 7.76855 16.9717C7.74799 16.9668 7.72732 16.9623 7.70703 16.9561C7.65838 16.9412 7.61159 16.9222 7.56641 16.9004C7.52662 16.8812 7.48768 16.8597 7.4502 16.835C7.31255 16.7441 7.19887 16.6203 7.12012 16.4746C7.11269 16.4609 7.10635 16.4466 7.09961 16.4326C7.0778 16.3873 7.05783 16.3408 7.04297 16.292C7.0303 16.2503 7.02176 16.2077 7.01465 16.165C7.00571 16.1113 7 16.0563 7 16V8C7 7.44772 7.44772 7 8 7C8.55228 7 9 7.44772 9 8V13.5859L15.293 7.29297Z" fill="#E4F2F2"/>
<path fill-rule="evenodd" clip-rule="evenodd" d="M19 2C20.6569 2 22 3.34315 22 5V19C22 20.6569 20.6569 22 19 22H5C3.34315 22 2 20.6569 2 19V5C2 3.34315 3.34315 2 5 2H19ZM5 4C4.44772 4 4 4.44772 4 5V19C4 19.5523 4.44772 20 5 20H19C19.5523 20 20 19.5523 20 19V5C20 4.44772 19.5523 4 19 4H5Z" fill="#E4F2F2"/>
</svg>
