<svg width="24" height="24" viewBox="0 0 24 24" fill="none" xmlns="http://www.w3.org/2000/svg">
<path d="M15.0527 7.06738C15.3157 6.98525 15.5954 6.97698 15.8613 7.04297L15.9746 7.07617L16.084 7.11719C16.3365 7.22391 16.5556 7.39844 16.7168 7.62207C16.9009 7.87746 17 8.18423 17 8.49902V16C17 16.5523 16.5523 17 16 17C15.4477 17 15 16.5523 15 16V9.99902L13.2002 12.3994C13.0605 12.5856 12.8791 12.7367 12.6709 12.8408C12.4626 12.945 12.2329 12.999 12 12.999C11.7671 12.999 11.5374 12.945 11.3291 12.8408C11.1209 12.7367 10.9395 12.5856 10.7998 12.3994L9 10V16C8.99999 16.5523 8.55228 17 8 17C7.44772 17 7.00001 16.5523 7 16V8.5C7 8.18521 7.09914 7.87843 7.2832 7.62305C7.46723 7.36773 7.72685 7.17673 8.02539 7.07715C8.2868 6.99001 8.5668 6.97611 8.83398 7.03711L8.94727 7.06836L9.05859 7.10742C9.27651 7.19483 9.47083 7.33255 9.62598 7.50879L9.7002 7.59961L11.999 10.665L14.2998 7.59863L14.374 7.50781C14.5551 7.30213 14.7897 7.14955 15.0527 7.06738Z" fill="#E4F2F2"/>
<path fill-rule="evenodd" clip-rule="evenodd" d="M19 2C20.6569 2 22 3.34315 22 5V19C22 20.6569 20.6569 22 19 22H5C3.34315 22 2 20.6569 2 19V5C2 3.34315 3.34315 2 5 2H19ZM5 4C4.44772 4 4 4.44772 4 5V19C4 19.5523 4.44772 20 5 20H19C19.5523 20 20 19.5523 20 19V5C20 4.44772 19.5523 4 19 4H5Z" fill="#E4F2F2"/>
</svg>
