<svg width="24" height="24" viewBox="0 0 24 24" fill="none" xmlns="http://www.w3.org/2000/svg">
<path fill-rule="evenodd" clip-rule="evenodd" d="M1.29295 1.29295C1.68348 0.90243 2.31649 0.90243 2.70702 1.29295L3.71874 2.30467C4.11055 2.11409 4.5414 2.00636 4.98534 1.99999H19C19.7954 2.00009 20.5586 2.31645 21.1211 2.87889C21.6836 3.44148 22 4.20443 22 4.99999V19.0039C21.9981 19.453 21.892 19.8897 21.7012 20.2871L22.707 21.293C23.0975 21.6835 23.0975 22.3165 22.707 22.707C22.3165 23.0975 21.6835 23.0975 21.293 22.707L19.707 21.1211C19.7049 21.119 19.7023 21.1173 19.7002 21.1152C19.6958 21.1108 19.6918 21.106 19.6875 21.1015L2.90624 4.3203C2.90412 4.31826 2.9015 4.3165 2.8994 4.31444C2.89462 4.30975 2.89039 4.30455 2.88573 4.29979L1.29295 2.70702C0.90243 2.31649 0.90243 1.68348 1.29295 1.29295ZM8.06346 6.6494C8.20551 6.27007 8.57107 5.99999 8.99999 5.99999H13C14.0608 6.00001 15.078 6.42173 15.8281 7.17186C16.5782 7.922 17 8.93916 17 9.99999C17 11.0608 16.5782 12.078 15.8281 12.8281C15.5572 13.099 15.2509 13.326 14.9209 13.5068L20 18.5859V4.99999C20 4.73486 19.8944 4.48047 19.707 4.29295C19.5196 4.10558 19.265 4.00009 19 3.99999H5.41405L8.06346 6.6494ZM9.99999 8.58592L13.3769 11.9629C13.767 11.8879 14.1292 11.6989 14.414 11.414C14.7891 11.039 15 10.5304 15 9.99999C15 9.46959 14.7891 8.96099 14.414 8.58592C14.039 8.21087 13.5304 8.00001 13 7.99999H9.99999V8.58592Z" fill="#E4F2F2"/>
<path d="M2.99999 7.70018C3.55224 7.70022 3.99999 8.14792 3.99999 8.70018V19C4.00006 19.2651 4.10554 19.5196 4.29295 19.707C4.48047 19.8944 4.73485 20 4.99999 20H15.2998C15.852 20 16.2997 20.4478 16.2998 21C16.2996 21.5521 15.8519 21.9999 15.2998 22H4.99999C4.20442 22 3.44148 21.6836 2.87889 21.1211C2.31641 20.5585 2.00006 19.7955 1.99999 19V8.70018C1.99999 8.1479 2.4477 7.70018 2.99999 7.70018Z" fill="#E4F2F2"/>
<path d="M8.99999 13.7002C9.55224 13.7002 9.99999 14.1479 9.99999 14.7002V17C9.99984 17.5521 9.55215 17.9999 8.99999 18C8.44779 18 8.00013 17.5521 7.99999 17V14.7002C7.99999 14.1479 8.4477 13.7002 8.99999 13.7002Z" fill="#E4F2F2"/>
</svg>
