<svg width="24" height="24" viewBox="0 0 24 24" fill="none" xmlns="http://www.w3.org/2000/svg">
<path d="M16 7C16.5523 7 17 7.44772 17 8V16C17 16.0563 16.9933 16.1112 16.9844 16.165C16.9772 16.2078 16.9688 16.2503 16.9561 16.292C16.9412 16.3407 16.9222 16.3874 16.9004 16.4326C16.8936 16.4468 16.8864 16.4607 16.8789 16.4746C16.8002 16.6201 16.6873 16.7442 16.5498 16.835C16.5121 16.8599 16.4727 16.8811 16.4326 16.9004C16.3874 16.9222 16.3407 16.9412 16.292 16.9561C16.2717 16.9622 16.251 16.9668 16.2305 16.9717C16.2191 16.9744 16.2078 16.9772 16.1963 16.9795C16.1859 16.9816 16.1754 16.9826 16.165 16.9844C16.1112 16.9933 16.0563 17 16 17H8C7.44772 17 7 16.5523 7 16C7 15.4477 7.44772 15 8 15H13.5859L7.29297 8.70703C6.90244 8.31651 6.90244 7.68349 7.29297 7.29297C7.68349 6.90244 8.31651 6.90244 8.70703 7.29297L15 13.5859V8C15 7.44772 15.4477 7 16 7Z" fill="#E4F2F2"/>
<path fill-rule="evenodd" clip-rule="evenodd" d="M19 2C20.6569 2 22 3.34315 22 5V19C22 20.6569 20.6569 22 19 22H5C3.34315 22 2 20.6569 2 19V5C2 3.34315 3.34315 2 5 2H19ZM5 4C4.44772 4 4 4.44772 4 5V19C4 19.5523 4.44772 20 5 20H19C19.5523 20 20 19.5523 20 19V5C20 4.44772 19.5523 4 19 4H5Z" fill="#E4F2F2"/>
</svg>
