<svg width="24" height="24" viewBox="0 0 24 24" fill="none" xmlns="http://www.w3.org/2000/svg">
<path d="M16 7C16.5523 7 17 7.44772 17 8C17 8.55228 16.5523 9 16 9H10.4141L16.707 15.293C17.0976 15.6835 17.0976 16.3165 16.707 16.707C16.3165 17.0976 15.6835 17.0976 15.293 16.707L9 10.4141V16C9 16.5523 8.55228 17 8 17C7.44772 17 7 16.5523 7 16V8C7 7.9203 7.00973 7.84287 7.02734 7.76855C7.03221 7.748 7.03678 7.7273 7.04297 7.70703C7.05787 7.65828 7.07777 7.61167 7.09961 7.56641C7.11877 7.52662 7.1403 7.48768 7.16504 7.4502C7.2557 7.31279 7.37904 7.19886 7.52441 7.12012C7.53816 7.11268 7.5524 7.10635 7.56641 7.09961C7.61167 7.07777 7.65828 7.05787 7.70703 7.04297C7.7273 7.03678 7.748 7.03221 7.76855 7.02734C7.7799 7.02465 7.79124 7.02183 7.80273 7.01953L7.80859 7.01855L7.89746 7.00488C7.93116 7.00145 7.96539 7 8 7H16Z" fill="#E4F2F2"/>
<path fill-rule="evenodd" clip-rule="evenodd" d="M19 2C20.6569 2 22 3.34315 22 5V19C22 20.6569 20.6569 22 19 22H5C3.34315 22 2 20.6569 2 19V5C2 3.34315 3.34315 2 5 2H19ZM5 4C4.44772 4 4 4.44772 4 5V19C4 19.5523 4.44772 20 5 20H19C19.5523 20 20 19.5523 20 19V5C20 4.44772 19.5523 4 19 4H5Z" fill="#E4F2F2"/>
</svg>
