<svg width="24" height="24" viewBox="0 0 24 24" fill="none" xmlns="http://www.w3.org/2000/svg">
<path d="M16 7C16.0563 7 16.1113 7.00571 16.165 7.01465C16.1738 7.01611 16.1827 7.01686 16.1914 7.01855L16.2012 7.02051C16.211 7.02252 16.2207 7.02504 16.2305 7.02734C16.251 7.0322 16.2717 7.0368 16.292 7.04297C16.3408 7.05783 16.3873 7.0778 16.4326 7.09961C16.4466 7.10635 16.4609 7.11269 16.4746 7.12012C16.6203 7.19887 16.7441 7.31255 16.835 7.4502C16.8597 7.48768 16.8812 7.52662 16.9004 7.56641C16.9222 7.61159 16.9412 7.65838 16.9561 7.70703C16.9623 7.72732 16.9668 7.74799 16.9717 7.76855C16.9893 7.84294 17 7.92022 17 8V16C17 16.5523 16.5523 17 16 17C15.4477 17 15 16.5523 15 16V10.4141L8.70703 16.707C8.31651 17.0976 7.68349 17.0976 7.29297 16.707C6.90244 16.3165 6.90244 15.6835 7.29297 15.293L13.5859 9H8C7.44772 9 7 8.55228 7 8C7 7.44772 7.44772 7 8 7H16Z" fill="#E4F2F2"/>
<path fill-rule="evenodd" clip-rule="evenodd" d="M19 2C20.6569 2 22 3.34315 22 5V19C22 20.6569 20.6569 22 19 22H5C3.34315 22 2 20.6569 2 19V5C2 3.34315 3.34315 2 5 2H19ZM5 4C4.44772 4 4 4.44772 4 5V19C4 19.5523 4.44772 20 5 20H19C19.5523 20 20 19.5523 20 19V5C20 4.44772 19.5523 4 19 4H5Z" fill="#E4F2F2"/>
</svg>
