<svg width="24" height="24" viewBox="0 0 24 24" fill="none" xmlns="http://www.w3.org/2000/svg">
<path fill-rule="evenodd" clip-rule="evenodd" d="M17 6C17.5523 6 18 6.44772 18 7C18 7.55228 17.5523 8 17 8V17C17 17.5523 16.5523 18 16 18C15.4477 18 15 17.5523 15 17V8H13V17C13 17.5523 12.5523 18 12 18C11.4477 18 11 17.5523 11 17V13H9.5C8.57174 13 7.68177 12.631 7.02539 11.9746C6.4101 11.3593 6.04688 10.5388 6.00391 9.67383L6 9.5C6 8.57174 6.36901 7.68177 7.02539 7.02539C7.68177 6.36901 8.57174 6 9.5 6H17ZM9.5 8C9.10218 8 8.72076 8.15815 8.43945 8.43945C8.15815 8.72076 8 9.10218 8 9.5L8.00781 9.64844C8.04195 9.99174 8.19337 10.3145 8.43945 10.5605C8.72076 10.8419 9.10218 11 9.5 11H11V8H9.5Z" fill="#E4F2F2"/>
<path fill-rule="evenodd" clip-rule="evenodd" d="M19 2C20.6569 2 22 3.34315 22 5V19C22 20.6569 20.6569 22 19 22H5C3.34315 22 2 20.6569 2 19V5C2 3.34315 3.34315 2 5 2H19ZM5 4C4.44772 4 4 4.44772 4 5V19C4 19.5523 4.44772 20 5 20H19C19.5523 20 20 19.5523 20 19V5C20 4.44772 19.5523 4 19 4H5Z" fill="#E4F2F2"/>
</svg>
