<svg width="24" height="24" viewBox="0 0 24 24" fill="none" xmlns="http://www.w3.org/2000/svg">
<path fill-rule="evenodd" clip-rule="evenodd" d="M16.293 6.29297C16.6835 5.90252 17.3165 5.90252 17.707 6.29297C18.0975 6.68348 18.0975 7.31652 17.707 7.70703L10.8252 14.5879C10.9362 14.8708 11 15.1777 11 15.5C11 16.8807 9.88071 18 8.5 18C7.11929 18 6 16.8807 6 15.5C6 14.1193 7.11929 13 8.5 13C8.82183 13 9.12857 13.0631 9.41113 13.1738L10.5859 12L9.41113 10.8252C9.12848 10.936 8.82196 11 8.5 11C7.11929 11 6 9.88071 6 8.5C6 7.11929 7.11929 6 8.5 6C9.88071 6 11 7.11929 11 8.5C11 8.82196 10.936 9.12848 10.8252 9.41113L12 10.5859L16.293 6.29297ZM8.5 15C8.22386 15 8 15.2239 8 15.5C8 15.7761 8.22386 16 8.5 16C8.77614 16 9 15.7761 9 15.5C9 15.2239 8.77614 15 8.5 15ZM8.5 8C8.22386 8 8 8.22386 8 8.5C8 8.77614 8.22386 9 8.5 9C8.77614 9 9 8.77614 9 8.5C9 8.22386 8.77614 8 8.5 8Z" fill="#E4F2F2"/>
<path d="M14.1133 14.1133C14.5038 13.7228 15.1368 13.7228 15.5273 14.1133L17.707 16.293C18.0972 16.6835 18.0975 17.3166 17.707 17.707C17.3166 18.0975 16.6835 18.0972 16.293 17.707L14.1133 15.5273C13.7228 15.1368 13.7228 14.5038 14.1133 14.1133Z" fill="#E4F2F2"/>
<path fill-rule="evenodd" clip-rule="evenodd" d="M19 2C20.6569 2 22 3.34315 22 5V19C22 20.6569 20.6569 22 19 22H5C3.34315 22 2 20.6569 2 19V5C2 3.34315 3.34315 2 5 2H19ZM5 4C4.44772 4 4 4.44772 4 5V19C4 19.5523 4.44772 20 5 20H19C19.5523 20 20 19.5523 20 19V5C20 4.44772 19.5523 4 19 4H5Z" fill="#E4F2F2"/>
</svg>
