<svg width="24" height="24" viewBox="0 0 24 24" fill="none" xmlns="http://www.w3.org/2000/svg">
<path d="M15 12C15.5523 12 16 12.4477 16 13C16 13.5523 15.5523 14 15 14H11C10.4477 14 10 13.5523 10 13C10 12.4477 10.4477 12 11 12H15Z" fill="#E4F2F2"/>
<path d="M6.29297 6.29297C6.68349 5.90244 7.31651 5.90244 7.70703 6.29297L9.70703 8.29297C10.0976 8.68349 10.0976 9.31651 9.70703 9.70703L7.70703 11.707C7.31651 12.0976 6.68349 12.0976 6.29297 11.707C5.90244 11.3165 5.90244 10.6835 6.29297 10.293L7.58594 9L6.29297 7.70703C5.90244 7.31651 5.90244 6.68349 6.29297 6.29297Z" fill="#E4F2F2"/>
<path fill-rule="evenodd" clip-rule="evenodd" d="M19 2C20.6569 2 22 3.34315 22 5V19C22 20.6569 20.6569 22 19 22H5C3.34315 22 2 20.6569 2 19V5C2 3.34315 3.34315 2 5 2H19ZM5 4C4.44772 4 4 4.44772 4 5V19C4 19.5523 4.44772 20 5 20H19C19.5523 20 20 19.5523 20 19V5C20 4.44772 19.5523 4 19 4H5Z" fill="#E4F2F2"/>
</svg>
