<svg width="24" height="24" viewBox="0 0 24 24" fill="none" xmlns="http://www.w3.org/2000/svg">
<path d="M13.7178 19.957C14.269 19.9276 14.7398 20.3511 14.7695 20.9024C14.7989 21.4534 14.3763 21.9251 13.8252 21.9551C12.6102 22.0207 11.3918 22.021 10.1768 21.9561C9.62556 21.9264 9.20223 21.4545 9.23144 20.9033C9.26109 20.352 9.73279 19.9286 10.2842 19.958C11.4277 20.0191 12.5743 20.0188 13.7178 19.957Z" fill="#E4F2F2"/>
<path d="M19.2656 17.334C19.4896 16.8294 20.0812 16.6014 20.5859 16.8252C21.0904 17.0491 21.3182 17.6399 21.0947 18.1445C20.4842 19.5212 19.5221 20.4831 18.1465 21.0938C17.6418 21.3174 17.0511 21.0896 16.8271 20.585C16.6033 20.0802 16.8312 19.4897 17.3359 19.2656C18.2579 18.8563 18.8562 18.257 19.2656 17.334Z" fill="#E4F2F2"/>
<path d="M3.41406 16.8262C3.9186 16.6022 4.51007 16.8296 4.73437 17.334C5.1441 18.2563 5.74277 18.8567 6.66406 19.2637C7.16905 19.4868 7.39758 20.077 7.1748 20.582C6.95166 21.0872 6.3616 21.3158 5.85644 21.0928C4.4779 20.4838 3.51649 19.5201 2.90625 18.1465C2.68221 17.6419 2.90952 17.0504 3.41406 16.8262Z" fill="#E4F2F2"/>
<path d="M3.09472 9.23048C3.64614 9.25919 4.06957 9.72983 4.04101 10.2813C3.98165 11.426 3.982 12.5731 4.04199 13.7178C4.07091 14.2693 3.64723 14.7406 3.0957 14.7695C2.54464 14.798 2.07402 14.3743 2.04492 13.8233C1.98127 12.6091 1.98098 11.3919 2.04394 10.1777C2.07258 9.62637 2.54338 9.20211 3.09472 9.23048Z" fill="#E4F2F2"/>
<path d="M20.9033 9.23048C21.4548 9.20086 21.9264 9.62437 21.9561 10.1758C22.0213 11.3906 22.0213 12.6084 21.9561 13.8233C21.9264 14.3747 21.4548 14.7972 20.9033 14.7676C20.3519 14.7379 19.9284 14.2673 19.958 13.7158C20.0194 12.5725 20.0194 11.4266 19.958 10.2832C19.9284 9.73181 20.3519 9.26017 20.9033 9.23048Z" fill="#E4F2F2"/>
<path d="M5.85449 2.90529C6.35918 2.68144 6.95074 2.90946 7.1748 3.41407C7.39843 3.91866 7.17045 4.50934 6.66601 4.73341C5.74371 5.14279 5.14379 5.74281 4.73437 6.66505C4.5104 7.16964 3.9197 7.39745 3.41504 7.17384C2.91024 6.94978 2.68219 6.35832 2.90625 5.85353C3.51682 4.47816 4.47907 3.51581 5.85449 2.90529Z" fill="#E4F2F2"/>
<path d="M16.8262 3.41505C17.0501 2.91049 17.6407 2.68265 18.1455 2.90626C19.5214 3.51583 20.4832 4.47834 21.0937 5.85255C21.3179 6.35719 21.0905 6.9476 20.5859 7.17189C20.0812 7.39602 19.4908 7.16875 19.2666 6.66407C18.8572 5.74264 18.2568 5.14275 17.335 4.73439C16.8302 4.5106 16.6025 3.91991 16.8262 3.41505Z" fill="#E4F2F2"/>
<path d="M10.1787 2.04396C11.3923 1.98072 12.6087 1.9807 13.8223 2.04396C14.3735 2.07288 14.798 2.54349 14.7695 3.09474C14.7406 3.64583 14.2698 4.06938 13.7187 4.04103C12.5744 3.98137 11.4266 3.98138 10.2822 4.04103C9.73097 4.0696 9.26042 3.64595 9.23144 3.09474C9.2029 2.54336 9.6273 2.0727 10.1787 2.04396Z" fill="#E4F2F2"/>
</svg>
