<svg width="24" height="24" viewBox="0 0 24 24" fill="none" xmlns="http://www.w3.org/2000/svg">
<path d="M22 4C22.5523 4 23 4.44772 23 5C23 5.55228 22.5523 6 22 6H18V10C18 10.5523 17.5523 11 17 11H13V15C13 15.5523 12.5523 16 12 16H8V20C8 20.5523 7.55228 21 7 21H2C1.44772 21 1 20.5523 1 20C1 19.4477 1.44772 19 2 19H6V15C6 14.4477 6.44772 14 7 14H11V10C11 9.44771 11.4477 9 12 9H16V5C16 4.44772 16.4477 4 17 4H22Z" fill="#E4F2F2"/>
<path d="M12 1C12.0563 1 12.1113 1.00571 12.165 1.01465C12.1738 1.01611 12.1827 1.01686 12.1914 1.01855L12.2012 1.02051C12.211 1.02252 12.2207 1.02504 12.2305 1.02734C12.251 1.0322 12.2717 1.0368 12.292 1.04297C12.3408 1.05783 12.3873 1.0778 12.4326 1.09961C12.4466 1.10634 12.4609 1.11269 12.4746 1.12012C12.6203 1.19887 12.7441 1.31255 12.835 1.4502C12.8597 1.48768 12.8812 1.52662 12.9004 1.56641C12.9222 1.61159 12.9412 1.65838 12.9561 1.70703C12.9623 1.72732 12.9668 1.74799 12.9717 1.76855C12.9893 1.84294 13 1.92022 13 2V6C13 6.55228 12.5523 7 12 7C11.4477 7 11 6.55228 11 6V4.41406L3.70703 11.707C3.31651 12.0976 2.68349 12.0976 2.29297 11.707C1.90244 11.3165 1.90244 10.6835 2.29297 10.293L9.58594 3H8C7.44772 3 7 2.55228 7 2C7 1.44772 7.44772 1 8 1H12Z" fill="#E4F2F2"/>
</svg>
