<svg width="24" height="24" viewBox="0 0 24 24" fill="none" xmlns="http://www.w3.org/2000/svg">
<path fill-rule="evenodd" clip-rule="evenodd" d="M12 1C13.3132 1 14.6139 1.2582 15.8271 1.76074C17.0404 2.26329 18.1427 3.00015 19.0713 3.92871C19.9998 4.85727 20.7367 5.95964 21.2393 7.17285C21.7418 8.38611 22 9.68678 22 11V21C22 21.5523 21.5523 22 21 22H3C2.44772 22 2 21.5523 2 21V11C2 9.68678 2.2582 8.38611 2.76074 7.17285C3.26329 5.95964 4.00015 4.85727 4.92871 3.92871C5.85727 3.00015 6.95964 2.26329 8.17285 1.76074C9.38611 1.2582 10.6868 1 12 1ZM4 18V20H20V18H4ZM12 3C10.9494 3 9.90908 3.20734 8.93848 3.60938C7.96795 4.01141 7.08559 4.59995 6.34277 5.34277C5.59995 6.08559 5.01141 6.96795 4.60938 7.93848C4.20734 8.90908 4 9.94942 4 11V16H7V13C7 12.4477 7.44772 12 8 12H11V9C11 8.44772 11.4477 8 12 8H19.415C19.4068 7.97955 19.3991 7.95886 19.3906 7.93848C18.9886 6.96795 18.4 6.08559 17.6572 5.34277C16.9144 4.59995 16.0321 4.01141 15.0615 3.60938C14.0909 3.20734 13.0506 3 12 3ZM9 16H20V14H9V16ZM13 12H20V11L19.9902 10.6064C19.9802 10.4034 19.9609 10.2013 19.9355 10H13V12Z" fill="#E4F2F2"/>
</svg>
