<svg width="24" height="24" viewBox="0 0 24 24" fill="none" xmlns="http://www.w3.org/2000/svg">
<path fill-rule="evenodd" clip-rule="evenodd" d="M22 3C22.5523 3 23 3.44772 23 4V20C23 20.5523 22.5523 21 22 21H2C1.44772 21 1 20.5523 1 20V16C1 15.4477 1.44772 15 2 15H3V12C3 11.4477 3.44772 11 4 11H5V8C5 7.44772 5.44772 7 6 7H7V4C7 3.44772 7.44772 3 8 3H22ZM19 8C19 8.55228 18.5523 9 18 9H17V12C17 12.5523 16.5523 13 16 13H15V16C15 16.5523 14.5523 17 14 17H13V19H21V5H19V8ZM3 19H11V17H3V19ZM5 15H13V13H5V15ZM7 11H15V9H7V11ZM9 7H17V5H9V7Z" fill="#E4F2F2"/>
</svg>
