<svg width="24" height="24" viewBox="0 0 24 24" fill="none" xmlns="http://www.w3.org/2000/svg">
<path d="M22 4.00005C22.5523 4.00005 23 4.44776 23 5.00005C23 5.5523 22.5523 6.00005 22 6.00005H18V10C18 10.5523 17.5523 11 17 11H13V15C13 15.5523 12.5523 16 12 16H8V20C7.99996 20.5523 7.55226 21 7 21H2C1.44774 21 1.00004 20.5523 1 20C1 19.4478 1.44772 19 2 19H6V15C6 14.4478 6.44772 14 7 14H11V10C11 9.44776 11.4477 9.00005 12 9.00005H16V5.00005C16 4.44776 16.4477 4.00005 17 4.00005H22Z" fill="#E4F2F2"/>
<path d="M11.293 1.29302C11.6835 0.902491 12.3165 0.902491 12.707 1.29302C13.0975 1.68354 13.0975 2.31657 12.707 2.70708L5.41406 10H7C7.55228 10 8 10.4478 8 11C7.99996 11.5523 7.55226 12 7 12H3L2.89746 11.9952C2.87598 11.993 2.85504 11.9879 2.83398 11.9844C2.82358 11.9827 2.81309 11.9816 2.80273 11.9795C2.79123 11.9772 2.77991 11.9744 2.76855 11.9717C2.74799 11.9668 2.72732 11.9623 2.70703 11.9561C2.6934 11.9519 2.68037 11.9462 2.66699 11.9415C2.64962 11.9353 2.63232 11.929 2.61523 11.9219C2.60634 11.9182 2.59763 11.9142 2.58887 11.9102C2.54128 11.8887 2.49462 11.8643 2.4502 11.835C2.33825 11.7612 2.24237 11.6653 2.16797 11.5538C2.14195 11.5148 2.11956 11.4742 2.09961 11.4327C2.07767 11.3871 2.05788 11.3402 2.04297 11.2911C2.0379 11.2743 2.03445 11.2572 2.03027 11.2403C2.01125 11.1632 2.00001 11.083 2 11V7.00005C2 6.44776 2.44772 6.00005 3 6.00005C3.55228 6.00005 4 6.44776 4 7.00005V8.58598L11.293 1.29302Z" fill="#E4F2F2"/>
</svg>
