<svg width="24" height="24" viewBox="0 0 24 24" fill="none" xmlns="http://www.w3.org/2000/svg">
<path d="M12 2C12.5523 2 13 2.44772 13 3V9.58594L16.293 6.29297C16.6835 5.90244 17.3165 5.90244 17.707 6.29297C18.0976 6.68349 18.0976 7.31651 17.707 7.70703L14.4141 11H21C21.5523 11 22 11.4477 22 12C22 12.5523 21.5523 13 21 13H14.4141L17.707 16.293C18.0976 16.6835 18.0976 17.3165 17.707 17.707C17.3165 18.0976 16.6835 18.0976 16.293 17.707L13 14.4141V21C13 21.5523 12.5523 22 12 22C11.4477 22 11 21.5523 11 21V14.4141L7.70703 17.707C7.31651 18.0976 6.68349 18.0976 6.29297 17.707C5.90244 17.3165 5.90244 16.6835 6.29297 16.293L9.58594 13H3C2.44772 13 2 12.5523 2 12C2 11.4477 2.44772 11 3 11H9.58594L6.29297 7.70703C5.90244 7.31651 5.90244 6.68349 6.29297 6.29297C6.68349 5.90244 7.31651 5.90244 7.70703 6.29297L11 9.58594V3C11 2.44772 11.4477 2 12 2Z" fill="#E4F2F2"/>
</svg>
