<svg width="24" height="24" viewBox="0 0 24 24" fill="none" xmlns="http://www.w3.org/2000/svg">
<path fill-rule="evenodd" clip-rule="evenodd" d="M12.2119 1.01465C12.4223 1.04409 12.6249 1.11764 12.8066 1.23047C12.9884 1.34333 13.144 1.4925 13.2637 1.66797L13.3711 1.85156L15.6816 6.53125C15.7621 6.69384 15.8807 6.83465 16.0273 6.94141C16.1743 7.04826 16.3456 7.11813 16.5254 7.14453L21.6904 7.90039C21.9022 7.93111 22.1033 8.00618 22.2832 8.11914L22.456 8.24414L22.6084 8.39258C22.7031 8.49816 22.7825 8.61663 22.8447 8.74414L22.9248 8.94141L22.9766 9.14844C23.0135 9.3576 23.0063 9.57351 22.9551 9.78125C22.8867 10.0582 22.7423 10.3106 22.5381 10.5098L22.5371 10.5107L18.8018 14.1484C18.6716 14.2753 18.5739 14.4317 18.5176 14.6045C18.4614 14.7772 18.4481 14.9615 18.4785 15.1406L19.3594 20.2764L19.3818 20.4893C19.3892 20.7025 19.352 20.9159 19.2715 21.1152C19.164 21.3811 18.984 21.6118 18.7519 21.7803C18.5199 21.9487 18.245 22.0485 17.959 22.0684C17.6729 22.0882 17.3869 22.0273 17.1338 21.8926L12.5205 19.4668C12.3598 19.3825 12.1805 19.3389 11.999 19.3389C11.8177 19.3389 11.6391 19.3827 11.4785 19.4668L6.8623 21.8926L6.86327 21.8936C6.61027 22.0274 6.32457 22.0877 6.03905 22.0674C5.75368 22.047 5.47945 21.9475 5.24804 21.7793C5.0166 21.6109 4.83681 21.3805 4.72948 21.1152C4.64898 20.916 4.61185 20.7024 4.61913 20.4893L4.64062 20.2773L5.52148 15.1416C5.55215 14.9624 5.53859 14.7784 5.48241 14.6055C5.44023 14.4758 5.375 14.3547 5.29003 14.249L5.19823 14.1484L1.46191 10.5117L1.46288 10.5107C1.25837 10.3121 1.113 10.0608 1.04394 9.78418C0.974608 9.5062 0.983851 9.21392 1.07226 8.94141L1.15234 8.74316C1.24585 8.55131 1.37932 8.38049 1.54394 8.24219C1.76325 8.05796 2.02988 7.93861 2.31347 7.89844L7.4746 7.14453L7.60741 7.11621C7.73838 7.08062 7.86224 7.0216 7.97265 6.94141C8.11962 6.83462 8.23883 6.69411 8.31933 6.53125L10.6279 1.85254L10.6289 1.85156C10.7553 1.59617 10.9503 1.38087 11.1924 1.23047C11.4346 1.08006 11.7148 1.00002 12 1L12.2119 1.01465ZM17.3896 20.624V20.6191L17.3877 20.6113L17.3896 20.624ZM18.0693 20.125L18.0742 20.127C18.072 20.1258 18.0696 20.1242 18.0674 20.123L18.0693 20.125ZM5.92773 20.126L5.93066 20.125L5.93359 20.123C5.93169 20.124 5.9296 20.125 5.92773 20.126ZM10.1123 7.41602C9.8883 7.86934 9.55749 8.26235 9.14843 8.55957C8.73938 8.85669 8.26393 9.05012 7.76366 9.12305L3.5371 9.74023L6.59374 12.7158C6.95633 13.069 7.22817 13.505 7.38476 13.9863C7.54131 14.4678 7.57769 14.9805 7.49218 15.4795L6.77148 19.6826L10.5478 17.6973C10.9954 17.4623 11.4935 17.3389 11.999 17.3389C12.5046 17.3389 13.0035 17.4613 13.4512 17.6963L17.2285 19.6826L16.5068 15.4795C16.4216 14.9807 16.4597 14.4675 16.6162 13.9863C16.7728 13.5051 17.0438 13.069 17.4062 12.7158L20.46 9.74121L16.2353 9.12305C15.7357 9.04964 15.26 8.85655 14.8516 8.55957C14.443 8.26241 14.1125 7.86989 13.8887 7.41699L11.999 3.5918L10.1123 7.41602Z" fill="#E4F2F2"/>
</svg>
