<svg width="24" height="24" viewBox="0 0 24 24" fill="none" xmlns="http://www.w3.org/2000/svg">
<path fill-rule="evenodd" clip-rule="evenodd" d="M12.1016 1.00488C12.6061 1.05583 13 1.48208 13 2C13 2.44103 12.7137 2.81337 12.3174 2.94629L10.1123 7.41699C9.88839 7.87058 9.55774 8.26326 9.14845 8.56055C8.7391 8.85786 8.2634 9.05138 7.76271 9.12402L7.76173 9.12305L3.5381 9.74121L6.59279 12.7148C6.95584 13.068 7.22809 13.5047 7.38478 13.9863C7.54145 14.4681 7.57809 14.9812 7.4922 15.4805L6.7715 19.6826L10.5449 17.6982L10.7158 17.6143C11.1191 17.4315 11.5577 17.337 12.002 17.3379C12.5541 17.3391 13.001 17.7877 13 18.3398C12.9988 18.892 12.5502 19.3389 11.9981 19.3379C11.8179 19.3375 11.6397 19.3815 11.4805 19.4658L11.4785 19.4668L6.86134 21.8955L6.86037 21.8945C6.60803 22.0274 6.32358 22.0876 6.03908 22.0674C5.75369 22.047 5.47948 21.9475 5.24806 21.7793C5.01658 21.6109 4.83683 21.3806 4.72951 21.1152C4.64909 20.9163 4.612 20.7031 4.61916 20.4902L4.64064 20.2773L5.5215 15.1416L5.53615 15.0068C5.54285 14.8713 5.52463 14.7353 5.48244 14.6055C5.42619 14.4325 5.32861 14.2753 5.19826 14.1484L1.46193 10.5117L1.46291 10.5107C1.25837 10.3121 1.11301 10.0608 1.04396 9.78418C0.9746 9.50615 0.983844 9.21397 1.07228 8.94141L1.15236 8.74316C1.24586 8.55135 1.37937 8.38048 1.54396 8.24219C1.76326 8.05798 2.02993 7.93861 2.31349 7.89844L7.47462 7.14453C7.6542 7.11847 7.82582 7.04896 7.97267 6.94238C8.11964 6.83563 8.23897 6.69415 8.31935 6.53125L10.6279 1.85254L10.6289 1.85156C10.7553 1.59613 10.9503 1.3809 11.1924 1.23047C11.4347 1.08001 11.7148 1.00005 12 1L12.1016 1.00488ZM5.92775 20.126L5.93068 20.125L5.93361 20.123C5.93172 20.124 5.92962 20.125 5.92775 20.126Z" fill="#E4F2F2"/>
</svg>
