<svg width="24" height="24" viewBox="0 0 24 24" fill="none" xmlns="http://www.w3.org/2000/svg">
<path fill-rule="evenodd" clip-rule="evenodd" d="M1.29297 1.29297C1.6835 0.902476 2.31652 0.902455 2.70703 1.29297L22.707 21.293C23.0975 21.6835 23.0975 22.3165 22.707 22.707C22.3165 23.0975 21.6835 23.0975 21.293 22.707L19.3623 20.7764C19.3444 20.8918 19.3157 21.0059 19.2715 21.1152C19.1641 21.3811 18.984 21.6118 18.752 21.7803C18.5199 21.9487 18.245 22.0485 17.959 22.0684C17.6746 22.0881 17.3907 22.0276 17.1387 21.8945L12.5205 19.4668C12.3598 19.3824 12.1805 19.3389 11.999 19.3389C11.8176 19.3389 11.6391 19.3834 11.4785 19.4678L11.4775 19.4668L6.86133 21.8955L6.86035 21.8945C6.60802 22.0274 6.32357 22.0886 6.03906 22.0684C5.75363 22.048 5.4795 21.9476 5.24805 21.7793C5.01652 21.6109 4.83682 21.3806 4.72949 21.1152C4.6222 20.8498 4.59119 20.5593 4.64063 20.2773L5.52149 15.1426C5.55231 14.9634 5.53862 14.7784 5.48242 14.6055C5.42619 14.4325 5.32859 14.2753 5.19824 14.1484L1.46192 10.5117L1.46289 10.5107C1.25837 10.3121 1.11299 10.0608 1.04395 9.78418C0.974593 9.50618 0.983863 9.21394 1.07227 8.94141L1.15235 8.74316C1.24584 8.55142 1.37943 8.38043 1.54395 8.24219C1.76218 8.05891 2.02757 7.94112 2.30957 7.90039L5.95313 7.36719L1.29297 2.70703C0.902446 2.31651 0.902446 1.68349 1.29297 1.29297ZM17.3897 20.624V20.6191L17.3877 20.6113C17.3883 20.6155 17.3889 20.6199 17.3897 20.624ZM5.92774 20.126L5.93067 20.125L5.9336 20.123C5.9317 20.124 5.92961 20.125 5.92774 20.126ZM3.53711 9.74121L6.59375 12.7158C6.95662 13.069 7.22818 13.5057 7.38477 13.9873C7.52173 14.4087 7.56688 14.8539 7.51856 15.293L7.49219 15.4805L6.77149 19.6826L10.5479 17.6973L10.7178 17.6143C11.1199 17.4331 11.5565 17.3389 11.999 17.3389C12.4417 17.3389 12.8789 17.4329 13.2813 17.6143L13.4512 17.6973L17.2285 19.6826L17.0117 18.4258L7.7168 9.13086L3.53711 9.74121Z" fill="#E4F2F2"/>
<path d="M12.2119 1.01465C12.4222 1.04409 12.6249 1.11768 12.8066 1.23047C12.9884 1.34332 13.144 1.49252 13.2637 1.66797L13.3711 1.85156L15.6816 6.53125L15.749 6.64941C15.8231 6.76258 15.9174 6.86237 16.0273 6.94238C16.174 7.049 16.345 7.1183 16.5244 7.14453L21.6904 7.90039C21.9726 7.94134 22.2369 8.0605 22.4551 8.24414C22.6189 8.38216 22.7515 8.553 22.8447 8.74414L22.9248 8.94141L22.9766 9.14844C23.0135 9.3576 23.0063 9.57351 22.9551 9.78125C22.8867 10.0582 22.7423 10.3106 22.5381 10.5098L22.5371 10.5107L19.3008 13.6621C18.9052 14.0473 18.272 14.039 17.8867 13.6436C17.5016 13.2479 17.5097 12.6147 17.9053 12.2295L20.46 9.74121L16.2354 9.12305C15.7351 9.04997 15.2594 8.85692 14.8506 8.55957C14.4418 8.26221 14.1113 7.86935 13.8877 7.41602L11.999 3.5918L11.2402 5.13086C10.9957 5.62571 10.3964 5.8291 9.90137 5.58496C9.40625 5.34048 9.20288 4.74031 9.44727 4.24512L10.6279 1.85254L10.6289 1.85156C10.7553 1.59615 10.9503 1.38087 11.1924 1.23047C11.4346 1.08008 11.7149 1.00004 12 1L12.2119 1.01465Z" fill="#E4F2F2"/>
</svg>
