<svg width="24" height="24" viewBox="0 0 24 24" fill="none" xmlns="http://www.w3.org/2000/svg">
<path fill-rule="evenodd" clip-rule="evenodd" d="M12 1C15.9842 1 19.4733 3.11838 21.4033 6.29004C21.4661 6.3523 21.5224 6.4234 21.5684 6.50391C21.613 6.58199 21.6442 6.66405 21.666 6.74707C22.5161 8.30809 23 10.0974 23 12C23 18.0751 18.0751 23 12 23C5.92487 23 1 18.0751 1 12C1 10.0976 1.48303 8.30799 2.33301 6.74707C2.3548 6.66396 2.38699 6.58207 2.43164 6.50391C2.47752 6.42361 2.53313 6.35218 2.5957 6.29004C4.52569 3.11814 8.01564 1 12 1ZM3.74707 8.40723C3.26725 9.50788 3 10.7226 3 12C3 16.6325 6.50019 20.4448 11 20.9424V14.8252C9.83548 14.413 9 13.3057 9 12C9 11.8081 9.01829 11.6204 9.05273 11.4385L3.74707 8.40723ZM14.9463 11.4385C14.9808 11.6204 15 11.808 15 12C15 13.3057 14.1645 14.413 13 14.8252V20.9424C17.4998 20.4448 21 16.6325 21 12C21 10.7225 20.7319 9.50798 20.252 8.40723L14.9463 11.4385ZM12 11C11.691 11 11.4149 11.1402 11.2314 11.3604C11.2136 11.4063 11.1932 11.452 11.168 11.4961C11.1383 11.548 11.1034 11.5952 11.0664 11.6396C11.0232 11.7514 11 11.873 11 12C11 12.5523 11.4477 13 12 13C12.5523 13 13 12.5523 13 12C13 11.8729 12.9759 11.7515 12.9326 11.6396C12.8958 11.5954 12.8616 11.5478 12.832 11.4961C12.8068 11.4519 12.7854 11.4064 12.7676 11.3604C12.5841 11.1405 12.3087 11 12 11ZM12 3C9.02265 3 6.38339 4.44606 4.74512 6.67383L10.0615 9.71191C10.5845 9.26842 11.2606 9 12 9C12.7391 9 13.4146 9.26871 13.9375 9.71191L19.2539 6.67383C17.6156 4.44632 14.9771 3 12 3Z" fill="#E4F2F2"/>
</svg>
