<svg width="24" height="24" viewBox="0 0 24 24" fill="none" xmlns="http://www.w3.org/2000/svg">
<path d="M3 2.99999C3.55221 2.99999 3.99987 3.44782 4 3.99999V20C4 20.5523 3.55228 21 3 21C2.44772 21 2 20.5523 2 20V3.99999C2.00013 3.44782 2.44779 2.99999 3 2.99999Z" fill="#E4F2F2"/>
<path fill-rule="evenodd" clip-rule="evenodd" d="M9.03809 2.99999C9.56882 3.00673 10.0888 3.15466 10.5439 3.42773L20.5439 9.42773C20.9883 9.69442 21.3561 10.0723 21.6113 10.5234C21.8665 10.9746 22.0004 11.4846 22 12.0029C21.9995 12.5213 21.8644 13.0307 21.6084 13.4814C21.3524 13.9322 20.9841 14.3092 20.5391 14.5752L20.5381 14.5742L10.5439 20.5723C10.0888 20.8454 9.56885 20.9933 9.03809 21C8.50724 21.0067 7.98347 20.8719 7.52148 20.6103C7.05974 20.3488 6.67548 19.9692 6.4082 19.5107C6.14095 19.0522 5.99999 18.5308 6 18V5.99999C6.00004 5.46924 6.14092 4.9478 6.4082 4.48925C6.67549 4.03082 7.05974 3.65117 7.52148 3.38964C7.98344 3.12811 8.50727 2.9933 9.03809 2.99999ZM9.0127 4.99999C8.83578 4.99776 8.66081 5.04272 8.50684 5.12988C8.35309 5.21702 8.22479 5.34343 8.13574 5.49609C8.04666 5.6489 8.00004 5.82311 8 5.99999V18C8 18.1769 8.04668 18.3511 8.13574 18.5039C8.22477 18.6566 8.35307 18.7829 8.50684 18.8701C8.66083 18.9573 8.83574 19.0022 9.0127 19C9.18962 18.9977 9.36293 18.9485 9.51465 18.8574L19.5117 12.8594L19.5127 12.8584C19.661 12.7697 19.7848 12.6444 19.8701 12.4941C19.9554 12.3439 19.9998 12.1737 20 12.001C20.0001 11.8282 19.9552 11.6582 19.8701 11.5078C19.785 11.3575 19.6628 11.2314 19.5146 11.1426L9.51465 5.14257C9.36295 5.05157 9.18958 5.00224 9.0127 4.99999Z" fill="#E4F2F2"/>
</svg>
