<svg width="24" height="24" viewBox="0 0 24 24" fill="none" xmlns="http://www.w3.org/2000/svg">
<path fill-rule="evenodd" clip-rule="evenodd" d="M14.9619 2.99999C15.4927 2.99333 16.0166 3.1281 16.4785 3.38964C16.9403 3.65119 17.3245 4.03074 17.5918 4.48925C17.8591 4.94782 18 5.4692 18 5.99999V18C18 18.5308 17.8591 19.0522 17.5918 19.5107C17.3245 19.9692 16.9403 20.3488 16.4785 20.6103C16.0166 20.8719 15.4927 21.0067 14.9619 21C14.4313 20.9932 13.9121 20.8453 13.457 20.5723L3.46094 14.5742C3.01596 14.3083 2.64764 13.9322 2.3916 13.4814C2.13562 13.0307 2.00049 12.5213 2 12.0029C1.99959 11.4846 2.13353 10.9746 2.38867 10.5234C2.64399 10.0722 3.01242 9.69442 3.45703 9.42773L13.457 3.42773C13.912 3.15481 14.4314 3.00676 14.9619 2.99999ZM14.9873 4.99999C14.8105 5.00227 14.637 5.05166 14.4854 5.14257L4.48535 11.1426C4.33731 11.2314 4.21495 11.3576 4.12988 11.5078C4.04482 11.6582 3.99989 11.8282 4 12.001C4.00015 12.1738 4.04552 12.3439 4.13086 12.4941C4.19486 12.6067 4.2798 12.7054 4.38086 12.7851L4.48731 12.8584L4.48828 12.8594L14.4854 18.8574C14.637 18.9484 14.8105 18.9977 14.9873 19C15.1642 19.0022 15.3392 18.9573 15.4932 18.8701C15.6469 18.7829 15.7752 18.6566 15.8643 18.5039C15.9533 18.3511 16 18.1769 16 18V5.99999C16 5.8231 15.9533 5.6489 15.8643 5.49609C15.7752 5.3434 15.647 5.21702 15.4932 5.12987C15.3392 5.04272 15.1642 4.9978 14.9873 4.99999Z" fill="#E4F2F2"/>
<path d="M21 2.99999C21.5522 2.99999 21.9999 3.44781 22 3.99999V20C22 20.5523 21.5523 21 21 21C20.4477 21 20 20.5523 20 20V3.99999C20.0001 3.44782 20.4478 2.99999 21 2.99999Z" fill="#E4F2F2"/>
</svg>
