<svg width="24" height="24" viewBox="0 0 24 24" fill="none" xmlns="http://www.w3.org/2000/svg">
<path d="M13.1816 15.4258C13.4985 14.9742 14.1211 14.8643 14.5732 15.1807C15.0256 15.4973 15.1359 16.1208 14.8193 16.5732L14.8184 16.5742L14.8174 16.5762C14.8166 16.5772 14.8153 16.5789 14.8145 16.5801C14.8128 16.5823 14.8115 16.5852 14.8096 16.5879C14.8054 16.5936 14.7996 16.5998 14.7939 16.6074C14.7826 16.6227 14.7685 16.6419 14.751 16.6641C14.7159 16.7083 14.668 16.766 14.6074 16.832C14.4871 16.9633 14.3123 17.1338 14.083 17.3037C13.6237 17.6439 12.9196 18 12 18C11.1189 18 10.4176 17.6341 9.96875 17.3135C9.74008 17.1501 9.5606 16.9874 9.43652 16.8633C9.37408 16.8008 9.32433 16.747 9.28809 16.7061C9.26992 16.6855 9.25467 16.668 9.24316 16.6543C9.23751 16.6476 9.23254 16.6416 9.22852 16.6367C9.22655 16.6343 9.2252 16.6318 9.22363 16.6299L9.21973 16.626C9.22265 16.6232 9.27033 16.5837 10 16L9.21875 16.625C8.87374 16.1937 8.94374 15.5638 9.375 15.2188C9.80392 14.8756 10.4292 14.9432 10.7754 15.3682L10.7852 15.3799C10.7973 15.3936 10.8194 15.418 10.8506 15.4492C10.914 15.5126 11.0097 15.5999 11.1309 15.6865C11.382 15.8659 11.6811 16 12 16C12.3804 16 12.6768 15.8561 12.8926 15.6963C13.0004 15.6164 13.0813 15.5366 13.1328 15.4805C13.158 15.453 13.1753 15.4324 13.1836 15.4219L13.1816 15.4258Z" fill="#E4F2F2"/>
<path d="M8.00977 12C8.56205 12 9.00976 12.4477 9.00977 13C9.00977 13.5523 8.56205 14 8.00977 14H8C7.44772 14 7 13.5523 7 13C7 12.4477 7.44772 12 8 12H8.00977Z" fill="#E4F2F2"/>
<path d="M16.0098 12C16.562 12 17.0098 12.4477 17.0098 13C17.0098 13.5523 16.5621 14 16.0098 14H16C15.4477 14 15 13.5523 15 13C15 12.4477 15.4477 12 16 12H16.0098Z" fill="#E4F2F2"/>
<path fill-rule="evenodd" clip-rule="evenodd" d="M15 2.00001C15.448 1.99923 15.8916 2.08748 16.3057 2.25879C16.7199 2.43024 17.0965 2.68159 17.4131 2.99903L21 6.58594L21.1162 6.70704C21.3798 6.99709 21.591 7.33139 21.7412 7.69434C21.9125 8.10836 22.0008 8.55196 22 9.00001V19C22 19.7957 21.6837 20.5585 21.1211 21.1211C20.5585 21.6837 19.7957 22 19 22H5C4.20435 22 3.44151 21.6837 2.87891 21.1211C2.3163 20.5585 2 19.7957 2 19V5.00001C2 4.20436 2.3163 3.44152 2.87891 2.87891C3.44152 2.3163 4.20435 2.00001 5 2.00001H15ZM5 4.00001C4.73479 4.00001 4.4805 4.10544 4.29297 4.29297C4.10543 4.48051 4 4.73479 4 5.00001V19C4 19.2652 4.10544 19.5195 4.29297 19.707C4.48051 19.8946 4.73478 20 5 20H19C19.2652 20 19.5195 19.8946 19.707 19.707C19.8946 19.5195 20 19.2652 20 19V10H16C15.4696 10 14.961 9.78914 14.5859 9.41407C14.2109 9.039 14 8.53044 14 8.00001V4.00001H5ZM16 8.00001H19.5859L16 4.41407V8.00001Z" fill="#E4F2F2"/>
</svg>
