<svg width="24" height="24" viewBox="0 0 24 24" fill="none" xmlns="http://www.w3.org/2000/svg">
<path fill-rule="evenodd" clip-rule="evenodd" d="M8.08446 1.37989C9.19669 0.919294 10.4386 0.874926 11.5806 1.25587L17.5796 3.25685C18.3158 3.5023 18.9849 3.91613 19.5337 4.46485C20.0826 5.01377 20.4962 5.68349 20.7417 6.41993L22.7417 12.4199C23.0665 13.3953 23.0831 14.4457 22.7905 15.4277C22.7797 15.4704 22.7663 15.5128 22.7495 15.5547C22.7421 15.5774 22.7348 15.6004 22.727 15.6231C22.371 16.66 21.6841 17.5519 20.772 18.1602L14.772 22.1602C13.9506 22.7077 12.9846 23 11.9975 23L11.9956 22.999C11.992 22.9991 11.9884 22.9991 11.9848 22.999C11.0024 22.9964 10.0417 22.7052 9.2241 22.1602L3.22411 18.1602C2.21035 17.4843 1.47837 16.4608 1.16551 15.2832C0.852754 14.1056 0.980168 12.8536 1.52489 11.7637L5.52489 3.76368C6.05769 2.69771 6.95433 1.85728 8.05125 1.39357C8.06216 1.38852 8.07345 1.38451 8.08446 1.37989ZM8.10203 3.67579C7.7756 3.94214 7.50517 4.27563 7.31395 4.65821L3.31395 12.6582C2.98724 13.3121 2.9105 14.0631 3.09813 14.7695C3.28581 15.4761 3.72521 16.0905 4.33348 16.4961L10.3335 20.4961C10.5984 20.6727 10.8893 20.8031 11.1929 20.8877L12.9448 12.169L8.10203 3.67579ZM13.2671 20.7168C13.4033 20.6532 13.5355 20.5801 13.6616 20.4961L19.6616 16.4961L19.8608 16.3506C20.0922 16.1672 20.2941 15.9507 20.4614 15.71L14.7417 13.3809L13.2671 20.7168ZM14.6968 11.2041L20.9878 13.7647C20.9752 13.6045 20.9509 13.4451 20.9126 13.2881L20.8442 13.0518L18.8442 7.05177C18.697 6.60993 18.4489 6.20825 18.1196 5.87892C17.8315 5.59087 17.488 5.36451 17.1108 5.21388L16.9468 5.15431L10.9477 3.15333C10.6461 3.05274 10.333 3.00319 10.02 3.00099L14.6968 11.2041Z" fill="#E4F2F2"/>
</svg>
