<svg width="24" height="24" viewBox="0 0 24 24" fill="none" xmlns="http://www.w3.org/2000/svg">
<path d="M6.50976 16.5C7.06204 16.5 7.50976 16.9477 7.50976 17.5C7.50976 18.0523 7.06204 18.5 6.50976 18.5H6.49999C5.94771 18.5 5.49999 18.0523 5.49999 17.5C5.49999 16.9477 5.94771 16.5 6.49999 16.5H6.50976Z" fill="#E4F2F2"/>
<path d="M10.5098 15.5C11.062 15.5 11.5098 15.9477 11.5098 16.5C11.5098 17.0523 11.062 17.5 10.5098 17.5H10.5C9.94771 17.5 9.49999 17.0523 9.49999 16.5C9.49999 15.9477 9.94771 15.5 10.5 15.5H10.5098Z" fill="#E4F2F2"/>
<path d="M14.5098 14.5C15.062 14.5 15.5098 14.9477 15.5098 15.5C15.5098 16.0523 15.062 16.5 14.5098 16.5H14.5C13.9477 16.5 13.5 16.0523 13.5 15.5C13.5 14.9477 13.9477 14.5 14.5 14.5H14.5098Z" fill="#E4F2F2"/>
<path d="M7.50976 12.5C8.06204 12.5 8.50976 12.9477 8.50976 13.5C8.50976 14.0523 8.06204 14.5 7.50976 14.5H7.49999C6.94771 14.5 6.49999 14.0523 6.49999 13.5C6.49999 12.9477 6.94771 12.5 7.49999 12.5H7.50976Z" fill="#E4F2F2"/>
<path d="M11.5098 11.5C12.062 11.5 12.5098 11.9477 12.5098 12.5C12.5098 13.0523 12.062 13.5 11.5098 13.5H11.5C10.9477 13.5 10.5 13.0523 10.5 12.5C10.5 11.9477 10.9477 11.5 11.5 11.5H11.5098Z" fill="#E4F2F2"/>
<path d="M15.5098 10.5C16.062 10.5 16.5098 10.9477 16.5098 11.5C16.5098 12.0523 16.062 12.5 15.5098 12.5H15.5C14.9477 12.5 14.5 12.0523 14.5 11.5C14.5 10.9477 14.9477 10.5 15.5 10.5H15.5098Z" fill="#E4F2F2"/>
<path d="M8.50976 8.5C9.06204 8.5 9.50976 8.94772 9.50976 9.5C9.50976 10.0523 9.06204 10.5 8.50976 10.5H8.49999C7.94771 10.5 7.49999 10.0523 7.49999 9.5C7.49999 8.94772 7.94771 8.5 8.49999 8.5H8.50976Z" fill="#E4F2F2"/>
<path d="M12.5098 7.5C13.062 7.5 13.5098 7.94772 13.5098 8.5C13.5098 9.05228 13.062 9.5 12.5098 9.5H12.5C11.9477 9.5 11.5 9.05229 11.5 8.5C11.5 7.94772 11.9477 7.5 12.5 7.5H12.5098Z" fill="#E4F2F2"/>
<path fill-rule="evenodd" clip-rule="evenodd" d="M17 1C17.5523 1 18 1.44772 18 2V4.58594L19.793 2.79297C20.1835 2.40245 20.8165 2.40245 21.207 2.79297C21.5975 3.18349 21.5975 3.81651 21.207 4.20703L19.4141 6H22C22.5523 6 23 6.44772 23 7C23 7.55228 22.5523 8 22 8H19.3096L19.4863 8.17188C20.486 9.07029 21.2194 10.2268 21.6055 11.5146C21.994 12.811 22.0158 14.1901 21.668 15.498C21.32 16.806 20.6152 17.9928 19.6338 18.9248C18.6524 19.8566 17.4315 20.4984 16.1074 20.7783L7.12792 22.874H7.12597C6.29927 23.0656 5.43696 23.044 4.62109 22.8105C3.80521 22.577 3.06207 22.1391 2.46191 21.5391C1.86166 20.9388 1.42403 20.195 1.19042 19.3789C0.956876 18.5629 0.934299 17.7009 1.12597 16.874L3.12499 8.07812L3.12792 8.06738C3.4379 6.77303 4.08672 5.58379 5.00781 4.62305C5.92901 3.66235 7.08988 2.96371 8.37011 2.59961C9.65033 2.2356 11.0051 2.21859 12.2939 2.55078C13.5797 2.88229 14.7547 3.54934 15.6982 4.4834L16 4.77637V2C16 1.44772 16.4477 1 17 1ZM11.7949 4.4873C10.8498 4.2437 9.85579 4.25652 8.91699 4.52344C7.97841 4.79041 7.12758 5.30259 6.45214 6.00684C5.77674 6.71126 5.30062 7.5832 5.07324 8.53223L5.07226 8.53125L3.07519 17.3213L3.07421 17.3262C2.95933 17.8222 2.97317 18.3396 3.11327 18.8291C3.25345 19.3186 3.51598 19.764 3.87597 20.124C4.23609 20.4841 4.68227 20.7475 5.17187 20.8877C5.66074 21.0275 6.17746 21.0403 6.67284 20.9258L15.6728 18.8262L15.6934 18.8213C16.6556 18.6178 17.5435 18.1518 18.2568 17.4746C18.97 16.7973 19.4814 15.9349 19.7344 14.9844C19.9872 14.0337 19.9719 13.0312 19.6894 12.0889C19.407 11.1467 18.8688 10.3012 18.1348 9.64648C18.1239 9.63682 18.1129 9.62634 18.1025 9.61621L14.3027 5.91602L14.2959 5.91016C13.6032 5.22285 12.7398 4.73098 11.7949 4.4873Z" fill="#E4F2F2"/>
</svg>
