<svg width="24" height="24" viewBox="0 0 24 24" fill="none" xmlns="http://www.w3.org/2000/svg">
<path d="M15 6C15.5523 6 16 6.44772 16 7C16 7.55228 15.5523 8 15 8H10.5C10.1022 8 9.72076 8.15815 9.43945 8.43945C9.15815 8.72076 9 9.10218 9 9.5C9 9.89782 9.15815 10.2792 9.43945 10.5605C9.72076 10.8419 10.1022 11 10.5 11H17C17.5523 11 18 11.4477 18 12C18 12.5523 17.5523 13 17 13H16.6621C16.8825 13.4644 17 13.9761 17 14.5C17 15.4283 16.631 16.3182 15.9746 16.9746C15.3182 17.631 14.4283 18 13.5 18H8C7.44772 18 7 17.5523 7 17C7 16.4477 7.44772 16 8 16H13.5C13.8978 16 14.2792 15.8419 14.5605 15.5605C14.8419 15.2792 15 14.8978 15 14.5C15 14.1022 14.8419 13.7208 14.5605 13.4395C14.2792 13.1581 13.8978 13 13.5 13H7C6.44772 13 6 12.5523 6 12C6 11.4477 6.44772 11 7 11H7.33789C7.11749 10.5356 7 10.0239 7 9.5C7 8.57174 7.36901 7.68177 8.02539 7.02539C8.68177 6.36901 9.57174 6 10.5 6H15Z" fill="#E4F2F2"/>
<path fill-rule="evenodd" clip-rule="evenodd" d="M19 2C20.6569 2 22 3.34315 22 5V19C22 20.6569 20.6569 22 19 22H5C3.34315 22 2 20.6569 2 19V5C2 3.34315 3.34315 2 5 2H19ZM5 4C4.44772 4 4 4.44772 4 5V19C4 19.5523 4.44772 20 5 20H19C19.5523 20 20 19.5523 20 19V5C20 4.44772 19.5523 4 19 4H5Z" fill="#E4F2F2"/>
</svg>
