<svg width="24" height="24" viewBox="0 0 24 24" fill="none" xmlns="http://www.w3.org/2000/svg">
<path fill-rule="evenodd" clip-rule="evenodd" d="M3.77538 2.85299C4.57008 2.79353 5.35585 3.05196 5.95995 3.57174C6.11147 3.70212 6.24737 3.84706 6.36815 4.00241L7.70311 5.32174C8.18688 3.96848 9.48045 3.00045 11 3.00045C12.9328 3.00065 14.5 4.56758 14.5 6.50045C14.4998 8.00548 13.5489 9.28746 12.2158 9.7817L14.0625 11.6069C16.0288 10.2805 18.6682 10.4997 20.418 12.3042C20.802 12.7006 20.7926 13.3338 20.3965 13.7182C20.0002 14.1025 19.3669 14.0926 18.9824 13.6967C18.025 12.7094 16.6612 12.5064 15.5351 13.063L18.665 16.1557L19.5381 16.0131C19.6304 15.998 19.7219 15.9965 19.8105 16.0063C19.8731 16.0024 19.9365 16.0005 20 16.0005C21.6567 16.0007 23 17.3437 23 19.0005C22.9998 20.657 21.6565 22.0003 20 22.0005C18.3433 22.0005 17.0002 20.6571 17 19.0005C17 18.8114 17.0173 18.6261 17.0508 18.4467L13.1807 19.0825L13.1816 19.0835C12.4533 19.2183 11.7116 19.229 10.9961 19.1186C10.9338 20.7204 9.61696 22.0003 7.99999 22.0005C6.34326 22.0005 5.0002 20.6571 4.99999 19.0005C4.99999 17.743 5.77382 16.6672 6.87108 16.2212C6.56404 15.6054 6.3655 14.9044 6.30761 14.1264C6.10895 12.8357 5.88569 11.4214 5.6621 10.0053C5.43721 8.58107 5.21203 7.15409 5.01171 5.85202C5.0078 5.82655 5.00485 5.80056 5.00292 5.77487C4.99052 5.61005 4.93719 5.45245 4.85057 5.31491L4.74608 5.21139C4.69909 5.16491 4.65789 5.11464 4.62206 5.06198C4.42476 4.90613 4.17654 4.82835 3.92479 4.84713C3.65892 4.86707 3.41124 4.99177 3.23729 5.19381C3.0634 5.39592 2.97718 5.65939 2.99706 5.92526C3.03823 6.47585 2.6248 6.95517 2.07421 6.99655C1.52362 7.03768 1.04426 6.62527 1.00292 6.07467C0.943367 5.27984 1.20179 4.49331 1.72167 3.88913C2.24157 3.28517 2.98068 2.91259 3.77538 2.85299ZM7.99999 18.0005C7.4477 18.0005 6.99999 18.4482 6.99999 19.0005C7.0002 19.5526 7.44783 20.0005 7.99999 20.0005C8.55198 20.0003 8.99978 19.5524 8.99999 19.0005C8.99999 18.4483 8.5521 18.0007 7.99999 18.0005ZM20 18.0005C19.4477 18.0005 19 18.4482 19 19.0005C19.0002 19.5526 19.4478 20.0005 20 20.0005C20.552 20.0003 20.9998 19.5524 21 19.0005C21 18.4483 20.5521 18.0007 20 18.0005ZM7.63768 9.69381L8.28807 13.8481L8.29784 13.935C8.37736 15.1675 8.95814 16.0348 9.76268 16.5649C10.5885 17.1089 11.696 17.3242 12.8174 17.1167L12.8379 17.1128L16.2256 16.5561L8.81932 9.23678C8.62352 9.08058 8.44439 8.90448 8.28612 8.71041L7.33593 7.77194C7.4353 8.40445 7.53587 9.04901 7.63768 9.69381ZM11 5.00045C10.1716 5.00045 9.49999 5.67203 9.49999 6.50045C9.5002 7.3287 10.1717 8.00045 11 8.00045C11.8281 8.00026 12.4998 7.32858 12.5 6.50045C12.5 5.67215 11.8282 5.00065 11 5.00045Z" fill="#E4F2F2"/>
</svg>
