<svg width="24" height="24" viewBox="0 0 24 24" fill="none" xmlns="http://www.w3.org/2000/svg">
<path d="M16.4082 11.3994C17.0285 11.0488 17.7505 10.9221 18.4532 11.04C19.0683 11.1433 19.6366 11.4288 20.085 11.8564L20.2696 12.0488L20.2774 12.0576C20.7433 12.5988 21 13.2905 21 14C20.9999 15.0821 20.3962 15.8406 19.7745 16.3408C19.1723 16.8252 18.4322 17.1659 17.9268 17.4043C17.4479 17.6302 17.2807 17.7817 17.1924 17.918C17.1778 17.9407 17.1653 17.969 17.1504 18H20C20.5522 18 20.9999 18.4479 21 19C20.9998 19.5521 20.5522 19.9999 20 20H16C15.4479 20 15.0003 19.5521 15 19C15.0001 18.171 15.1177 17.443 15.5127 16.832C15.9095 16.2185 16.4928 15.8695 17.0733 15.5957C17.6277 15.3342 18.1379 15.0901 18.5206 14.7822C18.8835 14.4902 18.9999 14.2476 19 14C19 13.7718 18.9171 13.5451 18.7657 13.3672C18.5977 13.1794 18.3707 13.0545 18.1221 13.0127C17.8727 12.9708 17.6161 13.0141 17.3956 13.1377C17.1798 13.261 17.0209 13.455 16.9424 13.6758C16.7572 14.1956 16.1852 14.467 15.6651 14.2822C15.1449 14.0972 14.8729 13.5251 15.0577 13.0049C15.2992 12.3259 15.7803 11.7589 16.4043 11.4023L16.4082 11.3994Z" fill="#E4F2F2"/>
<path d="M11.293 4.29295C11.6835 3.90243 12.3166 3.90243 12.7071 4.29295C13.0975 4.68348 13.0976 5.31652 12.7071 5.70702L9.41411 8.99999L12.7071 12.293C13.0975 12.6835 13.0976 13.3165 12.7071 13.707C12.3166 14.0975 11.6835 14.0975 11.293 13.707L8.00005 10.414L4.70708 13.707C4.31658 14.0975 3.68355 14.0975 3.29302 13.707C2.90249 13.3165 2.90249 12.6835 3.29302 12.293L6.58598 8.99999L3.29302 5.70702C2.90249 5.31649 2.90249 4.68348 3.29302 4.29295C3.68354 3.90243 4.31655 3.90243 4.70708 4.29295L8.00005 7.58592L11.293 4.29295Z" fill="#E4F2F2"/>
</svg>
