<svg width="24" height="24" viewBox="0 0 24 24" fill="none" xmlns="http://www.w3.org/2000/svg">
<path d="M10 19C10.5522 19 10.9998 19.4479 11 20V21C11 21.5523 10.5523 22 10 22C9.44771 22 9 21.5523 9 21V20C9.00017 19.4479 9.44782 19 10 19Z" fill="#E4F2F2"/>
<path d="M16.1055 2.55276C16.3525 2.05901 16.9534 1.85865 17.4473 2.1055C17.9412 2.35244 18.1413 2.95336 17.8945 3.44729L17.0381 5.15823L17.8213 5.01663C18.3645 4.91794 18.8845 5.27816 18.9834 5.82132C19.0821 6.36464 18.722 6.88461 18.1787 6.98343L15.9209 7.39358L15.1182 9.00003L16.1182 11H18.001L19.2002 9.40042C19.5315 8.95887 20.1579 8.86917 20.5996 9.20022C21.0413 9.53151 21.1309 10.1578 20.7998 10.5996L20.499 11H22C22.5522 11 22.9998 11.4479 23 12C23 12.5523 22.5523 13 22 13H20.499L20.7998 13.4004C21.131 13.8422 21.0413 14.4685 20.5996 14.7998C20.1578 15.1311 19.5315 15.0414 19.2002 14.5996L18.001 13H16.1182L15.1182 15L15.9209 16.6055L18.1787 17.0166C18.722 17.1154 19.082 17.6355 18.9834 18.1787C18.8846 18.7221 18.3646 19.0822 17.8213 18.9834L17.0381 18.8408L17.8945 20.5528C18.1415 21.0467 17.9412 21.6475 17.4473 21.8946C16.9533 22.1415 16.3525 21.9413 16.1055 21.4473L15.249 19.7354L14.8945 20.4473C14.6475 20.9413 14.0467 21.1415 13.5527 20.8946C13.0588 20.6475 12.8585 20.0467 13.1055 19.5528L14.1318 17.5L13.1055 15.4473C12.9648 15.1658 12.9647 14.8342 13.1055 14.5528L14.3818 12L13.1055 9.44729C12.9648 9.16582 12.9647 8.83421 13.1055 8.55276L14.1318 6.50003L13.1055 4.44729C12.8587 3.95336 13.0588 3.35244 13.5527 3.1055C14.0466 2.85865 14.6475 3.05901 14.8945 3.55276L15.249 4.2637L16.1055 2.55276Z" fill="#E4F2F2"/>
<path d="M3.63281 16.9532C4.02326 16.5628 4.65636 16.5629 5.04688 16.9532C5.43727 17.3437 5.43727 17.9767 5.04688 18.3672L4.34668 19.0674C3.95617 19.4577 3.32308 19.4578 2.93262 19.0674C2.54241 18.6769 2.54237 18.0438 2.93262 17.6533L3.63281 16.9532Z" fill="#E4F2F2"/>
<path d="M10 8.00003C10.5522 8.00003 10.9998 8.44789 11 9.00003C11 9.55231 10.5523 10 10 10C9.46964 10 8.961 10.211 8.58594 10.586C8.21094 10.961 8.00008 11.4697 8 12C8 12.5304 8.21096 13.039 8.58594 13.4141C8.96101 13.7892 9.46957 14 10 14C10.5522 14 10.9998 14.4479 11 15C11 15.5523 10.5523 16 10 16C8.93913 16 7.92202 15.5783 7.17188 14.8282C6.42183 14.078 6 13.0608 6 12C6.00008 10.9393 6.4218 9.92198 7.17188 9.1719C7.92201 8.42186 8.93921 8.00003 10 8.00003Z" fill="#E4F2F2"/>
<path d="M3 11C3.55218 11 3.99983 11.4479 4 12C4 12.5523 3.55228 13 3 13H2C1.44772 13 1 12.5523 1 12C1.00017 11.4479 1.44782 11 2 11H3Z" fill="#E4F2F2"/>
<path d="M2.93262 4.93362C3.32313 4.5431 3.95615 4.54312 4.34668 4.93362L5.04688 5.63382C5.4372 6.02436 5.43733 6.65742 5.04688 7.04788C4.65639 7.43801 4.02324 7.4381 3.63281 7.04788L2.93262 6.34768C2.54222 5.95727 2.54243 5.32417 2.93262 4.93362Z" fill="#E4F2F2"/>
<path d="M10 2.00003C10.5522 2.00003 10.9998 2.44789 11 3.00003V4.00003C11 4.55231 10.5523 5.00003 10 5.00003C9.44771 5.00003 9 4.55231 9 4.00003V3.00003C9.00017 2.44789 9.44782 2.00003 10 2.00003Z" fill="#E4F2F2"/>
</svg>
