<svg width="24" height="24" viewBox="0 0 24 24" fill="none" xmlns="http://www.w3.org/2000/svg">
<path fill-rule="evenodd" clip-rule="evenodd" d="M7.38475 8.18945C8.25776 7.98393 8.9057 8.50331 9.18944 9.05273C9.45497 9.56716 9.4977 10.2302 9.24706 10.8086C9.00847 11.3604 8.941 11.971 9.0537 12.5615C9.16647 13.1522 9.45367 13.6959 9.87889 14.1211C10.3041 14.5462 10.8478 14.8337 11.4385 14.9463C12.0291 15.0588 12.6406 14.9908 13.1924 14.752C13.7702 14.5021 14.4333 14.543 14.9482 14.8086C15.4991 15.0929 16.0171 15.7423 15.8105 16.6152C15.5231 17.8273 14.9171 18.9419 14.0556 19.8418C13.1942 20.7417 12.1076 21.3954 10.9092 21.7354C9.71059 22.0753 8.44205 22.089 7.23631 21.7754C6.03081 21.4617 4.93071 20.8319 4.04979 19.9512C3.16882 19.0703 2.53847 17.9702 2.22459 16.7646C1.91076 15.5589 1.92484 14.2905 2.26463 13.0918C2.60442 11.8933 3.25751 10.8069 4.15721 9.94531C5.05708 9.08364 6.17151 8.47798 7.38377 8.19043L7.38475 8.18945ZM7.29881 10.3008C6.64549 10.5371 6.04583 10.9063 5.541 11.3896C4.89822 12.0052 4.43117 12.7815 4.18846 13.6377C3.94581 14.4939 3.93599 15.3995 4.16014 16.2607C4.38434 17.1219 4.83459 17.9079 5.46385 18.5371C6.09311 19.1661 6.87912 19.6158 7.74022 19.8398C8.60142 20.0638 9.50718 20.0543 10.3633 19.8115C11.2192 19.5687 11.995 19.1016 12.6103 18.459C13.0939 17.9538 13.462 17.353 13.6982 16.6992C12.8564 17.0033 11.9464 17.0785 11.0635 16.9102C10.0792 16.7224 9.17344 16.2436 8.46483 15.5352C7.75617 14.8266 7.27678 13.9209 7.08885 12.9365C6.92027 12.0532 6.99457 11.143 7.29881 10.3008Z" fill="#E4F2F2"/>
<path d="M12 7C13.326 7.00002 14.5975 7.52718 15.5351 8.46484C16.4728 9.40252 17 10.6739 17 12C17 12.5523 16.5522 13 16 13C15.4477 13 15 12.5523 15 12C15 11.2044 14.6837 10.4415 14.1211 9.87891C13.5585 9.31632 12.7956 9.00002 12 9C11.4477 9 11 8.55228 11 8C11 7.44772 11.4477 7 12 7Z" fill="#E4F2F2"/>
<path d="M22 11C22.5522 11 23 11.4477 23 12C23 12.5523 22.5522 13 22 13H20C19.4477 13 19 12.5523 19 12C19 11.4477 19.4477 11 20 11H22Z" fill="#E4F2F2"/>
<path d="M18.293 4.29297C18.6835 3.90258 19.3165 3.90255 19.707 4.29297C20.0974 4.68347 20.0974 5.31653 19.707 5.70703L18.4512 6.96289C18.0607 7.35338 17.4276 7.35331 17.0371 6.96289C16.6466 6.57236 16.6466 5.93933 17.0371 5.54883L18.293 4.29297Z" fill="#E4F2F2"/>
<path d="M12 1C12.5522 1.00004 13 1.44774 13 2V4C13 4.55226 12.5522 4.99996 12 5C11.4477 5 11 4.55228 11 4V2C11 1.44772 11.4477 1 12 1Z" fill="#E4F2F2"/>
</svg>
