<svg width="24" height="24" viewBox="0 0 24 24" fill="none" xmlns="http://www.w3.org/2000/svg">
<path fill-rule="evenodd" clip-rule="evenodd" d="M6.19922 8.40039C6.50255 7.99427 7.07063 7.87617 7.51465 8.14258L12.5146 11.1426C12.8614 11.3507 13.0488 11.7475 12.9893 12.1475C12.9296 12.5474 12.6345 12.8717 12.2422 12.9697L9.21191 13.7266L10.0303 17H17C16.9975 17 17.0087 17.0005 17.0352 16.9961C17.0612 16.9918 17.0963 16.984 17.1387 16.9717C17.2248 16.9466 17.3252 16.9067 17.4277 16.8555C17.5302 16.8042 17.6216 16.7472 17.6934 16.6934C17.7287 16.6668 17.7563 16.6442 17.7754 16.626C17.7919 16.6102 17.7988 16.6008 17.7998 16.5996C17.8072 16.5898 17.8155 16.5808 17.8232 16.5713L21.2227 12.3711C21.5701 11.9419 22.1996 11.8754 22.6289 12.2227C23.0581 12.5701 23.1246 13.1997 22.7773 13.6289L19.377 17.8291L19.376 17.8281C19.3566 17.853 19.3351 17.8763 19.3145 17.9004L21.707 20.293C22.0976 20.6835 22.0976 21.3165 21.707 21.707C21.3165 22.0976 20.6835 22.0976 20.293 21.707L17.5225 18.9365C17.3505 18.9757 17.1742 19 17 19H10.5303L10.9697 20.7578C11.1035 21.2935 10.7779 21.8358 10.2422 21.9697C9.70647 22.1035 9.1642 21.7779 9.03027 21.2422L8.46973 19H5C4.92738 19 4.85421 19.0234 4.78516 19.0732C4.71496 19.124 4.66152 19.1945 4.63184 19.2646L3.94824 21.3164C3.77348 21.8402 3.20744 22.1229 2.68359 21.9482C2.15984 21.7735 1.87714 21.2074 2.05176 20.6836L2.75098 18.584L2.77148 18.5283C3.10486 17.6951 3.94344 17 5 17H7.96973L7.27246 14.2119L4.24219 14.9697C3.84992 15.0677 3.43704 14.9205 3.19629 14.5957C2.9555 14.2707 2.93448 13.8322 3.14258 13.4854L6.14258 8.48535L6.19922 8.40039ZM6.09863 12.4443L9.41504 11.6152L7.34277 10.3711L6.09863 12.4443Z" fill="#E4F2F2"/>
<path d="M20 1C20.6513 1 21.2665 1.16012 21.6914 1.30176C21.9096 1.3745 22.0918 1.44729 22.2217 1.50293C22.2869 1.53086 22.3399 1.5545 22.3779 1.57227C22.3968 1.58106 22.4123 1.58816 22.4238 1.59375C22.4296 1.59656 22.4346 1.59966 22.4385 1.60156C22.4403 1.60244 22.442 1.60284 22.4434 1.60352L22.4453 1.60449L22.4463 1.60547L22.5361 1.65625C22.9643 1.92756 23.1261 2.48416 22.8945 2.94727C22.6479 3.44059 22.0483 3.64099 21.5547 3.39551L21.5537 3.39453C21.5501 3.3928 21.5423 3.38945 21.5322 3.38477C21.5117 3.3752 21.4786 3.3597 21.4346 3.34082C21.3457 3.30274 21.2151 3.25043 21.0586 3.19824C20.7336 3.08992 20.3486 3 20 3C19.5638 3 19.1889 3.14765 18.8701 3.36426C19.4875 3.61355 20.0552 3.98492 20.5352 4.46484C21.4728 5.40253 22 6.67392 22 8C22 8.55228 21.5523 9 21 9C20.4477 9 20 8.55228 20 8C20 7.20435 19.6837 6.44152 19.1211 5.87891C18.8018 5.55962 18.4177 5.32071 18 5.17285V6C18 8.56648 17.7429 10.6265 17.4834 12.0537C17.3537 12.7671 17.2237 13.3229 17.124 13.7051C17.0742 13.8961 17.0315 14.0441 17.001 14.1465C16.9857 14.1977 16.9738 14.2383 16.9648 14.2666C16.9605 14.2805 16.9568 14.2915 16.9541 14.2998C16.9527 14.304 16.9511 14.3078 16.9502 14.3105C16.9498 14.3117 16.9495 14.3126 16.9492 14.3135V14.3154L16.9482 14.3164C16.7735 14.8402 16.2074 15.1229 15.6836 14.9482C15.1601 14.7736 14.8768 14.2082 15.0508 13.6846L15.0518 13.6826C15.0528 13.6793 15.0548 13.673 15.0576 13.6641C15.0633 13.646 15.0729 13.6167 15.085 13.5762C15.1091 13.4951 15.1446 13.3692 15.1885 13.2012C15.2763 12.8646 15.3964 12.3576 15.5166 11.6963C15.7571 10.3735 16 8.43347 16 6V5.1748C15.5826 5.32266 15.198 5.55977 14.8789 5.87891C14.3163 6.44152 14 7.20435 14 8C14 8.55228 13.5523 9 13 9C12.4477 9 12 8.55228 12 8C12 6.67392 12.5272 5.40253 13.4648 4.46484C13.9446 3.98513 14.5119 3.61346 15.1289 3.36426C14.8102 3.1479 14.4359 3 14 3C13.6514 3 13.2664 3.08992 12.9414 3.19824C12.7849 3.25043 12.6543 3.30274 12.5654 3.34082C12.5214 3.3597 12.4883 3.3752 12.4678 3.38477C12.4576 3.38953 12.4498 3.39283 12.4463 3.39453C12.4452 3.39507 12.4445 3.39541 12.4443 3.39551C11.9507 3.64099 11.3521 3.44059 11.1055 2.94727C10.8585 2.45329 11.0588 1.85246 11.5527 1.60547L11.5566 1.60352C11.558 1.60284 11.5597 1.60244 11.5615 1.60156C11.5654 1.59966 11.5704 1.59656 11.5762 1.59375C11.5877 1.58816 11.6032 1.58106 11.6221 1.57227C11.6601 1.5545 11.7131 1.53086 11.7783 1.50293C11.9082 1.44729 12.0904 1.3745 12.3086 1.30176C12.7335 1.16012 13.3487 1 14 1C15.3588 1 16.348 1.68397 16.957 2.29297C16.9718 2.30772 16.9856 2.32316 17 2.33789C17.0144 2.32316 17.0282 2.30772 17.043 2.29297C17.652 1.68397 18.6412 1 20 1Z" fill="#E4F2F2"/>
<path fill-rule="evenodd" clip-rule="evenodd" d="M4 1C5.65685 1 7 2.34315 7 4C7 5.65685 5.65685 7 4 7C2.34315 7 1 5.65685 1 4C1 2.34315 2.34315 1 4 1ZM4 3C3.44772 3 3 3.44772 3 4C3 4.55228 3.44772 5 4 5C4.55228 5 5 4.55228 5 4C5 3.44772 4.55228 3 4 3Z" fill="#E4F2F2"/>
</svg>
