<svg width="24" height="24" viewBox="0 0 24 24" fill="none" xmlns="http://www.w3.org/2000/svg">
<path fill-rule="evenodd" clip-rule="evenodd" d="M11.5752 1.09469C11.8887 0.9475 12.2607 0.971901 12.5547 1.16794L21.5547 7.16794C21.9214 7.41237 22.0847 7.86825 21.9571 8.29001C21.8293 8.71161 21.4406 8.99997 21 8.99997H13V12H16C16.5523 12 17 12.4477 17 13C17 13.5522 16.5523 14 16 14H13V17H17C17.002 17 17.0135 16.9997 17.0352 16.9961C17.0612 16.9917 17.0964 16.984 17.1387 16.9716C17.2248 16.9465 17.3252 16.9067 17.4278 16.8554C17.5302 16.8042 17.6216 16.7471 17.6934 16.6933C17.7287 16.6668 17.7563 16.6442 17.7754 16.6259C17.7918 16.6103 17.7998 16.5996 17.7998 16.5996C17.8072 16.5898 17.8156 16.5808 17.8233 16.5713L21.2227 12.3711C21.5701 11.9419 22.1997 11.8753 22.6289 12.2226C23.0581 12.5701 23.1247 13.1996 22.7774 13.6289L19.377 17.8291L19.376 17.8281C19.3566 17.853 19.3351 17.8763 19.3145 17.9004L21.7071 20.2929C22.0974 20.6835 22.0975 21.3165 21.7071 21.707C21.3166 22.0974 20.6835 22.0973 20.293 21.707L17.5225 18.9365C17.3505 18.9757 17.1742 19 17 19H13V21C13 21.5522 12.5523 22 12 22C11.4478 22 11 21.5522 11 21V19H5.00002C4.9274 19 4.85422 19.0233 4.78518 19.0732C4.715 19.124 4.66153 19.1944 4.63186 19.2646L3.94826 21.3164C3.77349 21.8401 3.20745 22.1228 2.68361 21.9482C2.15988 21.7734 1.87719 21.2074 2.05178 20.6836L2.751 18.584L2.7715 18.5283C3.10488 17.6951 3.94347 17 5.00002 17H11V14H8.00002C7.44776 14 7.00004 13.5522 7.00002 13C7.00002 12.4477 7.44774 12 8.00002 12H11V8.99997H3.00002C2.55946 8.99996 2.17077 8.71161 2.04299 8.29001C1.91529 7.86826 2.0787 7.41238 2.44533 7.16794L11.4453 1.16794L11.5752 1.09469ZM6.30275 6.99997H17.6973L12 3.20114L6.30275 6.99997Z" fill="#E4F2F2"/>
</svg>
