<svg width="24" height="24" viewBox="0 0 24 24" fill="none" xmlns="http://www.w3.org/2000/svg">
<path fill-rule="evenodd" clip-rule="evenodd" d="M6.2588 4.46094C8.25839 3.73392 10.4655 3.83071 12.3936 4.73047C14.3212 5.63037 15.813 7.25946 16.54 9.25879C16.6305 9.50788 16.6189 9.78329 16.5068 10.0234C16.3948 10.2635 16.1913 10.4493 15.9424 10.54L10.2559 12.6074L11.7207 17H17C17.0024 17 17.0139 16.9996 17.0352 16.9961C17.0612 16.9917 17.0964 16.984 17.1387 16.9717C17.2248 16.9466 17.3253 16.9067 17.4277 16.8555C17.5302 16.8042 17.6216 16.7472 17.6934 16.6934C17.7287 16.6669 17.7563 16.6442 17.7754 16.626C17.7919 16.6102 17.7998 16.5996 17.7998 16.5996C17.8072 16.5898 17.8156 16.5808 17.8232 16.5713L21.2227 12.3711C21.5701 11.942 22.1997 11.8754 22.6289 12.2227C23.058 12.5701 23.1246 13.1997 22.7774 13.6289L19.377 17.8291L19.376 17.8281C19.3566 17.853 19.3351 17.8763 19.3145 17.9004L21.707 20.293C22.0975 20.6835 22.0975 21.3165 21.707 21.707C21.3165 22.0975 20.6835 22.0975 20.293 21.707L17.5225 18.9365C17.3505 18.9757 17.1742 19 17 19H12.3867L12.9483 20.6836C13.1228 21.2074 12.8401 21.7734 12.3164 21.9482C11.7926 22.1229 11.2265 21.8401 11.0518 21.3164L10.2793 19H5.00001C4.92741 19 4.85419 19.0234 4.78516 19.0732C4.71498 19.124 4.66153 19.1945 4.63184 19.2646L3.94825 21.3164C3.7735 21.8401 3.20742 22.1228 2.6836 21.9482C2.15985 21.7735 1.87715 21.2074 2.05177 20.6836L2.75098 18.584L2.77149 18.5283C3.10488 17.6952 3.94347 17 5.00001 17H9.61231L8.37598 13.291L2.7422 15.3398C2.22338 15.5285 1.64993 15.2608 1.46095 14.7422C1.10098 13.7523 0.9392 12.7008 0.98536 11.6484C1.03162 10.5959 1.28497 9.56212 1.73048 8.60742C2.63031 6.67939 4.25921 5.18806 6.2588 4.46094ZM11.5469 6.54297C10.0997 5.86766 8.44332 5.79425 6.94239 6.33984C5.44134 6.88568 4.21851 8.00581 3.54298 9.45312C3.20854 10.1698 3.01814 10.9462 2.98341 11.7363C2.96351 12.1903 2.99638 12.644 3.07813 13.0889L14.2383 9.03027C13.6252 7.94906 12.688 7.07563 11.5469 6.54297Z" fill="#E4F2F2"/>
<path fill-rule="evenodd" clip-rule="evenodd" d="M20 1C21.6568 1.00006 23 2.34318 23 4C23 5.65682 21.6568 6.99994 20 7C18.3432 7 17 5.65685 17 4C17 2.34315 18.3432 1 20 1ZM20 3C19.4477 3 19 3.44772 19 4C19 4.55228 19.4477 5 20 5C20.5522 4.99994 21 4.55225 21 4C21 3.44775 20.5522 3.00006 20 3Z" fill="#E4F2F2"/>
</svg>
