<svg width="24" height="24" viewBox="0 0 24 24" fill="none" xmlns="http://www.w3.org/2000/svg">
<path d="M11.293 10.293C11.6835 9.90257 12.3165 9.90252 12.707 10.293C13.0975 10.6834 13.0974 11.3165 12.707 11.707L9.41405 15L12.707 18.293C13.0975 18.6834 13.0974 19.3165 12.707 19.707C12.3165 20.0975 11.6835 20.0975 11.293 19.707L7.99999 16.414L4.70702 19.707C4.3165 20.0975 3.68348 20.0975 3.29296 19.707C2.90248 19.3165 2.90245 18.6835 3.29296 18.293L6.58593 15L3.29296 11.707C2.90248 11.3165 2.90245 10.6835 3.29296 10.293C3.68348 9.90257 4.31654 9.90252 4.70702 10.293L7.99999 13.5859L11.293 10.293Z" fill="#E4F2F2"/>
<path d="M16.4053 4.40623C17.0247 4.05442 17.7465 3.92588 18.4492 4.04295C19.064 4.14538 19.6316 4.43044 20.0801 4.85741L20.2656 5.04979L20.2695 5.05467C20.7428 5.59735 20.9999 6.2893 21 7.00194C20.9999 8.08547 20.3948 8.84315 19.7725 9.34276C19.1704 9.82594 18.4304 10.1668 17.9277 10.4043C17.4495 10.6303 17.2811 10.7811 17.1924 10.918C17.1777 10.9406 17.1662 10.969 17.1514 11H20C20.5521 11 20.9998 11.4479 21 12C20.9999 12.5521 20.5522 12.9999 20 13H16C15.4478 13 15.0001 12.5522 15 12C15 11.1702 15.1182 10.4419 15.5137 9.83104C15.9104 9.2184 16.4932 8.8694 17.0723 8.59569C17.6273 8.33336 18.1374 8.09062 18.5205 7.78319C18.8832 7.49197 18.9999 7.25006 19 7.00194C18.9999 6.77301 18.9184 6.55034 18.7666 6.37401C18.5987 6.1842 18.3701 6.05726 18.1201 6.01561C17.8702 5.97407 17.6129 6.02038 17.3926 6.14549L17.3916 6.14452C17.1751 6.2681 17.0188 6.45895 16.9404 6.67577C16.7527 7.19494 16.1795 7.46382 15.6601 7.27635C15.1409 7.08871 14.8721 6.51544 15.0596 5.99608C15.3031 5.32173 15.7827 4.76049 16.4053 4.40623Z" fill="#E4F2F2"/>
</svg>
