<svg width="24" height="24" viewBox="0 0 24 24" fill="none" xmlns="http://www.w3.org/2000/svg">
<path fill-rule="evenodd" clip-rule="evenodd" d="M22 1C22.0552 1 22.1093 1.00506 22.1621 1.01367C22.1719 1.01526 22.1817 1.01667 22.1914 1.01855L22.2012 1.02051C22.211 1.02252 22.2207 1.02504 22.2305 1.02734C22.251 1.03219 22.2717 1.03681 22.292 1.04297C22.3039 1.04661 22.3154 1.0516 22.3271 1.05566C22.3444 1.06163 22.3619 1.06727 22.3789 1.07422C22.3925 1.07981 22.4056 1.08661 22.4189 1.09277C22.4656 1.11428 22.5111 1.1389 22.5547 1.16797C22.5657 1.17535 22.5762 1.1836 22.5869 1.19141C22.6288 1.22185 22.6693 1.25523 22.707 1.29297C22.7888 1.37479 22.8529 1.46774 22.9004 1.56641C22.9222 1.61159 22.9412 1.65838 22.9561 1.70703C22.9577 1.71255 22.9593 1.71809 22.9609 1.72363C22.9861 1.81144 23 1.90409 23 2V3.99414L22.9941 4.59082C22.9174 7.57078 22.1396 10.4936 20.7217 13.1221C19.2622 15.8274 17.1678 18.1347 14.6221 19.8516C14.586 19.9456 14.5506 20.0401 14.5107 20.1328C14.0884 21.1165 13.4652 22.002 12.6816 22.7314C12.3953 22.9979 11.9796 23.0732 11.6182 22.9238C11.2567 22.7743 11.0155 22.427 11.001 22.0361C10.9966 21.9177 10.9858 21.8006 10.9717 21.6846C8.76149 22.5791 6.39207 23.0279 4 22.999C3.9961 22.999 3.99121 23 3.9873 23C3.19624 22.9967 2.43852 22.6807 1.87891 22.1211C1.3163 21.5585 1 20.7957 1 20C1 9.54772 9.54772 1 20 1H22ZM4.41406 20.999C6.4257 20.9743 8.41259 20.5704 10.2715 19.8105C9.61117 18.8313 8.56585 18.1464 7.3916 18.0205L4.41406 20.999ZM9.03809 16.374C10.59 16.9638 11.8319 18.2015 12.4893 19.7246C12.5541 19.5999 12.6172 19.4733 12.6729 19.3438C12.9853 18.6157 13.1427 17.8303 13.1348 17.0381C13.1267 16.2456 12.9533 15.4629 12.626 14.7412C12.429 14.307 12.1776 13.9013 11.8809 13.5312L9.03809 16.374ZM19.5801 3.00488C10.5638 3.22648 3.22648 10.5638 3.00488 19.5801L19.5801 3.00488ZM13.3018 12.1104C13.7644 12.6549 14.1518 13.2614 14.4482 13.915C14.8807 14.8686 15.1117 15.9009 15.1318 16.9473C16.6816 15.6042 17.9821 13.9891 18.9619 12.1729C20.2499 9.78541 20.9447 7.12622 20.9951 4.41797L13.3018 12.1104Z" fill="#E4F2F2"/>
</svg>
