<svg width="24" height="24" viewBox="0 0 24 24" fill="none" xmlns="http://www.w3.org/2000/svg">
<path fill-rule="evenodd" clip-rule="evenodd" d="M12.0508 4.65039C12.7989 4.65052 13.6043 4.83483 14.2549 5.26855L16.9551 7.06836C17.6184 7.51077 18.075 8.19529 18.0752 9C18.075 9.80486 17.6186 10.4902 16.9551 10.9326L14.2549 12.7324C13.6043 13.1661 12.7988 13.3505 12.0508 13.3506C11.3026 13.3506 10.4965 13.1661 9.8457 12.7324L8.65332 11.9375C8.6195 11.9249 8.58574 11.911 8.55273 11.8945C8.44274 11.8395 8.34772 11.7667 8.26855 11.6816L7.14551 10.9326C6.48193 10.4902 6.02554 9.80488 6.02539 9C6.02554 8.19516 6.48197 7.51077 7.14551 7.06836L9.8457 5.26855C10.4965 4.83471 11.3025 4.65039 12.0508 4.65039ZM13.543 10.8027C12.9035 10.2014 12.259 10.061 11.7354 10.1191C11.2626 10.1717 10.8058 10.3927 10.4414 10.7256L10.9551 11.0684C11.2043 11.2343 11.5994 11.3506 12.0508 11.3506C12.502 11.3505 12.8965 11.2343 13.1455 11.0684L13.543 10.8027ZM12.0508 6.65039C11.5992 6.65039 11.2042 6.76654 10.9551 6.93262L8.25488 8.73242C8.13601 8.8117 8.07813 8.88379 8.05176 8.92773C8.02726 8.96868 8.02543 8.99191 8.02539 9C8.02544 9.00811 8.02711 9.03214 8.05176 9.07324C8.07826 9.11724 8.13636 9.18953 8.25488 9.26855L8.75098 9.59863C9.44791 8.80822 10.4256 8.25187 11.5146 8.13086C12.8184 7.98603 14.1454 8.47668 15.2324 9.67676L15.8457 9.26855C15.9645 9.18935 16.0224 9.11721 16.0488 9.07324C16.0735 9.0321 16.0751 9.00811 16.0752 9C16.0752 8.99193 16.0732 8.96851 16.0488 8.92773C16.0225 8.88382 15.9644 8.81161 15.8457 8.73242L13.1455 6.93262C12.8965 6.76662 12.5021 6.65052 12.0508 6.65039Z" fill="#E4F2F2"/>
<path fill-rule="evenodd" clip-rule="evenodd" d="M12 1.02539C13.747 1.02539 15.4582 1.5211 16.9346 2.45508C16.9462 2.46242 16.9575 2.47071 16.9688 2.47852L20.8691 5.17773L20.8779 5.18457C22.2325 6.14414 23.0382 7.46168 23.0938 8.89258C23.0975 8.92787 23.0996 8.9637 23.0996 9V15C23.0996 16.4851 22.2878 17.8693 20.8682 18.8213L20.8691 18.8223L16.9688 21.5225L16.9678 21.5215C15.5689 22.5088 13.786 22.9746 12.0498 22.9746C10.3133 22.9746 8.52984 22.5092 7.13086 21.5215L3.23047 18.8223C1.81145 17.8703 1 16.4847 1 15V9C1 8.96374 1.00112 8.92784 1.00488 8.89258C1.06042 7.46175 1.86726 6.14413 3.22168 5.18457L7.02051 2.48535L7.06543 2.45508C8.54181 1.5211 10.253 1.02539 12 1.02539ZM20.8779 12.916L20.8691 12.9229L16.9766 15.6152L16.9775 15.6162C15.5773 16.6079 13.7897 17.0752 12.0498 17.0752C10.3099 17.0752 8.5223 16.608 7.12207 15.6162L3.23047 12.9229L3.22168 12.916C3.14579 12.8623 3.07243 12.806 3 12.75V15C3 15.6657 3.33682 16.4196 4.17969 17.0449L4.35449 17.168L4.36914 17.1777L8.26953 19.8779L8.27832 19.8838C9.27796 20.5918 10.64 20.9746 12.0498 20.9746C13.4597 20.9746 14.8226 20.5919 15.8223 19.8838L15.8311 19.8779L19.7305 17.1777C19.7352 17.1744 19.7403 17.1712 19.7451 17.168C20.7167 16.5203 21.0996 15.71 21.0996 15V12.75C21.0272 12.806 20.9538 12.8623 20.8779 12.916ZM12 3.02539C10.6377 3.02539 9.30332 3.41048 8.15039 4.13574L4.37891 6.81543L4.37793 6.81641C3.38252 7.52157 3 8.3426 3 9.05078C3.00028 9.75881 3.3828 10.5793 4.37793 11.2842L8.26953 13.9785L8.27832 13.9844C9.27794 14.6923 10.6401 15.0752 12.0498 15.0752C13.4597 15.0752 14.8226 14.6924 15.8223 13.9844L15.8311 13.9785L19.7217 11.2842C20.7169 10.5792 21.0993 9.75884 21.0996 9.05078C21.0996 8.34258 20.7171 7.52159 19.7217 6.81641L15.8652 4.14551L15.6465 4.0127C14.5412 3.36709 13.2831 3.02539 12 3.02539Z" fill="#E4F2F2"/>
</svg>
