<svg width="24" height="24" viewBox="0 0 24 24" fill="none" xmlns="http://www.w3.org/2000/svg">
<path fill-rule="evenodd" clip-rule="evenodd" d="M14 7C15.6569 7 17 8.34315 17 10V14C17 15.6569 15.6569 17 14 17H10C8.34315 17 7 15.6569 7 14V10C7 8.34315 8.34315 7 10 7H14ZM9 13V14C9 14.5523 9.44772 15 10 15H11V13H9ZM13 15H14C14.5523 15 15 14.5523 15 14V10C15 9.44772 14.5523 9 14 9H13V15ZM10 9C9.44772 9 9 9.44772 9 10V11H11V9H10Z" fill="#E4F2F2"/>
<path fill-rule="evenodd" clip-rule="evenodd" d="M14 2C18.4183 2 22 5.58172 22 10V14C22 18.4183 18.4183 22 14 22H10C5.58172 22 2 18.4183 2 14V10C2 5.58172 5.58172 2 10 2H14ZM10 4C6.68629 4 4 6.68629 4 10V14C4 17.3137 6.68629 20 10 20H14C17.3137 20 20 17.3137 20 14V10C20 6.68629 17.3137 4 14 4H10Z" fill="#E4F2F2"/>
</svg>
