<svg width="24" height="24" viewBox="0 0 24 24" fill="none" xmlns="http://www.w3.org/2000/svg">
<path fill-rule="evenodd" clip-rule="evenodd" d="M18 5C19.3261 5 20.5975 5.52716 21.5352 6.46484C22.4728 7.40253 23 8.67392 23 10C23 10.7957 22.6837 11.5585 22.1211 12.1211C21.802 12.4401 21.4173 12.6764 21 12.8242V16C21 16.7957 20.6837 17.5585 20.1211 18.1211C19.5585 18.6837 18.7957 19 18 19C17.2589 19 16.5489 18.7227 16 18.2305C15.4511 18.7227 14.7411 19 14 19C13.2589 19 12.5489 18.7227 12 18.2305C11.4511 18.7227 10.7411 19 10 19C9.25892 19 8.5489 18.7227 8 18.2305C7.4511 18.7227 6.74108 19 6 19C5.20435 19 4.44151 18.6837 3.87891 18.1211C3.3163 17.5585 3 16.7956 3 16V12.8242C2.58269 12.6764 2.19796 12.4401 1.87891 12.1211C1.3163 11.5585 1 10.7956 1 10C1 8.67392 1.52716 7.40253 2.46484 6.46484C3.40253 5.52716 4.67392 5 6 5H18ZM13.6367 11.5645C12.709 11.3115 11.1904 11.3115 10.2627 11.5645C10.256 11.5663 10.249 11.5686 10.2422 11.5703L5 12.8799V16L5.00488 16.0986C5.02757 16.3276 5.12883 16.5429 5.29297 16.707C5.48051 16.8946 5.73478 17 6 17C6.26522 17 6.51949 16.8946 6.70703 16.707C6.87117 16.5429 6.97243 16.3276 6.99512 16.0986L7 16C7 15.4477 7.44772 15 8 15C8.55228 15 9 15.4477 9 16C9 16.2652 9.10543 16.5195 9.29297 16.707C9.48051 16.8946 9.73478 17 10 17C10.2652 17 10.5195 16.8946 10.707 16.707C10.8946 16.5195 11 16.2652 11 16C11 15.4477 11.4477 15 12 15C12.5523 15 13 15.4477 13 16C13 16.2652 13.1054 16.5195 13.293 16.707C13.4805 16.8946 13.7348 17 14 17C14.2652 17 14.5195 16.8946 14.707 16.707C14.8946 16.5195 15 16.2652 15 16C15 15.4477 15.4477 15 16 15C16.5523 15 17 15.4477 17 16C17 16.2652 17.1054 16.5195 17.293 16.707C17.4805 16.8946 17.7348 17 18 17C18.2652 17 18.5195 16.8946 18.707 16.707C18.8946 16.5195 19 16.2652 19 16V12.9053L13.6572 11.5703C13.6504 11.5686 13.6435 11.5663 13.6367 11.5645ZM5.77734 7.01074C5.06322 7.06394 4.38876 7.36906 3.87891 7.87891C3.3163 8.44152 3 9.20435 3 10L3.00488 10.0986C3.02757 10.3276 3.12883 10.5429 3.29297 10.707C3.48051 10.8946 3.73478 11 4 11H4.27832L5.01758 10.8145C5.01825 10.8109 5.01882 10.8073 5.01953 10.8037L5.77734 7.01074ZM19.0645 10.8604L19.6211 11H20C20.2652 11 20.5195 10.8946 20.707 10.707C20.8946 10.5195 21 10.2652 21 10C21 9.20435 20.6837 8.44152 20.1211 7.87891C20.0404 7.7982 19.9547 7.72368 19.8662 7.65332L19.0645 10.8604ZM15.0645 9.86035L17.125 10.375L17.9697 7H15.7803L15.0645 9.86035ZM7.16406 10.2773L9.01855 9.81348C9.02209 9.79496 9.02565 9.77633 9.03027 9.75781L9.71973 7H7.81934L7.16406 10.2773ZM11.1777 9.40625C11.8162 9.35899 12.4886 9.36808 13.1094 9.43945L13.7197 7H11.7803L11.1777 9.40625Z" fill="#E4F2F2"/>
</svg>
