<svg width="24" height="24" viewBox="0 0 24 24" fill="none" xmlns="http://www.w3.org/2000/svg">
<path fill-rule="evenodd" clip-rule="evenodd" d="M13 9C13.5272 9 14.0439 9.18058 14.4316 9.56836C14.8194 9.95614 15 10.4728 15 11V13C15 13.5272 14.8194 14.0439 14.4316 14.4316C14.0439 14.8194 13.5272 15 13 15H11C10.4728 15 9.95614 14.8194 9.56836 14.4316C9.18058 14.0439 9 13.5272 9 13V11C9 10.4728 9.18058 9.95614 9.56836 9.56836C9.95614 9.18058 10.4728 9 11 9H13ZM11 13H13V11H11V13Z" fill="#E4F2F2"/>
<path fill-rule="evenodd" clip-rule="evenodd" d="M13 5C16.3523 5 19 7.64772 19 11V17C19 20.3523 16.3523 23 13 23H11C7.64772 23 5 20.3523 5 17V11C5 7.64772 7.64772 5 11 5H13ZM16.9658 17.5273C15.9139 18.4467 14.5309 19 13 19H11C9.46882 19 8.08523 18.4469 7.0332 17.5273C7.28293 19.5159 8.93144 21 11 21H13C15.0685 21 16.716 19.5158 16.9658 17.5273ZM11 7C8.75229 7 7 8.75229 7 11V13C7 15.2477 8.75229 17 11 17H13C15.2477 17 17 15.2477 17 13V11C17 8.75229 15.2477 7 13 7H11Z" fill="#E4F2F2"/>
<path d="M2 1C2.55228 1 3 1.44772 3 2V18C3 18.5523 2.55228 19 2 19C1.44772 19 1 18.5523 1 18V2C1 1.44772 1.44772 1 2 1Z" fill="#E4F2F2"/>
<path d="M22 1C22.5523 1 23 1.44772 23 2V18C23 18.5523 22.5523 19 22 19C21.4477 19 21 18.5523 21 18V2C21 1.44772 21.4477 1 22 1Z" fill="#E4F2F2"/>
</svg>
