<svg width="24" height="24" viewBox="0 0 24 24" fill="none" xmlns="http://www.w3.org/2000/svg">
<path fill-rule="evenodd" clip-rule="evenodd" d="M15.418 1.18652C15.6805 0.998768 16.0178 0.949415 16.3232 1.0537L20.4229 2.45409C21.9792 2.91178 23 4.5269 23 5.99999V18C23 18.5272 22.8194 19.0439 22.4316 19.4316C22.0439 19.8194 21.5272 20 21 20H19V21C19 21.5272 18.8194 22.0439 18.4316 22.4316C18.0439 22.8194 17.5272 23 17 23H7C6.47275 23 5.95614 22.8194 5.56836 22.4316C5.18058 22.0439 5 21.5272 5 21V20H3C2.47275 20 1.95614 19.8194 1.56836 19.4316C1.18058 19.0439 1 18.5272 1 18V5.99999C1 4.52718 2.02134 2.91214 3.57715 2.45409L7.67676 1.0537C7.98217 0.949415 8.31953 0.998768 8.58203 1.18652C8.84445 1.37427 9 1.67732 9 1.99999C9 2.79564 9.3163 3.55848 9.87891 4.12109C10.4415 4.68369 11.2044 4.99999 12 4.99999C12.7956 4.99999 13.5585 4.68369 14.1211 4.12109C14.6837 3.55848 15 2.79564 15 1.99999C15 1.67732 15.1556 1.37427 15.418 1.18652ZM12.707 18.707C12.3165 19.0975 11.6835 19.0975 11.293 18.707L10 17.4141L8.70703 18.707C8.31651 19.0975 7.68349 19.0975 7.29297 18.707L7 18.4141V21H17V18.4141L16.707 18.707C16.3165 19.0975 15.6835 19.0975 15.293 18.707L14 17.4141L12.707 18.707ZM16.8164 3.33495C16.5878 4.15953 16.1509 4.91945 15.5352 5.53515C14.5975 6.47283 13.3261 6.99999 12 6.99999C10.6739 6.99999 9.40252 6.47283 8.46484 5.53515C7.84908 4.91938 7.41117 4.15963 7.18262 3.33495L4.22266 4.34667C4.20302 4.35336 4.1831 4.35977 4.16309 4.36523C3.5528 4.53177 3 5.29179 3 5.99999V18H5V7.99999C5 7.44771 5.44772 6.99999 6 6.99999C6.55228 6.99999 7 7.44771 7 7.99999V9.58593L8 10.5859L9.29297 9.29296L9.36914 9.2246C9.76191 8.90425 10.3409 8.92685 10.707 9.29296L12 10.5859L13.293 9.29296L13.3691 9.2246C13.7619 8.90425 14.3409 8.92685 14.707 9.29296L16 10.5859L17 9.58593V7.99999C17 7.44771 17.4477 6.99999 18 6.99999C18.5523 6.99999 19 7.44771 19 7.99999V18H21V5.99999C21 5.29179 20.4472 4.53177 19.8369 4.36523C19.8169 4.35977 19.797 4.35336 19.7773 4.34667L16.8164 3.33495ZM12.707 12.707C12.3165 13.0975 11.6835 13.0975 11.293 12.707L10 11.4141L8.70703 12.707C8.31651 13.0975 7.68349 13.0975 7.29297 12.707L7 12.4141V15.5859L8 16.5859L9.29297 15.293L9.36914 15.2246C9.76191 14.9043 10.3409 14.9268 10.707 15.293L12 16.5859L13.293 15.293L13.3691 15.2246C13.7619 14.9043 14.3409 14.9268 14.707 15.293L16 16.5859L17 15.5859V12.4141L16.707 12.707C16.3165 13.0975 15.6835 13.0975 15.293 12.707L14 11.4141L12.707 12.707Z" fill="#E4F2F2"/>
</svg>
