<svg width="24" height="24" viewBox="0 0 24 24" fill="none" xmlns="http://www.w3.org/2000/svg">
<path d="M15 6C15.5523 6 16 6.44772 16 7C16 7.55228 15.5523 8 15 8H11V10H14C14.5523 10 15 10.4477 15 11C15 11.5523 14.5523 12 14 12H11V14H13C13.5523 14 14 14.4477 14 15C14 15.5523 13.5523 16 13 16H11V17C11 17.5523 10.5523 18 10 18C9.44771 18 9 17.5523 9 17V16H8C7.44772 16 7 15.5523 7 15C7 14.4477 7.44772 14 8 14H9V7C9 6.44772 9.44771 6 10 6H15Z" fill="#E4F2F2"/>
<path fill-rule="evenodd" clip-rule="evenodd" d="M12 1C18.0751 1 23 5.92487 23 12C23 18.0751 18.0751 23 12 23C5.92487 23 1 18.0751 1 12C1 5.92487 5.92487 1 12 1ZM12 3C7.02944 3 3 7.02944 3 12C3 16.9706 7.02944 21 12 21C16.9706 21 21 16.9706 21 12C21 7.02944 16.9706 3 12 3Z" fill="#E4F2F2"/>
</svg>
