<svg width="24" height="24" viewBox="0 0 24 24" fill="none" xmlns="http://www.w3.org/2000/svg">
<path d="M15 6C15.5523 6 16 6.44772 16 7C16 7.55228 15.5523 8 15 8H11V10H14C14.5523 10 15 10.4477 15 11C15 11.5523 14.5523 12 14 12H11V14H13C13.5523 14 14 14.4477 14 15C14 15.5523 13.5523 16 13 16H11V17C11 17.5523 10.5523 18 10 18C9.44772 18 9 17.5523 9 17V16H8C7.44772 16 7 15.5523 7 15C7 14.4477 7.44772 14 8 14H9V7C9 6.44772 9.44772 6 10 6H15Z" fill="#E4F2F2"/>
<path fill-rule="evenodd" clip-rule="evenodd" d="M19 2C20.6569 2 22 3.34315 22 5V19C22 20.6569 20.6569 22 19 22H5C3.34315 22 2 20.6569 2 19V5C2 3.34315 3.34315 2 5 2H19ZM5 4C4.44772 4 4 4.44772 4 5V19C4 19.5523 4.44772 20 5 20H19C19.5523 20 20 19.5523 20 19V5C20 4.44772 19.5523 4 19 4H5Z" fill="#E4F2F2"/>
</svg>
