<svg width="24" height="24" viewBox="0 0 24 24" fill="none" xmlns="http://www.w3.org/2000/svg">
<path d="M20 3.99999C20.7957 3.99999 21.5585 4.31628 22.1211 4.87889C22.6837 5.4415 23 6.20435 23 6.99999V17C23 17.7956 22.6837 18.5585 22.1211 19.1211C21.5585 19.6837 20.7956 20 20 20H17.4141L18.707 21.293C19.0975 21.6835 19.0975 22.3165 18.707 22.707C18.3165 23.0975 17.6835 23.0975 17.293 22.707L14.293 19.707C14.2618 19.6759 14.2342 19.6424 14.208 19.6084C14.1942 19.5905 14.1805 19.5725 14.168 19.5537C14.142 19.5147 14.1196 19.4741 14.0996 19.4326C14.0777 19.387 14.0579 19.3401 14.043 19.291C14.0379 19.2743 14.0345 19.2571 14.0303 19.2402C14.0112 19.1632 14 19.0829 14 19C14 18.9203 14.0097 18.8428 14.0273 18.7685C14.0322 18.748 14.0368 18.7273 14.043 18.707C14.0579 18.6583 14.0778 18.6117 14.0996 18.5664C14.1188 18.5266 14.1403 18.4877 14.165 18.4502C14.2024 18.3935 14.2452 18.3408 14.293 18.293L17.293 15.293C17.6835 14.9024 18.3165 14.9024 18.707 15.293C19.0975 15.6835 19.0975 16.3165 18.707 16.707L17.4141 18H20C20.2652 18 20.5195 17.8945 20.707 17.707C20.8946 17.5195 21 17.2652 21 17V6.99999C21 6.73479 20.8945 6.48049 20.707 6.29295C20.5429 6.12881 20.3276 6.02756 20.0986 6.00487L20 5.99999H13C12.4477 5.99999 12 5.55224 12 4.99999C12 4.4477 12.4477 3.99999 13 3.99999H20Z" fill="#E4F2F2"/>
<path d="M5.29297 1.29295C5.68349 0.90243 6.31651 0.90243 6.70703 1.29295L9.70703 4.29295C9.75484 4.34077 9.79758 4.39352 9.83496 4.45018C9.8597 4.48767 9.88123 4.5266 9.90039 4.56639C9.92219 4.61158 9.94117 4.65836 9.95605 4.70702C9.96225 4.7273 9.9668 4.74797 9.97168 4.76854C9.98932 4.8429 10 4.92023 10 4.99999C9.99999 5.08298 9.98781 5.16311 9.96875 5.24022C9.96457 5.25716 9.96114 5.27426 9.95605 5.291C9.94116 5.34 9.92229 5.38711 9.90039 5.4326C9.88036 5.47427 9.85719 5.51457 9.83105 5.5537C9.81847 5.57254 9.80482 5.59047 9.79102 5.60838C9.76494 5.64219 9.73802 5.67603 9.70703 5.70702L6.70703 8.70702C6.31652 9.09749 5.68348 9.09749 5.29297 8.70702C4.90246 8.31651 4.90248 7.68348 5.29297 7.29295L6.58594 5.99999H4C3.73478 5.99999 3.4805 6.10542 3.29297 6.29295C3.10546 6.48049 3 6.73479 3 6.99999V17C3.00002 17.2652 3.10545 17.5195 3.29297 17.707C3.4805 17.8945 3.7348 18 4 18H11C11.5523 18 12 18.4477 12 19C12 19.5522 11.5523 20 11 20H4C3.20437 20 2.44151 19.6837 1.87891 19.1211C1.31631 18.5585 1.00002 17.7956 1 17V6.99999C1 6.20435 1.31632 5.4415 1.87891 4.87889C2.44152 4.31628 3.20435 3.99999 4 3.99999H6.58594L5.29297 2.70702C4.90246 2.3165 4.90248 1.68348 5.29297 1.29295Z" fill="#E4F2F2"/>
<path fill-rule="evenodd" clip-rule="evenodd" d="M12 7.99999C14.2091 7.99999 16 9.79085 16 12C16 14.2091 14.2091 16 12 16C9.79089 16 8.00004 14.2091 8 12C8 9.79085 9.79086 7.99999 12 7.99999ZM12 9.99999C10.8954 9.99999 10 10.8954 10 12C10 13.1045 10.8955 14 12 14C13.1045 14 14 13.1045 14 12C14 10.8954 13.1046 9.99999 12 9.99999Z" fill="#E4F2F2"/>
</svg>
