<svg width="24" height="24" viewBox="0 0 24 24" fill="none" xmlns="http://www.w3.org/2000/svg">
<path fill-rule="evenodd" clip-rule="evenodd" d="M21 2C21.5522 2.00004 22 2.44774 22 3V6C22 6.2652 21.8945 6.5195 21.707 6.70703L10.9141 17.5L11.707 18.293C12.0975 18.6835 12.0975 19.3165 11.707 19.707C11.3165 20.0975 10.6835 20.0975 10.293 19.707L8 17.4141L5.41406 20L5.70703 20.293C6.09751 20.6835 6.09751 21.3165 5.70703 21.707C5.31652 22.0975 4.6835 22.0975 4.29297 21.707L2.29297 19.707C1.90245 19.3165 1.90245 18.6835 2.29297 18.293C2.6835 17.9025 3.31652 17.9025 3.70703 18.293L4 18.5859L6.58594 16L4.29297 13.707C3.90245 13.3165 3.90245 12.6835 4.29297 12.293C4.6835 11.9025 5.31652 11.9025 5.70703 12.293L6.5 13.0859L17.293 2.29297L17.3662 2.22656C17.5442 2.08075 17.7679 2 18 2H21ZM7.91406 14.5L9.5 16.0859L20 5.58594V4H18.4141L7.91406 14.5Z" fill="#E4F2F2"/>
</svg>
