<svg width="24" height="24" viewBox="0 0 24 24" fill="none" xmlns="http://www.w3.org/2000/svg">
<path fill-rule="evenodd" clip-rule="evenodd" d="M17.293 1.29295C17.6835 0.90243 18.3165 0.90243 18.707 1.29295L22.707 5.29295C23.0975 5.68349 23.0975 6.31652 22.707 6.70702C22.3165 7.09752 21.6835 7.09747 21.293 6.70702L20 5.41405L18.4141 6.99999L20.707 9.29295C21.0975 9.68349 21.0975 10.3165 20.707 10.707C20.3165 11.0975 19.6835 11.0975 19.293 10.707L19 10.414L9.40723 20.0068C8.18853 21.2255 6.3399 21.4022 5.01953 20.3935L2.70703 22.707C2.31653 23.0975 1.6835 23.0975 1.29297 22.707C0.902445 22.3165 0.902445 21.6835 1.29297 21.293L3.61816 18.9668C2.63927 17.6203 2.71501 15.7766 3.99316 14.5918L13.585 4.99901L13.293 4.70702C12.9024 4.31649 12.9024 3.68348 13.293 3.29295C13.6835 2.90243 14.3165 2.90243 14.707 3.29295L17 5.58592L18.5859 3.99999L17.293 2.70702C16.9024 2.31649 16.9024 1.68348 17.293 1.29295ZM5.40723 16.0068C5.39492 16.0191 5.38208 16.0313 5.36914 16.043C4.83238 16.526 4.77589 17.3618 5.40723 17.9931L6.00684 18.5928C6.01918 18.6051 6.03227 18.6179 6.04395 18.6308C6.52707 19.1673 7.36195 19.224 7.99317 18.5928L11.5859 15L9 12.414L5.40723 16.0068ZM10.4141 11L13 13.5859L17.5859 8.99999L15 6.41405L10.4141 11Z" fill="#E4F2F2"/>
</svg>
