<svg width="24" height="24" viewBox="0 0 24 24" fill="none" xmlns="http://www.w3.org/2000/svg">
<path d="M14.293 9.29297C14.6835 8.90244 15.3165 8.90244 15.707 9.29297C16.0976 9.68349 16.0976 10.3165 15.707 10.707L11.707 14.707C11.3165 15.0976 10.6835 15.0976 10.293 14.707L8.29297 12.707C7.90244 12.3165 7.90244 11.6835 8.29297 11.293C8.68349 10.9024 9.31651 10.9024 9.70703 11.293L11 12.5859L14.293 9.29297Z" fill="#E4F2F2"/>
<path fill-rule="evenodd" clip-rule="evenodd" d="M18 3C18.7957 3 19.5585 3.3163 20.1211 3.87891C20.6837 4.44151 21 5.20435 21 6V19H22C22.5523 19 23 19.4477 23 20C23 20.5523 22.5523 21 22 21H2C1.44772 21 1 20.5523 1 20C1 19.4477 1.44772 19 2 19H3V6C3 5.20435 3.3163 4.44152 3.87891 3.87891C4.44152 3.3163 5.20435 3 6 3H18ZM6 5C5.73478 5 5.4805 5.10543 5.29297 5.29297C5.10543 5.4805 5 5.73478 5 6V19H19V6C19 5.73478 18.8946 5.48051 18.707 5.29297C18.5429 5.12883 18.3276 5.02757 18.0986 5.00488L18 5H6Z" fill="#E4F2F2"/>
</svg>
