<svg width="24" height="24" viewBox="0 0 24 24" fill="none" xmlns="http://www.w3.org/2000/svg">
<path d="M14 15C14.5523 15 15 15.4477 15 16C15 16.5523 14.5523 17 14 17H8C7.44772 17 7 16.5523 7 16C7 15.4477 7.44772 15 8 15H14Z" fill="#E4F2F2"/>
<path d="M16 11C16.5523 11 17 11.4477 17 12C17 12.5523 16.5523 13 16 13H8C7.44772 13 7 12.5523 7 12C7 11.4477 7.44772 11 8 11H16Z" fill="#E4F2F2"/>
<path d="M14 7C14.5523 7 15 7.44772 15 8C15 8.55228 14.5523 9 14 9H8C7.44772 9 7 8.55228 7 8C7 7.44772 7.44772 7 8 7H14Z" fill="#E4F2F2"/>
<path fill-rule="evenodd" clip-rule="evenodd" d="M18 3C18.7957 3 19.5585 3.3163 20.1211 3.87891C20.6837 4.44151 21 5.20435 21 6V19H22C22.5523 19 23 19.4477 23 20C23 20.5523 22.5523 21 22 21H2C1.44772 21 1 20.5523 1 20C1 19.4477 1.44772 19 2 19H3V6C3 5.20435 3.3163 4.44152 3.87891 3.87891C4.44152 3.3163 5.20435 3 6 3H18ZM6 5C5.73478 5 5.4805 5.10543 5.29297 5.29297C5.10543 5.4805 5 5.73478 5 6V19H19V6C19 5.73478 18.8946 5.48051 18.707 5.29297C18.5429 5.12883 18.3276 5.02757 18.0986 5.00488L18 5H6Z" fill="#E4F2F2"/>
</svg>
