<svg width="24" height="24" viewBox="0 0 24 24" fill="none" xmlns="http://www.w3.org/2000/svg">
<path d="M12 7C12.5523 7 13 7.44772 13 8V13.5859L15.293 11.293C15.6835 10.9024 16.3165 10.9024 16.707 11.293C17.0976 11.6835 17.0976 12.3165 16.707 12.707L12.707 16.707C12.6592 16.7548 12.6065 16.7976 12.5498 16.835C12.5121 16.8599 12.4727 16.8811 12.4326 16.9004C12.3874 16.9222 12.3407 16.9412 12.292 16.9561C12.2717 16.9622 12.251 16.9668 12.2305 16.9717C12.2191 16.9744 12.2078 16.9772 12.1963 16.9795C12.1859 16.9816 12.1754 16.9826 12.165 16.9844C12.1112 16.9933 12.0563 17 12 17C11.9433 17 11.8881 16.9934 11.834 16.9844C11.8236 16.9826 11.8131 16.9816 11.8027 16.9795C11.7912 16.9772 11.7799 16.9744 11.7686 16.9717C11.748 16.9668 11.7273 16.9623 11.707 16.9561C11.6584 16.9412 11.6116 16.9222 11.5664 16.9004C11.5266 16.8812 11.4877 16.8597 11.4502 16.835C11.3935 16.7976 11.3408 16.7548 11.293 16.707L7.29297 12.707C6.90244 12.3165 6.90244 11.6835 7.29297 11.293C7.68349 10.9024 8.31651 10.9024 8.70703 11.293L11 13.5859V8C11 7.44772 11.4477 7 12 7Z" fill="#E4F2F2"/>
<path fill-rule="evenodd" clip-rule="evenodd" d="M18 3C18.7957 3 19.5585 3.3163 20.1211 3.87891C20.6837 4.44151 21 5.20435 21 6V19H22C22.5523 19 23 19.4477 23 20C23 20.5523 22.5523 21 22 21H2C1.44772 21 1 20.5523 1 20C1 19.4477 1.44772 19 2 19H3V6C3 5.20435 3.3163 4.44152 3.87891 3.87891C4.44152 3.3163 5.20435 3 6 3H18ZM6 5C5.73478 5 5.4805 5.10543 5.29297 5.29297C5.10543 5.4805 5 5.73478 5 6V19H19V6C19 5.73478 18.8946 5.48051 18.707 5.29297C18.5429 5.12883 18.3276 5.02757 18.0986 5.00488L18 5H6Z" fill="#E4F2F2"/>
</svg>
