<svg width="24" height="24" viewBox="0 0 24 24" fill="none" xmlns="http://www.w3.org/2000/svg">
<path d="M15 8C15.0563 8 15.1113 8.00571 15.165 8.01465C15.1738 8.01611 15.1827 8.01686 15.1914 8.01855L15.2012 8.02051C15.211 8.02252 15.2207 8.02504 15.2305 8.02734C15.251 8.0322 15.2717 8.0368 15.292 8.04297C15.3408 8.05783 15.3873 8.0778 15.4326 8.09961C15.4466 8.10635 15.4609 8.11269 15.4746 8.12012C15.6203 8.19887 15.7441 8.31255 15.835 8.4502C15.8597 8.48768 15.8812 8.52662 15.9004 8.56641C15.9222 8.61159 15.9412 8.65838 15.9561 8.70703C15.9623 8.72732 15.9668 8.74799 15.9717 8.76855C15.9893 8.84294 16 8.92022 16 9V15C16 15.5523 15.5523 16 15 16C14.4477 16 14 15.5523 14 15V11.4141L9.70703 15.707C9.31651 16.0976 8.68349 16.0976 8.29297 15.707C7.90244 15.3165 7.90244 14.6835 8.29297 14.293L12.5859 10H9C8.44772 10 8 9.55228 8 9C8 8.44772 8.44772 8 9 8H15Z" fill="#E4F2F2"/>
<path fill-rule="evenodd" clip-rule="evenodd" d="M18 3C18.7957 3 19.5585 3.3163 20.1211 3.87891C20.6837 4.44151 21 5.20435 21 6V19H22C22.5523 19 23 19.4477 23 20C23 20.5523 22.5523 21 22 21H2C1.44772 21 1 20.5523 1 20C1 19.4477 1.44772 19 2 19H3V6C3 5.20435 3.3163 4.44152 3.87891 3.87891C4.44152 3.3163 5.20435 3 6 3H18ZM6 5C5.73478 5 5.4805 5.10543 5.29297 5.29297C5.10543 5.4805 5 5.73478 5 6V19H19V6C19 5.73478 18.8946 5.48051 18.707 5.29297C18.5429 5.12883 18.3276 5.02757 18.0986 5.00488L18 5H6Z" fill="#E4F2F2"/>
</svg>
