<svg width="24" height="24" viewBox="0 0 24 24" fill="none" xmlns="http://www.w3.org/2000/svg">
<path d="M19 3C19.5523 3 20 3.44772 20 4V6.0332L21.4854 5.14258C21.9589 4.85847 22.5732 5.01192 22.8574 5.48535C23.1415 5.95888 22.9881 6.57324 22.5146 6.85742L20 8.36621V20C20 20.5523 19.5523 21 19 21C18.4478 20.9999 18 20.5523 18 20V9.56543L15 11.3662V20C15 20.5523 14.5523 21 14 21C13.4478 20.9999 13 20.5523 13 20V12.5654L10 14.3662V20C10 20.5523 9.55229 21 9 21C8.44776 20.9999 8 20.5523 8 20V15.5654L5 17.3662V20C5 20.5523 4.55229 21 4 21C3.44776 20.9999 3 20.5523 3 20V18.5654L2.51465 18.8574C2.04113 19.1415 1.42675 18.9881 1.14258 18.5146C0.858511 18.0411 1.01196 17.4268 1.48535 17.1426L3 16.2334V4C3 3.44775 3.44776 3.00005 4 3C4.55229 3 5 3.44772 5 4V15.0332L8 13.2334V4C8 3.44775 8.44776 3.00005 9 3C9.55229 3 10 3.44772 10 4V12.0332L13 10.2334V4C13 3.44775 13.4478 3.00005 14 3C14.5523 3 15 3.44772 15 4V9.0332L18 7.2334V4C18 3.44775 18.4478 3.00005 19 3Z" fill="#E4F2F2"/>
</svg>
