<svg width="24" height="24" viewBox="0 0 24 24" fill="none" xmlns="http://www.w3.org/2000/svg">
<path d="M8.16601 1.74805C10.4541 0.884412 12.9664 0.813413 15.2998 1.5459C15.8262 1.71142 16.119 2.27223 15.9541 2.79883C15.7887 3.32576 15.2271 3.61952 14.7002 3.4541C12.7938 2.85568 10.7415 2.91354 8.87206 3.61914C7.00283 4.32471 5.42419 5.63704 4.38867 7.3457C3.35315 9.05459 2.92039 11.0622 3.16015 13.0459C3.39998 15.0294 4.29829 16.8752 5.71093 18.2881C7.12386 19.701 8.97036 20.6 10.9541 20.8398C12.9377 21.0796 14.9445 20.6467 16.6533 19.6113C18.3622 18.5758 19.6752 16.9964 20.3809 15.127C21.0862 13.2577 21.1443 11.2051 20.5459 9.29883C20.3809 8.77214 20.6736 8.21133 21.2002 8.0459C21.727 7.88051 22.2886 8.17342 22.4541 8.7002C23.1866 11.0336 23.1156 13.5459 22.2519 15.834C21.7245 17.2313 20.9183 18.4942 19.8955 19.5557L20.8945 21.5527C21.1412 22.0466 20.941 22.6476 20.4473 22.8945C19.9534 23.1414 19.3526 22.9409 19.1055 22.4473L18.331 20.8984C18.1225 21.0457 17.9099 21.1883 17.6904 21.3213C15.5987 22.5888 13.1419 23.1187 10.7139 22.8252C8.89005 22.6047 7.16106 21.9296 5.68066 20.874L4.89453 22.4473C4.64749 22.941 4.04657 23.1413 3.55273 22.8945C3.05896 22.6475 2.85871 22.0466 3.10546 21.5527L4.12109 19.5195C2.49411 17.8151 1.45822 15.6299 1.1748 13.2861C0.881332 10.8582 1.41033 8.40118 2.67773 6.30957C3.9452 4.21794 5.87788 2.61169 8.16601 1.74805Z" fill="#E4F2F2"/>
<path d="M12.2998 5C12.852 5.00005 13.2998 5.44774 13.2998 6C13.2998 6.55226 12.852 6.99995 12.2998 7H12C11.0111 7 10.0439 7.29339 9.22167 7.84277C8.39962 8.39216 7.75923 9.17344 7.38085 10.0869C7.00248 11.0005 6.90278 12.0057 7.0957 12.9756C7.28863 13.9455 7.76559 14.8359 8.46484 15.5352C9.16408 16.2344 10.0545 16.7114 11.0244 16.9043C11.9942 17.0972 12.9995 16.9975 13.9131 16.6191C14.8265 16.2408 15.6078 15.6004 16.1572 14.7783C16.638 14.0587 16.9227 13.228 16.9863 12.3691L17 12V11.7002C17 11.1479 17.4477 10.7002 18 10.7002C18.5522 10.7002 19 11.1479 19 11.7002V12C19 13.3844 18.5894 14.7376 17.8203 15.8887C17.0512 17.0398 15.9577 17.937 14.6787 18.4668C13.3998 18.9966 11.9925 19.1352 10.6348 18.8652C9.27691 18.5951 8.02876 17.9291 7.0498 16.9502C6.07084 15.9712 5.40486 14.7231 5.13476 13.3652C4.86475 12.0075 5.00343 10.6003 5.5332 9.32129C6.06302 8.04225 6.96021 6.94884 8.11132 6.17969C9.2624 5.41064 10.6156 5 12 5H12.2998Z" fill="#E4F2F2"/>
<path fill-rule="evenodd" clip-rule="evenodd" d="M21.293 1.29297C21.6834 0.902747 22.3166 0.902719 22.707 1.29297C23.0972 1.68343 23.0972 2.31657 22.707 2.70703L21.4141 4H22C22.5522 4.00005 23 4.44774 23 5C23 5.55226 22.5522 5.99995 22 6H19.4141L14.7041 10.709C14.8913 11.1005 15 11.5371 15 12C15 13.6568 13.6568 15 12 15C10.3431 15 8.99999 13.6569 8.99999 12C8.99999 10.3431 10.3431 9 12 9C12.4624 9.00001 12.8988 9.10802 13.29 9.29492L18 4.58594V2C18 1.44772 18.4477 1 19 1C19.5522 1.00005 20 1.44774 20 2V2.58594L21.293 1.29297ZM12 11C11.4477 11 11 11.4477 11 12C11 12.5523 11.4477 13 12 13C12.5522 13 13 12.5523 13 12C13 11.7712 12.9222 11.5611 12.793 11.3926C12.7586 11.3662 12.7249 11.3381 12.6934 11.3066C12.6616 11.2749 12.633 11.2408 12.6064 11.2061C12.4381 11.0773 12.2283 11 12 11Z" fill="#E4F2F2"/>
</svg>
