<svg width="24" height="24" viewBox="0 0 24 24" fill="none" xmlns="http://www.w3.org/2000/svg">
<path fill-rule="evenodd" clip-rule="evenodd" d="M18.7881 2.27244C19.3022 2.14425 19.8464 2.22555 20.3008 2.49802C20.6984 2.73658 21 3.1044 21.1553 3.53709L21.2119 3.72654L21.2129 3.72752L22.7275 9.78709L22.7656 9.98045C22.8328 10.4356 22.7415 10.9026 22.5029 11.3008C22.2303 11.7557 21.7879 12.0839 21.2734 12.2129L20.1826 12.4853C19.4109 12.6781 18.5942 12.5557 17.9121 12.1465C17.7947 12.076 17.6847 11.9958 17.5791 11.9111L14.9521 12.4717C14.9826 12.6432 15 12.8197 15 13C14.9999 13.8083 14.6781 14.5397 14.1582 15.0791L16.8945 20.5527C17.1412 21.0466 16.941 21.6475 16.4473 21.8945C15.9535 22.1411 15.3535 21.9407 15.1064 21.4472L12.3701 15.9756C12.2488 15.9905 12.1253 16 12 16C11.8743 16 11.7505 15.9906 11.6289 15.9756L8.89452 21.4472C8.64742 21.941 8.04659 22.1414 7.55272 21.8945C7.05892 21.6475 6.85874 21.0466 7.10546 20.5527L9.84178 15.0801C9.48217 14.707 9.21942 14.2419 9.09081 13.7226L4.09374 14.789L4.09276 14.7881C3.59758 14.8943 3.08031 14.8032 2.65233 14.5322C2.22312 14.2603 1.9175 13.8299 1.80272 13.3349L1.8037 13.334L1.27049 11.2011L1.26854 11.1953C1.14655 10.6943 1.21571 10.1654 1.46288 9.71287C1.71015 9.26023 2.11782 8.91605 2.60546 8.74802C2.60989 8.7465 2.61467 8.74558 2.61913 8.74412L15.5898 4.47849C15.6574 4.28225 15.7451 4.09179 15.8535 3.91111C16.2627 3.22936 16.9259 2.73801 17.6973 2.5449L17.6982 2.54392L18.7881 2.27244ZM12 12C11.4478 12.0001 11 12.4478 11 13C11.0001 13.5521 11.4479 13.9998 12 14C12.5522 14 12.9998 13.5521 13 13C13 12.4477 12.5523 12 12 12ZM3.25585 10.6386L3.25682 10.6396C3.24056 10.6453 3.22704 10.6567 3.21874 10.6719C3.21081 10.6864 3.2076 10.7035 3.21092 10.7197L3.73632 12.8193L6.04979 12.3252L5.44823 9.91697L3.25585 10.6386ZM7.35253 9.29099L8.00682 11.9082L9.33495 11.625C9.83362 10.6601 10.839 10.0001 12 9.99998C12.7082 9.99998 13.3579 10.2468 13.8711 10.6572L16.4932 10.0976L15.6133 6.57615L7.35253 9.29099ZM18.1826 4.48533L18.1816 4.48435C17.925 4.54891 17.7046 4.7135 17.5683 4.94041C17.4319 5.16776 17.3918 5.44002 17.456 5.69724L18.4853 9.81736C18.5498 10.0744 18.7141 10.2953 18.9414 10.4316C19.1687 10.5679 19.4411 10.6092 19.6982 10.5449L20.7871 10.2724L19.2724 4.21287L18.1826 4.48533Z" fill="#E4F2F2"/>
</svg>
