<svg width="24" height="24" viewBox="0 0 24 24" fill="none" xmlns="http://www.w3.org/2000/svg">
<path fill-rule="evenodd" clip-rule="evenodd" d="M12 1C18.0751 1 23 5.92487 23 12C23 18.0751 18.0751 23 12 23C5.92487 23 1 18.0751 1 12C1 5.92487 5.92487 1 12 1ZM12.9482 3.0498C12.4487 8.26832 8.26832 12.4487 3.0498 12.9482C3.49095 17.1611 6.8381 20.5076 11.0508 20.9492C11.5506 15.7314 15.7314 11.5506 20.9492 11.0508C20.5076 6.8381 17.1611 3.49095 12.9482 3.0498ZM20.9346 13.0654C16.8334 13.5555 13.5555 16.8334 13.0654 20.9346C17.1841 20.4486 20.4486 17.1841 20.9346 13.0654ZM10.9336 3.06445C6.81557 3.5507 3.5507 6.81557 3.06445 10.9336C7.16632 10.4439 10.4439 7.16632 10.9336 3.06445Z" fill="#E4F2F2"/>
</svg>
