<svg width="24" height="24" viewBox="0 0 24 24" fill="none" xmlns="http://www.w3.org/2000/svg">
<path fill-rule="evenodd" clip-rule="evenodd" d="M9.99316 3.99272C13.2053 0.780894 18.2595 -0.154483 21.207 2.79252C24.1544 5.74004 23.2197 10.7951 20.0078 14.0074L20.0068 14.0064C18.697 15.3308 17.0581 16.284 15.2588 16.7662C15.2541 16.7674 15.2488 16.7679 15.2441 16.7691C15.2418 16.7697 15.2397 16.7714 15.2373 16.772L6.50781 18.9058L2.70703 22.7076C2.31656 23.0979 1.68347 23.0978 1.29297 22.7076C0.902486 22.3171 0.902568 21.684 1.29297 21.2935L5.09375 17.4917L7.22852 8.76323C7.22994 8.7574 7.23188 8.75142 7.2334 8.74565L7.23438 8.74076C7.71654 6.9415 8.66879 5.30254 9.99316 3.99272ZM7.36231 16.6372L9.82227 16.0357C9.45788 15.8038 9.1135 15.5281 8.79297 15.2076C8.47195 14.8865 8.19598 14.5413 7.96387 14.1763L7.36231 16.6372ZM19.793 4.20756C17.9407 2.35525 14.1949 2.61939 11.4072 5.40678L11.4033 5.41166C10.3368 6.46528 9.56611 7.78176 9.17285 9.22807C9.17213 9.23113 9.17262 9.23478 9.17188 9.23783L9.16309 9.27104C8.73857 11.099 9.11515 12.7003 10.207 13.7925C11.307 14.8924 12.9241 15.2658 14.7686 14.8267C16.2161 14.4337 17.5345 13.6645 18.5889 12.5972L18.5928 12.5933C21.3801 9.80571 21.6451 6.05994 19.793 4.20756Z" fill="#E4F2F2"/>
<path fill-rule="evenodd" clip-rule="evenodd" d="M20 17.0005C21.6568 17.0006 23 18.3437 23 20.0005C22.9998 21.6572 21.6567 23.0005 20 23.0005C18.3433 23.0005 17.0002 21.6572 17 20.0005C17 18.3437 18.3431 17.0005 20 17.0005ZM20 19.0005C19.4477 19.0005 19 19.4482 19 20.0005C19.0002 20.5527 19.4478 21.0005 20 21.0005C20.5521 21.0005 20.9998 20.5526 21 20.0005C21 19.4483 20.5522 19.0006 20 19.0005Z" fill="#E4F2F2"/>
</svg>
