<svg width="24" height="24" viewBox="0 0 24 24" fill="none" xmlns="http://www.w3.org/2000/svg">
<path fill-rule="evenodd" clip-rule="evenodd" d="M13.1357 2.49607C13.414 2.0194 14.027 1.8578 14.5039 2.13572C14.9808 2.41389 15.1421 3.0269 14.8643 3.50388L13.1582 6.42771L21.0752 20H22C22.5521 20 22.9998 20.4479 23 21C23 21.5523 22.5523 22 22 22H2C1.44772 22 1 21.5523 1 21C1.00024 20.4479 1.44786 20 2 20H2.9248L10.8418 6.42771L9.13574 3.50388C8.85788 3.0269 9.01921 2.41389 9.49609 2.13572C9.97298 1.8578 10.586 2.0194 10.8643 2.49607L12 4.44236L13.1357 2.49607ZM5.24121 20H7.9248L11.1357 14.4961L11.21 14.3867C11.3978 14.1448 11.6888 14 12 14C12.3555 14 12.685 14.189 12.8643 14.4961L16.0752 20H18.7588L12 8.41404L5.24121 20ZM10.2412 20H13.7588L12 16.9853L10.2412 20Z" fill="#E4F2F2"/>
</svg>
