<svg width="24" height="24" viewBox="0 0 24 24" fill="none" xmlns="http://www.w3.org/2000/svg">
<path d="M20 18C20.5522 18 21 18.4477 21 19C20.9999 19.5522 20.5522 19.9999 20 20H12C11.4477 20 11 19.5522 11 19C11 18.4477 11.4477 18 12 18H20Z" fill="#E4F2F2"/>
<path d="M3.29295 4.29295C3.68348 3.90243 4.31649 3.90243 4.70702 4.29295L10.707 10.293C11.0975 10.6835 11.0975 11.3165 10.707 11.707L4.70702 17.707C4.31652 18.0975 3.68348 18.0975 3.29295 17.707C2.90243 17.3165 2.90243 16.6835 3.29295 16.293L8.58592 11L3.29295 5.70702C2.90243 5.31649 2.90243 4.68348 3.29295 4.29295Z" fill="#E4F2F2"/>
</svg>
