<svg width="24" height="24" viewBox="0 0 24 24" fill="none" xmlns="http://www.w3.org/2000/svg">
<path d="M17.7227 11.0059C18.8351 11.0609 19.8904 11.5271 20.6816 12.3184C21.5256 13.1623 22 14.3065 22 15.5C22 16.6935 21.5256 17.8377 20.6816 18.6816C19.8377 19.5256 18.6935 20 17.5 20H15.4141L16.707 21.293C17.0976 21.6835 17.0976 22.3165 16.707 22.707C16.3165 23.0976 15.6835 23.0976 15.293 22.707L12.293 19.707C12.2654 19.6794 12.2405 19.65 12.2168 19.6201C12.1807 19.5745 12.148 19.5261 12.1201 19.4746C12.1127 19.4609 12.1063 19.4466 12.0996 19.4326C12.0778 19.3873 12.0578 19.3408 12.043 19.292C12.0303 19.2503 12.0218 19.2077 12.0146 19.165C12.0057 19.1113 12 19.0563 12 19C12 18.9203 12.0097 18.8429 12.0273 18.7686C12.0322 18.748 12.0368 18.7273 12.043 18.707C12.0579 18.6583 12.0778 18.6117 12.0996 18.5664C12.1072 18.5506 12.1155 18.535 12.124 18.5195C12.1698 18.4362 12.2263 18.3597 12.293 18.293L15.293 15.293C15.6835 14.9024 16.3165 14.9024 16.707 15.293C17.0976 15.6835 17.0976 16.3165 16.707 16.707L15.4141 18H17.5L17.7471 17.9873C18.3194 17.9305 18.8573 17.6778 19.2676 17.2676C19.7364 16.7987 20 16.163 20 15.5C20 14.837 19.7364 14.2013 19.2676 13.7324C18.8573 13.3222 18.3194 13.0695 17.7471 13.0127L17.5 13H3C2.44772 13 2 12.5523 2 12C2 11.4477 2.44772 11 3 11H17.5L17.7227 11.0059Z" fill="#E4F2F2"/>
<path d="M9 18C9.55228 18 10 18.4477 10 19C10 19.5523 9.55228 20 9 20H3C2.44772 20 2 19.5523 2 19C2 18.4477 2.44772 18 3 18H9Z" fill="#E4F2F2"/>
<path d="M21 4C21.5523 4 22 4.44772 22 5C22 5.55228 21.5523 6 21 6H3C2.44772 6 2 5.55228 2 5C2 4.44772 2.44772 4 3 4H21Z" fill="#E4F2F2"/>
</svg>
