<svg width="24" height="24" viewBox="0 0 24 24" fill="none" xmlns="http://www.w3.org/2000/svg">
<path fill-rule="evenodd" clip-rule="evenodd" d="M12 1C12.7956 1 13.5585 1.31634 14.1211 1.87891C14.6837 2.44152 15 3.20435 15 4V14.0039C15.7142 14.5395 16.2747 15.2594 16.6191 16.0908C17.0403 17.1076 17.1148 18.2348 16.8301 19.2979C16.5452 20.3609 15.9171 21.3007 15.0439 21.9707C14.1707 22.6407 13.1006 23.0039 12 23.0039C10.8994 23.0039 9.82923 22.6407 8.95604 21.9707C8.08295 21.3007 7.45476 20.3609 7.16991 19.2979C6.88519 18.2348 6.95973 17.1075 7.38085 16.0908C7.72525 15.2594 8.28584 14.5395 8.99999 14.0039V4C8.99999 3.20438 9.31633 2.44151 9.8789 1.87891C10.4415 1.31633 11.2044 1.00003 12 1ZM12 3C11.7348 3.00003 11.4805 3.10546 11.293 3.29297C11.1055 3.4805 11 3.73481 11 4V14.54C11 14.8973 10.8094 15.2276 10.5 15.4062C9.92816 15.7365 9.4812 16.2464 9.22851 16.8564C8.97593 17.4664 8.9317 18.1426 9.10253 18.7803C9.27343 19.4181 9.64998 19.9818 10.1738 20.3838C10.6977 20.7858 11.3396 21.0039 12 21.0039C12.6604 21.0039 13.3022 20.7858 13.8262 20.3838C14.35 19.9818 14.7265 19.4181 14.8975 18.7803C15.0683 18.1425 15.0241 17.4664 14.7715 16.8564C14.5188 16.2464 14.0719 15.7364 13.5 15.4062C13.1907 15.2276 13 14.8973 13 14.54V4L12.9951 3.90137C12.9724 3.67237 12.8712 3.45711 12.707 3.29297C12.5195 3.10547 12.2652 3 12 3Z" fill="#E4F2F2"/>
</svg>
