<svg width="24" height="24" viewBox="0 0 24 24" fill="none" xmlns="http://www.w3.org/2000/svg">
<path fill-rule="evenodd" clip-rule="evenodd" d="M12.0127 1.00002C12.6347 1.00777 13.247 1.15609 13.8037 1.43361C14.3606 1.71126 14.8479 2.11126 15.2285 2.60353C15.6091 3.09573 15.8734 3.66766 16.002 4.27638C16.1302 4.88383 16.1189 5.5124 15.9707 6.11525L15.9717 6.11623L15.2715 9.00002H19.8301C20.2958 9.00003 20.7553 9.10816 21.1719 9.31642C21.5884 9.5247 21.951 9.82766 22.2305 10.2002C22.5096 10.5726 22.6979 11.005 22.7812 11.4629C22.8541 11.8637 22.8447 12.275 22.7539 12.6709L22.71 12.8399L20.3799 20.8399C20.1981 21.463 19.8191 22.0109 19.2998 22.4004C18.7806 22.7897 18.149 23 17.5 23H4C3.20435 23 2.44151 22.6837 1.87891 22.1211C1.31632 21.5585 1 20.7956 1 20V12C1.00002 11.2044 1.31632 10.4415 1.87891 9.87892C2.44151 9.31634 3.20437 9.00002 4 9.00002H6.75977L6.89844 8.99025C7.03545 8.97095 7.16768 8.92308 7.28613 8.84963C7.44401 8.75165 7.57155 8.6117 7.6543 8.44533L7.65625 8.4424L11.1055 1.55275C11.277 1.2103 11.6297 0.995274 12.0127 1.00002ZM9.44434 9.33791L9.44336 9.33693C9.19497 9.83568 8.8134 10.2562 8.33984 10.5498C8.23043 10.6177 8.1164 10.6766 8 10.7295V21H17.5C17.7163 21 17.9265 20.9296 18.0996 20.7998C18.2726 20.6701 18.3994 20.4879 18.46 20.2803L20.79 12.2803L20.8164 12.167C20.8357 12.0528 20.8343 11.9358 20.8135 11.8213C20.7857 11.6687 20.7229 11.5245 20.6299 11.4004C20.5368 11.2763 20.4162 11.1749 20.2773 11.1055C20.1385 11.0361 19.9853 11 19.8301 11H14C13.6933 11 13.4035 10.8593 13.2139 10.6182C13.0243 10.3771 12.956 10.0617 13.0283 9.76369L14.0283 5.64455L14.0293 5.64064C14.1062 5.32908 14.1112 5.00346 14.0449 4.68947C13.9786 4.37573 13.8426 4.08088 13.6465 3.82716C13.4502 3.57329 13.1983 3.36684 12.9111 3.22365C12.8018 3.16916 12.6876 3.12664 12.5713 3.09181L9.44434 9.33791ZM4 11C3.7348 11 3.4805 11.1055 3.29297 11.293C3.10545 11.4805 3.00002 11.7348 3 12V20C3 20.2652 3.10546 20.5195 3.29297 20.707C3.48051 20.8946 3.73478 21 4 21H6V11H4Z" fill="#E4F2F2"/>
</svg>
