<svg width="24" height="24" viewBox="0 0 24 24" fill="none" xmlns="http://www.w3.org/2000/svg">
<path fill-rule="evenodd" clip-rule="evenodd" d="M20.0005 1C20.796 1.00009 21.559 1.31638 22.1216 1.87891C22.6841 2.4415 23.0005 3.20443 23.0005 4V12C23.0005 12.7956 22.6841 13.5585 22.1216 14.1211C21.559 14.6836 20.796 14.9999 20.0005 15H17.2407C17.0548 15.0001 16.8724 15.0525 16.7143 15.1504C16.5565 15.2483 16.4289 15.3883 16.3462 15.5547L16.3442 15.5576L12.895 22.4473C12.7236 22.7897 12.3707 23.0046 11.9878 23C11.3658 22.9923 10.7535 22.8439 10.1968 22.5664C9.63993 22.2888 9.15259 21.8887 8.77197 21.3965C8.3914 20.9043 8.1271 20.3324 7.99853 19.7236C7.86998 19.1148 7.88062 18.484 8.02978 17.8799L8.729 15H4.1704C3.70475 15 3.24512 14.8918 2.82861 14.6836C2.41209 14.4753 2.04944 14.1723 1.77001 13.7998C1.49082 13.4274 1.30257 12.995 1.21923 12.5371C1.13593 12.0789 1.16014 11.6072 1.29052 11.1602L3.6206 3.16016L3.69775 2.92969C3.89917 2.4023 4.24642 1.9403 4.70068 1.59961C5.21987 1.2104 5.85159 1 6.50048 1H20.0005ZM6.50048 3C6.28427 3 6.0739 3.07055 5.90087 3.2002C5.77112 3.29751 5.66734 3.4244 5.59814 3.56934L5.54052 3.71973L3.21044 11.7197C3.16698 11.8687 3.15925 12.026 3.18701 12.1787C3.21477 12.3314 3.27753 12.4755 3.3706 12.5996C3.46373 12.7237 3.58433 12.8251 3.72314 12.8945C3.86194 12.9639 4.01524 13 4.1704 13H10.0005C10.3071 13.0001 10.5971 13.1408 10.7866 13.3818C10.9761 13.6229 11.0445 13.9383 10.9722 14.2363L9.97216 18.3555L9.97119 18.3594C9.89426 18.671 9.88927 18.9965 9.95556 19.3105C10.0219 19.6243 10.1579 19.9191 10.354 20.1729C10.5502 20.4266 10.8014 20.6332 11.0884 20.7764C11.1974 20.8307 11.3122 20.8724 11.4282 20.9072L14.5561 14.6621C14.8046 14.1636 15.1872 13.7438 15.6606 13.4502C15.7702 13.3823 15.8839 13.3225 16.0005 13.2695V3H6.50048ZM18.0005 13H20.0005C20.2656 12.9999 20.5201 12.8945 20.7075 12.707C20.8949 12.5195 21.0005 12.2651 21.0005 12V4C21.0005 3.73487 20.8949 3.48049 20.7075 3.29297C20.5201 3.10551 20.2656 3.00009 20.0005 3H18.0005V13Z" fill="#E4F2F2"/>
</svg>
