<svg width="24" height="24" viewBox="0 0 24 24" fill="none" xmlns="http://www.w3.org/2000/svg">
<path d="M17.3271 11.2597C17.7358 10.8883 18.3687 10.9185 18.7402 11.3271C19.1115 11.7358 19.0814 12.3688 18.6729 12.7402L13.7451 17.2197C13.1932 17.7213 12.4733 17.9998 11.7275 18H10.5C9.94785 18 9.50022 17.5521 9.5 17C9.5 16.4477 9.94771 16 10.5 16H11.7266C11.9751 16 12.2154 15.9073 12.3994 15.7402L13.5293 14.7119L11.8682 14.4912C11.321 14.4182 10.9362 13.9153 11.0088 13.3681C11.0818 12.8208 11.5845 12.436 12.1318 12.5088L15.4639 12.9531L17.3271 11.2597Z" fill="#E4F2F2"/>
<path d="M6 13C6.55228 13 7 13.4477 7 14V15C6.99978 15.5521 6.55215 16 6 16C5.44785 16 5.00022 15.5521 5 15V14C5 13.4477 5.44772 13 6 13Z" fill="#E4F2F2"/>
<path fill-rule="evenodd" clip-rule="evenodd" d="M13.7598 2.26951C14.4837 1.94094 15.3083 1.9132 16.0527 2.19237C16.7972 2.47166 17.4012 3.03498 17.7305 3.75877L19.2031 6.99998H20C21.6569 6.99998 23 8.34313 23 9.99998V19C22.9998 20.6566 21.6567 22 20 22H4C2.34328 22 1.00022 20.6566 1 19V9.99998C1 8.79851 1.7075 7.76414 2.72754 7.28514C2.73793 7.27997 2.74814 7.27436 2.75879 7.26952L2.79883 7.25096C2.81323 7.24466 2.82728 7.23751 2.8418 7.23143L13.7598 2.26951ZM4 8.99998C3.86598 8.99998 3.7379 9.0254 3.62109 9.07323L3.58691 9.08983C3.58544 9.0905 3.58351 9.09014 3.58203 9.0908C3.23847 9.24908 3 9.5969 3 9.99998V19C3.00022 19.5521 3.44785 20 4 20H5V19C5 18.4477 5.44772 18 6 18C6.55228 18 7 18.4477 7 19V20H20C20.5521 20 20.9998 19.5521 21 19V9.99998C21 9.4477 20.5523 8.99998 20 8.99998H7V9.99998C6.99978 10.5521 6.55215 11 6 11C5.44785 11 5.00022 10.5521 5 9.99998V8.99998H4ZM15.3506 4.06444C15.1025 3.97142 14.8272 3.98129 14.5859 4.0908L8.18359 6.99998H17.0068L15.9092 4.5869C15.7994 4.3457 15.5987 4.15752 15.3506 4.06444Z" fill="#E4F2F2"/>
</svg>
