<svg width="24" height="24" viewBox="0 0 24 24" fill="none" xmlns="http://www.w3.org/2000/svg">
<path fill-rule="evenodd" clip-rule="evenodd" d="M20 6C20.6336 6 21.1402 6.32109 21.499 6.69629C21.8552 7.06875 22.1301 7.55546 22.3398 8.07617C22.7615 9.12303 23 10.5062 23 12C23 13.4938 22.7615 14.877 22.3398 15.9238C22.1301 16.4445 21.8552 16.9312 21.499 17.3037C21.1402 17.6789 20.6336 18 20 18C17.2443 18 14.9293 16.5416 13.5391 15H10.4609C9.07074 16.5416 6.75566 18 4 18C3.36638 18 2.85983 17.6789 2.50098 17.3037C2.14481 16.9312 1.86992 16.4445 1.66016 15.9238C1.23851 14.877 1 13.4938 1 12C1 10.5062 1.23851 9.12303 1.66016 8.07617C1.86992 7.55546 2.14481 7.06875 2.50098 6.69629C2.85983 6.32109 3.36638 6 4 6C6.75566 6 9.07074 7.45838 10.4609 9H13.5391C14.9293 7.45838 17.2443 6 20 6ZM3.94629 8.0791C3.82444 8.2066 3.66728 8.44435 3.51465 8.82324C3.2113 9.57638 3 10.6938 3 12C3 13.3062 3.2113 14.4236 3.51465 15.1768C3.66728 15.5557 3.82444 15.7934 3.94629 15.9209C3.98825 15.9648 4.01824 15.987 4.03516 15.998C6.09723 15.9853 7.90879 14.8589 9 13.6328V13H8C7.44772 13 7 12.5523 7 12C7 11.4477 7.44772 11 8 11H9V10.3662C7.90874 9.14025 6.09693 8.01367 4.03516 8.00098C4.01831 8.0119 3.98862 8.03483 3.94629 8.0791ZM19.9639 8.00098C17.9025 8.01402 16.0911 9.14044 15 10.3662V11H16C16.5523 11 17 11.4477 17 12C17 12.5523 16.5523 13 16 13H15V13.6328C16.091 14.8587 17.9022 15.985 19.9639 15.998C19.9807 15.9872 20.0112 15.9654 20.0537 15.9209C20.1756 15.7934 20.3327 15.5557 20.4854 15.1768C20.7887 14.4236 21 13.3062 21 12C21 10.6938 20.7887 9.57638 20.4854 8.82324C20.3327 8.44435 20.1756 8.2066 20.0537 8.0791C20.0108 8.03422 19.9806 8.01173 19.9639 8.00098ZM11 13H13V11H11V13Z" fill="#E4F2F2"/>
</svg>
