<svg width="24" height="24" viewBox="0 0 24 24" fill="none" xmlns="http://www.w3.org/2000/svg">
<path fill-rule="evenodd" clip-rule="evenodd" d="M20 3C20.6336 3 21.1402 3.32109 21.499 3.69629C21.8552 4.06875 22.1301 4.55546 22.3398 5.07617C22.7615 6.12303 23 7.50623 23 9C23 10.4938 22.7615 11.877 22.3398 12.9238C22.1301 13.4445 21.8552 13.9312 21.499 14.3037C21.1402 14.6789 20.6336 15 20 15C19.9373 15 19.8748 14.9976 19.8125 14.9961L20.9717 19.7637C21.0576 20.1172 20.9445 20.49 20.6768 20.7363C20.409 20.9824 20.0286 21.0632 19.6836 20.9482L17.2695 20.1436L15.707 21.707C15.4524 21.9617 15.0805 22.0599 14.7334 21.9639C14.3862 21.8677 14.1177 21.5917 14.0303 21.2422L12 13.1211L9.96973 21.2422C9.88235 21.5917 9.6138 21.8677 9.2666 21.9639C8.9195 22.0599 8.54763 21.9617 8.29297 21.707L6.72949 20.1436L4.31641 20.9482C3.97142 21.0632 3.59097 20.9824 3.32324 20.7363C3.0555 20.49 2.94238 20.1172 3.02832 19.7637L4.18652 14.9961C4.12456 14.9976 4.06242 15 4 15C3.36638 15 2.85983 14.6789 2.50098 14.3037C2.14481 13.9312 1.86992 13.4445 1.66016 12.9238C1.23851 11.877 1 10.4938 1 9C1 7.50623 1.23851 6.12303 1.66016 5.07617C1.86992 4.55546 2.14481 4.06875 2.50098 3.69629C2.85983 3.32109 3.36638 3 4 3C6.75566 3 9.07074 4.45838 10.4609 6H13.5391C14.9293 4.45838 17.2443 3 20 3ZM10.1338 12.3418C9.17574 13.2973 7.8684 14.1802 6.3291 14.6484L5.39844 18.4795L6.68359 18.0518L6.82031 18.0166C7.14043 17.958 7.47276 18.0587 7.70703 18.293L8.45801 19.0439L10.1338 12.3418ZM15.541 19.0439L16.293 18.293L16.3994 18.2012C16.6596 18.0055 17.002 17.947 17.3164 18.0518L18.6006 18.4795L17.6689 14.6484C16.1302 14.18 14.823 13.2971 13.8652 12.3418L15.541 19.0439ZM3.94629 5.0791C3.82444 5.2066 3.66728 5.44435 3.51465 5.82324C3.2113 6.57638 3 7.69377 3 9C3 10.3062 3.2113 11.4236 3.51465 12.1768C3.66728 12.5557 3.82444 12.7934 3.94629 12.9209C3.98825 12.9648 4.01824 12.987 4.03516 12.998C4.44849 12.9955 4.85175 12.9481 5.24121 12.8643C5.24479 12.8633 5.24836 12.8623 5.25195 12.8613C6.8008 12.525 8.12956 11.6108 9 10.6328V10H8C7.44772 10 7 9.55228 7 9C7 8.44772 7.44772 8 8 8H9V7.36621C7.90874 6.14025 6.09693 5.01367 4.03516 5.00098C4.01831 5.0119 3.98862 5.03483 3.94629 5.0791ZM19.9639 5.00098C17.9025 5.01402 16.0911 6.14044 15 7.36621V8H16C16.5523 8 17 8.44772 17 9C17 9.55228 16.5523 10 16 10H15V10.6328C16.091 11.8587 17.9022 12.985 19.9639 12.998C19.9807 12.9872 20.0112 12.9654 20.0537 12.9209C20.1756 12.7934 20.3327 12.5557 20.4854 12.1768C20.7887 11.4236 21 10.3062 21 9C21 7.69377 20.7887 6.57638 20.4854 5.82324C20.3327 5.44435 20.1756 5.2066 20.0537 5.0791C20.0108 5.03422 19.9806 5.01173 19.9639 5.00098ZM11 10H13V8H11V10Z" fill="#E4F2F2"/>
</svg>
