<svg width="24" height="24" viewBox="0 0 24 24" fill="none" xmlns="http://www.w3.org/2000/svg">
<path fill-rule="evenodd" clip-rule="evenodd" d="M8 1C8.53497 1.00004 9.03436 1.18409 9.41992 1.54395C9.51168 1.6296 9.59249 1.72277 9.66504 1.82031L15 8.83398V5L15.0049 4.90137C15.0276 4.67237 15.1288 4.45711 15.293 4.29297L18.293 1.29297L18.3691 1.22461C18.7619 0.904348 19.3409 0.926885 19.707 1.29297L22.707 4.29297C22.8945 4.4805 23 4.73482 23 5V21C23 21.5272 22.8194 22.0439 22.4316 22.4316C22.0439 22.8194 21.5272 23 21 23H17C16.4728 23 15.9561 22.8194 15.5684 22.4316C15.5594 22.4227 15.5517 22.4124 15.543 22.4033C15.4936 22.3602 15.4476 22.3118 15.4062 22.2578L10.9033 16.3691L10.998 17.9404C11.0151 18.2258 10.9092 18.5048 10.707 18.707L6.70703 22.707C6.31654 23.0975 5.6835 23.0975 5.29297 22.707L1.29297 18.707C1.09078 18.5048 0.984916 18.2259 1.00195 17.9404L1.90137 2.94043L1.91406 2.83594C1.9933 2.36054 2.20319 1.89573 2.58008 1.54395C2.96566 1.18411 3.46501 1 4 1H8ZM17 5.41406V21H21V5.41406L19 3.41406L17 5.41406ZM3.94434 3.00684C3.94163 3.00973 3.93327 3.01922 3.92383 3.03809C3.91414 3.05752 3.90312 3.08791 3.89355 3.13086L3.02441 17.6104L6 20.5859L8.97461 17.6104L8.71777 13.335C8.70242 13.2531 8.69797 13.1702 8.70312 13.0879L8.10547 3.13086C8.09592 3.08805 8.08583 3.0575 8.07617 3.03809L8.0625 3.01758L8.05371 3.00586C8.0481 3.00404 8.03151 3.00002 8 3H4C3.96395 3 3.94735 3.00572 3.94434 3.00684ZM10.6895 12.7979L15 18.4346V12.1377L10.2773 5.92969L10.6895 12.7979Z" fill="#E4F2F2"/>
</svg>
