<svg width="24" height="24" viewBox="0 0 24 24" fill="none" xmlns="http://www.w3.org/2000/svg">
<path d="M12.0068 5.00098C13.4606 5.00345 14.8919 5.35777 16.1787 6.03418C17.4673 6.71156 18.5727 7.69136 19.3994 8.88965C20.226 10.0879 20.7501 11.469 20.9258 12.9141C21.1014 14.359 20.9236 15.8252 20.4082 17.1865C19.8928 18.5478 19.0553 19.7641 17.9668 20.7305C16.8783 21.6967 15.5709 22.3849 14.1582 22.7354C12.7453 23.0857 11.2676 23.088 9.85352 22.7422C8.43954 22.3964 7.12985 21.7128 6.03809 20.75L6.03516 20.748L5.00001 19.8271V22C5.00001 22.5523 4.55229 23 4.00001 23C3.44777 22.9999 3.00001 22.5522 3.00001 22V17C3.00001 16.4477 3.44777 16.0001 4.00001 16H9.00001C9.55229 16 10 16.4477 10 17C10 17.5523 9.55229 18 9.00001 18H5.95509L7.36134 19.25C8.21053 19.9989 9.22927 20.5309 10.3291 20.7998C11.4289 21.0687 12.5779 21.0674 13.6768 20.7949C14.7756 20.5224 15.792 19.9869 16.6387 19.2354C17.4854 18.4837 18.1372 17.5374 18.5381 16.4785C18.9389 15.4197 19.0771 14.2792 18.9404 13.1553C18.8038 12.0313 18.3959 10.9574 17.7529 10.0254C17.11 9.09344 16.2512 8.33056 15.249 7.80371C14.2468 7.27687 13.1313 7.00122 11.999 7H11.9922C10.2778 6.98658 8.61837 7.60346 7.32813 8.73242C6.03803 9.86134 5.20648 11.4241 4.9922 13.125C4.92305 13.6728 4.42288 14.0612 3.87501 13.9922C3.32721 13.9231 2.93896 13.4228 3.00782 12.875C3.28334 10.6882 4.35201 8.67804 6.01075 7.22656C7.66766 5.77682 9.79863 4.98566 12 5.00098L12.001 5L12.0039 5.00098L12.0078 5L12.0068 5.00098Z" fill="#E4F2F2"/>
<path d="M12 9C12.5523 9 13 9.44771 13 10V14C13 14.5523 12.5523 15 12 15C11.4478 14.9999 11 14.5523 11 14V10C11 9.44775 11.4478 9.00006 12 9Z" fill="#E4F2F2"/>
<path d="M14 1C14.5523 1 15 1.44772 15 2C15 2.55228 14.5523 3 14 3H10C9.44777 2.99994 9.00001 2.55225 9.00001 2C9.00001 1.44775 9.44777 1.00006 10 1H14Z" fill="#E4F2F2"/>
</svg>
