<svg width="24" height="24" viewBox="0 0 24 24" fill="none" xmlns="http://www.w3.org/2000/svg">
<path d="M3.67674 10.6162C3.88888 10.1063 4.47445 9.86502 4.98436 10.0771C5.49385 10.2894 5.73524 10.8741 5.52342 11.3838C4.99337 12.6579 4.85158 14.0606 5.1162 15.415C5.38017 16.766 6.03631 18.0095 7.00292 18.9893L7.19042 19.168C8.14049 20.0411 9.31527 20.6357 10.5849 20.8838C11.9393 21.1484 13.3421 21.0066 14.6162 20.4766C15.1259 20.2648 15.7106 20.5061 15.9228 21.0156C16.1349 21.5255 15.8936 22.1111 15.3838 22.3232C13.7456 23.0047 11.9425 23.1869 10.2012 22.8467C8.45985 22.5064 6.85783 21.6591 5.59667 20.4111L5.58885 20.4033C4.34089 19.1422 3.49358 17.5401 3.15331 15.7988C2.81304 14.0575 2.99529 12.2544 3.67674 10.6162Z" fill="#E4F2F2"/>
<path fill-rule="evenodd" clip-rule="evenodd" d="M1.29295 1.29297C1.68348 0.902482 2.3165 0.902457 2.70702 1.29297L7.54393 6.12988C9.14394 5.22895 10.9891 4.836 12.8301 5.01465C14.9479 5.22037 16.925 6.16998 18.4092 7.69434C19.8929 9.18679 20.8072 11.1527 20.9922 13.249C21.1523 15.064 20.7555 16.8776 19.8681 18.4541L22.707 21.293C23.0975 21.6835 23.0975 22.3165 22.707 22.707C22.3165 23.0975 21.6835 23.0975 21.293 22.707L17.8906 19.3047C17.8838 19.2978 17.8767 19.2912 17.8701 19.2842L1.29295 2.70703C0.90243 2.31651 0.90243 1.68349 1.29295 1.29297ZM12.6377 7.00586C11.3952 6.88523 10.1498 7.09869 9.02928 7.61523L11.0635 9.64941C11.2055 9.27012 11.5711 9 12 9C12.5522 9.00004 13 9.44774 13 10V11.5859L18.3838 16.9697C18.8913 15.8682 19.1078 14.6466 19 13.4248C18.8561 11.7944 18.1452 10.2653 16.9912 9.10449L16.9824 9.09668C15.8275 7.90754 14.2876 7.16627 12.6377 7.00586Z" fill="#E4F2F2"/>
<path d="M14 1C14.5522 1.00004 15 1.44774 15 2C15 2.55226 14.5522 2.99996 14 3H9.99999C9.4477 3 8.99999 2.55228 8.99999 2C8.99999 1.44772 9.4477 1 9.99999 1H14Z" fill="#E4F2F2"/>
</svg>
