<svg width="24" height="24" viewBox="0 0 24 24" fill="none" xmlns="http://www.w3.org/2000/svg">
<path fill-rule="evenodd" clip-rule="evenodd" d="M12 5C15.866 5 19 8.13401 19 12C19 15.866 15.866 19 12 19C8.13401 19 5 15.866 5 12C5 8.13401 8.13401 5 12 5ZM7.64941 14.4639C8.35097 15.7 9.56322 16.6077 11 16.8994V14.8252C10.4485 14.63 9.97187 14.2802 9.62207 13.8252L7.64941 14.4639ZM14.377 13.8252C14.0272 14.28 13.5513 14.6301 13 14.8252V16.8994C14.4366 16.6078 15.648 15.6998 16.3496 14.4639L14.377 13.8252ZM12 11C11.4477 11 11 11.4477 11 12C11 12.1026 11.0152 12.2017 11.0439 12.2949C11.046 12.3008 11.0488 12.3065 11.0508 12.3125L11.0518 12.3184C11.1847 12.7146 11.559 13 12 13C12.5523 13 13 12.5523 13 12C13 11.4477 12.5523 11 12 11ZM8.30762 8.62793C7.49523 9.51699 7 10.7008 7 12C7 12.1898 7.01065 12.3772 7.03125 12.5615L9.00098 11.9238C9.01595 11.3228 9.20793 10.7659 9.52637 10.3027L8.30762 8.62793ZM14.4727 10.3018C14.7915 10.7652 14.9831 11.3224 14.998 11.9238L16.9678 12.5615C16.9884 12.3772 17 12.1899 17 12C17 10.7 16.5036 9.51618 15.6904 8.62695L14.4727 10.3018ZM12 7C11.2593 7 10.5562 7.16116 9.92383 7.4502L11.1426 9.125C11.4143 9.04408 11.702 9 12 9C12.2974 9 12.5843 9.04443 12.8555 9.125L14.0742 7.4502C13.4423 7.16163 12.7401 7 12 7Z" fill="#E4F2F2"/>
<path fill-rule="evenodd" clip-rule="evenodd" d="M12 1C18.0751 1 23 5.92487 23 12C23 18.0751 18.0751 23 12 23C5.92487 23 1 18.0751 1 12C1 5.92487 5.92487 1 12 1ZM12 3C7.02944 3 3 7.02944 3 12C3 16.9706 7.02944 21 12 21C16.9706 21 21 16.9706 21 12C21 7.02944 16.9706 3 12 3Z" fill="#E4F2F2"/>
</svg>
