<svg width="24" height="24" viewBox="0 0 24 24" fill="none" xmlns="http://www.w3.org/2000/svg">
<path d="M20 6C20.7957 6 21.5585 6.3163 22.1211 6.87891C22.6837 7.44151 23 8.20435 23 9V20C23 20.7957 22.6837 21.5585 22.1211 22.1211C21.5585 22.6837 20.7957 23 20 23H4C3.20435 23 2.44151 22.6837 1.87891 22.1211C1.3163 21.5585 1 20.7957 1 20V9C1 8.20435 1.3163 7.44152 1.87891 6.87891C2.44152 6.3163 3.20435 6 4 6C4.55228 6 5 6.44772 5 7C5 7.55228 4.55228 8 4 8C3.73478 8 3.4805 8.10543 3.29297 8.29297C3.10543 8.4805 3 8.73478 3 9V20C3 20.2652 3.10543 20.5195 3.29297 20.707C3.48051 20.8946 3.73478 21 4 21H15V17H14C13.4477 17 13 16.5523 13 16C13 15.4477 13.4477 15 14 15H15V14C15 13.4477 15.4477 13 16 13C16.5523 13 17 13.4477 17 14V15H18C18.5523 15 19 15.4477 19 16C19 16.5523 18.5523 17 18 17H17V21H20C20.2652 21 20.5195 20.8946 20.707 20.707C20.8946 20.5195 21 20.2652 21 20V9C21 8.73478 20.8946 8.48051 20.707 8.29297C20.5195 8.10543 20.2652 8 20 8C19.4477 8 19 7.55228 19 7C19 6.44772 19.4477 6 20 6Z" fill="#E4F2F2"/>
<path fill-rule="evenodd" clip-rule="evenodd" d="M8 13C9.65685 13 11 14.3431 11 16C11 17.6569 9.65685 19 8 19C6.34315 19 5 17.6569 5 16C5 14.3431 6.34315 13 8 13ZM8 15C7.44772 15 7 15.4477 7 16C7 16.5523 7.44772 17 8 17C8.55228 17 9 16.5523 9 16C9 15.4477 8.55228 15 8 15Z" fill="#E4F2F2"/>
<path fill-rule="evenodd" clip-rule="evenodd" d="M15.0264 1C15.6719 1.017 16.2952 1.24237 16.8027 1.6416C17.3102 2.04087 17.6753 2.59348 17.8438 3.2168C18.0121 3.84002 17.9754 4.50114 17.7383 5.10156C17.575 5.51486 17.3203 5.88262 17 6.18359V9H18C18.5523 9 19 9.44771 19 10C19 10.5523 18.5523 11 18 11H6C5.44772 11 5 10.5523 5 10C5 9.44771 5.44772 9 6 9H7V6.18262C6.68003 5.88177 6.42591 5.51455 6.2627 5.10156C6.02547 4.5011 5.98786 3.84008 6.15625 3.2168C6.32476 2.59337 6.69066 2.04088 7.19824 1.6416C7.70569 1.24252 8.32828 1.01702 8.97363 1H15.0264ZM8.86719 3.0166C8.71019 3.04625 8.56142 3.11322 8.43457 3.21289C8.26539 3.34597 8.14309 3.53049 8.08691 3.73828C8.03075 3.9461 8.04393 4.16698 8.12305 4.36719C8.20219 4.56713 8.34353 4.73642 8.52637 4.84961C8.82078 5.0319 9 5.3539 9 5.7002V9H15V5.7002C15 5.35394 15.1793 5.03191 15.4736 4.84961C15.6565 4.73638 15.7988 4.5672 15.8779 4.36719C15.957 4.16702 15.9692 3.94605 15.9131 3.73828C15.8569 3.53059 15.7355 3.34595 15.5664 3.21289C15.4396 3.11318 15.2907 3.04634 15.1338 3.0166L14.9736 3H9.02637L8.86719 3.0166Z" fill="#E4F2F2"/>
</svg>
