<svg width="24" height="24" viewBox="0 0 24 24" fill="none" xmlns="http://www.w3.org/2000/svg">
<path fill-rule="evenodd" clip-rule="evenodd" d="M10.7002 6C11.4245 6.00002 12.028 6.10881 12.5459 6.33105C13.0714 6.55659 13.4482 6.87326 13.7471 7.19629C14.0055 7.47571 14.2795 7.85347 14.4463 8.06055C14.6449 8.307 14.8355 8.51106 15.0811 8.68652C15.3837 8.90269 15.672 9.06563 15.9785 9.24121C16.2656 9.40568 16.6118 9.6038 16.915 9.85645C17.2401 10.1274 17.5299 10.4711 17.7275 10.9404C17.9194 11.3961 18 11.9125 18 12.5C18 13.7779 17.6473 14.8951 16.7793 15.6709C15.9334 16.4267 14.7718 16.7002 13.5 16.7002C13.3164 16.7002 13.2984 16.722 12.8496 17.0811C12.6357 17.2522 12.3425 17.4708 11.9414 17.6367C11.5357 17.8045 11.0664 17.9004 10.5 17.9004C9.45066 17.9003 8.36251 17.6399 7.50586 17.0469C6.61725 16.4316 6.00007 15.4641 6 14.2002C6 13.2136 6.28248 12.6536 6.55762 12.2236C6.78862 11.8627 6.7998 11.8586 6.79981 11.7002C6.79981 11.4925 6.75743 11.3017 6.68555 11.0381C6.62558 10.8182 6.5 10.4158 6.5 10C6.5 8.87145 6.88159 7.84397 7.65918 7.10156C8.4328 6.36311 9.50037 6.00005 10.7002 6ZM10.7002 8C9.90027 8.00005 9.36634 8.23737 9.04004 8.54883C8.71815 8.85642 8.5 9.3291 8.5 10C8.5 10.0842 8.52523 10.1817 8.61524 10.5117C8.69335 10.7981 8.79981 11.2079 8.79981 11.7002C8.79975 12.5414 8.41108 13.0379 8.24219 13.3018C8.11746 13.4967 8 13.6873 8 14.2002C8.00006 14.7359 8.2335 15.1177 8.64453 15.4023C9.08776 15.7092 9.74953 15.9003 10.5 15.9004C10.8331 15.9004 11.0389 15.8451 11.1768 15.7881C11.3192 15.7291 11.4396 15.6483 11.6006 15.5195C11.9016 15.2787 12.484 14.7003 13.5 14.7002C14.5278 14.7002 15.1171 14.4737 15.4463 14.1797C15.7532 13.9055 16 13.422 16 12.5C16 12.0876 15.9429 11.8538 15.8848 11.7158C15.8324 11.5916 15.7594 11.4975 15.6348 11.3936C15.4882 11.2715 15.2968 11.1566 14.9844 10.9775C14.691 10.8095 14.3161 10.5972 13.9189 10.3135C13.4649 9.98909 13.143 9.63023 12.8887 9.31445C12.6026 8.95926 12.4822 8.77415 12.2783 8.55371C12.1148 8.37697 11.9593 8.25582 11.7568 8.16895C11.5468 8.07888 11.2252 8.00002 10.7002 8Z" fill="#E4F2F2"/>
<path fill-rule="evenodd" clip-rule="evenodd" d="M18.8408 2.0166C19.5985 2.08214 20.3298 2.33847 20.9639 2.76465C21.6886 3.25187 22.256 3.94003 22.5967 4.74414C22.9374 5.54827 23.0369 6.43433 22.8828 7.29395C22.7536 8.0144 22.4481 8.68852 22.001 9.2627V19C22.001 19.7955 21.6845 20.5585 21.1221 21.1211C20.5596 21.6835 19.7964 21.9998 19.001 22H5.00098C4.20541 22 3.4415 21.6836 2.87891 21.1211C2.31649 20.5585 2.00098 19.7955 2.00098 19V9.26465C1.5531 8.69011 1.24751 8.01511 1.11817 7.29395C0.96403 6.43431 1.0636 5.54829 1.4043 4.74414C1.74509 3.93995 2.31318 3.25186 3.03809 2.76465C3.76291 2.27767 4.61416 2.01179 5.48731 2H18.5137L18.8408 2.0166ZM5.33301 4.00879C4.91198 4.0451 4.50572 4.18802 4.15332 4.4248C3.75062 4.69546 3.43543 5.07767 3.2461 5.52441C3.05679 5.97121 3.00126 6.46378 3.08692 6.94141C3.17263 7.41884 3.39588 7.86082 3.72852 8.21387C3.90326 8.39939 4.00098 8.64553 4.00098 8.90039V19C4.00098 19.2652 4.10641 19.5195 4.29395 19.707C4.48145 19.8943 4.73593 20 5.00098 20H19.001C19.2659 19.9998 19.5206 19.8944 19.708 19.707C19.8953 19.5195 20.001 19.265 20.001 19V8.90039C20.001 8.64545 20.0976 8.39941 20.2725 8.21387C20.6051 7.86083 20.8284 7.41882 20.9141 6.94141C20.9997 6.46383 20.9442 5.97117 20.7549 5.52441C20.5656 5.07772 20.2503 4.69547 19.8477 4.4248C19.4953 4.188 19.089 4.04512 18.668 4.00879L18.4873 4H5.51368L5.33301 4.00879Z" fill="#E4F2F2"/>
</svg>
