<svg width="24" height="24" viewBox="0 0 24 24" fill="none" xmlns="http://www.w3.org/2000/svg">
<path fill-rule="evenodd" clip-rule="evenodd" d="M10 5C10.9983 5 11.9471 5.26817 12.6758 5.75391C13.3975 6.23502 14 7.00933 14 8C14 8.99067 13.3975 9.76498 12.6758 10.2461C11.9471 10.7318 10.9983 11 10 11C9.00172 11 8.05287 10.7318 7.32422 10.2461C6.60254 9.76498 6 8.99067 6 8C6 7.00933 6.60254 6.23502 7.32422 5.75391C8.05287 5.26817 9.00172 5 10 5ZM10 7C9.34152 7 8.79072 7.17992 8.43359 7.41797C8.06948 7.66071 8 7.8861 8 8C8 8.1139 8.06948 8.33929 8.43359 8.58203C8.79072 8.82008 9.34152 9 10 9C10.6585 9 11.2093 8.82008 11.5664 8.58203C11.9305 8.33929 12 8.1139 12 8C12 7.8861 11.9305 7.66071 11.5664 7.41797C11.2093 7.17992 10.6585 7 10 7Z" fill="#E4F2F2"/>
<path fill-rule="evenodd" clip-rule="evenodd" d="M10 1C14.2681 1 18 3.99494 18 8C18 9.45666 19.5395 11 22 11C22.5523 11 23 11.4477 23 12V20C23 20.5523 22.5523 21 22 21C20.1209 21 18.3425 20.2627 17.2168 19.04C15.9096 21.4222 13.1162 23 10 23C5.69295 23 2 19.9871 2 16V8C2 3.99494 5.7319 1 10 1ZM16 12.6328C14.7245 13.8893 12.9494 14.7265 11 14.9424V16C11 16.5523 10.5523 17 10 17C9.44772 17 9 16.5523 9 16V14.9424C7.05061 14.7265 5.27552 13.8893 4 12.6328V16C4 18.356 6.0385 20.5273 9 20.9316V20C9 19.4477 9.44772 19 10 19C10.5523 19 11 19.4477 11 20V20.9316C13.9615 20.5273 16 18.356 16 16V12.6328ZM18 16C18 17.2477 19.1298 18.5576 21 18.9082V12.9277C19.8827 12.7706 18.8409 12.3552 18 11.7373V16ZM10 3C6.53612 3 4 5.37764 4 8C4 10.6224 6.53612 13 10 13C13.4639 13 16 10.6224 16 8C16 5.37764 13.4639 3 10 3Z" fill="#E4F2F2"/>
</svg>
