<svg width="24" height="24" viewBox="0 0 24 24" fill="none" xmlns="http://www.w3.org/2000/svg">
<path fill-rule="evenodd" clip-rule="evenodd" d="M14 2C14.7956 2 15.5585 2.3163 16.1211 2.87891C16.6837 3.44151 17 4.20435 17 5V6C17.8682 6 18.8218 6.40777 19.4072 6.99316L22.0068 9.59277C22.3355 9.92139 22.574 10.3548 22.7285 10.7412C22.8828 11.127 23 11.5821 23 12V19C23 19.7957 22.6837 20.5585 22.1211 21.1211C21.5585 21.6837 20.7957 22 20 22H4C3.20435 22 2.44151 21.6837 1.87891 21.1211C1.3163 20.5585 1 19.7957 1 19V12C1 11.1318 1.40777 10.1782 1.99316 9.59277L4.59277 6.99316C5.17817 6.40777 6.13177 6 7 6V5C7 4.20435 7.3163 3.44151 7.87891 2.87891C8.44152 2.3163 9.20435 2 10 2H14ZM3 19C3 19.2652 3.10543 19.5195 3.29297 19.707C3.48051 19.8946 3.73478 20 4 20H20C20.2652 20 20.5195 19.8946 20.707 19.707C20.8946 19.5195 21 19.2652 21 19V15H16V16C16 16.5523 15.5523 17 15 17C14.4477 17 14 16.5523 14 16V15H10V16C10 16.5523 9.55229 17 9 17C8.44772 17 8 16.5523 8 16V15H3V19ZM7 8C6.66823 8 6.22144 8.19262 6.00684 8.40723L3.40723 11.0068C3.19262 11.2214 3 11.6682 3 12V13H8V12C8 11.4477 8.44772 11 9 11C9.55229 11 10 11.4477 10 12V13H14V12C14 11.4477 14.4477 11 15 11C15.5523 11 16 11.4477 16 12V13H21V12C21 11.918 20.9667 11.7235 20.8711 11.4844C20.7757 11.2458 20.6642 11.0782 20.5928 11.0068L17.9932 8.40723C17.7786 8.19262 17.3318 8 17 8H7ZM10 4C9.73478 4 9.4805 4.10543 9.29297 4.29297C9.10543 4.48051 9 4.73478 9 5V6H15V5C15 4.73478 14.8946 4.48051 14.707 4.29297C14.5429 4.12883 14.3276 4.02757 14.0986 4.00488L14 4H10Z" fill="#E4F2F2"/>
</svg>
