<svg width="24" height="24" viewBox="0 0 24 24" fill="none" xmlns="http://www.w3.org/2000/svg">
<path d="M14 14C14.5522 14.0001 15 14.4478 15 15C15 15.5523 14.5522 16 14 16H10C9.44771 16 9 15.5523 9 15C9 14.4477 9.44771 14 10 14H14Z" fill="#E4F2F2"/>
<path fill-rule="evenodd" clip-rule="evenodd" d="M15.8223 1.98438C16.2997 1.78593 16.8357 1.77983 17.3174 1.96778L17.3184 1.96876L20.8896 3.36524C21.1378 3.46256 21.3647 3.60895 21.5557 3.79493C21.7466 3.9809 21.8982 4.20376 22.0019 4.44923C22.1057 4.69468 22.1598 4.95915 22.1602 5.2256C22.1604 5.49191 22.1069 5.75636 22.0039 6.00196L20.165 10.377C20.2527 10.4399 20.3368 10.5087 20.4141 10.5859C20.7891 10.961 21 11.4696 21 12V19C21 19.7956 20.6837 20.5585 20.1211 21.1211C19.5585 21.6837 18.7956 22 18 22H6C5.20438 22 4.4415 21.6837 3.8789 21.1211C3.3163 20.5585 3 19.7957 3 19V12.0059C2.99923 11.7455 3.04928 11.4873 3.14746 11.2461V11.2442C2.87887 11.0328 2.64491 10.778 2.46093 10.4854C2.13302 9.96357 1.97384 9.3528 2.00488 8.73731C2.03601 8.12183 2.25594 7.53004 2.63476 7.04396C3.01366 6.55797 3.53382 6.20096 4.12304 6.02052L4.17578 6.00587L5.19726 5.75294L5.28711 4.5586L5.30175 4.44923C5.41145 3.86426 5.6934 3.32509 6.11035 2.9004C6.52738 2.47574 7.06164 2.18384 7.64453 2.06349C8.22734 1.94333 8.83282 1.9998 9.38379 2.22462C9.9242 2.44517 10.3876 2.81882 10.7187 3.29884L11.4678 4.33204L12.6582 4.09474C13.191 3.96592 13.7478 3.98572 14.2686 4.1504L14.7559 3.03321C14.9622 2.55917 15.3449 2.183 15.8223 1.98438ZM5 19L5.00488 19.0986C5.02757 19.3276 5.12883 19.5429 5.29296 19.707C5.48049 19.8945 5.73481 20 6 20H18C18.2652 20 18.5195 19.8945 18.707 19.707C18.8945 19.5195 19 19.2652 19 19V12H5V19ZM8.04785 4.02247C7.85378 4.06266 7.67597 4.16036 7.53711 4.30177C7.40661 4.43481 7.3171 4.60183 7.27636 4.78321L7.13769 6.62501C7.10518 7.05579 6.79931 7.41791 6.37988 7.52149L4.69629 7.93653C4.50494 7.99784 4.33557 8.1158 4.21191 8.27442C4.08605 8.43623 4.01237 8.63316 4.00195 8.8379C3.99164 9.043 4.04502 9.24703 4.15429 9.42091C4.26359 9.59477 4.42399 9.73091 4.61328 9.81056L5.07421 10H12.958C12.7763 9.64577 12.8195 9.21309 13.0801 8.90235L14.1133 7.67091L14.1211 7.66114C14.26 7.49952 14.3442 7.29745 14.3603 7.08497C14.3764 6.87247 14.3239 6.66021 14.2109 6.4795C14.0979 6.29868 13.9297 6.1587 13.7314 6.08009C13.5332 6.00154 13.3146 5.98879 13.1084 6.04298C13.0895 6.04792 13.0699 6.05184 13.0508 6.05567L11.2305 6.41993C10.8471 6.49637 10.4539 6.34207 10.2246 6.0254L9.09961 4.47169C9.09293 4.46247 9.08643 4.45281 9.08007 4.44337C8.96929 4.27881 8.81159 4.15114 8.62793 4.07618C8.44429 4.00132 8.24207 3.98239 8.04785 4.02247ZM16.5898 3.83204L15.9014 5.41212C15.9028 5.41445 15.9048 5.41662 15.9062 5.41896C16.2455 5.9614 16.4028 6.59839 16.3545 7.23634C16.3064 7.87016 16.0568 8.47154 15.6445 8.95509L15.6455 8.95606L15.0937 9.61231L15.3535 10H18.1553L20.1602 5.22755L16.5898 3.83204Z" fill="#E4F2F2"/>
</svg>
