<svg width="24" height="24" viewBox="0 0 24 24" fill="none" xmlns="http://www.w3.org/2000/svg">
<path fill-rule="evenodd" clip-rule="evenodd" d="M9 4C9.55229 4 10 4.44772 10 5V6C10 6.53043 10.2109 7.03899 10.5859 7.41406C10.961 7.78913 11.4696 8 12 8C12.5304 8 13.039 7.78913 13.4141 7.41406C13.7891 7.03899 14 6.53043 14 6V5C14 4.44772 14.4477 4 15 4H19C19.5523 4 20 4.44772 20 5V9C20 10.1477 20.8523 11 22 11C22.5523 11 23 11.4477 23 12V17C23 17.7957 22.6837 18.5585 22.1211 19.1211C21.5585 19.6837 20.7957 20 20 20H4C3.20435 20 2.44151 19.6837 1.87891 19.1211C1.3163 18.5585 1 17.7956 1 17V12C1 11.4477 1.44772 11 2 11C3.14772 11 4 10.1477 4 9V5L4.00488 4.89746C4.05621 4.39333 4.48232 4 5 4H9ZM6 9C6 10.9054 4.74904 12.4494 3 12.8799V17C3 17.2652 3.10543 17.5195 3.29297 17.707C3.48051 17.8946 3.73478 18 4 18H20C20.2652 18 20.5195 17.8946 20.707 17.707C20.8946 17.5195 21 17.2652 21 17V12.8799C19.251 12.4494 18 10.9054 18 9V6H16C16 7.06087 15.5783 8.07798 14.8281 8.82812C14.078 9.57827 13.0609 10 12 10C10.9391 10 9.92202 9.57827 9.17188 8.82812C8.42173 8.07798 8 7.06087 8 6H6V9Z" fill="#E4F2F2"/>
</svg>
