<svg width="24" height="24" viewBox="0 0 24 24" fill="none" xmlns="http://www.w3.org/2000/svg">
<path fill-rule="evenodd" clip-rule="evenodd" d="M1.29297 1.29295C1.68349 0.90243 2.31651 0.90243 2.70703 1.29295L22.707 21.293C23.0975 21.6835 23.0975 22.3165 22.707 22.707C22.3165 23.0975 21.6835 23.0975 21.293 22.707L19.5859 21H4C3.20437 21 2.44151 20.6837 1.87891 20.1211C1.31631 19.5585 1.00002 18.7956 1 18V5.99999C1 5.20435 1.31632 4.4415 1.87891 3.87889C1.97757 3.78023 2.08426 3.69152 2.19434 3.60838L1.29297 2.70702C0.902457 2.3165 0.902482 1.68348 1.29297 1.29295ZM3 18C3.00002 18.2652 3.10545 18.5195 3.29297 18.707C3.4805 18.8945 3.7348 19 4 19H11V15H3V18ZM13 19H17.5859L13.5859 15H13V19ZM3.64941 5.06346C3.51684 5.11313 3.39502 5.19091 3.29297 5.29295C3.10546 5.48049 3 5.73479 3 5.99999V13H11.5859L3.64941 5.06346Z" fill="#E4F2F2"/>
<path d="M20 2.99999C20.7955 3.00005 21.5586 3.31642 22.1211 3.87889C22.6836 4.44148 23 5.20441 23 5.99999V16.3437C23 16.8959 22.5521 17.3436 22 17.3437C21.4479 17.3436 21 16.8959 21 16.3437V15H19.6562C19.104 15 18.6563 14.5522 18.6562 14C18.6562 13.4477 19.104 13 19.6562 13H21V5.99999C21 5.73485 20.8945 5.48048 20.707 5.29295C20.5196 5.10556 20.2651 5.00005 20 4.99999H9.65625C9.10399 4.99999 8.65629 4.55224 8.65625 3.99999C8.65625 3.4477 9.10396 2.99999 9.65625 2.99999H20Z" fill="#E4F2F2"/>
</svg>
