<svg width="24" height="24" viewBox="0 0 24 24" fill="none" xmlns="http://www.w3.org/2000/svg">
<path fill-rule="evenodd" clip-rule="evenodd" d="M13 1C13.5522 1.0001 14 1.44777 14 2C14 2.51762 13.6066 2.9437 13.1025 2.99512L13 3V5H20L20.1172 5.00684C20.3865 5.03864 20.6336 5.17915 20.7988 5.39844C20.9876 5.64921 21.0475 5.97465 20.9609 6.27637L19.1973 12.416C19.1911 12.4575 19.1843 12.4992 19.1729 12.54C19.0554 12.959 18.8043 13.3283 18.458 13.5918C18.1116 13.8552 17.6882 13.9987 17.2529 14H17V22C17 22.5522 16.5522 22.9999 16 23C15.4477 23 15 22.5523 15 22V14H9.00001V22C9.00001 22.5522 8.55221 22.9999 8.00001 23C7.44772 23 7.00001 22.5523 7.00001 22V14H6.73731C6.30547 13.9944 5.88642 13.8491 5.54395 13.5859C5.2016 13.3228 4.95349 12.9558 4.83692 12.54L3.03907 6.27637C2.95244 5.9746 3.01232 5.64923 3.20118 5.39844C3.39012 5.14768 3.68603 5 4.00001 5H11V3L10.8975 2.99512C10.3933 2.94387 10 2.51774 10 2C10 1.44772 10.4477 1 11 1H13ZM6.76075 11.9941L6.7627 12H8.84668L8.13282 7H5.32715L6.76075 11.9941ZM10.8672 12H13.1328L13.8467 7H10.1533L10.8672 12ZM15.1533 12H17.2383C17.2388 11.9981 17.2387 11.996 17.2393 11.9941L18.6729 7H15.8672L15.1533 12Z" fill="#E4F2F2"/>
</svg>
