<svg width="24" height="24" viewBox="0 0 24 24" fill="none" xmlns="http://www.w3.org/2000/svg">
<path fill-rule="evenodd" clip-rule="evenodd" d="M17 2C18.3261 2 19.5975 2.52716 20.5352 3.46484C21.4728 4.40253 22 5.67392 22 7V17C22 18.3261 21.4728 19.5975 20.5352 20.5352C19.5975 21.4728 18.3261 22 17 22H7C5.67392 22 4.40253 21.4728 3.46484 20.5352C2.52716 19.5975 2 18.3261 2 17V7C2 5.67392 2.52716 4.40253 3.46484 3.46484C4.40253 2.52716 5.67392 2 7 2H17ZM7 4C6.20435 4 5.44152 4.3163 4.87891 4.87891C4.3163 5.44152 4 6.20435 4 7V13C4 13.7956 4.3163 14.5585 4.87891 15.1211C5.44152 15.6837 6.20435 16 7 16H17C17.5523 16 18 16.4477 18 17C18 17.5523 17.5523 18 17 18H7C5.91149 18 4.86049 17.6439 4 16.998V17C4 17.7956 4.3163 18.5585 4.87891 19.1211C5.44152 19.6837 6.20435 20 7 20H17C17.7956 20 18.5585 19.6837 19.1211 19.1211C19.6837 18.5585 20 17.7956 20 17C20 16.2044 19.6837 15.4415 19.1211 14.8789C18.6289 14.3867 17.9835 14.0829 17.2969 14.0146L17 14H7C6.44772 14 6 13.5523 6 13C6 12.4477 6.44772 12 7 12H17C18.0883 12 19.1395 12.3554 20 13.001V7C20 6.20435 19.6837 5.44152 19.1211 4.87891C18.5585 4.3163 17.7956 4 17 4H7Z" fill="#E4F2F2"/>
</svg>
