<svg width="24" height="24" viewBox="0 0 24 24" fill="none" xmlns="http://www.w3.org/2000/svg">
<path fill-rule="evenodd" clip-rule="evenodd" d="M18 1C18.7957 1 19.5585 1.3163 20.1211 1.87891C20.6837 2.44151 21 3.20435 21 4V5H22C22.5523 5 23 5.44772 23 6C23 6.55228 22.5523 7 22 7H21V22C21 22.5523 20.5523 23 20 23H8C7.44772 23 7 22.5523 7 22V20H4C3.44772 20 3 19.5523 3 19V7H2C1.44772 7 1 6.55228 1 6C1 5.44772 1.44772 5 2 5H3V4C3 3.20435 3.3163 2.44152 3.87891 1.87891C4.3711 1.38671 5.01649 1.08291 5.70312 1.01465L6 1H18ZM9 19V21H19V19H9ZM5 18H7V7H5V18ZM8.82422 3C8.93703 3.31859 9 3.65558 9 4V17H19V4C19 3.73478 18.8946 3.48051 18.707 3.29297C18.5195 3.10543 18.2652 3 18 3H8.82422ZM6 3C5.73478 3 5.4805 3.10543 5.29297 3.29297C5.10543 3.4805 5 3.73478 5 4V5H7V4C7 3.73478 6.89457 3.4805 6.70703 3.29297C6.54289 3.12883 6.32763 3.02757 6.09863 3.00488L6 3Z" fill="#E4F2F2"/>
</svg>
