<svg width="24" height="24" viewBox="0 0 24 24" fill="none" xmlns="http://www.w3.org/2000/svg">
<path d="M12 1C14.9174 1 17.7154 2.15878 19.7783 4.22168C21.8412 6.28458 23 9.08262 23 12V22C23 22.5523 22.5523 23 22 23C21.4477 23 21 22.5523 21 22V12C21 9.61305 20.0521 7.32357 18.3643 5.63574C16.6764 3.94791 14.3869 3 12 3C9.61305 3 7.32357 3.94791 5.63574 5.63574C3.94791 7.32357 3 9.61305 3 12V22C3 22.5523 2.55228 23 2 23C1.44772 23 1 22.5523 1 22V12C1 9.08262 2.15878 6.28458 4.22168 4.22168C6.28458 2.15878 9.08262 1 12 1Z" fill="#E4F2F2"/>
<path d="M10.0098 14C10.5621 14 11.0098 14.4477 11.0098 15C11.0098 15.5523 10.5621 16 10.0098 16H10C9.44771 16 9 15.5523 9 15C9 14.4477 9.44771 14 10 14H10.0098Z" fill="#E4F2F2"/>
<path d="M14.0098 14C14.5621 14 15.0098 14.4477 15.0098 15C15.0098 15.5523 14.5621 16 14.0098 16H14C13.4477 16 13 15.5523 13 15C13 14.4477 13.4477 14 14 14H14.0098Z" fill="#E4F2F2"/>
<path fill-rule="evenodd" clip-rule="evenodd" d="M12.3467 5.00879C13.4378 5.06285 14.4936 5.37156 15.4336 5.90039C15.4841 5.92479 15.5328 5.95217 15.5781 5.98438C16.0738 6.279 16.5356 6.63521 16.9502 7.0498C18.263 8.36256 19 10.1435 19 12V15C19 16.3261 18.4728 17.5975 17.5352 18.5352C17.2079 18.8624 16.8391 19.1381 16.4424 19.3604L17.832 21.4453C18.1384 21.9048 18.0142 22.5257 17.5547 22.832C17.0952 23.1384 16.4743 23.0142 16.168 22.5547L14.4502 19.9785C14.3011 19.992 14.1509 20 14 20H10C9.84873 20 9.69826 19.9921 9.54883 19.9785L7.83203 22.5547C7.52568 23.0142 6.90484 23.1384 6.44531 22.832C5.98578 22.5257 5.86162 21.9048 6.16797 21.4453L7.55664 19.3604C7.16023 19.1381 6.7919 18.8622 6.46484 18.5352C5.52716 17.5975 5 16.3261 5 15V12C5 10.1435 5.73705 8.36256 7.0498 7.0498C7.46588 6.63373 7.92913 6.27574 8.42676 5.98047C8.47629 5.94576 8.5294 5.91602 8.58496 5.89062C9.6198 5.31244 10.7936 5 12 5L12.3467 5.00879ZM15.9287 8.91016C15.7765 9.67106 15.3838 10.3697 14.8037 10.9111C14.0963 11.5714 13.1645 11.9503 12.1943 11.9951L12 12C10.9606 12 9.95087 11.6153 9.19629 10.9111C8.6164 10.3699 8.22269 9.67171 8.07031 8.91113C7.3812 9.78757 7 10.8737 7 12V15C7 15.7956 7.3163 16.5585 7.87891 17.1211C8.44152 17.6837 9.20435 18 10 18H14C14.7956 18 15.5585 17.6837 16.1211 17.1211C16.6837 16.5585 17 15.7956 17 15V12C17 10.8732 16.6184 9.78678 15.9287 8.91016ZM12 7C11.3047 7 10.625 7.14594 10 7.41895V8.2002L10.0088 8.37012C10.0508 8.7651 10.2387 9.14763 10.5605 9.44824C10.9312 9.79415 11.4482 10 12 10L12.2051 9.99023C12.6787 9.94621 13.1152 9.75091 13.4395 9.44824C13.8073 9.10467 13.9999 8.6541 14 8.2002V7.41797C13.4497 7.17753 12.8566 7.03606 12.248 7.00586L12 7Z" fill="#E4F2F2"/>
</svg>
