<svg width="24" height="24" viewBox="0 0 24 24" fill="none" xmlns="http://www.w3.org/2000/svg">
<path fill-rule="evenodd" clip-rule="evenodd" d="M16.293 1.29295C16.6835 0.90243 17.3165 0.90243 17.707 1.29295C18.0975 1.68348 18.0975 2.31652 17.707 2.70702L16.914 3.49999L20.5 7.08592L21.293 6.29295C21.6835 5.90243 22.3165 5.90243 22.707 6.29295C23.0975 6.68349 23.0975 7.31652 22.707 7.70702L21.914 8.49999L22.707 9.29295C23.0975 9.68349 23.0975 10.3165 22.707 10.707C22.3165 11.0975 21.6835 11.0975 21.293 10.707L20.5 9.91405L18.914 11.5L19.707 12.293C20.0975 12.6835 20.0975 13.3165 19.707 13.707C19.3165 14.0975 18.6835 14.0975 18.293 13.707L17.5 12.914L15.914 14.5L16.707 15.293C17.0975 15.6835 17.0975 16.3165 16.707 16.707C16.3165 17.0975 15.6835 17.0975 15.293 16.707L14.5 15.914L12.914 17.5L13.707 18.293C14.0975 18.6835 14.0975 19.3165 13.707 19.707C13.3165 20.0975 12.6835 20.0975 12.293 19.707L11.5 18.914L9.91405 20.5L10.707 21.293C11.0975 21.6835 11.0975 22.3165 10.707 22.707C10.3165 23.0975 9.68349 23.0975 9.29295 22.707L8.49999 21.914L7.70702 22.707C7.31652 23.0975 6.68349 23.0975 6.29295 22.707C5.90243 22.3165 5.90243 21.6835 6.29295 21.293L7.08592 20.5L3.49999 16.914L2.70702 17.707C2.31652 18.0975 1.68348 18.0975 1.29295 17.707C0.90243 17.3165 0.90243 16.6835 1.29295 16.293L2.08592 15.5L1.29295 14.707C0.90243 14.3165 0.90243 13.6835 1.29295 13.293C1.68348 12.9024 2.31649 12.9024 2.70702 13.293L3.49999 14.0859L5.08592 12.5L4.29295 11.707C3.90243 11.3165 3.90243 10.6835 4.29295 10.293C4.68348 9.90243 5.31649 9.90243 5.70702 10.293L6.49999 11.0859L8.08592 9.49999L7.29295 8.70702C6.90243 8.31649 6.90243 7.68348 7.29295 7.29295C7.68348 6.90243 8.31649 6.90243 8.70702 7.29295L9.49999 8.08592L11.0859 6.49999L10.293 5.70702C9.90243 5.31649 9.90243 4.68348 10.293 4.29295C10.6835 3.90243 11.3165 3.90243 11.707 4.29295L12.5 5.08592L14.0859 3.49999L13.293 2.70702C12.9024 2.31649 12.9024 1.68348 13.293 1.29295C13.6835 0.90243 14.3165 0.90243 14.707 1.29295L15.5 2.08592L16.293 1.29295ZM4.91405 15.5L8.49999 19.0859L10.0859 17.5L6.49999 13.914L4.91405 15.5ZM7.91405 12.5L11.5 16.0859L13.0859 14.5L9.49999 10.914L7.91405 12.5ZM10.914 9.49999L14.5 13.0859L16.0859 11.5L12.5 7.91405L10.914 9.49999ZM13.914 6.49999L17.5 10.0859L19.0859 8.49999L15.5 4.91405L13.914 6.49999Z" fill="#E4F2F2"/>
</svg>
