<svg width="24" height="24" viewBox="0 0 24 24" fill="none" xmlns="http://www.w3.org/2000/svg">
<path fill-rule="evenodd" clip-rule="evenodd" d="M12 2C13.0608 2.00005 14.078 2.42183 14.8281 3.17188C15.342 3.68577 15.7024 4.3248 15.8779 5.01758C16.4296 5.06315 16.9715 5.21157 17.4746 5.45605C18.2869 5.85093 18.9618 6.48111 19.4111 7.26465C19.8605 8.04828 20.0637 8.94898 19.9941 9.84961C19.95 10.4206 19.7964 10.9745 19.5469 11.4834C20.064 12.0058 20.4631 12.6381 20.71 13.3389C21.065 14.3471 21.0885 15.4428 20.7754 16.4648C20.4622 17.4869 19.8287 18.3814 18.9697 19.0176C18.1108 19.6537 17.0708 19.9983 16.0019 20H13V22C13 22.5523 12.5523 23 12 23C11.4477 23 11 22.5523 11 22V20H7.99999C6.92856 20.0019 5.88464 19.6596 5.02245 19.0234C4.15953 18.3866 3.52379 17.4884 3.20995 16.4629C2.89619 15.4374 2.92056 14.3378 3.27929 13.3271C3.52853 12.6252 3.92992 11.9916 4.45019 11.4697C4.20191 10.962 4.04987 10.4093 4.00585 9.83984C3.93625 8.93925 4.1396 8.03851 4.58886 7.25488C5.03829 6.47119 5.7138 5.84015 6.52636 5.44531C7.03017 5.20058 7.57259 5.05311 8.12499 5.00781C8.30143 4.31882 8.66044 3.68334 9.17187 3.17188C9.92196 2.42183 10.9392 2.00005 12 2ZM12 4C11.4697 4.00005 10.961 4.21096 10.5859 4.58594C10.2109 4.961 9.99999 5.46961 9.99999 6V6.03027C9.99991 6.32064 9.87397 6.59722 9.65429 6.78711C9.4346 6.97692 9.14273 7.06149 8.85546 7.01953C8.35902 6.94679 7.8517 7.02495 7.40038 7.24414C6.94908 7.46344 6.57389 7.81381 6.32421 8.24902C6.07455 8.68438 5.96135 9.18517 5.99999 9.68555C6.03866 10.1859 6.2275 10.6629 6.54101 11.0547C6.7156 11.2729 6.7912 11.5548 6.74901 11.8311C6.70668 12.1073 6.55019 12.3538 6.31835 12.5098C5.78437 12.8686 5.37935 13.3898 5.16405 13.9961C4.94881 14.6025 4.93378 15.2626 5.12206 15.8779C5.31037 16.4932 5.6922 17.0319 6.20995 17.4141C6.72764 17.796 7.35469 18.0014 7.99804 18H15.999C16.6401 17.999 17.2641 17.7926 17.7793 17.4111C18.2947 17.0294 18.6744 16.4921 18.8623 15.8789C19.0502 15.2657 19.0373 14.6079 18.8242 14.0029C18.6111 13.3981 18.2093 12.8776 17.6787 12.5176C17.4479 12.361 17.2926 12.1146 17.251 11.8389C17.2095 11.5634 17.285 11.283 17.459 11.0654C17.7726 10.6736 17.9613 10.1957 18 9.69531C18.0386 9.19523 17.9261 8.69493 17.6767 8.25977C17.4272 7.82457 17.0517 7.47427 16.6006 7.25488C16.1493 7.0356 15.6419 6.95668 15.1455 7.0293C14.8582 7.07139 14.5664 6.98657 14.3467 6.79688C14.1269 6.60693 14 6.33054 14 6.04004V6C14 5.46961 13.7891 4.961 13.4141 4.58594C13.039 4.21096 12.5303 4.00005 12 4Z" fill="#E4F2F2"/>
</svg>
