<svg width="24" height="24" viewBox="0 0 24 24" fill="none" xmlns="http://www.w3.org/2000/svg">
<path fill-rule="evenodd" clip-rule="evenodd" d="M7.00049 6C8.06121 6.0001 9.07856 6.42182 9.82862 7.17188C10.4757 7.81907 10.8778 8.66511 10.9761 9.56641C11.5755 9.92476 12.0738 10.4367 12.4175 11.0537C12.8733 11.8721 13.0275 12.8247 12.853 13.7451C12.6785 14.6656 12.1863 15.4961 11.4624 16.0908C10.7405 16.6838 9.83396 17.0045 8.89991 16.999L8.00049 17V22C8.00049 22.5522 7.5526 22.9998 7.00049 23C6.44821 23 6.00049 22.5523 6.00049 22V17H4.9751C4.0495 16.9769 3.16014 16.6336 2.45948 16.0283C1.75885 15.4231 1.29065 14.593 1.1333 13.6807C0.975989 12.7682 1.13966 11.8294 1.59717 11.0244C1.9408 10.4199 2.43346 9.91791 3.02393 9.56543C3.12236 8.66454 3.52457 7.81883 4.17139 7.17188C4.92153 6.42173 5.93963 6 7.00049 6ZM7.00049 8C6.47006 8 5.96052 8.21087 5.58545 8.58594C5.21056 8.96098 5.00049 9.46971 5.00049 10V10.2002C5.00041 10.6142 4.74445 10.9855 4.35791 11.1338C3.9259 11.2996 3.56514 11.6104 3.33643 12.0127C3.10766 12.4152 3.02535 12.8846 3.10401 13.3408C3.18269 13.797 3.41678 14.212 3.76709 14.5146C4.11742 14.8173 4.56211 14.9885 5.02491 15H8.90772C9.37613 15.0036 9.83095 14.8423 10.1929 14.5449C10.5546 14.2476 10.8009 13.8331 10.8882 13.373C10.9755 12.9129 10.8983 12.4366 10.6704 12.0273C10.4425 11.6181 10.0783 11.3019 9.64112 11.1338C9.25496 10.9853 9.00057 10.6139 9.00049 10.2002V10C9.00049 9.46966 8.7895 8.96099 8.41455 8.58594C8.03957 8.21096 7.53078 8.0001 7.00049 8Z" fill="#E4F2F2"/>
<path d="M13.0005 2C13.278 2.00023 13.543 2.11618 13.7319 2.31934L17.7105 6.5957L17.814 6.70898C18.0451 6.98095 18.2003 7.31052 18.2612 7.66406C18.3309 8.06827 18.2738 8.48435 18.0991 8.85547C18.0032 9.05935 17.8732 9.24322 17.7173 9.40234L19.7397 11.627C19.9999 11.9022 20.1769 12.245 20.2495 12.6172C20.3244 13.0015 20.2843 13.3997 20.1353 13.7617C20.0369 14.0006 19.8924 14.2157 19.7134 14.3984L21.7397 16.627C21.9999 16.9022 22.1769 17.245 22.2495 17.6172C22.3244 18.0015 22.2843 18.3997 22.1353 18.7617C21.9862 19.1237 21.7343 19.4342 21.4106 19.6543C21.0869 19.8744 20.7054 19.9945 20.314 20H14.0005V22C14.0005 22.5522 13.5526 22.9998 13.0005 23C12.4482 23 12.0005 22.5523 12.0005 22V20C11.4482 20 11.0005 19.5523 11.0005 19C11.0005 18.4477 11.4482 18 12.0005 18H20.2856C20.2769 17.9911 20.2686 17.9819 20.2603 17.9727L17.2603 14.6729C16.9941 14.38 16.9255 13.9576 17.0855 13.5957C17.2456 13.2337 17.6047 13 18.0005 13H18.2856C18.2769 12.9911 18.2686 12.9819 18.2603 12.9727L15.2603 9.67285C14.9941 9.38004 14.9255 8.95762 15.0855 8.5957C15.2456 8.23372 15.6047 8 16.0005 8H16.1997C16.2296 8 16.2598 8.00124 16.2896 8.00391C16.2823 7.99655 16.2751 7.98903 16.2681 7.98145L12.9985 4.4668L12.3315 5.18262C11.9547 5.58635 11.3212 5.60824 10.9175 5.23145C10.5137 4.85462 10.4919 4.22113 10.8687 3.81738L12.269 2.31738L12.3433 2.24609C12.5246 2.08813 12.7577 1.99991 13.0005 2Z" fill="#E4F2F2"/>
</svg>
