<svg width="24" height="24" viewBox="0 0 24 24" fill="none" xmlns="http://www.w3.org/2000/svg">
<path d="M5.02049 11.001C5.03808 11.0013 5.05567 11.0017 5.07323 11.0029C5.09093 11.0042 5.10853 11.0056 5.12596 11.0078C5.13774 11.0093 5.14939 11.0118 5.16112 11.0137C5.17987 11.0167 5.19839 11.0203 5.21678 11.0244C5.22788 11.0269 5.23896 11.0294 5.24999 11.0322C5.31726 11.0496 5.38136 11.0743 5.44237 11.1045C5.53766 11.1516 5.62767 11.2136 5.70702 11.293L8.70702 14.293C9.09749 14.6835 9.09749 15.3165 8.70702 15.707C8.31651 16.0975 7.68348 16.0975 7.29295 15.707L5.99999 14.4141V16.5859L8.70702 19.293C9.09749 19.6835 9.09749 20.3165 8.70702 20.707C8.31651 21.0975 7.68348 21.0975 7.29295 20.707L5.99999 19.4141V22C5.99999 22.5523 5.55224 23 4.99999 23C4.4477 23 3.99999 22.5523 3.99999 22V19.4141L2.70702 20.707C2.3165 21.0975 1.68348 21.0975 1.29295 20.707C0.90243 20.3165 0.90243 19.6835 1.29295 19.293L3.99999 16.5859V14.4141L2.70702 15.707C2.3165 16.0975 1.68348 16.0975 1.29295 15.707C0.90243 15.3165 0.90243 14.6835 1.29295 14.293L4.29295 11.293C4.35012 11.2358 4.41476 11.1866 4.48436 11.1445C4.50431 11.1325 4.52434 11.1209 4.54491 11.1104C4.60725 11.0784 4.6731 11.0526 4.74217 11.0342C4.75875 11.0298 4.77524 11.025 4.79198 11.0215C4.80295 11.0192 4.81408 11.0176 4.82518 11.0156C4.8427 11.0125 4.86029 11.01 4.87792 11.0078C4.89568 11.0057 4.91358 11.0041 4.93163 11.0029C4.94756 11.0018 4.96351 11.0013 4.97948 11.001C4.98628 11.0008 4.99315 11 4.99999 11C5.00684 11 5.01367 11.0008 5.02049 11.001Z" fill="#E4F2F2"/>
<path d="M19.0205 11.001C19.0381 11.0013 19.0557 11.0017 19.0732 11.0029C19.0909 11.0042 19.1085 11.0056 19.126 11.0078C19.1377 11.0093 19.1494 11.0118 19.1611 11.0137C19.1799 11.0167 19.1984 11.0203 19.2168 11.0244C19.2279 11.0269 19.239 11.0294 19.25 11.0322C19.3173 11.0496 19.3814 11.0743 19.4424 11.1045C19.5377 11.1516 19.6277 11.2136 19.707 11.293L22.707 14.293C23.0975 14.6835 23.0975 15.3165 22.707 15.707C22.3165 16.0975 21.6835 16.0975 21.293 15.707L20 14.4141V16.5859L22.707 19.293C23.0975 19.6835 23.0975 20.3165 22.707 20.707C22.3165 21.0975 21.6835 21.0975 21.293 20.707L20 19.4141V22C20 22.5523 19.5522 23 19 23C18.4477 23 18 22.5523 18 22V19.4141L16.707 20.707C16.3165 21.0975 15.6835 21.0975 15.293 20.707C14.9024 20.3165 14.9024 19.6835 15.293 19.293L18 16.5859V14.4141L16.707 15.707C16.3165 16.0975 15.6835 16.0975 15.293 15.707C14.9024 15.3165 14.9024 14.6835 15.293 14.293L18.293 11.293C18.3501 11.2358 18.4148 11.1866 18.4844 11.1445C18.5043 11.1325 18.5243 11.1209 18.5449 11.1104C18.6072 11.0784 18.6731 11.0526 18.7422 11.0342C18.7587 11.0298 18.7752 11.025 18.792 11.0215C18.8029 11.0192 18.8141 11.0176 18.8252 11.0156C18.8427 11.0125 18.8603 11.01 18.8779 11.0078C18.8957 11.0057 18.9136 11.0041 18.9316 11.0029C18.9476 11.0018 18.9635 11.0013 18.9795 11.001C18.9863 11.0008 18.9932 11 19 11C19.0068 11 19.0137 11.0008 19.0205 11.001Z" fill="#E4F2F2"/>
<path d="M12.0205 1.00098C12.0381 1.00133 12.0557 1.00165 12.0732 1.00293C12.0909 1.00421 12.1085 1.00562 12.126 1.00781C12.1377 1.0093 12.1494 1.01177 12.1611 1.01367C12.1799 1.01671 12.1984 1.02034 12.2168 1.02441C12.2279 1.02687 12.239 1.02939 12.25 1.03223C12.3173 1.04956 12.3814 1.07429 12.4424 1.10449C12.5377 1.15158 12.6277 1.21362 12.707 1.29297L15.707 4.29297C16.0975 4.68348 16.0975 5.31652 15.707 5.70703C15.3165 6.09754 14.6835 6.09752 14.293 5.70703L13 4.41406V6.58594L15.707 9.29297C16.0975 9.68348 16.0975 10.3165 15.707 10.707C15.3165 11.0975 14.6835 11.0975 14.293 10.707L13 9.41406V12C13 12.5523 12.5522 13 12 13C11.4477 13 11 12.5523 11 12V9.41406L9.70702 10.707C9.31651 11.0975 8.68348 11.0975 8.29295 10.707C7.90243 10.3165 7.90243 9.68349 8.29295 9.29297L11 6.58594V4.41406L9.70702 5.70703C9.31651 6.09754 8.68348 6.09752 8.29295 5.70703C7.90243 5.31651 7.90243 4.68349 8.29295 4.29297L11.293 1.29297C11.3501 1.2358 11.4148 1.18656 11.4844 1.14453C11.5043 1.13248 11.5243 1.12088 11.5449 1.11035C11.6072 1.07841 11.6731 1.05256 11.7422 1.03418C11.7587 1.02977 11.7752 1.02503 11.792 1.02148C11.8029 1.01917 11.8141 1.01758 11.8252 1.01562C11.8427 1.01252 11.8603 1.00998 11.8779 1.00781C11.8957 1.00565 11.9136 1.00415 11.9316 1.00293C11.9476 1.00184 11.9635 1.00131 11.9795 1.00098C11.9863 1.00084 11.9932 1 12 1C12.0068 1 12.0137 1.00084 12.0205 1.00098Z" fill="#E4F2F2"/>
</svg>
