<svg width="24" height="24" viewBox="0 0 24 24" fill="none" xmlns="http://www.w3.org/2000/svg">
<path fill-rule="evenodd" clip-rule="evenodd" d="M12 2C12.2777 2.00005 12.5433 2.11604 12.7324 2.31934L16.7324 6.61914C17.0088 6.9069 17.1928 7.27039 17.2607 7.66406C17.3304 8.06818 17.2741 8.48441 17.0996 8.85547C17.0036 9.0594 16.8727 9.2432 16.7168 9.40234L18.7402 11.627C19.0001 11.9021 19.1765 12.2452 19.249 12.6172C19.3239 13.0015 19.2838 13.3997 19.1348 13.7617C19.0365 14.0002 18.8925 14.2149 18.7139 14.3975L20.7402 16.627C21.0001 16.9021 21.1765 17.2452 21.249 17.6172C21.3239 18.0015 21.2838 18.3997 21.1348 18.7617C20.9857 19.1236 20.7338 19.4342 20.4101 19.6543C20.0865 19.8743 19.7048 19.9945 19.3135 20H13V22C13 22.5523 12.5522 23 12 23C11.4477 23 11 22.5523 11 22V20H4.68553C4.2942 19.9944 3.91251 19.8744 3.58885 19.6543C3.26523 19.4342 3.01326 19.1236 2.86424 18.7617C2.7152 18.3997 2.67609 18.0014 2.75096 17.6172C2.82353 17.2452 3.00074 16.9021 3.26073 16.627L5.28514 14.3984C5.10638 14.2158 4.96249 14.0003 4.86424 13.7617C4.7152 13.3997 4.67608 13.0014 4.75096 12.6172C4.82349 12.2454 5.00002 11.902 5.25975 11.627L7.28124 9.40234C7.12567 9.24338 6.99618 9.05905 6.90038 8.85547C6.72579 8.48439 6.66962 8.06821 6.73924 7.66406C6.80713 7.27057 6.99135 6.90684 7.26756 6.61914L11.2676 2.31934C11.4567 2.11599 11.7223 2.00003 12 2ZM8.73241 7.98145C8.72522 7.98917 8.71737 7.99641 8.70995 8.00391C8.73978 8.00121 8.76983 8 8.79979 8H8.99999C9.39572 8.00007 9.75393 8.2338 9.91405 8.5957C10.0741 8.9576 10.0063 9.38001 9.74022 9.67285L6.74022 12.9727C6.73179 12.9819 6.72262 12.9911 6.71385 13H6.99999C7.39572 13.0001 7.75393 13.2338 7.91405 13.5957C8.07409 13.9576 8.00634 14.38 7.74022 14.6729L4.74022 17.9727C4.73179 17.9819 4.72262 17.9911 4.71385 18H19.2861C19.2773 17.991 19.2682 17.9819 19.2598 17.9727L16.2598 14.6729C15.9936 14.3801 15.925 13.9576 16.0849 13.5957C16.2451 13.2338 16.6042 13 17 13H17.2861C17.2773 12.991 17.2682 12.9819 17.2598 12.9727L14.2598 9.67285C13.9936 9.38007 13.925 8.95758 14.0849 8.5957C14.2451 8.23375 14.6042 8.00004 15 8H15.2002L15.29 8.00391C15.2826 7.99644 15.2747 7.98914 15.2676 7.98145L12 4.46777L8.73241 7.98145Z" fill="#E4F2F2"/>
</svg>
