<svg width="24" height="24" viewBox="0 0 24 24" fill="none" xmlns="http://www.w3.org/2000/svg">
<path fill-rule="evenodd" clip-rule="evenodd" d="M10 6C10.5523 6 11 6.44772 11 7V16C11 16.5523 10.5523 17 10 17H7C6.44772 17 6 16.5523 6 16V7C6 6.44772 6.44772 6 7 6H10ZM8 15H9V8H8V15Z" fill="#E4F2F2"/>
<path fill-rule="evenodd" clip-rule="evenodd" d="M17 6C17.5523 6 18 6.44772 18 7V12C18 12.5523 17.5523 13 17 13H14C13.4477 13 13 12.5523 13 12V7C13 6.44772 13.4477 6 14 6H17ZM15 11H16V8H15V11Z" fill="#E4F2F2"/>
<path fill-rule="evenodd" clip-rule="evenodd" d="M19 2C20.6569 2 22 3.34315 22 5V19C22 20.6569 20.6569 22 19 22H5C3.34315 22 2 20.6569 2 19V5C2 3.34315 3.34315 2 5 2H19ZM5 4C4.44772 4 4 4.44772 4 5V19C4 19.5523 4.44772 20 5 20H19C19.5523 20 20 19.5523 20 19V5C20 4.44772 19.5523 4 19 4H5Z" fill="#E4F2F2"/>
</svg>
