<svg width="24" height="24" viewBox="0 0 24 24" fill="none" xmlns="http://www.w3.org/2000/svg">
<path d="M22 6C22.0586 6 22.116 6.00593 22.1719 6.01562C22.179 6.01686 22.1863 6.01716 22.1933 6.01855C22.2092 6.02166 22.2246 6.02642 22.2402 6.03027C22.2571 6.03445 22.2743 6.0379 22.291 6.04297C22.3401 6.05788 22.387 6.07767 22.4326 6.09961C22.4741 6.11956 22.5147 6.14195 22.5537 6.16797C22.6653 6.24237 22.7611 6.33825 22.8349 6.4502C22.8801 6.51862 22.9148 6.5917 22.9414 6.66699C22.9461 6.68037 22.9519 6.6934 22.956 6.70703C22.9622 6.72732 22.9668 6.74799 22.9717 6.76855C22.9893 6.84293 23 6.92023 23 7V13C23 13.5523 22.5522 14 22 14C21.4477 14 21 13.5523 21 13V9.41406L14.207 16.207C13.8165 16.5975 13.1835 16.5975 12.793 16.207L8.49999 11.9141L2.70702 17.707C2.3165 18.0975 1.68348 18.0975 1.29295 17.707C0.90243 17.3165 0.90243 16.6835 1.29295 16.293L7.79295 9.79297L7.86913 9.72461C8.2619 9.4043 8.84092 9.42687 9.20702 9.79297L13.5 14.0859L19.5859 8H16C15.4477 8 15 7.55228 15 7C15 6.44772 15.4477 6 16 6H22Z" fill="#E4F2F2"/>
</svg>
