<svg width="24" height="24" viewBox="0 0 24 24" fill="none" xmlns="http://www.w3.org/2000/svg">
<path d="M1.29295 6.29295C1.68348 5.90243 2.31649 5.90243 2.70702 6.29295L8.49999 12.0859L12.793 7.79295L12.8691 7.72459C13.2619 7.40425 13.8409 7.42684 14.207 7.79295L21 14.5859V11C21 10.4477 21.4477 9.99999 22 9.99999C22.5522 10 23 10.4477 23 11V17C23 17.083 22.9878 17.1631 22.9687 17.2402C22.9646 17.2572 22.9611 17.2743 22.956 17.291C22.9522 17.3036 22.9476 17.3158 22.9433 17.3281C22.916 17.4068 22.8786 17.4825 22.831 17.5537C22.7577 17.6636 22.6636 17.7577 22.5537 17.831C22.5076 17.8618 22.4596 17.8878 22.4101 17.9101C22.4016 17.914 22.3934 17.9183 22.3848 17.9219C22.366 17.9297 22.3472 17.9367 22.3281 17.9433C22.3158 17.9476 22.3035 17.9522 22.291 17.956C22.2743 17.9611 22.2572 17.9646 22.2402 17.9687C22.2246 17.9726 22.2092 17.9773 22.1933 17.9805C22.1862 17.9818 22.179 17.9821 22.1719 17.9834C22.1489 17.9874 22.126 17.9927 22.1025 17.9951L22 18H16C15.4477 18 15 17.5522 15 17C15 16.4477 15.4477 16 16 16H19.5859L13.5 9.91405L9.20702 14.207C8.81652 14.5975 8.18349 14.5975 7.79295 14.207L1.29295 7.70702C0.90243 7.31649 0.90243 6.68348 1.29295 6.29295Z" fill="#E4F2F2"/>
</svg>
