<svg width="24" height="24" viewBox="0 0 24 24" fill="none" xmlns="http://www.w3.org/2000/svg">
<path d="M14.1211 14.1211C14.5116 13.7306 15.1446 13.7306 15.5351 14.1211L20 18.5859V16C20 15.4477 20.4477 15 21 15C21.5522 15 22 15.4477 22 16V21C22 21.1196 21.977 21.2336 21.9385 21.3398C21.9218 21.3858 21.9025 21.431 21.8789 21.4746C21.801 21.6185 21.6892 21.7406 21.5537 21.8311C21.5146 21.8572 21.4743 21.8804 21.4326 21.9004C21.3871 21.9223 21.34 21.9412 21.291 21.9561C21.2743 21.9611 21.2572 21.9646 21.2402 21.9688C21.2246 21.9726 21.2092 21.9774 21.1933 21.9805C21.1863 21.9819 21.179 21.9822 21.1719 21.9834C21.1489 21.9874 21.126 21.9927 21.1025 21.9951L21 22H16C15.4477 22 15 21.5523 15 21C15 20.4477 15.4477 20 16 20H18.5859L14.1211 15.5352C13.7306 15.1446 13.7306 14.5116 14.1211 14.1211Z" fill="#E4F2F2"/>
<path d="M21 2C21.0586 2 21.116 2.00593 21.1719 2.01562C21.2119 2.02259 21.2519 2.0311 21.291 2.04297C21.3401 2.05788 21.387 2.07767 21.4326 2.09961C21.4741 2.11956 21.5147 2.14195 21.5537 2.16797C21.6653 2.24237 21.7611 2.33825 21.8349 2.4502C21.8801 2.51862 21.9148 2.5917 21.9414 2.66699C21.9461 2.68037 21.9519 2.6934 21.956 2.70703C21.9622 2.72732 21.9668 2.74799 21.9717 2.76855C21.9893 2.84293 22 2.92023 22 3V8C22 8.55226 21.5522 8.99996 21 9C20.4477 9 20 8.55228 20 8V5.41406L12.707 12.707C12.3165 13.0975 11.6835 13.0975 11.293 12.707L7.99999 9.41406L2.70702 14.707C2.3165 15.0975 1.68348 15.0975 1.29295 14.707C0.90243 14.3165 0.90243 13.6835 1.29295 13.293L7.29295 7.29297L7.36913 7.22461C7.7619 6.9043 8.34092 6.92687 8.70702 7.29297L12 10.5859L18.5859 4H16C15.4477 4 15 3.55228 15 3C15 2.44772 15.4477 2 16 2H21Z" fill="#E4F2F2"/>
</svg>
