<svg width="24" height="24" viewBox="0 0 24 24" fill="none" xmlns="http://www.w3.org/2000/svg">
<path d="M21.4111 17.2686C21.9142 17.0411 22.5066 17.2648 22.7344 17.7676C22.9416 18.2258 23.0301 18.7291 22.9922 19.2305C22.9541 19.7321 22.7907 20.2169 22.5166 20.6387C22.2425 21.0604 21.8665 21.406 21.4238 21.6446C20.9811 21.883 20.4852 22.007 19.9824 22.0039C19.4304 22.0002 18.9848 21.5492 18.9883 20.9971C18.9921 20.4454 19.4425 20.0009 19.9941 20.0039C20.1617 20.005 20.328 19.9633 20.4756 19.8838C20.623 19.8043 20.7486 19.6893 20.8398 19.5488C20.9312 19.4082 20.9853 19.2463 20.998 19.0791C21.0106 18.9121 20.9811 18.7444 20.9121 18.5918C20.6849 18.0888 20.9083 17.4962 21.4111 17.2686Z" fill="#E4F2F2"/>
<path d="M1.27636 17.7412C1.5081 17.24 2.10323 17.0213 2.60448 17.2529C3.10572 17.4847 3.32349 18.0798 3.09179 18.5811C3.02116 18.7342 2.99097 18.9031 3.00292 19.0713C3.01493 19.2396 3.06938 19.4023 3.16113 19.544C3.25288 19.6855 3.37865 19.8021 3.52734 19.8819C3.67608 19.9616 3.84296 20.002 4.01171 20C4.56393 19.9935 5.01689 20.4361 5.02343 20.9883C5.02987 21.5405 4.58736 21.9935 4.03515 22C3.52892 22.0059 3.02923 21.8837 2.583 21.6446C2.13659 21.4052 1.7578 21.056 1.48241 20.6309C1.2071 20.2058 1.04372 19.7181 1.00781 19.2129C0.971916 18.7077 1.06388 18.201 1.27636 17.7412Z" fill="#E4F2F2"/>
<path d="M9.99999 20C10.5522 20.0001 11 20.4478 11 21C11 21.5522 10.5522 21.9999 9.99999 22H7.99999C7.44771 22 6.99999 21.5523 6.99999 21C7 20.4477 7.44771 20 7.99999 20H9.99999Z" fill="#E4F2F2"/>
<path d="M16 20C16.5522 20.0001 17 20.4478 17 21C17 21.5522 16.5522 21.9999 16 22H14C13.4477 22 13 21.5523 13 21C13 20.4477 13.4477 20 14 20H16Z" fill="#E4F2F2"/>
<path d="M4.26952 12.4522C4.54565 11.9739 5.15746 11.8099 5.63573 12.086C6.11396 12.3621 6.27801 12.9739 6.00195 13.4522L5.00195 15.1846C4.72571 15.6626 4.11391 15.8259 3.63573 15.5498C3.15773 15.2737 2.99382 14.6628 3.26952 14.1846L4.26952 12.4522Z" fill="#E4F2F2"/>
<path d="M18.3486 12.086C18.8269 11.8099 19.4387 11.9739 19.7148 12.4522L20.7148 14.1846C20.9906 14.6628 20.8266 15.2737 20.3486 15.5498C19.8704 15.8258 19.2586 15.6626 18.9824 15.1846L17.9824 13.4522C17.7064 12.9739 17.8705 12.3621 18.3486 12.086Z" fill="#E4F2F2"/>
<path d="M7.23534 7.24318C7.51146 6.76495 8.12329 6.60097 8.60155 6.87697C9.07981 7.1531 9.24384 7.76491 8.96777 8.24318L7.96777 9.97561C7.6915 10.4536 7.0797 10.6169 6.60155 10.3408C6.12365 10.0647 5.95973 9.45373 6.23534 8.97561L7.23534 7.24318Z" fill="#E4F2F2"/>
<path d="M15.374 6.87697C15.8523 6.60101 16.4641 6.76497 16.7402 7.24318L17.7402 8.97561C18.0158 9.45371 17.8519 10.0647 17.374 10.3408C16.8959 10.6169 16.2841 10.4535 16.0078 9.97561L15.0078 8.24318C14.7317 7.76491 14.8958 7.1531 15.374 6.87697Z" fill="#E4F2F2"/>
<path d="M12.0107 2.00002C12.5944 2.00212 13.1651 2.17471 13.6523 2.49611C14.1393 2.81752 14.5224 3.27403 14.7539 3.80959C14.9727 4.31644 14.7392 4.90498 14.2324 5.12404C13.7257 5.34299 13.1373 5.10999 12.918 4.60353C12.8408 4.42505 12.713 4.27219 12.5508 4.16506C12.3885 4.05803 12.1983 4.00079 12.0039 4.00002C11.8093 3.99933 11.6182 4.05516 11.4551 4.16115C11.292 4.26713 11.1634 4.41872 11.085 4.5967C10.8622 5.10177 10.2718 5.33087 9.76659 5.10842C9.26138 4.88571 9.0324 4.29534 9.25488 3.79006C9.49026 3.256 9.87678 2.80234 10.3662 2.48439C10.8557 2.16649 11.4271 1.99795 12.0107 2.00002Z" fill="#E4F2F2"/>
</svg>
