<svg width="24" height="24" viewBox="0 0 24 24" fill="none" xmlns="http://www.w3.org/2000/svg">
<path fill-rule="evenodd" clip-rule="evenodd" d="M12 1.96777C12.5356 1.9678 13.062 2.11185 13.5234 2.38379C13.9806 2.65337 14.358 3.03998 14.6172 3.50293L22.6162 17.499L22.709 17.6738C22.9126 18.0872 23.0185 18.5433 23.0176 19.0059C23.0164 19.5345 22.8756 20.054 22.6094 20.5107C22.3429 20.9676 21.9598 21.3461 21.5 21.6074C21.0429 21.8672 20.5257 22.0012 20 21.998V22H3.99609C3.48181 21.998 2.97837 21.8591 2.53417 21.6006C2.09053 21.3423 1.72104 20.9732 1.45702 20.5332C1.19327 20.0933 1.04084 19.5933 1.01171 19.0811C0.98274 18.5689 1.07699 18.0552 1.28808 17.5879L1.333 17.501L9.3828 3.50098C9.64201 3.03859 10.0198 2.65312 10.4766 2.38379C10.938 2.11175 11.4643 1.96785 12 1.96777ZM3.35253 18L3.10058 18.4375C3.03109 18.602 2.99844 18.7842 3.00878 18.9678C3.01977 19.1611 3.07702 19.3466 3.17187 19.5049C3.2666 19.6627 3.39516 19.7876 3.54003 19.8721C3.68477 19.9563 3.84486 19.9993 4.0039 20H20.0088C20.1849 20.0016 20.3585 19.9561 20.5117 19.8691C20.6649 19.7821 20.793 19.6561 20.8818 19.5039C20.9706 19.3517 21.0172 19.1781 21.0176 19.002C21.0178 18.8698 20.9926 18.7385 20.9424 18.6172L20.8818 18.4961L20.5986 18H3.35253ZM4.50195 16H19.4551L18.3125 14H5.65234L4.50195 16ZM6.80273 12H17.1699L16.0273 10H7.95312L6.80273 12ZM12 3.96777C11.8216 3.96785 11.6459 4.01584 11.4922 4.10645C11.3385 4.19708 11.2114 4.32733 11.125 4.4834C11.1224 4.48809 11.1198 4.49339 11.1172 4.49805L9.10351 8H14.8838L12.8818 4.49609L12.875 4.4834C12.7885 4.32743 12.6614 4.19704 12.5078 4.10645C12.3541 4.01595 12.1784 3.9678 12 3.96777Z" fill="#E4F2F2"/>
</svg>
