<svg width="24" height="24" viewBox="0 0 24 24" fill="none" xmlns="http://www.w3.org/2000/svg">
<path d="M12.0098 16C12.5621 16 13.0098 16.4477 13.0098 17C13.0098 17.5523 12.5621 18 12.0098 18H12C11.4477 18 11 17.5523 11 17C11 16.4477 11.4477 16 12 16H12.0098Z" fill="#E4F2F2"/>
<path d="M12 8C12.5523 8 13 8.44772 13 9V13C13 13.5523 12.5523 14 12 14C11.4477 14 11 13.5523 11 13V9C11 8.44772 11.4477 8 12 8Z" fill="#E4F2F2"/>
<path fill-rule="evenodd" clip-rule="evenodd" d="M11.9902 1.98633C12.5208 1.9864 13.0426 2.12742 13.501 2.39453C13.9581 2.66107 14.3372 3.04387 14.5986 3.50391L22.5967 17.5L22.6895 17.6738C22.8921 18.0851 22.9979 18.5387 22.9981 18.999C22.9981 19.5253 22.8605 20.0431 22.5977 20.499C22.3348 20.9549 21.9555 21.3332 21.5 21.5967C21.0445 21.8601 20.5272 21.9994 20.001 22H4.00001C3.47451 22.0031 2.957 21.8681 2.50001 21.6084C2.0403 21.3471 1.65713 20.9684 1.39063 20.5117C1.1243 20.055 0.983639 19.5355 0.982429 19.0068C0.981281 18.4793 1.11967 17.9611 1.38282 17.5039L9.38184 3.50391C9.64344 3.04359 10.023 2.66111 10.4805 2.39453C10.9388 2.12754 11.4598 1.98636 11.9902 1.98633ZM11.9902 3.98633C11.8136 3.98636 11.64 4.03326 11.4873 4.12207C11.3345 4.21113 11.2073 4.33927 11.1201 4.49316L11.1191 4.49609L3.11915 18.4961L3.11622 18.5C3.02806 18.6527 2.98204 18.8266 2.98243 19.0029C2.98293 19.1789 3.0296 19.3519 3.11817 19.5039C3.207 19.656 3.33513 19.7831 3.48829 19.8701C3.64136 19.957 3.81523 20.0015 3.99122 20H19.999C20.1743 19.9998 20.3473 19.9539 20.499 19.8662C20.6507 19.7784 20.7767 19.6518 20.8643 19.5C20.9519 19.3481 20.9981 19.1754 20.9981 19C20.998 18.8247 20.9519 18.6519 20.8643 18.5L20.8623 18.4961L12.8623 4.49609L12.8604 4.49316C12.7732 4.33948 12.6467 4.2111 12.4941 4.12207C12.3414 4.03308 12.167 3.9864 11.9902 3.98633Z" fill="#E4F2F2"/>
</svg>
