<svg width="24" height="24" viewBox="0 0 24 24" fill="none" xmlns="http://www.w3.org/2000/svg">
<path fill-rule="evenodd" clip-rule="evenodd" d="M19.7861 3.51071C20.3276 3.08964 21.1341 2.70974 21.9365 3.05856C22.7779 3.4246 22.9999 4.3102 23 4.99997V18C22.9999 18.7955 22.6836 19.5595 22.1211 20.122C21.5585 20.6843 20.7954 21 20 21H3C2.64788 21 2.28323 20.9545 1.95801 20.8174C1.62835 20.6783 1.2506 20.401 1.09668 19.914C0.945135 19.4341 1.08933 18.9944 1.26562 18.6933C1.43938 18.3968 1.69373 18.141 1.97168 17.9228L19.7715 3.52243L19.7861 3.51071ZM3.81934 19H20C20.2651 19 20.5195 18.8944 20.707 18.707C20.8944 18.5196 20.9999 18.265 21 18V5.10153L3.81934 19Z" fill="#E4F2F2"/>
</svg>
