<svg width="24" height="24" viewBox="0 0 24 24" fill="none" xmlns="http://www.w3.org/2000/svg">
<path fill-rule="evenodd" clip-rule="evenodd" d="M19 1C19.5272 1 20.0439 1.18058 20.4316 1.56836C20.8194 1.95614 21 2.47275 21 3V20C21 20.7957 20.6837 21.5585 20.1211 22.1211C19.5585 22.6837 18.7957 23 18 23H15C14.5584 23 14.1689 22.7101 14.042 22.2871L12 15.4805L9.95801 22.2871C9.83111 22.7101 9.44161 23 9 23H6C5.20435 23 4.44151 22.6837 3.87891 22.1211C3.3163 21.5585 3 20.7957 3 20V3C3 2.47275 3.18058 1.95614 3.56836 1.56836C3.95614 1.18058 4.47275 1 5 1H19ZM5 20L5.00488 20.0986C5.02757 20.3276 5.12883 20.5429 5.29297 20.707C5.48051 20.8946 5.73478 21 6 21H8.25586L8.85547 19H5V20ZM15.1445 19L15.7441 21H18C18.2652 21 18.5195 20.8946 18.707 20.707C18.8946 20.5195 19 20.2652 19 20V19H15.1445ZM5 10.3818L5.55273 10.1055C6.04671 9.85848 6.64754 10.0588 6.89453 10.5527C7.14152 11.0467 6.94124 11.6475 6.44727 11.8945L5 12.6182V17H9.45605L11.042 11.7129L11.1016 11.5605C11.2671 11.2217 11.6136 11 12 11C12.4416 11 12.8311 11.2899 12.958 11.7129L14.5439 17H19V12.6182L17.5527 11.8945C17.0588 11.6475 16.8585 11.0467 17.1055 10.5527C17.3525 10.0588 17.9533 9.85848 18.4473 10.1055L19 10.3818V7H16V8.5C16 9.05229 15.5523 9.5 15 9.5C14.4477 9.5 14 9.05229 14 8.5V7H10V8.5C10 9.05229 9.55228 9.5 9 9.5C8.44772 9.5 8 9.05229 8 8.5V7H5V10.3818ZM5 5H19V3H5V5Z" fill="#E4F2F2"/>
</svg>
