<svg width="24" height="24" viewBox="0 0 24 24" fill="none" xmlns="http://www.w3.org/2000/svg">
<path fill-rule="evenodd" clip-rule="evenodd" d="M11.9995 3.99998C12.7951 3.99998 13.558 4.31632 14.1206 4.87888C14.6832 5.44149 14.9995 6.20433 14.9995 6.99998V7.99998H17.5239L17.7485 8.01365C17.9711 8.03983 18.1887 8.10353 18.3911 8.20212C18.6592 8.33277 18.895 8.52151 19.0806 8.75486L22.5591 13.1045L22.6597 13.2402C22.8783 13.5656 22.9971 13.9493 22.9995 14.3437V18C22.9995 18.5304 22.7886 19.039 22.4136 19.414C22.0385 19.789 21.5298 20 20.9995 20H19.8257C19.4135 21.1646 18.3053 22 16.9995 22C15.6939 21.9999 14.5865 21.1644 14.1743 20H9.82568C9.41352 21.1646 8.30529 22 6.99951 22C5.6939 21.9999 4.58649 21.1644 4.17432 20H2.99951C2.46918 19.9999 1.96046 19.789 1.58545 19.414C1.21046 19.039 0.999543 18.5303 0.999511 18V13C0.999511 12.4478 1.44736 12.0001 1.99951 12C2.5518 12 2.99951 12.4477 2.99951 13V18H4.17432C4.58643 16.8354 5.69382 16.0001 6.99951 16C8.30537 16 9.41358 16.8353 9.82568 18H12.9995V6.99998C12.9995 6.73476 12.8941 6.48048 12.7065 6.29294C12.5424 6.12885 12.3271 6.02754 12.0981 6.00486L11.9995 5.99998H8.99951C8.4474 5.99982 7.99958 5.55211 7.99951 4.99998C7.99951 4.44779 8.44736 4.00013 8.99951 3.99998H11.9995ZM6.99951 18C6.44736 18.0001 5.99951 18.4478 5.99951 19C5.99958 19.5521 6.4474 19.9998 6.99951 20C7.55176 20 7.99945 19.5522 7.99951 19C7.99951 18.4477 7.5518 18 6.99951 18ZM16.9995 18C16.4474 18.0001 15.9995 18.4478 15.9995 19C15.9996 19.5521 16.4474 19.9998 16.9995 20C17.5518 20 17.9994 19.5522 17.9995 19C17.9995 18.4477 17.5518 18 16.9995 18ZM14.9995 16.7676C15.5304 16.2915 16.2303 16 16.9995 16C18.3054 16 19.4136 16.8353 19.8257 18H20.9995V14.3554L20.9985 14.3545L17.5151 9.99998H14.9995V16.7676Z" fill="#E4F2F2"/>
<path d="M3.2417 2.34763C3.60193 1.92906 4.23324 1.88196 4.65185 2.24216C5.07044 2.60239 5.11753 3.2337 4.75732 3.65232L3.58935 5.00974H4.57178C4.82304 4.97785 5.07833 5.01145 5.31299 5.1074L5.43213 5.16208L5.54541 5.22654C5.76563 5.36647 5.94457 5.56289 6.06396 5.7949L6.11865 5.91306L6.1626 6.03708C6.25159 6.32772 6.24828 6.64012 6.15185 6.93064C6.06122 7.20353 5.89173 7.44122 5.66846 7.61814L3.73193 9.70115C3.35576 10.1054 2.72318 10.128 2.31885 9.75193C1.91457 9.37586 1.89122 8.74323 2.26709 8.33884L3.50342 7.00974H2.49951C2.20537 7.01282 1.91652 6.92903 1.66943 6.76853C1.41347 6.60221 1.21426 6.36178 1.09912 6.07908C0.984012 5.79624 0.957805 5.4844 1.0249 5.1865L1.05518 5.07615C1.1256 4.847 1.25008 4.63789 1.41846 4.46677L3.2417 2.34763Z" fill="#E4F2F2"/>
</svg>
