<svg width="24" height="24" viewBox="0 0 24 24" fill="none" xmlns="http://www.w3.org/2000/svg">
<path d="M8.99951 2C9.5518 2 9.99951 2.44772 9.99951 3V5.38184L14.5522 3.10547C15.0462 2.8585 15.647 3.05885 15.894 3.55273C16.141 4.04671 15.9408 4.64754 15.4468 4.89453L9.99951 7.61816V9.88184L14.5522 7.60547C15.0462 7.3585 15.647 7.55885 15.894 8.05273C16.141 8.54671 15.9408 9.14754 15.4468 9.39453L9.99951 12.1182V19.9346C11.7523 19.7137 13.3942 18.9197 14.6567 17.6572C16.157 16.1569 16.9995 14.1217 16.9995 12C16.9995 11.4478 17.4474 11.0002 17.9995 11C18.5518 11 18.9995 11.4477 18.9995 12C18.9995 14.6522 17.9462 17.1959 16.0708 19.0713C14.1955 20.9466 11.6516 22 8.99951 22C8.73441 21.9999 8.47994 21.8945 8.29248 21.707C8.10504 21.5195 7.99951 21.2651 7.99951 21V13.1182L5.44678 14.3945C4.95285 14.6413 4.35193 14.4412 4.10498 13.9473C3.85813 13.4534 4.05849 12.8525 4.55225 12.6055L7.99951 10.8818V8.61816L5.44678 9.89453C4.95285 10.1413 4.35193 9.94116 4.10498 9.44727C3.85813 8.95339 4.05849 8.35251 4.55225 8.10547L7.99951 6.38184V3C7.99951 2.44782 8.44737 2.00017 8.99951 2Z" fill="#E4F2F2"/>
</svg>
