<svg width="24" height="24" viewBox="0 0 24 24" fill="none" xmlns="http://www.w3.org/2000/svg">
<path fill-rule="evenodd" clip-rule="evenodd" d="M6 2C6.55214 2.00017 7 2.44782 7 3C7 3.55218 6.55214 3.99983 6 4H5.0166L4.88672 4.01074C4.75835 4.02963 4.63379 4.07304 4.52148 4.13965C4.37183 4.22852 4.24794 4.35542 4.16211 4.50684C4.07627 4.65836 4.03151 4.82976 4.03223 5.00391C4.03295 5.17662 4.07836 5.3462 4.16406 5.49609C5.91486 8.49746 8.09054 12.2489 9.82812 15.249C10.6969 16.749 11.4568 18.0615 11.999 18.999L12.001 19.0029C14.6057 14.4984 17.2159 9.99682 19.834 5.5C19.921 5.34921 19.968 5.17803 19.9688 5.00391C19.9695 4.82986 19.9246 4.65829 19.8389 4.50684C19.753 4.35536 19.6282 4.22855 19.4785 4.13965C19.3664 4.07316 19.2424 4.02968 19.1143 4.01074L18.9844 4H18C17.4479 3.99983 17 3.55218 17 3C17 2.44782 17.4479 2.00017 18 2H19.0166C19.5388 2.00844 20.0499 2.15344 20.499 2.41992C20.9482 2.68656 21.3205 3.06606 21.5781 3.52051C21.7826 3.88136 21.9075 4.28013 21.9502 4.69043C21.982 4.78799 22 4.89185 22 5V19C22 19.7957 21.6837 20.5585 21.1211 21.1211C20.5585 21.6837 19.7957 22 19 22H5C4.20435 22 3.44151 21.6837 2.87891 21.1211C2.3163 20.5585 2 19.7957 2 19V5C2 4.89195 2.01713 4.7879 2.04883 4.69043C2.09131 4.28003 2.21735 3.88144 2.42188 3.52051C2.67948 3.06597 3.0517 2.68659 3.50098 2.41992C3.95033 2.1533 4.46194 2.00833 4.98438 2H6ZM20 9.19434C17.9073 12.7938 15.8186 16.3956 13.7344 20H19C19.2652 20 19.5195 19.8946 19.707 19.707C19.8946 19.5195 20 19.2652 20 19V9.19434ZM4 19C4 19.2652 4.10543 19.5195 4.29297 19.707C4.48051 19.8946 4.73478 20 5 20H10.2666C9.72455 19.0627 8.96593 17.7502 8.09766 16.251C6.85094 14.0984 5.37824 11.5604 4 9.19043V19Z" fill="#E4F2F2"/>
<path d="M12.0098 12C12.5621 12 13.0098 12.4477 13.0098 13C13.0098 13.5523 12.5621 14 12.0098 14H12C11.4477 14 11 13.5523 11 13C11 12.4477 11.4477 12 12 12H12.0098Z" fill="#E4F2F2"/>
<path d="M12.0098 8C12.5621 8 13.0098 8.44772 13.0098 9C13.0098 9.55228 12.5621 10 12.0098 10H12C11.4477 10 11 9.55228 11 9C11 8.44772 11.4477 8 12 8H12.0098Z" fill="#E4F2F2"/>
<path d="M13.5527 2.10547C13.8626 1.95051 14.2306 1.96733 14.5254 2.14941C14.8202 2.33162 15 2.65342 15 3V5L14.9922 5.12891C14.9537 5.42508 14.7833 5.6912 14.5254 5.85059C14.2306 6.03267 13.8626 6.04949 13.5527 5.89453L12 5.11816L10.4473 5.89453C10.1374 6.04949 9.76939 6.03267 9.47461 5.85059C9.17979 5.66838 9 5.34658 9 5V3C9 2.65342 9.17979 2.33162 9.47461 2.14941C9.76939 1.96733 10.1374 1.95051 10.4473 2.10547L12 2.88184L13.5527 2.10547Z" fill="#E4F2F2"/>
</svg>
