<svg width="24" height="24" viewBox="0 0 24 24" fill="none" xmlns="http://www.w3.org/2000/svg">
<path fill-rule="evenodd" clip-rule="evenodd" d="M16.293 1.29295C16.6835 0.90243 17.3165 0.90243 17.707 1.29295C18.0975 1.68348 18.0975 2.3165 17.707 2.70702L14.4141 5.99999H20C21.6569 5.99999 23 7.34313 23 8.99999V20C23 21.6568 21.6568 23 20 23H4C2.34317 23 1.00004 21.6568 1 20V8.99999C1 7.34313 2.34315 5.99999 4 5.99999H9.58594L6.29297 2.70702C5.90246 2.3165 5.90248 1.68348 6.29297 1.29295C6.68349 0.90243 7.31651 0.90243 7.70703 1.29295L12 5.58592L16.293 1.29295ZM4 7.99999C3.44772 7.99999 3 8.4477 3 8.99999V20C3.00004 20.5522 3.44774 21 4 21H20C20.5523 21 21 20.5522 21 20V8.99999C21 8.4477 20.5523 7.99999 20 7.99999H4Z" fill="#E4F2F2"/>
</svg>
