<svg width="24" height="24" viewBox="0 0 24 24" fill="none" xmlns="http://www.w3.org/2000/svg">
<path d="M11 6C11.5523 6 12 6.44772 12 7V11C12 11.5523 11.5523 12 11 12C10.4477 12 10 11.5523 10 11V7C10 6.44772 10.4477 6 11 6Z" fill="#E4F2F2"/>
<path d="M16 6C16.5523 6 17 6.44772 17 7V11C17 11.5523 16.5523 12 16 12C15.4477 12 15 11.5523 15 11V7C15 6.44772 15.4477 6 16 6Z" fill="#E4F2F2"/>
<path fill-rule="evenodd" clip-rule="evenodd" d="M21 1C21.5523 1 22 1.44772 22 2V14C22 14.2652 21.8946 14.5195 21.707 14.707L17.707 18.707C17.5195 18.8946 17.2652 19 17 19H12.4141L8.70703 22.707C8.42103 22.993 7.99086 23.0786 7.61719 22.9238C7.24359 22.769 7 22.4044 7 22V19H3C2.44772 19 2 18.5523 2 18V2C2 1.44772 2.44772 1 3 1H21ZM4 17H8C8.55228 17 9 17.4477 9 18V19.5859L11.293 17.293L11.3662 17.2266C11.5442 17.0807 11.7679 17 12 17H16.5859L20 13.5859V3H4V17Z" fill="#E4F2F2"/>
</svg>
