<svg width="24" height="24" viewBox="0 0 24 24" fill="none" xmlns="http://www.w3.org/2000/svg">
<path fill-rule="evenodd" clip-rule="evenodd" d="M13.5757 3.58792C15.2928 2.69335 17.5329 2.74908 19.312 4.15139C19.3989 4.1304 19.4998 4.10366 19.6128 4.06545C19.8908 3.97146 20.19 3.84087 20.4732 3.70217C20.7539 3.56467 21.0054 3.42592 21.187 3.32131C21.2774 3.26927 21.3496 3.22568 21.398 3.19631C21.4221 3.18166 21.441 3.17031 21.4527 3.16311C21.4582 3.15969 21.462 3.15676 21.4644 3.1553H21.4663C21.8237 2.92964 22.285 2.95224 22.6177 3.21292C22.9083 3.44098 23.0462 3.8077 22.9868 4.16409L22.9487 4.31643V4.31838L22.9478 4.32034C22.9471 4.32228 22.9458 4.32529 22.9448 4.32815C22.9429 4.33401 22.9403 4.34204 22.937 4.35159C22.9302 4.37117 22.921 4.39865 22.9087 4.43264C22.8839 4.50111 22.8472 4.5983 22.8003 4.71682C22.7066 4.95349 22.5677 5.28164 22.3853 5.65335C22.0844 6.26619 21.6406 7.04097 21.0552 7.72561C22.3654 18.3178 10.6495 25.9324 1.44777 19.834C1.07309 19.5857 0.910987 19.1168 1.05031 18.6895C1.18986 18.2625 1.59668 17.9808 2.04543 18.001C3.40614 18.0628 4.75301 17.7802 5.91261 17.2002C1.55152 14.7939 -0.367033 9.10185 2.1216 4.52249C2.27922 4.23246 2.57057 4.03859 2.89894 4.00491C3.22705 3.97151 3.55112 4.10273 3.76418 4.35452C5.53291 6.44442 8.16539 7.75823 10.8921 7.97268C10.9031 5.97983 12.0245 4.39611 13.5757 3.58792ZM18.3179 5.93069C17.1479 4.83898 15.6368 4.77046 14.5005 5.36233C13.3858 5.94309 12.6286 7.15845 12.978 8.79006C13.0401 9.08014 12.9707 9.38377 12.7876 9.61721C12.6045 9.85066 12.3264 9.99122 12.0298 10C8.85442 10.0934 5.68558 8.90699 3.33449 6.77835C2.17477 10.5587 4.34505 14.8591 8.28761 16.042C8.63595 16.1467 8.90091 16.4326 8.97804 16.7881C9.05495 17.1435 8.9324 17.5135 8.65871 17.753C7.72753 18.5676 6.62514 19.1647 5.44484 19.5401C12.6553 21.7439 20.3029 15.6199 19.0132 7.55764C18.9627 7.24122 19.067 6.92003 19.2935 6.69338C19.4752 6.51162 19.6444 6.30516 19.8032 6.08889C19.5444 6.15264 19.2707 6.20019 19.0005 6.20022C18.7474 6.20022 18.503 6.10332 18.3179 5.93069Z" fill="#E4F2F2"/>
</svg>
