<svg width="24" height="24" viewBox="0 0 24 24" fill="none" xmlns="http://www.w3.org/2000/svg">
<path d="M12.0098 13C12.5621 13 13.0098 13.4477 13.0098 14C13.0098 14.5523 12.5621 15 12.0098 15H12C11.4477 15 11 14.5523 11 14C11 13.4477 11.4477 13 12 13H12.0098Z" fill="#E4F2F2"/>
<path d="M7.00977 12C7.56205 12 8.00977 12.4477 8.00977 13C8.00977 13.5523 7.56205 14 7.00977 14H7C6.44772 14 6 13.5523 6 13C6 12.4477 6.44772 12 7 12H7.00977Z" fill="#E4F2F2"/>
<path d="M17.0098 12C17.562 12 18.0098 12.4477 18.0098 13C18.0098 13.5523 17.562 14 17.0098 14H17C16.4477 14 16 13.5523 16 13C16 12.4477 16.4477 12 17 12H17.0098Z" fill="#E4F2F2"/>
<path fill-rule="evenodd" clip-rule="evenodd" d="M12.3467 1.00879C14.077 1.09452 15.7194 1.819 16.9502 3.0498C18.1313 4.23091 18.844 5.79119 18.9756 7.44434C21.211 8.52111 22.9998 10.2628 23 12.5C22.9998 14.5367 21.4896 16.1775 19.5459 17.25C18.6171 17.7624 17.5372 18.1769 16.3555 18.4746L17.8945 21.5527C18.1415 22.0467 17.9412 22.6475 17.4473 22.8945C16.9533 23.1415 16.3525 22.9412 16.1055 22.4473L14.3096 18.8564C13.5622 18.9498 12.7893 19 12 19C11.2104 19 10.4371 18.9499 9.68945 18.8564L7.89453 22.4473C7.64754 22.9412 7.04671 23.1415 6.55273 22.8945C6.05876 22.6475 5.85848 22.0467 6.10547 21.5527L7.64355 18.4746C6.4622 18.1769 5.38267 17.7623 4.4541 17.25C2.51041 16.1775 1.00019 14.5367 1 12.5C1.00021 10.263 2.78836 8.52114 5.02344 7.44434C5.15499 5.7912 5.86868 4.23093 7.0498 3.0498C8.36256 1.73705 10.1435 1 12 1L12.3467 1.00879ZM18.3145 9.34766C18.2284 9.42342 18.1445 9.49134 18.0654 9.54785C17.6253 9.86226 17.0538 10.1191 16.4414 10.3232C15.2062 10.735 13.5984 11 12 11C10.4016 11 8.79379 10.735 7.55859 10.3232C6.94625 10.1191 6.37474 9.86226 5.93457 9.54785C5.85529 9.49122 5.77079 9.42363 5.68457 9.34766C3.86726 10.2714 3.00022 11.4579 3 12.5C3.0002 13.4628 3.74029 14.5717 5.4209 15.499C7.06118 16.4039 9.389 17 12 17C14.611 17 16.9388 16.4039 18.5791 15.499C20.2597 14.5717 20.9998 13.4628 21 12.5C20.9998 11.4578 20.1323 10.2714 18.3145 9.34766ZM11.752 3.00586C10.5162 3.06719 9.3439 3.58579 8.46484 4.46484C7.56406 5.36563 7.04258 6.57437 7.00293 7.84375C7.02563 7.86357 7.05473 7.89093 7.09668 7.9209C7.31269 8.07519 7.67886 8.25591 8.19141 8.42676C9.20618 8.76497 10.5986 9 12 9C13.4014 9 14.7938 8.76497 15.8086 8.42676C16.3211 8.25591 16.6873 8.07519 16.9033 7.9209C16.9449 7.89118 16.9734 7.86349 16.9961 7.84375C16.9564 6.57438 16.4359 5.36562 15.5352 4.46484C14.5975 3.52716 13.3261 3 12 3L11.752 3.00586Z" fill="#E4F2F2"/>
</svg>
