<svg width="24" height="24" viewBox="0 0 24 24" fill="none" xmlns="http://www.w3.org/2000/svg">
<path fill-rule="evenodd" clip-rule="evenodd" d="M1.29295 1.29297C1.68348 0.902482 2.3165 0.902457 2.70702 1.29297L6.61815 5.2041C6.65179 5.23353 6.68384 5.26533 6.71385 5.2998L22.707 21.293C23.0975 21.6835 23.0975 22.3165 22.707 22.707C22.3165 23.0975 21.6835 23.0975 21.293 22.707L13 14.4141V20C13 20.2652 13.1054 20.5195 13.293 20.707C13.4805 20.8945 13.7348 21 14 21C14.2652 21 14.5195 20.8946 14.707 20.707C14.8945 20.5195 15 20.2652 15 20C15 19.4477 15.4477 19 16 19C16.5522 19 17 19.4477 17 20C17 20.7956 16.6837 21.5585 16.1211 22.1211C15.5585 22.6837 14.7956 23 14 23C13.2044 23 12.4415 22.6837 11.8789 22.1211C11.3163 21.5585 11 20.7957 11 20V14H2.99999C2.69082 13.9998 2.38508 13.928 2.10838 13.79C1.83165 13.652 1.59053 13.451 1.40428 13.2041C1.21812 12.9572 1.09183 12.6702 1.03514 12.3662C0.980111 12.0708 0.993731 11.7674 1.07225 11.4775H1.0703C1.62619 9.30878 2.81371 7.36499 4.46776 5.88184L1.29295 2.70703C0.90243 2.31651 0.90243 1.68349 1.29295 1.29297ZM5.88377 7.29785C4.48044 8.52682 3.47418 10.155 3.0078 11.9746C3.00562 11.9831 3.00336 11.9916 3.00096 12H10.5859L5.88377 7.29785Z" fill="#E4F2F2"/>
<path d="M12 1C12.5522 1.00004 13 1.44774 13 2V3.04395C14.7456 3.19916 16.4469 3.75837 17.9609 4.7002C20.4278 6.23509 22.2086 8.66332 22.9306 11.4775H22.9287C23.0075 11.7687 23.0208 12.0744 22.9648 12.3711C22.9071 12.6763 22.779 12.9638 22.5908 13.2109C22.4026 13.4581 22.1597 13.6581 21.8808 13.7949C21.6041 13.9306 21.2993 14.0004 20.9912 13.999L18.6553 14C18.1034 13.9996 17.6555 13.5519 17.6553 13C17.6555 12.4481 18.1034 12.0004 18.6553 12H21C20.9976 11.9916 20.9953 11.982 20.9931 11.9736C20.399 9.65854 18.9346 7.66121 16.9053 6.39844C15.4245 5.47721 13.7258 5.00022 12.0068 4.99902C12.0045 4.99904 12.0023 5 12 5C11.9958 5 11.9915 4.99908 11.9873 4.99902C11.3566 4.99991 10.7229 5.06315 10.0967 5.19434C9.5563 5.30741 9.02643 4.9612 8.91307 4.4209C8.80015 3.88063 9.14632 3.35067 9.68651 3.2373C10.1221 3.14606 10.561 3.08403 11 3.04492V2C11 1.44772 11.4477 1 12 1Z" fill="#E4F2F2"/>
</svg>
