<svg width="24" height="24" viewBox="0 0 24 24" fill="none" xmlns="http://www.w3.org/2000/svg">
<path fill-rule="evenodd" clip-rule="evenodd" d="M12 1C12.5523 1 13 1.44772 13 2V3.04199C15.1476 3.23301 17.2035 4.03603 18.918 5.36621C20.8967 6.90153 22.3083 9.05158 22.9307 11.4775H22.9287C23.0076 11.7689 23.0218 12.0743 22.9658 12.3711C22.9081 12.6764 22.78 12.9647 22.5918 13.2119C22.4036 13.459 22.1598 13.6591 21.8809 13.7959C21.6043 13.9314 21.3001 14.0003 20.9922 13.999L13 14V20C13 20.2652 13.1055 20.5195 13.293 20.707C13.4805 20.8945 13.7348 21 14 21C14.2652 21 14.5195 20.8945 14.707 20.707C14.8946 20.5195 15 20.2652 15 20C15 19.4478 15.4478 19.0001 16 19C16.5523 19 17 19.4477 17 20C17 20.7957 16.6837 21.5585 16.1211 22.1211C15.5585 22.6837 14.7956 23 14 23C13.2044 23 12.4415 22.6837 11.8789 22.1211C11.3163 21.5585 11 20.7956 11 20V14H2.99999C2.69077 13.9998 2.38513 13.928 2.10839 13.79C1.83159 13.652 1.59056 13.451 1.40429 13.2041C1.21808 12.9572 1.09184 12.6702 1.03515 12.3662C0.980119 12.0708 0.993777 11.7674 1.07226 11.4775H1.07031C1.69265 9.05149 3.10513 6.90154 5.08398 5.36621C6.79801 4.0364 8.85306 3.23324 11 3.04199V2C11 1.44775 11.4478 1.00006 12 1ZM12 5C11.9856 5 11.9713 4.99768 11.957 4.99707C9.91179 5.00672 7.92616 5.69209 6.30956 6.94629C4.68158 8.20947 3.51983 9.97866 3.00781 11.9746L3.00097 12H21.001C20.9986 11.9916 20.9953 11.9831 20.9932 11.9746C20.4811 9.97854 19.3195 8.2095 17.6914 6.94629C16.0744 5.69176 14.0887 5.0064 12.043 4.99707C12.0287 4.99767 12.0144 5 12 5Z" fill="#E4F2F2"/>
</svg>
