<svg width="24" height="24" viewBox="0 0 24 24" fill="none" xmlns="http://www.w3.org/2000/svg">
<path d="M17 16C17.5523 16 18 16.4477 18 17C18 17.5523 17.5523 18 17 18H7C6.44772 18 6 17.5523 6 17C6 16.4477 6.44772 16 7 16H17Z" fill="#E4F2F2"/>
<path d="M15 6C15.5523 6 16 6.44772 16 7V10C16 11.0609 15.5783 12.078 14.8281 12.8281C14.078 13.5783 13.0609 14 12 14C10.9391 14 9.92202 13.5783 9.17188 12.8281C8.42173 12.078 8 11.0609 8 10V7C8 6.44772 8.44772 6 9 6C9.55228 6 10 6.44772 10 7V10C10 10.5304 10.2109 11.039 10.5859 11.4141C10.961 11.7891 11.4696 12 12 12C12.5304 12 13.039 11.7891 13.4141 11.4141C13.7891 11.039 14 10.5304 14 10V7C14 6.44772 14.4477 6 15 6Z" fill="#E4F2F2"/>
<path fill-rule="evenodd" clip-rule="evenodd" d="M19 2C20.6569 2 22 3.34315 22 5V19C22 20.6569 20.6569 22 19 22H5C3.34315 22 2 20.6569 2 19V5C2 3.34315 3.34315 2 5 2H19ZM5 4C4.44772 4 4 4.44772 4 5V19C4 19.5523 4.44772 20 5 20H19C19.5523 20 20 19.5523 20 19V5C20 4.44772 19.5523 4 19 4H5Z" fill="#E4F2F2"/>
</svg>
