<svg width="24" height="24" viewBox="0 0 24 24" fill="none" xmlns="http://www.w3.org/2000/svg">
<path d="M8.29297 3.29295C8.68349 2.90243 9.31651 2.90243 9.70703 3.29295C10.0975 3.68348 10.0975 4.3165 9.70703 4.70702L6.41406 7.99999H14.5C15.3536 7.99999 16.1987 8.16845 16.9873 8.4951C17.7759 8.82176 18.4931 9.29973 19.0967 9.90331C19.7002 10.5069 20.1782 11.2241 20.5049 12.0127C20.8315 12.8013 21 13.6464 21 14.5L20.9922 14.8193C20.9556 15.5638 20.7907 16.2972 20.5049 16.9873C20.1782 17.7759 19.7002 18.4931 19.0967 19.0967C18.4931 19.7002 17.7759 20.1782 16.9873 20.5049C16.1987 20.8315 15.3536 21 14.5 21H11C10.4477 21 10 20.5522 10 20C10 19.4477 10.4477 19 11 19H14.5C15.0908 19 15.6758 18.8833 16.2217 18.6572C16.7676 18.4311 17.2638 18.0995 17.6816 17.6816C18.0995 17.2638 18.4311 16.7676 18.6572 16.2217C18.855 15.7442 18.9687 15.2368 18.9941 14.7217L19 14.5C19 13.9092 18.8833 13.3242 18.6572 12.7783C18.4311 12.2324 18.0995 11.7362 17.6816 11.3183C17.2638 10.9005 16.7676 10.5689 16.2217 10.3428C15.6758 10.1167 15.0909 9.99999 14.5 9.99999H6.41406L9.70703 13.293C10.0975 13.6835 10.0975 14.3165 9.70703 14.707C9.31652 15.0975 8.68348 15.0975 8.29297 14.707L3.29297 9.70702C3.24631 9.66036 3.20472 9.6088 3.16797 9.5537C3.14195 9.51471 3.11956 9.47411 3.09961 9.4326C3.07767 9.38703 3.05788 9.3401 3.04297 9.291C3.0379 9.27428 3.03445 9.25714 3.03027 9.24022C3.01125 9.16318 3.00001 9.0829 3 8.99999C3 8.9199 3.01054 8.84221 3.02832 8.76756C3.03312 8.7474 3.0369 8.72691 3.04297 8.70702C3.05787 8.65827 3.07777 8.61166 3.09961 8.56639C3.11133 8.54205 3.12486 8.51862 3.13867 8.4951C3.18194 8.42143 3.23294 8.35299 3.29297 8.29295L8.29297 3.29295Z" fill="#E4F2F2"/>
</svg>
