<svg width="24" height="24" viewBox="0 0 24 24" fill="none" xmlns="http://www.w3.org/2000/svg">
<path fill-rule="evenodd" clip-rule="evenodd" d="M9.29295 10.293C9.68348 9.90243 10.3165 9.90243 10.707 10.293C11.0975 10.6835 11.0975 11.3165 10.707 11.707L8.91405 13.5L10.5 15.0859L12.293 13.293C12.6835 12.9024 13.3165 12.9024 13.707 13.293C14.0975 13.6835 14.0975 14.3165 13.707 14.707L11.914 16.5L12.707 17.293C12.8945 17.4805 13 17.7348 13 18C13 18.2652 12.8945 18.5195 12.707 18.707L10.4072 21.0068C10.0916 21.3233 9.71649 21.5747 9.3037 21.7461C8.89051 21.9176 8.44736 22.0058 7.99999 22.0058C7.5526 22.0058 7.10947 21.9176 6.69627 21.7461C6.28348 21.5747 5.9084 21.3233 5.59276 21.0068L4.99999 20.414L2.70702 22.707C2.31652 23.0975 1.68348 23.0975 1.29295 22.707C0.90243 22.3165 0.90243 21.6835 1.29295 21.293L3.58592 19L2.99315 18.4072L2.99413 18.4062C2.67768 18.0906 2.42531 17.7165 2.25389 17.3037C2.10385 16.9423 2.01733 16.558 1.99803 16.168L1.99413 16C1.99413 15.5526 2.08234 15.1095 2.25389 14.6963C2.42548 14.283 2.67719 13.9076 2.99413 13.5918L5.29295 11.293L5.3662 11.2265C5.54414 11.0807 5.76791 11 5.99999 11C6.26516 11 6.51951 11.1055 6.70702 11.293L7.49999 12.0859L9.29295 10.293ZM4.40721 15.0068L4.40624 15.0088C4.27583 15.1387 4.1722 15.2929 4.10155 15.4629C4.03089 15.633 3.99413 15.8157 3.99413 16L4.00096 16.1377C4.01451 16.2747 4.04856 16.4095 4.10155 16.5371C4.15455 16.6646 4.22601 16.7834 4.31346 16.8896L4.40624 16.9912L4.40721 16.9931L7.00682 19.5928L7.00877 19.5937C7.13872 19.7241 7.2929 19.8278 7.46288 19.8984C7.633 19.969 7.81578 20.0058 7.99999 20.0058C8.18421 20.0058 8.36696 19.9691 8.5371 19.8984C8.70712 19.8278 8.86221 19.7242 8.99217 19.5937L10.5859 18L5.99999 13.414L4.40721 15.0068Z" fill="#E4F2F2"/>
<path fill-rule="evenodd" clip-rule="evenodd" d="M21.293 1.29295C21.6835 0.90243 22.3165 0.90243 22.707 1.29295C23.0975 1.68348 23.0975 2.31652 22.707 2.70702L20.414 4.99999L21.0058 5.59178L21.1221 5.71288C21.3848 6.00191 21.596 6.33478 21.7461 6.69627C21.9176 7.10947 22.0058 7.5526 22.0058 7.99999C22.0058 8.44736 21.9176 8.89051 21.7461 9.3037C21.5747 9.71649 21.3223 10.0906 21.0058 10.4062L21.0068 10.4072L18.707 12.707C18.5195 12.8945 18.2652 13 18 13C17.7348 13 17.4805 12.8945 17.293 12.707L11.293 6.70702C11.1055 6.51951 11 6.26516 11 5.99999C11 5.73479 11.1054 5.48048 11.293 5.29295L13.5928 2.99315C13.9084 2.67667 14.2835 2.42531 14.6963 2.25389C15.1095 2.08234 15.5526 1.99413 16 1.99413C16.4474 1.99414 16.8905 2.08235 17.3037 2.25389C17.7165 2.42531 18.0916 2.6767 18.4072 2.99315L19 3.58592L21.293 1.29295ZM16 3.99413C15.8157 3.99413 15.633 4.03089 15.4629 4.10155C15.2929 4.1722 15.1387 4.27583 15.0088 4.40624L15.0068 4.40721L13.414 5.99999L18 10.5859L19.5928 8.99315L19.5937 8.9912C19.7241 8.86124 19.8278 8.70709 19.8984 8.5371C19.9691 8.36696 20.0058 8.18421 20.0058 7.99999C20.0058 7.81578 19.969 7.633 19.8984 7.46288C19.8278 7.2929 19.7241 7.13872 19.5937 7.00877L19.5928 7.00682L16.9931 4.40721L16.9912 4.40624C16.8613 4.27586 16.7071 4.17219 16.5371 4.10155C16.3669 4.0309 16.1842 3.99414 16 3.99413Z" fill="#E4F2F2"/>
</svg>
