<svg width="24" height="24" viewBox="0 0 24 24" fill="none" xmlns="http://www.w3.org/2000/svg">
<path d="M20.6836 2.05178C21.0429 1.93201 21.4392 2.02516 21.707 2.29299C21.9747 2.56082 22.068 2.95717 21.9482 3.31643L20.9482 6.31643C20.8385 6.64493 20.5666 6.89408 20.2295 6.97366C19.8924 7.05309 19.5379 6.9519 19.293 6.70706L18.999 6.41311L11.7783 13.6338L14.7588 14.8262L17.1162 12.4688C16.9155 12.0909 16.9747 11.6114 17.293 11.293L18.293 10.293L18.3691 10.2246C18.7619 9.90428 19.3409 9.92688 19.707 10.293L20.707 11.293C21.0974 11.6835 21.0975 12.3166 20.707 12.7071L19.707 13.7071C19.3885 14.0254 18.9092 14.0829 18.5312 13.8819L15.707 16.7071C15.4243 16.9897 15.0001 17.077 14.6289 16.9287L10.2393 15.1729L5.92969 19.4834C5.9737 19.6483 6 19.8212 6 20C5.99982 21.1044 5.10446 22 4 22C2.89554 22 2.00018 21.1044 2 20C2 18.8955 2.89543 18 4 18C4.17852 18 4.35093 18.0255 4.51562 18.0694L5.82617 16.7578L4.07129 12.3711C3.92372 12.0021 4.0091 11.5809 4.28809 11.2979L8.05859 7.47268C8.02176 7.32098 8.00003 7.16305 8 7.00003C8 5.89546 8.89543 5.00003 10 5.00003C11.1046 5.00003 12 5.89546 12 7.00003C11.9998 8.10444 11.1045 9.00003 10 9.00003C9.80596 9.00003 9.61882 8.97052 9.44141 8.91897L6.1709 12.2354L7.36426 15.2188L17.585 4.99905L17.293 4.70706C17.0481 4.46215 16.947 4.10764 17.0264 3.77053C17.106 3.43336 17.355 3.16147 17.6836 3.05178L20.6836 2.05178Z" fill="#E4F2F2"/>
</svg>
