<svg width="24" height="24" viewBox="0 0 24 24" fill="none" xmlns="http://www.w3.org/2000/svg">
<path d="M19 15C19.5523 15 20 15.4477 20 16V18H22C22.5523 18 23 18.4477 23 19C23 19.5523 22.5523 20 22 20H20V22C20 22.5523 19.5523 23 19 23C18.4477 23 18 22.5523 18 22V20H16C15.4477 20 15 19.5523 15 19C15 18.4477 15.4477 18 16 18H18V16C18 15.4477 18.4477 15 19 15Z" fill="#E4F2F2"/>
<path fill-rule="evenodd" clip-rule="evenodd" d="M10 2C13.3137 2 16 4.68629 16 8C16 9.94549 15.0729 11.6732 13.6377 12.7695C14.4764 13.1403 15.2583 13.6381 15.9531 14.251C16.3671 14.6163 16.4073 15.248 16.042 15.6621C15.6767 16.0759 15.0449 16.115 14.6309 15.75C13.6206 14.8589 12.3741 14.2787 11.042 14.0781C9.70979 13.8776 8.34803 14.0658 7.12012 14.6201C5.89228 15.1744 4.84992 16.0714 4.11914 17.2031C3.38869 18.3346 3 19.6532 3 21C2.99979 21.5521 2.55214 22 2 22C1.44805 22 1.00053 21.5528 1 21.001C0.999905 19.269 1.50002 17.5732 2.43945 16.1182C3.37899 14.6631 4.71829 13.5095 6.29688 12.7969C6.31794 12.7874 6.33922 12.7779 6.36035 12.7686C4.9261 11.6722 4 9.94472 4 8C4 4.68629 6.68629 2 10 2ZM10 4C7.79086 4 6 5.79086 6 8C6 10.2091 7.79086 12 10 12C12.2091 12 14 10.2091 14 8C14 5.79086 12.2091 4 10 4Z" fill="#E4F2F2"/>
</svg>
