<svg width="24" height="24" viewBox="0 0 24 24" fill="none" xmlns="http://www.w3.org/2000/svg">
<path fill-rule="evenodd" clip-rule="evenodd" d="M10 2C13.3137 2 16 4.68629 16 8C16 9.94549 15.0729 11.6732 13.6377 12.7695C14.4764 13.1403 15.2583 13.6381 15.9531 14.251C16.3671 14.6163 16.4073 15.248 16.042 15.6621C15.6767 16.0759 15.0449 16.115 14.6309 15.75C13.6206 14.8589 12.3741 14.2787 11.042 14.0781C9.70979 13.8776 8.34803 14.0658 7.12012 14.6201C5.89228 15.1744 4.84992 16.0714 4.11914 17.2031C3.38869 18.3346 3 19.6532 3 21C2.99979 21.5521 2.55214 22 2 22C1.44805 22 1.00053 21.5528 1 21.001C0.999905 19.269 1.50002 17.5732 2.43945 16.1182C3.37899 14.6631 4.71829 13.5095 6.29688 12.7969C6.31794 12.7874 6.33922 12.7779 6.36035 12.7686C4.9261 11.6722 4 9.94472 4 8C4 4.68629 6.68629 2 10 2ZM10 4C7.79086 4 6 5.79086 6 8C6 10.2091 7.79086 12 10 12C12.2091 12 14 10.2091 14 8C14 5.79086 12.2091 4 10 4Z" fill="#E4F2F2"/>
<path d="M21.293 16.293C21.6835 15.9024 22.3165 15.9024 22.707 16.293C23.0976 16.6835 23.0976 17.3165 22.707 17.707L18.707 21.707C18.3165 22.0976 17.6835 22.0976 17.293 21.707L15.293 19.707C14.9024 19.3165 14.9024 18.6835 15.293 18.293C15.6835 17.9024 16.3165 17.9024 16.707 18.293L18 19.5859L21.293 16.293Z" fill="#E4F2F2"/>
</svg>
