<svg width="24" height="24" viewBox="0 0 24 24" fill="none" xmlns="http://www.w3.org/2000/svg">
<path fill-rule="evenodd" clip-rule="evenodd" d="M15.293 1.29297C15.6834 0.902548 16.3165 0.90263 16.707 1.29297C17.0972 1.6835 17.0974 2.3166 16.707 2.70703L14.4141 5C14.0477 5.37383 13.8428 5.87698 13.8428 6.40039C13.8429 6.92352 14.0479 7.42613 14.4141 7.7998L14.5996 7.98535L18.293 4.29297C18.6835 3.90244 19.3165 3.90244 19.707 4.29297C20.0974 4.6835 20.0975 5.31655 19.707 5.70703L16.0137 9.39941L16.2002 9.58593L16.3467 9.71582C16.7004 10.0003 17.1428 10.1572 17.6006 10.1572C18.1238 10.1571 18.6263 9.95212 19 9.58593L21.293 7.29297C21.6834 6.90255 22.3165 6.90263 22.707 7.29297C23.0972 7.6835 23.0974 8.3166 22.707 8.70703L20.4072 11.0068L20.4004 11.0146L20.3994 11.0137C19.6519 11.7463 18.6473 12.1571 17.6006 12.1572C16.5537 12.1572 15.5485 11.7464 14.8008 11.0137L14.793 11.0068L14.5996 10.8135L13.4141 12L22.707 21.293C23.0973 21.6835 23.0974 22.3166 22.707 22.707C22.3166 23.0973 21.6835 23.0972 21.293 22.707L14.999 16.4131L14.1064 17.3066C14.0909 17.3222 14.0752 17.338 14.0586 17.3525C12.9089 18.3583 11.007 18.421 9.89258 17.3066L8.99805 16.4121L2.80078 22.5127C2.40719 22.8996 1.77399 22.8953 1.38672 22.5019C0.999456 22.1085 1.00519 21.4744 1.39844 21.0869L7.58301 14.9971L2.59277 10.0068C2.10238 9.52431 1.71189 8.94876 1.44531 8.31445C1.17734 7.6767 1.03907 6.99156 1.03906 6.2998C1.03906 5.60806 1.17736 4.92289 1.44531 4.28515C1.71322 3.64769 2.10577 3.06993 2.59961 2.58593C2.99121 2.20225 3.61912 2.2052 4.00684 2.59277L12 10.5859L13.1855 9.39941L12.9863 9.20019C12.2536 8.45263 11.8429 7.44717 11.8428 6.40039C11.8428 5.35338 12.2534 4.34732 12.9863 3.59961L15.293 1.29297ZM3.28906 5.06054C3.12426 5.4529 3.03906 5.87424 3.03906 6.2998C3.03907 6.72538 3.12425 7.1467 3.28906 7.53906C3.43333 7.88238 3.63657 8.19772 3.88867 8.4707L4 8.58593L11.3066 15.8926C11.5884 16.1744 12.2719 16.2384 12.7227 15.8613L13.585 14.999L3.40332 4.81738C3.36196 4.89651 3.32376 4.97796 3.28906 5.06054Z" fill="#E4F2F2"/>
</svg>
