<svg width="24" height="24" viewBox="0 0 24 24" fill="none" xmlns="http://www.w3.org/2000/svg">
<path d="M7.40039 2.20022C7.84221 1.86899 8.46847 1.95864 8.7998 2.40041C9.1308 2.84212 9.04105 3.4675 8.59961 3.79885L8.60059 3.79983L8.60254 3.79787C8.60218 3.79808 8.60192 3.79879 8.60059 3.79983C8.59702 3.8026 8.59016 3.80837 8.58008 3.81643C8.55922 3.83311 8.52418 3.8603 8.47852 3.89944C8.38693 3.97795 8.24988 4.10171 8.08203 4.26955C7.74569 4.60592 7.28971 5.1182 6.83203 5.80471C5.91916 7.17408 5 9.23446 5 12C5.00006 14.7656 5.91915 16.826 6.83203 18.1953C7.28973 18.8818 7.7457 19.3942 8.08203 19.7305C8.2499 19.8984 8.38695 20.0221 8.47852 20.1006C8.52421 20.1398 8.55926 20.167 8.58008 20.1836C8.59021 20.1917 8.59708 20.1975 8.60059 20.2002C9.04224 20.5316 9.131 21.1579 8.7998 21.5996C8.46847 22.0412 7.84214 22.1309 7.40039 21.7998L8 21C7.41753 21.7766 7.40127 21.7995 7.40039 21.7998L7.39648 21.7969C7.39503 21.7958 7.39257 21.7945 7.39062 21.793C7.38678 21.7901 7.38157 21.7866 7.37598 21.7822C7.36433 21.7732 7.34885 21.7611 7.33008 21.7461C7.29235 21.7159 7.24128 21.6727 7.17773 21.6182C7.0506 21.5092 6.87498 21.3516 6.66797 21.1446C6.25436 20.7309 5.71019 20.118 5.16797 19.3047C4.08091 17.6741 3.00006 15.2342 3 12C3 8.76585 4.08092 6.32597 5.16797 4.69534C5.71017 3.88204 6.25435 3.26913 6.66797 2.85549C6.87496 2.6485 7.05059 2.49085 7.17773 2.38186C7.24127 2.3274 7.29234 2.28413 7.33008 2.25393C7.34883 2.23892 7.36432 2.22682 7.37598 2.2178C7.38156 2.21348 7.38676 2.20999 7.39062 2.20705C7.39254 2.2056 7.39499 2.20425 7.39648 2.20315L7.40039 2.20022C7.40265 2.20254 7.43174 2.24243 7.8916 2.85549L7.40039 2.20022Z" fill="#E4F2F2"/>
<path d="M15.2002 2.40041C15.5315 1.95864 16.1578 1.86899 16.5996 2.20022L16.1084 2.85549C16.5683 2.24243 16.5973 2.20254 16.5996 2.20022L16.6035 2.20315C16.605 2.20425 16.6075 2.2056 16.6094 2.20705C16.6132 2.20999 16.6184 2.21348 16.624 2.2178C16.6357 2.22682 16.6512 2.23892 16.6699 2.25393C16.7077 2.28413 16.7587 2.3274 16.8223 2.38186C16.9494 2.49085 17.125 2.6485 17.332 2.85549C17.7457 3.26913 18.2898 3.88204 18.832 4.69534C19.9191 6.32597 21 8.76585 21 12C20.9999 15.2342 19.9191 17.6741 18.832 19.3047C18.2898 20.118 17.7456 20.7309 17.332 21.1446C17.125 21.3516 16.9494 21.5092 16.8223 21.6182C16.7587 21.6727 16.7076 21.7159 16.6699 21.7461C16.6512 21.7611 16.6357 21.7732 16.624 21.7822C16.6184 21.7866 16.6132 21.7901 16.6094 21.793C16.6074 21.7945 16.605 21.7958 16.6035 21.7969L16.6006 21.7998C16.5997 21.7995 16.5825 21.7766 16 21L16.6006 21.7998C16.1588 22.1309 15.5315 22.0412 15.2002 21.5996C14.869 21.1579 14.9587 20.5316 15.4004 20.2002L15.3975 20.2022C15.3975 20.2022 15.3988 20.2014 15.4004 20.2002C15.4039 20.1975 15.4098 20.1917 15.4199 20.1836C15.4407 20.167 15.4758 20.1398 15.5215 20.1006C15.613 20.0221 15.7501 19.8984 15.918 19.7305C16.2543 19.3942 16.7103 18.8818 17.168 18.1953C18.0808 16.826 18.9999 14.7656 19 12C19 9.23446 18.0808 7.17408 17.168 5.80471C16.7103 5.1182 16.2543 4.60592 15.918 4.26955C15.7501 4.10171 15.6131 3.97795 15.5215 3.89944C15.4758 3.8603 15.4408 3.83311 15.4199 3.81643C15.4098 3.80837 15.403 3.8026 15.3994 3.79983C15.3981 3.79879 15.3968 3.79808 15.3965 3.79787L15.3994 3.79983L15.4004 3.79885C14.9589 3.4675 14.8692 2.84212 15.2002 2.40041Z" fill="#E4F2F2"/>
<path d="M14.293 8.29299C14.6835 7.90247 15.3165 7.90247 15.707 8.29299C16.0974 8.68353 16.0975 9.31658 15.707 9.70705L13.4141 12L15.707 14.293C16.0974 14.6835 16.0975 15.3166 15.707 15.7071C15.3165 16.0974 14.6835 16.0974 14.293 15.7071L12 13.4141L9.70703 15.7071C9.31654 16.0974 8.68346 16.0974 8.29297 15.7071C7.90249 15.3166 7.90259 14.6835 8.29297 14.293L10.5859 12L8.29297 9.70705C7.90249 9.31658 7.90259 8.68353 8.29297 8.29299C8.68349 7.90247 9.31651 7.90247 9.70703 8.29299L12 10.586L14.293 8.29299Z" fill="#E4F2F2"/>
</svg>
