<svg width="24" height="24" viewBox="0 0 24 24" fill="none" xmlns="http://www.w3.org/2000/svg">
<path fill-rule="evenodd" clip-rule="evenodd" d="M6 1C7.10457 1 8 1.89543 8 3V3.2959C10.6494 2.86645 13.3506 2.86645 16 3.2959V3C16 1.89543 16.8954 1 18 1H21C22.1046 1 23 1.89543 23 3V6C23 7.10457 22.1046 8 21 8H20.7041C21.1335 10.6494 21.1335 13.3506 20.7041 16H21C22.1046 16 23 16.8954 23 18V21C23 22.1046 22.1046 23 21 23H18C16.8954 23 16 22.1046 16 21V20.7041C13.3506 21.1335 10.6494 21.1335 8 20.7041V21C8 22.1046 7.10457 23 6 23H3C1.89543 23 1 22.1046 1 21V18C1 16.8954 1.89543 16 3 16H3.29688C2.86739 13.3505 2.86739 10.6495 3.29688 8H3C1.89543 8 1 7.10457 1 6V3C1 1.89543 1.89543 1 3 1H6ZM3 21H6V19.5127C5.99985 19.5004 5.99969 19.488 6 19.4756V18H4.52441C4.51233 18.0003 4.5003 18.0001 4.48828 18H3V21ZM18 19.4756C18.0003 19.488 18.0002 19.5004 18 19.5127V21H21V18H19.5127C19.5007 18.0001 19.4886 18.0003 19.4766 18H18V19.4756ZM16 5.32617C13.3537 4.85883 10.6463 4.85883 8 5.32617V6C8 7.10457 7.10457 8 6 8H5.32617C4.85883 10.6463 4.85883 13.3537 5.32617 16H6C7.10457 16 8 16.8954 8 18V18.6729C10.6464 19.1402 13.3536 19.1402 16 18.6729V18C16 16.8954 16.8954 16 18 16H18.6738C19.1412 13.3538 19.1412 10.6462 18.6738 8H18C16.8954 8 16 7.10457 16 6V5.32617ZM3 6H4.48828C4.5003 5.99986 4.51233 5.9997 4.52441 6H6V4.52441C5.99969 4.51201 5.99985 4.49965 6 4.4873V3H3V6ZM18 4.4873C18.0002 4.49965 18.0003 4.51201 18 4.52441V6H19.4766C19.4886 5.99971 19.5007 5.99985 19.5127 6H21V3H18V4.4873Z" fill="#E4F2F2"/>
</svg>
