<svg width="24" height="24" viewBox="0 0 24 24" fill="none" xmlns="http://www.w3.org/2000/svg">
<path fill-rule="evenodd" clip-rule="evenodd" d="M22 1.00003C22.5523 1.00003 23 1.44776 23 2.00003C23 3.88566 22.5865 5.49905 21.6426 6.71292C22.8166 8.85387 23.2514 11.3311 22.8594 13.7559C22.4261 16.4352 21.0172 18.86 18.9043 20.5635C16.9593 22.1316 14.5433 22.984 12.0576 22.9971C12.033 22.9985 12.0083 22.9995 11.9834 22.9991C11.7933 22.9988 11.6028 22.9946 11.4121 22.9844C8.70189 22.8393 6.14082 21.6975 4.22167 19.7783C2.30253 17.8592 1.16066 15.2981 1.01561 12.5879C0.870672 9.87763 1.73299 7.20872 3.43651 5.09573C3.50738 5.00783 3.58095 4.92239 3.65429 4.83694C2.93772 4.10897 2.17816 3.42122 1.37596 2.78128C0.944721 2.43678 0.874493 1.80756 1.21874 1.37601C1.56322 0.94472 2.19244 0.874551 2.62401 1.21878C3.49224 1.91142 4.31382 2.65618 5.08886 3.44437C6.56777 2.24971 8.34122 1.44836 10.2441 1.14065C12.6685 0.748679 15.1454 1.18292 17.2861 2.35647C18.5 1.41251 20.1143 1.00004 22 1.00003ZM4.99315 6.35159C3.59961 8.08026 2.89419 10.2632 3.01268 12.4805C3.1313 14.698 4.06548 16.794 5.63573 18.3643C7.06879 19.7973 8.93985 20.6985 10.9414 20.9356C10.6987 17.6012 9.80778 14.3423 8.30956 11.3457C7.40893 9.54448 6.29973 7.86236 5.01171 6.32913C5.00559 6.33667 4.99925 6.34403 4.99315 6.35159ZM20.0889 8.0596C19.1116 8.62419 17.9341 8.9171 16.6035 8.98343C14.5602 12.7685 13.9286 15.2829 13.1523 20.9248C14.7889 20.7135 16.3474 20.0557 17.6484 19.0069C19.3772 17.6131 20.5303 15.6288 20.8848 13.4366C21.1822 11.5966 20.8976 9.71981 20.0889 8.0596ZM15.9394 3.91019C14.2795 3.10186 12.403 2.81786 10.5635 3.11526C9.04794 3.36033 7.63176 3.98717 6.44139 4.9219C7.87333 6.60693 9.10295 8.46183 10.0976 10.4512C10.9097 12.0754 11.5549 13.7714 12.0312 15.5127C12.6454 12.6853 13.469 10.5323 15.0039 7.73636C15.0348 6.26603 15.3271 4.96988 15.9394 3.91019ZM20.9414 3.05765C19.6796 3.20232 18.7998 3.61424 18.207 4.20706C17.6142 4.79989 17.2023 5.67961 17.0576 6.94144C18.3199 6.79686 19.2 6.38595 19.793 5.793C20.3859 5.20003 20.7968 4.31996 20.9414 3.05765Z" fill="#E4F2F2"/>
</svg>
