<svg width="24" height="24" viewBox="0 0 24 24" fill="none" xmlns="http://www.w3.org/2000/svg">
<path fill-rule="evenodd" clip-rule="evenodd" d="M16 5C19.866 5 23 8.13401 23 12C23 15.866 19.866 19 16 19C14.5123 19 13.134 18.5345 12 17.7432C10.866 18.5345 9.48769 19 8 19C4.13401 19 1 15.866 1 12C1 8.13401 4.13401 5 8 5C9.48749 5 10.8661 5.46475 12 6.25586C13.1339 5.46475 14.5125 5 16 5ZM8 7C5.23858 7 3 9.23858 3 12C3 14.7614 5.23858 17 8 17C8.91155 17 9.76509 16.7543 10.501 16.3281C9.56204 15.1368 9 13.6345 9 12C9 10.3652 9.56176 8.86229 10.501 7.6709C9.76518 7.2449 8.91138 7 8 7ZM16 7C15.0883 7 14.234 7.24464 13.498 7.6709C14.4375 8.86237 15 10.365 15 12C15 13.6348 14.4372 15.1367 13.498 16.3281C14.2341 16.7545 15.0881 17 16 17C18.7614 17 21 14.7614 21 12C21 9.23858 18.7614 7 16 7ZM12 9C11.3722 9.83569 11 10.8743 11 12C11 13.1254 11.3725 14.1634 12 14.999C12.6275 14.1634 13 13.1254 13 12C13 10.8743 12.6278 9.83569 12 9Z" fill="#E4F2F2"/>
</svg>
