<svg width="24" height="24" viewBox="0 0 24 24" fill="none" xmlns="http://www.w3.org/2000/svg">
<path fill-rule="evenodd" clip-rule="evenodd" d="M10 2C10.5523 2 11 2.44772 11 3V4C11 4.26522 11.1054 4.51949 11.293 4.70703C11.4805 4.89457 11.7348 5 12 5L12.0986 4.99512C12.3276 4.97243 12.5429 4.87117 12.707 4.70703C12.8946 4.51949 13 4.26522 13 4V3C13 2.44772 13.4477 2 14 2H18C18.5523 2 19 2.44772 19 3V6C19 7.14772 19.8523 8 21 8C21.5523 8 22 8.44772 22 9V19C22 19.7957 21.6837 20.5585 21.1211 21.1211C20.5585 21.6837 19.7957 22 19 22H5C4.20435 22 3.44151 21.6837 2.87891 21.1211C2.3163 20.5585 2 19.7957 2 19V9C2 8.44772 2.44772 8 3 8C4.14772 8 5 7.14772 5 6V3L5.00488 2.89746C5.05621 2.39333 5.48232 2 6 2H10ZM7 6C7 7.90545 5.74904 9.44944 4 9.87988V19C4 19.2652 4.10543 19.5195 4.29297 19.707C4.48051 19.8946 4.73478 20 5 20H19C19.2652 20 19.5195 19.8946 19.707 19.707C19.8946 19.5195 20 19.2652 20 19V9.87988C18.251 9.44944 17 7.90545 17 6V4H15C15 4.79565 14.6837 5.55849 14.1211 6.12109C13.6289 6.61329 12.9835 6.91709 12.2969 6.98535L12 7C11.2044 7 10.4415 6.6837 9.87891 6.12109C9.3163 5.55849 9 4.79565 9 4H7V6Z" fill="#E4F2F2"/>
</svg>
