<svg width="24" height="24" viewBox="0 0 24 24" fill="none" xmlns="http://www.w3.org/2000/svg">
<path fill-rule="evenodd" clip-rule="evenodd" d="M15 4C16.1045 4.00004 17 4.89546 17 6V18C17 19.1045 16.1045 20 15 20H8.99999C7.89542 20 6.99999 19.1046 6.99999 18V6C6.99999 4.89543 7.89542 4 8.99999 4H15ZM8.99999 18H15V6H8.99999V18Z" fill="#E4F2F2"/>
<path d="M1.29295 7.29297C1.68348 6.90248 2.3165 6.90246 2.70702 7.29297L4.70702 9.29297C5.09749 9.68348 5.09749 10.3165 4.70702 10.707L3.41405 12L4.70702 13.293C5.09749 13.6835 5.09749 14.3165 4.70702 14.707L2.70702 16.707C2.3165 17.0975 1.68348 17.0975 1.29295 16.707C0.90243 16.3165 0.90243 15.6835 1.29295 15.293L2.58592 14L1.29295 12.707C0.90243 12.3165 0.90243 11.6835 1.29295 11.293L2.58592 10L1.29295 8.70703C0.90243 8.31651 0.90243 7.68349 1.29295 7.29297Z" fill="#E4F2F2"/>
<path d="M21.293 7.29297C21.6835 6.90248 22.3165 6.90246 22.707 7.29297C23.0975 7.68348 23.0975 8.31652 22.707 8.70703L21.414 10L22.707 11.293C23.0975 11.6835 23.0975 12.3165 22.707 12.707L21.414 14L22.707 15.293C23.0975 15.6835 23.0975 16.3165 22.707 16.707C22.3165 17.0975 21.6835 17.0975 21.293 16.707L19.293 14.707C18.9024 14.3165 18.9024 13.6835 19.293 13.293L20.5859 12L19.293 10.707C18.9024 10.3165 18.9024 9.68349 19.293 9.29297L21.293 7.29297Z" fill="#E4F2F2"/>
</svg>
