<svg width="24" height="24" viewBox="0 0 24 24" fill="none" xmlns="http://www.w3.org/2000/svg">
<path fill-rule="evenodd" clip-rule="evenodd" d="M1.29295 1.29295C1.68348 0.90243 2.31649 0.90243 2.70702 1.29295L22.707 21.293C23.0975 21.6835 23.0975 22.3165 22.707 22.707C22.3165 23.0975 21.6835 23.0975 21.293 22.707L16.9619 18.376C16.7851 19.299 15.9736 19.9999 15 20H8.99999C7.89773 20 7.00003 19.1022 6.99999 18V8.41405L1.29295 2.70702C0.90243 2.31649 0.90243 1.68348 1.29295 1.29295ZM8.99999 18H15V16.414L8.99999 10.414V18Z" fill="#E4F2F2"/>
<path d="M1.29295 7.29295C1.68348 6.90243 2.31649 6.90243 2.70702 7.29295L4.70702 9.29295C5.09747 9.68349 5.09752 10.3165 4.70702 10.707L3.41405 12L4.70702 13.293C5.09747 13.6835 5.09752 14.3165 4.70702 14.707L2.70702 16.707C2.31652 17.0975 1.68348 17.0975 1.29295 16.707C0.90243 16.3165 0.90243 15.6835 1.29295 15.293L2.58592 14L1.29295 12.707C0.90243 12.3165 0.90243 11.6835 1.29295 11.293L2.58592 9.99999L1.29295 8.70702C0.90243 8.31649 0.90243 7.68348 1.29295 7.29295Z" fill="#E4F2F2"/>
<path d="M21.293 7.29295C21.6835 6.90243 22.3165 6.90243 22.707 7.29295C23.0975 7.68349 23.0975 8.31652 22.707 8.70702L21.414 9.99999L22.707 11.293C23.0975 11.6835 23.0975 12.3165 22.707 12.707L21.414 14L22.707 15.293C23.0975 15.6835 23.0975 16.3165 22.707 16.707C22.3165 17.0975 21.6835 17.0975 21.293 16.707L19.293 14.707C18.9024 14.3165 18.9024 13.6835 19.293 13.293L20.5859 12L19.293 10.707C18.9024 10.3165 18.9024 9.68348 19.293 9.29295L21.293 7.29295Z" fill="#E4F2F2"/>
<path d="M15 3.99999C16.1022 4.00011 17 4.89778 17 5.99999V10.3398C16.9999 10.892 16.5521 11.3397 16 11.3398C15.4478 11.3397 15 10.892 15 10.3398V5.99999H10.6601C10.1079 5.99999 9.66018 5.55224 9.66014 4.99999C9.66014 4.4477 10.1079 3.99999 10.6601 3.99999H15Z" fill="#E4F2F2"/>
</svg>
