<svg width="24" height="24" viewBox="0 0 24 24" fill="none" xmlns="http://www.w3.org/2000/svg">
<path fill-rule="evenodd" clip-rule="evenodd" d="M1.29297 1.29295C1.68349 0.90243 2.31651 0.90243 2.70703 1.29295L22.707 21.293C23.0975 21.6835 23.0975 22.3165 22.707 22.707C22.3165 23.0975 21.6835 23.0975 21.293 22.707L16.3906 17.8047C16.3075 17.9148 16.2198 18.0224 16.1211 18.1211C15.5585 18.6837 14.7956 19 14 19H4C3.20437 19 2.44151 18.6837 1.87891 18.1211C1.31631 17.5585 1.00002 16.7956 1 16V7.99999C1 7.20435 1.31632 6.4415 1.87891 5.87889C2.3495 5.4083 2.96049 5.1123 3.61328 5.02733L1.29297 2.70702C0.902457 2.3165 0.902482 1.68348 1.29297 1.29295ZM4 6.99999C3.73478 6.99999 3.4805 7.10542 3.29297 7.29295C3.10546 7.48049 3 7.73479 3 7.99999V16C3.00002 16.2652 3.10545 16.5195 3.29297 16.707C3.4805 16.8945 3.7348 17 4 17H14C14.2652 17 14.5195 16.8945 14.707 16.707C14.8092 16.6048 14.8859 16.4824 14.9355 16.3496L5.58594 6.99999H4Z" fill="#E4F2F2"/>
<path d="M14 4.99999C14.7956 5.00003 15.5585 5.31637 16.1211 5.87889C16.6836 6.44149 17 7.20439 17 7.99999V8.75877L20.7441 6.5742C20.9721 6.44122 21.2312 6.371 21.4951 6.3701L21.6914 6.38182C21.8215 6.39856 21.949 6.43255 22.0703 6.48241L22.2471 6.56932L22.4111 6.6787C22.5152 6.75832 22.6085 6.85122 22.6885 6.95506L22.7988 7.11815L22.8857 7.29491C22.9611 7.4766 23 7.67212 23 7.8701V16.0664C22.9997 16.6184 22.5521 17.0663 22 17.0664C21.4479 17.0663 21.0003 16.6184 21 16.0664V8.74022L16.5039 11.3633C16.1947 11.5437 15.8124 11.5454 15.502 11.3672C15.1915 11.1888 15 10.858 15 10.5V7.99999C15 7.73482 14.8945 7.48048 14.707 7.29295C14.5195 7.1055 14.2651 7.00003 14 6.99999H10.6602C10.1079 6.99999 9.6602 6.55224 9.66016 5.99999C9.66016 5.4477 10.1079 4.99999 10.6602 4.99999H14Z" fill="#E4F2F2"/>
</svg>
