<svg width="24" height="24" viewBox="0 0 24 24" fill="none" xmlns="http://www.w3.org/2000/svg">
<path fill-rule="evenodd" clip-rule="evenodd" d="M12 1C17.6413 1 22.2875 5.24693 22.9229 10.7178C23.0011 10.907 23.0195 11.1158 22.9756 11.3154C22.9895 11.5419 23 11.77 23 12C23 13.9018 22.5165 15.6904 21.667 17.251C21.6232 17.4203 21.5343 17.5778 21.4043 17.707C19.4746 20.8801 15.9853 23 12 23C10.4296 23 8.93738 22.6681 7.58594 22.0752C7.44459 22.044 7.31154 21.9836 7.19629 21.8965C5.29085 20.9699 3.6922 19.5109 2.59668 17.7109C2.47105 17.5869 2.37809 17.4291 2.33203 17.25C1.48295 15.6897 1 13.9013 1 12C1 5.92487 5.92487 1 12 1ZM17.1387 14.9697C15.5284 17.4668 13.3165 19.5065 10.7178 20.9072C11.1367 20.967 11.5646 21 12 21C15.1 21 17.8335 19.4323 19.4521 17.0469C18.7758 16.2549 17.9979 15.5571 17.1387 14.9697ZM12.4287 13.0723C11.3809 14.3572 10.1074 15.4427 8.66699 16.2705C7.53159 16.923 6.31027 17.4057 5.04199 17.708C5.81955 18.6547 6.78726 19.4381 7.88574 20.0039C10.9672 18.8398 13.5943 16.7291 15.3945 13.9824C14.4508 13.5504 13.454 13.2437 12.4287 13.0723ZM4.99609 6.34863C3.74797 7.89352 3 9.85925 3 12C3 13.3985 3.31855 14.7226 3.8877 15.9033C4.92265 15.7224 5.92782 15.4024 6.87598 14.9512C5.52444 12.2815 4.88155 9.3194 4.99609 6.34863ZM12.0791 8.12305C12.1714 9.12966 12.3847 10.1279 12.7256 11.0938C14.3547 11.3621 15.924 11.9208 17.3584 12.7451C18.4942 13.3979 19.5287 14.2079 20.4326 15.1484C20.7987 14.1683 21 13.1078 21 12C21 11.8523 20.9953 11.7055 20.9883 11.5596C18.4491 9.50594 15.3313 8.30493 12.0791 8.12305ZM10.5625 3.11523C9.34562 3.31059 8.21104 3.75033 7.20898 4.38184C6.6471 7.63899 7.13862 10.9858 8.60352 13.9375C9.44741 13.3386 10.2076 12.6291 10.8643 11.8271C9.85674 9.01804 9.75608 5.97176 10.5625 3.11523ZM12.6846 3.02832C12.3413 4.03422 12.1317 5.07334 12.0566 6.12012C15.0055 6.26243 17.861 7.14614 20.3633 8.67578C19.1209 5.5529 16.1829 3.29151 12.6846 3.02832Z" fill="#E4F2F2"/>
</svg>
