<svg width="24" height="24" viewBox="0 0 24 24" fill="none" xmlns="http://www.w3.org/2000/svg">
<path fill-rule="evenodd" clip-rule="evenodd" d="M1.29297 1.29295C1.68349 0.90243 2.31651 0.90243 2.70703 1.29295L22.707 21.293C23.0975 21.6835 23.0975 22.3165 22.707 22.707C22.3165 23.0975 21.6835 23.0975 21.293 22.707L12 13.414V19.2969L11.9951 19.4228C11.9738 19.7159 11.8777 19.9995 11.7139 20.2451C11.5266 20.5258 11.2599 20.7448 10.9482 20.874C10.6365 21.0032 10.2929 21.0366 9.96191 20.9707C9.63088 20.9047 9.32634 20.7418 9.08789 20.5029L5.7041 17.1181C5.6668 17.0806 5.62213 17.0505 5.57324 17.0303C5.52435 17.01 5.47186 16.9998 5.41895 17H3C2.46958 17 1.96101 16.7891 1.58594 16.414C1.21088 16.039 1.00002 15.5304 1 15V8.99999C1 8.46957 1.21089 7.96099 1.58594 7.58592C1.96101 7.21085 2.46957 6.99999 3 6.99999H5.41895C5.46712 7.00013 5.51449 6.99041 5.55957 6.97362L1.29297 2.70702C0.902457 2.3165 0.902482 1.68348 1.29297 1.29295ZM6.99414 8.40819C6.79886 8.57826 6.57879 8.71796 6.33887 8.81737C6.0464 8.93852 5.73256 8.99955 5.41602 8.99901L3 8.99999V15H5.41602C5.73258 14.9994 6.04639 15.0614 6.33887 15.1826C6.63128 15.3038 6.89671 15.4818 7.12012 15.706L10 18.5859V11.414L6.99414 8.40819Z" fill="#E4F2F2"/>
<path d="M18.6572 4.9287C19.0477 4.53848 19.6808 4.53842 20.0713 4.9287C21.4921 6.34883 22.4527 8.16401 22.8271 10.1377C23.2015 12.1116 22.9722 14.1532 22.1699 15.9951C21.9494 16.5013 21.3598 16.7331 20.8535 16.5127C20.3474 16.292 20.1164 15.7025 20.3369 15.1963C20.9786 13.7228 21.1618 12.0897 20.8623 10.5107C20.5628 8.93162 19.7941 7.47895 18.6572 6.34276C18.2668 5.95233 18.2669 5.31926 18.6572 4.9287Z" fill="#E4F2F2"/>
<path d="M15.4004 8.20018C15.8422 7.86897 16.4684 7.95866 16.7998 8.40038C17.4049 9.2071 17.7977 10.1531 17.9404 11.1514C18.0185 11.698 17.6384 12.2049 17.0918 12.2832C16.5451 12.3613 16.0382 11.9812 15.96 11.4346C15.8648 10.769 15.6037 10.1375 15.2002 9.5996C14.869 9.15782 14.9587 8.53154 15.4004 8.20018Z" fill="#E4F2F2"/>
<path d="M10.1064 2.98241C10.3538 2.95173 10.6051 2.97665 10.8418 3.05467L10.959 3.09764L11.0723 3.1494C11.2949 3.26144 11.4902 3.4217 11.6436 3.61815L11.7168 3.71971L11.7822 3.82616C11.9249 4.07865 12 4.36483 12 4.65624V5.34276C11.9999 5.89491 11.5522 6.34269 11 6.34276C10.4478 6.34269 10.0001 5.89491 10 5.34276V5.15624C9.69093 5.20991 9.36121 5.1181 9.12207 4.87987C8.73114 4.49006 8.73045 3.85696 9.12012 3.46581L9.21094 3.38084C9.43079 3.19067 9.69697 3.06023 9.9834 3.00292L10.1064 2.98241Z" fill="#E4F2F2"/>
</svg>
