<svg width="24" height="24" viewBox="0 0 24 24" fill="none" xmlns="http://www.w3.org/2000/svg">
<path fill-rule="evenodd" clip-rule="evenodd" d="M10.0879 3.01073C10.3373 2.9802 10.5904 3.00524 10.8291 3.08397L10.9473 3.12791L11.0615 3.17967C11.2861 3.29268 11.4828 3.45434 11.6377 3.65233L11.7119 3.75487L11.7783 3.86229C11.9228 4.11718 11.9995 4.40578 12 4.70018V19.2969L11.9951 19.4228C11.9738 19.7158 11.8776 19.9995 11.7139 20.2451C11.5266 20.5258 11.2599 20.7448 10.9482 20.874C10.6365 21.0032 10.2929 21.0366 9.96191 20.9707C9.63093 20.9047 9.32633 20.7427 9.08789 20.5039L5.7041 17.1181C5.6668 17.0806 5.62213 17.0505 5.57324 17.0303C5.52435 17.01 5.47186 16.9998 5.41895 17H3C2.46959 17 1.961 16.7891 1.58594 16.414C1.2109 16.039 1.00003 15.5304 1 15V8.99998C1.00001 8.46959 1.2109 7.96098 1.58594 7.58592C1.96101 7.21086 2.46957 6.99998 3 6.99998H5.41895C5.47185 7.00014 5.52436 6.98995 5.57324 6.96971C5.62212 6.94947 5.6668 6.91933 5.7041 6.88182L9.09082 3.49608C9.32921 3.25823 9.63258 3.09584 9.96289 3.03026L10.0879 3.01073ZM7.12012 8.29393C6.89672 8.51812 6.63127 8.69621 6.33887 8.81737C6.0464 8.93851 5.73256 8.99955 5.41602 8.99901L3 8.99998V15H5.41602C5.73258 14.9994 6.04639 15.0614 6.33887 15.1826C6.63127 15.3038 6.89671 15.4818 7.12012 15.706L10 18.5859V5.41405L7.12012 8.29393Z" fill="#E4F2F2"/>
<path d="M15.4004 8.20018C15.8422 7.86895 16.4685 7.9586 16.7998 8.40037C17.5786 9.43891 18 10.7018 18 12C18 13.2981 17.5786 14.5611 16.7998 15.5996C16.4685 16.0413 15.8422 16.131 15.4004 15.7998C14.9586 15.4685 14.869 14.8422 15.2002 14.4004C15.7195 13.708 16 12.8654 16 12C16 11.1345 15.7195 10.292 15.2002 9.59959C14.869 9.15779 14.9586 8.53152 15.4004 8.20018Z" fill="#E4F2F2"/>
</svg>
