<svg width="24" height="24" viewBox="0 0 24 24" fill="none" xmlns="http://www.w3.org/2000/svg">
<path fill-rule="evenodd" clip-rule="evenodd" d="M13.293 6.29297C13.6835 5.90244 14.3165 5.90244 14.707 6.29297C15.0976 6.68349 15.0976 7.31651 14.707 7.70703L13.4141 9L15 10.5859L16.293 9.29297C16.6835 8.90244 17.3165 8.90244 17.707 9.29297C18.0976 9.68349 18.0976 10.3165 17.707 10.707L16.4141 12L17.707 13.293C18.0976 13.6835 18.0976 14.3165 17.707 14.707C17.3165 15.0976 16.6835 15.0976 16.293 14.707L15 13.4141L13.4141 15L14.707 16.293C15.0976 16.6835 15.0976 17.3165 14.707 17.707C14.3165 18.0976 13.6835 18.0976 13.293 17.707L12 16.4141L10.707 17.707C10.3165 18.0976 9.68349 18.0976 9.29297 17.707C8.90244 17.3165 8.90244 16.6835 9.29297 16.293L10.5859 15L9 13.4141L7.70703 14.707C7.31651 15.0976 6.68349 15.0976 6.29297 14.707C5.90244 14.3165 5.90244 13.6835 6.29297 13.293L7.58594 12L6.29297 10.707C5.90244 10.3165 5.90244 9.68349 6.29297 9.29297C6.68349 8.90244 7.31651 8.90244 7.70703 9.29297L9 10.5859L10.5859 9L9.29297 7.70703C8.90244 7.31651 8.90244 6.68349 9.29297 6.29297C9.68349 5.90244 10.3165 5.90244 10.707 6.29297L12 7.58594L13.293 6.29297ZM10.4141 12L12 13.5859L13.5859 12L12 10.4141L10.4141 12Z" fill="#E4F2F2"/>
<path fill-rule="evenodd" clip-rule="evenodd" d="M12 1C18.0751 1 23 5.92487 23 12C23 18.0751 18.0751 23 12 23C5.92487 23 1 18.0751 1 12C1 5.92487 5.92487 1 12 1ZM12 3C7.02944 3 3 7.02944 3 12C3 16.9706 7.02944 21 12 21C16.9706 21 21 16.9706 21 12C21 7.02944 16.9706 3 12 3Z" fill="#E4F2F2"/>
</svg>
