<svg width="24" height="24" viewBox="0 0 24 24" fill="none" xmlns="http://www.w3.org/2000/svg">
<path fill-rule="evenodd" clip-rule="evenodd" d="M19 2C20.6569 2 22 3.34315 22 5V19C22 20.6569 20.6569 22 19 22H5C3.34315 22 2 20.6569 2 19V5C2 3.34315 3.34315 2 5 2H19ZM4 19C4 19.5523 4.44772 20 5 20H19C19.5523 20 20 19.5523 20 19V12H18.0996C17.6049 12.0001 17.0497 12.2647 16.707 12.6074C16.6836 12.6308 16.6585 12.6528 16.6328 12.6738L15.5557 13.5547C13.581 15.4784 10.5239 15.4798 8.54785 13.5586L7.4668 12.6738C7.41769 12.6336 7.37266 12.5888 7.33203 12.54C7.06297 12.2172 6.57375 12 6 12H4V19ZM5 8C4.73478 8 4.4805 8.10543 4.29297 8.29297C4.10543 8.4805 4 8.73478 4 9V10H6C6.99065 10 8.05856 10.3582 8.78906 11.1719L9.83301 12.0264L9.90723 12.0928C11.1167 13.3022 12.9839 13.3022 14.1934 12.0928L14.2666 12.0264L15.3418 11.1465C16.0011 10.5111 17.0211 10.0001 18.0996 10H20V9C20 8.73478 19.8946 8.48051 19.707 8.29297C19.5429 8.12883 19.3276 8.02757 19.0986 8.00488L19 8H5ZM5 4C4.44772 4 4 4.44772 4 5V6.1748C4.31847 6.062 4.65567 6 5 6H19C19.3443 6 19.6815 6.062 20 6.1748V5C20 4.44772 19.5523 4 19 4H5Z" fill="#E4F2F2"/>
</svg>
