<svg width="24" height="24" viewBox="0 0 24 24" fill="none" xmlns="http://www.w3.org/2000/svg">
<path d="M11.293 11.293C11.6835 10.9025 12.3165 10.9025 12.707 11.293C13.0975 11.6835 13.0975 12.3165 12.707 12.707L3.70702 21.707C3.3165 22.0975 2.68348 22.0975 2.29295 21.707C1.90243 21.3165 1.90243 20.6835 2.29295 20.293L11.293 11.293Z" fill="#E4F2F2"/>
<path d="M15 13C15.5522 13 16 13.4477 16 14V16C16 16.5523 15.5522 17 15 17C14.4477 17 14 16.5523 14 16V14C14 13.4477 14.4477 13 15 13Z" fill="#E4F2F2"/>
<path d="M17.0928 11.0928C17.4832 10.7023 18.1163 10.7024 18.5068 11.0928L19.707 12.293C20.0973 12.6835 20.0974 13.3166 19.707 13.707C19.3166 14.0975 18.6835 14.0974 18.293 13.707L17.0928 12.5068C16.7024 12.1163 16.7023 11.4832 17.0928 11.0928Z" fill="#E4F2F2"/>
<path d="M9.99999 8C10.5522 8.00004 11 8.44774 11 9C11 9.55226 10.5522 9.99996 9.99999 10H7.99999C7.4477 10 6.99999 9.55229 6.99999 9C6.99999 8.44772 7.4477 8 7.99999 8H9.99999Z" fill="#E4F2F2"/>
<path d="M15.0098 8C15.562 8.00004 16.0098 8.44774 16.0098 9C16.0098 9.55226 15.562 9.99996 15.0098 10H15C14.4477 10 14 9.55229 14 9C14 8.44772 14.4477 8 15 8H15.0098Z" fill="#E4F2F2"/>
<path d="M22 8C22.5522 8.00004 23 8.44774 23 9C23 9.55226 22.5522 9.99996 22 10H20C19.4477 10 19 9.55229 19 9C19 8.44772 19.4477 8 20 8H22Z" fill="#E4F2F2"/>
<path d="M10.293 4.29297C10.6835 3.90248 11.3165 3.90246 11.707 4.29297L12.9072 5.49316C13.2975 5.88369 13.2976 6.51678 12.9072 6.90723C12.5168 7.29767 11.8837 7.29752 11.4931 6.90723L10.293 5.70703C9.90243 5.31651 9.90243 4.68349 10.293 4.29297Z" fill="#E4F2F2"/>
<path d="M18.293 4.29297C18.6835 3.90256 19.3165 3.90254 19.707 4.29297C20.0974 4.68347 20.0974 5.31653 19.707 5.70703L18.5068 6.90723C18.1163 7.29756 17.4832 7.2976 17.0928 6.90723C16.7023 6.51675 16.7024 5.88368 17.0928 5.49316L18.293 4.29297Z" fill="#E4F2F2"/>
<path d="M15 1C15.5522 1.00004 16 1.44774 16 2V4C16 4.55226 15.5522 4.99996 15 5C14.4477 5 14 4.55228 14 4V2C14 1.44772 14.4477 1 15 1Z" fill="#E4F2F2"/>
</svg>
