<svg width="24" height="24" viewBox="0 0 24 24" fill="none" xmlns="http://www.w3.org/2000/svg">
<path d="M8.00977 9C8.56205 9 9.00977 9.44771 9.00977 10C9.00977 10.5523 8.56205 11 8.00977 11H8C7.44772 11 7 10.5523 7 10C7 9.44771 7.44772 9 8 9H8.00977Z" fill="#E4F2F2"/>
<path d="M16.0098 9C16.5621 9 17.0098 9.44771 17.0098 10C17.0098 10.5523 16.5621 11 16.0098 11H16C15.4477 11 15 10.5523 15 10C15 9.44771 15.4477 9 16 9H16.0098Z" fill="#E4F2F2"/>
<path fill-rule="evenodd" clip-rule="evenodd" d="M19 1C20.6569 1 22 2.34315 22 4V20C22 21.6569 20.6569 23 19 23H5C3.34315 23 2 21.6569 2 20V4C2 2.34315 3.34315 1 5 1H19ZM4 18V20C4 20.5523 4.44772 21 5 21H19C19.5523 21 20 20.5523 20 20V18H4ZM5 3C4.44772 3 4 3.44772 4 4V16H11V3H5ZM13 16H20V4C20 3.44772 19.5523 3 19 3H13V16Z" fill="#E4F2F2"/>
</svg>
