<svg width="24" height="24" viewBox="0 0 24 24" fill="none" xmlns="http://www.w3.org/2000/svg">
<path fill-rule="evenodd" clip-rule="evenodd" d="M13.2998 1C14.7377 1.00008 15.9762 1.8992 16.2793 3.39648L16.627 5.06543C17.9829 5.3537 19 6.55815 19 8V16C19 17.4042 18.0343 18.5794 16.7314 18.9062L16.3789 20.5986L16.3799 20.5996C16.2396 21.2874 15.8625 21.9043 15.3145 22.3428C14.7716 22.777 14.095 23.0083 13.4004 22.999L10.7002 23C9.25972 23 8.02015 22.0977 7.71973 20.5957L7.7207 20.5947L7.37305 18.9336C6.01723 18.6452 5 17.4418 5 16V8C5 6.56973 6.00124 5.37472 7.34082 5.07422L7.61426 3.43555C7.61619 3.424 7.61779 3.41187 7.62012 3.40039C7.76038 2.71269 8.13751 2.09571 8.68555 1.65723C9.22856 1.22282 9.90566 0.992512 10.6006 1.00195V1H13.2998ZM9.67871 20.1963L9.68066 20.2041C9.78032 20.7019 10.1408 21 10.7002 21H13.4199C13.6538 21.0047 13.8828 20.9274 14.0654 20.7812C14.248 20.6351 14.3732 20.4293 14.4199 20.2002L14.4209 20.1963L14.6699 19H9.42969L9.67871 20.1963ZM11.876 14.4814C11.7244 14.757 11.452 14.9459 11.1406 14.9902C10.8293 15.0344 10.5153 14.9294 10.293 14.707L8.58594 13H7V16C7 16.5523 7.44772 17 8 17H16C16.5523 17 17 16.5523 17 16V13H15C14.7165 13 14.4465 12.8796 14.2568 12.6689L13.3975 11.7139L11.876 14.4814ZM8 7C7.44772 7 7 7.44772 7 8V11H9C9.26522 11 9.5195 11.1054 9.70703 11.293L10.7656 12.3516L12.3242 9.51855L12.3877 9.41602C12.5509 9.18899 12.8036 9.03943 13.085 9.00684C13.4066 8.96969 13.7267 9.09037 13.9434 9.33105L15.4453 11H17V8C17 7.44772 16.5523 7 16 7H8ZM10.5801 3C10.3463 2.99529 10.1182 3.07279 9.93555 3.21875C9.75607 3.36236 9.63066 3.56367 9.58203 3.78809L9.38086 5H14.5703L14.3213 3.80469L14.3193 3.79688C14.2198 3.29896 13.8592 3.00007 13.2998 3H10.5801Z" fill="#E4F2F2"/>
</svg>
