<svg width="24" height="24" viewBox="0 0 24 24" fill="none" xmlns="http://www.w3.org/2000/svg">
<path d="M12 9C12.5523 9 13 9.44771 13 10V11.5859L13.707 12.293C14.0976 12.6835 14.0976 13.3165 13.707 13.707C13.3165 14.0976 12.6835 14.0976 12.293 13.707L11.293 12.707C11.1054 12.5195 11 12.2652 11 12V10C11 9.44771 11.4477 9 12 9Z" fill="#E4F2F2"/>
<path fill-rule="evenodd" clip-rule="evenodd" d="M13.2998 1C14.7377 1.00008 15.9762 1.8992 16.2793 3.39648L16.627 5.06543C17.9829 5.3537 19 6.55815 19 8V16C19 17.4042 18.0343 18.5794 16.7314 18.9062L16.3789 20.5986L16.3799 20.5996C16.2396 21.2874 15.8625 21.9043 15.3145 22.3428C14.7716 22.777 14.095 23.0083 13.4004 22.999L10.7002 23C9.25972 23 8.02014 22.0977 7.71973 20.5957L7.7207 20.5947L7.37305 18.9336C6.01723 18.6452 5 17.4418 5 16V8C5 6.56973 6.00124 5.37472 7.34082 5.07422L7.61426 3.43555C7.61619 3.424 7.61779 3.41187 7.62012 3.40039C7.76039 2.71269 8.13751 2.09571 8.68555 1.65723C9.22856 1.22282 9.90566 0.992512 10.6006 1.00195V1H13.2998ZM9.67871 20.1963L9.68066 20.2041C9.78032 20.7019 10.1408 21 10.7002 21H13.4199C13.6538 21.0047 13.8828 20.9274 14.0654 20.7812C14.248 20.6351 14.3732 20.4293 14.4199 20.2002L14.4209 20.1963L14.6699 19H9.42969L9.67871 20.1963ZM8 7C7.44772 7 7 7.44772 7 8V16C7 16.5523 7.44772 17 8 17H16C16.5523 17 17 16.5523 17 16V8C17 7.44772 16.5523 7 16 7H8ZM10.5801 3C10.3463 2.99529 10.1182 3.07279 9.93555 3.21875C9.75607 3.36236 9.63066 3.56367 9.58203 3.78809L9.38086 5H14.5703L14.3213 3.80469L14.3193 3.79688C14.2198 3.29896 13.8592 3.00007 13.2998 3H10.5801Z" fill="#E4F2F2"/>
<path d="M2 15C2.55228 15 3 15.4477 3 16C3 17.7593 3.92633 19.3373 5.23047 20.1523C5.69841 20.4452 5.84046 21.0621 5.54785 21.5303C5.25507 21.9984 4.63817 22.1403 4.16992 21.8477C2.27418 20.6627 1 18.4406 1 16C1 15.4477 1.44772 15 2 15Z" fill="#E4F2F2"/>
<path d="M18.4521 2.46973C18.7449 2.00172 19.3619 1.85982 19.8301 2.15234C21.7257 3.33731 23 5.55949 23 8C23 8.55222 22.5522 8.9999 22 9C21.4478 8.9999 21 8.55222 21 8C21 6.24067 20.0737 4.66274 18.7695 3.84766C18.3016 3.55484 18.1596 2.93789 18.4521 2.46973Z" fill="#E4F2F2"/>
</svg>
