<svg width="24" height="24" viewBox="0 0 24 24" fill="none" xmlns="http://www.w3.org/2000/svg">
<path d="M12 9C12.5523 9 13 9.44772 13 10C13 10.5523 12.5523 11 12 11C11.8022 11 11.6088 11.0591 11.4443 11.1689C11.28 11.2788 11.1518 11.4346 11.0762 11.6172C11.0005 11.7999 10.9809 12.0013 11.0195 12.1953C11.0582 12.3892 11.1532 12.5672 11.293 12.707C11.4328 12.8468 11.6108 12.9418 11.8047 12.9805C11.9987 13.0191 12.2001 12.9995 12.3828 12.9238C12.5654 12.8482 12.7212 12.72 12.8311 12.5557C12.9409 12.3912 13 12.1978 13 12C13 11.4477 13.4477 11 14 11C14.5523 11 15 11.4477 15 12C15 12.5933 14.8238 13.1736 14.4941 13.667C14.1646 14.1601 13.6963 14.5444 13.1484 14.7715C12.6004 14.9985 11.9969 15.0581 11.415 14.9424C10.8331 14.8266 10.2985 14.5407 9.87891 14.1211C9.45935 13.7015 9.17337 13.1669 9.05762 12.585C8.94194 12.0031 9.00149 11.3996 9.22852 10.8516C9.45555 10.3037 9.83993 9.83541 10.333 9.50586C10.8264 9.17622 11.4067 9 12 9Z" fill="#E4F2F2"/>
<path fill-rule="evenodd" clip-rule="evenodd" d="M13.2998 1C14.7377 1.00008 15.9762 1.8992 16.2793 3.39648L16.627 5.06543C17.9829 5.3537 19 6.55815 19 8V16C19 17.4042 18.0343 18.5794 16.7314 18.9062L16.3789 20.5986L16.3799 20.5996C16.2396 21.2874 15.8625 21.9043 15.3145 22.3428C14.7716 22.777 14.095 23.0083 13.4004 22.999L10.7002 23C9.25972 23 8.02015 22.0977 7.71973 20.5957L7.7207 20.5947L7.37305 18.9336C6.01723 18.6452 5 17.4418 5 16V8C5 6.56973 6.00124 5.37472 7.34082 5.07422L7.61426 3.43555C7.61619 3.424 7.61779 3.41187 7.62012 3.40039C7.76038 2.71269 8.13751 2.09571 8.68555 1.65723C9.22856 1.22282 9.90566 0.992512 10.6006 1.00195V1H13.2998ZM9.67871 20.1963L9.68066 20.2041C9.78032 20.7019 10.1408 21 10.7002 21H13.4199C13.6538 21.0047 13.8828 20.9274 14.0654 20.7812C14.248 20.6351 14.3732 20.4293 14.4199 20.2002L14.4209 20.1963L14.6699 19H9.42969L9.67871 20.1963ZM8 7C7.44772 7 7 7.44772 7 8V16C7 16.5523 7.44772 17 8 17H16C16.5523 17 17 16.5523 17 16V8C17 7.44772 16.5523 7 16 7H8ZM10.5801 3C10.3463 2.99529 10.1182 3.07279 9.93555 3.21875C9.75607 3.36236 9.63066 3.56367 9.58203 3.78809L9.38086 5H14.5703L14.3213 3.80469L14.3193 3.79688C14.2198 3.29896 13.8592 3.00007 13.2998 3H10.5801Z" fill="#E4F2F2"/>
</svg>
