<svg width="24" height="24" viewBox="0 0 24 24" fill="none" xmlns="http://www.w3.org/2000/svg">
<path d="M12 9C12.5523 9.00006 13 9.44775 13 10V11.5859L13.7071 12.293C14.0975 12.6835 14.0975 13.3165 13.7071 13.707C13.3165 14.0975 12.6835 14.0975 12.293 13.707L11.293 12.707C11.1055 12.5195 11 12.2652 11 12V10C11 9.44771 11.4477 9 12 9Z" fill="#E4F2F2"/>
<path fill-rule="evenodd" clip-rule="evenodd" d="M13.3203 1.00195C14.0174 0.993134 14.6969 1.22567 15.2403 1.66309C15.7879 2.10424 16.1634 2.72435 16.3008 3.41406L17.0488 7.1543C18.2563 8.41212 19 10.1187 19 12C19 13.8328 18.2945 15.5002 17.1416 16.748L16.3809 20.5557C16.2435 21.2457 15.8674 21.8654 15.3194 22.3066C14.7758 22.7442 14.0968 22.9778 13.3994 22.9688L10.6797 22.9697C9.9826 22.9786 9.30417 22.744 8.76076 22.3066C8.21276 21.8654 7.83659 21.2457 7.69924 20.5557L6.959 16.8545C5.74664 15.5959 5.00002 13.8856 5.00002 12C5.00002 10.1263 5.73674 8.42529 6.93557 7.16895L7.65822 3.4209L7.6592 3.41602C7.79636 2.72545 8.1723 2.10459 8.72072 1.66309C9.26426 1.22557 9.94334 0.992973 10.6406 1.00195V1H13.3203V1.00195ZM14.7647 18.4316C13.9165 18.7967 12.9821 19 12 19C11.0507 19 10.1458 18.8101 9.32033 18.4678L9.66018 20.1631L9.66115 20.165C9.70691 20.395 9.83206 20.6019 10.0147 20.749C10.1975 20.8961 10.4266 20.9742 10.6612 20.9697H13.419C13.6536 20.9742 13.8826 20.8962 14.0654 20.749C14.2481 20.6019 14.3732 20.395 14.419 20.165V20.1631L14.7647 18.4316ZM12 7C10.674 7 9.46916 7.51697 8.57424 8.35938C8.57036 8.36332 8.56646 8.36721 8.56252 8.37109C7.60082 9.28235 7.00002 10.5706 7.00002 12C7.00002 14.7614 9.2386 17 12 17C14.7614 16.9999 17 14.7614 17 12C17 10.6129 16.4347 9.35795 15.5225 8.45215C15.4618 8.4057 15.4054 8.35348 15.3565 8.29395C14.4692 7.48984 13.2918 7.00003 12 7ZM10.6211 3C10.3865 2.99553 10.1574 3.07361 9.97463 3.2207C9.79184 3.36787 9.66683 3.57549 9.62111 3.80566L9.28615 5.54492C10.1206 5.19367 11.0378 5 12 5C12.9512 5.00001 13.8578 5.1905 14.6846 5.53418L14.3399 3.80664C14.2942 3.57663 14.1679 3.36785 13.9854 3.2207C13.8028 3.0739 13.5741 2.9957 13.3399 3H10.6211Z" fill="#E4F2F2"/>
<path d="M1.54689 8.69824C1.71378 8.17181 2.2763 7.88003 2.80275 8.04688C3.32869 8.21397 3.61971 8.7756 3.45314 9.30176C2.89676 11.0573 2.89676 12.9427 3.45314 14.6982C3.61971 15.2244 3.32869 15.786 2.80275 15.9531C2.2763 16.12 1.71378 15.8282 1.54689 15.3018C0.866042 13.1532 0.866042 10.8468 1.54689 8.69824Z" fill="#E4F2F2"/>
<path d="M21.1983 8.04688C21.7246 7.88028 22.2863 8.17189 22.4531 8.69824C23.134 10.8468 23.134 13.1532 22.4531 15.3018C22.2863 15.8281 21.7246 16.1197 21.1983 15.9531C20.6719 15.7863 20.3802 15.2246 20.5469 14.6982C21.1033 12.9427 21.1033 11.0573 20.5469 9.30176C20.3802 8.77536 20.6719 8.2137 21.1983 8.04688Z" fill="#E4F2F2"/>
</svg>
