<svg width="24" height="24" viewBox="0 0 24 24" fill="none" xmlns="http://www.w3.org/2000/svg">
<path d="M13.0098 13.0005C13.5619 13.0006 14.0098 13.4483 14.0098 14.0005C14.0096 14.5526 13.5618 15.0004 13.0098 15.0005H13C12.4478 15.0005 12.0002 14.5526 12 14.0005C12 13.4482 12.4477 13.0005 13 13.0005H13.0098Z" fill="#E4F2F2"/>
<path d="M10.0098 10.0005C10.5619 10.0006 11.0098 10.4483 11.0098 11.0005C11.0096 11.5526 10.5618 12.0004 10.0098 12.0005H9.99999C9.44782 12.0005 9.00017 11.5526 8.99999 11.0005C8.99999 10.4482 9.4477 10.0005 9.99999 10.0005H10.0098Z" fill="#E4F2F2"/>
<path fill-rule="evenodd" clip-rule="evenodd" d="M5.50194 1.01028C5.78999 1.00322 6.07677 1.05521 6.34374 1.1636C6.60744 1.27076 6.84583 1.43193 7.04589 1.6343L7.04686 1.63332L8.97069 3.55715C9.00035 3.58073 9.02919 3.60589 9.05663 3.63332C9.084 3.66072 9.10927 3.68965 9.1328 3.71926L22.4072 16.9927C22.4121 16.9976 22.417 17.0033 22.4219 17.0083C22.6179 17.2129 22.7702 17.4557 22.8691 17.7212C22.9681 17.9869 23.0124 18.2701 22.998 18.5532C22.9836 18.8362 22.9114 19.1136 22.7861 19.3677C22.6607 19.6219 22.4835 19.8481 22.2676 20.0318C22.2634 20.0353 22.2591 20.0391 22.2549 20.0425C19.7605 22.0925 16.592 23.1411 13.3672 22.9839C10.1425 22.8265 7.09154 21.4747 4.80858 19.1919C2.52549 16.9088 1.17389 13.8573 1.01659 10.6323C0.859375 7.40754 1.90804 4.23998 3.958 1.74563L3.98143 1.71731C4.17261 1.50142 4.4065 1.32725 4.66796 1.20559C4.92942 1.08399 5.21367 1.01744 5.50194 1.01028ZM5.51171 3.01907C5.50106 3.02403 5.49165 3.03127 5.48339 3.03957C3.76176 5.14654 2.88106 7.81726 3.01366 10.5357C3.14686 13.2643 4.29089 15.8461 6.22264 17.7779C8.1544 19.7095 10.7363 20.8527 13.4648 20.9859C16.1889 21.1186 18.8647 20.2341 20.9736 18.5054C20.9808 18.4988 20.9878 18.4917 20.9922 18.4829C20.9969 18.4733 20.9994 18.4625 21 18.4517C21.0005 18.4408 20.9989 18.4296 20.9951 18.4195C20.9916 18.4101 20.9862 18.4015 20.9795 18.3941L19.6582 17.0728C18.0648 18.3455 16.0794 19.0502 14.0205 19.0493C11.626 19.0482 9.32915 18.0958 7.63671 16.4019C5.94442 14.7079 4.9941 12.4106 4.9951 10.0161C4.99607 7.95986 5.70053 5.97738 6.97167 4.38625L5.62499 3.03957C5.61559 3.02998 5.60417 3.02227 5.59178 3.01711C5.57932 3.01205 5.5652 3.00909 5.55175 3.0093C5.53813 3.00964 5.52408 3.01336 5.51171 3.01907ZM8.3955 5.81008C7.49269 7.01745 6.99581 8.49176 6.9951 10.0171C6.99433 11.8812 7.73423 13.67 9.05175 14.9888C10.3693 16.3074 12.1574 17.0484 14.0215 17.0493C15.5488 17.05 17.0245 16.5521 18.2334 15.648L8.3955 5.81008Z" fill="#E4F2F2"/>
</svg>
