<svg width="24" height="24" viewBox="0 0 24 24" fill="none" xmlns="http://www.w3.org/2000/svg">
<path d="M19.4995 19C20.2882 19 20.9141 19.1539 21.4478 19.4121C21.9611 19.6605 22.3496 19.9893 22.6401 20.2314C23.0643 20.585 23.1216 21.2164 22.7681 21.6406C22.4145 22.0647 21.7831 22.122 21.3589 21.7686C21.0498 21.511 20.838 21.3394 20.5767 21.2129C20.3355 21.0962 20.0105 21 19.4995 21C19.0198 21 18.6991 21.0932 18.4478 21.2139C18.1752 21.3448 17.9469 21.5233 17.6245 21.7812C17.3221 22.0232 16.9249 22.3448 16.4165 22.5889C15.8868 22.8431 15.2695 23 14.4995 23C13.7109 23 13.085 22.8461 12.5513 22.5879C12.038 22.3394 11.6494 22.0107 11.3589 21.7686C11.0498 21.511 10.838 21.3394 10.5767 21.2129C10.3355 21.0962 10.0105 21 9.49952 21C9.01984 21 8.69912 21.0932 8.44776 21.2139C8.17518 21.3448 7.94691 21.5233 7.62452 21.7812C7.32206 22.0232 6.92491 22.3448 6.41651 22.5889C5.88675 22.8431 5.26948 23 4.49952 23C3.7109 23 3.08495 22.8461 2.55127 22.5879C2.03796 22.3394 1.64944 22.0107 1.35889 21.7686C0.934956 21.415 0.877648 20.7835 1.23096 20.3594C1.58448 19.9353 2.2159 19.8781 2.64014 20.2314C2.94925 20.489 3.16114 20.6606 3.42237 20.7871C3.66355 20.9038 3.98851 21 4.49952 21C4.97921 21 5.2999 20.9067 5.55127 20.7861C5.82392 20.6553 6.05213 20.4767 6.37452 20.2188C6.67694 19.9768 7.07414 19.6552 7.58252 19.4111C8.11226 19.1569 8.72958 19 9.49952 19C10.2882 19 10.9141 19.1539 11.4478 19.4121C11.9611 19.6605 12.3496 19.9893 12.6401 20.2314C12.9493 20.489 13.1611 20.6606 13.4224 20.7871C13.6636 20.9038 13.9885 21 14.4995 21C14.9792 21 15.2999 20.9067 15.5513 20.7861C15.8239 20.6553 16.0521 20.4767 16.3745 20.2188C16.6769 19.9768 17.0741 19.6552 17.5825 19.4111C18.1123 19.1569 18.7296 19 19.4995 19Z" fill="#E4F2F2"/>
<path d="M19.4995 13C20.2882 13 20.9141 13.1539 21.4478 13.4121C21.9611 13.6605 22.3496 13.9893 22.6401 14.2314C23.0643 14.585 23.1216 15.2164 22.7681 15.6406C22.4145 16.0647 21.7831 16.122 21.3589 15.7686C21.0498 15.511 20.838 15.3394 20.5767 15.2129C20.3355 15.0962 20.0105 15 19.4995 15C19.0198 15 18.6991 15.0932 18.4478 15.2139C18.1752 15.3448 17.9469 15.5233 17.6245 15.7812C17.3221 16.0232 16.9249 16.3448 16.4165 16.5889C15.8868 16.8431 15.2695 17 14.4995 17C13.7109 17 13.085 16.8461 12.5513 16.5879C12.038 16.3394 11.6494 16.0107 11.3589 15.7686C11.0498 15.511 10.838 15.3394 10.5767 15.2129C10.3355 15.0962 10.0105 15 9.49952 15C9.01984 15 8.69912 15.0932 8.44776 15.2139C8.17518 15.3448 7.94691 15.5233 7.62452 15.7812C7.32206 16.0232 6.92491 16.3448 6.41651 16.5889C5.88675 16.8431 5.26948 17 4.49952 17C3.7109 17 3.08495 16.8461 2.55127 16.5879C2.03796 16.3394 1.64944 16.0107 1.35889 15.7686C0.934956 15.415 0.877648 14.7835 1.23096 14.3594C1.58448 13.9353 2.2159 13.8781 2.64014 14.2314C2.94925 14.489 3.16114 14.6606 3.42237 14.7871C3.66355 14.9038 3.98851 15 4.49952 15C4.97921 15 5.2999 14.9067 5.55127 14.7861C5.82392 14.6553 6.05213 14.4767 6.37452 14.2188C6.67694 13.9768 7.07414 13.6552 7.58252 13.4111C8.11226 13.1569 8.72958 13 9.49952 13C10.2882 13 10.9141 13.1539 11.4478 13.4121C11.9611 13.6605 12.3496 13.9893 12.6401 14.2314C12.9493 14.489 13.1611 14.6606 13.4224 14.7871C13.6636 14.9038 13.9885 15 14.4995 15C14.9792 15 15.2999 14.9067 15.5513 14.7861C15.8239 14.6553 16.0521 14.4767 16.3745 14.2188C16.6769 13.9768 17.0741 13.6552 17.5825 13.4111C18.1123 13.1569 18.7296 13 19.4995 13Z" fill="#E4F2F2"/>
<path d="M12.02 1.00098C12.0379 1.00133 12.0559 1.00162 12.0737 1.00293C12.0911 1.0042 12.1084 1.00567 12.1255 1.00781C12.1363 1.00917 12.1469 1.01196 12.1577 1.01367C12.1787 1.01701 12.1997 1.0198 12.2202 1.02441C12.2275 1.02604 12.2345 1.02849 12.2417 1.03027C12.296 1.04376 12.3486 1.06107 12.3989 1.08301C12.4464 1.10365 12.4922 1.12885 12.5366 1.15723C12.5712 1.17926 12.6048 1.20253 12.6362 1.22852C12.6605 1.24859 12.6838 1.27025 12.7065 1.29297L16.7065 5.29297C17.0971 5.68349 17.0971 6.31651 16.7065 6.70703C16.316 7.09737 15.6829 7.0975 15.2925 6.70703L12.9995 4.41406V10C12.9995 10.5523 12.5518 11 11.9995 11C11.4474 10.9998 10.9995 10.5522 10.9995 10V4.41406L8.70655 6.70703C8.31601 7.09737 7.68295 7.0975 7.29248 6.70703C6.9022 6.31655 6.9022 5.68345 7.29248 5.29297L11.2925 1.29297C11.3503 1.23517 11.4154 1.1849 11.4858 1.14258C11.5071 1.12983 11.5284 1.11748 11.5503 1.10645C11.6111 1.07581 11.6756 1.052 11.7427 1.03418C11.7583 1.03004 11.7738 1.02584 11.7896 1.02246C11.8034 1.01949 11.8175 1.01704 11.8315 1.01465C11.8471 1.01199 11.8628 1.00973 11.8784 1.00781C11.8962 1.00566 11.9141 1.00414 11.9321 1.00293C11.9477 1.00187 11.9634 1.00131 11.979 1.00098C11.9858 1.00084 11.9927 1 11.9995 1C12.0063 1 12.0133 1.00084 12.02 1.00098Z" fill="#E4F2F2"/>
</svg>
