<svg width="24" height="24" viewBox="0 0 24 24" fill="none" xmlns="http://www.w3.org/2000/svg">
<path d="M19.4995 19C20.2882 19 20.9141 19.1539 21.4478 19.4121C21.9611 19.6605 22.3496 19.9893 22.6401 20.2314C23.0643 20.585 23.1216 21.2164 22.7681 21.6406C22.4145 22.0647 21.7831 22.122 21.3589 21.7686C21.0498 21.511 20.838 21.3394 20.5767 21.2129C20.3355 21.0962 20.0105 21 19.4995 21C19.0198 21 18.6991 21.0932 18.4478 21.2139C18.1752 21.3448 17.9469 21.5233 17.6245 21.7812C17.3221 22.0232 16.9249 22.3448 16.4165 22.5889C15.8868 22.8431 15.2695 23 14.4995 23C13.7109 23 13.085 22.8461 12.5513 22.5879C12.038 22.3394 11.6494 22.0107 11.3589 21.7686C11.0498 21.511 10.838 21.3394 10.5767 21.2129C10.3355 21.0962 10.0105 21 9.49952 21C9.01984 21 8.69912 21.0932 8.44776 21.2139C8.17518 21.3448 7.94691 21.5233 7.62452 21.7812C7.32206 22.0232 6.92491 22.3448 6.41651 22.5889C5.88675 22.8431 5.26948 23 4.49952 23C3.7109 23 3.08495 22.8461 2.55127 22.5879C2.03796 22.3394 1.64944 22.0107 1.35889 21.7686C0.934956 21.415 0.877648 20.7835 1.23096 20.3594C1.58448 19.9353 2.2159 19.8781 2.64014 20.2314C2.94925 20.489 3.16114 20.6606 3.42237 20.7871C3.66355 20.9038 3.98851 21 4.49952 21C4.97921 21 5.2999 20.9067 5.55127 20.7861C5.82392 20.6553 6.05213 20.4767 6.37452 20.2188C6.67694 19.9768 7.07414 19.6552 7.58252 19.4111C8.11226 19.1569 8.72958 19 9.49952 19C10.2882 19 10.9141 19.1539 11.4478 19.4121C11.9611 19.6605 12.3496 19.9893 12.6401 20.2314C12.9493 20.489 13.1611 20.6606 13.4224 20.7871C13.6636 20.9038 13.9885 21 14.4995 21C14.9792 21 15.2999 20.9067 15.5513 20.7861C15.8239 20.6553 16.0521 20.4767 16.3745 20.2188C16.6769 19.9768 17.0741 19.6552 17.5825 19.4111C18.1123 19.1569 18.7296 19 19.4995 19Z" fill="#E4F2F2"/>
<path d="M19.4995 13C20.2882 13 20.9141 13.1539 21.4478 13.4121C21.9611 13.6605 22.3496 13.9893 22.6401 14.2314C23.0643 14.585 23.1216 15.2164 22.7681 15.6406C22.4145 16.0647 21.7831 16.122 21.3589 15.7686C21.0498 15.511 20.838 15.3394 20.5767 15.2129C20.3355 15.0962 20.0105 15 19.4995 15C19.0198 15 18.6991 15.0932 18.4478 15.2139C18.1752 15.3448 17.9469 15.5233 17.6245 15.7812C17.3221 16.0232 16.9249 16.3448 16.4165 16.5889C15.8868 16.8431 15.2695 17 14.4995 17C13.7109 17 13.085 16.8461 12.5513 16.5879C12.038 16.3394 11.6494 16.0107 11.3589 15.7686C11.0498 15.511 10.838 15.3394 10.5767 15.2129C10.3355 15.0962 10.0105 15 9.49952 15C9.01984 15 8.69912 15.0932 8.44776 15.2139C8.17518 15.3448 7.94691 15.5233 7.62452 15.7812C7.32206 16.0232 6.92491 16.3448 6.41651 16.5889C5.88675 16.8431 5.26948 17 4.49952 17C3.7109 17 3.08495 16.8461 2.55127 16.5879C2.03796 16.3394 1.64944 16.0107 1.35889 15.7686C0.934956 15.415 0.877648 14.7835 1.23096 14.3594C1.58448 13.9353 2.2159 13.8781 2.64014 14.2314C2.94925 14.489 3.16114 14.6606 3.42237 14.7871C3.66355 14.9038 3.98851 15 4.49952 15C4.97921 15 5.2999 14.9067 5.55127 14.7861C5.82392 14.6553 6.05213 14.4767 6.37452 14.2188C6.67694 13.9768 7.07414 13.6552 7.58252 13.4111C8.11226 13.1569 8.72958 13 9.49952 13C10.2882 13 10.9141 13.1539 11.4478 13.4121C11.9611 13.6605 12.3496 13.9893 12.6401 14.2314C12.9493 14.489 13.1611 14.6606 13.4224 14.7871C13.6636 14.9038 13.9885 15 14.4995 15C14.9792 15 15.2999 14.9067 15.5513 14.7861C15.8239 14.6553 16.0521 14.4767 16.3745 14.2188C16.6769 13.9768 17.0741 13.6552 17.5825 13.4111C18.1123 13.1569 18.7296 13 19.4995 13Z" fill="#E4F2F2"/>
<path d="M11.9995 1C12.5518 1 12.9995 1.44772 12.9995 2V7.58594L15.2925 5.29297C15.6829 4.9025 16.316 4.90263 16.7065 5.29297C17.0971 5.68349 17.0971 6.31651 16.7065 6.70703L12.7065 10.707C12.6602 10.7534 12.6089 10.7945 12.5542 10.8311C12.5106 10.8602 12.4651 10.8847 12.4185 10.9062C12.4051 10.9124 12.3921 10.9192 12.3784 10.9248C12.3688 10.9288 12.3589 10.9319 12.3491 10.9355C12.3301 10.9427 12.3111 10.9501 12.2915 10.9561C12.2748 10.9611 12.2577 10.9646 12.2407 10.9688C12.2251 10.9726 12.2097 10.9773 12.1939 10.9805C12.1858 10.9821 12.1776 10.983 12.1694 10.9844C12.1143 10.9938 12.0574 11 11.9995 11C11.9415 11 11.8849 10.9939 11.8296 10.9844C11.8215 10.983 11.8133 10.9821 11.8052 10.9805C11.7893 10.9773 11.7739 10.9726 11.7583 10.9688C11.7414 10.9645 11.7243 10.9612 11.7075 10.9561C11.6882 10.9502 11.6697 10.9426 11.6509 10.9355C11.6409 10.9318 11.6305 10.9289 11.6206 10.9248C11.6051 10.9184 11.5899 10.9114 11.5747 10.9043C11.53 10.8833 11.4866 10.859 11.4448 10.8311C11.3902 10.7945 11.3388 10.7534 11.2925 10.707L7.29248 6.70703C6.9022 6.31655 6.9022 5.68345 7.29248 5.29297C7.68295 4.9025 8.31601 4.90263 8.70655 5.29297L10.9995 7.58594V2C10.9995 1.44784 11.4474 1.0002 11.9995 1Z" fill="#E4F2F2"/>
</svg>
