<svg width="24" height="24" viewBox="0 0 24 24" fill="none" xmlns="http://www.w3.org/2000/svg">
<path d="M19.4995 16C20.2882 16 20.9141 16.1539 21.4478 16.4121C21.9611 16.6605 22.3496 16.9893 22.6401 17.2314C23.0643 17.585 23.1216 18.2164 22.7681 18.6406C22.4145 19.0647 21.7831 19.122 21.3589 18.7686C21.0498 18.511 20.838 18.3394 20.5767 18.2129C20.3355 18.0962 20.0105 18 19.4995 18C19.0198 18 18.6991 18.0932 18.4478 18.2139C18.1752 18.3448 17.9469 18.5233 17.6245 18.7812C17.3221 19.0232 16.9249 19.3448 16.4165 19.5889C15.8868 19.8431 15.2695 20 14.4995 20C13.7109 20 13.085 19.8461 12.5513 19.5879C12.038 19.3394 11.6494 19.0107 11.3589 18.7686C11.0498 18.511 10.838 18.3394 10.5767 18.2129C10.3355 18.0962 10.0105 18 9.49952 18C9.01984 18 8.69912 18.0932 8.44776 18.2139C8.17518 18.3448 7.94691 18.5233 7.62452 18.7812C7.32206 19.0232 6.92491 19.3448 6.41651 19.5889C5.88675 19.8431 5.26948 20 4.49952 20C3.7109 20 3.08495 19.8461 2.55127 19.5879C2.03796 19.3394 1.64944 19.0107 1.35889 18.7686C0.934956 18.415 0.877648 17.7835 1.23096 17.3594C1.58448 16.9353 2.2159 16.8781 2.64014 17.2314C2.94925 17.489 3.16114 17.6606 3.42237 17.7871C3.66355 17.9038 3.98851 18 4.49952 18C4.97921 18 5.2999 17.9067 5.55127 17.7861C5.82392 17.6553 6.05213 17.4767 6.37452 17.2188C6.67694 16.9768 7.07414 16.6552 7.58252 16.4111C8.11226 16.1569 8.72958 16 9.49952 16C10.2882 16 10.9141 16.1539 11.4478 16.4121C11.9611 16.6605 12.3496 16.9893 12.6401 17.2314C12.9493 17.489 13.1611 17.6606 13.4224 17.7871C13.6636 17.9038 13.9885 18 14.4995 18C14.9792 18 15.2999 17.9067 15.5513 17.7861C15.8239 17.6553 16.0521 17.4767 16.3745 17.2188C16.6769 16.9768 17.0741 16.6552 17.5825 16.4111C18.1123 16.1569 18.7296 16 19.4995 16Z" fill="#E4F2F2"/>
<path d="M19.4995 10C20.2882 10 20.9141 10.1539 21.4478 10.4121C21.9611 10.6605 22.3496 10.9893 22.6401 11.2314C23.0643 11.585 23.1216 12.2164 22.7681 12.6406C22.4145 13.0647 21.7831 13.122 21.3589 12.7686C21.0498 12.511 20.838 12.3394 20.5767 12.2129C20.3355 12.0962 20.0105 12 19.4995 12C19.0198 12 18.6991 12.0932 18.4478 12.2139C18.1752 12.3448 17.9469 12.5233 17.6245 12.7812C17.3221 13.0232 16.9249 13.3448 16.4165 13.5889C15.8868 13.8431 15.2695 14 14.4995 14C13.7109 14 13.085 13.8461 12.5513 13.5879C12.038 13.3394 11.6494 13.0107 11.3589 12.7686C11.0498 12.511 10.838 12.3394 10.5767 12.2129C10.3355 12.0962 10.0105 12 9.49952 12C9.01984 12 8.69912 12.0932 8.44776 12.2139C8.17518 12.3448 7.94691 12.5233 7.62452 12.7812C7.32206 13.0232 6.92491 13.3448 6.41651 13.5889C5.88675 13.8431 5.26948 14 4.49952 14C3.7109 14 3.08495 13.8461 2.55127 13.5879C2.03796 13.3394 1.64944 13.0107 1.35889 12.7686C0.934956 12.415 0.877648 11.7835 1.23096 11.3594C1.58448 10.9353 2.2159 10.8781 2.64014 11.2314C2.94925 11.489 3.16114 11.6606 3.42237 11.7871C3.66355 11.9038 3.98851 12 4.49952 12C4.97921 12 5.2999 11.9067 5.55127 11.7861C5.82392 11.6553 6.05213 11.4767 6.37452 11.2188C6.67694 10.9768 7.07414 10.6552 7.58252 10.4111C8.11226 10.1569 8.72958 10 9.49952 10C10.2882 10 10.9141 10.1539 11.4478 10.4121C11.9611 10.6605 12.3496 10.9893 12.6401 11.2314C12.9493 11.489 13.1611 11.6606 13.4224 11.7871C13.6636 11.9038 13.9885 12 14.4995 12C14.9792 12 15.2999 11.9067 15.5513 11.7861C15.8239 11.6553 16.0521 11.4767 16.3745 11.2188C16.6769 10.9768 17.0741 10.6552 17.5825 10.4111C18.1123 10.1569 18.7296 10 19.4995 10Z" fill="#E4F2F2"/>
<path d="M19.4995 4C20.2882 4 20.9141 4.15392 21.4478 4.41211C21.9611 4.66051 22.3496 4.98929 22.6401 5.23145C23.0643 5.58502 23.1216 6.21638 22.7681 6.64062C22.4145 7.06465 21.7831 7.12204 21.3589 6.76855C21.0498 6.51096 20.838 6.33937 20.5767 6.21289C20.3355 6.09623 20.0105 6 19.4995 6C19.0198 6.00005 18.6991 6.09322 18.4478 6.21387C18.1752 6.34476 17.9469 6.52334 17.6245 6.78125C17.3221 7.02321 16.9249 7.34483 16.4165 7.58887C15.8868 7.84309 15.2695 8 14.4995 8C13.7109 7.99995 13.085 7.84612 12.5513 7.58789C12.038 7.33945 11.6494 7.01068 11.3589 6.76855C11.0498 6.51096 10.838 6.33937 10.5767 6.21289C10.3355 6.09623 10.0105 6 9.49952 6C9.01984 6.00005 8.69912 6.09322 8.44776 6.21387C8.17518 6.34476 7.94691 6.52334 7.62452 6.78125C7.32206 7.02321 6.92491 7.34483 6.41651 7.58887C5.88675 7.84309 5.26948 8 4.49952 8C3.7109 7.99995 3.08495 7.84612 2.55127 7.58789C2.03796 7.33945 1.64944 7.01068 1.35889 6.76855C0.934956 6.41499 0.877648 5.78355 1.23096 5.35938C1.58448 4.93526 2.2159 4.87811 2.64014 5.23145C2.94925 5.48904 3.16114 5.66061 3.42237 5.78711C3.66355 5.90381 3.98851 5.99995 4.49952 6C4.97921 6 5.2999 5.90675 5.55127 5.78613C5.82392 5.65526 6.05213 5.47666 6.37452 5.21875C6.67694 4.97681 7.07414 4.65521 7.58252 4.41113C8.11226 4.15686 8.72958 4.00005 9.49952 4C10.2882 4 10.9141 4.15392 11.4478 4.41211C11.9611 4.66051 12.3496 4.98929 12.6401 5.23145C12.9493 5.48904 13.1611 5.66061 13.4224 5.78711C13.6636 5.90381 13.9885 5.99995 14.4995 6C14.9792 6 15.2999 5.90675 15.5513 5.78613C15.8239 5.65526 16.0521 5.47666 16.3745 5.21875C16.6769 4.97681 17.0741 4.65521 17.5825 4.41113C18.1123 4.15686 18.7296 4.00005 19.4995 4Z" fill="#E4F2F2"/>
</svg>
