<svg width="24" height="24" viewBox="0 0 24 24" fill="none" xmlns="http://www.w3.org/2000/svg">
<path d="M19.5 18.9995C20.2886 18.9995 20.9146 19.1535 21.4482 19.4116C21.9615 19.66 22.3501 19.9888 22.6406 20.2309C23.0648 20.5845 23.122 21.2159 22.7686 21.6401C22.415 22.0643 21.7836 22.1216 21.3594 21.7681C21.0504 21.5106 20.8384 21.3388 20.5772 21.2124C20.336 21.0958 20.0109 20.9995 19.5 20.9995C19.0203 20.9995 18.6996 21.0927 18.4482 21.2134C18.1756 21.3443 17.9475 21.5228 17.625 21.7808C17.3225 22.0227 16.9255 22.3443 16.417 22.5884C15.8872 22.8426 15.27 22.9995 14.5 22.9995C13.7114 22.9995 13.0854 22.8456 12.5518 22.5874C12.0385 22.339 11.6499 22.0102 11.3594 21.7681C11.0504 21.5106 10.8384 21.3388 10.5772 21.2124C10.336 21.0958 10.0109 20.9995 9.50001 20.9995C9.02033 20.9995 8.69961 21.0927 8.44825 21.2134C8.1756 21.3443 7.94746 21.5228 7.62501 21.7808C7.32253 22.0227 6.92551 22.3443 6.417 22.5884C5.88721 22.8426 5.27005 22.9995 4.50001 22.9995C3.71139 22.9995 3.08544 22.8456 2.55177 22.5874C2.03853 22.339 1.6499 22.0102 1.35938 21.7681C0.935574 21.4144 0.878032 20.783 1.23145 20.3589C1.58493 19.9349 2.21641 19.8778 2.64063 20.2309C2.94968 20.4885 3.16171 20.6601 3.42286 20.7866C3.66404 20.9033 3.98901 20.9995 4.50001 20.9995C4.9798 20.9995 5.30036 20.9063 5.55177 20.7856C5.82447 20.6547 6.05251 20.4762 6.37501 20.2183C6.67746 19.9763 7.07455 19.6547 7.58302 19.4106C8.11275 19.1564 8.73007 18.9996 9.50001 18.9995C10.2886 18.9995 10.9146 19.1535 11.4482 19.4116C11.9615 19.66 12.3501 19.9888 12.6406 20.2309C12.9497 20.4885 13.1617 20.6601 13.4229 20.7866C13.664 20.9033 13.989 20.9995 14.5 20.9995C14.9798 20.9995 15.3004 20.9063 15.5518 20.7856C15.8245 20.6547 16.0525 20.4762 16.375 20.2183C16.6775 19.9763 17.0746 19.6547 17.583 19.4106C18.1128 19.1564 18.7301 18.9996 19.5 18.9995Z" fill="#E4F2F2"/>
<path d="M19.5 12.9995C20.2886 12.9995 20.9146 13.1535 21.4482 13.4116C21.9615 13.66 22.3501 13.9888 22.6406 14.2309C23.0648 14.5845 23.122 15.2159 22.7686 15.6401C22.415 16.0643 21.7836 16.1216 21.3594 15.7681C21.0504 15.5106 20.8384 15.3388 20.5772 15.2124C20.336 15.0958 20.0109 14.9995 19.5 14.9995C19.0203 14.9995 18.6996 15.0927 18.4482 15.2134C18.1756 15.3443 17.9475 15.5228 17.625 15.7808C17.3225 16.0227 16.9255 16.3443 16.417 16.5884C15.8872 16.8426 15.27 16.9995 14.5 16.9995C13.7114 16.9995 13.0854 16.8456 12.5518 16.5874C12.0385 16.339 11.6499 16.0102 11.3594 15.7681C11.0504 15.5106 10.8384 15.3388 10.5772 15.2124C10.336 15.0958 10.0109 14.9995 9.50001 14.9995C9.02033 14.9995 8.69961 15.0927 8.44825 15.2134C8.1756 15.3443 7.94746 15.5228 7.62501 15.7808C7.32253 16.0227 6.92551 16.3443 6.417 16.5884C5.88721 16.8426 5.27005 16.9995 4.50001 16.9995C3.71139 16.9995 3.08544 16.8456 2.55177 16.5874C2.03853 16.339 1.6499 16.0102 1.35938 15.7681C0.935574 15.4144 0.878032 14.783 1.23145 14.3589C1.58493 13.9349 2.21641 13.8778 2.64063 14.2309C2.94968 14.4885 3.16171 14.6601 3.42286 14.7866C3.66404 14.9033 3.98901 14.9995 4.50001 14.9995C4.9798 14.9995 5.30036 14.9063 5.55177 14.7856C5.82447 14.6547 6.05251 14.4762 6.37501 14.2183C6.67746 13.9763 7.07455 13.6547 7.58302 13.4106C8.11275 13.1564 8.73007 12.9996 9.50001 12.9995C10.2886 12.9995 10.9146 13.1535 11.4482 13.4116C11.9615 13.66 12.3501 13.9888 12.6406 14.2309C12.9497 14.4885 13.1617 14.6601 13.4229 14.7866C13.664 14.9033 13.989 14.9995 14.5 14.9995C14.9798 14.9995 15.3004 14.9063 15.5518 14.7856C15.8245 14.6547 16.0525 14.4762 16.375 14.2183C16.6775 13.9763 17.0746 13.6547 17.583 13.4106C18.1128 13.1564 18.7301 12.9996 19.5 12.9995Z" fill="#E4F2F2"/>
<path d="M15.794 7.81102C16.8277 7.07263 18.4115 6.41648 20.3164 7.05126C20.8401 7.22599 21.1227 7.79214 20.9482 8.31591C20.7735 8.83965 20.2074 9.12236 19.6836 8.94774C18.589 8.58318 17.6721 8.92654 16.9561 9.43798C16.5965 9.6948 16.3084 9.98205 16.1094 10.2075C16.0109 10.3191 15.937 10.4135 15.8897 10.4761C15.8665 10.5068 15.8496 10.5297 15.8399 10.5434L15.8311 10.5542C15.6455 10.8317 15.3339 10.9995 15 10.9995C14.667 10.9994 14.3556 10.8335 14.1699 10.5571L14.169 10.5552L14.168 10.5542C14.1663 10.5518 14.1632 10.5477 14.1602 10.5434C14.1504 10.5297 14.1334 10.5065 14.1104 10.4761C14.063 10.4135 13.9889 10.3189 13.8906 10.2075C13.6917 9.9821 13.4033 9.69466 13.044 9.43798C12.3279 8.92665 11.4109 8.58301 10.3164 8.94774C9.79263 9.12222 9.22651 8.83959 9.05177 8.31591C8.87752 7.79227 9.16014 7.22604 9.6836 7.05126C11.5884 6.41631 13.1722 7.0727 14.2061 7.81102C14.5133 8.03051 14.7781 8.26347 15 8.47899C15.222 8.26338 15.4865 8.03062 15.794 7.81102Z" fill="#E4F2F2"/>
<path d="M1.6836 2.05126C3.58844 1.41631 5.17222 2.0727 6.20606 2.81102C6.57962 3.07785 6.89221 3.36233 7.13868 3.61474C7.36624 3.46404 7.63695 3.30449 7.94825 3.1577C8.99147 2.6659 10.4989 2.30505 12.2871 2.8413C12.8159 2.99992 13.1162 3.55764 12.958 4.08642C12.7993 4.61533 12.2418 4.91586 11.7129 4.75731C10.5019 4.39415 9.50829 4.6333 8.80177 4.9663C8.4445 5.13474 8.16332 5.32693 7.97462 5.47411C7.8809 5.54721 7.81131 5.60767 7.76856 5.64696C7.7476 5.66623 7.73323 5.68046 7.72559 5.68798L7.72169 5.69188C7.51234 5.9104 7.21566 6.02161 6.91407 5.99559C6.61267 5.96934 6.33857 5.80816 6.16993 5.55712L6.16895 5.55517L6.16798 5.55419C6.1663 5.55181 6.1632 5.54774 6.16016 5.54345C6.15039 5.52967 6.13337 5.5065 6.11036 5.47606C6.06303 5.41349 5.98889 5.31886 5.89063 5.20751C5.69166 4.9821 5.40331 4.69466 5.04395 4.43798C4.32791 3.92665 3.41095 3.58301 2.31641 3.94774C1.79263 4.12222 1.22651 3.83959 1.05177 3.31591C0.87752 2.79227 1.16014 2.22604 1.6836 2.05126Z" fill="#E4F2F2"/>
</svg>
