<svg width="24" height="24" viewBox="0 0 24 24" fill="none" xmlns="http://www.w3.org/2000/svg">
<path fill-rule="evenodd" clip-rule="evenodd" d="M18.9995 4C19.5518 4 19.9995 4.44772 19.9995 5C19.9995 5.55228 19.5518 6 18.9995 6C18.7344 6.0001 18.4799 6.10552 18.2925 6.29297C18.1051 6.48049 17.9995 6.73487 17.9995 7V16.2383C18.4321 16.0874 18.923 16 19.4995 16C20.2882 16 20.9141 16.1539 21.4478 16.4121C21.9611 16.6605 22.3496 16.9893 22.6401 17.2314C23.0643 17.585 23.1216 18.2164 22.7681 18.6406C22.4145 19.0647 21.7831 19.122 21.3589 18.7686C21.0498 18.511 20.838 18.3394 20.5767 18.2129C20.3355 18.0962 20.0105 18 19.4995 18C19.0198 18 18.6991 18.0932 18.4478 18.2139C18.1752 18.3448 17.9469 18.5233 17.6245 18.7812C17.3221 19.0232 16.9249 19.3448 16.4165 19.5889C15.8868 19.8431 15.2695 20 14.4995 20C13.7109 20 13.085 19.8461 12.5513 19.5879C12.038 19.3394 11.6494 19.0107 11.3589 18.7686C11.0498 18.511 10.838 18.3394 10.5767 18.2129C10.3355 18.0962 10.0105 18 9.49952 18C9.01984 18 8.69912 18.0932 8.44776 18.2139C8.17518 18.3448 7.94691 18.5233 7.62452 18.7812C7.32206 19.0232 6.92491 19.3448 6.41651 19.5889C5.88675 19.8431 5.26948 20 4.49952 20C3.7109 20 3.08495 19.8461 2.55127 19.5879C2.03796 19.3394 1.64944 19.0107 1.35889 18.7686C0.934956 18.415 0.877648 17.7835 1.23096 17.3594C1.58448 16.9353 2.2159 16.8781 2.64014 17.2314C2.94925 17.489 3.16114 17.6606 3.42237 17.7871C3.66355 17.9038 3.98851 18 4.49952 18C4.97921 18 5.2999 17.9067 5.55127 17.7861C5.70677 17.7115 5.84728 17.6203 5.99952 17.5088V7C5.99952 6.20444 6.31593 5.4415 6.87842 4.87891C7.44095 4.31638 8.204 4.0001 8.99952 4C9.5518 4 9.99952 4.44772 9.99952 5C9.99952 5.55228 9.5518 6 8.99952 6C8.73443 6.0001 8.47994 6.10552 8.29248 6.29297C8.10506 6.48049 7.99952 6.73487 7.99952 7V8H15.9995V7C15.9995 6.20444 16.3159 5.4415 16.8784 4.87891C17.4409 4.31638 18.204 4.0001 18.9995 4ZM7.99952 16.2383C8.43209 16.0874 8.92302 16 9.49952 16C10.2882 16 10.9141 16.1539 11.4478 16.4121C11.9611 16.6605 12.3496 16.9893 12.6401 17.2314C12.9493 17.489 13.1611 17.6606 13.4224 17.7871C13.6636 17.9038 13.9885 18 14.4995 18C14.9792 18 15.2999 17.9067 15.5513 17.7861C15.7068 17.7115 15.8473 17.6203 15.9995 17.5088V14H7.99952V16.2383ZM7.99952 12H15.9995V10H7.99952V12Z" fill="#E4F2F2"/>
</svg>
