<svg width="24" height="24" viewBox="0 0 24 24" fill="none" xmlns="http://www.w3.org/2000/svg">
<path d="M19.5 19C20.2886 19 20.9146 19.1539 21.4482 19.4121C21.9616 19.6605 22.35 19.9893 22.6406 20.2314C23.0648 20.585 23.1221 21.2164 22.7686 21.6406C22.415 22.0647 21.7836 22.122 21.3594 21.7686C21.0503 21.511 20.8385 21.3394 20.5772 21.2129C20.3359 21.0962 20.011 21 19.5 21C19.0203 21 18.6996 21.0932 18.4482 21.2139C18.1757 21.3448 17.9474 21.5233 17.625 21.7812C17.3226 22.0232 16.9254 22.3448 16.417 22.5889C15.8872 22.8431 15.27 23 14.5 23C13.7114 23 13.0854 22.8461 12.5518 22.5879C12.0384 22.3394 11.6499 22.0107 11.3594 21.7686C11.0503 21.511 10.8385 21.3394 10.5772 21.2129C10.3359 21.0962 10.011 21 9.5 21C9.02032 21 8.6996 21.0932 8.44825 21.2139C8.17567 21.3448 7.9474 21.5233 7.625 21.7812C7.32255 22.0232 6.9254 22.3448 6.417 22.5889C5.88724 22.8431 5.26996 23 4.5 23C3.71139 23 3.08544 22.8461 2.55176 22.5879C2.03844 22.3394 1.64993 22.0107 1.35938 21.7686C0.935444 21.415 0.878137 20.7835 1.23145 20.3594C1.58497 19.9353 2.21639 19.8781 2.64063 20.2314C2.94974 20.489 3.16163 20.6606 3.42286 20.7871C3.66404 20.9038 3.989 21 4.5 21C4.9797 21 5.30039 20.9067 5.55176 20.7861C5.82441 20.6553 6.05261 20.4767 6.375 20.2188C6.67743 19.9768 7.07463 19.6552 7.58301 19.4111C8.11275 19.1569 8.73007 19 9.5 19C10.2886 19 10.9146 19.1539 11.4482 19.4121C11.9616 19.6605 12.35 19.9893 12.6406 20.2314C12.9497 20.489 13.1616 20.6606 13.4229 20.7871C13.664 20.9038 13.989 21 14.5 21C14.9797 21 15.3004 20.9067 15.5518 20.7861C15.8244 20.6553 16.0526 20.4767 16.375 20.2188C16.6774 19.9768 17.0746 19.6552 17.583 19.4111C18.1128 19.1569 18.7301 19 19.5 19Z" fill="#E4F2F2"/>
<path fill-rule="evenodd" clip-rule="evenodd" d="M19.001 2C19.4052 2.00025 19.7701 2.2437 19.9248 2.61719C20.0795 2.99071 19.9937 3.42106 19.708 3.70703C17.1091 6.30591 16.4827 10.0952 17.7344 13.3428C18.2299 13.1293 18.802 13 19.5 13C20.2886 13 20.9146 13.1539 21.4482 13.4121C21.9616 13.6605 22.35 13.9893 22.6406 14.2314C23.0648 14.585 23.1221 15.2164 22.7686 15.6406C22.415 16.0647 21.7836 16.122 21.3594 15.7686C21.0503 15.511 20.8385 15.3394 20.5772 15.2129C20.3359 15.0962 20.011 15 19.5 15C19.0203 15 18.6996 15.0932 18.4482 15.2139C18.3149 15.2779 18.1927 15.3538 18.0645 15.4443C17.9838 15.5401 17.8842 15.6226 17.7666 15.6846C17.7515 15.6925 17.7351 15.698 17.7197 15.7051C17.689 15.7295 17.6575 15.7552 17.625 15.7812C17.3226 16.0232 16.9254 16.3448 16.417 16.5889C15.8872 16.8431 15.27 17 14.5 17C13.7114 17 13.0854 16.8461 12.5518 16.5879C12.0384 16.3394 11.6499 16.0107 11.3594 15.7686C11.0503 15.511 10.8385 15.3394 10.5772 15.2129C10.3359 15.0962 10.011 15 9.5 15C9.02032 15 8.6996 15.0932 8.44825 15.2139C8.17567 15.3448 7.9474 15.5233 7.625 15.7812C7.32255 16.0232 6.9254 16.3448 6.417 16.5889C6.15575 16.7142 5.87309 16.8149 5.56153 16.8857C5.4037 16.9681 5.22278 17.0111 5.03223 16.998C4.99213 16.9953 4.95262 16.9897 4.91407 16.9824C4.78112 16.9929 4.64309 17 4.5 17C3.71139 17 3.08544 16.8461 2.55176 16.5879C2.03844 16.3394 1.64993 16.0107 1.35938 15.7686C0.935444 15.415 0.878137 14.7835 1.23145 14.3594C1.58497 13.9353 2.21639 13.8781 2.64063 14.2314C2.94974 14.489 3.16163 14.6606 3.42286 14.7871C3.61254 14.8789 3.85429 14.9567 4.19727 14.9863C5.1642 7.62567 11.3922 2 19.001 2ZM16.7773 4.19141C11.5674 5.08584 7.45214 9.0724 6.35645 14.2324C6.36241 14.2277 6.36898 14.2236 6.375 14.2188C6.67743 13.9768 7.07463 13.6552 7.58301 13.4111C8.11275 13.1569 8.73007 13 9.5 13C10.2886 13 10.9146 13.1539 11.4482 13.4121C11.9616 13.6605 12.35 13.9893 12.6406 14.2314C12.9497 14.489 13.1616 14.6606 13.4229 14.7871C13.664 14.9038 13.989 15 14.5 15C14.9797 15 15.3004 14.9067 15.5518 14.7861C15.7213 14.7048 15.8726 14.6033 16.041 14.4775C14.6144 11.1704 14.8179 7.30335 16.7773 4.19141Z" fill="#E4F2F2"/>
</svg>
