<svg width="24" height="24" viewBox="0 0 24 24" fill="none" xmlns="http://www.w3.org/2000/svg">
<path fill-rule="evenodd" clip-rule="evenodd" d="M12 1C18.0751 1 23 5.92487 23 12C23 16.2761 20.5587 19.9787 16.9951 21.7988L16.9912 21.8018C16.6979 21.967 16.3908 22.1028 16.0762 22.2158C14.8153 22.7193 13.4406 23 12 23C6.18481 22.9998 1.42682 18.4869 1.03029 12.7725C1.00553 12.6735 0.994652 12.5692 1.00197 12.4619C1.00389 12.4339 1.00757 12.4059 1.00978 12.3779C1.00554 12.2524 1.00001 12.1265 1.00001 12C1.00001 5.92499 5.92505 1.0002 12 1ZM8.72462 7.01465C7.25061 7.07843 5.85132 7.6829 4.79494 8.71289C3.77368 9.70877 3.14277 11.035 3.01076 12.4521C3.20724 16.4237 5.97929 19.7164 9.69044 20.6992C9.43332 20.4278 9.20057 20.1323 8.99708 19.8154C8.44942 18.9624 8.12703 17.9841 8.05958 16.9727C7.99217 15.9611 8.18165 14.9485 8.61134 14.0303C9.04111 13.112 9.69765 12.317 10.5176 11.7207C11.3375 11.1246 12.2959 10.746 13.3018 10.6201C13.6912 10.5714 14.0832 10.5613 14.4717 10.5889C14.0943 9.73316 13.5207 8.97005 12.7861 8.36816C11.6448 7.43303 10.1988 6.95102 8.72462 7.01465ZM12 3C9.4164 3.0001 7.0886 4.09029 5.44728 5.83398C6.43503 5.34719 7.52056 5.06492 8.63869 5.0166C10.6042 4.93177 12.5319 5.5744 14.0537 6.82129C15.5756 8.06831 16.5845 9.83237 16.8877 11.7764C16.9429 12.1311 16.8041 12.4881 16.5235 12.7119C16.2425 12.9356 15.8628 12.9916 15.5293 12.8584C14.9017 12.6079 14.2204 12.5207 13.5498 12.6045C12.8792 12.6885 12.24 12.9414 11.6934 13.3389C11.1469 13.7364 10.7093 14.2659 10.4229 14.8779C10.1364 15.4901 10.0097 16.1654 10.0547 16.8398C10.0997 17.5143 10.3155 18.1666 10.6807 18.7354C11.0459 19.3039 11.5491 19.7713 12.1436 20.0928C12.7381 20.4142 13.4052 20.5791 14.0811 20.5732C14.5156 20.5694 14.9449 20.4935 15.3526 20.3525C18.6625 19.0229 21 15.7854 21 12C21 7.02944 16.9706 3 12 3Z" fill="#E4F2F2"/>
</svg>
