<svg width="24" height="24" viewBox="0 0 24 24" fill="none" xmlns="http://www.w3.org/2000/svg">
<path d="M11.5205 5.12204C12.0051 4.85744 12.6131 5.036 12.8779 5.52048L16.0078 11.2509C16.2548 11.7022 16.9652 12 18 12C19.326 12 20.5975 12.5272 21.5352 13.4648C22.4728 14.4024 22.9999 15.674 23 17C23 18.326 22.4728 19.5975 21.5352 20.5351C20.5975 21.4728 19.3261 22 18 22C17.4477 22 17 21.5522 17 21C17.0001 20.4478 17.4478 20 18 20C18.7956 20 19.5585 19.6837 20.1211 19.1211C20.6836 18.5585 21 17.7956 21 17C20.9999 16.2044 20.6836 15.4414 20.1211 14.8789C19.6289 14.3868 18.9834 14.0829 18.2969 14.0146L18 14C16.8353 14 15.0663 13.6979 14.2529 12.2099L14.252 12.209L11.1221 6.47946C10.8575 5.99482 11.0359 5.38675 11.5205 5.12204Z" fill="#E4F2F2"/>
<path d="M1.71875 14.4756C2.00859 14.0058 2.62475 13.8589 3.09473 14.1484C3.56468 14.4382 3.71046 15.0543 3.4209 15.5244C3.15342 15.9581 3.00889 16.4773 3 17.0068C3.00179 17.6732 3.22545 18.3204 3.63574 18.8457C4.04763 19.3729 4.62435 19.7471 5.27344 19.9091C5.92254 20.0712 6.6074 20.0119 7.21875 19.7402C7.82987 19.4685 8.33284 19.0003 8.64746 18.4101L8.6543 18.3965C9.21259 17.3853 10.3186 15.9806 12.0098 15.9804H18C18.5522 15.9804 18.9999 16.4283 19 16.9804C18.9997 17.5325 18.5521 17.9804 18 17.9804H12.0098C11.5013 17.9806 10.9069 18.4548 10.4053 19.3633C9.8805 20.3409 9.04541 21.1164 8.03125 21.5674C7.01234 22.0202 5.87088 22.1196 4.78906 21.8496C3.70723 21.5795 2.74606 20.9558 2.05957 20.0771C1.37321 19.1985 1.00035 18.1149 1 17C0.999997 16.9953 0.999933 16.99 1 16.9853C1.0125 16.1179 1.2478 15.2394 1.71875 14.4756Z" fill="#E4F2F2"/>
<path d="M11.3574 1.04392C12.0191 0.955255 12.6919 1.00027 13.3359 1.17575C13.9801 1.35132 14.5832 1.65421 15.1084 2.06638C15.6336 2.47853 16.0709 2.99227 16.3945 3.57614C16.6619 4.05909 16.4877 4.66785 16.0049 4.93552C15.5221 5.20295 14.9134 5.02832 14.6455 4.54587C14.4513 4.19562 14.189 3.88688 13.874 3.63962C13.5589 3.39235 13.197 3.21078 12.8105 3.10544C12.424 3.0001 12.0201 2.97313 11.623 3.02634C11.2262 3.07953 10.844 3.21182 10.499 3.41501C10.154 3.61838 9.85217 3.88941 9.61328 4.21091C9.37456 4.53234 9.2025 4.89912 9.10742 5.28806C9.01247 5.67695 8.99598 6.08129 9.05957 6.47653C9.12264 6.86819 9.26267 7.24394 9.47168 7.58103C9.81383 8.10699 10.1323 8.75117 10.2812 9.44138C10.4317 10.1393 10.4187 10.9436 10.0088 11.6963L6.87891 17.4765C6.61585 17.9619 6.00895 18.1427 5.52344 17.8799C5.03816 17.6168 4.85842 17.0099 5.12109 16.5244L8.25098 10.7441L8.25293 10.7412C8.37084 10.5253 8.40755 10.241 8.32617 9.86325C8.24326 9.47903 8.04807 9.05967 7.79199 8.66696L7.65527 8.43454C7.37139 7.92561 7.17777 7.37048 7.08496 6.79392C6.97898 6.13493 7.00659 5.46084 7.16504 4.81247C7.32358 4.1641 7.60975 3.55334 8.00781 3.01755C8.40598 2.48169 8.90825 2.0313 9.4834 1.69235C10.0586 1.35344 10.6957 1.1326 11.3574 1.04392Z" fill="#E4F2F2"/>
</svg>
