<svg width="24" height="24" viewBox="0 0 24 24" fill="none" xmlns="http://www.w3.org/2000/svg">
<path d="M1.29297 1.29295C1.68349 0.90243 2.31651 0.90243 2.70703 1.29295L9.79395 8.37987C9.84303 8.42039 9.88863 8.46556 9.92969 8.51561L22.707 21.293C23.0975 21.6835 23.0975 22.3165 22.707 22.707C22.3165 23.0975 21.6835 23.0975 21.293 22.707L20.126 21.54C19.4591 21.8466 18.7311 22.0072 17.9902 22C17.4381 21.9946 16.9947 21.5424 17 20.9902C17.0055 20.438 17.4576 19.9946 18.0098 20C18.1888 20.0017 18.3662 19.9848 18.541 19.9551L16.5859 18H11.9814C11.7487 17.9958 11.4909 18.089 11.1973 18.3379C10.8979 18.5918 10.614 18.9662 10.3682 19.3965L10.3672 19.3955C10.0471 19.9625 9.61965 20.4621 9.10742 20.8642C8.59346 21.2676 8.0042 21.5661 7.375 21.7422C6.74592 21.9181 6.08798 21.9687 5.43945 21.8906C4.79079 21.8124 4.16314 21.6066 3.59375 21.2861C3.02455 20.9657 2.52344 20.5363 2.12012 20.0224C1.71678 19.5085 1.41823 18.9201 1.24219 18.291C1.06614 17.6617 1.01659 17.0032 1.09473 16.3545C1.17291 15.706 1.37792 15.079 1.69824 14.5098C1.96903 14.0286 2.57833 13.8584 3.05957 14.1289C3.51067 14.3828 3.68966 14.934 3.48731 15.3984L3.31055 15.7519C3.19304 16.0192 3.11514 16.303 3.08008 16.5937C3.03335 16.9817 3.06366 17.3756 3.16895 17.7519C3.27419 18.128 3.4523 18.4799 3.69336 18.7871C3.93462 19.0945 4.23469 19.3523 4.5752 19.5439C4.91562 19.7355 5.29092 19.8575 5.67871 19.9043C6.06661 19.951 6.46065 19.9216 6.83692 19.8164C7.21303 19.7111 7.56481 19.5321 7.87207 19.291C8.17943 19.0497 8.43627 18.7497 8.62793 18.4092L8.63184 18.4043C8.94581 17.8548 9.36651 17.2685 9.9043 16.8125C10.4442 16.3548 11.151 15.9898 12 16H14.5859L10.0684 11.4824C10.0465 11.5337 10.0243 11.5854 10 11.6357C9.9942 11.6477 9.98772 11.6601 9.98145 11.6719L6.88184 17.4717C6.62145 17.9584 6.01524 18.1419 5.52832 17.8818C5.04174 17.6214 4.85831 17.0161 5.11817 16.5293L8.2041 10.7539C8.29311 10.566 8.34279 10.3612 8.34863 10.1533C8.3528 10.002 8.33263 9.85116 8.29199 9.70604L1.29297 2.70702C0.902445 2.31649 0.902445 1.68348 1.29297 1.29295Z" fill="#E4F2F2"/>
<path d="M18.751 12.0117C19.8171 12.1752 20.8023 12.6792 21.5586 13.4482C22.3148 14.2173 22.8017 15.2106 22.9473 16.2793C23.0216 16.8264 22.6389 17.3307 22.0918 17.4053C21.5447 17.4796 21.0403 17.0959 20.9658 16.5488C20.8785 15.9076 20.5856 15.312 20.1318 14.8506C19.6782 14.3893 19.0878 14.0864 18.4482 13.9883C17.9026 13.9044 17.5278 13.3943 17.6113 12.8486C17.695 12.3029 18.2053 11.9283 18.751 12.0117Z" fill="#E4F2F2"/>
<path d="M11.4854 5.14256C11.9589 4.85846 12.5732 5.01188 12.8574 5.48534L13.457 6.48534C13.7411 6.9589 13.5878 7.57327 13.1143 7.85741C12.6407 8.14142 12.0263 7.9881 11.7422 7.51463L11.1426 6.51463C10.8585 6.0411 11.0119 5.42675 11.4854 5.14256Z" fill="#E4F2F2"/>
<path d="M10.1787 1.36815C10.9254 1.07071 11.7326 0.957171 12.5322 1.03807C13.3319 1.11904 14.1005 1.39192 14.7725 1.83299C15.4444 2.27408 16.0002 2.87075 16.3926 3.57225C16.6619 4.05421 16.4897 4.66307 16.0078 4.9326C15.5259 5.20203 14.9171 5.02965 14.6475 4.54784C14.4121 4.12706 14.0779 3.76947 13.6748 3.50487C13.2717 3.2403 12.8108 3.07688 12.3311 3.02831C11.8513 2.97974 11.3669 3.04716 10.9189 3.22557C10.4709 3.40406 10.0718 3.68849 9.75684 4.0537C9.39608 4.47137 8.76471 4.51764 8.34668 4.15721C7.92866 3.79649 7.88257 3.16521 8.24317 2.74706C8.76815 2.13845 9.43203 1.6656 10.1787 1.36815Z" fill="#E4F2F2"/>
</svg>
