<svg width="24" height="24" viewBox="0 0 24 24" fill="none" xmlns="http://www.w3.org/2000/svg">
<path fill-rule="evenodd" clip-rule="evenodd" d="M12 1C14.2091 1 16 2.79086 16 5C16 5.72876 15.8044 6.41155 15.4639 7H17.4883L17.7344 7.0127C18.3068 7.06465 18.8548 7.27978 19.3105 7.63574C19.8253 8.03795 20.1934 8.59764 20.3613 9.22852L22.8877 18.1885V18.1904C23.0126 18.6361 23.0326 19.1048 22.9463 19.5596C22.8599 20.0144 22.6693 20.4436 22.3896 20.8125C22.11 21.1812 21.7484 21.4805 21.334 21.6865C20.9715 21.8666 20.5767 21.9716 20.1738 21.9951L20 22H3.98144C3.5284 21.9917 3.08279 21.8808 2.67871 21.6758C2.27458 21.4707 1.92169 21.1763 1.64746 20.8154C1.37332 20.4546 1.18409 20.036 1.09473 19.5918C1.0054 19.1475 1.0185 18.6887 1.13184 18.25L1.13574 18.2344L3.63086 9.19434L3.63183 9.19043C3.80701 8.56559 4.18035 8.01399 4.69531 7.61914C5.21045 7.22434 5.84027 7.00682 6.48926 7H8.53613C8.19564 6.41156 8 5.72875 8 5C8 2.79087 9.79087 1.00001 12 1ZM6.34961 9.01465C6.19136 9.04214 6.04085 9.10739 5.91211 9.20605C5.74057 9.33758 5.61606 9.52139 5.55762 9.72949L3.06738 18.749L3.06836 18.75C3.03061 18.8962 3.02595 19.0493 3.05566 19.1973C3.08545 19.3453 3.14886 19.4852 3.24023 19.6055C3.33159 19.7256 3.4494 19.8242 3.58398 19.8926C3.71841 19.9607 3.86691 19.9972 4.01758 20H19.999C20.1533 19.9999 20.3062 19.9641 20.4443 19.8955C20.5823 19.8269 20.7028 19.7272 20.7959 19.6045C20.8891 19.4815 20.9527 19.3381 20.9814 19.1865C21.0101 19.0354 21.0032 18.8796 20.9619 18.7314L18.4375 9.77148C18.4355 9.76446 18.4335 9.75706 18.4316 9.75C18.3766 9.5368 18.2526 9.34751 18.0791 9.21191C17.9489 9.11025 17.7959 9.0427 17.6348 9.01465L17.4717 9H6.50976L6.34961 9.01465ZM12 3C10.8954 3.00001 10 3.89544 10 5C10 6.10456 10.8954 6.99999 12 7C13.1046 7 14 6.10457 14 5C14 3.89543 13.1046 3 12 3Z" fill="#E4F2F2"/>
</svg>
