<svg width="24" height="24" viewBox="0 0 24 24" fill="none" xmlns="http://www.w3.org/2000/svg">
<path d="M15.0098 14C15.5621 14 16.0098 14.4477 16.0098 15C16.0098 15.5523 15.5621 16 15.0098 16H15C14.4477 16 14 15.5523 14 15C14 14.4477 14.4477 14 15 14H15.0098Z" fill="#E4F2F2"/>
<path fill-rule="evenodd" clip-rule="evenodd" d="M20.2969 2.01465C20.9835 2.08291 21.6289 2.38671 22.1211 2.87891C22.6837 3.44151 23 4.20435 23 5C23 5.55228 22.5523 6 22 6C21.4477 6 21 5.55228 21 5C21 4.73478 20.8946 4.48051 20.707 4.29297C20.5429 4.12883 20.3276 4.02757 20.0986 4.00488L20 4C19.7348 4 19.4805 4.10543 19.293 4.29297C19.1054 4.48051 19 4.73478 19 5V8.33301C21.3471 9.1437 23 11.3515 23 14V17C23 19.2523 21.2523 21 19 21H6.99707C5.70354 20.9966 4.44568 20.5753 3.41113 19.7988C2.3764 19.022 1.62021 17.931 1.25586 16.6895C0.891545 15.448 0.937846 14.1219 1.38867 12.9092C1.83952 11.6964 2.67098 10.662 3.75781 9.95996L3.76562 9.9541L4.13477 9.7207L3.37402 9.25C1.85999 8.35552 1 6.72195 1 5V3C1 2.44772 1.44772 2 2 2C3.30058 2 4.50488 2.63476 5.30469 3.16797C5.56843 3.3438 5.80174 3.52128 6 3.67871C6.19826 3.52128 6.43157 3.3438 6.69531 3.16797C7.49512 2.63476 8.69942 2 10 2C10.5523 2 11 2.44772 11 3V5C11 6.71922 10.1424 8.34874 8.63281 9.24414L8.63379 9.24512L7 10.2764V12.9736L7.0166 13.1328C7.04622 13.2899 7.11317 13.4385 7.21289 13.5654C7.34597 13.7346 7.53049 13.8569 7.73828 13.9131C7.9461 13.9693 8.16698 13.957 8.36719 13.8779C8.56732 13.7988 8.73636 13.6566 8.84961 13.4736C8.8526 13.4688 8.85532 13.4638 8.8584 13.459L9.75879 12.0596C11.2444 9.57124 13.9622 8 17 8V5C17 4.73478 16.8946 4.48051 16.707 4.29297C16.5429 4.12883 16.3276 4.02757 16.0986 4.00488L16 4C15.7348 4 15.4805 4.10543 15.293 4.29297C15.1054 4.48051 15 4.73478 15 5C15 5.55228 14.5523 6 14 6C13.4477 6 13 5.55228 13 5C13 4.20435 13.3163 3.44151 13.8789 2.87891C14.4415 2.3163 15.2044 2 16 2L16.2969 2.01465C16.9293 2.07751 17.525 2.34196 18 2.76758C18.5487 2.27587 19.2594 2 20 2L20.2969 2.01465ZM17 10C14.6509 10 12.5796 11.2155 11.4609 13.1084C11.4546 13.1191 11.4481 13.1301 11.4414 13.1406L10.5498 14.5254C10.21 15.0746 9.70219 15.5 9.10156 15.7373C8.50105 15.9746 7.84013 16.0122 7.2168 15.8438C6.59348 15.6753 6.04087 15.3102 5.6416 14.8027C5.24234 14.2952 5.01697 13.6719 5 13.0264V11.54L4.84277 11.6396L4.5791 11.8262C3.98367 12.2828 3.52664 12.8991 3.26367 13.6064C2.96322 14.4148 2.93205 15.2985 3.1748 16.126C3.41771 16.9536 3.92151 17.6814 4.61133 18.1992C5.30114 18.717 6.14039 18.9978 7.00293 19H19C20.1477 19 21 18.1477 21 17V14C21 12.0438 19.6727 10.4631 17.8467 10.0859C17.8203 10.0819 17.7942 10.0774 17.7686 10.0713C17.5205 10.0251 17.2637 10 17 10ZM9 4.20605C8.59418 4.35742 8.1849 4.57856 7.80469 4.83203C7.47085 5.05459 7.1903 5.27816 6.99414 5.44629C6.89658 5.52991 6.82188 5.59939 6.77246 5.64551C6.7479 5.66844 6.72978 5.68561 6.71875 5.69629C6.71324 5.70162 6.70893 5.70516 6.70703 5.70703L6.63086 5.77539C6.26427 6.07438 5.73573 6.07438 5.36914 5.77539L5.29297 5.70703C5.29107 5.70516 5.28676 5.70162 5.28125 5.69629C5.27022 5.68561 5.2521 5.66844 5.22754 5.64551C5.17812 5.59939 5.10342 5.52991 5.00586 5.44629C4.8097 5.27816 4.52915 5.05459 4.19531 4.83203C3.8151 4.57856 3.40582 4.35742 3 4.20605V5C3 6.00243 3.46755 6.90732 4.24414 7.43555L4.4043 7.53613L4.42676 7.5498L6.01562 8.5332L7.56641 7.55469L7.5957 7.53613C8.46744 7.02762 9 6.06939 9 5V4.20605Z" fill="#E4F2F2"/>
</svg>
