<svg width="24" height="24" viewBox="0 0 24 24" fill="none" xmlns="http://www.w3.org/2000/svg">
<path d="M15.0098 14C15.562 14 16.0098 14.4477 16.0098 15C16.0098 15.5523 15.5621 16 15.0098 16H15C14.4477 16 14 15.5523 14 15C14 14.4477 14.4477 14 15 14H15.0098Z" fill="#E4F2F2"/>
<path fill-rule="evenodd" clip-rule="evenodd" d="M20.4453 2.14846C20.7521 1.94393 21.1466 1.92475 21.4717 2.09866C21.7967 2.2727 22 2.61177 22 2.98049C22 5.06121 21.74 6.87896 21.4805 8.17678C21.3597 8.78044 21.2367 9.27356 21.1406 9.63186C22.2897 10.72 23 12.2651 23 14V17C23 19.2523 21.2523 21 19 21H6.99707C5.70354 20.9966 4.44568 20.5753 3.41113 19.7989C2.3764 19.0221 1.62021 17.931 1.25586 16.6895C0.891551 15.448 0.937848 14.1219 1.38867 12.9092C1.83952 11.6965 2.67099 10.662 3.75781 9.95998L3.76562 9.95412L4.13477 9.72073L3.37402 9.25002C1.85999 8.35554 1 6.72197 1 5.00002V3.00002C1.00001 2.44775 1.44772 2.00002 2 2.00002C3.30058 2.00002 4.50488 2.63479 5.30469 3.16799C5.56843 3.34382 5.80174 3.5213 6 3.67873C6.19826 3.5213 6.43157 3.34382 6.69531 3.16799C7.49512 2.63479 8.69942 2.00002 10 2.00002C10.5523 2.00002 11 2.44775 11 3.00002V5.00002C11 6.71924 10.1424 8.34876 8.63281 9.24416L8.63379 9.24514L7 10.2764V12.9737L7.0166 13.1328C7.04622 13.2899 7.11317 13.4385 7.21289 13.5655C7.34597 13.7346 7.53049 13.8569 7.73828 13.9131C7.9461 13.9693 8.16698 13.9571 8.36719 13.878C8.56731 13.7988 8.73636 13.6567 8.84961 13.4737C8.8526 13.4688 8.85532 13.4638 8.8584 13.459L9.75879 12.0596C10.9657 10.0381 12.9858 8.62138 15.3301 8.16116C15.3772 8.07313 15.4279 7.97406 15.4873 7.86819C15.735 7.42692 16.0958 6.8293 16.5537 6.16994C17.459 4.86632 18.794 3.24937 20.4453 2.14846ZM17 10C14.6509 10 12.5796 11.2155 11.4609 13.1084C11.4546 13.1191 11.4481 13.1302 11.4414 13.1406L10.5498 14.5254C10.21 15.0746 9.70219 15.5 9.10156 15.7373C8.50105 15.9746 7.84013 16.0122 7.2168 15.8438C6.59348 15.6753 6.04087 15.3102 5.6416 14.8028C5.24234 14.2952 5.01696 13.6719 5 13.0264V11.5401L4.84277 11.6397L4.5791 11.8262C3.98367 12.2828 3.52664 12.8991 3.26367 13.6065C2.96322 14.4148 2.93205 15.2985 3.1748 16.126C3.41771 16.9537 3.92151 17.6814 4.61133 18.1992C5.30114 18.7171 6.14039 18.9978 7.00293 19H19C20.1477 19 21 18.1477 21 17V14C21 12.6821 20.3968 11.5355 19.4453 10.8115C19.4194 10.7943 19.395 10.7753 19.3711 10.7559C18.7123 10.2789 17.8957 10 17 10ZM9 4.20608C8.59418 4.35745 8.1849 4.57858 7.80469 4.83205C7.47086 5.0546 7.1903 5.27818 6.99414 5.44631C6.89659 5.52992 6.82188 5.59941 6.77246 5.64553C6.7479 5.66845 6.72978 5.68564 6.71875 5.69631C6.71325 5.70163 6.70894 5.70518 6.70703 5.70705L6.63086 5.77541C6.26427 6.07441 5.73573 6.07441 5.36914 5.77541L5.29297 5.70705C5.29106 5.70518 5.28675 5.70163 5.28125 5.69631C5.27022 5.68564 5.2521 5.66845 5.22754 5.64553C5.17812 5.59941 5.10341 5.52992 5.00586 5.44631C4.8097 5.27818 4.52914 5.0546 4.19531 4.83205C3.8151 4.57858 3.40582 4.35745 3 4.20608V5.00002C3 6.00245 3.46756 6.90734 4.24414 7.43557L4.4043 7.53616L4.42676 7.54983L6.01562 8.53323L7.56641 7.55471L7.5957 7.53616C8.46743 7.02764 9 6.06941 9 5.00002V4.20608ZM19.8906 5.23147C19.2426 5.90155 18.6682 6.63108 18.1963 7.31057C18.0181 7.56715 17.8569 7.81358 17.7129 8.04201C18.2956 8.10882 18.8513 8.25499 19.3682 8.47268C19.4162 8.26607 19.4691 8.03619 19.5195 7.7842C19.6601 7.08148 19.7982 6.21386 19.8906 5.23147Z" fill="#E4F2F2"/>
</svg>
