<svg width="24" height="24" viewBox="0 0 24 24" fill="none" xmlns="http://www.w3.org/2000/svg">
<path fill-rule="evenodd" clip-rule="evenodd" d="M1.29297 1.29297C1.6835 0.902482 2.31652 0.902457 2.70703 1.29297L12.1348 10.7207C12.1915 10.7663 12.2427 10.8177 12.2881 10.874L13.1211 11.707C13.1796 11.7534 13.2323 11.8067 13.2793 11.8652L22.707 21.293C23.0975 21.6835 23.0975 22.3165 22.707 22.707C22.3165 23.0975 21.6835 23.0975 21.293 22.707L15.9941 17.4082C15.3846 17.9518 14.6416 18.3162 13.8467 18.4688C14.0893 18.8551 14.0432 19.3718 13.707 19.708L12.1768 21.2373L12.1758 21.2393C11.3852 22.0266 10.3319 22.49 9.22266 22.5449L9 22.5508C7.80978 22.5508 6.66758 22.0791 5.82422 21.2393L5.82324 21.2373L4.99902 20.4141L2.70703 22.707C2.31652 23.0975 1.6835 23.0975 1.29297 22.707C0.902445 22.3165 0.902445 21.6835 1.29297 21.293L3.58496 19L2.7627 18.1768L2.76074 18.1758C1.92085 17.3324 1.44922 16.1903 1.44922 15C1.44922 13.8097 1.92085 12.6676 2.76074 11.8242L2.7627 11.8232L4.29199 10.293C4.62786 9.9571 5.144 9.9105 5.53027 10.1523C5.68268 9.35755 6.04735 8.61434 6.59082 8.00488L1.29297 2.70703C0.902445 2.31651 0.902445 1.68349 1.29297 1.29297ZM9 17.4502C8.34384 17.4502 7.71356 17.7071 7.24609 18.167L6.79102 18.623L6.41406 19L7.23731 19.8232C7.70574 20.2892 8.33924 20.5508 9 20.5508L9.24609 20.5381C9.81633 20.4817 10.3528 20.2307 10.7627 19.8232L11.585 19L10.7627 18.1777C10.2943 17.7122 9.66042 17.4502 9 17.4502ZM4.17676 13.2373L4.17578 13.2363C3.71008 13.7047 3.44922 14.3394 3.44922 15C3.44922 15.6603 3.71039 16.2943 4.17578 16.7627L4.99902 17.585L5.82227 16.7627C6.28808 16.2943 6.54981 15.6607 6.54981 15L6.53711 14.7539C6.48067 14.1834 6.23015 13.6463 5.82227 13.2363L4.99902 12.4141L4.17676 13.2373ZM12.1787 13.5928C11.826 13.7145 11.5029 13.9138 11.2354 14.1797L10.4141 15L11.2354 15.8213C11.7039 16.2879 12.3387 16.5508 13 16.5508C13.5764 16.5508 14.1316 16.3496 14.5752 15.9893L12.1787 13.5928ZM8.00879 9.42285C7.64847 9.86662 7.44922 10.4233 7.44922 11C7.44922 11.6603 7.71039 12.2943 8.17578 12.7627L8.99902 13.585L9.82227 12.7627C10.0943 12.4907 10.2891 12.166 10.4072 11.8213L8.00879 9.42285Z" fill="#E4F2F2"/>
<path fill-rule="evenodd" clip-rule="evenodd" d="M22 1C22.5522 1.00004 23 1.44774 23 2V4C23 5.32607 22.4728 6.59748 21.5352 7.53516C21.0858 7.98447 20.5592 8.33798 19.9873 8.58594C20.0002 8.59742 20.0136 8.60848 20.0264 8.62012L20.1748 8.76172L20.1768 8.7627L21.707 10.293C21.8945 10.4804 21.9999 10.7349 22 11C21.9999 11.265 21.8943 11.5196 21.707 11.707L20.1768 13.2373C19.8939 13.5201 19.5736 13.7632 19.2393 13.9561C18.761 14.2317 18.149 14.068 17.873 13.5898C17.5974 13.1116 17.7622 12.4997 18.2402 12.2236C18.4255 12.1167 18.6058 11.9801 18.7627 11.8232L19.585 11L18.7627 10.1777C18.3316 9.74965 17.7588 9.4929 17.1523 9.45605C16.5449 9.41931 15.9439 9.60546 15.4639 9.97949C15.0555 10.2971 14.4781 10.2479 14.1279 9.88184L14.1172 9.87109C13.7516 9.52069 13.7035 8.94331 14.0215 8.53516C14.3954 8.05511 14.5817 7.45504 14.5449 6.84766C14.5082 6.24107 14.2514 5.6685 13.8232 5.2373L13 4.41406L12.1777 5.2373C12.0207 5.39435 11.8834 5.57429 11.7764 5.75977C11.5004 6.23807 10.8885 6.40182 10.4102 6.12598C9.93213 5.84997 9.7683 5.23897 10.0439 4.76074C10.2368 4.42643 10.48 4.10605 10.7627 3.82324L12.293 2.29297C12.4805 2.10554 12.7349 2.00004 13 2C13.2651 2.00006 13.5196 2.10554 13.707 2.29297L15.2373 3.82324L15.2393 3.82422C15.2995 3.8848 15.3566 3.94812 15.4131 4.01172C15.661 3.44003 16.0156 2.91404 16.4648 2.46484C17.4025 1.52719 18.6739 1 20 1H22ZM20 3C19.2044 3 18.4415 3.31632 17.8789 3.87891C17.3163 4.44152 17 5.20435 17 6V7H18L18.2969 6.98535C18.9835 6.91708 19.6289 6.61327 20.1211 6.12109C20.6837 5.55849 21 4.79563 21 4V3H20Z" fill="#E4F2F2"/>
</svg>
