<svg width="24" height="24" viewBox="0 0 24 24" fill="none" xmlns="http://www.w3.org/2000/svg">
<path fill-rule="evenodd" clip-rule="evenodd" d="M22 1C22.5522 1.00004 23 1.44774 23 2V4C23 5.32607 22.4728 6.59748 21.5352 7.53516C21.0858 7.98447 20.5592 8.33798 19.9873 8.58594C19.9958 8.59352 20.0052 8.60075 20.0137 8.6084L20.1758 8.76172L20.1768 8.76367L21.707 10.293C21.8943 10.4804 21.9999 10.7351 22 11C21.9999 11.2651 21.8945 11.5206 21.707 11.708L20.1768 13.2373L20.1758 13.2393C19.5353 13.8771 18.722 14.301 17.8467 14.4688C18.0893 14.8551 18.0432 15.3718 17.707 15.708L16.1768 17.2373L16.1758 17.2393C15.5353 17.8771 14.722 18.301 13.8467 18.4688C14.0893 18.8551 14.0432 19.3718 13.707 19.708L12.1768 21.2373L12.1758 21.2393C11.3852 22.0266 10.3319 22.49 9.22266 22.5449L9 22.5508C7.80978 22.5508 6.66758 22.0791 5.82422 21.2393L5.82324 21.2373L4.99902 20.4141L2.70703 22.707C2.31652 23.0975 1.6835 23.0975 1.29297 22.707C0.902445 22.3165 0.902445 21.6835 1.29297 21.293L3.58496 19L2.7627 18.1768L2.76074 18.1758C1.92085 17.3324 1.44922 16.1903 1.44922 15C1.44922 13.8097 1.92085 12.6676 2.76074 11.8242L2.7627 11.8232L4.29199 10.293C4.62786 9.9571 5.144 9.9105 5.53027 10.1523C5.69807 9.27728 6.12303 8.46457 6.76074 7.82422L6.7627 7.82324L8.29199 6.29297C8.62786 5.9571 9.144 5.9105 9.53027 6.15234C9.69807 5.27728 10.123 4.46457 10.7607 3.82422L10.7627 3.82324L12.292 2.29297C12.4793 2.10564 12.7341 2.00024 12.999 2C13.2641 2 13.5195 2.10557 13.707 2.29297L15.2363 3.82324L15.2383 3.82422C15.2988 3.88503 15.3574 3.9479 15.4141 4.01172C15.662 3.44016 16.0157 2.91395 16.4648 2.46484C17.4025 1.52719 18.6739 1 20 1H22ZM9 17.4502C8.34384 17.4502 7.71356 17.7071 7.24609 18.167L6.79102 18.623L6.41406 19L7.23731 19.8232C7.70574 20.2892 8.33924 20.5508 9 20.5508L9.24609 20.5381C9.81633 20.4817 10.3528 20.2307 10.7627 19.8232L11.585 19L10.7627 18.1777C10.2943 17.7122 9.66042 17.4502 9 17.4502ZM4.17676 13.2373L4.17578 13.2363C3.71008 13.7047 3.44922 14.3394 3.44922 15C3.44922 15.6603 3.71039 16.2943 4.17578 16.7627L4.99902 17.585L5.82227 16.7627C6.28808 16.2943 6.54981 15.6607 6.54981 15L6.53711 14.7539C6.48067 14.1834 6.23015 13.6463 5.82227 13.2363L4.99902 12.4141L4.17676 13.2373ZM12.7539 13.4619C12.1835 13.5183 11.6462 13.7691 11.2363 14.1768L10.4141 15L11.2373 15.8232C11.7057 16.2892 12.3392 16.5508 13 16.5508C13.6605 16.5508 14.2943 16.2889 14.7627 15.8232L15.585 15L14.7627 14.1777C14.2943 13.7122 13.6604 13.4502 13 13.4502L12.7539 13.4619ZM8.17676 9.2373L8.17578 9.23633C7.71008 9.70472 7.44922 10.3394 7.44922 11C7.44922 11.6603 7.71039 12.2943 8.17578 12.7627L8.99902 13.585L9.82227 12.7627C10.2881 12.2943 10.5498 11.6607 10.5498 11L10.5371 10.7539C10.4807 10.1834 10.2302 9.64626 9.82227 9.23633L8.99902 8.41406L8.17676 9.2373ZM16.7539 9.46191C16.1891 9.51775 15.6574 9.76444 15.249 10.165L15.1377 10.2754L14.4141 11L15.2373 11.8232C15.7057 12.2892 16.3392 12.5508 17 12.5508L17.2461 12.5381C17.8163 12.4817 18.3528 12.2307 18.7627 11.8232L19.585 11L18.7627 10.1777C18.2943 9.71222 17.6604 9.45022 17 9.4502L16.7539 9.46191ZM12.1768 5.2373L12.1758 5.23633C11.7101 5.70472 11.4492 6.33943 11.4492 7C11.4492 7.66034 11.7104 8.29435 12.1758 8.7627L12.999 9.58496L13.8223 8.7627C14.2881 8.29428 14.5498 7.66066 14.5498 7C14.5498 6.33911 14.2884 5.70479 13.8223 5.23633L12.999 4.41406L12.1768 5.2373ZM20 3C19.2044 3 18.4415 3.31632 17.8789 3.87891C17.3163 4.44152 17 5.20435 17 6V7H18L18.2969 6.98535C18.9835 6.91708 19.6289 6.61327 20.1211 6.12109C20.6837 5.55849 21 4.79563 21 4V3H20Z" fill="#E4F2F2"/>
</svg>
