<svg width="24" height="24" viewBox="0 0 24 24" fill="none" xmlns="http://www.w3.org/2000/svg">
<path fill-rule="evenodd" clip-rule="evenodd" d="M12 1C18.0751 1 23 5.92487 23 12C23 18.0751 18.0751 23 12 23C5.92487 23 1 18.0751 1 12C1 5.92487 5.92487 1 12 1ZM6.38281 19.0303C7.6776 20.0662 9.26404 20.7504 11 20.9424V15.3535C10.7672 15.2842 10.5447 15.1918 10.335 15.0781L6.38281 19.0303ZM13.6641 15.0781C13.4546 15.1916 13.2325 15.2843 13 15.3535V20.9424C14.7354 20.7505 16.3207 20.0656 17.6152 19.0303L13.6641 15.0781ZM3.05664 13C3.2485 14.7353 3.93359 16.3207 4.96875 17.6152L8.91992 13.6641C8.80659 13.4547 8.71465 13.2323 8.64551 13H3.05664ZM15.3545 13C15.2853 13.2326 15.1917 13.4545 15.0781 13.6641L19.0303 17.6152C20.0656 16.3206 20.7515 14.7355 20.9434 13H15.3545ZM12 10.5C11.1716 10.5 10.5 11.1716 10.5 12C10.5 12.8284 11.1716 13.5 12 13.5C12.8284 13.5 13.5 12.8284 13.5 12C13.5 11.1716 12.8284 10.5 12 10.5ZM4.96875 6.38379C3.93333 7.6784 3.24853 9.26448 3.05664 11H8.64551C8.71474 10.7674 8.8064 10.5445 8.91992 10.335L4.96875 6.38379ZM15.0781 10.335C15.1918 10.5448 15.2852 10.7671 15.3545 11H20.9434C20.7514 9.264 20.0662 7.67762 19.0303 6.38281L15.0781 10.335ZM11 3.05664C9.26448 3.24853 7.6784 3.93333 6.38379 4.96875L10.335 8.91992C10.5445 8.8064 10.7674 8.71474 11 8.64551V3.05664ZM13 8.64551C13.2323 8.71465 13.4547 8.80659 13.6641 8.91992L17.6152 4.96875C16.3207 3.93359 14.7353 3.2485 13 3.05664V8.64551Z" fill="#E4F2F2"/>
</svg>
