<svg width="24" height="24" viewBox="0 0 24 24" fill="none" xmlns="http://www.w3.org/2000/svg">
<path fill-rule="evenodd" clip-rule="evenodd" d="M6 1C6.55228 1 7 1.44772 7 2V9.69336L7.00195 9.69629C7.11388 9.86298 7.27316 10.1025 7.46387 10.3965C7.8448 10.9838 8.35439 11.7926 8.86523 12.6738C9.37412 13.5517 9.89402 14.519 10.29 15.4199C10.6678 16.2795 11 17.2226 11 18C11 20.7523 8.75229 23 6 23C3.24772 23 1 20.7523 1 18C1 17.2226 1.33216 16.2795 1.70996 15.4199C2.10598 14.519 2.62588 13.5517 3.13477 12.6738C3.64561 11.7926 4.1552 10.9838 4.53613 10.3965C4.72684 10.1025 4.88612 9.86298 4.99805 9.69629L5 9.69336V2C5 1.44772 5.44772 1 6 1ZM4.86523 13.6768C4.3742 14.5238 3.89396 15.4194 3.54004 16.2246C3.16802 17.071 3 17.6776 3 18C3 19.2971 3.83954 20.4069 5 20.8223V13.4512C4.95585 13.5262 4.90941 13.6006 4.86523 13.6768ZM7 20.8223C8.16046 20.4069 9 19.2971 9 18C9 17.6776 8.83198 17.071 8.45996 16.2246C8.10604 15.4194 7.6258 14.5238 7.13477 13.6768C7.09059 13.6006 7.04415 13.5262 7 13.4512V20.8223Z" fill="#E4F2F2"/>
<path fill-rule="evenodd" clip-rule="evenodd" d="M18 1C18.5523 1 19 1.44772 19 2V9.69336L19.002 9.69629C19.1139 9.86298 19.2732 10.1025 19.4639 10.3965C19.8448 10.9838 20.3544 11.7926 20.8652 12.6738C21.3741 13.5517 21.894 14.519 22.29 15.4199C22.6678 16.2795 23 17.2226 23 18C23 20.7523 20.7523 23 18 23C15.2477 23 13 20.7523 13 18C13 17.2226 13.3322 16.2795 13.71 15.4199C14.106 14.519 14.6259 13.5517 15.1348 12.6738C15.6456 11.7926 16.1552 10.9838 16.5361 10.3965C16.7268 10.1025 16.8861 9.86298 16.998 9.69629L17 9.69336V2C17 1.44772 17.4477 1 18 1ZM16.8652 13.6768C16.3742 14.5238 15.894 15.4194 15.54 16.2246C15.168 17.071 15 17.6776 15 18C15 19.2971 15.8395 20.4069 17 20.8223V13.4512C16.9559 13.5262 16.9094 13.6006 16.8652 13.6768ZM19 20.8223C20.1605 20.4069 21 19.2971 21 18C21 17.6776 20.832 17.071 20.46 16.2246C20.106 15.4194 19.6258 14.5238 19.1348 13.6768C19.0906 13.6006 19.0441 13.5262 19 13.4512V20.8223Z" fill="#E4F2F2"/>
</svg>
