<svg width="24" height="24" viewBox="0 0 24 24" fill="none" xmlns="http://www.w3.org/2000/svg">
<path fill-rule="evenodd" clip-rule="evenodd" d="M6 1C8.75229 1 11 3.24772 11 6C11 6.77744 10.6678 7.72054 10.29 8.58008C9.89402 9.48101 9.37412 10.4483 8.86523 11.3262C8.35439 12.2074 7.8448 13.0162 7.46387 13.6035C7.27316 13.8975 7.11388 14.137 7.00195 14.3037L7 14.3057V22C7 22.5523 6.55228 23 6 23C5.44772 23 5 22.5523 5 22V14.3057L4.99805 14.3037C4.88612 14.137 4.72684 13.8975 4.53613 13.6035C4.1552 13.0162 3.64561 12.2074 3.13477 11.3262C2.62588 10.4483 2.10598 9.48101 1.70996 8.58008C1.33216 7.72054 1 6.77744 1 6C1 3.24772 3.24772 1 6 1ZM5 3.17676C3.83938 3.59204 3 4.70278 3 6C3 6.32244 3.16802 6.92896 3.54004 7.77539C3.89396 8.58056 4.3742 9.4762 4.86523 10.3232C4.90984 10.4002 4.95542 10.476 5 10.5518V3.17676ZM7 10.5518C7.04459 10.476 7.09016 10.4002 7.13477 10.3232C7.6258 9.4762 8.10604 8.58056 8.45996 7.77539C8.83198 6.92896 9 6.32244 9 6C9 4.70278 8.16062 3.59204 7 3.17676V10.5518Z" fill="#E4F2F2"/>
<path d="M14 1C14.5523 1 15 1.44772 15 2V15H16L16.2969 15.0146C16.9835 15.0829 17.6289 15.3867 18.1211 15.8789C18.6837 16.4415 19 17.2043 19 18V22C19 22.5523 18.5523 23 18 23C17.4477 23 17 22.5523 17 22V18C17 17.7348 16.8946 17.4805 16.707 17.293C16.5195 17.1054 16.2652 17 16 17H15V22C15 22.5523 14.5523 23 14 23C13.4477 23 13 22.5523 13 22V17H12C11.7348 17 11.4805 17.1054 11.293 17.293C11.1054 17.4805 11 17.7348 11 18V22C11 22.5523 10.5523 23 10 23C9.44771 23 9 22.5523 9 22V18C9 17.2043 9.3163 16.4415 9.87891 15.8789C10.4415 15.3163 11.2043 15 12 15H13V2C13 1.44772 13.4477 1 14 1Z" fill="#E4F2F2"/>
<path fill-rule="evenodd" clip-rule="evenodd" d="M22 1C22.2652 1 22.5195 1.10543 22.707 1.29297C22.8946 1.48051 23 1.73478 23 2V22C23 22.5523 22.5523 23 22 23C21.4477 23 21 22.5523 21 22V14H20C19.2043 14 18.4415 13.6837 17.8789 13.1211C17.3163 12.5585 17 11.7957 17 11V6C17 4.67392 17.5272 3.40253 18.4648 2.46484C19.4025 1.52716 20.6739 1 22 1ZM21 3.1748C20.5825 3.32259 20.1981 3.55976 19.8789 3.87891C19.3163 4.44152 19 5.20435 19 6V11C19 11.2652 19.1054 11.5195 19.293 11.707C19.4805 11.8946 19.7348 12 20 12H21V3.1748Z" fill="#E4F2F2"/>
</svg>
