<svg width="24" height="24" viewBox="0 0 24 24" fill="none" xmlns="http://www.w3.org/2000/svg">
<path fill-rule="evenodd" clip-rule="evenodd" d="M21.293 1.29296C21.6835 0.90248 22.3165 0.902538 22.707 1.29296C23.0974 1.6835 23.0975 2.31656 22.707 2.70702L15.9004 9.51269C15.8884 9.55919 15.8753 9.61162 15.8604 9.66894C15.7899 9.93902 15.687 10.3266 15.5576 10.7969C15.299 11.7368 14.9324 13.0135 14.502 14.3555C14.0725 15.6944 13.5736 17.1156 13.0498 18.3379C12.5451 19.5155 11.9572 20.656 11.3066 21.3066C10.7476 21.8656 10.0839 22.3098 9.35352 22.6123C8.62323 22.9147 7.84024 23.0703 7.0498 23.0703C6.25937 23.0703 5.47638 22.9147 4.74609 22.6123C4.01572 22.3097 3.35198 21.8656 2.79297 21.3066C2.78157 21.2952 2.77107 21.283 2.75977 21.2715C2.75445 21.2664 2.74839 21.2621 2.74316 21.2568C2.72795 21.2416 2.71422 21.2249 2.7002 21.209C2.18537 20.6706 1.77265 20.0424 1.4873 19.3535C1.18489 18.6233 1.02932 17.8402 1.0293 17.0498C1.02932 16.2594 1.18487 15.4764 1.4873 14.7461C1.7865 14.0238 2.22412 13.3666 2.77441 12.8115L2.89844 12.6875C3.54455 12.075 4.60624 11.5188 5.69434 11.0381C6.90291 10.5042 8.31497 9.99284 9.64746 9.55077C10.9833 9.10759 12.257 8.72805 13.1953 8.45995C13.6646 8.32588 14.0514 8.21973 14.3213 8.14648C14.3807 8.13036 14.4346 8.11532 14.4824 8.10253L21.293 1.29296ZM4.94141 20.4717C5.12293 20.5837 5.31277 20.6826 5.51074 20.7646C5.99845 20.9667 6.52191 21.0703 7.0498 21.0703C7.57751 21.0703 8.10033 20.9665 8.58789 20.7646C9.07558 20.5626 9.51929 20.2658 9.89258 19.8926C10.2419 19.5432 10.7043 18.7341 11.2119 17.5498C11.7005 16.4097 12.1772 15.055 12.5977 13.7441C12.7447 13.2858 12.882 12.8338 13.0117 12.4014L4.94141 20.4717ZM11.542 11.043C11.1332 11.1707 10.7081 11.3063 10.2773 11.4492C8.97261 11.8821 7.62752 12.3709 6.50195 12.8682C5.32895 13.3864 4.54626 13.8499 4.22461 14.1885C4.21883 14.1946 4.21296 14.2011 4.20703 14.207C3.8338 14.5803 3.53697 15.024 3.33496 15.5117C3.1331 15.9993 3.02932 16.5221 3.0293 17.0498C3.02932 17.5777 3.13294 18.1011 3.33496 18.5889C3.39817 18.7414 3.47153 18.8892 3.55273 19.0322L11.542 11.043Z" fill="#E4F2F2"/>
</svg>
