<svg width="24" height="24" viewBox="0 0 24 24" fill="none" xmlns="http://www.w3.org/2000/svg">
<path d="M12.0098 19C12.562 19.0001 13.0098 19.4478 13.0098 20C13.0098 20.5522 12.562 20.9999 12.0098 21H12C11.4477 21 11 20.5523 11 20C11 19.4477 11.4477 19 12 19H12.0098Z" fill="#E4F2F2"/>
<path d="M12 14C13.5705 14 15.0787 14.6155 16.2002 15.7148C16.5944 16.1014 16.6004 16.7346 16.2139 17.1289C15.8273 17.5232 15.1942 17.5299 14.7998 17.1436C14.0521 16.4107 13.047 16 12 16C10.953 16 9.94792 16.4107 9.20021 17.1436C8.80587 17.53 8.17274 17.5231 7.78615 17.1289C7.39963 16.7345 7.4055 16.1014 7.79982 15.7148C8.92139 14.6155 10.4295 14 12 14Z" fill="#E4F2F2"/>
</svg>
