<svg width="24" height="24" viewBox="0 0 24 24" fill="none" xmlns="http://www.w3.org/2000/svg">
<path d="M12.0098 19C12.562 19.0001 13.0098 19.4478 13.0098 20C13.0098 20.5522 12.562 20.9999 12.0098 21H12C11.4477 21 11 20.5523 11 20C11 19.4477 11.4477 19 12 19H12.0098Z" fill="#E4F2F2"/>
<path d="M12 14C13.5705 14 15.0787 14.6155 16.2002 15.7148C16.5944 16.1014 16.6003 16.7346 16.2139 17.1289C15.8273 17.5232 15.1942 17.5299 14.7998 17.1436C14.0521 16.4107 13.047 16 12 16C10.953 16 9.94791 16.4107 9.2002 17.1436C8.80586 17.53 8.17273 17.5231 7.78614 17.1289C7.39962 16.7345 7.40549 16.1014 7.79981 15.7148C8.92138 14.6155 10.4295 14 12 14Z" fill="#E4F2F2"/>
<path d="M12.5381 9.0127C15.2218 9.14406 17.7725 10.255 19.7002 12.1445C20.0944 12.5311 20.1001 13.1642 19.7139 13.5586C19.3273 13.9529 18.6942 13.9588 18.2998 13.5723C16.7227 12.0266 14.636 11.1183 12.4404 11.0107L12 11C9.64452 11 7.3825 11.9236 5.7002 13.5723C5.30584 13.9588 4.67275 13.9529 4.28614 13.5586C3.89974 13.1642 3.9056 12.5311 4.29981 12.1445C6.356 10.1292 9.12086 9 12 9L12.5381 9.0127Z" fill="#E4F2F2"/>
<path d="M12 4C15.9356 4.00003 19.7336 5.45054 22.667 8.07422C23.0784 8.44235 23.113 9.07472 22.7451 9.48633C22.3769 9.89786 21.7446 9.93356 21.333 9.56543C18.7663 7.26972 15.4436 6.00003 12 6C8.55643 6 5.23374 7.26978 2.667 9.56543C2.25539 9.93356 1.62309 9.89786 1.25489 9.48633C0.886858 9.07472 0.921537 8.44239 1.33301 8.07422C4.26643 5.4506 8.06448 4 12 4Z" fill="#E4F2F2"/>
</svg>
