<svg width="24" height="24" viewBox="0 0 24 24" fill="none" xmlns="http://www.w3.org/2000/svg">
<path fill-rule="evenodd" clip-rule="evenodd" d="M18.6065 13.9219C18.8181 13.412 19.4041 13.1695 19.9141 13.3809C20.4239 13.5925 20.6654 14.1776 20.4541 14.6875L20.4053 14.8037C20.7037 15.0286 20.9693 15.2945 21.1943 15.5928L21.3125 15.5449C21.8226 15.3335 22.4075 15.576 22.6191 16.0859C22.8306 16.5961 22.5883 17.1811 22.0781 17.3926L21.96 17.4404C21.9856 17.6233 22 17.81 22 18C22 18.1896 21.9855 18.376 21.96 18.5586L22.0781 18.6074C22.5883 18.8189 22.8305 19.4039 22.6191 19.9141C22.4075 20.4239 21.8225 20.6665 21.3125 20.4551L21.1943 20.4062C20.969 20.7049 20.7031 20.9711 20.4043 21.1963L20.4531 21.3145C20.664 21.8248 20.4214 22.4091 19.9111 22.6201C19.401 22.8306 18.8165 22.5881 18.6055 22.0781L18.5566 21.96C18.3747 21.9853 18.189 22 18 22C17.8104 22 17.624 21.9855 17.4414 21.96L17.3926 22.0791C17.181 22.589 16.596 22.8315 16.0859 22.6201C15.5759 22.4087 15.3338 21.8236 15.5449 21.3135L15.5938 21.1943C15.2953 20.9691 15.0288 20.7039 14.8037 20.4053L14.6875 20.4541C14.1775 20.665 13.5922 20.4229 13.3809 19.9131C13.1698 19.403 13.412 18.8179 13.9219 18.6064L14.0391 18.5576C14.0136 18.3754 14 18.1893 14 18C14 17.8101 14.0135 17.6233 14.0391 17.4404L13.9219 17.3926C13.4121 17.1809 13.1696 16.5959 13.3809 16.0859C13.5925 15.5762 14.1776 15.3338 14.6875 15.5449L14.8047 15.5928C15.0294 15.2949 15.2949 15.0294 15.5928 14.8047L15.5449 14.6875C15.3338 14.1776 15.5761 13.5924 16.0859 13.3809C16.5958 13.1696 17.1809 13.4121 17.3926 13.9219L17.4404 14.0391C17.6233 14.0135 17.8101 14 18 14C18.1893 14 18.3754 14.0136 18.5576 14.0391L18.6065 13.9219ZM18 16C16.8954 16 16 16.8954 16 18C16 19.1046 16.8954 20 18 20C19.1045 19.9999 20 19.1045 20 18C20 16.8955 19.1045 16.0001 18 16Z" fill="#E4F2F2"/>
<path d="M10.6953 13.1436C11.2342 13.0235 11.7684 13.3625 11.8887 13.9014C12.0086 14.4402 11.6696 14.9744 11.1309 15.0947C10.4022 15.2571 9.73327 15.6209 9.2002 16.1436C8.80587 16.53 8.17276 16.5231 7.78614 16.1289C7.39956 15.7345 7.40547 15.1015 7.79981 14.7148C8.59933 13.931 9.60248 13.3871 10.6953 13.1436Z" fill="#E4F2F2"/>
<path d="M10.3106 8.13184C12.5788 7.77987 14.9006 8.14621 16.9502 9.17969C17.4432 9.42838 17.6412 10.0303 17.3926 10.5234C17.1438 11.0163 16.5428 11.2143 16.0498 10.9658C14.3728 10.1202 12.4731 9.8204 10.6172 10.1084C8.76134 10.3965 7.04197 11.2582 5.7002 12.5723C5.30567 12.9587 4.67162 12.9521 4.28516 12.5576C3.89905 12.1631 3.90557 11.5299 4.29981 11.1436C5.9398 9.53724 8.04211 8.48394 10.3106 8.13184Z" fill="#E4F2F2"/>
<path d="M12 3C15.9356 3.00003 19.7336 4.45054 22.667 7.07422C23.0784 7.44235 23.113 8.07472 22.7451 8.48633C22.3769 8.89786 21.7446 8.93356 21.333 8.56543C18.7663 6.26972 15.4436 5.00003 12 5C8.55643 5 5.23374 6.26978 2.667 8.56543C2.25539 8.93356 1.62309 8.89786 1.25489 8.48633C0.886858 8.07472 0.921537 7.44239 1.33301 7.07422C4.26643 4.4506 8.06448 3 12 3Z" fill="#E4F2F2"/>
</svg>
