<svg width="24" height="24" viewBox="0 0 24 24" fill="none" xmlns="http://www.w3.org/2000/svg">
<path fill-rule="evenodd" clip-rule="evenodd" d="M19.876 12C20.7045 12 21.4991 12.3292 22.085 12.915C22.6707 13.5009 23 14.2956 23 15.124C23 15.9525 22.6708 16.7472 22.085 17.333L18.0713 21.3428C17.715 21.6989 17.2746 21.9594 16.791 22.1006L13.9209 22.9385C13.6629 23.0137 13.3892 23.0178 13.1289 22.9512C12.8685 22.8844 12.6305 22.7487 12.4404 22.5586C12.2503 22.3685 12.1146 22.1305 12.0478 21.8701C11.9812 21.6098 11.9853 21.3361 12.0605 21.0781L12.8984 18.208L12.957 18.0283C13.1065 17.6151 13.3444 17.2385 13.6562 16.9268L17.667 12.915C18.2529 12.3292 19.0474 12 19.876 12ZM19.876 14C19.6149 14 19.3632 14.0908 19.1631 14.2549L19.081 14.3291L15.0713 18.3408C14.9524 18.4596 14.8655 18.6072 14.8184 18.7686L14.2363 20.7627L16.2314 20.1807C16.3922 20.1336 16.5387 20.0471 16.6572 19.9287L20.6709 15.9189L20.7451 15.8369C20.9092 15.6368 21 15.385 21 15.124C21 14.826 20.8816 14.5399 20.6709 14.3291C20.4601 14.1183 20.174 14 19.876 14Z" fill="#E4F2F2"/>
<path d="M11.3994 14.0283C11.9488 13.9729 12.4396 14.3735 12.4951 14.9229C12.5503 15.4721 12.1498 15.963 11.6006 16.0186C10.696 16.1098 9.84911 16.5068 9.20019 17.1436C8.80606 17.5298 8.17283 17.5236 7.78612 17.1299C7.39939 16.7357 7.40577 16.1026 7.7998 15.7158C8.77313 14.7607 10.0426 14.1653 11.3994 14.0283Z" fill="#E4F2F2"/>
<path d="M9.71972 9.24121C11.7652 8.80841 13.8923 8.96779 15.8506 9.7002C16.3675 9.89373 16.6296 10.4702 16.4365 10.9873C16.2429 11.5043 15.6666 11.7667 15.1494 11.5732C13.5472 10.9741 11.8073 10.8441 10.1338 11.1982C8.46022 11.5524 6.92139 12.3764 5.69921 13.5732C5.30461 13.9593 4.67146 13.953 4.28515 13.5586C3.8989 13.164 3.90626 12.5309 4.30077 12.1445C5.79455 10.6817 7.67425 9.67407 9.71972 9.24121Z" fill="#E4F2F2"/>
<path d="M12 4C15.9355 4.00003 19.7336 5.45054 22.667 8.07422C23.0784 8.44235 23.113 9.07472 22.7451 9.48633C22.3769 9.89786 21.7446 9.93356 21.333 9.56543C18.7663 7.26972 15.4436 6.00003 12 6C8.55642 6 5.23372 7.26978 2.66698 9.56543C2.25537 9.93356 1.62307 9.89786 1.25487 9.48633C0.886842 9.07472 0.921522 8.44239 1.333 8.07422C4.26642 5.4506 8.06446 4 12 4Z" fill="#E4F2F2"/>
</svg>
