<svg width="24" height="24" viewBox="0 0 24 24" fill="none" xmlns="http://www.w3.org/2000/svg">
<path d="M12.0098 19C12.5619 19.0001 13.0098 19.4478 13.0098 20C13.0098 20.5522 12.5619 20.9999 12.0098 21H12C11.4477 21 11 20.5523 11 20C11 19.4477 11.4477 19 12 19H12.0098Z" fill="#E4F2F2"/>
<path d="M12 14C13.5704 14.0001 15.0787 14.6156 16.2002 15.7148C16.5943 16.1014 16.6003 16.7346 16.2139 17.1289C15.8273 17.5232 15.1942 17.5299 14.7998 17.1436C14.0521 16.4107 13.0469 16.0001 12 16C10.953 16 9.9479 16.4107 9.20019 17.1436C8.80587 17.53 8.17274 17.5231 7.78613 17.1289C7.3996 16.7345 7.40544 16.1014 7.7998 15.7148C8.92137 14.6155 10.4295 14 12 14Z" fill="#E4F2F2"/>
<path d="M12.5381 9.0127C15.2218 9.14408 17.7725 10.255 19.7002 12.1445C20.0943 12.531 20.1001 13.1642 19.7139 13.5586C19.3273 13.9529 18.6942 13.9588 18.2998 13.5723C16.7227 12.0266 14.6359 11.1183 12.4404 11.0107L12 11C9.64453 11 7.38248 11.9236 5.70019 13.5723C5.30583 13.9588 4.67274 13.9529 4.28613 13.5586C3.89968 13.1642 3.90558 12.5311 4.2998 12.1445C6.35599 10.1292 9.12087 9 12 9L12.5381 9.0127Z" fill="#E4F2F2"/>
</svg>
