<svg width="24" height="24" viewBox="0 0 24 24" fill="none" xmlns="http://www.w3.org/2000/svg">
<path d="M22.0674 17.1104C22.0785 17.1115 22.0895 17.1137 22.1006 17.1152C22.1048 17.1158 22.1091 17.1156 22.1133 17.1162L22.166 17.125C22.1949 17.1309 22.223 17.1391 22.251 17.1475L22.2568 17.1484C22.2998 17.1616 22.3415 17.1777 22.3818 17.1963C22.3884 17.1993 22.3948 17.2029 22.4014 17.2061C22.4808 17.2447 22.5542 17.2933 22.6201 17.3506C22.6262 17.3559 22.6317 17.3617 22.6377 17.3672C22.8381 17.5501 22.9648 17.8128 22.9648 18.1055V22.1055C22.9646 22.6575 22.517 23.1055 21.9648 23.1055C21.4127 23.1055 20.9651 22.6575 20.9648 22.1055V20.5742C20.3073 21.1625 19.5287 21.6016 18.6816 21.8545C17.7663 22.1277 16.7983 22.1789 15.8594 22.0029C14.9204 21.8269 14.0365 21.4291 13.2822 20.8428C12.5281 20.2565 11.9247 19.4982 11.5225 18.6318C11.29 18.131 11.5081 17.5363 12.0088 17.3037C12.5096 17.0712 13.1043 17.2883 13.3369 17.7891C13.605 18.3667 14.007 18.8728 14.5098 19.2637C15.0125 19.6545 15.6017 19.9197 16.2275 20.0371C16.8535 20.1545 17.4991 20.1206 18.1094 19.9385C18.6642 19.7728 19.175 19.4873 19.6084 19.1055H17.9648C17.4128 19.1054 16.9651 18.6575 16.9648 18.1055C16.9648 17.5532 17.4126 17.1056 17.9648 17.1055H21.9648L22.0674 17.1104Z" fill="#E4F2F2"/>
<path d="M8.50976 15.4287C9.06188 15.4288 9.5096 15.8766 9.50976 16.4287C9.50976 16.981 9.06198 17.4286 8.50976 17.4287H8.49999C7.94771 17.4287 7.49999 16.981 7.49999 16.4287C7.50015 15.8766 7.9478 15.4287 8.49999 15.4287H8.50976Z" fill="#E4F2F2"/>
<path d="M11.9648 9.10547C12.5171 9.10547 12.9648 9.55318 12.9648 10.1055V11.6357C13.6223 11.0474 14.401 10.6094 15.248 10.3564C16.1635 10.0831 17.1313 10.0319 18.0703 10.208C19.0093 10.3841 19.8932 10.7818 20.6475 11.3682C21.4015 11.9545 22.0051 12.7127 22.4072 13.5791C22.6394 14.0799 22.4216 14.6747 21.9209 14.9072C21.4202 15.1395 20.8255 14.9223 20.5928 14.4219C20.3247 13.8443 19.9226 13.3381 19.4199 12.9473C18.9172 12.5564 18.328 12.2913 17.7021 12.1738C17.0761 12.0564 16.4306 12.0903 15.8203 12.2725C15.2648 12.4383 14.7531 12.723 14.3193 13.1055H15.9648C16.5171 13.1055 16.9648 13.5532 16.9648 14.1055C16.9646 14.6575 16.517 15.1055 15.9648 15.1055H11.9648C11.9422 15.1055 11.9197 15.103 11.8975 15.1016C11.8903 15.1011 11.8831 15.1003 11.876 15.0996C11.829 15.0955 11.7831 15.0885 11.7383 15.0781L11.7334 15.0762C11.6888 15.0656 11.6455 15.0525 11.6035 15.0361C11.6001 15.0348 11.5962 15.0346 11.5928 15.0332L11.5879 15.0312C11.4526 14.9761 11.3325 14.8921 11.2344 14.7871C11.2292 14.7815 11.2248 14.7752 11.2197 14.7695C11.1604 14.7031 11.1093 14.6294 11.0693 14.5488C11.0658 14.5417 11.062 14.5346 11.0586 14.5273C11.0205 14.4458 10.9934 14.3583 10.9785 14.2666C10.9773 14.2595 10.9766 14.2523 10.9756 14.2451C10.9738 14.2324 10.971 14.2199 10.9697 14.207L10.9648 14.1055V10.1055C10.9648 9.55319 11.4126 9.10548 11.9648 9.10547Z" fill="#E4F2F2"/>
<path d="M7.59862 9.91211C8.10438 9.69054 8.69429 9.92103 8.91601 10.4268C9.1375 10.9325 8.90701 11.5224 8.40136 11.7441C7.39758 12.1842 6.48224 12.8044 5.70116 13.5732C5.30759 13.9602 4.67442 13.9548 4.2871 13.5615C3.89984 13.1679 3.90529 12.5348 4.29882 12.1475C5.25349 11.2077 6.37177 10.45 7.59862 9.91211Z" fill="#E4F2F2"/>
<path d="M12 4C15.9355 4.00003 19.7336 5.45054 22.667 8.07422C23.0784 8.44235 23.113 9.07472 22.7451 9.48633C22.3769 9.89786 21.7446 9.93356 21.333 9.56543C18.7663 7.26972 15.4436 6.00003 12 6C8.55642 6 5.23372 7.26978 2.66698 9.56543C2.25537 9.93356 1.62307 9.89786 1.25487 9.48633C0.886842 9.07472 0.921522 8.44239 1.333 8.07422C4.26642 5.4506 8.06446 4 12 4Z" fill="#E4F2F2"/>
</svg>
