<svg width="24" height="24" viewBox="0 0 24 24" fill="none" xmlns="http://www.w3.org/2000/svg">
<path d="M1.29296 1.29295C1.68349 0.90243 2.3165 0.90243 2.70703 1.29295L10.8682 9.45409C10.8754 9.46116 10.8826 9.46828 10.8896 9.47557L22.707 21.293C23.0975 21.6835 23.0975 22.3165 22.707 22.707C22.3165 23.0975 21.6835 23.0975 21.293 22.707L15.9199 17.334C15.5535 17.5041 15.1054 17.4429 14.7998 17.1435C14.0521 16.4107 13.047 16 12 16C10.953 16 9.9479 16.4107 9.20019 17.1435C8.80585 17.5299 8.1727 17.523 7.78613 17.1289C7.39963 16.7345 7.40555 16.1014 7.7998 15.7148C8.92137 14.6155 10.4295 14 12 14C12.2074 14 12.4137 14.011 12.6182 14.0322L9.84863 11.2627C8.28701 11.6473 6.85314 12.443 5.70019 13.5732C5.30582 13.9598 4.67275 13.9529 4.28613 13.5586C3.89959 13.1642 3.90544 12.5311 4.2998 12.1445C5.42756 11.039 6.77548 10.1954 8.24707 9.66112L5.958 7.37206C4.76379 7.94337 3.65546 8.68143 2.66699 9.56542C2.25535 9.93355 1.62306 9.89788 1.25488 9.48631C0.886802 9.07469 0.921476 8.44237 1.333 8.0742C2.28823 7.21994 3.34195 6.48527 4.46972 5.88377L1.29296 2.70702C0.90244 2.31649 0.90244 1.68348 1.29296 1.29295Z" fill="#E4F2F2"/>
<path d="M12.0098 19C12.562 19 13.0098 19.4477 13.0098 20C13.0097 20.5522 12.562 20.9999 12.0098 21H12C11.4477 21 11 20.5522 11 20C11 19.4477 11.4477 19 12 19H12.0098Z" fill="#E4F2F2"/>
<path d="M16.1269 10.8369C16.4027 10.3585 17.0137 10.1941 17.4922 10.4697C18.2956 10.9328 19.038 11.4954 19.7002 12.1445C20.0944 12.5311 20.1003 13.1642 19.7139 13.5586C19.3273 13.9529 18.6942 13.9597 18.2998 13.5732C17.758 13.0421 17.1515 12.581 16.4941 12.2021C16.0157 11.9264 15.8513 11.3154 16.1269 10.8369Z" fill="#E4F2F2"/>
<path d="M10.626 4.06053C12.8007 3.87307 14.9909 4.13179 17.0615 4.82225C19.1321 5.51272 21.0401 6.62008 22.667 8.07518C23.0781 8.44343 23.1131 9.07582 22.7451 9.48729C22.3769 9.8984 21.7445 9.93323 21.333 9.56542C19.9095 8.29235 18.2404 7.32383 16.4287 6.71971C14.6169 6.11559 12.7006 5.8887 10.7978 6.05272C10.2479 6.1001 9.76364 5.6924 9.71582 5.14256C9.66839 4.59237 10.0758 4.10804 10.626 4.06053Z" fill="#E4F2F2"/>
</svg>
