<svg width="24" height="24" viewBox="0 0 24 24" fill="none" xmlns="http://www.w3.org/2000/svg">
<path d="M14 15C14.4753 15 14.9441 15.1125 15.3672 15.3291C15.7903 15.5457 16.1557 15.8605 16.4336 16.2461C16.7115 16.6316 16.8941 17.0781 16.9658 17.5478C17.0374 18.0175 16.9959 18.4975 16.8457 18.9482C16.6954 19.3991 16.4407 19.8087 16.1016 20.1416C15.7623 20.4745 15.3482 20.7215 14.8945 20.8633C14.4408 21.005 13.9597 21.0376 13.4912 20.957C13.0229 20.8764 12.5804 20.6854 12.2002 20.4004C11.7585 20.069 11.6687 19.4418 12 19C12.3314 18.5583 12.9586 18.4686 13.4004 18.7998C13.527 18.8947 13.6741 18.9584 13.8301 18.9853C13.9862 19.0122 14.1467 19.0013 14.2979 18.9541C14.449 18.9069 14.5871 18.8248 14.7002 18.7139C14.8132 18.603 14.8981 18.4665 14.9482 18.3164C14.9982 18.1663 15.0121 18.006 14.9883 17.8496C14.9644 17.6931 14.9041 17.5435 14.8115 17.415C14.7189 17.2866 14.597 17.1815 14.4561 17.1094C14.315 17.0372 14.1584 17 14 17H2C1.44772 17 1 16.5523 1 16C1.00014 15.4478 1.4478 15 2 15H14Z" fill="#E4F2F2"/>
<path d="M19.8145 6.01367C20.4085 6.06724 20.9789 6.27241 21.4717 6.60839C21.9645 6.9445 22.3641 7.40104 22.6309 7.93456C22.8976 8.46808 23.0229 9.06134 22.9961 9.65722C22.9693 10.253 22.791 10.8324 22.4775 11.3398C22.1639 11.8473 21.7251 12.2661 21.2041 12.5566C20.683 12.8471 20.0966 13 19.5 13H2C1.44772 13 1 12.5523 1 12C1.00014 11.4478 1.4478 11 2 11H19.5L19.6904 10.9883C19.8795 10.9641 20.063 10.9039 20.2305 10.8105C20.4537 10.6861 20.642 10.5064 20.7764 10.2891C20.9107 10.0716 20.9866 9.82273 20.998 9.56738C21.0095 9.31204 20.9561 9.0577 20.8418 8.8291C20.7275 8.60049 20.5559 8.40476 20.3447 8.26074C20.1336 8.11685 19.8892 8.02881 19.6348 8.00585C19.3803 7.98291 19.1241 8.02605 18.8906 8.12988C18.6571 8.23377 18.4532 8.39521 18.2998 8.5996C17.9685 9.04138 17.3422 9.13103 16.9004 8.7998C16.4587 8.46844 16.369 7.84216 16.7002 7.40038C17.0581 6.9232 17.5322 6.54526 18.0771 6.30273C18.6222 6.06021 19.2203 5.9601 19.8145 6.01367Z" fill="#E4F2F2"/>
<path d="M10.4912 3.04296C10.9596 2.96238 11.4408 2.995 11.8945 3.13671C12.3482 3.27844 12.7623 3.52556 13.1016 3.85839C13.4408 4.19124 13.6954 4.60093 13.8457 5.05175C13.9959 5.50246 14.0374 5.9825 13.9658 6.45214C13.8941 6.92196 13.7114 7.36833 13.4336 7.7539C13.1557 8.1395 12.7903 8.45428 12.3672 8.67089C11.9441 8.88748 11.4753 8.99999 11 8.99999H2C1.44772 8.99999 1 8.55228 1 7.99999C1.00014 7.44782 1.4478 6.99999 2 6.99999H11C11.1585 6.99999 11.315 6.96282 11.4561 6.89062C11.597 6.81843 11.7189 6.71342 11.8115 6.58496C11.9041 6.45645 11.9644 6.30696 11.9883 6.15039C12.012 5.99394 11.9983 5.83371 11.9482 5.68359C11.8981 5.53347 11.8132 5.39697 11.7002 5.28613C11.5871 5.17528 11.449 5.0931 11.2979 5.04589C11.1467 4.99872 10.9861 4.9878 10.8301 5.01464C10.6742 5.04153 10.527 5.10531 10.4004 5.20019C9.95856 5.53156 9.33137 5.44182 9 4.99999C8.66877 4.55818 8.75842 3.93093 9.2002 3.5996C9.58036 3.31459 10.0229 3.12353 10.4912 3.04296Z" fill="#E4F2F2"/>
</svg>
