<svg width="24" height="24" viewBox="0 0 24 24" fill="none" xmlns="http://www.w3.org/2000/svg">
<path fill-rule="evenodd" clip-rule="evenodd" d="M15.1563 1.46336C15.4275 1.03538 15.9842 0.873675 16.4473 1.10497L20.4473 3.10497C20.9412 3.35194 21.1415 3.9528 20.8945 4.44676L17.3418 11.5522L20.4473 13.105C20.9412 13.3519 21.1415 13.9528 20.8945 14.4468L18.8945 18.4468C18.8024 18.6311 18.6609 18.7741 18.4941 18.8686L19.6064 20.9995H21C21.5522 20.9995 21.9999 21.4473 22 21.9995C22 22.5518 21.5523 22.9995 21 22.9995H4C3.44786 22.9993 3 22.5517 3 21.9995C3.00014 21.4474 3.44794 20.9997 4 20.9995H5.38184L6.6582 18.4468L3.55274 16.894C3.05901 16.6469 2.85854 16.0461 3.10547 15.5522L6.6582 8.44676L3.55274 6.89403C3.05901 6.64693 2.85854 6.04609 3.10547 5.55223L5.10547 1.55223L5.15625 1.46336C5.4275 1.03538 5.98424 0.873675 6.44727 1.10497L13.5527 4.6577L15.1055 1.55223L15.1563 1.46336ZM7.61816 20.9995H11.5V19.9995C11.5001 19.4474 11.9479 18.9997 12.5 18.9995C13.0522 18.9995 13.4999 19.4473 13.5 19.9995V20.9995H17.3506L15.792 18.0132L10.4473 15.3413L7.61816 20.9995ZM5.3418 15.5522L7.55273 16.6577L10.6582 10.4468L8.44727 9.34129L5.3418 15.5522ZM11.3418 13.5522L17.5527 16.6577L18.6582 14.4468L12.4473 11.3413L11.3418 13.5522ZM13.3418 9.55223L15.5527 10.6577L18.6582 4.44676L16.4473 3.34129L13.3418 9.55223ZM5.3418 5.55223L11.5527 8.6577L12.6582 6.44676L6.44727 3.34129L5.3418 5.55223Z" fill="#E4F2F2"/>
</svg>
