<svg width="24" height="24" viewBox="0 0 24 24" fill="none" xmlns="http://www.w3.org/2000/svg">
<path fill-rule="evenodd" clip-rule="evenodd" d="M1.29295 1.29297C1.68348 0.902482 2.3165 0.902457 2.70702 1.29297L22.707 21.293C23.0975 21.6835 23.0975 22.3165 22.707 22.707C22.3165 23.0975 21.6835 23.0975 21.293 22.707L14.1758 15.5898C13.7955 15.7379 13.4017 15.8461 13 15.9141V21H16C16.5522 21 17 21.4477 17 22C17 22.5523 16.5522 23 16 23H7.99999C7.4477 23 6.99999 22.5523 6.99999 22C6.99999 21.4477 7.4477 21 7.99999 21H11V15.9131C10.2737 15.7902 9.57315 15.537 8.93553 15.1582C8.04108 14.6268 7.29977 13.872 6.78514 12.9678C6.27051 12.0635 6.00004 11.0405 5.99999 10V9.99707L6.00585 9.62988C6.02655 8.9598 6.09749 8.29207 6.21874 7.63281L1.29295 2.70703C0.90243 2.31651 0.90243 1.68349 1.29295 1.29297ZM8.12792 11C8.21589 11.3408 8.34792 11.6701 8.52342 11.9785C8.86651 12.5813 9.36075 13.0842 9.95702 13.4385C10.5533 13.7927 11.2314 13.986 11.9248 13.999C12.1333 14.0029 12.3407 13.9882 12.5459 13.96L9.58592 11H8.12792Z" fill="#E4F2F2"/>
<path d="M15 1C15.4167 1.00003 15.7901 1.25834 15.9365 1.64844C17.4418 5.66249 18 7.80734 18 10C18 10.489 17.9396 10.9709 17.8262 11.4355C17.695 11.9717 17.1544 12.3006 16.6181 12.1699C16.0946 12.0421 15.7697 11.5235 15.876 11H15.6572C15.1049 11 14.6572 10.5523 14.6572 10C14.6572 9.44771 15.1049 9 15.6572 9H15.9521C15.8138 7.55591 15.3529 5.86449 14.3008 3H9.69627C9.65666 3.10806 9.61637 3.21417 9.57909 3.31836C9.39282 3.83798 8.82057 4.10881 8.30077 3.92285C7.78103 3.73677 7.51054 3.16435 7.69627 2.64453C7.81101 2.32389 7.93575 1.98928 8.06444 1.64746L8.12889 1.50781C8.30421 1.19735 8.63564 1 8.99999 1H15Z" fill="#E4F2F2"/>
</svg>
