<svg width="24" height="24" viewBox="0 0 24 24" fill="none" xmlns="http://www.w3.org/2000/svg">
<path fill-rule="evenodd" clip-rule="evenodd" d="M9 6C9.33435 6 9.64657 6.16711 9.83203 6.44531L9.83301 6.44629C9.83358 6.44715 9.83513 6.44897 9.83594 6.4502C9.83755 6.45264 9.83926 6.4561 9.8418 6.45996C9.84692 6.46777 9.85365 6.47877 9.8623 6.49219C9.87976 6.51924 9.90428 6.55777 9.93457 6.60645C9.99524 6.70395 10.0802 6.84366 10.1807 7.01953C10.3813 7.37058 10.6477 7.86952 10.9141 8.46875C11.4389 9.64972 12 11.2984 12 13C12 14.3261 11.4728 15.5975 10.5352 16.5352C9.83681 17.2335 8.95328 17.7037 8 17.8984V21H10C10.5523 21 11 21.4477 11 22C11 22.5523 10.5523 23 10 23H4C3.44772 23 3 22.5523 3 22C3 21.4477 3.44772 21 4 21H6V17.8984C5.04672 17.7037 4.16319 17.2335 3.46484 16.5352C2.52716 15.5975 2 14.3261 2 13C2 11.2984 2.56106 9.64972 3.08594 8.46875C3.35226 7.86952 3.61874 7.37058 3.81934 7.01953C3.91983 6.84366 4.00476 6.70395 4.06543 6.60645C4.09572 6.55777 4.12024 6.51924 4.1377 6.49219C4.14635 6.47877 4.15308 6.46777 4.1582 6.45996C4.16074 6.4561 4.16244 6.45264 4.16406 6.4502C4.16487 6.44897 4.16642 6.44813 4.16699 6.44727L4.16797 6.44531L4.24316 6.34668C4.43175 6.12817 4.70733 6 5 6H9ZM4.17578 14C4.32364 14.4173 4.55985 14.802 4.87891 15.1211C5.44152 15.6837 6.20435 16 7 16C7.79565 16 8.55848 15.6837 9.12109 15.1211C9.44015 14.802 9.67636 14.4173 9.82422 14H4.17578ZM5.55566 8.01172C5.38126 8.31692 5.14774 8.75548 4.91406 9.28125C4.56035 10.0771 4.2275 11.0295 4.08008 12H9.91992C9.7725 11.0295 9.43965 10.0771 9.08594 9.28125C8.85226 8.75548 8.61874 8.31692 8.44434 8.01172C8.44208 8.00777 8.43974 8.0039 8.4375 8H5.5625C5.56026 8.0039 5.55792 8.00777 5.55566 8.01172Z" fill="#E4F2F2"/>
<path fill-rule="evenodd" clip-rule="evenodd" d="M18 1C18.5523 1 19 1.44772 19 2V4C19 5.06032 19.4675 5.55347 20.207 6.29297C20.9675 7.05347 22 8.06032 22 10V21C22 21.5272 21.8194 22.0439 21.4316 22.4316C21.0439 22.8194 20.5272 23 20 23H16C15.4728 23 14.9561 22.8194 14.5684 22.4316C14.1806 22.0439 14 21.5272 14 21V10C14 8.06032 15.0325 7.05347 15.793 6.29297C16.5325 5.55347 17 5.06032 17 4V2C17 1.44772 17.4477 1 18 1ZM18 6.84961C17.737 7.17834 17.4577 7.4564 17.207 7.70703C16.4675 8.44653 16 8.93968 16 10V21H20V10C20 8.93968 19.5325 8.44653 18.793 7.70703C18.5423 7.4564 18.263 7.17834 18 6.84961Z" fill="#E4F2F2"/>
</svg>
