<svg width="24" height="24" viewBox="0 0 24 24" fill="none" xmlns="http://www.w3.org/2000/svg">
<path fill-rule="evenodd" clip-rule="evenodd" d="M3.44334 3.03224C4.7736 2.24011 6.31307 1.86951 7.85838 1.96974C9.41054 2.07048 10.8954 2.64232 12.1152 3.60743C13.3348 4.57252 14.2325 5.88582 14.6875 7.37306C15.1414 8.85714 15.133 10.4443 14.665 11.9238L14.666 11.9248L14.0273 13.9961L14.0283 13.9971C13.984 14.1454 13.986 14.305 14.0342 14.4522C14.0824 14.599 14.1746 14.728 14.2978 14.8213C14.4212 14.9145 14.5701 14.9682 14.7246 14.9746C14.8793 14.9809 15.0333 14.9395 15.164 14.8565L15.5791 14.5899C15.9621 14.3421 16.3895 14.17 16.8379 14.0859L18.1054 11.5527C18.3526 11.0591 18.9534 10.8586 19.4472 11.1055C19.9411 11.3524 20.1412 11.9534 19.8945 12.4473L18.9443 14.3457C19.1289 14.4301 19.3067 14.53 19.4746 14.6455C19.8539 14.9067 20.1781 15.2405 20.4287 15.627C20.6792 16.0134 20.8519 16.4456 20.9355 16.8984C21.0191 17.3513 21.013 17.8172 20.917 18.2676C20.9125 18.2886 20.9062 18.3092 20.9013 18.3301L22.4482 19.1065C22.9417 19.3543 23.1413 19.9557 22.8935 20.4492C22.6457 20.9427 22.0443 21.1423 21.5508 20.8945L19.9092 20.0693C19.7505 20.221 19.5786 20.3595 19.3935 20.4795L19.3906 20.4824L18.9775 20.7461C17.64 21.6235 16.0645 22.0674 14.4658 22.0147C12.867 21.9619 11.3227 21.4159 10.0459 20.4522C8.76928 19.4884 7.82185 18.1529 7.33299 16.6299C6.8442 15.1067 6.83799 13.4692 7.31541 11.9424L7.94822 9.88282C7.98575 9.7532 7.98439 9.61488 7.94334 9.48634C7.90217 9.35783 7.82354 9.24394 7.71775 9.16016C7.61187 9.07649 7.48316 9.02611 7.34861 9.01563C7.21404 9.00522 7.07943 9.03521 6.96189 9.10157L6.30662 9.49708L6.29685 9.50294C5.49285 9.97529 4.5334 10.1093 3.63084 9.87501C2.7283 9.64053 1.95494 9.05682 1.4824 8.25294C1.01001 7.44895 0.877008 6.48949 1.11131 5.58692C1.22741 5.14003 1.43071 4.72004 1.70896 4.35157C1.98728 3.9831 2.33526 3.67243 2.73338 3.43849L2.74412 3.43263L3.44334 3.03224ZM7.72947 3.96583C6.58261 3.89141 5.43999 4.1682 4.45408 4.7588C4.4483 4.76227 4.44235 4.7662 4.4365 4.76954L3.74217 5.16505C3.57221 5.26564 3.42373 5.39904 3.30467 5.55665C3.18471 5.71554 3.09692 5.89716 3.04685 6.08985C2.94597 6.47898 3.00338 6.89264 3.20701 7.23927C3.41083 7.58592 3.74455 7.83834 4.13377 7.93946C4.52291 8.04039 4.93653 7.98196 5.28318 7.77833L5.9531 7.37501L5.9785 7.36036C6.44206 7.09858 6.97311 6.98027 7.50389 7.02149C8.03465 7.06278 8.54142 7.26153 8.95896 7.59181C9.37626 7.92202 9.68626 8.36921 9.84861 8.87599C10.0108 9.38298 10.0181 9.92814 9.8701 10.4395C9.86862 10.4445 9.86676 10.4501 9.86521 10.4551L9.22556 12.5352L9.22459 12.5391C8.87026 13.6723 8.87452 14.888 9.23728 16.0186C9.60013 17.1489 10.3035 18.1401 11.251 18.8555C12.1986 19.5708 13.3446 19.9764 14.5312 20.0156C15.718 20.0548 16.889 19.7265 17.8818 19.0752L17.8887 19.0693L18.3056 18.8018C18.4674 18.6968 18.6068 18.5609 18.7178 18.4033C18.7239 18.3897 18.7295 18.3758 18.7363 18.3623C18.7646 18.3061 18.7972 18.2535 18.834 18.2051C18.89 18.0924 18.9345 17.9741 18.9609 17.8506C19.0022 17.657 19.0046 17.4564 18.9687 17.2617C18.9328 17.0671 18.8586 16.881 18.751 16.7149C18.6433 16.5488 18.5037 16.4052 18.3408 16.293C18.1777 16.1807 17.9934 16.1019 17.7998 16.0606C17.606 16.0192 17.4057 16.0158 17.2109 16.0518C17.0162 16.0877 16.8302 16.1618 16.664 16.2695L16.6611 16.2725L16.2402 16.542L16.2363 16.5449C15.7615 16.8465 15.2055 16.9956 14.6435 16.9727C14.0815 16.9497 13.5394 16.7554 13.0908 16.416C12.6423 16.0766 12.3078 15.6078 12.1328 15.0733C11.958 14.5387 11.9512 13.9627 12.1123 13.4238L12.1142 13.417L12.7539 11.3369L12.7568 11.3281L12.8183 11.1221C13.1046 10.0865 13.0905 8.98832 12.7754 7.95802C12.4391 6.85912 11.7752 5.88889 10.874 5.17579C9.9728 4.4628 8.87619 4.04034 7.72947 3.96583Z" fill="#E4F2F2"/>
</svg>
