<svg width="24" height="24" viewBox="0 0 24 24" fill="none" xmlns="http://www.w3.org/2000/svg">
<path fill-rule="evenodd" clip-rule="evenodd" d="M13.9443 1.3047C15.2153 0.914808 16.5716 0.894673 17.8535 1.24708L17.8525 1.24806C19.1612 1.60705 19.278 3.1364 18.5156 3.90138L18.5146 3.90333L15.4141 7.00001L17 8.58595L20.0996 5.4883C20.8656 4.72116 22.3955 4.84323 22.7539 6.14845L22.8154 6.38966C23.1022 7.5995 23.0619 8.8661 22.6963 10.0576C22.3063 11.3285 21.5624 12.4626 20.5518 13.3262C19.541 14.1898 18.3045 14.7476 16.9883 14.9346C15.9058 15.0883 14.8057 14.9847 13.7754 14.6387L6.32715 22.0879C5.74188 22.6729 4.94763 23.002 4.12012 23.002C3.29272 23.0017 2.49914 22.6719 1.91406 22.0869C1.32898 21.5016 0.999987 20.7075 1 19.8799C1.00023 19.0525 1.32898 18.2589 1.91406 17.6738L9.3623 10.2246C9.01656 9.19472 8.9138 8.09472 9.06738 7.01271C9.25432 5.69657 9.81229 4.46092 10.6758 3.45021C11.5395 2.4394 12.6733 1.69471 13.9443 1.3047ZM16.5576 3.03029C15.8792 2.95382 15.1892 3.01499 14.5312 3.21681C13.6233 3.49538 12.8132 4.02701 12.1963 4.74904C11.5795 5.47098 11.1814 6.35383 11.0479 7.29396C10.9144 8.23411 11.0509 9.19349 11.4424 10.0586C11.6136 10.4377 11.5324 10.8836 11.2383 11.1777L3.32812 19.0879C3.11794 19.2981 3.00005 19.5836 3 19.8809C3.00015 20.1778 3.11827 20.4628 3.32812 20.6729C3.53827 20.8828 3.82402 21.0019 4.12109 21.002C4.41795 21.0018 4.70304 20.8836 4.91309 20.6738L12.8232 12.7637L12.9404 12.6631C13.228 12.4529 13.6107 12.4097 13.9424 12.5596C14.8074 12.9509 15.767 13.0886 16.707 12.9551C17.6471 12.8215 18.53 12.4225 19.252 11.8057C19.9739 11.1888 20.5056 10.3785 20.7842 9.47072C20.9859 8.81304 21.046 8.12347 20.9697 7.44533L18.4004 10.0147C18.0266 10.381 17.5233 10.5868 17 10.5869C16.4769 10.5868 15.9743 10.3807 15.6006 10.0147L13.9932 8.40822L13.9863 8.4004C13.6201 8.02673 13.4152 7.52416 13.415 7.00099C13.415 6.47749 13.6199 5.97446 13.9863 5.6006L16.5576 3.03029Z" fill="#E4F2F2"/>
</svg>
