<svg width="24" height="24" viewBox="0 0 24 24" fill="none" xmlns="http://www.w3.org/2000/svg">
<path fill-rule="evenodd" clip-rule="evenodd" d="M12 1C17.3202 1 21.7575 4.77709 22.7783 9.7959C22.7809 9.80819 22.7831 9.82056 22.7852 9.83301C22.9252 10.5337 23 11.2581 23 12C23 13.8267 22.5506 15.5474 21.7627 17.0635C21.7231 17.2085 21.65 17.3452 21.5439 17.4639C20.9881 18.4327 20.2909 19.3088 19.4775 20.0635L20.0068 20.5928C20.0782 20.6642 20.2458 20.7757 20.4844 20.8711C20.7235 20.9667 20.918 21 21 21H22C22.5523 21 23 21.4477 23 22C23 22.5523 22.5523 23 22 23H21C20.5821 23 20.127 22.8828 19.7412 22.7285C19.3548 22.574 18.9214 22.3355 18.5928 22.0068L17.8799 21.2939C16.1787 22.3724 14.1633 23 12 23C5.92487 23 1 18.0751 1 12C1 7.91461 3.22876 4.35221 6.53516 2.45508C6.65376 2.34903 6.79056 2.27496 6.93555 2.23535C8.45166 1.44742 10.1733 1 12 1ZM4.16211 7.57617C3.76418 8.27968 3.45841 9.04172 3.26074 9.84668L14.1523 20.7383C14.9574 20.5406 15.7192 20.2349 16.4229 19.8369L4.16211 7.57617ZM7.06152 4.47559C6.43146 4.88995 5.85598 5.38056 5.34961 5.93555L18.0635 18.6494C18.6185 18.143 19.109 17.5677 19.5234 16.9375L7.06152 4.47559ZM20.4678 15.0537C20.8117 14.1002 21 13.0721 21 12C21 11.6619 20.9797 11.3284 20.9434 11H16.4141L20.4678 15.0537ZM14.4141 9H20.4863C20.2346 8.28794 19.8965 7.617 19.4834 7H12.4141L14.4141 9ZM12 3C10.9277 3 9.89903 3.18719 8.94531 3.53125L10.4141 5H17.6553C16.1097 3.74981 14.1427 3 12 3Z" fill="#E4F2F2"/>
</svg>
