<svg width="24" height="24" viewBox="0 0 24 24" fill="none" xmlns="http://www.w3.org/2000/svg">
<path fill-rule="evenodd" clip-rule="evenodd" d="M12 15.5C12.8284 15.5 13.5 16.1716 13.5 17C13.5 17.8284 12.8284 18.5 12 18.5C11.1716 18.5 10.5 17.8284 10.5 17C10.5 16.1716 11.1716 15.5 12 15.5ZM12 16.5C11.7239 16.5 11.5 16.7239 11.5 17C11.5 17.2761 11.7239 17.5 12 17.5C12.2761 17.5 12.5 17.2761 12.5 17C12.5 16.7239 12.2761 16.5 12 16.5Z" fill="#E4F2F2"/>
<path fill-rule="evenodd" clip-rule="evenodd" d="M12 5.5C12.8284 5.5 13.5 6.17157 13.5 7C13.5 7.82843 12.8284 8.5 12 8.5C11.1716 8.5 10.5 7.82843 10.5 7C10.5 6.17157 11.1716 5.5 12 5.5ZM12 6.5C11.7239 6.5 11.5 6.72386 11.5 7C11.5 7.27614 11.7239 7.5 12 7.5C12.2761 7.5 12.5 7.27614 12.5 7C12.5 6.72386 12.2761 6.5 12 6.5Z" fill="#E4F2F2"/>
<path fill-rule="evenodd" clip-rule="evenodd" d="M12 1C18.0751 1 23 5.92487 23 12C23 18.0751 18.0751 23 12 23C5.92487 23 1 18.0751 1 12C1 5.92487 5.92487 1 12 1ZM6.34375 5.00098C4.30465 6.65093 3 9.17265 3 12C3 16.9706 7.02944 21 12 21C12.0669 21 12.1336 20.9956 12.2002 20.9941C13.1881 20.9446 14.1253 20.5309 14.8281 19.8281C15.5314 19.1248 15.9461 18.1869 15.9951 17.1982L16 17C16 15.9391 15.5783 14.922 14.8281 14.1719C14.1248 13.4686 13.1869 13.0539 12.1982 13.0049L12 13C10.4087 13 8.88303 12.3674 7.75781 11.2422C6.63259 10.117 6 8.5913 6 7C6 6.31232 6.11877 5.63712 6.34375 5.00098ZM11.7988 3.00488C10.8112 3.05461 9.87447 3.46928 9.17188 4.17188C8.42173 4.92202 8 5.93913 8 7C8 8.06087 8.42173 9.07798 9.17188 9.82812C9.92202 10.5783 10.9391 11 12 11C13.5913 11 15.117 11.6326 16.2422 12.7578C17.3674 13.883 18 15.4087 18 17L17.9922 17.2979C17.9631 17.8825 17.8476 18.4549 17.6553 18.999C19.6947 17.3491 21 14.8276 21 12C21 7.02944 16.9706 3 12 3C11.9327 3 11.8657 3.00342 11.7988 3.00488Z" fill="#E4F2F2"/>
</svg>
