<svg width="24" height="24" viewBox="0 0 24 24" fill="none" xmlns="http://www.w3.org/2000/svg">
<path fill-rule="evenodd" clip-rule="evenodd" d="M9.50733 8.12989C9.8208 7.95252 10.2063 7.95727 10.5151 8.14259L15.5151 11.1426C15.8161 11.3234 16.0005 11.6489 16.0005 12C16.0005 12.3511 15.8161 12.6767 15.5151 12.8574L10.5151 15.8574C10.2063 16.0427 9.8208 16.0475 9.50733 15.8701C9.19406 15.6926 9.0005 15.3601 9.0005 15V9.00001C9.0005 8.63989 9.19405 8.30745 9.50733 8.12989ZM11.0005 13.2334L13.0562 12L11.0005 10.7656V13.2334Z" fill="#E4F2F2"/>
<path fill-rule="evenodd" clip-rule="evenodd" d="M3.73683 4.61329C8.86624 3.76355 14.0941 3.71062 19.2358 4.45411L20.2632 4.61329L20.3648 4.63575C20.8668 4.77345 21.3248 5.03916 21.6929 5.40724C22.061 5.77537 22.3267 6.2333 22.4644 6.73536C22.4695 6.75425 22.474 6.77382 22.478 6.79298C23.2055 10.2263 23.2055 13.7738 22.478 17.207C22.474 17.2262 22.4695 17.2458 22.4644 17.2647C22.3267 17.7667 22.061 18.2247 21.6929 18.5928C21.3248 18.9609 20.8668 19.2266 20.3648 19.3643C20.3316 19.3734 20.2971 19.3811 20.2632 19.3867C14.7918 20.2933 9.20825 20.2933 3.73683 19.3867C3.70288 19.3811 3.66845 19.3734 3.63526 19.3643C3.13328 19.2265 2.67522 18.9609 2.30714 18.5928C1.93906 18.2247 1.67334 17.7667 1.53565 17.2647C1.53048 17.2458 1.52604 17.2262 1.52198 17.207C0.79451 13.7738 0.794513 10.2262 1.52198 6.79298L1.53565 6.73536C1.67334 6.23333 1.93907 5.77536 2.30714 5.40724C2.67521 5.03916 3.13328 4.77348 3.63526 4.63575C3.66846 4.62665 3.70287 4.61892 3.73683 4.61329ZM19.8706 6.57618C14.6582 5.72004 9.34088 5.71991 4.12843 6.57618C3.97556 6.62442 3.83585 6.70776 3.72218 6.8213C3.60351 6.93999 3.51633 7.08715 3.46925 7.24806C2.8112 10.3814 2.81133 13.6176 3.46925 16.751C3.51627 16.9123 3.60329 17.0598 3.72218 17.1787C3.83556 17.292 3.97504 17.3746 4.12745 17.4229C9.34029 18.2795 14.6577 18.2793 19.8706 17.4229C20.0237 17.3747 20.164 17.2924 20.2778 17.1787C20.3967 17.0599 20.4827 16.9122 20.5298 16.751C21.1878 13.6174 21.1879 10.3816 20.5298 7.24806C20.4827 7.08722 20.3965 6.93994 20.2778 6.8213C20.1639 6.70755 20.0239 6.62435 19.8706 6.57618Z" fill="#E4F2F2"/>
</svg>
