<svg width="24" height="24" viewBox="0 0 24 24" fill="none" xmlns="http://www.w3.org/2000/svg">
<path fill-rule="evenodd" clip-rule="evenodd" d="M1.29299 1.293C1.68351 0.902474 2.31653 0.902474 2.70705 1.293L22.7071 21.293C23.0973 21.6835 23.0975 22.3166 22.7071 22.7071C22.3166 23.0973 21.6835 23.0973 21.293 22.7071L16.2832 17.6973L11.5967 22.5264L11.5957 22.5254C11.377 22.7592 11.0902 22.9192 10.7744 22.9776C10.44 23.0393 10.0939 22.9856 9.79397 22.8252C9.4941 22.6647 9.25727 22.4063 9.12307 22.0938C8.98902 21.7813 8.96554 21.4324 9.05569 21.1045L9.06643 21.0655L10.9863 15.0459L11.003 15H3.99904C3.62207 15.0005 3.25198 14.8938 2.93264 14.6934C2.61248 14.4923 2.35569 14.2043 2.1924 13.8633C2.0291 13.522 1.96539 13.1405 2.00979 12.7647C2.05422 12.389 2.20508 12.0331 2.44338 11.7393C2.46191 11.7165 2.4815 11.694 2.50197 11.6729L6.32229 7.73636L1.29299 2.70706C0.902523 2.31659 0.902638 1.68354 1.29299 1.293ZM12.8701 14.2842C12.9274 14.4338 12.9672 14.5901 12.9873 14.75C13.0256 15.0546 12.9899 15.3627 12.8897 15.6524L12.8926 15.6533L11.626 19.6241L14.8682 16.2823L12.8701 14.2842ZM4.00197 13H10.999C11.246 12.9996 11.4904 13.0458 11.7197 13.1338L7.73635 9.15042L4.00197 13Z" fill="#E4F2F2"/>
<path d="M20 9.00101C20.3773 9.00038 20.7478 9.1051 21.0674 9.30569C21.3877 9.50688 21.6444 9.79556 21.8076 10.1367C21.9708 10.4779 22.0346 10.8588 21.9903 11.2344C21.9458 11.6101 21.795 11.966 21.5567 12.2598C21.5381 12.2827 21.5186 12.305 21.4981 12.3262L19.7783 14.0996C19.394 14.4958 18.7607 14.505 18.3643 14.1211C17.9679 13.7366 17.9583 13.1035 18.3428 12.7071L19.9981 11H15.6563C15.1041 11 14.6565 10.5521 14.6563 10C14.6563 9.44775 15.104 9.00003 15.6563 9.00003L20 9.00101Z" fill="#E4F2F2"/>
<path d="M13.2246 1.02249C13.5591 0.960629 13.9051 1.01442 14.2051 1.17483C14.4677 1.31534 14.682 1.52993 14.8213 1.79105L14.876 1.9053L14.9209 2.02444C15.0141 2.30494 15.0232 2.60775 14.9444 2.89456C14.9408 2.90747 14.9367 2.92087 14.9326 2.93362L13.5557 7.25101C13.3877 7.77688 12.8249 8.06721 12.2988 7.89944C11.7728 7.73156 11.4827 7.16867 11.6504 6.64261L12.374 4.37308L11.2305 5.55179C10.8458 5.94791 10.2127 5.95778 9.81643 5.57327C9.42027 5.18869 9.41056 4.55551 9.79494 4.15921L12.4024 1.47366C12.6211 1.23938 12.9086 1.08106 13.2246 1.02249Z" fill="#E4F2F2"/>
</svg>
