<svg width="24" height="24" viewBox="0 0 24 24" fill="none" xmlns="http://www.w3.org/2000/svg">
<path fill-rule="evenodd" clip-rule="evenodd" d="M13.2256 1.02248C13.5184 0.968417 13.8201 1.00214 14.0918 1.11916L14.2061 1.17482L14.3155 1.23927C14.528 1.37737 14.702 1.56743 14.8213 1.79103L14.877 1.90529L14.9219 2.02443C15.015 2.30491 15.0232 2.60776 14.9444 2.89455C14.9408 2.90744 14.9377 2.92086 14.9336 2.93361L13.0137 8.95314L12.9971 9.00002H20C20.3773 8.99936 20.7478 9.10506 21.0674 9.30568C21.3878 9.50688 21.6443 9.79548 21.8076 10.1367C21.9709 10.478 22.0346 10.8587 21.9903 11.2344C21.9459 11.6102 21.795 11.9659 21.5567 12.2598C21.5381 12.2826 21.5186 12.3051 21.4981 12.3262L11.5977 22.5264L11.5967 22.5254C11.3781 22.7592 11.0911 22.9191 10.7754 22.9776C10.441 23.0394 10.0949 22.9856 9.79495 22.8252C9.49499 22.6648 9.25831 22.4063 9.12405 22.0938C8.98996 21.7812 8.96648 21.4324 9.05667 21.1045L9.06741 21.0654L10.9873 15.0459L11.0039 15H4.00003C3.62302 15.0006 3.25302 14.8938 2.93362 14.6934C2.61336 14.4923 2.35672 14.2044 2.19339 13.8633C2.03002 13.5219 1.96636 13.1405 2.01077 12.7647C2.05524 12.3889 2.206 12.0331 2.44436 11.7393C2.46288 11.7165 2.48251 11.6939 2.50296 11.6729L12.4033 1.47365C12.6221 1.23972 12.9097 1.08091 13.2256 1.02248ZM4.00296 13H11C11.3225 12.9995 11.6407 13.0768 11.9268 13.2256C12.2136 13.3749 12.4608 13.5911 12.6455 13.8565C12.8303 14.1219 12.9479 14.4291 12.9883 14.75C13.0266 15.0546 12.9908 15.3627 12.8907 15.6524L12.8936 15.6533L11.627 19.624L19.9981 11H13C12.678 11.0005 12.36 10.923 12.0742 10.7744C11.7873 10.6252 11.5403 10.408 11.3555 10.1426C11.1708 9.87723 11.0532 9.5708 11.0127 9.25002C10.9743 8.94499 11.0089 8.6358 11.1094 8.34572H11.1075L12.3731 4.37404L4.00296 13Z" fill="#E4F2F2"/>
</svg>
